<?xml version="1.0" encoding="UTF-8"?>
<!-- Created with Inkscape (http://www.inkscape.org/) -->
<svg version="1.1" viewBox="0 0 303.1 273.97" xmlns="http://www.w3.org/2000/svg">
 <g transform="translate(32.615 -17.835)">
  <path d="m237.01 166.59c1.525 1.3146 8.7687 18.134 27.595 18.226 3.7599 0 5.1929 0.65732 4.8642 3.1552-1.9063 15.259-27.873 31.537-49.439 27.503 8.256-8.0194 16.419-33.161 16.975-48.883" fill="#f1c5d2"/>
  <path d="m232.65 199.39c-3.4838-0.92026-11.687 13.171-11.687 15.722 0 2.5504 16.696 0 21.52-1.617 9.873-3.2866 25.646-13.636 25.74-24.534-2.6424 3.2472-8.5847 6.9545-15.12 9.3209-2.7345 1.0517-13.867 2.9185-20.452 1.0517" fill="#d1aab7"/>
  <path d="m222.99 214.17c14.61 1.1832 33.346-6.1263 42.111-19.665 5.837-8.9922 0.78879-8.348-1.3146-8.4795-8.5847-0.52585-22.4-7.2832-25.692-17.485-0.92026-3.0632-0.52587-7.98 0.52585-5.2849 3.7993 10.386 12.529 20.824 28.569 20.453 4.036-0.0934 4.5882 5.1929 0.3944 12.384-6.6259 11.451-25.09 23.653-46.702 20.591-2.3664-0.26293-9.0448-3.3918 2.0903-2.4978" fill="#0f141b"/>
  <path d="m27.997 64.012c-2.0903 1.3147-10.254 11.411-18.644 18.18-7.3226 5.8502-21.055 9.8336-28.383 11.227-2.4058 0.52587-1.1832 4.036 0 6.8231 1.3147 2.8265 8.256 8.6241 11.924 7.1386 3.6679-1.433 28.245-21.797 30.563-25.09 2.3138-3.2866 10.622-21.938 4.5487-18.274" fill="#f1c5d2"/>
  <path d="m-7.1214 107.39c3.6679-1.433 28.291-21.798 30.563-25.091 0.52587-0.78878 1.433-2.3664 2.3664-4.312-12.752 10.018-29.218 20.916-41.417 26.204 2.695 2.2218 6.2183 4.128 8.4927 3.1946" fill="#d1aab7"/>
  <path d="m6.8244 84.942c-6.7705 4.4041-8.348 12.108-4.8248 13.96-2.8265 2.1297-10.806 6.9545-11.871 7.0991-1.3146 0.13139-3.5233 0.0473-7.0071-2.9711-3.8519-3.2866-4.6407-9.0974-1.341-9.781 5.3769-1.1832 12.331-2.4978 25.044-8.2954" fill="#e797a0"/>
  <path d="m-9.8756 106c1.0517-0.13139 9.0448-4.9168 11.871-7.0991-1.0517-0.52587-1.6696-1.6696-1.8142-3.1026-5.5215 3.3918-10.898 6.3103-15.676 8.348 2.7345 1.9062 4.4961 1.9983 5.6136 1.8537" fill="#c9828b"/>
  <path d="m-6.4154 105.38c-9.5049 0.52587-14.703-9.597-10.478-10.622 19.107-4.7328 36.361-14.285 46.841-34.134 2.0903-4.036 3.1946-8.4006 0.52585-3.5233-9.4655 16.835-27.641 31.212-47.351 34.181-6.0343 0.92025-6.5864 6.5338-2.3664 11.082 4.9562 5.3769 11.043 5.4295 12.844 5.1403 4.4041-0.65732 3.5758-2.3138 0-2.1297" fill="#0f141b"/>
  <path d="m174.87 50.952c-31.166-24.163-71.376-41.045-107.09-25.74-65.625 28.152-71.468 147.57-44.986 189.18 20.639 32.418 56.117 50.969 104.07 47.584 14.146-0.92028 27.781-3.1552 43.27-9.7416 54.449-23.235 77.266-66.368 62.518-126.1-4.9168-19.757-26.714-51.108-57.787-75.178" fill="#f1c5d2"/>
  <path d="m94.192 260.76c-15.769 3.2472-32.511 10.53-35.759 18.736-2.603 6.5864 5.7976 10.714 14.1 10.951 22.771 0.65731 49.021-14.703 50.505-19.85 1.433-5.1009 1.9062-7.8353-1.9983-8.5847-4.3646 1.0517-20.498-0.13139-26.852-1.3146" fill="#e797a0"/>
  <path d="m61.653 249.63c13.913 12.2 72.071 21.984 119.24-2.511 48.883-25.369 62.61-64.28 53.334-117.43-5.8371 55.561-29.96 80.883-49.068 94.054-31.026 21.334-62.1 30.748-123.5 25.879" fill="#d1aab7"/>
  <path d="m206.94 233.58c1.433 14.052 36.454 26.481 46.982 24.023 10.478-2.4584 11.043-8.2955 9.0842-13.357-6.3103-16.324-33.67-26.481-43.687-24.534-10.018 1.9457-13.12 6.5864-12.384 13.868" fill="#e797a0"/>
  <path d="m73.229 221.23c11.227 31.444 42.111 28.615 51.202 26.156 20.962-5.6136 40.441-26.991 22.679-58.436-1.433-2.5504-1.9457-1.4856-2.4058 0-4.4041 14.377-17.577 28.291-35.34 34.366-6.9545 2.4058-24.441 6.3498-35.293-4.3646-1.433-1.3935-3.1552-4.1674-0.7888 2.2744" fill="#e797a0"/>
  <path d="m152.35 36.199c11.451 5.3769 27.919 6.8231 43.41 2.5504 4.128-1.0517 9.2288-0.92027 10.754 1.9983 1.3146 2.3138 0.52587 5.4295-3.4838 8.2034-4.3121 3.0105-11.411 4.7327-16.883 4.5881-12.844-0.3944-23.235-6.5338-26.945-8.7687-3.7073-2.2218-10.846-10.438-6.8625-8.5847" fill="#f1c5d2"/>
  <path d="m159.27 43.286c-1.4855-0.78881-1.3146 0.26292-0.78879 0.78879l-0.0473 0.09209c0.26293 0.26292 0.52587 0.39438 0.7888 0.52585 3.7073 2.2218 14.1 8.4006 26.945 8.7687 5.2849 0.13139 12.108-1.433 16.419-4.2726-14.702 2.7345-31.398 0.52585-43.318-5.9817" fill="#d1aab7"/>
  <path d="m176.58 41.129c4.9562 0.92025 7.98 6.0737 6.6784 11.779 4.9694 1.7091 7.9274 0.65734 11.227 0.13139 5.3769-0.92025 13.265-6.639 12.423-11.043-0.65734-3.7073-6.2183-4.2726-10.202-3.1946-6.3103 1.6696-12.66 2.695-20.129 2.3138" fill="#e797a0"/>
  <path d="m183.54 50.126c0 0.92025-0.0934 1.8537-0.26291 2.7871 4.9694 1.7091 7.9273 0.7888 11.227 0.13139 2.4584-0.52585 5.469-1.9062 7.8879-3.7599-6.0737 1.0517-12.529 1.3935-18.83 0.78879" fill="#c9828b"/>
  <path d="m181.42 53.011c4.9168 0.3944 15.118 0.26294 22.307-5.745 3.2998-2.7871 3.4312-9.2814-5.745-7.6513-15.397 2.7345-28.847 4.4041-40.118 0.13139-3.4707-1.341-10.018-4.4961-15.118-8.4006-4.5881-3.4838 3.3392 0.39438 6.2183 2.0377 15.722 8.9528 28.939 8.1114 48.094 3.9834 10.806-2.3138 14.841 6.2578 7.7039 11.779-6.9545 5.2849-16.232 6.2183-22.492 5.4295-4.3646-0.52585-5.2455-1.9457-0.7888-1.5776" fill="#0f141b"/>
  <path d="m92.053 168.5c-17.67 8.7687-25.136 29.728-18.551 49.485 2.1297 6.3498 19.896 10.478 37.566 5.3375 9.7416-2.8265 28.847-16.417 32.79-33.161-8.4401-17.021-30.378-32.279-51.805-21.658" fill="#fff"/>
  <path d="m38.037 182.39c5.7582 4.7328 12.844 3.5759 15.769 3.0632 11.359-2.0903 14.979-8.7687 13.774-10.346-8.7687 2.6425-25.136 4.5881-28.569 2.4058-1.1832-0.78881-5.1009 1.433-0.92025 4.8642" fill="#d1aab7"/>
  <path d="m166.24 144.61c2.1823-1.5382-4.0886 14.052-14.331 17.948-9.0974 3.4838-14.146-5.745-12.055-5.9422 11.227-1.3147 23.931-10.294 26.389-12.016" fill="#d1aab7"/>
  <g fill="#c9828b">
   <path d="m73.794 267.79c3.6153-3.5233 24.859-9.6496 26.112 17.113 6.1657-2.4584 21.52-7.9274 23.977-16.696 2.4058-8.7687-11.319-7.6513-14.748-7.6513-3.3918 0-25.415 0.046-35.34 7.2306"/>
   <path d="m206.62 229.78c-1.8537 4.6407 4.5487 12.713 9.1894 15.676 1.4856-4.8642 0.26293-10.202 7.5592-16.557 5.9817-5.1929 15.12-4.4041 17.067-4.4041-6.823-2.7345-11.595-5.1929-22.678-4.8642-3.0106 3.3918-5.7582 6.0342-11.135 10.162"/>
   <path d="m128.12 213.46c2.1823 9.8862 1.1832 27.178-10.478 35.48 16.093-1.3147 31.677-12.292 35.897-29.636 1.9983-8.256-1.4856-29.774-8.5847-30.701-3.4838 6.9545-7.3226 16.649-16.835 24.857"/>
  </g>
  <path d="m107.16 166.06c14.608 0 22.169 28.985 21.426 45.821-0.0921 2.2744 15.351-16.557 15.63-21.195 0.26294-4.6407-17.81-21.195-23.885-22.679-6.1263-1.4856-5.1534-3.8914-13.171-1.9457" fill="#dbdcdc"/>
  <path d="m180.64 54.695c-3.2866-2.5899-9.9782-5.7976-5.1008-1.9062 33.856 26.806 77.869 76.43 53.288 142.84-19.293 52.176-102.59 81.301-161.9 55.236-50.831-22.354-61.08-73.463-56.814-118.12-0.7888 1.0517-1.9983 1.8142-3.2866 2.3664-3.4838 46.424 9.0842 98.136 59.363 119.52 63.63 27.084 146.46-4.9562 165.66-56.906 24.533-66.368-17.578-116.6-51.202-143.03" fill="#0f141b"/>
  <path d="m-16.981 109.41c-7.9799 3.4312-15.026 4.6407-13.913 9.1368 1.617 6.6784 15.305 12.844 35.154-5.0614 4.2726-3.8914 17.67-24.951 19.619-28.939 3.7073-7.5592 2.695-12.055 3.4313-17.949-11.871 26.9-35.155 38.865-44.292 42.808" fill="#f1c5d2"/>
  <path d="m16.152 94.78c-12.016 18.272-26.112 26.852-42.854 28.8 5.745 3.1946 16.789 2.695 30.934-10.11 2.511-2.2744 8.8607-10.478 13.496-17.67 0.26294-1.0517-0.52585-2.6425-1.5776-1.0517" fill="#d1aab7"/>
  <path d="m122.03 263.2c3.0106 5.1534-1.1832 8.9002-6.4944 12.476-18.458 12.292-38.401 13.775-45.542 12.713-6.3498-0.92026-11.595-3.7073-9.1894-9.505 2.4058-5.837 16.742-13.496 32.185-16.557 3.6153-0.78878 2.8265-1.4856-0.26294-1.433-7.6118 0.13139-28.383 6.2183-34.968 17.207-3.7599 6.2578 0.0921 12.292 11.595 13.449 19.386 1.9062 38.772-7.1386 48.14-13.728 7.6118-5.3375 9.3209-10.714 6.6259-15.12-1.9457-3.1946-3.3392-1.5776-2.1297 0.52585" fill="#0f141b"/>
  <path d="m0.52725 99.937c-3.1026 2.4058-21.38 11.635-26.204 13.17-2.603 0.78881-5.3375 2.8265-5.0088 5.561 0.65732 5.7976 8.9528 6.731 15.861 5.2455 6.4024-1.341 11.779-4.6407 14.052-6.2578-3.9834-5.0088-3.9439-14.1 1.3147-17.716" fill="#e797a0"/>
  <path d="m-14.811 123.93c6.4024-1.3409 11.779-4.6407 14.052-6.3103-0.7888-0.92025-1.3147-1.9062-1.7616-3.0106-7.3226 5.0614-15.305 7.8879-23.978 8.9528 3.1946 1.3146 7.6513 1.3146 11.687 0.39438" fill="#c9828b"/>
  <g fill="#0f141b">
   <path d="m144.79 187.05c-0.78879 0.52587-1.3409 1.3147-1.6696 2.1823-5.7976 16.603-18.876 27.455-33.207 32.325-12.805 4.4041-31.769 4.128-37.473-5.561-0.26294-0.3944-0.92028 0.39438 0.39438 2.603 4.8248 8.5321 22.679 11.135 38.17 5.745 14.887-5.2455 29.171-16.835 35.062-35.201 0.78878-2.4978 0.52587-3.1026-1.3147-2.0903"/>
   <path d="m71.866 214.38c6.1263 21.705 20.175 30.424 33.624 32.279 13.59 1.9062 31.631-2.4058 39.931-13.728 9.7416-13.265 9.2814-30.702 1.1832-42.158-1.4856-2.0903-1.709-3.3392-1.0517-3.7073 0.52585-0.3944 0.26293-1.617 2.8791 2.2218 8.256 12.239 9.873 31.445-0.52587 45.404-8.9002 11.924-27.132 17.392-42.854 15.072-11.963-1.7616-30.007-12.476-34.042-31.954-0.52587-2.3664 0.13139-6.1657 0.92025-3.4312"/>
   <path d="m152.58 35.425c-68.639-41.416-115.76-1.7616-130.55 37.335-6.3103 16.557-31.166 33.763-49.857 39.7-5.8371 1.8536-7.7433 10.386 2.511 13.218 9.9782 2.7871 26.807-3.6153 37.241-21.055 1.1832-1.9983 2.2743-4.5881-1.525 0.13139-7.0465 8.9528-19.896 21.333-34.458 18.226-3.8914-0.78879-7.7039-6.0737-2.695-7.8879 22.076-7.98 43.92-23.885 51.665-41.74 0.04595-0.04728 4.4041-9.3209 6.9151-13.496 22.54-37.566 66.274-51.851 119.19-23.329 7.4672 4.036 9.8862 3.8519 1.5776-1.1832"/>
   <path d="m143.48 191.8c0.3944 0.92025 1.3147-3.2472 1.0517-3.6679-7.0465-12.989-19.573-21.566-30.702-24.255-13.59-3.2078-26.436 3.1946-33.021 10.99-5.1008 6.0737-13.028 19.201-9.6496 38.865 0.92025 5.7056 4.036 6.639 3.2472 4.4041-0.3944-1.0517-1.0517-4.128-1.1832-4.8642-2.7345-18.412 5.1009-31.351 10.162-36.823 5.9422-6.3498 17.949-12.621 29.451-9.5575 10.662 2.8265 23.002 9.873 29.728 22.54 0.39438 0.65734 0.65732 1.4856 0.92025 2.3664"/>
   <path d="m57.364 74.28c0.65734 3.8519-0.0473 7.1911-1.5381 7.4146-1.525 0.26293-3.2472-2.6424-3.9439-6.4944-0.65734-3.8519 0.04595-7.1911 1.525-7.4146 1.525-0.26294 3.2866 2.6425 3.9439 6.4944"/>
  </g>
  <path d="m55.522 71.581c-0.26293-1.9062-1.0517-3.0106-1.8142-2.9185-0.78879 0.09342-1.1832 1.7616-1.0517 3.3786 0.13139 1.1832 0.92025 1.9457 1.7091 1.8537 0.78879-0.09342 1.3146-1.0517 1.0517-2.3138" fill="#fff"/>
  <path d="m93.662 65.204c1.0517 3.7599 0.7888 7.1386-0.78879 7.5593-1.4856 0.39438-3.5233-2.3138-4.5881-6.0737-1.0517-3.7599-0.78881-7.1386 0.78879-7.5593 1.4856-0.39438 3.5233 2.3138 4.5881 6.0737" fill="#0f141b"/>
  <path d="m91.567 62.76c-0.3944-1.525-1.5776-2.8265-2.1823-2.695-0.78879 0.26294-0.92026 2.0377-0.52585 3.5233 0.39438 1.1832 1.1832 1.8142 1.9062 1.5776 0.92025-0.26294 1.1832-1.1832 0.78878-2.4058" fill="#fff"/>
  <path d="m262.33 240.44c-4.4041-8.9528-13.542-14.052-23.235-17.948-5.745-2.3138-13.403-4.036-19.711-3.7993-2.8791 0.0921-3.7599 1.433-2.8791 2.603 6.5864-1.9983 14.887 0.26294 21.89 3.1026 8.4006 3.3786 17.67 9.5575 21.659 17.206 4.0754 7.8353 1.3146 13.12-5.9817 14.331-9.2289 1.525-24.303-2.2743-38.17-12.2-4.6407-3.3392-8.8608-9.0448-8.5321-13.45-1.3146-0.52587-2.0377-0.52587-1.9983 0.78878 0.26293 5.9422 5.0088 11.963 9.3735 15.12 13.081 9.6496 29.914 14.238 40.164 12.621 9.0448-1.433 13.31-6.3498 7.4146-18.412" fill="#0f141b"/>
  <path d="m156.78 42.178c16.325 13.542 32.187 12.989 53.242 9.9651 3.7993-0.52585 10.478 2.9185 9.597 6.3498-1.7616 6.9151-10.478 11.963-21.984 13.219-13.028 1.4855-35.154-5.5215-45.729-23.143-2.0903-3.5233 2.4058-8.4401 4.8642-6.4024" fill="#f1c5d2"/>
  <path d="m156.02 53.256c-0.65733-0.52587-1.0517-0.52587-1.0517-0.26294 11.319 14.377 30.748 20.081 42.621 18.782 7.5593-0.92025 13.913-3.3392 17.902-6.8625-14.238 5.9422-38.354 4.7327-59.502-11.635" fill="#d1aab7"/>
  <path d="m184.06 70.95c-4.312-6.0737-2.9711-13.12 0.65732-16.696 5.7976 1.3409 20.731-0.52587 24.58-0.92025 6.4944-0.7888 10.898 2.0903 8.4926 6.7704-6.3498 12.568-20.685 11.779-33.717 10.898" fill="#e797a0"/>
  <path d="m181.8 66.076c0.39438 1.6696 1.1832 3.2998 2.2743 4.8642 10.714 0.78881 22.262 1.3935 29.59-5.3375-8.4401 2.9711-19.804 3.6153-31.862 0.52585" fill="#c9828b"/>
  <path d="m172.77 65.793c0.39439 0.13139 21.89 10.622 39.282-0.13139 4.9694-3.0632 6.5864-7.1911 5.2455-9.3735-1.3147-2.1823-5.3375-3.1552-10.99-2.2743-20.268 3.2472-35.434-0.52585-46.842-8.6241-1.8142-1.3147-3.0106-3.0632 0.3944-1.1832 17.113 9.1894 27.362 10.386 45.821 7.4672 6.5864-1.0517 12.055 0.09342 14.146 3.2866 2.2218 3.5233 0.046 9.0842-6.9151 13.45-9.3209 5.8371-27.316 6.1263-39.142-0.52587-3.7993-2.1297-3.5759-3.0631-1.0517-2.0903" fill="#0f141b"/>
  <path d="m38.195 146.35c12.147 10.162 28.337 15.445 30.053 17.577 3.0632 3.7599 0.52587 9.3735-2.1297 11.227-6.3498 4.4041-18.226 7.2306-36.128-1.5381-4.8642-2.3664 3.6679-31.073 8.2034-27.27" fill="#f1c5d2"/>
  <path d="m38.246 177.43c-1.4856-0.92026-4.9694-2.0903-2.2743-1.8537 2.2218 0.13139 15.955 0.65734 29.126-5.653 4.3646-2.1297 5.0483 2.1297 1.709 4.3646-2.0377 1.341-4.4041 3.8914-13.403 5.3769-6.0343 0.92025-13.218-1.0517-15.166-2.2218" fill="#d1aab7"/>
  <path d="m36.433 175.45c7.8353 2.4978 12.989 3.5233 21.333 1.6696 7.8353-1.7616 11.871-5.9422 9.689-10.846-2.2218-5.1929-16.417-6.7704-27.734-17.438-1.9457-1.8536-0.52587-2.7345 1.3935-1.3146 12.331 9.5049 26.714 11.043 29.543 17.81 1.9062 4.5487-0.26293 11.451-12.016 14.47-9.1894 2.3664-18.644-0.26293-22.864-2.695-2.419-1.3147-2.419-2.695 0.65732-1.7222" fill="#0f141b"/>
  <path d="m155.59 119.17c-2.4584 3.1552-13.82 15.909-22.4 22.03-4.6407 3.2866-1.3147 11.411 3.1552 13.311 9.2288 3.9834 21.659-2.0377 33.346-13.542 5.653-5.561-10.386-26.622-14.1-21.798" fill="#f1c5d2"/>
  <path d="m141.09 155.66c7.2832 0.0934 11.267-1.617 17.254-4.7722 3.7599-1.9983 7.6118-4.8248 9.5049-8.9922 1.4856-3.1026 3.1552-7.7433-3.2472-3.0632-9.1894 6.731-19.896 10.806-29.635 11.687-2.4058 0.26294 2.2218 5.1009 6.1263 5.1534" fill="#d1aab7"/>
  <path d="m162.04 146.7c-3.1026 2.2218-11.451 8.6241-20.731 7.2306-5.9422-0.92025-12.805-6.3103-4.4567-13.774 11.227-10.018 13.45-11.832 17.485-17.346 2.3664-3.2866 0.65734-4.3646-1.5776-1.1832-2.4978 3.4838-8.4006 8.8082-18.272 16.789-8.3086 6.7179-4.9694 16.557 6.1263 18.505 7.6118 1.3147 16.093-2.511 22.446-8.6767 5.0088-4.8248 3.8914-5.1008-1.0517-1.5776" fill="#0f141b"/>
  <path d="m19.207 90.949c-6.2183 20.452-36.313 41.276-41.74 43.41-5.3769 2.1297-5.561 7.4672-0.26294 9.2683 6.1657 2.0903 16.325 1.7222 26.064-5.3375 9.8336-7.1386 21.38-21.936 21.984-37.287 0.13139-3.5759-4.8642-14.098-6.0737-10.057" fill="#f1c5d2"/>
  <path d="m25.042 103.44c0.13139-0.78879-0.26294-2.9185-1.1832-0.78879-11.687 28.708-26.666 38.726-48.186 40.302 0.52585 0.26294 0.92025 0.52585 1.525 0.78879 6.1657 2.0903 16.325 1.7222 26.11-5.3769 9.2289-6.6784 19.989-20.129 21.752-34.506-0.04728-0.13139-0.04728-0.26293-0.04728-0.26293" fill="#d1aab7"/>
  <path d="m-2.3624 120.19c-2.5504 7.0071 2.9711 15.768 8.5321 15.953-9.9256 8.5847-30.796 11.871-32.187 3.8914-1.0517-6.1263 12.147-7.7433 23.653-19.85" fill="#e797a0"/>
  <path d="m6.1842 136.15c-1.525-0.046-3.0632-0.78879-4.4041-1.9062-7.4672 5.3375-16.001 7.9274-25.925 8.6767 5.653 3.944 21.89 0.52585 30.33-6.7705" fill="#c9828b"/>
  <path d="m23.502 105.62c-8.7687 27.873-25.136 36.963-41.508 37.66-5.6136 0.26294-10.53-4.3121-3.0106-8.072 7.5987-3.7994 33.205-23.142 38.818-38.957 0.65732-2.0903-0.26294-2.9185-2.1297 0.39441-5.745 10.806-21.426 27.503-38.818 36.964-7.9799 4.3646-5.0614 11.319 3.9834 12.147 16.834 1.5381 37.194-11.175 44.291-38.818 1.0517-4.036 0.65734-8.3086-1.617-1.3146" fill="#0f141b"/>
  <path d="m146.7 62.514c8.1114 12.384 20.453 29.682 42.854 32.139 10.346 1.0517 21.009-3.2472 26.899-10.202 2.9711-3.4838 0.26293-7.98-3.2998-7.6118-7.7959 0.65732-27.409-3.5758-36.546-8.4006-6.8231-3.6153-14.933-7.3752-21.101-15.258-3.8914-5.0088-7.9274-1.0517-9.1368 0.65732-1.1832 1.7222-1.7616 5.4295 0.26294 8.6241" fill="#f1c5d2"/>
  <path d="m149.6 64.698c-0.92026-1.341-1.0517 0.52585-0.65734 1.3146 8.1114 11.924 20.175 26.482 40.535 28.662 10.018 1.0517 20.313-2.9185 26.296-9.4655-19.107 8.9002-47.723 5.3375-66.228-20.453" fill="#d1aab7"/>
  <path d="m183.66 72.517c-3.1946-1.3147-13.542 10.898-8.7687 16.279 5.1009 5.745 23.606 7.7433 35.201 0.65732 7.8879-4.6802 8.3086-13.028 2.9185-12.621-5.837 0.52586-22.446-1.4856-29.358-4.3646" fill="#e797a0"/>
  <path d="m173.67 84.859c-0.0934 1.4855 0.26293 2.8265 1.1832 3.944 5.1008 5.7056 23.606 7.7433 35.247 0.65732 1.8142-1.0517 3.2472-2.3664 4.2726-3.7073-11.74 4.9562-26.714 5.3769-40.72-0.92026" fill="#c9828b"/>
  <path d="m156.27 55.957c13.081 13.913 37.335 22.586 53.475 22.03 15.119-0.52585-1.525 19.617-26.251 13.867-13.264-3.1026-20.962-9.5049-33.159-25.462-2.4058-3.1552-2.695-1.3409-1.3935 0.78879 10.057 16.232 20.267 23.837 32.928 27.362 13.081 3.6679 26.11-0.26293 31.629-5.3769 9.2289-8.6241 5.3769-14.423-4.4961-13.867-17.902 1.0517-38.678-8.9922-51.619-20.313-2.6425-2.3138-4.0754-2.1297-1.0517 1.0517" fill="#0f141b"/>
  <path d="m78.608 104.18c-1.5776-0.52587-1.3147-1.5776 0.26293-1.1832 1.525 0.39438 3.9834-0.26293 4.9694-1.433 1.3146-1.525 1.9983-0.7888 0.7888 0.92026-1.3146 1.617-4.1806 2.4058-6.0737 1.709" fill="#0f141b"/>
  <path d="m81.188 82.749c-2.603 1.3147-6.731 2.7871-10.386 3.3392 3.5759 8.2034 6.3498 11.175 8.5847 10.386 2.4584-0.78878 3.0106-5.8502 1.8142-13.728" fill="#8b3122"/>
  <path d="m74.185 92.707c1.9983 3.1552 3.7073 4.2726 5.1929 3.7993 1.8142-0.65732 2.5504-3.4838 2.3664-8.072-3.7599 0-6.4944 1.9457-7.5592 4.2726" fill="#e18193"/>
  <path d="m71.935 86.7c3.6679 8.2034 5.9422 9.4655 7.1912 9.0448 1.8537-0.65734 2.3664-5.0088 1.433-11.819-2.2218 0.92025-5.469 2.1297-8.6241 2.7871m-1.617 0.26293c-0.52586 0.046-0.92026 0.0921-1.4856 0.1314-2.1823 0.0921-2.3138-1.0517-0.26292-1.3147 3.4838-0.3944 8.072-1.9062 11.451-3.4312 1.433-0.65732 1.8142-0.3944 2.0377 0.92025 1.1832 8.3086 0.26292 12.936-2.4584 13.867-2.1823 0.78879-5.4689-1.5776-9.3209-10.254" fill="#0f141b"/>
  <path d="m73.726 91.857c1.0517-2.1297 3.6679-4.22 7.98-4.22 0.52585 0 0.52585 1.5776 0 1.5776-3.944 0-6.0737 1.9983-6.7705 3.8519-0.13139 0.26294-1.341-0.92025-1.1832-1.1832" fill="#0f141b"/>
 </g>
</svg>
