<?xml version="1.0" encoding="UTF-8"?>
<!-- Created with Inkscape (http://www.inkscape.org/) -->
<svg version="1.1" viewBox="0 0 322.41 318.29" xmlns="http://www.w3.org/2000/svg">
 <path d="m141.22 88.401c1.951 1.2587 15.071 22.231 15.599 25.134 0.11447 0.64298-5.094 3.8445-8.5926 5.3057l0.23975 0.28878c4.8153 10.524 9.7075 18.319 13.629 23.471v-9e-3c-0.67267-0.88546-1.3552-1.8172-2.0472-2.8065 11.832-19.675 38.349-27.469 52.026-19.876 1.1715-2.5855 2.354-5.2 3.3735-8.0064-6.997-2.8354-11.341-8.602-9.8226-15.109 0.51901-2.2014 2.7294-5.8628 6.1032-8.8712-0.1907 0.16347-0.38414 0.31604-0.55851 0.47951-2.2096 0.16347-10.409 0.74923-11.937-0.27244-1.5282-1.0271-4.5942-6.8047-7.1413-10.543-10.909-16.003-22.741-27.172-30.535-30.372-1.3745 4.9594-3.4024 9.9381-4.7384 9.9476-3.8446 0.02724-12.178-8.6118-24.461-15.186-1.192-0.6348-2.3452-1.3078-3.4697-1.9807-1.9897 5.3247-11.197 38.08-12.216 44.26 4.5461-0.81735 21.683 2.2967 24.547 4.1426m86.916-23.567c0.10896-0.30787 0.21795-0.60483 0.30787-0.90452-0.41413 5.6034-2.5174 14.263-3.6524 17.454-3.0659 0.69202-6.2666 1.9616-9.3709 3.835 2.0079-1.2315 4.1712-2.2477 6.18-2.9217 1.8363-5.7092 4.8346-12.533 6.5358-17.464" fill="#bf794e"/>
 <g fill="#965e3b">
  <path d="m182.53 104.99c-2.9411-1.1906-4.4981-1.7982-7.9582-2.3076-8.9866-1.335-18.06-4.8057-25.451-9.1692 1.0476 2.749 5.9398 7.2855 9.5152 9.8517 5.0268 3.6042 12.12 5.738 20.962 7.6602 8.5829 1.8554 20.77 3.2391 26.326 2.9125 3.1237-0.19071 4.8922 0.46044 4.5173 5.1613 0.55852 0.2452 1.1061 0.50948 1.6347 0.79827 1.1715-2.5746 2.354-5.1997 3.3734-8.0064-2.9122-1.1715-5.3727-2.864-7.1316-4.9114-7.2086 2.3948-16.464 1.7873-25.787-1.9889"/>
  <path d="m228.45 63.93c-0.10896 0.29697-0.19071 0.59666-0.30787 0.90452-1.7001 4.9308-4.7 11.755-6.5358 17.464-0.0545 0.02724-0.13621 0.05448-0.19071 0.08172 1.1443-0.40322 2.2777-0.74106 3.3928-0.98898 1.1334-3.1909 3.2296-11.851 3.6524-17.454"/>
  <path d="m143.96 53.904c3.7773 2.106 7.468 2.6537 11.053 2.8258-4.3636-1.8363-12.033-9.0635-22.654-14.744-0.45172-0.2452-0.89391-0.49859-1.3361-0.74924 2.3068 5.4689 9.8805 10.967 12.937 12.668"/>
  <path d="m193.76 86.954c1.8742 3.8829 2.5373 4.6711 4.6038 5.613 2.2202 1.0081 5.1421 1.6238 8.0735 2.1251 1.019-2.0652 2.8451-4.5943 5.2958-6.7761-0.19071 0.16347-0.38415 0.32694-0.55852 0.4904-2.2096 0.16347-10.409 0.74106-11.937-0.27789-1.5282-1.019-4.5942-6.7951-7.1412-10.544-10.909-15.993-22.741-27.171-30.535-30.362-1.1631 4.181-2.7873 8.3617-4.0656 9.5826 4.7672 0.08172 9.3518-0.01023 13.725 2.5964 5.5265 3.2966 19.896 22.058 22.539 27.556"/>
  <path d="m215.42 85.222c0.31604-0.19072 0.64299-0.37598 0.96175-0.55852-0.31604 0.19071-0.64299 0.36507-0.96175 0.55852"/>
  <path d="m199.49 104.72c-1.8646 1.0762-5.4112 2.2014-8.977 2.7392 6.4973 1.3949 12.668 1.2206 17.8-0.47951-1.2696-1.4603-2.1722-3.1141-2.6433-4.8825-1.3456 1.4222-3.2678 2.4983-6.1801 2.6237"/>
 </g>
 <path d="m249.53 168.84c3.7868-7.2757 2.7487-16.791-3.8829-21.606l0.10897-0.0272c0.9236-6.4875-0.55852-11.12-5.5555-13.898-1.4222-0.74107-10.678-1.1634-13.965-1.068-9.0347 1.068-26.835 7.3624-51.824 15.743-2.3354 0.7792-4.6519 1.2124-6.8529 1.365-0.0192-0.35418-0.0491-0.60483-0.0954-0.65387-3.8926-3.5563-11.534-13.293-18.973-29.555l-0.25065-0.29696c-1.2206 0.51764-2.2395 0.81734-2.7392 0.71109-1.9415-0.38416-14.263-13.763-14.263-13.763-0.57677 0.47951-4.6519 2.4221-5.7188 2.8065-0.38444 2.816-1.8453 18.723-2.5182 20.462-0.68248 1.7491-5.6227 3.9791-8.7271 5.046-3.1045 1.068-6.8914 1.068-7.4681 0.47951-0.41331-0.40322-3.7388-9.8517-5.6803-15.446l0.0102 0.0272c-1.73 0-3.9503 1.1061-3.9503 1.1061 0.16347 3.4794-0.31714 14.388-0.63427 15.176-0.10628 0.27789-1.0092 0.73016-2.1624 1.1524-5.3536 22.875-16.464 38.744-48.413 59.648-30.189 19.771-45.135 45.001-44.885 66.482 0.30759 25.566 24.932 49.787 41.829 54.064 5.0363 1.2778 6.0936 0.19072 5.267-4.7575-2.2011-13.254 0.3076-29.075 4.1521-35.831-3.931-3.8254-7.1893-7.9966-7.074-8.7753 0.12533-0.88273 10.15-5.1902 16.339-6.2666-0.43237 0.80645-0.7209 1.3268-1.0958 2.2395-3.2006 7.497-2.5662 16.618 1.9415 23.855 6.7184 10.803 20.059 19.607 34.562 17.281 7.4392-1.1933 15.397-6.2955 18.146-10.611 6.7664-10.64 15.916-11.812 21.76-16.666 9.1981-7.6411 11.678-23.856 9.3615-39.09-1.6532-10.851-6.3916-20.213-11.812-28.815-3.0276-4.8152-4.5077-9.5057-4.3251-12.11 0.19345-2.6918 2.7873-3.1046 3.6812-2.4302 0.22069-3.0566 0.70156-5.9688 1.3361-8.9099 5.2574 1.365 12.85 1.9316 10.669 0.47133 26.133 8.756 70.547 7.5256 90.895-0.54762 9.4482-3.7582 13.619-8.9001 14.042-10.707 0.41412-1.8063-0.55852-4.9981-1.1143-6.1129z" fill="#bf794e"/>
 <g fill="#965e3b">
  <path d="m110.88 136.14c2.9411 0.19073 7.1509-0.19071 9.621-1.4412 2.4605-1.2587 4.2194-2.2777 4.9883-3.3639 0.83614-1.2015 4.8057-19.905 5.1036-21.107 0.39396-1.5666 0.50949-1.73 2.2202-2.7297-0.98027-1.038-1.5955-1.711-1.5955-1.711-0.57677 0.47951-4.6519 2.4221-5.7188 2.8065-0.39395 2.816-1.8453 18.723-2.5278 20.463-0.67267 1.7491-5.6226 3.9791-8.7271 5.046-2.845 0.98082-6.257 1.0571-7.247 0.61573 0.57677 0.71109 1.8358 1.2968 3.883 1.4222"/>
  <path d="m213.61 147.44c0.39505 0.19071 3.5753-2.0842 5.0651-4.1714 1.4903-2.0842 4.4118-5.267 6.5551-5.267 0.29696 0 6.6606 3.0757 6.4587 3.6715-0.19072 0.59665-1.681 5.1711-1.681 5.1711 2.087-0.39506 5.267-1.7873 6.8529-3.0757 1.5856-1.2969 5.267-3.681 5.959-2.989 0.70291 0.70018-0.39505 3.8829-1.1906 5.8628-1.1143 2.7871-0.19072 4.0559 1.3922 4.0753 1.3949 0.0191 4.0753-0.29697 5.1613-0.98898 0 0 0.0272-9e-3 0.0545-0.019-0.74923-0.90453-1.5966-1.741-2.5964-2.4602l0.10896-0.0545c0.92359-6.4876-0.55852-11.12-5.565-13.898-1.414-0.74107-10.678-1.1525-13.965-1.0571-3.2582 0.37598-7.6602 1.4522-13.129 3.0468-1.038 5.5552 0.19071 11.976 0.52856 12.149"/>
  <path d="m99.521 135.35c0.25882-0.88545 2.2011-7.5354 3.2583-11.438-0.60538-1.7001-1.1822-3.3639-1.6723-4.7768l0.0102 0.0272c-1.7396 0-3.9503 1.1061-3.9503 1.1061 0.16347 3.4794-0.31713 14.388-0.63427 15.176-0.10628 0.27245-0.94186 0.70019-2.0376 1.1061 1.038 0.16347 2.4316 0.34602 3.0468 0.4223 1.0187 0.10897 1.6821-0.60484 1.9799-1.6238"/>
  <path d="m244.68 167.89c-1.0298 0.74105-1.0762 0.98081-1.2315 2.1142-0.13623 1.1334-0.29697 2.1142-2.354 4.0271-12.629 11.736-62.743 18.656-94.874 8.3429-3.4505 0.93178-11.399 0-13.514-0.92359-1.384-0.60484-4.2386-2.9604-6.5646-5.2574 1.2783 2.9795 3.7004 7.1989 4.921 8.1217 1.211 0.92359 4.0656 1.5966 4.0656 1.5966l0.0102 9e-3h0.0102c5.2478 1.3541 12.85 1.9235 10.669 0.47134 26.124 8.7559 70.548 7.516 90.895-0.55852 9.448-3.7486 13.619-8.9003 14.032-10.698 0.41412-1.8063-0.55852-5.0073-1.1143-6.1225l-0.10897-0.16347c1.2206-2.3458 1.9317-4.94 2.1251-7.5256-1.2505 2.4112-5.9494 5.8342-6.978 6.5742"/>
  <path d="m50.165 237.75c-5.094 8.6023-12.581 31.794-12.985 44.779-0.43238 14.138 1.7205 25.701-0.25884 27.815-1.3167 1.4031-6.0552-0.0193-10.87-2.6155 5.7284 4.5463 11.649 7.7566 16.849 9.0733 5.0364 1.2778 6.0936 0.19071 5.267-4.7673-2.2011-13.245 0.30759-29.074 4.1521-35.831-3.9311-3.8156-7.1893-7.9868-7.074-8.775 0.12533-0.87456 9.9382-5.094 16.147-6.2282 1.0764-25.691 3.2198-35.764 12.649-47.759-9.2173 4.5077-16.916 12.533-23.875 24.307"/>
 </g>
 <path d="m62.315 246.84s-4.8826-5.4495-4.9883-8.6696c-0.15257-4.3731 4.0175-15.138 6.209-18.406 1.2015-1.8063 7.1605-1.4903 7.1605-1.4903-2.4605 3.268-7.641 13.321-8.3811 28.565" fill="#bf794e"/>
 <path d="m121.81 260.91c-2.9411-3.335-10.438-6.603-12.831-7.1316 0 0-0.25882-2.6536-10.467-5.6996-10.198-3.0468-29.805 1.5966-36.927 13.081-0.44219 0.80644-0.7209 1.335-1.1053 2.2395-3.2006 7.5065-2.5567 16.618 1.9415 23.865 6.7184 10.803 20.059 19.607 34.562 17.281 7.4392-1.2015 15.407-6.2955 18.156-10.611 6.7664-10.64 15.916-11.812 21.76-16.666 9.1981-7.6506 11.678-23.865 9.3519-39.099-0.38444-2.5474-0.9514-5.0171-1.6532-7.4201-3.5178 9.6114-11.072 21.799-17.733 28.325 0 0-3.1814 1.73-5.0556 1.8363" fill="#965e3b"/>
 <path d="m207.29 269.76c27.719-6.3339 48.98-40.195 48.98-70.163 0-12.62-0.27791-14.378-4.7866-16.676 0.65387 3.7197 1.2887 7.8334 1.384 8.7944 0 9.5924-14.821 19.098-38.157 22.625-21.097 3.1912-57.947-3.4023-80.899-19.511-0.91298-0.64297-3.4985-0.27244-3.6908 2.433-0.18254 2.5937 1.2974 7.2951 4.3251 12.11 5.4208 8.602 10.159 17.954 11.812 28.805 1.5282 10.005 0.98027 20.424-2.1818 28.565 12.447 6.4973 42.761 7.689 63.214 3.0179" fill="#f0e78e"/>
 <path d="m221.5 263.87c-4.4692 2.7297-9.2366 4.7575-14.215 5.8917-20.453 4.6711-50.767 3.4794-63.204-3.0179-1.6532 4.2674-4.0176 7.9005-7.1797 10.524 30.622 8.7369 70.884-0.24522 84.599-13.398" fill="#f0e78e"/>
 <path d="m221.5 263.87c-4.4692 2.7297-9.2366 4.7575-14.215 5.8917-20.453 4.6711-50.767 3.4794-63.204-3.0179-1.6532 4.2674-4.0176 7.9005-7.1797 10.524 30.622 8.7369 70.884-0.24522 84.599-13.398" fill="#c9c279"/>
 <path d="m101.12 119.17c-1.7396 0-3.9503 1.1061-3.9503 1.1061 0.16347 3.4792-0.31713 14.388-0.63426 15.176-0.31713 0.78737-6.949 3.0081-7.9005 1.7409-0.95166-1.2696 0.15256-19.607 0.78818-22.452 0.63427-2.8449 5.69-14.071 7.4296-16.282 1.7396-2.2096 15.811-13.475 19.828-14.196 4.5462-0.81735 21.674 2.2886 24.547 4.1426 1.9415 1.2505 15.071 22.231 15.599 25.134 0.15257 0.86639-9.4096 6.4012-11.351 6.0168-1.9319-0.39505-14.254-13.773-14.254-13.773-0.57677 0.47951-4.6519 2.4221-5.7188 2.8065-0.38442 2.8163-1.8453 18.723-2.5182 20.463-0.68248 1.7491-5.6322 3.9791-8.7271 5.0457-3.1045 1.068-6.8913 1.068-7.468 0.47952-0.58631-0.5776-5.6707-15.407-5.6707-15.407" fill="#bf794e"/>
 <path d="m98.089 114.88c-1.3168 0.44137-2.9219 0.93177-3.191 1.3268-0.25066 0.37599-0.08722 17.954-0.06817 20.232 0.92277-0.36508 1.605-0.74105 1.7012-0.98081 0.31714-0.78738 0.79774-11.697 0.63427-15.176 0 0 2.2106-1.1061 3.9503-1.1061v-0.0191c-0.17164-0.46044-0.99007-2.7585-1.4704-3.9984-0.18254-0.39505-0.97073-0.4795-1.557-0.2779" fill="#965e3b"/>
 <path d="m129.33 101.05c-1.4609 0.53944-6.8337 2.5283-7.2278 2.9217-0.3749 0.38415-0.4806 17.089 0.96119 24.807 0.71137-2.7 2.0665-17.483 2.4411-20.184 1.0669-0.39505 5.1421-2.3267 5.7188-2.816 0 0 8.6214 9.3709 12.572 12.658-2.5471-5.6609-10.342-14.667-12.735-17.252-0.36536-0.39505-0.87456-0.45227-1.73-0.13623" fill="#965e3b"/>
 <path d="m157.5 22.17c-5.9206-4.0848-47.999-4.1521-48.662-2.1632-0.6536 1.9807 8.1408 13.734 23.529 21.971 12.283 6.5742 20.616 15.224 24.461 15.186 2.1529-0.01906 6.1128-12.985 6.2089-17.915 0.11446-6.4589 0.38443-12.995-5.5362-17.08" fill="#f0e78e"/>
 <path d="m225.85 26.513c-5.4111-9.6689-23.788-24.538-44.183-25.518-17.214-0.83641-34.024 7.6122-42.675 18.127 8.583 0.49858 16.224 1.4712 18.512 3.0468 5.911 4.0851 5.6515 10.621 5.5266 17.089-0.0299 1.8744-0.62473 4.9114-1.4707 7.9582 7.8044 3.2007 19.636 14.369 30.535 30.372 2.5567 3.7388 5.613 9.5153 7.1412 10.544 1.5377 1.019 9.7269 0.44137 11.938 0.27244 2.7776-2.6237 6.8624-4.9114 10.428-6.1034 1.8363-5.7092 4.8441-12.533 6.5453-17.464 4.9403-14.321 5.7764-23.903-2.2967-38.32" fill="#5a5649"/>
 <path d="m218.55 81.128c-1.4985 0.16347-13.581 0.56669-16.003 0.56669-3.2678 0-4.9018-0.83642-7.2854-5.2286-7.5545-13.927-21.001-30.66-32.256-42.847 0.10628 1.8445 0.0572 3.7388 0.0192 5.6323-0.0299 1.8826-0.62473 4.921-1.4707 7.9678 7.8044 3.1909 19.636 14.369 30.535 30.362 2.5567 3.7483 5.613 9.5248 7.1412 10.543 1.5377 1.019 9.7266 0.45227 11.938 0.2779 2.7776-2.6346 6.8624-4.9114 10.428-6.1031 0.62391-1.9235 1.3732-3.9696 2.1632-6.0263-2.9893 5.3247-3.6718 4.6902-5.2095 4.8537" fill="#3f3a2e"/>
 <path d="m250.59 16.206c-0.37598-0.99988-17.935-5.1708-36.1-2.0461 5.286 4.1616 9.2845 8.6407 11.361 12.351 2.6809 4.7959 4.3829 9.0537 5.267 13.129 8.5061-7.2853 19.972-22.096 19.473-23.432" fill="#f0e78e"/>
 <path d="m141.87 39.312c-5.613-1.4031-15.407-4.2483-25.115-8.5156 3.9118 3.7004 9.1885 7.7468 15.609 11.188 12.283 6.5742 20.616 15.224 24.461 15.186 1.9224-0.01906 5.3055-10.419 6.0552-16.137-5.6803 0.13622-15.503-0.34602-21.01-1.7219" fill="#c9c279"/>
 <path d="m228.53 31.858c1.1906 2.7109 2.0379 5.2765 2.5855 7.7757 5.7764-4.9498 12.927-13.37 16.753-18.685-6.132 4.5556-14.09 8.9864-19.338 10.909" fill="#c9c279"/>
 <path d="m159.17 82.025c-0.40377 3.2103 0.34601 8.0639 1.1533 8.1985 0.76886 0.13623 5.2574-3.96 6.5357-5.3727-2.4125-0.7792-6.1128-1.9317-7.6891-2.8258" fill="#fff"/>
 <g>
  <path d="m234.48 81.123c-0.94267-3.4408-2.8258-8.2176-3.3064-8.2849-0.47134-0.05448-4.1039 6.6701-4.5076 8.083z" fill="#fffbda"/>
  <path d="m245.18 97.444c-0.96174-0.01931-2.7681 0.36507-4.9692 2.6809-2.2014 2.3267-2.5665 5.7285-2.1523 6.4012 1.1443 1.9126 15.349 2.1714 15.878 1.038 0.32693-0.70019-4.1137-10.024-8.756-10.121" fill="#fffbda"/>
  <path d="m239.14 101.7c-9e-3 -0.0193-0.0272-0.0272-0.0545-0.0545-1.1933 2.0761-1.365 4.354-1.038 4.8924 1.0871 1.8063 14.004 2.1333 15.705 1.1824-5.5168-0.80644-12.869-3.3928-14.619-6.0168" fill="#dcd9bd"/>
 </g>
 <g fill="#fff">
  <path d="m207.08 142.99c0.0272 1.1525 0.77919 3.3833 1.0762 3.4794 0.30786 0.10896 1.5666-1.7219 1.8172-2.433-1.3159 0.0102-2.1823-0.19072-2.8931-1.0462"/>
  <path d="m211.24 143.92c0.50947 0.7111 1.6156 2.6918 1.9807 2.6428 0.35418-0.0545 1.5175-3.1427 1.6728-4.2096-1.1525 0.93178-2.8068 1.4412-3.6524 1.5666"/>
  <path d="m227.41 144.83c-0.72199 1.019-2.3921 2.0951-2.6537 1.9889-0.2452-0.10897-0.71926-3.1716-0.61573-3.8829 0.54762 0.83642 1.5584 1.4903 3.2678 1.8935"/>
  <path d="m228.52 144.99c0.30787 1.3268 0.78738 2.9122 1.0952 2.9122 0.30787 0 1.8363-1.4903 2.6537-3.5274-1.4603 0.61574-2.8354 0.67295-3.7484 0.61574"/>
 </g>
 <path d="m217.36 104.27c0.4332-0.0272 3.8829-6.3244 11.034-5.2479 3.9214 0.59667 5.4593 3.7102 5.959 7.2373 0 0 2.7585 0.0545 3.614 0.0102-0.21797-1.0489 0.2452-4.0369 2.2477-6.1418 2.2014-2.3158 4.0077-2.7 4.9689-2.6809 0.64298 9e-3 1.2778 0.19072 1.9044 0.52855 0.30787-6.3916-3.854-13.552-10.745-16.205-5.546-2.1251-14.052-1.008-21.799 3.9887-4.9403 3.1909-8.2563 8.2658-8.9098 11.034-0.3076 4.748 5.0266 7.9966 11.726 7.4776" fill="#505125"/>
 <path d="m227.76 95.532c-4.0369-0.41412-8.3715 0.91271-10.621 3.4506-1.1824 1.3268-1.5856 1.3459-3.2677 0.93178-3.0084-0.76012-5.7476-3.0855-6.757-6.4685-0.75932 1.2696-1.2685 2.4302-1.48 3.3446-0.30758 4.7482 5.0171 7.9966 11.716 7.4776 0.43318-0.0272 3.8829-6.3241 11.043-5.2381 3.9216 0.58577 5.4593 3.7004 5.9495 7.2278 0 0 2.7681 0.0545 3.6236 9e-3 -0.1907-0.80646 0.0817-2.797 1.1252-4.6327-1.8445-2.4902-5.7282-5.5263-11.332-6.1031" fill="#3d3e18"/>
 <path d="m246.31 130.35c0-6.8336-3.5465-14.456-7.0739-17.377 2.1442-1.8853 3.6233-3.835 4.3153-4.9692-2.719-0.21796-5.0651-0.76014-5.4977-1.4712-0.0272-0.0545-0.0545-0.16347-0.0817-0.27244-0.86637 0.0545-3.6236 0-3.6236 0-0.49041-3.5369-2.027-6.6415-5.9494-7.2373-7.1605-1.0871-10.611 5.2092-11.043 5.2381-6.6992 0.52038-12.024-2.719-11.726-7.4681-1.5186 6.4973 2.8258 12.264 9.8323 15.1-2.5283 6.9008-5.9781 12.687-7.9678 19.463-1.4513 4.921-2.6624 12.226 1.4603 12.629 1.9616 0.19071 5.4304-0.10896 7.843-3.7293 1.8826-2.8256 1.9998-10.053 2.4602-16.849 0.0272-0.0191 0.0545-0.0272 0.0545-0.0272 3.7099-3.8734 6.6992-4.5559 10.707-0.61573 0 0 0.0193 9e-3 0.0272 0.0272-1.4985 4.8152-4.2867 10.419-5.2959 12.552-1.2015 2.5174-2.6618 7.1703 0.93178 8.9004 3.5852 1.73 8.9004 0.66205 11.966-5.046 1.365-2.5556 2.3839-5.2768 2.9988-7.9966 1.9807-0.46044 3.8925-0.73016 5.613-0.7792 0.0193-0.0545 0.0272-0.0817 0.0272-0.0817" fill="#b6aed1"/>
 <path d="m218.51 116.15c1.7682 0.31604 4.2962-0.82551 5.7092-1.8935 0.95084-0.72198 0.85549-0.96991-0.66205-0.96991-1.5094 0-5.1997-0.19071-8.0928-1.384-0.10897 0.29696-0.21797 0.58576-0.34602 0.87456 0.59667 1.1633 1.7982 3.0852 3.3928 3.3734" fill="#9b94b3"/>
 <path d="m246.31 130.35c0-5.1422-2.008-10.726-4.4981-14.417-9e-3 1.5393-0.46044 2.5855-0.81734 3.2969-0.27245 0.52854-0.2888 1.1524-0.0545 2.0079 0.45227 1.73 0.73016 6.526-0.27244 9.967 1.9807-0.46043 3.8925-0.73016 5.613-0.77919 0.0193-0.0545 0.0272-0.0817 0.0272-0.0817" fill="#9b94b3"/>
 <path d="m230.04 122.77c-4.0175-3.9502-7.0066-3.2582-10.717 0.60484 0 0-0.0191 0.0102-0.0545 0.0272-0.2452 3.5756-0.39505 7.2662-0.74922 10.38 1.8172-0.47951 6.0358-1.3541 7.7468-1.5584 1.2315-2.6536 2.8065-6.2184 3.8061-9.4286l-0.0272-0.0272" fill="#fffccc"/>
 <path d="m219.06 126.62c-0.16347 2.5174-0.29697 4.9883-0.54762 7.17 1.8254-0.47951 6.0361-1.3541 7.7468-1.5584 0.2888-0.61574 0.58576-1.2778 0.90453-1.9807-4.2962 0.19071-6.6319-1.1634-8.1023-3.6331" fill="#d3d0a8"/>
 <g fill="#fff">
  <path d="m246.1 147.58c9.1404-9.4959 9.102-11.351 7.4297-14.696-1.3541-2.719-6.9779-3.0563-12.851-1.6728-0.10896 0.38415-0.49858 2.0842-0.49858 2.0842 5.0076 2.7779 6.526 7.5354 5.5266 13.985 0.0817 0.0545 0.39505 0.29697 0.39505 0.29697"/>
  <path d="m258.94 134.55c-0.43319-0.62391-1.5775-0.44137-1.6728 0.83642-0.0545 0.96992-3.7004 8.1506-8.0833 8.8715-0.4332 0.41412-2.2886 2.5093-2.9795 3.2389 5.4689 3.6524 6.3818 9.794 5.1517 16.109-0.0272 0.19071-0.10896 0.4332-0.10896 0.4332 4.1137-2.3839 7.5833-7.2757 9.3518-11.841 1.8935-4.9114 1.2587-13.456-1.6728-17.646"/>
  <path d="m251.26 164.04s0.0545-0.24521 0.10896-0.44137c0.16347-0.76013 0.2452-1.5284 0.30785-2.2968l-0.0102 9e-3c-0.19071 2.5937-0.90452 5.1806-2.1251 7.5354l0.10897 0.16347c0.54762 1.1061 1.5284 4.3058 1.1061 6.1129v9e-3c4.8537-3.614 7.2278-6.824 7.7852-8.2081 0.54763-1.3731 0.5667-6.6897 0.5667-11.505-1.9126 3.489-4.6807 6.7856-7.8332 8.6118"/>
 </g>
 <g fill="#dcdddd">
  <path d="m246.1 147.58c9.1404-9.4959 9.102-11.351 7.4297-14.696-1.3541-2.719-6.9779-3.0563-12.851-1.6728-0.10896 0.38415-0.49858 2.0842-0.49858 2.0842 5.0076 2.7779 6.526 7.5354 5.5266 13.985 0.0817 0.0545 0.39505 0.29697 0.39505 0.29697"/>
  <path d="m258.94 134.55c-0.31604-0.45227-1.0571-0.39505-1.6728 0.83642-1.8744 3.787-3.96 7.5738-7.9966 8.8905-0.70292 0.77921-2.6046 2.7109-3.1814 3.3064 1.1906 0.78738 1.2887 1.0762 2.1523 2.1251 0.52855-0.19071 5.0267-1.681 5.8726-2.1442 1.2505-0.66204 2.1632-0.53671 2.7487 0.13623 0.88545 1.0271 0.86638 4.3251-0.0545 5.9879-0.96174 1.7192-3.3928 5.7863-5.1422 7.6027-0.0545 0.76831-0.16347 1.5366-0.29698 2.3076-0.0272 0.19072-0.10896 0.43319-0.10896 0.43319 4.1137-2.3839 7.5833-7.2757 9.3518-11.841 1.8935-4.9114 1.2587-13.456-1.6728-17.646"/>
  <path d="m251.26 164.04s0.0545-0.24521 0.10896-0.44137c0.16347-0.76013 0.2452-1.5284 0.30785-2.2968l-0.0102 9e-3c-0.19071 2.5937-0.90452 5.1806-2.1251 7.5354l0.10897 0.16347c0.54762 1.1061 1.5284 4.3058 1.1061 6.1129v9e-3c4.8537-3.614 7.2278-6.824 7.7852-8.2081 0.54763-1.3731 0.5667-6.6897 0.5667-11.505-1.9126 3.489-4.6807 6.7856-7.8332 8.6118"/>
 </g>
 <path d="m276.18 123.29c-1.9317-2.4793-5.0267-4.2385-9.6883-9.0058-0.16347-0.66206-0.35418-1.2696-0.59666-1.6919-0.68385-1.2315-8.2563-5.3631-12.783-7.4201 0.61573 1.2396 0.93177 2.1905 0.83641 2.3948-0.3569 0.76012-6.7761 0.89363-11.361 0.33511l-0.0191 0.0102c0.31604 0.0272 0.65387 0.0545 0.98899 0.10896-0.69202 1.1334-2.1714 3.0855-4.3153 4.9692 3.5271 2.9218 7.0738 10.544 7.0738 17.377 0 0-9e-3 0.0272-0.0272 0.0817 0.36507-9e-3 0.72198-0.019 1.0571-9e-3 0.16347-2.0951 0.57759-5.6612 1.038-6.5742 0.98081-1.9616 7.1605-4.6134 8.8905-4.0271 1.6728 0.54762 3.0658 4.0271 3.2004 5.9685 0.21797 3.1141-3.1046 7.7468-6.1031 10.409 0.0272-0.1907 0.0272-0.38415 9e-3 -0.59666 0.0817 2.1524-2.6727 6.305-5.1035 8.6693 3.6426-1.2778 7.343-5.7476 7.8811-8.756 0.2452-1.3459 1.2887-1.6728 1.7873-0.96991 0.88545 1.2696 1.5557 2.9316 2.0188 4.7578-0.0545-0.19072-0.10896-0.41413-0.16346-0.58577 0.81734-4.5943 2.1714-5.3825 3.9696-5.8342 4.0077-0.99987 6.7663-0.88273 8.3426 0.69203 2.5283 2.5283 2.3349 7.4297 0.13622 9.8708-0.86638 0.96174-2.2586 1.9698-3.8061 2.8836 1.1634 3.3255 1.1143 7.9389-2.719 10.87-1.4985 1.1443-2.5365 1.8935-3.3833 2.3349 0.0272 0.0193 0.0545 0.0272 0.0545 0.0272 9.0347-0.27791 13.754-6.526 10.697-17.089 4.5654-4.3635 5.4977-14.801 2.0842-19.184" fill="#bf794e"/>
 <path d="m276.18 123.29c-1.9317-2.4793-5.0267-4.2385-9.6883-9.0058-0.16347-0.66206-0.35418-1.2696-0.59666-1.6919-0.68385-1.2315-8.2563-5.3631-12.783-7.4201 0.61573 1.2396 0.93177 2.1905 0.83641 2.3948-0.3569 0.76012-6.7761 0.89363-11.361 0.33511l-0.0191 0.0102c0.31604 0.0272 0.65387 0.0545 0.98899 0.10896-0.69202 1.1334-2.1714 3.0855-4.3153 4.9692 3.5271 2.9218 7.0738 10.544 7.0738 17.377 0 0-9e-3 0.0272-0.0272 0.0817 0.36507-9e-3 0.72198-0.019 1.0571-9e-3 0.16347-2.0951 0.57759-5.6612 1.038-6.5742 0.98081-1.9616 7.1605-4.6134 8.8905-4.0271 1.6728 0.54762 3.0658 4.0271 3.2004 5.9685 0.21797 3.1141-3.1046 7.7468-6.1031 10.409-0.19072 2.0379-3.0661 5.911-5.094 8.0735 3.3255-0.76013 7.0932-6.0168 8.0062-8.9674 0.38415-1.2396 1.1824-1.4412 1.6619-0.76013 0.88546 1.2696 1.9126 4.3445 1.8636 4.1715 0.81734-4.5943 2.1714-5.3825 3.9696-5.8342 4.0077-0.99989 6.7663-0.88273 8.3426 0.69202 2.5283 2.5283 2.3349 7.4297 0.13623 9.8708-0.86638 0.96174-2.2586 1.9698-3.8061 2.8836 1.1634 3.3255 1.1143 7.9389-2.719 10.87-1.4985 1.1443-2.5365 1.8935-3.3833 2.3349 0.0272 0.0193 0.0545 0.0272 0.0545 0.0272 9.0347-0.27789 13.754-6.526 10.697-17.089 4.5654-4.3635 5.4977-14.801 2.0842-19.184" fill="#965e3b"/>
 <g fill="#fff">
  <path d="m247.35 130.43c0.16348-2.0951 0.5776-5.6707 1.038-6.5837 0.96991-1.9616 7.1605-4.6136 8.8905-4.0369 1.6619 0.55852 3.0563 4.0369 3.2004 5.9783 0.21795 3.1046-3.1043 7.737-6.1031 10.409 0.16347-1.2587-0.69201-3.4026-1.4031-4.0946-0.79828-0.76831-2.6237-1.6429-5.6225-1.6728"/>
  <path d="m261.36 149.42c2.5365 0 9.3807-3.1814 11.899-5.9783 2.2014-2.4411 2.3921-7.343-0.13623-9.8613-1.5775-1.5856-4.3347-1.7001-8.3426-0.70292-1.8063 0.45227-3.1525 1.2396-3.9696 5.8342 0.61574 2.1714 1.2778 6.7374 0.54762 10.707"/>
  <path d="m261.37 149.34c-0.19071 1.0271-0.42229 1.9998-0.76013 2.8544-0.41412 1.0762-0.9236 2.1632-1.5175 3.2296 0 1.2887 0 2.6155-9e-3 3.8925 2.7297 1.2315 3.2966 1.2097 7.6411-2.1142 3.8445-2.9411 3.8925-7.5544 2.7297-10.87-2.9315 1.7219-6.43 3.0852-8.0928 3.0852 0-0.0272 9e-3 -0.0545 9e-3 -0.0817"/>
 </g>
 <g fill="#dcdddd">
  <path d="m247.35 130.43c0.16348-2.0951 0.5776-5.6707 1.038-6.5837 0.96991-1.9616 7.1605-4.6136 8.8905-4.0369 1.6619 0.55852 3.0563 4.0369 3.2004 5.9783 0.21795 3.1046-3.1043 7.737-6.1031 10.409 0.16347-1.2587-0.69201-3.4026-1.4031-4.0946-0.79828-0.76831-2.6237-1.6429-5.6225-1.6728"/>
  <path d="m261.36 149.42c2.5365 0 9.3807-3.1814 11.899-5.9783 2.2014-2.4411 2.3921-7.343-0.13623-9.8613-1.5775-1.5856-4.3347-1.7001-8.3426-0.70292-1.8063 0.45227-3.1525 1.2396-3.9696 5.8342 0.61574 2.1714 1.2778 6.7374 0.54762 10.707"/>
  <path d="m261.37 149.34c-0.19071 1.0271-0.42229 1.9998-0.76013 2.8544-0.41412 1.0762-0.9236 2.1632-1.5175 3.2296 0 1.2887 0 2.6155-9e-3 3.8925 2.7297 1.2315 3.2966 1.2097 7.6411-2.1142 3.8445-2.9411 3.8925-7.5544 2.7297-10.87-2.9315 1.7219-6.43 3.0852-8.0928 3.0852 0-0.0272 9e-3 -0.0545 9e-3 -0.0817"/>
 </g>
 <path d="m168.15 149.3c2.0183-0.19072 4.1233-0.60484 6.2474-1.3159 12.466-4.181 23.144-7.843 31.842-10.601 0.2125-2.0188 0.71136-4.181 1.2494-6.0168 1.1824-4.0175 2.8836-7.6893 4.5943-11.457-13.686-7.5931-40.204 0.21795-52.026 19.886 2.9988 4.306 6.0071 7.8046 8.0928 9.5057" fill="#f0e78e"/>
 <path d="m210.45 119.11c-0.16347 2.0461-0.72198 4.8537-1.7491 8.6982 1.008-2.6809 2.1905-5.2765 3.3833-7.9005-0.52856-0.2888-1.0762-0.54762-1.6347-0.79827" fill="#c9c279"/>
 <g fill="#bf794e">
  <path d="m115.7 50.21c-0.4806 0.86365 2.3548 9.7651 5.9206 14.484 2.1049-7.67 4.4116-15.695 5.9398-20.626-2.7103 1.0271-11.38 5.286-11.86 6.1415"/>
  <path d="m116.67 84.26c0.43265-2.6046 2.3164-9.9476 4.5077-17.964-3.6043 1.3541-13.331 6.8145-13.523 7.8716-0.19343 1.0571 3.2102 10.246 4.4885 12.293 1.9031-1.1906 3.5274-2.0188 4.527-2.2014"/>
  <path d="m94.369 136.6c-2.124 0.76829-5.1229 1.4031-5.738 0.58576-0.45172-0.59666-0.44218-5.0556-0.23158-9.8708-3.3832 1.9208-8.2466 5.0362-8.3907 5.7571-0.1444 0.73017 7.1509 13.177 10.467 16.176 1.5859-4.0178 2.845-8.1985 3.8926-12.649z"/>
  <path d="m89.044 152.62c-4.4501-0.72199-14.619-0.72199-15.205 0.16347-0.58631 0.87455 0.73043 13.081 3.3736 17.483-5.1421-1.4603-15.282-2.6428-16.013-1.9044-0.73043 0.72199 1.7878 12.62 2.5566 15.042 12.716-10.351 20.367-19.992 25.288-30.785"/>
  <path d="m29.299 193.35c-0.73044 0.58576-0.73044 13.091-0.29806 15.974 4.6615-4.2483 9.9189-8.3525 15.763-12.255-3.8349-2.2014-14.734-4.3058-15.465-3.7195"/>
  <path d="m2.107 225.98c-0.58631 0.88547 3.3928 10.246 4.7192 12.322 1.8837-4.0175 4.2194-8.035 7.0259-12.024-3.6907-0.86639-11.159-1.1715-11.745-0.29696"/>
 </g>
 <g fill="#fff">
  <path d="m89.975 249.69c-0.42284 1.9998 16.359 4.7768 16.599 2.8642 0.4133-3.316-3.9407-18.262-5.738-18.742-1.7878-0.47951-10.38 13.61-10.861 15.878"/>
  <path d="m87.162 250.44c0.45172 1.8063-5.8725 5.7571-10.726 7.5642-4.8634 1.8063-11.976 2.9411-12.428 1.8063-1.2783-3.1909 0.31713-24.47 1.3552-25.067 1.4513-0.84459 21.222 13.398 21.799 15.695"/>
  <path d="m61.588 261.17c-6.1994 1.0762-16.214 5.3825-16.349 6.2666-0.18254 1.2778 8.6406 11.639 14.734 14.686-2.4221-6.93-1.8837-14.705 1.6148-20.953"/>
 </g>
 <g fill="#dcdddd">
  <path d="m87.162 250.44c0.45172 1.8063-5.8725 5.7571-10.726 7.5642-4.8634 1.8063-11.976 2.9411-12.428 1.8063-1.2783-3.1909 0.31713-24.47 1.3552-25.067 1.4513-0.84459 21.222 13.398 21.799 15.695"/>
  <path d="m100.84 233.81c-0.049-9e-3 -0.0954-9e-3 -0.1444 0-1.0764 5.2095-3.758 15.042-6.4684 17.983 4.873 1.2505 12.187 2.0188 12.341 0.76014 0.4133-3.316-3.9407-18.262-5.7284-18.742"/>
  <path d="m45.365 267.25c-0.06817 0.0817-0.11446 0.13623-0.12533 0.19072-0.18254 1.2778 8.6406 11.63 14.734 14.677-1.7396-4.9498-1.9415-10.332-0.64408-15.292-2.8258 1.068-9.8516 1.1143-13.965 0.42229"/>
 </g>
 <path d="m286.56 241.29c-0.57759-0.96174 4.7289-17.896 6.5837-18.358 1.4794-0.36507 6.8722 10.755 6.7665 11.688-0.36509 3.2776-11.976 8.9578-13.35 6.6704m26.556-6.1513c-0.0817 0.16347-0.16346 0.27245-0.21796 0.30787-1.384 0.93177-7.7852 0.37598-13.35-2.6809l-0.55851-1.019c0.96992-1.4985 2.4221-3.1909 4.0944-4.8921 0 0-2.076 0.46044-3.316-1.2778-1.2396-1.7409-7.5544-15.08-12.206-20.453-6.7954-7.8525-15.907-12.927-31.66-16.128 0.3351 2.2967 0.38415 5.5936 0.38415 10.592 0 24.596-14.311 51.805-34.774 64.281-3.6908 3.5372-9.3232 6.7761-16.166 9.4578 17.752 4.5461 38.08-0.63481 61.253 7.4008 7.8525 2.719 9.1115 4.5654 14.715 4.0559 5.2381-0.47951 14.321-5.4784 23.029-16.051 10.246-12.418 13.091-24.077 8.9576-33.448z" fill="#bf794e"/>
 <path d="m313.12 235.14c-0.0817 0.16347-0.16347 0.27246-0.21797 0.31605-1.3922 0.9236-7.7852 0.36508-13.35-2.6918l-0.24521-0.46044c-0.0545 0.0272-0.10896 0.0817-0.16346 0.10897 0.4904 1.1334 0.79827 1.9698 0.7792 2.2014-0.36509 3.2776-11.976 8.9578-13.35 6.6704-0.13621-0.21795 0.0545-1.3159 0.4332-2.8642-3.5852-1.1061-8.2176-4.5365-9.2365-5.6707 0 0-0.69203-4.3635-1.681-5.4593-0.98899-1.5366-10.457-11.562-11.707-13.177 0-0.0102-0.88273 0.31604-0.89364 0.29697-0.43319-6.3723 2.1823-16.397 4.9596-21.991-3.6524-1.3268-7.795-2.4602-12.543-3.4315 0.33511 2.3076 0.38414 5.5939 0.38414 10.602 0 24.586-14.321 51.796-34.774 64.271-3.7004 3.5467-9.3229 6.7856-16.176 9.4578 17.752 4.5556 38.08-0.63481 61.263 7.4005 7.8525 2.7297 9.102 4.5654 14.715 4.0562 5.2381-0.47134 14.311-5.4787 23.029-16.041 10.246-12.427 13.081-24.077 8.9578-33.457z" fill="#965e3b"/>
 <g fill="#fff">
  <path d="m299.91 234.62c0.10896-0.92361-5.2863-12.053-6.7665-11.678-1.8554 0.46044-7.1602 17.387-6.5837 18.348 1.3731 2.2967 12.985-3.3928 13.35-6.6704"/>
  <path d="m298.98 231.75c4.0753-6.305 16.714-16.205 18.637-14.926 1.384 0.93177-3.7102 17.896-4.7289 18.636-1.3922 0.9236-7.7852 0.36508-13.35-2.6918z"/>
  <path d="m315.48 246.3c3.7966-3.8925 6.5837-12.697 6.2088-13.254-0.36507-0.55852-5.6514 0.55852-8.1598 1.2968z"/>
 </g>
 <g fill="#dcdddd">
  <path d="m299.91 234.62c0.0817-0.71109-3.0468-7.3719-5.1902-10.313-0.69201 4.4115-1.3922 11.822-0.77919 15.57 2.9986-1.5393 5.7955-3.6715 5.9685-5.2574"/>
  <path d="m307.97 229.54c-0.91269 1.1334-2.9988 2.2695-8.6598 2.816l0.21796 0.41412c5.565 3.0566 11.966 3.614 13.35 2.6809 0.93176-0.67294 5.2863-14.946 4.9498-18.069-3.9312 4.5267-8.9578 11.034-9.8613 12.158"/>
  <path d="m315.48 246.3c3.7966-3.8925 6.5837-12.697 6.2088-13.254-0.36507-0.55852-5.6514 0.55852-8.1598 1.2968z"/>
 </g>
 <path d="m250.07 176.51c-1.5475 2.354-5.7285 6.2955-13.369 9.3229-20.347 8.0833-64.771 9.3136-90.895 0.55852 2.1818 1.4522-5.4112 0.89363-10.669-0.47134l0.59584-0.0817-0.60565 0.0545c-0.6536 2.9602-1.1053 5.8822-1.3263 8.948 18.329 13.735 56.428 23.173 80.909 19.521 23.346-3.4988 38.148-13.043 38.148-22.625-0.16347-1.76-2.0679-13.898-2.7874-15.215" fill="#f0e78e"/>
 <path d="m251.48 182.92c0.65387 3.7195 1.2778 7.8236 1.384 8.7944 0 8.6791-12.149 17.291-31.766 21.462-2.8738 15.628-18.108 25.788-36.206 27.623-10.601 1.0762-29.959-2.7681-39.685-7.8046 0.42284 1.6919 0.77839 3.4121 1.0476 5.1806 1.5186 9.9959 0.98027 20.424-2.1818 28.565 12.437 6.4878 42.761 7.6893 63.214 3.0182 27.719-6.3437 48.979-40.195 48.979-70.173 0-12.61-0.27789-14.369-4.7864-16.666" fill="#c9c279"/>
 <path d="m252.86 191.72c-0.16347-1.76-2.0679-13.888-2.7874-15.215-1.5475 2.354-5.7378 6.2955-13.369 9.3327-20.347 8.0735-64.771 9.3038-90.895 0.54762 0.56697 0.38416 0.47107 0.62391-0.0682 0.74924 8.977 7.2853 41.665 13.34 74.257 10.611 2.1333-0.19071 3.4794 0.37598 3.5756 1.9889 0.10896 1.8554-0.52855 8.3426-2.3839 12.985-0.0272 0.16347-0.0545 0.31604-0.0817 0.47133 19.617-4.1426 31.756-12.793 31.756-21.472" fill="#c9c279"/>
 <path d="m90.814 152.37c-0.51901 0.13623-7.247 8.4966-7.9102 10.102-0.67294 1.6156-5.1421 11.899-5.0075 12.437 0.1335 0.52854 6.7568 4.9019 7.5642 4.7673 0.79772-0.13621 11.245-5.4879 12.581-8.2947 1.3361-2.816 2.2779-14.59 1.605-15.666-0.66314-1.068-8.2946-3.4794-8.8329-3.3448" fill="#bf794e"/>
 <g fill="#0f141b">
  <path d="m162.18 40.994c1.0574-10.332-1.1437-15.157-5.1901-17.945-3.7869-2.6128-29.814-5.6034-45.644-2.9411-1.1342 0.19071-1.384 1.1715-0.85549 2.1823 2.2875 4.3638 12.793 14.177 22.298 19.271 5.8918 3.143 10.39 6.4783 14.35 9.448 4.4981 3.3737 8.3811 5.1038 9.2846 4.8828 1.0476-0.27246 4.9402-6.9011 5.7572-14.898m-15.686 11.111c-4.7865-3.4792-9.4288-6.8529-14.369-9.5057-11.976-6.4107-20.463-14.484-23.913-20.501-1.1053-1.9235-0.9612-3.2391 1.4224-3.6042 16.243-2.4711 44.722 0.50949 48.115 2.8449 4.6904 3.2391 7.0548 9.4959 5.7956 20.03-0.88408 7.391-4.4981 16.282-6.3723 16.57-1.3361 0.19071-4.008-0.96993-10.678-5.8342"/>
  <path d="m220.83 82.634c1.4222-4.1616 5.8149-15.532 6.6221-17.848 5.5939-16.243 4.8923-24.884-2.3076-37.734-6.9491-12.408-26.585-24.144-43.136-24.932-16.484-0.79827-33.323 6.7281-41.809 16.907-0.18254 0.21796-2.1624 0.13623-1.9799-0.08172 10.409-12.466 27.248-19.674 43.713-18.886 18.396 0.88273 37.677 14.119 44.481 26.268 7.5065 13.398 8.0639 22.433 2.4112 38.849-0.74107 2.1442-5.3822 13.321-6.2571 16.781-0.0545 0.21796-1.8363 0.94267-1.7409 0.67294"/>
  <path d="m201.4 89.471c-1.6821-0.13622-3.0276-0.93176-4.3347-2.7109-0.73044-0.99989-4.4981-6.9875-5.5554-8.535-9.1981-13.494-21.866-26.652-30.199-30.026 0 0 0.49966-1.9208 0.53835-1.9208 8.3523 3.383 20.52 15.878 30.891 31.093 1.0764 1.5856 4.6423 7.6604 5.3824 8.5734 0.99962 1.2505 2.2107 2.0679 3.3544 2.2314 2.0472 0.28879 5.6705 0.16347 10.246-0.19072 0.29697-0.01931-1.038 1.2778-1.2097 1.2969-0.99989 0.13622-7.2181 0.35418-9.1116 0.19071"/>
  <path d="m231.08 38.894c6.8336-5.8628 14.859-16.234 17.435-20.357 0.87456-1.3949 0.83642-1.9507-1.1334-2.4902-10.39-2.8547-21.635-2.9988-31.881-1.2097-0.27789 0.05448-1.8363-1.0952-1.5557-1.1443 10.323-1.8063 23.731-1.8935 34.264 0.68113 3.4696 0.85548 3.8639 1.6429 2.4711 4.0946-2.5665 4.5077-9.4382 13.571-19.04 21.808-0.10896 0.08172-0.76831-1.2015-0.55852-1.384"/>
  <path d="m181.89 80.635c-6.084-11.38-14.427-15.263-20.28-13.638-2.9603 0.80645-3.3063 0.01906-0.44218-1.0571 6.5934-2.4793 14.648 0.68111 21.424 14.321 0.47107 0.93178-0.25065 1.2206-0.70155 0.37598"/>
  <path d="m201.85 102.96c-0.50947-1.6047-0.90343-2.6237-1.6339-3.2103-0.60538-0.47951-0.31713-0.82551 0.34601-0.42229 1.0187 0.60483 1.9992 2.027 2.4027 3.316 0.26971 0.84458-0.86504 1.1061-1.1149 0.31604"/>
  <path d="m187.73 97.219c-2.0954-2.2886-6.7279-5.8822-9.8228-7.5354-2.3932-1.2887-6.1993-2.3921-10.342-3.662-10.957-3.3735-12.822-5.2187-13.552-9.8226-0.16348-1.0271 0.52854-1.1252 0.80726-0.10896 0.87456 3.1718 3.8061 5.6612 13.023 8.4868 4.1906 1.2778 8.1216 2.6727 10.601 4.008 3.1717 1.7001 8.0351 5.4016 10.188 7.7563 6.4204 7.0259 12.754 8.9194 17.992 8.2083 0.15257 0.16347 0.86502 1.4222 0.87429 1.5366-6.9393 0.95084-12.475-0.87456-19.77-8.8616"/>
  <path d="m160.08 90.788c-1.2015-0.4223-1.8069-6.0936-1.4707-8.8426 0.0491-0.05448 0.99962 0.47952 1.0285 0.52855-0.35555 2.9506 0.51901 6.6799 0.97073 6.8529 0.40377 0.16347 3.2871-1.8363 5.6323-4.4118 0.068-0.02724 1.0476 0.29697 1.0187 0.31604-1.9799 2.3158-5.9783 5.9783-7.1797 5.5555"/>
  <path d="m182.31 105.77c-3.018-1.2206-4.4693-1.9235-7.814-2.4112-18.108-2.6918-35.975-12.927-41.117-23.904-0.56696-1.2015 0.27872-1.5475 0.85549-0.33512 4.2482 9.0826 24.893 20.732 40.349 23.019 3.4505 0.51764 5.2862 1.0952 8.3042 2.3158 8.8136 3.5658 18.8 4.0753 24.884 2.1142 0.0817-0.0193 0.94267 1.1061 0.96991 1.2396-7.7947 2.5937-16.416 2.0188-26.431-2.0379"/>
  <path d="m115.46 84.538c1.0285-6.3339 10.89-39.935 12.764-44.943 0.0954-0.27244 1.6339 0.72199 1.5377 0.98082-2.0951 5.6228-10.842 37.744-11.793 43.578-0.0381 0.2452-2.5567 0.66204-2.5087 0.38415"/>
  <path d="m224.14 81.633c1.3078-3.6909 2.6237-10.39 3.162-14.638 0.0545-0.58577 2.1251-5.8053 2.1142-5.5266-0.2452 5.4498-2.7776 16.339-3.9118 19.848-0.13622 0.08172-1.2887 0.35418-1.365 0.31604"/>
  <path d="m121.37 65.593c-3.7677-5.094-7.0067-14.321-6.6222-15.647 0.41331-1.414 7.6795-4.5848 12.947-6.3437 0.26973-0.10896-0.0764 1.1525-0.33646 1.2505-2.7873 1.038-10.419 4.9305-10.736 5.7955-0.26972 0.76014 1.7685 8.9194 5.1805 13.533 0.16347 0.21796-0.33648 1.5475-0.43238 1.414"/>
  <path d="m111.69 86.832c-1.1149-1.7219-5.2094-11.274-4.8153-12.927 0.35555-1.4985 8.2658-5.9974 14.417-8.2271 0.25882-0.10896-0.0381 1.4412-0.3076 1.5366-3.5081 1.2696-12.014 6.3434-12.158 7.3141-0.1444 0.98082 2.5662 9.4578 3.8542 11.428 0.15257 0.2452-0.89391 1.0271-0.99008 0.87456"/>
  <path d="m116.97 85.491c-4.0944 0.81735-17.954 11.505-19.674 13.687-1.6148 2.057-6.3435 12.994-6.9875 15.897-0.73997 3.335-1.5666 21.174-1.1533 21.626 0.49993 0.54762 5.7188-0.96992 6.4012-1.6728 0.27871-1.068 1.259-11.168 1.1053-14.561-0.01023-0.19071 0.09541-0.38414 0.27871-0.47951 0.08722-0.0272 1.73-1.068 3.3928-1.2778-0.20162-0.62391-0.51901-1.8445-0.80726-2.816-0.36535-1.2315 0.29806-1.4712 0.7209-0.24521 0.42284 1.2506 6.6703 17.695 7.0932 18.31 0.4133 0.31604 3.7677 0.36509 6.8048-0.68111 3.7292-1.2778 7.4296-2.922 7.8813-4.2772 0.65359-1.9044 2.6814-16.753 2.9699-20.299 0.0192-0.19071 0.15257-0.346 0.33648-0.41412 1.1053-0.40322 5.0844-2.3158 5.565-2.719 0.21251-0.19072 0.51901-0.16347 0.70156 0.0272 5.9206 6.4301 12.831 12.85 13.985 13.081 1.605 0.32694 9.2942-4.181 10.121-5.2574-0.8266-3.1332-13.158-22.798-15.09-24.038-2.3932-1.5475-19.55-4.7096-23.644-3.8925m-28.748 52.18c-1.1822-1.5775-0.40377-20.54 0.1335-22.981 0.62471-2.8065 5.8918-14.129 7.7371-16.484 1.6723-2.1251 16.137-13.975 20.482-14.763 4.7865-0.85548 22.087 2.6346 25.076 4.5556 1.9608 1.2696 13.485 19.578 15.609 24.644 0.39396 0.94268 0.25884 1.681-0.19343 2.1442-1.5282 1.4903-9.6691 6.0552-11.726 5.6419-1.9126-0.38416-11.582-10.976-14.196-13.811-1.1533 0.69202-3.9791 2.027-5.1805 2.5093-0.18254 3.4312-1.5666 18.521-2.2779 20.357-0.60565 1.5284-3.71 3.4699-9.2077 5.3536-2.9603 1.019-7.295 1.2396-8.1408 0.39505-0.47106-0.47134-3.4793-8.7846-5.5458-15.186-1.1631 0.10896-2.4989 0.55852-3.0756 0.81735 0.15257 5.4593-0.27871 13.898-0.70155 14.946-0.6536 1.6429-7.9486 2.9893-8.7944 1.8635"/>
  <path d="m142 114.2c-3.2583-3.7868-7.987-9.1308-11.043-12.456-0.58631-0.6348-0.0954-0.98082 0.50947-0.36509 2.5471 2.5665 7.6026 8.1312 10.957 12.312 0.52855 0.64297 0.0381 1.0489-0.42284 0.50947"/>
  <path d="m121.8 123.72c-0.10628-1.1824-0.33646-5.6418-0.38442-10.14-0.0872-9.3711 0.049-9.573 0.25884-9.7844 0.53835-0.54762 5.4016-2.2395 7.4776-2.8544 0.7209-0.21796 0.83614 0.41412 0.1444 0.68111-2.7969 1.1143-5.9783 2.452-6.6703 2.8547-0.26973 1.7982-0.0381 17.666-0.0763 19.098-0.0192 0.96993-0.66314 1.0952-0.74978 0.13623"/>
  <path d="m94.555 130.14c-0.34602-6.0745-0.29806-13.696-0.08722-14.042 0.23975-0.38415 1.9897-0.98081 3.3543-1.2587 0.84596-0.16347 0.95166 0.29697 0.16347 0.55852-1.2783 0.4223-2.4125 1.019-2.5471 1.2315-0.1444 0.21796-0.23158 8.6889-0.23158 13.514 0 0.95084-0.59585 0.94267-0.6536 0"/>
  <path d="m167.45 149.51c-7.4873-6.0745-16.58-22.433-20.165-30.276 0.1444-0.0545 2.0954-0.98081 1.8453-0.88546 8.1216 17.762 16.58 28.363 19.79 30.968 0.22069 0.16347-1.3745 0.27244-1.4707 0.19071"/>
  <path d="m237.72 113.71c1.6728-1.1634 3.7004-3.3448 5.3247-5.7476 0.13623 0.019 1.0871 0.16347 1.0871 0.19072-1.7001 2.5092-4.1137 5.0267-5.9879 6.1034-0.9236 0.53945-1.4412 0.16347-0.42229-0.53944"/>
  <path d="m218.78 113.39c-10.976-2.6346-15.157-10.092-13.648-16.532 0.63425-2.6727 3.8735-7.9582 9.1307-11.351 7.4297-4.7959 16.224-6.5932 22.318-4.2578 6.6799 2.5746 11.39 10.005 11.015 16.993-0.0545 0.02724-0.84732-0.39505-0.99989-0.47951 0.13622-6.4203-4.402-12.975-10.553-15.34-5.7958-2.2286-14.062-0.68384-21.222 3.9407-5.0171 3.2391-8.1026 8.2176-8.6888 10.726-1.2974 5.5168 2.4992 13.091 12.898 15.59 1.3268 0.31876 0.83642 0.96991-0.2452 0.71109"/>
  <path d="m208.9 144.72c-2.9892-0.2888-4.748-3.7484-1.9317-13.341 0.46044-1.5775 1.9126-5.3054 4.6038-11.216 1.7791-3.9214 2.7776-6.651 3.3833-8.3331 0.0545-9e-3 0.96992 0.27789 0.99989 0.346-0.6348 1.73-1.8554 4.4597-3.6426 8.3813-2.5365 5.5841-3.7677 9.2461-4.306 11.082-2.4605 8.3715-1.0081 11.716 1.0489 11.918 2.6346 0.27246 5.8342-1.1906 7.3144-3.4023 1.5094-2.2777 1.8172-7.6602 2.2395-13.36 0.16346-1.9998 0.346-3.7582 0.50947-5.6514 0.13623-1.3731 0.62391-1.4031 0.59667-0.0272-0.0272 1.8826-0.16348 3.7388-0.24522 5.738-0.16347 5.8628-0.58576 11.37-2.2477 13.869-2.0761 3.1046-4.6711 4.354-8.3236 3.9985"/>
  <path d="m225.46 144.95c-1.3922-0.67294-4.2289-2.9988-1.1443-9.6498 2.6918-5.8053 4.9403-10.265 6.0456-14.946 0.2888-1.2097 0.88273-1.0871 0.66205 0.13622-0.96991 5.3247-4.7095 12.946-5.786 15.244-1.8635 4.0077-1.2206 7.0738 0.83643 8.0734 3.5176 1.681 8.4483 0.36509 11.149-4.6807 3.5753-6.6799 4.0753-13.158 3.4312-17.493-0.21795-1.4903 0.4223-1.6047 0.70291-0.13623 0.88546 4.6423 0.59667 10.957-3.2389 18.118-3.1814 5.9397-8.9772 7.1123-12.658 5.3343"/>
  <path d="m245.72 130.51c0-6.7376-3.4217-14.398-6.7278-17.156-0.21795-0.16347 0.38415-0.74923 0.59667-0.57759 3.4792 2.8929 7.2951 10.476 7.2951 17.733 0 0.2779-1.1634 0.2779-1.1634 0"/>
  <path d="m234 81.085c-0.86365-3.0274-2.6155-7.3046-2.8544-7.3142-0.24521-0.01931-3.0277 4.6038-4.0273 7.218 0 0-0.9127 0.16347-0.94267 0.10896 0.96174-2.5174 3.8638-8.7753 5.0171-8.8039 1.0571-0.02724 3.2582 6.9297 3.7388 9.0153-0.10896-0.01906-0.89362-0.10896-0.93177-0.21795"/>
  <path d="m238.5 106.44c0.78737 1.3268 14.465 1.7982 14.715 0.7792 0.13622-0.50948-4.0944-9.169-8.035-9.2461-3.9407-0.05448-7.8141 6.3723-6.6799 8.4677m-0.87456 0.52855c-1.3541-2.2586 2.5283-9.967 7.5738-9.8613 5.0073 0.10896 9.9188 9.6981 9.3518 10.909-0.58576 1.2587-15.705 0.98081-16.926-1.0489"/>
  <path d="m234.63 106.82c-0.51766-0.0272-0.67294-0.13622-0.76014-0.72199-0.47134-3.3639-2.3267-6.0069-5.6225-6.5069-5.565-0.84458-8.7175 3.0277-9.9384 4.4886-0.65387 0.79827-0.49041 0.76012-1.6619 0.78736-3.9598 0.10896-7.3621-0.93176-9.448-2.9893-0.88408-0.87456-1.6723-2.1905-1.8262-3.3544-0.0954-0.67294 0.68249-3.1332 0.66314-2.8544-0.22068 2.2395 0.58631 4.3635 1.7875 5.5457 2.0079 1.9807 5.4977 2.9988 9.352 2.7297 3.2293-4.1715 6.7567-6.0552 11.322-5.3631 3.4792 0.52854 5.6609 3.1141 6.2282 7.3335 0.99988 9e-3 2.6428 0.0272 3.143-9e-3 0.0191-0.0193 0.47951 1.0762 0.37326 1.0653-0.27244 0.0272-3.1332-0.10896-3.6138-0.16347"/>
  <path d="m231.8 106.29c-1.7682-2.5174-6.9682-2.9217-9.6305-0.40322-0.61574 0.58576-1.0871 0.13623-0.51765-0.49858 3.1716-3.5658 9.3711-2.8642 10.774 0.60483 0.40322 0.98082-0.0545 1.1143-0.62391 0.29697"/>
  <path d="m219.35 122.9c1.019-1.4222 3.2391-3.143 5.613-3.1718 2.2096-0.0272 4.1521 1.3077 5.267 2.749 0.16346 0.21797-0.16347 1.038-0.34601 0.82553-1.4222-1.6619-3.1141-2.5964-4.921-2.5474-2.1823 0.0272-4.2867 1.4522-5.738 3.2293-0.0817 0.10896 0.0193-0.94267 0.13621-1.0871"/>
  <path d="m208.16 147.15c-0.0545 0-0.10896-9e-3 -0.16347-0.0272-0.76831-0.27244-1.3936-3.2198-1.4224-3.7195-0.0102-0.2888 0.2016-0.52855 0.48059-0.53945 0.2779-0.019 0.52856 0.19071 0.54763 0.47951 0.0272 0.65388 0.42229 1.9426 0.69202 2.5746 0.39505-0.46042 0.99988-1.3731 1.1715-1.8554 0.10896-0.27244 0.38415-0.40322 0.65388-0.30786 0.27245 0.10896 0.40323 0.38415 0.30786 0.65387-0.0102 0.0272-1.2778 2.7392-2.2695 2.7392"/>
  <path d="m213.19 147.25c-0.49042 0-0.87456-0.54763-1.7491-1.9616-0.19072-0.31604-0.38415-0.60484-0.52855-0.80646-0.16347-0.21795-0.10896-0.54761 0.10896-0.71108 0.21796-0.16348 0.54762-0.10896 0.71109 0.10896 0.16347 0.21796 0.35691 0.52856 0.56669 0.86639 0.21796 0.35418 0.5776 0.93178 0.83642 1.2696 0.39505-0.76831 1.0871-2.6237 1.2015-3.4408 0.0272-0.2779 0.29697-0.47134 0.57759-0.4332 0.2779 0.0272 0.4795 0.29697 0.4332 0.5776-0.0545 0.40322-1.1252 4.3829-2.0652 4.5175-0.0272 9e-3 -0.0545 9e-3 -0.10896 9e-3"/>
  <path d="m224.77 147.51c-0.0817 0-0.13622-9e-3 -0.19071-0.0272-0.77921-0.30786-0.96992-4.1042-0.93178-4.3731 0.0272-0.2779 0.29697-0.47951 0.5776-0.4332 0.27789 0.0272 0.47951 0.29697 0.44136 0.5776-0.0817 0.49858 0.19072 2.3458 0.38415 3.1332 0.49858-0.27789 1.3922-0.93178 1.8554-1.5666 0.16347-0.21795 0.49042-0.27789 0.72199-0.10896 0.21796 0.16347 0.2779 0.4904 0.10896 0.72198-0.52038 0.70292-2.1251 2.0951-2.9506 2.0951"/>
  <path d="m229.61 148.58c-0.34601 0-0.81734 0-1.5666-3.2582-0.0545-0.2779 0.10896-0.54762 0.37597-0.61573 0.2779-0.0545 0.55852 0.10896 0.61573 0.38415 0.27791 1.1906 0.52856 1.9426 0.69203 2.3158 0.4904-0.43319 1.4603-1.5475 2.0679-3.0563 0.10896-0.27244 0.40322-0.38415 0.66204-0.27789 0.27246 0.10896 0.39506 0.40322 0.2888 0.66205-0.79827 1.9807-2.4411 3.8445-3.1334 3.8445"/>
  <path d="m88.918 154.46c2.8738-5.7955 4.8922-11.812 6.4012-18.271-0.04898-0.0272-1.8742 0.66205-1.951 0.74106-1.8262 7.7277-4.3924 14.802-8.4388 21.693-0.12533 0.19071 0.7882-9e-3 1.1342-0.35419 0.3076-0.30787 2.5662-3.2293 2.8546-3.8061"/>
  <path d="m82.527 163.96c-0.51901 1.4712-1.6148 3.2102-1.9608 3.6524-7.5738 9.621-18.425 19.059-34.236 29.401-27.719 18.146-44.26 43.347-44.001 65.703 0.28825 24.163 23.308 49.085 40.762 53.507 4.1521 1.0571 5.0844 0.41412 4.3443-4.008-2.2491-13.504 0.08722-29.526 4.1713-36.687 0.19345-0.0817 1.4129 1.3159 1.4802 1.4794-4.1233 7.2087-6.3339 22.913-4.2963 35.11 1.1726 7.0452-1.6243 6.6799-6.0936 5.5073-19.867-5.2381-42.405-30.622-42.694-54.717-0.26972-23.558 15.599-47.625 45.433-67.155 17.733-11.611 28.949-21.799 36.283-32.179 0.04911-0.0817 0.94185-9e-3 0.80726 0.38415"/>
  <path d="m206.14 138.1c-6.1128 1.8635-13.446 4.2867-21.933 7.343-13.341 4.8057-16.964 5.2958-21.943 4.3156-1.3456-0.27245-1.2879-1.1334 0.0763-0.95085 4.2482 0.55852 8.8424-0.0545 21.405-4.6518 8.6406-3.1718 16.234-5.7571 22.616-7.7659z"/>
  <path d="m218.37 134.71c3.2487-0.78738 5.7187-1.2696 7.3814-1.4603 0.28879-0.0272 1.2505-2.1714 0.96174-2.1333-1.7791 0.19071-4.5076 0.76829-8.1023 1.711z"/>
  <path d="m55.995 206.23h0.01023zm-27.364 11.063c0.47107 0.92359 3.6619 5.6609 4.4693 6.4202 1.5955-0.35417 13.033-4.5556 14.138-5.4206 1.038-0.80644 7.8525-10.621 8.4965-12.235-0.75932-1.019-5.9494-5.4495-6.8721-5.8726-1.1342 0.32694-12.062 5.892-12.745 6.43-0.63426 0.54762-6.8722 9.3038-7.4873 10.678m3.4312 7.4681c-0.40377-0.41412-4.7672-6.6224-4.8922-7.1605-0.27872-1.0952 8.1024-11.668 8.1985-11.736 0.07622-0.0817 12.476-6.7856 13.542-6.7856 0.98026 0 8.1408 6.0552 8.1408 6.9011 0 1.1443-7.9486 12.639-8.977 13.437-0.83614 0.65389-11.543 4.9498-14.58 5.7476-0.77866 0.19071-0.93231 0.13622-1.432-0.40322"/>
  <path d="m145.66 175.29m-13.331-9.9959c-1.3647 0.53945-7.3815 4.3924-7.7275 5.3054-0.2016 1.1906 4.3636 11.265 6.8817 13.206 2.4125 1.8635 11.832 3.2293 14.042 2.9316-0.22067-0.16347-0.33646-0.77921-0.29806-1.1824 0.11446-1.2505 0.33648-9.7556 0.11446-10.169-0.22069-0.40323-8.0832-3.9216-8.6694-4.3635-0.4806-0.34602-3.9599-5.3057-4.3444-5.7285m13.389 21.837h9e-3zm-1.4034 0.7792c-3.7388 0-11.62-1.1824-13.869-2.922-3.0084-2.3267-7.7276-12.985-7.1316-14.763 0.40377-1.2097 8.3331-6.3628 9.3134-6.0936 0.6536 0.19072 4.3059 5.6705 4.6615 6.0263 0.32667 0.32693 8.8232 3.5947 9.1981 4.4404 0.38442 0.8446 0.0682 7.7275-0.26972 11.216 0.0763 1.0271 0.71136 0.7002 0.62473 1.5094-0.0299 0.36509-0.94185 0.58578-2.5278 0.58578"/>
  <path d="m127.37 167.47c-3.8157-6.6894-13.936-21.712-20.28-28.69-0.90344-0.98898-0.16347-1.7982 0.73998-0.80644 7.7468 8.5252 18.271 23.327 21.164 28.392-9e-3 0.0272-1.6148 1.1252-1.6243 1.1061"/>
  <path d="m190.76 193.24c-15.792 0-31.708-1.6728-44.424-5.9399-0.26972-0.0817-0.79772-2.2777-0.52854-2.1905 12.11 4.0559 26.97 6.7376 44.952 6.6415 17.223-0.10896 35.87-2.5855 45.635-6.4589 9.5251-3.7868 13.043-8.7077 13.379-10.15 0.35419-1.5557 0.30787-3.662-0.58576-5.4498 0.0817-0.16346 0.64298-1.2778 0.68385-1.2778 1.73 3.4503 1.9426 5.286 1.5175 7.1218-0.71109 3.0566-5.2863 7.3913-14.475 11.034-10.553 4.1905-27.873 6.6704-46.154 6.6704"/>
  <path d="m248.36 170.03c4.748-7.5929 2.8642-18.569-3.335-22.702-1.2587-0.83642-0.83643-1.4712 0.44136-0.66205 7.3528 4.6518 9.6403 14.205 3.6524 23.788-0.58576 0.93176-1.3922 0.58576-0.76014-0.42231"/>
  <path d="m245.27 146.87c0.84459-5.9206-1.1143-10.284-5.4209-12.677 0.0545-0.1907 0.50947-1.6728 0.60484-1.8172 4.9882 2.7776 7.2567 7.9392 5.7476 15.119-0.0545 0.24521-0.96992-0.34601-0.93178-0.6239"/>
  <path d="m245.81 147.12c8.381-8.8232 8.6309-10.419 6.9586-13.754-1.1334-2.2695-4.4692-2.9893-12.149-1.365-0.0545-0.0272 0.19072-1.1715 0.21796-1.1906 8.0833-1.6347 12.149-0.58577 13.36 1.8445 1.8744 3.7582 1.1443 5.8822-7.5062 15.234-0.0545 0-0.85549-0.6239-0.88545-0.7683"/>
  <path d="m251.45 163.13c2.9411-1.741 6.7856-6.2761 8.6118-10.995 2.1823-5.6323 1.2097-11.995-1.1824-16.483-0.43318-0.82552-0.87455-0.96174-1.2778 0.0817-0.78737 1.9998-2.8065 5.1228-3.8734 6.3726-0.7792 0.91269-4.6038 3.5849-6.0647 3.9598-0.27791 0.0545 2.5174-2.9604 2.6346-3.0563 0.71109-0.61573 1.8826-1.3759 2.6155-1.9616 0.45226-0.36509 3.3737-4.9019 3.8445-5.9206 1.019-2.2286 2.0951-1.5094 2.8354-0.45226 2.8547 4.0655 3.6042 12.447 1.4984 17.867-1.9889 5.1517-6.2186 10.4-10.102 12.697-0.0817 0.0545 0.21796-1.9698 0.46044-2.1142"/>
  <path d="m250.79 174.35c4.7191-3.5753 6.8145-6.3243 7.2662-7.4392 0.52038-1.2968 0.49041-5.8533 0.49041-10.496 0-0.2779 1.0489-1.76 1.0489-1.4794 0 5.1997 0 10.87-0.58577 12.36-0.53945 1.3268-3.2582 5.2286-8.4099 9.054-0.0817 0.0545 0.0817-1.9126 0.19071-1.9998"/>
  <path d="m266.37 117.82c-0.0272-1.4031-0.46044-3.5274-1.1143-4.7096-0.53945-0.96991-6.2571-4.1905-11.534-6.7472-0.27244-0.10896-1.3731-2.4711-1.1143-2.354 0.44137 0.21796 12.841 6.5837 13.85 8.3906 0.72199 1.3159 0.96991 4.4022 0.65387 5.6707-0.2452 0.99989-0.71926 0.82552-0.74105-0.24521"/>
  <path d="m274.11 141.9c2.9027-3.1525 3.9886-9.1499 3.1141-13.812-0.50947-2.7109-1.6156-4.7-5.046-7.5642-1.4794-1.2396-3.335-2.9411-5.565-5.1997-0.13623-0.13622-0.46044-2.0951-0.27244-1.8935 2.373 2.4411 5.0746 4.748 6.6221 6.0456 4.0369 3.3639 5.0651 4.8441 5.6803 8.2465 0.93177 5.2095-0.73016 11.986-4.2001 15.292-0.10896 0.10896-0.45227-0.98081-0.33512-1.1143"/>
  <path d="m254.15 135.71c2.97-2.6809 5.8726-6.8529 5.6708-9.6689-0.13623-1.8554-1.4412-4.9019-2.8354-5.3631-1.4412-0.47951-7.2084 1.8636-8.0928 3.6331-0.30787 0.62391-0.70292 2.6918-0.98082 5.7666-0.0193 0.2888-1.038 0.19071-1.019-0.0817 0.29697-3.3448 0.56671-5.5939 0.95085-6.3628 1.0489-2.0951 7.5544-5.0555 9.6114-4.3635 1.9044 0.6348 3.4792 4.5365 3.6331 6.6704 0.2452 3.5464-3.9984 8.6693-6.7281 10.928-0.10896 0.0817-0.42229-0.96174-0.21796-1.1524"/>
  <path d="m261.3 150.1c-0.0545 0.0545 0.13621-1.1715 0.16347-1.1525 2.4411 0 8.9772-3.143 11.351-5.7764 1.9316-2.1632 2.2286-6.5453-0.21797-8.9867-1.2968-1.2968-3.1716-1.7219-7.7274-0.57759-1.5475 0.38416-3.0274 1.8363-3.835 5.8822 0-0.10896-0.63481-1.1061-0.65387-1.1252 0.84459-4.2003 2.106-5.44 4.2292-5.9688 4.767-1.1906 7.3526-0.94268 9.0347 0.74107 2.8256 2.816 2.2395 8.3906 0 10.87-2.5665 2.8544-9.6597 6.0936-12.341 6.0936"/>
  <path d="m259.15 160.06c-0.10896-0.0272-0.16347-1.2696-0.0545-1.2315 2.5283 1.1443 3.5083 1.0489 7.324-1.8636 3.1046-2.373 3.8061-6.7281 2.5665-10.284-9e-3 0.0545 0.88546-0.56669 0.86639-0.60484 1.8635 4.9689 1.0871 8.6598-2.816 11.649-4.6711 3.5658-5.5171 3.4119-7.8814 2.3349"/>
  <path d="m264.19 158.99c3.2004-0.16347 6.5358-1.4712 8.4099-4.0464 2.1251-2.9217 2.4793-6.8529 0.99989-11.985 0.10896 0.0545 0.83641-0.83641 0.83641-0.83641 1.9616 6.0069 1.5094 10.524-0.73016 13.61-2.1905 2.9988-6.4205 4.6134-10.986 4.3058-0.0102 0 1.1906-1.038 1.4712-1.0462"/>
  <path d="m159.63 139.2c9.0155-14.773 24.461-22.625 39.81-22.712 4.9018-0.0272 9.2941 1.1443 12.87 3.1236 0.2452 0.13623-0.2452 1.0271-0.49858 0.89363-3.4601-1.9126-7.6506-2.7585-12.37-2.7109-13.504 0.13623-30.189 8.0544-38.83 22.491-0.0954 0.16348-1.0476-0.98081-0.98027-1.0871"/>
  <path d="m90.174 149.9c-2.9122-2.6346-11.274-15.503-11.034-17.002 0.23157-1.5094 7.5834-5.2479 9.2461-6.1034 0.25066-0.13623 0.25066 1.2968 0 1.4222-3.4505 1.7219-6.9971 3.9023-7.3238 5.0076-0.32667 1.1143 6.603 12.61 9.6114 15.33 0.21251 0.19072-0.40376 1.4331-0.49966 1.3459"/>
  <path d="m61.51 168.93m1.778 14.773c-1.6437-4.4118-3.5658-15.186-2.7969-15.955 1.0092-1.008 10.726 0.4332 15.542 1.5966-2.297-5.0651-3.6139-15.859-2.8642-17.002 0.88437-1.3268 12.514-0.76829 16.109-0.16346 0.28825 0.0272-0.20162 1.0762-0.47107 1.038-4.4116-0.74105-13.802-0.30785-14.225 0.16347-0.42284 0.47134 0.54789 12.495 3.066 16.695-0.04898 0.10896-0.60538 0.82551-0.64406 0.82551-5.1036-1.4603-14.59-2.2586-15.051-1.7872-0.346 0.3351 0.77839 9.3521 2.2011 13.937-0.14439 0.19072-0.81707 0.70019-0.86502 0.65389"/>
  <path d="m28.564 209.71c-0.70155-4.6518-0.93231-16.118 0.19344-16.916 1.1244-0.79827 12.418 1.5366 16.349 3.9886-0.02993 0.0272-0.74979 0.69202-0.85549 0.66205-3.6619-2.1142-13.869-3.6813-14.34-3.3064-0.43265 0.34602-0.81707 9.448-0.39396 14.648 0 0.10896-0.95165 0.89363-0.95165 0.92361"/>
  <path d="m6.513 238.81c-2.4989-3.8925-5.6995-12.351-5.1709-13.216 0.55743-0.89364 8.9866-0.79827 12.725 0.36507 0.02993 0.21797-0.63426 0.86639-0.67267 0.93178-3.8926-0.88545-10.265-0.73016-10.496-0.30787-0.23158 0.4332 2.7777 8.8905 4.1809 11.062 0 0.16347-0.47106 1.1634-0.56696 1.1634"/>
  <path d="m89.975 249.86h0.01023zm0.67269-0.0817c1.0285 1.7791 13.715 3.9886 15.436 2.7-0.57677-6.5551-3.8926-17.57-5.4304-17.762-1.4129-0.19071-9.3807 12.533-10.005 15.061m-0.6825 0.93178c-0.4806-0.41412-0.54789-0.69203-0.49012-0.95085 0.43264-2.057 8.8328-17.06 11.514-16.878 2.23 0.16347 5.9783 14.59 6.1032 19.194 0.0192 0.65387-0.20162 1.2015-0.89391 1.3759-4.1329 1.038-13.427-0.36507-16.234-2.7395"/>
  <path d="m64.569 259.42c0.75932 0.55852 5.7957 0.19071 11.572-1.9616 7.5546-2.8065 10.611-5.959 10.39-6.8145-0.49014-1.9616-19.607-15.08-20.54-14.619-0.92279 0.46044-2.5471 20.395-1.4224 23.394m0.44218 1.4794c-1.1244-0.13623-1.4802-0.0817-1.7494-1.8636-0.49014-3.2198-0.10628-10.265 0.04898-12.591 0.18255-2.9411 0.38442-7.9487 0.88437-10.524 0.53836-2.7681 0.7882-2.8258 3.537-1.3159 4.575 2.4984 15.417 10.832 18.858 14.417 1.3072 1.365 1.2783 1.7982 0.8841 2.5964-0.80728 1.6238-6.3627 5.546-10.774 7.1894-4.7 1.7491-9.7171 2.3158-11.687 2.0951"/>
  <path d="m84.203 247.32c0.83614-0.27246 3.3736-0.54763 4.5174-0.4332 0.94185 0.10896 0.94185 0.61573 0 0.73015-0.99008 0.13623-2.8354 0.54763-3.2871 0.79828 9e-3 0.0545-1.1822-1.019-1.2304-1.0952"/>
  <path d="m117.94 276.03c0.1444-5.8822-3.191-15.474-7.2566-19.348-0.97073-0.92361-0.36536-1.5175 0.60538-0.59667 4.7384 4.5172 7.7275 13.254 7.5641 19.896-0.0381 1.384-0.95166 1.4331-0.91296 0.0545"/>
  <path d="m60.405 263.26c0.33648-3.4023 0.55743-8.3715 0.73998-11.486 0.8266-14.254 2.1434-20.953 5.9783-29.017 6.3051-13.254 19.425-24.105 32.688-25.739 1.8551-0.24521 1.8837 0.69202 0.02993 0.91271-11.207 1.3759-24.788 12.139-31.179 25.566-3.6908 7.7659-5.1613 13.591-5.9975 28.046-0.17164 3.1239-0.30759 5.2672-0.44218 8.0928-0.01918 0.27244-1.8453 3.9023-1.8167 3.6236"/>
  <path d="m60.192 283.03c-6.5646-3.5369-15.859-13.879-15.638-15.638 0.23158-1.8254 12.447-6.0456 17.233-6.6799 0.27872-0.0272-0.40377 1.2097-0.68248 1.2587-5.7092 1.019-14.657 5.2574-14.667 5.8822-0.01023 0.61573 7.7083 10.611 13.35 13.581 0.25066 0.13621 0.48061 1.6347 0.40377 1.5965"/>
  <path d="m113.37 295.14c1.7205-2.2967 3.2294-5.046 3.7965-7.6316 0.35554-1.6619 1.2399-1.414 0.87456 0.2452-0.58631 2.719-1.9799 5.7476-3.7773 8.1598-0.10628 0.13623-1.0669-0.55852-0.89391-0.7792"/>
  <path d="m123.89 271.91c-0.44218-3.7868-1.2399-7.3912-2.5566-10.64-2.1722-5.3825-5.046-12.082-7.3143-16.262-0.56696-1.038 0.1335-1.2396 0.70156-0.19072 2.2875 4.2096 5.4881 10.515 7.5641 16.022 1.2688 3.3639 2.3837 6.6704 2.8354 10.543 0.0682 0.53945 1.2688 0.78738 1.4802 0.55852 0.76886-0.83641 8.929-10.034 9.1308-10.592 0.26973-0.74924 1.6821-17.204 1.3263-18.281-0.33648-1.0298-9.9958-12.533-11.12-13.389-0.58631-0.41411-4.1906-0.65387-4.9306-0.43318-0.68248 0.90452-5.0652 9.1499-6.9202 13.427-0.39396 0.91271-1.086 0.59667-0.73997-0.33511 1.432-3.8254 6.1705-13.6 6.8625-14.129 0.71136-0.52855 5.4785-0.24521 6.3916 0.40323 0.77839 0.55852 11.197 13.341 11.418 14.1 0.3076 1.0271-0.62473 18.502-0.96119 19.146-0.46126 0.86638-8.6599 9.9768-9.9093 11.341-0.67267 0.73015-3.1237-0.16347-3.2583-1.2778"/>
  <path d="m120.57 240.75c0.83614-2.6918 3.6235-7.9293 4.7384-9.6689 0.43238-0.69202 1.0285-0.39505 0.63427 0.33511-1.1437 2.1142-3.7292 7.1125-4.8057 9.5635-0.34602 0.78738-0.84595 0.64298-0.56697-0.21796"/>
  <path d="m128.56 266.1c-1.5666-5.9301-5.565-17.262-8.1312-23.135-0.35554-0.82552 0.28825-1.1143 0.67267-0.30787 3.2583 6.7856 7.0932 18.367 8.1601 23.24 0.21251 0.95084-0.46125 1.0952-0.70155 0.19072"/>
  <path d="m133.24 194.58c0.21251-2.9316 0.52855-5.6225 1.211-8.7655 0.049-0.0272 1.4993 0.37597 1.5091 0.37597-0.68248 2.6428-1.2879 6.1222-1.6627 8.996-0.0872-0.13622-0.85549-0.45226-1.0574-0.60483"/>
  <path d="m143.92 267.47c-0.25065-0.13622 0.20162-1.4031 0.45172-1.2696 8.285 4.3156 25.047 6.0552 41.463 5.4402 14.753-0.55852 28.344-4.0946 38.609-11.428 19.261-13.783 31.17-39.349 31.17-60.542 0-13.072-0.49041-13.927-3.9889-15.734-0.2452-0.13623-0.49041-2.1251-0.2452-1.9998 5.1803 2.6727 5.5073 3.162 5.5073 17.656 0 21.962-10.967 48.211-31.468 62.82-9.2845 6.6126-20.366 10.294-39.532 11.111-16.234 0.68111-33.351-1.5666-41.973-6.0552"/>
  <path d="m136.08 278.05c0-0.0817 1.5186-1.4222 1.5186-1.4222 12.437 3.5369 30.497 4.3251 47.884 1.1906 11.092-1.9889 27.854-8.6693 31.823-12.033 0.10897 0 2.7-0.70292 7.8716-4.0753-8.4388 8.9385-21.568 14.667-39.397 17.867-15.859 2.8642-32.977 3.2293-49.7-1.5284"/>
  <path d="m302.32 227.6c-1.7873 0-2.6428-0.74107-5.2574-5.6612-2.4902-4.6997-6.7278-12.533-9.967-16.282-7.0164-8.1121-16.205-12.726-31.141-15.792 0.0193 0-0.13623-1.7491-0.16347-1.7491 15.176 3.1141 25.172 8.4099 32.352 16.714 3.3157 3.835 7.1412 11.582 9.813 16.628 2.6618 5.0171 3.4985 5.3727 5.565 4.9305 0 0.0272-1.1524 1.1824-1.2097 1.2097"/>
  <path d="m285.84 224.17m-22.164 22.866c-4.6229-2.0842-12.591-6.0745-12.831-7.2757-0.29697-1.4985 4.0848-21.731 5.1901-22.837 1.1252-1.1334 19.251-7.0836 21.328-6.4685 1.4985 0.45226 9.8035 12.831 9.5632 13.821-0.27244 1.0081-1.9208 2.6428-5.267 5.6898-7.8525 7.151-12.485 12.005-15.397 15.936-0.65388 0.88546-1.2396 0.4223-0.58576-0.46044 3.6908-4.9692 9.275-10.919 15.244-16.368 2.4902-2.2586 4.8057-4.5654 4.8057-5.1038 0-0.88547-7.6988-12.197-8.708-12.543-1.2505-0.42229-17.964 4.4115-20.097 6.4202-0.90454 1.1061-4.9114 21.097-4.7191 21.491 0.19071 0.38415 6.2761 4.0273 11.726 6.9011 0.99989 0.52855 0.59666 1.1824-0.24521 0.79827"/>
  <path d="m262.19 242.87c2.076-5.4882 12.553-16.426 19.799-20.194 1.0871-0.56669 1.384 0.0545 0.32693 0.64298-6.2859 3.4794-17.329 15.176-19.55 19.838-0.4223 0.88546-0.95085 0.69202-0.5776-0.2888"/>
  <path d="m272.1 283.73c-1.7982-0.93177-7.9871-3.0661-9.8613-3.5947-9.6114-2.7487-18.329-3.7484-30.987-3.7484-15.782 0-23.836-0.95084-27.575-2.4302 0 0 3.2968-1.3159 3.5659-1.2505 4.5556 1.2505 13.206 2.2204 24.23 2.2967 12.937 0.0817 21.827 1.1634 31.112 3.7293 1.9126 0.51766 7.862 2.5556 10.14 3.6331 4.7962 2.2776 9.6787 2.3648 15.186-0.68385 4.5172-2.4984 10.323-6.6704 15.811-13.321 9.967-12.091 13.254-23.25 9.102-32.698 0.0545-0.10896 0.67294-1.1443 0.67294-1.1906 4.6425 9.1502 1.5856 22.202-8.7848 34.784-5.6225 6.824-11.437 11.38-16.118 13.917-6.5358 3.5464-11.14 3.3255-16.493 0.55852"/>
  <path d="m287.83 241.43c2.7297-0.0272 11.236-3.9984 11.591-6.7761-0.10896-1.1334-5.0365-10.986-6.1802-10.755-1.1824 0.21796-5.786 13.187-6.2184 16.532-0.10896 0.80644 0.16347 1.008 0.80645 0.99987m0.0272 0.95085c-1.6429 0-2.027 0.0545-1.7682-1.9507 0.56669-4.3829 4.873-17.714 6.9779-18.319 1.6347-0.47133 7.4967 11.293 7.343 12.735-0.29696 2.6346-8.4484 7.5351-12.553 7.5351"/>
  <path d="m299.52 233.39c0-0.0193-0.47133-1.1334-0.49858-1.2315 5.3632 2.9509 12.389 3.835 13.581 3.0373 0.36509-0.39505 1.711-4.1039 3.0084-8.7655 1.7982-6.4878 1.6429-8.6598 1.1906-8.9385-0.82551-0.49858-12.533 7.0738-17.637 14.955 0.0272 0-0.47134-0.99989-0.50132-0.99989 3.96-5.9206 12.014-12.351 16.503-14.629 2.2477-1.1443 3.2871-0.92361 3.0277 1.6156-0.76014 7.1221-4.3156 16.945-4.9981 17.435-1.8172 1.2206-8.4772 0.38416-13.677-2.4793"/>
  <path d="m315.03 246.15c3.4312-3.508 6.1898-12.11 5.8822-12.476-0.29696-0.36507-5.0365 0.59667-7.6986 1.384 0-0.0191 0.47133-1.1252 0.4332-1.1715 0.0817-0.0193 7.7947-2.2096 8.6502-1.3159 0.86639 0.89362-3.1141 11.562-7.4199 15.08-0.0545 0 0.16347-1.4603 0.16347-1.4985"/>
  <path d="m274.27 257.39c1.5557-4.6711 4.2867-9.7651 7.8716-13.744 0.78738-0.87456 1.3541-0.58577 0.59667 0.30787-3.5372 4.2096-6.0456 9.4768-7.7852 13.763-0.41411 1.0108-1.0489 0.77921-0.68112-0.32693"/>
  <path d="m61.874 287.78c-6.2282-10.015-5.0652-22.077 1.6148-30.42 0.04911-0.13623 0.42284 1.6347 0.3749 1.681-5.7092 7.3912-6.2378 19.156-0.71136 28.037 8.0832 12.994 22.702 18.31 33.63 16.56 7.4584-1.2015 15.263-6.0936 17.839-10.14 3.4889-5.4879 8.3138-9.3229 16.897-13.638 2.1913-1.1062 4.4885-2.5855 6.2666-4.4499 6.0744-6.3916 9.6979-17.81 8.0351-33.823-1.1631-11.207-4.6615-20.434-11.803-31.785-2.8834-4.575-4.7769-9.4959-4.5654-12.466 0.25065-3.6138 2.7585-4.4981 4.8057-2.9602 18.079 13.542 56.553 22.548 80.313 18.992 26.172-3.9118 37.609-13.581 37.609-21.289-0.21796-2.1251-2.2477-13.764-2.6155-14.724-0.10897-0.27245 0.81734-1.7192 0.96174-1.4794 0.74922 1.3159 2.7109 14.571 2.8449 15.955 0 11.476-13.465 19.521-38.522 23.269-24.278 3.6331-63.368-6.0647-81.197-19.424-0.97073-0.73018-2.7777 0.40322-2.8738 1.8063-0.1444 2.0379 1.211 7.1989 4.1041 11.784 9.0059 14.302 11.562 22.875 12.552 32.054 1.7878 16.541-1.9799 28.613-8.631 35.187-1.4034 1.384-4.4308 3.3544-6.7183 4.5654-9.3327 4.9308-13.273 8.0928-16.56 13.254-2.6817 4.2194-10.438 9.8806-18.425 11.168-12.735 2.0379-26.729-4.0464-35.226-17.714"/>
  <path d="m62.18 247.77c-0.18254-0.19071-5.3247-6.0072-5.44-9.3711-0.13349-3.9118 3.4312-14.35 6.4781-18.896 1.3263-1.9889 7.1989-1.7982 7.8333-1.7682 0 0.0545-0.85549 1.365-0.9612 1.365-2.1818-0.10896-5.3728-0.0272-6.132 1.0952-2.7201 4.0658-6.1128 14.013-5.9783 17.983 0.10628 2.9986 4.3347 7.4583 4.3828 7.5065 0.19343 0.21796-0.08722 2.2014-0.18255 2.0842"/>
  <path d="m78.538 174.75c0.82661 0.84458 5.9879 4.1905 6.9106 4.3444 1.0091-0.30787 10.649-5.2288 11.976-7.8046 1.384-2.6918 2.3259-14.042 1.7878-15.138-0.51901-0.77919-7.0067-2.9315-8.2177-3.0566-0.9514 0.84459-7.0163 8.3426-7.5545 9.4384-0.53836 1.0952-4.5942 10.995-4.9018 12.216m7.0067 5.6034c-1.1726 0-8.0928-4.2289-8.2562-5.1613-0.15257-0.96174 4.1137-11.361 4.9883-13.1 0.68248-1.365 7.4969-9.8997 8.4003-10.121 0.82661-0.19071 8.6502 2.4411 9.4096 3.6426 0.87456 1.4031-0.0764 13.725-1.5377 16.32-1.8069 3.2198-12.139 8.4195-13.004 8.4195"/>
  <path d="m95.791 168.43c0.31713-2.1523 0.88437-8.7464 1.1244-11.86 0.07635-0.92361 0.70156-0.80646 0.69202 0.13621-0.05717 3.2103-0.61519 9.6305-1.1342 11.908-0.16347 0.74107-0.79772 0.60484-0.68248-0.16347"/>
  <path d="m83.699 177.01c3.1429-1.1715 7.7852-3.9886 11.159-6.5935 0.89391-0.69203 1.259-0.16347 0.40377 0.60482-2.4798 2.2286-7.1893 5.1997-11.418 6.6704-0.59585 0.21796-0.94186-0.38416-0.1444-0.68112"/>
 </g>
</svg>
