<?xml version="1.0" encoding="UTF-8"?>
<!-- Created with Inkscape (http://www.inkscape.org/) -->
<svg version="1.1" viewBox="0 0 72.392 99.47" xmlns="http://www.w3.org/2000/svg">
 <g transform="translate(-1.2348 -.7318)">
  <path d="m17.63 60.572s-5.969-2.3428-9.5956-7.1024c-4.7736-6.2656-6.1198-12.068-6.1198-16.093 0-8.9154 3.9289-15.489 3.9289-15.489l2.6444-1.5494s0 3.4571 0.28326 5.1003c0 0 2.0966-1.3035 2.55-1.4733 0 0 0.79338 3.5135 1.87 4.76 0 0 1.6999-2.4936 2.21-2.8899 0 0 3.3433 6.4031 8.5 9.3498 5.1567 2.9467 7.3663 3.0601 7.3663 3.0601s0.11344 1.87 0 3.2299c-0.11276 1.3602-0.39636 3.5135-0.39636 3.5135s-1.6435-1.2468-4.0233-1.2468c-2.3798 0-4.76 1.2468-5.8933 2.4365 0 0 1.6435 0.22654 2.0966 0.3403 0 0-3.003 1.5487-3.5699 4.0043 0 0 1.7756-0.4534 2.5693-0.11343 0 0-1.5117 1.2094-1.2094 3.2486 0 0-1.813 1.5871-2.8709 3.8158 0 0 1.4356-0.26424 2.1533 0.26458 0 0-1.2842 1.0202-1.5864 1.4356-0.30261 0.41571-0.90682 1.3979-0.90682 1.3979" fill="#d38b00"/>
  <path d="m5.6546 21.962s1.6999-3.5889 3.0601-5.2134c1.3602-1.6241 3.2866-3.6643 3.2866-3.6643s0.41604 4.08 1.3225 7.1021c0.90649 3.0221 2.0775 5.5156 2.0775 5.5156l-2.21 3.0224s-0.9255-1.4356-1.2278-2.4936c-0.30227-1.0576-0.49144-2.2664-0.49144-2.2664l-2.644 1.6238s-0.30194-2.1156-0.26424-3.1732c0.037357-1.0576-0.038397-2.191-0.038397-2.191z" fill="#fff1ac"/>
  <path d="m15.477 9.9869s1.511 2.1533 2.4178 2.9844c0.90649 0.83141 3.5882 2.8716 4.4574 3.5515 0.86911 0.67994 3.0601 2.6444 3.0601 2.6444s-1.2468-3.5889-1.1711-6.1959c0.07576-2.6063 1.3225-6.9509 1.3225-6.9509s-2.7955 3.339e-4 -5.6291 1.3225c-2.8332 1.3219-4.4577 2.644-4.4577 2.644" fill="#fff1ac"/>
  <path d="m3.8036 26.647c-1.2091 2.9467 1.3976 21.911 17 26.746l-0.22687 0.52881s-2.1152 2.0402-2.6067 3.5512c0 0 1.7756-0.15148 2.1533 0.26424 0 0-1.6809 1.0202-2.4932 2.8339 0 0-5.4589-1.8136-9.4825-6.9703-4.0233-5.1563-6.29-10.879-6.29-15.923 0-5.0435 1.9458-11.031 1.9458-11.031" fill="#ad7200"/>
  <path d="m4.8604 23.079c-0.076037 0.19918 0.46409 0.5188 0.53949 0.31929 0.41403-1.077 1.9327-2.0902 2.8055-2.5623-0.017307 0.4384 0.015983 4.1044 0.21186 4.8587 0.13778 0.52948 0.1885 0.55016 0.61622 0.20218 0.56017-0.45441 1.5124-1.123 2.1319-1.3802 0.20886 0.9572 0.77269 3.5268 1.7219 4.7129 0.21386 0.26758 0.4454 0.24889 0.6249-0.03234 0.41337-0.64225 1.6375-2.611 2.23-2.992 0.17883-0.11544-0.23754-0.76369-0.41704-0.64825-0.63223 0.4067-1.6034 1.7619-2.1136 2.5143-0.87245-1.4893-1.3375-4.3035-1.3425-4.3329-0.05637-0.30194-0.14681-0.34864-0.43005-0.31128-0.66094 0.08843-1.7536 1.0109-2.3845 1.4803-0.1508-1.8867 0.16582-4.9865-0.094101-5.1546-0.361-0.23288-3.4988 1.7636-4.1 3.3263" fill="#d38b00"/>
  <path d="m24.983 5.5223c-9.4996 0.57685-23.748 13.916-23.748 31.919 0 9.617 6.649 20.032 16.31 23.553 0.12812 0.04672 0.39603-0.67061 0.26391-0.72566-8.5691-3.5769-15.225-13.512-15.225-22.827 0-17.587 13.047-30.387 22.214-30.92-1.3539 3.5622-1.8083 7.814 0.03935 12.232 0.11144 0.26591 1.6515 1.2665 1.5577 1.0753-2.5456-5.2114-1.3342-11.303-0.67995-13.118 0.37901-1.0506 0.35132-1.2531-0.73133-1.1877" fill="#0f141b"/>
  <g fill="#d38b00">
   <path d="m30.097 50.825c0 6.1652 10.677 11.56 17.302 11.56 7.8207 0 15.867-7.0724 15.867-10.653 0-0.68028-0.75535-3.2493-0.83108-4.0803-0.07576-0.83074-0.07509-4.9872-0.37767-7.3289-0.30228-2.3418-1.058-4.6085-1.058-4.6085s1.0389-1.3789 1.3789-2.5686c0 0-1.5868 0.67927-1.9831 0.73666 0 0 1.133-2.0402 1.2464-3.6837 0 0-2.4932 1.9264-2.7768 2.0966 0 0-0.28326-1.4166-1.1901-2.2667-0.90682-0.85009-3.2296-2.2667-4.1931-3.74 0 0-0.33997 0.90682-0.33997 1.4169 0 0-1.6999-0.90682-2.0969-0.96353 0 0 0.51012-0.84976 0.96353-1.3032 0 0-1.87-0.11377-4.08 1.3599 0 0 0.28326-1.8133 0.62323-2.55 0 0-1.8697 0.05674-6.0631 2.8899 0 0 0.50979-1.87 1.1901-2.8332 0 0-6.9136 1.5868-9.8602 7.2532 0 0-2.3798 4.8734-2.4365 6.2333-0.05674 1.3602-0.3967 6.6303-0.56684 7.5932-0.16983 0.96353-0.71765 4.3633-0.71765 5.4402"/>
   <path d="m32.741 38.358c-4.6886-0.66994-7.6112-1.8083-12.863-6.4038-4.5848-4.012-7.1131-12.702-7.82-16.943-0.39669-2.3798-0.56651-9.1232-0.22654-9.2934 0.33997-0.17015 2.8332 3.74 5.2134 6.2336 2.3798 2.4929 8.7265 7.3666 9.7464 8.4997 1.0202 1.1337 4.4764 6.1202 5.4966 8.1033 1.0199 1.9834 2.4365 4.1938 2.8332 5.2134 0.39669 1.0199-1.5864 4.7032-2.3798 4.5905"/>
   <path d="m57.674 31.558c-0.42672-1.9201-0.67994-4.3633-0.1131-6.1769 0.5665-1.8133 2.2667-4.6462 2.9467-5.7232 0.67994-1.077 4.3633-6.7998 5.4399-8.84 1.0766-2.0398 3.5135-6.1766 3.9099-7.0267 0.3967-0.84977 1.4737-2.5496 1.4737-2.5496s1.3599 2.4929 1.6999 6.9696c0.33997 4.4767 0.1131 10.483-1.4166 15.13-1.53 4.6469-4.5901 8.4436-6.1766 10.2-1.5868 1.7562-3.4568 3.2866-4.1367 3.6263-0.81906 0.4097-3.2466-3.8978-3.6269-5.6097"/>
  </g>
  <path d="m17.158 63.631s-0.84976 1.8136-1.2468 3.1739c-0.39636 1.3596-0.84977 3.4561-0.84977 3.4561s-1.2468 1.1337-1.8133 3.1735c-0.56651 2.0398-0.62323 5.3832-0.73667 6.3467-0.11376 0.9632 0.11344 1.9835 0.33997 2.4362 0.22654 0.45373 1.1334 0.62356 1.1334 0.62356s0.39669 0.90648 1.0196 1.1901c0.62389 0.28325 1.3606-0.2836 1.3606-0.2836s1.1897 0.2836 1.5297 0.05703c0.33997-0.22654 1.53-1.8133 1.9267-2.55 0.39669-0.737 0.85009-2.21 0.85009-2.21s2.0966-0.11377 3.5132-1.4169c1.4169-1.3035 1.53-2.2664 1.53-2.2664s-1.9267-1.7002-2.6634-3.0598c-0.73633-1.3606-1.4733-4.1371-1.4733-4.1371s-0.9632 0.39636-1.5868 1.0763c-0.6229 0.68028-1.0763 1.5871-1.0763 1.5871s-0.79339-1.9835-0.45341-3.4568c0.33997-1.4733 1.473-4.1367 1.473-4.1367s-1.6435 0.68061-2.4932 1.6431z" fill="#ad7200"/>
  <path d="m27.075 75.984s0.28359 8.6701 1.1334 12.353c0.85009 3.6833 3.0598 9.9169 3.6269 10.483 0.91583 0.91583 2.1813 1.0296 2.4929 0.51046 0 0 2.4369 1.3032 3.4571 0 0 0 1.0763 0.22654 1.5297-0.28326 0.45307-0.50979 0.73666-1.0773 0.33997-2.0969-0.39669-1.0203-1.1901-3.2866-1.2468-4.4764-0.05674-1.1907 0.11343-6.4038 0.11343-6.4038l-0.90649 0.84976s-0.45373-2.6627-1.3035-4.3065c-0.8501-1.6431-1.9267-2.8896-1.9267-2.8896s0.28359 2.4929-0.62323 3.3433c0 0-1.7002-2.7768-3.0601-4.1934-1.3599-1.4169-2.0398-2.3798-2.0398-2.3798z" fill="#d38b00"/>
  <path d="m45.831 84.768s0.73666 3.6833 1.8133 5.8933c1.0766 2.21 2.7765 5.2127 3.4564 5.7232 0.67996 0.51013 2.3234 0.8501 3.0601 0.1131 0 0 1.1334 0.56718 2.0969 0.16982 0.9632-0.39636 1.0199-0.84977 1.0199-0.84977s1.6431-0.33997 1.4733-1.3028c-0.17016-0.96353-2.0969-4.7036-2.4932-6.6867-0.39669-1.9834-1.077-7.0837-1.077-7.0837s-2.9467 2.55-4.9298 3.2302c0 0 0.73666-1.0203 0.79305-1.8133 0 0-1.3032 0.90682-2.3798 1.4733l0.4534-2.2667s-0.90682 0.84943-1.4733 1.4169c-0.56684 0.56618-1.8133 1.9831-1.8133 1.9831" fill="#d38b00"/>
  <path d="m30.871 44.988s-1.7566-1.2468-4.023-1.2468c-2.267 0-4.9111 1.3409-5.8936 2.4365 0 0 1.7759 0.03802 2.0969 0.3403 0 0-3.0791 1.7372-3.5702 4.0043 0 0 2.1536-0.30227 2.5693-0.11343 0 0-1.3229 1.9267-1.2091 3.2486 0 0-2.2287 2.0785-2.8709 3.8158 0 0 1.8513-0.15113 2.1533 0.26458 0 0-3.4001 1.6622-2.6824 7.1398 0 0 1.9267-1.473 2.4932-1.6435 0 0-2.4178 4.2885-1.0576 7.4994 0 0 1.4356-2.1539 2.6067-2.4552 0 0 0.75535 6.1949 6.9509 8.122 0 0 1.889 1.851 2.7201 2.9847 0.83075 1.1327 2.4932 3.8151 2.4932 3.8151s0.60454-0.75535 0.71764-1.5487c0.1131-0.79339-0.15114-1.9641-0.15114-1.9641s1.4356 0.86879 2.2294 3.1729c0.79304 2.3044 1.095 4.2692 1.095 4.2692s1.4353-1.096 1.9267-2.9847c0 0 0.30194 3.0601 0.90682 4.2692 0 0 1.2848-4.2311 2.7955-4.9865 0 0 0.37767 0.94452 0.37767 1.6995 0 0.75502 0.03802 1.6622 0.03802 1.6622s1.8133-1.2094 2.4175-2.1533c0.60421-0.94484 3.1168-3.2679 3.1168-3.2679l-0.45307 2.2667s1.7939-0.77437 2.4742-1.5674c0 0-0.1885 1.0199-0.86879 1.8133 0 0 2.1529-0.41537 4.7219-3.0601 2.5693-2.6451 4.0049-4.9488 4.5715-7.6312 0 0 2.4182-1.6622 3.1735-5.6291 0.75502-3.9662 0.1508-6.346 0.1508-6.346s1.3222 0.52881 1.7002 3.5886c0 0 0.98222-2.0021 0.98222-4.3823 0-2.3798-1.7002-4.5331-3.8535-5.4776 0 0-5.2134 7.2909-14.242 7.2909-9.9446 0-17.378-7.2572-17.378-11.409 0-1.1334 0.77437-5.8366 0.77437-5.8366" fill="#fff1ac"/>
  <path d="m31.004 36.016s-4.6882-0.53048-9.5956-5.8176c-7.8197-8.4242-7.4797-17.982-7.4797-17.982s4.6465 4.6088 6.4221 6.0444c1.7759 1.4353 5.0696 4.4176 6.7244 6.4218 1.9648 2.3805 5.1376 7.2919 5.7799 8.9537l-1.2084-0.60421 0.56684 2.1152-2.267-1.2465z" fill="#36210d"/>
  <path d="m59.601 31.671s-0.1885-3.8915 1.436-8.0092c1.6238-4.1174 4.6088-8.16 5.7422-10.048 1.1334-1.889 4.0416-6.649 4.0416-6.649s0.30228 2.0018 0.22687 5.7422c-0.07537 3.74-0.49144 7.7824-1.5868 10.993-1.095 3.2109-3.4001 6.9129-5.1376 8.8023-1.7376 1.8887-2.3041 2.1156-2.3041 2.1156l0.49078-1.511s-1.2084 0.49177-2.0779 0.67961c0 0 1.2091-2.3044 1.2091-3.5886z" fill="#36210d"/>
  <path d="m43.772 51.467s0.26457 1.058 0.49144 1.5868c0 0 1.473-1.0579 3.362-1.0579 2.6444 0 3.6646 1.3973 3.6646 1.3973s0.67994-0.94451 0.79338-1.851c0 0-1.2468-0.30194-2.1536-0.71765-0.90649-0.41571-1.5494-0.52848-1.9644-0.49077-0.41538 0.03736-1.7002 0.49011-2.3044 0.64191-0.60421 0.15114-1.889 0.49144-1.889 0.49144" fill="#923000"/>
  <path d="m44.358 53.063s1.3505-1.0666 3.2676-1.0666c1.9174 0 3.7307 1.3786 3.7307 1.3786s-2.1249 2.55-3.8248 2.55-3.1735-2.8619-3.1735-2.8619" fill="#ed8599"/>
  <path d="m50.889 53.885c0.28859-0.29861 0.46675-0.51046 0.46675-0.51046s-1.8136-1.3786-3.7307-1.3786c-1.9171 0-3.2676 1.0666-3.2676 1.0666s0.14246 0.27658 0.38902 0.65693c2.0442-0.73133 4.1594-0.67994 6.1425 0.16548" fill="#ce7486"/>
  <g fill="#dcd096">
   <path d="m34.328 57.473c4.5221 3.4448 8.5287 4.8354 13.524 4.8354 2.9353 0 6.1702-1.0496 7.9882-2.2517 0.0066-0.0048 0.02799-0.01901 0.02099-0.01504-0.02099 0.01504-0.90716 5.2894-7.7824 5.2894-10.351 0-13.751-7.8581-13.751-7.8581"/>
   <path d="m27.226 74.398c-0.58052-1.4153 0.15081-4.3069 0.90616-5.516 0 0 2.1159 6.1962 4.5337 7.1781 0 0-0.22653-2.1152 0.37768-3.3997 0 0 1.8887 3.9282 3.2489 4.9111 1.2858 0.9285 2.0312 1.7219 2.236 2.636 0.01201 0.05268 0.02232 0.10576 0.03064 0.15914 0.15147 0.98222-0.37801-4.3823 0.90649-5.0622 0 0 0.83141 4.6092 1.436 5.2134 0 0 2.266-3.2493 4.2308-3.8535 0 0-0.67994 2.645-0.37768 3.7023 0 0 1.7639-2.0058 3.2489-2.569 1.7946-0.67994 4.4574-0.30228 5.2888-1.8133 0 0-1.063 3.2589-4.0043 5.1567-1.7566 1.1333-2.6631 2.7201-3.1165 3.2866-0.4534 0.56684-2.4369 2.3801-2.4369 2.3801s-0.28359-2.5683-0.5665-3.3807c0 0-1.0203 0.77404-1.5868 1.9638-0.56683 1.1904-1.077 2.7768-1.077 2.7768s-0.39669-0.56684-0.67961-1.9831c-0.28326-1.4166-0.35932-2.0398-0.35932-2.0398s-0.37734 1.0196-0.88747 1.5864c-0.51013 0.56651-0.9632 1.1897-0.9632 1.1897s-0.51046-2.6627-1.3035-4.3066c-0.79339-1.6431-1.9267-2.8896-1.9267-2.8896s0.13212 1.3599-0.01901 1.9264c-0.15114 0.56618-0.60421 1.4169-0.60421 1.4169s-1.7566-2.7768-3.1165-3.9669c-1.3602-1.1901-2.8149-3.2299-3.4191-4.7032"/>
   <path d="m52.575 78.138s6.2333-0.96287 6.9132-5.3268c0 0-0.41538 7.065-9.218 11.07 0 0 0.60387-0.90715 0.86878-1.8136 0 0-1.2842 1.0576-2.4742 1.5677l0.47242-2.3988s1.5868-0.83075 2.0775-1.4356c0.49111-0.60488 1.3602-1.6625 1.3602-1.6625"/>
   <path d="m22.39 59.362c-1.133 0.18883-2.2817 0.86144-2.9467 1.8894 0 0-0.47176-1.8133 1.0012-3.4004 0 0-3.4941 1.2098-3.0034 7.0267 0 0 1.2848-1.0953 2.5313-1.5487 0 0-2.3421 3.7023-1.0953 7.4047 0 0 1.6618-2.4929 2.7008-2.569 0 0 1.0009 6.4601 6.8568 8.2358 0 0-2.0018-2.7582-2.191-4.7223-0.18918-1.9644-0.30228-4.0797-0.30228-4.0797s-2.0398-2.7962-1.2091-4.836c0 0-1.4353-0.07604-2.191 0.83075-0.0028-0.0094-0.73666-2.1343-0.15147-4.2311"/>
   <path d="m59.375 64.651s1.9267 0.79339 2.0966 1.8697c0 0 1.5864-3.1732 0.9632-5.7802 0 0 1.3602 2.5506 0.33997 7.0837-1.0199 4.5338-3.2109 5.3648-3.2109 5.3648s0.4911-2.9283 0.4911-4.5144c0-1.5871-0.67995-4.0236-0.67995-4.0236"/>
   <path d="m21.521 47.651s2.6631-0.56684 3.9099-0.05674c0 0-0.9632 0.73699-1.3035 1.9831 0 0 1.8136-0.05637 3.74 0.96386 0 0-4.8167 0.90616-7.0267 3.3433 0 0-0.64158-1.5114 1.2094-3.4758 0 0-1.096-0.3213-2.626 0.30228 0 0 0.33997-1.1901 0.79372-1.87 0.45307-0.68029 1.3032-1.1901 1.3032-1.1901"/>
   <path d="m64.172 62.611c0.4534-0.75602 1.2098-3.3247 0.37834-4.7606 0 0 1.5864 1.8133 1.1334 4.0046-0.45341 2.1916-0.98255 3.2496-0.98255 3.2496s-0.15148-0.83141-0.30228-1.5868c-0.15081-0.75568-0.22687-0.90682-0.22687-0.90682"/>
  </g>
  <path d="m27.981 87.601c0.39669-0.90682 7.7637-1.3599 10.143 2.3798l0.62323-4.023-1.077 1.1337s-0.58552-2.7204-1.3599-4.477c-0.77403-1.7566-1.9834-3.0034-1.9834-3.0034s0.18884 1.3225 0.03802 2.0402c-0.15113 0.71731-0.71797 1.5491-0.71797 1.5491s-0.79338-1.7766-2.0025-3.0981c-1.2081-1.3219-3.0971-3.5882-3.0971-3.5882l-1.4737-0.52948s0.03802 2.607 0.15114 4.8734c0.1131 2.2667 0.75568 6.7431 0.75568 6.7431" fill="#ad7200"/>
  <path d="m46.644 87.809c0.86845-1.6238 6.1952-3.2483 9.1042-2.2287l-0.5665-4.8354s-2.191 2.3051-4.9111 3.1362c0 0 0.5665-0.79338 0.77403-1.7195 0 0-1.152 1.0009-2.3795 1.4733l0.47209-2.3985s-0.83141 0.79372-1.2848 1.2842c-0.45307 0.49111-2.0018 2.4178-2.0018 2.4178z" fill="#ad7200"/>
  <path d="m18.65 67.183c-1.2465 0.90616-3.3243 3.5512-3.6266 6.5352 0 0-0.37735-3.0604 0.67994-6.1952 1.0576-3.1358 1.4543-3.8915 1.4543-3.8915l0.28325 1.2468s0.86912-0.83074 1.3225-1.0573c0.45307-0.22687 1.2084-0.49177 1.2084-0.49177s-0.60455 1.2848-0.90648 2.0402c-0.30194 0.75568-0.41538 1.8136-0.41538 1.8136" fill="#d38b00"/>
  <path d="m14.91 73.945s-1.5497 1.0209-2.0782 4.1557c0 0-0.03707-3.6269 0.71831-5.3268 0.75501-1.6999 1.5107-2.5123 1.5107-2.5123s-0.26424 1.4173-0.22653 2.0595c0.03773 0.64158 0.07576 1.6238 0.07576 1.6238" fill="#d38b00"/>
  <path d="m31.117 96.951c0.3403 0.83075 2.9843 2.1906 3.2109 1.6245l0.3403-0.07576s1.5861 1.1711 3.0221 0.0384l0.45341-0.0384s1.2838-0.03773 1.3219-0.67994c0 0 0.45341 0.45374 0.22687 0.79339-0.22687 0.3403-1.9077 0.71798-1.9077 0.71798s-0.50946 0.49077-1.3409 0.49077c-0.83142 0-2.0398-0.33997-2.0398-0.33997s-0.68028 0.18918-1.096 0.15147c-0.41571-0.03801-1.0957-0.30227-1.4733-0.81272-0.37734-0.5098-0.71764-1.8697-0.71764-1.8697" fill="#ad7200"/>
  <path d="m50.459 95.138c0.37768 0.52948 2.4182 1.133 3.2116 0.71731l-0.1131-0.33963s2.3041 1.0957 3.5128-0.37768l0.26424-0.41538s1.2845-0.15147 0.94484-0.90682c0 0 0.52814 0.26424 0.45307 0.79339-0.07537 0.52881-0.68028 1.095-1.3599 1.2461 0 0-0.15114 0.60521-1.1143 0.8124-0.96353 0.20818-2.0592-0.01901-2.0592-0.01901s-0.79339 0.5675-1.511 0.45407c-0.71731-0.11377-1.4356-0.41504-1.7756-0.86912-0.33997-0.45307-0.45341-1.0957-0.45341-1.0957" fill="#ad7200"/>
  <g fill="#0f141b">
   <path d="m58.846 32.087c0.42405-0.38568 1.3966-1.2615 2.0205-1.8323 1.0459-0.95887 1.3582-0.85043 1.0893 0.49044-0.17349 0.86244-0.55316 1.7813-0.86177 2.4362 0.38402-0.17015 0.81573-0.37634 1.1497-0.54348 0.78371-0.39035 0.77103-0.27258 0.53481 0.47676-0.45707 1.4466-0.79672 2.1266-1.3636 2.9767 1.0483 2.9183 1.523 5.1456 1.523 11.835 0.0227 0.07906 0.83442 2.6387 0.83442 3.6536 0 3.4414-6.8969 11.104-16.089 11.104-9.0311 0-17.326-5.6728-18.017-11.371-0.15313-1.2621 0.4107-3.2159 0.67961-5.4773 0.27858-2.3408 0.59386-4.9938 0.55551-7.4831-0.0028-0.21218 0.76769-0.2242 0.77102-0.01135 0.03906 2.54-0.27958 5.2207-0.56083 7.5845-0.26191 2.2113-0.49045 4.124-0.34866 5.2948 0.58386 4.8127 8.5057 10.692 16.92 10.692 8.3926 0 15.049-7.6142 15.049-10.555 0-0.91782-0.69429-3.0264-0.69429-3.3767 0-4.2438 0-8.6314-1.4136-12.056-0.0507-0.12111-0.04502-0.2232 0.02204-0.33931 0.0076-0.01372 0.92851-1.3198 1.3542-2.1579-0.68028 0.52881-1.3809 0.79972-1.6368 0.84176-0.64625 0.1081-0.6716-0.08672-0.39902-0.57018 0.01031-0.01807 1.0069-1.7292 1.3556-3.0481-0.58553 0.58553-1.0843 1.0076-2.1913 1.7566-0.69863 0.47242-0.85177 0.1955-0.28326-0.32096"/>
   <path d="m53.226 25.934c-0.16982 0.35432-0.33997 0.8501-0.50812 1.522-0.03064 0.12244 0.68495 0.64825 0.7113 0.43706 0.02998-0.23688 0.06611-0.68428 0.13712-1.0806 0.8501 1.1757 2.4932 2.6631 3.4992 3.3287 0.20152 0.13411 0.16047-1.1187-0.04274-1.2321-1.119-0.62323-2.8899-2.2807-3.301-2.975-0.23087-0.39035-0.32062-0.36466-0.49578 0"/>
   <path d="m43.819 23.753c-3.2136 0.90181-8.2541 2.8656-10.322 7.2008-0.03405 0.07007 0.36199 0.58953 0.45307 0.39636 1.3002-2.7505 5.2507-5.1189 9.0368-6.4578-0.28726 0.53014-0.60488 1.2301-0.79872 2.0315-0.2202 0.93651-0.1775 0.91082 0.58619 0.41271 0.03565-0.02336 3.2139-2.0819 5.2654-2.6744-0.24089 0.61288-0.46742 1.489-0.53749 2.0522-0.08436 0.67861 0.02506 0.76435 0.59621 0.39702 0.02033-0.01305 1.6442-1.0409 3.1458-1.3679-0.28526 0.31829-0.56385 0.66527-0.65492 0.90815-0.09743 0.25857-0.09709 0.36733 0.21719 0.49345 0.52714 0.21119 1.9097 0.78605 2.5893 1.3529 0.48344 0.40236 0.64125 0.10476 0.33997-0.31195-0.51012-0.70797-1.5667-1.2868-2.216-1.5758 0.24056-0.3056 0.63825-0.73032 0.99923-1.0736 0.56618-0.53715 0.52448-0.61756-0.24155-0.66426-1.3359-0.0837-3.1458 0.87712-4.095 1.5287 0.26924-0.70831 0.64158-1.6545 0.8521-2.1176 0.23154-0.51246 0.23321-0.61288-0.39369-0.54249-1.529 0.16983-4.3543 1.7536-5.7425 2.8162 0.58119-1.0766 1.3235-2.1883 1.3305-2.198 0.53848-0.69896 0.4484-0.84877-0.4097-0.60622"/>
   <path d="m34.504 33.326c0.5188 0.8968 0.99522 0.76269 0.50445-0.25724-3.2416-6.7341-4.8904-9.2764-7.5178-12.429-2.613-3.1352-8.1974-6.7624-9.6714-8.3195-1.4049-1.4847-2.6814-3.2372-3.7197-4.6342-1.6445-2.213-2.0518-2.7261-2.5536-2.4752-1.0359 0.5168-0.82407 18.409 7.4824 26.498 6.1195 5.9577 11.31 6.664 13.203 6.8475 0.99055 0.09475 1.0526-0.42171 0.07537-0.51747-1.8126-0.17482-6.669-1.2077-12.613-6.9946-6.4211-6.2523-7.7426-19.444-7.7426-23.879 0-0.39235 0.01068-0.71198 0.02904-0.95619 0.37234 0.42004 0.9612 1.2111 1.5007 1.9371 1.0493 1.4113 2.4215 3.1091 3.7727 4.6982 1.3596 1.5994 6.9506 5.4529 9.5136 8.4543 2.627 3.0764 4.3312 6.1409 7.737 12.027"/>
   <path d="m31.191 33.09c0.0924 0.3006 0.32262 0.90448 0.68128 1.6788-0.94418-0.60388-1.3622-0.93118-1.6999-1.1897-0.69763-0.53215-0.79472-0.41704-0.51013 0.43506 0.39502 1.1844 1.0012 2.0962 2.1156 3.0781 0.36467 0.32095 0.5535 0.03102 0.30828-0.24655-0.54682-0.61989-1.075-1.4203-1.4907-2.1997 0.57218 0.40037 1.2171 0.82475 1.6165 0.99523 0.65292 0.28125 0.79137 0.12478 0.43506-0.53215-0.24556-0.45374-0.45341-0.90682-0.73667-1.6812 0.60422 0.37768 1.5571 0.97689 2.1913 1.1043 0.73432 0.14612 0.75201-0.10443 0.07537-0.42439-1.0389-0.49044-1.6248-0.83074-2.4048-1.4149-0.72698-0.54549-0.83041-0.41571-0.58118 0.39703"/>
   <path d="m13.449 12.018c0.52114 9.8956 5.1296 20.093 17.725 24.414 0.20118 0.06904-0.13546-0.55984-0.23688-0.5962-11.134-3.9723-15.848-14.126-16.628-22.754 1.3532 1.445 4.2422 4.4313 6.5489 6.1399 3.5729 2.646 8.5063 7.7827 11.771 14.337 0.06138 0.12211 0.69597 0.38301 0.60355 0.19117-3.3223-6.8555-7.9408-12.388-11.654-15.139-2.993-2.2177-7.4164-6.8245-7.4584-6.8709-0.60521-0.67027-0.71965-0.66459-0.67094 0.27858"/>
   <path d="m59.072 21.056c-2.1876 3.3006-2.9467 6.4598-1.6955 10.091 0.25657 0.74367 0.70563 0.61622 0.53248-0.10943-0.20618-0.86845-0.34698-1.8533-0.34698-2.7318 0-2.2871 0.75702-4.5648 2.2644-6.7995 5.7048-8.4586 8.6148-13.748 11.43-19.67 1.7239 4.3392 2.0328 13.416 0.17582 20.03-1.6004 5.7018-5.5 11.465-10.176 15.041-0.09909 0.07604 0.09542 0.54883 0.27191 0.43038 5.2324-3.5138 9.1796-9.2183 10.823-15.073 3.0054-10.702-0.1191-21.534-1.0576-21.533-0.8124 0.0010403-4.7226 9.0098-12.221 20.324"/>
   <path d="m70.254 7.1917c-1.2084 2.0018-7.6646 12.187-8.3485 13.486-2.0602 3.9142-2.7011 8.1223-2.588 11.107 0.0076 0.2132 0.55516-0.42538 0.57952-0.64225 0.28059-2.4936 1.0019-6.632 2.8409-10.126 0.67094-1.2752 7.0137-11.522 7.9418-13.3 0.31962 5.6307-0.32263 12.309-1.6732 15.815-2.1216 5.5066-4.4417 9.0932-7.5541 11.048-0.1171 0.07272-0.0297 0.67961 0.15081 0.56617 3.2586-2.0458 6.0518-5.6274 8.2358-11.295 2.1616-5.6124 1.5574-13.47 1.3596-16.472-0.08776-1.3312-0.20252-1.4176-0.94452-0.1885"/>
   <path d="m38.163 38.197c-1.6381 0-3.4001 1.7526-3.4001 5.7415 0 2.8973 1.3539 4.5521 3.4942 4.5521 1.9421 0 2.7765-1.6885 2.7765-4.7596 0-3.7097-1.2885-5.534-2.8706-5.534"/>
   <path d="m56.447 37.895c-1.6585 0-3.0601 1.9988-3.0601 5.6661 0 2.932 1.1207 4.7036 3.0034 4.7036 1.9514 0 3.1165-1.5571 3.1165-4.8163 0-3.295-1.2331-5.5533-3.0598-5.5533"/>
   <path d="m39.076 36.761c0.77069 0.41036 1.8533 1.8236 2.1366 3.1271 0.18283 0.84209 0.5128 0.77404 0.42538-0.08541-0.14212-1.3879-1.1337-3.0317-2.3518-3.5979-0.68361-0.3173-0.87512 0.20218-0.21019 0.55617"/>
   <path d="m54.161 36.941c-0.61056 0.5218-1.1053 1.6995-1.1897 2.55-0.0681 0.67494 0.31962 0.75234 0.45307 0.08474 0.16982-0.84977 0.65526-1.8487 1.0766-2.2097 0.76068-0.64891 0.4187-1.0756-0.33997-0.42505"/>
   <path d="m46.707 47.673c0 0.3303 0.79271 0.89147 1.1894 0.89147 0.52848 0 1.14-0.61055 1.14-0.94151 0-0.41572-2.3294-0.366-2.3294 0.05003"/>
   <path d="m44.056 51.033c-0.85477 0-1.1874-0.12812-1.4753-0.4404-0.60288-0.65525-1.0132-0.35164-0.48978 0.34598 0.4534 0.60388 1.2848 0.86611 1.9651 0.86611 0.8491 0 3.0594-1.0576 4.0039-1.0576 0.96353 0 2.8853 1.0953 3.7023 1.0953 0.80706 0 1.2778-0.34064 1.5491-0.92317 0.21353-0.45875-0.11978-0.61088-0.45374-0.22653-0.24555 0.28359-0.59153 0.37834-1.0953 0.37834-0.78871 0-2.4178-1.0957-3.7023-1.0957-1.1143 0-3.0788 1.0576-4.0039 1.0576"/>
   <path d="m51.792 51.381c0 1.442-2.2974 4.1481-4.3366 4.1481-1.4737 0-3.3163-2.98-3.3163-4.1104 0-0.21253-0.65059-0.20219-0.65059 0.01068 0 1.494 1.9741 4.8707 3.9669 4.8707 2.5333 0 4.9488-3.1452 4.9488-4.9084 0-0.21253-0.61222-0.22386-0.61222-0.01068"/>
   <path d="m44.264 52.846c-0.09908 0.09575 0.13712 0.70597 0.2589 0.53148 1.122-1.6025 5.7982-1.2591 6.5172 0.17816 0.09508 0.19051 0.42104-0.32496 0.34464-0.42638-1.2274-1.6435-5.2888-2.0585-7.1208-0.28326"/>
   <path d="m33.773 57.077c-4.6846 0.09908-8.4356 4.6629-8.4356 10.85 0 5.873 2.5673 8.4019 4.7099 10.847 1.1033 1.2588 2.1276 2.4616 3.1285 4.1421 0.49544 0.83041 0.5972 0.86478 1.1147-0.13146 0.34264-0.6606 0.47242-1.436 0.32128-2.5503 0.74868 0.85711 1.9311 2.8873 2.4188 5.9854 0.24556 1.5691 0.43439 1.6602 1.4343 0.30461 0.26891-0.36333 0.55584-0.84609 0.92517-1.5491 0.08171 0.82475 0.17015 2.0025 0.47242 2.9283 0.51146 1.5664 0.68529 1.5054 1.096 0 0.35766-1.3152 1.1847-3.1231 2.0649-3.9833 0.14512 0.50712 0.27758 1.5464 0.27758 2.6797 0 0.6369 0.14379 0.80739 0.79338 0.24555 1.114-0.96386 2.0735-1.8447 2.8663-2.7995 0.90181-1.0866 1.7536-2.1119 2.4058-2.4385 1.7045-0.8521 3.658-2.915 4.1154-5.0852 0.23855-1.1357-0.16982-1.2745-0.50913-0.09976-0.42138 1.461-2.1423 3.5902-3.9509 4.4951-0.79738 0.39935-1.6578 1.4353-2.6544 2.6354-0.76202 0.91817-1.6065 1.9261-2.5246 2.7778 0.02468-1.3742-0.1528-3.1302-0.16548-3.1875-0.02639-0.11711-0.10509-0.21552-0.21353-0.26557-0.10843-0.05069-0.23421-0.04842-0.34097 0.0066-1.1093 0.57685-2.213 2.5533-2.6744 4.8861-0.22353-0.90448-0.45975-2.0355-0.52915-2.9467-0.12144-1.6004-0.33296-1.7155-1.0389-0.1508-0.29226 0.64725-0.62323 1.2461-1.152 1.7756-0.56617-3.6446-1.9718-5.6264-2.7955-6.5739-0.91316-1.0496-1.161-1.0566-0.86879 0.26457 0.1131 1.096 0.01873 1.6999-0.37033 2.4806-0.84243-1.7693-1.9621-3.0945-3.0661-4.3546-2.1433-2.4452-4.1678-4.7553-4.1678-10.339 0-5.7505 3.0821-9.9883 7.3293-10.078 0.21019-0.0048 0.19618-0.7757-0.01598-0.77169"/>
   <path d="m49.307 83.729c0.5098-0.32062 0.8501-0.60421 1.4353-1.133-0.0837 0.18517-0.24522 0.51013-0.68028 1.0763-0.44573 0.58252-0.2906 0.75334 0.32563 0.52047 0.07576-0.02865 7.8664-2.9173 9.5536-10.739 1.4139-6.5549 0.15514-11.027-3.3423-13.582-0.17248-0.12577-0.78437 0.45408-0.68095 0.52948 3.5799 2.6164 4.1537 7.6085 3.0234 12.847-1.2328 5.7121-6.1555 9.222-8.1991 10.292 0.39669-0.6616 0.54816-0.9632 0.67994-1.3415 0.1745-0.49878 0.07471-0.82174-0.62356-0.22653-0.50979 0.43506-0.98188 0.75601-1.7749 1.2091 0.32062-0.79304 0.5098-1.4143 0.65026-1.8387l-0.732-0.24221c-0.14046 0.42238-0.31528 1.1173-0.56084 1.9491-0.31528 1.066-0.32563 1.467 0.92584 0.67927"/>
   <path d="m17.989 64.859c0.57986-0.52547 0.78538-0.62689 1.3789-0.94384-1.4633 2.4495-1.511 4.7973-0.92584 6.7057 0.25156 0.81873 0.49812 0.8234 0.92584 0.05608 0.58586-0.88813 1.2258-1.4697 1.87-1.8887 1.3192 5.54 4.8847 7.6455 7.819 8.2548 0.44073 0.09069 0.12445-0.72366-0.51079-0.93084-3.0154-0.98122-5.5707-3.4101-6.5526-8.2241-0.06904-0.34197-0.17349-0.38368-0.48476-0.29359-1.0606 0.30728-2.0045 1.7332-2.5536 2.7288-0.08578-0.47744-0.13912-0.94652-0.13912-1.3966 0-2.1192 0.63123-3.9923 1.2505-5.0115 0.98122-1.6155 0.67661-1.6231-0.64192-0.86979-0.92584 0.52948-1.3889 0.90616-1.8547 1.3976 0.0697-3.7864 1.1287-5.4676 2.5536-6.2333 0.7797-0.41737 0.80106-0.55049 0.09438-0.86845-0.47777-0.21486-1.2278-0.24555-1.7002-0.13212 2.2394-4.02 8.5414-6.992 11.682-6.0998 0.20486 0.05806 0.33864-0.48077 0.13345-0.53948-4.0627-1.154-10.105 1.0873-12.602 6.7761-0.21653 0.49211-0.15114 0.68095 0.4484 0.52848 0.38735-0.09876 0.92184-0.15014 1.525-0.07075-1.7546 1.0336-3.2262 3.3914-2.6978 6.715 0.18016 1.1327 0.17949 1.068 0.98255 0.3403"/>
   <path d="m61.691 55.302c3.291 1.9417 4.0126 5.3772 3.1055 8.3262-0.42471-2.245-1.8326-2.998-1.9061-3.0354-0.58052-0.28893-0.74199-0.18617-0.54015 0.46008 1.2885 4.1387-0.68896 9.7998-2.7908 11.887-0.17783 0.17683-0.27358 1.2058-0.09842 1.0856 3.5369-2.4322 4.5334-8.2101 3.8982-11.964 0.6299 0.88614 0.73766 1.834 0.78704 3.2423 0 0.0057-6.71e-4 0.01097-6.71e-4 0.01703 0 0.94919 0.32196 0.92217 0.72399 0.1845 2.2153-4.045 1.7132-8.4636-2.945-10.77-0.1905-0.0941-0.35532 0.49478-0.23354 0.56718"/>
   <path d="m21.068 46.575c0.47242 0 0.86878 0.01901 1.3222 0.07604-1.0473 0.58186-2.7949 1.7526-3.3013 3.5512-0.30861 1.101-0.23254 1.2048 1.091 0.71497 0.31862-0.1181 0.73232-0.22287 1.1697-0.20752-0.79137 0.87112-1.1314 2.1486-1.1314 3.3647 0 0.14713 0.92517-0.53815 0.93218-0.69863 0.06403-1.5114 1.1797-2.6541 1.1921-2.6661 0.35932-0.36332 0.367-0.46675-0.15147-0.63857-0.86178-0.28727-1.6945-0.09842-2.2777 0.12411 0.52647-1.5994 2.0945-2.5753 2.9396-3 1.4747-0.739 1.5067-0.97154-0.25657-1.1971-0.34898-0.04502-0.73499-0.05543-1.101-0.04908 2.6757-1.6498 6.297-2.3882 8.9888-0.7727 0.18283 0.10943 0.57919-0.55183 0.39669-0.66193-3.1809-1.9077-6.7811-1.453-10.002 1.1917-0.83041 0.68162-0.65558 0.86879 0.18918 0.86879"/>
   <path d="m17.101 63.008c-1.8767 3.3774-3.0941 9.0031-2.2103 12.467 0.19818 0.77504 0.64758 0.65026 0.44974-0.12478-0.59787-2.3414 0.39669-7.8581 1.9341-11.15 0.12077-0.25856-0.07036-1.3779-0.1735-1.1917"/>
   <path d="m25.401 75.187c-0.75368 2.6174-4.6118 4.3469-6.7564 3.0274-0.94852-0.58486-1.1884-0.17916-0.23988 0.4047 2.8099 1.7296 6.8298-0.0697 7.737-3.2186 0.05902-0.20485-0.68195-0.4177-0.74067-0.21352"/>
   <path d="m14.95 69.574c-0.67794 0.37634-1.838 2.6074-2.1756 4.5791-0.21186 1.2341-0.68262 5.3952-0.68262 5.3952-0.35164 2.5553 0.98856 3.8782 1.9781 3.5479 0.20219-0.06743 0.07075-0.72665-0.13112-0.65926-0.60454 0.20086-1.3242-1.0343-1.0826-2.7832 0 0 0.47009-4.1601 0.67761-5.3708 0.27825-1.6231 1.0493-3.1071 1.5104-3.7344 0.11844-0.16114 0.09211-1.0783-0.0941-0.97454"/>
   <path d="m13.871 81.425c-0.44907 1.865 0.21753 2.589 1.1143 2.909 1.077 0.38468 1.9144-0.65459 2.4182-1.9451 0.27258-0.69929-0.15714-0.85911-0.43473-0.15181-0.42705 1.0943-1.2835 1.7045-1.7589 1.5341-0.5535-0.19818-1.164-0.8788-0.82875-2.2704 0.17649-0.73766-0.33163-0.81273-0.51013-0.07576"/>
   <path d="m20.231 79.085c-0.33296 1.3756-1.3219 3.362-2.4008 4.3059-0.22788 0.19952-0.82241 0.13246-1.1994 0.02506-0.0697-0.01967-0.60488 0.47777-0.4077 0.55917 0.68462 0.28525 1.5447 0.35231 2.0118-0.05674 1.2391-1.0836 2.3892-3.1799 2.7451-4.6512 0.05003-0.20752-0.69929-0.38835-0.74901-0.18217"/>
   <path d="m26.508 75.702c0.11544 3.7767 0.33997 8.8963 1.133 12.863 0.56484 2.8242 2.9583 9.5062 3.7117 10.426 0.63191 0.77137 2.1016 1.3696 2.947 0.93485 0.50378-0.25924 0.87812-1.1897 0.33997-2.6914-0.29861-0.83075-0.71098-0.73866-0.4821 0.11343 0.25256 0.93184 0.05069 1.6028-0.29861 1.7826-0.42772 0.2202-1.3659-0.13812-1.8203-0.69596-0.56251-0.68796-2.7715-6.9379-3.319-9.95-0.43706-2.4042-1.0846-8.6018-1.2241-12.384-0.0038-0.10009-0.99423-0.61255-0.98755-0.39902"/>
   <path d="m37.19 96.895c0.65658 0.75568 0.49911 1.9254 0.02904 2.2647-0.51913 0.375-2.1843 0.20919-2.6194-0.16749-0.16081-0.13979-0.66593 0.44274-0.50478 0.58252 0.69362 0.60122 2.7902 0.90382 3.6333 0.29527 0.75568-0.54616 0.9285-1.9057-0.19818-3.2022-0.39469-0.45241-0.73466-0.22554-0.33997 0.2272"/>
   <path d="m38.06 86.45s-0.13178 4.6011-0.05541 6.0868c0.12044 2.3454 1.2311 4.3833 1.3269 4.9581 0.13345 0.80339-0.46975 1.5808-1.3165 1.487-0.11076-0.01305-0.62323 0.71598-0.41404 0.75501 1.9397 0.36333 2.969-0.86845 2.7341-2.2757-0.1111-0.66627-1.494-3.4404-1.5597-4.9575-0.06403-1.4593 0.25656-7.3396 0.25656-7.3396 0.0048-0.21252-0.97188 1.2858-0.97188 1.2858"/>
   <path d="m51.245 96.006c-0.45641-0.35699-2.8492-4.3125-3.6146-6.4488-0.47376-1.3202-0.97588-3.2099-1.3772-5.183-0.04274-0.20886-0.92984 0.80339-0.8898 0.99089 0.24356 1.1387 0.76403 2.9467 1.3559 4.5965 0.64092 1.7876 3.4101 6.0728 4.1257 6.7037 1.1917 1.0506 2.6534 0.9542 3.652 0.20586 0.17049-0.12779-0.29226-0.74467-0.46309-0.61722-0.59087 0.44373-1.7989 0.5268-2.7888-0.2479"/>
   <path d="m56.003 93.806c1.0439 0.83542 1.084 1.9418 0.67828 2.253-0.58219 0.44674-1.7859 0.43706-1.9905 0.34731-0.1141-0.0574-0.78238-0.91949-1.2611-1.4987-0.59187-0.71698-0.87846-0.42171-0.45808 0.28659 0.45307 0.76535 1.14 1.7843 1.3766 1.9027 0.4384 0.2192 1.9431 0.20086 2.7672-0.39969 0.76302-0.55684 0.79772-2.2217-0.88546-3.2313-0.43106-0.25756-0.61856 0.02733-0.22687 0.33997"/>
   <path d="m56.602 87.71c-0.3253-1.7736-0.75535-6.1579-0.91082-7.3056-0.03471-0.20952-0.94152 0.70798-0.94152 0.70798 0.13546 1.1607 0.82908 5.4506 1.0883 6.699 0.53282 2.5666 2.3828 6.0361 2.4522 6.4094 0.13745 0.74033-0.25156 1.1257-0.97455 1.1257-0.21286 0-0.21286 0.77136 0 0.77136 1.4156 0 2.0562-0.99923 1.832-1.9998-0.11511-0.51246-2.2384-4.7323-2.5456-6.4081"/>
  </g>
  <path d="m23.844 22.128c-1.9154-2.3578-6.9736-5.1813-8.5147-6.8292 0.09508 1.4273 1.2631 5.7609 2.3118 8.6425 0.59787 1.6425 1.7763 3.8568 4.1948 5.3298-1.2101-1.2401-1.5938-2.2514-1.7276-2.7585 1.3375 1.5557 2.6601 2.6644 3.6763 3.335-0.25657-0.69529-0.82842-2.0842-1.0743-2.4602 1.0993 1.4356 2.6577 2.6007 3.5465 2.9553-0.45474-1.3929-1.2101-3.0317-2.0612-4.0276 0.83475 0.48477 1.498 1.1027 1.807 1.6044 0.02932-0.89648-0.75969-2.4108-1.4316-3.2846 0.65326 0.29861 1.5024 1.2304 1.8153 1.8603-0.43873-1.4967-1.3923-2.9513-2.5423-4.3673" fill="#543923"/>
  <path d="m69.713 21.298c0.95552-2.9513 0.61622-8.1487 0.2986-10.583-0.17649 0.39669-4.9221 6.4952-5.6701 7.5528-1.4733 2.0839-2.537 5.1049-2.1569 6.4675 0.3403-1.3032 1.2748-2.9236 2.0595-3.3814-0.84042 1.7866-0.99489 3.7928-0.9285 4.9441 0.66327-1.4223 1.2605-2.235 1.7909-2.6417-0.33163 0.94852-0.5972 2.8449-1.3269 3.6576 1.5921-0.54182 3.2469-2.5787 3.5786-3.5946 0 1.1514-0.26524 2.235-0.9285 3.0477 0.57252-0.06043 2.2964-2.4212 3.2833-5.4693" fill="#543923"/>
  <path d="m40.368 45.782c-0.26324 1.6408-1.0563 2.2357-2.2874 2.2357-1.2605 0-2.2187-0.80706-2.5626-2.2183-0.14647-0.60153 0.92216-2.1773 2.3615-2.1773 1.4393 0 2.6137 1.3806 2.4886 2.1599" fill="#5d2b0e"/>
  <path d="m54.092 45.404c0.25389 1.2688 1.0813 2.4766 2.2874 2.4766 1.0753 0 2.0552-0.62256 2.4592-2.3731 0.13579-0.58886-0.79872-2.3985-2.3982-2.3985-1.6315 0-2.4806 1.6338-2.3484 2.2951" fill="#5d2b0e"/>
  <path d="m38.173 39.718c0.81073 0.0227 1.6195 1.5437 1.5587 3.692-0.06072 2.1483-0.83276 3.4288-1.6375 3.4057-1.0259-0.02865-1.816-1.6138-1.7676-3.3293 0.07509-2.6667 1.108-3.7891 1.8463-3.7684" fill="#0f141b"/>
  <path d="m56.386 39.586c0.81073-0.0085 1.6548 1.4843 1.6778 3.6336 0.02298 2.1486-0.67494 3.4534-1.48 3.4625-1.0263 0.01097-1.7689-1.5514-1.7876-3.2676-0.02865-2.6677 0.85144-3.8204 1.5898-3.8284" fill="#0f141b"/>
  <path d="m39.825 41.294c0 1.0439-0.52447 1.889-1.1711 1.889-0.64658 0-1.1711-0.8451-1.1711-1.889 0-1.0436 0.52448-1.889 1.1711-1.889 0.64659 0 1.1711 0.84542 1.1711 1.889" fill="#fff"/>
  <path d="m57.618 40.69c0 1.0436-0.52414 1.8887-1.1711 1.8887-0.64659 0-1.1714-0.84509-1.1714-1.8887 0-1.0433 0.52481-1.889 1.1714-1.889 0.64691 0 1.1711 0.84576 1.1711 1.889" fill="#fff"/>
 </g>
</svg>
