<?xml version="1.0" encoding="UTF-8"?>
<!-- Created with Inkscape (http://www.inkscape.org/) -->
<svg version="1.1" viewBox="0 0 180.11 219.75" xmlns="http://www.w3.org/2000/svg">
 <path d="m20.993 184.76c-12.07 9.4589-10.78 22.409 1.1999 27.6 14.8 6.4142 38.965 4.448 46.87-8.5404" fill="#fef5d6"/>
 <path d="m20.993 184.76c-1.9134 1.4985-1.5712 1.0532-2.8239 2.6825 6.4949 8.8933 20.702 15.604 27.7 18.229 4.2339 1.5884 3.7859 4.2603-0.57614 4.8999-7.844 1.1497-23.243-1.2699-32.612-9.3809 0.67129 4.6488 3.9313 8.7506 9.5117 11.169 14.8 6.4142 38.965 4.448 46.87-8.5404z" fill="#dcd3bb"/>
 <path d="m115.02 202.41c10.589 17.082 29.115 14.821 47.011 8.4704 14.837-5.2646 10.941-21.74-3.1054-30.988" fill="#fef5d6"/>
 <path d="m132.66 209.05c-2.5411-0.2828-4.3766-2.6825-1.8355-3.6709 14.318-5.5672 24.221-12.617 31.676-22.786-1.1061-0.94881-2.3006-1.8527-3.5824-2.6957l-43.905 22.517c10.587 17.082 29.115 14.82 47.011 8.4704 6.2094-2.2041 9.1351-6.3719 9.4112-11.15-9.7575 8.5457-26.837 10.642-38.776 9.3148" fill="#dcd3bb"/>
 <path d="m123.91 71.398c5.9345-2.2504 11.011-12.251 11.011-22.87 0-20.926-21.185-39.527-48.141-39.527-21.59 0-46.023 17.942-46.023 39.798 0 10.22 4.8801 18.258 11.153 22.316 14.678 9.4985 46.702 9.8791 72 0.28281" fill="#007a96"/>
 <path d="m127.16 64.763c19.082 5.3003 45.835 36.284 45.835 74.164 0 48.242-31.153 67.488-86.212 67.488-65.426 0-86.21-34.949-86.21-62.97 0-36.679 22.801-67.393 46.87-78.965 21.18-10.182 62.839-4.4057 79.717 0.28281" fill="#007a96"/>
 <path d="m87.72 185.52c-34.302 0-67.051-12.272-84.652-25.357 7.1979 23.506 30.924 46.257 83.712 46.257 48.56 0 78.52-14.977 84.915-51.61-15.648 17.594-46.228 30.71-83.975 30.71" fill="#00657c"/>
 <path d="m45.652 36.528c-1.7879-11.012-0.41229-31.358 1.8817-32.47 3.1067-1.5064 17.694 4.1414 25.506 10.071" fill="#007a96"/>
 <path d="m100.52 13.281c11.952-9.2236 23.792-13.615 25.788-12.518 3.7819 2.0799 4.1414 18.635 1.7879 31.153" fill="#007a96"/>
 <path d="m85.65 29.94c-3.7648-2.4473-12.326-8.3713-14.545-9.702-10.113 2.9283-21.735 14.123-21.735 29.099 0 10.353 6.0905 20.599 11.445 24.041-20.584 10.364-41.377 36.51-41.377 65.023 0 32.153 19.889 57.751 67.342 57.751 41.353 0 69.176-22.653 69.176-60.518 0-19.662-10.79-45.122-38.894-62.258 6.4803-6.3191 9.176-13.995 9.176-23.436 0-11.109-8.4704-24.976-27.105-30.565-3.9537 3.1767-12.777 9.8592-13.483 10.565" fill="#fef5d6"/>
 <path d="m31.317 175.01c10.59 12.942 28.613 21.139 55.463 21.139 23.726 0 42.996-7.4595 55.114-20.969-15.078 6.4195-33.555 10.334-54.174 10.334-20.28 0-40.017-4.292-56.404-10.504" fill="#dcd3bb"/>
 <g>
  <path d="m67.457 47.928c0.46514 11.479 9.4165 20.293 19.325 20.293 11.089 0 17.048-7.2414 17.272-20.813-7.519 1.1576-27.983 1.8064-36.597 0.51932" fill="#923000"/>
  <path d="m71.697 60.153c3.6313 4.9461 9.1879 8.0687 15.084 8.0687 7.9339 0 13.239-3.708 15.7-10.787-9.9187-7.8599-22.213-6.2795-30.784 2.7182" fill="#ed8599"/>
  <path d="m101.67 59.436c0.29854-0.63428 0.57086-1.3003 0.81531-2.0006-9.9187-7.8586-22.213-6.2781-30.784 2.7182 0.39378 0.53782 0.81268 1.0519 1.2501 1.5434 10.671-6.1169 20.403-5.9596 28.719-2.261" fill="#ce7486"/>
 </g>
 <path d="m74.708 63.477c0.03559-1.4827-0.0041-6.7221-0.63957-6.8992-0.63561-0.17568-2.2385 1.591-3.0155 2.6508 1.0003 2.775 3.6551 4.2484 3.6551 4.2484" fill="#fff"/>
 <path d="m100.38 61.741c-0.63562-1.447-1.1589-6.2015-0.59333-6.6244 0.56426-0.42417 2.3337 0.96335 2.9692 1.5989-0.20864 2.2782-2.3759 5.0254-2.3759 5.0254" fill="#fff"/>
 <path d="m47.534 4.057c-0.56425 2.3297 0.63561 20.612 1.4113 23.436-1.1999 1.6227-3.4582 4.8695-3.4582 4.8695-0.777-4.0938-0.86686-9.106-0.42418-15.317 0.63561-8.8946 2.4711-12.988 2.4711-12.988" fill="#00657c"/>
 <path d="m126.31 0.763c0.21126 2.1645 0.42286 18.118-0.98844 24.54 1.4113 1.554 3.0353 3.6009 3.0353 3.6009 0.9184-4.0938 1.5012-9.8037 1.1298-16.024-0.56558-9.4588-3.1767-12.118-3.1767-12.118" fill="#00657c"/>
 <g fill="#0f141b">
  <path d="m124.37 70.304c5.4404-2.8437 9.7469-12.33 9.7469-21.776 0-7.7753-3.0974-15.61-8.7413-22.147-1.3505-1.5646-0.75455-2.2861 0.67391-0.79419 6.3046 6.5887 9.587 14.77 9.587 22.941 0 10.187-4.0938 19.482-10.776 22.729-2.6455 1.2858-3.071 0.39642-0.49025-0.95274"/>
  <path d="m67.465 13.234c6.4935-3.5758 13.054-4.8352 19.376-4.8352 6.4816 0 12.895 1.0122 18.423 3.5296 1.8275 0.83119 1.6082 1.5712-0.27494 0.91311-5.7773-2.0165-11.901-3.0393-18.209-3.0393-6.1381 0-12.658 1.48-18.891 4.2854-1.8751 0.84307-2.2702 0.16257-0.42418-0.85363"/>
  <path d="m51.054 70.798c-7.0591-4.518-11.047-12.6-11.047-21.917 0-6.8992 2.6085-13.611 7.2005-19.87 2.6085-3.5573 3.6445-2.9336 1.0585 0.59731-4.3911 5.9953-6.7076 12.614-6.7076 19.192 0 8.7611 3.8163 16.761 10.018 21.128 2.3508 1.6544 1.8923 2.4143-0.52197 0.86951"/>
  <path d="m86.78 206.79c-41.958 0-86.781-16.424-86.781-64.189 0-32.476 18.394-62.693 45.69-77.834 0.38586-0.21426 0.64222 1.1444 0.25636 1.3584-26.959 14.955-44.211 44.657-44.211 76.475 0 37.912 31.368 63.018 85.046 63.018 58.023 0 85.046-21.191 85.046-66.688 0-33.373-20.897-63.167-41.965-72.598-0.40305-0.18093-0.1547-1.4642 0.24985-1.2831 21.36 9.5619 43.506 39.693 43.506 73.881 0 48.721-30.458 67.858-86.837 67.858"/>
  <path d="m44.736 32.787c-1.2065-9.8566-0.25767-27.691 2.5411-29.046 3.5296-1.7112 15.245 2.627 23.083 8.5761 0.35151 0.26708-1.484 0.629-1.632 0.51932-6.4526-4.7598-18.664-9.3452-20.844-8.0581-1.5633 0.92232-2.3614 18.741-1.669 25.967 0.04229 0.43871-1.4285 2.4473-1.4787 2.0416"/>
  <path d="m127.65 27.761c1.558-7.811 1.2289-24.67-1.7285-26.297-1.1694-0.64356-9.9808 2.0733-21.83 10.231-0.1296 0.0884-1.8038-0.43343-1.4404-0.68451 10.336-7.1793 21.275-12.203 23.893-10.764 3.8745 2.1301 4.3119 20.657 2.2954 29.399-0.0858 0.37009-1.2369-1.6491-1.1893-1.8844"/>
  <path d="m70.993 21.107c-10.367 3.1807-21.234 14.055-21.234 28.23 0 8.884 3.9947 17.616 10.467 22.643 1.4298 1.11 1.669 1.7152-0.15066 2.6825-21.709 11.541-39.597 37.677-39.597 63.738 0 36.058 23.983 56.95 66.302 56.95 41.073 0 68.094-22.614 68.094-59.717 0-20.74-12.316-45.443-37.419-61.077-1.369-0.85367-1.2898-1.3809-0.23786-2.4711 5.6042-5.8103 8.5417-12.876 8.5417-22.146 0-13.291-10.976-24.893-26.454-29.675-1.55 1.2369-9.4443 7.3458-12.169 9.4998-1.3016 1.0281-1.7126 0.99237-3.1172 0.0528-3.3789-2.257-11.807-7.9497-13.025-8.7096m15.787 175.44c-43.364 0-67.844-21.434-67.844-58.15 0-27.741 19.064-53.124 41.011-64.814-5.3452-4.2114-11.66-14.314-11.66-24.211 0-14.737 11.674-26.267 21.648-29.609 1.1087-0.37121 1.5263-0.26707 2.6812 0.4916 3.1754 2.0878 11.576 7.766 12.97 8.6831 0.90783-0.74661 10.476-8.1467 12.299-9.5923 1.0003-0.79418 1.3056-0.80606 2.4301-0.4453 15.288 4.9065 26.984 16.809 26.984 31.037 0 9.7284-3.4701 17.237-9.3981 23.364 24.112 15.034 38.471 39.905 38.471 62.329 0 39.708-29.796 60.917-69.591 60.917"/>
  <path d="m75.392 38.735c-4.8946-3.8639-9.2236-3.9736-16.492-0.46119-2.512 1.2144-2.7592 0.70302-0.43475-0.93424 3.5679-2.5134 6.6917-3.1371 9.398-3.1067 2.9732 0.0375 5.4443 1.0558 8.0132 3.5176 1.5606 1.4959 1.2012 2.3152-0.48498 0.98447"/>
  <path d="m97.57 37.622c4.6898-3.8533 11.24-4.2299 17.047-0.56423 2.4195 1.5262 2.072 2.3204-0.44796 1.0188-5.9386-3.0684-11.314-2.96-15.992 0.31989-1.7073 1.1972-2.1923 0.52988-0.60656-0.77437"/>
  <path d="m81.512 49.434c-6.2451 0-12.061-0.51801-15.273-1.2236-3.104-0.6832-3.0486-1.735 0.03832-1.1179 7.8176 1.5619 31.86 0.88404 38.599-0.43609 3.6485-0.71357 3.963 0.46781 0.22212 1.1655-4.3 0.80212-14.419 1.6122-23.586 1.6122"/>
  <path d="m86.78 68.564c-10.803 0-20.259-9.254-20.259-20.707 0-0.44137 1.6491-0.40698 1.6491 0.0375 0 10.586 8.6739 19.528 18.61 19.528 7.396 0 16.507-3.449 16.507-19.881 0-0.44268 1.6333-0.58408 1.6333-0.14122 0 13.853-6.6548 21.165-18.141 21.165"/>
  <path d="m74.067 62.792c-0.01723-2.0442-0.09117-4.2907-0.23786-5.4403-0.57747 0.53648-1.6386 1.5765-2.4513 2.6019-0.09645 0.12174-0.90915-0.75324-0.78757-0.91311 2.0258-2.664 3.2283-3.4146 3.7225-3.2772 0.79814 0.22212 0.9554 4.7215 0.96861 7.6088 0.0052 0.962-1.2091 0.0502-1.2144-0.58011"/>
  <path d="m99.88 62.357c-0.73076-2.734-1.3228-7.1688-0.4744-7.8057 0.72942-0.54707 3.3459 1.5223 3.7648 1.883 0.20227 0.17306-0.23111 1.513-0.54441 1.2012-0.54577-0.54577-1.7919-1.5012-2.5319-1.9002 0.015 1.0743 0.31052 3.2917 0.65544 5.1312 0.11499 0.61315-0.70039 2.1249-0.86952 1.4906"/>
  <path d="m74.183 57.469c2.8226-3.2137 7.334-4.8946 12.188-5.4588 4.884-0.56824 10.089 0.93162 13.036 3.1053 0.19291 0.14272 0.45324 1.8394 0.10563 1.5659-6.1407-4.8365-19.203-4.3184-25.058 2.294-0.15856 0.1783-0.46514-1.2858-0.2709-1.5064"/>
  <path d="m21.734 213.32c-13.078-5.6676-12.31-19.954-2.5107-27.767 0.34488-0.27494 1.3439 0.97653 0.99768 1.2527-11.169 8.9025-7.811 20.451 2.29 24.827 16.04 6.9494 38.188 3.1715 44.834-6.4948 0.25108-0.36484 1.7919 0.37121 1.5421 0.7347-7.5427 10.972-32.022 14.005-47.153 7.4476"/>
  <path d="m115.83 204.83c-0.24722-0.36746 1.4602-0.69769 1.5276-0.60124 8.7215 12.642 24.408 12.988 44.398 5.8936 13.876-4.9224 10.077-19.852-1.8302-27.996-0.36484-0.24985 0.53782-1.5712 0.90386-1.3214 13.639 9.328 16.334 25.987 1.5038 31.251-18.105 6.4235-36.592 7.5137-46.503-7.2256"/>
 </g>
 <g fill="#fff">
  <path d="m12.687 198.01c-4.2682 0.12174-8.4189 9.9412-7.0591 11.482 0.81929 0.92896 8.9646-1.295 9.624-2.4936 0.99504-1.8103 0.39907-9.073-2.5649-8.9884"/>
  <path d="m22.64 202.95c-5.3505 0-8.3224 11.56-6.9177 12.965 0.97522 0.97522 10.109-1.0003 11.105-2.2821 1.513-1.9452 0.76775-10.682-4.1876-10.682"/>
  <path d="m38.64 205.94c-4.6144 0-9.3373 10.097-8.1876 11.6 1.4232 1.8619 10.154-0.20602 11.482-1.7879 2.3931-2.8503 0.6475-9.8117-3.2943-9.8117"/>
  <path d="m142.16 205.45c-3.0723 0-5.4972 6.8133-3.1054 10.059 1.7456 2.3693 11.707 4.5219 12.67 3.2824 1.1734-1.5091-4.0687-13.341-9.5645-13.341"/>
  <path d="m157.72 202.62c-3.5309 0-4.9303 8.1282-2.6468 10.412 1.9385 1.9385 10.454 3.8533 11.753 2.0826 1.7522-2.3892-4.0568-12.494-9.106-12.494"/>
  <path d="m171.27 196.48c-2.3099 0-4.0594 2.8979-4.0594 5.365 0 2.6469 0.9884 4.3409 1.9068 4.9409 0.91708 0.59992 9.106 2.0469 9.9874 0.91708 1.6002-2.0469-3.4807-11.223-7.8348-11.223"/>
 </g>
 <g fill="#dbdcdc">
  <path d="m15.502 203.77c-1.0981 0.96863-8.1189 4.7902-9.8738 5.7218 1.217 0.47969 3.1556-0.0374 5.1576-0.5537 2.0033-0.51666 3.8929-1.4258 4.4664-1.9398 0.57218-0.51538 0.24973-3.2283 0.24973-3.2283"/>
  <path d="m27.24 208.69c-0.74132 1.624-8.5999 5.7998-11.611 6.812 0.77568 1.5884 10.011-0.35285 11.199-1.8711 1.1893-1.517 0.41229-4.9408 0.41229-4.9408"/>
  <path d="m30.452 217.54c3.9418-1.0836 10.975-4.4942 12.247-6.8001 0.3885 0.95274 0.65807 3.918-0.76511 5.0122-1.4232 1.0942-3.8678 1.7932-6.2583 2.1169-3.3882 0.45856-5.2236-0.32888-5.2236-0.32888"/>
  <path d="m138.59 209.14c0.98844 1.8817 9.694 8.5642 13.13 9.6465-2.4473 0.47174-4.9884 0.14122-7.4357-0.56427-2.4473-0.70563-4.0237-1.1998-5.2355-2.7182-1.2118-1.517-0.45856-6.364-0.45856-6.364"/>
  <path d="m154.36 207.45c0.70563 1.2699 8.9408 7.0115 12.47 7.6709-1.365 0.5167-3.1054 1.0347-7.0115 0-3.9062-1.036-4.9408-1.9293-5.4112-3.3419-0.47044-1.4113-0.0476-4.329-0.0476-4.329"/>
  <path d="m167.44 202.83c1.2236 0.84703 8.847 3.9524 12 4.6118-0.61181 0.65938-3.153 0.89461-6.1169 0.42287-2.9653-0.47044-4.6118-1.0347-5.2712-1.8817-0.65937-0.84704-0.6118-3.153-0.6118-3.153"/>
 </g>
 <g fill="#0f141b">
  <path d="m12.966 198.75c-4.0594-0.22063-7.5665 9.7046-6.586 10.408 0.54839 0.39248 7.4846-1.5619 8.3013-2.5094 0.82325-0.95274-0.03708-7.807-1.7152-7.8982m-7.6709 11.725c-2.4988-1.8738 2.9362-13.176 7.6749-13.176 3.2811 0 4.3858 9.0558 2.7486 10.422-1.2065 1.0043-9.6425 3.3406-10.423 2.7539"/>
  <path d="m26.889 213.32m-4.1361-9.6346c-4.0925 0-7.7489 10.347-6.4552 11.705 0.64882 0.68185 9.1972-1.4086 9.92-2.1883 1.5685-1.6915-0.0978-9.517-3.4648-9.517m-7.5612 12.876c-1.6425-1.6452 1.3756-14.318 7.5612-14.318 4.7162 0 6.9574 8.9171 4.5656 11.907-1.1985 1.4985-11.113 3.4225-12.127 2.4103"/>
  <path d="m31.091 217.28c1.2276 0.84442 9.2685-0.77302 10.392-2.0218 1.8791-2.0866 0.40304-8.5814-2.7684-8.5814-3.774 0-8.4109 10.061-7.6234 10.603m-1.0809 1.0017c-2.1447-2.1447 3.3076-13.045 8.7043-13.045 4.181 0 6.9071 7.5758 3.8401 10.985-1.624 1.8038-10.626 3.9788-12.544 2.0601"/>
  <path d="m138.57 215.27m13.349 3.3194m-12.367-3.3789c1.0704 1.5461 10.84 3.9022 11.57 3.0803 0.9369-1.0519-4.2854-12.123-8.6911-12.123-3.1516 0-4.5788 6.586-2.8794 9.0426m-1.0796 0.85761c-2.6243-3.0618-0.52988-11.269 3.959-11.269 5.9478 0 11.411 13.098 9.6716 14.548-1.4734 1.229-11.208-0.45324-13.631-3.2785"/>
  <path d="m157.86 203.35c-2.2134 0-4.3369 7.4542-2.0799 9.336 1.4827 1.2356 9.5474 3.256 10.447 2.1117 1.5236-1.9372-4.444-11.448-8.3673-11.448m-3.0023 10.442c-3.2084-2.6733-1.1787-11.882 3.0023-11.882 5.7178 0 11.519 11.313 9.5196 13.812-1.0756 1.3452-9.2804 0.77302-12.522-1.9293"/>
  <path d="m179.71 207.75m-1.2223-0.49025c0.63825-0.91709-2.5821-10.027-7.4225-10.027-3.1979 0-3.8863 7.6709-1.924 8.6937 2.808 1.4668 8.8906 1.9888 9.3465 1.3334m-10.073-0.0884c-3.478-2.0284-2.372-11.38 2.6508-11.38 5.9795 0 10.664 10.988 8.51 12.661-0.80209 0.62371-7.9418 0.5973-11.161-1.2805"/>
 </g>
 <path d="m21.157 126.42c5.4826 10.052 19.212 17.624 31.524 18.504 21.089 1.5051 34.076-6.0152 37.83-6.031 3.7291-0.0187 12.411 8.1717 34.951 5.0717 17.417-2.3958 29.274-13.715 29.743-21.52 0.47043-7.8044-41.119-1.0968-46.053 0-4.9343 1.0968-12.879 0.70699-16.581 0.90124-3.704 0.19553-14.669-0.0794-14.669-0.0794l-45.094-3.8375z" fill="#dcd3bb"/>
 <path d="m40.052 80.716c6.1011 12.814 27.417 28.021 38.541 32.47 5.4034 2.1619 9.8778 7.5692 8.1876 15.294-2.0733 9.4787-14.024 12.612-27.199 12.612-15.438 0-41.909-10.938-48-26.164" fill="#007a96"/>
 <g fill="#fff">
  <path d="m81.604 114.65c1.5065-0.56423 4.6118-1.3175 5.1761-0.75321 0.56558 0.56558-0.84703 4.329-1.2236 4.8946"/>
  <path d="m86.15 120.18c1.4827 0.35286 6.4235 2.3998 6.4235 3.1767 0 0.77568-3.8123 2.5411-5.2236 3.0353"/>
  <path d="m87.35 126.39c1.1298 0.49422 4.2352 2.3297 4.1652 3.0353-0.0715 0.70564-3.8123 2.0469-5.9293 2.2583"/>
  <path d="m85.58 131.68c1.1999 1.2712 2.4367 3.2005 2.2253 3.6234-0.21127 0.42417-4.0608 0.54179-5.4721 0.18916"/>
  <path d="m76.475 138.74c1.1999 0.49422 6.2821 1.4827 6.5649 1.1298 0.28131-0.35285-0.91839-2.8239-1.4827-3.9537"/>
  <path d="m101.89 115.02c-2.8939-0.0701-7.3406-0.0701-7.5533 0.42286-0.21126 0.49422 1.3413 3.8824 2.1183 4.5893"/>
  <path d="m95.67 121.59c-1.3413 0.70567-4.9408 4.0238-4.9408 4.7294 0 0.70567 3.1767 1.3413 3.811 1.4113"/>
  <path d="m94.55 127.73c-0.77699 0.28281-4.0237 2.7525-3.9524 3.4582 0.07 0.70695 5.435 2.0482 6.1407 1.8354"/>
  <path d="m96.73 133.02c-0.77699 0.56426-2.2451 2.9415-1.9623 3.4357 0.28131 0.49422 4.1506 1.1523 5.5619 0.86951"/>
  <path d="m101.07 137.05c-0.42417 0.49422-2.2385 2.7869-1.6901 3.5639 0.41627 0.58937 6.2465 0.52857 8.0105-0.17717"/>
 </g>
 <path d="m135.06 80.857c-5.9385 13.657-20.273 25.777-33.176 34.164-7.9497 5.1682-8.9686 12.551-5.1536 18.001 4.3237 6.1751 8.0449 8.3449 20.823 7.7647 17.839-0.81134 38.894-12.566 45.317-25.483" fill="#007a96"/>
 <path d="m85.58 130.62c-16.476 8.6567-52.354 0.23524-68.117-17.718-2.9812-3.3948-8.0105-2.0694-6.1645 1.6002 4.1414 8.2352 12.988 14.87 21.553 19.294 8.5642 4.4228 15.671 6.3059 22.87 7.0115 7.2005 0.70564 18.26-0.42417 23.059-3.482 4.8008-3.0591 6.8001-6.7063 6.8001-6.7063" fill="#00657c"/>
 <path d="m95.89 130.98c12.571 4.991 40.264 0.64884 59.788-16.329 3.519-3.0618 9.3003-3.0763 6.7763 1.4113-1.6941 3.0115-5.4589 9.2236-16.47 15.53-11.012 6.3059-21.459 9.3174-30.965 9.3174-9.5051 0-12.706-2.3521-15.153-4.518-2.4473-2.1645-3.9762-5.4113-3.9762-5.4113" fill="#00657c"/>
 <g fill="#dbdcdc">
  <path d="m79.299 137.29c0.24722 0.24722 2.8239 1.9055 3.3881 2.1526-0.59992 0.45856-3.5296 0.67128-6.7063-0.74133z"/>
  <path d="m83.85 133.73c0.35286 0.28281 3.4939 1.3413 4.1995 1.447-0.84704 0.67128-4.3409 0.84703-6.1407 0.35285z"/>
  <path d="m86.25 129.18c0.70567 0.14122 4.1652 0.24723 5.0823 0-0.56427 1.0584-3.4238 2.0469-6.1407 2.6125z"/>
  <path d="m86.75 124.02c0.84704-0.0375 5.1523-0.59993 5.6822-0.91709-0.35285 1.1642-3.3882 2.7169-5.3293 3.2811z"/>
  <path d="m86.78 113.89-2.8239 3.3525 1.554 1.0241z"/>
  <path d="m94.72 115.55 3.6023 3.071-1.2475 1.9993-2.3904-3.3406z"/>
  <path d="m91.19 126.25c0.49422 0 3.2468-0.31727 3.6353-0.49422l0.10564 1.7998c-2.1526 0.0375-3.741-1.3056-3.741-1.3056"/>
  <path d="m90.59 131.19c0.67132-0.0701 4.1995-0.49422 4.8708-0.70563 0.31727 0.70563 1.4483 2.2346 1.4483 2.2346-1.6941 0.10564-2.9521-0.22325-3.7634-0.47043-0.81269-0.24722-2.5557-1.0585-2.5557-1.0585"/>
  <path d="m94.55 136.38c0.70567-0.21164 3.9881-0.91708 3.9881-0.91708l2.2583 1.6227c-1.6227 0.63562-3.3168 0.31839-4.3752 0.17717-1.0598-0.14121-1.8712-0.8827-1.8712-0.8827"/>
  <path d="m99.24 140.19c0.8827-0.0375 4.1295-1.2712 4.1295-1.2712l3.741 1.2012c-1.7298 0.84704-3.8824 1.0584-5.0122 1.0584-1.1285 0-2.8582-0.9884-2.8582-0.9884"/>
 </g>
 <g fill="#0f141b">
  <path d="m59.595 141.49c-17.058 0-41.605-11.689-48.013-25.294-1.7496-3.7132-0.83911-4.0515 0.89593-0.36484 5.6676 12.042 30.078 24.176 47.104 24.176 15.274 0 24.065-4.1638 25.716-11.717 1.6571-7.5745-2.9692-12.387-7.1754-14.071-10.993-4.3964-30.932-19.07-37.96-31.56-1.8791-3.3393-0.99372-3.9286 1.0175-0.67525 6.401 10.353 26.163 26.266 37.26 30.706 5.184 2.0733 10.231 7.141 8.3396 15.787-1.9055 8.7122-13.036 13.012-27.186 13.012"/>
  <path d="m84.89 118.34c0.30903-0.46908 1.4628-3.5533 1.225-3.8493-0.23374-0.29217-2.697 0.32626-4.2313 0.90124-0.41361 0.1547-1.0109-0.75853-0.59596-0.91446 0.04757-0.0187 4.4321-1.92 5.6465-0.70564 1.2157 1.2157-1.336 5.6756-1.365 5.7178-0.1532 0.23112-0.92502-0.78227-0.67922-1.1497"/>
  <path d="m86.89 125.54c1.406-0.4916 4.7175-1.7654 4.6673-2.1513-0.0659-0.50741-3.6392-1.8223-5.2791-2.3667-0.29592-0.0978-1.0664-1.3492-0.63559-1.2461 3.7436 0.89064 6.9283 2.7631 6.9283 3.5758 0 0.97124-2.7023 2.4975-5.9861 3.6471-0.0884 0.03-0.11238-1.3122 0.30528-1.4588"/>
  <path d="m85.57 130.95c1.6174-0.28655 4.9302-1.3148 4.954-1.6346 0.0337-0.45856-2.6428-1.8157-3.6828-2.2716-0.40567-0.17718-0.42815-1.4245-0.0225-1.2461 0.0476 0.0187 4.8563 1.9835 4.6911 3.6234-0.16894 1.698-5.0677 2.5411-6.5504 2.6587-0.0262 1e-3 0.38058-1.0889 0.61184-1.1298"/>
  <path d="m87.63 135.57h3e-3zm-5.965 0.13597c-0.42814-0.10713 0.96068-1.0756 1.1774-1.0122 1.3928 0.41096 4.3211 0.59199 4.4638 0.30791 0.16369-0.32776-1.114-1.743-2.3072-2.7697-0.3345-0.28805 0.24572-1.3888 0.54838-1.0664 2.1632 2.2901 2.9944 3.7053 2.7301 4.2352-0.37529 0.74923-4.7889 0.76114-6.6125 0.30528"/>
  <path d="m75.583 138.85c-0.40832-0.16781 1.3201-0.91577 1.7297-0.74133 1.3492 0.57483 4.629 1.2527 4.8087 1.0122 0.17193-0.22999-0.40301-1.9927-1.1615-2.9653-0.07529-0.0966 0.74133-1.0122 0.95012-0.62371 1.2144 2.2649 1.3888 4.0278 1.1298 4.3422-0.57876 0.69904-5.3148-0.14121-7.4568-1.0241"/>
  <path d="m96.73 133.02c-4.1546-5.9359-2.2821-13.167 5.1523-17.999 9.2091-5.9861 25.669-18.344 32.579-32.894 1.3003-2.738 2.3336-2.3337 1.0214 0.42286-5.8883 12.381-17.656 23.481-33.023 33.468-6.8384 4.4453-8.3026 11.215-4.6885 16.379 4.2524 6.076 8.6765 7.7476 19.667 7.2467 16.584-0.75452 36.077-10.93 43.433-22.671 2.3945-3.8216 3.5943-3.0578 1.1668 0.82456-8.0912 12.933-28.005 22.591-44.47 23.34-10.976 0.49819-16.082-1.3241-20.838-8.1176"/>
  <path d="m96.79 121.02c-0.75587-0.68713-2.9124-4.5206-2.4605-5.5764 0.39511-0.92237 2.2623-1.0651 7.6128-0.58802 0.44137 0.0397-0.98709 0.99106-1.402 0.93952-2.5411-0.31577-5.0968-0.32364-5.3426 0.16781-0.24835 0.49688 1.6307 3.4688 2.1103 3.9048 0.32626 0.29742-0.36484 1.2911-0.518 1.1523"/>
  <path d="m91.51 126.47m3.6828 1.591c-1.6465-0.18354-4.588-0.77302-4.588-1.7879 0-1.3742 3.811-4.6118 5.6703-5.0822 0.42815-0.10825-0.35023 1.4139-0.72946 1.6003-1.435 0.70563-3.9722 2.7948-3.8467 3.3789 0.0925 0.43211 2.4724 0.68713 3.141 0.76114 0.43871 0.0487 0.38323 1.1338 0.35285 1.1298"/>
  <path d="m96.53 132.25c-7e-3 3e-3 -0.0187 4e-3 -0.0262 7e-3 7e-3 -3e-3 0.0187-4e-3 0.0262-7e-3m0.78231 0.98578c-3.6564 0-6.6362-1.2104-6.7195-2.0469-0.14684-1.4602 3.8176-3.8705 4.3673-4.0714 0.41496-0.15058 0.27494 1.2131-0.1401 1.365-1.6518 0.59993-3.2798 2.109-3.2098 2.512 0.094 0.54442 3.852 0.91574 5.0664 1.1351 0.40571 0.0738 0.81535 1.106 0.63562 1.106"/>
  <path d="m94.54 136.62c-0.57217-1.0003 1.3809-3.2362 2.3297-4.2352 0.22213-0.23374 1.04 0.75189 0.68185 1.0122-0.49156 0.3566-2.4631 2.3165-2.2438 2.775 0.23935 0.49688 3.8031 0.58277 4.8734 0.36859 0.43212-0.0873 1.1682 0.72148 0.73474 0.80872-1.4589 0.29217-5.7866 0.30116-6.376-0.72946"/>
  <path d="m99.12 140.5c-0.38586-0.96334 0.49025-2.479 1.8593-3.671 0.333-0.28955 0.85494 0.63297 0.51666 0.9184-0.67788 0.57352-1.6795 2.0271-1.4404 2.3032 0.35285 0.40436 3.663 0.37926 5.6584-0.0794 0.57217-0.13223 2.9217 0.43474 2.512 0.59862-2.4196 0.96859-8.621 1.1417-9.106-0.07"/>
 </g>
</svg>
