<?xml version="1.0" encoding="UTF-8"?>
<svg version="1.1" viewBox="0 0 327.9 499.85" xmlns="http://www.w3.org/2000/svg" xmlns:cc="http://creativecommons.org/ns#" xmlns:dc="http://purl.org/dc/elements/1.1/" xmlns:rdf="http://www.w3.org/1999/02/22-rdf-syntax-ns#">
 <title>Articuno (2)</title>
 <path d="m147.1 251.84s-4.94 1.34-6.92 1.86a2.93 2.93 0 0 1-2.68-0.23c-1.12-0.67-5.37-10.29-5.37-13.19 0.64 8.7 3.11 14.17 2.91 14.76s-4.25 1.11-5.59 0-5.58-13.83-6.13-19.37c0.3 10 2.06 19.82 1.88 20.71-0.23 1.12-6 0.89-7.16-0.23-5.14-5.14-8.05-23-8.05-27.5 0 10.48 1.12 21.24 0.45 21.91-0.9 0.9-12.3-5.59-13-7.15-0.57-1.33-1.31-17-0.83-27.6 0.09-1.89-0.65-2-1-0.19-2.06 9.66-1.86 23.37-2.61 23.76s-9.39-2.24-9.61-4.7c-0.87-9.55 1-20 1.91-24.62 0.32-1.54-0.34-1.17-0.78-0.43-3.36 5.62-6.61 14.54-7.4 14.54a4.64 4.64 0 0 1-3.35-1.56c-0.9-1.12 1.12-7.61 2.68-11.86-3.9 6.39-6.12 11.93-7.15 12.08-1.57 0.22-8.5-4.25-9.17-7.16-0.57-2.46 6.75-16.7 11.31-24.77 0.81-1.44 0.31-1.66-0.69-0.7-9.39 9.11-23.93 17-24.94 17s-6.86-4.6-5.59-5.6c3.43-2.7 14.55-10.34 21.43-17.31 1.66-1.67 1.2-2-0.62-0.6-8.55 6.53-21.69 12.24-23.72 11.88-2.46-0.45-11.85-9.85-9.84-10.74 1.72-0.76 15.84-6.59 24.66-12.45 1.51-1 1.16-1.57-0.45-1-11.26 4-28.29 3.72-30.25 2.94-2.23-0.9-6.71-12.57-5.81-12.53 4.4 0.21 22.17-1.54 31.38-5.63 0.61-0.27 0.45-0.9-0.18-0.93-19.81-1-30.68-7.42-35.45-11.1s-3.13-15.21-2.46-15a137.3 137.3 0 0 0 34.67 7.16c-15.08-7.97-34.13-23.3-36.69-26.85-2.91-4-2.46-16.77-1.57-17.22s34.89 21.92 38.25 23.26c-11.29-8.23-35-26.29-37.13-31.09a26.29 26.29 0 0 1 0-21.69c7.33 6.71 25.43 21.59 41 33.5s24.12 21.68 24.42 22.9 11.3 46.1 20.76 58.31 45.49 30.54 58.62 34.2a39 39 0 0 0 6 1.24z" fill="#7fccec"/>
 <g fill="#fff">
  <path d="m74.26 399.1c0.2 4.53 2.16 6.73 1.6 6.61-1.56-0.34-4.51-1.69-5.64-3.45l1.29-2z"/>
  <path d="m79.6 395.49c-0.56 4.24 0.5 7.64 0 7.41a11.6 11.6 0 0 1-4.53-5.19l2-2.46z"/>
  <path d="m94.61 394.92c1.89 3.54 3.52 4.81 3 4.94-1.55 0.36-4.71-0.52-6.48-1.62l0.88-3.09z"/>
 </g>
 <path d="m215.75 319.64a139.75 139.75 0 0 0 43.59 43.22c22.73 14.15 57 22.35 64.83 54.39 7.23 29.59-4.1 51.79-21.61 64.83a77.57 77.57 0 0 1-25.73 12.23c-17 3.36-38 7.19-68.21 0.7-33.62-7.22-53.62-22.25-63.74-40.48-9.17-16.54-12.75-29.54-15.43-43.61-2-10.47-2.69-12.3-4.92-16.55 0 0-9-15.69-29.51-13.1-3.44 0.44-7.65-0.73-11.43-0.84a60.92 60.92 0 0 0-10.12 0.59c-1.65 2.72-4.37 6.82-6.71 10.38-0.26 0.4 0 5.36 0 5.36-4.85 13-18.26 27.57-36.52 26.83s-31.31-17.21-29.1-37.26c1.8-16.22 8.13-27.26 11.42-31.89 1.34-1.89 1.16-0.75 0.74 0.32-3.91 9.89-7.23 33 14.3 42.37a43.38 43.38 0 0 0 14.4 3.76c10.76-3.54 10.13-23.85 30.22-41.63 13.65-12.08 30.62-20.27 51.53-15.78 20.12 6 38.38 34.65 45.83 61.48 5.75 20.7 6.6 44.49 25.68 63.47 37.07 8.74 58.29-4.94 63.81-23.57 6.36-21.44-0.6-44-22.24-65.4-17.34-17.14-23.68-25.16-33-40.48l-0.83-17.61z" fill="#00aeeb"/>
 <path d="m152.78 344.5c-2.09 3.87-6.26 17-7.3 18.19s-22.52 13-25.5 15.21c0 0 6.27 5.38 6.56 6.86 0.4 2 0.3 3-0.89 5.21s-1.79 3.88-2.39 4.48a3.36 3.36 0 0 1-2.45 1.31l-2.44-1.52-1.22-2.33a1.74 1.74 0 0 1 0.37-1.71c0.34-0.33 2.16-1.42 1.56-2.16-0.79-1-6.7-4.48-7.6-4.48s-10.29 0.6-13.87 1.64c0 0-3.72 2.69-4 3.43s0 1.34 0.6 2.69a6.53 6.53 0 0 1 0.29 4 10.93 10.93 0 0 1-3.58 2.54c-0.89 0.15-2.75-0.57-4-2.54a41.45 41.45 0 0 1-1.62-4.57 34.22 34.22 0 0 0-1.46-3.11c-0.34 0.11-3.33 0.45-3.89 1s-0.22 2-0.22 3 0.4 3.77-0.59 4.62a5.16 5.16 0 0 1-4.56 1.19c-0.11 1.57-0.33 3.36-1.23 4s-2.79 1.23-3.91 0.22c-1.48-1.33-2.24-2.57-2.24-3.8s-0.45-5-0.45-5.48c0-0.6 3.53-4.76 5.54-6.22a2.4 2.4 0 0 1 0.61-0.94c0.9-0.78 8.79-5.9 11.52-7.38 1.46-0.78 7.61-0.44 9.4-0.22 0.24-0.15 0.74-0.35 0.85-0.41 1.2-0.6 6.71-1 14-3.13 8.86-2.53 27-15.36 28.48-16.85s5.51-11.78 6.71-16.55l7.09-1.8z" fill="#b4b3a9"/>
 <path d="m120 396.5c-1.51 0.9-7.4-0.11-6.49-0.68a19 19 0 0 0 3.78-3.38c1-0.95 2.52 0.32 3 1.36 0.27 0.78 0.39 2.26-0.29 2.7z" fill="#fff"/>
 <path d="m159.64 342.26c15.66-6.93 21.67-15.1 24.15-18a29 29 0 0 0 5.93 1.69 4.59 4.59 0 0 1 1.34 0.57c0.25 0.19 0.11 0.58 0.26 0.64 0 0-0.24 0.43-0.14 0.55 0.31 0.39 9.39-2.68 9.39-2.68s0.36 7.64 0.67 7.83 2.91-6 2.91-6 5 6.3 5.36 6.26 0.45-8.94 0.45-8.94c9.62-6.71 19.68-19.24 19.91-38.47s-7.61-34.89-12.08-43.62l-6.89-31.84-13.9-13.26c-10-7.49-13.16-20.19-15-27.23s-3.41-11.8-7.72-15.89l-25.94 3.1-12.44 20.69c0 1.27 0.56 4.65 0.7 5.64l12 18c1.82 5.9 4.09 8.39 2.5 16.79s-11.8 31.32-11.8 44.48a44.63 44.63 0 0 0 7.57 25.82 59.51 59.51 0 0 0-5.37 31.09l7.38 21.25h1.79s-1 5-0.67 5.14 4.7-3.13 4.7-3.13 1.9 5.31 2.24 5.37 2.7-5.85 2.7-5.85z" fill="#7fccec"/>
 <path d="m161.34 162.77a11.5 11.5 0 0 1 1.89 6.41c0 4.53-1.42 7.83-6.32 8.77a8.61 8.61 0 0 1-8.11-2.83 10.85 10.85 0 0 1 0.94-3.3s4.04-7.7 11.6-9.05z" fill="#fff"/>
 <path d="m180.27 212.12c3.25 3.24 26 24.1 15.11 68.76-5.85 4.24-14.58 13-15.22 22v-0.32c-1.13 9.28-6.38 14.26-6.84 14.07-0.61-0.24-0.55-5.73-6.58-11.66-23.37-11.8-27.46-30.31-27.46-42.44 0-11 7.13-28.81 10.4-39.27 1.26-3.93 5.29-13.69 5.59-13.67s2 9.19 2.2 9.27 1.74-9 2-8.95 3.91 8.92 4.08 8.95 0.83-10 1.1-10 5.15 5.1 5.34 5-0.79-6.23-0.48-6.43 6.28 3 7.54 3.92c0 0-1.5-2.54-1.26-2.51a11.92 11.92 0 0 1 4.4 3.3" fill="#fff"/>
 <path d="m158.55 172.62c0.4 2-0.12 5-2.31 5.46s-3.82-2.17-4.21-4.18 0.14-5 2.31-5.46 3.82 2.18 4.21 4.18z" fill="#ad8a69"/>
 <path d="m194.53 331.53c-1.15 0-6.75-0.21-6.93-0.68s2.89-2.61 3.58-3.13l4.33-2.38 1.82 4.33s0.16 1.94-2.8 1.86z" fill="#7fccec"/>
 <g fill="#fff">
  <path d="m157.75 334.21c-0.4 5.18 1.09 7.91 0.46 7.69a13.15 13.15 0 0 1-5.71-5.45l2-2.47z"/>
  <path d="m147.62 336.36c-0.16 5.19 1.45 7.85 0.82 7.66a13.2 13.2 0 0 1-6-5.18l1.78-2z"/>
  <path d="m138.26 340.09c0.33 5.18 2.18 7.68 1.53 7.55a13.23 13.23 0 0 1-6.41-4.6l1.5-2.28z"/>
 </g>
 <path d="m204.15 326.83c0 0.18 0.22 0.33 0.22 0.52 0 3.8 0 9.93-0.59 11.63s-14.47 9.4-16 10.89a87.75 87.75 0 0 1-1.64 9.54 32.93 32.93 0 0 0-1 10.73c0.15 4.18-0.51 5-2.54 5.67-0.89 0.3-1.94 0.6-3.13 0.89s-3.91 1.73-5.16 0.76l-2-5.79c-0.18-0.78 0.43-1 1.64-1.47 0.52-0.19 1.56-0.52 2.17-2.69 0.68-2.45 0.06-7.13-0.39-8.92-2.82-11.28-13-23.29-17.36-27a3.19 3.19 0 0 1-1 2.66c-1.56 1.27-5.36 1.94-5.36 1.94s-2.39-1.34-2.46-3.28c-0.06-1.54-0.07-3 0-4.28-0.44 0-2.72-0.19-2.72 1.15s1.19 6.41 0.45 7.3-4.48 1.64-4.92 1.49a8.65 8.65 0 0 1-3-3.13c-0.14-0.31-0.29-0.67-0.61-1.58-0.45 0.15-1.47 0.54-1.47 1.28s1.21 4 0.74 5.07c-0.74 1.64-3.73 2.84-5.07 2.39a5.89 5.89 0 0 1-2.68-1.94c-0.75-1-2.54-8.65-2.54-9.39s6.86-5.52 9.1-6.56c0.89-0.9 8.34-8.14 9.39-8.35 0.75-0.15 3.58 0.89 4.33 1a46.36 46.36 0 0 0 4.77 0.9 10.59 10.59 0 0 1 2.08-1.94c2.34-0.78 7.38 0 8.73 0.67s3.13 6 7.6 11.63a73.28 73.28 0 0 1 7.66 12.22c2.68-1.34 13.59-8 14-9a11.26 11.26 0 0 0 0.27-5.19l4.88-1.59s0.37 7.76 0.69 7.83 2.92-6.06 2.92-6.06z" fill="#b4b3a9"/>
 <path d="m174 377.38c-1.73 1-8.48-0.13-7.44-0.78a30.92 30.92 0 0 0 5.28-4.24c1.09-1.09 2.59 0.61 2.77 1.56s0.2 2.95-0.61 3.46z" fill="#fff"/>
 <path d="m205.87 210.53c-0.63 4.37-1.46 9.37-1 10a5.66 5.66 0 0 0 3.66 2.07c-0.34 5.76-0.61 12.21-0.34 12.91 0.42 1 7.28 4 8.12 4.16a3.22 3.22 0 0 0 0.2 1.25c0.42 0.62 8.33 1.24 9.16 0.83s3.31-16 3.7-24.31c0.83 3.32 4.2 21.6 4.62 22.23s8.94-1.67 9.77-2.5c0.67-0.66-1.17-12.73-2.57-18.71-0.37-1.56-0.34-2 0.63-0.27 3.14 5.64 9.9 17.6 10.47 17.32 2.08-1 9.36-4.58 10.2-6.66 0.62-1.55-2.94-9.48-5.21-13.83-0.77-1.48-0.86-1.71 0.25-0.19 2.16 3 5.47 7.6 6.2 8.82 0.63 1 3.95-2.29 4.37-3.12 0.29-0.57-4.05-8.28-7.45-14.19-1.06-1.84-0.81-1.82 0.62-0.17 5.43 6.23 14.29 13.48 14.94 13.32 0.84-0.21 8.53-7.7 8.53-8.53s-6.45-9.76-9.75-14.73c-0.15-0.23 3.38 2.08 4.29 2.21 0.25 0 0.37 0.05 0.85-0.28 1 1.09 1.87 2.13 2.7 3.09a28.57 28.57 0 0 0-1.47 3.44c0.12 0.27 2.13 0.31 4.35-0.17 0.66 0.74 1.12 1.25 1.32 1.45 1 1 7.28-6.24 7.49-7.91 0-0.39-0.74-2.17-2-4.71 6.24-17.87 11.61-49.81 8.67-73.33-3.66-29.31-9.11-46.21-22.89-71.33-9.62-17.54-20.16-35.53-26-48.35-3.16 6.27-4.95 16.4-4.35 18.48s12.53 33.43 22.13 46.51c-13.37-16.34-24.31-39.85-25.08-41.16-0.89-1.49-8 8.64-6.85 16.39s17.27 33 27.1 44.36c-17.39-12.39-29-30.94-30.08-30.66s-5.66 15.79-4.77 19.66c0.73 3.14 18.56 20.65 28.58 28.22 2.31 1.74 1.53 1.88-0.29 1.08-18.17-8-29.56-20-30.37-19.17s-3 17.87-1.49 20.85 28 16.68 35.45 17.27c-17.77 0.46-33.1-2-33.66-0.29s6.25 17.57 7.74 18.46c1 0.58 9 2 19.17 1a7.53 7.53 0 0 1-0.36 2.86 107.07 107.07 0 0 1-19.7 2.74c-1.72 0.1 4.51 7.64 9.12 12.88-7.32 7.5-17.53 15.45-29.51 23.43-12.61 8.41-17.09 12.83-21.67 19.85z" fill="#7fccec"/>
 <g fill="#00aeeb">
  <path d="m140.41 179.49c-4.79-2-11.56-5.21-15.08-12s-5.91-29-5.49-29.31 8.59 9 12.4 14.23l8.5 11.9z"/>
  <path d="m156.89 146.38c0.57-6.06 4.37-40.44 3.39-40.72s-16.63 20.15-27.62 46.22c-1.18 2.8 3.52 21.69 8.45 27.19l1.09-0.52z"/>
  <path d="m142.2 178.55c2.35-11.65 4.81-21.58 8.21-25.27 28.6-31 44.39-35.08 44.39-35.08s-11.23 24.08-20.53 35.63c0 0-14 8.19-32.07 24.72"/>
 </g>
 <path d="m140.41 190.18a48.62 48.62 0 0 0-6.27 3.13 35.52 35.52 0 0 1 0.45-6.26c0.39-2.7 6.56-8.35 7.61-8.5 2.36-0.34 11 3.87 12.22 7.3s0.6 10.44-3.13 13.42c-2.2 1.76-5.07 2.39-7 1.64s-2.84-3.58-3.88-10.73z" fill="#b4b3a9"/>
 <path d="m152.78 185.99a94.34 94.34 0 0 0-10.47 3.39c0.3 2.23 1.53 9.29 3 9.29s6-7 7.45-12.68" fill="#ed8599"/>
 <path d="m326.27 438.52c-3.48 5.48-7.77 10.28-11.35 10-5.73-0.44-1.81-15.12-5.29-15s-6.81 11.76-9.63 11.26 0.22-6-2-6.55c-3-0.75-4.23 7.91-8.66 5.43-3.59-2-1.5-17.59-4.73-17.4s-3.13 16.81-11.14 17.4c0.32-1.16 0-10.58 0-10.58s-3.38 9.14-6.61 8.37c-2.21-0.52-4.08-6.1-5.61-10.28a53.62 53.62 0 0 1-2.25 13.69c-3.35 11.31-12.5 20.79-27.46 24.54 10.5-0.11 16.87-4 19.86-2.36 1.55 0.86-3.71 3.75-2.21 4.85s13.88-5.69 17.38-9.36c2.3 1.32-1.81 7.07 0.7 8.48s12.88-3.79 15-2.28c2.85 2-3.47 8.14-3.47 8.14s2.36 0.22 11.54-3.07c2.61-0.93 4.59 0.18 2.9 3.28a15.35 15.35 0 0 1-4.23 4.7c-3.31 2.59 7.64 2.15 18.43-3.79a57 57 0 0 0 18.83-39.47z" fill="#9ed8f5"/>
 <path d="m58.93 379.82c-1 2.1-2.25 4.95-2.25 4.95 3.9-5.85 13.21-14.56 13.21-14.56a30.41 30.41 0 0 0-2.6 5.66c3.42-7.41 12.25-11.68 15.71-15.38 0 0 12.33-19.78 32.75-17.94l-0.14-0.2c-17.23-1.1-31.55 6.44-43.38 16.91-9.41 8.29-14.23 17.13-17.88 24.57a32.77 32.77 0 0 1 4.58-4.01z" fill="#9ed8f5"/>
 <g fill="#0099cd">
  <path d="m269.52 414.51c7.6-1.38 32.49-3.45 44.24 7.26a58.33 58.33 0 0 1 12.56 15.82 72.38 72.38 0 0 0-2.15-20.34c-7.82-32-42.1-40.24-64.83-54.39a139.75 139.75 0 0 1-43.59-43.22l-5.37 4.35s-0.52 9-0.91 9.11-4.94-5.59-4.94-5.59l-0.75 11.48c9.34 15.32 15.68 23.34 33 40.48 13.89 13.74 21.72 27.95 23.87 42a11.34 11.34 0 0 1 8.87-6.96z"/>
  <path d="m67 395.76c-4.64 14-18.55 28.57-36.81 27.83s-31.26-17.21-29.05-37.26a70.82 70.82 0 0 1 10.11-29.93c2.06-3.25 1.89-1.41 1.22 0.69-3.43 10.8-4.85 31.31 15.13 40 16.55 7.25 29.87 3.72 39-6.34-0.04 0.34 0.24 2.97 0.4 5.01z"/>
  <path d="m93.78 377.71c1.19-0.6 7.56-1.45 14.87-3.54 8.86-2.53 27-15.36 28.48-16.85 0.59-0.59 1.19-2.12 2.24-4.58a42.19 42.19 0 0 0-15.65-9.26c-20.12-6-40.24 8.94-47.69 30.56a55.13 55.13 0 0 1-3.15 7.18c2.38-0.24 4.77-0.45 7.16-0.61 1.9-1.23 3.53-2.24 4.34-2.68 1.46-0.78 7.62-0.44 9.4-0.22z"/>
  <path d="m277.3 493.99c-16.39 4-37.12 2.7-61.55-10.44-39.49-21.21-38.75-51.76-46.2-78.56-4.42-15.93-12.66-32.51-22.82-44.6a7 7 0 0 1-1.25 2.33c-1 1.19-22.52 13-25.5 15.21 0 0 6.27 5.38 6.56 6.86 0.4 2 0.3 3-0.89 5.21-0.81 1.51-1.34 2.74-1.78 3.57 2.23 4.25 3.58 6.91 5.58 17.38 2.68 14.09 6.26 27.06 15.43 43.61 10.12 18.2 30.12 33.23 63.74 40.43 30.19 6.51 51.82 2.72 68.68-1z"/>
 </g>
 <path d="m119.39 196.57a8.52 8.52 0 0 0-11.39 1.79c-1.8 2.53-8.17 5.78-13.2 7.24-3.62 1.06-7.73 0.72-9.76 4 0 0-2.27 18.47-1.51 25.56 0 0 4 4.25 9.7 4.36 0 0 0.55-20.72 3.49-25.3 0 0-0.11 22.58 1 29.45 0 0 9.92 7 12.64 7.19l-0.1-16.46s3.16 17.77 8 22.24c0 0 4.25 1.42 6.86 0.11 0 0-1.3-12.87-1.09-15.37 0 0 3.82 12.86 5.57 13.95s4.9 0.77 5.45 0l-1.64-9.59s3.38 7.63 4.25 8.18a6 6 0 0 0 2.51 0.54s4.69-17.77 7.53-25.41 4.36-13.95 3.81-17c-0.04-0.06-23.11-9.55-32.12-15.48z" fill="#6db2cd"/>
 <path d="m279 150.51c-16.42 23.39-25.69 26.76-39.61 34.25s-25.2 17.5-32.62 20.88c-5.4 2.45-6 0.3-4.48-2l3-4.58s7.53-6.71 14.4-11.94 23.56-18 27.82-23.23c0 0 0.49 1.63 4.91 0s22.58-9.9 26.58-13.38z" fill="#6db2cd"/>
 <path d="m198.34 254.29c-3.89 13-12.69 28.91-27 33.12-12.49 3.69-23.73-1.56-27.86-4.45 0 0 7.66 14.91 21.94 21 0 0 6.39 5.35 7.73 12.49 0 0 1.19-0.15 3.12-2.82s3.57-8.78 4.17-12.35 2.68-11.9 14.58-20.08a140.43 140.43 0 0 0 3-15c1.36-9.09 0.32-11.91 0.32-11.91z" fill="#dcdddd"/>
 <g fill="#6db2cd">
  <path d="m230.17 283.2c-0.15 5.85-14 24-26 26.82s-21.89-3.86-23.73-6c0 0-0.31 16 10.79 22.81 0 0-0.31 1.23 1.38 0.77s8-2.62 8-2.62 0 7.55 0.77 7.7 2.62-5.55 2.62-5.55 4.84 6.13 5.5 6 0.91-9.11 0.91-9.11 9.19-6.81 13.93-15.53c5.66-10.5 5.83-25.29 5.83-25.29z"/>
  <path d="m191.33 327.74s-3.85 2.47-3.54 3.24 8.16 0.61 8.16 0.61a35.53 35.53 0 0 0 0.16-4.77z"/>
  <path d="m190.34 326.18c-30.58-8.85-34.63-27.82-34.63-27.82s6.07 4.22 9.76 5.61 6.72 9.38 7.37 11.34c0.55 1.65 1.1 1.47 3.13-0.92s3.12-6.58 4.42-10.38c0 0 0 8.54 3.13 14.43s6.82 7.74 6.82 7.74z"/>
  <path d="m183.34 324.7a52.08 52.08 0 0 1-7 7.55s-4.05-6.26-5.9-8.84-2.94-5.16-3.5-5.71-4.23-1.29-7.18-1.66-5.34 2.21-5.34 2.21c4.42-4.42 5.71-7.36 6.44-9.39 0 0 7.93 7.74 12.53 10.13s9.95 5.71 9.95 5.71z"/>
  <path d="m149.21 328.2c-1.85 0.56-2.13 1.56-2.13 3.12s0.43 5 0.28 5.68a12.75 12.75 0 0 0 0.71 3.27l2.28 0.56s-0.86 4.55-0.29 4.69 4.55-2.56 4.55-2.56 2 5 2.41 5 2.27-5.39 2.27-5.39 5.54-2.42 6.39-2.84c0 0-5.54-6.82-7.38-8.38 0 0 0.28 2.56-0.71 3 0 0 0.42 6 0.71 7.24 0 0-0.71 0.29-2-0.71a39.54 39.54 0 0 1-4-4.4s-2.13-1.42-2.55-3.12a34.7 34.7 0 0 1-0.54-5.16z"/>
  <path d="m180.55 164.92c-4.3-4.49-11.69-2.58-17.88 0.62l-1-2.49s11.6-8.61 12.72-8.61 5.98 8.8 6.16 10.48z"/>
 </g>
 <path d="m162.82 165.29a13 13 0 0 0-1.63-2.25 54.51 54.51 0 0 0-6.53 5 5.39 5.39 0 0 1 2.2 1.32c3.36-2.2 5.98-4.01 5.96-4.07z" fill="#dcdddd"/>
 <path d="m152 170.36-2.71 2.35a13.88 13.88 0 0 0-0.46 2l3-1.92a6.65 6.65 0 0 1 0.17-2.43z" fill="#dcdddd"/>
 <path d="m152 170.36a6.65 6.65 0 0 0-0.19 2.4c1.72-1.13 3.46-2.29 5.05-3.35a5.39 5.39 0 0 0-2.2-1.32c-0.87 0.73-1.77 1.5-2.66 2.27z" fill="#745742"/>
 <path d="m143.26 178.06c1.11-0.58 3.18-1.85 5.57-3.38a13.88 13.88 0 0 1 0.46-2c-3.29 2.95-6.03 5.38-6.03 5.38z" fill="#6db2cd"/>
 <g fill="#0099cd">
  <path d="m194.6 118.38c-2.21 1.61-33 32-37.42 36.42s-9.05 14.69-14.69 23.54c0 0 20-17.44 31.89-23.9 0 0 18.41-29.06 20.22-36.06z"/>
  <path d="m141.68 178.88c-0.85-8.73-3.62-24.92-2.55-27.9s19-41.54 21.3-45.16c0 0-1.86 34.56-3.33 40.3 0 0-7.11 7.25-8.53 9.46-2.13 3.34-6.89 23.3-6.89 23.3z"/>
  <path d="m140.69 179.38c-2.13-1.42-9.94-9.52-11.5-12.21s-8.52-25.56-9.23-28.69c0 0 3.26 2.27 12.07 13.49 0 0 1 9.23 3 14.34s5.66 13.07 5.66 13.07z"/>
 </g>
 <g fill="#888780">
  <path d="m155.22 190.5c-0.14 1-3.4 3.13-6 4 0 0-2.78 3.82-3.75 4s-1.94-2.77-3.06-9.16l-2 1s1.18 6.6 2.15 8.68 2.29 2.36 5.9 1.67 5.28-4.24 5.84-5.49a25.85 25.85 0 0 0 0.92-4.7z"/>
  <path d="m120 377.9s25.63-14.66 26-15.22 6.79-18.6 6.79-18.6-2.33 1.58-2.71 1.44 0.76-5 0.76-5l-2.7 0.19c-0.28 1.21 0.83 2.7 0.37 3.16s-4.65-2.69-4.65-2.69c-1.4 4.65-6.71 16.12-6.71 16.12-0.77 2.69-8.64 12.59-17 16.86s-17.55 6.53-20.24 7.65-8.1 3.38-9 5.4-1.13 6.07-5.17 4.95c0 0 0.59 2 1 3s2.79 3 4.18 2.6 3.35-1.21 3.72-3.53-1.77-4.28-0.56-6a9.93 9.93 0 0 1 4.65-3.44c1.12-0.18 10.61-1.3 12.38-1.3s7.34 3.81 8.09 5l-1.86 1.77v1.73a3.39 3.39 0 0 1 3.16 4 5.3 5.3 0 0 0 3.81-3.35c1.4-3.06 2.52-5.3 2.52-6.88s-1.4-2.42-2.52-3.72-4.31-4.14-4.31-4.14z"/>
  <path d="m79.43 389.12c-0.38 1.51-4 4.14-7.26 3.76 0 0-0.63 3.38 2.13 4.25s4.88-0.25 5.5-1.75-0.37-6.26-0.37-6.26z"/>
  <path d="m71.67 393.13a5.81 5.81 0 0 1-4.26 5.13s1.38 4 3.26 4.13a3.58 3.58 0 0 0 3.63-2.63 9.11 9.11 0 0 0 0.37-2.12s-2.13-0.88-2.25-2.13a7.18 7.18 0 0 0-0.75-2.38z"/>
 </g>
 <path d="m174.63 374.99c-1.86 1.16-7 1.63-8.21 1.74a5.88 5.88 0 0 0 2.27 0.76c1.63 0.29 4.31 0.29 5.41-0.41a1.73 1.73 0 0 0 0.53-2.09z" fill="#dcdddd"/>
 <g fill="#888780">
  <path d="m183.65 375.16s1.27 0.54 1.49-3.72 0.21-7.78 0.85-10.87 2-8.62 1.7-10.86c0 0 15.13-8.78 16.09-10.73 1.68-3.43 0.07-11.65 0.07-11.65s-2 5.57-2.5 5.34-0.77-7.7-0.77-7.7l-4.79 1.77 0.16 4.85c3.1-2.19 5.05 0.12 5.05 0.12 1.06 5.34-3.23 8.41-6.88 10.37-2.13 1.15-6.38 3.74-9.76 5.3-3 1.36-5.08-0.51-7.19-3.26-3.21-4.21-9-11.35-11-13.92-1.86-2.32-3.24-2.64-3.77-2.64a9.81 9.81 0 0 0-3.63 1.59 2.34 2.34 0 0 0 0.32 3c0.86 0.85 12.57 13 15.13 21.3s2.23 13.31 1.49 15c0 0 6.13-1 5.67 3.49-0.18 1.69-4.72 2.74-6.64 2.91a5.1 5.1 0 0 1-0.29 2.1s0.52 1 2.56 0.58a54.33 54.33 0 0 0 6.64-2.37z"/>
  <path d="m158.46 328.73c-3.67 2.42-7.64 2.35-9.18 0.62a17.77 17.77 0 0 0 0.5 4 3.57 3.57 0 0 0 3.29 2.74c1.06-0.1 4.24-1 5.11-2.6s0.28-4.76 0.28-4.76z"/>
  <path d="m146.79 329.4c-2.76 5-7.48 4.63-8.06 3.57 0 0 1.52 4.65 3.85 5.58 0.48 0.19 3.7-0.41 4.78-1.55s-0.57-7.6-0.57-7.6z"/>
  <path d="m137 334.29c-1.8 4.39-6.45 6.22-7.4 5a4.51 4.51 0 0 0 3.59 3.54c1.29 0.34 4-1.12 4.9-2.92s-1.09-5.62-1.09-5.62z"/>
 </g>
 <g fill="#dcdddd">
  <path d="m74.26 399.1c0.2 4.53 2.16 6.73 1.6 6.61-1.56-0.34-4.51-1.69-5.64-3.45l2.75-0.51z"/>
  <path d="m79.6 395.49c-0.56 4.24 0.5 7.64 0 7.41a11.6 11.6 0 0 1-4.53-5.19l2.55-0.12z"/>
  <path d="m94.61 394.92c1.89 3.54 3.52 4.81 3 4.94-1.55 0.36-4.71-0.52-6.48-1.62l2.26-1.52z"/>
  <path d="m157.75 334.21c-0.4 5.18 1.09 7.91 0.46 7.69a13.15 13.15 0 0 1-5.71-5.45l2.26-0.78z"/>
  <path d="m147.62 336.36c-0.16 5.19 1.45 7.85 0.82 7.66a13.2 13.2 0 0 1-6-5.18l3.75-1z"/>
  <path d="m138.26 340.09c0.33 5.18 2.18 7.68 1.53 7.55a13.23 13.23 0 0 1-6.41-4.6l2.57-0.85z"/>
 </g>
 <path d="m119.92 392.99c0-2.24 2.4-3.2 1.84-4.32s-2.8-1.84-4.64-2.72c0 0 2.22 1.92 2.07 2.64s-1.42 1.32-1.67 1.66a1.52 1.52 0 0 0-0.37 1.71 7.88 7.88 0 0 1 1.41 0.39c0.56 0.19 1.36 0.64 1.36 0.64z" fill="#b4b3a9"/>
 <path d="m120 393.4a9.83 9.83 0 0 1-6.63 2.61 4.48 4.48 0 0 0 1.85 0.66c1.42 0.28 4.45 0.47 5.11-0.43s-0.33-2.84-0.33-2.84z" fill="#dcdddd"/>
 <g fill="#0f141b">
  <path d="m148.22 175.38a5.25 5.25 0 0 1 0.45-2.5c0.17-0.51 1.8-1.15 1.67-0.82a21.88 21.88 0 0 0-1.14 3c0.09 0.79 4.87 4.07 10 1.48 4.24-2.15 4.55-9.6 1.67-13.39-0.21-0.28 0.81-1.06 1-0.77 3 4 2.82 12.51-2.17 15.19-4.37 2.34-10.32 0.49-11.48-2.19z"/>
  <path d="m154.65 178.34a5.83 5.83 0 0 1-3.13-4.27c-0.52-2.64 0.68-5.65 2.74-6.05 2.52-0.5 4.42 2.42 4.82 4.47 0.33 1.67 0 4.15-1.42 5.36a3 3 0 0 1-3.01 0.49zm0.16-9.52a2.53 2.53 0 0 0-2.19 1.89 6.64 6.64 0 0 0-0.18 3.11c0.33 1.68 1.77 4.23 3.72 3.85s2.34-3.12 2-5c-0.33-1.54-1.87-4-3.35-3.85z"/>
  <path d="m197.06 198.12c-10.1-7.57-13.49-19.86-15.83-27.92-1.53-5.27-3.27-11.69-7.55-15.75-0.34-0.32 0.68-1.29 1-1 4.61 4.37 6.81 10.83 8.16 16.31 2 8 5.55 20 15.2 26.77 0.41 0.3-0.82 1.71-0.98 1.59z"/>
  <path d="m167.14 305.99c-23.59-11.54-28.54-30-28.54-43.24 0-8.73 4.27-21.47 7.77-31.73 1.84-5.38 3.56-10.18 4.1-13 1.19-6.31 0.66-10.67-2.34-16.94-0.21-0.42 0.88-0.83 1.12-0.42a27.39 27.39 0 0 1 2.75 17.56 120.29 120.29 0 0 1-4 13.12c-3.45 10.14-7.76 22.76-7.76 31.2 0 12.8 4.68 30.42 27 41.68 0.34 0.21 0.02 1.82-0.1 1.77z"/>
  <path d="m155 185.48c-1.34-3.84-10.31-7.76-12.84-7.4-1.45 0.21-7.9 5.8-8.34 8.71a45.74 45.74 0 0 0-0.34 5.25c-0.08 2.56 0.87 1.86 2 1.25a49.21 49.21 0 0 1 4.47-2.2c1.07 7.07 2.11 9.37 4.15 10.15a5.74 5.74 0 0 0 2 0.36 9.22 9.22 0 0 0 5.59-2.1c3.94-3.15 4.58-10.36 3.31-14.02zm-4.11 13.29c-2 1.59-4.61 2.23-6.38 1.55-1.49-0.58-2.42-3.23-3.4-9.75l0.81-0.34c0.39 2.71 1.5 9 3.41 9s6.1-6.24 7.65-12.06c0.17-0.63 0.33-1.9-1.34-1.48-9.7 2.39-15 5.52-17 6.84 0-1.32 0.38-3.69 0.61-5.35 0.35-2.42 6.21-7.88 7.09-8.13 2-0.3 10.4 3.87 11.51 7s0.5 9.94-2.96 12.72zm-8-8.92a88.15 88.15 0 0 1 9.1-3c-1.77 5.63-5.76 11.24-6.67 11.29-0.67-0.09-1.83-4.08-2.42-8.29z"/>
  <path d="m141.57 178.42c2.51-13 4.87-22 8.28-25.74 24.15-26.22 39.22-33.07 43.51-34.69 0.22-0.07 2.91-1.29 1.46 1.63-2.28 4.62-10.51 22.51-18.22 33a8.59 8.59 0 0 1-3.41 3.23 207 207 0 0 0-30 22.66c-0.19 0.14-1.67 0.18-1.62-0.09zm52.43-59.57c-4.44 1.77-19.81 9.56-43.16 34.87-3.2 3.47-6 13.56-8 23.65 16.43-14.8 29.72-23.26 31-24 7.86-9.83 17.67-29.25 20.16-34.52z"/>
  <path d="m136.09 183.89c-0.22-1.45-0.77-5.43-0.77-6.51 0-0.35 1.22-0.07 1.22 0.28 0 1 0.38 3.43 0.58 4.75z"/>
  <path d="m140.64 179.5c-4.94-5.51-10.24-24.84-8.9-28a213.29 213.29 0 0 1 17.8-33c0.75-1.16 6.4-9.53 9.35-12.44 1.32-1.31 2.11-1.56 2.16 0.82 0.07 2.93-0.19 10.41-2.49 32.61-0.3 3-0.54 5.28-0.65 6.49 0 0.35-1.69 0.73-1.65 0.38 0.11-1.21 0.35-3.54 0.66-6.5 0.91-8.87 3.08-28.87 3.08-33.48-3.31 3.5-16.92 22.5-26.72 45.74-1 2.44 3.53 21.17 8.34 26.52 0.2 0.27-0.86 1-0.98 0.86z"/>
  <path d="m140.16 180.08c-5.33-2.2-12-5.45-15.54-12.14-2-3.9-3.53-12.48-4.26-17.26-0.61-4-1.07-9.3-1.17-10.93-0.16-2.68 0.64-2.63 2.18-1.14 0.8 0.79 2.13 2.1 4 4.23 2.27 2.59 5.36 6.15 7.43 9 0.21 0.28-0.87 1.26-1.08 1a170.35 170.35 0 0 0-11.58-14c0.3 4.66 2.73 22.6 5.76 28.42 3.29 6.33 9.61 9.57 14.75 11.68 0.35 0.1-0.41 1.18-0.49 1.14z"/>
  <path d="m172.33 315.67c-0.51-2.17-2-7-8.66-12.45-3-2.4-6.4-8-7.93-11.84-0.69-1.72-0.14-2 0.66-0.41 1.58 3 5.57 8.77 8.34 11 6.51 5.29 8.37 11.31 8.72 13.65 0.07 0.47 0.13 0.43 0.41 0.14 2.55-2.59 9.33-12.84 4-28.68-0.62-1.86 0-2.1 0.77-0.29 7.41 18.72-3.39 29.16-3.83 29.6-1.26 1.23-1.99 1.38-2.48-0.72z"/>
  <path d="m185.51 289.06a23.74 23.74 0 0 0 0.25-7.12c-0.22-1.64 0.53-1.83 0.85-0.29a19.79 19.79 0 0 1 0.51 6.77c-0.03 0.22-1.64 0.86-1.61 0.64z"/>
  <path d="m194.08 281.07c2.49-11.17-0.42-28.36-2.37-34-0.35-1 0.14-1.2 0.58-0.24 2.16 4.66 5.75 22.76 3.31 33.18-0.07 0.29-1.6 1.4-1.52 1.06z"/>
  <path d="m189.66 326.12c-6-4.56-10.55-13.36-10-23.59 0.59-11.18 12.3-20.76 18-23.74 2-1 2.3-0.37 0.49 0.89-4.76 3.3-16.32 12.55-16.87 23-0.38 7.32 0.86 16 10.13 23.38 0.19 0.14 0.27 0.67-0.56 0.56a1.7 1.7 0 0 1-1.19-0.5z"/>
  <path d="m190.67 326.7c-14.62-2.81-26.74-13.22-30.29-18-1.24-1.67-0.72-2 0.61-0.63 8.83 9 19.06 15 28 17.06 0.85 0.15 2.95 1.86 1.68 1.57z"/>
  <path d="m141.21 319.99c-1.6-11.87 0.06-21.57 5.21-31.85 0.22-0.42 1.44 0.12 1.25 0.55a58.89 58.89 0 0 0-5.3 30.67c0.04 0.48-1.11 1.08-1.16 0.63z"/>
  <path d="m208.43 332.99c-0.71-0.73-1.92-2.15-4.11-4.92-1 2.35-1.62 3.66-2 4.4-1.11 2-1.7 0.85-1.88-0.41-0.14-1-0.28-2.82-0.45-6.14a70.71 70.71 0 0 1-7.92 2.38c-1.93 0.35-1.59-0.81-1.29-1.44a27.51 27.51 0 0 1 3.4-4.68c0.61-0.72 1.16-0.36 0.64 0.43-1.65 2.51-3 4.53-3 4.62s5.34-1.79 8.51-2.8c0.36-0.11 0.81-0.19 0.85 0.58 0.1 2.17 0.15 6.68 0.26 6.67s1.43-3.51 2.09-5.1c0.3-0.72 0.74-0.59 1.09-0.15 1.63 2.07 4.53 5.86 4.61 5.84s0-5.21 0.06-8.13a0.64 0.64 0 0 1 0.28-0.52c7.22-5 19.38-16.67 19.63-37.95 0.22-19.46-8.54-36.46-12.51-44.2-0.16-0.32 1.7-0.14 1.86 0.18 4 7.83 13 23.85 12.78 43.63-0.25 21.58-12.75 34-20.76 39.2a79.52 79.52 0 0 1-0.29 8c-0.23 1.86-1.1 1.27-1.85 0.51z"/>
  <path d="m194.08 332.17a28.29 28.29 0 0 1-6.19-0.54c-0.79-0.24-1.51-0.58-0.29-1.87a26.12 26.12 0 0 1 3.25-2.65l0.85 1c-1.22 0.89-3 2.1-3.49 2.52a56.5 56.5 0 0 0 6.86 0.22c0.32 0-0.16 1.26-0.51 1.27z"/>
  <path d="m176.92 333.34a52.78 52.78 0 0 0 7.36-8.27c0.31-0.41-1.19-1.23-1.54-0.83a61.73 61.73 0 0 1-7 7.06z"/>
  <path d="m166 340.57a58.69 58.69 0 0 1-6 2.42c-2.06 5.13-2.53 5.7-3 5.7h-0.18c-0.4-0.06-0.69-0.11-2.45-5-1.81 1.33-2.86 2-3.5 2.41-1.21 0.69-1.71 0.7-1.56-1.17 0.06-0.73 0.24-1.86 0.57-3.64h-1.45c-0.35 0-0.43-1.2-0.08-1.2h2.3c0.71 0 0.74 0.2 0.63 0.76-0.27 1.4-0.79 3.36-0.9 4.34 0.89-0.58 2.63-2 3.92-3 0.39-0.3 0.75-0.36 1 0.29 0.56 1.57 1.24 3.79 1.67 4.8 0.47-1 1.45-4.43 1.81-5.17a2 2 0 0 1 1.06-0.89q2.76-1.25 5.13-2.55z"/>
  <path d="m245.36 160.83c-6.79 7.09-16.64 15-29.28 23.4-13.1 8.74-17.4 12.51-22.2 19.1-1 1.34-1.78 1.11-0.85-0.47 4.89-8.28 9.84-11.87 21.97-19.87 12.39-8.26 22.4-16.28 29.3-23.3z"/>
  <path d="m256 143.91a13.63 13.63 0 0 0 0.25-2.57c0-0.47-1.73-0.37-1.7 0.1a9.21 9.21 0 0 1-0.38 3z"/>
  <path d="m151 218.68c-12-3.32-50.53-22.83-60.89-34.59-5.17-5.87-13.2-21.67-23.06-61.78-0.27-1.09-0.48-2-0.53-2.12a16 16 0 0 0-1.88-2.2c-4.52-5-16.06-16.27-20.85-20.41-1.06-0.92-0.69-1.42 0.43-0.61 4.78 3.43 16.34 14.43 21.34 19.89a15.44 15.44 0 0 1 2.35 2.95c0.07 0.2 0.22 0.82 0.56 2.21 9.79 39.86 17.9 55.1 23 60.86 10.24 11.62 48 31.28 59.84 34.56 0.32 0.1-0.31 1.25-0.31 1.24z"/>
  <path d="m151.48 210.79c-13.06-3.65-48.84-22.16-58-34-7.68-9.91-16.38-42.69-19.6-54.31-0.94-3.4-0.52-3.91-3.46-7.27a154 154 0 0 0-22-20.1c-14.42-11.04-32.57-25.12-40.72-32.42-1-0.91-1.69-0.7-2.31 0.77a27.29 27.29 0 0 0 0.47 21.19c2.84 6.39 39.81 33.19 43.36 35.24 1.61 0.93 2.19 0.54 0.48-0.89-2.55-2.14-39.97-29.27-42.7-34.87-3.31-6.91-1.33-16.14-0.44-20.14 8.16 7.37 26 21.89 40.37 32.92a167.53 167.53 0 0 1 22 19.66c2.75 3.09 2.27 3.29 3.12 6.58 3.17 12.44 11.95 44.55 19.95 54.78 9.56 12.35 45.48 30.71 59.06 34.5 0.04 0.02 0.88-1.52 0.42-1.64z"/>
  <path d="m48.46 139.12c-16.46-6.53-39.03-25.07-42.09-29.31-2.74-3.79-2.62-14.43-2-17.11 0.39-1.6 0.91-1.28 2.14-0.67 2 1 6.67 3.88 19.1 11.74 8.18 5.17 16.64 10.51 18.15 11.11a34.39 34.39 0 0 1 3.77 3.64c-1.62-0.65-13.8-7.61-22.41-13-7.67-4.92-19.02-12.16-19.28-12.16s-0.91 12.28 1.56 15.71c2.62 3.62 26.51 21.6 41.43 29.12 2.38 1.2 2.17 1.92-0.37 0.93z"/>
  <path d="m68.3 223.32c-2.76-0.84-8.18-4.8-8.81-7.5s6.68-16.77 11-24.46c-8.11 8.13-21.21 16.12-24.65 16.45-1.29 0.13-5.68-3.48-6.31-5.3a1.18 1.18 0 0 1 0.32-1.43c2.9-2.09 14.15-10.53 19.27-15.26-8.51 5.86-19 10.9-21.93 10.35s-9.73-6.37-10.63-10.69a1.07 1.07 0 0 1 0.64-1.25c5.27-2.21 19.65-9.22 24-12-11.44 3.8-28 3.5-30 2.69-2.52-1-6.6-11.8-6.31-13.14a0.74 0.74 0 0 1 0.76-0.61c4.31 0.19 21.24-1.45 30.49-5.33-19.34-1.1-30.27-7.42-35.16-11.2-4.46-3.44-3.79-12.19-3.05-15 0.39-1.46 1.08-1.18 1.92-0.89a136.82 136.82 0 0 0 33.77 6.87c0.35 0 0.68 1.37 0.31 1.35a101.76 101.76 0 0 1-34.76-7.1c-0.6 1.97-1.17 10.46 2.83 13.49 4.86 3.76 16 9.75 35.45 11.2 2.26 0.17 3.09 0.49 0.4 1.9-8.27 4.32-23 6.45-31.65 6 0.42 2.28 4 10.66 5.49 11.28 2 0.79 19.9 0.29 30.78-3.5 4.71-1.64 5.23-1.13 1.15 1.93-7.86 5.89-21.28 11.64-25.77 13.21 0 1.69 7.52 9.19 9.6 9.57 1.78 0.32 18.38-7.88 25.66-13.88 3.49-2.88 4.11-2.27 1.27 1.24-6.38 7.86-18.49 16.43-23.71 19.68a28.11 28.11 0 0 0 5.15 4.51c0.45 0.08 15.4-8 24.62-17 3.67-3.56 3.9-3.26 1.65 1.41-4.64 9.66-11.72 23-11.35 24.53 0.64 2.61 8 6.54 8.36 6.48s1.78-3.1 3-5.43c2.37-4.38 6.18-10.59 10.54-15.07 1.53-1.56 2-1 0.64 0.7a99.93 99.93 0 0 0-10 15.62 41.86 41.86 0 0 1-2.84 4.84 1.85 1.85 0 0 1-2.14 0.74z"/>
  <path d="m109.1 251.08c-3.24-1-11.54-5.83-12.22-7.42s-1.29-16-0.93-26.5a143 143 0 0 0-1.65 16.18c-0.15 2.59-0.26 4.14-0.38 5.07-0.28 2.08-1 1.71-1.81 1.61a22.82 22.82 0 0 1-6.6-2.34c-1.77-1-2.68-1.95-2.77-2.94-0.81-8.89 0.71-18.62 1.71-23.71-1.48 2.64-5.76 12-6.21 12.82-0.69 1.16-1 1-1.84 0.9a5.22 5.22 0 0 1-3.14-1.76c-1.2-1.5 1.1-8.46 2.58-12.48 0.12-0.33 1.32 0.11 1.2 0.44-2.28 6.21-3.21 10.64-2.78 11.24a5.37 5.37 0 0 0 2.62 1.14c0.17-0.08 3.94-9 6.77-13.51 2.38-3.79 3.09-4.17 2.12 1.09-1.7 9.22-2 23.24-1.76 23.7 0.7 1.18 5.7 3.52 8.55 4.16 0.14 0 0-3.31 0.19-5.65 0.33-5.42 1-13 2.48-18.85s2-5.54 2.11 0.32c0.2 10.71 0.37 27.06 0.89 28.33s11.4 6.87 11.56 6.76-0.21-4.33-0.38-7.93a140.27 140.27 0 0 1 0.54-22.36c0.29-2.22 0.9-2.24 0.85-0.06-0.16 6.45 0 15.77 0.25 22.23 0.21 4.54 0.3 6.88 0.21 8.12-0.14 1.94-0.97 1.78-2.16 1.4z"/>
  <path d="m122.39 257.75c-1.85 0-4-0.37-4.8-1.14-5.23-5.23-8.24-23.21-8.24-28 0-0.36 1.28-0.36 1.28 0 0 4.1 2.86 22.05 7.86 27.05 0.81 0.81 5.94 0.57 6.09 0.48a27 27 0 0 0-0.42-3.89 146.46 146.46 0 0 1-1.16-23.55c0.12-2.27 0.85-2.22 0.82 0a187.83 187.83 0 0 0 1.61 23.39 27.3 27.3 0 0 1 0.41 4.37c-0.1 0.46-0.48 0.79-1.14 1a9 9 0 0 1-2.31 0.29z"/>
  <path d="m129 255.53c-1.15-1-3.67-7.28-5.15-13.81a20.21 20.21 0 0 1-0.06-6.12c0.58 5.82 5 18.12 6 18.95s3.76 0.55 4.52 0.22c-0.06-0.33-3.17-10.24-2.83-18.29 0.07-1.6 0.56-1.69 0.7-0.08a130.48 130.48 0 0 0 3.32 17.81c0.22 0.91 0.45 1.43-1.11 1.87-1 0.31-3.86 0.69-5.39-0.55z"/>
  <path d="m138.93 254.56a3.32 3.32 0 0 1-1.76-0.54c-0.79-0.47-2.52-3.86-3.86-7.26-1-2.58-0.89-7.9-0.89-7.55 0 2.69 4.72 13.19 5.71 13.93a2 2 0 0 0 2 0.17l0.12 1a5.27 5.27 0 0 1-1.32 0.25z"/>
  <path d="m141.78 245.42c0-0.7-1.14-5.56-1.57-8.33-0.37-2.36 0.18-2.49 0.77-0.3s1.49 5.15 1.68 6.07c0.24 1.13-0.88 2.91-0.88 2.56z"/>
  <path d="m202.16 203.12c4.51-6.75 10-11.3 17.14-16.74 1.58-1.21 8.42-6.35 9.67-7.29 10.75-8.18 14.2-11.38 18.51-16.23 0.24-0.27 1.38 1 1.14 1.24-4.38 4.93-7.87 8.18-18.76 16.46-1.22 0.93-8.16 6.14-9.79 7.39-6.91 5.29-11.14 8.61-17.25 15.75-0.94 1.1-1.53 0.73-0.66-0.58z"/>
  <path d="m264.16 84.472c-10.45-11.54-24.85-33.39-26.66-43.82-1.12-6.41 3.38-14.19 5.88-16.53 1.13-1.07 1.92-0.75 2.4 0.27 4.14 8.93 19.89 36.57 29.58 45.92 1.44 1.39 0.76 1.88-0.72 0.55-10.25-9.27-23.49-31.36-30.07-46.11-1.47 1-6.66 10.7-5.81 15.71 1.24 7.53 17.46 33.06 27.36 44.46 0.23 0.27-1.83-0.31-1.96-0.45z"/>
  <path d="m268.08 86.242c-13.44-8.77-29.51-28.93-31.82-32-0.66-0.87-1.23-1.19-2.08 0.22-2.08 3.53-5.34 14.53-4.42 19.6 0.68 3.67 18.13 20.41 28.32 28.18-11.81-5.35-27.91-18-28.61-18.45-0.94-0.59-1.62-0.61-2 0.64-1.12 3.72-3.21 15.22-1.24 20.75 1.35 3.82 22.51 14.2 32.63 17a12.48 12.48 0 0 0 4.51-0.3c-7.92-1-34.76-14.77-36-17.24-1.34-2.69 0.5-17.42 1.26-19.83 7.47 6.27 18.22 14.34 31.16 19.62 4.85 2 5.44 1.34 0.92-2.14-9.43-7.24-29-25.53-29.71-28.49-0.8-3.45 3-16.5 4.25-18.69 3.79 5.12 17.74 23.46 32.52 32 1.93 1.07 2.23 0.35 0.31-0.87z"/>
  <path d="m295.73 155.53c-4.11 25.92-11.4 37.84-14.81 41.22-1.23 1.22-1.92 1.08-3.17 0.39a21.85 21.85 0 0 1-6.19-5.63 1.5 1.5 0 0 1-0.12-1.69c15.3-23.56 14.1-43.94 14.09-44.13 0-0.79-0.14-1.39-1.09-0.44-8.63 8.63-34.3 19.29-35.19 18.71s-12.89-14.79-13.39-16.45c12-0.11 26-3.1 35.31-8.74 3.72-2.25 3.39-2.87-0.7-1.57-16.34 5.23-33.06 3-33.79 2.6s-7.68-17.26-7.49-17.64 5.71 0.14 10.66 0.43a183.13 183.13 0 0 0 25 0c2.22-0.16 2.13-0.84-0.11-0.84-9.62 0-18.34-0.37-24.95-0.76-5.93-0.36-9-0.52-10.54-0.19a1.35 1.35 0 0 0-1.25 1.72c0.49 4 6.6 17.48 8 18.34 0.72 0.43 5.5 1.4 12.23 1.4a68.37 68.37 0 0 0 17.21-2.17c-7.89 3.33-17.62 5.37-29.08 6.08-1.6 0.1-2.36 0.31-1.39 2.25 2 4.1 9.74 13.5 12.46 15.9a2.85 2.85 0 0 0 3.1 0.86c6.44-1.09 25.56-10.32 33.69-18-0.55 5.87-2.74 22.51-13.88 41.95a3 3 0 0 0 0.06 2.9c1.12 2.35 4.24 5 6.59 6.27 1.86 1 2.86 1.12 4.76-0.58 4.45-4 12-17 14.88-42 0.23-1.88-0.63-2.05-0.9-0.19z"/>
  <path d="m302.43 119.6c-3.69-29.5-8.88-46-22.81-71.45-2.54-4.62-5.16-9.31-7.69-13.85-6.83-12.23-13.84-23.7-18.18-32.89-0.95-2-1.85-1.85-2.77 0.29-2.7 6.29-4.26 15.09-3.64 17.29s8.66 26.09 20.35 43.68a14.92 14.92 0 0 0 2.39 1.8c-8-12.88-21.41-45.29-21.51-45.83s1.43-11.53 3.62-16.53c4.31 9.26 10.81 20.88 17.65 33.14 2.53 4.54 5.15 9.23 7.68 13.84 13.81 25.18 19.14 41.78 22.8 71 3.52 28.14-5.2 69.77-12.78 82.55-0.45 0.76-0.58 0.91-1.32 1.08a17.91 17.91 0 0 1-4.05 0.46c0.19-0.46 6.59-13.24 8.11-22.15 0.17-1-0.75-1.34-1-0.37-1.79 7.51-8 21.38-8.19 21.78-0.86 2 0.13 2 1.47 2 1.54 0 5.25-0.1 5.87-1 7.88-11.86 17.64-55.72 14-84.84z"/>
  <path d="m208 223.14a5 5 0 0 1-3.73-2.27c-0.83-1.53 0.71-8.74 1-9.71 0.49-1.69 1.11-1.48 0.86 0.25-0.1 0.71-1 8.45-0.76 8.81a5.11 5.11 0 0 0 2.77 1.55c0.37 0.05-0.09 1.37-0.14 1.37z"/>
  <path d="m216.11 240.28c-0.55-0.14-8-3.09-8.55-4.55-0.51-1.28 0.06-14.9 1-19.64 0.38-1.95 0.84-1.86 0.79 0-0.18 6.37-0.74 17.94-0.43 19 0.5 0.78 6.53 3.53 7.51 3.78 0.34 0.12-0.27 1.42-0.32 1.41z"/>
  <path d="m215.94 241.26c-0.72-0.88-0.3-17.84 0.09-22.08 0.15-1.53 0.77-1.41 0.79 0 0.08 5.21 0 21 0.21 21.28a47.55 47.55 0 0 0 8.21 0.69c0.29-0.22 2.95-16 3.66-24.2 0.16-1.8 0.77-1.63 0.83 0.21 0.25 7.44-2.46 24.31-3.82 25.11s-9.09 0.06-9.97-1.01z"/>
  <path d="m233.13 239.13c-0.32-1.28-0.9-4.19-2.14-10.64-0.58-3-1.18-6.1-1.6-8.17a15.74 15.74 0 0 1 0.2-4c0.37 1.5 2.09 7.45 2.95 11.9s1.72 10.9 1.92 10.93a90.38 90.38 0 0 0 8.74-2.37c0.16-0.25-1.89-14.27-3-19.44-0.65-3.09 0-3.3 1.45-0.64 3.84 6.91 10.33 17.85 10.64 17.92s9.2-5.17 9.54-6-3.9-11.24-5.94-14.79c-1.37-2.36-0.77-3.31 1-0.89s7 10.11 7.27 10.27 3.09-2.4 3.25-2.83-9.81-17.94-10.5-19.43c-0.93-2-0.34-2.14 0.8-0.16 0.38 0.67 11.82 18.22 11.13 19.86a9.34 9.34 0 0 1-4 3.67 1.2 1.2 0 0 1-1.7-0.33c-0.5-0.68-1.58-2.35-2.92-4.24 1.77 3.93 3.32 8.08 2.81 9.35-0.76 1.9-5.63 4.73-9.85 6.67a1.3 1.3 0 0 1-1.79-0.23c-1.11-1.32-3.52-5.07-9.29-15.41 1.38 6.41 3 16.57 2.07 17.5s-7.2 2.6-9.49 2.77c-0.68 0.03-1.23 0.02-1.55-1.27z"/>
  <path d="m275.2 219.68c-3.63-2.05-10.28-8.07-14.6-13.21a16.74 16.74 0 0 1-2.51-5.06c4.1 6.07 16.26 16.47 18 17.39a61.2 61.2 0 0 0 7.9-7.87c-0.42-1-8.93-13.29-10-15-0.2-0.3 1.85 0.49 2.31 1.16 0.95 1.41 9.14 11.63 9 13.88-0.08 2.06-5.52 7-8.08 8.56a1.79 1.79 0 0 1-2.02 0.15z"/>
  <path d="m283.17 200.29q-0.71-0.87-1.44-1.71l-0.88-1-1.53 0.67c0.46 0.52 0.92 1 1.35 1.54l1.79 2z"/>
  <path d="m293 192.43c1.34 2.81 2.2 4.94 2.15 5.7-0.11 1.7-5.21 7.74-7.35 8.48a1.2 1.2 0 0 1-1.22-0.2c-0.23-0.23-0.79-0.85-1.58-1.74l1.47-0.3a5.24 5.24 0 0 0 0.92 1c0.45 0.1 6.47-6.77 6.5-7.44a37.07 37.07 0 0 0-1.7-3.63z"/>
  <path d="m280.44 169.51-0.84-1.39c-1.75-2.83-2.31-2.09-0.88 0.37 0.22 0.39 0.67 1.2 1.26 2.32z"/>
  <path d="m271.82 187.89c-0.84-0.86-1.62-1.62-2.28-2.25-1.77-1.67-2.25-1.38-0.69 0.59 0.63 0.81 1.39 1.72 2.24 2.71z"/>
  <path d="m171.47 372.18c-0.25-1.67 1.08-2.38 2.21-2.79 0.44-0.16 1.15-0.41 1.62-2.11a22.52 22.52 0 0 0 0-8.55c-2.57-10.26-12-21.34-17-26.3-0.33-0.34 0.24-2.15 0.58-1.82 5.43 5.18 15.38 17.07 18 27.69a22.35 22.35 0 0 1 0 9.44c-0.72 2.56-1.75 2.52-2.75 3a15.06 15.06 0 0 0-1.42 0.79c0.15 0.46-1.18 1.05-1.24 0.65z"/>
  <path d="m182.08 343.89a92.69 92.69 0 0 0-9-14.74 56.05 56.05 0 0 1-5.36-8.34 13.57 13.57 0 0 0-1.95-3.06c-1.12-0.56-5.93-1.34-8.08-0.62-1 0.46-6.6 7.44-7.06 8.6a40.75 40.75 0 0 0-0.18 7.1 2.75 2.75 0 0 0 3 2.37 10.76 10.76 0 0 0 3.62-1.45c0.92-0.75 0.29-3.33 0.45-4.33 0.24-1.4 3.62-2.77 4.72-2.77 1.44 0 4 2.58 5.58 4.64 1.45 1.9 0.87 2.32-0.74 0.78-2.09-2-4.27-3.64-4.86-3.72a6.11 6.11 0 0 0-3 1.46c-0.19 0.45 0.31 3.84-1.19 5.06a13.61 13.61 0 0 1-4.92 1.95c-1.59 0.35-4-1.41-4.09-3.94-0.13-3.27-0.44-6.55-0.17-7.63s6.51-9.42 8.29-10c2.56-0.85 7.94 0.23 9.46 1 0.85 0.42 1.54 1.68 2.68 3.76a54.38 54.38 0 0 0 5.21 8.1c3.89 4.87 7.48 10.95 8.79 15.34 0.57 2.17-0.19 2.39-1.2 0.44z"/>
  <path d="m141.34 338.91a9.92 9.92 0 0 1-2.76-3.16c0-0.1-4.34-9.62-2.65-11.32 0.09-0.08 8.78-8.64 10.3-8.94 0.67-0.13 7.39 1.7 9.19 1.92 0.47 0.06-0.88 1.6-1.19 1.55-1.41-0.21-6.17-1.44-6.73-1.58-0.83-0.22-0.89-0.5-2 0.37-1.95 1.59-6.38 5.8-8 7.46-0.32 1.19 1.78 7.88 2.65 9.85a9.83 9.83 0 0 0 2.5 2.93c0.83 0 3.63-0.72 4-1.21 0.23-0.5-0.23-3.43-0.42-4.7-0.16-1-0.69-2.85 0.26-3.68a3.94 3.94 0 0 1 2.59-0.71v1.7c-0.92 0-1.26 0.07-1.36 0.22a10.73 10.73 0 0 0 0.23 2.21c0.46 3 0.69 4.93 0 5.77s-3.17 1.56-4.71 1.75a2.39 2.39 0 0 1-1.9-0.43z"/>
  <path d="m133.6 343.5c-1.13 0.06-3-1.42-3.84-2.59s-2.91-8.94-2.91-9.73c0-1.66 7.59-6 9.44-6.75 0.44-0.17 0.73 1.26 0.3 1.46a42.57 42.57 0 0 0-8 5.51c0.19 1.43 1.83 8 2.36 8.73a6.37 6.37 0 0 0 2.41 1.87 4.54 4.54 0 0 0 4-1.93c0.18-0.44-0.43-2.53-0.64-3.31a8.08 8.08 0 0 1-0.33-1.66c0-0.64 0.39-1.53 2.23-2.14 0.44-0.15 1 1.46 0.54 1.61-0.77 0.26-1 0.52-1.07 0.59s0.17 0.72 0.29 1.17c0.48 1.9 0.79 3.31 0.39 4.2-0.77 1.72-3.34 2.97-5.17 2.97z"/>
  <path d="m181.62 340.44c3-1.5 12.68-7.81 13.39-8.8a12.34 12.34 0 0 0-0.13-4.62c-0.07-0.46 1.75-0.92 1.82-0.45 0.3 2.16 0.33 4.61-0.21 5.87-0.66 1.53-12.42 8.28-14.16 9.15-0.12 0.06-1.13-0.94-0.71-1.15z"/>
  <path d="m175.66 378.53a2.65 2.65 0 0 1-1.61-0.66c-0.37-0.29 0.4-1.37 0.78-1.08 0.58 0.45 2.34-0.2 3.29-0.53 1.41-0.49 3.34-1 4.21-1.26 1.45-0.48 2.1-0.7 2-4.83a33.86 33.86 0 0 1 1.06-11 81.82 81.82 0 0 0 1.55-8.82c0.15-1.19 0.18-1.07 0.95-1.63 1-0.71 14.62-9.1 15.13-10.07 0.54-1.62 0.54-7.93 0.54-11.31h1.7c0 5 0.4 10.15-0.19 11.92-0.4 1.18-15.89 10.34-16.7 11a64.17 64.17 0 0 1-1.21 9.37 32.08 32.08 0 0 0-1.16 10.48c0.15 4.24-0.14 5.68-2.73 6.54-0.92 0.31-3.41 0.78-4.56 1.21a8.63 8.63 0 0 1-3.05 0.67z"/>
  <path d="m90.16 398.56a6.09 6.09 0 0 1-3.86-2.91 12.51 12.51 0 0 1-1-2.61 19.83 19.83 0 0 0-2-3.86 4.18 4.18 0 0 1-0.57-3.62c0.53-1.66 11-9 11.58-9.3a17.92 17.92 0 0 1 3.74-0.86c2.6-0.47 6.14-0.62 10.39-1.83 8.68-2.49 27-15.59 28.33-16.9s5.15-11.69 6.38-16.63c0.12-0.45 1.61 0.48 1.49 0.94-1.16 4.64-5.24 15.25-6.93 16.94-1.39 1.39-19.7 14.46-28.85 17.07a103.92 103.92 0 0 1-10.59 2.36 22.29 22.29 0 0 0-3.28 0.71c-1.46 0.74-10.15 6.81-10.61 8.05a4.27 4.27 0 0 0 0.71 2.3 26.56 26.56 0 0 1 1.68 4.27 14.23 14.23 0 0 0 0.81 2.2c1.09 1.69 2.91 2.47 3.37 2.34a10.25 10.25 0 0 0 3-2.18 7.93 7.93 0 0 0-0.67-3.58c-0.38-0.88-0.94-2.1-0.52-3.14 0.32-0.81 2.4-2.72 4.32-3.81s13.53-2.23 14.4-2c3 0.67 8.57 4.76 8.53 6.06 0 0.81-1.18 1.63-1.93 2.26-0.14 0.13-0.26 0.33-0.14 0.95 0.09 0.46-1.18 1.17-1.28 0.71-0.27-1.26-0.21-2.16 0.42-2.78s1.35-1.08 1.56-1.35c-1-1-6.34-4.25-7.24-4.4s-12.83 1.28-13.63 1.85a34.58 34.58 0 0 0-3.41 3.18c-0.12 0.3 0.12 0.76 0.52 1.78s1 4 0.31 5a12.23 12.23 0 0 1-3.37 2.52 2.91 2.91 0 0 1-1.66 0.27z"/>
  <path d="m120.47 396.65c-0.47 0-0.28-1.26 0.19-1.26 0.79 0 1.86-1.38 2-1.55a15.63 15.63 0 0 0 1.08-2c0.32-0.66 0.69-1.44 1.15-2.31 1.12-2.08 1.17-2.82 0.81-4.65-0.21-0.79-3.43-3.93-6.28-6.38-0.71-0.61-0.78-0.7 0-1.32 1.48-1.12 7.08-4.34 13-7.74 5.23-3 11.74-6.75 12.37-7.37 0.41-0.5 5.64-14.77 6.71-17.06 0.16-0.36 2.85-1.89 2.63-1.48-1 1.93-7.33 19.07-7.89 19.7s-4.4 2.74-12.85 7.6c-4.8 2.76-10.35 5.53-12.57 7 2.19 1.92 6.22 5.37 6.5 6.76 0.45 2.32 0.05 3.41-1.19 5.74-0.45 0.85-0.82 1.6-1.13 2.25a8.83 8.83 0 0 1-1.41 2.43 4.53 4.53 0 0 1-3.12 1.64z"/>
  <path d="m76.11 398.41a6.22 6.22 0 0 1-1.32-0.15c-2.29-0.49-2.78-1.57-3.25-4.25-0.22-1.2-1-8.07 0.52-9.41 1-0.89 9.06-6 11.76-7.48 1.88-1 8.24-0.15 9.73 0.14 0.46 0.09-0.81 1.2-1.37 1.16-2.65-0.19-6.52-0.21-7.39 0.26-2.69 1.45-10.55 6.56-11.37 7.27s-0.38 7.1-0.38 7.75c0 2.15 1.07 2.93 2.16 3.17a3.48 3.48 0 0 0 3.4-0.94c0.47-0.41 0.23-3.83 0.19-5.05 0-1-0.17-2.13 0.52-2.81s2.39-0.89 3.85-1.11c0.25 0 0.68 1.59 0.23 1.66a14.51 14.51 0 0 0-2.9 0.67 4.6 4.6 0 0 0 0 1.45c0 0.34 0.62 5-0.84 6.21a5.19 5.19 0 0 1-3.54 1.46z"/>
  <path d="m71 403.09a3.12 3.12 0 0 1-2.14-0.78 6.17 6.17 0 0 1-2.37-4.18 45.41 45.41 0 0 1-0.64-5.66c0.09-1.17 4-5.66 5.81-7 0.38-0.27 1 1.55 0.57 1.83a24.41 24.41 0 0 0-4.67 5.21c-0.08 0.35 0.43 3.95 0.44 5.39a5.27 5.27 0 0 0 2 3.4c0.75 0.67 2.22 0.19 2.83-0.28s0.77-2.91 0.82-3.63c0-0.47 1.73-0.35 1.7 0.12-0.14 1.91-0.42 3.79-1.57 4.65a4.82 4.82 0 0 1-2.78 0.93z"/>
  <path d="m171.55 378.43a17.21 17.21 0 0 1-5-0.78c-1.58-0.72-0.89-1.26 0-1.85a31 31 0 0 0 4.76-3.89 1.7 1.7 0 0 1 1.24-0.54 3.15 3.15 0 0 1 2.61 2.43c0 0.13 0.57 3.24-0.91 4.12a5.53 5.53 0 0 1-2.7 0.51zm-4.61-1.7a24.34 24.34 0 0 0 4.68 0.54c1.78 0 2.32-0.14 2.41-1.76a5.75 5.75 0 0 0-0.09-1.48c-0.16-0.69-1.08-1.75-1.69-1.22a62.22 62.22 0 0 1-5.31 3.92z"/>
  <path d="m117.84 397.5a15.51 15.51 0 0 1-4.25-0.64c-1.43-0.59-1.16-1-0.24-1.73a18.74 18.74 0 0 0 2.63-2.31c0.26-0.27 0.52-0.55 0.81-0.84a1.72 1.72 0 0 1 1.24-0.52 3.49 3.49 0 0 1 2.77 2.08c0.47 1.06 0.54 2.87-0.52 3.51a5 5 0 0 1-2.44 0.45zm-4.07-1.51a23.85 23.85 0 0 0 4.13 0.38 6.67 6.67 0 0 0 1.19-0.09c0.46-0.08 0.77-0.2 0.81-0.88a3.13 3.13 0 0 0-0.21-1.37c-0.32-0.74-1.49-1.73-2-1.2-0.27 0.27-0.53 0.54-0.77 0.8a10.27 10.27 0 0 1-3.15 2.36z"/>
  <path d="m157.23 342.15a15.73 15.73 0 0 1-5.61-5.65c-0.15-0.32 1.31-0.64 1.46-0.32a15.48 15.48 0 0 0 4.76 5.12 17.58 17.58 0 0 1-0.77-6.54c0-0.2 1.36-1.06 1.34-0.71a23.52 23.52 0 0 0 0.44 6.7c0.52 2.51-1.26 1.6-1.62 1.4z"/>
  <path d="m96.73 400.58a17 17 0 0 1-6.8-2.17c-0.3-0.19 1.2-0.9 1.5-0.72a14.29 14.29 0 0 0 5.68 1.94 26.18 26.18 0 0 1-2.69-3.71c-0.13-0.23 0.59-1.61 0.76-1.3a27.25 27.25 0 0 0 2.39 3.72c1.07 1.46 1.2 2.24-0.84 2.24z"/>
  <path d="m75.05 406.15c-1.76-0.55-4.29-1.87-5.37-3.55-0.19-0.3 1.41-0.24 1.63 0a13.31 13.31 0 0 0 4.08 2.69 12.54 12.54 0 0 1-1.55-4.21c-0.11-0.61 1-2.35 1.06-2a14.68 14.68 0 0 0 1.4 5.68c0.77 1.69-0.24 1.71-1.25 1.39z"/>
  <path d="m78.54 402.99a12.71 12.71 0 0 1-4.08-5.09c-0.13-0.33 1.07-0.78 1.19-0.44a13.89 13.89 0 0 0 3.57 4.83 34.22 34.22 0 0 1-0.26-6.91c0.05-0.36 1.32-0.19 1.27 0.16a30 30 0 0 0 0.12 6.59c0.2 2.1-1.45 1.14-1.81 0.86z"/>
  <path d="m147.35 344.26a14.46 14.46 0 0 1-5.43-5.12c-0.17-0.31 1-0.91 1.12-0.6a15.68 15.68 0 0 0 5 5 17.71 17.71 0 0 1-1.07-6.22c0-0.31 1.3-1.26 1.29-0.9a21.64 21.64 0 0 0 0.76 6.45c0.57 2.19-0.78 1.84-1.67 1.39z"/>
  <path d="m138.73 347.99a15.72 15.72 0 0 1-6.2-4.77c-0.2-0.29 1.18-0.82 1.38-0.52a16.08 16.08 0 0 0 5.5 4.57 22.28 22.28 0 0 1-1.71-6.21c0-0.31 1.17-1.36 1.19-1a21.81 21.81 0 0 0 1.37 6.36c0.74 2.17-0.68 1.89-1.53 1.57z"/>
  <path d="m72.77 380.89a18.54 18.54 0 0 1 6.38-1c0.47 0 0.3 1.73-0.17 1.7a18 18 0 0 0-5.84 0.49c-0.09-0.01-0.82-1.03-0.37-1.19z"/>
  <path d="m146.21 362.13c9.71 11.95 17.34 28.13 21.55 43.3 1.31 4.69 2.38 9.61 3.42 14.37 5.07 23.14 10.66 47.56 43.56 65.25a97.46 97.46 0 0 0 42 11.72 145.64 145.64 0 0 1-47.93-2.59c-30.87-6.63-52.12-20.11-63.18-40.06-9-16.16-12.61-29-15.34-43.36-2-10.43-2.73-13.11-5.42-17.8-0.24-0.4-1.31 1.39-1.09 1.81 2.24 4.24 2.91 6.15 4.85 16.35 2.76 14.5 6.41 27.94 15.48 44.31 11.3 20.4 32.41 34.14 63.78 40.88a152.32 152.32 0 0 0 32.21 3.54c25.85 0 47-4.58 63.33-16.73 20.42-15.21 28.83-39.49 22.3-66-6.59-26.77-27.94-35.72-48.28-45.87-6.36-3.17-12.37-6.17-17.8-9.55a136.73 136.73 0 0 1-43.18-42.5c-0.26-0.39-1.68 0.54-1.42 0.94 7.7 11.73 20.62 29 43.85 43.47 5.5 3.42 11.54 6.44 17.94 9.63 20 10 40.66 20.29 46.51 44.25 6.32 25.85-1.44 49.16-21.29 63.94-13.86 10.33-44.23 24.54-86.67 1.72-32.21-17.32-37.19-41.13-42.17-63.9-1.05-4.78-2.13-9.73-3.44-14.46-4.36-15.7-12.22-32.21-22.69-44.61zm-6.57-10.28a42.5 42.5 0 0 0-15.64-9.18 49.78 49.78 0 0 0-23.55-0.21c-10 2.33-19.26 7.21-28.76 15.62-11.07 9.8-16.11 21.07-19.78 28.91-3.1 6.63-7.07 13-9.81 13.05a40.94 40.94 0 0 1-14.13-3.15 26.89 26.89 0 0 1-15.06-16.37c-2.7-8-1.53-16.73 0.24-22.62 2.2-7.29 1.86-9.2-2.93-1.44a76.35 76.35 0 0 0-9.97 29.46c-1.16 10.49 1.75 20.75 8 28.07a29.42 29.42 0 0 0 21.93 10.6c10.31 0.15 27.66-4.55 36.83-26.27 0.17-0.41-0.41-3.19-0.57-2.75-4.89 13.16-18.65 27.88-36.2 27.18a28.55 28.55 0 0 1-20.7-10c-6-6.95-8.66-16.29-7.55-26.31a69.59 69.59 0 0 1 9.3-28.45c-1.82 6.33-2.85 15.2-0.15 23.23a28.6 28.6 0 0 0 16.13 17.27c10.74 4.7 20.66 4.52 29.21 0.77 9.16-4 16-12.45 20.24-24.81 6-17.45 23-36.33 46.67-29.33a40.51 40.51 0 0 1 15.28 9zm-64.41 21.91c-4.11 11.9-10.88 20.2-19.59 24a27.85 27.85 0 0 1-10.15 2.31c3.27-2.4 5.39-6.93 7.94-12.38 3.8-8.13 8.53-18.26 19.33-27.81 9.18-8.13 18.32-13.23 28-15.53a40.2 40.2 0 0 0-6.07 3.34c-8.8 5.89-15.69 15.14-19.46 26.07z"/>
  <path d="m216.69 471.99a95.2 95.2 0 0 1-21.66-2.7c-0.45-0.11-2-2.08-1.59-2a112.07 112.07 0 0 0 23.43 2.76c24.71 0 37.27-12.57 41.11-25.56 6.42-21.64-1.44-43.72-22.26-64.3-16.75-16.55-22.81-24.66-32.36-40.26-0.1-0.16 0.9-1.79 1.14-1.39 9.64 15.79 16.09 23.7 32.9 40.32 21.29 21.05 29.06 44 22.46 66.25-3 10.06-10.28 18.08-20.55 22.58a56.24 56.24 0 0 1-22.62 4.3z"/>
  <path d="m18.22 402.49c-17.35-18.74-6-46.5-5.88-46.78s0.93-0.08 0.79 0.25-10.62 27.35 6.19 45.51c8.62 9.31 19.61 9.87 25.56 9.48 8.52-0.56 16-4.09 18-6.93 0.21-0.28-1.33 3.5-3 4.47-3.47 2-8.82 3.61-15.07 4.08-7.46 0.56-18.71-1.58-26.59-10.08z"/>
  <path d="m11 408.14c-10-11.78-7.12-35.76-4.33-43 0.13-0.33 1.74-2.05 1.61-1.72-2.72 7-5.71 32.5 3.94 43.88 8.68 10.31 23.28 14.19 36.28 11.31a15.9 15.9 0 0 1-4.6 2.19c-14.34 1.19-25.82-4.27-32.9-12.66z"/>
  <path d="m48.35 399.91c1.18-0.71 3.21-5.11 5.89-11.5 3.28-7.82 11.89-24.5 16.65-28.51 0.27-0.23 2.16-0.73 1.89-0.5-4.54 3.83-14 22-17.15 29.5-3.46 8.25-4.84 10.81-6.18 11.61-0.1 0.06-1.4-0.42-1.1-0.6z"/>
  <path d="m58.51 396.99c11.39-43.46 36.54-52.55 41.16-53.71 0.34-0.09 1.42 0.56 1.08 0.65-4.49 1.12-28.65 9.48-40.5 52.26-0.08 0.3-1.83 1.15-1.74 0.8z"/>
  <path d="m134.94 369.3c10.94 13.43 14.78 27.1 16.89 36.64 0.5 2.27 2.54 13 3.35 16.58 2.69 11.63 7.79 28.65 18.78 42.57 17.42 22 42.23 29.88 55.64 32.64a26.36 26.36 0 0 1-6.55-0.41c-14.2-3.78-35.2-12.08-50.48-31.42-11.09-14-16.3-31.08-19-42.85-0.83-3.66-2.9-14.71-3.38-16.9-2.07-9.47-5.63-22.82-16.44-36.13z"/>
  <path d="m129.12 362.91c-16.41-13.28-40-6.05-45.8-3.05-0.31 0.16-0.74 1.62-0.42 1.46 5.64-2.92 28.93-10.4 44.82 2.45z"/>
  <path d="m122.16 376.26c9.84 8.91 15.91 24 21.07 48.9 5.07 24.47 13.62 49.18 44.92 63.56a49.27 49.27 0 0 1-8.34-3c-25.82-14.91-33.63-37.33-38.34-60.07-5.08-24.54-10.91-39.54-20.48-48.32z"/>
  <path d="m115.41 371.15c-16-9-29.88-3.65-38.83 1.42-0.31 0.17-0.35 1.58 0 1.4 8.68-4.92 22-10.45 37.48-1.72z"/>
  <path d="m305.36 426.43c-1.08-15.4-13.54-23.21-30.66-34.87a293.1 293.1 0 0 1-27.37-20.34c-15.93-13.66-32.15-36-37.37-45.7-0.21-0.38 0.69-2.11 0.84-1.8 4.42 8.93 21.47 32.23 37.92 46.33a297.34 297.34 0 0 0 27.34 20.38c16.78 11.43 29.3 19.33 30.12 36 0.12 2.56-0.64 2.46-0.82 0z"/>
  <path d="m204.32 476.24a32 32 0 0 1-4.49-2.78c19.92 7.77 40.45 7.81 54.62-0.63a36.76 36.76 0 0 0 18.07-27c2.87-23-6.11-41.64-32-66.57-27.09-26.07-33.79-36.86-36.78-44-0.13-0.33 0.66-1.37 0.8-1 2.93 7 10 17.86 37 43.77 26.24 25.25 35.84 44.65 32.91 68.08a38.67 38.67 0 0 1-18.64 28.3c-14.54 8.64-33.81 8.64-51.49 1.83z"/>
  <path d="m229.55 490.29c-0.62 0-5.18-1.79-4.58-1.77 53.67 1.42 71.1-24.87 76.57-39.12 1.12-2.91 1.7-2 0.75 0.63-2.39 6.63-6.63 15.92-16.3 23.65-13.99 11.18-32.25 16.61-56.44 16.61z"/>
  <path d="m195.15 280.48c7.23-31.39 0.15-53.24-14.63-67.59-1.89-1.83-1.26-2.4 0.5-0.88 8.69 7.47 25.34 28.11 15.5 67.5-0.29 1.15-1.65 2.2-1.37 0.97z"/>
 </g>
 <path d="m175.72 209.88a37.62 37.62 0 0 0-5.49-2.8c-0.85-0.28-1.18-0.24-1.21 0.7a29.25 29.25 0 0 0 0.33 3.57c0.05 0.42 0.1 0.9 0.15 1.32-0.45-0.43-1-1-1.49-1.48-1.25-1.29-2-2-2.47-2.43-1-0.87-1.25-0.51-1.42 0.47-0.14 0.81-0.28 2.36-0.56 5.42-0.07 0.82-0.15 1.69-0.21 2.41-0.26-0.58-0.55-1.25-0.82-1.89-1.16-2.7-1.79-4.12-2.16-4.87-0.5-1-1.15-1.46-1.58 0.21-0.22 0.83-0.5 2.25-1 4.68-0.1 0.49-0.2 1-0.3 1.48-0.1-0.47-0.21-1-0.31-1.48-0.65-3-1-4.54-1.21-5.3-0.34-1.11-0.91-1.1-1.52 0.15-0.34 0.73-0.85 2-1.7 4.18l-0.89 2.34a22.08 22.08 0 0 0-0.94 5.76c1.06-3.31 4.19-11.88 4.29-11.88s0.67 3.55 1 5c0.17 0.84 0.31 1.49 0.42 2 0.5 2.27 1.2 2.83 1.76 0.12 0.11-0.52 0.25-1.22 0.43-2.13 0.26-1.31 0.68-4.6 0.82-4.67s1.38 3.48 2 4.86c0.4 0.93 0.71 1.63 0.94 2.16 0.76 1.73 1.51 2.69 1.79-0.08 0.06-0.65 0.14-1.58 0.26-2.92 0.14-1.62 0.27-5.3 0.36-5.33s1.62 1.78 2.35 2.51 1.26 1.26 1.65 1.63c1 1 1.83 1.49 1.59-0.81 0-0.39-0.09-0.88-0.17-1.51-0.11-1-0.54-3.41-0.48-3.43s3.91 2.07 5.92 3.28 2.11 0.59 1.3-0.53c0.85 0.68 2 1.65 3.29 2.92l0.76-1.35a29.3 29.3 0 0 0-4.15-3.08c-0.94-0.56-1.57-0.57-1.71-0.3s0.07 0.55 0.38 1.1z" fill="none"/>
 <path d="m155.15 172.3a1.57 1.57 0 0 1-1.42-1.52 1.76 1.76 0 0 1 0.34-1.33 1.28 1.28 0 0 1 0.82-0.49 1.72 1.72 0 0 1 0.37 3.34zm-0.17-2.88c-0.43 0-0.71 0.84-0.66 1.29 0.08 0.73 0.51 1.16 0.84 1.13s0.75-0.54 0.67-1.29-0.5-1.12-0.83-1.13z" fill="none"/>
 <path d="m155.23 171.99c-0.43 0.05-1.1-0.33-1.2-1.25a1.24 1.24 0 0 1 0.89-1.49c0.44-0.05 1.1 0.34 1.2 1.25a1.25 1.25 0 0 1-0.89 1.49z" fill="#fff"/>
 <path d="m156 173.99c0.08 0.71-0.11 1.76-0.75 1.84s-1.06-0.91-1.15-1.62 0.13-1.77 0.76-1.84 1.03 0.86 1.14 1.62z" fill="#0f141b"/>
 <metadata>
  <rdf:RDF>
   <cc:Work rdf:about="">
    <dc:title>Articuno (2)</dc:title>
   </cc:Work>
  </rdf:RDF>
 </metadata>
</svg>
