<?xml version="1.0" encoding="UTF-8"?>
<!-- Created with Inkscape (http://www.inkscape.org/) -->
<svg version="1.1" viewBox="0 0 186.46 113.62" xmlns="http://www.w3.org/2000/svg">
 <g transform="translate(-3.2191 -21.926)">
  <g transform="matrix(-.077666 .53017 .53017 .077666 86.6 120.92)">
   <path d="m0 0c-2.667 0.043-4.362 2.251-3.949 2.266 0.988 0.036 1.657 0.285 2.613 0.53l1.584-1.203z" fill="#fff"/>
  </g>
  <g transform="matrix(-.077666 .53017 .53017 .077666 70.133 124.66)">
   <path d="m0 0c-3.812-1.514-6.422 1.442-5.908 1.434 1.003-0.02 2.351 0.41 3.264 0.718l2.465-0.6z" fill="#fff"/>
  </g>
  <g transform="matrix(-.077666 .53017 .53017 .077666 75.029 115.96)">
   <path d="m0 0c0.183-0.669 0.573-2.359 0.89-2.99 0.197-0.393-3.045 0.098-4.586 2.84l1.806 0.7z" fill="#fff"/>
  </g>
  <g transform="matrix(-.077666 .53017 .53017 .077666 97.092 120.05)">
   <path d="m0 0c1.379-0.855 6.062-4.372 7.034-5.078 1.761-1.279 2.521-1.701 1.919-3.79 0.448-0.671 0.074-1.633-0.615-2.967 0.354-0.359 0.607-0.665 0.701-0.885 0.479-1.102-1.183-4.044-1.591-5.124s-1.362-1.418-2.222-1.313c-1.335 0.163-1.934 2.66-1.934 2.66 7e-3 0.619 1.637 2.387 1.547 2.715-0.09 0.327-4.451 2.744-6.054 3.45l-0.516 1.629-0.301 4.881z" fill="#cc5d00"/>
  </g>
  <g transform="matrix(-.077666 .53017 .53017 .077666 92.517 118.46)">
   <path d="m0 0c0.908-3.564 1.919-7.889 2.798-11.372 4.167-2.029 9.841-4.544 11.086-4.907 1.244-0.364 2.555-0.974 3.587-2.805 1.03-1.831 1.843-3.194 2.209-3.887 1.387-1.002 3.045-2.362 3.168-2.979 0.188-0.954-0.865-4.191-1.124-5.34-0.261-1.149-1.221-1.843-1.653-2.105 0 0 0.291-1.832 0.272-3.088-0.013-0.791-0.818-2.524-2.557-3-1.738-0.477-2.555 0.666-2.792 1.535-0.238 0.869 0.479 1.927 0.466 2.499-0.014 0.572-0.625 3.854-1.502 4.692-0.876 0.839-7.982 5.791-9.553 6.798-0.485-0.062-2.145-0.301-2.71-0.599-0.565-0.297-2.258-2.775-2.488-3.772-0.229-0.998 0.563-3.367 0.788-4.455 0.228-1.088-1.688-1.183-2.127-1.158-0.436 0.024-1.788 1.019-1.921 1.476-0.192 0.658-0.779 3.486-1.4 5.43-0.62 1.943-0.465 3.308 0.331 4.582 0.796 1.275 4.121 5.533 4.121 5.533-0.307 0.797-2.85 9.437-3.459 11.575l1.219 4.554z" fill="#cc5d00"/>
  </g>
  <g transform="matrix(-.077666 .53017 .53017 .077666 134.18 101.95)">
   <path d="m0 0c-2.218-0.759-7.258-2.291-19.097-2.805-11.84-0.513-25.597 5.423-36.696 8.296-11.1 2.874-15.818 1.279-22.014 0.643-6.194-0.635-19.793-0.266-26.888 1.278s-11.774-1.86-14.85-3.916-7.927-4.61-9.781-5.258c-1.068-0.373 2.01-2.112 6.806 0.103 0 0-2.383-1.407-3.643-2.571-1.259-1.164 8.231-2.948 8.231-2.948l46.605-15.632 68.302-0.835 5.852 16.769z" fill="#fccf00"/>
  </g>
  <g transform="matrix(-.077666 .53017 .53017 .077666 125.73 96.115)">
   <path d="m0 0c-1.129-0.31-3.574 1.145-4.171 1.663-0.598 0.519-1.579 1.614-2.689 1.234-1.11-0.378-2.359-0.797-2.359-0.797-0.381 1.109-1.223 0.798-3.636-0.844-2.237-1.524-4.271-1.019-4.271-1.019 2.237 1.523 2.222 3.793-1.363 3.872-3.586 0.079-3.846-2.569-7.02-3.439-3.174-0.869-5.337 0.661-5.337 0.661 2.174 0.368 3.551 1.428 2.953 2.78-0.598 1.353-3.344 0.86-4.746 0.445-3.437-1.018-4.175-0.537-4.175-0.537 0.339 0.699 0.312 1.386-0.464 1.692-1.361 0.538-3.45-0.414-4.508-0.704l-9.531 6.344-13.823 0.3c-1.609-0.213-5.502-1.507-5.502-1.507 0.205 0.36 0.14 1.706 0.14 1.706-1.093-1.052-4.083-2.255-3.794-1.978 0.29 0.277 1.103 1.934-0.151 2.846s-4.999-0.788-8.273-1.106c-4.284-0.415-8.128 2.766-8.128 2.766 0.606 0.542 0.318 1.593-0.904 2.389-1.797 1.168-5.258-0.06-5.258-0.06-1.479 3.109-7.286 1.394-11.384-0.607-4.096-2.001-9.533-3.24-9.533-3.24 0.955 0.638 1.762 1.362 2.569 2.084l-1.561-0.965c-1.267-0.609-2.654-2.683-4.713-4.68-2.059-1.998-3.178-2.232-8.076-4.298-5.942-2.505-9.635-10.098-8.897-9.865 0.738 0.232 2.611 1.887 7.108 2.598 0 0-3.394-3.147-2.951-3.023 0.442 0.122 4.132 2.043 7.045-0.026 2.912-2.07 3.777-3.772 6.375-2.815 2.38 0.877 2.629 5.151 5.715 4.824 3.088-0.327 3.584-3.189 0.045-4.386-0.485-0.163 1.669-1.665 4.227-0.206s1.889 2.792 4.557 3.294c2.668 0.503 2.574-1.183 4.438-0.148 2.698 1.497 2.016 4.267 5.664 5.342 2.807 0.828 3.516-0.932 3.516-0.932s-5.29-1.449-8.265-8.027c-2.975-6.577-2.183-14.17-6.915-15.997-0.415-0.159 1.924-0.382 4.199 0.999-3.004-2.87-4.551-7.465-3.924-6.989 0.628 0.475 4.068 5.36 8.055 7.134 3.987 1.776 4.381 0.595 4.432 0.153 0.11-0.955-0.466-2.175-2.415-3.087-0.533-0.251 2.976-0.626 6.418 2.592 3.44 3.216 4.897 5.535 8.825 5.98 2.228 0.253 4.532 0.658 4.767-1.348 0.079-0.67-0.601-1.681-1.46-2.143-0.469-0.253 1.953-2.423 7.6-0.345 5.649 2.078 7.197 5.005 11.469 5.19 4.271 0.184 6.167-2.861 4.514-4.299 0 0 4.553 0.261 6.275-2.149 1.722-2.409 0.186-5.104-0.526-5.83 0 0 4.066 0.659 4.281-2.619 0.216-3.277-3.097-3.343-4.601-3.686-3.353-0.767-4.075-3.391-3.582-3.256 0.494 0.135 2.333 1.17 4.401-8e-3 0 0-3.735-2.603-1.628-7.079-0.66-2.241-0.572-4.263-0.38-3.859 0.443 0.941 2.892 5.494 8.715 6.937 5.115 1.268 8.993-1.555 11.526-0.558 2.532 0.997 2.407 3.389 3.003 4.538 0.595 1.149 1.593 3.318 4.608 2.551 3.465-0.88 2.322-4.596 0.609-4.988-0.657-0.152 2.227-2.044 5.055-0.739s4.581 3.757 8.213 3.236c3.63-0.523 3.304-2.768 2.557-4.077-0.256-0.449 0.817 0.543 4.131-0.505 2.248-0.711 4.534 0.149 7.104 1.84 2.571 1.688 2.532 1.83 4.007 1.703l3.721 13.327z" fill="#e7380e"/>
  </g>
  <g transform="matrix(-.077666 .53017 .53017 .077666 11.767 76.523)">
   <path d="m0 0c-0.276 0.454-0.38 1.108-1.747 2.781-1.368 1.673-2.549 2.108-4.259 0.047-1.71-2.06-3.173-2.538-4.59-2.622-1.417-0.085-2.31 1.793-2.704 3.505-0.393 1.712-1.359 2.727-2.749 3.114-2.061 0.575-3.172-0.548-4.412-2.194-1.24-1.647-2.223-1.147-3.198-0.953-0.977 0.193-1.997 0.285-2.86-1.629-1.148-2.544-3.214-3.418-2.813-2.923 0.403 0.494 1.324 2.746 4e-3 3.075-1.321 0.33-3.446-1.223-4.608-3.107-1.596-2.59-3.293-3.131-2.891-2.636 0.403 0.494 1.485 3.559 0.698 4.188-0.787 0.63-2.971-0.66-5.165-3.875-2.194-3.214-2.841-6.467-3.002-7.28-0.162-0.813-2.543 5.07-1.761 9.512 0.65 3.692 3.705 7.242 6.231 10.932 2.179 3.184 2.716 7.35 2.732 9.84-2.084-3.338-7.785-4.301-7.011-3.478 2.916 3.104 1.747 7.089 2.009 10.621 0.195 2.602 1.133 4.613 2.529 6.083-0.559 1.758 0.111 3.223 0.8 4.309-0.722 1.093 0.129 2.241 1.681 4.434 2.182 3.083 0.339 4.936 0.772 8.129 0.23 1.705-0.934 1.963-3.13 1.604-2.795-0.459-4.897 0.217-4.078 0.574 2.405 1.043 3.126 1.778 4.775 3.614 1.649 1.835 2.388 5.036 4.05 7.106 1.662 2.069 3.84 2.82 5.402 1.326 1.564-1.493 4.295-2.206 8.004 0.808 2.652 2.157 4.384 5.891 2.631 8.639-1.752 2.749-4.189 0.698-4.864 0.359-0.657-0.328 2.04 6.917 11.776 9.553-2.673-0.348-4.953 0.618-4.435 0.701 0.519 0.081 4.422 0.862 6.569 1.74 2.146 0.879 4.751 2.001 7.742-0.208 2.993-2.207 4.826-3.801 6.461-3.179 1.635 0.623 4.45 2.034 6.026 2.233l0.282-67.69z" fill="#e7380e"/>
  </g>
  <g transform="matrix(-.077666 .53017 .53017 .077666 133.13 115.16)">
   <path d="m0 0c3.475-1.884 14.081-9.647 16.943-24.15 2.127-10.771 0.346-20.986-1.585-26.966 0.87-2.721 4.763-11.674 2.775-19.676-1.703-6.853-4.391-8.285-5.518-8.661-2.032-0.68-3.951 0.026-5.184 0.922l-30.995 33.052c-4.543 5.783-10.481 18.457-9.49 26.987 0.992 8.53 4.148 11.861 10.667 19.564s8.632 11.241 10.583 19.417c1.081 4.531 0.48 7.941-0.513 10.639 0 0-13.202 10.886-11.221 22.614 1.981 11.73 10.434 18.291 10.434 18.291 1.834 1.859 5.732 4.282 9.339 4.16l12.784-5.728c1.669-3.328 4.786-12.133 3.378-20.416-1.275-7.499-3.919-10.443-7.351-19.519-2.442-6.462-5.967-17.884-5.046-30.53" fill="#fccf00"/>
  </g>
  <g transform="matrix(-.077666 .53017 .53017 .077666 160.8 114.24)">
   <path d="m0 0c2.322 5.099 6.348 11.239 10.193 15.118 0 0 1.463-1.024 1.478-2.366 0.13-1.256-0.142-5.478-1.19-8.419-0.485-1.361-0.66-2.085-1.364-2.361-2.782-1.096-6.831-1.827-9.117-1.972" fill="#fff"/>
  </g>
  <g transform="matrix(-.077666 .53017 .53017 .077666 160.76 115.41)">
   <path d="m0 0c-0.81-0.119-1.552-0.201-2.165-0.24 2.322 5.098 6.348 11.239 10.193 15.118 0 0 0.327-0.233 0.673-0.615-2.05-3.077-6.531-10.438-8.701-14.263" fill="#fff"/>
  </g>
  <g transform="matrix(-.077666 .53017 .53017 .077666 185.46 133.25)">
   <path d="m0 0c-2.716-12.038-9.062-28.063-11.837-33.437-1.142-2.21-2.431-3.319-4.694 0.068-0.846 1.265-2.916 2.33-4.185 2.93-1.268 0.599-2.679 1.288-2.94 2.666-0.241 1.271 0.839 2.16 5.104 7.139 7.611 8.884 13.835 18.384 16.541 22.532 2.884 4.422 4.169 5.933 4.647 5.6 0.343-0.239-0.483-2.476-2.636-7.498" fill="#cc5d00"/>
  </g>
  <g transform="matrix(-.077666 .53017 .53017 .077666 121.98 106.68)">
   <path d="m0 0c-4.419-2.639-8.942-8.021-10.021-16.601-1.079-8.579-2.1-20.66-3.487-26.379-1.744-7.191-3.79-14.322-6.345-19.592-2.043-4.211-2.316-7.556-1.227-15.334 0.597-4.264 2.928-14.339 3.766-18.965 0.839-4.627 2.617-16.853 2.386-25.914-0.232-9.062-2.381-22.076-6.936-32.037s-4.101-13.736-3.254-18.434c-0.527-4.565 0.194-8.501 0.408-8.199 0.251 0.351 0.954 3.274 1.847 5.538 1.106-8.247-3.001-10.33-3.495-10.989-0.149-0.197 3.343 0.756 5.593 1.691l4.095-1.055 18.961 42.602 7.438 111.45 3.476 18.353z" fill="#fccf00"/>
  </g>
  <g transform="matrix(-.077666 .53017 .53017 .077666 172.3 112.67)">
   <path d="m0 0c-2.158 1.707-1.296 5.666-5.677 6.833-3.104 0.828-4.138-1.377-5.674-4.24s-4.501-1.843-5.917-1.132c-1.415 0.711-4.202 2.87-7.982 0.621-3.045-1.811-1.874-5.641-1.302-8.169 0.571-2.531 0.583-4.358-1.131-5.682-1.712-1.323-4.18-0.779-7.134-0.245-2.954 0.533-5.381 0.479-6.08-1.422-0.701-1.9-1.744-2.553-3.075-3.039-1.332-0.487-2.321-2.223-1.948-3.586 0.373-1.362 0.789-3.324 7e-3 -5.369-0.783-2.047-2.27-1.965-2.85-1.636-0.578 0.33-2.138 2.466-5.257 1.368-3.56-1.254-3.753-4.568-4.472-8.184-0.719-3.615-3.807-3.485-5.686-3.754-0.594-0.086 2.926-3.106 6.755-1.935 3.83 1.171 2.982 3.38 4.57 5.158s3.249 2.843 5.575 1.039 3.33-4.582 1.051-7.403c-2.278-2.821-5.997-2.619-8.505-4.161-2.506-1.541-4.164-5.292-2.201-7.562 1.434-1.655 0.749-4.067-0.448-5.494-1.196-1.426-3.628-1.069-5.183-0.687-3.469 0.851-7.128-1.288-6.166-1.48 0.961-0.191 2.722-1.418 1.442-3.111-1.165-1.539-1.98-1.526-3.769-1.398-5.494 0.396-7.076-5.856-6.561-5.459 0.515 0.396 2.196 2.676 3.8 1.285 1.601-1.393-0.43-4.237-3.423-5.333-4.831-1.771-6.609-6.194-5.952-5.904s2.176 2.305 3.377-0.295c1.201-2.601-1.287-3.771-3.412-5.818s-3.397-3.687-1.537-6.336c-0.756-1.964-0.528-3.343-0.262-2.803 0.39 0.789 2.091 4.819 5.581 5.091 3.489 0.274 4.863-1.7 5.825-1.057 0.961 0.642 0.717 3.94 3.992 3.141 4.389-1.073 2.641-3.826 2.083-4.283-0.558-0.456 4.617 0.583 6.489 1.778 1.87 1.196 0.918 4.119 1.634 6.21 0.717 2.092 4.102 3.02 6.9 2.497 2.796-0.523 4.856-1.4 7.362 0.803s3.034 4.699 2.382 8.463-0.834 6.367 3.68 7.605c0 0-0.447 3.289 2.654 6.641 3.1 3.352 6.681 2.7 6.811 0.046 0.164-3.367-2.707-5.063-3.464-5.347-0.756-0.283 2.112-0.786 4.336 0.506 0.18-0.937 0.015-2.27-1.466-3.511-0.478-0.4 2.463-0.558 4.154 3.11 1.759 3.818 0.267 7.049 3.348 10.471 3.081 3.421 5.584 2.591 7.913 2.395 2.328-0.197 4.65-0.092 5.404 2.693s-1.41 7.1 1.561 8.693c2.314 1.24 4.552 1.095 6.054 0.596 2.444-0.811 3.285-1.753 4.594-1.546-0.451 1.239-1.135 2.595-1.596 3.499-0.785 1.542-5.695 6.854-6.196 11.37-0.488 4.4 2.061 6.685 4.134 8.474s2.878 2.864 2.7 5.745c-0.18 2.88 1.925 4.556 3.928 5.714 2.001 1.16 3.209 2.101 2.918 3.608-0.292 1.508-1.396 1.083-2.647 2.083-1.25 1-2.949 0.627-3.94 0.234-0.685-0.272-1.51-0.51-2.101-0.389" fill="#e7380e"/>
  </g>
  <g transform="matrix(-.077666 .53017 .53017 .077666 113.6 112.6)">
   <path d="m0 0c-2.547-3.983-5.687-9.655-7.038-19.297-1.349-9.641-2.094-9.493-3.409-13.258-1.317-3.764-1.115-8.57-1.102-9.69 6e-3 -0.374-2.677 2.689-2.89 2.847-0.216 0.156 0.171-2.771-0.105-5.194-0.275-2.422 0.39-5.273 0.056-4.913-0.335 0.359-1.623 3.78-1.951 4.981 0 0-0.404-2.809-1.117-5.352-0.712-2.542-1.222-7.963-0.441-13.383 0.78-5.42 1.099-6.154 0.723-6.492-0.173-0.154-0.584 0.213-1.036 0.73 0.917-2.917 2.015-7.738 1.34-8.275-0.168-0.135-0.223-0.113-0.42-0.033 1.236-2.846 1.529-6.5 1.548-8.971 0 0 0.156-1.12 0.221-1.355-1.265 2.36-2.474 4.781-4.521 6.087 0 0 0.326-5.2 1.89-8.359 2.935-2.342 6.232-3.015 5.8-3.305-0.144-0.096-0.409-0.231-0.781-0.37-0.339-2.116-2.892-3.714-4.519-3.812 0.933-2.02 1.603-4.186 0.69-8.606s-1.054-9.16-0.396-13.226c0.66-4.066 2.225-8.212 4.619-9.755-2.682-1.834-5.568-0.227-7.39 1.405-0.195-5.007 1.743-10.121-1.437-16.4-2.688-5.307-5.646-7.546-7.319-13.432s-0.424-9.401-2.439-11.952c-0.633-0.801-1.394-1.406-2.546-1.967 0.599-1.352 1.228-4.48-0.322-6.573-1.55-2.092-5.121-2.615-5.441-3.386-0.321-0.77 1.16-3.146 1.22-7.778 0.155-11.635-2.244-16.993-1.795-17.25 0.45-0.256 4.287 8.151 5.25 7.96 0.962-0.191 0.908-2.481 0.767-3.354-0.084-0.525 0.523 0.042 1.051 1.425 0.815-0.761 1.353-0.235 3.039 0.53 1.686 0.764 3.475 0.876 4.471 0.011 0.995-0.865 3.336-3.224 5.39-2.239 2.211 1.062 4.982 1.744 5.969 2.015-3.486-2.775-4.807-8.747-4.43-8.19 0.378 0.559 2.947 3.916 6.825 5.813-4.137-5.38-4.121-8.484-3.884-7.964 0.237 0.519 3.503 5.205 6.022 5.972 2.52 0.766 6.216-0.27 9.009 2.543 2.793 2.812 1.918 4.621 1.226 9.36-0.691 4.739 2.335 5.87 2.335 5.87-0.724 5.413 2.199 7.199 2.917 6.79 0.719-0.409 0.362-1.873 0.266-2.353-0.096-0.482 1.474 0.251 2.009 4.568 0.33 2.669 3.318 3.942 5.333 2.675 2.015-1.268 0.339-4.836-0.032-5.696s7.888 6.634 5.515 12.808c-0.948 2.467-1.454 3.09-0.425 6.253 1.03 3.163 4.054 5.963 2.908 10.425-0.741 2.881-4.755 3.702-6.797 9.31-1.314 3.609 2.3 8.769 4.65 9.968 2.351 1.2 4.89 1.34 5.408 0.37 0.519-0.971-1.315-2.028-1.315-2.028 2.151-0.473 4.655 1.275 6.218 3.876 1.562 2.601-0.461 3.16-1.353 4.937-0.892 1.778 0.149 4.994 2.417 7.234 1.081 1.067 1.665 2.103 1.982 2.894 0.317 0.794 0.55 0.882 0.621-0.037 0.12-1.579-0.364-2.344-0.472-2.552-0.138-0.264 4.476 2.516 5.557 9.123 0.537 3.288-0.955 4.106-2.664 5.169-1.71 1.063-2.825 2.612-2.389 2.919 0.675 0.476 1.973-0.383 2.924-1.561 0.378-0.467 0.357 3.964-3.092 6.407-1.586 1.123-2.553 1.281-4.72-0.261-2.168-1.544-4.853-1.503-7.178 0.364-2.324 1.867-2.291 5.846-1.352 8.088 0.94 2.243-0.527 1.927-2.776 2.26s-4.426 1.601-4.069 2.747c0.673 2.156 0.129 3.22-0.055 2.856-0.185-0.365-0.694-1.571-1.846-1.455-1.153 0.115-4.518 4.201-4.524 9.895-6e-3 5.695 2.63 5.208 4.079 9.059 1.447 3.849-1.186 4.738-1.835 6.351-0.779 1.933-0.74 3.991 1.33 7.147s1.939 4.088 1.713 5.233c-2.509-0.686-4.764 0.993-4.764 0.993 0.522 1.918 0.767 4.159 0.28 6.615-1.139 5.736-3.75 3.834-5.391 8.244-1.641 4.411 1.091 9.422 1.194 9.833 0.105 0.411-2.069-2.087-2.828-3.475-0.662 3.805 3.657 12.949 3.969 13.509 0.31 0.559-3.12-1.936-4.776-3.469 0.393 1.718 1.016 7.732 0.631 10.549" fill="#e7380e"/>
  </g>
  <g transform="matrix(-.077666 .53017 .53017 .077666 50.713 77.858)">
   <path d="m0 0c-3.256-0.456-3.688-1.665-4.536-2.552 0 0 3.745 0.263 4.536 2.552" fill="#ef8200"/>
  </g>
  <g transform="matrix(-.077666 .53017 .53017 .077666 82.792 102.7)">
   <path d="m0 0c-0.416 0.936-1.252 2.371-1.695 3.254-0.444 0.885-0.49 2.18 0.278 2.29 0.772 0.109 2.162-2.023 1.417-5.544" fill="#ef8200"/>
  </g>
  <g transform="matrix(-.077666 .53017 .53017 .077666 79.636 107.28)">
   <path d="M 0,0 C 0.797,2.229 -0.277,3.944 -0.932,3.766 -1.96,3.483 0,0 0,0" fill="#ef8200"/>
  </g>
  <g transform="matrix(-.077666 .53017 .53017 .077666 54.32 98.026)">
   <path d="m 0,0 c 0.221,0.664 -0.384,1.403 -0.751,2.007 -0.367,0.603 -0.707,1.112 -0.308,2.226 0,0 1.246,-0.66 1.576,-2.081 C 0.927,0.381 0,0 0,0" fill="#ef8200"/>
  </g>
  <g transform="matrix(-.077666 .53017 .53017 .077666 26.726 85.129)">
   <path d="m0 0c0.288 0.783 0.135 1.344-0.166 3.173-0.299 1.827 0.243 2.78 1.068 3.809 0 0 2.377-4.273-0.902-6.982" fill="#ef8200"/>
  </g>
  <g transform="matrix(-.077666 .53017 .53017 .077666 17.208 85.196)">
   <path d="m0 0c-0.443 0.884-0.675 2.831-0.66 4.242 0.016 1.412-0.48 3.588-0.48 3.588-1.13-1.013-1.209 1.479-1.008 4.047 0.202 2.569 1.423 4.712 1.423 4.712s0.521-1.164 0.378-3.213c-0.142-2.05-0.259-3.088 0.098-3.291 0.356-0.204 0.406 1.82 0.975 2.68 0 0 0.672-0.62 0.914-4.073 0.11-1.574 0.072-3.197-0.683-5.214-0.755-2.016-0.957-3.478-0.957-3.478" fill="#ef8200"/>
  </g>
  <g transform="matrix(-.077666 .53017 .53017 .077666 21.526 87.545)">
   <path d="m0 0c0.246 0.569-0.113 1.879-0.506 3.681s0.064 3.435 0.064 3.435 3.314-5.124 0.442-7.116" fill="#ef8200"/>
  </g>
  <g transform="matrix(-.077666 .53017 .53017 .077666 125.73 96.115)">
   <path d="m0 0c-0.085-3.728 0.545-7.822 2.084-12.243-0.545-0.226-1.557-0.199-3.038-0.605-1.482-0.406-1.076-1.053-1.21-2.227-0.133-1.174-1.357-1.964-3.812-4.077-2.454-2.113-1.548-2.927-2.054-4.126-0.505-1.201-2.366-1.33-4.321-1.942s-1.743-1.387-1.446-2.747c0.297-1.359 0.17-2.835-1.65-3.94-1.308-0.794-3.135-1.261-4.061-1.461-0.346-0.075-0.545-0.101-0.1 0.244 1.332 1.033 2.247 2.202 2.126 3.389-0.137 1.328-0.125 2.392 1.233 3.523 1.358 1.13 0.947 2.079-0.534 1.673-1.482-0.405-1.403-2.356-3.85-4.77-2.447-2.415-4.923-2.789-7.001-2.676-1.256 0.069-2.975-0.208-3.77-0.35-0.795-0.143-1.937-0.683-2.962-1.646-1.025-0.962-1.718-0.925-1.718-0.925 0.075 1.385 0.488 3.014 3.087 4.232 2.599 1.217 2.658 1.739 3.238 2.201 0.241 0.192 0.514 0.462 0.796 0.726 0.627 0.583 0.795 0.786-0.343 0.384-0.504-0.179-1.024-0.403-1.385-0.658-0.931-0.659-1.889-1.224-2.547-1.405 0 0 1.467 3.131 3.656 4.741 2.186 1.612 4.64 2.991 5.416 4.214 0.777 1.225 0.86 2.764-2.355 2.692s-3.77-0.629-4.309-0.877c0 0-0.789 2.791 5.511 4.516 0 0 1.077 0.22 0.833 0.836-0.184 0.462-0.924 0.392-2.108-0.147-1.528-0.697-2.088 0.514-2.088 0.514s1.56 0.124 3.709 2.053c1.497 1.342 2.008 2.546 4.862 4.769 1.485 1.156 1.032 2.127-0.344 1.624-2.206-0.807-2.72-0.037-2.72-0.037s3.214 3.397 7.47 4.471c0.822 0.209 2.366 0.985 2.85 1.313 2.416 1.639 3.255 1.953 3.636 0.844 0 0 1.249 0.419 2.359 0.797 1.11 0.38 2.091-0.715 2.689-1.234 0.597-0.518 3.042-1.973 4.171-1.663" fill="#ef8200"/>
  </g>
  <g transform="matrix(-.077666 .53017 .53017 .077666 38.984 81.503)">
   <path d="m0 0c-2.166-1.248-4.621-1.003-5.812-0.238-1.191 0.763-3.7-0.033-3.7-0.033 0.211 0.822 0.691 1.062 1.982 1.525 1.292 0.463 0.607 1.366-0.103 1.172-0.507-0.139-2.434-0.667-3.56-0.539-1.87 0.213-0.094 1.936-0.094 1.936s-1.974-0.758-4.409-1.425c-2.436-0.667-3.845-1.49-4.757-2.939 0 0-1 3.651 4.375 6.325 5.375 2.672 6.95 5.284 6.95 5.284-0.98-0.083-2.61-0.824-4.352-1.628-1.388-0.641-2.992-0.722-4.219-0.843-1.204-0.641-2.478-0.992-2.478-0.992 0.729 0.527 2.295 2.374 2.811 3.279 0.469 0.822 1.522 1.804 3.247 1.744 0.324-0.012 0.228-0.235 0.105-0.35-0.437-0.404-0.886-1.097-1.475-1.816-0.149-0.182-0.055-0.334 0.152-0.233 0.537 0.26 1.053 0.49 1.467 0.631 1.596 0.546 2.572 1.36 4.001 2.514 1.43 1.155 2.774 2.613 7.773 3.874 4.68 1.181 8.503 2.409 9.68 6.47-1.126-6.286-2.846-12.868-5.407-18.469-0.906-1.981-1.621-3.714-2.177-5.249" fill="#ef8200"/>
  </g>
  <g transform="matrix(-.077666 .53017 .53017 .077666 102 106.79)">
   <path d="m0 0c-1.018-5.985-1.724-6.354-2.844-9.559-1.315-3.764-1.114-8.57-1.1-9.69 3e-3 -0.194-0.586 0.347-1.312 1.118 0.074-3.273 0.739-7.207 2.016-10.048 0 0 1.232 0.64 1.578 3.047 0 0 0.349 0.196 1.016-2.235 0.666-2.432 1.325-4.362-0.099-4.049-2.033 0.449-0.51-2.859-0.225-3.58 0.554-1.404 1.739-3.042 1.756-3.842 0 0 0.667 0.59 0.08 3.742-0.213 1.148 1.114 0.707 1.019 1.787s-0.462 2.789 0.108 2.543 0.871-1.945 1.313-2.958c0.644-1.48 0.902-1.822 1.168-2.797 0.339 0.596 0.373 1.208 0.355 2.007-0.017 0.801-0.684 3.232 1.504 7.35 2.189 4.118 2.716 5.871 2.535 7.631-0.18 1.76-1.013 1.13-1.013 1.13 0.541 2.059 0.275 5.604-1.064 8.655-1.339 3.052-2.544 1.213-2.544 1.213-0.028 2.305-1.383 5.05-1.383 5.05-0.534-0.357-0.883-0.883-1.095-1.304-0.247-0.489-0.291-0.359-0.351 0.06-0.3 2.12-1.165 3.805-1.418 4.729" fill="#ef8200"/>
  </g>
  <g transform="matrix(-.077666 .53017 .53017 .077666 45.981 95.079)">
   <path d="m0 0c-2.302-0.736-4.614 0.631-6.16 2.015-0.195-5.007 1.743-10.121-1.437-16.401-0.569-1.125-1.151-2.111-1.731-3.023-0.66-1.99-1.359-2.365-0.777-5.223 0.581-2.856-0.799-3.355 0.023-5.221 0.699-1.588 0.444-3.094 0.444-3.094s1.225 0.372 1.349 3.887c0.033 0.919 0.415 1.42 0.662 0.885 0.247-0.536 0.249-1.639 0.336-3.426 0.087-1.786 0.132-3.785 0.813-5.91 0.684-2.124 0.44-4.905 0.44-4.905s1.302 0.758 1.299 2.969c0 0 1.154-1.439 1.434-5.238 0 0 2.325 1.372 3.273 8.236 0.203 1.464 0.594 0.765 1.218-0.773 0.622-1.538 1.763-3.135 3.302-3.618 0.238 0.969-0.895 2.167-1.382 3.944s-0.683 3.23-0.055 4.61c0.456 1.002 0.759 2.76 0.889 3.643 0.086 0.573 0.126 0.338 0.241 0.028 0.448-1.221 1.215-2.325 1.215-2.325 2.938 3.216 1.724 9.117 1.724 9.117 1.762-2.031 2.986-0.991 2.986-0.991-1.736 1.936-2.777 4.265-3.52 6.978-0.406 1.482-0.862 2.709-1.192 3.519-0.275 0.671-0.013 0.366 0.206 0.123 0.721-0.804 1.349-0.929 1.349-0.929s0.109 1.942-1.179 5.406c-1.375 3.699-4.655 5.32-5.77 5.717" fill="#ef8200"/>
  </g>
  <g transform="matrix(-.077666 .53017 .53017 .077666 138.41 55.176)">
   <path d="m0 0c-1.457-0.347-2.129-0.57-3.694-0.722-4.285-0.416-8.127 2.766-8.127 2.766 0.604 0.542 0.317 1.593-0.906 2.389-1.795 1.168-5.256-0.06-5.256-0.06-0.093 0.194-0.204 0.371-0.329 0.528-5.528-0.036-7.904-3.5-7.583-4.672 0.124-0.45 0.926 0.158 1.32-0.219 0.393-0.377-1.113-0.578-1.599-1.431-0.819-1.437-1.421-0.199-2.526-0.465-2.206-0.527-4.718-3.262-5.12-4.283 0 0 0.852-0.07 2.038 0.861 0.928 0.731 2.192 1.132 3.918 0.922 1.121-0.136 2.438-1.151 4.884-0.011 1.478 0.689 3.342 1.593 3.752 0.446 0.413-1.147-1.112-1.951-2.185-2.633-1.072-0.682-0.925-1.223-0.94-1.518 0 0 1.49 0.857 3.176 0.789 0 0-0.631-1.109-0.634-2.019 0 0 1.188 0.83 2.675 1.213 1.488 0.382 1.975 0.541 2.251 0.086 0.277-0.455 0.923-0.402 2.604 0.182 2.077 0.721 2.493 1.972 3.177 3.07 0.686 1.096 1.289 1.111 3.065 1.825 1.775 0.714 1.506 1.79 6.039 2.956" fill="#ef8200"/>
  </g>
  <g transform="matrix(-.077666 .53017 .53017 .077666 104.35 97.511)">
   <path d="m0 0c-1.476 0.127-1.595 0.013-4.165-1.676-2.57-1.69-4.856-2.551-7.105-1.84-3.313 1.048-4.386 0.056-4.13 0.505 0 0 1.333 0.669 2.404 1.191 1.07 0.519 0.826 1.135 2.222 2.959 1.396 1.823 2.447 2.414 3.364 2.665s1.39 1.291 0.204 1.193c-1.187-0.098-2.154-0.438-2.655-0.272 0 0 0.506 1.2 1.819 1.938 1.314 0.739 2.852 2.602 2.901 3.525 0.051 0.923-1.289-0.277-2.673-0.202 0 0 1.037 4.456 6.442 6.317 0.886-1.478 1.964-2.866 2.807-3.94-0.461-4.135-0.928-8.516-1.435-12.363" fill="#ef8200"/>
  </g>
  <g transform="matrix(-.077666 .53017 .53017 .077666 58.975 105.66)">
   <path d="m0 0s2.114-0.057 3.186 0.521c0 0 3.131-4.457 4.944-4.229 0.64 0.081 1.086 0.866 1.205 2.507 0 0 2.035-1.903 3.106-1.325 1.074 0.577 0.502 2.314 0.502 2.314s4.807-3.757 5.479-3.42c0.416 0.208 0.357 2.842-2.095 5.576-1.39 1.551-0.698 1.512 0.375 1.049 1.072-0.462 2.723-0.957 2.723-0.957-9e-3 0.375-0.795 1.863-2.229 2.607-1.433 0.742-2.251 1.654-2.004 2.478 0.366 1.214-0.715 3.305-1.341 4.553-0.625 1.248-3.747 7.11-4.866 6.709-1.12-0.402-0.343-1.513-0.758-1.721-0.417-0.208-1.986 0.846-3.1 1.989-2.393 2.454-3.589 3.086-3.589 3.086-0.413-0.431-0.511-1.252-0.516-1.889-8e-3 -0.794-0.199-0.47-0.511-0.11-0.413 0.477-0.968 1.002-1.433 1.313 3e-3 -0.663-0.122-1.36-0.442-2.117-1.197-2.83-3.733-6.521-3.357-9.336 0.575-4.316 6.497-5.727 7.119-5.785 0.623-0.055-0.839-0.532-2.86-0.63 0 0 1.823-0.563 1.805-1.327-0.019-0.762-0.815-0.905-1.693-1.296 0.128-0.189 0.245-0.376 0.35-0.56" fill="#ef8200"/>
  </g>
  <g transform="matrix(-.077666 .53017 .53017 .077666 28.146 100.65)">
   <path d="m0 0c-2.693-0.965-5.303 3.855-5.869 5.368 0 0-2.857-3.133-1.664-8.872s0.835-6.368-1.953-7.814c-0.392-0.203-0.729-0.417-1.021-0.64-0.234-1.003 0.337-2.882 1.708-4.776 1.371-1.896 1.156-3.185 0.854-4.497-0.303-1.314-0.35-2.178 0.178-3.074 0 0 0.104 1.354 1.36 2.643 0.676 0.695 1.667 1.918 1.772 2.851 0.056 0.489 0.535 0.81 0.61-0.495 0.073-1.305-0.862-3.075-1.165-3.347 0 0 1.45-0.454 3.111 2.461 0 0 0.449-1.296 0.201-2.121 0 0 1.193 0.137 2.335 2.531s2.223 2.595 3.948 4.583c1.727 1.987 3.643 6.39 1.469 10.527l-0.735-0.769s0.141 2.593-1.431 5.569-1.989 3.808-2.472 5.567c-8e-3 -0.58 0.054-0.978 0.163-1.672 0.517-3.27 1.045-4.642 1.302-5.027 0.142-0.212-1.48 0.113-2.701 1.004" fill="#ef8200"/>
  </g>
  <g transform="matrix(-.077666 .53017 .53017 .077666 18.987 77.514)">
   <path d="m0 0c-0.415 1.823-0.726 2.432-0.529 2.903 0.319 0.771 3.891 1.294 5.44 3.386 1.551 2.093 0.892 5.271 0.293 6.623-2.57-1.316-5.738-1.974-5.564-1.741 0.494 0.659 4.676 3.114 3.387 10.71-0.841-2.218-1.498-4.923-1.739-5.259-0.238-0.334-1.123 4.334-0.213 9.502-0.598-1.962-4.031-2.9-7.173-5.938-3.851-3.723-5.839-10.116-5.34-11.587 0.614 1.209 1.137 1.921 2.246 2.507 0 0-0.621-2.914-2.741-5.197-2.118-2.284-3.964-3.83-4.364-4.791 0 0 1.48-0.024 2.853 0.481 0.41 0.151 0.755 0.291 0.261-0.274-0.748-0.858-1.852-2.316-1.998-3.593 0 0 2.104 0.956 4.73 1.391 2.624 0.436 4.753 0.262 6.153 1.023 0 0-0.098-0.783-0.857-1.463-0.759-0.683-0.725-1.052-0.693-1.516 0 0 1.464 0.875 2.52 1.164s2.665 0.635 3.328 1.669" fill="#ef8200"/>
  </g>
  <g transform="matrix(-.077666 .53017 .53017 .077666 174.55 106.85)">
   <path d="m0 0c-1.536-2.863-4.501-1.843-5.916-1.132-1.416 0.711-4.203 2.869-7.983 0.621-3.045-1.811-1.873-5.64-1.302-8.17 0.57-2.53 0.583-4.357-1.13-5.68-1.713-1.325-4.182-0.781-7.136-0.246-2.954 0.533-5.381 0.479-6.08-1.422-0.175-0.476-0.371-0.872-0.589-1.208-1.399-1.882-1.965-4.534-1.562-6.005 0 0 2.052 2.227 5.342 2.379 0 0-2.44-3.248-2.133-6.494 0 0 1.963 1.953 3.004 2.404 0 0-1.539-2.586-1.001-5.769 0 0 1.107 0.33 2.816 2.894 0.749 1.123 1.699 1.96 3.082 3.028 2.208 1.704 3.409 0.843 5.26 2.879 1.244 1.368 1.976 2.008 2.159 1.841-1.605-3.378-1.054-7.728-0.772-7.205 0.281 0.522 2.179 2.678 3.454 3.194 0 0-1.245-4.275-0.801-4.124 0.922 0.315 2.538 1.808 3.785 3.16 1.247 1.353 2.349 2.868 5.152 4.445 2.803 1.576 2.329 2.311 2.459 3.201 0.279 1.888 1.588 2.262 3.996 3.103 2.409 0.841 3.045 1.453 3.045 1.453-4.173 0.475-9.216-1.413-9.216-1.413 0.28 1.19 0.665 2.002 3.254 3.622 2.589 1.619 0.741 2.832 0.741 2.832 2.592 0.625 5.539 1.921 5.539 1.921-3.706 2.827-10.152 0.152-10.152 0.152 2.653 2.658 2.685 5.739 2.685 5.739" fill="#ef8200"/>
  </g>
  <g transform="matrix(-.077666 .53017 .53017 .077666 143.23 87.889)">
   <path d="m0 0c0.386 0.724 0.737 1.155 1.449 1.925 3.1 3.351 6.682 2.701 6.812 0.046 0.164-3.367-2.708-5.064-3.464-5.347-0.757-0.283 2.11-0.786 4.335 0.506 0.18-0.938 0.014-2.271-1.465-3.511-0.48-0.401 2.462-0.558 4.152 3.11 1.76 3.818 0.127 7.23 3.758 10.854 0.711 1.001 1.49 2.738 0.708 3.958-0.783 1.219-2.273-0.534-2.812 0.125s0.452 2.274 1.511 3.641c1.06 1.365 2.753 4.06 2.732 4.422-0.012 0.212-1.454-0.578-2.863-1.323-0.437-0.23-0.83-0.431-1.164-0.599-0.87-0.438-0.661-0.047-0.276 0.358 5.003 5.259 4.485 7.439 4.485 7.439-1.788-0.669-3.227-1.959-3.227-1.959s0.136 1.47 1.551 2.844c1.416 1.373 2.015 2.388 2.12 2.732 0.103 0.342-3.778-0.879-5.713-2.372-1.386-1.069-2.378-2.444-4.795-3.106-2.418-0.662-3.66-1.361-3.66-1.361 0.082 1.008 1.294 2.146 1.294 2.146-0.403 0.159-1.153-0.047-2.818-1.488-1.667-1.442-2.661-0.102-7.432-3.291-4.773-3.189-7.239-7.27-6.699-8.915 0.17-0.519 1.237-0.915 2.402 0.39 0.394-0.788 0.361-3.934-1.481-5.066-1.84-1.132-2.688-1.633-3.315-3.596-0.627-1.964-1.646-5.112-2.828-6.69-1.18-1.578-1.992-0.904-4.039-0.3-2.048 0.605-2.826-1.133-2.757-2.368 0.07-1.235 0.533-2.273-0.686-4.041-1.432-2.078-2.499-1.671-4.756-2.916-2.258-1.246-4.466-6.601-4.916-9.86 0 0 0.962 0.084 2.454 1.837 1.49 1.753 2.861 3.293 5.484 3.206 2.622-0.089 5.761 0.233 7.343 2.638 1.581 2.405 1.51 5.611 3.653 6.288 2.145 0.677 2.958-0.982 4.631 1.089 1.672 2.072 0.631 4.564 0.547 5.527s-0.617 3.236 1.905 4.823 5.736 2.288 6.682 3.085c0 0 0.185-1.651-1.034-3.419s-1.218-2.753-1.036-3.42c0 0 1.356 1.267 3.228 1.959" fill="#ef8200"/>
  </g>
  <g transform="matrix(-.077666 .53017 .53017 .077666 136.74 57.493)">
   <path d="m0 0c-0.29-0.277 2.701 0.926 3.793 1.979 0 0 0.065-1.347-0.14-1.708 0 0 4.164 1.359 5.774 1.572-0.501-0.863-0.609-1.447-0.357-1.335 0.658 0.291 2.177 2.305 3.377-0.296 1.201-2.601-1.286-3.771-3.411-5.817-2.124-2.047-3.436-3.499-1.527-6.312-0.767-1.977-0.54-3.369-0.272-2.828 0.391 0.789 2.092 4.819 5.58 5.092 3.49 0.274 4.865-1.701 5.826-1.058s0.717 3.941 3.992 3.141c4.388-1.073 2.64-3.826 2.083-4.282-0.558-0.457 4.617 0.582 6.489 1.778 1.463 0.933 1.145 3.386 1.303 5.209 1.057 0.29 3.147 1.241 4.508 0.704 0.775-0.306 0.802-0.993 0.462-1.693 0 0 0.74-0.48 4.176 0.538 1.403 0.415 4.149 0.909 4.746-0.444 0.598-1.353-0.779-2.413-2.953-2.781 0 0 1.068-0.814 3.015-0.879-0.329-0.09-0.988-0.612-1.941-1.935-0.952-1.323-1.71-1.34-3.379-2.24-2.29-1.234-2.589-2.176-2.589-2.176s-0.916 0.76-1.673 0.755c-1.179-7e-3 -1.414-0.741-1.477-1.618-0.063-0.876-0.348-2.42-1.374-3.105-1.025-0.686-1.551-0.425-3.343-0.157-1.792 0.267-2.181-0.345-2.89-0.894-0.709-0.548-2.022-1.109-2.022-1.109-0.295 0.525-0.347 1.269 0.293 2.253 0.641 0.985 0.724 1.968 0.724 1.968-1.766-2.961-2.43-2.384-3.335-2.582-0.906-0.198-1.534-0.673-3.172-1.525-1.636-0.854-2.073-0.366-2.463 0.134-0.389 0.499-0.544 1.063-2.117 0.531-2.448-0.827-3.114-1.914-5.432-2.498-2.317-0.585-2.936-0.351-3.78 0.329-0.844 0.679-2.168 0.164-2.925-0.398-0.756-0.56-2.272-1.481-2.272-1.481-0.478 2.296 1.079 4.087 1.079 4.087-2.296-0.478-2.122-1.112-3.666-2.673-1.544-1.559-3.705-1.697-3.705-1.697 1.155 0.948 1.333 1.541 1.401 2.356 0.128 1.475 0.589 2.283 0.589 2.283s-0.912 0.282-1.905-0.521-0.761-1.649-2.467-2.344c-1.705-0.695-2.546-0.393-2.546-0.393 1.575 0.709 2.09 1.785 2.352 2.766 0.261 0.982 1.074 2.721 1.387 2.958-0.545-0.224-1.462-0.235-2.397-0.657-1.76-0.792-3.105-2.374-4.916-3.091-1.654-0.653-3.084-0.92-4.271-1.017 0 0 0.724 0.957 2.141 1.875 1.416 0.919 0.511 1.176 2.671 2.703 0.608 0.43 0.846 1.066 0.536 2.194-0.309 1.129-0.13 2.554 2.278 4.416 1.065 0.821 2.058 1.624 3.179 2.235 1.122 0.611 1.089 2.118 2.313 2.909 0 0-1.638-0.297-3.137-1.466 0 0-0.284 0.683 0.89 2.746 0.905 1.587 2.621 4.45 6.897 5.499" fill="#ef8200"/>
  </g>
  <g transform="matrix(-.077666 .53017 .53017 .077666 40.103 110.02)">
   <path d="m0 0c0.339 0.838 0.967 2.104 1.313 3.691 0.462 2.114-0.735 6.138-1.233 7.61s-1.506 1.007-1.568-0.146c-0.064-1.153-0.76-0.681-0.953 0.023-0.194 0.704-0.605 4.281-2.134 4.336-1.529 0.054-1.511-1.739-2.639-1.764-1.13-0.025-2.391 4.928-3.139 7.655-0.747 2.729-2.634 2.023-2.634 2.023-0.779 1.111-1.573 1.882-2.599 3.21-0.213-1.12-0.65-2.223-1.504-2.869-0.299-0.226-0.572-0.358-0.82-0.416 0.521-1.071 1.857-3.925 0.282-6.48s-2.328-5.407-0.9-8.891c2.514-6.134 8.382-4.3 8.906-4.004 0.526 0.295-0.136-4.162-4.088-6.418 0.621-0.791 1.287-1.783 1.814-2.942 0.742-1.081 1.996-4.219 2.212-5.011 0.217-0.791 1.324-2.758 2.129-0.172 0 0 1.065-0.087 2.215-4.976 0.547-2.325 1.3-3.713 1.66-3.992 0 0 0.025 3.533 0.316 4.722 0.223 0.913 0.611 1.06 1.168 0.226 1.282-1.921 0.301-3.514 1.319-5.506 0 0 6.282 5 1.546 11.962-0.5 0.773-0.966 1.673-1.357 2.75-0.517 1.421-0.265 3.616 0.688 5.379" fill="#ef8200"/>
  </g>
  <g transform="matrix(-.077666 .53017 .53017 .077666 34.207 58.603)">
   <path d="m0 0c1.039 1.344 1.631 1.961 3.663 2.518 0.88 0.241 0.63 1.498 1.42 3.795 0.791 2.298 2.684 5.75 6.379 7.803s4.288 1.27 4.288 1.27 0.097-0.913-1.909-2.699c-1.709-1.521-2.51-3.622-2.557-4.486 0 0 2.935 2.413 6.294 3.616 3.046 1.093 2.926-1.014 2.026-2.427-0.093-0.146-0.162-0.319 0.118-0.166 0.884 0.479 3.179 1.55 6.965 2.156 4.986 0.799 4.892-0.931 4.892-0.931-8.794-1.747-9.277-5.853-9.277-5.853 2.216 0.89 3.272 0.139 3.272 0.139-2.438-1.803-3.628-5.062-4.546-6.544-0.919-1.48-1.2-0.801-4.071-2.061-2.872-1.26-4.5-3.707-5.221-6.161-0.79-2.692-1.564-3.267-1.564-3.267-1.21 1.655-0.828 3.369-0.828 3.369-1.336-0.65-3.655-2.893-4.782-5-1.124-2.107-1.605-2.427-2.493-3.333 0.056 0.609 0.055 1.089 0.036 1.512-2.084-3.339-7.825-4.364-7.051-3.541 2.916 3.104 1.748 7.09 2.01 10.621 0.198 2.656 1.173 4.699 2.618 6.175 0 0-0.778 2.079 0.318 3.495" fill="#ef8200"/>
  </g>
  <g transform="matrix(-.077666 .53017 .53017 .077666 75.208 97.831)">
   <path d="m0 0c0.187-1.231 0.208-2.172-0.075-2.398-0.146-0.117-0.218-0.146-0.397-0.122 1.236-2.846 1.504-6.412 1.524-8.882 0 0 0.124-1.005 0.22-1.356-1.264 2.361-2.473 4.781-4.519 6.087 0 0 0.394-5.213 1.758-8.252 2.967-2.428 6.371-3.118 5.93-3.411-0.155-0.104-0.452-0.252-0.868-0.401l0.078 0.028c-0.51-2.505-2.914-3.539-4.508-3.81 0.557-2.193 2.211-4.507 2.579-6.216 0.367-1.709 1.909-4.404 3.014-4.403 0 0-0.682 2.125 0.695 2.604 0.792-1.794 1.117-2.61 1.892-3.604s1.396-1.427 1.44-2.319c0 0 0.859 0.694 0.021 3.222-0.942 2.845 1.332 4.846 2.091 6.164 0.175 0.303 0.285 0.496 0.461 0.049 0.19-0.482 0.515-1.125 1.041-1.71 1.013-1.13 1.584-2.481 1.584-2.481 0.855 2.747-0.046 3.103-0.986 7.269-0.941 4.166 1.169 3.437 0.766 6.744-0.403 3.308-1.163 5.715-2.523 5.542-1.361-0.171-1.38 1.733-1.662 2.761-0.282 1.03-0.452 1.285-1.32 1.148-0.867-0.137-0.91 0.756-0.927 1.555-0.018 0.798-0.266 1.335 0.176 1.556 0.52 0.261 1.071 0.494 1.421-0.415 0.349-0.91 0.98-1.742 1.634-1.563-0.272 0.629-0.291 1.428-0.658 3.137-0.367 1.71-1.371 1.333-2.145 1.222-0.773-0.112-0.885 0.663-1.337 1.946-0.452 1.284-1.338 1.947-1.94 1.58-0.605-0.367-0.585-2.271 0.584-5.068-3.079-0.14-2.91 2.974-5.044 3.797" fill="#ef8200"/>
  </g>
  <g transform="matrix(-.077666 .53017 .53017 .077666 130.71 114.8)">
   <path d="m0 0c-4.187 15.283 0.347 31.782 4.53 44.664s1.96 22.834 0.809 25.201c0 0 2.266 2.13 3.142 5.052 0 0 1.504-0.593 3.213-6.831s1.803-13.925-2.681-23.871c-4.486-9.946-8.116-23.012-8.886-30.601-0.772-7.588-0.127-13.614-0.127-13.614" fill="#dab300"/>
  </g>
  <g transform="matrix(-.077666 .53017 .53017 .077666 89.897 115.12)">
   <path d="m0 0c3.908 11.142-3.952 17.134-3.952 17.134-0.727-2.086-3.274-3.815-3.274-3.815s-1.563 0.603-2.208 3.225c-0.984 4.001 1.024 8.897 1.024 8.897-0.442-0.268-2.501-2.968-2.501-2.968-0.385 4.902 3.567 13.054 3.567 13.054-0.399 0.112-4.394-3.044-4.394-3.044 0.837 3.396 0.767 10.373 0.767 10.373 7.508 19.088-0.398 32.369-0.398 32.369l-0.51 4.279s14.164-5.58 17.716-25.415c2.639-14.743-2.315-25.158-2.315-25.158s5.12-10.087 3.037-19.421c-2.082-9.334-6.559-9.51-6.559-9.51" fill="#dab300"/>
  </g>
  <g transform="matrix(-.077666 .53017 .53017 .077666 70.019 124.7)">
   <path d="m0 0c0.993 1.652-0.065 4.319-0.603 6.998-0.537 2.679-1.565 3.316-2.004 3.722-0.441 0.404-7.015 4.977-8.701 6.092-1.234 0.817-4.394 2.609-4.971 4.751-0.976 3.623-3.845 12.799-4.066 13.605 0 0 2.016 1.998 2.548 3.655 0 0 0.288 0.145 0.991-2.423 0.704-2.567 2.323-8.235 2.323-8.235s8.802-3.83 10.399-4.379c1.596-0.549 3.024-0.486 5.426-6.136 0 0 3.678-2.869 3.79-3.758 0.112-0.89-1.073-4.959-1.283-5.871-0.21-0.913-1.182-1.442-1.182-1.442s0.492-2.756-0.195-4.324c-0.689-1.569-2.472-2.255-2.472-2.255" fill="#a74b00"/>
  </g>
  <g transform="matrix(-.077666 .53017 .53017 .077666 74.802 115.42)">
   <path d="m0 0c-0.367 0.622-1.365 3.305-1.562 4.5-0.195 1.195 1.302 3.643 2.08 4.644 0.776 1.001 1.5 1.002 2.56 1.687l2.264-1.549s-2.179-0.201-2.923-0.602c-0.744-0.402-2.541-3.195-2.496-3.839 0.045-0.645 0.625-3.246 0.82-3.718s-0.043-0.801-0.743-1.123" fill="#a74b00"/>
  </g>
  <g transform="matrix(-.077666 .53017 .53017 .077666 86.712 121.04)">
   <path d="m0 0c0.267 0.467 1.353 2.736 1.835 3.854 0.482 1.119-0.213 1.979-1.248 2.878-1.034 0.9-4.322 2.825-6.124 3.645 0 0 1.232 6.055 0.952 8.278 0 0 6.241-4.073 7.448-5.122 1.208-1.05 1.681-1.578 1.621-3.039 0 0 0.347-1.021-0.896-3.202 0 0 1.302-1.155 0.842-2.596-0.46-1.44-1.592-3.929-1.991-4.487-0.759-1.063-2.439-0.209-2.439-0.209" fill="#a74b00"/>
  </g>
  <g transform="matrix(-.077666 .53017 .53017 .077666 73.269 116.23)">
   <path d="m0 0c-0.875 0.392-1.44 1.553-1.733 2.021l0.833 0.366z" fill="#dbdcdc"/>
  </g>
  <g transform="matrix(-.077666 .53017 .53017 .077666 138.38 64.33)">
   <path d="m0 0c-3.113 5.214-23.527 8.383-27.005 8.778 0 0 12.949-0.833 17.375-0.38 4.425 0.455 10.623 1.816 14.365 1.072 0 0-2.263-1.884-2.419-3.78 0 0 2.763 2.526 4.062 0.86s-0.765-3.792-2.596-4.671c-2.458-1.179-3.782-1.879-3.782-1.879" fill="#dab300"/>
  </g>
  <g transform="matrix(-.077666 .53017 .53017 .077666 125.68 96.02)">
   <path d="m0 0c-1.696 0.041-4.478 1.891-5.306 2.759-0.827 0.869-3.747-0.774-3.747-0.774-0.964 1.674-1.853-2e-3 -4.51-1.067-2.657-1.064-3.477-0.531-3.477-0.531s0.784 0.215 1.346 1.548c0.561 1.334-0.466 2.316-3.146 2.255-2.68-0.059-4.059-2.712-7.058-3.45-3-0.737-4.883 0.601-4.883 0.601s3.555 0.553 2.998 2.59c-0.559 2.038-3.472 0.987-5.823 0.342-2.351-0.643-3.05-0.245-3.05-0.245 0.398 0.699 0.389 1.96-0.95 1.93-1.34-0.03-3.805-0.874-3.805-0.874-0.026 3.784 5.234 3.962 7.194 3.572s4.47-1.555 7.332 0.913c2.863 2.469 2.629 6.702 2.629 6.702 2.439-0.596 11.707-4.292 32.482 1.063 0 0-9.246-10.536-8.226-17.334" fill="#dab300"/>
  </g>
  <g transform="matrix(-.077666 .53017 .53017 .077666 168.8 122.04)">
   <path d="m0 0 18.666 41.515s0.426-0.475-0.322-2.604-4.424-11.94-4.424-11.94 0.751 0.502-0.709-3.894c-1.46-4.395-7.805-20.931-8.667-22.646-0.862-1.716-2.557-2.55-3.402-1.894-0.847 0.656-1.142 1.463-1.142 1.463" fill="#a74b00"/>
  </g>
  <g transform="matrix(-.077666 .53017 .53017 .077666 73.57 116.42)">
   <path d="m0 0c-0.241 0.601-0.622 1.882-0.792 2.546-0.057 0.222-0.828-0.436-0.773-0.651 0.148-0.579 0.618-1.582 0.882-2.196-0.85 0.209-2.859 1.241-3.826 2.96-0.132 0.236-1.012-0.181-0.881-0.413 1.137-2.022 3.226-3.037 4.425-3.222 1.33-0.206 1.241 0.294 0.965 0.976"/>
  </g>
  <g transform="matrix(-.077666 .53017 .53017 .077666 114.05 69.4)">
   <path d="m0 0c-0.771 0.675-2.229 0.736-3.176 0.541 1.215 1.366 1.894 3.846 0.452 5.861-1.363 1.909-4.505 2.201-6.173 2.098 0.46 0.574 0.633 1.352 0.403 1.933-0.558 1.396-2.521 2.864-5.502 2.736-2.541-0.11-4.123-1.271-6.032-2.48-1.456-0.922-3.107-1.968-5.518-2.855-3.968-1.46-6.476-0.728-7.155-0.295 0.943 0.571 1.708 1.577 1.67 2.35-0.018 0.362-0.101 0.894-0.619 1.323-0.788 0.652-2.33 1.012-4.707 0.684-3.606-0.497-5.06-2.005-7.072-4.092-0.583-0.605-1.255-1.277-2.019-2.016-2.11-2.038-3.946-2.726-5.078-2.991 1.826 1.229 2.06 2.541 2.002 3.047-0.051 0.443-0.275 0.788-0.646 1-0.813 0.464-2.358 0.295-4.553-0.683-2.87-1.276-5.928-4.599-7.474-6.849 0.634 1.404 2.211 4.397 3.777 5.893 0.519 0.494 0.245 0.793-0.419 0.503-1.028-0.45-2.199-0.876-2.835-1.029 2.333 1.734 3.209 4.956 3.968 8.285 0.547 2.399 1.113 4.88 2.19 7.263 2.837 6.272 7.9 7.743 7.951 7.757 0.412 0.115 0.37 0.534 0.322 0.652-9e-3 0.022-0.911 2.159-4.106 1.218-2.238-0.66-3.016-1.966-3.702-3.119-0.512-0.861-0.997-1.674-2.06-2.265-0.75-0.416-1.013-0.305-1.536-0.083-0.555 0.235-1.244 0.704-2.686 0.432-1.675-0.316-2.287-1.127-2.86-1.829-0.412-0.505-0.877-1.076-1.918-1.67-1.307-0.745-2.887-0.601-3.53-0.376 1.735 0.532 2.584 1.904 2.487 2.785-0.131 1.192-1.292 2.189-2.943 2.364-2.072 0.219-3.042-1.446-3.904-2.81-0.599-0.947-1.164-1.843-2.024-2.16-1.704-0.627-2.432 0.135-4.015 1.433-0.525 0.43-1.121 0.92-1.844 1.433-1.951 1.386-4.235 1.032-5.769 0.609 0.501 0.488 1.093 1.05 1.659 1.575 0.297 0.276 0.698 1.013-0.408 0.839-3.327-0.527-5.446-1.8-6.734-2.63 0.919 1.98 4.401 7.116 8.788 8.966 0.807 0.34 1.511 0.631 2.133 0.887 3.134 1.293 4.307 1.777 6.093 3.51 0.806 0.781 1.513 1.577 2.137 2.279 0.943 1.062 1.757 1.98 2.448 2.311 0.243 0.116 0.03 0.602-0.213 0.485-0.868-0.416-2.107-1.182-3.162-2.371-0.612-0.688-1.193-1.21-1.974-1.966-1.652-1.603-2.653-1.885-5.829-3.196-0.624-0.257-1.331-0.548-2.139-0.89-4.574-1.928-7.892-7.048-8.866-9.418-0.634-1.544-0.332-2.006 1.282-1.087 0.821 0.467 2.222 1.265 4.533 1.827-0.39-0.369-0.697-0.682-0.956-0.929-1.81-1.725-0.623-1.651 0.633-1.223 1.295 0.442 3.703 0.945 5.713-0.484 0.696-0.493 1.277-0.971 1.79-1.392 1.631-1.337 2.809-2.303 5.037-1.482 1.17 0.431 1.852 1.51 2.511 2.554 0.814 1.286 1.516 2.398 2.985 2.242 1.177-0.125 1.988-0.667 2.069-1.383 0.086-0.782-0.75-1.59-2.13-2.057-0.732-0.247-0.684-0.621 0.046-1.113 0.68-0.458 2.534-1.144 4.579 0.022 1.198 0.683 1.748 1.357 2.19 1.899 0.536 0.657 0.89 1.091 2.215 1.341 1.152 0.217 1.682-8e-3 2.195-0.225 0.601-0.255 1.239-0.635 2.405 0.012 1.293 0.717 1.853 1.801 2.41 2.735 0.681 1.144 1.268 2.131 3.14 2.683 1.425 0.42 2.525 0.057 2.913-0.267-1.782-0.671-6.017-2.614-8.456-8.007-1.118-2.471-1.721-5.115-2.252-7.447-0.807-3.533-1.464-6.551-3.487-7.972-1.027-0.72-1.607-1.466 0.165-1.396 0.475 0.019 1.075 0.108 1.725 0.294-1.054-1.395-1.998-3.103-2.348-4.307-0.65-2.229 0.023-2.411 1.438-0.755 1.318 1.541 4.061 4.746 7.028 6.067 1.252 0.558 2.085 0.793 2.637 0.873 1.243 0.182 1.216-0.526 1.015-1.078-0.154-0.419-0.507-0.929-1.277-1.425-1.527-0.985-1.468-1.677 0.232-1.488 1.397 0.155 3.86 0.802 5.963 2.864 0.777 0.763 1.464 1.438 2.055 2.051 2.016 2.091 3.232 3.353 6.503 3.803 2.703 0.373 3.633-7e-3 3.946-0.267 0.205-0.171 0.255-0.371 0.268-0.621 0.023-0.47-0.498-1.311-1.204-1.691-0.287-0.154-0.392-0.495-0.248-0.813 0.45-1 3.482-2.285 8.309-0.509 2.507 0.923 4.144 2.089 5.642 3.037 1.864 1.182 3.337 2.114 5.618 2.213 2.491 0.108 4.072-0.965 4.488-2.007 0.105-0.258 0.203-0.705-0.055-1.134-0.453-0.756-0.589-1.136 0.578-1.151 1.173-0.015 4.13-0.229 5.36-1.951 1.403-1.964 0.355-4.101-0.252-4.934-0.537-0.736-0.476-1.132 0.513-1.062 0.581 0.042 1.841 0.043 2.651-0.604 0.461-0.368 0.708-0.891 0.754-1.597 0.146-2.219-1.502-2.692-3.506-3.043-0.264-0.046-0.507-0.089-0.717-0.137-2.635-0.603-3.777-2.264-4.035-3.149-0.286-0.966 0.309-1.209 1.026-0.934 0.593 0.229 1.738 0.669 3.048 0.215-1.021-1.01-2.561-3.297-1.014-6.713 0.111-0.245 0.745 0.034 0.634 0.281-1.734 3.833 1.41 6.067 1.545 6.16 0.383 0.264 0.281 0.645-0.036 0.825-1.663 0.948-3.576 0.456-4.551-0.041 0.376 0.654 1.778 1.99 3.601 2.406 0.194 0.044 0.421 0.084 0.667 0.127 1.582 0.277 4.526 0.794 4.311 4.066-0.018 0.274-0.149 1.449-1.122 2.299"/>
  </g>
  <g transform="matrix(-.077666 .53017 .53017 .077666 173.86 119.43)">
   <path d="m0 0c-0.073 0.267-0.312 0.468-0.604 0.478-3.926 0.132-8.026-2.532-9.824-4.354-0.253-0.256-0.25-0.668 6e-3 -0.919 0.256-0.253 0.668-0.25 0.919 5e-3 1.638 1.66 5.346 4.086 8.855 3.968 0.359-0.011 0.659 0.269 0.671 0.628 2e-3 0.067-5e-3 0.132-0.023 0.194"/>
  </g>
  <g transform="matrix(-.077666 .53017 .53017 .077666 169.94 125.59)">
   <path d="m0 0c-0.161 0.321-1.018-0.283-0.854-0.605 1.736-3.461 4.664-12.1 3.319-20.017-0.788-4.635-2.135-7.553-3.84-11.247-1.031-2.234-2.199-4.766-3.479-8.151-2.129-5.636-6.906-20.441-4.605-35.097 0.23-1.457 0.889-1.227 0.721 0.244-1.658 14.508 3.02 29.141 5.116 34.685 1.263 3.34 2.52 5.836 3.542 8.05 1.745 3.783 3.121 6.689 3.937 11.493 1.066 6.268-0.599 14.151-3.857 20.645"/>
  </g>
  <g transform="matrix(-.077666 .53017 .53017 .077666 133.34 115.19)">
   <path d="m0 0c-0.315 0.171-0.485-0.947-0.171-1.118 0.541-0.293 13.287-7.365 16.479-23.551 2.757-13.971-1.31-26.211-3.367-30.713-0.762-1.671-0.224-1.991 0.698-0.403 2.801 4.826 6.968 16.994 3.961 31.284-2.991 14.203-12.818 21.909-17.6 24.501"/>
  </g>
  <g transform="matrix(-.077666 .53017 .53017 .077666 99.22 113.93)">
   <path d="m0 0c-0.653-0.9-1.755-2.264-3.075-3.102-0.302-0.192 0.962-0.924 1.097-0.829 1.214 0.854 2.203 2.172 2.686 3.395 0.518 1.32 0.25 1.854-0.708 0.536"/>
  </g>
  <g transform="matrix(-.077666 .53017 .53017 .077666 105.12 119.52)">
   <path d="m0 0c-0.17 0.316-0.945-0.485-0.763-0.832 2.721-5.165 3.863-14.369 2.649-19.256-1.533-6.168-3.849-7.786-5.092-8.202-2.135-0.714-3.925 0.344-4.596 0.832-0.291 0.211-0.501-0.724-0.404-0.787 1.686-1.11 3.634-1.532 5.163-1.021 1.827 0.611 4.576 2.372 6.175 8.804 1.443 5.808-0.066 14.755-3.132 20.462"/>
  </g>
  <g transform="matrix(-.077666 .53017 .53017 .077666 122.13 106.57)">
   <path d="m0 0c-2.545-1.249-9.081-6.117-10.419-16.761-0.316-2.521-0.622-5.286-0.946-8.214-0.766-6.928-1.887-14.306-2.857-18.308-2.142-8.834-4.131-14.591-6.286-19.035-2.096-4.325-2.385-7.848-1.285-15.707 0.359-2.57 1.41-7.451 2.338-11.843 0.611-2.897 1.189-5.633 1.525-7.486 0.919-5.073 2.824-16.863 2.6-25.655-0.21-8.183-2.108-21.358-6.85-31.724-4.609-10.079-4.169-13.832-3.003-18.089 0.093-0.34 0.864-0.251 0.791 0.1-0.859 4.179-1.089 7.646 3.367 17.388 4.823 10.545 6.782 23.985 6.994 32.291 0.227 8.898-1.468 20.929-2.396 26.047-0.34 1.872-0.919 4.616-1.532 7.522-0.923 4.371-1.877 8.892-2.229 11.417-1.071 7.646-0.82 10.862 1.167 14.96 2.196 4.529 4.227 10.796 6.392 19.722 0.989 4.083 1.786 11.289 2.557 18.258 0.322 2.922 0.627 5.682 0.943 8.194 1.266 10.075 7.043 14.864 9.54 16.357 1.298 0.775 1.001 1.258-0.411 0.566"/>
  </g>
  <g transform="matrix(-.077666 .53017 .53017 .077666 36.06 81.634)">
   <path d="m0 0c-3.26-5.091-3.257-12.098-2.489-15.313 0.52-2.178 1.2-1.67 1.648-0.299 0.092 0.283 0.205 0.658 0.357 1.162 0.52 1.731 1.066 4.331 1.755 5.811 0.574 1.232 0.075 1.457-0.611 0.283-0.918-1.572-1.847-5.005-2.385-6.776-0.254 3.099 0.038 10.626 2.265 14.802 0.563 1.057 0.199 1.483-0.54 0.33"/>
  </g>
  <g transform="matrix(-.077666 .53017 .53017 .077666 135.78 84.326)">
   <path d="m0 0c10.85-2.538 25.7-1.349 33.183 1.213 0.327 0.111-0.081 1.346-0.421 1.229-8.532-2.92-25.575-3.758-32.885-0.796z"/>
  </g>
  <g transform="matrix(-.077666 .53017 .53017 .077666 143.45 68.33)">
   <path d="m0 0c-3.957 0.277-7.19-0.431-10.117-0.828-1.035-0.142-2.107-0.287-3.203-0.4-6.382-0.655-19.839-5e-3 -26.574 1.46-7.084 1.542-11.86-1.608-15.061-3.787-3.202-2.178-7.679-4.798-9.721-5.71-1.852-0.827-0.955-1.377-0.105-1.727 1.22-0.506 3.621-0.512 6.855 0.981 1.086 0.5 0.95 1.011-0.208 0.62-2.376-0.8-5.156-0.882-6.172-0.674 2.675 0.982 7.258 3.276 10.082 5.267 2.826 1.991 7.433 4.993 13.974 3.569 7.04-1.532 20.578-1.958 27.093-1.29 1.118 0.116 2.2 0.263 3.246 0.405 2.536 0.345 5 0.68 8.028 0.603z"/>
  </g>
  <g transform="matrix(-.077666 .53017 .53017 .077666 168.86 124.1)">
   <path d="m0 0c2.105 4.078 6.626 15.058 9.78 25.462-3.038-6.944-10.683-26.241-11.038-27.142 0.561 0.209 0.886 0.961 1.258 1.68m-8.024 3.286c2.116-0.904 3.524-1.774 4.447-3.156 0.491-0.734 0.893-1.187 1.214-1.461 0.358 0.905 0.896 2.29 1.557 3.994 2.402 6.188 6.434 16.347 9.494 23.319 2.426 5.527 5.17 11.812 5.951 14.121-0.615-0.732-2.057-2.917-3.691-5.422-2.414-3.702-8.829-13.537-16.593-22.6-0.792-0.925-1.474-1.708-2.058-2.38-4.314-4.954-3.263-5.159-0.321-6.415m23.451 36.368c-0.286-1.085-1.527-4.648-2.835-7.829-1.399-7.403-8.209-26.007-11.438-32.422-0.554-1.101-1.434-2.544-2.667-2.613-1.037-0.059-1.995 0.897-3.144 2.618-0.552 0.824-1.871 1.734-3.922 2.702-1.255 0.593-3.143 1.292-3.476 3.025-0.255 1.345 0.65 2.294 3.371 5.42 0.582 0.669 1.263 1.45 2.052 2.372 7.709 8.998 14.218 18.771 16.62 22.454 2.036 3.122 3.242 4.57 3.97 5.296 1.643 1.638 1.875 0.523 1.469-1.023"/>
  </g>
  <g transform="matrix(-.077666 .53017 .53017 .077666 47.679 91.759)">
   <path d="m0 0c-0.057-1.47 0.062-3.43 0.178-4.858 0.287-3.537 0.584-7.194-1.62-11.543-1.02-2.014-2.078-3.578-3.101-5.091-1.646-2.433-3.201-4.731-4.252-8.428-0.768-2.707-0.934-4.951-1.065-6.753-0.16-2.177-0.275-3.749-1.287-5.031-1.263-1.598-5.007-2.957-6.93-3.625 2.053 1.63 4.11 5.086 3.168 11.091-0.041 0.26-0.915-1.362-0.892-1.629 0.53-6.013-1.954-8.137-3.014-9.044-1.109-0.95-0.844-1.426 0.595-1.22 2.022 0.289 6.445 1.896 7.903 3.742 1.197 1.516 1.369 3.41 1.535 5.672 0.136 1.851 0.334 3.919 1.076 6.53 1.008 3.547 2.514 5.738 4.115 8.104 1.04 1.537 2.297 3.16 3.345 5.228 2.327 4.595 1.693 8.404 1.395 12.076-0.119 1.465-0.378 2.926-0.323 4.338 2e-3 0.05-0.815 0.71-0.826 0.441"/>
  </g>
  <g transform="matrix(-.077666 .53017 .53017 .077666 77.995 97.855)">
   <path d="m0 0c-0.1 0.295-1.372 1.033-1.265 0.783 1.141-3.641 1.968-7.772 1.681-8.265-0.086 0.025-0.481 0.298-1.309 1.3-0.795 0.965-1.109 0.604-0.464-0.434 0.356-0.573 0.661-0.956 1.21-1.412 0.378-0.315 1.085-0.13 1.286 0.398 0.491 1.307-0.445 5.584-1.139 7.63"/>
  </g>
  <g transform="matrix(-.077666 .53017 .53017 .077666 69.948 97.691)">
   <path d="m0 0c-0.466 1.7-1.134 3.222-1.873 4.111-0.575 0.695-0.862 0.424-0.395-0.353 0.468-0.779 1.557-3.66 1.894-5.227-0.704 1.521-1.995 3.44-3.17 4.492-0.824 0.738-1.46 1.112-1.299-0.673 0.133-1.468 0.545-4.908 1.631-7.33 0.11-0.246 1.191-0.414 1.079-0.166-0.928 2.064-1.827 6.143-1.991 7.719 1.172-1.052 2.336-3.082 3.196-4.676 0.927-1.714 1.723-1.59 1.303 0.528-0.104 0.522-0.232 1.054-0.375 1.575"/>
  </g>
  <g transform="matrix(-.077666 .53017 .53017 .077666 48.361 91.196)">
   <path d="m0 0c-0.585 0.867-0.3 1.097 0.451 0.37 0.67-0.646 3.768-4.55 7.392-3.184-1.3 0.502-3.444 1.794-5.072 4.587-0.488 0.835-0.012 1.131 0.525 0.329 1.197-1.792 3.113-3.212 4.191-3.86-2.362 2.793-3.248 6.89-3.542 8.7-0.672 4.142-0.529 8.902 0.401 13.402 0.905 4.395 0.208 6.435-0.657 8.303-0.109 0.241 0.547 0.538 0.683 0.305 1.238-2.123 1.632-5.741 0.981-8.895-0.906-4.388-0.917-8.919-0.264-12.947 0.673-4.157 1.908-7.19 3.613-8.944 0.342-0.351 1.656-0.982-0.385-1.85-3.375-1.433-6.92 1.609-8.317 3.684"/>
  </g>
  <g transform="matrix(-.077666 .53017 .53017 .077666 65.737 98.378)">
   <path d="m0 0c-1.713 0.866-5.019 2.28-7.296 5.436-0.677 0.937-1.085 0.677-0.496-0.321 2.01-3.414 6.277-5.532 8.181-6.086-1.023-0.373-3.289-0.778-5.884-0.506-1.096 0.116-1.257-0.335-0.182-0.572 2.624-0.576 4.949-0.142 6.162 0.326 1.496 0.58 1.047 0.948-0.485 1.723"/>
  </g>
  <g transform="matrix(-.077666 .53017 .53017 .077666 64.943 98.005)">
   <path d="m0 0c-0.666-2.59-3.628-3.46-4.909-3.351-0.989 0.084-1.045-0.344-0.095-0.547 1.697-0.366 4.933 0.599 5.753 3.788 0.022 0.085-0.682 0.371-0.749 0.11"/>
  </g>
  <g transform="matrix(-.077666 .53017 .53017 .077666 137.23 62.488)">
   <path d="m0 0c-1.205-0.16-3.527-1.009-4.76-1.401 0.025 0.39-0.04 0.912-0.051 1.14-0.01 0.244-0.091 1.035-0.825 0.327-0.554-0.534-2.053-1.522-2.989-2.016 0.348 0.362 0.562 1.06 0.543 1.357-0.044 0.645-0.347 1.187-0.874 1.571-0.951 0.691-2.66 0.268-4.825-0.266-1.252-0.31-2.546-0.63-3.781-0.749-3.299-0.32-6.68 1.652-7.709 2.39 0.636 0.828-0.159 2.132-1.011 2.687-1.614 1.05-4.393 0.166-5.399-0.131-0.285 0.739-1.024 1.241-1.781 1.505-3.076 1.075-7.83-0.88-9.841-1.862-2.368-1.157-6.286-2.747-8.228-3.296 0.25 0.218 1.842 1.515 2.084 1.731 0.2 0.18-0.832 0.366-1.033 0.186l-2e-3 -2e-3c-0.816-0.732-1.585-1.422-2.511-2.04-1.591-1.059-0.014-0.819 0.452-0.746 0.228 0.035 4.857 0.943 9.565 3.142 3.082 1.439 7.118 2.81 9.347 2.031 0.658-0.231 1.11-0.621 1.384-1.196 0.137-0.287 0.14-0.413 0.602-0.25 0.902 0.319 3.525 0.958 4.829 0.111 0.692-0.451 0.965-0.938 0.988-1.244 0.012-0.155-0.034-0.277-0.143-0.374-0.333-0.298-0.082-0.657 0.016-0.738 0.163-0.136 4.039-3.516 8.474-3.087 1.306 0.127 2.696 0.47 3.921 0.774 1.688 0.417 3.445 1.059 4.029 0.634 0.287-0.209 0.443-0.477 0.471-0.821 0.051-0.572-0.242-1.074-0.372-1.279-0.653-1.026 0.426-0.891 0.879-0.739 0.754 0.252 2.201 1.083 3.053 1.637-0.016-0.235-0.239-0.782-0.272-0.853-0.375-0.81-0.052-0.766 0.487-0.586 0.039 0.013 3.866 1.281 5.412 1.486 0.267 0.035 0.116 0.999-0.129 0.967"/>
  </g>
  <g transform="matrix(-.077666 .53017 .53017 .077666 125.99 96.083)">
   <path d="m0 0c-0.83-0.228-3.01 0.967-3.952 1.769-0.653 0.555-1.692 1.546-2.938 1.121-0.714-0.245-1.44-0.608-1.963-0.961-0.047 0.315-0.34 0.701-0.589 0.784-0.753 0.251-1.747-0.292-3.559-1.524-1.055-0.718-2.76-1.154-3.478-1.209 1.089 0.704 1.673 1.787 1.483 2.525-0.177 0.599-0.791 1.71-3.251 1.764-2.216 0.048-3.404-1.027-4.455-1.929-0.755-0.65-1.53-1.337-2.807-1.669-1.948-0.507-3.643-0.204-4.511 0.08 0.971 0.204 2.046 0.423 2.665 1.41 0.312 0.502 0.293 1.1 0.038 1.678-0.831 1.88-4.291 1.022-5.331 0.715-1.87-0.554-3.109-0.853-3.611-0.839 0.256 0.411 0.279 0.87 0.172 1.149-0.101 0.26-0.337 0.615-0.883 0.83-1.25 0.494-2.888-0.054-4.085-0.455-0.275-0.092-0.732-1.243-0.472-1.172 0.221 0.061 0.487 0.15 0.781 0.247 1.055 0.354 2.499 0.837 3.418 0.474 0.44-0.174 0.448-0.522 0.204-1.026-0.106-0.222-0.032-0.489 0.173-0.622 0.218-0.141 1.19-0.525 4.579 0.478 1.796 0.531 3.803 0.643 4.163-0.173 0.133-0.299 0.13-0.569-6e-3 -0.822-0.312-0.581-1.278-1.06-2.584-1.281-1.069-0.181-0.351-0.772-0.2-0.879 0.097-0.067 2.391-1.652 5.748-0.733 1.483 0.407 2.388 1.185 3.185 1.871 0.994 0.854 1.852 1.592 3.695 1.551 1.324-0.029 2.217-0.39 2.388-0.966 0.164-0.555-0.351-1.377-1.288-2.015-0.823-0.562-0.035-0.829 0.157-0.877 0.092-0.023 2.137-0.374 4.662 1.089 0.713 0.413 2.274 1.548 2.702 1.404 0.089-0.029 0.163-0.21 0.199-0.315 0.086-0.253 0.362-0.389 0.615-0.304 0 0 1.251 0.419 2.363 0.799 0.698 0.239 1.417-0.444 1.963-0.918 0.965-0.839 3.492-2.524 4.947-2.125 0.259 0.071-0.078 1.147-0.337 1.076"/>
  </g>
  <g transform="matrix(-.077666 .53017 .53017 .077666 92.559 118.81)">
   <path d="m0 0c-0.094 0.341-1.081-1.023-0.993-1.378 0.402-1.604 2.775-10.648 3.55-12.963 0.392-1.175 0.915-1.085 0.692 0.134-0.389 2.14-2.763 12.301-3.246 14.195z"/>
  </g>
  <g transform="matrix(-.077666 .53017 .53017 .077666 79.68 118.66)">
   <path d="m0 0c-0.709-0.117-1.882-0.206-2.413-0.521-0.746-0.441-2.574-2.893-2.857-4.014-0.256-1.023 0.828-4.174 0.869-4.337 0.054-0.214 0.228-0.634-0.6-0.858-0.305-0.083-0.648-0.136-0.906-0.123-0.28 0.071-1.322 0.798-1.459 1.068-0.04 0.174-0.148 0.6-0.278 1.147-0.274 1.165-0.607 3.11-1.033 4.449-0.539 1.681-0.457 2.886 0.263 4.039 0.769 1.232 4.05 5.435 4.082 5.478 0.142 0.18 0.174 0.42 0.095 0.633-0.279 0.725-2.769 9.166-3.441 11.52-0.097 0.345-1.092 0.069-0.999-0.275 0-1e-3 2.937-9.5 3.553-11.394-0.758-0.976-3.55-4.305-4.244-5.417-0.932-1.491-1.073-2.874-0.415-4.933 0.413-1.293 0.82-3.022 1.089-4.166 0.136-0.578 0.246-1.029 0.306-1.248 0.215-0.737 1.698-1.953 2.378-1.99 0.018-1e-3 1.715-0.037 2.51 0.771 0.396 0.403 0.316 0.971 0.021 2.255-0.233 1.005-0.658 2.506-0.523 3.09 0.196 0.853 1.736 3.076 2.165 3.347 0.34 0.179 1.534 0.406 2.482 0.525 0.356 0.045-0.267 1.017-0.645 0.954"/>
  </g>
  <g transform="matrix(-.077666 .53017 .53017 .077666 92.644 124.68)">
   <path d="m0 0c-0.25 0.911-0.983 1.438-1.974 2.151 0 0-6.375 4.393-7.484 5.081-0.305 0.189-0.815-0.735-0.51-0.924 1.064-0.66 7.291-4.969 7.291-4.969 1.467-1.054 1.92-1.521 1.613-2.931-0.079-0.349 0.947-0.595 1.023-0.244 0.169 0.773 0.172 1.358 0.041 1.836"/>
  </g>
  <g transform="matrix(-.077666 .53017 .53017 .077666 90.003 124.03)">
   <path d="m0 0c-1.285 1.302-5.409 4.654-6.367 5.117-1.112 0.537-1.128-6e-3 -0.388-0.68 0.848-0.774 5.809-5.108 5.936-5.401 0.258-0.599-0.894-4.027-1.464-4.781-0.604-0.798-1.385-1.07-1.73-1.028-0.488 0.06-1.046 0.961-1.356 1.681-0.151 0.35-0.249 0.528 0.062 0.909 1.139 1.383 1.663 2.028 1.51 2.587-0.245 0.895-6.358 3.847-6.419 3.873-0.328 0.145-0.853-1.05-0.524-1.189 2.196-0.929 4.976-2.247 5.973-2.928-0.082-0.125-1.092-1.18-1.533-1.907-0.476-0.788-0.315-0.932-0.13-1.474 0.302-0.88 1.014-2.409 2.314-2.567 0.912-0.11 2.449 0.511 2.91 1.728 0.091 0.242 1.583 3.543 1.695 4.511 0.081 0.701-8e-3 1.062-0.489 1.549"/>
  </g>
  <g transform="matrix(-.077666 .53017 .53017 .077666 91.845 124.43)">
   <path d="m0 0c-0.513 0.881-4.898 3.572-6.73 4.568-0.903 0.491-1.212-0.064-0.362-0.631 2.159-1.441 5.647-4.145 6.012-4.661 0.22-0.33 0.216-0.825-0.459-2.129-0.165-0.318 0.553-0.806 0.756-0.51 0.646 0.936 1.477 2.169 0.783 3.363"/>
  </g>
  <g transform="matrix(-.077666 .53017 .53017 .077666 78.86 127.18)">
   <path d="m0 0c-0.353 0.791-1.423 3.167-1.9 4.014-1.157 2.056-2.602 2.685-3.916 3.07-1.22 0.356-6.903 2.552-10.973 4.534-0.322 0.157-0.524-0.76-0.201-0.918 4.235-2.061 9.656-4.272 10.903-4.743 1.085-0.409 2.277-0.854 3.203-2.5 0.48-0.851 0.911-1.602 1.274-2.23 0.413-0.717 1.63-1.271 1.61-1.227"/>
  </g>
  <g transform="matrix(-.077666 .53017 .53017 .077666 75.33 126.83)">
   <path d="m0 0c-0.092 0.337-0.193 0.594-0.307 0.738-0.617 0.792-9.317 8.566-10.734 9.52-1.16 0.781-1.388 0.414-0.434-0.569 1.056-1.086 9.933-9.074 10.286-9.805 0.351-0.732 0.968-5.702 0.969-6.881 1e-3 -0.497-0.719-2.191-2.34-2.636-1.425-0.39-1.869 0.625-1.993 1.08-0.093 0.337 0.021 0.908 0.179 1.344 0.191 0.53 0.392 0.908 0.384 1.247-9e-3 0.433-0.577 4.074-1.702 5.148-0.949 0.907-9.715 6.815-11.509 7.727-0.783 0.399-1.23-0.045-0.52-0.563 1.65-1.205 10.492-7.298 11.295-8.068 0.663-0.635 1.286-3.656 1.301-4.236 2e-3 -0.102-0.103-0.395-0.178-0.609-0.208-0.587-0.63-1.354-0.429-2.084 0.377-1.377 1.633-2.527 3.59-1.991s2.896 2.539 2.894 3.682c-1e-3 0.055-0.197 4.931-0.752 6.956"/>
  </g>
  <g transform="matrix(-.077666 .53017 .53017 .077666 77.609 128.55)">
   <path d="m0 0c-0.68 0.727-1.896 1.641-3.721 2.925-0.32 0.225-6.517 4.283-9.077 5.323-1.317 0.536-1.487 0.1-0.256-0.603 2.429-1.385 8.548-5.612 8.874-5.841 1.091-0.768 3.533-2.488 3.721-3.092 0.107-0.546-1.053-4.754-1.122-5.062-0.137-0.604-0.541-1.061-0.896-1.36-0.179-0.151-0.092-1.63 0.214-1.443 0.598 0.362 1.215 1.237 1.744 2.511 0.237 0.571 0.979 3.518 1.113 4.349 0.152 0.962-0.018 1.675-0.594 2.293"/>
  </g>
  <g transform="matrix(-.077666 .53017 .53017 .077666 70.387 124.6)">
   <path d="m0 0c-2.291-0.91-4.558 0.117-5.363 0.734 0.884-3e-3 2.247 0.229 3.056 0.503 0.255 0.086-0.057 1.01-0.312 0.924-0.564-0.19-1.804-0.61-2.77-0.682-1.376-0.107-1.021-0.75-0.474-1.317 0.92-0.949 3.265-2.243 6.223-1.067 0.234 0.092-0.109 1.005-0.36 0.905"/>
  </g>
  <g transform="matrix(-.077666 .53017 .53017 .077666 86.858 120.96)">
   <path d="m0 0c-1.483 0.024-3.173 0.963-3.726 1.512 0.516 9e-3 1.494 0.139 2.131 0.282 0.187 0.042 0.2 1.021 0.015 0.957-0.781-0.273-1.678-0.459-2.395-0.485-0.305-0.011-0.534-0.252-0.531-0.561 3e-3 -0.756 1.957-2.599 4.687-2.642 0.269-4e-3 0.041 0.934-0.181 0.937"/>
  </g>
  <g transform="matrix(-.077666 .53017 .53017 .077666 104.56 97.49)">
   <path d="m0 0c-1.052 0.154-1.556 0.151-2.475-0.418-0.272-0.168-1.528-1.006-1.863-1.226-2.767-1.82-4.831-2.37-6.69-1.782-1.677 0.531-3.081 0.375-3.781 0.319 0.223 0.623 0.646 1.747 0.247 2.56-0.47 0.962-1.536 1.626-3.191 1.864-2.704 0.389-4.509-0.923-6.215-2.054-0.728-0.483-1.481-0.981-2.312-1.366-1.634-0.753-3.513-0.374-4.36 0.136 0.893 0.526 1.695 1.523 1.707 2.622 0.017 1.469-1.016 2.772-2.672 3.193-2.698 0.685-4.143-0.971-4.818-2.219-0.289-0.533-0.596-1.322-0.879-2.067-0.553-1.46-0.577-2.365-2.227-3.015-0.99-0.39-2.336-0.086-3.895 0.265-2.06 0.465-4.624 1.043-7.57 0.313-4.41-1.094-7.234-4.622-8.462-6.438 0.188 1.472 0.952 4.299 2.055 5.904 0.387 0.566 0.053 0.942-0.405 0.43-1.85-2.065-2.276-4.748-2.382-6.352-0.13-2.006 0.732-1.378 1.345-0.481 0.977 1.427 3.381 4.659 8.092 5.826 2.722 0.674 5.024 0.17 7.086-0.294 1.717-0.388 3.225-0.58 4.493-0.079 2.102 0.827 2.484 2.44 2.917 3.762 0.125 0.381 0.653 1.614 0.805 1.864 0.61 1.011 1.554 1.962 3.592 1.443 1.653-0.419 1.888-1.474 1.881-2.064-0.01-0.901-0.59-1.781-1.262-1.977-0.799-0.232-0.646-0.757-0.093-1.209 0.728-0.593 3.116-1.53 5.461-0.447 0.898 0.415 1.683 0.934 2.441 1.437 1.697 1.123 3.16 2.095 5.498 1.758 1.298-0.187 2.151-0.626 2.466-1.271 0.382-0.786-0.056-1.717-0.263-2.082-0.299-0.523 0.084-0.927 0.727-0.819 0.475 0.081 1.585 0.272 3.68-0.391 2.165-0.685 4.484-0.1 7.519 1.896 0.337 0.222 1.602 1.065 1.854 1.221 0.78 0.482 1.004 0.477 1.844 0.405 0.268-0.023 0.312 0.801 0.105 0.833"/>
  </g>
  <g transform="matrix(-.077666 .53017 .53017 .077666 112.75 112.8)">
   <path d="m0 0c0.042-2.462-0.095-5.668-0.772-8.201 0.894 0.854 2.522 2.2 2.681 2.315 2.571 1.838 2.07 0.198 1.405-1.287-1.07-2.39-3.301-7.97-3.554-11.094 0.514 0.903 0.822 1.349 1.266 1.923 1.579 2.037 1.806 1.036 1.203-0.698-1.125-3.234-1.396-5.961-0.563-8.205 0.683-1.835 1.516-2.476 2.397-3.154 1.155-0.89 2.519-1.83 3.187-5.189 1.082-5.447-1.261-9.819-2.527-12.147-0.106-0.194-0.971-1.803-1.268-2.375-1.273-2.461-2.971-6.269-2.251-9.478 0.75-3.334 1.742-3.878 2.047-3.947 0.429-0.097 0.798 0.238 1.032 0.535 0.611 0.772 0.852 0.231 0.886-0.379 0.053-0.943 0.109-2.622-1.929-3.973-0.895-0.594-1.23-0.277-0.424 0.433 1.008 0.885 1.448 1.95 1.714 3.091-0.548-0.598-1.087-0.75-1.494-0.658-0.867 0.197-2.062 1.161-2.842 4.629-0.79 3.521 0.921 7.643 2.221 10.246 0.29 0.583 0.972 1.859 1.264 2.402 1.197 2.227 3.457 6.354 2.443 11.455-0.597 3.001-1.684 3.701-2.786 4.55-0.908 0.698-1.902 1.466-2.684 3.563-0.81 2.188-0.733 5.682 1.02 8.966-0.244-0.319-1.139-1.772-1.34-2.076-0.643-0.976-1.244-1.354-1.32 0.411-0.145 3.335 1.806 8.658 3.463 11.659-0.775-0.549-1.795-1.328-2.668-2.07-1.578-1.34-1.567-0.595-1.35 0.699 0.333 1.981 0.722 6.15 0.813 8.826-2.464-4.152-5.15-10.618-6.321-18.985-1.043-7.452-1.729-9.108-2.598-11.205-0.262-0.629-0.532-1.279-0.834-2.145-1.192-3.41-1.211-7.406-1.183-8.842l5e-3 -0.304c3e-3 -0.201-0.134-0.414-0.32-0.488-0.4-0.159-2.716 2.343-2.715 2.331 0.133-1.338 0.142-2.828 0.036-4.25-0.12-1.612-0.077-2.552-0.079-3.781-2e-3 -2.027-0.705-1.623-1.296-0.281-0.29 0.659-0.564 1.389-0.852 2.185-0.189-1.001-0.459-2.267-0.8-3.484-0.617-2.206-1.242-7.538-0.428-13.182 0.247-1.716 0.447-2.961 0.594-3.872 0.18-1.12 0.288-1.781 0.292-2.213 0.013-1.35-0.639-1.381-1.478-0.628-0.441 0.398-0.99 1.127-1.641 2.239-0.757 1.298-0.323 1.511 0.59 0.316 0.815-1.068 1.438-1.834 1.716-2.112-0.033 0.376-0.309 1.413-0.441 2.242-0.148 0.916-0.471 2.323-0.728 4.044-0.846 5.667-0.37 10.441 0.421 13.267 0.695 2.48 1.103 4.753 1.268 5.451 0.214 0.915 0.528 1.34 0.952 0.06 0.197-0.595 0.757-2.575 1.124-3.581-0.24 1.354-0.254 2.029-0.182 3.439 0.068 1.351 0.029 2.388 0.057 3.895 0.035 1.954 0.142 2.404 1.646 0.78 0.321-0.347 0.844-0.912 1.273-1.352-0.018 1.921 0.061 5.721 1.144 8.821 0.312 0.891 0.587 1.555 0.854 2.197 0.841 2.032 1.508 3.638 2.534 10.967 1.187 8.488 3.667 14.002 6.259 18.126 1.828 2.909 1.836 1.087 1.861-0.427"/>
  </g>
  <g transform="matrix(-.077666 .53017 .53017 .077666 78.742 110.02)">
   <path d="m0 0c0.245-1.313 0.273-2.958-1.692-4.032-3.304-1.805-4.947-4.193-4.291-6.845 0.214-0.857 0.599-1.744 0.898-2.497 0.691-1.748 1.397-3.222 0.569-5.184-0.313-0.742-0.721-1.545-1.153-2.394-1.186-2.336-2.532-4.985-2.237-7.195 0.433-3.28 4.016-5.17 6.627-5.797-0.341-0.044-1.448-0.186-1.865-0.205-0.8-0.039-0.869-0.395-0.141-0.709 0.691-0.299 1.566-0.879 1.599-1.056-4e-3 -0.261-1.352-0.785-1.524-0.862-0.57-0.253-0.223-0.653-0.04-0.938 1.284-2.001 1.21-3.383 0.993-4.39-0.16-0.746-0.468-1.146-0.58-1.366-0.042 0.662-0.539 2.072-1.979 2.716-0.346 0.154-0.739 0.067-0.69-0.307 6e-3 -0.045 0.577-4.619-1.42-6.13-0.649-0.492-1.622-0.566-2.229 0.642-0.369 0.738-0.775 0.61-0.515-0.169 0.154-0.463 0.577-1.452 1.556-1.679 0.58-0.135 1.151-0.045 1.777 0.428 1.849 1.4 1.854 4.448 1.651 6.324 0.43-0.275 1.037-1.28 1.184-2.063 0.165-0.876 0.498-1.201 1.348-0.085 0.782 1.026 1.564 3.484-0.176 6.442 2.33 0.935 1.401 2.434 0.348 2.635 0.285 0.018 0.578 0.015 0.839 0.085 1.282 0.343 1.534 0.932 0.017 1.459-1.696 0.59-5.164 2.129-5.581 5.24-0.255 1.911 0.789 4.167 1.912 6.376 0.441 0.867 0.851 1.845 1.178 2.619 0.984 2.33 0.253 4.173-0.454 5.958-0.287 0.722-0.582 1.465-0.782 2.269-0.727 2.944 1.96 4.911 3.627 5.822 2.84 1.551 2.061 4.232 1.898 5.101-2e-3 0.014-0.721 0.052-0.672-0.213"/>
  </g>
  <g transform="matrix(-.077666 .53017 .53017 .077666 43.203 105.14)">
   <path d="m0 0c-0.23-0.127-2.388-0.831-4.525-0.074-1.644 0.582-2.885 1.874-3.691 3.839-1.181 2.884-0.909 5.573 0.864 8.45 1.738 2.82 0.225 5.673-0.37 6.717-0.133 0.234-0.815-0.122-0.696-0.364 0.464-0.95 1.736-3.505 0.236-5.841-2.088-3.254-2.435-6.248-1.122-9.449 0.921-2.248 2.278-3.693 4.455-4.368 1.932-0.599 3.775-0.2 4.954 0.262-0.302-1.151-1.317-3.885-3.932-5.456-0.231-0.139 0.219-0.737 0.455-0.608 2.953 1.623 4.091 4.354 4.236 5.854 0.083 0.855-0.263 1.376-0.864 1.038"/>
  </g>
  <g transform="matrix(-.077666 .53017 .53017 .077666 37.261 103.76)">
   <path d="m0 0c-0.562 2.049-1.939 4.306-3.723 5.896-0.77 0.687-1.11 0.308-0.41-0.45 2.531-2.734 3.64-5.701 3.529-8.588-0.062-1.684-0.512-2.973-0.947-4.22-0.61-1.751-1.241-3.562-0.799-6.363 0.371-2.342 0.829-3.59 1.323-4.775-1.181 0.385-3.735 1.842-4.964 4.79-0.356 0.855-0.805 0.714-0.508-0.195 1.216-3.722 3.951-4.949 5.204-5.254 1.284-0.32 1.332 0.184 0.948 1.134-0.26 0.648-0.657 2.031-1.04 4.453-0.404 2.558 0.16 4.176 0.757 5.888 0.459 1.316 0.933 2.675 1.002 4.505 0.04 1.069-0.084 2.13-0.372 3.179"/>
  </g>
  <g transform="matrix(-.077666 .53017 .53017 .077666 28.397 100.28)">
   <path d="m0 0c-2.045 0.043-4.114 3.744-4.651 5.177-0.074 0.195-0.237 0.794-0.818 0.157-0.123-0.135-3.01-3.385-1.78-9.3 1.168-5.617 0.788-5.99-1.701-7.282-3.087-1.601-3.136-3.923-2.777-5.983 0.185-1.065 0.538-2.211 1.16-3.318-1.183 0.646-3.762 3.07-5.022 8.284-0.24 0.993-0.775 0.927-0.597-0.079 1.151-6.453 4.229-8.704 5.678-8.997 1.216-0.246 1.084 0.206 0.82 0.823-0.244 0.571-0.804 1.881-1.079 3.454-0.372 2.138 8e-3 3.657 2.397 4.895 3.125 1.622 3.368 2.526 2.181 8.236-0.828 3.979 0.231 7.195 0.943 8.347 0.837-2.439 3.202-5.98 5.921-5.006 0.241 0.086-0.476 0.588-0.675 0.592"/>
  </g>
  <g transform="matrix(-.077666 .53017 .53017 .077666 20.96 91.087)">
   <path d="m0 0c-1.555-1.823-3.197-3.938-2.025-7.021 1.188-3.137 1.696-4.843-0.711-6.334-1.26-0.782-2.662-1.249-3.9-1.664-1.583-0.528-2.95-0.986-3.75-1.943-0.771-0.925-1.427-2.45-1.748-4.251-0.165 1.218 0.274 2.686 0.531 3.845 0.449 2.012 0.492 4.211-1.418 4.927-0.629 0.235-1.275 0.179-1.867-0.162-1.685-0.967-2.858-4.337-3.273-6.765-0.289-1.695-0.546-3.786-1.064-4.77-0.071 0.951-0.199 3.029-1.064 3.136-1.124 0.14-4.734-7.041-4.969-7.457 0.581 2.603 2.184 8.496 2.082 16.185-0.038 2.856-0.903 4.84-1.275 6.164-0.161 0.581-0.437 1.166-0.324 1.523 0.207 0.268 1.076 0.269 1.596 0.484 1.282 0.533 3.084 1.345 4.096 2.711 1.718 2.321 0.639 5.493 0.037 6.858-0.108 0.246-0.759-0.044-0.647-0.294 0.61-1.379 1.029-4.091-0.318-5.907-0.85-1.15-2.461-1.82-3.636-2.308-0.999-0.415-1.659-0.689-1.864-1.183-0.191-0.461-0.027-1.054 0.25-2.034 0.359-1.283 0.899-3.207 0.934-5.937 0.107-8.097-1.143-13.539-1.689-16.048-0.448-2.061 0.62-1.919 1.405-0.626 0.246 0.406 2.623 4.622 3.73 6.258 0.637 0.943 0.651 0.409 0.737 1e-3 0.085-0.401 0.142-0.938 0.203-1.47 0.179-1.579 0.676-1.801 1.427-0.26 0.713 1.465 0.986 2.83 1.315 4.809 0.385 2.318 1.412 5.149 2.707 5.894 0.346 0.2 0.677 0.229 1.04 0.093 1.209-0.452 1.263-2.349 0.913-3.549-0.53-1.827-0.449-3.22-0.251-4.185 0.25-1.21 0.945-1.672 1.321-0.09 0.236 0.992 0.872 2.635 1.831 3.783 0.622 0.745 1.868 1.162 3.311 1.644 1.288 0.43 2.955 0.93 4.311 1.77 3.203 1.985 1.98 4.655 0.902 7.497-0.982 2.598 0.082 4.289 1.525 5.983 0.109 0.128-0.236 0.898-0.411 0.693"/>
  </g>
  <g transform="matrix(-.077666 .53017 .53017 .077666 110.7 98.981)">
   <path d="m0 0c-4.681 5.958-10.855 18.921-9.852 27.567 0.713 6.129 2.535 9.623 5.825 13.842 1.165 1.495 7.107 8.511 7.998 9.612 4.236 5.238 6.037 8.598 7.66 15.401 0.907 3.8 0.561 7.058-0.305 9.52-0.635 1.805-1.93 4.527-3.421 6.478-1.887 2.468-4.546 5.975-4.932 9.487-0.535 4.82 2.408 7.359 4.355 9.039 1.928 1.664 2.663 2.546 2.475 5.212-0.257 3.656 2.061 5.048 3.986 6.162 2.158 1.249 3.267 2.161 3.082 3.123-0.113 0.58-0.427 0.685-1.031 0.918-0.42 0.162-1.042 0.293-1.594 0.735-1.091 0.872-2.654 0.353-3.295 0.137-0.75-0.253-1.378-0.323-1.859-0.298-1.387 0.071-2 1.609-2.544 2.99-0.652 1.659-1.267 3.227-3.739 3.886-2.499 0.667-3.582-0.957-4.943-3.667-1.359-2.711-3.824-3.246-7.331-1.35-1.543 0.834-3.843 2.151-6.926 0.317-2.514-1.495-1.779-4.863-1.209-7.062s1.003-5.113-1.173-6.754c-1.809-1.363-4.456-0.931-7.52-0.34-3.065 0.591-5.033 0.258-5.537-1.11-0.74-2.013-1.88-2.787-3.364-3.329-1.131-0.414-1.946-1.9-1.645-2.999 0.42-1.534 0.908-3.804 0.102-5.914-0.875-2.288-2.854-2.424-4.017-1.521-0.808 0.628-2.184 2.022-4.493 1.209-2.898-1.02-3.274-3.505-3.929-6.615-0.521-2.479-1.013-3.34-1.677-3.923-1.132-0.998-3.042-1.227-4.279-1.167 1.001-0.73 3.778-1.976 6.178-1.242 2.308 0.706 2.724 1.757 3.206 2.973 0.269 0.677 1.04 2.428 2.282 3.326 1.39 1.003 3.081 1.561 5.176-0.065 1.438-1.116 2.37-2.638 2.539-4.1 0.162-1.399-0.42-2.792-1.486-4.113-1.511-1.871-3.549-2.476-5.52-3.061-1.139-0.339-2.215-0.658-3.109-1.208-1.421-0.874-2.539-2.523-2.783-4.105-0.116-0.743-0.087-1.818 0.695-2.722 1.564-1.81 1.081-4.581-0.325-6.256-1.034-1.233-3.06-1.388-5.79-0.718-2.174 0.533-4.78-0.26-5.704-0.784 0.796-0.273 1.611-0.718 1.904-1.462 0.281-0.714 0.284-1.442-0.4-2.345-1.299-1.718-2.23-1.678-4.143-1.54-1.654 0.119-3.153-0.265-4.322-1.395-0.677-0.655-1.512-1.676-1.968-2.755 0.909 1.013 2.611 2.003 3.813 0.958 0.592-0.514 0.837-1.24 0.688-2.043-0.292-1.586-2.084-3.317-4.262-4.115-2.898-1.062-5.009-3.447-5.89-4.874 0.526 0.405 1.519 1.026 2.071 0.888 0.61-0.152 1.239-0.71 1.651-1.601 1.112-2.405-0.496-3.692-2.205-5.142-0.43-0.364-1.037-0.885-1.465-1.297-2.234-2.152-2.94-3.275-1.649-5.372 0.139-0.23-0.417-0.658-0.573-0.438-1.976 2.782-0.548 4.59 1.568 6.627 0.449 0.434 0.906 0.822 1.349 1.197 1.811 1.537 2.72 2.416 1.959 4.066-0.273 0.59-0.574 0.941-0.871 1.014-0.4 0.099-1.253-0.381-1.45-0.5-1.215-0.737-1.551-0.525-0.94 0.898 0.636 1.481 2.597 4.162 6.109 5.449 1.845 0.676 3.409 2.127 3.64 3.376 0.087 0.47-0.034 0.839-0.369 1.131-0.827 0.718-1.823 0.119-2.77-0.748-0.951-0.869-1.671-0.967-0.942 1.014 0.868 2.359 3.11 5.031 6.83 4.764 1.789-0.129 2.349-0.108 3.344 1.206 0.336 0.445 0.427 0.848 0.286 1.23-0.206 0.54-0.832 0.927-1.28 1.068-0.511 0.161-1.252 0.693-0.117 1.458 1.072 0.72 3.759 1.647 6.339 1.013 2.34-0.574 3.92-0.396 4.694 0.528 0.921 1.099 1.804 3.301 0.453 4.861-0.812 0.939-1.362 2.22-1.153 3.577 0.29 1.877 1.56 3.756 3.238 4.787 1.003 0.616 2.426 1.015 3.576 1.357 1.828 0.543 3.714 0.992 5.034 2.628 0.895 1.108 1.283 2.242 1.152 3.37-0.141 1.2-0.893 2.387-2.122 3.34-1.531 1.188-2.703 1.014-3.859 0.054-1.251-1.039-1.768-2.16-2.016-2.785-0.503-1.268-0.981-2.604-3.737-3.445-2.965-0.908-5.77 0.502-6.861 1.455-1.106 0.965-0.679 1.246 0.561 1.333 1.161 0.081 2.375 0.347 3.296 1.108 0.566 0.468 1.116 1.336 1.447 3.444 0.499 3.177 1.104 6.301 4.533 7.509 2.841 1 4.561-0.602 5.373-1.299 0.625-0.538 1.781-0.675 2.471 1.129 0.701 1.834 0.383 3.591-0.021 5.067-0.429 1.565 0.665 3.593 2.25 4.173 1.297 0.473 2.131 1.456 2.762 3.124 0.962 2.538 5.017 1.753 6.601 1.52s5.376-1.209 6.824-0.09c1.512 1.169 1.378 3.31 0.792 5.84-0.585 2.53-1.552 6.513 1.577 8.374 3.568 2.121 6.466 0.287 7.984-0.555 2.588-1.436 4.775-1.482 5.996 0.958s2.761 5.239 6.118 4.344c2.949-0.786 3.731-2.835 4.409-4.563 0.525-1.333 0.853-2.351 1.52-2.315 0.359 0.02 0.855 0.149 1.418 0.372 0.838 0.333 2.991 0.74 4.613-0.557 0.395-0.317 0.779-0.464 1.149-0.607 1.568-0.604 2.238-1.94 1.093-3.577-0.596-0.851-1.647-1.524-2.779-2.179-1.763-1.02-3.609-2.694-3.447-5.283 0.19-3.067-0.485-4.47-2.703-6.384-1.947-1.681-4.592-3.665-4.133-7.803 0.354-3.165 3.104-6.933 4.772-9.166 1.782-2.385 2.826-4.864 3.388-6.649 0.828-2.632 1.221-5.893 0.219-10.092-1.676-7.024-3.561-10.765-7.843-16.188-0.858-1.086-6.864-8.199-8.042-9.731-3.084-4.011-4.687-7.264-5.352-12.988-0.966-8.3 4.813-20.728 9.354-26.509 0.22-0.284-0.539-1.009-0.761-0.728"/>
  </g>
  <g transform="matrix(-.077666 .53017 .53017 .077666 150.84 111.04)">
   <path d="m0 0c-0.643-0.102-1.262 0.188-2.13 0.602-0.595 0.284-1.246 0.674-2.24 1.004-0.977 0.325-3.653 1.227-6.531-0.315-2.179-1.168-1.942-3.785-1.746-5.927 0.103-1.146 0.21-2.332-0.04-3.257-0.608-2.246-2.254-2.557-4.892-2.335-0.284 0.024-0.571 0.058-0.862 0.092-2.151 0.252-4.586 0.537-7.454-2.646-1.916-2.129-2.165-4.235-2.404-6.271-0.164-1.386-0.333-2.821-1.025-4.322-0.765-1.661-2.024-2.812-3.185-3.216 1.375 1.417 1.548 2.833 1.419 3.505-0.065 0.309-0.192 0.637-0.723 0.329-0.956-0.555-2.656-0.943-3.443-0.974 1.744 0.911 3.561 2.507 3.436 5.391-0.052 1.194-0.723 2.248-1.804 2.642-1.724 0.627-4.091-0.172-5.929-2.159-2.598-2.81-2.731-5.831-2.712-6.87-4.492-1.115-4.464-4.149-3.8-7.985 0.655-3.783 0.031-6.029-2.225-8.013-1.975-1.737-3.674-1.266-5.904-0.794-0.366 0.079-0.744 0.158-1.134 0.231-2.931 0.548-6.533-0.289-7.37-2.733-0.288-0.842-0.319-1.986-0.355-2.886-0.058-1.432-0.109-2.668-1.073-3.284-1.209-0.772-4.276-1.714-5.68-1.961 0.56 0.586 0.856 1.417 0.7 2.106-0.252 1.152-1.21 2.129-3.082 2.586-2.682 0.655-3.563-1.352-4.012-2.452-0.154-0.379-0.328-0.808-0.498-0.921-0.189-0.126-0.485 0.065-1.102 0.334-0.93 0.403-2.305 1.127-4.396 0.963-1.96-0.153-4.311-1.822-5.528-4.722 0.286 0.991 1.032 3.201 2.046 4.664 0.576 0.829 0.176 1.2-0.475 0.43-1.577-1.867-2.185-3.586-2.254-5.022-0.096-1.979 0.353-1.852 1.227-0.472 0.908 1.433 2.436 3.794 4.965 3.992 1.851 0.145 3.072-0.386 3.964-0.772 0.781-0.34 1.455-0.632 2.095-0.206 0.418 0.28 0.633 0.807 0.859 1.364 0.473 1.162 0.882 2.165 2.746 1.709 1.02-0.249 2.283-0.739 2.493-1.691 0.127-0.559-0.139-1.127-0.369-1.462-0.775-1.13-0.66-1.322 0.742-1.19 1.809 0.171 5.341 1.331 6.217 1.891 1.394 0.889 1.48 2.3 1.543 3.861 0.034 0.831-0.085 1.905 0.157 2.612 0.638 1.862 3.858 2.642 6.348 2.176 0.384-0.071 0.753-0.15 1.11-0.227 2.32-0.491 4.395-1.099 6.737 0.96 2.518 2.214 3.369 4.76 2.655 8.876-0.648 3.744-1 6.136 3.141 7.271 0.236 0.064 0.387 0.293 0.354 0.535-4e-3 0.029-0.362 3.119 2.529 6.245 1.909 2.064 3.787 2.359 4.815 1.985 0.703-0.256 1.115-0.834 1.152-1.631 0.131-2.68-1.802-4.117-2.701-4.637-1.576-0.911-0.75-1.408 0.342-1.493 0.856-0.068 2.105 0.05 3.286 0.553-0.032-0.613-0.41-1.31-1.015-2.075-0.947-1.201-0.578-1.628 0.621-1.33 1.056 0.262 2.718 0.873 3.956 3.559 0.756 1.641 1.084 3.059 1.256 4.522 0.233 1.971 0.453 3.833 2.162 5.732 2.529 2.809 4.52 2.565 6.529 2.331 0.301-0.036 0.598-0.071 0.893-0.096 1.74-0.146 4.986-0.519 5.925 2.953 0.296 1.094 0.223 2.583 0.11 3.816-0.191 2.107-0.471 3.905 1.139 4.768 2.544 1.363 4.813 0.849 5.67 0.564 0.937-0.311 1.616-0.635 2.217-0.921 0.931-0.444 1.666-0.793 2.606-0.645 0.267 0.042 0.179 0.798-0.069 0.759"/>
  </g>
  <g transform="matrix(-.077666 .53017 .53017 .077666 54.689 124.93)">
   <path d="m0 0c-0.409 1.491-1.924 2.327-2.973 3.021-1.049 0.695-2.362 1.967-2.211 2.153 0.152 0.184 1.02-0.336 1.734-1.086 0.611-0.641 1.468-1.223 1.396 0.472-0.057 1.362-0.829 4.434-3.507 6.331-1.705 1.207-2.816 1.335-5.228-0.383-2.045-1.455-4.509-1.325-6.591 0.346-2.126 1.709-2.068 5.465-1.207 7.521 0.378 0.902 0.463 1.532 0.155 1.966-0.62 0.875-1.914 0.733-3.31 0.965-1.579 0.261-3.121 0.962-3.58 1.691-0.151 0.243-0.11 0.382-0.094 0.428 0.329 1.054 0.422 2.026 0.294 2.686-0.349 1.817-1.092 0.824-1.294 0.448-0.201-0.376-0.668-1.168-1.319-1.103-0.816 0.081-4.079 3.894-4.084 9.411-4e-3 3.337 0.921 4.403 1.992 5.638 0.689 0.794 1.471 1.695 2.055 3.248 1.141 3.035-0.295 4.673-1.263 5.802-0.336 0.39-0.653 0.759-0.807 1.14-0.614 1.52-0.653 3.153 1.517 6.46 2.113 3.223 1.828 3.907 1.565 5.235-0.055 0.255-0.757 0.17-0.704-0.094 0.201-1.015 0.119-1.685-1.869-4.716-1.926-2.936-2.342-5.205-1.376-7.596 0.214-0.531 0.581-0.959 0.971-1.412 0.884-1.03 1.991-1.982 1.052-4.475-0.522-1.39-1.291-2.179-1.958-2.947-1.149-1.325-2.343-2.644-2.339-6.345 5e-3 -5.947 3.722-10.177 5.151-10.319 0.84-0.085 1.63 0.743 1.956 1.498 0.041-0.735-0.264-1.602-0.472-2.269-0.124-0.402-0.056-0.83 0.201-1.236 0.613-0.978 2.488-1.847 4.38-2.155 1.312-0.213 2.202-0.155 2.615-0.496 0.065-0.055 0.107-0.32-0.216-1.093-1.073-2.564-1.389-6.713 1.224-8.811 2.443-1.962 5.499-1.934 7.919-0.21 2.052 1.46 2.806 1.216 4.157 0.26 2.055-1.454 3.1-4.239 3.3-5.488-0.936 1.183-2.359 1.983-3.132 1.439-0.199-0.142-0.309-0.373-0.301-0.637 0.022-0.804 1.768-2.42 2.713-3.095 0.689-0.492 2.092-1.298 2.413-2.439 0.16-0.567 0.183-1.283 0.027-2.237-0.681-4.165-3.108-7.285-4.441-8.489 0.147 0.542 0.109 1.256 0.036 2.009-0.052 0.534-0.386 2.48-1.257 0.092-0.273-0.749-1.225-2.054-2.269-3.084-2.408-2.378-3.13-5.495-2.127-7.487 0.284-0.569 0.669-1.019 1.01-1.416 0.804-0.938 1.289-1.505 0.36-3.052-1.196-1.989-3.505-3.59-5.055-3.897 0.698 0.565 1.355 1.362 1.001 2.028-0.761 1.421-4 1.162-6.322-0.024-2.522-1.287-6.488-6.763-5.039-10.707 1.195-3.284 3.463-4.989 4.951-6.357 2.324-2.132 2.641-3.696 2.433-5.587-0.17-1.538-1.382-3.08-2.144-4.506-0.501-0.936-1.019-1.905-1.343-2.902-0.977-3.007-0.646-3.919 0.16-5.884 2.221-5.408-1.821-10.453-3.766-12.692 0.736 1.647 1.331 4.524-0.262 5.526-1.108 0.697-2.517 0.759-3.767 0.166-1.273-0.605-2.203-1.92-2.376-3.317-0.202-1.627-0.468-3.166-1.134-4.041 0.269 0.689 0.122 1.886-0.415 2.19-0.4 0.228-0.991 0.127-1.581-0.271-1.289-0.867-2.321-3.16-1.931-6.753-0.855-0.486-3.18-2.021-2.463-6.129 0.841-4.825 1.109-6.731-1.091-8.946-1.757-1.768-3.884-1.902-5.94-2.031-1.025-0.064-1.992-0.124-2.865-0.39-1.676-0.51-3.997-3.104-5.26-4.87 0.437 1.047 1.425 2.913 2.681 4.756 1.119 1.645 1.099 2.661-1.232 1.177-1.762-1.121-3.396-2.746-4.443-3.954 0.525 1.482 1.825 3.751 3.241 5.538 1.523 1.922 0.37 1.704-0.916 1.343-1.297-0.365-3.077-0.981-4.642-1.661-1.588-0.693-2.866 0.647-4.568 1.908-1.702 1.26-3.29 1.227-5.282 0.322-0.318-0.143-0.594-0.278-0.84-0.398-1.142-0.559-1.283-0.577-1.666-0.218-0.197 0.183-0.455-0.647-0.387-0.697 0.824-0.619 1.489-0.447 2.48 0.039 0.24 0.116 0.508 0.248 0.815 0.387 1.616 0.734 3.017 0.843 4.229-0.161 1.366-1.131 3.238-2.995 5.485-2.132 1.377 0.53 3.368 1.402 4.586 1.755-1.993-2.065-3.036-4.77-3.444-6.309-0.428-1.617 0.229-1.967 1.316-0.65 0.738 0.896 2.168 2.454 4.13 3.785-1.37-2.065-2.125-3.765-2.476-4.942-0.601-2.017 0.347-2.147 1.38-0.721 1.081 1.493 3.339 4.236 5.098 4.77 0.762 0.232 1.674 0.29 2.64 0.349 2.135 0.135 4.673 0.184 6.692 2.215 2.551 2.571 1.923 5.234 1.244 9.876-0.623 4.26 1.917 5.302 2.026 5.345 0.209 0.082 0.339 0.298 0.309 0.52-0.497 3.715 0.786 5.329 1.361 5.85 0.803 0.729 1.195 0.71 0.959-0.858-0.27-1.784 0.946-1.265 1.493-0.484 0.521 0.743 1.097 2.098 1.379 4.372 0.134 1.078 0.776 1.965 1.76 2.433 0.946 0.449 2.005 0.408 2.83-0.111 0.984-0.62 0.991-2.142 0.019-4.53-0.415-1.015-0.287-2.038 1.208-0.698 2.124 1.901 6.929 7.875 4.694 13.632-0.722 1.859-1.011 2.548-0.14 5.224 0.297 0.914 0.773 1.802 1.276 2.744 0.79 1.478 1.739 3.114 1.949 5.026 0.268 2.44-0.266 3.95-2.839 6.314-1.484 1.363-3.166 2.908-4.28 5.968-1.179 3.263 2.183 8.229 4.413 9.367 2.269 1.159 4.45 1.147 4.757 0.574 0.147-0.28-0.247-0.723-0.666-1.056-0.831-0.661-1.206-1.314 0.274-1.299 2.326 0.023 4.524 1.489 6.142 4.183 1.291 2.149 0.362 3.231-0.455 4.186-0.319 0.372-0.648 0.758-0.88 1.22-0.806 1.612 0.233 4.605 2.323 6.668 0.85 0.839 1.402 1.858 1.772 2.573-0.026-0.374-0.088-0.914-0.2-1.225-0.401-1.115-0.227-1.692 1.021-0.794 1.373 0.986 4.502 3.858 5.362 9.123 0.183 1.111 0.145 1.971-0.043 2.66"/>
  </g>
  <g transform="matrix(-.077666 .53017 .53017 .077666 56.133 88.737)">
   <path d="m0 0c-1.184-0.148-2.938-0.905-4.483-1.571-0.613-0.263-1.183-0.51-1.655-0.69-1.207-0.459-2.757 0.872-5.079 2.608-0.299 0.222-0.61 0.455-0.934 0.695-3.166 2.336-5.594 1.039-8.102 0.121-2.507-0.918-4.515-1.343-5.833-1.611-2.218-0.454-0.849-1.25-0.403-1.425 0.554-0.216 1.341-0.365 2.195-0.407 0.56-0.028 2.633 0.962 2.365 0.927-0.918-0.12-2.962-0.053-3.827 0.131 1.477 0.325 3.438 0.644 5.873 1.483 2.437 0.839 4.444 1.821 7.168-0.19 0.324-0.239 0.633-0.469 0.931-0.692 2.58-1.928 4.153-3.444 5.861-2.794 0.484 0.184 1.069 0.436 1.694 0.705 1.414 0.609 3.305 1.61 4.352 1.743 0.268 0.034 0.121 0.999-0.123 0.967"/>
  </g>
  <g transform="matrix(-.077666 .53017 .53017 .077666 57.177 77.248)">
   <path d="m0 0c-8.311-1.726-12.172-7.065-12.995-9.339-0.363-0.998-0.085-1.699 1.105-0.962 1.229 0.745 2.619 1.33 3.764-0.465 1.622-2.547-0.094-6.018-2.527-7.998-3.871-3.147-6.274-1.874-7.361-0.835-0.685 0.656-1.56 1.044-2.459 0.987-1.267-0.084-2.787-0.806-3.904-2.197-0.842-1.047-1.448-2.353-2.034-3.617-0.615-1.324-1.058-2.702-1.86-3.595-1.571-1.748-2.157-2.48-4.237-3.413-1.291-0.582-0.869-1.17 0.188-1.487 1.008-0.302 2.643-0.338 3.899-0.132 0.483 0.079 1.949 0.321 2.405-0.123 0.168-0.165 0.225-0.478 0.163-0.933-0.169-1.252-6e-3 -2.323 0.137-3.268 0.244-1.601 0.465-2.764-0.823-4.645-1.288-1.882-2.396-3.5-1.568-4.741 0.149-0.223 0.785 0.184 0.633 0.41-0.434 0.653 0.479 1.88 1.861 3.812 1.383 1.932 1.246 3.682 0.991 5.355-0.14 0.923-0.415 1.832-0.265 2.947 0.106 0.776-0.045 1.369-0.449 1.761-0.566 0.552-1.536 0.667-3.243 0.387-1.334-0.219-2.935-0.209-3.607-0.091 2.534 1.003 3.246 1.804 4.747 3.473 0.9 1.002 1.539 2.378 2.157 3.71 0.561 1.209 1.142 2.461 1.91 3.416 0.93 1.158 2.024 1.859 3.002 1.924 0.627 0.04 1.193-0.176 1.683-0.644 1.062-1.015 4.361-3.291 8.979 0.463 2.762 2.245 4.448 6.652 2.523 9.672-1.452 2.277-3.673 1.521-5.034 0.643 1.045 1.998 4.983 6.925 12.388 9.009 0.939 0.265 0.78 0.712-0.169 0.516"/>
  </g>
  <g transform="matrix(-.077666 .53017 .53017 .077666 35.306 59.487)">
   <path d="m0 0c-0.271-0.243-3.246-2.911-2.293-5.88 0.082-0.256 1.033 0.323 0.933 0.598-0.546 1.744 0.895 3.957 1.783 4.864 0.769 0.781 0.46 1.209-0.423 0.418"/>
  </g>
  <g transform="matrix(-.077666 .53017 .53017 .077666 33.064 58.972)">
   <path d="m0 0c-2.899-1.721-4.326-4.21-4.581-7.637-0.07-0.939-0.042-1.916-0.014-2.86 0.079-2.662 0.194-5.115-1.549-7.287-0.693-0.865-0.612-1.27 0.561-1.284 1.465-0.015 5.158 1.154 6.839 3.846 0.143 0.228-0.407 1.16-0.542 0.927-1.361-2.349-4.99-3.805-6.317-4.005 2.233 2.409 2.229 5.245 2.153 7.844-0.029 0.962-0.056 1.871 0.011 2.76 0.231 3.109 1.431 5.49 3.791 7.231 0.704 0.52 0.445 0.938-0.352 0.465"/>
  </g>
  <g transform="matrix(-.077666 .53017 .53017 .077666 12.064 76.699)">
   <path d="m0 0c-0.22 0.475-0.477 1.304-1.541 2.606-0.611 0.747-1.507 1.765-2.563 1.769-0.827 3e-3 -1.645-0.665-2.53-1.731-0.953-1.149-1.798-1.79-2.57-2.143-1.005-0.459-2.108-0.682-2.813 0.34-0.467 0.678-0.806 1.703-1.008 2.579-0.415 1.822-1.39 3.001-2.995 3.448-2.403 0.669-3.848-0.908-5.076-2.539-0.898-1.193-1.977-0.826-2.833-0.622-1.118 0.267-2.246 0.238-3.278-1.926-0.493-1.034-1.208-2.134-1.65-2.587 0.333 0.517 0.511 1.545 0.364 1.999-0.151 0.454-0.546 0.879-1.017 0.996-1.654 0.415-3.902-1.514-5.086-3.435-0.509-0.825-1.472-2.083-1.91-2.497 0.441 0.851 0.959 2.526 0.884 3.228-0.087 0.809-0.681 1.432-1.59 1.296-1.322-0.197-3.135-1.681-4.777-4.089-0.912-1.336-2.309-4.282-2.764-7.131-0.713 1.882-1.581 5.855-1.069 8.761 0.5 2.842 2.484 5.602 4.584 8.524 0.528 0.735 1.059 1.473 1.568 2.217 2.529 3.696 2.914 8.609 2.589 11.131-0.147 1.13-0.762 1.091-0.69-0.048 0.146-2.295-0.657-7.022-3.036-10.498-0.506-0.738-1.049-1.451-1.574-2.179-2.167-3.016-3.996-5.826-4.534-8.887-0.547-3.105 0.568-7.392 1.49-9.233 0.746-1.492 1.281-0.828 1.52 0.182 0.687 2.904 1.865 5.048 2.768 6.37 1.673 2.453 3.287 3.679 4.145 3.807 0.375 0.056 0.375-0.097 0.4-0.326 0.083-0.781-0.357-2.162-0.661-2.845-0.495-1.112-0.188-1.787 1.069-0.971 0.687 0.446 1.58 1.318 2.418 2.677 1.092 1.773 3.046 3.193 4.074 2.89 0.453-0.133 0.236-1.242 0.039-1.727-0.245-0.604-0.842-2.382 1.015-1.075 0.742 0.522 1.683 1.516 2.318 2.921 0.75 1.663 1.511 1.506 2.32 1.352 1.187-0.225 2.401-0.563 3.683 1.137 1.308 1.738 2.224 2.484 3.892 2.02 1.256-0.351 2.069-1.273 2.404-2.755 0.26-1.131 0.642-2.073 1.114-2.76 1.103-1.607 2.845-1.348 4.16-0.719 0.878 0.42 1.836 1.149 2.87 2.394 0.675 0.813 1.249 1.208 1.756 1.206 0.498-1e-3 1.055-0.398 1.751-1.25 0.986-1.206 1.704-2.477 1.902-2.906 0.078-0.171 0.529 0.897 0.468 1.029"/>
  </g>
  <g transform="matrix(-.077666 .53017 .53017 .077666 73.938 97.549)">
   <path d="m0 0c-0.118 0.241-0.856-0.043-0.741-0.293 0.942-2.169 1.31-4.814 1.432-7.04 0.033-0.585 0.803-1.746 0.8-1.477-0.012 1.422 0.596 4.558-1.491 8.81"/>
  </g>
  <g transform="matrix(-.077666 .53017 .53017 .077666 168.05 120.69)">
   <path d="m0 0c-4.285-4.078-9.284-11.713-11.65-17.434-0.383-0.926 0.067-1.203 0.581-0.342 3.249 5.448 7.972 13.432 11.572 17.468 0.738 0.829 0.365 1.133-0.503 0.308"/>
  </g>
  <g transform="matrix(-.077666 .53017 .53017 .077666 161.28 119.04)">
   <path d="m0 0c-1.828-0.501-6.174-1.536-8.752-1.698-0.269-0.018-0.352-0.955-0.084-0.939 2.815 0.182 6.634 1.003 9.003 2.028 1.04 0.449 0.941 0.913-0.167 0.609"/>
  </g>
  <g transform="matrix(-.077666 .53017 .53017 .077666 166.69 121.26)">
   <path d="m0 0c0.038-1.736-0.327-5.026-1.106-8.063-0.221-0.862 0.335-0.986 0.698-0.174 1.245 2.788 1.304 6.583 1.04 8.323-0.216 1.426-0.662 1.254-0.632-0.086"/>
  </g>
  <g transform="matrix(-.077666 .53017 .53017 .077666 164.83 121.15)">
   <path d="m0 0c-0.339-0.807-0.78-1.545-1.562-2.172-2.06-1.647-4.788-1.662-6.108-0.038 1.914 3.207 3.114 4.404 4.93 6.495 0.937-0.06 2.125-0.487 2.719-1.162 0.249-0.957-4e-3 -1.809 0.021-3.123"/>
  </g>
  <g transform="matrix(-.077666 .53017 .53017 .077666 164.13 118.75)">
   <path d="m0 0c0.681 0.239 1.062 0.912 0.855 1.499-0.208 0.588-0.927 0.872-1.608 0.631-0.678-0.238-1.06-0.91-0.852-1.498 0.207-0.589 0.927-0.871 1.605-0.632" fill="#fff"/>
  </g>
  <g transform="matrix(-.077666 .53017 .53017 .077666 164.62 118.04)">
   <path d="m0 0c0.166-0.569 1.06-0.571 1.353-0.468 0.52 0.184 0.937 0.72 0.811 1.15-0.149 0.511-0.849 0.682-1.392 0.49-0.518-0.182-0.909-0.699-0.772-1.172m2.502-0.064c-0.167-0.395-0.516-0.732-0.977-0.894-0.421-0.148-0.879-0.13-1.258 0.051-0.325 0.155-0.566 0.418-0.678 0.739-0.269 0.726 0.202 1.546 1.01 1.83 0.498 0.176 1.016 0.112 1.403-0.129 0.528-0.331 0.762-0.975 0.5-1.597"/>
  </g>
 </g>
</svg>
