<?xml version="1.0" encoding="UTF-8"?>
<!-- Created with Inkscape (http://www.inkscape.org/) -->
<svg version="1.1" viewBox="0 0 300.71 329.9" xmlns="http://www.w3.org/2000/svg">
 <path d="m218.42 6.7675c-1.7935 13.584-6.5966 56.317-6.4527 72.645 8.4741 7.0478 17.169 23.264 15.886 52.828 7.8498-1.2275 11.994-3.2292 13.314-6.1653 1.4037-3.2178-5.58-15.153-5.1836-26.788 3.446-5.3876 7.2246-12.85 6.1178-15.454-1.8441-4.3954-8.5254-9.5446-11.082-15.804-5.3578-13.17-6.4328-49.409-7.3453-61.775-0.48635-6.8299-4.3286-6.4071-5.2557 0.50973" fill="#dcdddd"/>
 <path d="m227.87 132.24c7.8498-1.2275 11.994-3.2292 13.295-6.1605 1.4093-3.1948-5.4783-14.985-5.1815-26.531-2.0785 2.9932-5.6313 7.1607-9.2035 10.715 0.99423 6.32 1.4523 13.607 1.0914 21.973" fill="#b5b6b6"/>
 <path d="m107.79 247.91c-9.2105 2.2464-17.297 0.83237-23.248-2.2867 6.1516-4.6736 16.224-11.741 42.884-9.9722-5.1242 6.1617-11.743 10.327-19.637 12.252m182.08-60.253c-6.8466 3.4935-18.002 9.1079-29.858 12.023-12.367 3.0163-31.863 2.8405-53.55 0.53487-0.0515-9.3592-0.69258-18.768-1.8696-27.981 9.5406-7.8406 14.558-16.546 19.28-26.555 5.2505-10.567 7.3435-22.915 5.3465-35.939-4.9858-32.583-34.209-55.759-68.584-49.862-32.788 5.638-55.017 35.056-50.029 67.639 2.5517 16.62 12.666 30.474 26.79 40.905 1.2571 6.8997 1.9474 13.444 2.2208 19.574-6.4766-1.6789-12.7-3.444-18.535-5.3017-57.519-18.205-102.79 3.602-115.71 42.954-16.913 51.564 36.69 117.03 120.71 98.548 43.483-9.5349 66.422-41.313 75.566-79.443 11.691 0.36466 23.415-0.45815 34.874-3.5081 32.928-8.76 52.734-31.047 60.588-48.962 4.6497-10.57 3.3045-10.006-7.24-4.6253" fill="#8aa3d4"/>
 <path d="m204.58 172.22 0.0202-5e-3 -5e-3 -0.0202 5e-3 0.0202c9.3587-7.7051 14.374-16.245 19.024-26.021-7.1791 4.067-17.228 8.062-26.374 9.9522-41.614 8.5807-68.549-0.91037-87.163-42.673-0.36297 4.5688-0.22406 9.2761 0.50398 14.031 2.5568 16.641 12.666 30.474 26.79 40.905 0.70807 3.9004 1.233 7.6983 1.6151 11.358 10.334 15.815 36.132 32.428 60.854 29.681 2.3766-0.27561 4.5226-0.79902 6.5317-1.5322 0.27235-9.3524-0.28528-23.778-1.8002-35.698" fill="#778eb8"/>
 <path d="m230.19 229.04c-8.1277 1.4959-16.634 1.4426-25.695 0.60631 2.9795-20.671 2.2967-39.827 0.093-57.39-3.544-0.72238-7.5945-0.80447-11.732-0.35478-18.109 1.9907-28.127 10.677-29.536 27.77-5.3369 64.91-19.937 90.602-50.252 98.382-53.114 13.573-97.937-18.878-110.8-54.129-1.0558 47.289 49.471 96.626 123.79 80.28 43.504-9.54 66.443-41.318 75.587-79.447 11.691 0.36456 23.415-0.45806 34.853-3.5031 32.928-8.76 52.754-31.052 60.609-48.966 0.20294-0.41424 0.39608-0.86864 0.57032-1.2758-11.009 14.481-37.214 32.516-67.48 38.032" fill="#dcdddd"/>
 <g fill="#b5b6b6">
  <path d="m34.404 306.77c21.849 16.954 53.64 25.779 91.66 17.407 22.952-4.9898 40.152-16.247 52.649-31.305-38.593 26.592-103.54 33.099-144.31 13.899"/>
  <path d="m206.39 207.92c0.40085-12.515-0.38096-24.42-1.8108-35.652-3.5211-0.72794-7.5806-0.83216-11.737-0.37769-18.103 2.0137-28.102 10.696-29.515 27.766-0.0602 0.50101-0.0643 0.9823-0.12318 1.489 11.016 6.0418 23.968 9.725 36.645 8.3275 2.3767-0.27562 4.5455-0.80464 6.5482-1.5544"/>
  <path d="m203.1 237.66c-0.39736 2.5833-0.84634 4.4314-1.4678 7.0926 11.67 0.36954 23.461-0.44503 34.879-3.485 13.755-3.6587 25.217-9.6881 34.469-16.771-12.577 7.6996-37.395 14.183-67.881 13.169"/>
 </g>
 <path d="m73.665 233.75c1.2244 4.2729 5.1648 8.8635 10.872 11.867 15.378-12.221 35.765-10.054 42.884-9.9722 3.4592-4.1872 6.2591-9.3328 8.2892-15.254-13.052-0.84717-27.127-0.78261-42.414 1.1659-15.875 2.0051-20.714 6.2554-19.632 12.186" fill="#dcdddd"/>
 <path d="m77.792 240.57c1.7954 1.9027 4.0671 3.6647 6.7217 5.052 15.397-12.226 35.785-10.059 42.903-9.9772 1.9228-2.3109 3.6397-4.9424 5.1439-7.8382-32.528-1.9104-50.026 5.8315-54.772 12.75" fill="#b5b6b6"/>
 <path d="m196.42 100.5c0.96698 3.9649-1.4188 8.0666-5.2471 9.0003-3.8272 0.93338-7.6314-1.6587-8.5984-5.6236-0.96698-3.9649 1.3461-7.9412 5.1703-8.8739 3.8272-0.93338 7.7078 1.5306 8.6752 5.4972" fill="#dcdddd"/>
 <path d="m182.65 104.16c1.0524 3.8164 4.8068 6.2485 8.5295 5.3407 2.7944-0.68152 5.1592-3.1245 5.3445-7.5443-1.5063 4.1182-10.227 5.9897-13.874 2.2042" fill="#b5b6b6"/>
 <path d="m163.74 128.49c2.4671 17.07-1.6259 21.65-11.345 21.811-6.97 0.089-15.005-3.3103-13.584-20.878 1.0317-12.819 6.0681-23.484 13.07-23.883 5.0325-0.3033 9.8234 8.799 11.859 22.95" fill="#0f141b"/>
 <path d="m224.51 116.18c3.1214 12.3 1.5334 21.243-2.649 22.114-5.5504 1.1713-9.6192-2.2438-11.813-18.715-1.9542-14.792-1.395-23.293 2.3418-24.076 4.1593-0.8928 9.2342 9.3721 12.12 20.678" fill="#0f141b"/>
 <path d="m218.52 107.27c1.3336 5.4682 0.88855 10.249-0.97046 10.702-1.882 0.45899-4.4558-3.5882-5.7888-9.0541-1.3323-5.4625-0.91138-10.243 0.97068-10.701 1.8648-0.45479 4.4558 3.5882 5.7886 9.0535" fill="#fff"/>
 <path d="m157.07 118.67c-0.115 6.0343-2.6718 10.581-5.6901 10.524-3.0123-0.0375-5.4747-4.5008-5.245-10.688 0.23269-5.8258 2.6192-10.548 5.6342-10.489 3.0123 0.0375 5.3998 4.8163 5.2971 10.652" fill="#fff"/>
 <path d="m151.86 145.16c-3.8866 0.0664-7.5309-5.0256-7.5105-16.912-7e-3 -1.0256 0.0517-2.0309 0.12331-3.0088 0.0323-0.61578-0.14224-0.67049-0.53737-0.70788-0.879-0.0896-1.7842-0.11199-2.6852-0.11717-0.54439 0.011-0.68852 0.16793-0.75124 0.60875-0.20994 1.3825-0.38295 2.8169-0.50024 4.2802-1.1825 15.815 5.5412 19.729 12.51 19.639 5.5411-0.0627 9.4562-1.9414 10.511-8.6973 0.0448-0.31487 0.0587-0.2575-0.091-0.6222-0.89422-2.4203-2.155-4.6235-3.7082-6.5803-0.2701-0.35967-0.38485-0.3317-0.39676 0.11808-0.57615 8.8046-3.1767 11.948-7.0021 12.002" fill="#6b2d6b"/>
 <path d="m221.62 137.07c3.5683-0.74865 4.7877-9.124 1.8932-20.728-0.24731-0.9245-0.4955-1.8549-0.73327-2.7573-0.0841-0.34429-0.21271-0.37369-0.40023-0.14556-0.36108 0.5136-0.77241 1.0455-1.1281 1.6065-0.17353 0.28549-0.14555 0.40023-0.0868 0.64123 0.26271 0.98759 0.49397 2.0255 0.7099 3.0853 1.5218 7.7354 0.97493 14.367-1.2361 14.798-1.2435 0.26069-2.5404-0.64492-3.7991-3.1891-0.22672-0.43104-0.34149-0.40304-0.33937 0.10405-0.0966 1.8473-0.0152 3.6269 0.19965 5.3801 1.4578 1.3163 3.1267 1.5536 4.9438 1.1773" fill="#682e73"/>
 <g fill="#0f141b">
  <path d="m140.62 129.41c-1.1187 13.784 3.583 19.178 11.705 19.063 7.843-0.1134 12.071-3.0046 9.6211-19.911-1.7791-12.305-6.0643-21.426-9.9961-21.195-6.5969 0.38697-10.492 11.76-11.33 22.043m11.74 20.792c-10.107 0.14892-14.583-7.2096-13.468-20.929 0.9047-11.072 5.3485-23.179 12.957-23.641 5.8578-0.33438 10.164 11.161 11.815 22.682 2.6573 18.374-2.6069 21.76-11.304 21.887"/>
  <path d="m222.71 116.55c-3.3087-13.069-8.0163-19.684-10.017-19.26-1.882 0.45899-2.8706 8.2705-0.95541 21.936 1.7722 12.8 4.3728 18.429 9.6681 17.308 2.8346-0.6913 4.2125-8.4044 1.3028-19.983m1.6763-0.43009c3.1607 12.461 1.9111 21.022-2.5025 22.098-6.68 1.6292-9.9672-4.9894-11.869-18.765-0.95365-6.8016-2.612-22.674 2.2651-23.864 4.269-1.0411 9.1568 8.7902 12.105 20.53"/>
  <path d="m225.12 146.04c5.5898-10.671 7.717-23.758 5.784-36.432-5.2752-34.292-36.575-57.198-70.483-51.395-32.951 5.6774-56.877 35.339-51.632 69.51 2.6938 17.552 14.894 34.862 32.804 44.37 1.6452 0.86322 2.2872-0.19348 0.68745-1.2193-12.49-8.1267-27.392-22.358-30.65-43.545-4.854-31.694 16.744-60.873 49.183-66.447 33.365-5.7359 62.39 16.46 67.383 48.977 1.7866 11.638 0.2806 23.135-4.3214 33.372 0.70112 0.88069 1.2329 2.8118 1.2329 2.8118"/>
  <path d="m107.55 246.88c23.885-5.8252 36.349-34.3 28.051-79.843l2.9914 2.1459c6.4277 37.872-1.2548 73.029-30.443 80.149-22.226 5.4205-38.72-9.4517-35.351-20.696 0.6673-2.1992 2.1734-1.5575 1.6875 0.48816-2.079 8.6994 12.502 22.772 33.069 17.755m31.927-57.884c-6.7003-1.7095-13.017-3.5167-18.713-5.3235-56.591-17.916-101.59 3.2453-114.39 42.29-16.82 51.239 36.685 115.41 119.48 97.197 70.315-15.325 84.635-88.689 78.121-147.23l2.3992-0.70671c7.0731 62.506-7.8776 135.66-79.645 151.44-85.182 18.738-141.23-47.483-123.44-101.63 14.748-44.966 63.878-61.152 118.3-43.929 5.7666 1.8339 11.765 3.5644 17.859 5.1662zm-13.164 48.204c-16.089-0.988-29.602 0.7647-40.252 9.3305l-2.6376-1.4176c12.181-9.8545 27.582-11.682 44.887-10.461zm80.337-38.336c22.03 2.3905 41.246 2.4863 53.007-0.382 12.064-2.9422 23.588-8.6281 29.751-11.761 12.357-6.3148 13.444-5.6376 8.6628 5.972-7.3445 17.812-28.259 41.356-61.268 50.135-11.36 3.0138-23.248 4.0407-35.157 3.5772l0.69167-2.6976c11.384 0.33616 22.778-0.51566 33.914-3.4868 32.286-8.5791 52.11-30.616 59.898-48.365 3.7379-8.5032 3.4522-8.0043-5.7969-3.2794-6.2185 3.1701-17.79 9.0988-30.097 12.1-12.955 3.1596-32.425 2.9108-53.606 0.6562z"/>
  <path d="m213.03 76.752c0.31607-17.599 4.5773-55.889 6.4262-69.851 0.78978-5.8098 2.8115-5.8956 3.2118-0.54014 0.58833 8.2202 1.7284 48.153 7.4193 62.077 2.465 6.0689 9.4165 11.88 11.087 15.825 1.2049 2.9464-6.0482 15.651-9.2577 19.286-1.3424 1.5251-0.6277 2.5362 0.97207 1.0943 4.4292-3.9983 12.282-17.086 10.483-21.386-1.9967-4.7472-8.7621-9.7221-11.204-15.689-5.1762-12.699-6.8412-51.432-7.5607-61.337-0.64471-8.7002-5.974-8.0436-7.1021 0.42505-1.765 13.427-6.1998 49.058-6.8075 67.585z"/>
  <path d="m227.79 92.863c1.771-2.0611 4.6995-6.9335 5.5668-9.3567 0.68816-1.8396 1.9726-1.5085 1.3694 0.50496-1.2289 4.1843-3.4271 7.484-6.101 9.9806-1.1896 1.1047-1.8455 0.08535-0.82288-1.1306"/>
  <path d="m228.87 131.02c6.5347-1.1682 10.246-2.9243 11.346-5.3629 0.96811-2.1875-5.0645-14.335-5.2874-24.747l2.6283-4.1791c-1.9013 12.345 6.9174 25.871 5.1072 29.915-1.8926 4.2792-10.142 6.3339-14.392 6.8535z"/>
  <path d="m187.99 96.019c-3.2591 0.79485-5.2346 4.2129-4.405 7.6155 0.83964 3.4428 4.1362 5.6181 7.3345 4.8381 3.2591-0.79487 5.3166-4.318 4.4866-7.7211-0.82983-3.4026-4.1566-5.5275-7.4163-4.7325m3.41 14.481c-4.3322 1.0565-8.7374-1.7962-9.8525-6.3688-1.1055-4.5329 1.5639-9.0667 5.9356-10.133 4.3722-1.0663 8.8291 1.7313 9.9342 6.2626 1.0957 4.4928-1.6646 9.1776-6.0174 10.239"/>
 </g>
 <path d="m225.96 149.05c2.6806 10.991-6.2526 23.078-25.199 27.699-18.015 4.3936-38.462 1.8956-41.764-11.646-3.431-14.068 12.617-26.969 32.017-30.605 20.553-3.8334 31.56 0.66684 34.945 14.553" fill="#dcdddd"/>
 <path d="m200.64 169.32c-20.211 4.6252-34.565 1.7818-41.679-4.4395 0.0137 0.0574 0.0281 0.11475 0.056 0.22952 3.3076 13.562 23.734 16.065 41.749 11.671 15.567-3.7962 24.37-12.634 25.528-21.774-4.5951 5.6861-14.804 11.846-25.652 14.319" fill="#b5b6b6"/>
 <path d="m129.04 124.87c-5.0823-16.003-14.965-33.922-25.545-49.872-16.042-24.182-36.929-46.431-38.797-45.117-0.76524 0.55138-0.32226 5.4587 1.2453 8.446 6.615 12.691 22.234 48.515 12.17 64.33-1.9984-0.98984-3.4318-1.309-4.0144-0.63194-0.85511 0.9806 1.2777 3.7432 4.9198 7.3359 12.224 16.878 15.632 34.812 13.444 46.325-1.1543 6.1601 0.53892 9.8621 4.9775 6.6999 2.3546-1.6868 23.136-16.022 24.638-17.161 1.3928-1.0692 2.2937-2.8087 2.1668-5.3736-0.10353-2.4186 0.92649-3.6789 2.5463-4.8642 2.3187-1.6598 3.7581-5.3544 2.2508-10.114" fill="#dcdddd"/>
 <path d="m109.39 138.3c-1.314-4.1415-20.95-19.51-30.426-28.994 0.02499 0.0152 0.02988 0.0353 0.0547 0.0475 11.826 16.31 15.39 33.648 13.629 45.166 7.3007-4.1818 17.494-13.831 16.739-16.221" fill="#b5b6b6"/>
 <g fill="#0f141b">
  <path d="m160.04 164.83c3.1053 12.732 23.178 15.106 40.486 10.886 17.165-4.1862 27.208-15.064 24.434-26.44-3.2384-13.278-13.644-17.518-33.748-13.773-18.666 3.4826-34.42 16.009-31.172 29.327m41.059 13.235c-18.744 4.5714-40.249 1.6021-43.71-12.587-3.3076-13.562 11.476-28.041 33.528-32.153 21.172-3.9414 33.146 0.83752 36.661 15.25 3.0657 12.57-8.1187 25.014-26.479 29.49"/>
  <path d="m82.637 112.82c10.738 16.769 12.705 33.274 10.859 43.031-0.5849 3.0606-0.95507 8.7468 3.3376 5.684 0.95211-0.65774 23.729-16.489 24.597-17.151 1.2819-0.97528 1.8821-2.4773 1.7806-4.489-0.13707-3.0548 1.3298-4.5675 2.9712-5.7643 1.7692-1.2704 3.3243-4.3914 1.8722-8.9493-5.7095-17.952-16.974-36.886-25.417-49.604-14.988-22.595-33.165-42.073-37.25-44.488-0.09098 1.3718 0.32041 4.5541 1.4669 6.7628 8.9884 17.238 21.749 50.133 12.155 65.32l-1.8582-0.93898c9.1726-14.097-3.3149-46.48-12.141-63.415-1.89-3.6121-2.2847-9.4576-1.1147-10.278 3.6965-2.6158 28.627 28.039 40.465 45.89 8.5091 12.83 20.211 32.129 25.998 50.32 1.7983 5.6285-0.29835 9.5946-2.6296 11.278-1.4027 1.029-2.1328 1.7238-2.0352 3.6941 0.16943 3.4116-1.3096 5.274-2.5915 6.2492-0.8979 0.70532-24.114 16.582-25.064 17.264-5.4444 3.8811-8.2626 1.0303-6.5927-7.7638 2.0069-10.591-0.6929-30.542-16.382-49.598z"/>
  <path d="m97.963 125.5c5.4524 4.1599 11.725 10.266 12.42 12.498 0.97539 3.0023-3.4058 7.6714-9.923 11.984-1.7412 1.1359-2.4294-0.0154-0.79487-1.2651 6.3815-5.0519 9.2115-8.5732 8.7346-10.087-0.57934-1.877-5.3463-6.7164-11.351-12.072-1.7786-1.5846-1.0538-2.5759 0.92003-1.0633"/>
  <path d="m88.551 117.09c-6.4802-5.7323-12.215-11.304-13.422-13.883-0.25471-0.5458-0.05877-0.73949 0.59562-0.44923 11.747 4.8126 35.595 28.291 39.812 26.771 6.978-2.5164-2.7769-26.516-13.604-43.992-1.1326-1.8272-2.1062-1.158-1.0783 0.68852 13.962 24.711 16.81 39.822 14.045 41.14-3.6554-0.30611-31.134-24.512-38.84-26.386-3.3758-0.83024-4.0507 0.44078-2.4618 3.3664 1.5591 2.8782 7.5899 8.1637 13.974 13.855 2.6078 2.3427 3.5827 1.2296 0.98316-1.0788"/>
 </g>
</svg>
