<?xml version="1.0" encoding="UTF-8"?>
<!-- Created with Inkscape (http://www.inkscape.org/) -->
<svg version="1.1" viewBox="0 0 483.77 344.8" xmlns="http://www.w3.org/2000/svg">
 <path d="m366.88 5.9498c-3.0525-4.5958-6.0815-3.535-4.5624 4.3863 0.24191 1.2639 0.70096 2.7106 1.3211 4.243-1.6478 1.0355-2.3708 4.8051-0.51524 9.1567 6.1983 5.0861 21.865 18.224 40.12 25.105 1.9979-1.4551 6.572-3.5 8.9875-4.2424-19.833-7.0189-37.223-26.403-45.352-38.648" fill="#fff"/>
 <path d="m364.37 8.2959c-0.73651-1.3139-1.6803-2.0441-2.4455-1.9017-0.0367 1.0449 0.10923 2.361 0.40257 3.9353 0.24191 1.264 0.70096 2.7107 1.3218 4.2546-1.6611 1.0363-2.3708 4.8051-0.51524 9.1567 6.1976 5.0744 21.865 18.224 40.12 25.105 0.74065-0.5493 1.8519-1.1773 3.0676-1.7784-18.273-7.968-31.983-21.072-41.95-38.771" fill="#dcdddd"/>
 <path d="m471.77 92.004c-3.122-0.89149-6.0276-4.979-6.5878-9.6195-2.1817-18.331-9.1754-35.307-29.575-39.679-22.857-4.9044-45.628 7.992-52.473 30.134-3.1774 10.277 0.0788 19.254 3.837 27.966 1.4698 3.4026 4.7458 11.324 4.0485 21.159-5.0193 70.226-36.614 146.37-85.592 149.32-58.63 3.526-64.369-88.989-134.1-99.138-45.002-6.5479-71.754 27.229-97.903 29.914-28.991 2.9721-42.645-19.365-43.688-35.726-2.7401-42.804 27.337-62.793 56.596-67.939 9.1341-1.6052 8.3657-2.8939-0.3036-2.2896-51.377 3.548-81.704 34.938-84.219 72.212-2.0038 29.793 16.408 63.442 47.833 75.622 3.686 0.51549 7.5089 0.77703 11.444 0.75297 34.789-0.24267 68.14-18.752 97.39-14.479 48.17 7.0136 53.11 106.67 151.8 101.46 25.304-1.3559 51.587-13.318 72.232-34.076 6.7089-9.7986 12.617-21.036 17.65-33.558 23.256-57.803 7.3959-143.48 24.342-141.63 29.315 3.2156 55.204-0.6966 57.63-19.175 0.60654-4.5466-1.8636-8.7909-10.375-11.231" fill="#00a4e3"/>
 <g fill="#008fc5">
  <path d="m463.75 73.882c-1.717-7.7338-2.4073-11.593-7.15-16.24-1.2324 6.9505 1.4085 13.316 7.15 16.24"/>
  <path d="m24.046 171.76c2.8712 18.313 18.06 34.807 45.31 30.556-26.205 0.59301-38.631-20.403-39.627-35.982-2.7401-42.804 27.326-62.793 56.596-67.939 1.7516-0.30441 3.1254-0.59639 4.1648-0.87143-30.157 0.12677-73.856 26.945-66.443 74.236"/>
  <path d="m424.07 118.54c-6.0447-1.5591-11.152-2.5271-14.96-0.60121-8.3555 4.2392-2.5989 22.625 6.3937 32.884 0.93155-17.64 2.6901-29.097 9.0097-28.411 20.389 2.2297 39.106 1.022 49.441-6.1346-10.581 3.6582-30.74 7.1787-49.885 2.2629"/>
 </g>
 <path d="m310.28 331.66c-98.696 5.2316-103.64-94.439-151.8-101.46-29.25-4.2739-62.601 14.238-97.39 14.479-3.9337 0.0375-7.7573-0.23743-11.444-0.75297 8.5038 3.296 17.956 5.0234 28.209 4.6761 27.941-0.94314 52.227-15.336 81.477-11.062 48.17 7.0136 52.11 109.92 150.81 104.71 29.122-1.5523 53.803-17.551 72.38-44.663-20.646 20.758-46.928 32.729-72.233 34.076" fill="#00a4e3"/>
 <path d="m389.22 256.18c-16.592 37.324-44.27 61.328-80.975 62.06-94.668 1.8977-81.108-86.812-143.66-95.779-37.635-5.3977-62.398 14.296-92.5 15.731-22.72 1.0674-41.271-6.8427-53.875-18.116 13.292 17.276 33.937 29.413 59.645 28.546 27.941-0.94315 52.227-15.324 81.477-11.062 48.17 7.0136 52.11 109.93 150.81 104.71 39.643-2.1183 71.036-30.993 90.031-78.209 15.296-38.032 13.667-88.106 15.583-117.41-10.528 8.6223-8.1021 68.056-26.53 109.53" fill="#fff"/>
 <path d="m310.28 331.66c-98.696 5.2316-97.389-93.024-149.92-100.96-29.235-4.4039-61.5 15.413-99.271 13.982-3.9332-0.14862-7.7573-0.23742-11.444-0.75297 8.5038 3.296 17.956 5.0234 28.209 4.6761 27.941-0.94313 52.227-15.336 81.477-11.062 48.17 7.0136 52.11 109.92 150.81 104.71 29.122-1.5523 53.803-17.551 72.38-44.663-20.646 20.758-46.928 32.729-72.233 34.076" fill="#dcdddd"/>
 <path d="m77.368 102.17c0.3552 5.9063-4.014 10.972-9.7682 11.318-5.7544 0.34607-10.653-4.1623-11.008-10.068-0.35518-5.9059 3.9677-10.969 9.7223-11.315 5.7544-0.34607 10.699 4.1595 11.054 10.066" fill="#1d2087"/>
 <path d="m56.664 102.03c-0.82266 6.7502 5.4883 11.783 10.939 11.455 5.7428-0.34537 10.124-5.4115 9.7692-11.318-0.10327-1.7172-0.76137-5.261-3.2636-7.1134-3.4721 7.5185-13.107 9.9489-17.445 6.9764" fill="#181878"/>
 <path d="m53.407 94.866c-7.2483 0.43591-12.793 6.5915-12.557 13.841 0.98632-0.55077 1.9746-1.0684 2.9863-1.5842 1.7245-0.5354 4.0018-0.0748 5.569 2.2187 1.3224 1.946 0.99914 4.356-0.22784 5.9294-1.2017 1.0552-2.364 2.1578-3.4789 3.314 2.4897 2.0286 5.7198 3.1702 9.2098 2.9604 7.3767-0.44363 12.998-6.7094 12.553-14.109-0.44505-7.4002-6.6866-13.011-14.052-12.568" fill="#1d2087"/>
 <path d="m65.816 101.72c-0.72601 4.6593-10.614 10.49-15.689 9.3078 0.35757 1.5259-0.07843 3.1095-0.94973 4.2508-1.2023 1.0453-2.364 2.1578-3.4793 3.314 2.4764 2.0294 5.7191 3.1587 9.2091 2.9488 7.3654-0.44295 12.998-6.6978 12.553-14.098-0.12496-2.0778-0.71012-4.0221-1.6458-5.7231" fill="#181878"/>
 <path d="m54.713 99.08c0.34284 1.281-0.42931 2.5794-1.7234 2.9261-1.291 0.34308-2.696-0.4356-3.0318-1.7138-0.34205-1.2678 0.52605-2.5719 1.8175-2.9085 1.291-0.34344 2.602 0.41799 2.9378 1.6962" fill="#8d80bb"/>
 <path d="m67.63 95.561c0.25865 0.99056-0.3703 2.0147-1.4105 2.2765-1.027 0.26084-2.1522-0.33879-2.4011-1.33-0.25901-0.99054 0.45378-2.0064 1.4808-2.2674 1.0401-0.262 2.0689 0.33382 2.3277 1.3244" fill="#8d80bb"/>
 <path d="m451.51 95.841c-1.332 2.202-12.388 0.67857-15.318-1.0811-1.4949-0.89301-3.6495-5.7434-4.1184-13.54-0.56087-9.3261 2.4771-15.108 6.7556-15.647 5.1963-0.66436 9.4222 7.2704 11.637 15.279 1.331 4.7933 2.0644 13.289 1.0343 14.991" fill="#0f141b"/>
 <path d="m447.57 76.923c0.98162 3.678 0.48876 7.0226-1.2603 7.4795-1.7518 0.4674-4.1098-2.1072-5.0805-5.7862-0.9816-3.6777-0.35709-7.0422 1.388-7.5104 1.7517-0.46741 3.971 2.1388 4.9535 5.817" fill="#fff"/>
 <path d="m445.48 88.455c-0.5829 1.2404-1.4128 2.0176-2.4329 2.1719-2.5073 0.38341-4.5108-3.1256-5.027-7.8156-0.0902-0.95426-0.13558-1.8913-0.10156-2.7932 0.0318-0.57637-0.10558-0.65113-0.48177-0.77795-1.0642-0.3577-2.1222-0.4468-3.1652-0.23135-0.48567 0.09563-0.96542 0.2903-1.4099 0.5198 0.0113 0.55054 0.034 1.1104 0.0684 1.6827 0.44013 7.3185 2.4374 11.872 3.823 12.714 2.0674 1.2471 8.5315 2.3925 12.008 1.9477-0.71498-2.7231-1.6628-5.2303-2.7551-7.4369-0.22361-0.40829-0.35344-0.35401-0.51346 0.02026" fill="#b9436f"/>
 <g fill="#0f141b">
  <path d="m439.03 66.919c-3.8357 0.49649-6.092 6.2236-5.6097 14.242 0.47873 7.9603 2.6135 11.874 3.5135 12.428 3.1633 1.9648 12.91 2.5376 13.432 1.4867 0.48048-0.95537 0.29707-8.3118-1.2422-14.03-2.0052-7.4472-6.095-14.664-10.093-14.13m-2.7916 27.791c-1.718-1.0689-3.6898-6.0335-4.137-13.469-0.52646-8.7541 2.1867-15.044 6.756-15.635 5.6723-0.73961 9.9336 9.149 11.533 15.097 1.432 5.3142 2.0385 13.467 1.1039 15.046-1.2936 2.2329-12.287 0.80534-15.268-1.0377"/>
  <path d="m46.39 118.16c2.3004 1.8076 5.2636 2.7882 8.4736 2.5952 6.9214-0.41625 12.222-6.3698 11.807-13.268-0.41697-6.9334-6.3473-12.235-13.223-11.822-6.6183 0.39802-11.746 5.8959-11.808 12.46l-1.7242 0.92389c-0.47031-7.8204 5.5378-14.66 13.335-15.129 7.7386-0.4654 14.738 5.6739 15.208 13.482 0.46751 7.7738-5.6128 14.582-13.422 15.052-3.7001 0.22253-7.1583-0.98736-9.83-3.1455z"/>
  <path d="m66.816 112.71c0.23309 8e-3 0.49099-8e-3 0.73582-0.0224 5.2992-0.3187 9.3513-5.014 9.0227-10.477-0.32852-5.4626-4.9141-9.6382-10.213-9.3195-2.5676 0.15441-4.84 1.3338-6.4534 3.1409 0 0-0.90136-0.57671-1.6794-0.64944 1.9782-2.3903 4.8788-3.9953 8.1004-4.189 6.1746-0.37134 11.674 4.5814 12.055 10.908 0.38047 6.3265-4.4039 11.898-10.579 12.269-0.57241 0.0344-1.1468 0.0362-1.702-0.0304z"/>
  <path d="m86.087 96.893c5.1903-0.37855 5.2839-0.18505 0.10975 0.72061-3.1051 0.54879-6.157 1.2503-9.1051 2.095l0.32972 1.6205c2.9827-0.87007 6.2279-1.8257 9.2504-2.4059 8.7548-1.6854 8.4105-3.5176-0.67007-3.3567-2.1996 0.03273-5.6943 0.17655-10.526 0.86565l0.93369 1.5012c3.1472-0.45507 6.3722-0.79166 9.6847-1.0274"/>
  <path d="m481.35 103.14c-1.1998 9.0923-10.167 23.584-56.757 18.49-18.552-2.0722-1.3107 82.806-25.166 142.13-19.342 48.092-51.02 75.709-89.335 77.709-98.439 5.2161-101.94-97.596-150.66-104.68-29.084-4.2486-54.154 10.168-81.618 11.047-47.791 1.6223-77.721-42.195-75.217-79.446 1.6995-25.3 16.364-47.736 41.624-60.537 1.4201-0.3512 3.2386 0.071 4.5104 1.9536 1.1044 1.6338 0.81808 3.6643-0.1696 4.9655-1.079 0.94157-2.1226 1.9208-3.1147 2.9269-12.233 12.415-17.784 28.798-16.518 48.694 1.1583 18.158 16.027 39.381 44.553 36.47 27.208-2.7952 52.263-36.529 97.703-29.925 69.017 10.047 75.163 102.7 134.27 99.148 49.327-2.9665 81.296-79.522 86.332-150.05 0.73835-10.306-2.7837-18.458-4.1074-21.53-3.7696-8.7351-6.9045-17.414-3.8166-27.405 6.7279-21.749 28.899-34.48 51.555-29.61 16.793 3.6054 26.264 16.367 28.961 39.013 0.55826 4.8631 3.6496 9.2811 7.1548 10.277 7.1404 2.0544 10.443 5.5457 9.8078 10.375m-9.1527-12.336c-2.872-0.82346-5.267-4.6034-5.7649-8.7907-2.7888-23.402-12.852-37.029-30.38-40.791-23.415-5.0229-47.057 7.0123-54.499 31.1-3.2567 10.516 0.16986 20.162 4.0629 29.183 1.2809 2.9681 4.8608 10.508 4.1579 20.438-5.1266 71.755-37.935 144.29-84.192 147.07-57.836 3.4782-62.471-88.003-134.09-98.929-47.516-7.2516-71.288 27.564-98.395 30.354-25.299 2.6106-40.695-15.37-41.888-34.042-1.4588-23.154 6.3373-39.355 18.441-50.205 2.0007-1.7939 1.5999-5.5318 0.4052-7.2873-2.16-3.1742-5.5081-3.347-7.6658-2.222-25.074 12.965-40.467 35.773-42.239 62.202-2.6137 38.932 29.217 83.196 77.396 81.599 30.537-1.0163 52.191-15.345 81.477-11.062 47.378 6.8971 51.054 110.49 151.42 105.18 39.041-2.182 71.232-29.084 91.613-79.756 22.695-56.423 7.4397-142.75 22.423-141.2 48.899 5.1068 57.887-10.416 59.168-20.087 0.53013-4.0502-0.24254-9.5562-11.451-12.76"/>
  <path d="m375.8 32.364c-3.1618-2.7154-11.363-15.201-12.709-22.184-1.2818-6.6821 0.49291-7.7611 3.1335-3.7964 8.7732 13.225 25.294 30.822 43.637 38.177l3.0826-0.92257c-11.754-4.1665-31.038-16.478-45.402-38.129-4.2629-6.4092-7.5539-3.0836-6.0033 4.9764 0.95484 4.9448 4.8693 12.593 8.6692 17.929z"/>
  <path d="m363.85 23.424c-1.7749-4.1689-0.97611-7.6727 0.36086-8.2452l-0.62574-1.46c-2.1838 0.13133-2.9007 3.9464-2.0151 7.7942z"/>
 </g>
 <path d="m413.86 53.244c-8.7192-7.0782-16.933-5.3544-39.177-21.682-10.736-7.8824-24.858-18.888-33.998-29.268-2.4028-2.7378-5.3346-1.4358-4.8164 3.6751 0.53713 5.0636 3.4406 11.437 8.6678 18.292-4.5772-5.2071-6.4912-4.307-6.1677-0.68498 0.39758 4.4042 3.0815 9.3854 6.9731 14.27-1.5299-0.48247-2.5894 0.56416-1.6246 2.9668 2.5774 6.4165 6.3259 11.885 11.585 16.535-0.83837 0.24986-1.5195 1.403-0.75972 2.938 5.3596 10.818 21.399 25.071 34.724 21.868 1.0748 2.6881 3.1302 4.8956 6.136 6.3902 7.9699 3.9604 17.473 0.10807 22.882-9.1075 4.154-7.0911 3.2629-19.959-4.4213-26.197" fill="#fff"/>
 <path d="m419.13 60.654c0.55477 4.8049-0.65271 9.7977-4.1685 14.636-3.9378 5.4263-10.76 9.843-17.084 7.1424-7.7188-3.2961-8.6541-10.667-6.7042-15.646 0.56258-1.1363 2.2728-3.288 2.4845-3.3007-14.952 0.69976-40.492-16.671-54.23-35.514 1.1884 3.196 3.2762 6.5505 5.9243 9.8822-1.5272-0.49258-2.59 0.55425-1.6246 2.9668 2.5775 6.4168 6.3252 11.873 11.572 16.524-0.82848 0.2489-1.5087 1.4156-0.74902 2.9506 5.348 10.818 21.399 25.071 34.713 21.869 1.0873 2.6742 3.1295 4.884 6.1353 6.3786 7.9815 3.9597 17.485 0.12069 22.881-9.0959 2.8577-4.8812 3.3372-12.49 0.84876-18.795" fill="#dcdddd"/>
 <path d="m461.37 65.527c2.522-2.8447 15.237-21.1 14.735-21.843-0.51207-0.72963-22.614 6.3387-24.477 6.9192-0.58562 0.20112 0.62106 3.5357 3.7569 8.3024 3.3001 5.0142 5.7116 6.931 5.9859 6.6216" fill="#fff"/>
 <path d="m456.77 60.915c2.5656 3.5123 4.358 4.869 4.5884 4.6091 2.4132-2.722 14.137-19.511 14.724-21.632-6.126 5.0778-15.181 13.061-19.313 17.023" fill="#dcdddd"/>
 <path d="m436.4 151.01c0.38959 6.4781-4.3836 12.037-10.663 12.414-6.268 0.37695-11.673-4.5695-12.063-11.048-0.38959-6.4781 4.3384-12.01 10.607-12.387 6.2796-0.37765 11.73 4.5425 12.119 11.02" fill="#1d2087"/>
 <path d="m417.57 145.87c-0.0681-1.1316 0.0312-2.24 0.24616-3.3055-2.7442 2.2969-4.3912 5.8753-4.1546 9.809 0.38958 6.478 5.7949 11.425 12.074 11.047 4.4121-0.26534 8.0847-3.0863 9.7358-6.9933-1.3897 0.63478-2.9267 1.0294-4.5479 1.1269-6.9564 0.41835-12.941-4.8093-13.355-11.684" fill="#181878"/>
 <path d="m432.3 147.72c0.0947 1.575-1.0656 2.9331-2.5941 3.025-1.5286 0.0919-2.8432-1.1174-2.9379-2.6923s1.0529-2.9224 2.5815-3.0143 2.8559 1.1068 2.9506 2.6816" fill="#8d80bb"/>
 <g fill="#0f141b">
  <path d="m424.33 140.78c-5.8011 0.34888-10.233 5.5356-9.8717 11.546 0.36292 6.0347 5.3975 10.663 11.233 10.312 5.8359-0.35096 10.279-5.55 9.9165-11.584-0.36151-6.0111-5.4185-10.627-11.278-10.274m1.4954 23.761c-6.7114 0.40361-13.089-5.3277-13.504-12.226-0.41488-6.8985 5.3558-13.009 12.033-13.411 6.7232-0.40434 12.797 5.3337 13.211 12.22 0.41557 6.9102-5.0395 13.013-11.74 13.416"/>
  <path d="m346.27 39.289c-1.7523-1.4753-2.5971-0.72376-1.8118 1.2347 4.8496 12.079 14.091 20.813 28.839 26.86 1.4296 0.58148 1.004 1.5103-0.39829 0.99692-15.594-5.6809-24.625-14.228-29.907-27.265-1.4425-3.5567 0.61075-4.8632 1.7052-4.1677z"/>
  <path d="m389.73 83.169c-14.528 3.8623-30.141-10.897-35.901-22.523-0.77578-1.5805-0.85247-3.8499 0.91529-3.8858l1.7474 1.5585c-1.4662-0.80176-1.7333 0.60898-1.2374 1.6219 5.3466 10.796 21.091 24.433 33.74 21.47z"/>
  <path d="m452.31 51.219c0.18557 0.87878 1.1605 3.3392 3.7274 7.2615 2.4364 3.6842 4.3046 5.5396 5.077 6.1141 2.7947-3.3891 11.731-16.274 13.791-20.029-1.8998 0.38005-7.2721 1.7955-22.411 6.5958zm7.8901 14.906c-1.3644-1.0437-3.7441-3.6288-5.7422-6.6599-1.3519-2.0505-3.2313-5.8034-3.7646-7.8799-0.42927-1.6146-0.0468-1.8833 1.2437-2.2897 3.922-1.2088 16.72-4.8243 22.389-6.0087 2.928-0.62105 3.1251-0.65618 1.854 1.7845-1.7859 3.434-10.101 16.317-13.444 20.524-1.0136 1.2563-1.415 1.3735-2.5351 0.52768"/>
  <path d="m394.84 89.622c-8.1752-4.0653-10.03-13.876-3.994-24.173 4.3028-7.3459 11.163-9.3634 14.325-7.6323 6.8555 3.7461 2.312 15.254-2.0126 18.548-1.1976 0.90217-1.6186 0.36315-0.65873-0.62784 2.6994-2.8221 7.3677-13.06 1.88-16.279-1.4943-0.88309-7.6967-0.19462-11.893 6.9706-5.3324 9.1184-4.3763 17.612 3.2663 21.405 7.6076 3.7833 16.598 0.174 21.846-8.7876 3.9952-6.8121 3.0098-19.298-4.2312-25.189-8.6702-7.0347-16.774-5.2351-39.141-21.661-15.723-11.542-26.892-21.156-34.135-29.389-1.7961-2.0372-3.8938-1.4428-3.4233 3.0749 1.1523 11.375 15.12 30.907 43.153 46.887 1.5406 0.8803 1.1035 1.7833-0.51128 1.0502-21.315-9.6479-42.857-32.039-44.225-47.771-0.58084-6.8999 3.6998-7.2394 6.1969-4.285 7.0002 8.2943 18.292 17.42 33.918 28.898 22.452 16.479 30.455 14.382 39.421 21.656 7.9679 6.4675 9.073 20.166 4.6758 27.669-6.2154 10.6-16.171 13.753-24.455 9.6355"/>
  <path d="m374.29 61.722c-15.931-6.9958-36.021-25.304-36.706-38.067-0.23656-4.2966 2.0377-4.8787 4.6144-2.7481 2.6735 3.1532 3.8087 6.2608 1.8837 4.0451-3.7756-4.3415-5.1471-3.9661-4.9246-1.4372 1.1888 13.142 23.189 31.477 35.632 37.148 1.6732 0.7661 1.2214 1.8126-0.49751 1.0593"/>
 </g>
</svg>
