<?xml version="1.0" encoding="UTF-8"?>
<!-- Created with Inkscape (http://www.inkscape.org/) -->
<svg version="1.1" viewBox="0 0 213.87 359.74" xmlns="http://www.w3.org/2000/svg">
 <g transform="translate(5.309 44.071)">
  <path d="m84.048 66.232c-23.533 3.0359-48.081-40.489-51.37-40.742-14.173 4.8068-28.342 39.73-32.646 56.935-4.3008 17.211 1.6796 37.521 1.6796 37.521 3.1897-7.0785 15.813-29.887 30.643-21.055 7.7514-9.6527 28.898-20.398 43.725 3.7296 0 0 31.501-39.424 7.9679-36.389" fill="#5dc2d0"/>
  <path d="m84.048 66.232c-23.533 3.0359-48.081-40.489-51.37-40.742-14.173 4.8068-28.342 39.73-32.646 56.935-1.81 7.2428 0.16168 13.779 1.8752 9.9292 3.414-13.779 17.078-41.109 24.07-46.513 2.809-2.1726-6.5751 19.819-2.762 40.478 1.7527 9.4884 1.4919-34.12 12.295-41.112 1.8883-1.2206 30.192 25.742 34.182 49.382 2.2117 2.0891 4.3608 4.7338 6.3873 8.0304 0 0 31.501-39.424 7.9679-36.389" fill="#50a9b5"/>
  <path d="m68.555 196.24c-2.0369 20.701 17.323 103.94 93.968 117.94 6.2334 1.1372 10.25 0.39122 8.3981-1.0511-21.347-16.622-50.232-59.095-34.472-116.54z" fill="#fabe00"/>
  <path d="m132.36 219.25c0.62068-7.2584 1.9352-14.819 4.0869-22.662l-67.895-0.35209c-1.3953 14.183 7.2584 57.718 37.489 88.233 0.13045-0.5112-10.151-35.238 26.319-65.219" fill="#d8a500"/>
  <path d="m91.317 194.94c-10.889 24.655 9.6057 103.43 71.204 119.24 6.1395 1.5727 10.252 0.39123 8.3981-1.0511-21.348-16.622-50.232-59.095-34.472-116.54z" fill="#fff3c3"/>
  <path d="m132.47 218.04c0.6599-6.888 1.9457-14.042 3.9774-21.447l-45.131-1.6483c-8.1139 18.372-1.9457 44.333 13.789 72.404 2.543-20.656 11.523-37.221 27.364-49.309" fill="#dcd2a9"/>
  <path d="m79.054 226.16c-1.2232 2.6238 0.37034 13.797 3.3254 15.925 2.5898-1.5362 3.8496-10.148 3.8496-10.148s-6.1238-7.7018-7.1749-5.777" fill="#dcdddd"/>
  <path d="m75.555 203.41c-0.95715 5.4718-0.65459 22.427 10.5 29.396 8.3981 5.2502 22.352-0.0626 24.845-6.1239 2.496-6.0587 3.6749-15.224-0.34943-22.046z" fill="#fabe00"/>
  <path d="m113.1 213.29c-0.2243-3.0254-0.99635-6.0143-2.5508-8.6538l-34.998-1.2258c-0.83201 4.7572-0.70945 18.179 6.6585 26.191 7.3158-9.4597 18.531-15.563 30.891-16.311" fill="#d8a500"/>
  <path d="m86.403 232.28c2.449-3.6749 10.153-2.5221 12.078 0.8033-0.40429 4.4964-4.5538 13.896-6.3013 13.721-1.75-0.17726-5.6962-9.6683-5.777-14.525" fill="#fff"/>
  <path d="m91.476 230.02c-2.0735 0.0339-4.04 0.71463-5.0728 2.2639 0.0548 3.414 2.9472 10.615 4.7181 13.763-0.81377-4.739-2.1178-14.193 0.35468-16.027" fill="#dcdddd"/>
  <path d="m99.603 232.95c0.87371-2.0995 6.4003-8.3617 9.7231-5.211 0.70154 7.3497-1.2258 16.971-3.5001 16.624-2.2743-0.35209-7.0967-9.3136-6.223-11.413" fill="#fff"/>
  <path d="m99.603 232.95c-0.85025 2.0369 3.6696 10.534 6.0144 11.358-2.316-4.4338-3.2628-9.6057-3.5158-14.673-1.2311 1.218-2.1778 2.5481-2.4986 3.3149" fill="#dcdddd"/>
  <path d="m83.079 62.724c-9.444 3.5262-28.241-12.887-35.697-24.146-7.4541-11.262-7.6158-12.981-7.4254-16.593 0.19041-3.6123-1.7318-4.4886-7.0967-1.9561-5.3649 2.5351-32.197 33.773-36.222 67.717-4.5433 38.326 9.9317 48.454 7.0001 41.122-3.8521-9.624-5.1145-40.384 3.148-59.669 8.2626-19.287 21.653-45.053 27.821-39.897 6.1708 5.1563 16.976 36.222 49.87 39.02 5.2241 0.44597-1.398-5.5996-1.398-5.5996" fill="#fabe00"/>
  <path d="m32.859 20.029c-5.3649 2.5351-32.197 33.773-36.222 67.717-4.2877 36.169 8.3564 47.218 7.3288 42.184-5.7822-8.5129-6.4968-20.589-6.3743-30.81 0.19307-16.006 8.7425-50.478 30.781-71.653 6.0352-5.8031 1.9691-5.2945 8.0173-8.7346-0.95715 0.20605-2.123 0.63116-3.5313 1.2962" fill="#d8a500"/>
  <path d="m83.079 62.724c-4.7546 1.7761-11.883-1.5049-18.739-6.6403-6.1734 4.8694-23.533-21.846-25.38-25.171-1.8465-3.3228-4.4469-2.4308-5.1223-2.0761 0.26601 0.11215 0.52686 0.26082 0.7694 0.46686 6.1708 5.1563 16.976 36.222 49.87 39.02 5.2241 0.44597-1.398-5.5996-1.398-5.5996" fill="#d8a500"/>
  <path d="m181.98 32.575c-8.8546-13.917-23.789-37.453-42.515-41.247-0.25044 19.738-6.3247 46.057-6.3247 46.057l-11.264 30.051 14.397 11.215c-0.0626-6.4447 11.695-21.853 26.423-12.25 5.5997-11.724 9.2745-16.974 27.122 2.4516 0 0 1.0224-22.357-7.8374-36.276" fill="#5dc2d0"/>
  <path d="m145.15 12.794c2.0291-2.968 10.279 12.07 13.985 21.713-1.4814-9.6422-11.489-25.471-10.383-27.44 3.388-6.0326 29.141 24.848 39.138 40.833-1.1659-5.2919-3.0046-10.761-5.9074-15.325-8.8546-13.917-23.789-37.453-42.515-41.248-0.25036 19.738-6.3247 46.057-6.3247 46.057l-11.264 30.051 14.397 11.215c-0.0257-2.7151 2.05-7.0159 5.5579-10.373-0.49556-19.256-0.81377-49.445 3.3175-55.483" fill="#50a9b5"/>
  <path d="m128.05 42.252c6.6481-10.151 8.7477-36.571 7.3471-44.622-1.3979-8.0487-0.6077-9.0424 2.6264-9.2719 3.2314-0.23473 15.19 5.1589 27.823 17.498 12.631 12.336 26.647 36.472 26.246 61.419-0.22431 13.982-1.9353 2.17-5.9492-12.6-8.7476-32.197-26.598-51.62-41.821-57.569-6.9037-2.6968 1.338 23.387-11.898 40.948-2.8194 3.7427-4.3738 4.1991-4.3738 4.1991" fill="#fabe00"/>
  <path d="m174.64 22.295c-12.31-20.808-29.055-27.826-31.149-27.333-2.0917 0.49294-1.3745 1.2336-1.4762 1.8466 0.37559-0.12779 1.7631 0.0835 2.3108 0.29732 15.224 5.9491 33.074 25.372 41.821 57.569 1.2624 4.6399 2.2952 8.9876 3.1271 12.336 1.1398-12.746-3.7869-26.386-14.634-44.716" fill="#d8a500"/>
  <path d="m135.25 14.752c-0.98846 10.12-3.3175 21.58-7.1984 27.5 0 0 1.5544-0.45642 4.3738-4.1991 6.4942-8.6146 7.8192-19.274 8.299-27.589-1.4189 4.0739-4.3738 10.847-5.4745 4.2878" fill="#d8a500"/>
  <path d="m174.95 182.76c9.4753 4.8016 30.447 18.022 19.42 22.748-16.533 7.0837-18.982 7.5245-24.146 3.6749-5.1641-3.8496-22.748-14.699-24.496-17.148 0 0 19.746-14.079 29.221-9.2745" fill="#fabe00"/>
  <path d="m181.4 186.36c-2.3734-1.4319-4.6294-2.6733-6.4577-3.5992-9.4753-4.8042-29.221 9.2745-29.221 9.2745 1.4214 1.9874 13.281 9.5144 20.453 14.337 1.8518-14.032 9.1623-18.797 15.226-20.012" fill="#d8a500"/>
  <path d="m150.37 193.07c15.023-1.4188 35.65-8.7868 37.698-32.534 1.75-20.299-13.648-31.673-24.848-37.273 0 0-27.542 71.194-12.85 69.806" fill="#fabe00"/>
  <path d="m168.74 126.36c-1.8882-1.1815-3.7583-2.2091-5.524-3.0906 0 0-28.17 71.99-13.481 70.602 9.1519-0.86328 21.006-4.7416 28.848-12.378-10.558 2.2717-26.446-7.9-9.8431-55.133" fill="#d8a500"/>
  <path d="m191.93 203.76c0.80328-0.88936 2.2561-3.3201 5.6206-2.3395 2.0004 1.0458 4.9033 7.1489 4.3373 8.4712-0.96239 0.32081-4.9972-1.2363-6.8229-2.449z" fill="#fff"/>
  <path d="m191.93 203.76 3.1349 3.6827c1.8257 1.2128 5.8605 2.7698 6.8229 2.449 0.0914-0.21386-6.0352-5.6466-8.8207-7.4201-0.49289 0.4773-0.85548 0.97545-1.1372 1.2884" fill="#dcdddd"/>
  <path d="m183.34 205.86c1.5753-2.7985 4.8929-5.2632 9.444-1.7814 2.3838 1.8205 5.2971 10.659 4.2042 11.056-2.8011 0.15396-8.4268-3.2419-10.498-4.7233z" fill="#fff"/>
  <path d="m185.49 203.39c-0.89462 0.65204-1.6171 1.5414-2.1439 2.4751l3.1507 4.5512c2.0708 1.4814 7.6965 4.8772 10.498 4.7233 0.10959-0.039 0.17992-0.16949 0.21386-0.36513-4.6242-2.9394-8.492-7.0367-11.718-11.384" fill="#dcdddd"/>
  <path d="m174.24 210.94c1.3067-3.075 2.29-6.017 7.8948-5.597 3.6645 0.27646 7.1411 11.051 6.8047 11.896-2.4595 0.0155-13.393-4.3269-14.699-6.2986" fill="#fff"/>
  <path d="m176.38 207.05c-0.97288 1.0485-1.5206 2.4542-2.1308 3.8913 1.3093 1.9691 12.24 6.3143 14.699 6.2986 0.0257-0.0417 0.0257-0.1147 0.0257-0.20343-4.4155-2.955-9.1336-5.7066-12.587-9.9865" fill="#dcdddd"/>
  <path d="m192.44 30.353c1.7995-0.20343 10.492 1.9222 10.148 2.8011-0.34428 0.87633-5.3232 3.6305-5.3232 3.6305z" fill="#fff"/>
  <path d="m202.39 33.461c-2.3551 0.17991-5.1458 0.0783-7.5009 0.15129l2.3812 3.1741s3.6905-2.1726 5.1197-3.3254" fill="#dcdddd"/>
  <path d="m198.39 37.877c5.0728 1.5753 9.9735 5.9491 9.624 6.6481-0.34952 0.70159-8.9251 1.75-8.9251 1.75z" fill="#fff"/>
  <path d="m199.09 46.276s8.5756-1.0485 8.9251-1.75c0.0337-0.0705-3.7844 0.21119-9.2459-2.1126z" fill="#dcdddd"/>
  <path d="m198.74 46.802s4.7703 6.4551 4.7233 7.3497c-0.047 0.89197-10.498-1.0511-10.498-1.0511z" fill="#fff"/>
  <path d="m196.68 49.053-3.7114 4.0478s10.453 1.9405 10.5 1.0485c0-0.0965-2.8559-0.66507-6.789-5.0963" fill="#dcdddd"/>
  <path d="m141.52 38.473c13.205-9.4153 25.38-15.294 35.877-13.893 14.535 1.9378 21.697 7.6992 22.399 16.974 1.0563 14.003-13.082 14.741-21.348 12.248-9.2745-2.8011-38.822 3.4454-44.273 18.898 0 0-27.805-9.0528 7.3445-34.226" fill="#fabe00"/>
  <path d="m141.39 38.564c-34.952 25.101-7.2193 34.135-7.2193 34.135 5.451-15.453 34.998-21.697 44.273-18.898 8.2652 2.4934 23.027 1.471 21.348-12.248-4.0348 13.093-23.079 0.47206-40.455 5.7692-12.832 3.9122-16.525 0.42512-17.947-8.7581" fill="#d8a500"/>
  <path d="m21.658 105.6c-1.0798 3.521-2.6237 12.947-1.75 13.648 0.8763 0.70159 6.3012-2.2743 6.3012-2.2743z" fill="#dcdddd"/>
  <path d="m26.734 118.02c-0.78246 3.5366 1.0484 11.199 2.0995 11.199 1.0511 0 6.2986-6.1265 6.2986-6.1265z" fill="#fff"/>
  <path d="m31.843 120.21-5.1093-2.1856c-0.78239 3.5366 1.0485 11.197 2.0995 11.197 0.1148 0 0.29215-0.0861 0.49556-0.21652-0.41988-3.1011 1.1241-6.03 2.5142-8.7946" fill="#dcdddd"/>
  <path d="m36.183 122.92c0.20341 1.7996 3.9043 9.0293 5.4797 8.153 1.5727-0.87371 3.6201-11.653 3.6201-11.653z" fill="#fff"/>
  <path d="m41.818 120.75-5.6361 2.1673c0.20598 1.7996 3.9043 9.0293 5.4797 8.153 0.0938-0.0521 0.18775-0.14088 0.28425-0.25559-1.0354-3.1819-1.7057-6.8046-0.1278-10.065" fill="#dcdddd"/>
  <path d="m143.27 45.052c-0.69896-5.4249-4.752-10.68-9.9735-13.124-1.2467-12.85-4.8328-16.251-4.8328-16.251-0.37033-5.6231-8.0305-13.028-12.623-15.484-7.7904-4.1678-17.368-3.9461-26.699 2.3134-15.946 10.696-12.146 25.554-9.7387 46.219 2.7828 23.893-13.364 61.077-18.108 93.4-9.8013 17.78-4.898 39.602 2.0083 49.565 19.772 28.522 44.27 16.974 48.469 12.949 27.474-2.2769 42.207-12.696 52.322-43.047 11.199-33.598-13.531-58.74-18.022-64.045-4.4912-5.3049-11.118-18.306-12.775-31.146 0 0 13.098-4.9972 9.9735-21.347" fill="#fabe00"/>
  <g fill="#d8a500">
   <path d="m101.87 58.863c0.16173 0.16439 0.90502 1.9587 0.49297 1.651-6.2647 0.49294-9.564-4.9502-10.552-7.0915-4.4521 19.292 16.416 34.79 36.438 36.274 4.0974 0.37296 8.5729 0 11.285-2.9107-2.8064-5.9204-5.3049-13.179-6.2308-20.385 0 0 7.6418-4.5694 9.1258-9.6788-10.057 10.057-32.315 13.518-40.559 2.1413"/>
   <path d="m124.17 181.86c-13.982 19.704-72.782 8.9511-51.482-46.396 3.3228-8.6381-4.1313 1.2702-4.1313-2.5429 0-12.749 5.0859-32.098 12.712-46.08 0.87638-8.7268-3.3618-9.8718-3.148-16.309-3.8026 21.734-13.359 47.961-16.828 71.596-9.8014 17.78-4.9007 39.599 2.0082 49.562 20.495 29.566 43.811 17.414 48.469 12.949 24.563-2.0318 38.937-10.594 48.939-34.075-11.139 5.0128-32.982 12.313-36.54 11.296"/>
   <path d="m86.494 17.012c-2.3604-2.4516-2.8872-10.065 10.68-12.253 1.8388-6.4786 8.5338-6.7003 16.41-5.6231-7.3445-3.0098-15.448-1.3875-24.441 3.3697-20.925 11.071-10.594 40.058-9.7622 46.044 0.832 5.983 0.0258 10.174 0.15127 12.196 0.14088 2.0552 2.4934 0.17992 2.3551-1.9978-1.0459-16.64-3.8835-40.687 4.606-41.735"/>
  </g>
  <path d="m146.07 97.546c-4.4912-5.3049-11.118-18.309-12.772-31.146 0 0-16.601 9.4127-27.936-1.6379-2.0109 1.4344-4.306-0.43036-7.0341-1.724-5.7405 24.683-6.6012 64.152 4.4494 76.207 7.0315 5.3075 38.749 41.188 8.9954 65.391 26.741-1.3849 42.205-12.696 52.319-43.044 11.199-33.598-13.531-58.74-18.022-64.045" fill="#fff3c3"/>
  <path d="m142.91 93.076c-3.9774-6.4812-8.3199-16.629-9.6136-26.676 0 0-16.598 9.4101-27.936-1.6405-2.0108 1.4371-4.306-0.43034-7.0315-1.7213-0.89978 3.8704-1.0954 5.9413-1.7292 10.375 13.197 20.922 35.731 26.397 46.31 19.663" fill="#dcd2a9"/>
  <path d="m123.93 175.23c1.4214 9.9787-1.1894 20.484-12.157 29.407 26.741-1.3875 41.913-11.116 52.03-41.464-9.2302 15.474-37.586 20.654-39.873 12.057" fill="#dcd2a9"/>
  <path d="m80.628 61.151c-4.6816 6.3352-9.5353 6.7394-17.673 8.3982-8.1374 1.6562-31.65 8.6199-38.673 24.146-3.3228 7.3549-6.1396 20.933 5.078 27.649 12.764 7.647 16.629-1.0302 20.544-7.3836 3.9122-6.3534 15.495-26.034 30.901-26.739 15.404-0.70159 4.5068-32.409-0.17734-26.071" fill="#fabe00"/>
  <path d="m40.681 111.79c-6.7446 8.273-16.246 2.4516-18.875-10.185-1.2754 6.948-0.31297 15.031 7.5531 19.744 12.764 7.647 16.632-1.0302 20.544-7.3836 3.9122-6.3534 15.495-26.034 30.901-26.739 0.50072-0.0235 0.97021-0.0783 1.4162-0.16683-15.08-7.2141-34.798 16.452-41.54 24.73" fill="#d8a500"/>
  <path d="m20.348-9.394c-1.0772 0.43555-1.5962 1.6614-1.1633 2.7359 3.9644 9.8248 15.667 26.512 30.865 26.154 7.3888-0.17475 9.4832-1.7292 13.241-2.775 7.3653-2.05 13.179-3.6696 22.761 0.42512 1.0667 0.45903 2.3029-0.0365 2.7568-1.1058 0.459-1.0667-0.0391-2.303-1.1058-2.7594-10.938-4.6764-17.704-2.7907-25.536-0.6103-3.7766 1.0511-7.681 2.1387-12.55 2.642-10.529 1.0876-22.37-13.228-26.532-23.544-0.43553-1.0772-1.6588-1.5962-2.7359-1.1632" fill="#fff3c3"/>
  <path d="m20.813-7.2494c-0.69896-1.2676-0.31555-2.2039-0.46425-2.1439-1.0771 0.43294-1.5987 1.6588-1.1632 2.7359 3.9618 9.8248 15.667 26.512 30.862 26.152 0.77206-0.0182 1.4763-0.0548 2.1413-0.0991-11.306-1.5023-19.321-4.7364-31.376-26.645" fill="#dcd2a9"/>
  <path d="m81.093 13.335c-2.3526-0.44077-12.863-0.58943-14.879 2.5925 6.0874-1.5884 11.554-2.3212 19.837 1.2206 1.0667 0.45643 2.3029-0.0391 2.7594-1.1058 0.4173-0.97284-5.3649-2.2665-7.7174-2.7072" fill="#dcd2a9"/>
  <path d="m102.6 44.116c1.1007-5.8944-5.2032-18.327-9.4466-17.514-4.2434 0.81634-5.005 6.7237-1.7944 14.887 3.667 3.6253 11.241 2.6264 11.241 2.6264" fill="#fff"/>
  <path d="m131.26 33.583c-3.6279-4.4182-7.1437-17.373-3.9435-18.299 1.6066-0.46685 5.2058 7.2558 6.0378 16.517-0.35993 0.99371-2.0943 1.7814-2.0943 1.7814" fill="#fff"/>
  <path d="m102.24-1.1221c-2.2639-2.8011-7.4854-6.5672-8.9929-5.9935-1.5049 0.57379-2.8167 8.9459-2.6421 11.048 7.0603 3.6227 12.842-1.2284 11.635-5.0546" fill="#fabe00"/>
  <path d="m93.965-7.1398c-0.28951-0.0522-0.53212-0.047-0.71987 0.0235-1.5075 0.57379-2.8168 8.9485-2.642 11.048 3.2732 1.677 6.27 1.5362 8.4243 0.51902-3.5158-0.0417-5.005-8.1843-5.0624-11.591" fill="#d8a500"/>
  <g fill="#0f141b">
   <path d="m21.249 96.402c-11.348 3.5731-18.32 20.239-19.77 23.476l0.23995 1.6066c1.4266-3.1845 9.2615-19.97 20.085-23.377 0.31039-0.0965 0.61553-0.16682 0.92326-0.24254 0.21914-0.62855 0.40164-1.278 0.52428-1.8909-0.67031 0.081-1.3406 0.21896-2.003 0.42774"/>
   <path d="m68.137 92.391c-0.27384 0.33386-1.0432 0.57378-1.3901 0.83461 1.4996 1.1632 3.3931 2.5925 4.7702 4.1834 0.1174-0.45121 0.31563-0.90763 0.49297-1.3615-1.2415-1.3849-2.5325-2.6003-3.8731-3.6566"/>
   <path d="m171.37 312.55c-19.963-15.542-48.733-57.061-34.028-114.01-0.59206 0.3886-1.8465 1.2415-2.5846 1.6666-2.4725 10.159-3.5627 19.817-3.5627 28.919 0 41.331 22.37 71.181 38.775 84.201 0.50079 0.4121 0.50079 0.52424-0.16949 0.55033-1.2389 0.20077-3.6775 0.21919-7.1462-0.41469-40.89-7.4671-63.889-34.625-75.98-56.093-12.73-22.599-17.696-46.568-17.521-58.453-0.45384-0.45121-0.90768-0.9024-1.4319-1.2858-0.55292 11.619 3.68 36.947 16.992 60.579 12.25 21.741 35.987 49.416 77.435 56.988 0.5764 0.10426 4.5772 0.52943 7.8583 0.47468 3.2653-0.0521 4.5328-0.64943 1.364-3.1167"/>
   <path d="m94.824 243.88c-0.19035 0.50078-0.37033 1.0537-0.67022 1.4501 2.0056 6.669 7.1514 19.608 17.383 33.332 9.9604 13.359 27.328 30.567 51.218 36.023l0.23471-1.025c-41.404-9.4545-64.483-55.496-68.166-69.78"/>
   <path d="m133.14 208.75c-3.0619 2.6029-8.6641 5.9048-19.986 5.9935v0.84242c11.964 0.49294 16.854-3.1037 20.023-5.764v-1.1032z"/>
   <path d="m109.66 232.74 0.0337 0.83981c9.1624-0.38601 16.697-3.0332 22.391-7.8739l-0.0681-1.0485c-5.5475 4.7129-13.771 7.2141-22.357 8.0826"/>
   <path d="m96.858 250.97 0.49813 0.79809c16.556 2.8481 32.119-4.0009 35.778-7.381l-0.57898-0.61029c-2.8429 2.6916-19.146 9.3997-35.697 7.1932"/>
   <path d="m105.36 267.39-0.11469 0.83201c17.49 2.3995 28.212-3.281 30.859-7.4253l-0.23212-1.0589c-2.1413 3.3514-13.116 9.9996-30.512 7.6522"/>
   <path d="m116.03 283.14 0.13821 0.74332c13.085 1.6301 24.681-3.1167 26.274-7.1723l-0.41989-0.65465c-1.6066 3.2576-13.492 8.6407-25.993 7.0837"/>
   <path d="m128.08 295.57 0.44862 0.7668c13.732 1.7135 19.767-4.0687 21.11-7.4932l-0.63893-0.55293c-1.4684 3.7374-9.3397 8.3225-20.92 7.2793"/>
   <path d="m140.68 304.88 0.76415 0.7694c8.2573 0.81113 13.766-1.5205 15.578-6.1291l-0.56598-0.59726c-1.2728 3.5653-8.3069 6.5281-15.777 5.957"/>
   <path d="m85.55 232.8c-0.459 2.5768-2.2299 9.4206-3.1036 8.5025-3.2966-3.461-2.8846-14.918-2.8715-14.924-0.1278-0.3234-0.83466-0.7381-0.9807-0.46685l-0.0258 0.0286c-1.3223 2.835 0.1278 13.492 2.6655 16.629 0.89195 1.1006 1.5075 0.91285 2.003 0.33386 2.6681-3.1376 2.8037-7.0054 3.281-9.577-0.3312-0.16705-0.65724-0.34167-0.97804-0.52687"/>
   <path d="m111.18 204.26-1.2675 0.74594c3.9617 6.7185 2.6394 15.724 0.30515 21.394-0.18524 0.45121-0.45119 0.90242-0.77721 1.3484 0 0.7407 0.065 2.775 0.065 3.521 0.97279-0.95719 1.9639-2.4908 2.3917-3.5288 2.4646-5.983 3.5209-16.298-0.71729-23.481"/>
   <path d="m99.665 233.5c-0.48515 0.12512-0.96498 0.21896-1.4475 0.31036-0.0887 0.56856-0.23471 1.0928-0.45119 1.5805 0.80594-0.12778 1.6145-0.29212 2.4282-0.50598-0.29208-0.42512-0.50072-0.86591-0.52943-1.3849"/>
   <path d="m86.445 232.19c-9.2093-5.7561-10.873-19.939-10.333-27.174-0.49298-0.32862-1.0432-0.0286-1.4397-0.55552-0.61812 5.8422-0.56075 22.912 10.991 28.979 0.30781 0.16172 0.6077 0.34428 0.92326 0.50336-0.0728-0.58944-0.10691-1.1841-0.11998-1.7422 0-2e-3 -0.0258-4e-3 -0.0258-0.0111"/>
   <path d="m91.931 230.54c2.616 0.0834 5.0389 1.1893 6.0013 2.6994-0.51637 4.7207-4.559 13.009-5.7066 13.043-1.1397-0.13554-5.1119-8.7007-5.2841-13.815 0.93633-1.2936 2.7333-2.0004 4.9894-1.9274m-5.9647 1.4501-0.0913 0.13555v0.16683c0.0759 4.7181 4.0166 15.607 6.3143 15.837 0.33902 0.0366 0.7042-0.10427 1.0745-0.41468 2.0735-1.7136 5.3701-10.498 5.7379-14.582l0.0257-0.16683-0.0834-0.14597c-1.098-1.8935-4.0139-3.4532-7.0889-3.5523-2.6942-0.0861-4.7651 1.0459-5.8813 2.7229"/>
   <path d="m105.91 243.84c-0.6703-0.10427-2.1595-1.6561-3.7166-4.426-1.6926-3.0176-2.3995-5.5527-2.1021-6.2647 0.60247-1.4475 3.6487-5.0963 6.4055-5.6805 0.91284-0.193 1.6692 4e-3 2.3212 0.55031 0.0834 0.97546 0.13311 1.9744 0.13311 2.9785 0 5.6753-1.2676 11.364-2.6212 12.642-0.16172 0.1513-0.30248 0.21918-0.41988 0.20077m0.43036-17.756c-3.2288 0.68332-6.7655 5.2162-7.4019 6.7394-0.5868 1.4188 0.89461 5.0467 2.2587 7.4749 0.61553 1.0954 3.0332 5.318 4.752 5.5814 0.31298 0.047 0.79288 4e-3 1.3014-0.47727 2.0344-1.9196 3.4428-10.529 2.8221-17.047l-0.23997-0.86588-0.14087-0.13555c-0.92583-0.87633-2.0448-1.5466-3.3514-1.2702"/>
   <path d="m40.382 36.033c-2.1596-3.328-3.8679-5.9596-5.3701-7.2141-0.89461-0.74592-1.9926-1.2362-3.1689-0.95457-8.4764 2.0291-21.754 32.02-25.638 41.086-4.5564 10.639-6.223 24.274-6.223 36.136 0 10.503 1.3067 19.616 3.0672 24.016 0.25036 0.62593 0.91801 2.509-0.50338 0.58682-1.4214-1.9196-6.1865-8.2286-6.1865-27.505 0-4.22 0.26601-8.9928 0.90236-14.363 4.04-34.065 31.214-64.757 35.859-66.925 3.2002-1.4918 4.6764-1.4606 5.2632-1.0667 0.5217 0.3521 0.70687 1.3328 0.63901 2.6316-0.20341 3.8574 0.40689 5.2502 7.8322 16.465 6.0144 9.0815 20.688 22.907 31.178 24.686 0.34427-0.3469 0.66507-0.71984 0.95456-1.1241-9.3215-1.1293-23.351-13.961-30.651-24.24-7.1071-10.01-7.9235-12.952-7.7514-16.23 0.0965-1.7996-0.31039-2.9785-1.2415-3.6018-1.2806-0.85808-3.4271-0.52945-6.755 1.0432-2.7959 1.3197-10.91 9.8092-18.878 22.31-6.8698 10.785-15.881 27.14-18.061 45.54-3.4375 28.976 3.2315 40.564 6.3273 43.66 0.99369 0.99631 2.2039 1.9196 2.7724 1.4918 0.57116-0.42512 0.03365-2.4203-0.52686-3.8261-3.7687-9.4179-5.0076-40.165 3.1428-59.186 7.5218-17.561 18.536-38.598 24.819-40.105 0.7798-0.18517 1.437-0.0391 2.0187 0.44339 1.3562 1.1345 3.0175 3.6931 5.1223 6.935 6.0952 9.3866 14.579 24.527 32.99 30.134 0.83983-0.26865 1.664-0.58423 2.4491-0.96762-18.476-5.3727-28.217-20.359-34.383-29.855"/>
   <path d="m22.953 86.955c0.27392 1.2232 1.2076 2.2743 0.72768-0.37037-3.0645-16.796 6.3117-47.343 8.539-52.854 0.58164-1.4345-0.37292-2.0135-1.1736-0.45642-5.5345 10.732-11.489 38.465-8.0931 53.68"/>
   <path d="m171.81 55.432c-3.8157 0.57119-6.6325 4.6086-9.3397 10.237-7.1071-4.379-13.093-3.4088-16.867-1.3406-5.8708 3.2158-9.8144 9.3371-9.7752 13.304l0.99369 1.4684c-0.0291-3.1715 3.2576-10.044 9.3162-13.367 3.6149-1.9796 8.1192-4.0504 16.134 1.398 0.64683 0.44076 0.81894 0.50858 1.171-0.34688 0.89978-2.1804 4.5721-9.7726 7.9835-10.284 3.8522-0.5764 10.211 4.4755 18.815 13.839l-0.44079-2.2482c-8.985-9.7779-13.7-13.301-17.991-12.66"/>
   <path d="m144.82 3.4218c1.1554 1.4866 7.3289 10.099 11.789 23.455 0.69897 2.0917 1.9508 2.6264 0.97282-0.39644-2.6707-8.2495-7.8687-20.273-12.008-23.791-1.7605-1.4971-1.9091-0.75375-0.75374 0.73288"/>
   <path d="m144.2-3.7508c-0.84241-0.33124-1.7136-0.29733-2.2952 0.0809-1.6066 1.0458-1.2962 4.9085-1.5231 10.206-0.30772 7.1958-0.76674 17.511-5.4562 26.522 0.26085 0.23214 0.53727 0.45905 0.83982 0.66769 4.8824-9.2536 5.3519-19.798 5.6674-27.145 0.1879-4.4312 0.51645-7.7696 1.6692-8.5208 0.10426-0.0678 0.42512-0.27646 1.1919 0.0235 8.599 3.3619 19.308 11.562 28.426 26.3 0.46157 0.0313 0.92583 0.0574 1.3901 0.0835-9.1884-15.252-20.615-24.584-29.91-28.217"/>
   <path d="m190.6 54.734c0.62854 3.7896 0.97548 7.6314 0.97548 11.489v1.0432c-0.047 2.869-0.15396 4.353-0.26085 5.1172-0.10959 0.75895-1.3197-4.6451-2.1048-7.8348l-2.3473-9.2119c-0.36509 0-0.73284-0.0235-1.1032-0.0626l2.4308 9.5249c1.9796 8.0643 2.4177 9.9187 3.3566 9.8144 0.65467-0.0756 1.2362-1.2597 1.338-7.5975 0.0705-4.2695-0.28691-8.5234-0.97805-12.712-0.44076 0.15906-0.87112 0.30253-1.2988 0.43033"/>
   <path d="m166.62 5.3333c-17.138-16.739-29.274-19.151-31.53-16.267-0.94932 1.2128-0.90759 4.0687 0 9.2849 0.91285 5.2371 0.0887 18.794-2.582 30.455 0.13821 0.65204 0.33645 1.2676 0.6077 1.8387 2.2091-8.8207 3.5392-18.369 3.5392-25.617 0-2.702 0.26076-5.4067 0-6.9115-0.43812-2.5273-0.6546-4.3347-0.6546-5.6101 0-1.1293 0.16949-1.8439 0.50599-2.2743 0.37032-0.47468 0.99109-0.68333 2.2951-0.77722 3.2289-0.23213 14.41 4.7911 26.679 16.778 4.9711 4.8511 9.9318 11.244 14.173 18.609 0.59729 0.06 1.1919 0.1304 1.784 0.21386-4.3764-7.8218-9.577-14.608-14.814-19.723"/>
   <path d="m170.05 208.5c-1.9196-1.4319-22.706-15.458-23.731-16.895l-0.77978 1.158c1.1006 1.5388 19.431 14.918 23.525 17.54 2.0474 1.3119 4.2956 1.7709 6.2778 1.9718-0.40688-0.48513-0.7564-1.0406-1.0224-1.6822-1.2493-0.34688-2.968-1.1189-4.2695-2.0917"/>
   <path d="m176.94 183.5c-1.4763-0.16438-1.7762 0.47207-1.7762 0.47207 6.1082 2.9446 20.213 11.982 21.293 17.407 0.51379 0.0133 1.0172 0.0417 1.5101 0.11735-0.88937-7.7722-19.55-17.832-21.027-17.996"/>
   <path d="m162.89 123.93c12.068 6.0352 26.105 17.274 24.443 36.55-2.0057 23.244-26.217 29.829-31.877 30.828-3.3306 0.58683-0.97288 1.2363 1.231 1.0511 7.8714-0.65724 30.52-7.4462 32.615-31.704 1.7319-20.101-13.077-32.07-26.707-38.772z"/>
   <path d="m197.37 200.52c-3.1193-0.56857-4.5459 1.3458-5.4588 2.449 0.38599 0.0965 0.71197 0.25037 1.0015 0.44076 0.83977-0.98065 2.0969-2.1491 4.439-1.4945 1.7396 0.95979 4.9241 7.5636 4.1026 7.4879-0.82418-0.0756 0 2e-3 0 2e-3 -1.0902-0.047-4.8485-1.4918-6.5777-2.642l0.26342 1.4997c1.6718 1.1111 5.0546 2.4621 7.6235 2.8663 1.5571 0.24516-2.4229-10.07-5.3936-10.61"/>
   <path d="m193.01 203.34c-1.2728-1.1919-3.3488-2.2586-5.164-1.8857-2.2639 0.46685-4.1131 2.7411-4.812 3.9122 0.34426 0.11735 0.81111 0.76157 1.1241 0.92327 0.62079-1.0067 2.1152-3.0698 3.9331-3.4427 1.5075-0.31036 3.3515 0.59466 4.3816 1.651 1.3589 1.3823 4.8772 9.8065 4.2226 10.104-0.652 0.29472-7.0811-2.7098-9.3736-4.2617v1.2597c2.4725 1.5988 6.836 3.8705 8.8859 4.5277 2.05 0.65724 2.0944 0.33121 2.05-0.89981-0.16417-4.5903-3.9356-10.659-5.2476-11.888"/>
   <path d="m180.96 205.64c1.4527 0.0652 2.5403 0.79809 3.3071 1.7396 2.2064 2.689 4.9215 9.3266 4.1286 9.2849-0.79547-0.0417-12.36-3.9148-12.764-5.1224-0.65467-1.9665 3.5262-5.9856 5.3284-5.9022m-7.0263 4.6998c-0.35212 0.79287-0.57642 1.2336 0.30512 2.0213 2.376 2.1334 10.422 4.9815 14.428 5.9856 1.9665 0.49033 2.05 0.24517 1.6405-1.8048-0.41212-2.0474-2.2978-5.8996-3.4453-8.033-1.1476-2.1308-2.7855-3.8548-6.0639-4.1808-4.0296-0.40165-6.5152 5.2215-6.8646 6.0117"/>
   <path d="m202.96 32.643c-0.74334-0.97022-6.2464-2.3656-9.131-2.7333 0.39639 0.40686 0.78498 0.81634 1.171 1.2336 2.569 0.47728 6.0952 1.4553 6.9271 2.0161-0.50073 0.49294-1.9874 1.4632-3.5705 2.3969 0.17992 0.29993 0.34162 0.61031 0.5033 0.92589 1.7136-0.9989 3.933-2.4073 4.22-3.1376 0.0887-0.22952 0.047-0.48511-0.12002-0.70158"/>
   <path d="m208.47 44.044c-0.57642-1.351-4.8041-4.8642-9.2875-6.4525v1.1163c4.1286 1.557 7.6392 4.6372 8.2104 5.5814-0.91811 0.36513-4.2252 0.9311-7.4749 1.3536 0 0.41467-0.0368 0.76679-0.10182 1.0719 8.2078-1.0354 8.5442-1.7005 8.672-1.9535 0.10182-0.20609 0.0965-0.44859-0.0257-0.71722"/>
   <path d="m199.71 47.225c-0.1879 0.32079-0.45642 0.56074-0.7042 0.81894 1.7265 2.3838 3.3775 4.8433 3.8209 5.7926-1.0745 0.10959-4.679-0.3599-8.3043-0.99107-0.45385 0.28689-0.82418 0.57378-1.1476 0.86328 4.3999 0.8059 9.5692 1.5779 10.367 0.94935l0.25561-0.4799c0.0446-0.85284-2.4595-4.4495-4.2877-6.9532"/>
   <path d="m141.18 38.07 0.6729 0.80592c9.1728-7.6783 25.601-14.66 35.731-13.309 14.073 1.8752 20.988 6.8046 21.684 16.024 0.33645 4.4469-0.87372 7.8061-3.594 9.9917-4.2956 3.4506-11.671 3.3462-17.075 1.7162-9.6554-2.9159-37.789 1.9822-44.607 18.072l0.67807 1.5023c5.3049-15.044 34.216-21.042 43.603-18.21 5.6674 1.7109 13.935 1.6301 18.528-2.0578 3.0072-2.4177 4.3425-6.0326 3.98-10.845-0.73027-9.6553-8.8806-15.779-23.317-17.704-10.414-1.3875-28.976 6.4499-36.284 14.013"/>
   <path d="m24.49 117.29c-1.9875 0.98327-3.774 2.0344-4.2278 1.5466-0.45118-0.48773 0.28166-5.5684 0.81635-8.4451-0.23478-0.66769-0.45642-1.351-0.58947-2.0552-0.87114 4.2069-2.2978 11.452-1.218 12.318 0.7798 0.62072 3.4636-1.0641 5.7405-2.4021-0.20082-0.30515-0.38082-0.63638-0.52162-0.96239"/>
   <path d="m33.94 123.68c-2.0865 2.363-4.2513 5.2215-5.0441 4.9737-0.79021-0.24516-1.8413-5.1276-1.8413-8.5494 0-0.15396-0.63643-1.2102-0.91551-1.6457-0.4929 3.4844 0.5764 10.529 1.6797 11.901 0.22688 0.28427 0.4799 0.42772 0.7485 0.42772 1.0146 0 4.7625-4.2174 6.836-6.682-0.31039-0.1564-1.1189-0.29211-1.4632-0.42512"/>
   <path d="m44.369 121.34c-0.95456 4.4729-1.8909 7.261-2.5117 8.7581-0.92326 2.2274-3.8652-3.6409-4.7285-5.8161-0.37558 2e-3 -0.75116-0.034-1.1319-0.0887 0.845 2.4803 3.1402 7.7461 4.8094 8.6068 0.55558 0.2843 0.96763 0.17992 1.218 0.0417 1.4996-0.8346 2.9681-9.0658 3.5966-12.43-0.40947 0.3182-0.82676 0.62594-1.2519 0.92849"/>
   <path d="m79.904 62.49c0.51637-4.945 0.9285-10.607-0.61295-19.853-1.4005-8.3877-2.5455-20.21 0.33645-27.81-0.60504-0.15909-0.96239-0.17213-1.5648-0.28168-2.9707 6.6533-2.4855 18.917-0.54509 29.052 1.6588 8.6694 1.3197 17.195 0.88154 20.492 0.57898-0.43296 1.0485-0.96501 1.5049-1.5988"/>
   <path d="m162.68 120.87c-4.8094-10.957-11.817-18.825-15.098-22.56l-1.0223-1.1736c-4.1574-4.9111-10.826-18.184-12.652-30.859-0.78505 0.39123-0.34952-0.15396-1.3119 0.32603 1.9457 12.785 8.792 26.373 13.002 31.347l1.038 1.1945c3.2393 3.6853 9.9813 11.356 14.712 22.138 3.3383 7.6027 5.0076 15.258 5.0076 22.894 0 5.7561-0.94939 11.504-2.8507 17.211-9.5692 28.705-23.614 39.818-50.626 42.51-0.29472 0.4147-1.9848 1.0641-2.2535 1.531 28.919-1.6118 45.58-13.727 54.599-42.914 1.8178-5.8839 2.9498-11.57 2.9498-17.461 0-7.8035-2.0813-16.413-5.4928-24.183"/>
   <path d="m79.671 10.431c0.67806 0.10692 1.0145 0.31557 1.6614 0.52683 2.4725-3.8131 5.6179-6.7003 9.0215-8.599 0.0548-0.82678 0.0446-1.4527 0.23212-2.2795-3.68 1.9744-8.6485 6.4864-10.915 10.352"/>
   <path d="m127.84 61.278c0.46166 0.30776 2.9055 0.86067 3.3149 0.86067s0.55027-0.35209 0-0.68071c-0.55558-0.32862-1.9431-0.85548-2.8454-1.1841-0.90244-0.326-0.80851 0.77462-0.46166 1.0041"/>
   <path d="m137.71 58.025c0.0834 0.52422 0.5738 0.98326 0.73808 0.0834 0.16439-0.90243 0.37299-1.9118 0.27391-2.1778-0.22162-0.59725-0.64166-0.8033-0.83724-0.0783-0.24518 0.91025-0.22688 1.8387-0.17481 2.1726"/>
   <path d="m61.388 69.086c-11.471 2.3369-30.387 8.6277-38.433 24.047-2.3108 4.4312-7.9287 21.363 5.9204 29.13 11.369 6.3769 17.639-0.97802 21.971-8.2964 4.3295-7.3184 15.511-25.51 30.113-26.579 1.5571-0.1147 1.7605-1.1684 0.0759-1.0745-15.894 0.8711-26.3 18.719-30.651 25.502-4.3504 6.7837-10.062 15.211-20.701 8.9902-12.782-7.4775-6.2491-23.7-4.825-26.848 6.2934-13.914 27.529-21.554 38.765-23.843 7.8374-1.5962 15.936-5.0989 17.587-8.7164 1.2206-2.6759-0.52686-1.3275-1.1606-0.49294-1.3849 1.8179-10.185 6.4551-18.661 8.1817"/>
   <path d="m22.597-8.0339c4.2226 10.464 16.293 24.983 27.075 23.87 4.9137-0.50858 8.8389-1.6014 12.636-2.6577 7.7383-2.1543 14.418-4.0165 25.189 0.58682 0.79804 0.34167 1.171 1.2702 0.83201 2.0709-0.34428 0.79809-1.2728 1.171-2.0735 0.82939-9.7492-4.1678-15.644-2.5273-23.105-0.45121-3.7401 1.0432-7.9783 2.2221-13.155 2.7594-13.5 1.3953-26.41-16.134-30.325-25.828-0.07592-0.19038-0.11214-0.39121-0.11214-0.58682 0-0.62334 0.373-1.2154 0.98587-1.4632 0.80853-0.32602 1.7292 0.0652 2.0527 0.87111m-2.6577-2.2743c-1.3458 0.54249-1.7709 2.4986-1.2415 3.847 4.3269 11.004 17.151 28.1 31.204 26.647 5.2684-0.54511 9.7518-1.9065 13.531-2.9576 7.2662-2.0239 13.002-3.6201 22.412 0.40165 1.3328 0.57118 3.1689 0.19039 3.7348-1.1424 0.57382-1.3328-0.36509-3.0593-1.6666-3.6879-11.071-5.3362-17.959-2.8429-25.886-0.63638-3.7557 1.0459-7.3653 1.9039-12.193 2.4047-10.276 1.0641-21.76-11.875-26.238-23.251-0.53469-1.3484-2.3134-2.1647-3.6566-1.6249"/>
   <path d="m90.598 28.949c0.59988-1.7527 3.2706-2.8402 5.7561-0.41209 2.942 2.8742 5.957 9.6136 5.957 14.081 0 0.39643-0.0446 0.75636-0.0965 1.1137-1.4137 0.13311-7.2011 0.46685-10.289-2.5142-1.2701-3.2497-2.4829-8.9015-1.3275-12.269m-1.1893-1.0172c-2.123 4.4364 0.51903 11.345 1.0068 12.642 0.48515 1.2936 0.50596 1.6483 1.4006 2.1569 6.6403 3.7792 11.489 2.6264 11.551 1.1893 0.21652-4.8589-2.5508-12.652-6.0091-16.092-1.3719-1.3667-5.7223-4.5381-7.9496 0.10434"/>
   <path d="m102.56 44.228c0.26861-7.5636-3.3645-15.657-7.2637-14.585-2.5742 0.7068-3.8522 6.2204-0.4147 13.502 0 0 2.1282 1.8231 7.6784 1.0824"/>
   <path d="m126.48 18.358c0-4.2695 2.2091-3.148 4.4051 3.4818 0.90504 2.7333 1.6901 6.1656 2.0369 9.877-0.23988 0.53729-1.0145 1.0459-1.531 1.3249-2.5638-3.341-4.9111-10.631-4.9111-14.684m-0.75889-2.2013c-1.1815 3.8157 2.2117 14.04 5.2136 17.691 0 0 0.29215 0.22691 0.62601 0.10959 0.78504-0.28429 1.7657-0.7694 2.1751-1.8935l0.0368-0.29993c-0.7042-7.8348-3.4428-15.307-5.4953-16.71-1.0224-0.69898-2.0813-0.41991-2.556 1.1032"/>
   <path d="m131.43 33.571c-3.4036-3.2549-5.0624-11.791-5.0624-11.791-0.51896-3.2576 0.92591-4.0322 2.363-2.7229 1.252 1.1424 3.6801 6.0169 4.7703 12.887 0 0-0.73811 0.7381-2.0709 1.6275"/>
   <path d="m97.966 4.1487c-2.5038 0.72245-5.55 0.42252-6.8567-0.7694-1.0094-0.92066 1.411-9.6579 2.3238-10.005 1.0354-0.39383 7.9809 4.4573 8.3147 5.7457 0.51645 1.9039-1.0171 4.233-3.7818 5.0285m-5.3179-12.224c-2.0109 0.76678-3.2498 10.362-2.9055 11.51 0.29731 0.98848 3.9043 3.3514 8.552 1.7761 3.6488-1.2362 5.2242-3.6722 4.3504-6.6611-0.37034-1.2754-7.9939-7.3862-9.9969-6.6246"/>
   <path d="m109.21 145.23-0.15907 0.82678c33.869 6.7864 52.888-7.2323 55.626-17.258l-0.44593-0.54769c-2.3056 8.7294-21.637 23.4-55.021 16.979"/>
   <path d="m119.72 161.35-0.14353 0.82939c20.933 3.6488 41.401-4.6816 47.442-14.992l-0.16439-1.0667c-5.897 10.067-25.985 18.035-47.134 15.229"/>
   <path d="m123.6 173.61-0.20853 0.81373c15.25 3.9461 33.893-2.6107 39.771-9.0345l-0.25561-1.1032c-5.7457 6.2751-23.557 12.125-39.307 9.324"/>
   <path d="m123.02 188.64-0.0807 0.8372c12.764 1.2702 24.908-1.5753 32.938-8.273l-0.27118-1.0432c-7.8557 6.5568-19.71 9.2041-32.586 8.479"/>
   <path d="m118.67 197.4-0.1331 0.82939c8.4034 1.3536 20.547-0.55554 26.681-4.5616l1.8518-2.063c-5.9856 3.907-20.171 7.1202-28.4 5.7953"/>
   <path d="m70.7 104.46c1.3067-4.8355 3.0854-11.591 4.2668-16.249-0.63635 0.27906-1.2754 0.70418-1.9117 1.0198-1.1267 4.2226-3.2758 11.304-4.4625 15.68-3.5601 13.166-7.1541 27.07-9.0476 39.902-0.029 0.047 0.41729-1.0302 0.39389-0.98326 0.64676-0.892 1.5048-0.94415 1.9378-1.2024 1.9014-12.399 5.3545-25.356 8.8233-38.167"/>
   <path d="m101.85 138.83 1.6092 0.39905c-13.176-18.124-9.3032-50.225-4.4547-76.168l-1.0328-0.19301c-5.6623 27.255-9.5301 57.512 3.8783 75.962"/>
   <path d="m121.72 75.394c-10.667 1.6405-22.829-2.1726-24.918-3.7322l-0.5007 0.6729c2.5742 1.9248 15.388 5.6961 25.716 4.1104 5.6179-0.86588 9.5796-3.3019 12.102-6.8046l-0.68074-0.49294c-2.3864 3.3149-6.3299 5.4171-11.718 6.2465"/>
   <path d="m128.23 86.949c-7.8166 2.7698-20.967 2.8559-32.768-3.3306l-0.40429 0.7381c12.48 6.815 25.693 6.3951 33.681 3.5627 4.6268-1.6405 7.6914-4.3086 8.7999-7.0133l-0.77721-0.31819c-1.0198 2.4829-4.1287 4.799-8.5312 6.3612"/>
   <path d="m134.27 100.62c-8.7998 3.7531-23.927 5.451-40.003-1.0485l-0.31562 0.77983c16.314 6.596 31.412 5.331 40.363 1.5075 4.7103-2.0083 8.213-5.151 9.3527-8.0017l-0.78247-0.31298c-1.0536 2.642-4.113 5.1537-8.6146 7.0759"/>
   <path d="m141.71 112.77c-9.2693 5.6075-26.939 8.8311-47.155 1.7944l0.28426 1.0563c20.489 7.1332 37.993 3.9956 47.424-1.7136 5.0102-3.0306 8.08-7.2845 8.6224-10.938l-0.83199-0.12268c-0.50599 3.4062-3.547 7.0211-8.3434 9.9239"/>
   <path d="m150.02 124.66c-9.3214 6.7707-28.275 11.439-52.105 4.8198l0.27384 1.0172c24.117 6.6977 43.034 2.0135 52.517-4.872 4.9007-3.5575 7.5062-8.0539 7.6861-12.138l-0.84241-0.0391c-0.16417 3.7714-2.9081 7.8583-7.5297 11.212"/>
   <path d="m91.632 54.861c0.28951 2.0448 1.3536 5.0311 3.9044 7.2376 3.1923 2.7568 6.9715 3.933 10.495 3.6879l-0.59473-0.95979c-2.3656 0.17481-6.0769-1.4814-9.0241-4.027-2.3421-2.0239-3.3723-4.4182-3.8861-5.9882-0.73808-2.2508-1.1476-1.7318-0.89461 0.0495"/>
   <path d="m107.34 207.66c10.425-4.8407 17.344-15.234 17.649-25.095 0.60771-19.331-15.711-39.497-22.187-44.148-3.2367-2.3212-6.1369-3.6201-0.60513 0.86067 5.5266 4.4808 21.885 25.476 20.675 43.488-0.7277 10.842-7.3132 19.334-16.152 24.091-1.917 1.0328-1.7084 1.8831 0.6207 0.8033"/>
   <path d="m83.117 208.89c-8.1086-2.6681-14.939-8.0252-20.972-16.731-4.1208-5.9387-7.827-15.461-7.827-26.692 0-7.4358 2.0343-18.867 7.9366-25.041 2.2795-2.3838 3.0437-3.028 0 2.123-8.7138 14.754-5.1876 38.765 1.4997 48.417 5.6909 8.2052 12.253 13.659 19.485 16.687 2.5612 1.072 2.5873 2.1282-0.12255 1.2363"/>
   <path d="m144.43 45.201c-0.87895-6.0952-5.2475-11.051-10.526-13.674-0.98069-0.34688-0.98069 0.63117-0.56074 1.1345 4.9346 2.5012 8.7632 9.0189 9.517 13.26 0.83717 4.7077 0.73284 17.678-15.594 21.835-9.2849 2.363-15.727 0.54769-19.18-1.7214-4.0583-2.6655-6.2778-7.8035-6.7055-9.3527-0.42771-1.5518-1.0641-0.53205-0.83726 0.74331 0.65466 3.6722 1.8752 6.6794 6.5595 9.757 3.667 2.4073 8.7685 4.0974 17.623 2.7855 3.6775-0.54509 22.748-3.6253 19.704-24.767"/>
   <path d="m110.21-2.6152c-3.1167-0.73549-6.4369-0.91544-9.7727-0.48511 0.37816 0.47468 0.78764 0.89198 1.098 1.3354 2.822-0.38861 5.6335-0.27125 8.3851 0.37817 10.156 2.3943 17.169 11.88 17.928 16.817 0.53726 0.97545 1.1137 0.96241 1.6092 1.977-0.67031-8.3173-8.6877-17.534-19.248-20.023"/>
  </g>
  <path d="m98.216 32.527c0.30248 1.4006-0.32862 2.3942-1.3614 2.6186-1.0355 0.22163-2.0839-0.41207-2.3838-1.8126-0.29989-1.4006 0.37558-2.4151 1.411-2.6368 1.0328-0.2243 2.0343 0.43296 2.3343 1.8309" fill="#fff"/>
  <path d="m129.03 21.407c0.35468 1.1945 0.20609 2.2899-0.3312 2.4516-0.53469 0.1591-1.2597-0.67811-1.6118-1.8726-0.35735-1.1919-0.20876-2.2899 0.32862-2.4516 0.53728-0.15911 1.2597 0.67811 1.6144 1.8726" fill="#fff"/>
  <path d="m134.62-42.873c-1.0616 0.46946-1.544 1.7109-1.0745 2.7724 4.6581 10.558 3.461 19.91-3.122 24.412-8.7686 5.9987-11.158 11.546-10.842 20.33 0.0783 2.1413 1.0875 3.8026 2.3734 3.5731 1.1423-0.20343 1.8257-1.1893 1.7422-2.3473-0.59463-8.2704 1.6171-12.965 9.1024-18.085 8.359-5.717 10.12-17.052 4.5929-29.581-0.46949-1.0615-1.711-1.544-2.7724-1.0746" fill="#fff3c3"/>
  <path d="m123.39-4.7226c-2.4542 5.4849-1.6249 12.665-0.94932 12.542 1.1423-0.20343 1.3119-0.79287 1.2519-1.9509-0.0834-1.6718-0.5764-5.5292 1.0432-9.3658 1.3719-3.2523 4.7181-6.5803 6.3691-7.5949-1.9535 0.386-6.0221 2.5873-7.7148 6.369" fill="#dcd2a9"/>
  <path d="m121.93 7.6222c0.80068-2e-3 1.3223-0.9311 1.2649-1.7396-0.69379-9.9448 2.4125-13.818 9.3083-18.533 8.1374-5.5657 9.8274-16.653 4.4104-28.935-0.17215-0.386-0.48247-0.68072-0.87371-0.8346-0.3938-0.15128-0.82159-0.14344-1.2076 0.02873-0.58683 0.2582-0.93892 0.83982-0.93892 1.4449 0 0.21126 0.0446 0.42773 0.13311 0.63377 1.9144 4.3399 2.8558 8.4842 2.8558 12.193 0 5.524-2.0891 10.08-6.1578 12.866-3.1115 2.1282-5.4797 4.2382-7.1854 6.5647-3.3957 4.6346-3.654 6.9194-3.0723 14.412 0.12268 1.0798 0.6103 1.9013 1.4632 1.8987m-0.0257 1.0146c-1.3588 0.0131-2.2247-0.75636-2.4673-2.7542-0.29208-2.4204-0.46942-7.4801 0.64684-10.714 1.4632-4.2382 4.4573-7.5844 9.5405-11.061 6.3612-4.3504 7.7122-12.469 3.4428-23.995-0.74594-2.0109-0.14864-3.3723 1.1789-3.9591 0.64157-0.28428 1.3562-0.29732 2.0108-0.0443 0.65466 0.25298 1.338 1.2362 1.617 1.8805 5.8631 13.481 4.2721 24.269-4.3112 30.137-4.0192 2.749-7.1462 5.318-8.5912 9.0684-0.64683 1.6744-0.95715 5.1641-0.79804 8.4894 0.0834 1.7918-1.0302 2.942-2.2691 2.9524" fill="#0f141b"/>
 </g>
</svg>
