<?xml version="1.0" encoding="UTF-8"?>
<!-- Created with Inkscape (http://www.inkscape.org/) -->
<svg version="1.1" viewBox="0 0 87.958 106.78" xmlns="http://www.w3.org/2000/svg">
 <g stroke-width="1.2473">
  <path d="m38.498 87.246c-0.19419 0.2365-0.70394 0.5931-0.386 0.99218 1.0244 3.9764 4.4636 15.425 9.993 15.807 6.0847 0.4204 12.526-15.245 12.432-15.294-3.2344-1.6818-20.585-3.2736-22.039-1.5053" fill="#0f141b"/>
  <path d="m45.958 101.97c0.66224 0.68366 1.4162 1.1578 2.3023 1.1613 0.96839 5e-3 1.95-0.49662 2.9037-1.3043-1.713-0.87308-3.3363-0.53183-5.2061 0.14301" fill="#dcdddd"/>
  <path d="m51.997 87.894c-6.1002-0.72734-11.684-0.63815-12.626-0.09328 0.2339 3.5344 3.0158 11.001 6.5875 14.165 1.8748-1.1402 3.4921-1.0153 5.2061-0.14302 3.8017-3.2135 7.165-11.354 7.4998-12.387-0.27212-0.30901-1.9398-0.9796-6.6672-1.5423" fill="#b9c897"/>
  <path d="m55.734 65.326c-0.34654 0.33424-0.30966 0.91233 0.12677 1.9952 1.4279 3.5411 8.7913 14.9 12.046 14.908 0.58257 0.0016 1.0387-0.32975 1.2836-0.93004 2.7756-4.7255 3.8983-12.613 2.4668-13.846-0.75551-0.65141-3.1266-1.0654-6.4129-0.50249-3.2423 0.55713-4.4493 0.10821-8.5355-1.7015-0.50735-0.22502-0.81077-0.08257-0.97494 0.07696" fill="#0f141b"/>
  <path d="m67.652 81.219c-3.1522-0.93043-10.771-12.641-11.153-15.014 3.0458 2.1588 7.3819 2.2635 10.724 1.7402 1.4805-0.23202 3.053-0.19973 3.761 0.41015 0.68077 0.58705-0.29378 6.7081-2.689 12.578-0.11419 0.28186-0.24562 0.40275-0.64326 0.286" fill="#d6e6ae"/>
  <path d="m70.984 68.355c-0.09773-0.08416-0.22325-0.15491-0.3673-0.21671-1.4298 3.7843-3.9556 6.8826-6.8843 9.6495 1.5049 1.7884 2.932 3.1385 3.9193 3.4311 0.39764 0.11674 0.52827-0.0051 0.64326-0.286 2.3952-5.8697 3.3699-11.993 2.689-12.578" fill="#b9c897"/>
  <path d="m50.41 50.916c0.46565 1.2388 0.04785 4.1489-1.4169 5.4636-1.3973 1.2553-2.6193-0.64552-3.5897-2.2543-0.96948-1.6096-1.2301-4.4122 0.65832-4.299 2.1581 0.12715 4.1115 0.46062 4.3483 1.0897" fill="#0f141b"/>
  <path d="m47.695 53.649c-0.65874-0.05989-1.004-0.92816-1.0104-1.6372-0.0069-0.67455 0.17967-1.0216 0.447-1.1956-0.11274-0.0067-0.22741-0.01182-0.3427-0.01965-1.1821-0.07028-1.3456 1.8649-0.73607 2.8555 0.60858 0.99139 2.0763 2.3611 2.7958 1.4515 0.611-0.76892 1.0503-1.9192 0.99622-2.9115-0.62994 0.35919-1.6816 1.2076-2.1498 1.457" fill="#5da24e"/>
  <path d="m46.685 52.011c0.0064 0.70904 0.35162 1.5773 1.0104 1.6372 0.50943 0.04632 1.6358-0.76076 2.1498-1.457-0.01181-0.23044-0.04343-0.45737-0.11417-0.66305-0.19658-0.56516-1.3675-0.64151-2.5982-0.7118-0.26813 0.1731-0.45386 0.52108-0.4478 1.1947" fill="#6dba5a"/>
  <path d="m4.8694 61.415c-0.10206 1.1225 1.0134 3.6008 0.34329 3.539-1.4168-0.12794-5.2825-2.2107-5.2117-3.9436 0.058628-1.4045 1.7212-2.587 3.3418-3.0835 1.4684-0.4492 1.6897 1.6945 1.5266 3.4881" fill="#0f141b"/>
  <path d="m3.295 58.972c-0.317 0.10667-1.0067 0.44601-1.2824 0.5653 0.16604 0.33494 0.66054 0.653 0.79276 0.92272 0.17869 0.36251-0.23735 0.47576-0.6556 0.68304-0.28538 0.13877-0.88454 0.01131-1.2475 0.25307 0.45927 1.0265 3.4112 2.8642 4.1351 2.3243 0.48548-0.36234-0.43786-1.8269-0.37924-2.4716 0.092957-1.0321-0.3556-2.6147-1.3631-2.2768" fill="#5da24e"/>
  <path d="m2.1653 61.195c0.41904-0.20632 0.9018-0.38294 0.72487-0.74528-0.13222-0.26973-0.51692-0.76255-0.87703-0.91219-0.63543 0.27786-1.1123 0.64276-1.1988 1.3611-0.020922 0.17167 0.017082 0.33807 0.088464 0.49777 0.39987 0.053184 0.97701-0.06083 1.2625-0.20136" fill="#6dba5a"/>
  <path d="m68.66 71.892c-5.9198-7.1039-13.04-9.449-17.509-14.847-5.2026-6.2842-2.9079-11.137-6.0124-22.108-2.9889-9.8759-10.448-16.103-21.482-15.993-22.598 0.22213-25.333 20.069-21.414 35.957 1.6198 6.5633 2.8975 10.335 3.5375 15.939 0.50824 4.4617-7.4016 26.881-0.89968 30.193 1.7122 0.87212 9.4649 1.5699 17.167-9.175-1.2212-0.8381 7.836 5.4211 18.1 6.7697 5.0336 0.66312 14.814-0.72001 17.344-1.4614 1.9619 5.1288 5.3374 7.802 8.5469 7.7705 6.4724-0.0651 11.616-22.248 2.6219-33.044" fill="#0f141b"/>
  <path d="m62.614 102.87c1.1311 0.91315 2.3398 1.4109 3.4789 1.2232 0.70473-0.11481 1.6624-0.73265 2.1577-1.397-2.0347-0.78365-3.893-0.98361-5.6366 0.17383" fill="#dcdddd"/>
  <path d="m67.468 72.432c-9.772-11.721-19.629-8.8614-21.762-27.814-1.9198-17.066-9.8547-24.671-21.805-24.509-18.074 0.24647-26.054 13.835-19.48 39.238 3.1885 11.625 3.088 12.204 0.61401 23.197-1.2411 5.5168-1.9919 11.593-1.3859 15.057 2.4441-0.56417 4.0163 0.58214 5.2972 2.731 3.8111-0.92075 8.8518-4.1048 10.844-8.2781 0 0 1.3227 0.77294 1.8314 0.96442 0.86298 0.32643 1.6107 0.71322 2.4104 1.1021 10.353 5.0593 23.821 4.0646 35.002 1.4397 3.1616-0.74158 4.2092-0.18582-0.47687 1.2027 0.83708 2.4132 2.3586 4.73 4.0574 6.1004 1.7444-1.1565 3.6019-0.95748 5.6364-0.17207 4.033-5.4161 6.3472-21.703-0.78303-30.26" fill="#d6e6ae"/>
  <path d="m3.6483 97.602c0.27912 1.5955 0.78439 2.3499 1.7731 2.7551 0.85628 0.3515 2.1053 0.31894 3.5241-0.0241-1.2809-2.1488-2.8531-3.2951-5.2972-2.731" fill="#fff"/>
 </g>
 <path d="m49.542 0.1931c-7.6027-0.7692-14.824 0.68456-21.383 5.7089-0.52444 0.40131-0.94764 0.702-1.2242 0.88054-6.2387 4.0103-6.062 7.1507-6.6669 9.7525-0.35087 1.5117-0.13114 1.9488-1.2003 2.6725-1.2777 0.86505 2.0186 4.5929 3.0683 4.6874 0.99426 0.0904 5.0092-3.3835 3.5295-4.5436-0.60172-0.47271-0.77786-0.97048-0.66158-2.2493-0.0043-1.6281 0.30524-4.2629 5.0123-6.5634 2.2067-1.079 5.3228-0.87186 6.8345 0.21936 5.1396 3.705 6.9089 10.962 8.7663 17.785 3.2178 11.818 5.6167 16.106 11.973 19.817 14.39 8.4037 19.833 13.484 23.138 17.83 4.6068 6.0582 5.2279 4.7598 5.654-0.33608 1.0269-12.19 1.2698-13.926 1.5225-18.907 1.0461-20.622-12.829-44.169-38.361-46.754" fill="#0f141b" stroke-width="1.247"/>
 <g stroke-width="1.2473">
  <path d="m20.008 19.886c0.98692-0.82241 0.83012-1.6107 1.2445-3.2078 0.7027-2.7124 0.69731-5.8089 6.1174-8.8903 0.35756-0.20217 0.80104-0.54087 1.3608-0.96997 2.4911-1.9086 7.6777-5.88 16.655-5.8634 11.119 0.019163 21.961 4.7829 29.745 13.066 5.6173 5.9792 12.722 20.973 11.724 33.384-0.30204 3.7504-1.5457 15.471-1.6603 16.77-0.11276 1.2986-0.06601 3.6479-0.51204 4.2583-0.44604 0.61035-3.4759-3.312-5.1309-5.1539-1.6557-1.8447-6.6039-7.3034-21.154-15.801-7.5591-4.4147-9.7521-12.467-11.873-20.254-1.9132-7.0284-3.7202-13.666-9.1956-17.613-1.8599-1.3416-5.2257-1.3944-7.8289-0.12292-4.2762 2.0908-5.137 4.9155-5.3077 6.7933-0.21035 2.3135-0.36191 2.6752 0.52167 3.4861 0.82338 0.75233-1.9627 3.363-2.4648 3.3625-0.50128 4.72e-4 -2.912-2.6859-2.2422-3.2441" fill="#6dba5a"/>
  <path d="m84.683 68.432c-0.44604 0.61035-3.4751-3.311-5.1309-5.1539-1.6558-1.8429-6.6039-7.3034-21.155-15.801-7.5581-4.4155-9.7511-12.467-11.872-20.255-1.9124-7.0274-3.7204-13.664-9.1956-17.613-1.8609-1.3408-5.2257-1.3944-7.8281-0.12196-4.277 2.0899-5.137 4.9155-5.3087 6.7941-0.21115 2.3125-0.36175 2.6734 0.52183 3.4844 0.66464 0.60861-1.0221 2.4265-1.9622 3.1044 0 0-1.0298-5.2415 1.21-9.2364 3.0113-5.37 8.7723-7.0876 13.572-5.2927 6.516 2.4362 7.7595 12.583 9.7336 18.26 1.3564 3.8994 4.9502 13.658 12.9 19.418 9.7149 7.0408 17.258 12.357 24.515 22.412" fill="#5da24e"/>
  <path d="m14.374 67.94c-0.14518 1.5968-1.5887 2.9994-3.1855 2.8542-1.5968-0.14519-3.667-2.5146-3.5218-4.1114 0.14519-1.5968 2.5855-2.187 4.1805-2.042 1.5985 0.14534 2.672 1.7024 2.5268 3.2992" fill="#0f141b"/>
  <path d="m13.001 66.091c-0.08871 0.14165-0.1302 0.2924-0.14569 0.4628-0.07267 0.79927-0.25357 1.2406-1.6413 1.1144-1.0003-0.09184-2.0522-0.46744-2.5404-0.37396 0.29238 1.1477 1.599 2.6339 2.6081 2.7265 1.1779 0.10621 2.1608-1.2081 2.2651-2.3551 0.0543-0.59726-0.16223-1.1572-0.54581-1.5746" fill="#5da24e"/>
  <path d="m11.225 67.805c1.3877 0.12618 1.7573-0.45127 1.8309-1.2513 0.01454-0.1696-0.0072-0.32035-0.05445-0.4628-0.34973-0.38072-0.83871-0.64214-1.4008-0.69326-1.1797-0.10637-2.8812 0.20916-2.9844 1.3537-0.015972 0.16592 0.00702 0.35133 0.056844 0.5436 0.48914 0.3376 1.5506 0.41906 2.5519 0.5101" fill="#6dba5a"/>
  <path d="m25.761 70.268c-0.14518 1.5968-1.5032 2.8096-3.0991 2.6637-1.5977-0.14439-3.4208-1.4145-3.2756-3.0113 0.14518-1.5968 1.9496-2.9754 3.5464-2.8302 1.5968 0.14519 2.9745 1.5802 2.8283 3.1778" fill="#0f141b"/>
  <path d="m23.455 68.098c0.1721 0.36705 0.41896 0.52972 0.38781 0.87226-0.04903 0.53929-0.53174 0.807-1.2836 0.73864s-1.3007-0.25256-1.577-0.72048c-0.05382-0.08991-0.04825-0.17375-0.17114-0.25232-0.30678 0.32545-0.51582 0.72533-0.55448 1.1602-0.10414 1.1453 1.2587 2.1105 2.4391 2.2179 1.1787 0.10717 2.0254-0.80946 2.1304-1.9538 0.08353-0.92846-0.51579-1.7295-1.3711-2.0623" fill="#5da24e"/>
  <path d="m22.538 69.825c0.75264 0.06932 1.4031-0.31522 1.4521-0.85451 0.03115-0.34254-0.18412-0.66322-0.53528-0.87226-0.2001-0.07841-0.41249-0.13846-0.63734-0.15891-0.73332-0.06756-1.5029 0.26364-2.0066 0.79701 0.0078 0.07953 0.03305 0.16241 0.08687 0.25232 0.27722 0.46711 0.88837 0.76798 1.6402 0.83634" fill="#6dba5a"/>
  <path d="m38.081 65.929c0.49088 1.5262-0.99191 3.3414-2.5191 3.8331-1.527 0.48992-3.1776-0.42707-3.6693-1.9542-0.49088-1.5262 0.34003-2.9801 1.8654-3.4719 1.528-0.49072 3.832 0.06681 4.3229 1.593" fill="#0f141b"/>
  <path d="m37.263 66.435c-0.05157-0.53338-0.29367-0.89988-0.6493-1.1572-0.06367 0.03545-0.16087 0.14624-0.16438 0.18488-0.04488 0.49362-0.55714 0.70091-1.3941 0.92591-0.68541 0.18476-1.7815-0.2754-2.2324-0.27676-0.06803 0.17359-0.11994 0.35484-0.13846 0.54887-0.10318 1.1445 0.76794 2.1607 1.9466 2.2679 1.1795 0.10813 2.7656-1.1292 2.632-2.4936" fill="#5da24e"/>
  <path d="m35.055 66.62c0.83776-0.22404 1.5273-0.73697 1.5722-1.2306 0.0045-0.03945-0.0037-0.07649-0.01469-0.11115-0.40977-0.29496-0.97365-0.44365-1.6051-0.50194-0.97941-0.08816-1.8542 0.48497-2.1848 1.3352 0.19802 0.42272 1.546 0.69406 2.2324 0.5085" fill="#6dba5a"/>
  <path d="m47.322 58.47c0.72084 1.432 0.01192 3.9596-1.6638 4.5264-1.5195 0.51452-3.2461-0.09235-3.967-1.5243-0.7218-1.4312-0.14416-3.1773 1.287-3.8991 1.433-0.72164 3.6219-0.53413 4.3437 0.89707" fill="#0f141b"/>
  <path d="m46.655 59.23c-0.10939-0.28713-0.31507-0.52812-0.5701-0.72311-0.33406 0.33036-1.3799 1.5258-1.9805 1.7422-0.63176 0.22772-1.5533 0.23715-1.9665 0.30332 0.02012 0.09039 0.03769 0.17966 0.07122 0.26861 0.41232 1.0754 2.0458 1.742 3.1516 1.3174 1.1056-0.42286 1.7059-1.8339 1.2944-2.9083" fill="#5da24e"/>
  <path d="m44.146 60.377c0.60062-0.21638 1.9203-1.3486 1.9376-1.8695-0.69866-0.53642-1.8093-0.71003-2.6204-0.39943-1.0139 0.38868-1.5606 1.4433-1.3258 2.4459 0.33871 0.37529 1.3761 0.04984 2.0086-0.17691" fill="#6dba5a"/>
  <path d="m28.787 49.108c0.08096 0.58033 0.25996 1.5823-0.8397 1.4433-0.64708-0.08097-2.7359-0.66852-4.8653-0.64428-2.1401 0.02504-4.3967 0.99148-5.0793 0.60884-0.59821-0.33601-0.47684-0.96967-0.30005-1.4141 0.29912-0.74769-0.20616-0.51821-0.58944 0.19083-0.53659 0.99266-0.19214 1.6262 0.47362 2.0569 0.9762 0.62985 3.0382-0.58188 5.475-0.65611 2.1578-0.06417 4.0925 0.64044 4.7632 0.67574 1.9101 0.0984 1.853-1.0554 1.6035-1.8671-0.25055-0.81892-0.76013-1.2434-0.64165-0.39398" fill="#0f141b"/>
  <path d="m30.43 6.0502c-0.16976 0.1236-1.2466 0.65888 1.0016-0.087818 3.7995-1.2601 6.4276-1.7438 10.037-1.2606 2.9117 0.3905 8.4873 2.4366 11.511 4.3542 6.6123 4.1922 6.5709 2.5333 1.0574-1.2269-5.7871-3.9463-17.738-6.0362-23.606-1.7789" fill="#5da24e"/>
  <path d="m66.927 21.948c-0.58592 0.23011 2.6585 4.3924 4.8731 8.7587 2.7163 5.3541 3.9665 9.7106 5.6336 17.05 1.1954 5.2707 2.4189 8.2646 3.4239 11.179 1.5073 4.3728 4.1948 7.7751 3.8339 6.6796-0.83437-2.5307-3.5021-8.6526-4.6836-13.852-1.6829-7.4183-4.2955-17.166-7.1163-22.657-1.2964-2.524-5.3474-7.3991-5.9645-7.1576" fill="#5da24e"/>
  <path d="m30.39 5.9507c-0.52716 0.38246-2.0743 1.347 0.72485 0.14118 6.6968-2.8838 13.798-2.2018 20.942 1.4392 2.363 1.2049 7.1127 3.8888 1.877 0.16004-5.7173-4.071-17.11-6.4069-23.543-1.7404" fill="#0f141b"/>
  <path d="m69.463 24.549c-0.58576 0.22836 0.92317 1.4956 3.1378 5.8618 2.7154 5.3549 4.4873 10.373 6.1534 17.712 1.1964 5.2699 2.2014 8.3874 3.2063 11.302 1.5091 4.3729 2.6275 5.6781 2.2674 4.5836-0.83437-2.5307-2.2449-6.9744-3.4254-12.175-1.6839-7.4175-4.1044-15.528-6.9252-21.019-1.2964-2.524-3.7973-6.5071-4.4144-6.2657" fill="#0f141b"/>
  <path d="m3.6483 97.602c0.27912 1.5955 0.78439 2.3499 1.7731 2.7551 0.85628 0.3515 2.1053 0.31894 3.5241-0.0241-1.2809-2.1488-2.8531-3.2951-5.2972-2.731" fill="#fff"/>
  <path d="m69.434 75.387c1.9756 8.017-5.6807 16.565-28.043 16.78-20.611 0.19996-24.784-4.7977-28.727-9.7843 0.96033 4.9341-0.34734 11.593-5.086 16.121 0.50335 0.51247 0.95576 1.1372 1.3684 1.8292 3.8103-0.92171 8.851-4.1058 10.843-8.2791 0 0 1.3227 0.77294 1.8304 0.96522 0.86474 0.32659 1.6116 0.71242 2.4112 1.103 10.353 5.0575 23.821 4.0628 35.001 1.4387 3.1626-0.74238 4.2102-0.18662-0.47591 1.2019 0.83613 2.414 2.3594 4.731 4.0573 6.1022 1.7436-1.1574 3.6019-0.95748 5.6366-0.17383 4.0138-5.3904 5.9743-18.313 1.1834-27.304" fill="#b9c897"/>
  <path d="m29.973 96.118c-7.6361-2.1165-14.377-6.6481-17.697-16.227-0.54917-1.5864-0.95208-1.2166-0.67471 0.14499 1.3718 6.7391 5.7413 10.917 9.6379 13.537 2.0347 1.3681 6.9847 3.3007 9.1041 3.7555-0.10683-0.41265-0.28696-0.75935-0.37079-1.2107" fill="#0f141b"/>
  <path d="m34.845 104.37c1.4078 1.3076 2.8203 1.97 3.9813 2.0774 1.5121 0.14103 2.0851-0.60921 3.2153-1.8481-2.3456-1.4841-4.5791-1.7855-7.1966-0.22927" fill="#fff"/>
  <path d="m28.221 87.848c0.66069 8.6484 3.7989 13.891 6.6244 16.516 2.6176-1.5562 5.0171-1.1334 7.3619 0.34967 3.0627-3.3542 5.8627-10.306 6.4583-17.812 0.26606-0.6276-20.499 0.23589-20.445 0.94574" fill="#d6e6ae"/>
  <path d="m41.509 89.278c-0.07737 5.604-0.29847 11.318-1.4284 14.268 0.94619 0.21001 1.1758 0.57715 2.0091 1.1037 2.8928-3.1704 5.3007-8.6643 6.3783-15.227-0.20882-4.2193-6.8847-5.5498-6.959-0.14478" fill="#b9c897"/>
  <path d="m38.638 106.42c0.06292 9e-3 0.12632 0.023 0.18876 0.0278 1.5121 0.14103 2.185-0.54788 3.3169-1.7866-0.83504-0.52668-1.5616-0.97975-2.3585-1.2054 0.02202 1.4331-1.1471 2.9642-1.1471 2.9642" fill="#dcdddd"/>
 </g>
 <g fill="#0f141b" stroke-width="1.2473">
  <path d="m47.342 92.288c-1.4217 8.0978-6.1722 13.867-8.6684 13.757-2.9892-0.13275-7.9478-4.8831-9.5436-15.149-0.94562-6.0796-1.4557-2.4659-0.63706 2.4385 0.89645 5.364 4.6581 13.256 10.227 13.444 4.1592 0.13995 8.6172-7.6127 9.6148-14.094 0.80669-5.2393 0.01989-6.1601-0.99298-0.3967"/>
  <g fill-rule="evenodd">
   <path d="m34.704 104.19 0.3082 0.44779c2.3531-1.5599 4.6063-1.1239 6.7838 0.21121l0.21655-0.46295c-2.4821-2.2129-5.194-2.0344-7.3086-0.19605"/>
   <path d="m45.46 102.12c0.10332 0.0811 0.4037 0.35197 0.4037 0.35197 1.6872-1.4725 4.0772-1.373 5.6024 0.0462l0.21224-0.46423c-1.4292-1.569-4.0676-2.1516-6.2184 0.066"/>
   <path d="m62.183 102.98 0.35691 0.43805c1.5476-1.3692 4.2273-1.7871 5.7773-0.18229l0.34351-0.45672c-1.5445-1.6743-4.5583-1.9943-6.4777 0.20096"/>
  </g>
 </g>
 <g stroke-width="1.2473">
  <path d="m4.2633 99.406c0.28521 0.44747 0.65937 0.74451 1.1579 0.94924 0.85548 0.35054 2.1053 0.31894 3.5251-0.0249-0.48195-0.80626-1.0049-1.4728-1.5992-1.9599-0.11245 1.5776-2.3482 1.6028-3.0839 1.0356" fill="#dcdddd"/>
  <path d="m9.3436 100.94c-0.66397-2.8269-3.5694-4.6692-6.3681-3.4005 0.1212 0.23507 0.020278 0.25423 0.085908 0.53562 2.6399-0.53574 4.914 0.83911 5.6726 3.1114 0.44044-0.16895 0.27739-0.0996 0.60956-0.24656" fill="#0f141b" fill-rule="evenodd"/>
  <path d="m7.2146 47.426c-2.7002-2.3948-2.1959-16.805 3.2861-17.198 6.556-0.46749 5.3994 15.779 4.2347 17.192-0.47286 0.57426-6.354 1.0411-7.5208 0.0052" fill="#fff"/>
  <path d="m39.164 46.522c-0.45402 0.62025-7.1526 1.3608-7.7811 0.56952-2.0867-2.6268-2.868-16.464 2.4955-17.414 6.1844-1.0946 7.5883 13.696 5.2857 16.844" fill="#fff"/>
  <path d="m31.66 47.226c-2.1977-2.1853-2.7112-16.864 1.361-16.809 3.7945 0.051 5.4542 11.426 2.9356 16.841-0.15858 0.34158-4.1613 0.07771-4.2966-0.032" fill="#c6000d"/>
  <path d="m10.445 47.892c-2.7807-3.0486-2.4912-16.83 1.5994-16.958 3.31-0.10375 4.5035 13.35 2.6967 16.43-0.2148 0.3657-3.0356 0.64145-4.2961 0.52773" fill="#c6000d"/>
  <path d="m12.022 32.371c-0.73316 0.0086-1.2698 1.2545-1.1989 2.7833 0.06992 1.5296 0.7205 2.7603 1.4517 2.7533 0.7322-0.0078 1.2699-1.2563 1.199-2.7851-0.06737-1.5284-0.71875-2.7602-1.4519-2.7516" fill="#fff"/>
  <path d="m33.172 32.004c-0.7734-0.04552-1.3571 1.2121-1.3004 2.8095 0.05379 1.5998 0.72354 2.9315 1.496 2.9778 0.7718 0.04361 1.3545-1.2132 1.3016-2.812-0.05491-1.5973-0.72545-2.9299-1.4971-2.9753" fill="#fff"/>
  <path d="m13.788 40.995c0.42583 5.3487-2.9227 5.5835-3.2083 0.44598 0 0-0.97431 0.53752-1.6056 1.6075 0.37428 3.0813 0.89694 4.3261 1.4707 4.8432 2.0123-0.1199 4.1038-0.38049 4.1038-0.38049 0.25632-0.50096 0.91062-2.9149 0.91369-5.2667-0.43628-0.4612-1.6744-1.2495-1.6744-1.2495" fill="#f09cb4"/>
  <path d="m35.206 40.83c0.20593 5.2056-3.0001 5.4516-3.5554 0.18328 0 0-0.9288 1.0305-1.2747 1.3187 0.20661 2.2274 0.78244 4.2998 0.93031 4.8747 1.4192 0.43279 3.4552 0.07239 4.4382 0.07145 1.4871-2.34 1.3004-3.696 1.3327-5.1516-0.54104-0.69213-1.8711-1.2966-1.8711-1.2966" fill="#f09cb4"/>
 </g>
 <g fill="#0f141b" stroke-width="1.2473">
  <path d="m9.2066 38.943c0.26695-6.9098 2.6262-9.2476 4.5319-6.1014 0.05702-0.63686 0.01311-0.92336-0.20694-1.3277-1.7822-2.1387-5.3865-0.32681-5.4064 7.5672-0.010117 3.9195 0.9068 7.2273 1.8365 8.6898 0.22389 0.02124 0.53562-0.0372 0.77755-0.03911-0.98976-2.0392-1.6611-5.4769-1.5326-8.7888"/>
  <path d="m37.53 38.361c-0.50661-6.7977-3.8204-9.9834-5.8201-7.3331-0.2132 0.4358 0.28488 1.1037-0.10062 1.0775 1.6712-2.8652 4.2873-0.38241 4.7785 6.3032 0.42486 5.7878-0.8695 8.8228-0.97507 9.0683 0.24194-0.01165 0.61642-0.02011 0.83904-0.05301 0.21208-0.50144 1.6949-3.4954 1.2783-9.0628"/>
  <path d="m10.938 29.741c-5.3763 0.047831-7.2551 10.67-4.8871 16.231 0.77721 1.825 1.1127 1.4659 0.57268-1.1461-1.2835-6.1909 0.42324-14.249 4.3492-14.211 4.5505 0.04446 4.4185 15.638 3.1866 16.428-0.55079 0.36968-2.5483 0.55027-4.2418 0.46625-3.2102-0.15639-2.8641 0.71284 0.48099 0.77788 2.0599 0.03852 4.1976-0.20371 4.5989-0.84823 1.8755-3.0078 1.2192-17.743-4.0595-17.697"/>
  <path d="m40.536 43.366c1.1325-6.2998-1.8992-14.205-6.2804-14.182-6.1476 0.02818-5.1568 15.292-3.1554 18.126 0.44794 0.63495 3.3534 0.54844 5.6898 0.23483 2.6671-0.53238 2.5483-1.0763 0.35054-0.77755-2.1402 0.28982-4.937 0.41721-5.3237-0.09174-1.8733-2.4604-2.0162-16.19 2.2422-16.644 3.9847-0.42409 6.3157 7.8148 5.4979 13.808-0.50325 3.2947 0.34873 3.0409 0.9791-0.47332"/>
 </g>
</svg>
