<?xml version="1.0" encoding="UTF-8"?>
<!-- Created with Inkscape (http://www.inkscape.org/) -->
<svg version="1.1" viewBox="0 0 296.36 337.33" xmlns="http://www.w3.org/2000/svg">
 <g transform="translate(7.158 18.409)">
  <path d="m20.613 57.089c-4.7693-5.4572-11.243-14.307-11.243-16.684 0-1.7375 8.9127-11.649 15.777-17.779 6.0201-9.3037 23.314-34.933 27.74-39.013-2.7215 6.802-15.152 32.258-15.152 32.258 5.0193-1.4406 11.493-3.2357 15.574-4.0025 4.0823-0.76681 12.681-1.6888 19.248-1.5336 6.2081-1.015 17.279-2.4556 18.639-2.2029 1.3608 0.26594 27.083 11.915 28.193 13.276 1.1125 1.3608 10.899 13.197 15.246 25.472 4.5034 6.63 13.026 18.889 13.62 19.999 0.59394 1.1081 6.0357 14.996 7.6619 19.249 1.609 4.2551 5.2697 13.886 5.8796 16.951-3.2357-4.5193-7.2399-11.931-9.3666-16.012-2.1409-4.0956-8.6938-15.59-9.4602-16.184 1.7021 4.5969 5.7076 15.918 7.1615 21.031-3.4085-3.4085-13.713-15.402-16.778-18.467-3.0628-3.0805-9.4602-9.5382-12.775-12.181-3.3155-2.6417-8.0059-5.5357-10.383-6.3016-0.85989-2.8146-2.3935-6.2236-2.3935-6.2236-5.4417-0.76681-20.171-2.2029-30.304-2.2029-10.133 0-35.433 7.7404-36.965 8.6003-1.5336 0.84217-12.165 7.6619-12.165 7.6619l-1.968-4.2551z" fill="#e85377"/>
  <path d="m-0.23106 70.206c-2.2694 0.51415-4.6128 1.0461-6.1921 1.3608 2.5974-8.1623 9.8041-15.589 14.855-15.589 7.5214 0 16.825 1.9547 17.888 2.8146 0.93968 0.76681 6.0826 14.182 6.0826 22.986 0 8.8192-3.4396 16.106-5.2383 17.122-5.3632 3.0628-18.263-4.0335-18.263-7.4119 0-1.4051 3.8296-6.6455 5.3632-8.5533-5.7387-4.8628-14.495-12.728-14.495-12.728" fill="#f9dde8"/>
  <g fill="#fffbc6">
   <path d="m52.92 128.96c11.681 6.5206 20.218 17.654 26.066 26.473 0 7.3335 4.0645 28.646 14.651 43.439 10.586 14.792 52.024 43.204 56.104 45.94-1.6577 4.1576-5.4417 9.4446-6.6456 10.805-1.1879 1.3608-2.8944 1.8749-2.8944 1.8749s0.35459 1.609 0.17729 1.8306c-0.17729 0.22161-4.4719-0.81114-4.4719-0.81114s-5.2852 4.1754-5.5357 4.0956c-0.26596-0.0886-1.0638-4.0956-1.0638-4.0956s-4.8159 3.4573-5.1133 3.3642c-0.31027-0.0886-0.31027-2.0345-0.31027-2.0345s-4.5659 2.3004-4.7378 2.0788c-0.17729-0.22163 0.81114-2.3448 1.4538-3.6568 0 0-2.7215 0.71807-2.8944 0.46984-0.17731-0.26594 0.76681-1.4538 1.9547-2.8944-5.6602-2.6417-9.7416-6.99-11.712-9.0227l-1.3608-0.22162-4.0823 4.6443s1.2677 2.7215 1.015 2.9697c-0.26594 0.26594-3.4396-1.7065-3.7853-1.8616-0.3546-0.1773-2.2517 0.0311-2.9875-0.0444-0.71805-0.0886-2.0788-0.39892-2.0788-0.39892l-7.4119 3.3288-0.17729-2.5974s-2.8456 1.1391-5.4102 1.9547c0 0 0.39892-1.6267 0.73578-2.8146-8.9438-4.2374-19.561-15.34-22.954-21.844-25.316-16.294-43.517-43.783-43.517-68.457 0-10.352 3.8784-25.175 7.2085-37.262 5.4882-1.906 13.494-4.3615 29.788 4.7378"/>
   <path d="m163.66 252.59c1.64 0.62498 8.8503 2.0478 18.138 0.76682 2.4689 1.609 4.0823 2.7215 5.0193 2.7215 0.93968 0 6.896-2.7215 6.896-3.7366 0-1.0328-1.2677-5.2852-2.0345-7.068 0.59395-2.0478 1.015-6.1292 0.59395-10.57-0.44324-4.4236-1.1125-9.4446-1.1125-9.4446 0.0886-3.7543-0.26594-21.453-1.015-23.252-0.76682-1.7818-9.6321-22.814-13.714-31.07-4.0956-8.2563-8.6942-18.389-10.399-20.531-1.6888-2.1276-7.396-9.7886-7.396-9.7886-0.44325 3.1603-1.1081 6.9895-1.1081 6.9895l-3.0628-1.0328 2.4689 6.3956-2.2207 6.896-8.3343 7.146-6.3956-4.0025 1.4538 6.3951-0.44325 3.3155-4.8628-2.3758-0.39892 7.6619-19.077 11.665s-3.5814-3.3288-4.6754-5.1917c-0.61166 2.3758-0.85989 6.724-0.85989 6.724-3.3154-1.0328-7.068-3.4085-7.068-3.4085-0.35459 2.2206-0.44324 4.9413-0.44324 4.9413-6.0512-0.85991-12.009-2.0478-12.009-2.0478l-0.67374 4.0025c2.6905 4.1754 6.0357 8.8503 11.149 13.447 5.1133 4.6128 15.668 13.464 20.781 17.373 5.0977 3.9227 20.093 15.074 24.69 17.966 4.5973 2.8944 14.307 8.4283 16.09 9.1162"/>
   <path d="m32.408 81.783c0 2.5487-0.54518 9.0222-1.8306 12.087-1.281 3.0628-2.7658 4.9568-4.4236 5.5357 0.64271 1.281 2.3004 4.0956 1.4095 7.349 5.9262-0.17729 17.685-0.13296 26.238 3.3775 2.9387-1.2056 10.164-7.4585 14.307-12.071 2.5486-5.7387 9.5851-24.19 9.4446-24.893-0.13296-0.70477-9.1947-8.7567-9.1947-8.7567-1.7198 1.5336-5.4882 4.4103-6.0042 4.4723-0.50087 0.04437-19.468-1.4716-19.921-1.8439-0.44325-0.39892-2.8766-3.9094-5.1133-9.8981l-8.9597 5.6602s4.0513 11.321 4.0513 18.983"/>
  </g>
  <path d="m106.74 48.32c2.0345 2.2207 4.4878 9.1787 4.8473 14.558 1.1879 17.669 9.1322 41.75 17.888 53.008 5.1443 2.5974 16.481 8.8972 29.162 24.737-0.44324 2.8944-0.6427 5.8796-1.1125 6.974l-3.0628-1.015 2.4689 6.3796-2.2029 6.9115s-2.9077 2.8323-4.2374 3.9094c-1.343 1.0771-4.1133 3.2357-4.1133 3.2357l-6.3951-4.0025 1.4538 6.3796-0.44325 3.3288-4.8633-2.3935-0.44325 7.6619s-5.3632 3.4706-8.3028 5.3322c-2.9387 1.8439-10.774 6.3331-10.774 6.3331l-4.6753-5.1917-0.8599 6.724s-2.7836-0.26595-3.7986-1.0328c-1.0328-0.76681-3.2667-2.3625-3.2667-2.3625l-0.44325 4.9413-12.009-2.0478-0.67372 4.0025c-2.2207-4.6598-10.477-20.672-11.962-39.264-6.2231-9.9136-15.793-19.577-21.422-23.408-5.6137-3.8296-11.743-7.318-17.966-8.7718-6.2081-1.4538-11.321-1.5469-16.466 0.97071 1.5647-5.4887 4.4236-17.466 4.4236-17.466 4.3792-0.35459 15.496-0.70477 26.238 3.3775 3.1736-1.7065 10.836-7.7399 18.248-16.168 7.4119-8.4283 17.451-22.829 17.451-23.674 0-0.85989-12.087-16.606-12.087-16.606s3.0628-3.9094 4.0025-6.818c9.7882 0.26594 25.331 1.4538 25.331 1.4538" fill="#bf794e"/>
  <path d="m111.59 62.879c-0.3546-5.3947-2.8146-12.337-4.8473-14.557 0 0-15.543-1.1879-25.331-1.4538-0.93968 2.8944-4.0025 6.8175-4.0025 6.8175s1.0771 1.4095 2.5974 3.4085c12.947 1.1569 24.049 3.8474 31.774 8.0684-0.0886-0.76681-0.13296-1.5336-0.1773-2.2827" fill="#965e3a"/>
  <path d="m72.128 47.362c-1.343 3.4573-9.6476 16.825-15.84 21.266-5.9576-0.46984-12.979-1.1081-13.854-1.5957-0.87762-0.48314-5.1133-9.8976-5.1133-9.8976 1.7685-0.89093 3.2224-2.0035 3.2224-2.0035s6.8955-2.5487 14.385-4.2551c7.4899-1.7065 17.201-3.5194 17.201-3.5194" fill="#fff"/>
  <path d="m54.929 50.873c-7.4899 1.7021-14.385 4.2552-14.385 4.2552s-1.4538 1.1081-3.2224 2.0035c0 0 0.17729 0.39891 0.45211 0.98399 9.9761-1.2189 19.812-1.7818 29.068-1.671 2.6284-3.8917 4.6753-7.5054 5.2852-9.0847 0 0-9.7101 1.8129-17.201 3.5194" fill="#dcdddd"/>
  <path d="m77.705 53.94c1.4095 1.7021 12.056 15.887 11.79 16.356-0.26594 0.45211-10.555 17.747-20.813 26.817 1.4405-3.7055 9.1007-23.502 8.8662-23.955-0.22162-0.44325-9.1942-8.7412-9.1942-8.7412s-4.5348 4.2064-6.0046 4.4723c-1.4716 0.26596-6.0671-0.26594-6.0671-0.26594 3.1116-2.8456 7.8809-7.9593 11.337-13.151 3.4396-5.1913 4.5034-8.1154 4.5034-8.1154s4.6439-1.0017 9.4912-0.82887c-0.22162 1.9237-3.9094 7.4119-3.9094 7.4119" fill="#152139"/>
  <path d="m81.622 46.531c-4.8473-0.17729-9.4916 0.82887-9.4916 0.82887s-1.0638 2.9254-4.5189 8.1158c-0.22163 0.31027-0.45212 0.64271-0.67374 0.97071 4.5659 0.04437 8.9752 0.26594 13.213 0.656-1.1879-1.5469-2.0965-2.7348-2.4378-3.1603 0 0 3.6922-5.4887 3.9094-7.4119" fill="#10192a"/>
  <path d="m54.247 298.66c1.609 0.44324 4.9413 0.44324 6.724-0.68704 1.7996-1.0948 4.0956-4.5034 8.8658-6.3016 4.7533-1.7818 23.658-5.4412 25.018-5.9572 2.7526 0.76681 4.7383 0.56291 5.5042 0.56291 4.4236 0 9.0692-1.7685 9.0692-5.3637 0-3.7055-2.5176-8.5688-5.3632-8.5688-1.1569 0-3.7055 3.0628-8.0529 2.8146-1.4095-0.0886-3.1293-0.45211-4.0202-1.9857 1.4406-5.4417 8.2403-18.529 8.2403-18.795 0-0.26594-0.85988-1.3608-1.281-1.9547 0 0-3.0008 0-4.2995-0.51417 0 0-4.0645 1.671-7.4115 3.3288-0.87762 3.1914-6.6145 14.933-7.3805 16.215-1.8749 0.76681-10.711 3.0185-13.698 3.0185-2.9697 0-8.5063-0.67374-11.321-0.92195-2.8146-0.26595-9.8821-0.93968-11.415-0.44324-1.5336 0.51416-3.7366 2.3935-5.3632 6.5675 2.5176 0.26594 5.6447 1.3608 7.6934 6.9115-0.89092 1.4716-1.4716 3.7055-1.0328 5.3632 1.1569-1.015 2.6284-1.968 4.9253-1.968 2.3004 0 3.8296 2.7348 4.2862 4.2684 0.44323 1.5336 0.31027 4.4103 0.31027 4.4103" fill="#f9dde8"/>
  <path d="m99.547 314.32c0.31027 0.54518 0.76682 1.015 2.0035 0.93968 2.8634-0.22163 5.4258-1.5469 7.5834-3.4883 0.93968-0.85989 5.4732-6.1611 7.6934-7.3024 2.2384-1.1569 19.546-7.8654 22.173-7.9904 2.6107-0.13297 10.398 2.1098 11.368 2.0478 2.4866-0.1773 5.7697-4.8943 5.3008-8.1154-0.56291-3.7366-3.0628-7.2085-6.2701-7.2085-1.3297 0-4.9098 4.0202-10.539 4.0202-5.6137 0-8.0373-2.4866-8.9287-3.7676 5.3633-16.731 9.3822-19.796 9.5072-20.375 0.13296-0.57621-1.1391-3.0008-1.5957-4.0202l-1.937-0.56292-5.5357 4.0956-1.0638-4.0956-4.5499 2.9387c0.26596 0.44325 0.67374 1.7996 0.26596 3.1603-0.44325 1.3608-4.5034 14.479-5.3637 15.668-0.84215 1.1879-7.7554 6.3956-11.571 7.7404-1.4538 0.51415-10.133 2.1276-12.275 2.1276-2.1276 0-7.068-1.0948-8.5063-0.92195-2.5176 0.31027-7.0055 3.5016-7.5839 5.5352-0.3546 1.1879 0 3.1426 0.3546 3.9094 1.5336-0.76681 4.0202-1.1391 4.9883-0.35459 0.95298 0.76681 4.7219 4.7223 4.7219 4.7223-0.57621 0.82887-0.39892 2.5487 0.44325 3.5637 1.4716-1.5336 3.0008-2.9254 4.4723-2.9254 1.4716 0 3.8917 1.6577 5.1133 3.2534 1.2189 1.5957 2.8146 4.9098 2.3004 5.8792-0.51417 0.95298-2.5309 1.5469-2.5309 1.5469" fill="#f9dde8"/>
  <g fill="#fff">
   <path d="m44.71 289.55c-2.9875 0.59395-10.992 3.7543-14.136 6.1292 0-5.4102 3.8917-13.885 6.724-15.668 1.7198-1.0771 6.6611 0.39892 8.2559 6.8175z"/>
   <path d="m49.394 289.97c-3.8296 0-7.3494 3.1116-9.0222 14.902 3.6568-2.1276 13.792-5.6137 13.87-6.2236 0.48314-3.3908-1.7508-8.6783-4.8473-8.6783"/>
   <path d="m108.08 275.79c3.4573 3.1603 5.7072 8.8033 4.7223 9.5852-0.6427 0.50087-2.7038-0.76681-5.2383-1.0328 1.1258-0.92195 1.8616-1.8749 1.8616-2.9875 0-2.8634-1.343-5.5667-1.343-5.5667"/>
   <path d="m88.987 308.11c-3.1426 0.3546-10.648 2.5486-14.308 4.1754 0-4.0956 4.4236-12.775 5.4572-13.291 4.4409-2.2206 7.0365 0.22163 9.4446 3.8296-0.3546 0.93968 0.62498 3.7543 0.62498 3.7543z"/>
   <path d="m94.133 303.81c-2.1586 0.3546-4.4236 2.4689-6.3331 6.0826-0.76681 1.4538-2.5664 5.2852-2.9875 8.5222 3.1603-1.3608 17.372-3.5814 17.372-6.1296 0-3.6124-4.8477-9.0382-8.0529-8.4753"/>
   <path d="m154.47 286.65c5.4727 2.1098 8.8972 7.8654 8.6783 10.977-3.2224-1.3608-7.568-2.3004-8.7567-2.3004 1.015-1.4051 1.5336-2.7526 1.5336-3.8296 0-2.5664-1.4538-4.8473-1.4538-4.8473"/>
  </g>
  <path d="m220.37 122.99s2.8146-8.7878 3.1914-10.695c-4.3926 0.65599-10.883 3.5947-14.777 6.4421 0.0886-1.3785 0-2.9875 0.0444-4.6908-16.731 9.9136-32.759 31.336-36.996 47.176l4.5973 9.7101c3.2357-5.7072 12.494-20.202 19.499-27.927 12.259-13.541 24.44-20.015 24.44-20.015" fill="#e85377"/>
  <path d="m238.08 132.7c3.9094-4.7689 6.8175-9.1942 9.2882-14.089-1.5336 0.22164-5.7702 0.70477-8.9912 1.3298 0 0 1.1258-2.0788 1.9059-3.9892-18.248 1.8306-43.876 19.593-64.235 55.667l6.0046 11.227s7.318-12.854 12.259-17.873c4.9413-5.0193 12.181-12.853 18.983-17.372 6.8175-4.5189 24.784-14.901 24.784-14.901" fill="#ffe794"/>
  <path d="m254.94 153.65c5.9576-6.4736 13.792-18.732 14.823-23.158-3.0628 0-7.6774 0.84216-10.398 1.8749 0.51417-1.7021 2.8944-5.4572 4.5969-8.0059-27.333 3.8917-69.771 30.929-82.077 59.435 2.0345 4.1754 5.1288 10.758 5.1288 10.758s7.0524-10.508 18.717-18.342c11.665-7.8339 21.625-13.792 30.226-16.778 8.6003-2.9697 18.983-5.7857 18.983-5.7857" fill="#e85377"/>
  <path d="m255.11 184.13c14.823-9.5382 22.204-19.593 24.503-28.177-2.9254 0.3546-8.2563 1.4716-12.916 2.6107 0.90865-1.3297 3.7853-4.2551 5.7852-6.7081-27.63 0.1773-67.706 18.201-85.47 42.688 1.4228 2.265 3.2224 6.0202 3.1293 7.4744-0.0886 1.4405 0.51415 9.5226 0.51415 9.5226 5.0978-3.4883 17.544-11.571 28.521-15.996 10.977-4.4236 18.733-7.4899 24.518-8.6942 5.8012-1.1879 11.415-2.7215 11.415-2.7215" fill="#ffe794"/>
  <path d="m191.68 226.71c14.136 2.4999 85.752-15.652 96.76-35.542-3.8606-0.73578-10.945-1.7996-17.247-0.35459 0.67373-1.64 4.1886-5.9107 6.1921-8.7878-20.828-0.57622-62.297 10.367-86.127 29.803z" fill="#e85377"/>
  <path d="m22.125 78.078s-2.6905 3.1914-3.3775 7.146c-0.70475 3.9715-0.64271 6.3331-0.64271 6.3331 2.8767-1.4716 7.9748-4.4103 9.3197-6.0046 1.343-1.5957 2.296-3.8296 2.296-3.8296z" fill="#ed8599"/>
  <g fill="#d8becb">
   <path d="m18.932 76.098s-4.2197 6.5831-5.7542 8.6783c-1.5336 2.1098-3.8296 6.0046-4.2684 6.7085-0.45211 0.70475 0.04437 2.3004 2.9387 1.8616 2.8634-0.45211 4.4719-1.0328 6.2546-1.7996-0.17729-2.8013 0.3546-8.6162 4.0202-13.464z"/>
   <path d="m6.5413 68.882 12.384 7.224-4.6598 6.8175-14.495-12.713z"/>
   <path d="m19.379 90.559c2.1409 1.4849 9.7106 0.74908 11.759-0.3546-0.56292 3.6922-2.3315 9.6166-6.9115 9.6166-4.5658 0-10.82-2.1586-14.542-6.5361 5.7701 0.26594 9.6946-2.7038 9.6946-2.7038"/>
  </g>
  <path d="m19.187 83.954c2.1719-1.4716 6.8335-1.4051 8.5533 0.64271l1.9857-2.8767-7.5994-3.6435c-1.281 1.343-2.9387 5.8792-2.9387 5.8792" fill="#ce7486"/>
  <g fill="#c94768">
   <path d="m27.596 60.922c4.0823-3.0628 8.8813-6.6301 11.586-7.7559 8.9912-3.7055 27.912-8.6473 37.294-8.9287 12.181-0.3546 38.31 1.3608 47.004 6.0046 7.6619 4.0823 22.094 18.889 22.986 20.687 0.89092 1.7818 14.307 30.148 14.307 30.148l-2.3004-2.4379-13.932-25.8-2.4246-2.6728s3.8296 8.5533 4.9878 11.868c1.1436 3.3288 3.0185 9.8821 3.0185 9.8821s-10.726-12.384-16.778-18.482c-6.0356-6.0826-14.214-13.229-16.512-14.886-2.3004-1.6755-6.6456-3.5814-6.6456-3.5814l-2.3758-6.2232c-7.5839-0.93967-20.265-2.2029-26.191-2.2029-5.9107 0-15.496 2.0345-24.175 4.0823-8.6938 2.0478-15.292 3.6568-16.903 4.5189-1.6267 0.84217-12.181 7.6619-12.181 7.6619z"/>
   <path d="m24.788 57.618c3.6568-2.7836 12.509-16.591 14.026-17.529 1.5159-0.93968 13.01-2.6905 19.78-4.4719 6.771-1.7996 21.97-7.099 24.581-7.1615 2.6284-0.04437 37.872 6.8955 42.985 10.851 5.0973 3.9715 12.634 15.277 12.634 15.277l-2.9254-2.1099s-9.2727-10.414-10.93-11.055c-1.6577-0.64271-18.905-6.0042-24.909-7.0835-6.0042-1.0948-15.574-3.1914-16.856-3.0628-1.281 0.13296-20.5 6.3801-24.268 7.2085-3.7676 0.82887-19.03 3.8296-19.03 3.8296s-4.9723 6.771-7.021 9.2727c-2.0478 2.4866-6.5361 7.2085-6.5361 7.2085z"/>
   <path d="m33.555 28.139c-1.1081 1.015 0.51417 4.1754 6.8175 2.3004 6.3016-1.8749 10.555-3.9094 13.448-5.3632 2.8944-1.4538 9.7101-6.552 12.353-6.8175 2.6284-0.26594 19.671 1.7996 22.892 1.7996 3.2357 0 21.203 0.08859 23.424 0.84659 2.2207 0.76681 15.668 13.619 15.668 13.619l4.6753 8.2718-1.7818-0.76681s-3.5814-5.1128-7.4119-8.5998c-3.8296-3.5016-11.149-9.8826-11.743-10.055-0.59394-0.1773-21.375-0.84217-23.158-0.93968-1.7996-0.08859-20.609-1.7065-21.625-1.3608-1.0328 0.3546-13.291 7.068-14.479 7.4119-1.1879 0.3546-15.762 5.8792-16.262 6.2076-0.51417 0.3546-4.3482 8.3498-6.1296 11.164-1.7996 2.8013-6.1296 9.7886-6.1296 9.7886s-0.68703-7.6619-0.3546-9.7101c0.3546-2.0478 6.974-16.012 6.974-16.012z"/>
   <path d="m34.578 22.519s9.6166-4.0025 21.625-6.0512l-10.133 6.1292s-9.6162 3.6745-11.07 4.5973c-1.4361 0.93968-4.2552 2.7348-4.2552 2.7348z"/>
   <path d="m16.782 52.833c-0.59394-3.4883-1.8749-12.603-1.3608-13.886l6.3796 18.482-1.1879-0.3546z"/>
   <path d="m52.203-15.159-1.6577 2.1719s-28.99 54.275-29.256 56.964c-0.26596 2.6728 1.6577 13.917 1.6577 13.917l1.281 0.51417s-0.81114-10.383-0.46984-12.478c0.3546-2.0788 10.555-22.141 12.353-26.473 1.7818-4.3482 10.477-21.078 11.743-23.893 1.281-2.8146 3.9582-8.3029 3.9582-8.3029z"/>
  </g>
  <g fill="#ddd9ac">
   <path d="m35.599 209.51c5.3318 5.6447 58.794 13.275 69.99 1.7818 8.4908 6.7081 32.133 26.926 44.158 33.509-1.9547 4.0202-6.3481 10.82-7.052 11.258-0.70476 0.45212-2.4866 1.4406-2.4866 1.4406l0.3546 2.2029-4.6753-1.1879-5.5352 4.0823-1.0638-4.0823-5.1133 3.3642-0.35459-2.0478-4.7223 2.0965 1.4538-3.6568-2.9077 0.4521 1.968-2.8944c-2.6905-1.2366-9.7571-6.5361-11.712-9.0222l-1.8306-0.64271-3.6257 5.0663 1.4538 2.9875-3.7055-1.5957-5.5822-0.70476-7.3964 3.3155-0.1773-2.5974-5.4102 1.9547 0.71806-2.8013c-2.8456-1.343-17.826-11.634-23.877-21.766-14.135-8.8502-22.908-20.516-22.908-20.516"/>
   <path d="m95.204 200.31c2.2207 3.0628 65.565 47.176 69.49 48.364 3.9094 1.1879 11.055 1.5336 12.931 1.1879l4.1754 3.5016c-3.1426 0.59395-11.837 1.015-18.138-0.76681-6.3016-1.7996-24.002-14.307-31.68-19.937-7.6619-5.6137-24.425-19.499-27.833-22.642-3.4086-3.1603-8.9442-9.7106-8.9442-9.7106"/>
   <path d="m142.21 212.57c2.9875 3.6568 41.219 39.842 43.689 40.28 2.4556 0.44325 5.3632-1.281 5.6132-1.7065 0.26595-0.44324 0.93969-2.8944 0.1773-4.6908 0 0 2.3758 5.1133 2.0345 5.8792-0.31027 0.76681-5.5197 4.0025-6.8955 3.7543-1.3608-0.26594-4.3305-1.7996-9.9606-6.8175-5.6137-5.0193-16.262-15.746-20.265-20.015-4.0025-4.2551-8.0843-8.7722-9.8666-10.805-1.7996-2.0478-4.5193-5.8796-4.5193-5.8796"/>
   <path d="m187.42 212.23c1.4538 4.7693 2.7215 24.956 2.1276 27.083l1.9547 5.1913c0.51416-2.5664 1.1081-8.0059 0-14.386-1.0948-6.3951-4.0823-17.888-4.0823-17.888"/>
   <path d="m187.59 195.63c0.59394 2.1276 0.59394 14.479 0.93968 19.749l2.3758 7.7559s-0.26595-19.749-0.76682-21.125c-0.50085-1.3608-2.5486-6.38-2.5486-6.38"/>
  </g>
  <g fill="#d8becb">
   <path d="m84.262 262.26c4.7223-1.4051 9.8356 1.7818 10.602 3.7055l5.3632-11.587-0.51415-2.0345-2.9697-0.0444-2.0965-0.39892-7.396 3.3288z"/>
   <path d="m124.75 261.45s0.76681 1.281 0.51415 2.2207c-0.26595 0.92194-1.7021 5.6917-1.7021 5.6917 2.1276-0.76681 8.5063 0.85989 9.4442 4.9413 1.9547-4.0823 4.9413-9.6632 6.427-11.211l-1.5957-4.0202-1.937-0.56291-5.5357 4.0956-1.0638-4.0956z"/>
   <path d="m101.42 308.96c1.7021-0.84217 10.383-6.6456 12.431-7.4899 2.0478-0.8599 23.252-8.1779 25.034-8.1779 1.7818 0 16.012 0 16.856-0.1773-1.3608 2.2207-2.6728 5.3633-5.3788 5.4102-2.7038 0.0444-9.7261-2.2517-11.368-2.0478-1.64 0.22163-21.063 7.1615-22.157 7.9904-1.1081 0.82887-7.9278 7.6304-8.8658 8.4123-0.93968 0.74908-4.1266 2.5486-5.2697 2.5486-1.1569 0-3.1603-1.1081-3.1603-1.1081s2.4245-1.0638 2.5354-1.5469c0.0886-0.50087-0.656-3.8163-0.656-3.8163"/>
   <path d="m87.583 300.51c2.4245-1.5336 8.5533-3.5504 8.5533-3.5504-2.3004 1.0948-5.9576 3.2357-6.552 5.8637-1.9547-2.7215-2.0035-2.3137-2.0035-2.3137"/>
   <path d="m53.928 294.25c3.8917-1.8927 9.8511-4.5344 12.838-5.4727 2.9697-0.93967 23.752-6.0516 25.878-6.3796 2.1276-0.35459 13.119-1.4538 16.262-0.93968 0 1.5336-0.79784 4.0335-4.6753 4.4236-3.8784 0.35459-7.4115 0.0886-9.3662-0.17731 0 0-22.486 4.8473-24.018 5.4572-1.5336 0.59394-5.4417 2.6284-6.5516 3.7366-1.1081 1.1081-3.0628 3.4883-5.0193 3.7543-1.9724 0.26596-5.0352 0-5.0352 0s0.08859-1.1879 0.08859-2.1276c0-0.93967-0.39891-2.2827-0.39891-2.2827"/>
   <path d="m44.796 283.84c6.4425-2.6107 19.155-3.2357 29.632-4.8473l-15.918 5.0973c-2.3004-0.50087-4.9413-0.84217-6.9895-0.59395-2.0478 0.26595-5.4417 2.4689-5.9576 3.3288-0.17729-1.4538-0.76681-2.9875-0.76681-2.9875"/>
  </g>
  <g fill="#dcdddd">
   <path d="m155.74 293.12c4.1887 1.1879 6.6611 2.7836 7.4119 4.5193-2.8944-0.97071-8.7722-2.3004-8.7722-2.3004z"/>
   <path d="m101.42 308.96c-2.4068 1.312-15.621 7.7714-16.45 8.7878 0 0 5.3633-0.82886 7.7869-1.5336 2.4245-0.70475 8.7408-2.4866 9.3196-3.4396 0.57622-0.97071-0.65599-3.8164-0.65599-3.8164"/>
   <path d="m87.583 300.51c-1.906 0.95297-12.322 9.9446-12.9 11.774 3.3155-1.4228 10.914-3.7853 14.307-4.1754l1.2056-1.5336c-0.89092-1.5336-0.61168-3.7543-0.61168-3.7543z"/>
   <path d="m109.87 281.61c0.39892 0.0444 2.9387 3.7676 2.9387 3.7676l-4.7223-1.2189z"/>
   <path d="m53.353 294.57c-1.7198 0.76681-12.509 8.1154-12.713 9.8981l13.604-5.8167c0.31027-1.6577-0.89093-4.0823-0.89093-4.0823"/>
   <path d="m44.285 284.16c-4.8473 2.0478-12.525 8.6158-13.479 10.914 4.2862-1.968 9.2257-4.4878 13.901-5.5357 0.46984-1.2987 0.85989-2.7215 0.85989-2.7215 0.04437-1.7686-1.281-2.6595-1.281-2.6595"/>
  </g>
  <g fill="#c94768">
   <path d="m191.53 224.21c26.973-1.0771 76.854-15.996 96.197-33.103 0 1.5336-0.59395 3.2357-3.5814 5.4572-2.9697 2.2029-12.603 10.977-42.563 20.688-29.976 9.7101-48.286 9.7101-49.897 9.6166z"/>
   <path d="m268.99 130.4c-0.51417 1.015-15.324 21.282-18.482 24.347l4.5189-0.93968c4.4236-5.2697 7.6619-10.211 10.305-13.964 2.6417-3.7366 4.3482-8.6003 4.3482-8.6003z"/>
   <path d="m215.94 124.7c2.1276-2.7215 6.9895-12.603 6.9895-12.603s-0.26596 3.0672-0.68704 4.9409c-0.44324 1.8749-1.702 5.2852-1.702 5.2852z"/>
  </g>
  <path d="m279.1 155.93c-2.0478 3.3155-21.141 22.924-34.291 30.586l11.618-2.5486c6.2546-4.8473 11.759-9.4602 16.09-14.683 4.3482-5.2383 7.2865-13.291 7.2865-13.291z" fill="#dcca83"/>
  <path d="m246.63 118.69c-0.57621 0.82886-13.948 15.653-16.246 17.748l8.7408-4.1443c2.4866-4.2862 4.9883-7.9279 5.7542-9.2572 0.76682-1.343 2.1719-3.6435 2.1719-3.6435z" fill="#dcca83"/>
  <path d="m52.905 51.64c-1.1125 6.9425-8.9283 15.918-10.789 15.324-1.8616-0.57621-2.3625-8.3343-2.4246-11.243 2.5487-1.015 10.211-3.5637 13.213-4.0823" fill="#0f141b"/>
  <path d="m47.925 52.981c-0.82887 4.5973-3.1293 8.0533-4.2241 7.7874-1.0771-0.26596-0.56293-5.3008 0.04437-6.6301 1.6755-0.57621 4.1576-1.1569 4.1576-1.1569" fill="#fff"/>
  <path d="m43.774 54.13c-0.31028 0.62498-0.56293 2.0168-0.656 3.3775 1.1879-0.08859 2.3625-0.22162 3.5504-0.31027 0.51417-1.2056 0.9707-2.6417 1.2677-4.2197 0 0-2.4999 0.57621-4.1576 1.1569" fill="#dcdddd"/>
  <g fill="#0f141b">
   <path d="m38.141 14.878c14.855-4.2552 26.254-5.9576 37.247-5.3167 0.46984 0.015961-7.7093 1.7685-8.1783 1.7375-5.6447-0.46984-19.155 2.5043-29.319 5.4572-0.08859 0.03148 0-1.7996 0.26596-1.8749"/>
   <path d="m19.379 57.005c-4.7223-5.1133-11.243-13.667-11.243-16.606 0-2.4866 12.322-15.074 18.326-20.172 0.3546-0.31027-1.5159 3.7366-1.8926 4.0956-7.1305 6.5675-14.104 14.745-14.323 16.106 0 1.8616 6.0356 10.633 11.18 16.513 0.31027 0.3546-1.8749 0.26594-2.0478 0.04437"/>
   <path d="m23.449 57.901c-0.17729-1.9724-1.0948-8.9287-0.56292-12.447 0.50087-3.2047 18.701-40.061 27.974-58.372-11.227 14.198-33.087 49.209-34.057 51.617 0.13296 1.1258 5.5352 16.637 6.2076 18.686 0.17729 0.45211-1.578 0.31027-1.7818-0.08859-1.4095-3.2047-6.5206-17.607-6.5206-18.733 0-3.1603 27.88-43.783 34.714-52.446 5.4727-6.927 6.7236-5.6132 2.8944 1.9547-9.3821 18.529-26.926 55.072-27.349 57.84-0.46984 3.0185-0.04437 9.1472 0.26596 12.306 0.04437 0.46984-1.7508-0.08859-1.7686-0.31027"/>
   <path d="m158.19 99.553c-5.8792-10.992-13.995-25.926-14.636-26.786-1.1436-1.5159-18.279-17.998-20.75-19.343-8.3028-4.5344-36.762-6.3951-46.269-5.7697-6.3171 0.39892-32.477 6.5361-36.402 8.8192-1.4405 0.84217-11.399 6.9736-11.399 6.9736-0.39892 0.26594-1.312-1.2189-0.90865-1.4849 0 0 9.9761-6.1451 11.43-6.9895 4.1576-2.4245 30.554-8.6313 37.153-9.0537 9.6791-0.62498 38.669 1.312 47.223 5.9732 2.9564 1.609 20.218 18.373 21.313 19.828 0.76681 1.015 9.0692 16.34 14.948 27.348-4.6594-12.603-11.227-29.678-12.634-31.898-2.0168-3.1914-18.967-22.407-22.392-24.69-3.0983-2.0655-36.23-10.242-41.406-10.242h-0.13296c-1.1258 0.04437-18.733 5.6292-23.799 6.943-5.4572 1.4051-18.686 3.6568-19.108 3.8784-1.0328 0.51417-7.8184 11.586-13.651 16.184-0.17729 0.13296-1.9547-0.68703-1.5647-0.97071 5.1602-3.7543 13.025-16.184 14.448-16.888 0.62497-0.31027 14.042-2.4999 19.436-3.8917 5.0348-1.2987 22.814-7.0835 24.174-7.146 4.4564-0.1773 38.607 7.9124 42.625 10.586 3.6568 2.4378 20.719 21.954 22.845 25.316 1.5159 2.3935 8.0374 19.374 12.682 31.945 3.1249 8.4753 1.343 9.914-3.2224 1.3608"/>
   <path d="m147.49 67.095c-0.87762-1.9237-15.496-22.001-17.091-24.721-3.3465-5.6917-17.435-17.341-19.092-18.232-1.0771-0.56292-21.907-0.79783-23.33-0.92195 0 0-18.764-1.6577-20.672-1.2189-1.0638 0.26596-13.479 6.802-15.214 7.4589-0.82886 0.31027-14.448 5.3008-15.246 5.9887-0.39891 0.39891-9.7731 18.42-12.009 20.859-0.31028 0.3546-0.78011-1.7508-0.51417-2.1276 2.1276-2.8766 10.602-19.655 11.149-20.125 0.97071-0.81114 15.167-5.8947 16.012-6.2231 1.6267-0.61168 14.136-7.4434 15.418-7.7404 1.9237-0.44325 21.235 1.3918 21.235 1.3918 1.343 0.13296 22.72 0.22162 24.018 0.90865 2.1586 1.1746 16.309 13.276 19.734 19.108 1.5646 2.6595 15.887 23.048 16.841 25.128 0.22162 0.44325-1.0948 0.78011-1.2366 0.46984"/>
   <path d="m134.12 47.479c-1.4538-6.7861-13.714-23.674-15.496-25.237-1.6755-1.4716-24.159-12.525-27.677-12.963-3.3288-0.39892-20.766 2.5974-25.347 3.6257-2.5797 0.56292-17.716 9.7571-18.733 10.226-1.5159 0.71805-10.946 4.5348-11.727 4.9258-1.5647 0.78011-3.7986 3.0318-4.3793 4.2197-0.22162 0.44325-0.61166-2.2517 0.13296-3.0318 1.0771-1.1258 2.3935-2.2029 3.4573-2.7348 0.84659-0.44325 10.289-4.2552 11.774-4.9413 0.92195-0.44325 16.325-10.164 19.186-10.805 4.0956-0.90865 22.391-4.1443 26.222-3.6568 3.8474 0.48314 26.723 11.79 28.521 13.37 3.3465 2.9254 14.651 20.328 16.372 28.349 0.0886 0.46984-2.2206-0.93968-2.3137-1.343"/>
   <path d="m146.88 89.715c-11.696-14.323-28.13-30.101-36.12-33.478-0.26596-0.08859-0.87764-2.4999-0.44325-2.3625 8.1623 2.7348 25.847 19.921 38.122 35.026-1.9724-6.3641-6.6145-16.763-8.1938-20.015-0.22163-0.44325 3.5194 2.6107 3.8917 3.5016 1.7685 4.0646 4.3615 10.805 6.0046 16.137 1.968 6.3951 1.1436 6.6141-3.2844 1.1879"/>
   <path d="m52.713 110.67c-7.6774-3.0628-18.326-3.7232-25.159-2.7348-0.48314 0.0444 0.22163-1.7818 0.45211-1.8129 7.2865-0.89092 18.248-0.0886 26.004 3.2046 6.9895-2.9697 29.616-29.35 34.494-39.123-2.1409-3.4573-8.0529-11.414-11.336-15.418-0.68703-0.82887-0.61168-1.1746 0.04437-2.1276 1.5646-2.2517 2.6417-4.1887 3.1603-5.6602 0.04437-0.13296 1.9237-0.26594 1.7818 0.1773-0.53188 1.7198-1.7375 3.9227-3.5814 6.5831 3.1426 3.8474 8.6003 11.164 11.024 14.917 0.68704 1.0771 0.78012 1.7375 0.22163 2.7658-5.1288 9.5852-26.629 35.292-34.776 39.31-0.98399 0.48314-1.4228 0.26596-2.3447-0.0886"/>
   <path d="m65.551 100.17c2.6417-5.0348 9.0852-19.561 10.977-27.036-0.44325-0.44323-6.4111-6.1766-8.1154-7.6304-2.9564 2.7836-5.1288 4.2551-6.4266 4.3615-0.13296 0.01552-18.998-1.015-20.437-2.2517-1.1879-1.015-4.6283-8.1783-4.9883-9.8511-0.13296-0.46982 1.9547-1.671 2.0655-1.2056 0.3546 1.7198 3.2047 8.7093 4.0202 9.6946 1.6888 0.64271 17.341 2.0345 19.202 1.8927 0.62497-0.04437 2.3137-1.0638 5.1292-3.6878 1.2367-1.1391 1.5957-1.0948 2.6905-0.17729 1.3918 1.1879 5.6607 5.2693 7.5369 7.052 1.0461 1.015 1.2367 1.3297 0.95298 2.4556-1.609 6.2236-5.6447 16.153-8.5688 22.501-0.78011 1.7375-4.2551 4.2862-4.0335 3.8607"/>
   <path d="m55.784 67.92c5.6602-4.0645 13.307-16.075 15.246-20.203 0.08859-0.26594 2.5487-0.53188 2.3758-0.08859-1.281 3.3155-9.4132 15.793-15.637 20.938-0.31027 0.26596-2.3758-0.3546-1.9857-0.65599"/>
   <path d="m128.23 115.67c-8.5223-11.524-16.653-34.87-17.841-52.727-0.3546-5.3632-2.4866-12.071-4.2862-14.042-0.31027-0.3546 2.4556-0.39892 2.7525 0.04437 2.0035 3.1426 3.2977 9.1472 3.6124 13.87 1.1879 17.951 12.29 45.784 21.359 55.37 0.31028 0.35459-5.4102-2.2694-5.5977-2.5176"/>
   <path d="m108.59 247.95c-3.5637-0.5319-11.321-3.2357-13.135-3.9094-0.87764-0.31026-5.3163-0.31026-8.0839-1.0017-41.015-10.227-72.977-46.034-72.977-81.561 0-20.171 12.541-49.037 12.541-56.839 0-2.2694-1.1125-3.8917-1.8129-4.4723-0.35459-0.31027 1.2987-1.578 1.64-1.25 0.95298 0.95298 1.906 3.0983 1.906 5.7232 0 7.1615-11.868 40.874-11.868 56.839 0 33.431 33.181 70.662 70.975 79.872 2.4246 0.59394 7.146 0.64271 8.2873 1.0638 1.7685 0.65601 8.0218 2.7526 11.446 3.2667 0.46983 0.0886 1.1258 2.2694 1.0771 2.2694"/>
   <path d="m86.287 253.95c-1.3741 0.67372-5.1288 2.0345-5.5507 1.5469-0.45211-0.50087 0.39892-2.4378 0.79783-3.2667-7.5994-3.3952-20.844-16.294-25.41-23.909-0.26594-0.39892 3.9892 1.7686 4.4236 2.4246 4.8163 6.9425 14.417 16.294 21 19.577 0.51417 0.26594 1.906 0.92195 1.9857 1.1569 0.08859 0.22163-0.46984 1.5646-0.70475 2.0655 1.6267-0.62497 4.5973-2.0478 4.8788-1.8616 0.31027 0.17729 0.31027 1.7996 0.31027 2.2827 1.9857-0.98401 4.8628-2.234 6.0671-2.7215 0.50087-0.17731 0.79784-0.17731 1.3608-0.0315 0.78011 0.22162 2.4999 0.39892 3.5504 0.26594 0.46984-0.0444 0.95298-0.0444 1.3297 0.17729 0.39892 0.22163 2.0035 1.5336 2.3315 1.7065-0.22162-0.44325-0.56292-1.015-0.9707-1.609-0.44325-0.64271-0.35459-0.84217 0.22162-1.4538 0.89091-0.93968 2.5176-2.8634 3.2844-3.8784 0.17729-0.22162 2.6107-0.031 2.3625 0.39892-0.46984 0.76681-3.1736 3.4085-4.3615 4.6598 0.62497 1.0948 1.6267 3.2224 1.2677 3.5504-0.35459 0.3546-3.1914-0.82887-4.9568-1.8439-1.3741 0.22162-3.5947 0-4.6913-0.31028-1.0638 0.39892-7.8964 3.5637-8.2248 3.4263-0.31027-0.17731-0.31027-2.1586-0.31027-2.3137"/>
   <path d="m130.11 263.64c-0.46984-0.13297-1.25-2.4999-1.4228-3.9272-1.3608 1.015-5.0973 3.6302-5.5977 3.3775-0.31027-0.17729 0.0444-2.0168 0.13296-2.4068-1.015 0.57621-4.6283 2.4378-4.8628 2.1719-0.26596-0.26594 0.64269-2.5664 1.2056-3.6612-0.46984 0.17729-2.4068 0.54962-2.6107 0.17729-0.22163-0.3546 1.4538-2.8634 1.64-3.1426-9.2882-4.7223-16.685-13.588-19.233-21.875-0.95296-3.1603 0.39892-3.5326 1.3608-0.44325 1.9857 6.3016 9.9291 15.996 17.919 20.375 0.53188 0.26594 2.0168 1.1081 2.0788 1.3608 0.0886 0.26594-1.7685 2.2029-1.9414 2.4866 0.51416-0.1773 2.9874-1.1569 3.1914-0.87762 0.22162 0.26595-1.5336 3.2224-1.9237 3.9715 0.89092-0.45211 4.2197-2.5664 4.4878-2.4068 0.26594 0.17731 0.13296 1.6578 0.0886 1.9237 1.8439-1.3608 4.9568-3.6257 5.2538-3.4573 0.31029 0.1773 0.57623 2.7215 0.78013 3.9094 1.7996-1.3741 4.8943-3.4706 5.0038-3.4883 0.0886-0.0315 2.6417 0.50087 3.7986 0.81114 0 0-0.39892-1.25-0.31027-1.4849 0.0886-0.22161 2.3935-1.0771 3.2046-2.0035 0.93968-1.046 5.4727-8.4753 6.2076-11.024 0.13297-0.46984 2.234 1.1258 2.1586 1.343-1.1879 3.1736-6.0357 9.6791-7.052 10.836-0.82885 0.92195-1.7818 1.4228-2.5664 1.7198 0 0 0.73579 2.2339 0.51417 2.4866-0.22163 0.26595-3.9582-0.61167-5.5667-0.92195-1.015 0.68703-5.5508 4.2552-5.9417 4.1576"/>
   <path d="m78.174 273.15c2.0788-4.0202 8.3343-17.638 8.5848-20.093 0.04437-0.48313 1.5159 1.1879 1.2677 1.9547-1.5957 4.6598-6.6921 15.027-8.5843 18.67-1.5469 3.0318-2.7658 2.3935-1.2677-0.5319"/>
   <path d="m37.258 279.35c1.4228-3.6745 3.5327-6.833 5.8322-7.521 3.7543-1.1081 20.906 1.7685 23.08 1.7685 2.8323 0 12.025-2.4999 13.87-3.2534 0.45211-0.1773-0.08859 1.5957-0.51417 1.7818-1.8439 0.74907-10.195 3.2046-13.354 3.2046-2.2694 0-21.172-1.8306-22.47-1.3918-1.312 0.44325-3.1914 2.1276-4.6283 5.5508-0.04437 0.1773-1.9857 0.31026-1.8129-0.13297"/>
   <path d="m43.816 292.31c-0.93968-4.9098 1.8927-8.6468 7.6464-9.5851 2.5664-0.44325 6.3486 0.35459 6.9895 0.31026 1.1879-0.0444 10.946-2.9254 15.371-4.2862 3.4396-1.0461 3.9094 0.0444 0.39892 1.2987-3.9892 1.4228-14.089 4.6443-15.652 4.7223-0.76681 0.0444-4.4719-0.73578-6.8016-0.35459-4.8478 0.79784-6.5365 3.5814-6.0046 6.7395 0.08859 0.46984-1.8439 1.5469-1.9237 1.1258"/>
   <path d="m29.871 293.54c0.76681-5.3947 4.0956-12.478 6.974-14.276 1.937-1.2056 7.5839 0.17731 9.5231 6.2391 0.08859 0.31026-1.5336 1.9857-1.64 1.5336-1.3608-5.4258-5.5042-6.7861-6.7395-6.0042-2.3004 1.4228-5.7702 7.8339-6.4266 12.947 3.6257-2.1719 9.7571-4.5504 12.65-5.2227 0.13296-0.0155 0.1773 1.7508-0.08859 1.8129-2.9077 0.76682-8.3184 2.9254-11.555 4.8318-2.6417 1.5646-3.1116 1.1391-2.6905-1.8616"/>
   <path d="m53.606 298.1m-4.2064-7.2555c-1.4538 0-5.7702 0-7.9124 12.463 2.0035-0.97071 11.227-4.7068 11.931-5.0977 0.31027-3.7986-1.8749-7.365-4.0202-7.365m-9.5541 11.821c1.6267-9.2412 4.6753-13.557 9.5541-13.557 2.7348 0 6.4736 4.3172 5.7072 9.6791-0.13296 0.71805-10.664 5.0348-12.619 5.9732-2.8634 1.3608-3.1603 0.78011-2.6417-2.0966"/>
   <path d="m56.663 299.79c-1.015 0-1.9547-0.0886-2.6417-0.31027-0.45211-0.13297-0.73578-0.59395-0.61168-1.0638 0.13296-0.4521 0.59394-0.73578 1.0638-0.61168 1.4849 0.39893 4.5193 0.3546 6.0361-0.57621 0.50087-0.31027 1.0948-0.8599 1.7818-1.5159 1.609-1.5026 3.7986-3.5814 7.224-4.8628 3.1736-1.1879 22.845-5.4258 24.034-5.6917 0.51417-0.13297 4.1576 1.0017 3.7055 1.1568-0.51415 0.22162-24.081 5.0193-27.114 6.1607-3.1116 1.1569-5.0822 3.0185-6.6615 4.5034-0.74908 0.71806-1.4095 1.3297-2.0478 1.7198-1.2499 0.7801-3.1116 1.0771-4.7693 1.0771"/>
   <path d="m99.392 254.59h0.01596zm-8.0059 18.045c1.1081-4.2064 7.7244-17.873 7.8968-18.248-0.1773-0.31027-1.0328-1.4716-1.0328-1.4716-0.26596-0.35459 1.671-0.64271 1.671-0.64271 0.92195 1.2677 1.3608 2.2694 1.3297 2.7038-0.0886 0.89092-7.3964 14.089-8.4753 18.123-0.08859 0.39892-1.5159 0-1.3918-0.46984"/>
   <path d="m93.491 285.82c-2.8456-0.81112-2.4999-1.8129 0.3546-1.1081 9.5227 2.3448 14.714-0.31028 14.714-3.7986 0-3.5947-2.3935-7.6934-4.4878-7.6934-0.1773 0.016-3.9582 2.9564-8.0998 2.7969-1.4849-0.0444-3.7232-1.2056-4.9568-2.7038-1.5647-1.8616-0.51417-2.6417 1.0771-0.90865 1.0638 1.1569 2.9564 1.8616 3.9892 1.8749 3.6124 0.0886 6.3641-2.8634 7.9904-2.9875 3.5947-0.31026 6.2391 5.8171 6.2391 9.6166 0 5.8796-8.4438 7.3024-16.809 4.9098"/>
   <path d="m107.25 285.22c-0.48314-0.0444 1.0328-1.6577 1.3297-1.5957 0.90865 0.17729 3.2844 0.92195 3.5947 0.97069 0-1.1081-1.3741-4.5033-3.6568-7.099-0.31027-0.3546-0.22161-2.6728 0.17731-2.3448 4.2551 3.8917 5.5822 10.336 4.6753 10.898-0.62498 0.39892-5.0038-0.71805-6.0986-0.82886"/>
   <path d="m79.111 298.91c-0.64269-1.1879-1.0017-3.1116-0.59394-4.5189 0.78011-2.7526 5.6292-6.0201 8.6783-6.38 0.87762-0.0886 7.6624 1.2677 8.6003 1.2677 2.5974 0 9.8666-1.343 11.978-2.0788 3.7543-1.3297 10.477-6.4736 11.164-7.443 0.35459-0.51416 1.9414-4.8473 5.2072-15.339 0.35459-1.1391 0.0155-2.265-0.13297-2.5176-0.26594-0.44323 1.25-1.312 1.4849-0.90865 0.39892 0.656 0.84215 2.2827 0.35459 3.8606-2.0965 6.7236-4.7223 14.855-5.4887 15.918-1.0328 1.4405-8.1934 6.7236-11.993 8.0529-2.2029 0.78011-9.6166 2.1896-12.556 2.1896-1.0771 0-7.7714-1.0328-8.4123-0.95298-2.2029 0.26594-6.3641 3.2534-6.8335 4.9098-0.31028 1.015-0.13296 2.4245 0.13296 2.9875 0.1773 0.44324-1.3918 1.2677-1.5647 0.95297"/>
   <path d="m89.362 306.81c-1.6267-1.8129-1.0771-4.7848 1.6267-7.5524 3.5327-3.6302 9.1162-3.3288 13.464-4.4236 4.1266-1.0461 8.2714-3.3775 10.039-4.8163 2.265-1.8439 2.9697-0.92195 0.76681 0.93968-1.8749 1.5646-5.7702 4.5189-10.398 5.5667-4.2064 0.93968-9.7886 1.2367-12.587 3.9094-1.64 1.5647-2.7836 3.9227-1.609 5.2228 0.31028 0.35459-1.1258 1.343-1.2987 1.1569"/>
   <path d="m74.06 310.26c0.93966-4.5189 4.2684-11.743 5.5982-12.416 4.3926-2.1896 7.005-0.67373 10.195 3.8474 0.1773 0.22162-0.73578 2.0345-0.98399 1.6267-2.9077-4.7378-6.0671-5.3788-8.3498-3.5326-0.7358 0.59394-4.1266 7.0365-4.8318 11.149 4.0512-1.578 10.414-3.3775 13.213-3.6922 0.48314-0.0444 0.656 1.6888 0.1773 1.7375-2.6284 0.26594-8.5373 1.9547-12.462 3.4573-2.9875 1.1436-3.1603 0.67374-2.5664-2.1719"/>
   <path d="m94.283 304.67c-2.9875 0.51417-7.2555 7.8494-8.3343 12.447 1.1569-0.3546 15.355-3.7232 15.371-4.8788 0.0315-2.8634-4.8318-7.9434-7.0365-7.568m-9.8821 11.43c1.1436-4.2684 5.0193-12.353 9.5851-13.135 3.8163-0.68702 9.4291 5.5357 9.0537 9.7886-0.22162 2.2384-14.933 5.5667-15.981 5.8482-3.0008 0.82888-3.3465 0.0886-2.6595-2.4999"/>
   <path d="m98.782 314.74c-0.22163-0.44325 1.2987-1.25 1.5336-0.82886 0.73579 1.3608 4.2064 0.87762 8.2248-2.7836 0.22162-0.1773 6.2391-6.5831 7.8964-7.4274 1.8749-0.97071 19.608-7.9279 22.517-8.0843 1.7375-0.0886 9.8981 2.0478 11.368 2.0478 2.1896-0.13296 4.9413-4.0202 4.4878-7.1145-0.48313-3.1736-2.6284-6.5675-5.4107-6.4736-1.343 0.0444-6.5046 4.0202-10.539 4.0202-5.1443 0-7.8339-1.9857-9.1627-3.5194-0.1773-0.22163 0.3546-2.3004 0.61168-1.906 0.89092 1.2677 3.4706 3.6922 8.5533 3.6922 3.8296 0 8.4278-4.3615 10.539-4.3615 4.0646 0 6.7236 3.9715 7.365 8.3184 0.63827 4.2684-3.0495 9.0852-6.3486 9.0852-2.1276 0-9.8826-2.1098-11.383-2.0478-2.3314 0.13296-19.374 6.6456-21.798 7.8964-1.5159 0.78011-7.2555 6.927-7.521 7.1615-5.2227 4.7223-9.7886 4.4564-10.93 2.3315"/>
   <path d="m138.58 263m-9.4912 19.624c4.2862-12.885 7.9744-17.779 9.2252-19.421 0.13296-0.13296 0.1773-0.22161 0.26594-0.31027-0.13297-0.51416-1.4095-3.2224-1.5159-3.4706-0.17729-0.44324 1.8439-0.13297 2.0035 0.22163 1.0328 2.1719 1.3741 3.0495 1.2366 3.6745-0.0444 0.26594-0.22161 0.48313-0.57622 0.97069-1.2056 1.578-4.8943 6.2236-9.0696 18.701-1.7021 5.0822-3.2224 4.7068-1.5469-0.31029"/>
   <path d="m78.759 158.17c-9.4916-18.967-26.676-30.648-39.498-33.806-6.6455-1.64-12.807-0.85989-16.356 1.702-0.3546 0.26595 0.26594-2.5486 0.56293-2.7348 3.9715-2.3315 9.6951-2.7215 16.309-1.0948 12.666 3.1116 29.334 14.714 39.279 32.759 0.44325 0.78011-0.13296 3.4883-0.31027 3.1736"/>
   <path d="m13.726 83.867c-0.67372-0.5319-13.526-11.931-15.042-12.806-0.39892-0.26594 1.8749-1.0771 2.3448-0.73578 2.2384 1.7198 13.151 11.68 13.776 12.181 0.35459 0.31028-0.92195 1.4849-1.0771 1.3608"/>
   <path d="m31.535 81.448c-0.13296-8.5533-4.9413-21.016-5.8167-22.016-0.82886-0.61168-9.7261-2.5797-17.279-2.5797-4.4723 0-10.742 6.3951-13.526 13.541 1.0948-0.22163 11.195-2.4556 11.821-2.3758 0.39892 0.04437 0.95298 0.39892 3.9404 2.2517 4.5034 2.7659 15.433 9.1632 20.859 11.18m-12.103-3.9404c-2.8013 3.6302-9.3817 12.744-9.6632 14.057 0.015522 2.4068 11.54 9.6791 16.966 6.5831 1.1746-0.67374 4.4103-6.677 4.7693-14.871-3.7365-1.312-8.0529-3.5194-12.072-5.7697m-11.399 13.979c0-1.7065 7.4115-11.602 9.8821-14.839-3.1426-1.8129-6.0201-3.5947-8.1464-4.9102-1.5026-0.92195-2.9254-1.8129-3.3288-2.0035-0.59394 0.03148-7.5369 1.5647-10.961 2.3137-2.9077 0.62498-3.1293 0-2.0168-2.7038 3.1426-7.6619 9.8981-14.229 14.98-14.229 7.4589 0 17.075 1.906 18.436 3.0008 1.312 1.0771 6.7391 14.964 6.7391 23.799 0 2.1098-1.5026 15.402-6.0671 17.998-5.3318 3.0495-19.514-3.7055-19.514-8.4283"/>
   <path d="m11.14 94.206c-1.0948 0-1.4538-2.4068-1.1436-2.0478 2.0965 2.5309 18.123-5.9732 18.483-10.57 0.03104-0.46984 1.999 0.53188 1.968 0.70475-1.3918 6.0046-14.777 11.915-19.312 11.915"/>
   <path d="m161.28 297.85c-2.9387-1.0328-6.4891-1.4538-7.302-1.4538-0.48313 0 0.79784-1.9059 1.046-1.8749 1.5647 0.17731 4.5344 0.8599 7.146 1.7996-0.56293-2.6595-3.1293-6.4891-7.021-8.4128-0.31027-0.17729-1.2677-2.6594-0.82886-2.4866 4.7378 1.8129 7.9279 5.3947 9.3037 9.6326 1.1081 3.4086 0.54519 3.8163-2.3448 2.8013"/>
   <path d="m164.52 253.95c-9.9136-2.1409-60.498-39.279-71.021-53.555-18.217-24.722-22.267-71.929-5.0663-84.079 4.3925-3.1116 5.2852-1.6577 0.92195 1.4716-14.386 10.305-12.259 56.48 6.0357 81.326 10.055 13.635 60.545 50.757 69.99 52.789 5.5357 1.2056 11.993 1.1879 15.746 0.84215 0.56291-0.0444 2.2207 1.4849 1.7375 1.5469-4.2862 0.61168-12.103 1.0017-18.342-0.35459"/>
   <path d="m186.31 256.73c-6.3176-0.97071-32.305-28.506-43.736-42.235-3.7055-4.4564-2.5664-5.1443 1.1879-0.78011 13.823 16.043 38.122 40.577 42.813 41.297 1.3297 0.22162 5.8012-2.1276 6.1611-3.0008 0.3546-3.4086-17.029-39.983-26.082-55.995-2.2517-3.9715-1.0771-4.8003 1.2056-0.74908 8.9757 15.965 27.114 51.773 26.598 56.996-0.22162 2.2339-6.1296 4.7848-8.1468 4.4719"/>
   <path d="m191.07 243.86c1.8927-10.367-3.0806-31.711-12.916-55.322-1.8927-4.5034-0.73578-5.1288 1.2189-0.61168 11.118 25.581 15.887 47.848 13.291 58.231-0.0886 0.39892-1.6577-1.9237-1.5957-2.3004"/>
   <path d="m190.57 224.75c-0.0886-2.9254-1.4716-21.563-1.7685-22.532-1.5647-5.0663-19.171-43.454-23.658-50.303-18.107-27.646-39.389-41.312-61.718-39.701-5.3322 0.39892-5.5197-1.3297-0.22162-1.7198 24.347-1.8129 45.565 11.587 64.188 39.999 4.7068 7.1925 22.642 45.784 23.752 51.226 1.281 6.2546 1.3608 26.097 1.1879 28.568-0.031 0.45211-1.7508-4.3305-1.7818-5.5352"/>
   <path d="m156.08 153.42m-39.639 35.308m-25.972 4.4236c0.01552-0.62498 0.03104-1.374 0.04437-1.9237 0.04437-1.3608 0.3546-1.5026 1.7021-1.2056 2.8634 0.61168 8.0059 1.2987 10.852 1.64 0-0.90865 0-1.9724 0.0311-2.8944 0.0444-2.4866 0.84216-2.6417 2.6284-0.90865 1.2189 1.1746 3.1249 2.2206 4.7223 2.5354-0.0155-1.4051 0.0886-2.9564 0.26595-4.2551 0.44324-3.4086 1.1258-3.5814 3.2224-0.67374 1.046 1.4849 2.1896 2.7836 2.7215 3.1736 2.1896-0.97071 15.543-9.2572 18.357-11.274 0.0444-1.5957 0.0155-3.7543-0.0444-5.6602-0.13297-2.8323 0.35459-2.9077 2.4378-1.6888 1.1879 0.68704 2.2694 1.2677 3.0495 1.64 0.0886-0.48314 0.17731-1.2366 0.17731-2.3935-0.3546-1.1081-0.76682-2.8146-1.0948-4.2064-0.87762-3.6922-0.51417-4.1266 2.8456-1.609 1.6755 1.25 3.2977 2.2339 3.9582 2.5619 1.3918-0.90865 6.927-5.8012 7.5059-6.4895 0.31026-0.50087 2.0168-5.2382 2.2206-6.2076-0.17729-0.58065-1.1391-2.7836-2.1896-5.1133-1.4228-3.1603-1.0017-3.2977 1.7996-2.0965 0.45211 0.22162 0.92195 0.35459 1.281 0.50087 0.39892-1.281 0.67372-4.1266 0.58065-5.7852-0.0315-0.48314 1.7198 1.4228 1.7021 1.9724-0.0444 1.6577-0.31027 3.5194-0.74908 4.6908-0.3546 1.0328-0.61168 1.2677-2.0345 0.78011-0.22161-0.0886-0.48313-0.17729-0.76681-0.26594 2.1276 4.7068 2.1276 5.1133 2.1276 5.3008 0 0.70476-2.1098 6.63-2.5974 7.2869-0.0444 0.0886-7.7404 7.521-9.0852 7.224-0.59394-0.17729-2.7658-1.4538-4.8788-3.0318 0.3546 1.4051 1.1081 4.2684 1.1081 4.3615 0 1.312-0.0886 2.3137-0.26596 3.0628-0.35459 1.6755-0.64269 1.906-2.8323 0.81114-0.76681-0.35459-1.6577-0.8599-2.5797-1.4051 0.0886 2.0478 0.13296 4.4878 0.0444 6.2546-0.0155 0.26595-0.13297 0.48313-0.31027 0.6427-0.17729 0.13297-18.467 12.181-19.968 11.915-1.015-0.17729-2.7658-2.3315-3.9892-4.0645-0.17729 1.1569-0.26594 2.5664-0.26594 3.9094 0 1.8439-0.50087 2.2517-2.5486 1.7198-1.6888-0.39892-3.4883-1.4051-4.8163-2.5974-0.0155 0.81114-0.0155 1.7065-0.0155 2.4378 0 1.4051-0.31027 1.7508-1.9857 1.5469-2.4378-0.31027-7.4589-0.95298-10.602-1.5957 0 0.22162 0 2.5486-0.04437 3.1116-0.04437 0.4521-1.7021-1.2677-1.6888-1.7508"/>
   <path d="m171.06 160.02c5.6447-16.856 18.42-34.557 35.511-45.597 2.7038-1.7508 3.2844-1.25 2.9697 1.6267-0.031 0.39892-0.13297 1.312-0.17731 1.3918 3.4086-2.2029 8.1783-4.5189 12.025-5.5667 3.2977-0.89092 3.3908-0.87762 2.5974 2.3935-0.5319 2.1409-1.3918 5.1603-2.3758 7.8498-0.13296 0.39892-2.5354 1.7508-2.3625 1.312 1.2056-3.0983 2.5797-7.6464 3.1603-10.023-4.2241 1.015-13.291 7.052-14.182 6.6925-0.31027-0.13297-0.76682-2.3315-0.39893-4.4236-16.028 10.226-31.07 31.68-35.479 46.003-0.17729 0.48314-1.5957-0.76681-1.2987-1.6577"/>
   <path d="m176.17 169.68c18.232-32.462 39.732-50.663 61.827-54.29 3.2047-0.53189 3.5947-0.0886 2.4246 2.4245-0.13297 0.3546-0.31029 0.67374-0.46984 0.97071 1.6755-0.26594 3.4396-0.51417 4.8628-0.70475 3.4706-0.45211 3.9094-0.0886 2.3625 2.7836-1.968 3.6435-4.2374 7.0675-6.9425 10.555-0.48314 0.61168-3.1293 1.1081-2.8146 0.73578 3.4086-4.1443 6.0982-8.1468 8.4123-12.462-1.968 0.26594-7.9434 1.0328-8.1464 0.76681-0.22163-0.26594 0.56292-2.0965 1.2056-3.4573-24.565 3.4706-48.333 31.023-61.64 54.275-0.13297 0.26594-1.3608-1.0948-1.0771-1.5957"/>
   <path d="m181.92 181.62c12.916-27.145 51.476-52.258 78.809-57.59 4.1266-0.81114 4.8003-0.5452 2.5797 2.9254-1.015 1.609-1.8306 2.9564-2.3625 3.9892 1.8926-0.5319 4.1443-0.95297 6.1611-1.1746 3.8784-0.39893 4.0645-0.0886 2.8456 2.8767-2.1586 5.2382-8.3503 14.761-13.573 20.703-0.26595 0.31027-3.0806 0.85989-2.7526 0.51415 5.3943-5.8637 13.135-17.466 14.948-22.47-2.8323 0.1773-9.4602 2.0345-9.8041 1.5957-0.3546-0.46984 1.343-4.2995 3.3908-7.4585-26.786 4.7689-66.893 30.82-79.122 57.777-0.13297 0.26594-1.4095-1.0771-1.1258-1.6888"/>
   <path d="m187.12 192.95c18.936-25.019 55.995-40.781 82.796-41.907 4.1443-0.17729 4.2862 0.22163 1.702 3.1603-0.54518 0.62498-2.9564 2.9697-3.2667 3.3155 3.0628-0.70475 6.724-1.7198 9.0227-2.1098 3.4396-0.57623 3.6435-0.56292 2.3758 2.9874-3.0806 8.6783-10.195 17.779-21.016 25.065-0.59396 0.3989-5.9576 1.0771-5.5663 0.82885 12.447-8.0214 22.298-18.216 25.222-27.286-2.8766 0.45211-12.04 2.5309-12.416 2.0478-0.39892-0.50086 3.9892-5.5822 4.5973-6.2861-26.238 0.95298-65.08 17.779-82.859 42.297-0.1773 0.22161-0.87762-1.7508-0.59394-2.1098"/>
   <path d="m193.71 227.68c-0.85988 0-1.6577-0.0315-2.3448-0.0886-0.44324-0.0444-0.1773-1.7686 0.17729-1.7198 15.965 1.5026 83.202-15.809 95.493-34.072-6.1611-1.0638-16.2 0.0444-16.512-0.45211-0.31027-0.51417 4.6909-7.8498 5.1758-8.4908-20.641 0.0886-61.624 11.196-84.892 30.179-0.39892 0.31027-0.22162-2.0478 0.22163-2.4068 23.784-19.249 63.282-29.241 84.016-29.506 3.3288-0.0444 3.6745 0.54518 1.8306 3.0318-1.3918 1.8749-3.4706 4.6598-3.9892 5.4258 3.8296-0.56292 8.3188-0.45211 13.401 0.31027 3.3288 0.5319 3.6302 0.87762 1.7996 3.3908-13.761 18.889-71.522 34.729-94.399 34.385"/>
   <path d="m17.251 91.576c-0.3546-3.9094 1.1879-10.508 4.4409-13.823 0.13296-0.13296 1.9059 0.59394 1.5469 0.92195-3.0008 2.7836-4.6598 8.5843-4.5034 12.259 0.03104 0.48314-1.4405 1.1081-1.4849 0.64271"/>
  </g>
 </g>
</svg>
