<?xml version="1.0" encoding="UTF-8"?>
<!-- Created with Inkscape (http://www.inkscape.org/) -->
<svg version="1.1" viewBox="0 0 418.83 306.14" xmlns="http://www.w3.org/2000/svg">
 <g transform="translate(118.17 7.0194)">
  <g fill="#65aadd">
   <path d="m105.25 143.24c54.626 3.7179 97.59 35.831 94.599 82.171-2.7268 41.995-48.442 67.237-110 63.821-54.727-3.0534-102.66-31.042-96.337-75.482 6.2854-44.036 47.613-74.895 111.74-70.51"/>
   <path d="m58.951 295.44c3.2309 1.0713 8.8112-2.9732 11.418-8.1845-8.0636-1.879-20.735-4.9724-20.735-4.9724 1.3749 5.0927 5.213 11.782 9.3164 13.156"/>
   <path d="m127.23 287.74s12.409-2.1024 18.754-4.1017c-0.62441 3.8611-3.6205 14.166-10.57 14.288-6.9517 0.1146-8.1845-10.185-8.1845-10.185"/>
   <path d="m33.996-1.0064c-19.704-0.84784-45.996 10.064-64.548 32.638-4.285 5.213-16.572 22.917-21.968 33.527-5.4135 10.61-8.5689 19.179-11.176 22.533-2.6065 3.357-10.63 11.176-13.782 13.965-17.421 15.359-26.09 19.38-34.073 43.389-7.0324 21.058-7.1539 54.02 16.572 62.75 16.289 6.0018 39.631-4.7261 50.079-36.862 2.4232-7.4569 5.213-21.604 3.1736-33.891-2.0394-12.287-5.9618-24.392-7.2553-30.354-1.8561-8.4474-1.3348-22.23 2.0394-31.668 2.7898-7.8213 12.287-27.545 24.756-38.903 22.776-20.735 39.388-27.949 55.495-27.949 15.5 0 28.575 12.49 37.609 25.141 2.807 3.9184 13.035 22.917 16.026 33.89 2.9732 10.994 7.0731 25.888 8.7505 37.812 1.6785 11.924 2.4232 33.709 2.0394 37.609l7.5177 0.62442c0.28643-10.489-0.80773-30.799-1.5582-39.348-0.74471-8.5689-4.285-29.607-7.0731-38.378-2.7898-8.7505-8.9326-25.322-16.208-36.114-12.024-17.885-28.94-29.667-46.421-30.415"/>
   <path d="m202.95-5.6019c-17.966 0-37.529 12.287-51.574 32.577-3.357 4.8521-12.671 18.997-19.744 35.952-7.0731 16.935-11.54 30.9-14.531 41.894-2.9732 10.994-8.9326 38.741-8.9326 38.741l7.2553 0.72755c2.2456-11.539 6.3456-29.041 9.3164-38.357 2.9732-9.2964 11.358-32.395 15.46-40.58 4.1017-8.2051 14.894-27.566 21.038-35.022 14.025-16.996 24.938-26.434 41.348-26.434 14.611 0 28.273 11.681 34.821 25.322 2.2227 4.6459 9.2958 20.108 12.105 35.204 2.7898 15.077 4.8292 30.153 4.8292 41.146 0 10.974-4.1017 20.674-6.5071 24.958-2.4232 4.285-8.0229 15.258-10.994 23.827-2.9732 8.5683-7.2553 21.219-7.2553 36.68 0 33.184 17.925 53.635 33.891 53.635 25.322 0 35.568-24.433 35.568-54.747 0-4.4683-4.4855-31.102-10.246-42.096-5.7796-10.974-10.812-20.109-13.035-23.463-2.2456-3.334-7.0731-12.833-9.3165-20.654-2.2456-7.8207-4.4683-28.495-6.3255-36.134-1.8618-7.6391-7.8213-29.607-14.167-41.53-12.53-23.604-26.555-31.648-43.005-31.648"/>
  </g>
  <g fill="#ffec61">
   <path d="m-60.102 81.421c5.0125-1.2546 8.6496 0.1146 10.671 3.4773-0.45828 4.4683-1.415 11.741-0.45828 16.753 0.92803 5.0297 3.357 15.278 4.6459 20.108 1.3119 4.8521 5.0297 13.783 4.1017 31.486-0.92804 17.683-8.7505 34.255-17.501 43.187-11.398 11.641-27.363 16.49-39.307 10.246-14.894-7.8012-18.774-24.655-18.248-39.287 0.22914-5.0354 3.5346-24.029 10.246-35.387 6.7099-11.358 12.672-17.683 20.109-23.645 7.4569-5.9618 15.278-12.287 18.997-16.572 3.7179-4.285 6.7701-10.367 6.7701-10.367"/>
   <path d="m254.35 103.52c2.6065-1.8618 8.1845-2.6065 11.924-1.1114 1.3519 4.8292 5.213 15.137 9.0535 21.846 3.8611 6.7094 13.54 19.987 18.876 37.61 5.3333 17.622 4.7089 21.24 4.3423 35.629-0.76763 29.404-13.661 44.783-32.274 47.168-14.348 1.8618-32.254-11.661-36.255-42.076-1.2316-9.4379 0.34371-32.153 5.5797-44.198 5.213-12.044 8.5688-22.473 11.924-28.05 3.357-5.5797 5.3334-12.409 6.0832-16.875 0.74471-4.4855 0.74471-9.9432 0.74471-9.9432"/>
   <path d="m41.818 166.96c16.167 0 24.089 13.742 24.089 34.517 0 24.817-17.602 36.498-35.568 36.498-14.631 0-27.929-12.247-27.929-27.383 0-20.109 21.968-43.632 39.408-43.632"/>
   <path d="m140.94 164.41c20.532 0 42.278 21.199 42.278 40.964 0 20.33-10.852 35.386-31.85 35.386-19.037 0-35.386-20.411-35.386-43.571 0-21.847 13.722-32.78 24.958-32.78"/>
  </g>
  <path d="m-25.156 272.23c6.0626-2.9732 20.856-13.965 24.958-25.706-2.9903-5.5797-6.5278-15.824-6.5278-21.402-5.5797 3.5346-26.615 14.53-32.779 16.571-6.1439 2.0394-26.05 6.1439-30.334 6.8915-4.285 0.74471-12.49 5.0297-12.49 10.428 0 9.8824 12.186 19.179 27.202 19.179 5.5797 0 19.724-0.92804 29.97-5.9618" fill="#bad4ef"/>
  <path d="m223.06 273.71c19.603 7.2954 37.427 0.74471 43.005-9.4986 1.1343-2.0394 2.4232-8.7505-5.213-13.035-7.6185-4.285-23.079-10.044-32.213-13.965-9.1148-3.9012-24.938-11.721-28.859-15.824-0.92803 7.0731-3.1507 20.856-7.4369 27.929 5.7596 7.4569 14.712 18.431 30.718 24.392" fill="#bad4ef"/>
  <path d="m90.76 217.29c5.1558 0.40102 10.428 2.6065 10.428 2.6065l-3.0705 9.0334c-2.7898-2.1425-9.3972-5.4995-15.278-1.3921-0.92802-3.0705-1.392-10.711-1.392-10.711 2.7096-0.1146 5.9618 0.17186 9.3164 0.45829" fill="#942f00"/>
  <path d="m89.457 225.21c2.4232 0.1146 6.1434 1.3118 8.3867 3.9012-1.6556 3.6778-4.4683 8.5683-8.1037 8.3059-1.2145-0.1146-4.3881-2.1425-6.7094-9.5994 1.392-1.3921 4.285-2.7096 6.4264-2.6065" fill="#ee859a"/>
  <path d="m89.614 273.1c45.229 2.5893 106.99-23.301 110.24-47.674-6.2041 41.954-44.137 67.458-110 63.821-61.294-3.4143-96.822-33.628-96.822-70.025 9.6802 27.364 43.308 50.827 96.58 53.878" fill="#5794c1"/>
  <path d="m-3.3708 239.45c-10.044 27.424-48.664 41.166-74.108 29.607 9.3164 9.3164 26.818 15.056 52.322 3.1736 5.5797-2.6065 15.076-6.5278 25.504-24.959z" fill="#a1b8cf"/>
  <path d="m220.83 264.78c8.6296 3.9585 28.313 8.0029 42.824 3.9012-13.722 10.448-29.607 10.994-45.997 2.807-4.8292-2.4232-18.794-11.175-25.322-22.169l2.4232-4.8292c4.4683 6.3255 16.753 16.006 26.07 20.29" fill="#a1b8cf"/>
  <path d="m52.959 288.8c1.6785-0.64732 11.358-0.45828 13.682 2.9732 1.0312-0.83064 3.0705-4.3652 3.0705-4.3652-8.6496-2.3258-19.259-4.9323-19.259-4.9323z" fill="#5794c1"/>
  <path d="m129.21 292.9c3.4372-2.1425 11.54-4.4683 14.712-2.7898l1.9592-6.2448c-4.6688 1.2145-18.916 4.0043-18.916 4.0043z" fill="#5794c1"/>
  <g fill="#0f141b">
   <path d="m85.004 287.72c-54.807-4.8292-90.214-31.243-90.214-67.256 0-18.391 7.902-35.973 22.271-49.554 20.27-19.138 50.503-28.616 85.141-26.656 36.094 2.0394 65.216 15.238 81.989 37.185 11.641 15.197 16.269 33.669 12.671 50.665-8.2045 39.065-52.119 60.89-111.86 55.616m-93.468-67.256c0 37.427 37.043 64.811 93.246 69.782 61.093 5.3964 107.07-16.733 115.56-57.132 10.489-49.775-37.084-87.95-97.995-91.386-67.054-3.7981-110.81 31.911-110.81 78.736"/>
   <path d="m99.084 220.24c-1.1744 6.6486-4.1819 13.298-7.0932 15.46-0.68744 0.51557-1.3348 0.72753-1.879 0.64732-2.9101-0.45828-7.1138-8.1644-7.4375-18.107 3.294-0.28643 9.9632-0.0406 16.41 1.9993m-17.925-4.3824c-0.60722 0.1146-1.0712 0.62442-1.0712 1.2546 0 10.792 4.5084 20.189 9.6395 20.977 4.2449 0.64734 11.115-8.5081 12.55-18.37 0.0572-0.60724-0.28643-1.1744-0.84784-1.3749-8.6496-3.0304-17.885-2.8471-20.27-2.4862"/>
   <path d="m98.379 227.95c-4.1418-4.7089-11.883-4.9094-15.581-1.9019-0.45829 0.34371 0.80773 3.0934 1.1515 2.4862 2.1024-3.6778 10.367-2.5893 12.711 1.3348 0.34373 0.58432 1.9019-1.7186 1.7186-1.9191"/>
   <path d="m4.9517 205.8c4.0444-21.584 22.837-37.69 36.922-37.69 12.166 0 25.646 12.024 21.847 36.518-3.4372 22.19-13.682 32.072-33.204 32.072-16.268 0-28.333-16.107-25.565-30.9m-3.2309-0.45828c-3.5174 18.795 10.408 33.911 28.798 33.911 20.735 0 32.881-10.569 36.498-33.911 3.3341-21.482-5.7395-39.751-25.141-39.751-15.076 0-35.891 16.996-40.155 39.751"/>
   <path d="m118.06 202.23c-1.9019-22.048 11.458-36.619 24.069-36.619 18.633 0 38.782 20.553 39.185 39.974 0.4583 21.098-11.782 33.73-29.627 33.73-16.228 0-31.931-17.34-33.628-37.084m-3.6148 0.1146c1.8217 21.361 19.482 39.509 37.246 39.509 19.098 0 33.568-11.034 33.022-36.518-0.45828-21.038-22.371-42.237-42.581-42.237-15.056 0-29.849 14.126-27.687 39.246"/>
   <path d="m50.319 196.4-7.9622-0.401c1.1916-5.0927 1.4551-7.9422 1.5983-8.8513 0.7046-4.1647-0.40102-6.6692-2.7898-6.6692-2.343 0-4.348 2.807-5.2932 6.0225-0.22916 0.68744-1.3119 3.9184-2.5034 9.498l-12.469 0.51557c-2.9903 0-6.0225 1.5582-6.6692 4.3079-0.401 1.6785 1.3348 4.1017 5.2761 4.1017l11.903 0.34373c-1.3519 6.5478-1.7988 10.853-1.9993 11.964-0.70462 4.3423 0.96814 6.6893 2.3831 6.6893 1.9993 0 4.5256-3.334 4.9495-5.7172 0.22914-1.0712 1.7358-5.881 3.4142-12.934l10.165-0.401c3.4143 0 7.1946-1.3119 7.6592-3.7809 0.4583-2.4461-2.4862-4.6287-7.6592-4.6287"/>
   <path d="m164.98 197.05-12.449-0.4583c-0.70462-5.8609-1.5582-9.2563-1.6957-10.165-0.45829-2.87-1.7816-4.4683-4.6917-4.4683-1.1744 0-2.8872 1.6957-2.7268 4.6688 0.0401 0.51558-0.1146 3.9184 0.28643 9.9632l-11.62 0.22915c-3.5575 0-6.5678 2.2456-6.184 5.3964 0.28642 2.5034 3.0132 4.3022 6.184 4.3022 0.60724 0 3.1507 0.4583 12.368 0.1146 0.83065 10.731 2.4862 17.642 6.8508 17.642 2.7268 0 3.7179-7.3561 2.406-17.986 7.5182-0.28643 11.984-0.91085 12.409-0.91085 3.1335 0 5.901-1.5983 5.5968-3.6606-0.34372-2.2227-3.5747-4.6688-6.75-4.6688"/>
   <path d="m-7.0726 223.39c-7.4369 5.1558-25.039 14.49-33.567 17.339-8.8925 2.9732-23.645 5.3734-28.839 5.9824-9.3772 1.1114-15.379 8.2045-13.965 14.712 3.2768 14.934 23.14 24.372 53.251 14.712 14.692-4.7089 26.798-17.845 30.739-27.586 0.28644-0.79053-1.478-3.6606-1.6556-2.9903-2.2857 8.1644-13.904 22.21-29.829 27.323-26.818 8.6095-46.381 0.401-49.028-11.721-1.0942-4.9896 3.7179-10.286 10.832-11.135 5.2932-0.64733 20.25-3.8783 29.304-6.8915 8.4875-2.8299 24.857-11.458 33.022-16.854 0.401-0.28643 0.28643-3.294-0.28643-2.8872"/>
   <path d="m-5.9189 232.8c-7.0124 10.691-26.11 20.654-38.882 22.917-5.7601 1.0082-5.4766 2.807 0.28643 1.7988 12.611-2.2227 31.385-11.075 39.53-21.644 0.401-0.57287-0.57287-3.6606-0.92804-3.0705"/>
   <path d="m-15.102 248.58c-2.3659 3.357-8.3666 8.0029-11.843 9.8624-5.4995 2.9732-4.8292 4.6459 0.66452 1.6785 3.821-2.0394 10.185-6.7099 12.773-10.368 2.3831-3.3971 0.80773-4.5657-1.5983-1.1744"/>
   <path d="m200.28 223.36c11.681 8.609 24.332 13.823 36.599 18.855 5.5797 2.3029 11.358 4.6688 16.936 7.316 9.3365 4.4454 11.034 6.5272 11.438 10.529 1.0942 10.832-17.582 17.865-34.821 13.904-15.116-3.4544-28.03-12.389-37.367-25.807-0.40101-0.57287-1.415 2.406-1.0713 2.87 9.6195 13.156 22.392 22.938 37.589 26.413 18.592 4.2621 40.176-3.5575 38.741-17.885-0.57287-5.3563-2.9732-8.2251-12.671-12.833-5.637-2.6867-12.186-4.5485-17.805-6.8508-12.711-5.213-25.848-10.63-37.71-19.805-0.57286-0.401-0.401 2.87 0.1146 3.294"/>
   <path d="m195.53 243.34c3.2538 3.2538 10.206 9.1549 16.167 12.126 4.3423 2.1826 4.9094 0.34373 0.68744-2.0795-4.1819-2.406-14.127-10.509-15.885-12.732-0.4583-0.57285-1.415 2.2456-0.96815 2.6867"/>
   <path d="m198.23 234.3c10.388 10.266 22.978 16.511 38.62 18.754 4.4855 0.62442 4.7891-1.455 0.28643-2.0623-14.126-1.9592-27.808-9.6596-37.892-20.108-0.51557-0.51556-1.352 3.0705-1.0082 3.4142"/>
   <path d="m48.023 282.47c2.2456 8.0435 7.0932 13.641 10.812 14.348 4.4855 0.83066 10.731-3.334 13.216-9.498 0.28642-0.67026-3.0934-1.4322-3.357-0.79055-2.2227 5.5567-6.5278 8.326-9.3972 7.7806-2.0795-0.401-5.1557-4.2449-7.2753-10.954-0.1146-0.4583-4.1819-1.5582-4.0043-0.88794"/>
   <path d="m144.71 283.63c-0.62442 5.677-4.1819 12.065-9.0134 12.913-2.8299 0.51557-5.5396-3.4773-6.7294-8.8312-0.17185-0.68744-4.0043-0.17186-3.8611 0.51557 1.3348 5.9618 6.2648 11.641 11.034 10.812 6.2247-1.1114 11.156-8.7711 11.883-15.278 0.0572-0.70463-3.2309-0.83066-3.3169-0.1146"/>
   <path d="m-59.653 77.511c-5.1099 11.944-13.196 18.593-21.745 25.605-11.6 9.498-25.807 19.441-33.567 45.592-9.0942 30.556 2.0222 57.131 22.715 61.072 20.957 4.0043 40.176-9.9225 49.29-38.236 7.4776-23.301 2.1196-39.044-1.8217-53.675-3.2539-12.025-6.3049-23.382-2.1826-38.337 10.671-38.661 54.444-73.946 85.304-69.116 15.541 2.4232 30.293 16.834 41.247 41.469 11.095 24.938 17.198 57.111 17.198 90.618 0 0.68742 2.5435 0.68742 2.5435 0 0-70.449-26.555-129.78-60.425-135.08-32.557-5.0927-77.139 30.96-88.315 71.419-4.3022 15.622-1.1514 27.323 2.1826 39.691 3.8382 14.288 7.8207 29.041 0.57286 51.635-8.6702 26.979-25.544 40.863-45.107 37.124-17.724-3.3742-27.869-29.567-19.704-57.051 7.5583-25.383 19.825-35.447 31.668-45.168 8.8112-7.2352 17.117-14.045 22.473-26.575 26.313-61.537 69.459-83 98.399-76.896 20.028 4.2048 36.599 20.432 47.896 46.926 10.772 25.181 16.006 58.627 14.773 94.175-0.0201 0.70463 2.5034 0.79056 2.5263 0.0572 2.6867-77.219-23.382-135.58-64.75-144.29-29.93-6.3055-74.29 16.167-101.17 79.018"/>
   <path d="m152.68 22.9c-19.28 25.221-34.659 65.62-45.673 120.1-0.1146 0.68742 2.343 1.1744 2.4633 0.45828 10.954-54.08 26.171-94.134 45.229-119.05 16.087-21.038 34.922-30.698 54.403-27.909 27.283 3.9012 44.339 34.295 53.675 95.63 1.942 12.793 6.2247 24.352 12.732 34.396 12.995 20.088 19.926 39.448 21.159 59.233 1.2718 20.472-1.0712 55.171-31.122 57.495-17.703 1.352-32.739-20.937-34.133-49.452-0.87074-17.582 6.3055-42.641 18.714-65.377 4.6459-8.5282 6.3863-20.209 5.1157-34.719-3.4773-39.853-14.43-69.318-30.839-82.959-7.7806-6.467-16.652-9.2758-26.413-8.326-32.598 3.1507-70.187 66.549-83.788 141.32-0.1146 0.68744 2.3659 1.1343 2.4862 0.45829 13.419-73.723 50.119-135.71 81.645-138.76 9.0541-0.87076 17.32 1.7358 24.555 7.7405 15.662 13.035 26.474 42.156 29.829 80.756 1.2145 13.803-0.45829 25.322-4.812 33.284-12.61 23.12-21.119 48.866-20.249 66.893 1.6785 34.356 18.572 53.17 38.094 51.675 23.867-1.8389 36.963-23.14 34.659-60.102-1.2718-20.229-9.5393-40.075-22.776-60.527-6.3049-9.7409-10.448-20.978-12.347-33.386-9.5186-62.629-27.06-94.236-55.616-98.318-20.472-2.933-40.297 7.5984-56.99 29.424"/>
  </g>
  <path d="m-77.938 149.42c-16.693-2.3659-27.869 8.0436-29.506 19.502-1.5353 10.872 5.3563 25.383 19.745 27.424 12.146 1.7186 27.161-7.9422 29.041-21.281 1.5353-10.852-7.2347-23.948-19.28-25.645" fill="#fff"/>
  <path d="m264.55 186.13c-16.693 2.2857-24.615 15.359-23.059 26.818 1.4952 10.872 12.085 22.957 26.494 20.977 12.146-1.6556 23.948-15.036 22.109-28.394-1.478-10.853-13.479-21.058-25.544-19.401" fill="#fff"/>
 </g>
</svg>
