<?xml version="1.0" encoding="UTF-8"?>
<!-- Created with Inkscape (http://www.inkscape.org/) -->
<svg version="1.1" viewBox="0 0 273.73 316.26" xmlns="http://www.w3.org/2000/svg">
 <g transform="translate(26.235 1.9853)">
  <path d="m227.3 125.38s-6.3411-28.424-28.533-49.305c-4.636 4.5493-12.813 18.345-16.355 25.079-4.9831-3.477-15.393-9.97-18.214-11.85-5.5781 7.5869-12.944 18.279-15.262 22.98-3.7621-2.1631-13.512-8.0245-16.705-10.036-1.2706 1.6424-4.4811 6.0988-6.1855 8.6585-3.8489-1.0474-8.4403-3.3469-10.583-4.1774-2.1011 2.2312-6.7341 7.6526-8.6368 10.189-2.535-1.6858-6.5153-4.0225-9.4456-6.0802-5.5348 6.4068-9.8609 13.666-13.184 19.525-6.1236-5.2063-21.297-16.267-24.882-18.432-4.0658 3.9109-13.338 14.519-16.049 17.885-5.6401-5.857-14.759-12.135-20.706-15.502-12.879 41.653-2.8634 70.777-2.8634 70.777 14.168 55.471 65.704 80.965 130.25 67.541 62.643-13.01 91.308-70.165 77.358-127.25" fill="#fff"/>
  <g fill="#fff799">
   <path d="m200.42 86.836c-9.5547 19.241 3.477 43.38 16.486 45.26 17.186 2.4916 39.423-62.686 23.877-71.717-6.7781-3.9357-32.032 9.6861-40.363 26.456"/>
   <path d="m21.025 134.05c-17.142 1.0908-48.912 31.945-44.692 42.943 3.1238 8.0895 43.293 14.08 57.702 3.2601 8.3963-6.2971 0.76235-47.075-13.009-46.201"/>
   <path d="m77.208 250.54c-9.0304 40.494-7.8931 60.61 10.845 61.616 20.553 1.0722 34.634-35.596 34.481-55.974-11.107 3.2601-45.326-5.6401-45.326-5.6401"/>
   <path d="m207.65 145.11c-10.648-1.2272-32.054 21.231-31.66 52.345 0.18594 15.481 5.4666 30.48 20.378 32.251 15.764 1.878 28.052-20.182 30.939-38.898 3.9109-25.298-3.7374-45.698-19.657-45.698"/>
  </g>
  <path d="m96.296 236.22c-6.6467-12.288-44.254-38.11-50.333-36.733-3.1733 0.72516-7.1499 22.127-6.6473 25.451 9.1835 17.207 45.129 26.456 45.129 26.456 12.136-3.3221 14.803-9.7084 11.851-15.174" fill="#ea5432"/>
  <path d="m79.375 241.28c-0.43385-0.61979-25.297-24.576-26.02-23.57-0.74376 1.0041-0.74376 14.89-0.43386 19.372l20.662 10.998c1.5991-1.0041 6.5159-5.7951 5.7951-6.7998" fill="#fff"/>
  <path d="m54.782 150.67c-2.0329-0.24792-10.167 16.967-9.2486 19.329 1.4193 3.5886 15.021 3.0618 14.693-0.43386-0.67557-6.8654-4.4625-18.782-5.4418-18.891" fill="#ea5432"/>
  <path d="m87.835 145.55c-3.7374 6.8221 20.159 53.46 32.404 56.106 10.276 2.2313 33.541-38.614 27.899-45.698-7.0185-8.8116-57.483-15.546-60.303-10.408" fill="#58bdec"/>
  <path d="m103.38 157.26c-1.2272 4.1092 13.163 25.757 16.705 25.232 4.4811-0.65698 12.769-16.355 11.938-19.657-1.5309-6.012-27.834-8.309-28.643-5.5781" fill="#fff"/>
  <path d="m187.6 238.55c-6.0554 1.6858-15.458 1.0475-18.192 0.3099-4.636-1.314-9.5547-5.6649-10.692-9.1618-1.0474-3.1919 12.813-23.111 17.47-27.616-2.9068 19.373 17.12 28.009 20.181 27.66-5.4666 6.3188-8.7676 8.8333-8.7676 8.8333" fill="#58bdec"/>
  <path d="m179.43 216.56c-1.2706 1.2706-3.7622 6.9095-3.6754 7.6092 0.12396 1.1342 8.1776 2.4048 10.998 2.1197z" fill="#fff"/>
  <path d="m192.11 197.12c0.43386-1.5929 22.521 0.67557 22.542 2.1197 0.12396 6.3405-6.7558 16.617-14.649 15.218-6.7124-1.2024-9.4456-11.567-7.8931-17.339" fill="#f7bacd"/>
  <path d="m177.46 106.91c-4.9645 1.3574-17.907 17.623-17.055 20.006 2.4296 6.9094 13.862 23.024 19.023 20.159 6.625-3.6754 12.747-13.688 11.851-20.159-1.2706-9.1612-12.266-20.422-13.819-20.006" fill="#ea5432"/>
  <path d="m177.31 117.48c-2.9502 2.2498-5.7703 6.9094-5.7703 9.0304 0 2.1011 6.0554 11.26 6.625 10.845 1.2706-0.96068 2.6899-2.9068 3.6506-6.3405 0.98547-3.5204-3.3035-14.453-4.5059-13.534" fill="#fff"/>
  <g fill="#fff799">
   <path d="m66.95 50.205c0.55781-3.037 1.2892-6.0802 2.1011-9.0961-10.342-5.5534-24.467-6.6907-26.26-4.7414-0.87391 0.94209-1.661 9.7958-1.5309 13.775 7.259 1.0722 14.299 2.7333 19.788 4.9212 1.878-1.7044 3.8489-3.3221 5.9004-4.853"/>
   <path d="m61.049 55.057c1.7912 0.71896 3.4089 1.4875 4.8096 2.2932 0.24792-2.3366 0.63219-4.7414 1.0908-7.1499-2.0577 1.5309-4.0225 3.1486-5.9066 4.853"/>
   <path d="m147.2 13.23c-1.3573-0.18593-13.009 9.6204-18.213 15.109 3.3221 2.8882 6.2531 5.6401 8.4831 8.0245 3.1486-4.3076 8.7242-8.6585 15.174-12.594-0.37188-3.2601-3.2353-10.254-5.4418-10.539"/>
   <path d="m190.79 71.528c4.0225-13.534 5.355-59.932 1.661-62.359-20.4-1.1342-50.486 19.525-54.99 27.2-4.5493-4.853-40.45-36.47-47.972-35.443-13.25 3.8055-23.111 51.885-23.636 56.433-9.1618-5.3798-47.272-12.66-59.363-5.95-1.0041 13.381 9.7735 41.019 23.221 54.706-1.0041 3.1919-2.4296 7.5875-3.2167 10.583 5.5534 3.5204 12.266 8.4397 16.77 13.119 2.7085-3.3655 11.96-13.994 16.049-17.886 3.5638 2.1631 18.76 13.228 24.861 18.432 3.3221-5.857 7.6743-13.119 13.206-19.525 2.9316 2.0577 6.8878 4.3757 9.4239 6.0802 1.9214-2.535 6.5593-7.9588 8.6585-10.211 2.1197 0.85532 6.7124 3.1486 10.583 4.196 1.7044-2.5597 4.9212-7.0402 6.1855-8.6802 3.1671 2.0329 12.944 7.8931 16.705 10.058 2.2932-4.7042 9.6861-15.393 15.24-22.98 2.8201 1.8594 13.228 8.374 18.236 11.85 3.1052-5.9252 9.7952-17.317 14.518-23.067-1.6858-1.8346-4.1526-4.6113-6.1422-6.5593"/>
  </g>
  <path d="m116.78 90.548c-0.044-4.1774-0.65699-8.7676-1.7912-12.747-2.9316 1.3759-12.026 4.4191-17.688 4.791 0.96068 3.7807 2.9936 8.7676 5.4852 12.878 2.8448-3.539 10.036-6.2965 13.994-4.9212" fill="#922f00"/>
  <path d="m102.8 95.477c3.0804 5.0513 6.9095 8.7676 10.408 7.2373 2.4916-1.0908 3.632-6.1855 3.5886-12.157-3.9791-1.3759-11.151 1.3574-13.994 4.9212" fill="#ed8599"/>
  <g fill="#ea5432">
   <path d="m52.913 237.09c0-0.18593-0.0217-0.37187-0.0217-0.55781-4.9831-3.7374-9.533-8.0028-13.6-12.747-0.0217 0.49583-0.0217 0.8987 0.0217 1.159 2.535 4.7662 7.1282 8.899 12.419 12.419 0.65698 0.044 1.2892 0.062 1.9462 0.12396z"/>
   <path d="m53.679 237.49c-0.65698-0.044-1.2892-0.12396-1.9462-0.12396 5.4666 3.632 11.698 6.5816 17.251 8.8333-4.6546-2.1879-9.0521-4.698-13.206-7.5652z"/>
   <path d="m55.786 238.61c4.134 2.8634 8.5494 5.3798 13.184 7.5435 1.314 0.49583 2.5598 1.0288 3.7807 1.4627z"/>
  </g>
  <path d="m187.6 238.55s1.6858-1.314 4.6113-4.2828c-2.3428 1.7044-4.791 3.3221-7.3247 4.853 0.96068-0.12395 1.8594-0.30989 2.7085-0.55781" fill="#58bdec"/>
  <g fill="#ded585">
   <path d="m201.51 118.74c3.8055 7.259 9.5987 12.528 15.393 13.36 11.369 1.6424 24.947-26.347 28.337-48.081-10.233 16.202-25.801 27.769-43.73 34.721"/>
   <path d="m-20.869 179.91c9.9706 6.4062 42.287 9.8175 54.903 0.37187 3.3655-2.535 4.1526-10.561 3.0184-19.241-16.77 12.31-37.039 17.82-57.92 18.891"/>
   <path d="m77.208 250.54c-0.70036 3.1734-2.7085 11.72-3.2787 14.628 12.092-6.0368 38.11 2.3366 40.975 23.286 4.9212-10.802 7.7183-23.155 7.6309-32.273-11.107 3.2601-45.326-5.6401-45.326-5.6401"/>
   <path d="m179.89 218.7c3.0618 3.3035 11.26 10.386 16.464 11.02 22.433 2.6651 34.656-33.322 31.901-53.985-8.5271 30.196-22.411 55.121-48.365 42.965"/>
   <path d="m175.69 76.627c6.6033 4.5493 10.626 8.6585 13.381 12.944 2.6465-4.3076 5.51-8.5928 7.8714-11.479-1.7044-1.8346-4.1526-4.6113-6.1422-6.5599 4.0225-13.534 5.355-59.932 1.661-62.359h-0.12396c-0.062 7.6092-9.2709 61.943-16.617 67.453"/>
  </g>
  <path d="m158.89 230.07c-17.404 7.1716-38.089 9.533-61.528 9.4896 0.43385 4.5493-3.1919 9.1828-12.922 11.85 30.305 11.567 75.697 2.6465 100.45-12.288-15.327 2.4482-22.958-1.4441-25.997-9.0521" fill="#dcdddd"/>
  <path d="m229.23 178.04c3.8241-16.311 3.7807-33.978-0.55781-51.732-3.2601 3.1238-6.9968 6.2314-11.151 6.581-0.63219 4.9831-1.3759 9.7518-2.2313 14.3 8.855 4.3324 12.638 16.508 13.95 30.851" fill="#dcdddd"/>
  <path d="m77.086 239c1.3574 1.314 2.2065 2.1631 2.2932 2.2746 0.70037 0.98547-3.9605 5.5533-5.6649 6.7124 6.2097 2.2498 10.714 3.4089 10.714 3.4089 9.7301-2.6651 13.381-7.3024 12.922-11.85-6.5376 0-13.316-0.18594-20.268-0.55781" fill="#cb4829"/>
  <path d="m79.375 241.28c-0.062-0.12395-0.94208-0.96067-2.2932-2.2746-7.3904-0.37187-15.021-0.8739-22.849-1.4627 0.49584 0.37188 1.0289 0.71896 1.5495 1.0722l16.967 9.0087c0.3099 0.12396 0.65698 0.24791 0.98547 0.37187 1.7044-1.1776 6.3411-5.7269 5.6401-6.7124" fill="#dcdddd"/>
  <path d="m186.76 226.29c-2.8201 0.30989-10.845-0.98547-10.998-2.1197-0.0434-0.43385 0.8987-2.7767 1.9214-4.8096-5.7517 4.3943-12.026 7.9148-18.804 10.714 3.9357 9.8392 14.693 10.867 26.019 9.0521 2.535-1.5309 9.8832-7.5869 11.479-9.424-1.4193 0.18594-9.6204-3.4089-9.6204-3.4089" fill="#4ba5ce"/>
  <path d="m179.47 217.94c-0.61979 0.49584-1.1776 0.96068-1.7912 1.4193-1.0289 2.0329-1.9709 4.3757-1.9214 4.8096 0.12396 1.1342 8.1776 2.4048 10.998 2.1197l-1.4441-1.9462c-2.1197-1.7044-4.1774-3.8489-5.8384-6.4062" fill="#dcdddd"/>
  <g fill="#0f141b">
   <path d="m149.63 251.19c-64.348 13.381-114.79-12.703-128.52-66.469-0.18594-0.78713-3.8675 1.2024-3.6506 1.9895 14.715 56.193 66.098 82.168 132.11 68.437 19.132-3.9791 35.946-12.55 49.327-24.598-1.0722-0.3099-2.1631-0.78714-3.2353-1.2024-12.594 10.691-28.119 18.126-46.026 21.843"/>
   <path d="m230.76 124.77c-0.18594-0.78713-4.6794 1.8594-4.5679 2.2932 3.4336 14.737 4.0224 29.365 1.878 43.227 1.1776 3.8241 1.4007 7.3687 1.3326 10.933 5.2063-17.754 6.0988-37.083 1.3573-56.455"/>
   <path d="m197.25 73.997c-4.3757 4.8096-11.807 18.498-15.371 25.035-2.2065-1.4441-16.88-10.976-16.88-10.976-0.65698-0.43386-1.5309-0.24792-1.9895 0.37187-5.4852 7.4561-11.829 16.705-14.649 21.822-4.3509-2.5598-12.507-7.4561-15.349-9.2492-0.63219-0.43386-1.4875-0.24792-1.9462 0.30989-1.2024 1.5743-3.8489 5.2496-5.5967 7.828-2.4048-0.76234-9.4673-3.8055-9.4673-3.8055-0.55782-0.24792-1.2024-0.062-1.6177 0.37188-1.8594 1.9895-5.6835 6.4502-7.8931 9.2486-1.0722-0.67557-8.2649-5.3116-8.2649-5.3116-0.61979-0.37187-1.4875-0.30989-1.9709 0.24792-5.0513 5.857-9.1178 12.397-12.485 18.257-6.7557-5.5781-20.619-15.787-24.138-17.908-0.55781-0.37187-1.2892-0.24791-1.7726 0.18594-3.7807 3.632-11.26 13.097-14.737 17.251-5.7083-5.5533-14.059-12.879-19.853-16.136-1.4441-0.81193-2.1197-0.43386-2.6465 0.96068-2.38 6.3411-4.4811 14.868-5.6215 22.28-0.12396 0.80573 3.5886 1.0041 3.7188 0.18594 1.0288-6.5816 2.6217-12.726 4.6546-18.432 5.9252 3.5204 13.732 9.6638 18.738 14.868 0.81193 0.85531 1.4627 0.83052 2.2065-0.062 2.4916-3.0618 10.801-13.119 15.174-17.513 4.6794 3.0618 18.498 14.124 24.073 18.87 0.98547 0.84911 1.5061 0.8987 2.2313-0.37188 3.2787-5.7517 6.9535-13.557 11.894-19.482 1.5061 0.96068 8.4403 5.7703 8.4403 5.7703 1.159 0.72516 1.2024 0.70037 1.9895-0.37188 1.7292-2.2746 5.4666-7.259 7.7183-9.7301 0.67557 0.3099 7.303 3.632 10.014 4.791 1.0908 0.43386 1.314 0.12396 1.878-0.87391 1.2892-2.2498 3.3903-6.2314 4.853-8.1992 3.9357 2.4296 12.266 7.8931 15.677 9.8609 0.8987 0.49583 2.0329 0.49583 2.6465-0.71896 2.1011-4.2828 8.0685-14.387 13.644-22.062 1.4007 0.8987 17.142 12.397 17.142 12.397 0.96068 0.63219 1.5743 0.55782 2.1631-0.49583 3.1733-6.0368 10.408-19.854 15-25.014 1.5061 1.221 3.0184 2.4916 4.4377 3.9357 0.55781 0.55781 2.8201-1.9028 2.2498-2.473-1.8346-1.8594-3.694-4.5245-5.6649-6.0554-1.0289-0.78714-1.9028-0.37187-2.6465 0.43386"/>
   <path d="m189.58 72.941 6.2971 6.167c0.6198 0.55781 3.037-2.0763 2.4482-2.6465l-6.7564-5.7083c0.6198 0.6198-1.4007 2.7519-1.9895 2.1879"/>
   <path d="m27.753 105.52c-1.0908 3.477-2.2932 7.2807-3.0804 10.758-0.18594 0.78714 3.2601 1.7726 3.4336 0.96068 0.78714-3.3903 1.7292-6.8438 2.8015-10.254 0.24792-0.76854-2.9068-2.2498-3.1486-1.4627"/>
   <path d="m7.077 48.153c-3.477 1.0474-3.4522 2.7767-3.1052 7.5218 1.1156 14.78 11.282 38.198 24.204 50.858 2.9316 2.8634 5.8384 1.7912 3.2167-0.78714-17.274-16.902-23.636-48.038-23.461-53.329 9.7518-4.4811 42.921-1.8594 56.368 6.1855 1.816 1.0722 3.3221-1.4627 1.5309-2.535-13.49-8.0685-46.266-11.654-58.751-7.9154"/>
   <path d="m94.557-0.23207c-5.2496-2.6899-6.4936-2.473-10.233 1.9709-7.5869 8.9647-17.973 34.94-20.072 55.362-0.24792 2.3428 2.7519 3.4522 2.9936 1.1156 2.6651-25.932 17.645-54.006 22.521-55.777 4.1774 0.30989 34.896 22.587 45.916 35.049 0.55781 0.61979 2.7519-1.3326 2.2065-1.9462-8.7025-9.8609-32.404-30.173-43.337-35.771"/>
   <path d="m185.53 8.0477c-14.649 3.3655-40.712 13.075-49.524 27.769-1.878 3.1238-0.12396 5.8818 1.7478 2.7581 9.0961-15.153 49.852-30.064 53.832-28.162 2.6465 3.6506 1.314 50.18-2.4048 61.353-0.96068 2.8634 1.2892 3.5638 2.5598 0.12395 4.5927-12.463 5.6835-37.52 4.0658-55.734-0.8987-9.9266-1.9276-10.036-10.277-8.1119"/>
   <path d="m40.95 34.999c-1.6177 1.7478-1.7912 12.528-1.4193 15 0.12396 0.81193 3.2353 1.2706 3.2353 0.18594 0-3.6506 0.65698-11.698 1.1838-12.856 1.7292-1.2272 14.256-0.91729 24.27 5.0699 0.70037 0.43385 2.2065-2.1197 1.5061-2.535-10.474-6.2531-26.085-7.7623-28.775-4.8778"/>
   <path d="m128.02 27.722c-0.55781 0.61979 1.661 2.5783 2.2065 1.9709 4.3757-4.9212 14.715-13.841 16.923-14.868 1.2892 0.83052 3.9357 6.5159 4.0658 9.4673 0.0434 0.81193 2.9936 0.67558 2.9502-0.12396-0.12396-2.8201-2.975-12.617-6.6033-13.075-2.9936-0.37188-17.23 14.037-19.547 16.639"/>
   <path d="m232.82 62.022c3.2787-0.98547 5.9004-1.1156 7.1933-0.37188 6.2971 3.6754 6.012 20.269-0.67557 39.51-6.2754 18.038-15.612 30.436-22.237 29.474-5.1133-0.74376-10.604-5.5534-14.278-12.529-2.8201-5.3798-4.2394-11.195-4.2394-16.814 0-4.853 1.0474-9.5553 3.1486-13.797 5.8137-11.72 20.663-22.346 31.092-25.473m-1.2272-3.5638c-11.02 3.3035-26.347 15.305-32.513 27.725-4.9645 10.014-4.5493 23.221 1.1342 34.022 4.1526 7.9371 10.298 13.994 16.442 14.89 10.189 1.4627 20.378-16.377 25.735-31.813 6.1422-17.667 7.8274-40.166-1.1404-45.369-2.0763-1.2272-5.4232-0.74375-9.6644 0.55781"/>
   <path d="m-12.546 181.78c-6.3845-1.8346-9.2052-3.9357-9.7301-5.3116-0.8987-2.3366 0.3099-6.2754 3.3903-11.086 8.2872-12.9 27.966-29.102 40.013-29.868 4.1092-0.24792 8.2426 4.3757 11.326 12.704 4.4811 12.178 4.8344 27.746 0.70037 30.851-9.9706 7.4778-32.951 6.3845-45.698 2.7085m33.585-50.115c-13.097 0.83053-33.585 18.367-42.396 32.12-8.7899 13.71-5.51 17.427 8.2649 21.384 12.835 3.694 37.149 5.8818 48.365-2.535 5.9686-4.4625 4.5927-22.827-0.062-35.421-3.6072-9.7958-8.5711-15.896-14.168-15.546"/>
   <path d="m124.18 257.18c-0.0217-0.80573-3.1052-1.816-3.1052-1.0041 0 28.075-18.607 54.487-33.016 54.487-3.7621 0-3.7188-16.639 0.98547-23.57 3.3221-4.9212 1.5495-6.1855-1.8346-1.3759-4.853 6.9095-6.1669 17.492-3.9357 24.226-2.6031-0.70037-3.9605-1.6858-5.5781-3.7374-6.0368-7.784-5.7269-25.363 0.96068-55.34 0.18594-0.81193-2.6651-1.4193-2.8882-0.65699-8.1776 27.922-6.9312 49.568-0.3099 58.095 3.7374 4.8096 8.1335 5.9004 12.769 5.9686 17.274 0.3099 37.061-29.452 35.946-57.089"/>
   <path d="m196.54 228.25c-16.923-2.0143-18.979-22.215-19.088-30.807-0.24791-20.969 9.6638-37.455 18.235-45.195 4.3324-3.8923 8.7242-6.012 11.785-5.6649 3.632 0.43386 3.8241 8.1992 2.8634 19.35-0.6198 6.8661 1.2892 6.0802 2.6031-1.2892 1.0041-5.7951 1.0722-12.375-0.37188-17.164 2.5783 0.8739 4.9212 2.3862 6.9088 4.7228 4.8096 5.5967 7.3687 14.868 7.3687 25.932 0 3.9605-0.3099 8.1342-0.98547 12.463-2.6217 16.945-14.256 39.444-29.321 37.651m-3.5452-78.561c-9.0304 8.1335-19.525 26.194-19.241 48.168 0.24792 19.81 8.899 31.704 22.433 33.322 17.054 2.0329 28.337-16.486 33.322-38.898 2.6217-11.741 0.98547-31.77-7.8057-42.003-7.5652-8.855-18.607-9.7295-28.709-0.61979"/>
   <path d="m45.645 198.05c-4.8344 1.0908-8.6585 17.82-8.418 24.861 0.0217 0.83052 3.539 1.314 3.539 0.98547 0-8.7242 3.7188-21.974 5.5781-22.98 5.0947-0.96068 42.068 23.833 48.649 36.012 0.74375 1.3573 1.4193 3.4522 0.43385 5.7083-0.94208 2.1879-3.6754 5.2249-11.413 7.347-0.78713 0.24792 0.70037 3.0804 1.4875 2.8634 13.403-3.6754 16.201-10.626 12.638-17.186-6.4279-11.894-44.867-39.335-52.519-37.608"/>
   <path d="m51.609 219.02c-0.65698 5.3364-0.78714 17.055-0.78714 17.208 0.044 0.80573 3.5638 0.80573 3.5638 0.76235-0.12396-1.9028-0.12396-14.824 0.062-16.901 5.0265 4.0225 20.312 18.628 23.33 21.646-0.67557 1.2458-3.632 4.2394-4.9831 5.0947-0.43386 0.3099 1.6177 3.3655 2.318 2.9316 0.8987-0.55781 3.8489-3.13 5.4418-5.3364 1.5061-2.0763 1.2706-3.8241-0.96068-6.0368-4.0906-4.0658-17.776-16.508-23.833-20.903-2.6651-1.9462-3.7374-1.816-4.1526 1.5309"/>
   <path d="m46.932 169.38c0-2.5164 5.0265-13.425 7.4778-16.53 1.2706 2.975 3.7622 11.239 4.3324 16.77-0.3099 0.55782-3.0184 1.5309-6.9095 1.3326-2.9936-0.12396-4.636-0.94209-4.8964-1.4875v-0.062m5.1815-18.913c-2.6217 3.477-9.0961 17.12-7.9588 20.072 1.4627 3.694 9.5113 4.3076 13.469 3.3469 4.0225-0.96068 4.8964-2.7333 4.791-3.8241-0.18594-1.7726-2.9068-13.404-5.3116-18.389-2.0329-4.2208-2.535-4.3943-4.9831-1.2024"/>
   <path d="m99.387 145.29c17.383 0.55781 43.271 6.1422 47.6 11.588 1.971 2.473-1.2892 13.753-9.2492 26.566-6.625 10.648-13.688 17.535-17.186 16.77-6.8221-1.4627-18.913-19.678-26.216-35.684-3.8675-8.5054-5.4418-14.299-5.4418-16.967 0-0.55782 0.062-1.0041 0.24792-1.2706 0.12396-0.12396 1.6858-1.2892 10.254-1.0041m-6.9968-3.4337c-8.0245 0.70037-8.418 2.2313-6.8654 9.5114 1.5061 7.0842 20.749 49.349 34.415 52.323 7.4344 1.5991 17.404-14.037 20.291-18.672 5.0079-8.0245 14.037-24.729 9.7952-30.064-6.3188-7.9371-44.32-14.212-57.636-13.097"/>
   <path d="m101.97 156.84m24.795 3.694c3.2353 1.2706 3.7374 2.3614 3.8241 2.6465 0.0217 0.062 0.0217 0.18594 0.0217 0.3099 0 1.661-2.2065 7.2373-5.5967 12.31-2.4296 3.6072-4.2208 5.0513-5.0761 5.2249-1.2272-0.3099-5.4418-4.8096-10.101-12.266-3.694-5.9066-4.9831-9.4673-5.0513-10.692 2.2746-0.98547 14.803-0.3099 21.974 2.4916m-23.658 1.9028c2.2994 5.9066 7.9811 13.732 10.998 17.208 6.8221 7.9148 8.3963 5.2063 13.381-2.2932 2.8448-4.2394 7.0842-12.354 6.3411-15.306-1.5061-6.012-18.236-7.259-23.855-7.3904-7.8714-0.12396-9.4023 1.314-6.8661 7.784"/>
   <path d="m175.29 198.89c-3.7188 3.6072-20.268 27.069-18.76 31.682 1.3326 4.0658 7.4778 8.2649 12.484 9.6867 2.4482 0.67558 8.7899 1.1776 14.431 0.55782 1.6177-0.18594 4.5493-3.8923 3.7622-3.6754-5.7517 1.5991-14.912 0.98548-17.382 0.3099-5.9934-1.7044-9.7084-7.2373-9.7084-8.2426 0-2.9502 10.692-19.044 16.049-24.97 0.37188-0.43386-0.30989-5.8818-0.87391-5.3116"/>
   <path d="m177.28 224.08 0.0217 0.0217c-0.0217 0-0.0434-0.0434-0.062 0.12396 0-0.0217 0.044-0.12396 0.044-0.12396m1.0908-8.5711c-1.3326 1.3574-5.1133 7.828-4.9212 9.2926 0.43385 3.4522 13.338 2.975 13.447 2.9502 0.81193-0.062 0.49583-3.0184-0.3099-2.9316-2.2498 0.24792-7.9811-0.24792-9.6861-0.8987 0.55781-1.5929 2.7519-5.5286 3.5452-6.3188 0.3099-0.3099-1.5123-2.6651-2.1011-2.1011"/>
   <path d="m213.1 200.03c-0.24792 3.4956-2.535 7.8931-5.6649 10.561-4.0225 3.4522-8.8773 3.5452-11.85-1.1156-2.2746-3.5886-2.6899-8.462-2.1197-11.326 3.0618-0.49583 16.464 0.78714 19.634 1.878m-22.302-4.3076c-1.7726 1.7912-0.24792 11.326 2.2932 15.327 4.2394 6.6907 11.369 6.7564 16.333 2.5164 4.0225-3.4522 6.8221-9.9049 6.713-14.366-0.062-3.6754-23.658-5.1381-25.341-3.477"/>
   <path d="m177.07 105.49m0.49584 2.9936c2.2312 1.1156 11.173 10.845 12.266 18.651 0.0434 0.37188 0.062 0.74376 0.062 1.1342 0 5.7951-5.293 14.256-11.173 17.514-0.37187 0.24792-0.98547 0.18594-1.7292-0.062-4.9398-1.878-12.966-13.185-15.109-19.11 0.3099-2.6651 11.282-16.486 15.677-18.104m-3.8241-1.1156c-5.0265 3.8489-12.113 12.069-14.322 16.268-1.1404 2.1879-0.37188 3.9977 0.49583 5.9252 2.9936 6.3405 10.539 17.339 16.18 19.481 1.5743 0.6198 2.9936 0.55782 4.196-0.12395 7.303-4.0225 13.928-14.977 12.988-21.843-1.0474-7.6309-8.6368-16.573-12.616-19.984-2.9502-2.5164-4.3509-1.7044-6.9311 0.24791"/>
   <path d="m173.01 126.49c0-1.314 1.9895-4.8096 4.3943-7.0402 1.1776 2.0329 3.1052 7.4338 3.1052 10.21 0 1.9214-1.1156 4.1774-2.38 5.6835-1.7044-2.1445-5.0265-7.6303-5.1195-8.855m-2.9502 0.0217c0 2.4296 5.51 11.698 7.2367 12.573 0.49583 0.24791 1.2272 0.24791 1.6858-0.12396 1.2706-0.94209 3.2167-3.2353 4.3695-7.3904 0.98548-3.5452-2.7085-14.278-4.9398-15.808-2.4048-1.6424-8.3523 6.9968-8.3523 10.757"/>
   <path d="m70.479 76.7c-0.37188 6.1236 0 12.616 3.0618 15.502 1.1342 1.0908 2.6031 1.7478 4.1526 1.376 2.2313-0.55782 2.1631-1.816-0.12396-1.5991-1.0041 0.062-1.8594-0.18594-2.5597-0.87391-2.2746-2.1445-3.3035-8.0902-2.9502-16.705 0.12396-3.1052-1.3759-1.0041-1.5557 2.2932"/>
   <path d="m135.4 58.803c2.6217 4.7662 4.0225 10.714 3.4336 12.747-0.61979 2.0763-1.7912 3.4522-4.0906 4.6794-2.3862 1.2458-0.61979 1.9214 2.1445 0.37187 1.6858-0.94208 3.0618-2.2312 3.8489-4.5245 0.8987-2.6217-0.55781-7.6092-3.037-12.463-1.5991-3.0804-3.8055-3.5886-2.2932-0.83052"/>
   <path d="m114.21 77.093c-2.4296 0.70036-12.179 4.1526-17.623 4.3943-4.1526 0.18594-4.8096 1.314-0.71896 1.9462 4.636 0.71896 18.257-3.6754 19.963-4.7476 3.6754-2.3366 2.5598-2.8015-1.6177-1.5991"/>
   <path d="m113.9 78.337c2.2932 7.6092 2.4296 16.858 0.71896 21.165-1.0908 2.7581-2.8634 3.1919-5.0699 2.0763-4.9831-2.5164-9.7958-12.944-11.217-19.197-0.12395-0.55781-2.8015 0.062-2.6651 0.6198 1.5309 6.7998 6.9752 17.383 12.573 20.203 3.2167 1.6177 6.3411 1.3574 8.0902-2.6899 2.318-5.3364 1.9214-15.72-0.18594-22.717-0.12396-0.49583-2.38 0.0434-2.2313 0.55782"/>
   <path d="m102.38 94.788c-0.24791 0.49584 1.2706 2.1011 1.5309 1.6177 2.6031-4.9645 9.8175-6.0368 12.157-4.3757 0.43386 0.3099 1.5309-1.816 1.0908-2.1445-2.473-1.7478-12.135-0.12396-14.781 4.8964"/>
   <path d="m87.376 77.329c0.044-9.0304-2.1879-12.332-4.636-12.332-2.7085 0-4.6546 2.318-4.5679 12.528 0.062 7.4778 1.7912 11.37 4.6546 11.37 2.6217 0.0217 4.5245-4.0472 4.5493-11.567"/>
  </g>
  <path d="m84.991 71.625c-0.062-3.4956-1.2458-5.1133-2.318-5.1133-1.2272 0.0217-2.4048 1.2272-2.535 5.0513-0.062 3.1733 1.0474 5.293 2.5164 5.2496 1.2458-0.0217 2.4048-1.661 2.3428-5.1815" fill="#fff"/>
  <path d="m120.37 53.991c-2.1197 0.98547-2.8201 3.8923-0.044 11.413 3.0618 8.3523 6.9312 10.277 9.3366 9.2926 2.6031-1.0908 2.9936-5.3798-0.49584-13.141-3.6072-8.0028-6.669-8.5488-8.7899-7.5652" fill="#0f141b"/>
  <path d="m121.23 55.18c-1.1342 0.43386-1.4627 2.535-0.37187 5.6401 1.0474 3.0618 2.975 4.5927 4.6113 3.8489 1.4627-0.67557 1.5061-3.5018-0.044-6.4502-1.4627-2.7519-2.975-3.477-4.1774-3.037" fill="#fff"/>
 </g>
</svg>
