<?xml version="1.0" encoding="UTF-8"?>
<!-- Created with Inkscape (http://www.inkscape.org/) -->
<svg version="1.1" viewBox="0 0 348.17 277.52" xmlns="http://www.w3.org/2000/svg">
 <path d="m344.83 115.84c3.8258 23.701-12.313 45.28-35.475 49.015-22.584 3.6391-44.691-10.264-48.863-36.149-3.8215-23.705 11.86-45.947 35.023-49.679 23.163-3.7299 45.503 13.112 49.315 36.814" fill="#00afec"/>
 <path d="m333.18 92.287c11.36 20.848 3.827 46.445-16.38 58.193-16.151 9.3925-36.166 7.8929-50.318-5.073 8.9842 14.919 25.796 22.204 42.877 19.453 23.161-3.7343 39.301-25.314 35.475-49.015-1.4655-9.1287-5.6935-17.245-11.654-23.559" fill="#009ace"/>
 <path d="m291.04 110.06c-4.1901 5.7636-11.315 7.7105-15.754 4.474-3.7569-2.735-4.8995-9.9175-0.32802-16.186 3.5059-4.8099 10.641-8.6835 15.843-4.8943 4.438 3.2307 4.4331 10.854 0.23917 16.607" fill="#9fd8f7"/>
 <path d="m193.53 186.79c0.62269-0.41167 1.1404-0.76067 1.5582-1.0362 5.0136-3.3206 5.5441-3.0146 7.8668 3.5225 2.3839 6.7284 6.4172 18.481 7.6958 22.415 2.0323-2.2192 10.857-12.003 14.737-16.368 5.1569-5.7801 5.8676-5.6079 11.131-0.0421 4.7144 5.0039 13.773 14.551 17.457 18.058 4.0661-5.2415 12-15.477 15.708-20.204 3.3699-4.3054 3.1929-4.2187 7.3367-1.6101 4.1453 2.6191 10.361 6.1772 14.609 9.1304 0.37638-2.7991 2.2143-17.112 2.3387-17.754 0.7168-3.9195 0.73708-4.2489 4.6773-2.3863 0.97296 0.46015 4.9432 2.3665 5.8924 2.8801 0.0938-4.6613-0.031-11.597-0.359-17.318l5.8729-0.47214c0.39736 9.2094 8e-3 21.479-0.0459 23.062-0.14692 4.3982-0.55398 3.9376-4.2462 1.9905-1.5055-0.78137-4.0072-2.2086-6.7213-3.6485-0.065 0.56055-1.6961 15.772-2.3126 19.102-0.77483 4.2182-0.78636 4.1348-4.7244 2.1068-2.0958-1.079-11.417-6.2573-16.53-9.1344-3.5756 4.5049-11.503 14.201-15.742 19.583-4.2724 5.4364-5.5151 5.3186-10.127 1.1524-5.6594-5.115-16.722-16.285-18.254-17.65-3.4805 3.7308-15.902 18.817-18.212 21.313-4.6292 5.0023-5.6911 4.9624-7.7616 0.0429-2.5712-6.1104-7.2299-17.904-9.7567-24.445-1.9511 1.197-4.4633 3.1907-7.8325 5.8484 1.6716-3.5046 4.0714-10.526 5.7433-18.138" fill="#0d131a"/>
 <path d="m343.66 116.04c-3.6326-22.555-24.976-39.543-47.955-35.824-21.634 3.4909-37.897 24.4-34.04 48.309 3.8304 23.795 24.254 38.921 47.494 35.17 22.662-3.6546 38.214-24.671 34.501-47.655m-34.14 51.157c-27.103 3.9107-47.524-12.736-51.689-38.577-4.4508-27.608 15.723-48.605 37.204-52.054 23.684-3.8222 48.123 11.554 52.568 39.153 3.9612 24.577-13.394 47.928-38.082 51.478" fill="#0d131a"/>
 <path d="m78.594 242.98c-2.4472 13.048-11.195 20.592-16.845 23.368-8.6767 4.259-18.006 3.0242-20.835-2.7491-2.8374-5.7684 1.8416-14.027 10.577-18.161 6.1272-2.8906 9.0682-5.8146 9.8562-10.768 2.5057 1.8803 13.221 6.8886 17.247 8.3093" fill="#00afec"/>
 <path d="m61.347 234.68c-0.4513 2.837-3.1657 6.9332-5.5682 8.3878 5.6203-1.2341 16.761 4.5972 17.851 12.39 2.211-3.3926 4.0431-7.5368 4.9645-12.468-4.0263-1.4211-14.742-6.4306-17.247-8.3093" fill="#009ace"/>
 <path d="m172.89 239.86c3.3625 5.9483 9.3187 11.065 11.833 14.159 6.5873 8.1144 5.6373 14.441-0.0592 19.079-4.8864 3.973-14.906 2.0637-21.619-7.9321-2.9017-4.3201-6.2389-11.489-8.7678-18.253 3.4287-0.53983 17.127-5.828 18.613-7.0516" fill="#00afec"/>
 <path d="m180.21 249.17c-1.8731-2.1076-5.9104-6.8188-7.3146-9.3171-1.4855 1.2236-15.184 6.5118-18.613 7.0516 1.2799 3.4244 2.7652 6.9509 4.2986 10.167 4.2728-6.4809 15.581-10.623 21.629-7.9016" fill="#009ace"/>
 <path d="m45.927 85.325c-6.7077-0.3481-13.247-2.7655-18.903-8.0855-11.772-11.079-13.124-39.136 3.0059-58.494 18.973-22.772 46.422-18.903 57.962-8.3792 10.969 10.003 13.066 23.006 8.5194 37.634-26.232 8.6576-43.916 28.284-50.584 37.325" fill="#00afec"/>
 <path d="m34.376 73.747c-4.0511 0.14011-8.1273-0.65558-11.662-2.0825 1.2178 2.1444 2.6654 4.031 4.3087 5.5746 5.6565 5.32 12.195 7.7374 18.903 8.0855 6.6684-9.04 24.353-28.667 50.584-37.324 1.3962-4.4919 2.1598-8.8175 2.2412-12.963-4.0951 7.325-17.543 12.254-23.395 12.828-8.4231 5.0806-31.913 25.57-40.981 25.881" fill="#009ace"/>
 <path d="m204.23 96.961c4.6219 0.06815 9.8279-0.91719 14.135-2.995 17.657-8.5203 24.114-35.443 14.488-57.171-11.841-26.757-38.977-31.221-53.359-23.768-15.253 7.9044-21.44 23.258-19.676 40.224 21.455 11.634 35.031 26.602 44.411 43.709" fill="#00afec"/>
 <path d="m175.71 54.693c-4.4273-1.4303-14.451-8.4961-15.281-16.24-0.9529 4.6784-1.1486 9.6588-0.61468 14.802 21.455 11.634 35.031 26.602 44.411 43.709 4.623 0.068 9.829-0.91735 14.135-2.995 2.719-1.3115 5.2292-3.1721 7.5793-5.3599-3.2206 1.8631-9.459 0.95472-12.042-0.31543-8.9655-3.6636-35.299-30.984-38.188-33.6" fill="#009ace"/>
 <path d="m50.474 79.792c-4.7826 0.66421-9.8943-0.22111-15.104-3.2852-12.46-7.3288-13.358-27.016-6.3592-38.911 9.5573-16.253 25.077-20.002 35.619-13.809 10.715 6.3113 15.312 21.224 10.135 34.624-9.2052 5.2652-19.325 15.164-24.292 21.381" fill="#ea545e"/>
 <path d="m31.873 45.378c9.5606-16.258 25.08-20 35.622-13.799 3.6914 2.1746 6.6572 5.3659 8.7466 9.1767-1.5098-7.1735-5.6022-13.425-11.611-16.968-10.543-6.1938-26.062-2.4439-35.618 13.809-5.268 8.9409-6.0682 22.288-0.84155 31.474-1.6487-7.9883-0.19966-17.048 3.7024-23.692" fill="#ca4751"/>
 <path d="m199.68 89.807c6.0027 1.3155 12.366 0.13659 18.73-3.6339 11.33-6.7219 15.788-28.487 8.0845-41.474-7.9495-13.416-25.924-20.053-38.553-13.167-10.949 5.9621-15.677 18.81-12.758 31.35 14.248 11.153 22.338 22.838 24.497 26.925" fill="#ea545e"/>
 <path d="m226.49 44.703c-7.9495-13.416-25.924-20.053-38.553-13.167-7.6997 4.1945-12.32 11.791-13.379 20.301 2.2589-5.0634 6.0132-9.349 11.138-12.137 12.628-6.8882 30.595-0.24673 38.554 13.178 3.6117 6.0801 4.5423 14.11 3.3522 21.617 3.7642-9.3025 3.8767-21.384-1.1107-29.792" fill="#ca4751"/>
 <path d="m218.57 167.69c-3.6841 54.486-46.05 86.633-104.54 82.677-59.214-4.0097-95.759-41.899-92.079-96.297 4.3511-64.288 50.52-112.31 105.95-108.56 56.266 3.8076 94.826 60.709 90.667 122.17" fill="#00afec"/>
 <path d="m27.889 195.4c12.557 31.597 43.453 52.092 86.143 54.976 40.524 2.7467 73.309-11.847 90.854-39.196-20.281 16.336-51.436 24.359-88.715 21.832-40.221-2.7179-71.173-16.454-88.281-37.612" fill="#009ace"/>
 <path d="m116.97 123.15c-49.341-3.3455-83.413 27.732-86.028 66.308-0.39582 5.8864 0.74459 12.24 3.3258 18.596 15.111 24.354 43.087 39.836 79.764 42.316 28.201 1.915 52.66-4.5834 70.836-17.922 8.3691-8.3622 13.278-18.22 13.957-28.241 3.0234-44.693-35.025-77.888-81.854-81.056" fill="#fff"/>
 <path d="m31.716 199.75c0.56809 2.7427 1.4219 5.5166 2.5523 8.3013 15.11 24.354 43.086 39.836 79.763 42.317 28.202 1.9148 52.66-4.5834 70.837-17.922 4.5157-4.5163 8.0255-9.4537 10.401-14.63-19.937 11.818-47.289 17.337-79.099 15.188-37.388-2.528-66.76-14.573-84.454-33.253" fill="#dcdddd"/>
 <path d="m116.98 100.49c-4.6513-0.30698-8.809-1.2589-11.749-2.5514 2e-3 3.8907 0.86072 7.2465 2.1711 9.9575 2.1294-2.0879 5.4816-3.3194 9.1517-3.073 3.7287 0.26342 6.9246 1.9693 8.7396 4.3828 2.0279-2.6757 3.649-6.0597 4.2267-9.8259-3.1212 0.9986-7.6045 1.4473-12.54 1.1103" fill="#932f00"/>
 <path d="m116.55 104.82c-3.6701-0.2464-7.0213 0.9842-9.1517 3.073 2.2214 4.5745 5.723 7.2719 8.4772 7.4618 2.5974 0.18051 6.4328-2.2198 9.415-6.1533-1.815-2.4137-5.012-4.1193-8.7406-4.3816" fill="#ee869a"/>
 <g fill="#0d131a">
  <path d="m44.953 86.526c-5.5087 0.26742-13.406-2.9947-18.989-8.2482-16.375-15.407-10.329-45.927 2.2803-61.063 19.816-23.792 49.169-19.18 60.907-8.4766 11.507 10.484 13.962 25.332 9.0272 38.572l-3.5226 1.3664c4.818-13.017 3.7121-27.17-7.5004-37.385-10.708-9.7595-37.336-14.348-56.168 8.2581-15.702 18.852-14.564 46.004-3.1096 56.78 5.5552 5.2275 12.123 7.6002 18.933 7.8381z"/>
  <path d="m49.271 81.117c-4.3461 1.0352-9.7232-0.36792-14.556-3.2127-12.372-7.2752-15.917-26.456-7.2418-41.21 11.001-18.711 27.76-20.552 38.309-14.362 11.42 6.7318 15.801 21.914 10.683 34.968 0 0-2.4801 1.2905-3.4867 2.1798 6.1898-13.628 1.3906-28.514-8.9791-34.615-9.5846-5.6313-24.394-2.8314-33.922 13.363-6.8158 11.584-5.708 30.363 5.9207 37.202 5.2592 3.0944 10.487 3.8445 15.376 2.9006-0.75715 0.89314-2.1034 2.7866-2.1034 2.7866"/>
  <path d="m203.66 95.607c4.8522 0.2457 9.6703-0.58553 14.159-2.7543 16.898-8.163 23.395-34.115 13.897-55.557-11.504-25.986-37.841-30.306-51.643-23.159-15.164 7.8573-20.644 24.333-18.759 39.817l-3.179-2.0683c-2.3867-12.443 4.5886-32.731 20.294-40.868 16.121-8.3546 45-1.7966 56.724 24.68 10.007 22.605 1.9428 51.423-16.099 60.137-4.3322 2.0957-10.144 2.9447-13.989 2.3144z"/>
  <path d="m199.18 88.422c5.9847 1.5404 12.305 0.41543 18.599-3.3155 10.8-6.3985 14.555-27.326 7.337-39.506-8.4491-14.242-25.759-18.875-36.58-12.974-11.54 6.3011-15.168 19.765-11.611 31.866l-3.1858-2.5939c-3.2338-11.439 1.9724-25.76 13.343-31.956 12.938-7.0591 31.744-1.2466 40.574 13.888 7.8795 13.498 4.5019 36.164-8.46 43.848-5.5766 3.3074-12.961 5.2664-18.033 3.7242z"/>
  <path d="m80.184 243.86c-2.4705 12.507-10.886 20.966-17.487 24.204-11.422 5.5992-20.502 2.8882-23.612-3.448-3.4259-6.9792 0.81577-15.753 11.405-20.769 6.1199-2.8908 8.7074-5.6211 9.3126-10.29l2.6323 1.8005c-0.93748 4.9286-3.9687 8.0924-10.434 11.155-8.9662 4.2332-12.274 11.982-10.03 16.563 2.726 5.5505 11.769 5.8701 19.249 2.2049 6.1749-3.0301 14.013-10.728 16.218-22.598z"/>
  <path d="m155.4 246.55c2.6542 7.0822 5.9591 13.982 8.6247 17.962 6.322 9.4059 15.583 11.168 19.885 7.6641 5.6849-4.6182 5.6426-10.316-0.10951-17.409-2.5905-3.1859-8.6849-8.4273-12.078-14.544l2.7945-1.3531c3.3743 5.9299 8.4227 10.296 11.653 14.174 8.8259 10.598 4.9237 18.176 0.0616 21.848-8.5948 6.4873-19.09-0.0374-24.939-8.7684-2.7953-4.1482-6.168-11.434-8.8924-18.747z"/>
  <path d="m162.09 85.221c0.82369 6.1545-3.244 11.543-8.8264 12.288-5.5898 0.74562-10.585-3.4254-11.409-9.5849-0.81912-6.1455 3.0446-11.739 8.6338-12.491 5.5886-0.74545 10.783 3.6349 11.602 9.7874"/>
 </g>
 <path d="m154.24 81.142c0.0106 2.395-1.8238 4.2556-4.0192 4.2647-2.1988 0.01095-3.9283-1.8283-3.9364-4.2237-0.0141-2.3957 1.76-4.3532 3.9583-4.3591 2.1959-0.0058 3.9822 1.9238 3.9973 4.3183" fill="#fff"/>
 <path d="m95.374 85.805c-2.4529 5.5031-8.2465 8.4697-13.558 6.1015-5.0738-2.2646-7.2436-8.0582-4.5152-14.165 2.4946-5.5914 8.6686-8.2205 13.662-5.9938 4.9877 2.2299 6.9098 8.4658 4.4117 14.057" fill="#0d131a"/>
 <path d="m83.993 74.939c-1.1563 2.1508-0.4282 4.6919 1.5163 5.7321 1.9357 1.0462 4.3348 0.19881 5.4874-1.9623 1.1589-2.15 0.52794-4.7321-1.4062-5.7748-1.9413-1.043-4.4411-0.14578-5.5975 2.005" fill="#fff"/>
 <g fill="#0d131a">
  <path d="m119.49 91.818c-0.0451 0.68703-0.91771 1.2205-2.0611 1.1452-1.1397-0.07442-1.9867-0.70526-1.939-1.3986 0.0403-0.63371 0.98842-1.1931 2.1045-1.1177 1.1426 0.06926 1.9483 0.66988 1.8957 1.3711"/>
  <path d="m106.31 98.252c0.11065 10.043 5.9756 15.685 9.6381 15.928 4.5051 0.30566 10.785-5.6666 12.389-14.295 1.1107-0.39537 2.3244-0.83343 2.3244-0.83343-1.6768 10.503-8.6615 17.877-14.831 17.463-5.084-0.34764-11.879-7.1483-11.691-19.078 0.70928 0.27526 2.1719 0.81606 2.1719 0.81606"/>
  <path d="m116.88 101.68c-7.2262-0.48104-14.461-2.2674-17.036-5.1096-1.5997-1.7829-0.55566-2.7289 1.2518-1.3049 2.6255 2.0886 8.6813 3.563 15.941 4.0501 7.6347 0.51905 14.02-0.51916 16.457-2.0886 1.8089-1.1522 2.6646-0.12078 0.8971 1.3309-3.1862 2.6133-10.792 3.5857-17.51 3.1219"/>
  <path d="m108.07 108.83c1.952-1.9521 5.1231-3.039 8.4091-2.8196 3.3873 0.23405 6.3921 1.7689 8.0389 4.0491l1.4812-1.6274c-1.7703-2.6626-5.5439-4.7038-9.3886-4.9668-3.7821-0.25964-7.5126 0.98701-9.6347 3.4473 0.27413 0.77092 1.0942 1.9174 1.0942 1.9174"/>
  <path d="m127.82 46.703c-54.367-3.6813-100.35 43.522-104.68 107.45-3.638 53.738 32.07 91.049 90.971 95.027 56.921 3.8552 99.524-26.099 103.28-81.57 4.2693-63.047-35.913-117.28-89.572-120.91m-13.607 205.85c-59.299-4.0111-98.708-41.76-94.838-98.965 4.354-64.296 53.771-114.05 109-110.31 54.286 3.6733 96.929 61.333 92.678 124.19-3.4273 50.582-40.521 89.576-106.85 85.082"/>
 </g>
 <path d="m44.808 116.55c-6.0649-3.6436-14.721-15.557-18.418-20.629-4.8939-6.7188-13.807-8.6264-19.67-4.3483-5.8672 4.2689-6.6477 12.757-2.6185 20.022 5.7978 10.479 17.8 20.712 30.948 21.715 0.35789 0.0702 10.934-16.069 9.7578-16.759" fill="#00afec"/>
 <path d="m31.201 129.43c-10.499-2.2565-22.931-16.545-29.592-27.745-0.13256 3.2213 0.7043 6.6866 2.4931 9.9069 5.7978 10.479 16.206 21.496 29.358 22.492 3.1045 0.2827 2.6628-3.6046-2.2585-4.6532" fill="#009ace"/>
 <path d="m193.8 128.48c6.6368 0.91666 18.734-9.1035 20.895-11.959 5.5847-7.4197 15.609-10.136 21.29-3.5715 3.9912 4.6027 4.4306 13.96-2.4738 21-10.463 10.682-21.747 12.897-32.282 10.966-4.0325-0.58276-8.5263-16.653-7.43-16.434" fill="#00afec"/>
 <path d="m204.79 141.97c-4.708-0.0766-5.264 3.3002-1.8278 4.0527 10.474 1.8759 20.152-1.4686 30.546-12.081 4.5298-4.6225 5.9047-10.246 5.1752-14.866-1.9427 9.1943-14.545 23.223-33.893 22.895" fill="#009ace"/>
 <path d="m33.459 134.09c-12.292-1.1075-24.493-9.996-30.853-21.477-4.4376-8.0131-3.0764-18.228 3.0769-22.712 7.5255-5.4805 16.837-2.3911 22.135 4.8893 3.4073 4.681 10.402 15.353 16.1 19.719 2.043 1.5625 1.0436 3.4726-1.0799 2.1593-6.2416-3.9003-13.866-15.189-17.332-19.954-4.5158-6.1908-12.763-8.067-18.093-4.1798-5.1696 3.7669-6.1271 11.546-2.2807 18.494 5.0458 9.1147 16.018 19.325 28.565 20.955 2.1318 0.27483 1.9435 2.305-0.23864 2.1077" fill="#0d131a"/>
 <path d="m203.34 144.04c10.944 1.4471 20.798-2.2184 29.331-10.924 6.303-6.4385 6.1631-15.076 2.4202-19.397-5.2697-6.0698-14.383-3.209-19.448 3.507-2.053 2.727-12.782 12.177-20.018 12.301-2.7497 0.0417-2.6176-1.9102-0.02-2.2227 6.105-0.7483 16.005-9.3304 18.062-12.098 6.4357-8.6381 17.426-10.79 23.774-3.4675 4.4279 5.113 5.3798 16.058-2.8513 23.964-11.698 11.238-23.589 12.091-31.621 10.319-2.6921-0.58859-2.3237-2.3385 0.37068-1.9836" fill="#0d131a"/>
</svg>
