<?xml version="1.0" encoding="UTF-8"?>
<!DOCTYPE svg PUBLIC "-//W3C//DTD SVG 1.1//EN" "http://www.w3.org/Graphics/SVG/1.1/DTD/svg11.dtd">
<svg xmlns="http://www.w3.org/2000/svg" version="1.1" width="300px" height="300px" style="shape-rendering:geometricPrecision; text-rendering:geometricPrecision; image-rendering:optimizeQuality; fill-rule:evenodd; clip-rule:evenodd" xmlns:xlink="http://www.w3.org/1999/xlink">
<g><path style="opacity:1" fill="#0e141a" d="M 143.5,1.5 C 152.165,-0.227782 158.998,2.43888 164,9.5C 167.888,21.937 170.888,34.6037 173,47.5C 206.702,61.058 224.869,86.058 227.5,122.5C 227.365,136.735 223.865,150.069 217,162.5C 212.64,169.234 207.806,175.567 202.5,181.5C 210.704,214.481 218.037,247.647 224.5,281C 224.179,289.649 219.846,294.982 211.5,297C 201.734,298.869 194.901,295.369 191,286.5C 188.704,274.675 186.037,263.008 183,251.5C 160.518,268.8 138.018,268.8 115.5,251.5C 112.682,263.088 110.182,274.755 108,286.5C 106.594,291.573 103.428,295.073 98.5,297C 82.6671,299.819 74.8337,293.319 75,277.5C 82.4857,245.572 89.6524,213.572 96.5,181.5C 72.2355,156.768 65.4022,127.768 76,94.5C 85.4384,71.5543 101.938,56.5543 125.5,49.5C 128.012,36.4402 130.845,23.4402 134,10.5C 136.43,6.56573 139.597,3.56573 143.5,1.5 Z M 143.5,186.5 C 156.04,184.514 164.207,189.514 168,201.5C 170.777,215.454 165.61,224.954 152.5,230C 140.666,230.493 133.166,224.993 130,213.5C 128.185,201.129 132.685,192.129 143.5,186.5 Z"/></g>
<g><path style="opacity:1" fill="#3d3938" d="M 144.5,5.5 C 152.663,4.16399 158.497,7.16399 162,14.5C 165.201,25.7231 167.535,37.0565 169,48.5C 167.186,47.2404 165.353,47.2404 163.5,48.5C 204.736,61.2964 224.57,89.2964 223,132.5C 219.759,153.487 209.925,170.654 193.5,184C 195.464,184.624 197.131,184.124 198.5,182.5C 205.469,210.71 211.969,239.043 218,267.5C 219.239,273.461 219.573,279.461 219,285.5C 213.114,294.527 205.781,295.86 197,289.5C 195.725,287.283 194.725,284.949 194,282.5C 191.316,269.098 188.316,255.765 185,242.5C 184.586,242.043 184.086,241.709 183.5,241.5C 182.692,243.423 182.192,245.423 182,247.5C 169.79,258.096 155.623,261.93 139.5,259C 129.792,257.582 121.792,253.249 115.5,246C 117.153,243.589 116.487,242.422 113.5,242.5C 110.319,257.571 106.819,272.571 103,287.5C 98.5092,292.259 93.0092,293.759 86.5,292C 79.8324,288.832 77.3324,283.665 79,276.5C 86.4277,245.269 93.4277,213.936 100,182.5C 101.439,184.014 102.939,184.347 104.5,183.5C 73.3898,155.386 66.8898,122.386 85,84.5C 96.7382,66.705 112.905,54.8717 133.5,49C 132.207,48.51 130.873,48.3433 129.5,48.5C 131.89,36.495 134.39,24.495 137,12.5C 139.015,9.58828 141.515,7.25495 144.5,5.5 Z M 143.5,186.5 C 132.685,192.129 128.185,201.129 130,213.5C 133.166,224.993 140.666,230.493 152.5,230C 165.61,224.954 170.777,215.454 168,201.5C 164.207,189.514 156.04,184.514 143.5,186.5 Z"/></g>
<g><path style="opacity:1" fill="#151a20" d="M 140.5,75.5 C 170.175,73.0347 189.009,86.0347 197,114.5C 199.621,142.855 187.455,161.355 160.5,170C 132.429,173.899 113.262,162.732 103,136.5C 97.7554,104.952 110.255,84.6184 140.5,75.5 Z"/></g>
<g><path style="opacity:1" fill="#fcfcfc" d="M 193.5,124.5 C 184.644,151.846 165.978,163.346 137.5,159C 119.85,152.193 108.85,139.693 104.5,121.5C 105.733,102.429 115.066,88.9287 132.5,81C 162.419,72.9626 182.586,83.4626 193,112.5C 193.499,116.486 193.666,120.486 193.5,124.5 Z"/></g>
<g><path style="opacity:1" fill="#11171d" d="M 143.5,107.5 C 158.941,105.444 166.107,112.111 165,127.5C 159.473,138.803 150.973,141.636 139.5,136C 133.939,130.636 132.105,124.136 134,116.5C 136.43,112.566 139.597,109.566 143.5,107.5 Z"/></g>
<g><path style="opacity:1" fill="#f4f4f5" d="M 144.5,112.5 C 151.162,111.997 153.662,114.997 152,121.5C 148.667,125.5 145.333,125.5 142,121.5C 140.927,117.9 141.76,114.9 144.5,112.5 Z"/></g>
<g><path style="opacity:1" fill="#d4d6d6" d="M 104.5,121.5 C 108.85,139.693 119.85,152.193 137.5,159C 165.978,163.346 184.644,151.846 193.5,124.5C 191.972,146.527 180.638,160.693 159.5,167C 137.341,170.671 120.507,162.838 109,143.5C 106.025,136.46 104.525,129.126 104.5,121.5 Z"/></g>
<g><path style="opacity:1" fill="#0f141a" d="M 145.5,182.5 C 165.861,184.043 174.695,195.043 172,215.5C 165.74,232.212 154.24,237.379 137.5,231C 131.285,226.775 127.451,220.942 126,213.5C 124.231,197.801 130.731,187.468 145.5,182.5 Z M 143.5,186.5 C 132.685,192.129 128.185,201.129 130,213.5C 133.166,224.993 140.666,230.493 152.5,230C 165.61,224.954 170.777,215.454 168,201.5C 164.207,189.514 156.04,184.514 143.5,186.5 Z"/></g>
</svg>
