<?xml version="1.0" encoding="UTF-8"?>
<!-- Created with Inkscape (http://www.inkscape.org/) -->
<svg version="1.1" viewBox="0 0 275.29 323.24" xmlns="http://www.w3.org/2000/svg">
 <g transform="translate(24.799 4.7676)">
  <path d="m223.43 229.73c6.222-13.947 3.5865-26.098-5.1464-31.603-7.1607-4.5216-18.282-4.8126-32.11 2.3256 10.516-12.023 19.16-25.845 25.524-40.783 30.304-71.083-1.9284-126.89-49.517-150.45-49.209-24.354-114.83-14.204-144.73 49.156-11.354 3.8742-21.518 12.049-28.077 24.328-9.3088 17.395-10.686 35.907-5.79 49.432-3.8432 34.672 16.689 49.005 34.098 50.94 1.5886 0.1472 3.1335 0.23423 4.6868 0.26938 5.78 25.398 46.25 25.252 64.511-9.6525 8.9145-17.045 13.408-38.607 10.782-55.205 3.0467-9.6866 14.217-15.58 30.143-9.997 20.694 7.2247 23.055 27.705 12.529 55.661-9.3908 24.965-38.61 44.925-63.825 48.745-28.506 4.3266-40.131 21.296-41.402 36.784-0.50021 6.1327 1.0731 11.508 4.2334 16.16-10.028 0.0325-16.723 16.343-3.9877 30.145 21.958 23.757 86.545 26.917 127.62 11.553 41.362-15.488 63.959-38.176 70.909-58.781 4.0069-11.935-2.4582-20.344-10.46-19.012" fill="#796bae"/>
  <path d="m84.236 124.7c-5.86-1.1483-11.708 12.789-15.492 24.385-6.0222 18.427-22.405 32.535-42.157 34.111 3.2408 6.2606 8.0034 10.531 16.92 11.466 11.575 1.2094 26.28-4.964 37.322-20.75 14.222-20.308 10.483-47.801 3.4085-49.212" fill="#922f00"/>
  <path d="m36.957 181.22c6.4679 7.4515 27.1 8.4762 40.762-8.6768 8.7098-10.94 10.235-20.025 7.4489-25.031-2.4338-4.3841-8.5785-5.4023-15.244-2.3272-3.4775 14.385-15.329 31.356-32.967 36.029" fill="#ed8599"/>
  <g fill="#efe908">
   <path d="m66.797 90.8c-7.0662-1.2345-14.215 3.9246-16.842 15.911-3.0073 13.672 3.2771 21.563 7.0187 22.461 4.5906 1.1053 15.474-2.052 18.604-17.188 2.0418-9.7906-2.6298-20.09-8.7803-21.184"/>
   <path d="m55.011 13.058c32.188-11.284 60.703-1.9086 74.647 20.907 13.839 22.649 11.197 54.603-14.031 72.592 7.1481-0.0985 13.286 2.0145 18.681 4.8977 27.478-6.7056 43.418-35.186 39.708-62.618-2.8213-20.889-17.025-41.138-46.124-50.738-24.714-3.9077-51.686 1.5088-72.884 14.96"/>
   <path d="m200.26 182.33c17.314-31.564 8.6219-44.476 0.77718-46.723-10.731-3.0858-22.196 7.0047-30.145 29.759-13.036 37.334-57.035 67.697-87.767 72.682 11.248 4.6687 28.845 5.8977 39.889 4.0803 35.413-12.552 59.23-32.417 77.246-59.797"/>
   <path d="m244.42 206.15c2.7989-2.9688 3.6901-8.5512 1.7618-12.369 2.094-3.1186 2.0531-9.0945-0.91124-11.688 4.1771-2.7701 5.4991-11.284 2.1315-12.685-4.0832-1.684-9.2306 7.8545-6.7765 11.888-4.2103 1.5783-5.6653 7.2601-4.2889 11.102-3.289 3.3056-3.5891 9.318-1.6331 12.896-3.1744 2.2545-5.5601 6.6012-5.4744 11.363-0.8787 0.33854-1.7287 0.83065-2.5382 1.4356-0.38987 3.1087-1.5428 8.3311-2.9779 11.255 5.5244-0.0385 10.127 3.3458 11.423 9.3311 5.5622-3.5811 7.5191-10.887 6.0642-16.224 4.9109-3.834 6.2373-12.143 3.1835-16.309"/>
  </g>
  <path d="m52.556 173.29c11.218-6.0732 24.435-5.1643 20.241 3.8325 7.8172-6.8788 11.356-12.114 13.408-22.616 2.1594-10.86-7.9026-13.162-15.895-9.6514-2.6532 8.7545-8.6732 20.819-17.753 28.435" fill="#ce7486"/>
  <path d="m62.689 189.34c7.8844-3.3008 16.663-11.736 22.666-22.883 8.452-15.674 6.0401-40.834-1.0193-41.698-4.7668-0.60135-9.3603 6.3138-14.038 20.094 7.8897-2.9808 17.219-2.167 16.259 8.9018-0.52066 6.2608-6.3603 17.979-13.753 23.368-1.2969 2.5914-3.4548 6.8437-10.115 12.218" fill="#6a1a00"/>
  <path d="m82.695 171.19c-15.17 27.421-49.13 30.051-56.174 12.335 20.086-1.9009 38.043-16.919 42.981-36.213 2.5438-9.9355 9.2806-23.331 14.428-22.66 7.3359 0.95832 11.276 23.891-1.2354 46.537m-7.6116-70.36c1.655 4.563 0.74559 11.793-0.85741 15.835-21.631 79.768-76.812 61.781-87.805 30.596-0.54094 0.72233-1.8874 0.99153-2.8876-0.14177 0.68694 16.626 15.816 37.191 39.005 36.426 3.1336 17.524 25.343 24.541 47.165 10.232 19.769-12.967 31.444-49.297 28.138-74.675 1.6035-7.0451 7.74-12.391 18.127-12.44 7.6436-5.5552 12.942-13.7 16.356-20.156-17.084-8.9022-42.336-2.2736-57.245 14.341" fill="#695c97"/>
  <path d="m148.02 105.96c-3.9672 2.3886-8.6416 4.4015-13.39 5.6892 10.089 6.6383 16.308 21.297 8.523 46.781 7.9933-23.142 8.6742-40.338 4.8651-52.471" fill="#695c97"/>
  <path d="m132.33 86.493c-3.4349 6.4526-8.7307 14.597-16.356 20.156 3.403-0.0207 7.2553 0.51982 11.547 1.737 2.4925 0.71713 4.8958 1.7924 7.0999 3.2562 4.7676-1.3032 9.4267-3.3206 13.408-5.6862-2.9643-9.4257-8.6277-15.792-15.698-19.473" fill="#cec90c"/>
  <path d="m51.728 103.59c-2.0228 10.338 3.6777 19.994 6.6235 20.821 3.2728 0.8949 12.008-1.0305 16.983-14.443-0.98614 14.276-12.233 21.02-18.343 19.2-7.1537-2.0997-9.3753-14.635-5.2635-25.578" fill="#cec90c"/>
  <g fill="#695c97">
   <path d="m-11.784 136.24c13.09 15.115 46.546 14.582 60.719-24.466l0.23611 3.4533c-10.734 40.441-47.997 46.354-61.128 25.264z"/>
   <path d="m23.118 48.149c16.552 0.01415 32.393 6.5971 41.715 18.277-15.1-10.519-32.323-13.268-47.485-8.235 1.2174-2.0934 3.5789-6.6547 5.7686-10.04"/>
   <path d="m206.59 226.92c-12.626 13.487-34.632 28.706-64.734 36.682-58.365 15.476-111.71-3.0995-100.7-30.528-6.0914 7.2294-7.3693 19-5.501 26.693 21.202 16.504 54.853 25.799 108.09 12.956 44.639-10.741 94.674-59.398 75.949-73.424-7.4925-5.6226-19.634-5.1615-33.172 0.74823-15.348 16.9-38.865 35.237-63.842 41.911 28.217-2.8714 53.058-8.5717 64.382-25.777 8.3473-12.669 20.862-17.466 28.053-12.657 2.7942 1.8932 2.7006 11.411-8.5232 23.395"/>
  </g>
  <path d="m221.18 200.64c11.495 14.41-23.391 53.642-70.873 69.729-54.9 18.582-103.41 2.9169-114.34-11.159 9.2911 29.036 76.997 36.166 117.93 21.588 43.145-15.372 68.043-36.604 72.479-59.451 1.5333-7.9384-0.31929-16.23-5.1969-20.706" fill="#cec90c"/>
  <path d="m29.508 283.91c7.7251 17.45 54.084 31.795 105.76 23.623 59.539-9.4332 100.67-55.439 98.309-71.581 8.9204 30.535-50.849 72.326-97.307 78.592-56.754 7.6252-103.01-5.9531-106.77-30.633" fill="#cec90c"/>
  <path d="m33.942 268.48c-10.149 21.484 63.572 42.901 114.46 26.851 56.426-17.794 86.986-55.089 77.501-65.274 6.8227 0.0571 12.446 6.0995 3.1723 20.927-14.094 22.562-52.435 46.641-77.739 52.774-68.218 16.531-112.97-4.727-121.42-17.001-3.7801-5.4822-1.2511-16.491 4.0243-18.277" fill="#695c97"/>
  <path d="m208.36 167.45c14.982-29.891 19.498-64.174 8.9846-95.901 3.311 23.821 0.21307 48.045-8.8014 70.762 2.1822 5.9602 1.7948 15.452-0.18272 25.14" fill="#695c97"/>
  <g fill="#cec90c">
   <path d="m96.639 241.6c7.115 1.4019 15.472 1.7199 24.278 1.2316 38.607-11.986 70.072-40.728 87.447-75.379 1.9724-9.6889 2.365-19.18 0.16434-25.124-17.029 42.834-55.249 80.257-111.89 99.275"/>
   <path d="m226 224.21c1.8119 2.7472 11.708 2.9598 14.436-3.6637 2.4646 7.3567-0.60823 14.974-5.1761 18.093-0.99165-5.186-5.8362-9.059-11.201-8.9579 0.49516-1.1021 1.483-3.2906 1.9428-5.4709"/>
   <path d="m231.26 210.06c2.2324 4.1125 11.76 4.1652 13.502-3.101 2.9118 4.6892 0.53729 12.398-3.1729 14.809-1.9656-4.3838-6.8066-6.9799-12.423-5.3032 0.21179-1.9932 0.6659-4.1712 2.0918-6.4042"/>
   <path d="m233.76 197.08c2.5523 3.4081 10.945 3.9817 12.673-3.0843 1.5628 4.2078 1.1233 8.4939-1.7896 11.877-2.24-2.0654-6.3926-3.5743-9.8351-0.81994-0.93741-1.4265-1.6753-5.5026-1.0724-7.9793"/>
   <path d="m236.68 185.92c1.6651 2.5004 8.0073 2.1615 9.8174-2.2421 1.4851 2.6951 1.2374 7.1794-0.20445 9.7456-2.3773-3.5717-5.623-4.6325-9.7665-1.0165-0.87765-2.0342-0.69825-4.0911 0.15262-6.4882"/>
   <path d="m240.51 175.4c1.2464 2.657 5.9565 3.4834 8.0514-0.70443 0.11756 2.796-1.2426 5.4507-3.1701 7.5265-0.9127-1.3481-2.8183-1.8758-4.7005-1.0164-0.63367-0.96306-0.7096-4.4866-0.17624-5.8278"/>
  </g>
  <g fill="#0f141b">
   <path d="m54.276 96.431c10.283 2.014 17.031 11.24 15.122 21.784-0.3345 1.8619-1.0849 1.6304-0.96599-0.0478 0.72213-11.822-6.2417-17.1-16.148-18.532 0.45706-0.86341 1.2537-2.0876 1.9999-3.2294"/>
   <path d="m7.7285 174.42c-0.98752-1.6792-2.4489-0.65696-1.4686 0.96795 0.92582 1.4992 2.5608 2.7551 4.2263 3.1539 0.9536 0.25865 1.2378-0.12158 0.24373-0.86021-1.2529-0.95018-2.0931-1.6855-3.0281-3.2606"/>
   <path d="m25.694 171.66c0.51397-1.8865 2.3631-1.2721 1.7775 0.49657-0.62354 1.9062-1.6374 3.3245-2.8155 4.3388-0.95324 0.80547-1.4016 0.41468-0.77422-0.54923 0.91895-1.5239 1.3299-2.5649 1.8097-4.2706"/>
   <path d="m66.548 92.11c-6.5074-1.092-13.034 4.7511-15.253 14.889-2.8151 12.801 3.0481 20.175 6.0148 20.874 3.3827 0.80604 13.775-1.4028 16.849-16.191 2.0798-10.029-3.3346-18.851-7.6115-19.571m0.51871-2.5827c6.5619 1.1007 12.221 11.504 9.879 22.767-3.2083 15.498-14.414 19.509-20.295 18.138-5.1197-1.1898-11.117-10.428-8.1326-24.065 2.6649-12.094 10.196-18.249 18.548-16.84"/>
   <path d="m49.664 119.22c-6.8883 21.986-21.735 34.33-39.904 34.339-27.851-0.0144-40.949-36.361-22.031-71.742 16.192-30.298 53.237-35.327 75.814-16.97 4.6521 3.7859 3.5225 5.3293-1.3791 1.9399-25.323-17.612-57.494-9.0189-71.248 16.704-17.802 33.326-5.8442 66.935 19.059 67.082 17.533 0.09632 32.754-14.479 39.111-39.365z"/>
   <path d="m-14.595 147.91c1.725 17.655 14.578 31.776 32.472 33.731 21.91 2.4283 42.539-11.809 49.469-33 7.1545-21.887 12.871-26.305 17.17-25.488 8.9288 1.7978 11.815 30.978-2.5814 51.559-12.128 17.302-27.884 22.294-38.443 21.19-8.4487-0.92314-15.218-4.9619-18.341-12.556l3.0157-0.32725c2.8799 6.5217 8.8289 9.5926 15.443 10.254 9.986 1.0515 24.549-3.6448 36.128-20.209 14.708-21 9.2758-45.873 4.2184-46.886-4.3529-0.96093-9.7567 10.68-13.89 23.402-7.748 23.838-29.435 37.418-52.564 34.871-19.497-2.1389-34.149-17.107-35.528-38.574z"/>
   <path d="m70.673 143.23c6.7218-2.7203 13.2-1.2126 15.845 3.5031 3.0006 5.4322 1.494 15.103-7.8287 26.81-14.06 17.65-36.438 16.743-43.18 8.0653l2.8426-1.0093c6.5274 6.7295 25.548 6.9142 38.252-9.0584 9.0603-11.373 9.3675-19.413 7.2254-23.265-2.287-4.1372-8.5507-4.52-14.518-1.1153z"/>
   <path d="m23.919 183.3c5.6164 23.72 44.172 22.987 61.626-10.395 11.102-21.22 14.41-46.762 8.8339-62.967-1.6475-4.8438 0.06458-5.4701 2.0012-0.77119 6.7835 16.529 3.1871 43.64-8.1601 65.345-18.832 36.014-61.809 36.229-67.427 8.7555z"/>
   <path d="m188.23 197.72c12.095-5.6894 23.033-6.1389 30.963-1.1382 19.2 12.112 12.598 57.342-58.507 83.734-50.976 18.927-130.82 9.671-127.52-30.774 1.1164-13.692 10.826-33.482 43.273-38.4 22.254-3.3732 52.567-22.07 62.176-47.582 10.747-28.521 7.2666-46.851-11.32-53.365-18.487-6.4628-27.571 2.9368-28.937 12.197l-1.4034-6.6058c4.3406-9.8929 16.791-14.061 31.387-8.9721 19.447 6.8022 25.818 25.33 13.503 58.031-9.7985 25.989-38.731 45.919-65.038 49.753-29.171 4.2583-38.802 22.259-39.867 35.396-2.8913 35.274 72.257 45.639 122.3 27.05 65.717-24.381 76.076-65.99 58.087-77.345-7.4857-4.7224-19.487-4.2016-33.832 3.9457z"/>
   <path d="m111.27 243.11c42.917-9.1208 79.806-40.094 98.675-84.341 29.879-70.062-2.495-125.1-48.714-147.96-51.313-25.403-113.53-11.406-141.56 46.845l-4.8264 1.6715c30.733-65.89 97.917-76.655 148.05-51.835 48.026 23.771 81.583 79.86 50.376 153.07-16.593 38.925-49.284 70.286-87.756 81.9z"/>
   <path d="m113.5 106.23c23.162-15.879 29.691-46.668 14.617-71.334-13.809-22.606-42.385-31.71-74.991-19.573l7.2693-5.4463c29.795-8.4 56.72 0.23381 70.756 23.176 14.225 23.292 10.818 55.801-13.12 73.488z"/>
   <path d="m134.02-0.95737c23.8 9.28 38.712 27.445 41.728 49.699 4.0478 30.02-14.213 57.773-40.214 63.794l-2.9715-2.1822c26.136-5.7 43.548-32.594 39.661-61.386-3.1582-23.365-20.683-43.148-49.884-51.395z"/>
   <path d="m201.81 176.06c11.83-25.195 5.4147-36.917-1.2164-38.821-10.069-2.8843-21.036 8.091-28.191 28.571-12.621 36.142-54.812 67.057-86.95 73.207l-3.9972-2.1225c31.544-4.3115 75.207-35.629 87.957-72.108 8.4679-24.249 20.267-34.19 32.055-30.788 8.0237 2.2918 15.075 12.673 6.7012 34.441z"/>
   <path d="m147.29 201.59c-6.5493-3.6525-13.224-14.273-14.973-23.074l2.4088-3.5578c0.64349 7.9667 7.8576 21.206 14.599 24.477z"/>
   <path d="m127.92 218.2c-7.4044-5.3479-11.459-14.048-11.108-23.771l3.1456-2.541c-0.87232 10.297 2.7506 18.983 10.353 24.269z"/>
   <path d="m79.674 237.67c-4.5222-2.6-3.5568-4.4144 1.1331-2.1654 29.318 14.103 86.507 0.10928 103.26-17.225 3.8894-4.0344 5.0425-3.0256 1.617 1.402-14.653 18.776-78.016 34.055-106.01 17.987"/>
   <path d="m197.79 244.28c1.9408-12.04-5.6604-21.212-16.343-22.016l2.7086-2.4033c10.403 0.91055 17.957 10.374 16.919 21.582z"/>
   <path d="m176.93 258.21c3.4836-12.057-4.1332-23.839-15.729-24.921l4.8611-1.8894c10.555 2.6587 17.154 13.643 14.395 25.046z"/>
   <path d="m36.13 256.95c9.2172 14.685 59.221 30.419 113.69 11.974 48.276-16.355 81.827-56.4 69.627-68.39l4.738 3.3474c5.3427 18.026-29.324 53.183-73.253 68.055-52.58 17.807-99.349 4.5037-113.71-9.3324z"/>
   <path d="m224.1 228.05c8.6286-1.0273 15.666 7.7947 11.172 21.134-8.46 25.132-33.872 45.813-71.677 59.954-39.605 14.83-106.6 12.787-129.44-11.937-13.314-14.419-7.3011-32.097 4.2444-32.919l2.0644 3.1653c-8.8533-0.73769-15.864 14.134-3.683 27.303 21.378 23.158 84.251 26.701 125.77 11.163 36.49-13.657 62.243-35.184 69.804-57.626 3.8612-11.489-2.3568-18.263-9.6402-16.855z"/>
   <path d="m234.6 237.32c1.1468 17.844-39.88 62.29-99.149 71.672-50.335 7.9743-96.692-5.2073-106.23-22.702l0.46979-6.4754c2.0859 17.394 48.487 35.106 105.46 26.09 62.425-9.8732 103.47-59.852 96.436-71.017z"/>
   <path d="m73.872 307.12c-2.0059-6.9642-0.37478-15.882 3.7072-21.556l3.4314 0.60097c-4.3533 5.2734-6.0564 14.442-4.0989 21.343z"/>
   <path d="m109.05 309.84c0.0187-6.716-0.65066-16.02-1.8261-21.951l3.161-0.038c1.0329 6.2274 1.6842 15.078 1.4466 21.965z"/>
   <path d="m234.54 237.2c6.9926-4.5333 7.8915-16.739 1.6029-19.339-3.4112-1.4277-6.8378-0.54894-9.674 1.9298l0.31841-3.3276c3.1323-2.0909 6.9672-2.3779 10.384-0.97054 9.1919 3.7924 7.1425 20.509-2.2032 25.099z"/>
   <path d="m240.75 220.99c4.7583-4.0446 5.648-13.85 0.55618-15.715-4.6117-1.6726-10.523 4.1947-10.593 10.978l-2.7998 1.0746c-0.48906-10.1 7.4554-16.94 14.229-14.47 7.8413 2.8479 6.6231 16.354-0.48747 21.15z"/>
   <path d="m233.67 206.25c-3.192-5.5-1.2557-14.596 5.3263-16.567 2.6988-0.80878 3.2795 0.48629 0.71006 1.6509-4.8382 2.2123-6.236 8.5018-3.7954 13.077z"/>
   <path d="m243.51 205.1c2.7858-3.1199 3.9062-9.3052 0.40481-12.867-1.8404-1.8686-0.74018-2.8954 1.2888-1.2414 4.562 3.7502 4.3273 12.159 0.0455 16.411z"/>
   <path d="m245.43 192.36c1.8382-3.5159 1.331-7.6706-1.1072-9.8613-1.621-1.4771-0.65436-2.5997 1.2244-1.4379 3.9392 2.4857 4.716 10.081 1.3327 14.214z"/>
   <path d="m235.25 193.52c-2.1379-5.0711 0.29963-12.208 5.7391-13.254 2.1486-0.42843 2.4544 1.0888 0.38392 1.8276-3.4397 1.2172-4.9526 5.6283-3.7756 9.4202z"/>
   <path d="m244.11 181.25c4.8476-2.7375 4.8436-10.244 2.9519-10.959-2.6905-1.0094-7.5386 7.1297-5.0472 10.587l-2.447 0.99795c-2.6268-5.0746 2.7977-15.525 8.267-13.339 4.5028 1.7882 2.8128 11.541-1.5894 14.555z"/>
  </g>
  <path d="m-18.318 115.91c1.4691-0.13788 4.9109 7.4471 5.7973 15.415 1.0368 9.2686-0.46909 16.236-1.8353 16.562-1.6979 0.40463-8.0189-4.7916-8.8961-14.934-0.81086-9.2511 3.1696-16.855 4.934-17.043" fill="#efe908"/>
  <path d="m-22.055 126.02c-0.06675 10.05 4.5775 16.591 6.0058 16.462 0.83728-0.0792 2.3825-2.2266 2.793-10.796 1.7639 9.0468 0.34695 15.69-1.3932 16.125-1.3693 0.34537-10.829-6.2351-7.4072-21.791" fill="#cec90c"/>
  <path d="m-17.219 116.73c-3.7041 5.3397-3.564 20.659 0.7107 26.109 0.95145 1.2053 1.3753 0.91651 0.76988-0.59002-2.6759-6.7334-2.8314-16.124 0.55342-21.796-0.47165-1.1447-1.178-2.3853-2.0337-3.7243" fill="#0f141b"/>
  <path d="m-18.325 117.39c-0.82072-0.0246-4.2353 7.0006-3.4921 15.509 0.82383 9.4032 6.2656 13.895 7.0714 13.666 0.76565-0.19699 1.7707-6.4927 0.81218-15.185-0.81215-7.2435-3.6424-13.983-4.392-13.99m-6.3848 15.666c-0.70437-8.0519 2.9079-18.098 6.3763-18.445 1.9869-0.21485 6.0402 5.9015 7.2475 16.679 0.96762 8.7691-0.22828 17.193-3.0102 17.856-2.3403 0.56276-9.6343-4.9005-10.607-16.089" fill="#0f141b"/>
 </g>
</svg>
