<?xml version="1.0" encoding="UTF-8"?>
<!-- Created with Inkscape (http://www.inkscape.org/) -->
<svg version="1.1" viewBox="0 0 363 296.79" xmlns="http://www.w3.org/2000/svg">
 <path transform="matrix(9.4037 0 0 -9.4037 291.77 162.14)" d="m0 0c0.256 0.697 0.733 2.449 0.695 3.177-0.028 0.525 0.087 1.288 0.312 1.772-0.319-0.368-0.583-0.801-0.62-1.214-0.129-1.449-0.545-2.609-1.36-3.534-1.016-1.154-2.63-1.752-3.142-1.929 0.049-0.235 0.245-0.825 0.444-1.028 0.378-0.386 3.461-2.03 3.614-2.995 0.101-0.633-1.371-1.534-1.378-1.538-0.08-0.658 1.445-2.06 1.978-2.046 0.865 0.023 2.468 2.813 2.452 3.208-0.034 0.843-3.12 5.785-2.995 6.127" fill="#ffe100"/>
 <path transform="matrix(9.4037 0 0 -9.4037 288.52 17.627)" d="m0 0c-0.982 0.026-1.604-0.723-1.434-1.46 0.263-0.097 1.804-0.781 2.096-0.926 0.315 0.171 0.689 0.288 1.081 0.354-0.228 1.326-1.073 2.014-1.743 2.032" fill="#e6ebee"/>
 <path transform="matrix(9.4037 0 0 -9.4037 271.17 60.755)" d="m0 0c0.183 6e-3 1.099-0.194 2.152-0.439-0.243 0.208-0.383 0.847-0.309 1.206-0.208-0.011-0.422-0.033-0.642-0.064-0.254 0.269-0.531 0.769-0.765 1.262-1.211-1.007-1.995-1.85-2.095-3.419-0.08-1.259 0.684-3.661 4.01-3.038 0.094 0.018 0.186 0.038 0.278 0.061 0.191 0.399 0.762 1.442 1.023 1.903-0.44 0.296-3.242 2.019-3.652 2.528" fill="#e6ebee"/>
 <path transform="matrix(9.4037 0 0 -9.4037 173.8 42.455)" d="M 0,0 C 0.659,-0.042 1.396,-0.242 2.096,-0.515 3.039,0.192 2.614,2.606 0.847,2.346 1.003,1.462 0.721,0.513 0,0" fill="#b6aed1"/>
 <path transform="matrix(9.4037 0 0 -9.4037 71.473 254.96)" d="m0 0c-0.32 0.399-1.235 0.565-1.655-0.225 0.514-0.32 0.846-1.148 0.922-1.595 0.321-0.227 1.317-0.687 1.408-0.563 0.136 0.181-0.013 1.558-0.675 2.383" fill="#efeddf"/>
 <path transform="matrix(9.4037 0 0 -9.4037 258.71 61.654)" d="m0 0c-0.978-0.617-3.44-0.476-5.083 0.589-0.754 0.489-2.611 1.368-3.947 1.453 1.177 0.838 1.278 3.373-0.529 4.162-1.867 0.815-4.261-0.273-4.529-2.203-1.723-0.701-1.934-3.331-0.805-4.254-0.878-0.523-1.486-1.746-1.032-2.939 0.504-1.325 2.398-2.507 4.635-2.471 3.72 0.061 5.709 2.733 11.09 3.06-0.271 0.856-0.251 1.608 0.2 2.603" fill="#b6aed1"/>
 <path transform="matrix(9.4037 0 0 -9.4037 316.04 29.566)" d="m0 0c0.134 0.453-0.025 0.943-0.391 1.254-0.478 0.406-1.33 0.534-1.892-0.172 0.524-0.301 0.945-0.949 1.099-1.845 0.736 0.124 1.535 0.068 2.123-0.141 0.058 0.058 0.131 0.121 0.216 0.187-0.462 0.269-0.872 0.503-1.155 0.717" fill="#e6ebee"/>
 <path transform="matrix(9.4037 0 0 -9.4037 69.293 252.99)" d="m0 0c0.467-0.296 0.958-1.507 0.949-2.357 0.09-0.06 0.218-0.103 0.239-0.069 0.391 0.635 0.254 2.776-1.188 2.426" fill="#efeddf"/>
 <path transform="matrix(9.4037 0 0 -9.4037 108.42 111.76)" d="m0 0c-0.814-0.773-2.354-2.627-3.007-3.493-1.205 5.009-0.269 10.125 0.278 12.159-2.634-0.988-5.281-4.281-6.735-6.738 0.017 0.347-3e-3 0.992-0.015 1.181-0.129-0.281-0.372-1.234-0.383-1.336-0.224 0.554-0.893 1.769-1.143 2.088 0.068-0.463 0.63-2.339 0.721-2.59-0.318-0.045-0.903-0.152-1.169-0.22 0.223-0.109 0.872-0.341 1.147-0.433-0.251-0.569-0.592-1.381-0.623-1.503 0.304 0.273 0.869 0.691 1.086 0.843 0.092-0.34 0.656-1.552 0.831-1.917-0.023 0.653-0.11 1.841-0.155 2.213 0.106-0.091 0.481-0.322 0.656-0.413-0.129 0.182-0.459 0.686-0.565 0.85 0.364 0.125 0.77 0.334 0.907 0.402-0.167 0.032-0.844 0.175-1.174 0.238 0.887 1.542 4.125 4.922 5.167 5.396-0.889-3.573-0.443-9.582 0.896-12.118 0.566 0.965 2.264 3.13 3.041 3.753-0.046 0.504 0.048 1.131 0.239 1.638" fill="#59c2e1"/>
 <path transform="matrix(9.4037 0 0 -9.4037 115.08 101.01)" d="m0 0c-0.936-1.173-1.207-2.81-0.61-3.874 0.406 0.914 0.899 1.801 1.43 2.403 0.203 0.23 0.412 0.417 0.623 0.549-0.555 0.226-1.055 0.531-1.443 0.922" fill="#e6ebee"/>
 <path transform="matrix(9.4037 0 0 -9.4037 193.51 47.301)" d="m0 0c0.398-0.155 0.783-0.334 1.135-0.52 0.059 0.593-0.252 1.223-0.708 1.266-0.061-0.283-0.2-0.545-0.427-0.746" fill="#b6aed1"/>
 <path transform="matrix(9.4037 0 0 -9.4037 347.13 62.686)" d="m0 0c0.257 0.129 0.538 0.266 0.795 0.385-0.374 0.576-0.897 1.058-1.455 1.469-3e-3 -0.057-8e-3 -0.113-0.013-0.167 0.307-0.231 0.676-1.204 0.673-1.687" fill="#e6ebee"/>
 <path transform="matrix(9.4037 0 0 -9.4037 340 28.697)" d="m0 0c-0.232-0.058-1.55-0.938-1.608-0.997-1.263 0.45-2.476 0.184-3.204-0.212-0.372 0.185-2.22 1.019-2.617 1.084 0.101-0.346 0.937-2.185 1.311-2.581 1.742 0.252 3.879-0.107 4.645-2.351 0.125-0.102 0.604-0.375 0.888-0.421 0.137 0.103 0.327 0.285 0.562 0.573 0.148 0.27-0.088 2.077-0.014 2.419 0.207 0.424 0.18 1.71 0.037 2.486" fill="#686d70"/>
 <path transform="matrix(9.4037 0 0 -9.4037 339.46 53.312)" d="m0 0c-0.027-0.31 0.041-0.83 0.081-1.305 0.157 0.122 0.244 0.366 0.27 0.641-0.036 0.317-0.208 0.587-0.351 0.664" fill="#e50013"/>
 <path transform="matrix(9.4037 0 0 -9.4037 340.8 46.819)" d="m0 0c-9e-3 -0.095-0.02-0.184-0.035-0.265 0.387-0.483 0.282-1.452-0.021-1.806 0.156 0.09 0.425 0.231 0.729 0.384 2e-3 0.483-0.367 1.455-0.673 1.687" fill="#ffe100"/>
 <path transform="matrix(9.4037 0 0 -9.4037 342.75 59.555)" d="m0 0c0.037 0.397-0.053 0.852-0.243 1.089-0.021-0.116-0.103-0.376-0.108-0.425 0.143-0.078 0.315-0.347 0.351-0.664" fill="#fff"/>
 <path transform="matrix(9.4037 0 0 -9.4037 322.34 68.304)" d="m0 0c-0.513 0.796-1.296 1.298-2.29 1.49 0.025-1.415 0.86-1.699 2.29-1.49" fill="#fff"/>
 <path transform="matrix(9.4037 0 0 -9.4037 300.8 54.291)" d="m0 0c-0.403 0.078-0.84 0.105-1.309 0.08-0.073-0.36 0.067-0.998 0.31-1.206 1.425-0.331 3.099-0.745 3.549-0.842-0.077 0.169-0.164 0.329-0.26 0.478-1.43-0.21-2.265 0.075-2.29 1.49" fill="#ffe100"/>
 <g fill="#efeddf">
  <path transform="matrix(9.4037,0,0,-9.4037,286.36,244.07)" d="m0 0c-0.612-2e-3 -1.546 0.117-2.068 0.444 0.616-0.912 1.902-1.364 2.882-1.008-0.264 0.097-0.552 0.309-0.814 0.564"/>
  <path transform="matrix(9.4037,0,0,-9.4037,332.36,101.84)" d="m0 0c-0.112-0.118-0.274-0.549-0.316-0.737 0.16 0.025 0.318 0.066 0.458 0.121 6e-3 0.042 0.013 0.084 0.019 0.126-0.027 0.141-0.092 0.363-0.161 0.49"/>
  <path transform="matrix(9.4037,0,0,-9.4037,320.1,104.6)" d="m0 0c-0.027-0.089-0.054-0.179-0.083-0.269 0.077-0.092 0.218-0.151 0.391-0.182 0.018 0.178 0.016 0.568-0.035 0.756-0.082-0.056-0.2-0.208-0.273-0.305"/>
 </g>
 <path transform="matrix(9.4037 0 0 -9.4037 311.52 95.833)" d="m0 0c-0.301-0.15-0.591-0.295-0.85-0.423 0.138-0.14 0.891-0.812 0.907-0.826-8e-3 0.532-0.023 1.033-0.057 1.249" fill="#e6ebee"/>
 <path transform="matrix(9.4037 0 0 -9.4037 303.53 99.81)" d="m0 0c-0.377-0.186-0.689-0.334-0.867-0.402 0.01 0.027-0.129 0.081-0.223 0.063-2.32-1.583-2.428-3.0656-3.037-3.649-0.288-1.833-1.083-3.216-1.675-4.511 1.887 0.583 4.601 1.805 4.939 5.606 0.076 0.855 1.176 1.887 1.721 2.11-0.351 0.306-0.72 0.643-0.858 0.783" fill="#e6ebee"/>
 <path transform="matrix(9.4037 0 0 -9.4037 334.07 105.07)" d="M 0,0 C 0.016,0.113 0.031,0.228 0.045,0.342 0.081,0.676 0.093,0.926 0.099,1.061 0.106,1.191 0.118,1.663 0.076,2.056 0.05,2.074 0.024,2.092 0,2.108 -0.221,2.029 -0.537,1.888 -0.899,1.718 -0.478,1.48 -0.106,0.389 0,0" fill="#923000"/>
 <path transform="matrix(9.4037 0 0 -9.4037 342.26 99.446)" d="M 0,0 C 0.229,0.003 0.473,0.073 0.707,0.204 0.543,0.346 0.352,0.514 0.156,0.684 0.139,0.54 0.083,0.294 0,0" fill="#e6ebee"/>
 <path transform="matrix(9.4037 0 0 -9.4037 325.62 88.914)" d="m0 0c-0.079-0.037-0.161-0.076-0.244-0.116-0.012-0.301-0.152-0.912-0.342-1.552 0.073 0.096 0.191 0.248 0.272 0.304 0.052-0.187 0.054-0.577 0.036-0.755 0.2-0.035 0.442-0.031 0.679 7e-3 0.042 0.188 0.204 0.619 0.316 0.737-0.07 0.321-0.296 1.138-0.717 1.375" fill="#ed8599"/>
 <path transform="matrix(9.4037 0 0 -9.4037 362.06 56.043)" d="m0 0c-0.129-0.027-2.161-1.001-2.317-1.09 0.032-0.397 0.039-0.751-0.052-0.907-0.235-0.288-0.425-0.471-0.562-0.573-0.285 0.046-0.763 0.319-0.888 0.421-0.044 0.128-0.092 0.25-0.145 0.367-0.45 0.097-5.518 1.287-5.701 1.281 0.41-0.509 3.211-2.232 3.652-2.528-0.261-0.461-1.068-2-1.078-2.028 0.178 0.069 3.894 1.873 4.115 1.952 0.024-0.016 1.93-1.608 2.012-1.663-0.01 0.103-0.478 1.932-0.562 2.126 0.094 0.193 1.503 2.515 1.526 2.642" fill="#59c2e1"/>
 <path transform="matrix(9.4037 0 0 -9.4037 335.2 86.026)" d="m0 0c0.112-0.75-0.302-3.279-0.427-3.755 0.604 0.154 1.294 2.669 1.334 3.012-0.32 0.277-0.654 0.559-0.907 0.743" fill="#efeddf"/>
 <path transform="matrix(9.4037 0 0 -9.4037 319.33 107.13)" d="m0 0c-0.057-0.182-0.118-0.363-0.18-0.537 0.266-0.194 1.065-0.254 1.625-0.035 0.028 0.163 0.056 0.338 0.083 0.518-0.417-0.162-1.25-0.281-1.528 0.054" fill="#e6ebee"/>
 <path transform="matrix(9.4037 0 0 -9.4037 311.52 95.833)" d="m0 0c0.034-0.216 0.067-2.771 0.086-2.963 0.374 0.486 1.143 2.892 1.169 3.582-0.399-0.192-0.837-0.41-1.255-0.619" fill="#efeddf"/>
 <path transform="matrix(9.4037 0 0 -9.4037 278.28 230.68)" d="m0 0 0.021 0.012c-0.475 0.06-1.617-0.474-1.598-0.547 0.151-0.607 1.254-0.892 2.437-0.889-0.496 0.483-0.897 1.119-0.86 1.424" fill="#efeddf"/>
 <path transform="matrix(9.4037 0 0 -9.4037 178.34 235.45)" d="m0 0c-0.302 0.551-1.132 1.731-1.593 2.967 0.699 0.668 2.228 2.218 2.414 2.558 0.177 0.323 0.324 1.036 0.561 1.505-0.107 0.037-0.211 0.071-0.313 0.102-0.277 0.086-0.528 0.143-0.728 0.143-0.272-0.428-0.519-0.847-0.613-1.082 0 0.259-0.076 0.486-0.129 0.684-0.326-0.334-0.79-0.744-1.253-0.995 0.122 0.235 0.41 0.813 0.494 1.025-0.162-0.167-0.812-0.785-1.23-0.994 0.068 0.088 0.213 0.306 0.394 0.605-1.148-1.449-1.929-2.005-3.135-2.539-0.324-0.73-0.749-1.62-0.289-2.007 1.607-1.352 2.552-2.24 3.273-4.434 0.161-0.49 1.227-0.61 1.868-0.531-0.19 0.162 0.013 1.098 0.422 1.368 0.1 0.457 0.414 0.721 0.759 0.748 0.087 0.085 0.205 0.127 0.339 0.132-0.109 0.187-1.093 0.475-1.241 0.745" fill="#ffe100"/>
 <path transform="matrix(9.4037 0 0 -9.4037 357.56 64.649)" d="m0 0c-0.412-0.691-0.954-1.534-1.048-1.727 0.084-0.194 0.305-0.974 0.444-1.549 1.293 1.092 0.838 2.711 0.604 3.276" fill="#e6ebee"/>
 <g fill="#efeddf">
  <path transform="matrix(9.4037,0,0,-9.4037,189.64,244.03)" d="m0 0c-0.379 0.137-0.908-0.041-1.058-0.712 0.302 0.23 1.634-0.066 1.81-1.255 0-4e-3 -1e-3 -8e-3 -3e-3 -0.012 0.367-0.022 0.936-0.018 0.929 0.073-0.031 0.405-0.809 1.591-1.678 1.906"/>
  <path transform="matrix(9.4037,0,0,-9.4037,257.25,272.84)" d="m0 0c-0.634 0.239-1.257-0.291-1.363-0.648 4e-3 -1e-3 8e-3 -1e-3 0.012-2e-3 0.712-0.12 1.397-1.136 1.523-1.587 0.251-0.063 1.248-0.302 1.271-0.181 0.1 0.537-1.059 2.273-1.443 2.418"/>
  <path transform="matrix(9.4037,0,0,-9.4037,186.82,243.7)" d="M 0,0 C 0.515,0.12 1.78,-1.129 1.955,-1.812 2.09,-0.398 0.439,0.47 0,0"/>
  <path transform="matrix(9.4037,0,0,-9.4037,258.24,273.33)" d="M 0,0 C 0.543,-0.323 1.086,-1.508 1.271,-2.075 1.394,-2.1 1.532,-2.107 1.527,-2.017 1.443,-0.642 0.452,0.22 0,0"/>
 </g>
 <g fill="#e6ebee">
  <path transform="matrix(9.4037,0,0,-9.4037,181.55,167.03)" d="m0 0c-0.272-0.428-0.519-0.847-0.613-1.082 0 0.258-0.076 0.486-0.129 0.684-0.327-0.335-0.79-0.745-1.253-0.995 0.121 0.235 0.41 0.812 0.493 1.025-0.161-0.167-0.811-0.786-1.23-0.995 0.068 0.088 0.214 0.307 0.394 0.606-0.481-0.607-1.315-1.632-2.364-2.174-0.125-0.064-0.254-0.127-0.385-0.189 0.195-0.522 0.99-1.384 1.239-1.514 0.039-0.02 0.551 0.102 0.677 0.244 0.843 0.955 2.909 2.227 3.274 2.764 0.154 0.227 0.363 1.219 0.625 1.483-0.277 0.085-0.528 0.143-0.728 0.143"/>
  <path transform="matrix(9.4037,0,0,-9.4037,282.62,160.25)" d="m0 0c-0.656-0.745-1.571-1.338-2.804-1.806-7e-3 -0.188-0.018-0.619 0.087-0.929 0.041-0.12 0.221-0.326 0.37-0.47 0.63-0.407 1.918-1.185 2.677-1.902 0.129-0.017 0.362-0.029 0.404-2e-3 0.136 0.085 0.385 2.173 0.398 2.46 0.011 0.22-1.085 1.772-1.132 2.649"/>
  <path transform="matrix(9.4037,0,0,-9.4037,204.52,161.74)" d="m0 0c-0.035 0.11 0.0099626 0.47159 0.089963 0.92659-0.303-0.05-1.1132-0.097074-1.611-0.17559-0.207-0.273-0.617-0.835-0.921-1.313 0.331 0.046 2.245-0.717 2.715-0.729-0.144 0.515-0.202 0.906-0.273 1.291"/>
 </g>
 <path transform="matrix(9.4037 0 0 -9.4037 256.83 86.131)" d="m0 0c-6.049-0.251-8.661-4.503-13.631-2.505-1.669-1.042-2.559-4.231-2.864-5.17-0.912-2.81-3.579-2.621-3.771-3.287-0.112-0.389-1.764-4.239-2.896-5.446-0.252-0.269-0.171-1.697 0.137-2.391 0.075-0.17 0.321-0.34 0.47-0.392-0.379 0.369 0.759 1.402 1.189 1.013 0.237 0.445 0.917 0.754 1.423 0.434 0.34 0.09 0.605 0.032 0.806-0.117-0.14 1.031 0.152 2.636 1.51 3.959 1.792 1.744 5.034 1.184 7.284 4.542-0.18-0.299-0.326-0.517-0.394-0.606 0.419 0.21 1.069 0.828 1.23 0.995-0.083-0.213-0.372-0.79-0.493-1.025 0.463 0.251 0.926 0.661 1.253 0.995 0.053-0.198 0.128-0.426 0.128-0.684 0.095 0.235 0.341 0.654 0.614 1.082 0.304 0.479 0.714 1.041 0.922 1.313 0.526 7e-3 1.2763 0.084654 1.5783 0.13565-0.286-0.902 0.3787-2.8047 0.3827-3.2177 0.011-1.272-0.303-2.591-0.422-3.063-0.273-1.094 0.632-1.627 1.162-3.155 1.082-3.12 0.092-3.709 0.273-4.202 0.161-0.437 1.307-0.849 1.873-0.932-0.126 0.317 0.4 1.294 0.918 1.221 0.105 0.357 0.729 0.888 1.362 0.649 0.245-0.093 0.458 0.095 0.187 0.286-0.314 0.22-1.156 1.161-1.219 1.304-0.313 0.707-0.681 4.434-0.547 5.956 0.194 2.187 2.243 4.571 2.373 6.865 0.87061 0.46432 0.74152 2.0764 3.038 3.65-1.534-0.288-3.361 0.164-3.876 1.793" fill="#ffe100"/>
 <g fill="#30363a">
  <path transform="matrix(9.4037,0,0,-9.4037,99.308,180.81)" d="m0 0c-0.017 0.069-0.151 0.934-0.116 1.508-0.228-0.396-0.507-0.703-0.807-0.947 0.013-0.412-0.241-1.174 8e-3 -1.68 0.462 0.148 2.971 1.081 3.554 1.617-0.407-0.111-2.176-0.322-2.639-0.498"/>
  <path transform="matrix(9.4037,0,0,-9.4037,148.11,117.33)" d="m0 0c-0.398-0.666-1.038-2.441-1.333-3.357-0.222-0.064-1.925-0.933-2.323-1.164-9e-3 0.333 0.02 2.422 0.075 3.116 0.185 0.268 1.203 1.633 1.795 2.059-0.135 0.05-0.304 0.135-0.448 0.135-0.514-0.447-0.871-1.043-1.066-1.353-0.299-0.477-0.577-1.021-0.823-1.575-0.133-0.299-0.256-0.602-0.369-0.898-0.036-0.618 0.017-2.24 0.05-2.714 0.74 0.481 3.284 0.98 4.385 1.571 0.046 0.352 0.112 3.366 0.057 4.18"/>
  <path transform="matrix(9.4037,0,0,-9.4037,176.75,116.03)" d="m0 0c0.13 0.148 0.399 0.536 0.581 0.79-0.674-0.266-1.308-0.472-1.914-0.557-5e-3 -1e-3 -0.01-1e-3 -0.016-2e-3 0.452-0.497 1.595-1.89 1.982-2.397-0.136 0.735-0.456 1.54-0.633 2.166"/>
  <path transform="matrix(9.4037,0,0,-9.4037,216.27,94.507)" d="m0 0c-0.354-0.285-0.692-0.699-0.982-1.195-0.143 0.13-0.528 0.455-0.627 0.552-0.248-0.106-0.49-0.211-0.728-0.315 0.136-0.178 0.705-0.988 0.877-1.244-0.251-0.667-0.39-1.32-0.412-2.048 0.74 1.321 3.041 4.214 4.214 4.911-0.831-0.163-1.609-0.397-2.342-0.661"/>
  <path transform="matrix(9.4037,0,0,-9.4037,221.69,118.4)" d="m0 0c0.198-0.683 1.693-3.299 1.701-3.482-0.285-0.58-1.344-2.228-1.458-2.399-0.432 0.365-1.298 1.788-1.389 2.005 0.023 0.672 0.265 3.029 0.224 3.375-0.49-1.116-0.962-3.551-0.861-4.058 0.294-0.928 1.419-2.331 2.068-3.219 0.478 0.812 2.282 3.765 2.388 4.236-0.501 0.854-2.301 3.185-2.673 3.542"/>
 </g>
 <path transform="matrix(9.4037 0 0 -9.4037 244.54 278.95)" d="m0 0c-4e-3 1e-3 -8e-3 1e-3 -0.011 1e-3 -0.518 0.073-1.044-0.904-0.918-1.221 0.083-0.208 2.506-0.714 2.47-0.45-0.023 0.176-0.56 1.504-1.541 1.67" fill="#efeddf"/>
 <path transform="matrix(9.4037 0 0 -9.4037 181.85 250.03)" d="m0 0c-0.612 4e-3 -0.9-1.378-0.607-1.465 1e-3 -1e-3 2.221-0.105 2.186 0.136-0.098 0.669-0.767 1.324-1.579 1.329" fill="#efeddf"/>
 <path transform="matrix(9.4037 0 0 -9.4037 224.16 207.06)" d="M 0,0 C -0.333,0.377 -1.113,1.36 -1.412,1.626 -1.224,0.822 -0.115,-1.536 0.044,-1.753 0.266,-1.31 1.129,1.28 1.184,1.535 0.785,1.047 0.111,0.2 0,0" fill="#30363a"/>
 <path transform="matrix(9.4037 0 0 -9.4037 55.911 257.07)" d="m0 0c-0.461 0.287-1.553-0.661-1.175-1.029 0.093-0.091 2.054-1.096 2.109-0.8 0.04 0.219-0.213 1.379-0.934 1.829" fill="#efeddf"/>
 <path transform="matrix(9.4037 0 0 -9.4037 310.34 36.703)" d="m0 0c-0.081-0.373 1.269-0.852 1.499-0.46 0.19 0.324-0.162 0.665-0.479 0.765-0.454 0.142-0.967-0.063-1.02-0.305" fill="#686d70"/>
 <path transform="matrix(9.4037 0 0 -9.4037 332.28 52.2)" d="m0 0c-0.14 0.354-0.525 0.536-0.684 0.448-0.09-0.05-0.148-0.422 0.018-0.796 0.132-0.296 0.491-0.524 0.629-0.448 0.189 0.105 0.155 0.498 0.037 0.796" fill="#686d70"/>
 <path transform="matrix(9.4037 0 0 -9.4037 308.55 56.839)" d="m0 0c-0.245-0.053-0.378-0.39-0.298-0.751 0.03-0.135 0.087-0.258 0.16-0.354 0.047-0.062 0.591-0.218 0.647-0.131 0.097 0.148 0.13 0.456 0.081 0.676-0.081 0.361-0.345 0.613-0.59 0.56" fill="#e50013"/>
 <path transform="matrix(9.4037 0 0 -9.4037 256.02 81.536)" d="m0 0c0.225-1.261 1.227-2.795 3.962-2.282 0.094 0.018 0.187 0.038 0.279 0.061 0.097 0.204 0.293 0.575 0.497 0.951-1.688-0.261-3.559 0.107-4.738 1.27" fill="#c1c6c9"/>
 <path transform="matrix(9.4037 0 0 -9.4037 175 41.521)" d="m0 0c-0.041-0.035-0.083-0.068-0.127-0.099 0.658-0.042 1.396-0.242 2.095-0.516 0.334 0.251 0.496 0.715 0.488 1.2-0.507-0.623-1.588-0.704-2.456-0.585" fill="#9b94b3"/>
 <path transform="matrix(9.4037 0 0 -9.4037 62.498 265.61)" d="m0 0c0.114-0.252 0.19-0.503 0.221-0.688 0.321-0.227 1.317-0.687 1.409-0.563 0.068 0.091 0.064 0.48-0.039 0.95-0.492-0.185-1.127-0.037-1.591 0.301" fill="#c9c8bc"/>
 <path transform="matrix(9.4037 0 0 -9.4037 109.76 93.506)" d="m0 0c0.608-1.244 2.423-2.31 4.549-2.276 2.714 0.045 4.508 1.478 7.368 2.378-0.072 0.621-8.158-3.729-11.917-0.102" fill="#9b94b3"/>
 <path transform="matrix(9.4037 0 0 -9.4037 75.909 263.37)" d="m0 0c0.151-0.414 0.249-0.871 0.245-1.254 0.09-0.06 0.219-0.102 0.24-0.068 0.08 0.131 0.138 0.327 0.167 0.552-0.261 0.192-0.468 0.476-0.652 0.77" fill="#c9c8bc"/>
 <path transform="matrix(9.4037 0 0 -9.4037 106.23 121.35)" d="m0 0c-1.223-1.225-2.359-2.624-3.143-4.18 0.032-0.065 0.063-0.13 0.096-0.192 0.565 0.965 2.264 3.13 3.041 3.753-0.018 0.193-0.015 0.404 6e-3 0.619" fill="#4da9c3"/>
 <path transform="matrix(9.4037 0 0 -9.4037 109.34 137.45)" d="M 0,0 C 0.303,0.684 0.645,1.486 1.209,2.331 0.696,1.87 0.056,1.332 -0.31,1.502 -0.339,0.954 -0.241,0.43 0,0" fill="#c1c6c9"/>
 <path transform="matrix(9.4037 0 0 -9.4037 196.2 48.397)" d="m0 0c0.296-0.126 0.582-0.262 0.849-0.403 0.015 0.149 6e-3 0.301-0.023 0.445-0.279-0.068-0.554-0.076-0.826-0.042" fill="#9b94b3"/>
 <path transform="matrix(9.4037 0 0 -9.4037 347.13 62.686)" d="m0 0c0.257 0.129 0.538 0.266 0.795 0.385-0.374 0.576-0.897 1.058-1.455 1.469-3e-3 -0.057-8e-3 -0.113-0.013-0.167 0.307-0.231 0.676-1.204 0.673-1.687" fill="#e6ebee"/>
 <path transform="matrix(9.4037 0 0 -9.4037 339.46 53.312)" d="m0 0c-0.011-0.129-5e-3 -0.294 7e-3 -0.477 0.054 0.108 0.096 0.224 0.134 0.346-0.046 0.06-0.095 0.106-0.141 0.131" fill="#c4161d"/>
 <path transform="matrix(9.4037 0 0 -9.4037 340.8 46.819)" d="m0 0c-9e-3 -0.095-0.02-0.184-0.035-0.265 0.054-0.067 0.097-0.145 0.133-0.228 0.028 0.09 0.059 0.178 0.096 0.265-0.065 0.1-0.131 0.18-0.194 0.228" fill="#dcc200"/>
 <path transform="matrix(9.4037 0 0 -9.4037 340.47 49.309)" d="m0 0c-0.022-0.117-0.104-0.376-0.108-0.426 0.046-0.025 0.095-0.071 0.141-0.131 0.033 0.106 0.064 0.214 0.098 0.321-0.036 0.091-0.08 0.172-0.131 0.236" fill="#dcdddd"/>
 <path transform="matrix(9.4037 0 0 -9.4037 300.8 54.291)" d="m0 0c1e-3 -0.07 5e-3 -0.136 0.01-0.2 0.212-0.045 0.422-0.103 0.627-0.173 0.281-0.028 0.596-0.174 0.757-0.335 0.21-0.114 0.411-0.245 0.602-0.392-0.5 0.572-1.176 0.942-1.996 1.1" fill="#dcdddd"/>
 <path transform="matrix(9.4037 0 0 -9.4037 300.9 56.171)" d="m0 0c-5e-3 0.064-9e-3 0.13-0.01 0.2-0.403 0.078-0.84 0.105-1.309 0.079-0.01-0.05-0.016-0.106-0.018-0.165 0.446 0.017 0.897-0.021 1.337-0.114" fill="#dcc200"/>
 <g fill="#c9c8bc">
  <path transform="matrix(9.4037,0,0,-9.4037,294.02,249.38)" d="m0 0c-0.156 0.058-0.32 0.156-0.483 0.279-0.674-0.099-1.315-1e-3 -1.925 0.216 0.675-0.552 1.636-0.775 2.408-0.495"/>
  <path transform="matrix(9.4037,0,0,-9.4037,333.39,104.52)" d="m0 0c-0.095-0.242-0.233-0.34-0.403-0.365-9e-3 -0.033-0.017-0.062-0.023-0.087 0.161 0.025 0.318 0.066 0.458 0.12 7e-3 0.042 0.013 0.085 0.019 0.127-0.011 0.058-0.029 0.131-0.051 0.205"/>
  <path transform="matrix(9.4037,0,0,-9.4037,319.48,106.62)" d="m0 0c-6e-3 -0.018-0.011-0.036-0.017-0.054 0.077-0.092 0.218-0.152 0.391-0.182 9e-3 0.085 0.013 0.217 9e-3 0.352-0.095-0.1-0.233-0.125-0.383-0.116"/>
 </g>
 <path transform="matrix(9.4037 0 0 -9.4037 248.96 179.73)" d="M 0,0 C 1.563,0.482 3.692,1.405 4.57,3.867 3.86,2.668 2.002,1.932 0.915,1.897 0.596,1.121 0.309,0.676 0,0" fill="#c1c6c9"/>
 <path transform="matrix(9.4037 0 0 -9.4037 334.79 85.734)" d="m0 0c-0.026 0.018-0.052 0.036-0.076 0.052-0.221-0.079-0.537-0.22-0.899-0.39 0.193-0.109 0.376-0.399 0.528-0.718 0.072 0.053 0.419 0.236 0.496 0.283 0.035 0.213-0.013 0.493-0.049 0.773" fill="#6a1a00"/>
 <path transform="matrix(9.4037 0 0 -9.4037 342.26 99.446)" d="M 0,0 C 0.229,0.003 0.473,0.073 0.707,0.204 0.543,0.346 0.352,0.514 0.156,0.684 0.139,0.54 0.083,0.294 0,0" fill="#c1c6c9"/>
 <path transform="matrix(9.4037 0 0 -9.4037 331.35 97.939)" d="m0 0c-0.12 0.298-0.382 0.831-0.61 0.96-0.079-0.038-0.16-0.077-0.244-0.117-0.011-0.301-0.151-0.911-0.342-1.552 0.073 0.097 0.191 0.249 0.273 0.305 0.011-0.04 0.019-0.091 0.026-0.146 0.115 0.198 0.616 0.486 0.897 0.55" fill="#ce7486"/>
 <path transform="matrix(9.4037 0 0 -9.4037 332.72 113.36)" d="m0 0c-0.065-0.394-0.127-0.709-0.163-0.848 0.306 0.078 0.634 0.763 0.889 1.465-0.208-0.248-0.455-0.455-0.726-0.617" fill="#c9c8bc"/>
 <path transform="matrix(9.4037 0 0 -9.4037 318.25 110.4)" d="m0 0c-0.022-0.063-0.043-0.127-0.065-0.189 0.266-0.194 1.065-0.254 1.625-0.035 7e-3 0.046 0.016 0.095 0.023 0.143-0.537-0.161-1.257-0.1-1.583 0.081" fill="#c1c6c9"/>
 <path transform="matrix(9.4037 0 0 -9.4037 312.33 123.69)" d="M 0,0 C 0.145,0.188 0.348,0.665 0.546,1.218 0.373,1.084 0.18,0.98 -0.026,0.905 -0.016,0.443 -0.007,0.069 0,0" fill="#c9c8bc"/>
 <path transform="matrix(9.4037 0 0 -9.4037 286.36 244.07)" d="m0 0c-0.197 0.192-0.379 0.408-0.525 0.618-0.618-0.049-1.257 0.081-1.809 0.355-0.068-0.04-0.107-0.071-0.104-0.084 0.152-0.607 1.255-0.892 2.438-0.889" fill="#c9c8bc"/>
 <path transform="matrix(9.4037 0 0 -9.4037 156 252.66)" d="m0 0c0.079-0.198 0.155-0.408 0.228-0.631 0.161-0.49 1.227-0.61 1.868-0.532-0.088 0.076-0.091 0.319-0.028 0.584-0.722 0.066-1.426 0.235-2.068 0.579" fill="#dcc200"/>
 <path transform="matrix(9.4037 0 0 -9.4037 186.07 183.49)" d="m0 0c0.177 0.323 0.324 1.036 0.56 1.505-0.106 0.036-0.211 0.071-0.312 0.102-0.277 0.085-0.528 0.143-0.728 0.143-0.272-0.428-0.519-0.847-0.613-1.082 0 0.258-0.076 0.486-0.129 0.684-0.327-0.335-0.79-0.745-1.253-0.995 0.121 0.235 0.41 0.812 0.493 1.025-0.161-0.167-0.811-0.786-1.23-0.995 0.068 0.088 0.214 0.307 0.394 0.606-1.148-1.449-1.929-2.006-3.135-2.539-0.323-0.73-0.748-1.62-0.288-2.007 0.143-0.12 0.28-0.237 0.412-0.35 1.412 0.334 2.917 0.18 4.249-0.358-0.297 0.51-0.609 1.1-0.834 1.702 0.698 0.668 2.227 2.219 2.414 2.559" fill="#dcc200"/>
 <path transform="matrix(9.4037 0 0 -9.4037 349.71 87.192)" d="M 0,0 C 0.08,-0.282 0.165,-0.604 0.232,-0.879 0.988,-0.24 1.187,0.919 1.141,1.602 0.743,0.459 0.486,0.086 0,0" fill="#c1c6c9"/>
 <g fill="#c9c8bc">
  <path transform="matrix(9.4037,0,0,-9.4037,194.43,256.59)" d="m0 0c0.118-0.174 0.205-0.383 0.242-0.631 1e-3 -4e-3 -1e-3 -9e-3 -3e-3 -0.013 0.368-0.021 0.937-0.018 0.929 0.074-8e-3 0.11-0.073 0.278-0.179 0.471-0.304-0.09-0.656-0.024-0.989 0.099"/>
  <path transform="matrix(9.4037,0,0,-9.4037,268.83,288.38)" d="m0 0c-0.508-0.069-0.994 4e-3 -1.462 0.157 0.204-0.275 0.35-0.556 0.402-0.741 0.251-0.063 1.248-0.302 1.271-0.181 0.031 0.167-0.06 0.45-0.211 0.765"/>
  <path transform="matrix(9.4037,0,0,-9.4037,203.62,252.18)" d="m0 0c-0.029-0.112-0.1-0.19-0.198-0.24 0.182-0.239 0.318-0.477 0.367-0.669 0.032 0.338-0.038 0.644-0.169 0.909"/>
  <path transform="matrix(9.4037,0,0,-9.4037,270.2,292.84)" d="m0 0c0.123-0.025 0.261-0.032 0.256 0.058-0.01 0.161-0.033 0.315-0.065 0.462-0.171 0.045-0.33 0.109-0.479 0.19 0.126-0.269 0.227-0.523 0.288-0.71"/>
 </g>
 <path transform="matrix(9.4037 0 0 -9.4037 181.55 167.03)" d="m0 0c-0.272-0.428-0.519-0.847-0.613-1.082 0 0.258-0.076 0.486-0.129 0.684-0.327-0.335-0.79-0.745-1.253-0.995 0.121 0.235 0.41 0.812 0.493 1.025-0.161-0.167-0.811-0.786-1.23-0.995 0.068 0.088 0.214 0.307 0.394 0.606-0.481-0.607-1.315-1.632-2.364-2.174-0.125-0.064-0.254-0.127-0.385-0.189 0.195-0.522 0.99-1.384 1.239-1.514 0.039-0.02 0.551 0.102 0.677 0.244 0.843 0.955 2.909 2.227 3.274 2.764 0.154 0.227 0.363 1.219 0.625 1.483-0.277 0.085-0.528 0.143-0.728 0.143" fill="#c1c6c9"/>
 <path transform="matrix(9.4037 0 0 -9.4037 259.14 188.12)" d="m0 0c-0.105 0.309-0.21 0.939-0.202 1.126-0.121-0.04-0.273-0.074-0.443-0.091 0.049-0.236 0.245-0.826 0.444-1.028 0.206-0.21 0.242-0.127 0.201-7e-3" fill="#dcc200"/>
 <path transform="matrix(9.4037 0 0 -9.4037 291.77 162.14)" d="m0 0c0.256 0.697 0.733 2.449 0.695 3.177-0.028 0.525 0.087 1.288 0.312 1.772-0.319-0.368-0.583-0.801-0.62-1.214-0.129-1.449-0.545-2.609-1.36-3.534 0.019-0.35 0.205-0.807 0.421-1.245 0.165 0.319 0.354 0.625 0.569 0.915-0.019 0.062-0.025 0.106-0.017 0.129" fill="#dcc200"/>
 <path transform="matrix(9.4037 0 0 -9.4037 281.64 161.33)" d="m0 0c-0.648-0.692-1.531-1.248-2.699-1.692-7e-3 -0.187-0.019-0.619 0.087-0.928 0.04-0.12 0.22-0.327 0.369-0.47 0.415-0.269 1.116-0.698 1.763-1.165 0.209 1.09 0.506 2.164 1.005 3.125-0.216 0.437-0.401 0.895-0.42 1.244-0.035-0.038-0.069-0.076-0.105-0.114" fill="#c1c6c9"/>
 <path transform="matrix(9.4037 0 0 -9.4037 181.55 167.03)" d="m0 0c0.332 0.046 2.245-0.717 2.716-0.728-0.113 0.399-0.173 0.723-0.227 1.029-0.706 0.055-1.41 0.149-2.101 0.277-0.133-0.19-0.269-0.391-0.388-0.578" fill="#c1c6c9"/>
 <path transform="matrix(9.4037 0 0 -9.4037 218.19 281.66)" d="m0 0c0.16-0.437 1.306-0.848 1.873-0.932-0.056 0.141 0.017 0.412 0.16 0.664-0.711 0.107-1.399 0.334-1.983 0.752-0.06-0.203-0.1-0.347-0.05-0.484" fill="#dcc200"/>
 <g fill="#c9c8bc">
  <path transform="matrix(9.4037,0,0,-9.4037,256.06,288.15)" d="m0 0c-0.656-0.392-1.437-0.346-2.171-0.087-5e-3 -0.06 0-0.113 0.017-0.155 0.082-0.208 2.506-0.714 2.47-0.45-0.01 0.076-0.118 0.37-0.316 0.692"/>
  <path transform="matrix(9.4037,0,0,-9.4037,175.41,258.11)" d="m0 0c-0.065-0.299-0.046-0.569 0.078-0.606 1e-3 -1e-3 2.221-0.105 2.187 0.136-0.026 0.171-0.089 0.341-0.182 0.5-0.686-0.063-1.393-0.093-2.083-0.03"/>
  <path transform="matrix(9.4037,0,0,-9.4037,44.141,265.25)" d="m0 0c6e-3 -0.06 0.03-0.114 0.077-0.16 0.093-0.09 2.053-1.095 2.108-0.799 0.017 0.088-0.015 0.33-0.106 0.617-0.631-0.209-1.474-0.094-2.079 0.342"/>
 </g>
 <path transform="matrix(9.4037 0 0 -9.4037 311.2 38.74)" d="M 0,0 C 0.299,-0.307 1.222,-0.561 1.408,-0.244 1.479,-0.123 1.474,0 1.425,0.111 1.081,-0.291 0.519,-0.165 0,0" fill="#525557"/>
 <path transform="matrix(9.4037 0 0 -9.4037 332.56 53.001)" d="m0 0c-0.021-0.075-0.046-0.15-0.071-0.226-0.096-0.192-0.238-0.292-0.4-0.332 0.148-0.13 0.318-0.2 0.403-0.153 0.172 0.095 0.16 0.427 0.068 0.711" fill="#525557"/>
 <path transform="matrix(9.4037 0 0 -9.4037 308.55 56.839)" d="m0 0c-0.068-0.015-0.127-0.052-0.176-0.106 0.25-0.086 0.492-0.193 0.726-0.32-0.109 0.287-0.337 0.472-0.55 0.426" fill="#c60010"/>
 <path transform="matrix(9.4037 0 0 -9.4037 336.07 83.609)" d="m0 0c-0.084-0.032-0.217-0.115-0.26-0.159 0.286-0.235 1.984-1.627 2.059-1.678-0.082 0.394-0.987 1.177-1.799 1.837" fill="#4da9c3"/>
 <path transform="matrix(9.4037 0 0 -9.4037 334.81 77.728)" d="m0 0c-0.213 0.04-0.591 0.189-1.019 0.421 0.056-0.122 0.051-0.128 0.098-0.264 0.125-0.102 0.603-0.375 0.888-0.421 0.137 0.103 0.368 0.329 0.604 0.617 0.093 0.171 0.04 1.168-0.095 2.174-0.123-0.34-0.087-1.838-0.096-1.943-0.135-0.326-0.326-0.557-0.38-0.584" fill="#525557"/>
 <g fill="#9b94b3">
  <path transform="matrix(9.4037,0,0,-9.4037,159.68,45.58)" d="M 0,0 C 0.608,0.321 1.093,0.398 1.58,0.393 2.26,0.945 2.542,2.088 2.24,3.062 2.015,1.798 1.466,0.805 0,0"/>
  <path transform="matrix(9.4037,0,0,-9.4037,127.44,48.146)" d="M 0,0 C 0.433,-1.299 2.444,-0.894 2.737,0.586 2.15,-0.126 0.74,-0.852 0,0"/>
  <path transform="matrix(9.4037,0,0,-9.4037,142.93,72.832)" d="m0 0c0.349-2.471-2.262-2.332-2.206-1.075 0.726-0.922 2.01 0.028 2.206 1.075"/>
 </g>
 <path transform="matrix(9.4037 0 0 -9.4037 318.16 225.98)" d="m0 0c0.358 0.527-2.495-2.332-4.267-0.466 0.28-1.376 1.725-2.052 2.052-2.076 0.886 0.21 1.329 1.236 2.215 2.542" fill="#dcc200"/>
 <path transform="matrix(9.4037 0 0 -9.4037 309.64 60.182)" d="m0 0c-0.106-7e-3 -0.187-0.138-0.177-0.31 0.012-0.193 0.09-0.292 0.213-0.284 0.084 5e-3 0.19 0.107 0.177 0.31-0.01 0.164-0.105 0.291-0.213 0.284" fill="#0f141b"/>
 <path transform="matrix(9.4037 0 0 -9.4037 311.92 60.107)" d="m0 0c-0.045-0.014-0.071-0.079-0.054-0.154 0.018-0.087 0.06-0.126 0.115-0.112 0.038 0.01 0.078 0.067 0.056 0.16-0.018 0.074-0.07 0.12-0.117 0.106" fill="#fff"/>
 <path transform="matrix(9.4037 0 0 -9.4037 340.72 55.502)" d="m0 0c-0.014 0.073-0.044 0.113-0.085 0.112-0.026-1e-3 -0.037-0.052-0.02-0.129 0.014-0.062 0.03-0.117 0.068-0.122 0.045-5e-3 0.049 0.077 0.037 0.139" fill="#fff"/>
 <g fill="#0f141b">
  <path transform="matrix(9.4037,0,0,-9.4037,224.05,174.19)" d="m0 0c0.118 0.017 1.502 2.318 1.502 2.452-3e-3 0.081-1.465 2.857-1.671 3.349 0.583-0.677 2.075-2.644 2.535-3.418-0.115-0.422-1.367-2.517-2.045-3.652 0 0-0.233-0.391-0.299-0.502-0.205 0.33-0.465 0.692-0.741 1.075-0.782 1.084-1.319 1.933-1.319 2.342 0 0.518 0.534 2.724 0.819 3.549-0.015-0.387-0.229-3.139-0.229-3.14 0-0.1 1.252-2.083 1.448-2.055m-0.258 5.766c0.383-0.847 1.635-3.223 1.654-3.309-0.269-0.54-1.188-1.983-1.413-2.326-0.426 0.4-1.187 1.714-1.293 1.951 0.01 0.26 0.173 2.64 0.195 3.189 9e-3 0.22-0.047 0.37-0.149 0.114-0.243-0.607-0.942-3.333-0.873-3.864 0.124-0.812 2.057-3.447 2.164-3.463 0.144 0.016 2.458 3.994 2.49 4.32 0.023 0.238-1.911 2.71-2.635 3.515-0.212 0.236-0.238 0.091-0.14-0.127"/>
  <path transform="matrix(9.4037,0,0,-9.4037,211.66,193.05)" d="m0 0c0.214-0.227 1.268-1.553 1.329-1.553s0.687 0.933 1.098 1.449c-0.212-0.68-0.829-2.499-1.06-3.029-0.239 0.428-1.102 2.271-1.367 3.133m-0.11 5e-3c0.256-0.856 1.143-2.769 1.397-3.208 0.089-0.154 0.126-0.166 0.179-0.043 0.251 0.586 0.917 2.637 1.093 3.219 0.069 0.226-0.012 0.237-0.136 0.083-0.362-0.451-0.923-1.152-1.094-1.419-0.064 0.077-0.944 1.093-1.289 1.466-0.155 0.168-0.205 0.085-0.15-0.098"/>
  <path transform="matrix(9.4037,0,0,-9.4037,130.36,110.79)" d="m0 0c-0.654-0.578-1.744-2.088-1.745-2.097-0.045-0.566-0.09-2.576-0.1-3.056-2e-3 -0.115 0.015-0.179 0.181-0.086 0.537 0.299 2.036 1.08 2.233 1.137 0.016 5e-3 0.913 2.547 1.293 3.269 6e-3 -0.186-0.046-3.679-0.08-4.009-0.548-0.289-1.435-0.562-2.294-0.826-0.821-0.252-1.593-0.49-1.995-0.721-0.024 0.407-0.052 2.578-0.032 2.698 0 3e-3 1e-3 6e-3 1e-3 9e-3 0 0.024-0.098 0.036-0.103 8e-3 -0.062-0.378-0.03-2.132 7e-3 -2.762 8e-3 -0.142 0.024-0.178 0.205-0.082 0.404 0.216 1.167 0.512 1.947 0.752 0.876 0.269 2.317 0.727 2.363 0.884 0.095 0.315 0.124 3.149 0.081 4.118-8e-3 0.179-0.076 0.193-0.162 0.036-0.413-0.757-1.039-2.445-1.294-3.233-0.291-0.105-1.779-0.941-2.25-1.205 0 4e-3 0.051 2.397 0.101 3.047 0.081 0.116 1.146 1.561 1.77 2.009 0.093 0.068-0.328 0.05-0.127 0.11"/>
  <path transform="matrix(9.4037,0,0,-9.4037,97.869,166.5)" d="m0 0c-0.056-0.491 0.043-1.194 0.086-1.445 0.016-0.094 0.05-0.132 0.183-0.094 0.333 0.098 1.029 0.211 1.599 0.304 0.303 0.049 0.572 0.093 0.77 0.131-0.775-0.525-2.846-1.299-3.368-1.472-0.11 0.258-0.085 0.747-0.032 1.128 0.024 0.173 0.045 0.328 0.045 0.456 0 0.03-0.104 0.052-0.104 0.04 6e-3 -0.129-0.018-0.301-0.043-0.482-0.049-0.347-0.123-0.824-8e-3 -1.167 0.039-0.115 0.083-0.128 0.217-0.082 0.629 0.216 2.775 1.034 3.492 1.548 0.212 0.152 0.04 0.185-0.128 0.15-0.195-0.04-0.508-0.091-0.858-0.148-0.634-0.104-1.342-0.22-1.658-0.322-0.03 0.166-0.133 1.119-0.066 1.513 0 2e-3 -0.124-0.03-0.127-0.058"/>
  <path transform="matrix(9.4037,0,0,-9.4037,180.99,109.46)" d="m0 0c-0.147-0.208-0.503-0.686-0.503-0.698 0-5e-3 0.515-1.601 0.612-2.019-0.524 0.674-1.563 1.972-1.871 2.28-0.02 0.02-0.122-0.061-0.102-0.081 0.333-0.333 2.001-2.506 2.094-2.46 0.113 0.055-0.612 2.232-0.624 2.268 0.106 0.126 0.447 0.591 0.588 0.79z"/>
  <path transform="matrix(9.4037,0,0,-9.4037,238.06,88.186)" d="m0 0c-1.077-0.509-3.349-3.375-4.147-4.78 0.04 0.586 0.172 1.183 0.371 1.742 0.064 0.182 0.058 0.18-0.03 0.31-0.185 0.27-0.698 0.988-0.815 1.139-0.017 0.023-0.099-0.04-0.081-0.063 0.119-0.155 0.674-0.963 0.844-1.22-0.216-0.609-0.354-1.272-0.397-1.935-0.015-0.246 0.055-0.273 0.186-0.039 0.87 1.554 3.395 4.513 4.344 4.821 0.027 9e-3 -0.233 0.045-0.275 0.025"/>
  <path transform="matrix(9.4037,0,0,-9.4037,206.19,105.65)" d="m0 0c0.097-0.086 0.148-0.033 0.201 0.052 0.295 0.473 0.641 0.867 1.014 1.13 0.014 0.01-0.251-0.052-0.284-0.078-0.323-0.25-0.611-0.587-0.858-0.981-0.216 0.172-0.572 0.451-0.59 0.473-0.018 0.023-0.098-0.042-0.08-0.064 0.022-0.028 0.408-0.365 0.597-0.532"/>
  <path transform="matrix(9.4037,0,0,-9.4037,339.25,53.791)" d="m0 0c0.116-0.06 0.295-0.468 0.295-0.627 0-0.036 0.121 0.091 0.106 0.149-0.056 0.218-0.205 0.522-0.341 0.593-0.032 0.016-0.092-0.099-0.06-0.115"/>
  <path transform="matrix(9.4037,0,0,-9.4037,283.76,35.18)" d="M 0,0 C 0.172,0.225 0.248,0.443 0.165,0.671 0.081,0.9 0.006,0.917 0.073,0.683 0.132,0.474 0.056,0.276 -0.103,0.072 -0.073,0.042 -0.038,0.019 0,0"/>
  <path transform="matrix(9.4037,0,0,-9.4037,295.72,101.79)" d="m0 0c-1.965-0.513-4.358 0.504-4.205 2.905 0.109 1.707 1.232 2.675 2.082 3.382-0.024 0.035-0.047 0.071-0.071 0.109-0.871-0.721-2.08-1.678-2.193-3.448-0.177-2.762 2.296-3.69 4.316-3.128 0.034 9e-3 0.105 0.189 0.071 0.18"/>
  <path transform="matrix(9.4037,0,0,-9.4037,294.68,39.629)" d="m0 0c-0.031-0.018 0.033-0.13 0.064-0.112 0.454 0.258 1.038 0.383 1.618 0.401 5e-3 0.072 0.021 0.127 0.07 0.176-0.608-0.022-1.235-0.171-1.752-0.465"/>
  <path transform="matrix(9.4037,0,0,-9.4037,330.68,40.868)" d="m0 0c-0.176 0.172-0.419 0.309-0.704 0.408 7e-3 -0.067 0.053-0.135 0.086-0.203 0.262-0.093 0.479-0.214 0.626-0.358 0.154-0.15 0.146 3e-3 -8e-3 0.153"/>
  <path transform="matrix(9.4037,0,0,-9.4037,325.94,35.045)" d="m0 0c-0.653 0.379-1.216 0.707-1.355 0.988-0.137 0.276-0.131 0.025-0.047-0.157 0.11-0.239 0.639-0.537 1.337-0.943 0.036-0.02 0.071-0.041 0.107-0.062 0.032 0.031 0.064 0.063 0.095 0.094-0.046 0.027-0.092 0.054-0.137 0.08"/>
  <path transform="matrix(9.4037,0,0,-9.4037,348.51,96.944)" d="m0 0c-0.226-0.119-0.46-0.179-0.679-0.172-0.035 1e-3 -0.015-0.165 0.021-0.166 0.286-0.01 0.562 0.057 0.812 0.188-0.044 0.059-0.092 0.107-0.154 0.15"/>
  <path transform="matrix(9.4037,0,0,-9.4037,360.02,69.427)" d="m0 0c-0.05 0.217-0.118 0.421-0.201 0.614-0.028-0.067-0.061-0.129-0.096-0.189 0.057-0.144 0.104-0.293 0.14-0.447 0.284-1.226-0.134-2.165-0.72-2.668 0.022-0.071 0.057-0.142 0.078-0.213 0.692 0.536 1.098 1.616 0.799 2.903"/>
  <path transform="matrix(9.4037,0,0,-9.4037,340.89,44.208)" d="m0 0c-0.017-0.054-0.028-0.109-0.035-0.163 0.544-0.401 1.054-0.868 1.422-1.424 0.056 0.023 0.11 0.04 0.161 0.06-0.393 0.618-0.945 1.106-1.548 1.527"/>
  <path transform="matrix(9.4037,0,0,-9.4037,274.66,31.358)" d="m0 0c0.01-0.034 0.134 0 0.125 0.034-0.177 0.643 0.411 1.362 1.333 1.338 0.871-0.022 1.595-1.056 1.699-1.97 4e-3 -0.035 0.132-0.02 0.128 0.015-0.112 0.987-0.881 2.109-1.834 2.134-1.063 0.028-1.651-0.822-1.451-1.551"/>
  <path transform="matrix(9.4037,0,0,-9.4037,293.89,19.262)" d="M 0,0 C -0.022,-0.028 0.081,-0.107 0.103,-0.078 0.889,0.953 2.644,0.241 2.29,-1.091 2.281,-1.125 2.405,-1.163 2.413,-1.129 2.79,0.434 0.91,1.193 0,0"/>
  <path transform="matrix(9.4037,0,0,-9.4037,361.39,55.157)" d="m0 0c-0.529-0.188-2.034-1.006-2.295-1.179-0.03-0.02 0.042-0.128 0.072-0.108 0.236 0.158 1.682 0.914 2.193 1.094-0.146-0.333-1.428-2.404-1.482-2.515-0.03-0.061 0.209-0.537 0.531-2.005-0.135 0.109-1.551 1.344-1.888 1.567-0.017 0.012-0.038 0.014-0.057 7e-3 -0.52-0.186-3.637-1.744-3.968-1.889 0.181 0.372 0.657 1.246 0.946 1.762 0.09 0.16 0.067 0.18-0.044 0.252-0.59 0.378-2.998 1.939-3.431 2.337 0.637-0.094 5.373-1.233 5.564-1.272 0.035-7e-3 -0.016 0.136-0.063 0.146-0.674 0.156-4.881 1.222-5.618 1.302-0.227 0.024-0.247-0.05-0.065-0.219 0.51-0.475 2.602-1.892 3.577-2.425-0.252-0.449-0.852-1.506-1.046-1.912-0.084-0.175-0.161-0.328 0.086-0.222 0.327 0.142 3.553 1.815 4.075 2.007 0.279-0.19 1.451-1.24 1.874-1.594 0.231-0.193 0.297-0.185 0.249 0.065-0.097 0.499-0.438 1.763-0.557 2.064 0.058 0.11 1.217 2.038 1.469 2.559 0.092 0.19 0.058 0.242-0.122 0.178"/>
  <path transform="matrix(9.4037,0,0,-9.4037,304.14,99.565)" d="m0 0c-0.027 0.026-0.215-0.101-0.192-0.128 0.091-0.105 0.604-0.526 1.048-0.869v0.219c-0.34 0.296-0.703 0.626-0.856 0.778"/>
  <path transform="matrix(9.4037,0,0,-9.4037,332.51,111.91)" d="m0 0c-0.289-0.15-1.203-0.15-1.458-0.033-0.018 8e-3 -0.049 0.029-0.088 0.057-0.029-0.036-0.05-0.074-0.068-0.113 0.045-0.03 0.08-0.051 0.102-0.061 0.397-0.182 1.16-0.178 1.571 0.035 0.032 0.017-0.027 0.131-0.059 0.115"/>
  <path transform="matrix(9.4037,0,0,-9.4037,322.23,90.353)" d="m0 0c0-0.565-0.558-2.577-0.997-3.341-5e-3 0.18-0.013 2.436-0.083 2.759-8e-3 0.035-0.182-0.025-0.174-0.06 0.051-0.232 0.119-2.175 0.132-2.756 7e-3 -0.269 0.029-0.361 0.193-0.084 0.529 0.892 1.096 2.77 1.069 3.488-2e-3 0.036-0.14 4e-3 -0.14-6e-3"/>
  <path transform="matrix(9.4037,0,0,-9.4037,334.03,85.564)" d="m0 0c0.172-0.677-0.178-2.917-0.328-3.623-0.049-0.231-0.058-0.343 0.224-0.136 0.53 0.388 1.19 2.424 1.201 2.85 1e-3 0.035-0.154 0.195-0.155 0.159-0.011-0.432-0.643-2.534-1.151-2.931 0.289 1.321 0.48 2.981 0.373 3.602-5e-3 0.029-0.173 0.114-0.164 0.079"/>
  <path transform="matrix(9.4037,0,0,-9.4037,325.04,89.297)" d="m0 0c0.472-0.211 0.873-1.676 0.881-1.798 2e-3 -0.035 0.112 0.097 0.083 0.206-0.112 0.416-0.369 1.303-0.751 1.643-0.028 0.024-0.246-0.036-0.213-0.051"/>
  <path transform="matrix(9.4037,0,0,-9.4037,318.74,107.38)" d="M 0,0 C 0.247,-0.332 1.073,-0.308 1.619,-0.066 1.652,-0.052 1.6,0.066 1.567,0.052 1.029,-0.186 0.29,-0.174 0.104,0.077 0.082,0.106 -0.021,0.029 0,0"/>
  <path transform="matrix(9.4037,0,0,-9.4037,321.88,101.59)" d="m0 0c-0.055-0.05-0.116-0.122-0.17-0.19-0.036-0.045-0.013-0.229 9e-3 -0.2 0.043 0.057 0.129 0.171 0.204 0.251 0.034-0.21 0.036-0.476 0.012-0.623-1e-3 -6e-3 0.116-0.068 0.125-0.033 0.028 0.109 0.016 0.483-0.027 0.721-0.03 0.17-0.044 0.172-0.153 0.074"/>
  <path transform="matrix(9.4037,0,0,-9.4037,331.64,101.76)" d="m0 0c-0.126-0.168-0.273-0.571-0.3-0.733-6e-3 -0.035 0.121-0.057 0.127-0.022 0.024 0.138 0.139 0.45 0.237 0.616 0.046-0.117 0.08-0.258 0.097-0.359 6e-3 -0.035 0.133-0.014 0.127 0.021-0.022 0.133-0.067 0.313-0.131 0.451-0.061 0.133-0.091 0.114-0.157 0.026"/>
  <path transform="matrix(9.4037,0,0,-9.4037,287.66,53.397)" d="m0 0c-0.091-0.329 0.052-0.892 0.276-1.185 0.032-0.042 0.209-0.022 0.18-1e-3 -0.246 0.183-0.386 0.87-0.295 1.199 0.01 0.034-0.152 0.021-0.161-0.013"/>
  <path transform="matrix(9.4037,0,0,-9.4037,340.46,47.417)" d="m0 0c0.305-0.192 0.65-1.206 0.608-1.632-4e-3 -0.036 0.151-7e-3 0.155 0.028 0.047 0.478-0.345 1.494-0.694 1.713-0.031 0.019-0.099-0.09-0.069-0.109"/>
  <path transform="matrix(9.4037,0,0,-9.4037,160.68,44.366)" d="m0 0c-0.2-0.145-0.234-0.307-0.034-0.163 1.033 0.748 3.853-0.176 5.34-1.14 1.834-1.19 4.292-1.235 5.139-0.574 0.028 0.022 0.093 0.307 0.066 0.284-0.963-0.831-3.448-0.677-5.182 0.447-1.631 1.058-4.181 1.977-5.329 1.146"/>
  <path transform="matrix(9.4037,0,0,-9.4037,146.04,52.576)" d="m0 0c0.045-0.469 0.585-0.888 1.61-0.706 0.263 0.047 0.383 0.139 0.113 0.121-1.015-0.071-1.541 0.218-1.559 0.656-2e-3 0.035-0.165-0.057-0.164-0.071"/>
  <path transform="matrix(9.4037,0,0,-9.4037,111.49,43.071)" d="m0 0c-0.163-0.94 0.143-1.787 0.683-2.21 0.028-0.022 0.15 0.053 0.122 0.075-0.504 0.395-0.75 1.252-0.595 2.145 0.402 2.324 2.856 2.736 3.848 1.23 1.045-1.588-0.812-2.972-1.905-2.292-0.345 0.214-0.453 0.582-0.29 0.985 0.093 0.227 5e-3 0.203-0.102 5e-3 -0.238-0.442-0.105-0.873 0.297-1.124 1.157-0.72 3.318 0.689 2.156 2.453-1.059 1.608-3.774 1.27-4.214-1.267"/>
  <path transform="matrix(9.4037,0,0,-9.4037,124.73,24.367)" d="m0 0c-4e-3 -0.035 0.239 0.069 0.244 0.098 0.291 1.859 2.616 2.868 4.419 2.081 1.706-0.745 1.692-3.259 0.479-4.078-0.03-0.02 0.249-0.054 0.275-0.03 1.192 1.101 0.978 3.493-0.703 4.227-1.924 0.84-4.461-0.186-4.714-2.298"/>
  <path transform="matrix(9.4037,0,0,-9.4037,181.32,19.86)" d="m0 0c-0.035-8e-3 -5e-3 -0.134 0.029-0.126 1.365 0.318 2.263-1.878 1.197-2.769-0.027-0.022 0.114-0.072 0.13-0.058 1.133 1.032 0.222 3.32-1.356 2.953"/>
  <path transform="matrix(9.4037,0,0,-9.4037,197.37,40.87)" d="m0 0c0.417-0.031 0.697-0.571 0.664-1.139-1e-3 -0.025 0.161-0.104 0.164-0.068 0.068 0.729-0.279 1.296-0.819 1.336-0.035 2e-3 -0.045-0.126-9e-3 -0.129"/>
  <path transform="matrix(9.4037,0,0,-9.4037,146.86,86.639)" d="m0 0c-0.467-0.266-0.665-0.366-0.863-0.15-0.024 0.027-0.147-0.107-0.12-0.13 0.327-0.289 0.545-0.164 1.033 0.114 1.742 0.993 2.6 0.97 4.5 0.701 1.13-0.161 2.187-0.34 2.94 0.02 0.351 0.168 0.407 0.298 0.056 0.13-0.718-0.343-1.867-0.18-2.978-0.023-2.329 0.331-2.912 0.281-4.568-0.662"/>
  <path transform="matrix(9.4037,0,0,-9.4037,107.51,92.382)" d="m0 0c0.814-2.139 3.949-2.709 5.973-2.426 1.005 0.141 2.076 0.646 3.301 1.179 1.872 0.815 4.013 1.722 6.645 1.797 0.036 2e-3 -0.099 0.238-0.144 0.236-2.594-0.103-4.649-1.073-6.499-1.879-1.216-0.529-2.267-0.987-3.255-1.125-1.941-0.271-5.027 0.268-5.807 2.317-0.671 1.763 1.106 3.711 2.54 2.949 1.503-0.798 1.163-2.409 0.031-2.821-0.927-0.337-1.637 1.159-0.764 1.485 0.22 0.082 0.063 0.131-0.155 0.046-0.911-0.357-0.18-2.004 0.949-1.678 1.276 0.368 1.619 2.3 0.06 3.128-1.501 0.798-3.626-1.236-2.875-3.208"/>
  <path transform="matrix(9.4037,0,0,-9.4037,310.97,106.78)" d="m0 0c-0.512-0.238-1.674-1.24-1.755-2.142-0.25-2.815-1.818-4.632-4.865-5.551-0.034-0.01 3e-3 -0.181 0.037-0.172 3.109 0.843 4.712 2.562 4.992 5.708 0.075 0.841 1.149 1.766 1.7 1.961 0.04 0.014-0.086 0.207-0.109 0.196"/>
  <path transform="matrix(9.4037,0,0,-9.4037,265.14,124.65)" d="m0 0c-0.016-2.147-0.773-3.723-1.441-5.114-0.502-1.046-0.977-2.035-1.042-3.094-0.09-1.469 0.22-5.233 0.552-5.986 0.07-0.158 0.921-1.106 1.241-1.331 0.08-0.056 0.124-0.198 0.111-0.243-9e-3 -0.035 0.192-0.038 0.201-4e-3 0.028 0.102-0.042 0.299-0.162 0.383-0.315 0.221-1.149 1.192-1.201 1.311-0.297 0.672-0.652 4.404-0.557 5.948 0.064 1.033 0.609 1.977 1.115 3.007 0.739 1.502 1.373 2.849 1.323 4.922-7e-3 0.286-0.138 0.487-0.14 0.201"/>
  <path transform="matrix(9.4037,0,0,-9.4037,300.6,115.98)" d="m0 0c-0.236-0.473-0.337-1.194-0.309-1.735 0.038-0.717-0.429-2.491-0.714-3.204-0.111-0.279 2.995-5.421 3.015-6.1 0.013-0.452-1.573-3.067-2.341-3.087-0.807-0.021-1.963 1.451-1.963 1.887v3e-3c1.112 0.627 1.447 1.164 1.38 1.586-0.124 0.777-1.908 1.91-2.973 2.587-0.333 0.212-0.595 0.379-0.659 0.443-0.196 0.2-0.403 0.832-0.434 1.035-5e-3 0.036-0.182-0.053-0.179-0.066 0.045-0.228 0.216-0.86 0.437-1.084 0.073-0.075 0.315-0.229 0.681-0.461 0.979-0.622 2.853-1.752 2.968-2.471 0.091-0.576-0.825-1.095-1.367-1.397-0.369-0.207 1.157-2.296 2.096-2.248 0.996 0.051 2.57 2.536 2.619 3.222 0.046 0.639-3.113 5.875-3.075 6.147 0.361 0.985 0.778 2.155 0.717 3.165-0.045 0.763 0.127 1.694 0.452 2.074 0.024 0.027-0.3-0.193-0.351-0.296"/>
  <path transform="matrix(9.4037,0,0,-9.4037,262.36,235.78)" d="m0 0c0.121-0.804 2.037-1 2.679-0.991 0.036 1e-3 -0.101 0.183-0.136 0.182-0.9-0.012-2.163 0.224-2.353 0.8 0.219 0.183 1.336 0.553 1.48 0.516l-0.019 0.016c0.025-0.02 0.025 0.099 3e-3 0.122-0.148 0.156-1.688-0.418-1.654-0.645"/>
  <path transform="matrix(9.4037,0,0,-9.4037,266.03,239.94)" d="m0 0c0.627-1.04 2.098-1.457 3.104-1.022 0.033 0.014-0.077 0.107-0.09 0.102-0.844-0.331-2.28 0.126-2.834 0.882-0.025 0.035-0.198 0.069-0.18 0.038"/>
  <path transform="matrix(9.4037,0,0,-9.4037,203.75,157.58)" d="m0 0c-0.037-0.369 0.023-0.757 0.131-1.195 0.377-1.523 0.402-2.442-0.147-4.639-0.231-0.921 0.11-1.165 0.478-1.786 0.709-1.196 1.499-3.237 0.952-5.066-0.067-0.224-0.115-0.386-0.056-0.548 0.179-0.488 1.412-0.951 2.062-0.959 0.036 0-0.016 0.132-0.032 0.134-0.554 0.075-1.642 0.479-1.791 0.887-0.045 0.121-3e-3 0.258 0.059 0.466 0.567 1.897-0.423 4.139-1.036 5.172-0.358 0.604-0.616 1.039-0.456 1.681 0.57 2.279 0.479 3.591 0.149 4.926-0.106 0.427-0.197 0.795-0.162 1.142 0.033 0.331-0.118 0.117-0.151-0.215"/>
  <path transform="matrix(9.4037,0,0,-9.4037,181.98,166.59)" d="m0 0c-0.035-5e-3 -0.097-0.131-0.062-0.126 0.493 0.068 2-0.808 2.805-0.706 0.035 4e-3 0.025 0.165-0.01 0.163-0.617-0.049-2.22 0.734-2.733 0.669"/>
  <path transform="matrix(9.4037,0,0,-9.4037,188.31,156.17)" d="m0 0c-0.284-0.362-0.96-1.355-1.289-1.994-0.02 0.122-0.049 0.236-0.078 0.341-0.051 0.187-0.11 0.174-0.235 0.05-0.225-0.221-0.574-0.538-0.955-0.777 0.106 0.209 0.242 0.485 0.331 0.681 0.094 0.208 0.062 0.316-0.174 0.09-0.192-0.183-0.526-0.485-0.823-0.692 0.019 0.03 0.04 0.062 0.061 0.095-0.093-0.049-0.164-0.096-0.238-0.128-1e-3 -1e-3 -3e-3 -3e-3 -4e-3 -5e-3 -0.145-0.216-0.106-0.306 0.167-0.128 0.278 0.18 0.599 0.46 0.821 0.666-0.097-0.205-0.305-0.561-0.393-0.735-0.086-0.169 0.05-0.117 0.244-1e-3 0.431 0.256 0.796 0.549 1.039 0.791 0.053-0.126 0.076-0.257 0.104-0.405 0.039-0.2 0.103-0.268 0.199-0.066 0.284 0.59 1.165 1.966 1.453 2.332 0.207 0.265-0.022 0.15-0.23-0.115"/>
  <path transform="matrix(9.4037,0,0,-9.4037,236.78,290.67)" d="m0 0c-0.067 0.028-0.078 0.161-0.026 0.339 0.112 0.383 0.494 0.903 0.841 0.844 0.682-0.116 1.379-1.148 1.477-1.567-0.222-0.034-1.433 0.024-2.292 0.384m0.806 1.375c-0.438 0.074-0.887-0.564-1.012-0.994-0.074-0.256-0.027-0.473 0.11-0.53 1.042-0.437 2.361-0.481 2.527-0.354 0.168 0.129-0.68 1.717-1.625 1.878"/>
  <path transform="matrix(9.4037,0,0,-9.4037,244.22,278.91)" d="m0 0c-2e-3 -0.036 0.127-0.044 0.129-8e-3 0.021 0.331 0.632 0.742 1.259 0.505 0.661-0.249 1.358-1.954 1.376-2.235-0.109-0.024-0.606 0.062-1.196 0.21-0.034 8e-3 -0.031-0.171 3e-3 -0.18 0.529-0.132 1.206-0.262 1.329-0.152 0.194 0.174-0.733 2.279-1.495 2.567-0.711 0.268-1.379-0.3-1.405-0.707"/>
  <path transform="matrix(9.4037,0,0,-9.4037,256.82,272.57)" d="m0 0c-0.033-0.013 0.082-0.174 0.115-0.161 0.165 0.066 0.339 0.041 0.518-0.073 0.653-0.414 0.993-1.697 0.98-1.881-0.03-0.011-0.137 0.022-0.174 0.033-0.034 0.011-0.061-0.134-0.027-0.145 0.121-0.037 0.251-0.07 0.319-0.017 0.16 0.126-0.273 1.713-1.019 2.187-0.216 0.137-0.507 0.139-0.712 0.057"/>
  <path transform="matrix(9.4037,0,0,-9.4037,190.75,168.91)" d="m0 0c-0.206-0.346-0.481-1.385-0.554-1.519-0.171-0.311-1.569-1.74-2.334-2.477-0.097-0.093-0.081-0.138-0.046-0.231 0.321-0.864 1.458-2.78 1.597-2.953 0.145-0.179 1.116-0.569 1.124-0.626 9e-3 -0.074 0.203-0.06 0.197-0.019-0.046 0.296-1.102 0.644-1.26 0.873-0.158 0.23-1.144 1.902-1.484 2.798 0.865 0.877 1.837 1.655 2.417 2.532 0.198 0.298 0.274 1.242 0.521 1.534 0.015 0.017-0.16 0.119-0.178 0.088"/>
  <path transform="matrix(9.4037,0,0,-9.4037,128.52,199.37)" d="m0 0c-0.336-0.618-0.742-1.524-0.27-1.921 1.593-1.34 2.604-2.183 3.276-4.426 0.142-0.475 1.205-0.745 1.978-0.57 0.035 8e-3 0.053 0.164 0.018 0.159-0.585-0.087-1.669 0.113-1.789 0.48-0.733 2.228-1.729 3.148-3.293 4.463-0.397 0.335-0.023 1.234 0.33 1.917z"/>
  <path transform="matrix(9.4037,0,0,-9.4037,175.65,261.18)" d="m0 0c0 0.033 2e-3 0.07 6e-3 0.111 0.044 0.424 0.314 1.014 0.653 1.011 0.809-8e-3 1.406-0.647 1.509-1.246-0.202-0.107-1.928-0.124-2.103-0.092-0.035 7e-3 -0.065 0.084-0.065 0.216m-0.043-0.374c0.142-0.045 1.661-0.019 2.194 0.091 0.22 0.046 0.181 0.114 0.103 0.36-0.19 0.593-0.788 1.212-1.583 1.22-0.685 6e-3 -1.093-1.55-0.714-1.671"/>
  <path transform="matrix(9.4037,0,0,-9.4037,178.74,251.13)" d="m0 0c-7e-3 -0.035 0.183 0.01 0.189 0.045 0.091 0.491 0.469 0.806 0.949 0.649 0.389-0.128 1.554-1.163 1.63-1.827-0.085-0.045-0.513-0.061-0.868-0.029-0.035 3e-3 -0.047-0.126-0.011-0.129 6e-3 0 0.512-0.031 0.806 0 0.291 0.031 0.302 0.074 0.183 0.395-0.262 0.702-1.321 1.588-1.7 1.712-0.623 0.205-1.072-0.246-1.178-0.816"/>
  <path transform="matrix(9.4037,0,0,-9.4037,186.35,243.18)" d="m0 0c-0.026-0.025 0.143-0.048 0.175-0.033 0.498 0.229 1.716-0.677 1.789-1.595 5e-3 -0.063 0.135-0.332 0.135-0.296 0.016 1.556-1.571 2.429-2.099 1.924"/>
  <path transform="matrix(9.4037,0,0,-9.4037,171.42,147.05)" d="m0 0c-1.524-4.231-3.418-4.978-5.746-5.912-1.17-0.469-2.275-0.912-2.843-1.465-1.37-1.335-1.709-2.88-1.57-3.917 4e-3 -0.031 0.325-0.344 0.316-0.309-0.271 1.044-0.044 2.756 1.332 4.095 0.55 0.536 1.778 0.991 2.935 1.455 1.752 0.703 4.318 1.457 5.632 5.814 0.121 0.4 0.082 0.621-0.056 0.239"/>
  <path transform="matrix(9.4037,0,0,-9.4037,126.16,109.56)" d="m0 0c-1.345-0.949-2.329-3.751-2.737-5.169-0.514-1.79-1.839-2.219-2.755-2.571-0.51-0.195-0.937-0.329-1-0.61-0.113-0.51-1.863-4.409-2.956-5.472-0.303-0.295-0.119-1.861 0.177-2.531 0.099-0.224 0.456-0.418 0.595-0.443 0.035-6e-3 0.026 0.216-9e-3 0.222-0.115 0.02-0.311 0.125-0.385 0.293-0.315 0.71-0.365 2.09-0.149 2.321 1.146 1.222 2.788 5.047 2.911 5.472 0.062 0.216 0.424 0.355 0.881 0.53 0.939 0.361 2.358 0.906 2.89 2.757 0.473 1.647 1.599 4.323 2.801 5.113 0.031 0.02-0.217 0.122-0.264 0.088"/>
  <path transform="matrix(9.4037,0,0,-9.4037,44.439,267.19)" d="m0 0m0.038 0.223c0 0.131 0.102 0.285 0.143 0.341 0.245 0.338 0.703 0.62 0.948 0.49 0.596-0.316 0.966-1.376 0.966-1.735 0-0.021-2e-3 -0.039-5e-3 -0.055-0.168-0.107-1.85 0.698-2 0.829-0.038 0.036-0.052 0.082-0.052 0.13m-0.155-0.154c0.165-0.257 2.1-1.135 2.327-0.958s-0.327 1.69-1.021 2.057c-0.58 0.307-1.532-0.744-1.306-1.099"/>
  <path transform="matrix(9.4037,0,0,-9.4037,55.51,256.63)" d="m0 0c-0.015-0.033 0.133-0.092 0.147-0.06 0.232 0.516 1.103 0.692 1.5 0.197 0.628-0.782 0.75-2.177 0.676-2.298-0.137-0.035-1.021 0.349-1.339 0.584-0.029 0.021-0.021-0.19 0.018-0.215 0.343-0.212 1.309-0.683 1.45-0.493 0.161 0.216-0.059 1.687-0.699 2.485-0.545 0.68-1.493 0.378-1.753-0.2"/>
  <path transform="matrix(9.4037,0,0,-9.4037,69.099,252.44)" d="m0 0c-0.034-9e-3 0.082-0.112 0.106-0.107 0.455 0.097 0.792-0.088 1.002-0.551 0.244-0.538 0.258-1.614 0.069-1.768-0.027 2e-3 -0.108 0.042-0.166 0.124-0.021 0.029-0.07-0.12-0.05-0.14 0.091-0.089 0.218-0.191 0.289-0.144 0.224 0.149 0.343 1.294 0.031 1.981-0.248 0.546-0.727 0.755-1.281 0.605"/>
  <path transform="matrix(9.4037,0,0,-9.4037,113.84,101.2)" d="m0 0c-1.061-1.285-1.203-2.647-0.53-3.919 0.017-0.031 0.102 0.084 0.096 0.096-0.553 1.09-0.292 2.679 0.631 3.796 0.022 0.027-0.174 0.054-0.197 0.027"/>
  <path transform="matrix(9.4037,0,0,-9.4037,81.72,29.529)" d="m0 0c-2.92-1.187-5.558-4.713-6.743-6.908-0.15-0.278-0.199-0.594-0.044-0.318 1.171 2.085 3.905 5.874 6.801 7.035-0.817-3.188-1.209-7.903-0.288-11.925 0.05-0.219 0.142-0.249 0.272-0.056 0.619 0.913 2.086 2.592 2.816 3.269 0.042 0.038 0.098 0.317 0.07 0.295-0.941-0.744-2.365-2.485-3.006-3.447-0.93 4.008-0.516 8.792 0.379 11.981 0.058 0.204-0.04 0.162-0.257 0.074"/>
  <path transform="matrix(9.4037,0,0,-9.4037,68.074,47.869)" d="m0 0c-1.205-0.683-4.302-3.952-5.064-5.398-0.158-0.299-0.079-0.432 0.078-0.132 0.734 1.394 3.855 4.687 5.024 5.356-0.703-2.993-0.736-8.722 0.846-11.938 0.075-0.153 0.139-0.243 0.25-0.062 0.647 1.05 2.039 2.723 2.927 3.531 0.027 0.025 0.012 0.323-0.017 0.302-0.713-0.504-2.382-2.66-3.034-3.729-1.576 3.166-1.358 9.659-0.837 11.901 0.049 0.209-0.017 0.257-0.173 0.169"/>
  <path transform="matrix(9.4037,0,0,-9.4037,4.2841,75.924)" d="m0 0c0.114-0.691 0.519-2.059 0.649-2.449-0.288-0.056-0.634-0.121-0.915-0.201-0.265-0.076-0.219-0.135-0.064-0.205 0.291-0.13 0.758-0.292 1.01-0.377-0.191-0.434-0.479-1.018-0.586-1.3-0.136-0.354 3e-3 -0.287 0.206-0.115 0.28 0.237 0.661 0.491 0.877 0.646 0.132-0.387 0.583-1.292 0.796-1.747 0.121-0.257 0.212-0.276 0.193 0.058-0.033 0.606-0.126 1.532-0.178 1.988 0.141-0.105 0.339-0.233 0.512-0.319 0.16-0.08 0.254-0.104 0.116 0.096-0.141 0.205-0.396 0.584-0.52 0.771 0.295 0.103 0.653 0.241 0.836 0.322 0.187 0.081 0.134 0.128-0.015 0.173-0.284 0.086-0.976 0.213-1.13 0.234-0.036 4e-3 -0.119-0.152-0.087-0.156 0.134-0.019 0.726-0.121 1.064-0.182-0.187-0.077-0.462-0.182-0.71-0.27-0.134-0.047-0.135-0.086-0.075-0.178 0.093-0.141 0.271-0.406 0.414-0.617-0.148 0.098-0.308 0.213-0.397 0.281-0.123 0.095-0.162 0.049-0.142-0.117 0.046-0.404 0.135-1.275 0.175-1.899-0.231 0.497-0.576 1.267-0.701 1.616-0.058 0.162-0.095 0.176-0.239 0.072-0.205-0.148-0.537-0.397-0.799-0.612 0.112 0.281 0.316 0.766 0.499 1.184 0.052 0.117 0.034 0.159-0.083 0.199-0.205 0.069-0.598 0.205-0.882 0.324 0.259 0.057 0.623 0.122 0.884 0.163 0.144 0.021 0.153 0.065 0.115 0.179-0.124 0.373-0.513 1.638-0.679 2.304 0.288-0.469 0.734-1.306 0.949-1.793 0.094-0.21 0.155-0.223 0.208-1e-3 0.048 0.206 0.159 0.629 0.258 0.951-0.01-0.366-0.049-0.966-0.063-1.035-1e-3 -4e-3 0.132 0.062 0.139 0.097 0.022 0.108 0.035 0.721 0.034 1.065 0 0.297-0.028 0.451-0.155 0.148-0.083-0.198-0.246-0.725-0.329-1.025-0.249 0.551-0.746 1.381-1.021 1.802-0.146 0.224-0.201 0.147-0.164-0.075"/>
  <path transform="matrix(9.4037,0,0,-9.4037,300.19,53.678)" d="m0 0c0-1.273 0.472-1.87 2.356-1.608 0.036 5e-3 0.018 0.132-0.017 0.127-1.694-0.234-2.21 0.32-2.21 1.481 0 0.036-0.129 0.036-0.129 0"/>
  <path transform="matrix(9.4037,0,0,-9.4037,340.02,49.815)" d="m0 0c0.293-0.33 0.296-1.255 0.014-1.635-7e-3 -0.01 0.054-0.139 0.077-0.111 0.377 0.448 0.324 1.473 5e-3 1.832-0.023 0.026-0.12-0.059-0.096-0.086"/>
  <path transform="matrix(9.4037,0,0,-9.4037,319.75,34.417)" d="m0 0c0.368-0.116 0.574-0.447 0.442-0.671-0.101-0.173-0.531-0.132-0.889 8e-3 -0.292 0.114-0.493 0.273-0.493 0.387 0 0.131 0.392 0.448 0.94 0.276m-1.064-0.229c-0.049-0.226 0.22-0.448 0.528-0.568 0.4-0.156 0.94-0.194 1.09 0.061 0.194 0.331-0.101 0.729-0.515 0.859-0.513 0.161-1.044-0.083-1.103-0.352"/>
  <path transform="matrix(9.4037,0,0,-9.4037,332.84,51.977)" d="m0 0m-0.667-0.346c-0.159 0.36-0.089 0.682-0.045 0.714 0.11 0.061 0.468-0.103 0.592-0.416 0.111-0.281 0.135-0.636-9e-3 -0.715-0.102-0.056-0.43 0.175-0.538 0.417m-0.088 0.816c-0.17-0.092-0.196-0.558-0.018-0.923 0.178-0.364 0.525-0.485 0.684-0.398 0.226 0.125 0.222 0.514 0.089 0.851-0.156 0.394-0.555 0.578-0.755 0.47"/>
  <path transform="matrix(9.4037,0,0,-9.4037,313.51,62.236)" d="m0 0c0.041-0.183 0.038-0.446-0.068-0.619-0.077-0.03-0.495 0.056-0.558 0.111-0.119 0.157-0.158 0.339-0.158 0.541 0 0.209 0.083 0.437 0.271 0.478 0.206 0.044 0.441-0.19 0.513-0.511m-1e-3 0.341c-0.066 0.105-0.439 0.318-0.54 0.296-0.306-0.066-0.428-0.465-0.347-0.828 0.032-0.143 0.091-0.274 0.172-0.38 0.061-0.08 0.719-0.178 0.753-0.126 0.103 0.158 0.143 0.484 0.089 0.725-0.026 0.117-0.07 0.223-0.127 0.313"/>
  <path transform="matrix(9.4037,0,0,-9.4037,339.86,57.145)" d="m0 0c0.053 6e-3 0.1-0.094 0.117-0.221 0.015-0.116-8e-3 -0.223-0.046-0.227-0.037-5e-3 -0.093 0.08-0.111 0.206-0.023 0.161 0.012 0.239 0.04 0.242"/>
  <path transform="matrix(9.4037,0,0,-9.4037,334.82,74.678)" d="m0 0c0-0.202-0.023-0.431-0.057-0.561-9e-3 -0.035 0.126-7e-3 0.131 0.028 0.02 0.135 0.046 0.242 0.032 0.454-0.025 0.376-0.106 0.457-0.106 0.079"/>
  <path transform="matrix(9.4037,0,0,-9.4037,332.22,59.247)" d="m0 0c0.086-0.238 0.164-0.566 0.215-0.899 0.058-0.384 0.117-0.267 0.074 0.119-0.037 0.338-0.118 0.587-0.206 0.833-0.012 0.033-0.095-0.019-0.083-0.053"/>
  <path transform="matrix(9.4037,0,0,-9.4037,338.8,28.091)" d="m0 0c-0.412-0.121-1.175-0.607-1.52-1.024-0.022-0.027 0.074-0.112 0.097-0.085 0.292 0.33 1.173 0.84 1.499 0.958 0.154-0.967 0.111-1.737-0.049-2.383-0.02-0.081-0.029-0.186-0.029-0.31 0-0.226 0.028-0.512 0.057-0.809 0.044-0.457 0.114-1.078-6e-3 -1.284-0.239-0.291-0.413-0.45-0.523-0.535-0.264 0.053-0.69 0.292-0.818 0.392-0.649 1.868-2.341 2.752-4.651 2.43-0.501 0.551-1.099 1.932-1.261 2.373 0.656-0.168 2.363-0.978 2.73-1.177 0.204-0.111 0.092 0.059-0.103 0.186-0.463 0.304-1.956 0.96-2.62 1.122-0.174 0.043-0.183 0.016-0.139-0.146 0.132-0.482 1.125-2.569 1.317-2.547 1.605 0.182 3.811 0.043 4.612-2.303 0.022-0.065 0.595-0.431 0.949-0.457 0.181 0.064 0.559 0.45 0.657 0.611 0.098 0.162 0.04 0.764-0.016 1.348-0.041 0.426-0.083 0.867-0.031 1.074 0.177 0.716 0.297 1.071 0.085 2.415-0.034 0.212-0.064 0.202-0.237 0.151"/>
 </g>
</svg>
