<?xml version="1.0" encoding="UTF-8"?>
<!-- Created with Inkscape (http://www.inkscape.org/) -->
<svg version="1.1" viewBox="0 0 356.7 397.49" xmlns="http://www.w3.org/2000/svg" xmlns:cc="http://creativecommons.org/ns#" xmlns:dc="http://purl.org/dc/elements/1.1/" xmlns:rdf="http://www.w3.org/1999/02/22-rdf-syntax-ns#">
 <metadata>
  <rdf:RDF>
   <cc:Work rdf:about="">
    <dc:format>image/svg+xml</dc:format>
    <dc:type rdf:resource="http://purl.org/dc/dcmitype/StillImage"/>
   </cc:Work>
  </rdf:RDF>
 </metadata>
 <g stroke-width="8.1518">
  <path d="m225.35 314.31c-7.5975 6.285-45.919 27.904-49.473 31.009-5.4943 4.8422-1.7689 19.14 7.842 13.336 21.48-12.994 74.287-39.773 74.287-39.773s-7.2306-7.8013-11.355-12.758c14.494-10.923 52.147-37.221 52.147-37.221l-18.643-24.879 44.06-28.662s-19.923-20.551-36.161-32.42c-16.238-11.877-24.439-17.29-24.439-17.29s20.021-14.975 45.202-27.023c25.189-12.057 38.664-16.622 38.664-16.622s2.0461-43.392 3.3748-67.203c1.3206-23.844 3.6194-51.609 3.6194-51.609s-49.775 26.485-87.705 66.698c-37.93 40.205-71.059 83.042-71.059 83.042s20.322 17.722 42.031 32.151c21.725 14.453 35.917 23.412 35.917 23.412s-14.959 16.874-36.006 31.988l23.885 20.966-51.055 35.452s7.5567 9.024 14.869 17.404" fill="#fd0"/>
  <path d="m298.8 268.91s-51.291 36.504-53.598 36.52c-0.17119-1.663 24.439-21.969 49.954-41.419z" fill="#fdb913"/>
  <path d="m181.41 357.52c25.197-13.092 76.521-37.449 76.521-37.449s-5.7226-9.0811-10.426-14.323c11.796-8.3719 30.569-21.936 30.569-21.936l6.978-18.496-14.209 5.853 4.7117-13.027-22.67 11.258s-33.634 19.507-41.46 27.626c4.5976 6.334 13.565 18.13 13.565 18.13s-47.174 29.656-51.666 33.536c-1.1086 2.0542 5.4617 9.3175 8.0866 8.8284" fill="#6b3a10"/>
  <path d="m244.9 305.35c0.59508 0.90485 3.9944-0.0326 3.6194 1.2228 2.3233-1.8749 4.5242-3.5786 6.5133-4.9889 11.861-8.3882 23.029-17.755 23.029-17.755l3.4401-9.1871c-10.76 8.5512-37.645 28.743-36.602 30.708" fill="#4e2600"/>
  <path d="m347.64 115.25c-37.816 13.198-95.425 45.031-86.165 50.305 0 0 27.097-17.453 49.367-27.455 22.279-10.002 36.634-16.051 36.634-16.051z" fill="#fdb913"/>
  <path d="m320.74 212.58c-14.812 7.8339-45.422 28.458-42.275 31.955 0 0 23.942-14.347 29.143-18.04 5.1682-3.6683 15.692-9.6517 15.692-9.6517z" fill="#fdb913"/>
  <path d="m277.52 258.8s-2.6086 6.122-4.4509 10.467c4.4509-2.1602 11.241-5.372 11.241-5.372 2.8939-1.3858 3.7009-1.2309 2.4048 2.2173l-6.5704 17.404c-0.33422 0.913-3.5949 0.27716-3.489 0.0163 0 0 4.4427-11.062 6.285-15.855-4.402 2.095-12.554 6.7742-12.554 6.7742-3.3993 1.6385-4.0596 1.663-2.3803-2.2825 0 0 3.6928-7.41 5.5351-11.73-5.5106 2.6819-21.048 11.005-21.048 11.005-0.87224 0.4239-0.10597-3.8476 0.77443-4.296l21.855-10.654c3.8966-1.8994 3.9536-1.3532 2.3966 2.307" fill="#6b3a10"/>
  <path d="m280.14 283.5c-0.33422 0.913-3.5868 0.26901-3.489 8e-3 0 0 1.394-3.4645 2.9346-7.3774 1.6222-1.288 3.2281-2.5271 4.7606-3.7172z" fill="#4e2600"/>
  <path d="m253.81 315.53s-74.108 37.89-72.461 41.851l76.13-37.262z" fill="#4e2600"/>
  <path d="m354.12 0.63077c-63.119 34.229-112.14 86.686-161.35 150.55-0.63584 0.82333-0.52171 1.6874 0.17934 2.3559 0.29347 0.27716 31.262 28.181 78.632 55.881-4.3123 4.1574-17.795 16.842-35.795 30.129-1.182 0.8804-1.182 1.663-0.2201 2.6412 0.56248 0.58693 14.217 13.059 23.184 19.181-5.1356 4.8259-46.473 32.224-48.544 33.537-2.0706 1.3287-2.6004 1.8831-0.93745 4.1819 1.4918 2.0298 12.383 14.339 13.1 15.285-3.0488 2.4129-36.683 24.472-43.245 29.045-7.2877 5.1275-8.8855 8.323 1.8831 2.1765 11.323-6.4318 41.688-25.833 43.987-27.667 2.8205-2.2254 3.3585-2.4863 0.82333-5.5188-1.0842-1.2961-11.967-14.51-11.967-14.51 19.613-13.94 44.134-30.985 48.968-35.468 1.394-1.2798 1.3776-1.8097-0.30162-2.7961-7.1247-4.2716-18.064-15.048-21.839-18.814 21.268-15.872 35.86-30.414 36.015-30.561 1.1005-1.1005 1.1902-1.8668-0.36683-2.7716-43.042-24.896-71.728-50.305-77.638-55.669 47.827-61.913 92.417-110.18 153.09-143.79-1.182 15.823-6.3095 86.694-5.7878 112.22-7.0432 2.6086-48.014 18.064-84.159 43.645-1.2961 0.88854-1.8342 1.6711 0.0408 2.9265 0.39129 0.25271 38.843 25.132 59.606 48.666-6.497 4.0188-29.542 18.203-42.821 27.137-0.85594 0.58693-1.3695 1.2717-0.43205 2.5108 0 0 15.741 21.015 17.722 23.714-6.391 4.2145-39.324 27.578-48.666 34.18-3.8721 2.7146-3.6357 2.7064-0.70106 6.0568 1.7934 2.0542 7.141 8.38 8.1436 9.9533-4.1737 3.0732-49.897 24.839-66.453 33.3-9.7088 5.3965-9.4153 7.198 1.1739 2.4863 18.146-8.0947 65.63-31.221 68.516-32.901 2.5841-1.4999 3.171-2.5189-0.0245-6.0812-1.8178-2.0298-8.3637-9.13-8.3637-9.13 25.89-20.404 50.908-35.534 51.185-35.705 1.1983-0.75812 1.2472-1.4999 0.4565-2.5434 0 0-17.021-21.309-19.026-23.942 15.692-10.467 43.539-26.795 43.816-26.966 1.3777-0.86409 1.2717-1.6711 0.41574-2.6738-17.999-21.105-50.745-43.775-59.207-49.628 38.648-26.803 81.665-41.452 82.089-41.607 0.71735-0.25271 1.1983-0.93746 1.1739-1.7037-0.79888-27.194 6.1709-118.74 6.2443-119.63 0.2038-2.7227-0.57877-2.7716-2.6004-1.6793" fill="#061922"/>
 </g>
 <g fill="#fd0" stroke-width="8.1518">
  <path d="m170.49 98.452c49.098 0 98.156 34.417 98.156 82.586 0 43.082-37.14 75.314-98.156 75.314-54.633 0-98.156-27.545-98.156-75.314 0-54.348 57.389-82.586 98.156-82.586"/>
  <path d="m245.89 128.21c16.295-11.127 31.197-27.341 43.914-41.118 3.0651-24.056 2.9917-42.3-2.9754-59.312-33.757 26.925-56.435 54.136-67.709 81.534-1.2228 2.9754 19.597 23.795 26.771 18.896"/>
  <path d="m87.729 59.65c14.478 12.301 33.414 38.843 37.963 48.291 4.5568 9.4479-16.263 24.496-28.515 18.545-12.244-5.9508-36.39-20.82-54.764-39.895-4.5487-19.067-4.8992-47.232-3.8558-56.158 15.578 7.1736 35.175 17.323 49.172 29.216"/>
  <path d="m220.02 393.47c-19.067-0.60323-30.308-4.8096-44.647-5.2661-14.339-0.4565-48.34 6.3421-64.261 5.8367-25.002-0.79073-39.569-32.787-38.517-65.818 0.24455-7.6953 6.7415-30.594 14.804-52.742 8.054-22.148 11.103-31.865 14.657-38.925 7.8991-15.733 136.44-13.76 141.28 1.3288 2.5434 7.9562 25.214 82.553 27.243 90.493 8.9507 35.142-22.075 65.997-50.557 65.092"/>
  <path d="m273.72 328.58c-1.6956-0.76627-7.516 2.47-9.9696 5.1112-0.4565-2.0298-2.0543-4.0025-4.0433-2.2336-1.9809 1.7852-9.88 10.899-15.456 23.934-8.2496 19.287-10.239 36.577-3.1221 40.254 5.2742 2.7146 20.2-7.8991 30.806-27.211 6.4888-11.82 10.345-30.08 6.7904-32.167-0.94561-0.56248-2.7064-0.17119-4.1411 0.74181 0.56247-3.8313 1.2065-7.4915-0.86409-8.429"/>
  <path d="m81.224 326.54c3.864-1.1576 14.355 11.339 19.409 25.564 7.2959 20.494 5.8612 39.512-2.0624 42.993-7.1084 3.1303-20.714-10.907-29.249-32.607-5.8856-14.959-6.3258-30.822-4.5079-31.743 0.97822-0.49726 6.0405 2.8205 6.0405 2.8205-0.30162-4.3042-0.50541-9.0322 0.72551-9.2604 1.2391-0.2201 8.2333 5.4209 8.2333 5.4209 0.13043-1.3043 0.35053-2.8694 1.4103-3.1874"/>
 </g>
 <path d="m322.53 12.94c2.8857 2.6656 0.22825 34.89-31.849 73.831 2.1032-21.293 1.7771-50.272-3.8476-58.962 10.679-8.7469 30.969-19.246 35.697-14.869" fill="#061922" stroke-width="8.1518"/>
 <path d="m1.8581 26.717c1.5978-5.4454 20.094-2.4618 37.001 3.8069-1.4429 10.491-0.52172 38.183 3.1547 54.715-14.437-13.646-43.433-47.37-40.156-58.522" fill="#061922" stroke-width="8.1518"/>
 <g fill="#fdb913" stroke-width="8.1518">
  <path d="m181.59 248.69c0-2.2418-21.504-2.6901-21.504 0 0 1.6385 5.9753 4.0351 9.8555 4.0351 4.0351 0 11.649-1.7934 11.649-4.0351"/>
  <path d="m236.56 385.48c-5.0541 1.9401-11.119 2.8042-18.725 2.5597-7.6056-0.24456-21.928-4.1085-41.077-4.7199-19.149-0.60323-54.055 7.2144-72.347 4.2716l-2.5271 5.1764c3.6357 1.4266 15.953 2.0787 27.553 0.61138 11.6-1.4755 38.24-5.3557 47.688-5.0541 9.4479 0.30161 33.985 4.8422 42.903 5.1275 8.9181 0.27716 17.665-2.4211 17.665-2.4211z"/>
  <path d="m264.8 378.06c-3.2852 4.2715-17.266 14.331-21.415 12.798-4.1493-1.5244-6.0894-12.089-3.9292-19.556-3.6112 8.9996-3.0243 23.249 1.6793 24.39 11.633 2.8205 23.665-17.632 23.665-17.632"/>
  <path d="m105.2 371.05c0.73366 7.3855-3.7906 17.649-7.7687 18.831-3.5379 1.0597-15.048-4.5732-20.062-13.41 6.4888 10.891 14.722 20.396 21.203 18.619 9.9778-2.7553 6.6274-24.04 6.6274-24.04"/>
 </g>
 <g fill="#061922" stroke-width="8.1518">
  <path d="m96.606 125.43c-16.801 14.828-26.371 34.466-26.371 56.688 0 30.846 19.157 53.932 40.278 61.285 4.8911 1.7037 5.6003-0.13043 0.79887-2.0542-17.779-7.1084-36.675-30.284-36.675-59.231 0-21.113 8.9425-40.091 23.771-54.495 4.8503-4.7036 2.364-5.8693-1.8015-2.1928"/>
  <path d="m124.42 107.09c13.646-6.6926 29.151-10.361 46.058-10.361 18.317 0 35.436 3.9292 50.394 12.595 4.5079 2.6086 2.364 4.0678-0.90485 2.47-14.559-7.1247-31.409-11.486-49.49-11.486-16.442 0-31.825 3.2852-45.177 9.342-4.3449 1.9727-6.4399 0.17118-0.88039-2.5597"/>
  <path d="m246.86 127.55c15.749 14.567 24.406 32.868 24.406 53.541 0 33.268-19.548 53.802-41.729 62.859-4.2471 1.7282-5.1682-0.0652-1.019-2.0135 17.681-8.323 38.338-29.249 38.338-60.845 0-19.597-8.323-37.612-22.246-51.576-5.5432-5.5677-2.8531-6.6845 2.2499-1.9646"/>
  <path d="m323.52 11.391c5.0786 4.3531-2.3885 64.872-76.366 118.26-0.79888 0.57877-2.951-2.2499-2.1602-2.845 70.864-53.72 79.301-108.51 76.146-112.76-8.1844-6.9372-72.258 35.778-100.26 96.028-0.4239 0.88855-3.4401-0.68475-3.0243-1.5814 33.382-71.817 96.827-104.66 105.66-97.104"/>
  <path d="m288.73 27.613c5.6084 19.532 7.4344 29.591 2.4944 59.223-0.16304 0.97822-3.6846 0.39129-3.5216-0.58693 4.3286-25.963 2.2907-41.305-2.4048-57.65-0.26901-0.95376 3.1548-1.932 3.4319-0.98637"/>
  <path d="m126.57 106.03c0.4565 0.88039-2.6901 2.5515-3.1466 1.6793-36.145-67.758-112.45-87.208-119.5-81.314-5.641 8.217 39.251 69.16 93.599 98.115 0.87224 0.46465-1.5407 3.2526-2.4129 2.7961-58.473-30.088-102.31-91.227-94.055-103.03 5.4128-7.7279 85.268 4.5324 125.51 81.754"/>
  <path d="m39.968 31.608c-1.0027 5.3639-0.74181 44.346 4.5406 54.258 0.46465 0.87224-2.1765 1.72-2.6249 0.83964-8.0458-15.537-6.5214-49.897-5.4291-55.758 0.17934-0.96191 3.6928-0.30977 3.5134 0.6603"/>
  <path d="m220.46 143.37c-9.505 0-16.45 8.3964-16.45 19.246 0 9.4072 8.5594 17.143 17.673 17.143 9.3746 0 17.143-7.7931 17.143-16.972 0-10.834-7.9643-19.418-18.366-19.418"/>
  <path d="m119.55 143.37c-10.467 0-18.456 8.698-18.456 18.195 0 10.589 7.8339 18.374 17.535 18.374 9.4805 0 17.453-6.9861 17.453-17.673 0-10.956-7.2959-18.896-16.532-18.896"/>
 </g>
 <g stroke-width="8.1518">
  <path d="m218.74 145.81c-4.3042 0-7.2551 3.8884-7.2551 8.0866 0 3.7824 3.3993 7.4834 7.4344 7.4834 4.6628 0 7.3448-4.1167 7.3448-7.6138 0-4.4427-3.1303-7.9562-7.5241-7.9562" fill="#fff"/>
  <path d="m120.43 145.9c4.5161 0 7.1247 3.6194 7.1247 7.8746 0 3.383-2.739 6.9535-7.3855 6.9535-3.3178 0-6.823-2.7716-6.823-7.0024 0-4.1411 2.5352-7.8257 7.0839-7.8257" fill="#fff"/>
  <path d="m173.28 179.24c0 0.70105-1.8423 2.0135-3.0651 2.0135s-3.1466-1.0516-3.1466-2.0135 6.2117-0.96191 6.2117 0" fill="#061922"/>
  <path d="m254.47 181.11c-9.6599-4.0596-18.219 2.7472-22.703 13.956-3.4564 8.6328-2.4455 21.464 4.5079 25.588 6.5133 3.8558 17.013-1.0516 22.393-12.603 6.3502-13.638 1.9157-24.374-4.1982-26.942" fill="#ed1d24"/>
  <path d="m85.055 181.6c5.7307-3.0569 17.453-0.6603 24.667 12.464 5.1764 9.4072 5.5758 22.238-2.364 27.692-6.1465 4.2308-15.545-0.47281-23.485-13.255-6.6519-10.72-5.4209-23.379 1.182-26.901" fill="#ed1d24"/>
 </g>
 <g fill="#061922" stroke-width="8.1518">
  <path d="m243.96 236.05c5.3476 14.804 25.466 75.877 28.735 91.797 0.2038 0.97006-4.3775 1.8749-4.5813 0.90485-3.2444-15.814-22.091-76.276-27.414-91.007-0.34238-0.9293 2.9183-2.6249 3.2607-1.6956"/>
  <path d="m103.27 238.91c-6.8231 15.806-19.939 52-28.36 85.227-0.2364 0.95376-4.4427 1.1005-4.1982 0.13858 8.4697-33.439 21.203-68.752 29.501-87.2 0.39944-0.89669 3.4482 0.92931 3.0569 1.8342"/>
  <path d="m214.75 261.65c-7.3774 12.105-18.733 45.65-22.116 64.261-1.5733 1.8178-3.652 5.3313-3.7254 7.5567-0.0408 1.2961 2.1032 3.3341 3.3993 4.1004 0.2038 2.2091 0.26086 4.6873 1.6956 5.5758 0.94561 0.57063 2.7879 0.70106 3.9292 0.79073 0.14673 1.7445 0.55432 3.9129 2.2417 4.8259 1.4266 0.76627 3.1384 0.48911 4.4916-0.0163 0.70921 1.6222 1.8749 3.1629 3.8476 3.3912 1.5407 0.17934 3.0325-0.52172 4.3123-1.3858 0.85593 1.2554 2.0706 3.0162 3.9862 3.22 9.0648 0.99451 33.96-35.68 37.083-57.12 0.73367-4.9889-1.4836-5.6981-2.6004-0.76627-4.8503 21.407-29.135 54.544-33.96 54.022-0.79072-0.0897-2.9672-3.4401-3.5053-3.5705-0.52987-0.13858-3.9047 1.8342-4.8259 1.7282-0.59508-0.0652-2.258-3.0895-2.7064-3.2852s-3.6031 0.62769-4.2471 0.26901c-0.32608-0.19564-0.84779-3.9455-1.1983-4.2797-0.34237-0.35052-4.1167-0.6929-4.3286-0.78257-0.30977-0.40759-0.8641-4.4835-1.0516-4.7444-0.17934-0.26901-2.5434-1.0516-2.5271-1.8749-0.0897-0.92115 1.3695-4.4672 2.5841-5.6166 0.28531-0.26086 0.4728-0.61139 0.53801-0.98637 3.5134-19.711 14.535-53.117 21.064-63.829 3.2526-5.3313 0.87224-6.8149-2.3803-1.4836"/>
  <path d="m149.5 344.31h-0.0734 0.0734m-23.192-84.322c8.38 12.456 20.771 44.631 23.591 65.907 0.0571 0.46466 0.30161 0.88855 0.6766 1.1739 2.258 1.7445 3.6112 4.027 3.4645 5.8285-0.0815 0.98637-2.258 2.7879-2.4048 3.1629-0.15488 0.37498 0.35053 3.6357-0.0734 4.1737-0.4239 0.53802-2.8531 0.64399-3.22 0.97822-0.36683 0.34237-0.73366 3.5134-1.451 4.1411-0.7092 0.61139-3.4074 0.48096-3.7009 0.59508-0.40759 0.17119-2.1358 3.008-2.7635 3.2281-0.71736 0.24456-4.4916-1.182-4.9644-1.019-0.46465 0.17119-1.9483 2.0706-2.1113 2.1113-0.37498 0.0815-1.8178 0.19564-4.6547-2.1928-7.198-6.0486-31.181-45.536-33.871-52.383-2.5515-6.5051-4.3205-6.0242-2.2254 0.65215 3.9536 12.66 24.243 46.441 33.789 54.462 2.951 2.4782 5.5677 3.4645 7.785 2.9346 0.77442-0.17934 1.5978-0.82333 2.4292-2.1113 1.5407 0.90485 3.3178 1.4918 4.9808 0.92115 1.6385-0.56247 2.47-1.9972 3.1058-3.546 1.8994 0.12227 3.4564-0.0163 4.5406-0.95376 1.0516-0.92116 1.6793-2.5923 1.7282-4.296 1.7119-0.0163 2.6412-0.35053 3.4074-1.3043 0.52987-0.66845 0.76627-3.8884 0.34238-5.209 1.6141-1.0597 2.7553-2.3233 2.8939-4.0596 0.2201-2.8857-1.2961-5.8693-4.2797-8.4126-3.0814-22.083-14.779-53.362-25.271-66.03-3.8884-4.6954-5.1519-3.815-1.7445 1.2472"/>
  <path d="m274.52 326.78c3.4238 1.7363 3.9373 10.263-5.3557 28.148-1.9646 3.7743-3.6439 2.9346-1.6793-0.83964 6.4155-12.35 6.285-22.287 5.1193-23.648-1.1657-0.56248-6.2198 2.7064-7.948 5.1275-0.57062 0.79888-2.576-2.0869-2.0053-2.8939 2.0542-2.8857 8.0621-7.8176 11.869-5.8938"/>
  <path d="m261.58 332.65c-1.1576-0.61139-9.1708 8.1355-16.157 24.105-8.2822 18.945-8.9181 35.24-4.5324 37.49 3.3178 1.7037 16.744-3.3993 28.735-25.58 10.54-19.515 8.9914-29.493 8.2496-30.651-0.40759-0.42389-1.5081-0.0815-2.6982 0.90485-0.74996 0.62769-0.34237-3.9455 0.12228-4.19 1.932-1.0434 3.6928-0.74181 5.2334 0.90485 2.1847 2.3314 3.2607 14.306-7.7687 34.727-12.22 22.605-26.51 29.265-32.713 26.086-6.9861-3.5786-6.4807-21.496 2.1032-41.118 6.3013-14.421 16.01-28.539 21.097-26.502 4.4101 1.7608 0.0815 16.54-3.1874 23.224-1.8994 3.8721-3.008 2.6982-1.8586-0.6766 3.8069-11.168 4.4672-18.146 3.3748-18.725"/>
  <path d="m216.42 390.94c7.7279 0.28531 14.983-0.17119 20.013-2.1684 0.92115-0.35868 2.5108 3.5623 1.5896 3.9292-5.4862 2.1684-13.499 3.008-21.619 2.7227-10.263-0.36683-30.423-5.1764-39.341-5.4536-9.5458-0.30162-22.678 1.663-35.02 3.2281-16.41 2.0869-33.675 4.2389-41.281 1.7119-0.94561-0.31792 2.3151-4.2389 3.2526-3.9292 6.8475 2.2744 22.662 0.26901 37.947-1.6711 12.48-1.5896 25.385-3.22 35.216-2.9102 6.9453 0.2201 29.257 4.1656 39.243 4.5406"/>
  <path d="m66.225 332.49c-2.0216 0.93746-0.43204 17.502 5.3068 30.211 11.478 25.425 22.532 33.17 27.463 30.259 5.9671-3.5216 7.9888-22.784-0.71736-41.656-7.4263-16.116-14.632-23.673-16.198-23.265-1.2717 0.33422 0.73366 13.744 3.5379 20.135 1.2635 2.8939-0.2201 4.1819-1.7689 0.65215-2.7716-6.3095-8.4045-22.719-3.4808-24.325 4.7525-1.5325 13.491 8.698 21.154 25.311 8.38 18.17 8.0295 41.061-0.70921 46.221-6.1628 3.6357-17.657 2.3803-33.015-31.637-8.592-19.034-7.2225-35.746-3.1221-36.202 0.8967-0.10597 3.3178 0.57063 5.9671 2.9184 0.52987 0.4728 0.4728 5.2334-0.16304 4.4753-1.3614-1.5978-3.2281-3.5705-4.2552-3.0977"/>
  <path d="m70.447 322.79c2.8042-1.3695 7.1002 2.1358 9.3175 4.19 0.74181 0.67659-0.48911 4.5732-1.1657 3.8558-2.3559-2.5108-5.103-5.0541-6.2524-4.5895-0.79888 0.33423 0.97006 19.295 3.7009 25.523 1.5244 3.4971-0.0082 4.8259-1.8179 0.68475-3.1384-7.1573-7.6382-27.781-3.7824-29.664"/>
 </g>
 <path d="m187.3 212.9c-3.2363-2.1521-9.1056-4.0188-16.084-4.2308-6.9779-0.21195-15.44 2.3314-18.831 5.2905 2.1195 6.1383 9.505 18.619 18.407 18.619 7.6138 0 15.024-14.6 16.507-19.678" fill="#ed1d24" stroke-width="8.1518"/>
 <path d="m187.51 213.15c1.9809-4.508 4.4509-13.198 3.815-16.622-4.0678-0.63584-9.0811-2.47-12.749-3.4238s-7.9725-1.5162-12.595 0.0815c-4.6139 1.5896-14.412 4.0596-18.162 2.6249 0.31792 5.421 2.3151 14.901 4.0596 18.089 5.7389-3.3422 13.785-5.3394 18.333-5.4128 4.5406-0.0815 14.046 1.8505 17.298 4.6628" fill="#b11116" stroke-width="8.1518"/>
 <g fill="#061922" stroke-width="8.1518">
  <path d="m149.59 196.52c1.3858 15.757 11.633 33.455 21.276 33.528 9.5213 0.0815 18.733-21.317 19.051-33.594 0.0245-0.97822 3.2607-0.68476 3.22 0.29346-0.46466 13.051-9.6273 37.164-22.271 37.099-11.559-0.0652-22.311-18.358-24.504-37.327-0.10598-0.96191 3.1466-0.96191 3.2281 0"/>
  <path d="m151.79 212.99c10.027-6.9209 26.444-7.573 36.047-0.63584 0.61954 0.43204-0.41574 2.7961-0.8967 2.4782-9.0322-5.959-24.154-5.7552-33.814 0.43204-0.53802 0.35053-2.0054-1.8097-1.3369-2.2744"/>
  <path d="m192.1 195.3c3.5297 0 6.9372-1.3776 9.3583-4.2715 2.3396-2.7716 3.4238-1.8178 1.5733 1.3124-2.4292 4.1411-6.2606 6.5296-10.932 6.5296-6.122 0-17.078-5.2498-21.61-5.2498-4.7199 0-14.037 5.2498-23.029 5.2498-5.4128 0-9.5132-3.1792-11.812-5.9345-2.1847-2.6167-1.3777-3.8069 1.3776-1.3777 1.7934 1.5733 5.5514 3.4971 10.434 3.4971 7.6138 0 16.475-5.0052 22.678-5.0052 6.9779 0 18.399 5.2498 21.961 5.2498"/>
 </g>
</svg>
