<?xml version="1.0" encoding="UTF-8"?>
<svg version="1.1" viewBox="0 0 234.36 263.35" xmlns="http://www.w3.org/2000/svg">
 <g transform="translate(.090075)">
  <path d="m112.85 24.75q5.8 8.95 8.7 19.5 2.6 9.3 1.9 15.45-12.65-27.55-31.75-36.75-15.65-7.5-30.7-1.3-17.95 7.45-28.6 30.95-9.75 21.4-13.2 55.4l-0.35 4.75-0.05-0.05q-1.75 26.15 6.1 55.3 2.75 10.1 7 21.9l6.3 16.9q-14.95-12.6-25.55-42.75-11.05-31.5-10.65-64.2l-0.05-0.05q0.05-3.65 0.45-9.15 2.85-41.2 21.05-64.7 18.2-23.55 47.9-24.35 26.1-0.7 41.5 23.15" fill="#007b36"/>
  <path d="m2.1 95.4q5.2-20.05 18.2-38.8 14.2-20.5 31.35-29.6-13.6 10.15-21.85 31.85-7.65 19.95-10.6 49.15l-0.35 4.75-0.05-0.05q-1.75 26.15 6.1 55.3 2.75 10.1 7 21.9l6.3 16.9q-14.95-12.6-25.55-42.75-11.05-31.5-10.65-64.2l-0.05-0.05 0.15-4.4" fill="#00662a"/>
  <g fill="#0d131a">
   <path d="m7.6 109.4q0.2-1.35 0.45-1.25t0.15 1.25q-1.45 21.9 7.25 51.6 8.5 29.05 19.8 42.35 2.75 3.25-1.2-0.2-13.35-16.95-21.35-48.45-7.25-28.6-5.1-45.3"/>
   <path d="m15.15 115.05q0.05-2.1 0.3-1.25l0.3 1.25q0 44.9 18.9 81.75l1.85 5.85q-11.65-21.15-17.05-45.2-4.6-20.7-4.3-42.4"/>
   <path d="m124.15 59.6q-0.1 2.4-0.45 1.75l-0.65-1.5q-10.75-20.7-23.75-30.65-11.55-8.8-24.2-8.75-17.6 0.05-31.2 16.9-13.05 16.15-19 43.45-6.1 27.95-2.95 59.65 3.4 34.25 17 65.45 1.1 2.6 0.1 2.45-0.9-0.1-2.4-1.65-20.8-21.35-30.4-57-9.2-34-5.05-68.3 4.35-35.6 21.6-57.35 19.1-24.05 49.4-24.05 25.2 0 40.15 21.5 6.05 8.65 9.2 19.4 2.9 9.9 2.6 18.7m-5.1-21.55q-4.75-12.4-12.7-21.05-14.35-15.55-35-14.95-14.45 0.4-26.6 6.55-12.1 6.15-21 17.6-8.85 11.5-14.2 27.9-5.3 16.45-6.75 36.55l-0.35 8.65v2.55q0 15.35 2.7 31.25 2.7 15.95 7.85 30.6 4.8 13.7 11.1 24.55 6.3 10.8 13.05 17.05l-2-5.4q-7.75-20.6-11.15-33.6-5.95-22.7-5.95-43.65 0-3.75 0.35-8.9l0.35-5.8q3.65-36 14.25-57.75 10.55-21.8 27.85-28.95 15.1-6.2 30.8 1.25 18.85 8.95 31.45 35.45l0.05-0.75q0-8.4-4.1-19.15"/>
   <path d="m107.6 25.6q-1.05-1.3-0.85-1.45l1.35 1.1q4.95 5.1 9.05 13.4 4.3 8.85 6.6 19.3l-0.6 0.95q-2.2-9.95-6.85-19.45-3.95-8-8.7-13.85"/>
   <path d="m142.8 169.85 0.25-0.05 0.15 0.2q4.85 5.4 7.7 13.1 3 8.15 3.05 17.1 0 8.05-1.6 13.8-1.6 5.8-5.2 10.7l-1.3 1.4-1.3-1.15q-8.8-10.4-9.65-24.9-0.7-11.65 3.55-23.45 2.35-6.4 4.35-6.75"/>
  </g>
  <path d="m149.9 184.45q2.15 7.3 2.15 15.7 0 7.7-1.75 14.35-1.7 6.5-4.45 9.7-9.55-11.85-9.55-28.95 0-10 3-18.35 1.85-5.15 3.45-6.05 4.75 5.45 7.15 13.6" fill="#007b36"/>
  <path d="m142.75 170.85q4.75 5.45 7.15 13.6 2.15 7.3 2.15 15.7 0 4.3-0.65 8.95-2.85-1.45-7.2-3.1l-7.35-2.85q-0.55-3.7-0.55-7.9 0-10 3-18.35 1.85-5.15 3.45-6.05" fill="#00662a"/>
  <path d="m170.65 166.65q0.65-0.75 3.15-0.35 13.7 2.2 30.05 14.75 20.9 16.05 30.05 39.75 0.65 1.65 0.15 1.7l-3.3-1q-27.15-8.95-41.85-23.7-11.75-11.75-18.3-30.7l-0.1-0.25 0.15-0.2" fill="#0d131a"/>
  <path d="m173.65 167.2q4.25 0.7 11.2 4 8.6 4.1 16.75 10.25 8.95 6.85 16 15.2 9.25 11 14.45 23.75-27.75-9.9-42.25-23.8-11.95-11.4-18.25-29.45l2.1 0.05" fill="#007b36"/>
  <path d="m180 184.85q-4.9-7.55-8.45-17.7l2.1 0.05q4.25 0.7 11.2 4 8.6 4.1 16.75 10.25 10.65 8.1 18.5 18.3l-25.8 0.8q-8.6-7-14.3-15.7" fill="#00662a"/>
  <path d="m11.3 141.45q-5.4-10.25-0.85-16.5 4.5-6.15 14.6-3.1 4.7 1.45 5.15 4 0.55 2.6-0.05 4.85-0.55 2.15-2.05 3.45-2.1 1.8-4.55 0.85-1.85-0.7-4.8 1.35-3 2.05-4.55 5.15-1 2-1.45 1.95-0.4 0-1.45-2" fill="#0d131a"/>
  <path d="m19.05 122q2.9-0.15 5.75 0.7 4.05 1.3 4.55 3.35 0.45 2.35 0 4.3-0.5 2-1.8 3.1-1.7 1.5-3.7 0.7-2.8-1.05-5.8 1-3.2 2.15-5.05 6.65-2.6-6.4-2.6-10.3 0-2.85 1.15-4.9 0.9-1.65 2.7-3.05 1.75-1.35 4.8-1.55" fill="#6cba5a"/>
  <path d="m13 141.75q0.7-5.95 4.15-8.3 3.75-2.55 11.65-1.65l-1.25 1.65q-1.7 1.5-3.7 0.7-2.8-1.05-5.8 1-3.2 2.15-5.05 6.65v-0.05" fill="#5da24d"/>
  <path d="m47.4 142.4 0.2 0.15-0.05 0.25q-2.05 12.5-16.65 24.95-9.95 8.5-24.2 15.85-1.1 0.6-1.3 0.45-0.2-0.2 0-1.7 3.45-22.8 21.45-34.45 6.5-4.15 13-5.65 5.85-1.3 7.55 0.15" fill="#0d131a"/>
  <path d="m46.6 142.95q-1.95 10.9-14.6 21.9-7.1 6.1-20.9 14.45l-4.4 2.7q3.45-17.1 14.2-27.7 7.05-6.9 15.8-10 3.5-1.2 6.4-1.55l3.5 0.2" fill="#007b36"/>
  <path d="m43.1 142.75 3.5 0.2q-1.45 8.2-8.9 16.35 0-7.25-2.1-14.55l1.1-0.45q3.5-1.2 6.4-1.55" fill="#00662a"/>
  <path d="m49.45 145.3 0.15-0.2h0.25q2.05 0.05 5.25 4.9 3.55 5.4 5.7 12.9 5.85 20.55-3.65 39.55l-1 1.55q-0.2 0-1.25-1.4-7.35-10.35-9.9-26.45-3-18.95 4.45-30.85" fill="#0d131a"/>
  <path d="m45.55 164.65q0-11.15 4.5-18.6 1.55 0.6 4 4.8 3 5.1 4.95 11.75 2.35 8.1 2.35 16.25 0 12.15-5.4 22.75-3.85-5.5-6.9-15.4-3.5-11.35-3.5-21.55" fill="#007b36"/>
  <path d="m54.05 150.85q2.45 4.2 4.25 9.65 2.15 6.4 2.8 13.05-8.05-7.35-15.5-9.65 0.1-10.65 4.45-17.85 1.55 0.6 4 4.8" fill="#00662a"/>
  <path d="m41.55 148q4.65-4.5 7.35-4l0.25 0.05 0.1 0.25q4.4 12.15-0.7 28-4.95 15.3-17.9 31.55l-1.15 1.3q-0.2 0.05-0.7-1.7-6.45-22.15 3.85-42.8 3.85-7.75 8.9-12.65" fill="#0d131a"/>
  <path d="m48.5 144.9q1.65 4.65 1.65 10.1 0 10.95-6.9 25.15-4.15 8.6-13.3 22.5-1.95-7.85-1.95-15.6 0-11.5 4.15-21.8 3.65-9 9.7-15.45 2.15-2.3 4.15-3.65 1.65-1.15 2.5-1.25" fill="#007b36"/>
  <path d="m46 146.15q1.65-1.15 2.5-1.25 1.65 4.65 1.65 10.1 0 2.6-0.4 5.55-3.9-6.3-9.2-9.3l1.3-1.45q2.15-2.3 4.15-3.65" fill="#00662a"/>
  <path d="m45.75 126.05q3.95 6.2 12.85 15.8 8.2 8.8 12.15 11.7 2.85-3.35 5.65-8.05 3.45-5.75 4.75-10.5 1.85-6.8 4.85-8.45 1.55-0.9 4.15-0.95 2.5-0.05 4.9 0.65 3.3 0.95 5.35 4.15 1.75 2.75 1.9 5.75v0.4q0 2.6-0.3 3.6-0.5 1.65-2.1 2.3-4 1.6-10.95 8.9-6.05 6.4-8.7 10.8l2 2.3q1.85 2.2 2.15 3.35 0.5 2.3-3.7 2.3-6.3 0-16.85-6.95-8.85-5.8-19.65-15.7-8.75-8-16.05-12.2-1.6 0.95-3.15 2.65-1.5 1.55-2.25 2.95l-0.75 0.95-0.8-0.95q-3.9-4.85-2.7-12.05 1.3-7.6 7.65-10.25 5.2-2.2 10.7-0.05 5.45 2.1 8.9 7.55" fill="#0d131a"/>
  <path d="m45.05 127.75q3.3 5.15 11.7 14.15 8.6 9.15 12.9 12.05 2 1.35 2.6 1.3 0.55-0.05-0.5-0.95 2.3-2.8 4.65-6.5 4.75-7.3 6.3-13 1.5-5.35 4.6-7.05 2.7-1.55 7.15-0.25 3.05 0.9 5.05 3.6 1.8 2.45 1.9 5.1 0.1 1.85-0.75 3.25-0.8 1.35-2.45 2.05-4.35 1.75-11.65 10.05-6.3 7.15-7.6 10.05-0.9 1.9-0.7 2.15 0.2 0.3 1.3-0.85 0.8 0.75 2 2.45 1.8 2.4 1.55 2.9-0.3 0.6-2.5 0.6-5.75 0-16.45-7.4-6.2-4.3-18.75-14.85-11.7-9.85-15.9-12.35 2.25-0.95 5.2-1.15 1.35-0.05 1.3-0.4-0.1-0.3-1.3-0.5-3.3-0.45-6.65 1.35-3.7 2-6.1 6.2-3.45-5.15-1.5-12.1 1.9-6.75 6.5-7.95 11.1-2.95 18.1 8.05" fill="#6cba5a"/>
  <g fill="#5da24d">
   <path d="m98.85 130.35q2.45 2.7 2.55 5.85 0.1 1.85-0.75 3.25-0.8 1.35-2.45 2.05-3.6 1.45-9.35 7.55-4.55 4.75-8.2 9.85 1.2-2.8 3.6-6.65 1.95-3.15 3.25-4.85l6.45-7.5q5.1-6.55 4.9-9.55"/>
   <path d="m29.5 134.25q2.25-0.95 5.2-1.15l0.75-0.05 5.95 6.6q5.3 5.75 10.7 10.2 12.4 10.25 19.6 14.35 6.1 3.5 11.4 4.05-0.3 0.6-2.5 0.6-5.75 0-16.45-7.4-6.2-4.3-18.75-14.85-11.7-9.85-15.9-12.35"/>
   <path d="m21.95 139.7q0.7-4.6 4.3-6.8t8.15-0.7q-3.3-0.35-6.5 1.45-3.6 2-5.95 6.05"/>
  </g>
  <path d="m75.7 191.95q-0.25-3.45 5.2-10.5 3.55-4.65 10.5-11.9l5.15-5.15q2.35-2.4 2.85-3.5 0.7-1.55 1.95-2.2 1-0.5 2.65-0.65 3.15-0.25 7.25 3.45 3.4 3.05 6.4 7.75 2.25 3.55 3.65 7.05 1.65 4.05 1.65 6.95 0 0.5 0.7 2.05 0.65 1.35 0.35 1.85-2.3 4.15-12.75 8l-10.55 3.2q2.45 3.8 4.05 12.15l1.1 7.6q6.35 0.3 9.95 1.65 3.5 1.25 3.5 3.15-0.05 0.95-1.4 1.9-1.4 0.95-3.35 1.3l-13.4 2.55q-8.4 1.7-11.15 2.8-6.4 2.5-13.6 6.25-7.2 3.7-11.2 6.55-2.35 1.65-3.25 1.55-0.95-0.05-1.45-2.05-0.45-1.75-0.3-4.4 0.1-2.5 0.6-3.65 1-2.35 3.75-4 2.8-1.7 8.1-3.3-4.5 0.3-8.7 2.25-2.65 1.2-6 3.55-2.55 1.8-3.6 1.45-0.75-0.3-1.05-2.15-0.6-3.1 0.75-6.15 1.55-3.45 5-5.3 2.8-1.5 7.4-2l9.6-0.35q6.55 0.05 10.95-1 4.45-1 5.55-2.8-0.15-0.65-8.5-10.75-8.1-9.85-8.35-13.2" fill="#0d131a"/>
  <path d="m80 197.2q-2.55-3.6-2.55-5.25 0-3.2 4.95-9.35 2.9-3.7 9.85-10.9 7.3-7.55 8.25-9.65 1.3-2.95 3.55-3.1 2.5-0.2 6.05 2.75 3.6 3 6.8 8.05 2.4 3.8 3.75 7.45 1.35 3.55 1.35 6.15 0 1.7-0.55 2.65-2.3 4.15-9.8 7.25-3.55 1.45-13.3 4.2-1.95 0.55-1.55 0.85l2.65 0.2q1.1 1.5 3.1 9.15 1.85 6.9 2.15 9.3 0.2 1.7 0.8 2.6t0.6-0.55l3.6 0.7 3.95 0.8q2.45 0.65 3.6 1.6l0.65 0.8q-0.05 0.55-1 1.15l-2.5 0.9-4.7 0.85-9.5 1.75q-6.15 1.35-10.55 3.05-18.15 7.1-25.1 12.35l-1.7 1q-0.4 0-0.7-1.25-0.4-1.85-0.45-3.7-0.05-2.2 0.45-3.25 1.35-2.9 11.85-6.75 5.3-1.95 11.3-3.7l0.9-0.65-1.3 0.1-9.95 2.65q-6 0.1-10.6 1.75-4.25 1.45-7.9 4.4-0.9 0.75-1.1 0.7-0.3-0.1-0.5-1.15-1.1-5.7 3.8-8.95 5.4-3.65 17.4-3.55l8.35-0.35q6.15-0.75 8.5-3.2l0.5 0.35q0.4 0 0.05-1.5-0.5-2.2-2.8-5.35l-5.15-6.4-5.5-6.95" fill="#6cba5a"/>
  <g fill="#5da24d">
   <path d="m54.95 233.45q4.4-4.15 9.85-5.7 4.85-1.35 12-0.9l-1.85 0.55q-6 0.1-10.6 1.75-4.25 1.45-7.9 4.4l-1.05 0.65q-0.25 0-0.45-0.75"/>
   <path d="m83.1 230.95q13.25-5.45 22.4-6.2 7.3-0.55 12.15-2.25l0.25 0.4q-0.05 0.55-1 1.15l-2.5 0.9-4.7 0.85-9.5 1.75q-6.15 1.35-10.55 3.05-18.15 7.1-25.1 12.35l-1.7 1q-0.4 0-0.7-1.25v-0.15q0.7-0.1 6.8-4.05 7.15-4.65 14.15-7.55"/>
   <path d="m104.5 215.95-3.6-8.45-2.65-6.05-1.45-3.15 2.65 0.2q1 1.4 2.8 8l2.25 9.45"/>
   <path d="m96.45 195.25 7.7-4.95 9.4-6.85 7-6.65q1.45 3.8 1.45 6.55 0 1.7-0.55 2.65-2.3 4.15-9.8 7.25-3.55 1.45-13.3 4.2-1.55 0.45-1.65 0.7-1.15-2.45-0.25-2.9"/>
  </g>
  <path d="m124.05 44.75 3.3-0.35q6.65 0 10.6 9.5 3.35 8.1 3.3 18.2 0 11.6-4.5 19.45-1.4 2.45-4 4.35-2.7 1.95-4.75 1.95l-2.1-0.45q-1.2-0.45-1.95-1.3 0.3 2.55-1.85 4.25-2.2 1.7-5.95 1.7-2.35 5.2-2.65 7.95 0.1 7.15 15.15 21.25 13.3 12.4 25.85 19.65 26.95 15.5 36.3 26.1 8.7 9.8 9.65 24.45 0.2 3.3-6.6 11.75l-7.8 9.15q1.85 1.4 7.75 3.3 6.45 2.1 12.65 3.1 7.65 1.25 9.6 2 3.1 1.2 5.85 4.85 5.25 6.95 3.6 14.75-0.6 2.85-1.6 2.95-0.75 0.1-2.85-1.8l-2.7-2.3q1.25 6.65 0.2 11.75-0.85 4.45-4.85 0.65-5.05-4.8-14.2-12.1-9.75-7.9-14.7-10.95-3.85-2.4-13.2-6.2-8.75-3.35-9.5-3.8-2.1-1.25 0.45-3.4 3.1-2.7 11.85-3.55 2.35-5.45 1.65-18.5-1.75-1.35-7.45-3.35-4.85-1.65-9.05-2.65-21.75 2.55-34.2-2.15-10.7-4-19.85-15.75-7.45-9.65-12.55-29.9-5.1-20.15-7.45-48.8-1.4-17.25 3.3-36.2 5.25-21.2 13.85-21.2l8 1 9.6 0.95 3.8-0.3" fill="#0d131a"/>
  <path d="m125.1 45.7 1.85-0.2q3.7 0.15 5.8 2.85 2.3 2.95 4.75 11.25 2.7 9.2 1.75 18.45-0.7 7.2-3.3 12.65-0.7 1.5-3.2 3.6-2.8 2.4-4.7 2.4-1.7 0-3.5-1.95-1.75-1.85-2.6-4.45-0.1-0.45-0.55-0.55-4.05-1-11-4.75-9.45-5.1-14-10.75-0.9-1.15-1-0.85-0.05 0.3 0.45 1.2l0.85 1.35q-4.5 9.65-5.45 31.05-1 22.95 3.2 43.15-2.85-9.2-5.25-27.3-2.45-18.15-2.45-30.2 0-17.65 5.15-32.8 5.25-15.4 11.65-15.4l6.85 0.75 9.9 0.7 4.8-0.2" fill="#6cba5a"/>
  <path d="m177.1 166.85q11.9 8.75 16.05 16.4 5.25 9.6 5.45 17.9 0.05 2.95-6.5 11.75l-7.55 9.75q-0.8 1.35-0.25 1.2l0.7-0.4q1.45 1.45 8.05 3.45 6.5 2 13.1 3.05 6.95 1.1 9.2 2.1 2.7 1.15 5.45 4.7 3.35 4.25 3.35 10.25l-0.25 3.4q-0.25 1.2-0.55 1.25l-1.35-0.85q-1.55-1.3-3.75-2.75-1.6-6-5.85-8.95-4.05-2.8-13.65-4.85l-2.2-0.05q-0.3 0.35 1.3 0.85l5.6 1.9q4.4 1.65 6.95 2.95 4.8 2.4 6.6 10.1 1.55 6.6 0.15 10.5l-0.8 1.25q-0.55 0.2-1.6-0.9-3.7-3.95-13.7-12.05-10-8.2-15.5-11.65-3.2-2.05-7.75-4.05l-7.5-3.05q-5.2-1.95-6.55-2.75-1.15-0.7 1.05-1.9 2.7-1.5 9.1-2.25l0.1 0.75q0.25 0.5 0.9-0.65 1.5-2.55 2.2-9.25 0.55-4.85 0.55-10.2l1.5 0.25q0.35-0.1-0.25-0.55-4.35-3-9.55-4.95-3.3-1.2-7.9-2.25 5.2-7.85 2.75-19-2.85-12.75-14.85-20.85-24.55-16.6-31.7-26-3.5-4.6-4.5-9.2-0.85-3.75-0.3-9.3 2.9 9.6 17.05 22.55 11.75 10.7 23.9 17.65 15.25 8.8 23.3 14.7" fill="#6cba5a"/>
  <g fill="#5da24d">
   <path d="m163.6 191.8q5.25 1.95 11.75 6.05 6.75 4.3 6.3 5.8l-2.2 9.25q-2.15 8-4.05 9.35 1.2-2.95 1.8-9.1 0.45-4.6 0.45-9.35l1.5 0.25q0.35-0.1-0.25-0.55-4.35-3-9.55-4.95-3.3-1.2-7.9-2.25 1.25-1.8 2.15-4.5"/>
   <path d="m224.05 249.15-0.15 1.25q-0.25 1.2-0.55 1.25l-1.35-0.85q-1.55-1.3-3.75-2.75l-0.45-1.55q4.5 3.15 6.25 2.65"/>
   <path d="m173.9 229.75q3.75 1 10.25 4.95 6.4 3.85 14.15 9.75 6.15 4.65 12.75 11.1 4.65 4.5 6.1 4.85v0.1l-0.8 1.25q-0.55 0.2-1.6-0.9-3.7-3.95-13.7-12.05-10-8.2-15.5-11.65-3.2-2.05-7.75-4.05l-7.5-3.05q-5.2-1.95-6.55-2.75-0.55-0.35-0.1-1 4.05 1.8 10.25 3.45"/>
  </g>
  <path d="m97.55 76.8 2 2.2q3.05 10.25 11.35 16.1 7.3 5.1 11.6 3.2-1.85 3.25-7.8 2.65-6.65-0.7-12.65-6.25-1.15-1.05-1.15-0.6 0 0.4 0.7 1.35 1.85 2.4 5.55 4.4 4.2 2.25 8.05 2.25-1.6 2.9-2.75 7.25-1.1 4.25-1.1 7.1 0 8.05 5.95 15.75 6.3 8.15 19.7 16.3l-0.05 0.05q-12.25 9.35-25.4 8.85-8.7-0.3-15.4-4.4-3.75-16.35-3.75-37.1 0-27.9 5.15-39.1" fill="#e9545d"/>
  <path d="m101.05 94.55 0.55 0.9q1.85 2.4 5.55 4.4 4.2 2.25 8.05 2.25-2.05 3.85-3.25 9.45-1.35 2.1-3.25 2.1-2.9 0-5.4-8.45-1.35-4.65-2.25-10.65" fill="#c94850"/>
  <path d="m106.7 177.85q-3.95-5.1-6.6-11.8 9.7 9.85 26.25 6.6 7.2-1.45 13.3-5.3 6.25-3.9 9.6-9.3l1.9 1.45q5.55 4.3 8.75 11.05 3.1 6.6 3.1 13.7 0 7.35-3.15 11.85-21 2.35-33.55-2.55-10.65-4.15-19.6-15.7" fill="#e9545d"/>
  <path d="m100.85 167.85q5.5 6.75 16.55 12.35 12.75 6.45 26.4 7.65 10.45 0.9 18.3 3.45-0.75 2.65-2.25 4.8-21 2.35-33.55-2.55-10.65-4.15-19.6-15.7-3.45-4.5-5.85-10" fill="#c94850"/>
  <path d="m113.3 171.1q-7.7-1.5-13.8-6.75-1.7-4.45-3-10.1 8 5.2 19.2 4.4 12.7-0.9 22.2-9.55l10.65 8.35q-2.95 4.85-9.3 8.65-6.4 3.8-13.7 5.05-6.4 1.05-12.25-0.05" fill="#6cba5a"/>
  <path d="m120.6 90.35 0.4 0.05q0.9 3.25 2.1 5.05l-0.25 1.65q-1.6 1-3.7 0.75 1.3-1.05 1.7-3.2 0.35-2.05-0.25-4.3" fill="#922f00"/>
  <path d="m114.05 61.65q-0.45-0.85-0.25-0.9l0.75 0.6q1.45 1.65 2.3 4.65 0.85 2.95 0.65 5.6l-0.35 1.65q-0.15-0.15-0.25-1.65-0.1-2.35-0.9-5.1-0.8-2.8-1.95-4.85" fill="#0d131a"/>
  <path d="m127.8 90.9q-0.25-0.15-0.25-0.45l0.5-0.05q0.6 0.25 0.9 0.55l0.5 0.8q0.25 0.55 0.1 0.7l-0.5-0.3-1.25-1.25" fill="#0d131a"/>
  <path d="m102.4 62.8q3.95 2.45 6.35 7.05 1.4 2.65 2.65 7.2l0.35 1.1q-7.3-1.55-9.7-6.15-2.15-4.15 0.35-9.2" fill="#fcd13e"/>
  <path d="m100.75 79.95q5.1 4.3 11.05 7.2 4.5 2.2 8 3 0.65 1.95 0.25 4.15-0.45 2.2-1.75 3.4-4.7-1.1-10-6.4-5.35-5.4-7.55-11.35" fill="#ed8599"/>
  <path d="m119.8 90.15q0.6 1.8 0.25 3.95-1.8-2.15-6.85-4.2-5.15-2.1-7.5-1.5-3.5-4.4-4.95-8.45 5.1 4.3 11.05 7.2 4.5 2.2 8 3" fill="#ce7486"/>
  <path d="m178.8 139.35 0.25-0.05 0.15 0.2q7.6 8.45 7.45 24.85-0.15 15.25-6.55 29.15-0.8 1.7-1.4 1.6-0.5-0.1-1.4-1.55-9.9-16.2-7.1-35.8 1.05-7.45 3.7-12.85 2.5-5.1 4.9-5.55" fill="#0d131a"/>
  <path d="m178.75 140.3q6.9 7.9 6.9 20.95 0 7.65-2.4 17.25-1.35 5.5-4.4 14.55l-0.05 0.25q-7.75-13.5-7.75-28 0-6.5 1.55-12.75 0.95-3.7 2.3-6.75 2.1-4.65 3.85-5.5" fill="#007b36"/>
  <path d="m174.9 145.8q2.1-4.65 3.85-5.5 6.9 7.9 6.9 20.95l-0.2 4.25q-6.95-5.9-13.85-7.95 1-6.65 3.3-11.75" fill="#00662a"/>
  <path d="m180.9 137.55-0.05-0.25 0.15-0.15q1.45-1.75 7.3-1 6.35 0.8 13.45 4.3 19.25 9.4 27.35 29.5 1.05 2.65 0.6 3.4l-2.75 0.05q-18.75-5.25-29.4-13.15-11.8-8.75-16.65-22.7" fill="#0d131a"/>
  <path d="m187.2 137.35q10.05 1.4 20.5 8.9 13.7 9.8 21.2 26.3-15.3-4.55-26.4-11.55-15.8-9.95-20.6-23.45 0.5-0.35 1.8-0.4l3.5 0.2" fill="#007b36"/>
  <path d="m187.2 137.35q4.45 0.65 9.55 2.75 6 2.5 11.5 6.55-9.7 3.1-15.15 7.25-8.1-7.5-11.2-16.35 0.5-0.35 1.8-0.4l3.5 0.2" fill="#00662a"/>
  <path d="m179.55 137.2 0.2-0.2 0.2 0.1q12.5 4.25 20 18.35 6.9 13.05 9.25 34.05 0.35 2.7-0.35 3.2-0.7 0.4-2.8-0.9-17.6-10.65-25.15-31.6-2.85-8.05-3.15-14.85-0.3-6.4 1.8-8.15" fill="#0d131a"/>
  <path d="m180 138.05q12.95 4.6 20.2 21.8 5.1 12 7.75 31.6-12.85-7.3-20.65-21.25-6.5-11.65-7.75-24.15l-0.2-3.7q0-3.3 0.65-4.3" fill="#007b36"/>
  <path d="m179.55 146.05-0.2-3.7q0-3.3 0.65-4.3 7.75 2.75 13.4 9.95-7.8 5.35-11.15 10.5-2.05-6.15-2.7-12.45" fill="#00662a"/>
  <path d="m204.45 124.15q-2.6 2.9-8.05 5.6-4.85 2.45-9.3 3.5-3.25 0.8-16.05 12.2l-16.9 15.1q-6.8 5.45-9.1 6.1-3.45 1 2.15-8.05-2.15-4.15-11.35-12.65-7.95-7.3-10.95-9.15-4.05-2.4-7.5-7.3-3.55-5.05-1-5.35 0.65-0.1 5.05-2 3.2-1.45 6-0.4 2.9 1.05 4.5 2.4 2.15 1.85 5.5 6.7 3.7 5.45 7.4 8.85 4.05 3.7 9.05 5.9l10.55-9.25q9.3-8.7 11.15-11.55 8.7-13.5 17.15-12.6l8.95 0.45 6-0.45q2.7-0.15 5.15 3.35 2.1 3.05 2.85 6.65 0.8 3.6-2 7.5-3.3 4.6-9.9 6.15 1.25-3.4 1.7-5.55 0.85-3.85-1.05-6.15" fill="#6cba5a"/>
  <path d="m206.1 121.55q1.95 1.65 1.5 6.35-0.55 5.1-3.75 7.65 1.3-3.4 1.7-5.45 0.75-3.7-1.1-5.95-2.4 2.6-6.95 5.05 4.9-10.7 8.6-7.65" fill="#5da24d"/>
  <path d="m192.3 115.05q2.2 0.75 4.05 5.9l2.2 7.65q-5.75 3.3-11.45 4.65-3.25 0.8-16.05 12.2l-16.9 15.1q-9.55 7.65-10.35 5.85 4.7-3.6 12.25-10.5l11.2-10.3 9.35-8.3q4.35-3.85 5.35-5.3 0.85-1.2 4.5-9.85 3.8-7.85 5.85-7.1" fill="#5da24d"/>
  <path d="m208.15 111.25q2.9-0.15 5.5 3.65 2.2 3.25 3 7.1 0.85 4.05-1.95 8.1-3.45 4.95-10.8 6.2l-1.15 0.2q-0.15-0.1 0.6-1.8 2-4.35 2-6.65 0-1.8-1-3.25-4.95 6.2-16.95 9.05-2.25 0.55-17.1 13.25l-15.9 13.8q-9.95 8-11.45 6.6-0.4-0.4 0.25-2.5 0.85-2.95 3.5-6.4-2.1-3.8-11.8-12.6-5.5-5-10.3-8.85-0.9-0.75-0.95-1.15-0.05-0.45 1.5 0.45 5.15 3.15 12.45 10.15 7.75 7.45 10 11.8l0.4 0.7 0.3 0.95q-0.15 0.4-1.15-0.6-2.5 4.1-2.95 5.8-0.25 0.9 0.05 1 0.9 0.9 9.6-6.05l15.7-14q14.7-12.9 17.05-13.45 4.7-1.15 9.6-3.55 5.45-2.65 7.9-5.35l-0.35-0.6q-0.3-0.6 0.15-0.5 0.65 0.2 1.35 1.15l0.65 1.75 0.3 2.4q0 2.1-1.3 5.8l-0.45 1.3q5.25-1.45 8.3-5.05 2.65-3.15 2.65-6.5l-0.1-1.3q-0.7-3.5-2.8-6.45-2.35-3.35-4.8-3.2l-2.35 0.2-5.1 0.25-7.55-0.45q-4.05-0.45-7.8 2.25-3.8 2.75-8.05 9.3-1.85 2.85-11.35 11.8l-10.9 9.8-1.3 1.15-0.85 0.45q-0.3-0.1 0.15-0.85l0.55-0.75q-4.75-2.1-8.5-5.55-3.6-3.3-7.6-9.15-4.7-6.85-8.7-8.6-3.45-1.55-7.2 0.35-3.65 1.75-4.65 1.7l-1.1-0.3q-0.2-0.35 0.9-0.55 1.85-0.35 4.45-1.65 4.7-2.35 8.5-0.75 4.1 1.75 8.9 8.7 4.1 6 7.45 9.3 3.8 3.8 8.25 5.8 2.45-1.85 10.85-10.05 9.2-9 10.95-11.85 5.2-8.15 8.85-10.45 2.9-1.85 7.6-1.3 3.9 0.45 10.35 0.15l5.7-0.35" fill="#0d131a"/>
  <path d="m184.95 117.2q-1.6 0.85-3.95 3.15l-2.05 2.2q-0.95 1.3-0.25-0.2l1.6-2.9q5.3-8.9 6.8-10.95 1.15-1.5 5.55-2.3 4.85-0.85 7.65 0.8 4.9 2.85 3.95 11.05-0.35 2.65-2.25 6.65-1.9 4.05-3.2 4.85l-2.2-7.65q-2.1-5.9-4.3-6.85-2.05-0.65-7.35 2.15" fill="#6cba5a"/>
  <path d="m184.95 117.2q-1.6 0.85-3.95 3.15l-2.05 2.2q-0.95 1.3-0.25-0.2l1.6-2.9q5.3-8.9 6.8-10.95 1.15-1.5 5.55-2.3 4.85-0.85 7.65 0.8 4.9 2.85 3.95 11.05-0.35 2.65-2.25 6.65-1.9 4.05-3.2 4.85l-2.2-7.65q-2.1-5.9-4.3-6.85-2.05-0.65-7.35 2.15" fill="#6cba5a"/>
  <path d="m191.75 114.95q4.2-1.7 6.45 3.15 2.15 4.65 0.85 11.25l-0.25 0.2-2.2-7.65q-2.1-5.9-4.3-6.85l-0.55-0.1" fill="#5da24d"/>
  <path d="m205.05 111.95q0.7 2.95 0.3 6.25-0.25 2.25-2.55 6.65-2 3.75-2.95 4.85l-1.05 1.1q-0.4 0.1-0.55-1.6-0.25-2.65-2.15-7.5-2.15-5.6-4-6.25-0.8-0.3-0.7-0.7t1.1-0.15q2.4 0.7 4.15 5.4 0.75 1.95 2.4 8.7 1.3-1.35 2.85-4.9 1.6-3.55 1.9-5.8l0.15-2.4q0-5.95-3.85-8.2-2.65-1.55-7.3-0.7-4.05 0.75-5.35 2.1-1.4 1.5-3.95 5.55l-3.5 5.45q-1.45 1.85-2.6 2.05-1.1 0.2 0.1-1.4l4.05-6.15 4.5-6.65q1.3-1.65 6.55-2.4 5.55-0.8 8.45 0.9 3 1.75 4 5.8" fill="#0d131a"/>
  <path d="m110.65 73.4q-0.05 1.65-0.5 2.8-0.45 1.1-1 1.1-0.65 0-1.1-1.35-0.45-1.4-0.45-3.3 0-2.7 0.8-4.1 0.15-0.25 1.2 2.2l1.05 2.65" fill="#0d131a"/>
  <path d="m109.45 74q-0.7 0-0.7-2.15 0-2.2 0.7-2.2 0.65 0 0.65 2.2 0 2.15-0.65 2.15" fill="#fff"/>
  <path d="m106.35 17q7.95 8.65 12.7 21.05 4.1 10.75 4.1 19.15l-0.05 0.75q-10.25-21.5-24.85-31.6-12.45-8.6-26.05-7.7v-16.6q20.2-0.2 34.15 14.95" fill="#007b36"/>
  <g fill="#0d131a">
   <path d="m124.15 59.6q-0.1 2.4-0.45 1.75l-0.65-1.5q-10.75-20.7-23.75-30.65-11.55-8.8-24.2-8.75l-2.9 0.15v-1.55q13.7-0.95 26.15 7.85 14.8 10.35 25.1 32.8 0.7-6.05-1.85-15.3-2.85-10.45-8.55-19.4-15.15-23.7-40.85-23.45v-1.55q25.2 0 40.15 21.5 6.05 8.65 9.2 19.4 2.9 9.9 2.6 18.7"/>
   <path d="m119.05 38.05q-4.75-12.4-12.7-21.05-13.95-15.15-34.15-14.95v-0.5q25.7-0.25 40.85 23.45 5.7 8.95 8.55 19.4 2.55 9.25 1.85 15.3-10.3-22.45-25.1-32.8-12.45-8.8-26.15-7.85v-0.4q13.6-0.9 26.05 7.7 14.6 10.1 24.85 31.6l0.05-0.75q0-8.4-4.1-19.15"/>
   <path d="m107.6 25.6q-1.05-1.3-0.85-1.45l1.35 1.1q4.95 5.1 9.05 13.4 4.3 8.85 6.6 19.3l-0.6 0.95q-2.2-9.95-6.85-19.45-3.95-8-8.7-13.85"/>
   <path d="m102.4 62.8q-2 5.3-0.05 9.25 2.25 4.55 9.4 6.1l-0.35-1.1q-1.25-4.55-2.65-7.2-2.4-4.6-6.35-7.05m6 4.3q3.55 4.95 4.3 11.65 0.15 1.1-0.15 1.15-0.3 0-0.7-1.05-7.65-1.05-10.35-6.1-2.45-4.6 0.15-10.35-1.45-0.9-1.05-1.1 0.35-0.2 1.9 0.5 3.15 1.4 5.9 5.3"/>
  </g>
 </g>
</svg>
