<?xml version="1.0" encoding="UTF-8"?>
<!-- Created with Inkscape (http://www.inkscape.org/) -->
<svg version="1.1" viewBox="0 0 126.68 134.07" xmlns="http://www.w3.org/2000/svg">
 <g stroke-width="1.4876">
  <path class="uuid-d2e4c30a-190f-47d8-a761-290ad1e9eb4c" d="m124.75 67.898c0.0533-0.917-0.14482-1.6822-0.64995-2.1751-0.6576-0.64028-2.1747-0.84514-3.915 0.11107a1.266 1.266 0 0 0-0.50911-0.16914c-2.5561-0.25626-5.898 5.5227-8.1358 11.495-2.5191-7.2879-10.847-8.8128-14.66-3.2917l1.5945 22.09c2.3133-2.2563 6.9614-3.9816 9.4166-3.967 0.11517 1.8864 1.4301 3.8433 3.27 3.928 3.7941 0.17284 4.0096-4.5429 8.0376-11.748 3.1034-5.5518 5.1209-7.5284 6.3478-10.48 1.2709-3.0544 0.51192-5.4765-0.79468-5.7932" fill="#f9be00"/>
  <path class="uuid-7836f371-cd45-4887-9ac5-cb851af78761" d="m119.19 84.171c3.102-5.5514 5.1209-7.5284 6.3478-10.48 1.2705-3.0558 0.51192-5.4765-0.79468-5.7932 0.0533-0.917-0.14524-1.6836-0.64995-2.1751-0.6576-0.64028-2.1747-0.84514-3.915 0.11107a1.266 1.266 0 0 0-0.50911-0.16914c-1.9327-0.19379-4.3159 3.0651-6.3299 7.248-1.7599 5.1378-3.1988 11.834-2.3805 14.773l3.3297 6.5086c1.3493-1.97 2.3766-5.5077 4.9001-10.024" fill="#776b59"/>
  <path class="uuid-f810e7c5-3038-4c48-b8af-8988513c706b" d="m124.5 69.454c-0.0258-1.4893-2.7118-2.2485-3.4039-1.073-1.4724-2.2378-4.8548 2.3696-6.2373 5.3561-2.011 4.3402-4.5384 10.456-5.0336 15.569-0.30225 3.125-0.51645 6.2488 2.5824 6.4626 2.6588-0.86613 3.2576-5.2716 6.7935-11.596 3.102-5.5514 5.1209-7.5284 6.3478-10.48 0.19564-0.47196 0.3389-0.92691 0.44433-1.3629-0.20423-1.6522-0.82614-3.0274-1.4914-2.8743" fill="#f6dfa7"/>
  <path class="uuid-895a1c3d-ac74-48b9-9fb3-cfb366a7b83b" d="m43.35 95.177c0.2292-0.42138 0.6985-1.3217 0.95529-1.8334 0.10157 0.34383 0.47098 1.5051 0.76274 2.4086 4.5131-10.825 2.0229-24.747-5.1976-32.706 3.149-0.36721 10.518 0.83748 12.941 3.3156-8.5038-20.095-31.654-30.414-52.111-20.803 8.3785-0.47104 26.191 7.0425 28.537 11.171-4.3247-0.22551-14.191 2.6273-16.687 4.9917 12.962 1.0555 26.594 12.433 29.757 21.019 1.512 4.1046 1.5293 7.4082-0.92885 12.661 0.56606-0.73031 1.2361-1.5549 1.4816-1.795 0.0813 0.27535 0.38813 1.2194 0.49139 1.5689" fill="#f2e100"/>
  <path d="m84.68 100.53c-0.94461 34.367-39.769 36.455-45.598 20.67-2.7603-7.4742-1.3466-12.319 4.5093-22.458a25.773 25.773 0 0 0 1.4731-2.9947c-0.29168-0.9035-0.66117-2.0648-0.76275-2.4086a82.341 82.341 0 0 1-0.95527 1.8334c-0.10368-0.35096-0.41047-1.295-0.49139-1.5689-0.24737 0.23906-0.91557 1.0647-1.4816 1.795-0.27792 0.59245-0.57816 1.2039-0.92058 1.8511-6.7012 12.66-7.2611 17.344-4.4675 25.367 6.7164 19.291 51.861 14.518 51.27-22.528l-2.5774 0.44343z" fill="#543823"/>
  <path class="uuid-895a1c3d-ac74-48b9-9fb3-cfb366a7b83b" d="m97.15 0.489c-0.52685 0.52172-1.0375 1.0511-1.5352 1.5875-0.20504 0.60815-0.3996 1.1992-0.58696 1.7727a37.188 37.188 0 0 1 2.1222-3.3601" fill="#f2e100"/>
  <path class="uuid-7836f371-cd45-4887-9ac5-cb851af78761" d="m90.92 33.531c-1.0699-0.21909-2.0183-1.1768-2.5456-2.946-1.5532-5.2155 1.6947-17.939 6.6555-26.734 0.18737-0.57346 0.38235-1.1631 0.58697-1.7727-12.886 13.868-16.088 32.222-7.9618 34.536 3.8396 1.0932 5.7829-1.9426 6.2654-5.0247-0.66271 1.5531-1.575 2.2352-3.0019 1.9417" fill="#776b59"/>
  <path class="uuid-83828be3-d2c4-4ce6-8895-be077249b397" d="m83.36 26.081c-0.64512 5.4352 0.74139 9.5194 4.297 10.534 2.5576 0.72891 4.2725-0.37645 5.2759-2.1046-4.1314 0.54419-7.913-3.5243-9.5729-8.429" fill="#594f41"/>
  <path class="uuid-895a1c3d-ac74-48b9-9fb3-cfb366a7b83b" d="m99.65 16.799c-1.6576-0.62253-3.8908 0.76008-4.8685 2.4388-0.73157 1.257-1.3755 1.1618-1.8994-0.21759-1.2432-3.2734-0.26416-7.799 2.1419-15.171-4.9622 8.7954-8.2083 21.52-6.6555 26.734 0.52729 1.7693 1.4753 2.7255 2.5456 2.946 1.427 0.29355 2.3392-0.38857 3.0019-1.9417a10.265 10.265 0 0 0 0.0953-0.81152c0.86375-11.511 4.3101-13.114 5.7605-12.421 0.85067 0.4064 1.2925 1.9124 0.76372 3.3623-0.4368 1.1994-1.3361 2.0933-2.704 2.1204a1.0652 1.0652 0 0 0 0.48662 0.30299c1.2576 0.3715 2.6308-0.29942 3.214-2.6729 0.53059-2.1578-0.22364-4.0493-1.8812-4.6718" fill="#f2e100"/>
  <path class="uuid-d2e4c30a-190f-47d8-a761-290ad1e9eb4c" d="m118.13 80.325c-0.66003-0.33863-1.7316 0.96451-2.4435 2.4142-0.76562 1.5618-0.83622 3.0346-0.27914 3.2873 0.49819 0.22666 1.6756-0.88125 2.3663-2.455 0.62123-1.4152 0.90717-2.9624 0.35635-3.2465" fill="#f9be00"/>
  <path class="uuid-01bee867-53d0-4511-ad81-28a8755162c9" d="m109.38 92.163c-0.86045-0.92782-1.0666-2.8121-0.67188-4.7685 0.31654-1.5749 0.64705-2.9818 0.86442-3.8107-3.0827-1.0779-7.5836-0.69762-11.91 1.1701l0.80799 11.205c2.3133-2.2563 6.9614-3.9816 9.4166-3.967 0.11518 1.8864 1.4301 3.8433 3.2701 3.928 2.2296 0.10143 3.2234-1.4859 4.4804-4.2724-2.7366 2.4931-4.8961 1.9831-6.2557 0.51558" fill="#d7a400"/>
  <path class="uuid-dae6049d-b8b1-4436-b352-8a82ddba4623" d="m109.67 92.448c0.0973 1.8048 0.7102 3.1811 2.729 3.32 1.412-0.4606 2.2428-1.9175 3.2412-4.1297-2.5516 2.3267-4.6013 2.0465-5.9703 0.80975" fill="#dbc58e"/>
  <path class="uuid-e282c81f-167d-43fd-94ef-57304ddb1e7e" d="m39.55 62.827 0.372 0.21431c3.1733-0.34801 10.482 0.856 12.893 3.3206-0.0771-0.18199-0.15835-0.36274-0.23778-0.54248-3.9976-4.3165-11.693-4.0102-13.027-2.9924m-9.9236-5.9459c-0.53995-4.7997-18.982-12.334-27.095-11.773-0.42973 0.09438-1.4853 0.29142-1.8269 0.45285 8.3771-0.47062 26.191 7.0425 28.537 11.171-0.0517-0.0018 0.38593 0.15124 0.38593 0.15124m13.995 30.968c1.2574-10.273-15.983-27.529-30.701-26.436a4.9405 4.9405 0 0 0-0.36793 0.3088c12.962 1.0555 26.594 12.433 29.756 21.017 0.67567 1.8356 1.0495 3.5106 1.0415 5.2689 0.1607 0.0084 0.25651-0.0401 0.27098-0.15916" fill="#cbbd00"/>
  <path d="m38.87 127.45c11.993 13.261 48.925 6.1712 48.391-27.362l-1.181 0.20308c0.4602 28.101-29.191 40.141-47.21 27.159" fill="#3c2819"/>
 </g>
 <g fill="#0f141b" stroke-width="1.4876">
  <path class="uuid-aa779997-6fcc-4553-a68e-34d7a297ee95" d="m99.76 16.511c-1.8546-0.69618-4.2187 0.74217-5.2735 2.5538-0.49287 0.84675-0.88346 0.88458-1.284-0.1667-1.2501-3.2915-0.19729-7.9087 2.5441-16.146l-1.7286 3.1275c-1.9674 6.3625-2.5918 10.271-1.456 13.26 0.67914 1.7896 1.703 1.6639 2.5147 0.26849 0.99279-1.7064 2.9602-2.8756 4.457-2.3141 1.4884 0.55927 2.2406 2.2916 1.7519 4.2865-0.46276 1.8834-1.5495 2.8885-2.8612 2.502-0.47248-0.13963-0.63397-0.73878-0.61982-1.1897 0.0254-0.72261 0.29606-0.80412 0.55032-0.41077 0.30296 0.46893 0.90701-0.012 0.60363-0.48236-0.59743-0.92486-1.8026-0.71463-1.8037 0.92531 5.2e-4 0.85766 0.42377 1.4819 1.1032 1.6813 1.3494 0.39867 2.976-0.56429 3.551-2.9027 0.54337-2.2143-0.2069-4.3024-2.0508-4.994"/>
  <path class="uuid-aa779997-6fcc-4553-a68e-34d7a297ee95" d="m96.91 0.246c-13.624 13.484-18.693 34.153-9.3602 36.813 3.9668 1.1301 6.4793-1.9064 6.8045-6.2558 0.78251-10.426 3.7545-12.863 5.2715-12.138 1.4633 0.70009 1.1201 4.9153-1.8525 4.8767l0.50863 0.45626c3.0586-0.31102 3.4711-5.0741 1.6392-5.9507-1.756-0.84011-5.369 0.97031-6.249 12.705-0.2826 3.7691-2.6202 6.3631-5.9122 5.4276-7.7924-2.2182-4.5983-21.362 9.6308-35.445 0.56576-0.55804 0.0832-1.0468-0.48172-0.48593"/>
  <path class="uuid-aa779997-6fcc-4553-a68e-34d7a297ee95" d="m95.65 2.333c-5.4242 8.4603-9.2608 22.788-7.6052 28.35 1.1714 3.9337 4.5295 3.8119 5.5598 1.8912l0.3253-1.7605c-1.2873 4.0334-4.3172 2.7351-5.2278-0.32635-1.7645-5.9255 2.8036-21.521 8.7288-29.798 0.043-0.05924-0.10695-0.24142-0.10695-0.24142l-1.6735 1.8858zm2.5305 69.575 0.51374 0.59436c4.3085-3.4786 10.842-0.85909 12.667 5.2036l0.35576-1.0746c-2.5064-6.5254-9.1357-8.3038-13.538-4.723m9.3714 20.228c0.14885 2.3154 1.7926 4.1303 3.6006 4.212 4.2613 0.19461 4.2915-4.7596 8.3437-12.009 2.7679-4.9548 5.2402-7.4814 6.4707-10.442 1.5076-3.6238 0.39118-5.9745-1.1398-6.3366l-0.0272 0.70607c0.81524 0.32845 1.5913 2.3515 0.37723 5.2728-0.90961 2.1876-4.1865 6.7218-6.2776 10.465-3.6459 6.5249-4.3914 11.636-7.6877 11.484-1.3211-0.06113-2.7451-1.4631-2.9888-3.3751-0.0899-0.7087-0.0382-1.1164-0.18019-1.2032-0.1839-0.1132-0.54969 0.29734-0.4909 1.2262"/>
  <path class="uuid-aa779997-6fcc-4553-a68e-34d7a297ee95" d="m124.42 65.39c-0.75823-0.7393-2.5351-0.97291-4.4789 0.12408l0.78076 0.49531c1.5852-0.77234 2.6136-0.41534 3.0672 0.02772 1.0215 0.99504 0.68055 3.5218-0.88728 6.1644-0.57979 0.97791-0.0677 1.157 0.48457 0.28032 1.9153-3.0416 2.3219-5.8344 1.0318-7.0929m-37.621 35.057c0.18476 20.547-13.678 30.309-25.767 32.451-11.515 2.0414-21.883-2.3383-24.69-10.401-2.9113-8.3634-1.8595-13.142 4.4514-25.064 3.2257-6.0936 3.696-9.8469 1.8668-14.81-3.2283-8.7646-16.38-19.782-29.037-21.239 3.129-2.1467 11.533-4.4324 15.599-4.2206 0.52894 0.03144 0.44257-0.37118 0.31301-0.59971-2.7882-4.9065-20.383-11.18-26.597-11.472 17.929-7.5411 40.052 1.0086 48.849 19.975-3.1837-1.9974-9.2122-2.6767-11.957-2.3577-0.44279 0.05015-0.65596 0.25273-0.32491 0.61719 7.8087 8.6059 10.121 24.237 3.4818 35.777-6.0085 10.442-6.9094 15.037-4.2494 22.24 2.613 7.0756 11.968 10.971 22.209 9.286 11.271-1.8577 23.624-10.724 24.197-29.998l-0.9312 0.14014c-0.60207 18.781-12.395 27.375-23.377 29.181-9.9169 1.6329-18.908-2.1189-21.408-8.8883-2.7052-7.3245-1.2296-12.012 4.1872-21.595 7.5799-13.408 3.5753-28.581-2.8482-36.131 3.2509-0.1274 9.4184 1.0956 12.041 3.5458 0.68355 0.63882 0.87314 0.45096 0.52577-0.36784-9.1514-21.626-32.595-30.842-52.813-21.341-0.70044 0.32792-0.74777 0.90809 0.17754 0.85811 7.8399-0.44067 24.516 6.3149 27.808 10.243-4.5405 0.06783-13.89 2.8952-16.463 5.3336-0.34793 0.32926-0.32063 0.54767 0.20843 0.58993 12.658 1.0304 26.467 11.906 29.697 20.676 1.518 4.1198 1.685 7.5731-1.8212 14.198-6.103 11.529-7.6391 16.621-4.4835 25.68 3.1084 8.9256 14.52 12.766 25.506 10.819 16.484-2.9214 26.775-15.649 26.585-33.278l-0.93823 0.15307z"/>
  <path class="uuid-aa779997-6fcc-4553-a68e-34d7a297ee95" d="m119.74 65.193c-2.8558-0.28873-6.1995 5.4737-8.4203 11.488-1.413 3.8285-2.4636 7.5391-2.8172 10.186-0.13213 0.99147 0.30569 1.0033 0.4838 0.05718 0.53941-2.8631 1.5015-6.2172 2.7791-9.5481 2.307-6.0161 5.7127-11.474 7.8372-11.261 1.3158 0.13249 1.463 3.0673 0.43373 4.7132-0.49521 0.7916-0.0812 1.1114 0.44485 0.34014 1.3959-2.038 1.5047-5.7496-0.74276-5.9745"/>
 </g>
 <g stroke-width="1.4876">
  <path class="uuid-d2e4c30a-190f-47d8-a761-290ad1e9eb4c" d="m86 62.219c4.992-0.90235 19.486 0.48235 19.983 4.7486 0.41506 3.563-4.7668 5.083-10.599 6.7269z" fill="#f9be00"/>
  <path class="uuid-01bee867-53d0-4511-ad81-28a8755162c9" d="m106.01 67.296c-3.3824 1.3994-10.165 1.4812-15.794 0.07436l5.1709 6.3246c5.6504-1.5932 10.69-3.0696 10.622-6.3985" fill="#d7a400"/>
  <path class="uuid-d2e4c30a-190f-47d8-a761-290ad1e9eb4c" d="m95.56 50.193c0.34053-8.8028-7.5285-19.519-20.126-20.282-11.077-0.67084-20.748 8.2313-22.666 19.669-0.4813 2.8708-0.1124 5.6842-0.41425 8.3065-0.8801 7.6748-3.5228 14.975-0.82605 25.149 2.1471 8.0974 6.559 15.108 14.531 17.803 4.67 3.8309 11.125 5.8391 18.143 1.1567l2.8207 0.0757c9.5934 0.0341 18.044-10.572 15.991-20.464-2.1391-10.307-11.343-15.042-15.34-19.63 4.3245-2.4689 7.6902-6.7021 7.8859-11.784" fill="#f9be00"/>
  <path class="uuid-01bee867-53d0-4511-ad81-28a8755162c9" d="m81.16 103.63-5.6377-8.377c-5.0562 2.2181-12.794-1.3689-14.46-7.5546-3.255-0.23284-9.4581-5.3311-10.654-11.59a34.695 34.695 0 0 0 1.1195 6.9243c2.1471 8.0974 6.5591 15.108 14.531 17.804 3.9861 3.2697 9.2731 5.2089 15.101 2.7938m-4.4572-39.567-0.24451 0.8106c3.1386 1.4089 8.3893 0.93583 12.158-1.9024-0.33772-0.33457-0.65621-0.66706-0.94465-0.99757-3.4203 1.9536-7.4374 2.8006-10.97 2.0898" fill="#d7a400"/>
  <path class="uuid-e95a9377-1fa0-4cda-8da5-d0d1fb80ab2b" d="m79.79 64.313c-7.0182 2.5449-10.697 10.007-6.3087 15.826 2.1866 2.9016 9.7443 16.68 12.586 21.906l0.95558 0.0264c9.5934 0.0341 18.044-10.572 15.991-20.464-2.1391-10.307-11.343-15.042-15.34-19.63-2.1857 1.4647-6.5743 2.451-7.8851 2.3356" fill="#fff"/>
  <path class="uuid-d2e4c30a-190f-47d8-a761-290ad1e9eb4c" d="m87.59 62.031a15.635 15.635 0 0 0-1.5839 0.18869l0.37893 0.46355a9.5953 9.5953 0 0 0 1.2049-0.65225" fill="#f9be00"/>
  <path class="uuid-7836f371-cd45-4887-9ac5-cb851af78761" d="m53.15 72.629c-0.0709-0.4289-1.608-0.65424-2.7536-0.63071-0.0665 1.2715-0.0758 2.5788-2e-3 3.936 1.0866-1.016 2.8252-2.8915 2.7576-3.3043" fill="#776b59"/>
  <path class="uuid-83828be3-d2c4-4ce6-8895-be077249b397" d="m52.41 85.923c0.47463 1.3598 1.0228 2.6746 1.6518 3.9268 0.80064-1.7583 1.6854-3.5522 1.5693-3.8452-0.11392-0.28589-2.0408-0.19753-3.2211-0.08151" fill="#594f41"/>
  <path class="uuid-895a1c3d-ac74-48b9-9fb3-cfb366a7b83b" d="m95.46 47.884c-0.13624-0.17226-0.2935-0.27938-0.46756-0.29621-1.2325-0.11832-2.5417 1.3993-2.7963 3.5934-0.29232 2.5233 0.54321 4.0231 1.3527 4.1377 0.21361 0.02997 0.48309-0.04499 0.76831-0.23471a12.322 12.322 0 0 0 1.2387-4.8908c0.029-0.75779-6e-3 -1.531-0.0959-2.3093m-28.27 4.7901c2.395-0.73545 4.8528 0.75823 5.5787 3.2103 0.66004 2.228-0.80363 4.8724-3.1306 5.5598-2.0402 0.60271-4.7639-0.2788-5.5837-3.0537-0.75023-2.5395 0.75236-4.9829 3.1345-5.7146" fill="#f2e100"/>
  <path class="uuid-1208f903-342d-4adb-9944-004c67829448" d="m82.42 95.47c1.597 2.8804 4.5979 6.6009 4.5979 6.6009 9.4038 0.0327 17.702-10.155 16.093-19.875-1.0729 9.9732-13.949 15.949-20.691 13.275" fill="#d1d3d4"/>
  <path class="uuid-7836f371-cd45-4887-9ac5-cb851af78761" d="m77.84 76.809c-0.71753-0.89559-1.6151-1.3083-2.5948-0.99097-1.3263 0.43059-1.767 1.8266-1.8295 3.0224-0.47076-0.31233-0.9355-0.43098-1.3446-0.2667-2.3337 0.93761-1.3501 8.4992 0.0587 12.155 0.93563 2.432 8.3143 20.047 15.014 16.132 3.8572-2.2548-0.11806-7.3675-1.8478-13.48-1.6086-5.6815-1.8723-10.643-2.55-13.484-0.93533-3.9274-3.3885-4.9432-4.9055-3.0896" fill="#776b59"/>
  <path class="uuid-d2e4c30a-190f-47d8-a761-290ad1e9eb4c" d="m72.68 92.076c2.0366 4.7779 8.5172 18.261 14.463 14.785a3.5852 3.5852 0 0 0 0.93741-0.77021c-5.2673-1.7046-11.342-8.018-15.401-14.015" fill="#f9be00"/>
  <path class="uuid-f810e7c5-3038-4c48-b8af-8988513c706b" d="m82.74 79.882c-1.3343-1.0143-2.6826-1.01-3.5964-0.21262-1.3723-0.85417-3.3672 0.08573-3.6136 1.9766-4.3857-0.42155-2.6866 11.615 4.5904 22.942 2.2171 2.359 4.6611 3.6536 7.0208 2.2739 3.8572-2.2548-0.11807-7.3675-1.8478-13.48-1.6086-5.6815-1.8723-10.643-2.55-13.484l-5e-3 -0.01712" fill="#f6dfa7"/>
  <path class="uuid-d2e4c30a-190f-47d8-a761-290ad1e9eb4c" d="m80.03 91.789c1.5416-0.77808 4.914 5.8591 2.5131 6.8476-2.4009 0.98848-4.1874-6.004-2.5131-6.8476" fill="#f9be00"/>
  <path class="uuid-7836f371-cd45-4887-9ac5-cb851af78761" d="m97.37 62.602c-0.5118 0.33114-0.90017 0.75456-0.91782 1.1569-0.0418 0.96634 1.8042 1.2028 1.666 2.0425-0.14594 0.88697-1.8724 0.51436-1.8675 1.4235 6e-3 1.0329 1.3903 0.78371 1.5304 1.4 0.13656 0.59875-0.66774 1.1264-0.9293 1.8583 0.6649 0.70172 1.3136 1.4377 1.9267 2.2214 4.2951-1.3449 7.5421-2.8874 7.2111-5.7353-0.25456-2.1849-4.179-3.6129-8.6178-4.3663" fill="#776b59"/>
  <path class="uuid-dae6049d-b8b1-4436-b352-8a82ddba4623" d="m87.94 100.49c0.044 5.2843-5.0566 5.2307-8.3466 3.2569 0.17251 0.27945 0.34504 0.55888 0.52328 0.83663 2.2175 2.3604 4.6611 3.6536 7.0208 2.2739 2.2171-1.2956 1.8453-3.5359 0.80108-6.367" fill="#dbc58e"/>
  <path class="uuid-83828be3-d2c4-4ce6-8895-be077249b397" d="m106 67.3c-1.9568 0.80611-5.0484 1.1734-8.3954 1.0701a0.44629 0.44629 0 0 1 0.17577 0.25366c0.13655 0.59875-0.66776 1.1264-0.92931 1.8583 0.6649 0.70172 1.3131 1.4363 1.9263 2.22 4.1233-1.291 7.272-2.7672 7.2241-5.4025" fill="#594f41"/>
  <path class="uuid-1208f903-342d-4adb-9944-004c67829448" d="m89.89 64.17c-0.78369-0.6849-1.5248-1.4171-2.2191-2.1924-2.1857 1.4647-6.7302 2.3263-8.041 2.2109-2.4937-0.02838-3.1902 1.7245-4.5488 2.9867 2.8604 1.3282 9.7583 0.64463 14.808-3.0066" fill="#d1d3d4"/>
 </g>
 <g fill="#0f141b" stroke-width="1.4876">
  <path class="uuid-aa779997-6fcc-4553-a68e-34d7a297ee95" d="m75.42 29.52c-11.195-0.67632-21.052 7.9224-23.075 19.993-0.5244 3.1239-8e-3 5.2298-0.36111 8.3079-0.8752 7.6283-3.6546 15.028-0.91192 25.373 2.5719 9.6984 7.9942 15.887 15.52 18.174l-1.254-1.1575c-8.1056-3.1681-11.678-10.922-13.359-17.266-2.5391-9.5716-0.20812-16.719 0.74385-25.017 0.33076-2.8868-0.015-5.144 0.51149-8.2872 1.9299-11.509 11.595-20.008 22.174-19.368 12.098 0.73199 20.044 11.056 19.701 19.894-0.32229 8.329-10.337 15.639-18.909 13.458-1.1259-0.28787-1.27 0.32709-0.14308 0.61311 8.1542 2.0725 19.543-4.261 19.921-14.043 0.37944-9.8211-8.3558-19.936-20.56-20.675"/>
  <path class="uuid-aa779997-6fcc-4553-a68e-34d7a297ee95" d="m65.7 99.931c-1.6626-1.7053-2.1653-1.2124-0.49005 0.47828 3.079 3.108 8.253 6.0826 14.704 4.1955l-0.68313-0.84215c-5.8852 1.5649-11.081-1.3257-13.531-3.8316m22.336-38.066-0.59882 0.35684c4.0428 4.6273 13.075 9.3831 15.17 19.478 1.6669 8.0314-4.5404 18.819-14.172 19.832l0.24295 0.88532c8.9493-1.012 16.784-11.117 14.757-20.888-2.1476-10.347-11.05-14.773-15.399-19.664"/>
  <path class="uuid-aa779997-6fcc-4553-a68e-34d7a297ee95" d="m88.59 61.558-1.6496 0.9744c6.9936-0.701 18.319 1.1514 18.708 4.474 0.3086 2.6514-2.9951 4.0493-7.1165 5.3258l0.63287 0.7298c4.4252-1.3926 7.504-3.2158 7.1642-6.1356-0.42795-3.6802-10.314-5.6755-17.737-5.3687m12.085 32.303-1.1019 1.689c2.4449-1.8422 6.2995-3.2028 8.2168-3.2185l-3e-3 -0.67557c-2.0581 0.03253-4.7388 0.83531-7.1123 2.2051m-25.603-18.471c-1.1311 0.36672-1.8232 1.5314-1.9793 3.2032l0.6607 0.34618c0.0565-1.5152 0.68926-2.3769 1.5948-2.6723 2.2963-0.71249 3.7896 3.1556 3.862 6.5251 0.0241 1.0896 0.56376 1.0682 0.58289 0.0093 0.0792-4.1372-1.8919-8.3574-4.7229-7.4125"/>
  <path class="uuid-aa779997-6fcc-4553-a68e-34d7a297ee95" d="m79.81 75.502c-0.80574-0.11254-1.5697 0.31016-2.1797 1.0178l0.46496 0.50794c0.46609-0.57513 1.0235-0.78325 1.6171-0.7011 0.906 0.12635 2.0914 1.104 2.6983 3.6517 0.24462 1.0275 1.5291 9.8808 2.5524 13.497 1.8762 6.6293 5.2907 11.025 1.9582 12.971-4.4528 2.6014-10.743-6.2731-14.432-15.852-1.2459-3.2354-2.3289-10.74-0.19803-11.597 1.2678-0.4971 3.0248 2.2523 3.7038 4.7399 0.21597 0.79401 0.62074 0.69925 0.47923-0.11056-0.54661-3.1472-2.9368-6.2183-4.5721-5.5211-2.6119 1.1144-1.576 9.0313-0.14102 12.76 3.8178 9.9198 10.197 19.562 15.612 16.4 4.204-2.4565-0.20489-8.5068-1.7544-13.978-1.0116-3.5714-2.2938-12.411-2.5458-13.469-0.58347-2.4476-1.8044-4.1128-3.267-4.3167"/>
  <path class="uuid-aa779997-6fcc-4553-a68e-34d7a297ee95" d="m83.38 95.406c-0.94056-2.9161-2.5802-4.3443-3.476-3.8951-1.0672 0.53555-1.0073 3.4899-0.0904 5.4962 0.93626 2.0456 2.1393 2.1586 2.8144 1.8816 1.0343-0.42655 1.291-1.8101 0.75047-3.4823m-0.94503 2.955c-0.93938 0.39075-1.7188-1.0295-1.9985-1.6402-1.0259-2.244-0.88454-4.4854-0.27356-4.7171 0.77596-0.29284 2.1993 2.1518 2.6385 3.6228 0.4253 1.4178 0.29159 2.4625-0.36787 2.7349m-21.753-8.2403c0.12882 1.0137 0.64369 0.93446 0.56467-0.06288-0.51237-6.5126 5.1816-10.815 9.7681-10.401l0.47547-0.87418c-5.072-0.70743-11.695 4.3887-10.81 11.339m-7.1866-17.548c-0.0973-0.59174-1.7426-1.01-3.0045-0.99711l-0.0308 0.8514c0.9467-0.09819 2.2997 0.03418 2.3386 0.27088 0.0561 0.33709-1.4268 1.8021-2.3481 2.5691l0.0619 1.1653c1.1286-1.0315 3.0638-3.3653 2.9829-3.8595m2.4565 13.303c-0.19328-0.4548-2.2997-0.56468-3.6077-0.35046l0.29251 0.78536c0.89229-0.17208 2.5546-0.27381 2.6431-0.11072 0.11157 0.20437-0.56271 1.6973-1.4055 2.998l0.46306 0.95835c0.74749-1.3501 1.7525-3.9552 1.6141-4.2819m-0.54669 0.36006-4e-3 0.0013zm28.284-31.171c-1.408 0.20653-3.5606 1.0798-5.0592 1.0215-1.6734-0.06717-2.5886-0.96487-2.1538-1.9821 0.26782-0.62669 0.75564-0.50865 0.5384 0.15274-0.21823 0.66324 0.42918 0.98542 1.6518 1.0337 1.3989 0.05675 3.0413-0.627 4.9238-0.90236 2.5178-0.36687 5.2022 0.0035 5.0818-0.82959-0.1065-0.73328 0.49346-0.78177 0.59995-0.04849 0.26534 1.8591-2.6069 1.1207-5.5827 1.5546m8.8536-3.8457c0.31908-2.753 2.3176-4.195 2.9044-2.9335l-0.0979-0.88785c-1.0469-0.50355-3.1378 0.73617-3.4858 3.7428-0.36893 3.1881 0.91115 4.628 1.9697 4.4517l0.54221-0.88459c-1.1584 1.1039-2.1497-0.73931-1.8322-3.4872m-25.438 1.1551c-2.6609 0.81712-4.1472 3.4837-3.3717 6.1088 0.86065 2.9133 3.7233 3.9291 6.0017 3.256 3.1701-0.93652 3.891-4.1883 3.3688-5.956-0.73211-2.472-3.2449-4.2472-5.9988-3.4088m2.4556 8.7741c-1.9546 0.57742-4.4303-0.35719-5.1696-2.8596-0.66803-2.2613 0.61365-4.5914 2.9051-5.3148 2.3082-0.72997 4.5199 0.87054 5.1504 3.0049 0.55889 1.8856-0.63851 4.5072-2.8855 5.171m19.667-19.56c1.1949-0.17152 2.2356 1.3872 2.4512 2.9414 0.26708 1.9175-0.50476 3.3322-1.7538 3.4623-0.85932 0.08944-2.0193-0.73905-2.3144-3.0035-0.22692-1.7448 0.52434-3.2449 1.617-3.4002"/>
 </g>
 <g stroke-width="1.4876">
  <path class="uuid-e95a9377-1fa0-4cda-8da5-d0d1fb80ab2b" d="m89.07 42.129c0.57631-0.08649 1.0948 0.32963 1.2272 1.077 0.12265 0.68818-0.44289 1.2942-1.0034 1.3187-0.55582 0.02459-1.032-0.45832-1.0933-1.1227-0.0583-0.64359 0.32775-1.1904 0.86957-1.2729" fill="#fff"/>
  <path class="uuid-aa779997-6fcc-4553-a68e-34d7a297ee95" d="m71.03 43.761c1.9574-0.57826 3.7972 0.80794 4.3682 2.7411 0.6419 2.1728-0.69761 3.8871-2.4924 4.4173a3.4097 3.4097 0 0 1-4.2199-2.3754c-0.56689-1.9189 0.20255-4.1504 2.344-4.783" fill="#0f141b"/>
  <path class="uuid-e95a9377-1fa0-4cda-8da5-d0d1fb80ab2b" d="m71.15 44.229c0.65093-0.24349 1.5935 0.22728 1.8021 1.0855 0.16852 0.69634-0.0957 1.4771-1.0129 1.7698-0.65348 0.20857-1.4677-0.23188-1.705-1.0351a1.4876 1.4876 0 0 1 0.91432-1.8198" fill="#fff"/>
  <path class="uuid-aa779997-6fcc-4553-a68e-34d7a297ee95" d="m85.24 50.668c0.0848 1.1166 2.5526 0.82194 2.4939-0.11163-0.0626-1.01-2.5499-0.61332-2.4939 0.11163m33.043 29.412c-0.54713-0.28201-1.7241 0.29683-2.8344 2.5561-0.62894 1.2841-1.0266 3.3142-0.17858 3.7012 0.73499 0.3351 2.1385-1.2833 2.7527-2.6855 0.71993-1.6429 0.97714-3.2034 0.26067-3.5703m-0.7566 3.3461c-0.41435 0.94455-1.4787 2.3929-1.9736 2.2878-0.49223-0.22222-0.25166-1.587 0.34019-2.7918 0.76847-1.5626 1.701-2.533 2.1095-2.3264 0.20674 0.10646 0.20638 1.2762-0.47514 2.8286" fill="#0f141b"/>
  <path class="uuid-d2e4c30a-190f-47d8-a761-290ad1e9eb4c" d="m69.56 76.938c5.2941-5.1674 10.258-14.888 7.6565-17.302-2.1707-2.0128-10.77 0.58951-15.487 9.2629" fill="#f9be00"/>
  <path class="uuid-01bee867-53d0-4511-ad81-28a8755162c9" d="m69.56 76.938c5.2941-5.1674 10.258-14.888 7.6565-17.302a2.0158 2.0158 0 0 0-0.52948-0.34307c0.45688 4.9018-5.3672 15.101-7.2977 17.451l1e-3 0.0198 0.17139 0.17584z" fill="#d7a400"/>
  <path class="uuid-7836f371-cd45-4887-9ac5-cb851af78761" d="m77.21 59.636c-1.4828-1.3753-5.9646-0.59419-10.161 2.8017-0.40168 0.80895-0.61279 1.7431-0.29027 2.1364 0.45477 0.55749 2.1116-0.79135 2.6344-0.14538 0.51102 0.63239-0.88151 2.792 0.38697 3.8723 0.90173 0.76826 2.505-1.5498 3.3388-1.0903 0.46515 0.25659-7e-3 1.4896 0.77735 1.9172 0.43431 0.23623 0.83399-0.13314 1.5887-0.1777 2.1892-4.0206 3.2422-7.9072 1.727-9.3133m-42.215-49.222c1.7454 0.70982 3.446 1.5306 5.0895 2.4365 12.01 6.6232 20.867 17.857 20.287 24.826-0.35265 4.2304-2.9751 4.6002-6.4381 2.8125 3.6423 3.4814 7.3863 4.015 9.8044 1.9821 6.8742-5.7785-5.3831-29.732-28.742-32.059" fill="#776b59"/>
  <path class="uuid-895a1c3d-ac74-48b9-9fb3-cfb366a7b83b" d="m40.09 12.854c4.8357 4.7855 11.307 13.636 9.3434 17.834-1.3514 2.892-7.2319 1.9317-9.0261 5.4044-1.194 2.3119-0.36424 5.9712 2.3555 7.5007 1.0099 0.56723 2.0422 0.62216 2.9162 0.24139l-0.0983-0.36961c-2.7006 0.74042-5.6026-3.0916-3.4398-6.0464 2.3239-3.1762 8.3557-0.43793 11.718 3.0348 3.5014 1.8338 6.1621 1.4883 6.5163-2.7736 0.58132-6.9691-8.2753-18.203-20.287-24.826" fill="#f2e100"/>
  <path class="uuid-83828be3-d2c4-4ce6-8895-be077249b397" d="m77.21 59.636a1.9934 1.9934 0 0 0-0.52881-0.33551c0.22781 2.4829-1.151 6.3168-2.8191 9.8065 0.0111 6e-3 0.0202 0.01575 0.0326 0.02138 0.43432 0.23622 0.83399-0.13314 1.5887-0.1777 2.1892-4.0206 3.2422-7.9072 1.727-9.3133" fill="#594f41"/>
  <path class="uuid-e282c81f-167d-43fd-94ef-57304ddb1e7e" d="m40.43 13.19c6.6317 5.0942 20.812 19.197 18.752 27.656 0.31982-0.59242 1.115-2.1645 1.199-3.1665 0.57989-6.9687-8.2753-18.203-20.287-24.826 0.11152 0.10977 0.22291 0.22422 0.33571 0.33826" fill="#cbbd00"/>
 </g>
 <g fill="#0f141b" stroke-width="1.4876">
  <path class="uuid-aa779997-6fcc-4553-a68e-34d7a297ee95" d="m69.34 76.708c5.1401-5.3841 9.8332-14.675 7.6106-16.738-1.958-1.8182-10.128 0.70863-14.953 9.0959-0.61694 1.0726-1.0848 0.78584-0.51777-0.31395 4.4155-8.5563 13.486-11.762 16.044-9.3887 2.8338 2.6298-2.0699 12.39-7.7396 17.803-0.81089 0.77317-1.3104 0.44762-0.44549-0.45785m-33.329-66.517c-1.1433-0.15243-1.1655 0.53357-5e-3 0.68095 22.315 2.8375 33.777 25.947 27.469 31.25-2.3972 2.0143-5.9342 1.3467-9.3146-1.8941-4.5277-4.3414-9.8508-6.093-12.249-3.0733-1.7593 2.2152-0.75038 4.6798 1.2567 6.1283 0.9447 0.68266 2.3332 0.63079 3.4565 0.14848l0.31066-1.0908c-0.85848 1.279-2.6085 1.0839-3.4789 0.45844-1.5496-1.1182-2.5181-3.3202-1.0094-5.2179 2.148-2.7054 7.3652-0.57191 11.239 3.142 3.9093 3.75 7.965 4.1729 10.358 2.1613 7.0729-5.9458-4.7925-29.607-28.035-32.691"/>
  <path class="uuid-aa779997-6fcc-4553-a68e-34d7a297ee95" d="m40.81 13.221-2.0523-1.1605c4.8648 4.4062 12.307 14.155 10.299 18.449-1.2548 2.6835-7.1257 1.8817-8.9552 5.4238-1.2388 2.3965-0.4352 6.3086 2.4918 7.9568 2.0169 1.1353 4.0051 0.27803 4.861-1.1987 0.99656-1.72-0.716-4.1039-2.462-3.267-0.49487 0.23617-0.14976 0.91602 0.34722 0.68699 1.0141-0.46866 2.1374 1.3541 1.5894 2.2296-0.89574 1.4311-2.4937 1.8923-3.9935 1.0479-2.5987-1.4614-3.3185-5.0213-2.2243-7.1408 1.6907-3.2715 7.6527-2.3135 9.0936-5.3964 1.9257-4.1196-3.9943-12.785-8.995-17.631"/>
  <path class="uuid-aa779997-6fcc-4553-a68e-34d7a297ee95" d="m36.58 10.713-1.1535 0.0073c13.86 5.9401 25.213 19.296 24.578 26.924-0.32683 3.9187-2.6598 4.549-6.5684 2.2243l1.2454 1.2593c2.9479 1.2465 5.6965 1.0938 6.0733-3.4276 0.6279-7.5413-9.8348-20.605-24.174-26.991"/>
 </g>
</svg>
