<?xml version="1.0" encoding="UTF-8"?>
<!-- Created with Inkscape (http://www.inkscape.org/) -->
<svg version="1.1" viewBox="0 0 116.88 148.55" xmlns="http://www.w3.org/2000/svg" xmlns:cc="http://creativecommons.org/ns#" xmlns:dc="http://purl.org/dc/elements/1.1/" xmlns:rdf="http://www.w3.org/1999/02/22-rdf-syntax-ns#">
 <metadata>
  <rdf:RDF>
   <cc:Work rdf:about="">
    <dc:format>image/svg+xml</dc:format>
    <dc:type rdf:resource="http://purl.org/dc/dcmitype/StillImage"/>
   </cc:Work>
  </rdf:RDF>
 </metadata>
 <g transform="translate(-55.351 -114.44)">
  <g transform="matrix(3.2224 0 0 -3.2224 94.503 246.9)">
   <path d="m0 0c-0.113 0.059-0.222 0.119-0.324 0.181-3.527 2.141-5.269 6.401-5.176 11.364l-0.108 1.727-2.866 1.073c-4.247-1.743-5.649-13.706 2.403-15.558-1.441-0.681-3.304-3.029-3.28-3.438 6e-3 -0.101 0.266-0.117 0.531-0.098-6e-3 -0.035-5e-3 -0.065 7e-3 -0.089 0.102-0.217 7.322 0.56 8.49 2.594 0.122 0.214 0.019 1.195-0.385 1.655 0.233 0.152 0.482 0.348 0.708 0.589" fill="#ddc300"/>
  </g>
  <g transform="matrix(3.2224 0 0 -3.2224 93.458 246.32)">
   <path d="m0 0c-1.809 1.099-3.146 2.755-4.01 4.777-2.377-1.867-5.889-1.831-7.472 0.669 0.384-3.094 2.091-6.002 5.735-6.84-1.441-0.68-3.304-3.029-3.28-3.438 6e-3 -0.101 0.266-0.116 0.531-0.098-6e-3 -0.035-4e-3 -0.065 7e-3 -0.089 0.102-0.216 7.323 0.56 8.49 2.594 0.122 0.214 0.02 1.196-0.385 1.655 0.234 0.153 0.483 0.348 0.708 0.589-0.113 0.059-0.221 0.119-0.324 0.181" fill="#b5a000"/>
  </g>
  <g transform="matrix(3.2224 0 0 -3.2224 78.797 254.89)">
   <path d="m0 0c-0.381 0.493-1.425 0.926-2.149 0.676-1.27-0.946-2.348-2.504-2.329-2.847 7e-3 -0.1 0.267-0.116 0.532-0.098-6e-3 -0.035-4e-3 -0.065 7e-3 -0.087 5e-3 -0.014 0.04-0.024 0.099-0.03 1.818 0.538 4.382 1.687 3.84 2.386" fill="#ddc300"/>
  </g>
  <g transform="matrix(3.2224 0 0 -3.2224 153.36 170.25)">
   <path d="m0 0c-0.292 0.484-1.727 2.89-2.25 3.549h-20.031c-0.525-0.659-1.959-3.065-2.25-3.549l0.766-12.242c-0.092-4.963 1.65-9.223 5.177-11.364 2.776-1.687 9.87-2.429 13.684 0.668 3.443 2.798 4.07 7.672 4.181 10.621z" fill="#ddc300"/>
  </g>
  <g transform="matrix(3.2224 0 0 -3.2224 113.9 193.76)">
   <path d="M 0,0 C 4.819,0 8.741,4.055 9.613,10.846 H -9.613 C -8.741,4.055 -4.819,0 0,0" fill="#b5a000"/>
  </g>
  <g transform="matrix(3.2224 0 0 -3.2224 138.74 172.34)">
   <path d="m0 0c0.628-0.31 1.459-1.385 1.619-2.12l2.194-9.547c-0.111-2.948-0.738-7.822-4.181-10.62-3.814-3.098-10.907-2.356-13.685-0.669-3.526 2.142-5.268 6.401-5.176 11.364l2.15 9.472c0.16 0.735 0.991 1.81 1.62 2.12z" fill="#f2d5b5"/>
  </g>
  <g transform="matrix(3.2224 0 0 -3.2224 113.9 193.76)">
   <path d="M 0,0 C 3.569,0 6.646,2.227 8.355,6.14 8.139,6.363 7.914,6.546 7.71,6.646 H -7.749 C -7.945,6.55 -8.16,6.379 -8.368,6.168 -6.66,2.237 -3.578,0 0,0" fill="#d1b99e"/>
  </g>
  <g transform="matrix(3.2224 0 0 -3.2224 160.47 200.68)">
   <path d="m0 0-2.779-0.324-0.151-2.551c-0.11-2.948-0.737-7.821-4.18-10.62-0.411-0.334-0.864-0.621-1.343-0.87 0.221-0.232 0.462-0.421 0.687-0.569-0.403-0.46-0.506-1.441-0.383-1.655 1.167-2.034 8.386-2.81 8.49-2.594 0.011 0.024 0.012 0.054 7e-3 0.089 0.264-0.018 0.524-3e-3 0.529 0.098 0.024 0.409-1.839 2.758-3.279 3.438 8.052 1.852 6.649 13.815 2.402 15.558" fill="#ddc300"/>
  </g>
  <g transform="matrix(3.2224 0 0 -3.2224 161.57 262.49)">
   <path d="m0 0c0.011 0.023 0.012 0.054 7e-3 0.09 0.264-0.02 0.524-4e-3 0.53 0.097 0.024 0.409-1.84 2.757-3.28 3.438 3.201 0.736 4.906 3.069 5.534 5.724-1.994-1.49-5.14-1.004-7.09 1.03-0.618-1.741-1.597-3.428-3.152-4.691-0.412-0.334-0.863-0.622-1.343-0.871 0.221-0.231 0.462-0.421 0.688-0.568-0.404-0.46-0.507-1.441-0.384-1.655 1.167-2.034 8.386-2.811 8.49-2.594" fill="#b5a000"/>
  </g>
  <g transform="matrix(3.2224 0 0 -3.2224 155.65 252.64)">
   <path d="m0 0c-0.875 0.15-1.803-0.188-2.199-0.7-0.543-0.701 2.037-1.854 3.856-2.391 0.106 4e-3 0.169 0.016 0.178 0.033 0.011 0.024 0.012 0.054 7e-3 0.089 0.264-0.018 0.524-3e-3 0.53 0.098 0.021 0.343-1.101 1.928-2.372 2.871" fill="#ddc300"/>
  </g>
  <g transform="matrix(3.2224 0 0 -3.2224 80.811 139.4)">
   <path d="m0 0c-1.16-4.408 0.392-10.911 7.05-13.592 0.501-0.524 2.301-1.974 3.225-1.974 0.75 0 2.281 1.137 3.287 2.026 6.532 2.471 8.086 9.629 6.985 13.623 1.141 1.065 2.657 5.737 2.376 6.179-0.24 0.377-4.067 0.412-6.607-0.549-3.654 2.521-8.664 2.299-12.129-0.034-2.231 1.011-6.366 0.857-6.59 0.618-0.222-0.241 0.601-3.827 2.403-6.297" fill="#ddc300"/>
  </g>
  <g transform="matrix(3.2224 0 0 -3.2224 80.553 140.02)">
   <path d="m0 0c-0.556-2.221-0.329-4.917 0.686-7.274l0.441 1.984c-0.746 1.491-1.075 2.948-1.127 5.29" fill="#b5a000"/>
  </g>
  <g transform="matrix(3.2224 0 0 -3.2224 147.4 140.41)">
   <path d="m0 0c0.121-2.047-0.451-4.318-1.11-5.411l0.294-1.735c0.87 2.037 1.337 4.25 0.816 7.146" fill="#b5a000"/>
  </g>
  <g transform="matrix(3.2224 0 0 -3.2224 75.159 170.36)">
   <path d="m0 0c1.159 0.111 3.186-2.354 3.435-3.814 0.732-0.712 1.771-1.882 2.456-2.819 1.598-2.183 1.76-4.51 0.241-6.384-1.821-2.249-6.49-0.182-8.66 2.763-2.335 3.171-1.755 8.188 2.264 10.286z" fill="#ddc300"/>
  </g>
  <g transform="matrix(3.2224 0 0 -3.2224 153.36 170.25)">
   <path d="m0 0c4.019-2.1 4.6-7.116 2.264-10.287-2.169-2.945-6.839-5.012-8.66-2.764-1.521 1.875-1.357 4.201 0.241 6.386 0.684 0.936 1.724 2.105 2.456 2.817 0.249 1.461 2.275 3.926 3.434 3.815z" fill="#ddc300"/>
  </g>
  <g transform="matrix(3.2224 0 0 -3.2224 140.37 127.41)">
   <path d="m0 0c0.466-0.397 1.616-2.231 1.753-2.766 0.723 0.697 1.623 3.589 1.71 4.516-0.781-0.255-2.834-1.225-3.463-1.75" fill="#f2d5b5"/>
  </g>
  <g transform="matrix(3.2224 0 0 -3.2224 88.008 126.45)">
   <path d="m0 0c-0.579 0.353-2.903 0.965-3.626 1.076 0.041-0.577 0.696-2.933 1.647-4.203 0.217 0.635 1.062 2.122 1.979 3.127" fill="#f2d5b5"/>
  </g>
  <g transform="matrix(3.2224 0 0 -3.2224 143.09 156.79)">
   <path d="m0 0-1.923 2.452c-1.04-3.807-3.841-6.033-7.232-6.033-3.393 0-5.952 1.953-7.376 6.85l-1.59-3.093c-0.439-0.538-0.59-1.48-0.506-2.458 1.102-2.418 3.125-4.614 6.35-5.912 0.501-0.525 2.3-1.975 3.225-1.975 0.75 0 2.281 1.138 3.286 2.026 3.127 1.183 5.111 3.44 6.21 5.909 0.095 0.893 3e-3 1.786-0.444 2.234" fill="#f2d5b5"/>
  </g>
  <g transform="matrix(3.2224 0 0 -3.2224 72.292 255.13)">
   <path d="m0 0c-7e-3 0.232-0.392 0.28-0.745 0.17-0.945-0.914-1.729-2-1.714-2.267 7e-3 -0.1 0.267-0.116 0.531-0.096-6e-3 -0.036-4e-3 -0.067 7e-3 -0.089 0.051-0.109 1.856 0.029 3.803 0.443 0.125 1.04-0.699 2.339-1.882 1.839" fill="#efefef"/>
  </g>
  <g transform="matrix(3.2224 0 0 -3.2224 155.37 255.13)">
   <path d="m0 0c-1.183 0.5-2.006-0.799-1.881-1.839 1.947-0.414 3.751-0.552 3.802-0.443 0.011 0.022 0.012 0.053 7e-3 0.089 0.265-0.02 0.525-4e-3 0.53 0.096 0.016 0.267-0.767 1.353-1.713 2.267-0.354 0.11-0.738 0.062-0.745-0.17" fill="#efefef"/>
  </g>
  <g transform="matrix(3.2224 0 0 -3.2224 149.94 257.51)">
   <path d="m0 0c-0.164-0.339-0.237-0.735-0.193-1.101 1.799-0.381 3.476-0.527 3.76-0.462l-0.02 0.105c-1.116 0.269-2.81 0.925-3.547 1.458" fill="#c9caca"/>
  </g>
  <g transform="matrix(3.2224 0 0 -3.2224 163.16 261.97)">
   <path d="m0 0c-0.389 0.188-1.146 0.934-1.146 0.934l0.62-0.998s0.526-0.081 0.526 0.064" fill="#c9caca"/>
  </g>
  <g transform="matrix(3.2224 0 0 -3.2224 148.86 225.36)">
   <path d="m0 0c-3.91-4.724-8.313-4.973-11.142-5.041-2.539-0.061-7.367 0.807-10.519 4.562 0.807-2.59 2.301-4.709 4.47-6.026 2.776-1.686 9.87-2.429 13.683 0.669 1.895 1.539 2.935 3.707 3.508 5.836" fill="#d1b99e"/>
  </g>
  <g transform="matrix(3.2224 0 0 -3.2224 160.65 203.4)">
   <path d="m0 0c1.084 1.473 1.539 3.342 1.314 5.133-1.355-5.031-6.858-8.258-10.726-6.622 0.174-0.442 0.423-0.868 0.752-1.275 1.821-2.248 6.491-0.181 8.66 2.764" fill="#b5a000"/>
  </g>
  <g transform="matrix(3.2224 0 0 -3.2224 94.918 212.3)">
   <path d="m0 0c0.322 0.397 0.567 0.815 0.741 1.247-3.9-1.586-9.413 1.707-10.696 6.788-0.267-1.833 0.183-3.762 1.295-5.271 2.17-2.946 6.839-5.012 8.66-2.764" fill="#b5a000"/>
  </g>
  <g transform="matrix(3.2224 0 0 -3.2224 143.44 131.47)">
   <path d="M 0,0 C 0.588,0.922 1.492,1.999 2.461,2.68 2.484,2.807 2.501,2.918 2.51,3.01 1.729,2.755 -0.324,1.785 -0.953,1.26 -0.729,1.069 -0.35,0.549 0,0" fill="#d1b99e"/>
  </g>
  <g transform="matrix(3.2224 0 0 -3.2224 76.324 122.98)">
   <path d="m0 0c7e-3 -0.098 0.032-0.246 0.072-0.432 0.859-0.414 1.755-1.091 2.545-1.964 0.303 0.46 0.651 0.927 1.009 1.32-0.579 0.352-2.903 0.965-3.626 1.076" fill="#d1b99e"/>
  </g>
  <g transform="matrix(3.2224 0 0 -3.2224 77.733 257.51)">
   <path d="m0 0c-0.729-0.526-2.476-1.202-3.594-1.477l0.06-0.092c0.363-0.049 1.988 0.099 3.727 0.468 0.044 0.366-0.029 0.762-0.193 1.101" fill="#c9caca"/>
  </g>
  <g transform="matrix(3.2224 0 0 -3.2224 64.507 261.97)">
   <path d="m0 0c0.188 0.209 1.146 0.934 1.146 0.934l-0.62-0.998s-0.526-0.081-0.526 0.064" fill="#c9caca"/>
  </g>
  <g transform="matrix(3.2224 0 0 -3.2224 144.52 163.99)">
   <path d="m0 0c0.043 0.401-0.01 1.421-0.219 1.924-0.295-2.013-2.652-5.566-5.896-7.021-0.338-0.151-0.661-0.417-0.996-0.702-0.658-0.56-1.362-1.196-2.32-1.196-0.978 0-1.849 0.636-2.592 1.266-0.471 0.398-0.939 0.639-1.327 0.814-2.955 1.324-5.097 4.792-5.426 7.047-0.278-0.59-0.341-1.653-0.295-2.18 1.101-2.418 3.125-4.613 6.349-5.912 0.501-0.524 2.301-1.975 3.226-1.975 0.75 0 2.28 1.138 3.286 2.027 3.126 1.182 5.11 3.439 6.21 5.908" fill="#d1b99e"/>
  </g>
  <g transform="matrix(3.2224 0 0 -3.2224 83.533 156.52)">
   <path d="M 0,0 C -0.125,1.979 0.682,3.664 1.47,3.645 3.018,3.625 3.494,-3.031 2.716,-3.748 1.965,-4.439 0.119,-1.9 0,0" fill="#0d131a"/>
  </g>
  <g transform="matrix(3.2224 0 0 -3.2224 76.774 123.42)">
   <path d="m0 0c0.114-0.7 0.686-2.592 1.474-3.766 0.293 0.688 0.964 1.853 1.769 2.772-0.67 0.318-2.462 0.845-3.243 0.994m1.379-4.137c-0.867 1.18-1.529 3.405-1.64 4.189-0.333 0.071-0.329 0.231 0.069 0.194 0.878-0.082 3.178-0.685 3.769-1.033 0.106-0.062 0.13-0.108 0.028-0.219-0.872-0.963-1.744-2.459-1.971-3.099-0.03-0.086-0.139-0.19-0.255-0.032" fill="#0d131a"/>
  </g>
  <g transform="matrix(3.2224 0 0 -3.2224 143.83 157.04)">
   <path d="m0 0-0.064-0.42c0.216-0.526 0.236-1.268 0.127-2l0.281 0.611c0.064 0.688-0.032 1.371-0.344 1.809" fill="#0d131a"/>
  </g>
  <g transform="matrix(3.2224 0 0 -3.2224 113.44 134.11)">
   <path d="m0 0c-3.022 0-5.825-1.479-7.543-3.898l0.158-0.219c1.665 2.393 4.415 3.777 7.385 3.777 3.874 0 6.386-1.881 7.487-3.737l0.141 0.259c-1.177 1.877-3.736 3.818-7.628 3.818" fill="#0d131a"/>
  </g>
  <g transform="matrix(3.2224 0 0 -3.2224 84.071 158.23)">
   <path d="m0 0-0.064 0.467c-0.289-0.493-0.395-1.207-0.383-1.92l0.27-0.571c-0.093 0.764-0.022 1.473 0.177 2.024" fill="#0d131a"/>
  </g>
  <g transform="matrix(3.2224 0 0 -3.2224 113.59 167.82)">
   <path d="m0 0c-3.125 0-5.335 1.673-6.723 5.169l-0.01-0.634c1.439-3.239 3.658-4.842 6.734-4.842 3.07 0 5.611 1.821 6.889 4.807l0.03 0.793c-1.126-3.302-3.729-5.293-6.92-5.293" fill="#0d131a"/>
  </g>
  <g transform="matrix(3.2224 0 0 -3.2224 93.767 156.16)">
   <path d="M 0,0 0.137,-0.222 C 3.232,2.59 9.219,2.333 12.274,-0.278 l 0.145,0.211 C 9.03,2.81 3.073,2.749 0,0" fill="#0d131a"/>
  </g>
  <g transform="matrix(3.2224 0 0 -3.2224 147.19 140.11)">
   <path d="m0 0c-1.793 4.216-5.665 6.919-10.38 6.919-4.578 0-8.479-2.668-10.237-6.68l-0.145-1.09c1.478 4.471 5.544 7.43 10.382 7.43 5.071 0 9.145-3.111 10.611-7.976z" fill="#0d131a"/>
  </g>
  <g transform="matrix(3.2224 0 0 -3.2224 113.57 115.29)">
   <path d="m0 0-0.256-3e-3c3e-3 -0.05 0.024-0.693 0.031-0.932l0.278 8e-3c-9e-3 0.24-0.051 0.88-0.053 0.927" fill="#0d131a"/>
  </g>
  <g transform="matrix(3.2224 0 0 -3.2224 94.579 123.9)">
   <path d="m0 0-0.236-0.165c0.178-1.279 0.685-3.259 1.309-4.451l0.216 0.133c-0.512 1.007-1.143 3.419-1.289 4.483" fill="#0d131a"/>
  </g>
  <g transform="matrix(3.2224 0 0 -3.2224 133.06 123.89)">
   <path d="m0 0c-0.152-1.116-0.725-3.271-1.281-4.504l0.212-0.146c0.573 1.134 1.168 3.242 1.304 4.478z" fill="#0d131a"/>
  </g>
  <g transform="matrix(3.2224 0 0 -3.2224 113.32 134.71)">
   <path d="m0 0-0.255-4e-3c0.012-0.568 0.032-4.035 0.072-4.697l0.252 0.013c0.018 0.503-0.056 4.115-0.069 4.688" fill="#0d131a"/>
  </g>
  <g transform="matrix(3.2224 0 0 -3.2224 73.589 171.23)">
   <path d="m0 0c-3.499-1.966-4.137-6.823-1.895-9.866 2.152-2.922 6.731-4.847 8.394-2.794 1.44 1.777 1.345 3.994-0.251 6.175-0.7 0.957-1.753 2.193-2.432 2.856-0.031 0.031-0.052 0.075-0.065 0.13-0.415 1.668-2.467 4.221-3.751 3.499m4.081-3.512c0.686-0.672 1.728-1.797 2.434-2.761 1.669-2.283 1.724-4.712 0.206-6.587-1.899-2.342-6.676-0.267-8.906 2.759-2.543 3.454-1.713 8.413 2.248 10.522 0.037 0.019 0.083 0.072 0.113 0.125 0.957 1.654 1.712 2.82 2.077 3.313l0.151-0.46c-0.562-0.798-1.183-1.755-1.928-3.029 1.333 0.151 3.293-2.443 3.605-3.882" fill="#0d131a"/>
  </g>
  <g transform="matrix(3.2224 0 0 -3.2224 93.6 191.21)">
   <path d="m0 0c-1.865 0.335-3.922-1.06-4.878-2.652-1.031-1.721-0.849-2.914-0.459-3.676l0.388-0.19c-0.977 1.342-0.019 3.122 0.332 3.707 0.855 1.425 2.966 3.03 4.822 2.516z" fill="#0d131a"/>
  </g>
  <g transform="matrix(3.2224 0 0 -3.2224 88.622 173)">
   <path d="m0 0-0.166 0.195c-0.555-0.377-0.99-0.945-1.287-1.551l0.168-0.245c0.228 0.536 0.873 1.332 1.285 1.601" fill="#0d131a"/>
  </g>
  <g transform="matrix(3.2224 0 0 -3.2224 80.95 173.47)">
   <path d="m0 0c-0.423 0.871-0.73 2.126-0.785 3.026l-0.195-0.339c0.082-0.716 0.261-1.587 0.542-2.315z" fill="#0d131a"/>
  </g>
  <g transform="matrix(3.2224 0 0 -3.2224 68.186 175.12)">
   <path d="m0 0-0.389-0.479c-0.349-1.137-0.29-2.494 0.06-3.459l0.188 0.243c-0.318 1.027-0.326 2.507 0.141 3.695" fill="#0d131a"/>
  </g>
  <g transform="matrix(3.2224 0 0 -3.2224 86.208 182.36)">
   <path d="m0 0c-1.13 0.629-2.829 0.955-4.881-0.503-1.386-0.984-2.044-2.441-2.158-3.708l0.251-0.717c-0.129 1.326 0.506 3.059 2.093 4.186 1.06 0.754 3.082 1.738 5.144 0.141z" fill="#0d131a"/>
  </g>
  <g transform="matrix(3.2224 0 0 -3.2224 80.188 181.19)">
   <path d="m0 0-0.303-4e-3c0.64-0.729 1.984-2.395 2.693-3.367l0.217 0.074c-0.614 0.893-1.848 2.459-2.607 3.297" fill="#0d131a"/>
  </g>
  <g transform="matrix(3.2224 0 0 -3.2224 150.44 212.46)">
   <path d="m0 0c-0.28-4.26-1.668-7.697-4.109-9.681-3.45-2.801-10.525-2.458-13.481-0.663-3.106 1.887-5.006 5.714-5.11 10.358l-0.331 0.191c0.073-4.996 1.85-8.785 5.258-10.855 3.053-1.854 10.134-2.355 13.881 0.689 2.51 2.039 3.951 5.475 4.227 10.143z" fill="#0d131a"/>
  </g>
  <g transform="matrix(3.2224 0 0 -3.2224 162.93 261.9)">
   <path d="m0 0h1e-3z" fill="#0d131a"/>
  </g>
  <g transform="matrix(3.2224 0 0 -3.2224 81.783 251.18)">
   <path d="m0 0c-5.054 0.096-7.354 3.467-7.65 7.63-0.228 3.202 0.9 6.451 2.7 7.643l-0.154 0.259c-2.044-1.2-3.292-4.594-3.074-7.928 0.271-4.099 2.773-7.854 8.177-7.85 0.432 0 0.434 0.238 1e-3 0.246" fill="#0d131a"/>
  </g>
  <g transform="matrix(3.2224 0 0 -3.2224 76.906 216.25)">
   <path d="m0 0-0.026 0.292c-1.745 0.777-3.901 0.918-5.906 0.521l-0.07-0.284c1.521 0.326 4.585 0.17 6.002-0.529" fill="#0d131a"/>
  </g>
  <g transform="matrix(3.2224 0 0 -3.2224 87.228 241.42)">
   <path d="m0 0c-2.579 0.986-6.419 1.284-8.614 0.877l0.118-0.239c2.144 0.368 6.605 0.01 8.967-1.117z" fill="#0d131a"/>
  </g>
  <g transform="matrix(3.2224 0 0 -3.2224 75.008 215.18)">
   <path d="m0 0-0.245 0.077c-0.29-2.056-0.183-5.561 0.353-7.451l0.28-0.046c-0.413 1.316-0.649 5.576-0.388 7.42" fill="#0d131a"/>
  </g>
  <g transform="matrix(3.2224 0 0 -3.2224 89.798 249.68)">
   <path d="m0 0c-0.325-0.145-0.204-0.301 0.08-0.197 0.516 0.187 1.094 0.498 1.505 0.932l-0.334 0.183c-0.307-0.377-0.819-0.728-1.251-0.918" fill="#0d131a"/>
  </g>
  <g transform="matrix(3.2224 0 0 -3.2224 64.781 261.86)">
   <path d="m0 0h1e-3zm3.314 3.316-0.495 0.133c-1.523-0.876-3.098-3.055-3.074-3.464 0.012-0.195 0.284-0.245 0.654-0.218l0.039 0.258c-0.182-0.014-0.414-0.022-0.434 9e-3 -0.096 0.147 1.645 2.506 3.31 3.282" fill="#0d131a"/>
  </g>
  <g transform="matrix(3.2224 0 0 -3.2224 72.623 254.78)">
   <path d="m0 0c-0.062 0.243-0.457 0.246-0.707 0.149l-0.301-0.296c0.539 0.298 0.862 0.179 0.783-0.153 0.543 0.451 1.946 0.07 1.879-1.622l0.245 0.062c0.075 1.179-0.716 2.25-1.899 1.86" fill="#0d131a"/>
  </g>
  <g transform="matrix(3.2224 0 0 -3.2224 141.91 182.5)">
   <path d="m0 0c-0.014-0.055-0.035-0.1-0.066-0.13-0.679-0.663-1.732-1.898-2.432-2.856-1.596-2.181-1.691-4.398-0.251-6.175 1.663-2.053 6.242-0.127 8.395 2.794 2.241 3.043 1.603 7.9-1.895 9.866-1.285 0.722-3.337-1.831-3.751-3.499m3.274 3.869c-0.745 1.274-1.366 2.232-1.928 3.029l0.151 0.461c0.365-0.494 1.121-1.66 2.077-3.314 0.03-0.053 0.076-0.106 0.114-0.125 3.961-2.108 4.791-7.068 2.247-10.522-2.23-3.027-7.007-5.101-8.906-2.759-1.518 1.875-1.463 4.304 0.206 6.587 0.706 0.964 1.748 2.089 2.435 2.761 0.311 1.439 2.271 4.033 3.604 3.882" fill="#0d131a"/>
  </g>
  <g transform="matrix(3.2224 0 0 -3.2224 133.98 191.21)">
   <path d="m0 0c1.865 0.335 3.922-1.06 4.878-2.652 1.032-1.721 0.849-2.914 0.459-3.676l-0.388-0.19c0.977 1.342 0.019 3.122-0.332 3.707-0.854 1.425-2.966 3.03-4.822 2.516z" fill="#0d131a"/>
  </g>
  <g transform="matrix(3.2224 0 0 -3.2224 139.1 173)">
   <path d="m0 0 0.166 0.195c0.555-0.377 0.99-0.945 1.287-1.551l-0.168-0.245c-0.228 0.536-0.874 1.332-1.285 1.601" fill="#0d131a"/>
  </g>
  <g transform="matrix(3.2224 0 0 -3.2224 146.63 173.47)">
   <path d="m0 0c0.423 0.871 0.73 2.126 0.785 3.026l0.196-0.339c-0.083-0.716-0.262-1.587-0.543-2.315z" fill="#0d131a"/>
  </g>
  <g transform="matrix(3.2224 0 0 -3.2224 159.4 175.12)">
   <path d="m0 0 0.388-0.479c0.35-1.137 0.29-2.494-0.06-3.459l-0.188 0.243c0.318 1.027 0.326 2.507-0.14 3.695" fill="#0d131a"/>
  </g>
  <g transform="matrix(3.2224 0 0 -3.2224 141.37 182.36)">
   <path d="m0 0c1.13 0.629 2.829 0.955 4.882-0.503 1.386-0.984 2.043-2.441 2.157-3.708l-0.251-0.717c0.129 1.326-0.506 3.059-2.093 4.186-1.06 0.754-3.082 1.738-5.144 0.141z" fill="#0d131a"/>
  </g>
  <g transform="matrix(3.2224 0 0 -3.2224 147.4 181.19)">
   <path d="m0 0 0.302-4e-3c-0.64-0.729-1.984-2.395-2.693-3.367l-0.217 0.074c0.614 0.893 1.849 2.459 2.608 3.297" fill="#0d131a"/>
  </g>
  <g transform="matrix(3.2224 0 0 -3.2224 145.94 251.18)">
   <path d="m0 0c5.054 0.096 7.301 3.555 7.65 7.63 0.274 3.198-0.901 6.451-2.7 7.643l0.154 0.259c2.043-1.2 3.25-4.594 3.031-7.928-0.271-4.099-2.731-7.854-8.134-7.85-0.432 0-0.434 0.238-1e-3 0.246" fill="#0d131a"/>
  </g>
  <g transform="matrix(3.2224 0 0 -3.2224 150.68 216.38)">
   <path d="M 0,0 0.026,0.291 C 1.771,1.069 3.927,1.21 5.932,0.812 L 6.002,0.528 C 4.481,0.855 1.417,0.699 0,0" fill="#0d131a"/>
  </g>
  <g transform="matrix(3.2224 0 0 -3.2224 140.35 241.42)">
   <path d="m0 0c2.579 0.986 6.419 1.284 8.614 0.877l-0.118-0.239c-2.144 0.368-6.605 0.01-8.967-1.117z" fill="#0d131a"/>
  </g>
  <g transform="matrix(3.2224 0 0 -3.2224 152.68 215.18)">
   <path d="m0 0 0.245 0.077c0.29-2.056 0.182-5.561-0.353-7.451l-0.28-0.046c0.412 1.316 0.649 5.576 0.388 7.42" fill="#0d131a"/>
  </g>
  <g transform="matrix(3.2224 0 0 -3.2224 137.78 249.68)">
   <path d="m0 0c0.325-0.145 0.204-0.301-0.08-0.197-0.516 0.187-1.093 0.498-1.504 0.932l0.333 0.183c0.308-0.377 0.82-0.728 1.251-0.918" fill="#0d131a"/>
  </g>
  <g transform="matrix(3.2224 0 0 -3.2224 162.8 261.86)">
   <path d="m0 0h1e-3zm-2e-3 0.034c-0.02-0.031-0.253-0.023-0.435-9e-3l0.039-0.258c0.371-0.027 0.642 0.023 0.654 0.218 0.024 0.409-1.551 2.588-3.074 3.464l-0.495-0.133c1.665-0.776 3.406-3.135 3.311-3.282" fill="#0d131a"/>
  </g>
  <g transform="matrix(3.2224 0 0 -3.2224 155.49 255.01)">
   <path d="m0 0-0.287 0.05-0.288-0.098c0.169-7e-3 0.25-0.021 0.363-0.096 0.94-0.605 2.026-1.972 1.946-2.082-0.096-0.132-7.123 0.712-8.205 2.598-0.095 0.168-0.012 1.012 0.315 1.467l-0.217 0.138c-0.422-0.431-0.583-1.516-0.438-1.77 1.194-2.081 8.579-3.013 8.785-2.583 0.172 0.362-1.066 1.751-1.974 2.376" fill="#0d131a"/>
  </g>
  <g transform="matrix(3.2224 0 0 -3.2224 72.088 255.01)">
   <path d="m0 0 0.287 0.05 0.288-0.098c-0.169-7e-3 -0.25-0.021-0.363-0.096-0.939-0.605-2.026-1.972-1.946-2.082 0.096-0.132 7.123 0.712 8.205 2.598 0.096 0.168 0.012 1.012-0.315 1.467l0.217 0.138c0.422-0.431 0.584-1.516 0.438-1.77-1.194-2.081-8.579-3.013-8.784-2.583-0.173 0.362 1.065 1.751 1.973 2.376" fill="#0d131a"/>
  </g>
  <g transform="matrix(3.2224 0 0 -3.2224 154.96 254.78)">
   <path d="m0 0c0.108 0.255 0.53 0.302 0.706 0.149l0.301-0.296c-0.539 0.298-0.861 0.179-0.783-0.153-0.543 0.451-1.946 0.07-1.879-1.622l-0.245 0.062c-0.075 1.179 0.717 2.25 1.9 1.86" fill="#0d131a"/>
  </g>
  <g transform="matrix(3.2224 0 0 -3.2224 88.565 148.21)">
   <path d="m0 0c-0.376-0.087-0.557-0.547-0.469-1.145 0.078-0.531 0.522-0.966 0.882-0.906 0.479 0.08 0.569 0.733 0.496 1.18-0.085 0.517-0.505 0.963-0.909 0.871" fill="#fff"/>
  </g>
  <g transform="matrix(3.2224 0 0 -3.2224 124.37 182.64)">
   <path d="m0 0c-0.075-0.031-0.116-0.062-0.165-0.11-0.587-0.587-2.455-1.856-3.085-1.856-0.813 0-2.488 1.245-3.075 1.831-0.049 0.05-0.09 0.079-0.165 0.111-6.048 2.474-8.095 8.739-6.879 13.426 0.019 0.073 1e-3 0.125-0.032 0.172-1.777 2.457-2.533 5.848-2.386 6.028 0.153 0.186 4.07 0.362 6.332-0.64 0.08-0.035 0.141-0.025 0.209 0.02 3.415 2.275 8.567 2.337 11.936 0.012 0.069-0.046 0.129-0.053 0.209-0.02 2.231 0.893 6.146 0.917 6.388 0.623 0.147-0.18-0.95-4.12-2.401-5.973-0.035-0.046-0.039-0.087-0.021-0.159 1.216-4.687-0.817-10.99-6.865-13.465m9.529 19.817c-0.395 0.427-4.622 0.411-6.718-0.504-3.66 2.488-8.373 2.459-12.127-0.033-2.182 0.952-6.453 0.824-6.714 0.542-0.323-0.347 0.576-4.056 2.325-6.486-1.284-4.993 0.723-10.957 7.07-13.577 0.073-0.03 0.108-0.056 0.162-0.118 0.551-0.627 2.341-1.996 3.223-1.996 0.921 0 2.493 1.309 3.223 1.992 0.085 0.079 0.209 0.136 0.29 0.171 6.246 2.647 8.223 8.598 6.948 13.557 1.48 1.614 2.642 6.105 2.318 6.452" fill="#0d131a"/>
  </g>
  <g transform="matrix(3.2224 0 0 -3.2224 141.13 127.48)">
   <path d="m0 0c0.465-0.492 1.271-1.781 1.552-2.45 0.618 0.806 1.369 3.026 1.525 4.036-0.806-0.302-2.406-1.092-3.077-1.586m1.413-2.818c-0.134 0.518-1.328 2.406-1.755 2.769-0.056 0.049-0.066 0.139 1e-3 0.195 0.684 0.573 3.124 1.678 3.729 1.805 0.225 0.049 0.35-0.099-0.041-0.273-0.118-0.967-0.973-3.836-1.722-4.557-0.071-0.068-0.191-0.02-0.212 0.061" fill="#0d131a"/>
  </g>
  <g transform="matrix(3.2224 0 0 -3.2224 135.51 168.61)">
   <path d="M 0,0 C -0.778,0.716 -0.302,7.372 1.246,7.392 2.034,7.412 2.84,5.727 2.716,3.747 2.597,1.846 0.751,-0.693 0,0" fill="#0d131a"/>
  </g>
  <g transform="matrix(3.2224 0 0 -3.2224 139.23 148.23)">
   <path d="m0 0c0.376-0.086 0.557-0.545 0.468-1.145-0.077-0.53-0.521-0.965-0.88-0.906-0.48 0.08-0.57 0.734-0.497 1.181 0.085 0.516 0.505 0.964 0.909 0.87" fill="#fff"/>
  </g>
  <g transform="matrix(3.2224 0 0 -3.2224 98.777 205.13)">
   <path d="m0 0c0.418-0.383 0.682-1.118 0.706-1.596 7e-3 -0.133-0.075-0.171-0.184-0.105-0.637 0.385-0.888 0.377-1.013 0.552-0.356 0.498 0.091 1.516 0.491 1.149" fill="#efefef"/>
  </g>
  <g transform="matrix(3.2224 0 0 -3.2224 96.124 210.16)">
   <path d="m0 0c0.284-0.353 0.698-0.829 1.029-1.214 0.094-0.109 0.056-0.217-0.147-0.246-0.493-0.072-1.528 0.099-1.775 0.308-0.575 0.492 0.158 1.35 0.893 1.152" fill="#efefef"/>
  </g>
  <g transform="matrix(3.2224 0 0 -3.2224 92.543 214.06)">
   <path d="m0 0c0.201-0.07 0.366-0.387 0.864-0.754 0.15-0.11 0.095-0.195-0.124-0.217-0.74-0.075-1.745 0.26-1.754 0.588-8e-3 0.33 0.633 0.516 1.014 0.383" fill="#efefef"/>
  </g>
  <g transform="matrix(3.2224 0 0 -3.2224 128.89 205.13)">
   <path d="m0 0c-0.418-0.383-0.682-1.118-0.706-1.596-7e-3 -0.133 0.075-0.171 0.184-0.105 0.638 0.385 0.889 0.377 1.013 0.552 0.356 0.498-0.09 1.516-0.491 1.149" fill="#efefef"/>
  </g>
  <g transform="matrix(3.2224 0 0 -3.2224 131.54 210.16)">
   <path d="m0 0c-0.284-0.353-0.698-0.829-1.028-1.214-0.095-0.109-0.057-0.217 0.146-0.246 0.493-0.072 1.528 0.099 1.775 0.308 0.576 0.492-0.158 1.35-0.893 1.152" fill="#efefef"/>
  </g>
  <g transform="matrix(3.2224 0 0 -3.2224 135.13 214.06)">
   <path d="m0 0c-0.202-0.07-0.367-0.387-0.865-0.754-0.15-0.11-0.094-0.195 0.125-0.217 0.74-0.075 1.744 0.26 1.754 0.588 8e-3 0.33-0.634 0.516-1.014 0.383" fill="#efefef"/>
  </g>
  <g transform="matrix(3.2224 0 0 -3.2224 100.46 210.61)">
   <path d="m0 0c0.066-0.039 0.121-0.041 0.153-8e-3 -0.302 0.433-0.823 0.876-1.29 1.12-0.02-0.198 0.012-0.405 0.124-0.56 0.125-0.175 0.376-0.167 1.013-0.552" fill="#c9caca"/>
  </g>
  <g transform="matrix(3.2224 0 0 -3.2224 98.966 214.86)">
   <path d="m0 0c0.11 0.016 0.17 0.055 0.188 0.104-0.754 0.141-1.494 0.59-1.973 1.075-0.231-0.254-0.291-0.613 0.011-0.871 0.247-0.209 1.281-0.38 1.774-0.308" fill="#c9caca"/>
  </g>
  <g transform="matrix(3.2224 0 0 -3.2224 126.63 210.44)">
   <path d="M 0,0 C 0.016,-0.089 0.088,-0.108 0.18,-0.053 0.818,0.332 1.069,0.324 1.193,0.499 1.311,0.663 1.34,0.884 1.313,1.094 0.852,0.868 0.322,0.434 0,0" fill="#c9caca"/>
  </g>
  <g transform="matrix(3.2224 0 0 -3.2224 134.58 211.2)">
   <path d="m0 0c-0.497-0.484-1.25-0.925-2.009-1.044 0.024-0.043 0.083-0.076 0.184-0.091 0.493-0.072 1.528 0.099 1.774 0.308 0.285 0.244 0.249 0.576 0.051 0.827" fill="#c9caca"/>
  </g>
  <g transform="matrix(3.2224 0 0 -3.2224 138.39 215.27)">
   <path d="m0 0c0 0.117-0.071 0.207-0.175 0.275-0.457-0.332-1.257-0.692-1.78-0.768 0 0 0-9e-3 2e-3 -0.013 0.072-0.256 1.953 0.028 1.953 0.506" fill="#c9caca"/>
  </g>
  <g transform="matrix(3.2224 0 0 -3.2224 89.191 215.27)">
   <path d="m0 0c0 0.117 0.07 0.207 0.175 0.275 0.456-0.332 1.256-0.692 1.779-0.768-1e-3 -4e-3 0-9e-3 -1e-3 -0.013-0.073-0.256-1.953 0.028-1.953 0.506" fill="#c9caca"/>
  </g>
  <g transform="matrix(3.2224 0 0 -3.2224 100.5 210.17)">
   <path d="m0 0c-0.531 0.303-0.797 0.348-0.914 0.512-0.273 0.382 0.04 1.177 0.292 0.947 0.365-0.334 0.625-0.97 0.67-1.431 5e-3 -0.044-0.017-0.046-0.048-0.028m-0.438 1.666c-0.536 0.49-1.148-0.697-0.715-1.304 0.178-0.249 0.51-0.247 1.073-0.586 0.184-0.11 0.374-0.04 0.36 0.23-0.025 0.508-0.267 1.248-0.718 1.66" fill="#0d131a"/>
  </g>
  <g transform="matrix(3.2224 0 0 -3.2224 95.416 210.47)">
   <path d="m0 0c-0.574 0-0.981-0.623-0.59-0.957 0.194-0.166 1.191-0.355 1.687-0.282 0.082 0.012 0.067 0.044 0.032 0.081-0.035 0.035-0.656 0.748-0.928 1.078-0.055 0.066-0.109 0.08-0.201 0.08m-0.755-1.151c-0.702 0.598 0.106 1.577 0.968 1.382 0.059-0.013 0.099-0.043 0.145-0.1 0.272-0.332 0.981-1.166 0.981-1.166 0.13-0.153 0.144-0.392-0.221-0.445-0.636-0.092-1.6 0.096-1.873 0.329" fill="#0d131a"/>
  </g>
  <g transform="matrix(3.2224 0 0 -3.2224 89.689 215.28)">
   <path d="m0 0c5e-3 -0.217 0.892-0.556 1.616-0.482 0.042 3e-3 0.045 0.03 0.015 0.054-0.267 0.213-0.591 0.617-0.787 0.686-0.42 0.146-0.849-0.091-0.844-0.258m-0.256-8e-3c-0.011 0.387 0.715 0.67 1.184 0.507 0.127-0.044 0.226-0.147 0.363-0.29 0.129-0.134 0.286-0.317 0.531-0.498 0.236-0.174 0.123-0.387-0.178-0.417-0.744-0.075-1.887 0.245-1.9 0.698" fill="#0d131a"/>
  </g>
  <g transform="matrix(3.2224 0 0 -3.2224 126.93 210.08)">
   <path d="m0 0c0.045 0.461 0.305 1.097 0.671 1.431 0.252 0.23 0.563-0.566 0.291-0.948-0.116-0.163-0.383-0.209-0.914-0.511-0.031-0.018-0.053-0.016-0.048 0.028m-0.232-0.022c-0.014-0.27 0.176-0.34 0.36-0.23 0.562 0.339 0.894 0.337 1.073 0.586 0.433 0.606-0.18 1.794-0.715 1.304-0.451-0.412-0.692-1.153-0.718-1.66" fill="#0d131a"/>
  </g>
  <g transform="matrix(3.2224 0 0 -3.2224 131.52 210.73)">
   <path d="m0 0c-0.271-0.33-0.894-1.043-0.928-1.078-0.036-0.037-0.051-0.068 0.032-0.081 0.496-0.072 1.492 0.116 1.686 0.282 0.392 0.334-0.016 0.957-0.59 0.957-0.092 0-0.145-0.014-0.2-0.08m-0.917-1.4c-0.366 0.053-0.352 0.293-0.222 0.445 0 0 0.709 0.834 0.981 1.166 0.047 0.057 0.086 0.087 0.145 0.101 0.864 0.194 1.67-0.785 0.968-1.383-0.272-0.233-1.236-0.421-1.872-0.329" fill="#0d131a"/>
  </g>
  <g transform="matrix(3.2224 0 0 -3.2224 135.17 214.45)">
   <path d="m0 0c-0.196-0.068-0.521-0.473-0.787-0.686-0.03-0.024-0.027-0.05 0.014-0.054 0.725-0.073 1.613 0.265 1.618 0.482 5e-3 0.167-0.425 0.404-0.845 0.258m-0.8-0.964c-0.302 0.03-0.414 0.243-0.178 0.417 0.246 0.181 0.402 0.364 0.531 0.498 0.137 0.143 0.236 0.246 0.363 0.29 0.469 0.163 1.194-0.12 1.184-0.507-0.013-0.453-1.157-0.773-1.9-0.698" fill="#0d131a"/>
  </g>
 </g>
</svg>
