<?xml version="1.0" encoding="UTF-8"?>
<!-- Created with Inkscape (http://www.inkscape.org/) -->
<svg version="1.1" viewBox="0 0 265.81 342.43" xmlns="http://www.w3.org/2000/svg">
 <g transform="translate(-2.8939 36.123)" stroke-width="1.3183">
  <path d="m41.026 90.41s-18.658-14.697-28.453-44.314c-16.993-51.394-3.7749-78.133 3.4963-80.701 7.4692-2.6361 33.627 10.155 47.581 56.672 2.0979 6.9989 11.195 44.085 8.1623 58.776 0 0-0.6808-8.4531-6.0646-13.521-2.9889-2.8217-8.3975-4.6845-13.645-3.2673-21.077 5.687-11.077 26.356-11.077 26.356" fill="#e9545d"/>
  <path d="m140.15 101.25s8.3975-22.042 31.022-38.133c26.158-18.615 83.269-33.182 94.922-18.194 4.4122 5.6685-2.9455 37.285-45.013 57.842-20.52 10.031-46.876 22.16-64.37 21.454 0 0 7.9891-2.4505 10.613-9.4433 2.7413-7.3146 0.0192-16.628-8.7503-19.245-9.9693-2.9703-18.422 5.718-18.422 5.718" fill="#e9545d"/>
  <path d="m55.137 63.463c-9.4867 0-16.387 7.4136-16.387 19.122 0 5.2477 4.3751 13.645 11.721 15.397 7.3517 1.7506 16.442-3.3231 18.54-8.2242 2.104-4.8948 3.5583-13.057-0.11056-18.484-3.6759-5.4211-6.5906-7.8096-13.763-7.8096" fill="#fff3c2"/>
  <path d="m154.55 94.747c6.473 0 13.583 4.2264 13.583 13.849 0 13.057-14.067 17.729-24.079 14.227-3.4963-1.2244-8.7441-7.3456-6.473-14.345 4.2947-13.218 10.706-13.732 16.968-13.732" fill="#fff3c2"/>
  <path d="m168.2 113.56c52.737-14.876 86.883-37.489 98.134-62.799 0 0 0.22981 18.422-21.461 35.452-21.69 17.024-41.746 26.585-54.809 30.552-13.057 3.9667-26.585 8.1684-33.348 7.463 0 0 6.0646-2.5619 8.6265-5.8294 2.5681-3.2675 2.8591-4.8392 2.8591-4.8392" fill="#c94850"/>
  <path d="m168.2 113.56c-5.947 1.5717-28.862 8.5707-24.14 9.2701 4.7217 0.69991 11.547 1.7506 15.043 0.35259 3.4963-1.4051 7.1722-4.2019 8.0447-5.6005 0.87867-1.3981 1.052-4.0222 1.052-4.0222" fill="#dbd2a9"/>
  <path d="m49.889 98.333c1.2253 0.35259 2.8961-1.0525-0.11753-3.0323-4.4308-2.9147-9.0967-10.087-10.143-12.185 0 0-0.35277 5.2477 0.87252 7.8715 1.2253 2.6239 9.3877 7.3456 9.3877 7.3456" fill="#dbd2a9"/>
  <path d="m38.461 82.012c-19.654-31.561-32.884-64.587-32.884-78.839 0 0-3.7191 13.237 9.0967 47.117 9.7961 25.885 25.421 39.649 25.421 39.649z" fill="#c94850"/>
  <g fill="#fff3c2">
   <path d="m101.2 88.775c32.513 7.5064 59.909 41.041 51.777 69.506-2.333 8.1623-9.3319 25.657-21.454 31.95-12.129 6.2998-29.623 9.0967-36.387 8.8678-6.7638-0.23505-27.055-3.5025-36.387-6.9989-28.75-10.78-40.577-33.404-40.577-49.216 0-25.743 22.284-46.387 36.084-50.663 18.856-5.8542 31.48-7.0174 46.944-3.4469"/>
   <path d="m135.66 187.73s-5.5942 5.7736-4.5484 13.998c1.052 8.218 6.473 13.819 12.247 15.743 0 0-11.547 8.5708-25.539 7.3456-13.998-1.2244-18.193-22.568-9.2701-27.291 8.9173-4.7217 27.111-9.7961 27.111-9.7961"/>
   <path d="m59.451 192.33c-5.5262 1.0648-16.677 6.4172-19.474 8.8679-2.7971 2.4444-6.7638 13.057-4.8949 20.984 1.8627 7.9334 7.3455 13.527 11.424 13.064 4.0843-0.46486 7.8158-1.5156 13.998-6.7638 12.086-10.26 8.2366-37.94-1.052-36.152"/>
   <path d="m51.756 228.36c0 8.0447 4.666 26.82 13.527 36.034 8.8617 9.2142 13.293 10.73 17.377 12.129 4.0781 1.3981 11.312 0.93496 12.123 2.9147 0.82304 1.9864 2.5681 13.998 1.64 16.795-0.93444 2.7972-1.8689 4.3133-1.8689 5.4828 0 1.163 3.2613 3.4965 16.325 3.4965 13.063 0 16.677-3.2675 19.01-7.3456 4.9754-8.7069 9.2143-29.078 9.2143-42.451 0-6.2936-4.4927-22.915-10.792-32.532-6.2934-9.6226-20.638-39.011-42.502-40.589-21.87-1.5717-25.019 7.6981-26.765 11.547-1.7514 3.8491-7.2898 23.552-7.2898 34.518"/>
   <path d="m59.306 248.86c-3.4469 1.17-11.281 7.8715-12.507 9.4433 0 0-4.8949-2.2711-6.6462 0-1.7514 2.2773-1.6647 11.195 4.5484 19.506 6.2068 8.3109 13.819 9.4495 17.494 8.2242 3.6697-1.2262 22.476-7.2587 25.539-8.3109 7.4259-2.5495-19.444-31.919-28.428-28.862"/>
   <path d="m138.46 249.12c4.109-0.17541 8.5707 5.4208 8.5707 10.935 0 5.5077-2.6239 13.206-9.8827 13.206s-7.6116-3.4097-8.1314-9.9692c-0.52608-6.5658 5.1548-13.998 9.4433-14.171"/>
  </g>
  <g fill="#e9545d">
   <path d="m140.56 219.3 8.3047 15.482 18.806-10.409s9.8827 17.928 9.5361 19.506c-0.35277 1.5717-14.784 10.929-14.784 10.929s11.634 20.292 11.195 21.344c-0.43311 1.0525-17.402 13.472-18.454 13.206-1.0458-0.25962-13.206-17.494-13.206-17.494s4.9878-4.635 4.9878-12.067c0-7.4383-8.4841-10.669-8.4841-10.669s-1.6646-8.6574-4.0224-14.171c-2.3639-5.5077-6.0398-11.108-6.0398-11.108z"/>
   <path d="m131.41 203.88c0.67448 6.4855 8.5151 13.064 12.129 13.293 0 0 10.495-5.4766 16.56-13.057 6.0646-7.5806 6.8814-13.645 5.13-17.03-1.7514-3.3789-11.782-4.3133-18.193-3.6141-6.411 0.70519-8.7441 1.6331-8.7441 1.6331l-3.8491 3.4963s-3.9667 6.2995-3.0323 15.278"/>
   <path d="m37.616 202.77s-10.056 7.0856-13.732 11.807c-3.6697 4.7217-8.9235 11.281-7.6054 15.397 1.3119 4.109 8.6575 7.5187 16.702 7.5187 8.0447 0 12.42-2.0979 12.42-2.0979s-9.4433-2.797-10.235-12.772c-0.78586-9.9694 2.4505-19.851 2.4505-19.851"/>
   <path d="m20.212 130.17s7.3455-0.87181 10.755 2.3639c3.4097 3.2365 6.5596 7.6115 6.5596 15.743 0 8.132-1.5718 19.592-9.1835 22.042l-4.0223-5.947s2.8033-0.6122 3.1499-1.2262c0.35276-0.61221-0.52608-7.9644-0.52608-7.9644s5.2477-1.8317 5.3405-2.797c0.08598-0.95953 0.43311-6.3864-0.87882-6.8194-1.3119-0.44028-5.6004 0.17543-5.6004 0.17543s-0.60642-9.7961-1.0458-9.9694c-0.43942-0.17892-5.3343 0.17542-5.3343 0.17542z"/>
   <path d="m124.47 193.67s-5.3344-1.0525-6.473-4.895c-1.1386-3.8491 0.34662-15.397 6.9122-22.222 10.774-11.201 19.543-10.737 23.788-7.9581 2.5372 1.6647 3.2365 4.2885 3.2365 4.2885l-1.6646 3.6696-4.9816-4.109-6.999 7.3516-4.9816-3.3294-6.473 6.8258 3.1437 5.8602-4.5484 5.6808 5.8664 5.6002z"/>
  </g>
  <path d="m134.09 209.94c7.1722-1.2244 30.434-14.691 31.839-20.118 0 0 2.6177 8.0447-8.2242 17.142-10.848 9.0967-13.472 10.675-13.472 10.675l-6.1202-2.6239z" fill="#c94850"/>
  <g fill="#dbd2a9">
   <path d="m133.39 210.64c-12.067 4.2019-20.99 14.871-16.09 14.524 4.895-0.35258 18.188-3.3292 25.187-7.525l-4.3751-2.6239z"/>
   <path d="m139.16 262.41s5.947 1.3981 7.8715-1.7506c0 0-1.5717 11.547-8.9235 12.42z"/>
   <path d="m52.223 223.06-0.6992 10.675s-3.8491 1.0455-6.8194 1.3981c-2.9765 0.34733-7.6982-6.9989-7.6982-6.9989 5.7736-1.2244 12.94-3.3231 15.217-5.0744"/>
  </g>
  <path d="m37.004 228.14c-5.5942 1.5717-18.014 3.3231-20.724 1.8379 0 0 1.8317 6.733 12.68 7.2588 10.842 0.52623 16.09-1.3981 16.09-1.3981s-4.7217-2.2773-5.5942-3.5025c-0.87252-1.2262-2.4505-4.1956-2.4505-4.1956" fill="#c94850"/>
  <path d="m48.55 280.96c3.4963 1.0525 19.419 0.17542 29.735-6.1202l9.4495 2.8838s-5.2476 1.3121-11.894 3.7625c-6.6524 2.4505-14.171 5.0744-15.923 5.0744-8.2181 0-11.368-5.6005-11.368-5.6005" fill="#dbd2a9"/>
  <path d="m94.729 300.55c1.3428 1.9803 12.067 1.2262 15.916 0.87182 9.5423-0.86656 15.204-4.0285 17.141-7.692 4.9012-9.2761 9.4495-21.344 9.9755-28.689 0 0 0.51975 9.27-1.7514 16.789-2.2773 7.525-6.2996 18.546-10.143 20.292-3.8491 1.7506-9.9755 2.9765-16.095 2.9765-6.1202 0-14.171-1.5787-14.871-2.0977-0.69922-0.52625-0.17366-2.4505-0.17366-2.4505" fill="#dbd2a9"/>
  <path d="m176.77 242.65c-0.87252-0.87884-17.322 8.9234-16.095 11.541 1.2253 2.6301 9.0967-4.0225 9.0967-4.0225l7.1722-5.2414z" fill="#c94850"/>
  <path d="m173.09 276.24c-0.52608-1.0525-18.014 8.0447-20.112 9.9694l1.5717 3.4963 14.165-9.0905z" fill="#e9545d"/>
  <path d="m148.08 235.65c1.052 1.5717 2.4505 0.87181 5.421-0.52625 2.9765-1.3981 15.569-8.5708 15.569-8.5708l-1.3986-2.1845-11.894 6.3802z" fill="#f4b0a9"/>
  <g fill="#0f141b">
   <path d="m50.591 63.344c-10.978 3.1869-15.521 15.13-12.011 24.023-7.2712-8.2304-16.789-22.198-23.726-40.768-15.025-40.223-7.8963-77.088 1.6894-80.083 8.9297-2.7909 35.829 17.26 48.176 63.547 4.7959 17.995 7.6797 34.215 7.098 45.991-1.5037-8.8925-10.353-15.873-21.226-12.711m19.957 24.382c4.9073-13.008 5.3405-27.47-2.9333-58.492-13.063-48.998-41.066-68.337-51.784-64.99-9.7527 3.0509-21.449 36.585-3.8429 83.703 9.5485 25.557 24.562 42.445 33.305 48.355 0.99635 0.67359 2.5187-0.58765 1.9741-0.92795-11.752-7.3888-9.0039-25.984 3.3787-29.581 13.837-4.0222 23.54 7.6736 17.829 22.451-0.06842 0.17894 1.8627 0.0351 2.0731-0.51922"/>
   <path d="m213.87 104.78c-22.704 10.792-41.294 17.464-55.756 18.62 11.894-1.8628 14.635-15.972 7.463-24.487-4.895-5.8108-16.938-7.5064-23.441-0.0527 10.328-22.334 27.84-35.65 50.484-45.082 43.529-18.138 68.479-15.551 72.297-7.915 5.4148 10.817-12.964 40.811-51.047 58.919m53.863-60.559c-5.0621-10.118-34.66-11.059-77.435 6.7637-28.163 11.733-45.948 29.153-53.528 57.143-0.53836 1.9988 1.2872 2.333 1.2872 2.333 5.0682-18.057 20.972-16.95 26.121-9.6784 8.3666 11.82-1.1386 24.821-17.476 21.572-0.26611-0.0526 0.37749 1.8936 1.2933 2.0483 15.62 2.6175 34.536-1.4735 67.142-16.975 45.892-21.82 57.267-53.856 52.595-63.207"/>
   <path d="m148.08 123.76c6.6462 10.384 8.9049 21.516 6.6462 33.702-4.9816 26.912-23.671 40.818-57.78 42.334-3.6573 0.15789-3.6759-1.2928-0.02459-1.5349 32.179-2.1473 50.131-15.675 54.883-41.363 2.0793-11.226-0.0368-22.543-5.2724-32.613-3.0385-5.8418-2.1721-6.3367 1.5469-0.52627"/>
   <path d="m136.14 109.68c-9.8208-10.05-22.766-17.729-37.247-20.329-10.235-1.8317-19.988-1.8628-28.968-0.47712-6.9618 1.07-5.9222-0.27892-0.09301-1.6279 9.0967-2.0979 19.208-2.0731 29.475-0.24209 15.018 2.6919 29.184 10.619 37.928 21.468 2.5249 3.125 3.4963 5.9036-1.0953 1.2068"/>
   <path d="m46.579 97.318c-11.615 7.7167-20.724 18.478-24.908 32.965-7.1042 24.592 7.7292 51.079 39.784 61.611 4.0719 1.3436 3.4097 3.1127-0.6622 1.776-33.337-10.953-49.673-38.528-42.192-64.413 4.3937-15.199 12.977-25.793 26.974-33.491 5.9036-3.2488 6.0336-1.7883 1.0025 1.5525"/>
   <path d="m122.94 128.42c6.968 0.0877 10.929 6.083 10.421 15.415-0.49502 9.0039-6.6462 16.374-13.218 14.981-6.1016-1.2875-9.2081-7.1042-8.2181-15.496 1.0397-8.7442 5.9902-14.958 11.015-14.901"/>
   <path d="m57.241 113.39c6.046 1.7453 7.4878 8.5397 4.3689 18.7-2.5373 8.2678-8.0633 11.857-13.472 10.57-5.619-1.3419-9.0967-9.1153-5.8666-17.828 3.7067-9.9941 9.6723-12.964 14.97-11.442"/>
  </g>
  <path d="m60.652 120.01c0.53221 3.2055-1.6275 6.2316-4.8269 6.77-3.1993 0.53151-6.2316-1.6279-6.7638-4.8269-0.53835-3.2055 1.6214-6.2316 4.8207-6.77 3.2055-0.53151 6.2316 1.6279 6.77 4.8269" fill="#fff"/>
  <path d="m129.31 135.14c0.48275 3.2055-1.7328 6.1944-4.9444 6.6771-3.2055 0.47713-6.2006-1.7331-6.6772-4.9382-0.48274-3.2117 1.7266-6.207 4.9444-6.6834 3.2055-0.48239 6.2006 1.7331 6.6772 4.9445" fill="#fff"/>
  <g fill="#0f141b">
   <path d="m81.376 149.18c0.22277-1.0525 5.1301 0.34556 4.7835 1.5103-0.35277 1.17-5.1363 0.12274-4.7835-1.5103"/>
   <path d="m65.78 152.12c2.6363 4.1956 8.3047 8.1314 15.229 10.062 7.2403 2.0173 14.914 1.6279 19.722-1.5787 3.1189-2.0731 2.6857-3.1189-0.69921-1.5156-4.9692 2.3515-11.411 2.5991-18.206 0.88585-6.5966-1.6646-11.758-4.9692-14.604-8.7503-1.8132-2.4133-3.0509-1.6594-1.442 0.89637"/>
   <path d="m20.153 129.93c-0.89111 0.46486-0.37749 2.8158-0.11753 2.2154 1.3861-3.1252 16.653-1.3806 16.653 19.245 0 8.1686-4.6165 17.445-8.7441 17.94-0.65606 0.0877 0.53834 1.8625 0.84163 1.7637 5.8046-1.8874 10.285-11.003 10.285-19.704 0-18.824-12.791-24.636-18.918-21.461"/>
   <path d="m18.522 134.63c-0.27225 0.0526-0.52608 2.5867 0.10524 2.395 0.85393-0.25434 3.9605-0.40171 5.1982-0.28418 0.17368 1.4788 0.2661 5.5448 0.2661 9.1773 0 1.17 0.04383 1.356 1.3489 1.1753 1.9431-0.25962 4.2513-0.47713 5.3096-0.48239 0.21031 1.0332 0.4331 5.0064 0.40836 5.1672-0.70552 0.4017-2.8405 1.4104-4.734 2.265-0.63746 0.29121-0.77972 0.59467-0.68693 1.2507 0.38995 2.8341 0.75499 5.9284 0.81692 7.135-0.78586 0.22277-2.2897 0.43854-2.7229 0.38942-0.63746-0.0701 0.17945 2.3701 0.75499 2.3267 1.4233-0.0877 3.8739-0.21577 4.3689-1.2121 0.32803-0.64904-0.21033-4.1339-0.74254-8.0881 2.4073-0.87358 4.6722-1.8194 4.9878-2.4074 0.30329-0.56835 0.11057-8.0014-0.48274-8.7873-0.36503-0.48941-1.4852-0.52625-6.2564-0.0877-0.17366-8.4037-0.29084-9.5298-0.65605-9.8888-0.97776-0.98407-5.5942-0.32101-7.2836-0.0526"/>
   <path d="m124.52 164.92c-7.791 9.0225-9.8208 18.039-7.5559 24.091 1.2192 3.255 3.8119 4.9754 6.8566 5.4148 0.64974 0.0877 0.93443-1.7886 0.2847-1.8813-2.1721-0.30874-4.0039-1.9431-4.9135-4.3689-2.0421-5.458 0.76726-13.385 7.5126-21.195 7.5126-8.6946 16.591-9.2763 20.866-7.5436 1.9122 0.77884 3.0075 2.0111 2.9333 3.3108-0.0368 0.56308 1.8441 0.84199 1.8874 0.18594 0.13683-2.3639-1.0272-4.5236-3.9295-5.6994-5.8788-2.3887-16.146-1.3419-23.942 7.6858"/>
   <path d="m138.3 168.52c-3.7996-3.1375-4.9012-3.4222-5.26-3.4222-1.6646 0-7.8158 7.0919-7.8158 8.5089 0 0.35258 0.41468 1.8069 3.7563 5.3839-4.8021 4.703-5.3282 5.687-5.3282 6.1572 0 1.9246 7.1042 5.6747 7.1722 5.718 0.38978 0.22804 1.578-1.5525 1.1881-1.7822-1.8194-1.07-4.4865-3.0569-5.3528-3.9419 0.72394-0.98407 2.8467-3.3045 4.7836-5.2786 0.47643-0.49467 0.51976-1.0823 0.0368-1.6279-1.4666-1.6401-3.0879-3.682-3.4593-4.4308 0.6436-1.1507 3.8925-4.895 5.1239-5.9098 0.84779 0.45783 2.9147 1.8997 4.6598 3.224 0.78587 0.59466 1.0953 0.50169 1.6583-0.22277 2.2216-2.8589 4.765-5.9901 5.8356-7.1103 1.0272 0.69992 3.3603 2.6919 4.2761 3.6077 0.46416 0.46484 2.1473-1.2192 1.6832-1.684-0.0492-0.0526-4.6289-5.0497-6.0336-5.0497-0.62501 0-1.5718 0.58764-6.9246 7.8592"/>
   <path d="m58.792 192.17c-12.636 31.405-11.114 52.278 4.9754 71.642 2.2525 2.7105 3.6511 1.7575 1.5347-1.0648-14.301-19.079-15.842-37.667-4.6845-70.132 0.21665-0.61921-1.578-1.0525-1.8255-0.44555"/>
   <path d="m56.887 191.39c-25.885 9.5053-43.745 30.187-42.043 38.714 1.3552 6.7451 15.668 12.203 36.913 5.3653 0.33417-0.1052 0.71166-3.2552 0.08598-3.0509-20.811 6.937-33.702 2.0545-34.66-2.7786-1.3243-6.6152 15.861-26.864 41.907-36.077 0.62502-0.21577-1.8813-2.2895-2.2031-2.1721"/>
   <path d="m42.55 198.75c-9.1339 5.0495-10.997 17.538-7.7292 27.105 2.4939 7.3208 7.5249 11.213 12.513 10.446 0.64972-0.10521 0.28469-2.4505-0.36504-2.3515-3.7129 0.56834-7.4445-2.9767-9.5113-9.035-2.9457-8.6265-1.708-20.007 6.281-24.425 0.57553-0.31576-0.61273-2.0608-1.1881-1.7384"/>
   <path d="m137.66 184.29c-0.63747 0.14032-0.83534 2.3577-0.19806 2.2094 17.308-4.0225 25.798-1.4612 27.185 1.8565 4.567 10.96-22.853 34.617-44.797 35.787-4.0347 0.21751-3.7996 1.9432 0.23525 1.77 22.166-0.93496 53.027-23.416 46.758-38.473-2.3639-5.6685-13.274-6.8506-29.184-3.15"/>
   <path d="m133.65 188.19c-3.8243 5.8478-5.2168 11.529-2.9519 18.602 1.8565 5.7861 6.5038 9.6475 11.554 11.318 0.38364 0.12274 2.3763-1.8194 1.7328-1.9741-4.7959-1.1823-8.5399-4.9692-10.279-10.384-2.0112-6.2812-0.75498-13.33 3.1993-17.952 0.43311-0.49468-2.8157-0.28418-3.2551 0.38942"/>
   <path d="m129.31 223.59c-0.40836-0.51924-1.9802 0.39643-1.5717 0.91041 3.9791 5.0249 9.8827 20.662 9.8827 31.975 0 20.069-6.7948 38.732-9.6971 42.279-2.9581 3.6203-8.1809 5.1611-17.445 5.1611-10.656 0-14.871-1.256-14.871-1.9122 0-1.7384 2.135-4.8455 2.234-6.0708 0.0807-0.94723 0.1491-2.5619 0.1491-4.4306 0-2.8527-0.16137-6.2936-0.69307-8.8555-1.0891-5.2414-4.6783-5.8416-7.2836-5.8416-2.4197 0-9.9013-1.7883-12.834-3.4159-1.8627-1.0402-2.4135 0.0119-0.63746 1.2262 1.7451 1.1946 4.2389 2.2833 6.6834 3.1003-2.6115 0.8227-5.817 2.0111-9.1339 3.2489-5.0744 1.8873-10.322 3.8367-12.952 4.2512-4.9506 0.77358-12.878-3.0941-16.795-10.081-4.994-8.8925-4.6474-15.44-3.4777-16.022 1.4914-0.73676 3.1003-0.53854 5.5076 0.39643 0.49502 0.19121 1.0581 0.0351 1.38-0.39643 1.5038-1.9988 8.0386-6.5472 9.3133-6.702 0.64974-0.0701-1.0397-3.125-1.3428-3.0199-3.4963 1.7506-7.2588 5.5077-9.2825 7.6364-1.4172-0.44555-4.4122-1.1577-6.64-0.0351-2.432 1.2121-4.1957 8.2428 2.4629 19.32 4.2761 7.1105 12.692 12.284 19.24 11.263 2.8713-0.45258 7.9953-2.3516 13.417-4.3689 4.437-1.6524 9.6971-3.6077 12.618-4.3133 4.5979 0.42627 6.671 0.60695 7.426 4.2513 0.84779 4.0657 0.50748 10.656 0.50748 12.599 0 1.1946-2.2773 3.6014-2.2773 6.3986 0 2.7661 5.8108 4.1647 17.283 4.1647 10.056 0 15.824-1.8069 19.283-6.0336 3.4779-4.2513 10.743-23.559 10.743-43.788 0-12.222-7.0546-27.668-11.195-32.884"/>
   <path d="m138.11 250.14c3.8119 0 7.5559 4.87 7.5559 9.8331 0 4.6103-2.4629 11.343-7.7292 11.894-0.22891 0.0175-0.38995 2.4133-0.24136 2.4011 7.135-0.3333 10.966-8.249 10.966-14.067 0-7.197-4.3133-12.438-10.551-12.438-0.65607 0-0.65607 2.3763 0 2.3763"/>
   <path d="m139.27 219.94c0.76743 0.86655 5.2972 9.6164 8.2675 15.558 0.33418 0.65605 0.6622 1.1086 1.6894 0.48239 7.5559-4.6413 16.047-9.4744 18.039-10.062 1.7698 1.9988 8.3542 15.328 8.6265 17.519-0.98391 1.3366-8.1747 6.2008-14.796 10.279-0.47641 0.29645-0.77972 1.0086-0.38363 1.6401 5.4148 8.7441 11.077 18.59 11.498 20.453-1.4666 1.77-14.388 10.551-17.34 12.024-1.807-1.9803-9.6351-12.921-12.073-16.925-0.3403-0.56308-2.3701 0.67536-2.0297 1.2384 1.4172 2.333 11.634 18.268 13.175 18.886 1.7514 0.38417 21.51-11.374 21.51-14.784 0-1.0279-1.2191-4.8083-12.098-21.133 10.7-5.458 15.569-9.5177 15.861-10.966 0.0119-0.0701 0.0192-0.14032 0.0192-0.23506 0-3.1561-8.9853-20.427-11.04-21.195-0.56922-0.21051-2.0793 0.17541-19.104 10.557-4.7031-9.369-6.708-12.977-7.7044-14.4-0.60027-0.85953-2.1164 1.0648-2.1164 1.0648"/>
  </g>
 </g>
</svg>
