<?xml version="1.0" encoding="UTF-8"?>
<!-- Created with Inkscape (http://www.inkscape.org/) -->
<svg version="1.1" viewBox="0 0 194.87 331" xmlns="http://www.w3.org/2000/svg">
 <g transform="translate(-3.2389 15.099)">
  <path d="m162.19 36.579c0 27.266-22.09 49.356-49.356 49.356-27.266 0-49.356-22.09-49.356-49.356 0-27.266 22.09-49.356 49.356-49.356 27.266 0 49.356 22.09 49.356 49.356" fill="#f6c8d6"/>
  <path d="m152.59 40.182c0 20.667-16.748 37.414-37.414 37.414-20.667 0-37.433-16.747-37.433-37.414s16.766-37.414 37.433-37.414c20.666 0 37.414 16.747 37.414 37.414" fill="#ed85a7"/>
  <path d="m113.42 3.2459c1.9807 5.4532-2.0698 11.941-9.0394 14.474-6.9875 2.5518-14.252 0.2096-16.249-5.2683-1.9755-5.4532 2.0698-11.941 9.0578-14.474 6.9691-2.5518 14.252-0.20959 16.23 5.2683" fill="#fff"/>
  <path d="m113.35 20.974c0.66548 1.4043-0.3144 3.2697-2.2375 4.1605-1.8864 0.9065-3.9562 0.47159-4.6216-0.94319-0.66547-1.4043 0.3144-3.2697 2.2375-4.1605 1.8864-0.88555 3.9562-0.47159 4.6216 0.94319" fill="#fff"/>
  <path d="m127.99 270.51c3.1597-1.9388 6.6547-4.8417 6.6547-4.8417 3.8094 3.8985 5.1771 6.6364 5.9709 10.463 0.77552 3.8094-0.2096 10.463-9.7977 19.077-9.5938 8.6145-36.213 17.709-62.037 18.8-26.212 1.0899-21.997-5.3427-9.5011-6.858 11.258-1.3676 48.58-9.9454 58.432-20.26 4.1029-4.3072 7.0425-7.7268 3.123-12.219 0 0 3.9928-2.2165 7.1536-4.1605" fill="#adb2b4"/>
  <path d="m117.3 286.63c1.8654-1.1842 4.0872-1.551 6.3959-0.10485 2.3108 1.4253 2.2532 5.3238-2.2165 8.7067-8.9839 6.8208-49.282 19.539-71.52 15.528-1.2209 2.1431 7.5235 5.6937 30.538 2.4208 7.819-1.1109 37.378-6.7658 51.981-19.003 8.4662-9.3533 11.59-18.855 2.0908-28.819-4.7526 3.8618-9.0578 6.3959-13.513 9.2056 2.5152 4.0138 1.331 7.7268-3.7518 12.09" fill="#838688"/>
  <path d="m119.98 275.49c1.31 1.8654 1.8497 3.6418 0.55543 5.9709-6.747 11.997-38.246 20.63-61.427 24.271-17.561 2.7719-13.457 9.5572 3.123 10.13 20.26 0.6812 65.734-8.0229 77.01-27.765 3.9195-6.858 4.6374-15.934-3.3064-23.365l-1.8287 1.9964c6.0076 5.7304 6.1187 13.383 2.4208 19.798-10.444 18.171-55.845 27.118-73.923 26.601-12.478-0.36679-16.933-2.6462-2.8086-4.9727 17.746-2.9396 54.125-10.666 62.647-24.974 1.9964-3.385 1.8864-6.082-0.47159-9.0028z" fill="#0f141b"/>
  <path d="m129.22 82.84c0.86983-8.8545 1.331-19.52 5.3421-26.508 4.0138-6.9691 8.2445-10.611 12.996-10.389 11.239 0.52399 22.718 24.641 28.357 42.017 14.954 46.01 13.18 82.463 2.3108 102.15-7.3202 13.272-26.693 36.546-76.677 36.86-54.864 0.3668-77.269-40.317-81.816-59.653-5.5271-23.55 0.72311-49.855 27.987-78.692 0.3668-7.1169 1.3886-24.752 17.228-39.799 1.5877 8.725 20.981 47.729 64.274 34.013" fill="#adb2b4"/>
  <path d="m25.64 119.69c-4.2863 8.189-7.2647 17.912-7.8563 25.196-3.7728-2.6619-14.899-18.744-12.977-27.858 1.7397-8.3001 17.081-0.3144 20.833 2.6619" fill="#adb2b4"/>
  <path d="m143.13 134.12c6.4142 0.20961 14.955 2.8296 14.955 7.6902 0 4.8784-9.7977 6.5992-14.955 6.5992-5.4349 0-15.454-1.8864-15.454-7.2096 0-5.6932 9.7416-7.2458 15.454-7.0797" fill="#f6c8d6"/>
  <path d="m46.497 117.51c4.0872 2.1641 9.2983 6.3037 8.3001 10.352-1.0008 4.0452-10.019 2.054-14.068-0.3668-4.0295-2.4418-7.9668-7.3019-5.9154-10.297 2.0541-2.992 8.0229-1.6087 11.683 0.31439" fill="#f6c8d6"/>
  <path d="m76.122 269.03c-7.1536 1.6244-16.119 5.4532-18.319 7.653 1.9964 1.7187 10.112 0.66548 16.785-0.90651 6.6547-1.5877 16.267-4.3806 23.439-8.1151-4.716-1.331-14.752-0.26201-21.905 1.3676m16.009-15.306c8.0407-0.70215 22.145 0.92223 26.101 3.4007 2.5885-1.7187 6.322-5.3977 7.3202-7.5791 0-3.6051-8.0412-5.6565-10.408-5.9704-1.462 1.0899-16.507 8.004-23.014 10.148m35.954 16.803c-2.8086 1.7921-7.2463 4.1238-7.2463 4.1238-9.095 4.4173-23.883 11.849-38.856 14.585-14.973 2.7353-42.461 5.2866-43.644-7.3391-1.0742-11.553 13.513-19.465 27.894-23.587-9.0945-0.10485-20.056-2.2375-20.833-7.9118-0.79647-5.6749 9.0028-19.095 45.012-23.292 8.4106 0.86983 35.621 0.68118 45.492-4.5116-1.7554 3.8252-3.8985 6.7475-6.4514 9.5938 4.2129 1.9598 12.792 5.9526 14.197 13.606 1.6663 9.095-4.3072 14.474-9.0211 19.853 0 0-3.3483 2.8453-6.5436 4.8784" fill="#adb2b4"/>
  <g fill="#838688">
   <path d="m23.337 179.51c23.883 33.865 79.413 32.202 102.41 26.914 32.054-7.3386 57.878-21.129 57.878-91.465 5.0828 26.397 10.407 84.404-39.078 104.39-39.743 16.064-99.525 8.614-121.21-39.836"/>
   <path d="m61.741 265c1.9231 1.6244-0.10485 3.4584-2.0907 5.0828-2.992 2.4418-4.1972 6.3037-1.6453 6.2298 1.441-0.47159 3.7885-2.5676 9.6677-4.8417 7.8562-3.013 22.663-5.7304 31.666-4.2339 3.233-1.2786 15.176-7.5052 18.874-10.185-5.8232-3.1806-14.733-3.3274-22.293-3.6994-11.091 3.233-21.074 5.2866-30.963 5.1404-3.3483 1.2576-8.1701 3.4007-10.296 5.0304 3.4741-0.524 5.7487 0.3668 7.0797 1.4777"/>
   <path d="m4.6208 119.46c1.813 13.162 8.4106 20.611 13.661 26.342 0.3668-4.0295 0.66548-7.6163 1.6453-11.406-4.2129-1.1476-13.365-7.8007-15.306-14.936"/>
   <path d="m69.728 230.77c2.4785-0.4192 13.051-0.3144 14.603 5.0828 0.72311 2.5519-0.53448 4.3649-2.6409 5.5826 9.6494-2.0907 25.898-10.074 28.172-14.012-6.4142 0.10485-15.454-0.36679-19.447-0.2096-3.6418 0.10485-17.968 2.4942-20.685 3.5475"/>
   <path d="m129.12 232.34c-2.9396 4.1762-9.9449 9.3905-14.345 11.369 12.367 2.3265 11.184 5.601 9.5388 7.9674 4.8994-3.1073 10.259 0 10.259 3.4217 0 2.5518-1.4986 4.6007-4.0662 6.9319-21.646 19.595-57.268 24.844-71.816 25.436-6.2114 0.262-17.173-2.3265-19.169-9.3905-4.0138 4.936 1.331 26.065 63.238 4.826 17.838-6.1187 39.891-19.114 41.278-33.514 0.83315-8.4479-8.2445-15.158-14.918-17.043"/>
   <path d="m104.91 231.78c0.10473-0.15721 0.20959-0.262 0.31439-0.4192-0.10485 0-0.2096 0.0184-0.31439 0.0184z"/>
   <path d="m136.41 222.18c-5.9154 1.8287-23.809 4.4382-26.083 4.4382-1.6087 1.7187-3.6627 3.7728-5.1194 4.7684 7.1541-0.3144 10.389 0.59211 10.389 3.0497 0 2.0698-1.4253 3.9928-3.385 5.601-13.827 11.406-58.691 19.65-65.715 7.9857-3.1597 2.7719 1.4619 6.6919 4.0086 7.8196 13.901 6.0998 39.54-0.4192 54.791-6.8952 17.542-7.3941 27.876-20.315 31.111-26.767"/>
  </g>
  <g fill="#0f141b">
   <path d="m129.25 81.45c-5.067 1.8497-10.518 2.8453-16.212 2.8453-26.249 0-47.6-21.351-47.6-47.6 0-26.25 21.351-47.6 47.6-47.6 26.231 0 47.6 21.351 47.6 47.6 0 5.6565-0.9956 11.073-2.8086 16.119l2.2951 2.4785c2.4209-5.9521 3.7728-12.459 3.7728-19.28 0-28.172-22.941-51.112-51.131-51.112-28.19 0-51.112 22.941-51.112 51.112 0 28.19 22.922 51.131 51.112 51.131 5.7493 0 11.276-0.95891 16.452-2.7195z"/>
   <path d="m146.49 44.52c-3.364 0.20961-6.6919 2.2741-9.3538 5.3238-7.0242 8.0229-9.6122 25.362-8.9467 38.135 0.10485 2.6619 1.551 2.3475 1.7554-0.3144 0.86983-12.053 2.4418-28.172 9.1133-35.806 2.3108-2.6252 4.7526-4.1238 7.5607-4.2339 19.668-0.79647 38.154 64.144 38.154 103.07 0 66.418-58.026 75.716-87.084 74.385-51.315-2.3684-78.23-41.019-78.009-73.942 0.1572-22.145 12.071-42.738 29.023-61.685 0.1572-0.1572 0.262-0.4192 0.262-0.64975 0.75979-16.36 8.1707-31.37 16.859-38.875 0.41919-0.36679-1.0532-3.2173-1.4777-2.8662-8.7439 7.5785-17.284 20.704-17.968 41.111-18.467 19.558-29.799 39.633-30.316 62.795-0.8122 36.25 29.41 75.679 81.668 77.269 40.076 1.2 90.523-13.661 90.616-77.564 0.0524-50.78-22.793-107.4-41.851-106.18"/>
   <path d="m3.2826 120.01c0.57116 8.0412 7.7085 20.907 14.289 26.711 0.41919 0.3668 1.31-2.1065 0.90651-2.4942-6.1737-6.1004-12.034-16.471-12.588-24.086-0.26201-3.7361 1.6244-5.7676 5.1404-5.3054 4.2339 0.53447 9.1505 2.6462 14.234 6.0632 0.47159 0.3144 1.703-1.7397 1.2366-2.0541-5.3421-3.5841-11.664-6.267-16.193-6.8586-5.0304-0.64452-7.4313 2.2741-7.0247 8.0229"/>
   <path d="m121.99 108.92c4.454 0.3144 7.3019 5.2866 6.5992 10.999-0.6812 5.7676-4.5116 9.2061-8.5034 8.7067-4.7893-0.57114-7.1908-5.7121-6.7286-10.592 0.524-5.5826 4.6374-9.3905 8.6328-9.1133"/>
   <path d="m66.163 100.91c3.5317 1.1109 4.1972 5.8598 2.7353 10.333-1.3152 3.9562-4.826 7.1541-8.6695 5.9154-3.7151-1.1842-4.4016-6.507-2.9186-10.297 1.7397-4.4382 5.6937-6.9503 8.8545-5.9521"/>
  </g>
  <path d="m122.45 110.32c1.8654 0.3668 3.6418 2.2375 3.2907 4.9151-0.3144 2.4575-2.7195 4.2129-4.9727 3.7518-2.3842-0.4716-3.8828-2.8453-3.3064-5.2138 0.524-2.1274 2.5309-3.9195 4.9884-3.4584" fill="#fff"/>
  <path d="m65.501 102.19c2.2008 0.4716 2.9553 3.1597 2.5309 4.936-0.4192 1.7554-2.0907 3.5108-4.3806 2.992-2.2532-0.52399-3.385-2.7929-2.7562-4.9727 0.6288-2.1641 2.5309-3.4007 4.6007-2.9553" fill="#fff"/>
  <g fill="#0f141b">
   <path d="m142.71 147.61c-8.3923-0.2096-14.326-3.0497-14.326-6.4881 0-3.3064 5.5454-6.5258 14.585-6.322 8.3368 0.15719 14.64 3.6784 14.382 7.0797-0.26201 3.2173-6.8952 5.9337-14.64 5.7304m-15.639-6.3959c0 5.2295 7.8935 7.8379 15.694 8.0412 7.6158 0.2096 15.694-2.4785 16.045-7.1724 0.3144-4.5483-5.5088-8.6884-15.694-8.91-10.703-0.20959-16.045 3.495-16.045 8.0412"/>
   <path d="m42.386 127.43c-4.6216-2.4418-8.5217-7.2091-7.1908-9.6866 1.1266-2.0907 5.7304-2.4051 11.738 0.8122 5.4349 2.882 8.2262 7.2463 7.0063 9.4644-1.2366 2.2374-7.4868 1.551-11.554-0.59211m-8.374-10.278c-1.703 3.1597 1.2943 8.429 7.5052 11.72 4.2129 2.2374 11.554 3.3483 13.513-0.1572 1.8497-3.3116-0.77552-8.1707-7.2647-11.627-6.2298-3.3274-11.96-3.254-13.753 0.0524"/>
   <path d="m110.25 226.63c-8.7622 0.524-16.286 0.3144-20.777-0.4192-3.5684 0.26201-9.9638 0.88556-12.737 1.462-13.476 2.8086-28.283 9.9082-32.091 17.894-3.5108 7.3941 3.3274 12.958 13.993 13.883-20.056 7.8007-28.56 22.644-15.509 30.963 9.3166 5.9337 35.03 2.1274 51.445-2.9763 18.43-5.7488 50.779-20.168 50.983-39.004 0.0524-5.2682-1.4777-11.682-13.772-16.822 2.2899-2.6619 4.3649-5.5454 5.9521-8.7434 0.4192-0.86983-3.385-0.47159-3.6418 0.0372-1.6454 3.254-3.6208 5.8226-6.0632 8.5029-16.932 18.67-49.078 25.529-62.019 25.529-14.326 0.0184-21.461-4.1972-18.467-10.5 3.4374-7.2091 16.637-13.457 29.687-16.175 5.5827-1.1633 19.262-2.3842 30.907-1.2366 0 0 1.1476-1.3519 2.1064-2.3685m-8.5217 39.577c-4.9517-0.52401-10.463-0.52401-16.193 0.0524-12.293 1.2209-24.475 6.2848-28.56 9.4828-0.41919 0.31439 1.4043 1.6244 1.8497 1.2733 3.7885-2.9553 15.158-7.5791 26.915-8.7434 4.3649-0.4192 8.4845-0.52399 12.256-0.3144zm-7.764 18.263c-13.846 4.454-40.002 8.5034-49.023 3.1597-10.149-5.9893-3.385-20.408 20.704-27.987 8.5773-0.0367 18.781-1.7397 27.488-4.4906 10.407-0.72311 16.526 0.15721 24.493 2.6619l2.2375-1.7921c-7.0242-2.6095-14.474-3.7518-20.223-3.4374 10.776-3.7518 21.369-9.335 30.316-18.874 11.239 4.6583 12.847 11.295 12.515 15.103-1.3676 16.082-31.074 30.039-48.506 35.658"/>
   <path d="m126.63 245.84c-0.36679-0.66547-0.9065-0.9589-1.0742-0.88554-0.2096 0.10485 0 0.83314 0.0524 1.4777 0.0524 1.31-0.6445 2.1431-1.3309 3.254-7.8563 12.94-52.942 28.283-64.57 26.711-1.8864-0.262-2.3108-1.1476-2.4942-1.9021-0.05237-0.26199-0.4192-0.41919-0.72311 0.15721-0.20961 0.41919-0.3144 1.31 0.03724 1.9964 0.41919 0.79647 1.1999 1.331 2.7562 1.572 12.829 1.7187 61.187-13.236 67.49-29.096 0.47161-1.1842 0.3144-2.4051-0.15719-3.2697"/>
   <path d="m108.6 227.08c-6.0631 6.747-32.423 18.818-42.572 16.711-0.4192-0.10484-0.95891-0.36679-1.0166-0.57115-0.15719-0.64452-0.3668-0.6288-0.53448-0.4192-0.81218 0.81219-0.52399 1.9021 0.66548 2.2165 12.921 3.1964 40.095-9.8894 46.232-17.727 0.3668-0.41919-2.4051-0.59211-2.7719-0.20959"/>
   <path d="m113.43 244.42c6.6731 0.62879 10.962 2.7195 11.165 5.3793 0.0366 0.55543 1.792-0.55544 1.6244-1.0899-1.1266-3.5474-3.8094-4.7893-10.814-5.7671-0.55543-0.0524-2.5309 1.4253-1.9807 1.4777"/>
   <path d="m85.042 241.06c-0.0184-0.524-0.59212-0.60784-1.1842-0.57116-5.5088 0.41919-12.903 2.0331-15.454 3.2173-0.60784 0.31439-1.0899 0.70215-0.88555 1.0742 0.20961 0.3668 1.3886 0.4716 1.682 0.3668 2.4051-0.83316 9.15-2.9029 14.455-3.2173 0.31439-0.0184 1.4043-0.47159 1.3886-0.86982"/>
  </g>
  <path d="m85.426 117.46c15.121 3.123 35.233 13.069 37.765 31.13 2.5309 18.06-19.798 19.04-36.397 15.232-16.6-3.8094-41.259-9.5571-41.667-25.473-0.41919-15.232 20.87-24.9 40.298-20.889" fill="#adb2b4"/>
  <path d="m93.26 135.67" fill="#0f141b"/>
  <path d="m67.754 131.19" fill="#0f141b"/>
  <path d="m46.353 139.27c2.5309 7.7268 12.219 10.943 19.151 13.309 11.258 3.8618 41.296 13.716 52.055 2.0331 3.4007-3.7151 2.7719-9.6682 3.2697-9.3355 1.0375 0.70216 1.703 2.0174 2.2951 4.826 6.6914 13.975-6.9325 24.475-22.238 22.829-14.308-1.5353-29.965-6.7286-38.856-9.9821-7.4685-2.7352-16.84-10.426-15.879-19.003 0.15719-1.8864 0.2096-3.0339 0.2096-4.6793" fill="#838688"/>
  <g fill="#0f141b">
   <path d="m97.085 163.91c-13.975-1.4986-29.928-6.1187-40.261-11.757-10.61-5.7671-12.422-15.324-6.9136-22.903 5.1561-7.098 17.025-14.16 35.067-10.703 17.506 3.385 35.64 14.936 36.231 32.331 0.41919 11.942-14.788 14.03-24.123 13.032m-49.781-35.88c-7.4124 10.204-2.3842 20.962 7.8935 26.563 10.74 5.8415 27.783 10.407 42.239 11.96 14.345 1.551 27.322-2.3475 27.137-15.361-0.3144-18.837-20.445-31.277-39.041-34.845-19.262-3.6942-32.645 3.9771-38.228 11.683"/>
   <path d="m90.803 136.28c-1.441 1.0375-2.5309 3.1806-2.8296 5.5826-0.4192 3.123 0.0524 7.0058 2.7352 7.6713 0.73883 0.2096 1.4777 0.0524 2.1798-0.36679 1.6663-1.0742 2.6619-3.6942 3.0496-5.786 0.10485-0.68643 0.20961-1.3886 0.20961-2.0907 0-2.6986-0.9432-5.2138-2.8663-5.601-0.8122-0.15721-1.6663 0.0367-2.4575 0.60783"/>
   <path d="m91.21 147.59c-1.0532-0.26201-1.5877-2.6619-1.2366-5.4716 0.26199-2.2165 1.2576-3.6418 2.0174-4.1972 0.2096-0.1572 0.55543-0.3144 0.86982-0.26199 0.79648 0.15719 1.5877 2.6252 1.0899 5.3605-0.3668 2.0331-1.2576 3.8828-2.1431 4.454-0.3144 0.20961-0.4716 0.15721-0.59211 0.10485"/>
   <path d="m65.67 131.69c-1.3886 0.95891-2.5152 3.2173-2.9029 5.7121-0.47159 3.144 0.3668 6.7103 2.6409 7.2275 0.4192 0.10485 1.1109 0.10485 1.8654-0.41918 1.3152-0.90652 2.4418-3.144 2.7929-5.601 0.10473-0.73882 0.2096-1.5353 0.2096-2.3108 0-2.4418-0.64452-4.7317-2.4942-5.1037-0.70216-0.15719-1.4253 0.0367-2.0907 0.524"/>
   <path d="m65.865 142.65c-0.72311-0.15719-1.4986-2.3108-1.0899-4.9518 0.3144-2.2375 1.2943-3.8252 2.0488-4.3439 0.15719-0.10485 0.3668-0.20959 0.53448-0.20959 0.6445 0.10485 1.1109 2.4051 0.72311 5.1561-0.3144 2.0907-1.2366 3.7151-1.9388 4.2129-0.10485 0.10485-0.262 0.10485-0.262 0.10485"/>
  </g>
  <path d="m175.03 162.77c3.4584 3.4584 20.87 21.036 21.425 31.98 0.57116 10.961-35.769-1.3676-40.927-4.7526z" fill="#adb2b4"/>
  <path d="m162.63 185.46c-3.385-0.57115-6.858 1.7764-10.074 4.8417-7.7085 7.3569-17.968 14.178-33.644 17.45-27.118 5.6565 43.09 9.6494 47.896-13.069 8.3184 3.123 21.387 7.3752 27.026 3.7885 0.73882-0.4716 2.3684-1.5877 2.5152-3.4007-11.184 2.4209-28.671-8.7806-33.718-9.6122" fill="#838688"/>
  <path d="m177.22 166.8c10.463 12.403 17.468 20.556 17.524 27.322-0.0524 3.0863-2.2899 4.1972-8.5956 4.0295-7.1352-0.2096-19.539-4.5116-25.972-7.0058-2.7353-1.0532-3.6418 0.4192-0.88555 1.9388 6.7842 3.6627 20.093 7.4496 27.155 7.7268 7.4496 0.3144 11.516-1.0166 11.664-6.2848-0.0524-6.8397-8.5589-19.743-18.744-29.374-2.9396-2.7719-4.564-1.2209-2.1431 1.6454" fill="#0f141b"/>
 </g>
</svg>
