<?xml version="1.0" encoding="UTF-8"?>
<!-- Created with Inkscape (http://www.inkscape.org/) -->
<svg version="1.1" viewBox="0 0 414.6 301.55" xmlns="http://www.w3.org/2000/svg">
 <g fill="#fff" stroke-width="1.1314">
  <path d="m228.4 299.36c4.9849-0.7018 2.9869-11.804 0.27607-23.081-3.6651 1.3146-7.4117 2.5108-11.225 3.5734 4.4147 10.189 7.1523 20.042 10.947 19.508"/>
  <path d="m242.79 293.63c3.5461-0.49924 1.6912-11.415-2.9555-21.915-3.5475 1.6422-7.275 3.1538-11.111 4.5444 5.2592 5.3042 10.443 17.883 14.081 17.371"/>
  <path d="m118.07 97.775c3.6189-24.078-38.014-58.025-68.292-33.286-26.986-16.792-61.953 37.605-41.38 72.295-10.902 13.834-2.0389 35.628 5.9511 38.581-6.2542 28.136 17.771 48.461 32.231 51.28 3.0067 25.045 30.508 32.695 44.432 24.71 7.9448 9.7383 18.193 7.8605 22.314 4.9209-16.163-15.727-28.946-37.061-22.163-65.18 5.3887-22.243 18.413-31.086 27.105-44.998 5.6286-8.9919 12.312-16.667 19.683-22.881-0.12004-11.275-8.5528-23.165-19.913-25.437"/>
 </g>
 <g stroke-width="1.1314">
  <path d="m310.02 268.22c-0.72806-0.55975-33.823-22.403-39.657-25.612-3.1055 9.3469-12.253 17.895-24.553 24.734 2.8666 4.0828 36.364 7.7531 43.344 3.4718 9.0221 1.9371 17.029 2.6862 20.37 2.0082 1.8474-0.38993 3.0611-2.5151 0.494-4.6079" fill="#00b8ee"/>
  <path d="m361.68 84.216c-3.2056-20.003-30.173-30.475-49.788-14.108 18.741 2.4712 37.222 8.96 53.355 20.409-17.563-5.1776-40.797-7.5186-64.227-6.8537-1.3489 2.4558-2.5763 5.1283-3.6804 8.0307-34.31 3.9149-56.841 47.077-42.134 81.905-17.512 15.521-11.031 47.248 10.487 55.12 0.61808 13.014 12.588 19.62 24.691 19.36 4.0526 26.48 40.46 20.735 49.019 2.6267 43.848 2.9885 66.149-47.334 53.435-69.64 32.548-30.258 20.426-107.41-31.157-96.851" fill="#fff"/>
  <path d="m206.27 102.5c3.8631-40.237-32.058-99.335-95.039-101.26 33.766 13.707 88.82 60.011 86.769 105.14 1.9604 0.41222 9.9084 2.8642 11.856 3.6871 29.569-30.434 114.21-31.7 155.38-19.564-53.204-37.723-126.36-24.469-158.96 11.981" fill="#00b8ee"/>
  <path d="m265.68 228.71c-17.651-4.6607-30.513-36.955-10.487-55.12-2.3173-3.2707-5.2224-14.313-5.5148-18.189-18.362-52.821-73.48-64.278-111.7-32.19-7.3709 6.2124-14.055 13.889-19.683 22.881-8.6918 13.912-21.717 22.755-27.082 44.995-11.626 48.064 32.204 80.533 66.891 89.713 49.367 13.068 106.78-16.111 112.74-39.852-2.6677-2.6695-4.9074-7.3716-5.1575-12.238" fill="#00b8ee"/>
 </g>
 <g fill="#fff" stroke-width="1.1314">
  <path d="m132.73 296.58c3.6272 1.184 13.644-10.785 24.409-15.667-4.7124-1.4207-9.2282-3.2391-13.448-5.07-7.6442 3.6212-15.596 19.214-10.96 20.737"/>
  <path d="m132.94 270.64c-4.8796 3.8943-10.618 11.458-11.89 17.066-0.40897 1.7067-0.68402 3.2581 0.0159 3.8024 0.72628 0.54702 1.8135 0.19917 3.2174-0.71266 3.4905-2.2314 9.4773-7.3594 13.623-9.6369 1.3923-1.501 4.0103-3.8888 5.7591-5.2972-3.7064-1.6078-7.4092-3.3328-10.745-5.2214"/>
  <path d="m160.86 180.99c-5.1319-2.6017-10.816-8.0052-13.697-15.295-0.3804 8.6887 8.3912 22.663 15.622 24.577 10.015 2.6414 28.385-5.6454 35.008-16.678-7.0464 6.4004-33.038 9.3714-36.933 7.4006"/>
  <path d="m182 128.2c-16.882-2.9343-36.501 15.194-36.711 27.203-0.17488 10.148 5.3981 20.449 15.579 25.568 7.3508 3.7307 36.519-3.6741 38.52-9.6369 5.8055-17.331-3.0878-40.656-17.387-43.132"/>
 </g>
 <g stroke-width="1.1314">
  <path d="m230.56 284.97c-0.51901-2.7641-1.1949-5.7206-1.8857-8.6904-3.6395 1.311-7.3887 2.5076-11.201 3.5701 0.981 2.2641 2.843 5.8976 3.6942 8.0236 2.1521-3.5752 6.1112-5.2363 9.3948-2.9004" fill="#dcdddd"/>
  <path d="m228.71 276.27c2.0797 2.09 3.6368 4.5262 5.6137 7.6384 1.3157-4.4898 5.6828-6.0006 8.6806-3.5789-0.90726-3.216-1.8694-5.8074-3.1621-8.625-3.573 1.6458-7.2937 3.1824-11.131 4.5666" fill="#dcdddd"/>
  <path d="m206.27 102.5c1.3916-14.373-2.3454-31.14-10.539-46.867 3.4469 10.326-0.11469 17.263-5.9106 16.751 5.5404 11.038 8.6968 22.574 8.1768 34.007 1.9604 0.41222 9.9091 2.8641 11.857 3.687 10.224-10.51 26.986-17.541 46.274-21.746-7.4147-0.60524-25.888 1.7424-20.866-7.3239-11.391 5.6357-21.314 12.919-28.995 21.49" fill="#00a0cf"/>
  <path d="m265.63 228.33c-2.7141-0.87751-10.216-4.8854-13.651-10.08-22.311 21.304-52.306 31.94-84.666 33.267-22.821 0.92102-59.72-3.7999-75.14-25.633 9.293 28.1 39.263 47.862 65.932 54.919 49.367 13.068 106.78-16.111 112.74-39.853-3.5425-3.5332-4.8797-6.2068-5.2111-12.619" fill="#00a0cf"/>
 </g>
 <g fill="#dcdddd" stroke-width="1.1314">
  <path d="m143.69 275.85c-1.7486 1.4148-4.8133 4.3654-5.0875 4.6768 3.5947 1.9676 6.0226 6.0232 1.5101 12.109 3.6372-2.8039 13.503-10.65 17.036-11.743-4.6833-1.3988-9.2246-3.2137-13.445-5.0471"/>
  <path d="m132.94 270.64c-0.7979 0.69666-3.571 3.7815-3.7086 4.4177 2.025 2.1626 5.1156 5.8989 0.80402 11.568 3.6694-2.5748 10.358-8.1008 13.647-10.762-3.7064-1.6078-7.4092-3.3328-10.744-5.2214"/>
  <path d="m411.63 136.84c-3.9459 16.245-18.646 33.18-30.554 32.863 1.5961 22.405-9.9084 36.507-30.518 32.469 1.9e-4 -3.2269-0.95719-7.7212-1.9294-9.5542-2.0334 16.778-20.184 28.93-35.933 26.061-2.4965 15.148-24.888 20.408-39.029 10.741-1.4568 0.0752-6.895-0.49662-8.0545-1.0865 0.4923 14.887 14.708 19.872 24.769 19.76 4.0526 26.48 40.46 20.736 49.016 2.6051 43.826 2.9916 66.126-47.331 53.438-69.617 8.4646-7.8797 18.776-29.487 18.783-44.239"/>
  <path d="m59.252 197.89c0.01425 1.4848-0.82188 7.6744 0.38919 12.68-4.3049 5.7157-34.445 7.8296-46.222-24.414 0.9404 22.451 20.656 38.045 33.187 40.495 3.0068 25.047 30.53 32.693 44.432 24.712 7.967 9.7346 18.193 7.8599 22.314 4.9209-11.435-11.103-20.732-21.177-23.055-38.326-6.5602 4.9749-24.14 4.7295-31.043-20.069"/>
 </g>
 <path d="m309.61 268.15c-0.66441-0.5687-33.555-21.959-39.412-25.166-3.0252 8.4423-12.5 17.449-24.8 24.288 2.8666 4.0828 36.364 7.7531 43.344 3.4718 9.0221 1.9371 17.029 2.6862 20.37 2.0082 1.8474-0.38994 3.061-2.5151 0.49489-4.6015" fill="#00a0cf" stroke-width="1.1314"/>
 <g fill="#0f141b" stroke-width="1.1314">
  <path d="m269.43 241.12c-5.9394 21.587-62.388 51.271-110.99 38.415-39.445-10.434-75.872-47.106-65.961-88.15 3.6199-14.963 10.806-23.784 17.762-32.299 3.1446-3.8579 6.4054-7.8644 9.1727-12.285 19.849-31.792 53.629-46.946 84.025-37.666 21.99 6.6845 37.232 23.022 45.273 48.574 0.22861 0.70148 0.98981-6.8046-1e-3 -9.2765-8.8468-22.025-23.949-35.566-44.506-41.833-31.562-9.5969-65.199 4.459-85.685 37.258-2.6937 4.2943-7.0797 9.5864-10.321 13.569-7.1286 8.7454-16.178 18.655-19.943 34.21-8.4429 34.881 17.14 77.661 68.742 91.308 49.626 13.123 108.51-15.861 116.48-39.097 0.17398-0.60882-3.8829-3.3229-4.046-2.7286"/>
  <path d="m269.01 230.02c-30.334-2.9899-36.829-52.374-4.8813-62.987 5.0305-1.6691 5.4565-0.11894 0.75218 2.1145-28.029 13.222-19.806 54.712 4.8214 58.826 6.1898 1.0309 5.3636 2.634-0.69879 2.0462"/>
  <path d="m299.53 91.241c-37.431-0.84626-63.575 49.674-45.387 84.013 0.75592-0.62583 1.2649-1.8986 2.0517-2.4899-14.875-35.538 9.9563-76.024 43.48-79.828 6.1042-0.72954 6.1059-1.5478-0.17389-1.6961"/>
  <path d="m298.4 84.452c-0.98562 2.2684-1.8825 4.7059-2.639 7.3114-0.22691 0.69419 2.7495 0.48292 2.8134 0.29212 1.085-2.8537 2.3251-5.437 3.6356-7.8413-1.2785 0.05014-2.5506 0.09939-3.8201 0.2132"/>
  <path d="m309.77 68.706c1.8034 0.26551 3.6534 0.4011 5.4741 0.65119 19.064-13.288 43.629-3.2792 45.408 16.351 0.45073 5.0462 2.7496 3.5734 2.1784-1.2676-2.8108-23.654-33.279-32.855-53.062-15.731"/>
  <path d="m392.07 179.99c32.661-30.595 16.076-105.45-29.643-93.903-0.71044 0.16492-1.3346-2.3312-0.61855-2.5489 50.837-15.037 72.079 64.91 31.471 98.914-0.23673 0.16318-1.3728-2.2804-1.1979-2.4674"/>
  <path d="m391.73 181.71c10.173 17.922-6.2933 70.813-52.225 67.659-0.78189-0.0198-0.97083 0.11394-1.2881 0.76568-8.5722 18.179-42.068 21.2-46.353-1.2614-0.16167-0.82128-2.8032-0.86496-2.719-0.26646 3.8219 27.474 40.547 24.937 50.683 2.8969 50.126 6.7536 66.761-48.2 54.401-69.937-2.2178-3.9015-4.694-3.7346-2.506 0.0931"/>
  <path d="m313.15 238.08c-0.72836 0.0376 0.94485-3.204 1.6804-3.1907 13.947-0.0157 32.065-12.531 34.429-28.279 0.78161-5.1937 2.5265-3.0372 1.663 2.2201-2.0295 12.425-15.006 29.254-37.774 29.253"/>
  <path d="m266.67 228.04c0.86026 23.173 41.197 24.022 47.957 4.0364 1.4653-4.2576 3.0871-2.7914 1.6566 1.3445-8.0836 23.264-51.359 22.874-52.715-5.7938-0.0308-0.38521 3.0931 0.019 3.1024 0.40727"/>
  <path d="m136.64 124.56c-0.0467 0.5909 3.5074-3.4024 3.5111-4.3444-0.73781-14.372-15.114-28.29-31.738-22.399-3.5148 1.2285-4.3156 3.3344-0.80703 2.0614 13.635-4.8282 29.825 9.1319 29.036 24.68"/>
  <path d="m116.78 97.248c-0.0323 0.69277 2.3287 1.2303 2.5196 0.83337 6.4295-27.864-46.148-64.393-72.76-31.511-3.553 4.3698-3.6473 6.4672 0.22043 2.4881 29.555-30.524 73.07 5.0808 70.025 28.186"/>
  <path d="m9.8112 140.26c-30.226-39.469 16.848-96.051 40.714-77.514 0.58102 0.4376-2.1251 2.7989-2.6951 2.3467-21.37-16.597-61.215 40.409-35.554 75.116 2.7175 3.6688 0.16838 3.5018-2.4704 0.0232"/>
  <path d="m49.324 227.46c-18.605 1.9116-44.022-21.471-36.453-51.328-9.2955-4.6905-18.31-26.098-5.3889-40.583 0.51023-0.52631 2.2028 2.7804 1.808 3.3878-9.2469 14.036-1.1157 32.75 5.5373 35.181 0.95027 0.38563 1.0675 0.43405 0.8643 1.5274-6.2151 27.925 21.219 51.479 35.493 50.041 4.8335-0.48571 3.086 1.2601-1.8348 1.7711"/>
  <path d="m90.722 253.02c-19.531 9.6443-44.405-1.7421-46.287-26.008-0.05669-0.72568 3.6694-0.77631 3.7234-0.0697 2.1506 21.64 29.791 30.369 42.234 23.257 0.86935-0.51195 0.97758-0.52719 1.6633 0.28522 6.832 8.3602 16.013 8.8084 19.956 4.2681 0.44657-0.51735 2.7665 2.4024 2.2734 2.9587-4.5878 5.3206-15.09 4.9163-23.573-4.7438"/>
  <path d="m93.857 228.52c-12.078 8.0891-33.185-3.7112-33.969-28.155-0.14765-5.1992-1.2318-3.2157-1.4852 1.9945-1.2697 27.275 24.67 37.113 36.842 29.857 0.3004-0.17214-1.0623-3.8563-1.3909-3.6997"/>
  <path d="m362.4 86.994c-53.655-34.911-122.84-21.644-154.8 12.564 1.6268-42.946-32.029-95.721-93.211-99.498-6.3337-0.39384-7.7981 1.2277-2.0789 3.7727 41.058 18.155 85.33 63.045 84.623 101.94 0.87882 0.20091 1.9742 0.37133 2.7844 0.27024 1.2486-43.031-47.854-86.598-81.291-103.01 53.641 5.6864 89.608 56.006 86.987 97.099-0.25516 3.86 0.10107 4.4072 2.9203 1.3743 30.557-32.36 99.867-44.225 149.5-14.29-48.305-11.065-123.28-3.7615-149.26 22.02 0.89674 0.32823 2.071 0.55247 2.9658 0.91348 25.97-24.27 103.19-31.523 149.48-19.467 6.7543 1.7759 7.3567 0.19784 1.3814-3.7005"/>
  <path d="m246.89 266.65m38.624 6.8853c-14.239 2.0047-39.761-1.457-41.153-6.1397-0.16134-0.68497 2.1213-1.3504 2.522-0.80955 2.2731 3.1405 37.961 6.5662 41.161 3.5959 0.34614-0.30844 2.5074 1.0689 2.0452 1.6599-0.63722 0.82337-2.3022 1.3564-4.5749 1.6764"/>
  <path d="m295.68 259.88c0.80903 0.53537-1.8042-4.3298-2.7866-4.99-7.8386-5.0774-16.398-10.403-21.96-13.468-0.49943-0.31923-1.6536 2.0897-1.0841 2.3991 6.4546 3.5582 17.144 10.322 25.83 16.061"/>
  <path d="m308.82 265.67c-0.65364-0.4923-4.2747 0.21226-3.7722 0.55381 2.3888 1.6569 4.9908 3.0761 4.7061 4.4666-0.16503 0.67249-1.1942 1.1096-3.7482 1.0471-8.6252-0.0907-27.347-3.7314-40.098-9.8612-1.2752-0.61906-1.966-0.77501-2.1763-0.65451-0.30039 0.17214 0.31737 0.87076 1.4749 1.7141 4.3606 3.1648 23.754 11.246 40.93 11.393 4.3123 0.0551 6.8144-1.2191 7.0851-3.0361 0.29782-2.0351-1.3523-3.426-4.4128-5.657"/>
  <path d="m227.52 277.64c1.1349 4.833 2.8719 12.605 2.4446 17.041-0.17676 1.9727-0.69986 3.0072-1.4031 3.2231-0.7906 0.24115-1.8036-0.59011-2.8113-2.2596-1.3256-2.2676-5.9962-13.814-7.108-16.316-0.29855-0.73708-2.9636 0.43997-2.63 1.1494 1.0833 2.4835 6.2342 14.674 7.8074 17.041 1.7159 2.5956 3.6593 4.179 5.2608 4.025 1.6706-0.17031 2.994-2.1615 3.3734-6.7987 0.32223-4.2136-0.37233-10.438-2.2176-18.058-0.11685-0.50294-2.8342 0.52887-2.7269 0.96826"/>
  <path d="m239.4 293.32c-1.6149-1.6944-8.6292-12.322-10.161-14.259-0.54963-0.67576-0.10735-4.4518 0.43977-3.886 2.2893 2.2878 9.6361 13.944 11.114 15.659 0.82363 0.96182 1.4343 1.5641 2.166 1.2273 0.66704-0.28868 0.76143-1.0941 0.72159-2.5299-0.10469-3.5107-1.757-10.174-5.0223-17.273-0.36221-0.7281 2.8156-1.63 3.1459-0.89737 1.6194 3.5247 4.401 14.52 4.4833 18.517 0.0671 3.2433-0.46924 4.968-2.4274 5.6786-1.6613 0.55853-3.166-0.85925-4.4599-2.2093"/>
  <path d="m154.93 280.45c-4.8624 2.2168-10.384 6.773-13.873 9.8098-5.0806 4.4031-7.5241 5.7794-8.3264 4.6328-0.6581-0.98512-0.36296-3.5004 1.8398-7.0846 1.9504-3.2093 5.9939-7.5319 10.279-10.93 0.4098-0.3174-2.8408-1.6387-3.1468-1.3685-3.9718 3.3315-7.595 7.7112-9.485 11.207-3.1724 5.9198-2.1477 9.6478-0.86269 10.612 2.3822 1.7942 6.5224-0.85337 11.4-5.0851 3.8355-3.3318 10.923-8.4783 16.034-10.732 0.24568-0.0995-3.5827-1.1902-3.8566-1.0607"/>
  <path d="m120.05 286.31c1.3282-4.4007 5.6155-10.708 11.473-15.793 0.817-0.69935 3.1088 1.2829 2.2672 1.9467-5.9208 4.6382-10.625 11.734-11.674 15.02-0.4529 1.3948-0.57203 2.301-0.30466 2.7244 0.31739 0.40979 1.0215 0.24575 2.3617-0.65713 1.5452-1.0616 11.483-9.0604 14.244-10.274 0.73708-0.29855-2.0104 5.4122-5.3978 7.0382-1.8648 0.91179-5.7201 4.1036-7.7283 5.3018-3.1052 1.8786-4.9737 1.9338-5.6939 1.0613-0.77287-0.87806-0.45185-3.371 0.45479-6.3619"/>
  <path d="m162.44 192.1c-7.922-2.092-16.426-16.447-15.784-25.881 0.0296-0.71187 1.8098 1.1411 1.9523 2.1534 1.1866 8.1012 8.544 19.044 14.517 20.631 8.7293 2.2966 25.196-4.0666 32.283-13.913 0.55168-0.78536 4.2673-2.3862 3.9232-1.7404-7.8573 15.284-28.304 21.026-36.893 18.753"/>
  <path d="m161.45 179.81c2.6631 1.3456 20.23-0.12127 30.513-4.3607 3.4861-1.4322 5.6651-3.018 6.1678-4.5106 4.6981-13.968-2.494-39.021-16.348-41.445-17.347-2.9856-35.038 16.798-35.17 25.955-0.21118 11.505 7.543 20.697 14.837 24.365m-1.3712 3.1277c-7.9885-4.0304-16.876-15.1-16.662-27.728 0.20302-13.038 20.442-31.485 38.801-28.299 15.872 2.7582 24.655 27.565 18.843 44.851-3.1246 9.3496-36.769 13.285-40.983 11.178"/>
  <path d="m136.62 146.43c-3.2061-2.1132-3.1819-7.7976 0.0309-12.647 3.2286-4.876 8.4373-7.0961 11.643-4.9829 3.2097 2.1386 3.1819 7.7976-0.0278 12.67-3.2322 4.8506-8.44 7.077-11.647 4.9574"/>
 </g>
 <g stroke-width="1.1314">
  <path d="m142.6 137.61c-1.5681-1.0388-1.9291-3.2799-0.82914-4.967 1.1381-1.6925 3.3277-2.2345 4.8941-1.2084 1.5681 1.0388 1.9291 3.2799 0.82913 4.967-1.1381 1.6925-3.3277 2.2345-4.894 1.2084" fill="#fff"/>
  <path d="m216.26 169.04c-4.6715-0.94597-7.483-6.6195-6.2711-12.631 1.2179-6.0148 5.993-10.143 10.684-9.1999 4.6715 0.94597 7.4791 6.5966 6.2646 12.631-1.2179 6.0148-6.0153 10.146-10.684 9.2004" fill="#0f141b"/>
  <path d="m217.79 158.51c-2.2658-0.46012-3.7085-2.7762-3.2191-5.1564 0.48587-2.4057 2.712-3.9788 4.9778-3.5186 2.2658 0.46015 3.7085 2.7762 3.2191 5.1564-0.48586 2.4057-2.7121 3.9788-4.9778 3.5186" fill="#fff"/>
 </g>
</svg>
