<?xml version="1.0" encoding="UTF-8"?>
<!-- Created with Inkscape (http://www.inkscape.org/) -->
<svg version="1.1" viewBox="0 0 360.69 301.72" xmlns="http://www.w3.org/2000/svg">
 <g transform="translate(78.362 .46181)">
  <path d="m186.35 149.82c59.71-7.7239 96.774 28.791 94.009 72.087-2.0838 32.456-23.568 67.566-75.883 67.434-39.477-0.1244-55.212-31.556-55.212-41.584z" fill="#f9dad9"/>
  <path d="m182.05 161.18-32.785 86.57c0 10.05 15.735 41.496 55.234 41.584 24.862 0.0622 42.747-7.834 54.904-19.64 6.9339-10.972 10.489-23.59 11.279-35.857 2.6748-41.98-32.082-77.573-88.632-72.657" fill="#d7bdbc"/>
  <path d="m185.23 138.52c14.966-10.599 41.979-13.803 47.684 2.4819 5.1567 14.724-20.649 25.302-30.744 24.621 11.587 8.9313 16.414 26.246 9.59 31.907-6.825 5.6606-20.211 4.7213-26.465-11.103z" fill="#f9dad9"/>
  <path d="m230.94 148.67c-1.7541-17.358-30.152-13.474-45.71-3.7944l0.0622 41.541c5.0448 12.837 14.813 15.866 21.944 13.561 4.9577-1.5986 4.7213-14.637-1.4245-21.132-4.3232-4.5409-0.49765-8.4268 2.6996-6.649-1.779-2.4384-3.9064-4.6964-6.3417-6.5613 7.2194 0.49763 22.492-4.8084 28.703-13.233 0.12442-1.2068 0.18662-2.4384 0.0622-3.7322" fill="#d7bdbc"/>
  <path d="m-59.853 123.14c-4.0806-5.8783-9.809-7.3295-11.543-6.5613-1.1819 0.55984-0.72156 10.269-0.18661 12.442z" fill="#fff"/>
  <path d="m237.69 52.876c-0.24882-2.5877-53.566-15.997-97.652-10.467-13.802-21.878-43.405-45.227-79.591-41.211-14.22 1.58-27.233 9.1508-36.054 19.487-9.3263-5.6854-38.929-14.329-42.046-12.113-3.2284 2.3016 0 52.139 8.8 80.008-15.229 22.559-26.992 52.842-22.734 87.909 2.1958 18.06 8.3391 33.289 16.831 45.82 10.928 22.624 32.741 57.823 43.011 69.41 16.502 0.65935 35.484-7.0664 44.898-15.69 5.6855 7.8564 12.201 16.765 15.866 20.979 4.3481 5.0012 42.769 3.6016 55.913-18.368 3.6203-6.0773 4.037-14.703 10.205-25.346 6.1644-10.665 16.765-19.859 26.047-47.092 10.073-29.449 10.248-57.954 6.8026-70.485 16.854-11.806 50.099-78.143 49.704-82.84" fill="#f9dad9"/>
  <path d="m-1.5122 79.433c-8.2949-20.737-14.417-55.014-15.053-71.165-0.49763 0.043482-0.85841 0.12442-1.0761 0.31102-3.2284 2.3016-0.02246 52.139 8.7994 80.008-1.3809 2.0403-2.7245 4.1241-4.0184 6.2764z" fill="#d7bdbc"/>
  <path d="m-7.8035 113.18c0.49763-1.9532-2.2393-4.2983-6.2982-5.6854-1.692-0.55984-3.4648-1.0077-5.0261-1.2068-0.72156 1.4929-1.4494 3.0044-2.1274 4.5409 1.2938 0.9455 3.0045 1.7977 4.7835 2.4571 4.3667 1.5613 8.1854 1.6235 8.6681-0.12441" fill="#ed85ad"/>
  <path d="m80.437 136.41c-0.12441 1.9532-5.4864 2.4135-10.555 1.6484-4.6964-0.72157-10.182-2.2829-9.5017-4.7835 0.55984-2.0403 5.9903-2.2394 10.599-1.58 4.7213 0.67802 9.6335 2.37 9.4581 4.7213" fill="#ed85ad"/>
  <path d="m237.69 53.02v-0.12442c-0.12441-1.9097-29.822-9.8531-63.178-11.499-11.784 11.916-12.662 29.8-5.7912 42.484 22.997-16.019 50.998-31.227 68.971-30.832" fill="#524423"/>
  <path d="m10.996 14.86c-11.96-4.2361-26.509-7.8122-28.638-6.2758-1.7977 1.2752-1.6049 17.357 0.43544 36.186 3.0915-14.396 13.847-28.527 28.177-29.91" fill="#524423"/>
  <path d="m-16.574 8.2774c-0.43542 0.043482-0.85841 0.12442-1.0761 0.31102-1.7977 1.2752-1.6049 17.357 0.43542 36.186 0.79-3.6452 2.0652-7.2636 3.7758-10.687-1.779-10.138-2.8987-19.398-3.16-25.806" fill="#41361c"/>
  <path d="m-43.614 124.04c-10.072-0.24881-26.223-6.3641-28.9 5.7041-1.6235-0.0622-3.5519 0.1244-4.0806 0.78999-0.62204 0.72157 1.2503 7.768 6.254 9.6989 6.0338 9.6777 23.743 22.756 40.399 20.189l8.3609-42.44c-5.3744 5.2002-13.584 6.2758-22.032 6.0587" fill="#f9dad9"/>
  <g fill="#d7bdbc">
   <path d="m-66.352 139.15c-1.1383-1.2752-2.1274-2.7868-3.4212-3.2471-2.4135-0.83354-5.8783-3.838-6.0587-6.208-0.0442 0.0435-0.72156 0.83354-0.76511 0.85842-0.55984 0.72156 1.2503 7.768 6.254 9.6995 5.7477 9.2162 22.142 21.549 38.095 20.43l0.72156-14.637c-12.903 3.2284-30.041-1.5364-34.826-6.8903"/>
   <path d="m16.546 67.82c3.6203 11.587 27.518 27.892 47.794 16.13 21.923-12.728 17.38-31.424 11.038-44.108l-4.9141-2.1274c5.6606 8.7123-1.3809 26.399-12.508 32.324-14.242 7.5932-32.258 3.6887-39.456-3.5083z"/>
   <path d="m37.299 52.071c-6.9569-5.0012-4.9577-18.411 2.8738-23.809 8.6022-5.9218 19.816-6.3199 30.196 5.6606-7.044-5.1132-19.772-4.8519-26.575-0.37323-5.3744 3.5083-9.6553 8.7994-6.4953 18.521"/>
   <path d="m113.58 238.2c-36.318 15.229-102.02 12.859-132.13-21.944 0.81487 2.2829 3.3777 6.4076 6.7367 10.84 7.22 18.346 33.553 56.507 38.271 65.087 21.154-0.12441 37.722-7.9434 46.697-16.172 5.6855 7.8558 12.179 16.765 15.843 21 4.3481 5.0012 42.791 3.6016 55.914-18.367 3.6452-6.0773 4.0371-14.703 10.204-25.367 6.1644-10.643 16.766-19.838 26.07-47.07 10.05-29.449 10.226-57.977 6.8026-70.506 4.0806-2.8552 9.1502-8.9537 14.461-16.59l-29.274-4.7399c4.6093 33.114-2.482 99.89-59.6 123.83"/>
  </g>
  <path d="m17.244 277.32c-3.4212 1.2316-6.8244 9.348-5.5735 11.85 1.4494 2.8738 11.74 4.7213 21.308 2.5441 1.0326-8.405-11.587-15.888-15.734-14.395" fill="#fff"/>
  <path d="m32.976 291.72c0.37323-3.247-1.2503-6.3635-3.6452-8.8653-4.2112 3.4648-10.379 6.208-16.765 7.3077 3.0293 2.2829 12.004 3.4648 20.408 1.5551" fill="#dcdddd"/>
  <path d="m81.525 286.96c-2.1274 1.2068-4.4538 7.8122-3.7758 10.204 0.72157 2.6126 14.484 3.5332 27.518 1.9097-2.8116-12.728-18.85-14.922-23.744-12.113" fill="#fff"/>
  <path d="m105.27 299.06c-1.0512-4.74-3.9313-8.0094-7.373-10.116-4.4351 4.6964-11.192 8.4921-18.675 9.414 3.9935 1.6484 15.251 2.0652 26.048 0.7029" fill="#dcdddd"/>
  <path d="m168.72 83.853c-10.819 7.5273-20.518 15.229-27.562 21.571 17.226 0.81487 46.675 14.9 46.829 30.283 16.721-11.696 49.528-77.002 49.704-82.686-17.973-0.37323-45.973 14.813-68.971 30.831" fill="#0f141b"/>
  <path d="m-71.387 116.58c-0.90196 0.37322-0.85841 5.9716-0.55983 9.6329l10.862-4.6529c-3.9251-4.5409-8.7335-5.6854-10.292-4.9826" fill="#fff"/>
  <path d="m-71.104 116.49c-0.1244 0.0223-0.18661 0.0442-0.31102 0.0622-0.90196 0.43542-0.85841 5.9716-0.55984 9.6335l5.2438-2.2393c-2.0652-2.4384-3.5332-5.2873-4.3916-7.4825" fill="#dcdddd"/>
  <path d="m16.377 86.324c1.9097 0.49763 2.4819 4.0371-0.43544 12.179-2.2829 6.4294-5.0261 10.731-7.5708 9.7648-1.8848-0.72158-1.779-5.7041 0.43542-12.113 2.2829-6.6272 5.2003-10.445 7.5709-9.8307" fill="#0f141b"/>
  <path d="m12.795 92.218c-0.67802 1.8661-1.0761 4.5222-0.24882 4.8084 0.94551 0.31103 2.3264-2.1523 3.048-4.0619 0.74644-1.9097 1.1383-4.2983 0.18661-4.628-0.94551-0.37323-2.2829 1.9719-2.9858 3.8815" fill="#fff"/>
  <path d="m64.18 99.561c2.8738 0.74646 1.8226 5.9903-0.67802 13.233-2.3513 6.7802-5.617 10.862-7.9217 10.006-2.0403-0.74646-1.3187-7.044 1.0326-13.057 2.6997-6.8686 5.2873-10.774 7.5709-10.182" fill="#0f141b"/>
  <path d="m60.364 105.58c-0.67804 1.9532-1.0948 4.5658-0.12442 4.8706 1.0761 0.37323 2.4819-1.9097 3.2284-3.9313 0.74644-2.0154 1.2316-4.5222 0.24881-4.8706-1.0512-0.37322-2.6312 1.9097-3.3341 3.9313" fill="#fff"/>
  <g fill="#0f141b">
   <path d="m2.1069 109.67c-5.0447-3.6203-4.6715-12.135-0.98904-17.27 1.2938-1.7977 2.6312-0.96416 1.5116 0.96416-2.5877 4.4974-2.9423 11.564 0.63448 15.01 1.8848 1.8226 0.65936 2.6126-1.1632 1.2938"/>
   <path d="m60.307-0.030616c-31.446 3.4896-57.45 34.189-47.289 62.387 5.1132 14.176 26.947 25.873 47.048 16.941 17.226-7.6586 21.067-24.051 17.27-35.923-3.3155-10.358-15.8-16.743-27.321-14.154-11.126 2.5255-17.599 12.333-14.044 20.891 1.4929 3.5767 2.7619 2.8738 1.7542-0.87707-2.1958-8.0094 4.6529-15.405 12.903-17.248 10.314-2.3451 20.606 3.3777 23.524 12.552 3.5767 11.191-0.63448 25.938-15.119 32.39-19.838 8.7994-39.105-5.9218-42.66-15.778-9.0414-25.082 14.176-55.387 44.195-58.723 34.123-3.7758 62.914 17.402 77.419 40.004l3.9064-0.43542c-14.724-23.634-45.951-45.951-81.588-42.001"/>
   <path d="m125.25 44.173c-3.4212 1.0512-3.0729 2.569 0.43542 1.8661 50.889-10.358 110.05 5.7725 110.73 7.2853 0.83354 1.8661-31.995 68.203-49.287 80.316l2.482 3.4896c17.512-13.408 49.704-79.68 49.309-84.354-0.43542-5.1132-68.531-22.537-113.67-8.6022"/>
   <path d="m-29.719 176.36c-5.8347-48.079 18.763-90.015 45.095-114.04l-0.96416-2.4571c-27.057 24.336-53.807 67.325-47.795 116.79 7.8558 64.692 64.077 92.254 100.46 91.135l-1.6484-2.4384c-32.851 0.24882-87.689-27.584-95.15-88.984"/>
   <path d="m-9.5719 229.85-8.2072-11.148c7.4832 16.458 22.098 42.199 33.948 59.557l2.9609-1.4245c-9.195-13.408-20.716-31.71-28.703-46.983"/>
   <path d="m72.192 274.86c-8.1637 7.4832-23.941 14.791-39.105 15.581l-0.67802 2.482c13.605-0.65937 31.6-6.4083 41.562-15.558z"/>
   <path d="m17.665 278.49c-2.8738 1.0326-5.2003 8.5363-4.3667 10.182 0.92062 1.8661 8.7776 3.9748 18.126 2.1087-0.02174-6.9345-10.599-13.43-13.759-12.289m6.5613 15.427c-6.5831 0-12.684-1.6049-13.978-4.2112-1.6484-3.2906 2.4819-12.069 6.5831-13.54 4.827-1.7542 18.916 5.9032 17.709 15.669-0.06222 0.63448-0.31102 0.92062-0.96416 1.0512-2.9423 0.67802-6.3859 1.0326-9.3486 1.0326"/>
   <path d="m79.478 296.87c-0.55984-1.1632 0.79-7.768 2.6561-8.8436 3.5083-1.9967 18.082-0.96416 21.571 9.9632-13.562 1.5364-23.546 0.31102-24.227-1.1197m27.803 1.8412c-2.8303-12.816-19.662-16.678-26.377-12.838-2.6996 1.5551-5.7476 8.9313-4.9577 11.696 1.2316 4.3481 21.747 4.1055 30.481 3.0045 1.0077-0.12442 1.0326-1.0761 0.85842-1.8661"/>
   <path d="m64.455 262.45c-3.4212-4.0806-4.3232-3.4461-1.5116 1.0948 1.0077 1.6671 10.226 15.251 17.314 24.995l2.8552-1.8412c-7.0882-9.4581-17.138-22.427-18.653-24.248"/>
   <path d="m144.9 104.4c22.27-19.418 67.271-50.508 92.481-50.157l-0.43542-2.4571c-14.108 0.04348-32.801 8.93-46.756 16.938-20.558 11.804-39.801 26.11-50.42 35.654-1.3187 1.2068-1.1632 2.0652 0.76511 2.1709 16.741 0.76511 43.575 13.714 46.12 27.558 2.0838 11.365 3.0729 40.24-7.1311 71.198-8.0082 24.223-24.003 44.233-25.736 47.239-6.1893 10.685-6.407 18.584-10.312 25.122-7.8116 13.099-25.211 18.584-38.002 19.835l-0.0622 3.1164c14.174-1.1383 32.693-7.1746 41.052-21.195 4.1055-6.8456 3.9064-14.745 10.093-25.452 1.6671-2.8987 18.386-22.621 27.075-47.458 10.707-30.542 8.5132-59.285 6.3193-71.374-2.6126-14.393-27.163-28.655-45.023-30.739"/>
   <path d="m176.03 41.606-3.2719-0.1866c-11.828 12.815-12.048 30.107-5.2003 42.901l2.1087-1.2752c-6.2322-11.806-5.2003-30.349 6.3635-41.431"/>
   <path d="m234.68 140.36c-4.6715-14.791-29.011-15.405-44.174-6.0587l-1.1632 3.2906c12.575-7.6368 37.042-10.797 41.716 3.9748 3.7944 12.025-17.248 23.612-28.812 22.822-1.779-0.0622-2.1087 1.1632-0.90197 2.1523 9.5894 7.7239 15.514 24.446 9.2821 29.625-7.4172 6.1458-18.477 2.8116-23.7-9.1073l-1.0761 3.4648c6.8903 12.728 19.662 14.373 26.992 8.2949 7.8999-6.5613 2.4135-23.151-7.7463-32.038 13.781-1.3187 34.233-11.74 29.581-26.421"/>
   <path d="m231.25 151.55-3.0293 2.1087c33.289 9.6112 52.315 37.305 50.34 68.093-1.9968 31.271-22.734 66.074-74.15 66.074-28.264-0.0622-45.995-16.941-51.13-29.757l-1.9097 4.0619c6.0587 13.189 25.126 28.659 53.171 28.725 51.042 0 75.291-32.061 77.639-68.905 2.0403-31.951-16.897-60.237-50.933-70.397"/>
   <path d="m214.64 184.38 0.55984 2.6748c16.985 4.149 28.593 17.753 25.324 37.173-2.6126 15.603-18.499 30.898-38.49 27.365-11.85-2.1087-13.562-17.249-5.8347-24.38 3.048-2.8303 2.0652-3.9935-1.2503-1.4494-10.27 7.834-8.9537 25.499 6.6708 28.264 22.361 3.9251 39.521-11.258 42.506-29.033 3.6203-21.439-10.379-36.427-29.471-40.619"/>
   <path d="m-43.614 122.49c-10.884-0.31102-26.925-5.9467-30.02 6.7367l2.4384 0.37322c2.6996-10.379 18.85-4.3232 27.343-4.1055 5.2003 0.1244 12.201 0.1244 18.016-2.6997l1.4929-4.6529c-4.2983 3.0044-10.599 4.5409-19.267 4.3232"/>
   <path d="m-71.894 115.45c-2.0652 0.92062-1.3623 10.95-0.9455 13.32l2.3264-3.3777c-0.49763-3.4648-0.67802-7.2629-0.1244-7.7463 0.37323-0.31103 4.7213-0.0217 8.8435 5.0012l3.16-0.63448c-3.2906-4.6093-10.775-7.6803-13.276-6.5613"/>
   <path d="m-70.564 138.79c-3.7944-1.9532-4.939-6.978-4.7399-7.439 0.24881-0.55984 2.0403-0.55984 3.6016-0.63448 4.4974-0.24881 4.4351-1.6671-0.0442-2.1523-1.8412-0.18661-5.2003-0.49763-6.3635 0.96416-1.0077 1.2503 0.94551 8.7117 6.9339 11.696 6.6714 10.84 23.349 21.681 37.92 21.286l-0.04348-3.4026c-14.483 0.55984-29.559-9.9626-35.506-18.784-0.49763-0.76511-0.87708-1.0948-1.7542-1.5364"/>
   <path d="m22.539 21.755 2.5877-2.7432c-9.8314-5.6419-39.5-14.286-43.494-11.433-4.6093 3.2906-0.43544 56.595 7.7463 82.686l3.0293-4.5409c-9.0407-29.888-11.543-74.193-9.2821-76.168 1.9532-1.692 29.251 6.4518 39.412 12.201"/>
   <path d="m8.5624 13.939c-12.618 2.3949-21.659 12.64-25.982 27.496l0.79 7.615c1.2938-14.373 13.32-34.145 31.337-33.026z"/>
   <path d="m48.494 125.29c-6.3417-2.2394-6.7585-11.915-2.3513-18.762 1.58-2.4384 2.7867-1.8848 1.4929 0.70289-3.3341 6.6932-2.6997 13.957 1.468 16.217 2.569 1.3809 1.6235 2.6312-0.62204 1.8412"/>
   <path d="m30.583 127.48c-3.8815-0.49763-7.3513-4.3916-10.862-5.7725-2.37-0.94551-4.0619-0.77133-5.7477-0.94551-3.048-0.31101-4.4538-2.0216-4.8706-3.6203-0.63448-2.37 0.79-2.4135 1.6671-0.62205 0.62204 1.2938 1.58 1.8412 3.2906 2.0652 1.7977 0.24882 4.2361-0.0217 6.649 0.80864 3.048 1.0761 6.5613 5.0448 10.116 5.6419 1.8412 0.31102 3.2719 0.18662 5.0448-0.31102 2.1709-0.62204 2.6126 0.90196 0.62204 1.7977-1.9097 0.87708-4.1677 1.1383-5.9032 0.92063"/>
  </g>
  <path d="m187.64 202.5c2.1958 1.1632 10.511 5.2687 10.424 7.22-0.0622 1.9532-6.8026 5.2251-17.16 5.5735z" fill="#dcdddd"/>
  <path d="m143.99 164.07c24.599 9.4581 49.769 28.045 44.656 42.594-9.2168 26.157-62.124 8.4927-77.99-10.029-12.069-14.11 11.938-40.794 33.333-32.565" fill="#f9dad9"/>
  <path d="m110.67 196.63c15.843 18.521 68.751 36.208 77.968 10.029 2.0652-5.8161-0.74644-12.289-6.4076-18.543 1.7542 35.791-60.018 15.427-73.075 6.2982 0.43542 0.77133 0.90195 1.5116 1.5116 2.2145" fill="#d7bdbc"/>
  <path d="m181.08 189.21c4.4538-3.2906 13.123-3.9748 14.9-0.9455 1.5551 2.6748-0.24882 7.8781-6.3859 12.18-0.62204 0.43542-4.7835 0.1244-7.1317-2.9174-2.9423-3.8193-1.6484-8.1195-1.3809-8.3173" fill="#fff"/>
  <path d="m181.91 196.73c0.1244 0.24881 0.37323 0.49763 0.55984 0.80865 2.37 3.0729 6.5171 3.3341 7.1317 2.8987 6.1458-4.2796 7.9441-9.4799 6.3859-12.157-0.1244-0.24882-0.31102-0.43544-0.55983-0.63448-3.4461 4.4974-8.9536 7.5708-13.518 9.0849" fill="#dcdddd"/>
  <g fill="#0f141b">
   <path d="m143.57 162.78c-3.6638-1.1881-4.4538 0.49763-0.85841 1.9283 15.317 6.0773 30.371 15.295 38.534 24.621l2.7868-1.3809c-8.5363-9.9626-23.897-19.815-40.465-25.17"/>
   <path d="m187.32 200.21c0.37321 1.9968 0.31102 3.95-0.37323 5.8161-8.953 25.39-62.607 5.6419-76.3-10.928-2.5255-3.0729-3.95-1.9097-1.5551 1.2938 15.536 20.737 71.275 38.6 81.062 10.774 0.76511-2.1958 0.90196-4.4787 0.49763-6.8244z"/>
   <path d="m167.02 210.98c3.1786-0.62205 6.7591-2.6561 7.1099-5.3122 0.18661-1.692-2.3948-3.5518-6.1458-4.3916-2.5255-0.55983-2.1709-2.0838 0.37323-1.7542 5.617 0.74644 8.6681 3.2284 8.229 6.473-0.55984 4.037-4.9826 6.5837-9.4358 6.8033-1.9967 0.0622-2.7183-1.3187-0.1244-1.8226"/>
   <path d="m188.79 199.02c-0.63448 0.24882-3.5332 0.12442-5.3558-2.2393-2.1522-2.7867-1.8661-5.7725-1.3374-6.496 1.1383-1.5364 10.972-4.5222 12.794-1.3809 1.9781 3.359-3.4648 9.0414-6.1022 10.117m8.2514-11.367c-2.0652-3.5083-11.96-3.4212-16.831 0.18662-2.0154 1.4929-0.7651 7.7898 1.2503 10.445 1.8412 2.37 7.3071 4.6529 8.953 3.4896 6.8904-4.8084 8.4921-10.906 6.6272-14.132"/>
   <path d="m199.3 209.78c0.0622-1.2752-2.482-4.4103-9.6553-8.1848l-0.18661 3.6016c5.3744 2.8738 7.3513 4.1677 7.3513 4.4974-0.0217 0.67802-4.6964 3.0293-12.508 3.838l-3.2284 3.4026c10.379-0.49763 18.104-4.3667 18.236-7.1541"/>
  </g>
 </g>
</svg>
