<?xml version="1.0" encoding="UTF-8"?>
<!-- Created with Inkscape (http://www.inkscape.org/) -->
<svg version="1.1" viewBox="0 0 292.48 319.79" xmlns="http://www.w3.org/2000/svg">
 <g transform="translate(32.307 11.676)">
  <path d="m172.63 110.8c0.74484 18.806 4.6554 42.455 8.0079 54.189 3.3525 11.732 8.0815 22.559 15.158 32.428 7.0764 9.869 21.931 34.463 28.23 45.409 1.2617-3.2484 2.5897-8.4583 2.3851-11.933 5.1077 3.7796 15.118 11.852 18.9 15.427 0.40902-4.0865-0.10225-12.362-1.1235-16.857 4.1888 1.5326 11.543 4.5962 14.916 7.1518-2.7584-5.0054-7.9684-12.362-15.632-19.718-7.6615-7.3564-26.052-25.438-33.815-37.084-18.611-27.916-25.843-54.047-27.992-82.548-2.1447 4.3934-4.991 9.5997-9.0345 13.536" fill="#e85377"/>
  <g fill="#c94768">
   <path d="m182.7 106.35c-3.1066 4.2965-5.0987 11.075-5.2692 16.025-0.58326 16.951 5.1597 46.027 15.375 62.1 6.8646 10.8 30.499 45.702 31.231 58.141-5.3051-8.9645-23.182-37.818-28.641-45.881-8.855-13.076-15.75-31.315-18.39-47.676-1.3622-8.4458-3.9501-28.742-4.0865-38.412 2.4516-2.8607 6.6745-8.0384 8.7186-13.487 0.13481 2.4533 0.76274 5.8471 1.0624 9.1906"/>
   <path d="m225.02 229.76c-1.4016-1.0391-0.682-3.5391 2.1787-2.1787 2.6472 1.2599 15.12 11.238 18.254 18.593-4.8366-4.3575-14.917-12.328-20.432-16.414"/>
   <path d="m242.18 228.74c-2.1644-0.65865-1.2437-2.78 0.682-2.3851 2.3151 0.47923 11.987 5.2459 15.937 9.808-3.6791-2.1106-11.918-5.9924-16.619-7.4228"/>
  </g>
  <g fill="#0f141b">
   <path d="m225.86 230.5c-0.2798 4.8385-0.61912 7.4659-2.089 10.511-6.398-12.105-22.904-37.785-31.407-50.944-12.579-19.467-18.078-55.766-18.614-80.344l-1.3694 1.4303c0.72865 24.564 5.4666 60.447 18.123 80.088 8.6576 13.431 25.63 39.851 32.609 52.157 0.59227 1.0445 1.2976 0.62452 1.7265-0.24775 1.6332-3.3381 2.22-6.9903 2.4282-11.547z"/>
   <path d="m243.12 229.05c1.2257 3.6791 1.9185 14.23 1.5416 15.581-3.7024-3.3704-12.724-11.547-18.693-15.124-1.2868-0.77169-1.8683-0.11141-0.71609 0.82918 4.9856 4.0775 15.348 13.121 19.377 16.732 1.1217 1.005 1.7121 1.1074 1.9454-0.75913 0.23147-1.8647-0.78248-12.055-1.809-16.628z"/>
   <path d="m180.8 98.486c4.9156 55.766 28.211 85.321 45.565 102.75 9.7308 9.7739 25.255 24.365 30.384 33.028-3.7473-2.2469-9.3773-4.7918-13.905-5.9206-1.4268-0.35357-1.7444 0.54022-0.36984 1.0624 5.49 2.0819 11.21 4.9228 16.289 7.9146 1.2957 0.76279 1.7642 0.41817 1.127-1.023-4.1547-9.397-21.545-26.012-31.886-36.4-17.333-17.41-41.283-47.66-46.019-103.64z"/>
  </g>
  <path d="m134.37 37.632c-18.525-6.267-37.085 0.78965-48.492 9.126-3.5427 2.5879-15.677 9.4382-21.522 10.217-2.0442 0.27116-3.7294 0.54556-5.7215-1.4986-12.584-12.916-22.638-19.77-36.373-25.485-19.781-8.2286-41.644-6.346-44.948-2.7118-2.7243 2.9971 15.522 20.702 28.189 24.788-17.299 2.1788-37.181 13.078-36.771 16.484 0.40917 3.4063 20.16 12.532 43.862 9.3988-11.034 8.3094-28.588 28.715-25.474 34.6 1.2276 2.3151 24.383-2.0442 34.463-9.2624-4.7667 9.8062-9.4921 31.296-5.3123 33.236 3.8155 1.7714 25.472-16.073 34.191-33.645 8.7186-17.572 11.034-30.65 12.26-40.456 6.1288 0.27268 16.481-2.9971 22.338-5.8578 5.8579-2.8607 27.653-14.302 49.447 2.7243 0.27268-5.0395 0.27268-15.529-0.13634-21.658" fill="#00aeeb"/>
  <path d="m146.76 148.1c-9.2642 10.215-30.704 25.443-54.896 33.509-11.441 3.8155-30.784 8.9914-29.558 30.104 1.2258 21.114 31.26 33.349 52.444 27.516 41.545-11.443 39.228-53.124 32.01-91.129m-19.139-27.039 6.0606-61.366c2.1788-11.307-1.1665-45.009-2.1787-52.852-0.40902-3.1676 2.4174-3.7257 4.0865-1.4303 2.4533 3.3722 14.828 28.512 17.981 33.713 2.0424 3.3722 4.8008 7.9684 9.2965 10.727 4.4956 2.7584 17.744 9.4293 21.351 25.03 1.5363 6.6368 0.5797 15.025-2.0656 21.54-4.2498 10.467-9.6052 16.364-13.973 16.667 1.328 13.282 5.6873 32.285 15.632 53.534 9.9426 21.249 28.676 57.272 23.701 79.074-7.1285 31.242-26.481 57.94-89.289 60.888-45 2.1123-104.47-22.103-109.52-81.935-1.8575-22.035 4.8187-39.684 15.98-51.278 13.365-13.885 31.328-19.454 45.522-23.096 17.59-4.51 31.269-8.1281 48.857-18.627z" fill="#fff1ac"/>
  <path d="m175.35 83.946c-1.1827-6.5021-0.49194-16.994 2.0675-22.906 1.0355 1.5757 2.8087 4.0883 3.7455 6.0589-1.4788 3.5965-5.4182 13.448-5.813 16.847" fill="#e85377"/>
  <path d="m138.39 113.19c-11.091 15.96-31.775 26.933-52.993 32.959-16.938 4.8151-43.41 8.3812-62.137 28.839l14.869-0.38765c-0.61199 7.3546 2.0441 21.658 3.4745 28.81 8.9896-3.0654 14.914-4.7003 24.11-6.7444 4.2229-7.15 16.344-11.237 23.837-14.234 7.491-2.9954 35.009-11.443 57.211-34.325-1.4985-8.4458-5.9781-27.742-8.3704-34.917" fill="#00aeeb"/>
  <g fill="#e85377">
   <path d="m122.89 130.76-12.854 7.247-5.953 22.514 15.269 6.2975s9.921-6.0391 10.093-6.2975c0.17246-0.25843 3.5355-17.943 3.5355-17.943z"/>
   <path d="m23.8 174.88 14.508-0.90992 26.305-9.5083 3.5984-13.367c-11.938 2.1357-32.071 8.6306-44.411 23.785"/>
   <path d="m98.014 40.113 2.0154 2.0154c4.6626-0.80583 13.394-0.94761 19.149 0.1455 3.1676-1.4394 9.2696-3.1658 13.474-3.6271l0.0555-1.5542c-11.341-3.1084-22.547-2.3924-34.695 3.0204"/>
   <path d="m45.349 53.91c0.341-2.6561-5.5169-10.625-16.687-14.916-11.17-4.2911-21.863-4.8367-23.701-1.1576-1.8396 3.6773 4.8349 10.829 9.6034 13.076 7.5592-0.61378 17.981-0.81661 30.784 2.9971"/>
   <path d="m44.599 63.104c1.1576-1.4304 1.4178-4.1026-1.9742-5.7896-4.8618-2.4157-12.6-2.9954-20.093-2.1787-9.1996 1.0032-21.201 6.267-20.061 11.335 0.74838 3.3381 7.1213 6.6457 18.903 5.7592 5.2441-2.929 15.598-7.2864 23.225-9.126"/>
   <path d="m47.733 69.779c-0.13639-2.1787-1.2258-3.6773-5.3805-2.9289-4.1547 0.75017-13.349 4.4957-19.275 9.467-5.9243 4.9731-14.779 15.257-11.782 18.934 2.9953 3.6791 12.462-0.4075 15.937-2.1106 3.8819-7.22 15.188-19.275 20.501-23.361"/>
   <path d="m52.568 73.252c-2.823-1.6367-10.42 2.7925-16.551 12.873-8.0384 13.221-8.6665 21.518-4.4724 23.69 4.2624 2.2075 12.99-5.4146 18.299-16.335 3.6091-7.4228 6.1306-18.254 2.7243-20.228"/>
  </g>
  <path d="m144.05 75.496c-2.3439 3.5822-3.2394 10.68 0.68912 14.883 3.9268 4.2032 8.4745 4.8241 13.022 2.8948-2.6867-4.6177-8.5445-13.23-13.711-17.778" fill="#b40c50"/>
  <path d="m183.35 71.76c-1.836 4.2588-5.0682 11.897-5.14 18.654 1.468 0.1455 4.8474-1.102 6.3155-3.7455 0.73583-4.0398 0.1455-10.65-1.1755-14.908" fill="#b40c50"/>
  <path d="m131.77 5.0645c2.177 6.3837 8.7168 38.388 9.5854 53.042-1.9957-0.31592-4.6231-0.73583-7.4066 1.2078 1.4411-9.3558-0.62101-39.679-2.0334-49.095-0.30524-2.0442-0.291-4.2804-0.1455-5.1544" fill="#dcd096"/>
  <path d="m20.739 180.41c-21.249 49.445 20.228 99.869 80.935 104.73 61.296 4.9031 115.24-27.38 99.3-78.869 25.883 53.125-18.862 108.27-99.709 99.711-93.652-9.9174-108.05-93.385-80.526-125.57" fill="#dcd096"/>
  <g fill="#0098cd">
   <path d="m133.04 58.337c-5.3123-5.0054-16.26-9.5387-29.219-7.8661-6.3317 0.81656-12.155 2.7584-17.468 5.5169-5.3123 2.7584-12.873 5.9243-23.498 6.538l-7e-3 -1.9455c11.54-1.346 23.273-8.4637 29.813-12.118 6.5398-3.6558 25.391-9.2336 41.743-0.76991 0.1689 1.9598 0.27116 8.295-0.24063 10.644z"/>
   <path d="m15.858 136.52c20.296-15.257 43.453-54.077 46.994-75.056-0.54379 14.031-7.771 32.97-12.667 41.818-7.7656 14.031-24.383 32.556-34.327 33.238"/>
   <path d="m146.83 148.04c-1.023-4.0865-2.4516-12.873-3.27-16.346-3.4547 4.0542-7.29 8.0742-11.321 11.936-0.28692 5.3428-1.7301 13.265-3.1927 19.541 6.2096-4.2229 12.27-9.196 17.784-15.131"/>
   <path d="m91.047 172.47c-14.438 5.4469-25.354 14.25-27.396 28.108 2.6777-5.3554 7.5484-10.957 17.999-15.153 9.2121-3.6989 24.424-8.5517 39.742-17.45-4.0811-1.696-8.8891-3.6468-12.748-5.1597-6.4357 4.3593-12.527 7.7423-17.597 9.6537"/>
  </g>
  <path d="m108.64 162.82c3.8586 1.5129 7.3044 2.7854 11.387 4.4814 2.5592-1.4842 6.556-3.5786 9.0919-5.3051 1.4626-6.276 2.8284-13.026 3.1156-18.367-7.5682 7.2505-15.831 13.934-23.595 19.191" fill="#c94768"/>
  <path d="m-22.599 26.992c-1.2706 3.5266 13.394 20.174 28.787 24.806 2.2828-0.34644 5.1328-0.69279 8.1497-0.953-1.7821-1.1809-3.7401-2.6633-5.2082-3.9573-12.679-4.3342-26.565-11.85-31.728-19.896" fill="#0098cd"/>
  <path d="m9.1292 46.889c1.4681 1.294 3.4261 2.7764 5.2064 3.9572 2.92-0.25284 5.9978-0.42733 8.8765-0.4431-4.065-0.53661-8.977-1.7678-14.083-3.514" fill="#c94768"/>
  <path d="m10.88 71.599c-16.285 1.8773-34.149 0.89018-42.015-3.182 0.81658 6.2653 29.541 12.897 43.164 9.8995 2.6561-1.897 6.1414-4.2031 9.1511-5.8974-3.6199 0.0204-7.3798-0.29608-10.3-0.82018" fill="#0098cd"/>
  <path d="m10.88 71.599c2.92 0.5241 6.6798 0.83992 10.3 0.82018 3.4691-1.9544 7.0495-3.7599 10.479-5.3643-5.7627 2.1393-13.096 3.6593-20.779 4.5441" fill="#c94768"/>
  <path d="m-12.475 112.69c4.3593 2.4516 23.973-2.9971 33.918-8.9896 0.94221-2.4857 3.1784-6.4771 5.5546-10.284-1.7014 0.72148-3.5624 1.4124-5.2871 1.976-9.9767 7.4515-23.882 15.237-34.185 17.297" fill="#0098cd"/>
  <path d="m21.71 95.389c1.7247-0.56357 3.5858-1.2545 5.2871-1.976 1.4016-2.247 2.8536-4.4293 4.117-6.1989-2.2487 2.439-5.5294 5.2818-9.4042 8.1748" fill="#c94768"/>
  <g fill="#0f141b">
   <path d="m147.38 79.005c-2.5072 2.9935-2.5359 7.7405 0.52766 10.485 2.509 2.2487 5.8937 1.9777 7.6364 0.27981-1.6117-2.9038-5.5797-7.981-8.164-10.765"/>
   <path d="m130.96 143.27c-1.0714-1.9652-6.9508-7.911-8.8568-9.6375-3.5248 2.2308-6.7427 4.1798-9.8672 5.9081-1.7893 3.523-5.1777 14.873-6.0804 20.167 3.5301 1.4824 9.4598 3.6863 13.525 4.8708 2.046-1.0804 5.9727-3.5391 7.8517-4.8708 0.76813-2.8876 3.0707-13.579 3.4279-16.438m-12.66 26.452c-0.0519-0.31744-0.22588-0.75556-0.3322-1.1091-4.0398-1.2545-9.711-3.5589-14.467-5.3105-4.1888 1.7373-11.443 5.0126-14.941 7.1877-2.1572 5.5635-3.121 10.497-3.4996 13.333-1.0122 0.3734-3.663 1.5398-6.477 3.0204 0.43969-2.613 2.9792-12.439 5.1866-16.944-5.21-0.91708-13.376-2.2972-18.688-2.9092-9.4382 2.2451-19.433 6.7354-24.598 9.4562 0.16691 6.766 2.1303 18.672 3.5337 23.453 5.8238-2.1446 18.467-5.743 25.266-7.15-2.3474 1.9311-4.5459 5.5115-4.8528 6.3281-4.598 1.1253-19.223 6.1665-24.736 8.4871-1.5739-5.8399-4.0398-22.234-3.7078-30.619-3.986 0.10226-12.058 0.57075-15.328 0.97992 1.3281-1.635 3.9752-4.5531 4.9982-5.5761 3.3704-0.40749 8.7383-0.49906 12.111-0.60122 7.0998-3.0276 18.367-7.1608 25.106-8.7778 0.29791-2.5754 1.1163-7.2164 2.1554-10.964 2.4533-0.91887 3.6988-1.1342 6.355-1.7462-2.0442 3.4728-3.4386 9.004-3.9501 12.579 5.21 0.81656 13.44 2.1106 19.467 3.0294 4.8816-2.0011 9.9587-4.0129 15.271-6.0552 0.54022-5.0054 2.9702-15.881 5.4092-21.902 7.4497-3.6827 12.254-7.3977 17.446-11.517-0.0845 1.4322-0.10938 2.8051-0.15618 3.8999 2.7064 2.6059 6.8988 8.1856 8.5337 10.639 2.6041-1.1234 7.5736-2.945 11.403-4.0685 0.30524 0.97091 0.89557 3.1533 1.0481 4.1224-3.5247 0.97091-8.7903 2.692-11.755 3.9178-0.86683 5.5276-1.818 13.487-2.8033 16.822-3.103 1.9975-9.6464 6.5416-12.997 7.9953"/>
   <path d="m71.063 55.191c1.5022 1.4842 3.6055 3.3094 5.6892 4.5944 1.276-0.30524 3.5894-1.0553 5.0197-1.6673-2.3851-0.93683-5.2638-2.8248-7.1034-4.4598-1.2383 0.60839-2.4318 1.0516-3.6055 1.5326"/>
   <path d="m134.16 37.189c-4.3916-0.30676-11.831 1.8288-15.508 3.3112-4.4956-0.66404-11.743-1.3765-18.024-0.30523-0.21367-0.23504-0.53844-0.54022-0.74661-0.66405-0.82735 0.31592-1.8503 0.79143-3.2196 1.5326 0.40902 0.30524 1.5326 1.3784 1.8396 1.8378-1.1074 3.4296-4.2194 8.1227-7.089 10.741 1.5829-0.86683 4.51-1.6134 5.9925-1.87 0.98887-1.4681 3.5768-5.7771 4.4167-8.4117 4.3934-0.50969 10.7-0.40902 16.012 0.45939 0.71609 1.94 1.8898 5.3643 2.5538 7.7638 1.4322 0.45939 3.4637 1.3963 4.4867 1.8557-0.76808-2.911-2.3815-7.3672-3.4547-10.023 2.2164-0.88479 7.2666-2.8033 12.744-3.1766z"/>
   <path d="m178.57 87.025c1.9616 0.34289 3.8334-1.4088 4.4867-3.9322 0.7251-2.8158-0.29404-6.145-1.5057-6.6008-1.0589 2.0406-2.3869 6.5793-2.981 10.533"/>
   <path d="m143.71 74.989c-3.0653 3.6773-3.4225 12.414 1.4824 16.823 4.0775 3.6684 9.7003 3.7347 12.959 1.9078l-0.56708-0.9817c-3.0708 1.4716-7.71 1.4626-11.473-1.915-4.458-3.995-4.0363-11.85-1.5326-15.059z"/>
   <path d="m7.6337 51.798c-11.341-3.1676-26.644-16.721-29.147-22.423-0.78248-1.7821-0.59763-2.4354 5.2925-3.4979 17.703-3.1963 46.24 1.6942 74.603 30.402 1.4178 1.4357 3.0851 1.9006 4.9408 1.5793 3.7419-0.64609 11.631-2.8374 22.448-10.249 12.398-8.496 22.243-11.454 35.109-11.375 4.5693 0.0305 9.0596 0.90274 13.408 2.2793l0.0204-1.8772c-4.3539-1.3496-8.794-2.1446-13.361-2.1752-13.076-0.0809-23.324 3.4117-35.894 12.024-10.669 7.3116-18.058 9.4454-21.726 10.081-1.5686 0.27115-2.9612-0.11142-4.1529-1.364-28.064-29.453-53.516-34.551-76.096-30.944-5.8345 0.93322-7.7548 2.4928-6.3155 5.5402 3.3937 7.1859 18.381 20.196 27.163 22.452z"/>
   <path d="m132.1 6.5272c-0.22232-1.8575 1.1809-2.4928 2.6274-0.91169 2.4964 2.7297 14.964 29.031 18.272 34.431 4.3701 7.1339 5.8579 8.3345 11.278 11.561 12.376 7.3672 19.013 16.673 19.684 28.923 0.22588 4.1206-0.62452 10.372-2.3456 14.899-3.0115 7.9271-8.5804 15.888-12.426 16.63-4.3539 0.83992-18.207-4.6339-24.907-10.44-1.1307-0.97992-1.6637-0.40749-0.62996 0.67839 5.9135 6.2186 20.944 12.439 25.863 11.396 4.7595-1.0086 10.759-9.7685 13.756-17.88 1.949-5.2728 2.7136-11.188 2.4838-15.411-0.68017-12.407-7.6471-22.769-20.519-30.262-4.7397-2.7566-6.7516-4.4831-10.603-10.772-3.286-5.3679-15.852-31.269-18.943-34.668-2.2236-2.4516-5.1184-1.3586-4.8008 1.7373 1.075 10.413 4.1278 43.085 2.2487 51.761l1.7014 0.95301c2.0424-8.7347-1.294-40.592-2.7405-52.626"/>
   <path d="m175.69 82.805c-0.5743-7.1428 0.34441-16.99 2.0118-20.915l-0.99421-1.1773c-2.1106 4.6698-3.3273 16.888-1.5363 24.499z"/>
   <path d="m184.7 84.508c-0.30676 1.4824-3.1335 5.3087-6.5416 5.542l0.0153 1.1109c2.4318-0.0646 4.991-1.5363 6.2042-3.7097z"/>
   <path d="m135.18 58.609c-5.1238-4.4167-11.999-7.5-17.981-8.6504-8.0456-1.547-20.307-0.0254-27.992 3.8137-10.58 5.289-18.419 7.8284-26.323 8.0276l-0.13639 1.337c8.0474-0.20299 16.364-2.6472 27.071-8.0025 7.5197-3.7581 19.286-5.262 27.107-3.5409 4.4724 0.98348 10.824 3.0851 16.755 8.1048z"/>
   <path d="m167.25 112.91c2.1177 24.695 13.25 49.381 22.947 70.574 8.995 19.67 17.189 37.985 16.669 53.18-1.5094 44.063-38.295 69.894-97.326 68.406-49.684-1.2509-101.09-32.186-99.702-88.417 0.8435-34.049 21.145-55.393 54.325-63.702 28.71-7.1895 40.3-11.387 51.68-18.796 11.382-7.4084 19.86-15.463 23.261-20.043l-0.61378-1.7839c-5.9763 7.8302-14.993 15.24-23.417 20.438-12.078 7.4534-25.467 11.762-51.296 18.191-35.052 8.7257-55.628 30.607-56.717 65.524-1.8072 57.947 51.664 90.3 102.33 91.577 54.329 1.3694 98.388-21.272 100.1-71.202 0.52944-15.413-8.0922-34.366-17.137-54.138-9.6608-21.125-21.226-45.289-23.327-69.824z"/>
   <path d="m14.23 77.15c-16.956 2.5987-38.198-2.9702-43.681-7.3726-1.6906-1.355-1.4663-2.5485 3.2681-5.4648 11.644-7.1716 48.442-21.777 81.384-5.7071 1.7606 0.85787 2.1464 0.10226 0.42174-0.82552-32.103-17.281-69.731-3.9411-82.879 5.1454-5.8543 4.047-6.1594 5.8579-3.2609 8.1838 6.206 4.9784 27.821 10.677 42.024 8.2681z"/>
   <path d="m22.538 101.57c-6.1288 5.5869-26.472 11.389-33.254 10.901-1.9042-0.13837-2.1482-1.0445-0.6066-4.8151 5.393-13.202 28.679-41.287 66.622-45.924 1.6924-0.20655 1.5991-1.075-0.10053-0.9207-39.207 3.5535-61.951 30.54-68.182 46.292-2.1357 5.3966-0.83812 6.9814 2.1016 7.0818 8.6773 0.29609 25.253-4.2552 31.908-9.2839z"/>
   <path d="m62.417 61.061c-5.7968 45.395-32.493 68.245-42.473 73.336-3.9304 2.0046-3.9716 2.0118-4.1367-2.5036-0.50431-13.814 7.6795-45.836 41.971-68.934 1.434-0.96556 0.94041-1.7121-0.51149-0.77174-36.71 23.758-43.815 53.264-43.299 69.808 0.20278 6.4465 1.6583 6.5524 6.7426 4.1385 11.644-5.5294 38.771-27.751 42.627-74.968 0.0951-1.1737-0.77171-1.2742-0.92067-0.10582"/>
   <path d="m15.832 50.822c-7.561-4.0219-11.215-9.8062-10.122-12.645 1.2222-3.1838 13.297-2.6472 22.816 1.5667 8.1551 3.6091 16.35 9.8259 16.141 14.029l1.1594 0.53839c0.88299-5.0826-8.7688-12.486-16.588-15.946-10.054-4.449-22.985-4.9677-24.817-0.60121-1.4465 3.4494 2.7728 9.8402 9.0793 13.284z"/>
   <path d="m45.986 60.279c-0.6084-5.1723-14.95-6.6798-22.8-5.944-11.443 1.0732-21.87 6.5667-21.344 11.581 0.55277 5.2441 9.2373 7.9612 18.986 6.9275l2.2272-1.4016c-11.305 1.337-19.528-1.8037-19.934-5.682-0.40378-3.828 10.47-9.0201 20.16-9.8743 9.4472-0.83452 21.018 0.72326 21.454 4.4257 0.10948 0.93505-0.38765 2.0441-1.2258 2.9971l1.766-0.32864c0.55456-0.87221 0.81838-1.7767 0.7107-2.701"/>
   <path d="m48.143 69.438c0-0.83269-0.0969-1.547-0.53841-2.1034-2.7333-3.5499-15.441 1.2204-22.909 6.6044-7.1177 5.1328-17.362 16.847-13.826 21.635 2.0334 2.7494 8.9537 2.1482 15.791-1.468l1.0481-1.9885c-7.7494 4.1385-14.239 4.6931-15.732 2.6561-2.7495-3.7473 6.075-13.814 13.756-19.614 7.4138-5.5994 18.982-9.501 20.842-7.1518 0.36613 0.46142 0.75018 1.2258 0.27278 2.588z"/>
   <path d="m31.693 109.11c-3.5104-1.6529-2.2882-11.104 4.5962-22.17 4.0165-6.4537 12.365-14.928 16.143-12.974 2.1446 1.1091 0.81299 10.985-3.6791 19.819-5.6174 11.05-13.13 17.173-17.06 15.325m3.2914-23.008c-7.9881 12.837-8.0904 22.053-3.7473 24.189 4.6931 2.3062 12.785-4.2408 18.846-15.626 3.6773-6.9042 6.9365-19.815 2.9451-21.881-4.6841-2.421-13.482 5.9853-18.044 13.318"/>
   <path d="m146.68 146.81c-4.9318 5.5079-11.872 11.219-17.879 15.477-12.34 8.7509-28.388 15.244-44.058 20.892-16.762 6.0427-24.013 14.088-23.514 26.739 0.58328 14.847 13.304 25.038 24.777 28.835 32.945 10.908 56.15-6.4214 63.553-31.097 6.8557-22.845-1.809-66.773-11.615-99.208l-0.70169 3.5535c9.3395 32.091 16.597 72.597 9.8834 94.977-6.7821 22.606-29.006 39.749-60.206 29.42-11.177-3.7006-22.669-12.089-23.234-26.464-0.4433-11.258 5.7412-19.081 21.762-24.903 15.716-5.7125 31.734-12.242 44.164-21.057 5.8399-4.1385 12.76-10.118 17.577-15.224z"/>
   <path d="m146.43 129.09c0.78247-0.36628 1.5255 1.0391 1.8431 2.272 0.31389 1.2294 0.51331 3.0474-0.27115 3.3561-0.7807 0.30677-1.5363-1.1522-1.8539-2.4426-0.31745-1.2904-0.50059-2.8195 0.28183-3.1856"/>
   <path d="m143.51 118.03c0.64253-0.25487 1.416 0.80044 1.8144 2.1716 0.34797 1.206 0.50771 3.0061-0.18111 3.2592-0.813 0.29965-1.5488-0.86148-1.9006-2.177-0.35001-1.3155-0.51326-2.9451 0.26759-3.2538"/>
   <path d="m140.46 106.86c0.612-0.26759 1.3353 0.84709 1.7426 2.2128 0.42886 1.4501 0.56174 3.1856-0.10429 3.584-0.73405 0.43954-1.547-1.0984-1.8934-2.4156-0.34441-1.3173-0.48635-3.0564 0.25487-3.3812"/>
  </g>
  <path d="m160.75 87.892c0.81478-7.1877-4.6895-17.127-8.6145-21.461-3.9267-4.3324-10.838-10.817-16.771-7.85-2.5467 1.2742-6.0158 4.0272-7.1357 12.285-1.1216 8.2591-4.8941 49.176-11.639 70.427-6.7409 21.249-15.118 42.906-36.572 61.91-21.454 19.002-40.319 37.39-42.227 47.471 2.0442-0.54557 8.514-2.2487 10.829-2.5197-0.40739 5.4486 0.61378 19.955 1.976 20.501 1.3622 0.54378 11.17-8.3112 18.116-10.217 0.81837 5.1759 2.5897 14.576 5.4505 16.892 8.5804-16.482 24.858-42.5 37.322-61.502 12.805-19.524 14.916-27.38 19.411-43.521 6.328-22.724 8.173-88.063 9.397-103.8 4.0865 3.0635 15.782 14.16 20.458 21.382" fill="#e85377"/>
  <g fill="#c94768">
   <path d="m139.68 74.41c-3.5409 24.246-10.352 88.541-17.163 103.8-10.806 24.207-49.855 79.822-48.492 96.712 5.5833-10.625 23.566-40.251 29.898-49.241 6.3352-8.9913 19.785-31.348 22.272-38.006 6.3352-16.958 10.298-51.475 11.238-75.395 0.47566-12.123 1.976-32.556 2.247-37.868"/>
   <path d="m68.935 256.64c-0.75735-2.2505-2.5754-3.173-4.72-1.7426-1.4447 0.96196-9.3988 6.5398-13.724 13.638 2.911-1.2778 13.941-9.1619 18.134-9.9085 0.20461-0.43802 0.6066-1.1037 0.31047-1.9868"/>
   <path d="m49.231 244.95c-0.0682-1.2258-0.81658-1.294-1.8396-0.74839-1.3191 0.70352-7.1518 4.2893-9.7398 6.538 3.2699-0.95295 8.5822-2.1805 10.966-2.5879z"/>
  </g>
  <g fill="#0f141b">
   <path d="m48.791 247.25c-3.1622 0.65865-6.0768 1.1791-9.9587 2.4156 4.4024-12.082 23.92-29.435 38.471-42.299 28.914-25.562 36.457-52.579 40.921-68.476 4.3396-15.45 7.0639-37.179 8.7384-52.053 0.93143-8.2771 1.7498-15.687 2.7225-19.578 2.0046-8.0151 8.4637-10.361 13.717-7.4282 8.1963 4.5746 16.789 16.721 16.931 27.827l0.98704 1.1899c0.99248-12.015-8.6809-25.432-17.304-30.246-5.0269-2.8069-13.225-2.0083-15.775 8.1873-0.98703 3.9501-1.8108 11.136-2.7835 19.788-1.6691 14.84-4.6052 36.405-9.0201 51.752-4.537 15.772-11.795 41.911-40.504 67.295-16.796 14.847-35.569 31.057-39.704 45.253-0.31943 1.0965 0.38404 1.2347 1.0948 1.0032 4.1493-1.3496 7.9989-2.5 11.324-3.2035z"/>
   <path d="m139.34 70.732c-0.73405 4.7057-2.5485 43.616-3.173 52.234-2.0908 28.932-5.3518 47.88-11.14 63.875-3.8119 10.533-13.932 25.933-25.14 43.485-9.8169 15.379-19.497 30.653-25.948 43.39-2.4982-4.0811-3.8299-10.851-4.9569-16.901-0.31408-1.678-1.4734-1.6547-1.3532 0.0539 0.48456 6.8611 2.5556 15.818 5.4666 19.399 0.87761 1.0786 1.346 0.85782 1.8342-0.10785 6.468-12.782 16.337-28.826 26.757-44.765 11.427-17.475 21.648-33.2 25.463-43.695 5.4038-14.858 8.6109-35.592 10.709-64.614 0.62452-8.6325 2.0477-46.477 2.7746-51.129z"/>
   <path d="m68.447 257.58c-6.5291 2.211-16.558 9.8366-17.414 10.039-1.2904-2.2128-1.9885-16.841-1.6655-22.062 0.11303-1.8414-0.86683-1.8647-1.2365-0.0611-1.0732 5.2154-0.66045 23.893 1.9993 24.697 1.5686 0.47362 10.978-8.0671 18.437-11.233z"/>
  </g>
  <path d="m178.61 86.37c-0.32661-2.3187-0.4487-3.3776-0.32661-4.8026-0.32507 0.77353-0.9763 1.9131-1.0983 2.7674 0-0.69095-0.16331-1.7498 0-2.4408-0.48838 0.73226-1.4644 2.1967-1.9526 3.173 2.177-10.113 8.2161-23.577 13.62-34.632 5.9925-12.258 12.941-31.874 10.625-43.044-2.3152-11.17-7.186-13.622-12.091-15.154-4.9031-1.5326-11.834-0.29455-16.446 5.551-1.0212 1.294-3.1389 0.74656-2.0442-1.3622 1.7714-3.4045 8.8245-8.785 17.845-7.3546 9.8762 1.565 15.44 11.579 16.007 17.911 1.1916 13.349-2.4857 27.959-10.558 44.917-9.056 19.033-12.346 27.769-13.579 34.471" fill="#e85377"/>
  <path d="m158.24 84.713c-1.1504-0.93143-2.6292-1.5363-3.2879-1.7552 1.3137 1.2617 1.5883 2.4139 1.9167 3.1264-1.206-1.0965-2.1931-1.809-3.2897-2.3582 0.93144 1.5363 1.3711 3.3991 1.5901 4.9354-4.9677-6.9292-13.959-16.942-22.642-24.092-8.6845-7.1518-20.499-15.948-25.745-19.82-10.931-8.0708-31.468-26.773-30.343-42.295 0.44331-6.0947 5.4164-13.501 15.495-13.656 4.4257-0.0667 11.922 1.8395 14.711 4.4275 0.95478 0.88479 0.54556 2.5897-1.4986 1.635-2.0441-0.953-9.1942-3.9501-14.234-3.0654-5.0395 0.88661-10.42 4.1547-10.829 10.761-0.40917 6.608 2.2918 17.823 27.99 38.277 10.014 7.9684 17.145 12.238 26.906 20.637 5.6173 4.8349 17.198 14.883 23.259 23.243" fill="#e85377"/>
  <path d="m194.36 48.69c11.595-26.12 12.085-44.81 3.0581-54.205-10.074-10.476-24.327-5.8901-28.853 1.9131-1.3047 2.2488 1.2491 3.663 2.8105 1.6027 5.4163-7.1339 16.599-7.8859 23.114-0.85971 11.637 12.552-1.7229 43.422-4.5998 49.474-4.7039 9.8851-14.386 29.634-15.316 39.517-0.13634 1.4555 0.53299 1.5668 0.78787 0.12769 1.8449-10.42 11.143-29.207 15.82-39.038 4.1063-8.6324 15.874-38.116 4.1404-50.77-7.5197-8.1084-19.004-6.3478-24.655 1.0984-0.97274 1.2814-2.1483 0.40393-1.4645-0.78248 3.602-6.2078 17.414-11.793 27.353-1.4501 8.7473 9.1009 7.9325 27.008-3.4979 52.757-5.6873 12.814-16.055 32.737-15.298 43.763 0.0809 1.1343 0.78604 1.1935 0.78787 0.0575 0.0203-11.016 10.163-30.477 15.813-43.205" fill="#0f141b"/>
  <path d="m78.994-5.6167c-9.1547 12.85 1.4483 31.612 31.262 53.789 17.767 13.214 37.697 28.553 47.853 46.298 0.68379 1.197 1.2958 0.89012 0.65866-0.33373-9.4203-18.09-29.596-33.627-47.437-46.899-28.92-21.511-40.063-40.07-31.376-52.259 4.878-6.8485 17.85-7.5143 26.396-1.3784 0.8076 0.57969 0.29455 1.3855-0.51865 0.99604-10.565-5.0448-19.898-4.3054-24.331 2.159-11.635 16.969 26.391 44.962 30.765 48.099 13.909 9.9713 38.309 28.945 48.977 44.637 0.83095 1.2222 1.4088 0.81478 0.62634-0.43955-10-16.071-34.792-35.314-48.754-45.323-4.2983-3.0833-41.375-30.343-30.58-46.348 4.1098-6.093 12.57-6.6978 22.715-1.976 2.1285 0.99243 3.5535-1.1235 1.5829-2.6041-8.4296-6.3353-22.387-6.0679-27.839 1.5829" fill="#0f141b"/>
  <path d="m172.63 110.8c0.74484 18.806 4.6554 42.455 8.0079 54.189 3.3525 11.732 8.0815 22.559 15.158 32.428 7.0764 9.869 21.931 34.463 28.23 45.409 1.2617-3.2484 2.5897-8.4583 2.3851-11.933 5.1077 3.7796 15.118 11.852 18.9 15.427 0.40902-4.0865-0.10225-12.362-1.1235-16.857 4.1888 1.5326 11.543 4.5962 14.916 7.1518-2.7584-5.0054-7.9684-12.362-15.632-19.718-7.6615-7.3564-26.052-25.438-33.815-37.084-18.611-27.916-25.843-54.047-27.992-82.548-2.1447 4.3934-4.991 9.5997-9.0345 13.536" fill="#e85377"/>
  <g fill="#c94768">
   <path d="m182.7 106.35c-3.1066 4.2965-5.0987 11.075-5.2692 16.025-0.58326 16.951 5.1597 46.027 15.375 62.1 6.8646 10.8 30.499 45.702 31.231 58.141-5.3051-8.9645-23.182-37.818-28.641-45.881-8.855-13.076-15.75-31.315-18.39-47.676-1.3622-8.4458-3.9501-28.742-4.0865-38.412 2.4516-2.8607 6.6745-8.0384 8.7186-13.487 0.13481 2.4533 0.76274 5.8471 1.0624 9.1906"/>
   <path d="m225.02 229.76c-1.4016-1.0391-0.682-3.5391 2.1787-2.1787 2.6472 1.2599 15.12 11.238 18.254 18.593-4.8366-4.3575-14.917-12.328-20.432-16.414"/>
   <path d="m242.18 228.74c-2.1644-0.65865-1.2437-2.78 0.682-2.3851 2.3151 0.47923 11.987 5.2459 15.937 9.808-3.6791-2.1106-11.918-5.9924-16.619-7.4228"/>
  </g>
  <g fill="#0f141b">
   <path d="m225.86 230.5c-0.2798 4.8385-0.61912 7.4659-2.089 10.511-6.398-12.105-22.904-37.785-31.407-50.944-12.579-19.467-18.078-55.766-18.614-80.344l-1.3694 1.4303c0.72865 24.564 5.4666 60.447 18.123 80.088 8.6576 13.431 25.63 39.851 32.609 52.157 0.59227 1.0445 1.2976 0.62452 1.7265-0.24775 1.6332-3.3381 2.22-6.9903 2.4282-11.547z"/>
   <path d="m243.12 229.05c1.2257 3.6791 1.9185 14.23 1.5416 15.581-3.7024-3.3704-12.724-11.547-18.693-15.124-1.2868-0.77169-1.8683-0.11141-0.71609 0.82918 4.9856 4.0775 15.348 13.121 19.377 16.732 1.1217 1.005 1.7121 1.1074 1.9454-0.75913 0.23147-1.8647-0.78248-12.055-1.809-16.628z"/>
   <path d="m180.8 98.486c4.9156 55.766 28.211 85.321 45.565 102.75 9.7308 9.7739 25.255 24.365 30.384 33.028-3.7473-2.2469-9.3773-4.7918-13.905-5.9206-1.4268-0.35357-1.7444 0.54022-0.36984 1.0624 5.49 2.0819 11.21 4.9228 16.289 7.9146 1.2957 0.76279 1.7642 0.41817 1.127-1.023-4.1547-9.397-21.545-26.012-31.886-36.4-17.333-17.41-41.283-47.66-46.019-103.64z"/>
  </g>
  <path d="m134.37 37.632c-18.525-6.267-37.085 0.78965-48.492 9.126-3.5427 2.5879-15.677 9.4382-21.522 10.217-2.0442 0.27116-3.7294 0.54556-5.7215-1.4986-12.584-12.916-22.638-19.77-36.373-25.485-19.781-8.2286-41.644-6.346-44.948-2.7118-2.7243 2.9971 15.522 20.702 28.189 24.788-17.299 2.1788-37.181 13.078-36.771 16.484 0.40917 3.4063 20.16 12.532 43.862 9.3988-11.034 8.3094-28.588 28.715-25.474 34.6 1.2276 2.3151 24.383-2.0442 34.463-9.2624-4.7667 9.8062-9.4921 31.296-5.3123 33.236 3.8155 1.7714 25.472-16.073 34.191-33.645 8.7186-17.572 11.034-30.65 12.26-40.456 6.1288 0.27268 16.481-2.9971 22.338-5.8578 5.8579-2.8607 27.653-14.302 49.447 2.7243 0.27268-5.0395 0.27268-15.529-0.13634-21.658" fill="#00aeeb"/>
  <path d="m146.76 148.1c-9.2642 10.215-30.704 25.443-54.896 33.509-11.441 3.8155-30.784 8.9914-29.558 30.104 1.2258 21.114 31.26 33.349 52.444 27.516 41.545-11.443 39.228-53.124 32.01-91.129m-19.139-27.039 6.0606-61.366c2.1788-11.307-1.1665-45.009-2.1787-52.852-0.40902-3.1676 2.4174-3.7257 4.0865-1.4303 2.4533 3.3722 14.828 28.512 17.981 33.713 2.0424 3.3722 4.8008 7.9684 9.2965 10.727 4.4956 2.7584 17.744 9.4293 21.351 25.03 1.5363 6.6368 0.5797 15.025-2.0656 21.54-4.2498 10.467-9.6052 16.364-13.973 16.667 1.328 13.282 5.6873 32.285 15.632 53.534 9.9426 21.249 28.676 57.272 23.701 79.074-7.1285 31.242-26.481 57.94-89.289 60.888-45 2.1123-104.47-22.103-109.52-81.935-1.8575-22.035 4.8187-39.684 15.98-51.278 13.365-13.885 31.328-19.454 45.522-23.096 17.59-4.51 31.269-8.1281 48.857-18.627z" fill="#fff1ac"/>
  <path d="m175.35 83.946c-1.1827-6.5021-0.49194-16.994 2.0675-22.906 1.0355 1.5757 2.8087 4.0883 3.7455 6.0589-1.4788 3.5965-5.4182 13.448-5.813 16.847" fill="#e85377"/>
  <path d="m138.39 113.19c-11.091 15.96-31.775 26.933-52.993 32.959-16.938 4.8151-43.41 8.3812-62.137 28.839l14.869-0.38765c-0.61199 7.3546 2.0441 21.658 3.4745 28.81 8.9896-3.0654 14.914-4.7003 24.11-6.7444 4.2229-7.15 16.344-11.237 23.837-14.234 7.491-2.9954 35.009-11.443 57.211-34.325-1.4985-8.4458-5.9781-27.742-8.3704-34.917" fill="#00aeeb"/>
  <g fill="#e85377">
   <path d="m122.89 130.76-12.854 7.247-5.953 22.514 15.269 6.2975s9.921-6.0391 10.093-6.2975c0.17246-0.25843 3.5355-17.943 3.5355-17.943z"/>
   <path d="m23.8 174.88 14.508-0.90992 26.305-9.5083 3.5984-13.367c-11.938 2.1357-32.071 8.6306-44.411 23.785"/>
   <path d="m98.014 40.113 2.0154 2.0154c4.6626-0.80583 13.394-0.94761 19.149 0.1455 3.1676-1.4394 9.2696-3.1658 13.474-3.6271l0.0555-1.5542c-11.341-3.1084-22.547-2.3924-34.695 3.0204"/>
   <path d="m45.349 53.91c0.341-2.6561-5.5169-10.625-16.687-14.916-11.17-4.2911-21.863-4.8367-23.701-1.1576-1.8396 3.6773 4.8349 10.829 9.6034 13.076 7.5592-0.61378 17.981-0.81661 30.784 2.9971"/>
   <path d="m44.599 63.104c1.1576-1.4304 1.4178-4.1026-1.9742-5.7896-4.8618-2.4157-12.6-2.9954-20.093-2.1787-9.1996 1.0032-21.201 6.267-20.061 11.335 0.74838 3.3381 7.1213 6.6457 18.903 5.7592 5.2441-2.929 15.598-7.2864 23.225-9.126"/>
   <path d="m47.733 69.779c-0.13639-2.1787-1.2258-3.6773-5.3805-2.9289-4.1547 0.75017-13.349 4.4957-19.275 9.467-5.9243 4.9731-14.779 15.257-11.782 18.934 2.9953 3.6791 12.462-0.4075 15.937-2.1106 3.8819-7.22 15.188-19.275 20.501-23.361"/>
   <path d="m52.568 73.252c-2.823-1.6367-10.42 2.7925-16.551 12.873-8.0384 13.221-8.6665 21.518-4.4724 23.69 4.2624 2.2075 12.99-5.4146 18.299-16.335 3.6091-7.4228 6.1306-18.254 2.7243-20.228"/>
  </g>
  <path d="m144.05 75.496c-2.3439 3.5822-3.2394 10.68 0.68912 14.883 3.9268 4.2032 8.4745 4.8241 13.022 2.8948-2.6867-4.6177-8.5445-13.23-13.711-17.778" fill="#ba004f"/>
  <path d="m183.35 71.76c-1.836 4.2588-5.0682 11.897-5.14 18.654 1.468 0.1455 4.8474-1.102 6.3155-3.7455 0.73583-4.0398 0.1455-10.65-1.1755-14.908" fill="#ba004f"/>
  <g fill="#dcd096">
   <path d="m131.77 5.0645c2.177 6.3837 8.7168 38.388 9.5854 53.042-1.9957-0.31592-4.6231-0.73583-7.4066 1.2078 1.4411-9.3558-0.62101-39.679-2.0334-49.095-0.30524-2.0442-0.291-4.2804-0.1455-5.1544"/>
   <path d="m138.45 96.034c2.3492 4.8026 17.979 16.346 29.627 17.06 0.20451 1.8396 0.59943 4.406 1.0086 6.1432-8.6934 3.1479-14.286 18.824-13.88 27.367 0.99966 21.113 15.732 81.933-39.436 92.968 33.306-10.625 37.674-41.26 34.122-69.677-3.0653-24.517-6.7426-42.703-12.055-58.435 0.0682-4.2229 0.47719-11.784 0.61378-15.427"/>
   <path d="m20.739 180.41c-21.249 49.445 20.228 99.869 80.935 104.73 61.296 4.9031 115.24-27.38 99.3-78.869 25.883 53.125-18.862 108.27-99.709 99.711-93.652-9.9174-108.05-93.385-80.526-125.57"/>
  </g>
  <g fill="#0098cd">
   <path d="m133.04 58.337c-5.3123-5.0054-16.26-9.5387-29.219-7.8661-6.3317 0.81656-12.155 2.7584-17.468 5.5169-5.3123 2.7584-12.873 5.9243-23.498 6.538l-7e-3 -1.9455c11.54-1.346 23.273-8.4637 29.813-12.118 6.5398-3.6558 25.391-9.2336 41.743-0.76991 0.1689 1.9598 0.27116 8.295-0.24063 10.644z"/>
   <path d="m15.858 136.52c20.296-15.257 43.453-54.077 46.994-75.056-0.54379 14.031-7.771 32.97-12.667 41.818-7.7656 14.031-24.383 32.556-34.327 33.238"/>
   <path d="m146.83 148.04c-1.023-4.0865-2.4516-12.873-3.27-16.346-3.4547 4.0542-7.29 8.0742-11.321 11.936-0.28692 5.3428-1.7301 13.265-3.1927 19.541 6.2096-4.2229 12.27-9.196 17.784-15.131"/>
   <path d="m91.047 172.47c-14.438 5.4469-25.354 14.25-27.396 28.108 2.6777-5.3554 7.5484-10.957 17.999-15.153 9.2121-3.6989 24.424-8.5517 39.742-17.45-4.0811-1.696-8.8891-3.6468-12.748-5.1597-6.4357 4.3593-12.527 7.7423-17.597 9.6537"/>
  </g>
  <path d="m108.64 162.82c3.8586 1.5129 7.3044 2.7854 11.387 4.4814 2.5592-1.4842 6.556-3.5786 9.0919-5.3051 1.4626-6.276 2.8284-13.026 3.1156-18.367-7.5682 7.2505-15.831 13.934-23.595 19.191" fill="#c94768"/>
  <path d="m-22.599 26.992c-1.2706 3.5266 13.394 20.174 28.787 24.806 2.2828-0.34644 5.1328-0.69279 8.1497-0.953-1.7821-1.1809-3.7401-2.6633-5.2082-3.9573-12.679-4.3342-26.565-11.85-31.728-19.896" fill="#0098cd"/>
  <path d="m9.1292 46.889c1.4681 1.294 3.4261 2.7764 5.2064 3.9572 2.92-0.25284 5.9978-0.42733 8.8765-0.4431-4.065-0.53661-8.977-1.7678-14.083-3.514" fill="#c94768"/>
  <path d="m10.88 71.599c-16.285 1.8773-34.149 0.89018-42.015-3.182 0.81658 6.2653 29.541 12.897 43.164 9.8995 2.6561-1.897 6.1414-4.2031 9.1511-5.8974-3.6199 0.0204-7.3798-0.29608-10.3-0.82018" fill="#0098cd"/>
  <path d="m10.88 71.599c2.92 0.5241 6.6798 0.83992 10.3 0.82018 3.4691-1.9544 7.0495-3.7599 10.479-5.3643-5.7627 2.1393-13.096 3.6593-20.779 4.5441" fill="#c94768"/>
  <path d="m-12.475 112.69c4.3593 2.4516 23.973-2.9971 33.918-8.9896 0.94221-2.4857 3.1784-6.4771 5.5546-10.284-1.7014 0.72148-3.5624 1.4124-5.2871 1.976-9.9767 7.4515-23.882 15.237-34.185 17.297" fill="#0098cd"/>
  <path d="m21.71 95.389c1.7247-0.56357 3.5858-1.2545 5.2871-1.976 1.4016-2.247 2.8536-4.4293 4.117-6.1989-2.2487 2.439-5.5294 5.2818-9.4042 8.1748" fill="#c94768"/>
  <path d="m147.38 79.005c-2.5072 2.9935-2.5359 7.7405 0.52766 10.485 2.509 2.2487 5.8937 1.9777 7.6364 0.27981-1.6117-2.9038-5.5797-7.981-8.164-10.765" fill="#0f141b"/>
  <path d="m150.57 82.695c-0.86143 0.24572-1.4519 1.3299-1.3729 2.4695 0.0972 1.4052 1.1791 2.4479 2.3456 2.3241 0.9117-0.0972 1.4842-0.77709 1.5201-1.5829-0.58865-0.79505-1.5434-2.1231-2.4928-3.2107" fill="#fff"/>
  <g fill="#0f141b">
   <path d="m130.96 143.27c-1.0714-1.9652-6.9508-7.911-8.8568-9.6375-3.5248 2.2308-6.7427 4.1798-9.8672 5.9081-1.7893 3.523-5.1777 14.873-6.0804 20.167 3.5301 1.4824 9.4598 3.6863 13.525 4.8708 2.046-1.0804 5.9727-3.5391 7.8517-4.8708 0.76813-2.8876 3.0707-13.579 3.4279-16.438m-12.66 26.452c-0.0519-0.31744-0.22588-0.75556-0.3322-1.1091-4.0398-1.2545-9.711-3.5589-14.467-5.3105-4.1888 1.7373-11.443 5.0126-14.941 7.1877-2.1572 5.5635-3.121 10.497-3.4996 13.333-1.0122 0.3734-3.663 1.5398-6.477 3.0204 0.43969-2.613 2.9792-12.439 5.1866-16.944-5.21-0.91708-13.376-2.2972-18.688-2.9092-9.4382 2.2451-19.433 6.7354-24.598 9.4562 0.16691 6.766 2.1303 18.672 3.5337 23.453 5.8238-2.1446 18.467-5.743 25.266-7.15-2.3474 1.9311-4.5459 5.5115-4.8528 6.3281-4.598 1.1253-19.223 6.1665-24.736 8.4871-1.5739-5.8399-4.0398-22.234-3.7078-30.619-3.986 0.10226-12.058 0.57075-15.328 0.97992 1.3281-1.635 3.9752-4.5531 4.9982-5.5761 3.3704-0.40749 8.7383-0.49906 12.111-0.60122 7.0998-3.0276 18.367-7.1608 25.106-8.7778 0.29791-2.5754 1.1163-7.2164 2.1554-10.964 2.4533-0.91887 3.6988-1.1342 6.355-1.7462-2.0442 3.4728-3.4386 9.004-3.9501 12.579 5.21 0.81656 13.44 2.1106 19.467 3.0294 4.8816-2.0011 9.9587-4.0129 15.271-6.0552 0.54022-5.0054 2.9702-15.881 5.4092-21.902 7.4497-3.6827 12.254-7.3977 17.446-11.517-0.0845 1.4322-0.10938 2.8051-0.15618 3.8999 2.7064 2.6059 6.8988 8.1856 8.5337 10.639 2.6041-1.1234 7.5736-2.945 11.403-4.0685 0.30524 0.97091 0.89557 3.1533 1.0481 4.1224-3.5247 0.97091-8.7903 2.692-11.755 3.9178-0.86683 5.5276-1.818 13.487-2.8033 16.822-3.103 1.9975-9.6464 6.5416-12.997 7.9953"/>
   <path d="m71.063 55.191c1.5022 1.4842 3.6055 3.3094 5.6892 4.5944 1.276-0.30524 3.5894-1.0553 5.0197-1.6673-2.3851-0.93683-5.2638-2.8248-7.1034-4.4598-1.2383 0.60839-2.4318 1.0516-3.6055 1.5326"/>
   <path d="m134.16 37.189c-4.3916-0.30676-11.831 1.8288-15.508 3.3112-4.4956-0.66404-11.743-1.3765-18.024-0.30523-0.21367-0.23504-0.53844-0.54022-0.74661-0.66405-0.82735 0.31592-1.8503 0.79143-3.2196 1.5326 0.40902 0.30524 1.5326 1.3784 1.8396 1.8378-1.1074 3.4296-4.2194 8.1227-7.089 10.741 1.5829-0.86683 4.51-1.6134 5.9925-1.87 0.98887-1.4681 3.5768-5.7771 4.4167-8.4117 4.3934-0.50969 10.7-0.40902 16.012 0.45939 0.71609 1.94 1.8898 5.3643 2.5538 7.7638 1.4322 0.45939 3.4637 1.3963 4.4867 1.8557-0.76808-2.911-2.3815-7.3672-3.4547-10.023 2.2164-0.88479 7.2666-2.8033 12.744-3.1766z"/>
   <path d="m178.57 87.025c1.9616 0.34289 3.8334-1.4088 4.4867-3.9322 0.7251-2.8158-0.29404-6.145-1.5057-6.6008-1.0589 2.0406-2.3869 6.5793-2.981 10.533"/>
  </g>
  <path d="m179.25 83.628c0.15618 0.0738 0.321 0.1165 0.49194 0.12566 0.83813 0.0407 1.5757-0.68379 1.6888-1.7104 0.10225-0.92426-0.38918-1.9957-1.0014-2.3241-0.54917 1.4896-0.84886 2.4174-1.1791 3.9088" fill="#fff"/>
  <g fill="#0f141b">
   <path d="m143.71 74.989c-3.0653 3.6773-3.4225 12.414 1.4824 16.823 4.0775 3.6684 9.7003 3.7347 12.959 1.9078l-0.56708-0.9817c-3.0708 1.4716-7.71 1.4626-11.473-1.915-4.458-3.995-4.0363-11.85-1.5326-15.059z"/>
   <path d="m7.6337 51.798c-11.341-3.1676-26.644-16.721-29.147-22.423-0.78248-1.7821-0.59763-2.4354 5.2925-3.4979 17.703-3.1963 46.24 1.6942 74.603 30.402 1.4178 1.4357 3.0851 1.9006 4.9408 1.5793 3.7419-0.64609 11.631-2.8374 22.448-10.249 12.398-8.496 22.243-11.454 35.109-11.375 4.5693 0.0305 9.0596 0.90274 13.408 2.2793l0.0204-1.8772c-4.3539-1.3496-8.794-2.1446-13.361-2.1752-13.076-0.0809-23.324 3.4117-35.894 12.024-10.669 7.3116-18.058 9.4454-21.726 10.081-1.5686 0.27115-2.9612-0.11142-4.1529-1.364-28.064-29.453-53.516-34.551-76.096-30.944-5.8345 0.93322-7.7548 2.4928-6.3155 5.5402 3.3937 7.1859 18.381 20.196 27.163 22.452z"/>
   <path d="m132.1 6.5272c-0.22232-1.8575 1.1809-2.4928 2.6274-0.91169 2.4964 2.7297 14.964 29.031 18.272 34.431 4.3701 7.1339 5.8579 8.3345 11.278 11.561 12.376 7.3672 19.013 16.673 19.684 28.923 0.22588 4.1206-0.62452 10.372-2.3456 14.899-3.0115 7.9271-8.5804 15.888-12.426 16.63-4.3539 0.83992-18.207-4.6339-24.907-10.44-1.1307-0.97992-1.6637-0.40749-0.62996 0.67839 5.9135 6.2186 20.944 12.439 25.863 11.396 4.7595-1.0086 10.759-9.7685 13.756-17.88 1.949-5.2728 2.7136-11.188 2.4838-15.411-0.68017-12.407-7.6471-22.769-20.519-30.262-4.7397-2.7566-6.7516-4.4831-10.603-10.772-3.286-5.3679-15.852-31.269-18.943-34.668-2.2236-2.4516-5.1184-1.3586-4.8008 1.7373 1.075 10.413 4.1278 43.085 2.2487 51.761l1.7014 0.95301c2.0424-8.7347-1.294-40.592-2.7405-52.626"/>
   <path d="m175.69 82.805c-0.5743-7.1428 0.34441-16.99 2.0118-20.915l-0.99421-1.1773c-2.1106 4.6698-3.3273 16.888-1.5363 24.499z"/>
   <path d="m184.7 84.508c-0.30676 1.4824-3.1335 5.3087-6.5416 5.542l0.0153 1.1109c2.4318-0.0646 4.991-1.5363 6.2042-3.7097z"/>
   <path d="m135.18 58.609c-5.1238-4.4167-11.999-7.5-17.981-8.6504-8.0456-1.547-20.307-0.0254-27.992 3.8137-10.58 5.289-18.419 7.8284-26.323 8.0276l-0.13639 1.337c8.0474-0.20299 16.364-2.6472 27.071-8.0025 7.5197-3.7581 19.286-5.262 27.107-3.5409 4.4724 0.98348 10.824 3.0851 16.755 8.1048z"/>
   <path d="m167.25 112.91c2.1177 24.695 13.25 49.381 22.947 70.574 8.995 19.67 17.189 37.985 16.669 53.18-1.5094 44.063-38.295 69.894-97.326 68.406-49.684-1.2509-101.09-32.186-99.702-88.417 0.8435-34.049 21.145-55.393 54.325-63.702 28.71-7.1895 40.3-11.387 51.68-18.796 11.382-7.4084 19.86-15.463 23.261-20.043l-0.61378-1.7839c-5.9763 7.8302-14.993 15.24-23.417 20.438-12.078 7.4534-25.467 11.762-51.296 18.191-35.052 8.7257-55.628 30.607-56.717 65.524-1.8072 57.947 51.664 90.3 102.33 91.577 54.329 1.3694 98.388-21.272 100.1-71.202 0.52944-15.413-8.0922-34.366-17.137-54.138-9.6608-21.125-21.226-45.289-23.327-69.824z"/>
   <path d="m14.23 77.15c-16.956 2.5987-38.198-2.9702-43.681-7.3726-1.6906-1.355-1.4663-2.5485 3.2681-5.4648 11.644-7.1716 48.442-21.777 81.384-5.7071 1.7606 0.85787 2.1464 0.10226 0.42174-0.82552-32.103-17.281-69.731-3.9411-82.879 5.1454-5.8543 4.047-6.1594 5.8579-3.2609 8.1838 6.206 4.9784 27.821 10.677 42.024 8.2681z"/>
   <path d="m22.538 101.57c-6.1288 5.5869-26.472 11.389-33.254 10.901-1.9042-0.13837-2.1482-1.0445-0.6066-4.8151 5.393-13.202 28.679-41.287 66.622-45.924 1.6924-0.20655 1.5991-1.075-0.10053-0.9207-39.207 3.5535-61.951 30.54-68.182 46.292-2.1357 5.3966-0.83812 6.9814 2.1016 7.0818 8.6773 0.29609 25.253-4.2552 31.908-9.2839z"/>
   <path d="m62.417 61.061c-5.7968 45.395-32.493 68.245-42.473 73.336-3.9304 2.0046-3.9716 2.0118-4.1367-2.5036-0.50431-13.814 7.6795-45.836 41.971-68.934 1.434-0.96556 0.94041-1.7121-0.51149-0.77174-36.71 23.758-43.815 53.264-43.299 69.808 0.20278 6.4465 1.6583 6.5524 6.7426 4.1385 11.644-5.5294 38.771-27.751 42.627-74.968 0.0951-1.1737-0.77171-1.2742-0.92067-0.10582"/>
   <path d="m15.832 50.822c-7.561-4.0219-11.215-9.8062-10.122-12.645 1.2222-3.1838 13.297-2.6472 22.816 1.5667 8.1551 3.6091 16.35 9.8259 16.141 14.029l1.1594 0.53839c0.88299-5.0826-8.7688-12.486-16.588-15.946-10.054-4.449-22.985-4.9677-24.817-0.60121-1.4465 3.4494 2.7728 9.8402 9.0793 13.284z"/>
   <path d="m45.986 60.279c-0.6084-5.1723-14.95-6.6798-22.8-5.944-11.443 1.0732-21.87 6.5667-21.344 11.581 0.55277 5.2441 9.2373 7.9612 18.986 6.9275l2.2272-1.4016c-11.305 1.337-19.528-1.8037-19.934-5.682-0.40378-3.828 10.47-9.0201 20.16-9.8743 9.4472-0.83452 21.018 0.72326 21.454 4.4257 0.10948 0.93505-0.38765 2.0441-1.2258 2.9971l1.766-0.32864c0.55456-0.87221 0.81838-1.7767 0.7107-2.701"/>
   <path d="m48.143 69.438c0-0.83269-0.0969-1.547-0.53841-2.1034-2.7333-3.5499-15.441 1.2204-22.909 6.6044-7.1177 5.1328-17.362 16.847-13.826 21.635 2.0334 2.7494 8.9537 2.1482 15.791-1.468l1.0481-1.9885c-7.7494 4.1385-14.239 4.6931-15.732 2.6561-2.7495-3.7473 6.075-13.814 13.756-19.614 7.4138-5.5994 18.982-9.501 20.842-7.1518 0.36613 0.46142 0.75018 1.2258 0.27278 2.588z"/>
   <path d="m31.693 109.11c-3.5104-1.6529-2.2882-11.104 4.5962-22.17 4.0165-6.4537 12.365-14.928 16.143-12.974 2.1446 1.1091 0.81299 10.985-3.6791 19.819-5.6174 11.05-13.13 17.173-17.06 15.325m3.2914-23.008c-7.9881 12.837-8.0904 22.053-3.7473 24.189 4.6931 2.3062 12.785-4.2408 18.846-15.626 3.6773-6.9042 6.9365-19.815 2.9451-21.881-4.6841-2.421-13.482 5.9853-18.044 13.318"/>
   <path d="m146.68 146.81c-4.9318 5.5079-11.872 11.219-17.879 15.477-12.34 8.7509-28.388 15.244-44.058 20.892-16.762 6.0427-24.013 14.088-23.514 26.739 0.58328 14.847 13.304 25.038 24.777 28.835 32.945 10.908 56.15-6.4214 63.553-31.097 6.8557-22.845-1.809-66.773-11.615-99.208l-0.70169 3.5535c9.3395 32.091 16.597 72.597 9.8834 94.977-6.7821 22.606-29.006 39.749-60.206 29.42-11.177-3.7006-22.669-12.089-23.234-26.464-0.4433-11.258 5.7412-19.081 21.762-24.903 15.716-5.7125 31.734-12.242 44.164-21.057 5.8399-4.1385 12.76-10.118 17.577-15.224z"/>
   <path d="m146.43 129.09c0.78247-0.36628 1.5255 1.0391 1.8431 2.272 0.31389 1.2294 0.51331 3.0474-0.27115 3.3561-0.7807 0.30677-1.5363-1.1522-1.8539-2.4426-0.31745-1.2904-0.50059-2.8195 0.28183-3.1856"/>
   <path d="m143.51 118.03c0.64253-0.25487 1.416 0.80044 1.8144 2.1716 0.34797 1.206 0.50771 3.0061-0.18111 3.2592-0.813 0.29965-1.5488-0.86148-1.9006-2.177-0.35001-1.3155-0.51326-2.9451 0.26759-3.2538"/>
   <path d="m140.46 106.86c0.612-0.26759 1.3353 0.84709 1.7426 2.2128 0.42886 1.4501 0.56174 3.1856-0.10429 3.584-0.73405 0.43954-1.547-1.0984-1.8934-2.4156-0.34441-1.3173-0.48635-3.0564 0.25487-3.3812"/>
  </g>
  <path d="m160.75 87.892c0.81478-7.1877-4.6895-17.127-8.6145-21.461-3.9267-4.3324-10.838-10.817-16.771-7.85-2.5467 1.2742-6.0158 4.0272-7.1357 12.285-1.1216 8.2591-4.8941 49.176-11.639 70.427-6.7409 21.249-15.118 42.906-36.572 61.91-21.454 19.002-40.319 37.39-42.227 47.471 2.0442-0.54557 8.514-2.2487 10.829-2.5197-0.40739 5.4486 0.61378 19.955 1.976 20.501 1.3622 0.54378 11.17-8.3112 18.116-10.217 0.81837 5.1759 2.5897 14.576 5.4505 16.892 8.5804-16.482 24.858-42.5 37.322-61.502 12.805-19.524 14.916-27.38 19.411-43.521 6.328-22.724 8.173-88.063 9.397-103.8 4.0865 3.0635 15.782 14.16 20.458 21.382" fill="#e85377"/>
  <g fill="#c94768">
   <path d="m139.68 74.41c-3.5409 24.246-10.352 88.541-17.163 103.8-10.806 24.207-49.855 79.822-48.492 96.712 5.5833-10.625 23.566-40.251 29.898-49.241 6.3352-8.9913 19.785-31.348 22.272-38.006 6.3352-16.958 10.298-51.475 11.238-75.395 0.47566-12.123 1.976-32.556 2.247-37.868"/>
   <path d="m68.935 256.64c-0.75735-2.2505-2.5754-3.173-4.72-1.7426-1.4447 0.96196-9.3988 6.5398-13.724 13.638 2.911-1.2778 13.941-9.1619 18.134-9.9085 0.20461-0.43802 0.6066-1.1037 0.31047-1.9868"/>
   <path d="m49.231 244.95c-0.0682-1.2258-0.81658-1.294-1.8396-0.74839-1.3191 0.70352-7.1518 4.2893-9.7398 6.538 3.2699-0.95295 8.5822-2.1805 10.966-2.5879z"/>
  </g>
  <g fill="#0f141b">
   <path d="m48.791 247.25c-3.1622 0.65865-6.0768 1.1791-9.9587 2.4156 4.4024-12.082 23.92-29.435 38.471-42.299 28.914-25.562 36.457-52.579 40.921-68.476 4.3396-15.45 7.0639-37.179 8.7384-52.053 0.93143-8.2771 1.7498-15.687 2.7225-19.578 2.0046-8.0151 8.4637-10.361 13.717-7.4282 8.1963 4.5746 16.789 16.721 16.931 27.827l0.98704 1.1899c0.99248-12.015-8.6809-25.432-17.304-30.246-5.0269-2.8069-13.225-2.0083-15.775 8.1873-0.98703 3.9501-1.8108 11.136-2.7835 19.788-1.6691 14.84-4.6052 36.405-9.0201 51.752-4.537 15.772-11.795 41.911-40.504 67.295-16.796 14.847-35.569 31.057-39.704 45.253-0.31943 1.0965 0.38404 1.2347 1.0948 1.0032 4.1493-1.3496 7.9989-2.5 11.324-3.2035z"/>
   <path d="m139.34 70.732c-0.73405 4.7057-2.5485 43.616-3.173 52.234-2.0908 28.932-5.3518 47.88-11.14 63.875-3.8119 10.533-13.932 25.933-25.14 43.485-9.8169 15.379-19.497 30.653-25.948 43.39-2.4982-4.0811-3.8299-10.851-4.9569-16.901-0.31408-1.678-1.4734-1.6547-1.3532 0.0539 0.48456 6.8611 2.5556 15.818 5.4666 19.399 0.87761 1.0786 1.346 0.85782 1.8342-0.10785 6.468-12.782 16.337-28.826 26.757-44.765 11.427-17.475 21.648-33.2 25.463-43.695 5.4038-14.858 8.6109-35.592 10.709-64.614 0.62452-8.6325 2.0477-46.477 2.7746-51.129z"/>
   <path d="m68.447 257.58c-6.5291 2.211-16.558 9.8366-17.414 10.039-1.2904-2.2128-1.9885-16.841-1.6655-22.062 0.11303-1.8414-0.86683-1.8647-1.2365-0.0611-1.0732 5.2154-0.66045 23.893 1.9993 24.697 1.5686 0.47362 10.978-8.0671 18.437-11.233z"/>
  </g>
  <path d="m178.61 86.37c-0.32661-2.3187-0.4487-3.3776-0.32661-4.8026-0.32507 0.77353-0.9763 1.9131-1.0983 2.7674 0-0.69095-0.16331-1.7498 0-2.4408-0.48838 0.73226-1.4644 2.1967-1.9526 3.173 2.177-10.113 8.2161-23.577 13.62-34.632 5.9925-12.258 12.941-31.874 10.625-43.044-2.3152-11.17-7.186-13.622-12.091-15.154-4.9031-1.5326-11.834-0.29455-16.446 5.551-1.0212 1.294-3.1389 0.74656-2.0442-1.3622 1.7714-3.4045 8.8245-8.785 17.845-7.3546 9.8762 1.565 15.44 11.579 16.007 17.911 1.1916 13.349-2.4857 27.959-10.558 44.917-9.056 19.033-12.346 27.769-13.579 34.471" fill="#e85377"/>
  <path d="m158.24 84.713c-1.1504-0.93143-2.6292-1.5363-3.2879-1.7552 1.3137 1.2617 1.5883 2.4139 1.9167 3.1264-1.206-1.0965-2.1931-1.809-3.2897-2.3582 0.93144 1.5363 1.3711 3.3991 1.5901 4.9354-4.9677-6.9292-13.959-16.942-22.642-24.092-8.6845-7.1518-20.499-15.948-25.745-19.82-10.931-8.0708-31.468-26.773-30.343-42.295 0.44331-6.0947 5.4164-13.501 15.495-13.656 4.4257-0.0667 11.922 1.8395 14.711 4.4275 0.95478 0.88479 0.54556 2.5897-1.4986 1.635-2.0441-0.953-9.1942-3.9501-14.234-3.0654-5.0395 0.88661-10.42 4.1547-10.829 10.761-0.40917 6.608 2.2918 17.823 27.99 38.277 10.014 7.9684 17.145 12.238 26.906 20.637 5.6173 4.8349 17.198 14.883 23.259 23.243" fill="#e85377"/>
  <path d="m194.36 48.69c11.595-26.12 12.085-44.81 3.0581-54.205-10.074-10.476-24.327-5.8901-28.853 1.9131-1.3047 2.2488 1.2491 3.663 2.8105 1.6027 5.4163-7.1339 16.599-7.8859 23.114-0.85971 11.637 12.552-1.7229 43.422-4.5998 49.474-4.7039 9.8851-14.386 29.634-15.316 39.517-0.13634 1.4555 0.53299 1.5668 0.78787 0.12769 1.8449-10.42 11.143-29.207 15.82-39.038 4.1063-8.6324 15.874-38.116 4.1404-50.77-7.5197-8.1084-19.004-6.3478-24.655 1.0984-0.97274 1.2814-2.1483 0.40393-1.4645-0.78248 3.602-6.2078 17.414-11.793 27.353-1.4501 8.7473 9.1009 7.9325 27.008-3.4979 52.757-5.6873 12.814-16.055 32.737-15.298 43.763 0.0809 1.1343 0.78604 1.1935 0.78787 0.0575 0.0203-11.016 10.163-30.477 15.813-43.205" fill="#0f141b"/>
  <path d="m78.994-5.6167c-9.1547 12.85 1.4483 31.612 31.262 53.789 17.767 13.214 37.697 28.553 47.853 46.298 0.68379 1.197 1.2958 0.89012 0.65866-0.33373-9.4203-18.09-29.596-33.627-47.437-46.899-28.92-21.511-40.063-40.07-31.376-52.259 4.878-6.8485 17.85-7.5143 26.396-1.3784 0.8076 0.57969 0.29455 1.3855-0.51865 0.99604-10.565-5.0448-19.898-4.3054-24.331 2.159-11.635 16.969 26.391 44.962 30.765 48.099 13.909 9.9713 38.309 28.945 48.977 44.637 0.83095 1.2222 1.4088 0.81478 0.62634-0.43955-10-16.071-34.792-35.314-48.754-45.323-4.2983-3.0833-41.375-30.343-30.58-46.348 4.1098-6.093 12.57-6.6978 22.715-1.976 2.1285 0.99243 3.5535-1.1235 1.5829-2.6041-8.4296-6.3353-22.387-6.0679-27.839 1.5829" fill="#0f141b"/>
 </g>
</svg>
