<?xml version="1.0" encoding="UTF-8" standalone="no"?>
<svg
   version="1.1"
   viewBox="0 0 273.65 232.86"
   id="svg29"
   sodipodi:docname="355.svg"
   inkscape:version="1.3 (0e150ed, 2023-07-21)"
   xmlns:inkscape="http://www.inkscape.org/namespaces/inkscape"
   xmlns:sodipodi="http://sodipodi.sourceforge.net/DTD/sodipodi-0.dtd"
   xmlns="http://www.w3.org/2000/svg"
   xmlns:svg="http://www.w3.org/2000/svg">
  <defs
     id="defs29" />
  <sodipodi:namedview
     id="namedview29"
     pagecolor="#505050"
     bordercolor="#eeeeee"
     borderopacity="1"
     inkscape:showpageshadow="0"
     inkscape:pageopacity="0"
     inkscape:pagecheckerboard="0"
     inkscape:deskcolor="#d1d1d1"
     inkscape:zoom="1.0134845"
     inkscape:cx="107.54975"
     inkscape:cy="161.32462"
     inkscape:window-width="1072"
     inkscape:window-height="724"
     inkscape:window-x="0"
     inkscape:window-y="25"
     inkscape:window-maximized="0"
     inkscape:current-layer="svg29" />
  <path
     d="m 260.56212,83.15 8.5,-1.6 q 3.6,-0.35 4.4,1.05 0.55,0.95 -0.5,2.85 l -3.2,4.3 q -7.35,8.6 -15.8,13.15 -3.7,2 -9.8,3.85 -7.3,2.3 -6.8,4.25 0.25,0.8 2.8,2 1.8,0.75 1.3,2.35 -1.2,4 -10.75,7.7 -11,4.2 -22.15,2.25 -8.45,-1.5 -18.7,-9.7 -11.4,-9.05 -12,-17.35 -0.35,-5.25 3.25,-9.6 3.85,-4.65 11.45,-7.15 6.8,-2.2 15.75,-1.2 5.2,0.6 15.55,2.75 l 13.35,1.95 q 11.45,0.75 23.35,-1.85"
     fill="#0f141b"
     id="path1" />
  <path
     d="m 268.16212,88.4 q -7.1,8.35 -15.15,12.75 -4.25,2.3 -9.35,3.6 -4.35,1.05 -6.6,3.15 -1.45,1.35 -1.85,2.8 -0.35,1.25 2.2,2.8 1.95,1.15 -0.25,2.9 -4.55,3.55 -11.3,5.6 -8.7,2.7 -16.95,1.25 -7.8,-1.35 -17.6,-9.1 -10.85,-8.5 -11.4,-16.05 -0.5,-8.5 13.85,-13.15 6.75,-2.15 14.9,-1.8 4.9,0.25 14.85,1.95 l 17.1,2.2 q 9.25,0.55 20.35,-2.1 7.9,-1.95 8.95,-0.55 0.65,0.9 -1.75,3.75"
     fill="#737162"
     id="path2" />
  <path
     d="m 179.91212,98.1 q -0.25,-3.25 1.8,-5.95 2.65,4.3 5.2,7.15 9.25,12.4 23.75,17.05 15.4,4.9 27.3,-2.5 0.6,0.5 0.5,1.05 -0.15,0.65 -1.3,1.5 -4.55,3.55 -11.3,5.6 -8.7,2.7 -16.95,1.25 -7.8,-1.35 -17.6,-9.1 -10.85,-8.5 -11.4,-16.05"
     fill="#5a5549"
     id="path3" />
  <path
     d="m 170.16212,0 q 8,0 13.1,3.55 2.2,1.55 1.55,2.85 -0.75,1.45 -5.15,2.15 -7.85,1.15 -10.4,5.15 -1.4,2.2 -0.8,6.8 l 1.2,8.45 q 0.9,10.9 -10.1,15.05 25.85,15.75 39.6,36.25 13.55,20.25 13.95,43.15 0.4,24.55 -11.65,41.2 -12.6,17.4 -39.25,26.75 -10.1,5.3 -20.3,8.5 -9.7,3 -20.95,4.5 6.85,11.85 5.75,18.95 -0.55,3.65 -4,6.85 -2,1.8 -5.45,2.25 -4.2,0.6 -9.5,-1.05 -8.149999,-2.5 -11.299999,-2.75 -3.55,-0.3 -8.35,1.35 -9.65,3.35 -16.1,2.85 -7.75,-0.6 -11.45,-6.75 -3.45,-5.7 -5.4,-6.85 -2.5,-1.45 -9.5,-1.2 -9.7,0.3 -17.8,-1.25 -12.65,-2.4 -18.05,-8.8 -4.45,-5.35 -5.25,-8.75 -1.1,-4.6 7.1,-0.85 8.9,4.05 13.8,1.65 2.85,-1.4 6.4,-7.3 l 3.65,-5.9 q 2.55,-3.35 6.1,-4.75 -5.5,-3.85 -8.9,-9.75 -2.05,-3.55 -3.95,-9.4 l -0.05,-0.1 q -9.05,-2.25 -12.85,-5.85 -2.95,-2.75 -3.4,-7.05 -0.05,-4.95 -0.45,-7.3 -0.6,-4.05 -3.85,-6.45 -3.75,-2.85 -5.25,-4.85 -3.1,-4.15 -2.9,-9.75 0.35,-9.35 8.9,-18.1 7.6,-7.85 17.85,-11.65 12.6,-23.2 29.2,-34.9 12.35,-8.65 31.1,-13.15 l 1.5,-0.5 q 3.35,-4.3 7.9,-7.6 6.599999,-4.9 13.549999,-5.7 5.75,-4.85 12.5,-6 2.2,-0.35 8.85,-0.2 4.9,0.15 8.95,-1.5 4.35,-1.85 5.95,-5.2 3.35,-6.95 10.4,-12 7.05,-5.05 13.5,-5.05"
     fill="#0f141b"
     id="path4" />
  <path
     d="m 170.36212,2.05 c 3.5,-0.3666667 6.4,-0.1333333 8.7,0.7 1.83333,0.6666667 2.8,1.4166667 2.9,2.25 0.0667,0.7333333 -0.78333,1.2333333 -2.55,1.5 -5.6,0.7333333 -9.55,2.7333333 -11.85,6 -1.93333,2.733333 -2.45,6.233333 -1.55,10.5 1.26667,5.766667 1.11667,10.183333 -0.45,13.25 -1.53333,3.066667 -4.68333,5.2 -9.45,6.4 l -2.35,0.6 c -3.00883,0.370652 -6.05,0.15 -6.05,0.15 -3.1,-0.3 -4.43333,-0.15 -4,0.45 0.4,0.6 1.68333,1.066667 3.85,1.4 3.20505,0.436062 8.6,-0.5 8.6,-0.5 14.93333,9.433333 26.85,19.8 35.75,31.1 8.86667,11.3 14.36667,23.116667 16.5,35.45 1.76667,10.06667 1.63333,19.8 -0.4,29.2 -2.16667,10.03333 -6.4,19.08333 -12.7,27.15 -5.6,7.13333 -16.93333,14.35 -34,21.65 -15.36667,6.6 -29.63333,11 -42.8,13.2 -4.9,0.4 -10.31667,0.3 -16.25,-0.3 -5.333333,-0.56667 -9.249999,-1.3 -11.749999,-2.2 l -3.15,-0.05 c -0.1,0.7 0.75,1.31667 2.55,1.85 5.333333,1.56667 10.166669,2.6 14.499999,3.1 4.56667,0.5 9.16667,0.5 13.8,0 2.96667,5.4 4.7,9.38333 5.2,11.95 0.43333,2.2 0.41667,4.3 -0.05,6.3 -0.5,2.03333 -1.4,3.65 -2.7,4.85 -2.73333,2.6 -6.83333,3.06667 -12.3,1.4 -5.6,-1.73333 -9.549999,-2.68333 -11.849999,-2.85 -2.6,-0.23333 -5.616667,0.25 -9.05,1.45 -5.4,1.9 -10.1,2.56667 -14.1,2 -4,-0.56667 -7.6,-2.38333 -10.8,-5.45 -0.7,-0.66667 -1.45,-1.66667 -2.25,-3 -1.266667,-2.03333 -2.6,-3.4 -4,-4.1 -2.266667,-1.2 -5.833333,-1.71667 -10.7,-1.55 -8.033333,0.26667 -15.083333,-0.41667 -21.15,-2.05 -6.033333,-1.66667 -10.383333,-4.08333 -13.05,-7.25 -2.1333333,-2.53333 -3.35,-4.45 -3.65,-5.75 -0.3666667,-1.53333 0.7166667,-1.71667 3.25,-0.55 6.533333,3.06667 11.7,3.61667 15.5,1.65 2.166667,-1.13333 4.55,-3.86667 7.15,-8.2 1.533333,-2.56667 2.833333,-4.41667 3.9,-5.55 1.8,-1.9 3.95,-3.23333 6.45,-4 1.033333,0.73333 2.966667,1.83333 5.8,3.3 1.733333,0.96667 2.983333,1.31667 3.75,1.05 0.766667,-0.23333 -0.216667,-1.13333 -2.95,-2.7 l -2.7,-1.6 c -4.3,-2.7 -7.933333,-6.23333 -10.9,-10.6 -2.533333,-3.73333 -4.233333,-7.46667 -5.1,-11.2 l -2.8,-2.6 c -5.1,-1.76667 -8.683333,-3.8 -10.75,-6.1 -1.533333,-1.7 -2.433333,-3.85 -2.7,-6.45 l -0.7,-6.55 c -0.270623,-2.53226 -2.216667,-4.58333 -4.75,-6.35 -1.4333333,-1 -2.6,-2.26667 -3.5,-3.8 -1,-1.7 -1.75,-3.86667 -2.25,-6.5 -0.2,-1.2 -0.3,-2.4 -0.3,-3.6 0,-5.36667 2.15,-10.5 6.45,-15.4 3.9,-4.46667 8.883333,-8 14.95,-10.6 -0.866667,1.9 -1.416667,3.85 -1.65,5.85 l -0.15,2.5 v 0.1 0 c -0.130819,1.91867 1.95,5.15 1.95,5.15 2.033333,3.63333 5.016667,6.66667 8.95,9.1 1.766667,1.06667 2.95,1.51667 3.55,1.35 0.666667,-0.16667 -0.183333,-1.15 -2.55,-2.95 -3.566667,-2.73333 -6.283333,-5.63333 -8.15,-8.7 -0.6,-1.03333 -1.233333,-2.45 -1.9,-4.25 v -0.3 c 0,-0.56667 0.216667,-1.68333 0.65,-3.35 0.5,-1.966667 1.2,-3.833333 1.9,-5.5 v 0 l 0.2,-0.35 c 8.8,-14.733333 18.683333,-25.933333 29.65,-33.6 6.8,-4.766667 16.166667,-9.2 28.1,-13.3 -4,4.866667 -7.766667,10.383333 -11.3,16.55 -2.9,5.1 -4.95,9.283333 -6.15,12.55 -1.2,3.333333 -1.683333,5.316667 -1.45,5.95 0.266667,0.7 1.333333,-1.166667 3.2,-5.6 4.933333,-11.5 11.4,-21.733333 19.4,-30.7 l 0.2,-0.25 c 5.5,-6.066667 11.166669,-9.9 16.999999,-11.5 -3.73333,3.566667 -6,6.766667 -6.8,9.6 -0.566666,1.9 -0.749999,3.016667 -0.549999,3.35 0.233333,0.4 0.966669,-0.45 2.199999,-2.55 1.26667,-2.166667 2.7,-4.133333 4.3,-5.9 1.4,-1.566667 3.21667,-3.283333 5.45,-5.15 l 4.1,-2.9 c 3.43333,-2.033333 6.96667,-3.216667 10.6,-3.55 l 5.15,-0.3 c 4.4,-0.233333 7.43333,-0.666667 9.1,-1.3 2.46667,-0.966667 4.91667,-3.033333 7.35,-6.2 l 1.4,-1.85 c 3.43333,-4.566667 6.21667,-7.7 8.35,-9.4 3.5,-2.8 7.73333,-4.4833333 12.7,-5.05"
     fill="#737162"
     id="path5"
     sodipodi:nodetypes="cccccccccccccccccccccccccccccccscccccscccccccccccccccscccsccccccccccccscccccccccccccccccccccccccc" />
  <path
     d="m 33.662121,193.75 c 1.533333,-2.56667 2.833333,-4.41667 3.9,-5.55 1.8,-1.9 3.95,-3.23333 6.45,-4 1.033333,0.73333 2.966667,1.83333 5.8,3.3 1.733333,0.96667 2.983333,1.31667 3.75,1.05 0.766667,-0.23333 -0.216667,-1.13333 -2.95,-2.7 l -2.7,-1.6 c -4.3,-2.7 -7.933333,-6.23333 -10.9,-10.6 -2.533333,-3.73333 -4.233333,-7.46667 -5.1,-11.2 l -2.8,-2.6 c -5.166667,-1.8 -8.783333,-3.86667 -10.85,-6.2 -1.5,-1.7 -2.366667,-3.88333 -2.6,-6.55 3.533333,4.33333 9.633333,7.26667 18.3,8.8 5.668802,1.22097 12.763808,1.02327 16.95,0.5 2.866667,-0.56667 4.116667,-0.43333 3.75,0.4 -0.333333,0.76667 -1.583333,1.68333 -3.75,2.75 18.333333,17.43333 37.95,28.28333 58.849999,32.55 18.5,3.73333 37.08333,2.18333 55.75,-4.65 -7.76667,3.53333 -15.91917,6.79 -24.51917,9.52334 -8.33333,2.63333 -15.86416,4.39333 -22.53083,5.52666 -4.9,0.4 -10.3,0.3 -16.2,-0.3 -5.333333,-0.56667 -9.249999,-1.3 -11.749999,-2.2 l -3.15,-0.05 c -0.1,0.7 0.75,1.31667 2.55,1.85 5.333333,1.56667 10.166669,2.6 14.499999,3.1 4.56667,0.5 9.16667,0.5 13.8,0 2.96667,5.4 4.7,9.38333 5.2,11.95 0.43333,2.2 0.41667,4.3 -0.05,6.3 -0.5,2.03333 -1.4,3.65 -2.7,4.85 -2.73333,2.6 -6.83333,3.06667 -12.3,1.4 -5.6,-1.73333 -9.549999,-2.68333 -11.849999,-2.85 -2.6,-0.23333 -5.616667,0.25 -9.05,1.45 -5.4,1.9 -10.1,2.56667 -14.1,2 -4,-0.56667 -7.6,-2.38333 -10.8,-5.45 -0.7,-0.66667 -1.45,-1.66667 -2.25,-3 -1.266667,-2.03333 -2.6,-3.4 -4,-4.1 -2.266667,-1.2 -5.833333,-1.71667 -10.7,-1.55 -8.033333,0.26667 -15.083333,-0.41667 -21.15,-2.05 -6.033333,-1.66667 -10.383333,-4.08333 -13.05,-7.25 -2.1333333,-2.53333 -3.35,-4.45 -3.65,-5.75 -0.3666667,-1.53333 0.7166667,-1.71667 3.25,-0.55 6.533333,3.06667 11.7,3.61667 15.5,1.65 2.166667,-1.13333 4.55,-3.86667 7.15,-8.2"
     fill="#5a5549"
     id="path6"
     sodipodi:nodetypes="ccccccccccccccccccccccccccccccccscccccscccc" />
  <path
     d="m 75.812121,53.75 q -2.7,4.85 -3.65,7.35 1.3,0.5 1.8,1.35 0.55,0.9 0.55,2.65 0,1.4 -2.05,5.7 -2.65,5.45 -5.5,5.25 l -3.9,0.5 -3.2,0.55 q -8.95,5.6 -11.15,6 -4.95,1.05 -4.95,-4.05 0,-2.7 2.35,-6.45 2.35,-3.75 5.6,-6.15 0.55,-2.05 3.05,-5.35 1.4,-1.8 4.5,-5.25 l 21.15,-8.65 q -1.45,1 -4.6,6.55"
     fill="#0f141b"
     id="path7" />
  <path
     d="m 72.262121,56.2 q -1.8,3.55 -2.25,5.1 l -0.15,0.55 0.55,0.1 q 2.35,0.45 2.35,3.95 l -0.05,0.75 q -0.25,2.75 -1.75,4.95 -1.7,2.3 -3.9,2.35 l -4.4,0.5 -3.3,0.4 -0.15,0.05 -3.85,2.75 q -3.7,2.9 -6.2,3.55 -2.85,0.75 -3.5,-1.65 l -0.1,-0.9 q 0,-2.3 2.3,-5.6 2.35,-3.35 5.75,-5.75 l 0.2,-0.15 v -0.2 q 0.45,-1.95 2.3,-4.5 1.2,-1.65 3.7,-4.4 2.5,-1.55 5.75,-3.4 6.6,-3.65 10.7,-5.1 -1.85,2.35 -4,6.65"
     fill="#e6e2c8"
     id="path8" />
  <path
     d="m 36.312121,88.55 q -3.55,6.2 -5.8,5.9 -1.4,-0.2 -1.7,-3.9 V 90.4 l 0.05,-0.15 q 4.4,-7.1 12.1,-16.65 l 1.2,-0.35 q -2.1,8.75 -5.85,15.3"
     fill="#0f141b"
     id="path9" />
  <path
     d="m 39.862121,76.6 q -2.65,7.7 -5.45,12.25 -2.45,3.95 -3.7,3.8 -0.7,-0.1 -0.85,-2 3.3,-5.3 10,-14.05"
     fill="#e6e2c8"
     id="path10" />
  <path
     d="m 28.576377,159.66144 c 1.933334,0.8 4.902411,1.37189 9.035744,1.33856 4.1,0 7.416667,-0.41667 9.95,-1.25 2.4,-0.76667 3.583333,-0.85 3.55,-0.25 -0.06667,0.56667 -1,1.21667 -2.8,1.95 -3.466667,1.46667 -7.133333,2.25 -11,2.35 -3.4,0.1 -6.266667,-0.35 -8.6,-1.35 l -0.135744,-2.78856"
     id="path11"
     style="fill:#0f141b"
     sodipodi:nodetypes="cccccccc" />
  <path
     d="m 174.91212,183.3 -0.9,1.75 q -11.15,5.3 -21.2,7.35 -9.3,1.9 -19.55,1.4 -3.2,-0.2 -3.95,-0.75 -0.85,-0.6 5.1,-0.75 8.8,-0.2 17.95,-1.9 12.5,-2.35 22.55,-7.1"
     id="path12"
     style="fill:#0f141b" />
  <path
     d="m 197.91212,157.1 q -1.35,2.1 -7.1,8.3 5,7.7 3.3,10.45 -1.6,2.55 -6.3,5.55 -4.35,2.7 -6.55,3.1 -3.25,0.55 -8.25,-7.6 l -4.7,1.65 0.4,6.2 q 0,2.85 -0.75,4.15 -1.3,2.15 -10.85,3.2 -9.25,1.05 -11.65,-0.2 -2.95,-1.45 -2.95,-11.35 l 0.05,-1.35 -3.6,-0.15 q -0.15,2.9 -0.65,5.65 -0.75,3.95 -1.85,5.3 -1.5,1.9 -3.7,2.05 -4.7,0.3 -11.25,-1.25 -7.15,-1.65 -9.65,-4.1 -1.05,-1 -1.05,-4.25 0,-2.3 0.95,-5.85 -27.199999,-8.95 -27.199999,-40.25 0,-29.95 15.999999,-53.3 16.1,-23.5 40.7,-29 10.2,-2.15 2.95,1.3 28.1,4.1 46.25,32.55 7.5,11.85 11.25,25.2 3.6,12.85 2.65,23.25 -1.1,12.3 -6.45,20.75"
     id="path13"
     style="fill:#0f141b" />
  <path
     d="m 188.61212,165.85 1.75,2.8 c 1.2,2.06667 1.98333,3.73333 2.35,5 0.0694,0.35459 -0.0108,0.6529 -0.35,1.1 -0.86667,1.4 -2.75,3.01667 -5.65,4.85 -2.66667,1.7 -4.6,2.65 -5.8,2.85 -0.56667,0.1 -1.55,-0.65 -2.95,-2.25 -1.3,-1.5 -2.5,-3.2 -3.6,-5.1 l -0.45,-0.8 -0.85,0.35 -5.35,1.9 -0.9,-2.45 c -0.26667,-0.7 -0.6,-0.98333 -1,-0.85 -0.4,0.13333 -0.51667,0.53333 -0.35,1.2 l 0.85,5.4 c 0.4,4.46667 0.35,7.13333 -0.15,8 -0.66667,0.86667 -3.81667,1.61667 -9.45,2.25 -5.63333,0.6 -9.08333,0.58333 -10.35,-0.05 -0.63333,-0.3 -1.11667,-1.7 -1.45,-4.2 -0.3,-2.33333 -0.38333,-4.85 -0.25,-7.55 l 0.05,-1.05 h -5.8 c 0.1,-1.86667 -0.15,-2.91667 -0.75,-3.15 -0.6,-0.23333 -1,1.03333 -1.2,3.8 -0.33333,5.83333 -1.05,9.43333 -2.15,10.8 -0.76667,0.83333 -4,0.8 -9.7,-0.1 -6,-0.93333 -9.93333,-2.31667 -11.8,-4.15 -0.4,-0.4 -0.51667,-1.46667 -0.35,-3.2 0.16667,-1.56667 0.51667,-3.23333 1.05,-5 l 0.35,-1.1 -0.2,-0.05 0.9,-2.55 c 0.4,-1.13333 0.43333,-1.81667 0.1,-2.05 -0.33333,-0.2 -0.7,0.1 -1.1,0.9 l -1.6,3.25 c -3.76667,-1.2 -7.4,-3.36667 -10.9,-6.5 -5.866666,-5.26667 -9.883332,-12.33333 -12.049999,-21.2 -2.533333,-10.33333 -1.4,-22.8 3.4,-37.4 4.799999,-14.6 11.866669,-27.033333 21.199999,-37.3 6.96667,-7.633333 14.96667,-12.75 24,-15.35 l 2.95,0.05 2.85,0.45 c 14.1,2.033333 26.88333,10.066667 38.35,24.1 11.33333,13.9 17.71667,29.18333 19.15,45.85 0.96667,10.9 -0.83333,20.33333 -5.4,28.3 -2.3,4 -4.71667,6.95 -7.25,8.85 l -0.6,0.6 0.45,0.75"
     fill="#e6e2c8"
     id="path14"
     sodipodi:nodetypes="ccccccccccccscccccccccsccccccccscccccscccccccccc" />
  <path
     d="m 183.46212,151.75 c -1.23333,4.66667 -5,9.51667 -11.3,14.55 -6.5,5.13333 -14.03333,9.1 -22.6,11.9 l 0.5,5.6 c 0.4,3.63333 0.41667,5.86667 0.05,6.7 -1.57255,0.21584 -3.53416,-0.28041 -3.75,-0.45 -0.53333,-0.26667 -0.96667,-1.38333 -1.3,-3.35 -0.3,-1.83333 -0.45,-3.95 -0.45,-6.35 l 0.1,-3.1 h -5.8 l 0.05,-0.4 c -0.0333,-1.73333 -0.31667,-2.65 -0.85,-2.75 -0.56667,-0.0667 -0.95,1.2 -1.15,3.8 -0.33333,5.83333 -1.05,9.43333 -2.15,10.8 -0.76667,0.83333 -4,0.8 -9.7,-0.1 -6,-0.93333 -9.93333,-2.31667 -11.8,-4.15 -0.36667,-0.3 -0.55,-0.9 -0.55,-1.8 0,-0.93333 0.23333,-2.45 0.7,-4.55 0.46667,-2.3 1,-4.15 1.6,-5.55 0.46667,-1.13333 0.51667,-1.8 0.15,-2 -0.36667,-0.23333 -0.75,0.05 -1.15,0.85 l -1.6,3.25 c -3.76667,-1.2 -7.4,-3.36667 -10.9,-6.5 -5.866666,-5.26667 -9.883332,-12.33333 -12.049999,-21.2 -0.766667,-3.13333 -1.183333,-6.63333 -1.25,-10.5 -0.06667,-10.23333 2.266667,-21.26667 7,-33.1 4.799999,-12.033333 11.083329,-22.333333 18.849999,-30.9 6.96667,-7.633333 14.96667,-12.75 24,-15.35 l 2.2,-0.05 c 6.76667,3.966667 13.23333,9.383333 19.4,16.25 6.3,6.966667 11.58333,14.683333 15.85,23.15 9.83333,19.43333 12.46667,37.86667 7.9,55.3"
     fill="#c1bea9"
     id="path15"
     sodipodi:nodetypes="ccccccccccccccccsccccccccccccccc" />
  <path
     d="m 151.36212,106.7 q 7.3,9.65 7.5,25.9 0.3,25.4 -25.75,30.4 v -0.05 l -0.8,0.1 q -16.6,2.5 -24.75,-6.05 -7.5,-7.8 -7.5,-24.4 0,-14.8 9.4,-25.5 9.15,-10.45 21.05,-10.45 13.2,0 20.85,10.05"
     fill="#0f141b"
     id="path16" />
  <path
     d="m 145.31212,111.05 -0.6,0.1 q -6.95,1.6 -11.2,6.75 -4.25,5.2 -4.25,12.25 0,7.1 4.1,12.1 4,4.95 11,6.6 l 0.6,0.15 -0.25,0.5 -2.9,5.25 -0.2,0.3 -0.35,-0.1 q -8.5,-1.8 -14,-9.05 -5.35,-7.1 -5.35,-15.85 0,-8.7 5.1,-15.45 5.25,-6.9 14.2,-9.45 l 0.3,-0.05 0.2,0.25 q 2,2.65 3.3,5.1 l 0.3,0.6"
     fill="#f9dbe8"
     id="path17" />
  <path
     d="m 130.81212,143.5 q 4.9,6.2 11.95,7.6 l -1.6,2.75 q -7.95,-1.95 -13.1,-8.8 -5,-6.7 -5,-15 0,-8.2 5.15,-15 5.15,-6.85 12.95,-8.85 l 0.75,1.55 0.6,1.55 q -7.45,1.7 -12.05,7.6 -4.55,5.8 -4.55,13.15 0,7.3 4.9,13.45"
     fill="#f9dbe8"
     id="path18" />
  <path
     d="m 136.76212,130.05 q 0,4.4 2.9,7.7 2.85,3.25 7.1,3.85 -0.9,3.95 -2.6,7.8 -6.7,-1.5 -11.05,-6.9 -4.45,-5.45 -4.45,-12.45 0,-7.1 4.5,-12.55 4.45,-5.4 11.25,-6.85 1.75,3.55 2.75,7.75 -4.4,0.55 -7.4,3.85 -3,3.35 -3,7.8"
     fill="#f3b3cf"
     id="path19" />
  <path
     d="m 136.76212,130.05 q 0,-4.45 3,-7.8 3,-3.3 7.4,-3.85 2.55,11.15 -0.4,23.2 -4.25,-0.6 -7.1,-3.85 -2.9,-3.3 -2.9,-7.7"
     fill="#ffffff"
     id="path20" />
  <path
     d="m 169.56212,115.05 q 4.95,6.7 4.95,15.05 0,4.4 -1.5,8.65 -4.1,-9.7 -3.45,-23.7"
     fill="#f9dbe8"
     id="path21" />
  <path
     d="m 170.01212,116.65 -0.05,2 q 0,10.35 3,18.45 1.05,-3.65 1.05,-7 0,-7.2 -4,-13.45 m -0.9,-1.6 0.05,-1.35 0.8,1.05 q 5.05,6.9 5.05,15.35 0,4.45 -1.55,8.85 l -0.45,1.15 -0.45,-1.15 q -4.2,-10 -3.45,-23.9"
     id="path22"
     style="fill:#0f141b" />
  <path
     d="m 186.31212,162.9 c -0.53333,-0.5 -0.68333,-0.86667 -0.45,-1.1 0.26667,-0.23333 0.7,-0.16667 1.3,0.2 0,0 1.30288,1.06593 1.85,1.7 0.36843,0.42698 0.95,1.4 0.95,1.4 l -0.22631,2.07631 c -1.6,-2.1 -2.69036,-3.57631 -3.42369,-4.27631"
     id="path23"
     style="fill:#0f141b"
     sodipodi:nodetypes="cccaccc" />
  <path
     d="m 147.21212,177.25 c 0,0 1.61522,-0.19836 2.3,0.15 0.34806,0.17706 0.58333,0.43333 0.75,0.9 l 0.55,3.05 0.35,5.25 c 0.0333,1.73333 -0.1,2.46667 -0.4,2.2 -0.3,-0.23333 -0.58333,-0.96667 -0.85,-2.2 l -0.65,-4.2 -0.45,-3.4 -4.45,0.1 -2.85,-0.1 1.01542,-1.73875 4.68458,-0.0112"
     id="path24"
     style="fill:#0f141b"
     sodipodi:nodetypes="caccccccccccc" />
  <path
     d="m 130.91212,97.85 -1.8,-0.7 q 18.75,-0.4 25.05,16.8 3.55,9.65 2.85,24.9 -0.4,8.7 -7.05,15.45 -6.7,6.75 -16.85,8.7 l -0.15,-2.15 q 12.45,-7.1 12.95,-26.45 0.25,-11.95 -2.65,-20.8 -3.75,-11.4 -12.35,-15.75"
     id="path25"
     style="fill:#0f141b" />
  <path
     d="m 155.86212,132.35 q 0,11.8 -5.25,18.8 -4.9,6.55 -14.8,9.25 12,-9.05 12,-29.1 0,-10.35 -2.95,-18.5 -3.55,-9.75 -10.8,-14.55 12.2,1.75 17.75,13.45 4.05,8.55 4.05,20.65"
     fill="#c1bea9"
     id="path26" />
  <path
     d="m 198.61212,119.85 q 2.3,11.9 0.5,19.95 -1.95,8.5 -8.25,11.6 -6.65,3.3 -13.85,-3.4 -7.5,-6.95 -9.25,-19.45 -1.85,-13 1.45,-24.45 3.15,-11.15 8.2,-11.55 6.95,-0.55 12.7,6.7 5.9,7.45 8.5,20.6"
     fill="#0f141b"
     id="path27" />
  <path
     d="m 178.06212,94.4 q 5.65,-0.75 10.75,6.45 4.95,6.95 7.3,18.3 2.35,11.15 1,19.2 -1.4,8.65 -6.8,11.35 -1.85,0.9 -3.2,1.05 -1.65,0.25 -3.1,-0.5 3.65,-2.8 5.4,-8.65 1.6,-5.45 1.1,-11.9 -0.85,-11.1 -3.6,-18.5 -4,-10.6 -12.3,-15.1 0.9,-1.4 3.45,-1.7"
     fill="#c1bea9"
     id="path28" />
  <path
     d="m 169.96212,118.65 0.05,-2 q 3.15,4.9 3.85,10 0.65,4.95 -0.95,10.45 -2.95,-8.2 -2.95,-18.45"
     fill="#f9dbe8"
     id="path29" />
</svg>
