<?xml version="1.0" encoding="UTF-8"?>
<!-- Created with Inkscape (http://www.inkscape.org/) -->
<svg version="1.1" viewBox="0 0 254.72 309.37" xmlns="http://www.w3.org/2000/svg">
 <g transform="translate(18.922 2.9451)">
  <path d="m57.631 259.12c-18.29 7.6398-37.134 25.319-32.136 37.29 5.1264 12.269 33.059 12.425 50.937 4.9701 11.943-4.9843 21.727-13.675 25.362-22.508 1.0367-2.5418 0.46891-4.9559 0.46891-7.3558 0-2.0165-1.0224-3.7489-1.7752-5.5667-1.6472-3.9477-4.9985-7.0576-9.6988-8.9889-8.8185-3.6353-21.23-2.8258-33.158 2.1585" fill="#0f141b"/>
  <path d="m30.13 294.44c-4.2034-10.082 11.644-25.532 28.628-32.618 11.062-4.6294 22.92-5.453 30.929-2.1585 3.9619 1.6331 6.7594 4.1891 8.1085 7.4126 1.3348 3.2093 1.1928 7.015-0.44088 10.977-3.2944 8.0091-12.212 15.848-23.275 20.463-18.162 7.5831-39.932 5.5667-43.95-4.0755" fill="#686d70"/>
  <path d="m97.792 267.08c-1.3491-3.2235-4.1466-5.7796-8.1085-7.4126-8.0091-3.2945-19.852-2.4709-30.929 2.1584-3.6496 1.5194-7.2565 3.4365-10.622 5.6092 18.588 6.2766 26.541 19.895 21.13 32.846 1.6189-0.51098 3.2377-1.0934 4.814-1.7467 11.062-4.6293 19.98-12.468 23.275-20.477 1.6331-3.9619 1.7894-7.7535 0.44087-10.977" fill="#515457"/>
  <path d="m100.49 265.95" fill="#686d70"/>
  <path d="m63.086 69.568c-36.992 37.915-63.703 99.332-43.212 143.38 26.498 56.915 84.763 70.42 126.87 51.32 21.926-9.9546 49.119-23.899 60.593-53.522 11.957-30.886 5.6376-72.181-19.313-126.26-14.144-30.645-31.482-47.927-51.533-51.377-21.499-3.6921-46.194 8.5629-73.402 36.453" fill="#0f141b"/>
  <path d="m22.819 211.57c-19.881-42.701 6.376-102.63 42.587-139.75 26.413-27.066 50.142-39.023 70.534-35.515 18.929 3.2519 35.459 19.923 49.134 49.545 24.567 53.223 30.858 93.695 19.227 123.71-11.034 28.486-37.234 42.587-58.818 51.704-40.329 17.012-97.018 5.3678-122.66-49.702" fill="#686d70"/>
  <path d="m185.08 85.855c-13.675-29.622-30.204-46.279-49.134-49.545-20.392-3.5076-44.121 8.4492-70.534 35.53-33.03 33.854-57.753 86.665-46.762 128.09 62.837-107.94 126.43-88.625 151.42-42.63 10.366 19.1-1.7041 57.356-20.449 72.11-18.73 14.768-51.917 22.167-90.003 24.95 26.924 16.913 59.812 17.907 85.87 6.9156 21.585-9.1025 47.785-23.218 58.818-51.704 11.63-30.006 5.3394-70.477-19.227-123.71" fill="#515457"/>
  <path d="m58.645 148.86c0 5.5808 3.4933 10.111 7.7819 10.111 4.2743 0 7.7676-4.5299 7.7676-10.111 0-5.5808-3.4932-10.111-7.7676-10.111-4.2885 0-7.7819 4.5299-7.7819 10.111" fill="#0f141b"/>
  <path d="m60.631 148.86c0-4.2033 2.4992-7.6399 5.5666-7.6399 3.0673 0 5.5524 3.4366 5.5524 7.6399 0 4.2175-2.4851 7.6398-5.5524 7.6398-3.0673 0-5.5666-3.4223-5.5666-7.6398" fill="#00b8ee"/>
  <path d="m135.92 157.18c0 5.808 3.8767 10.537 8.6481 10.537 4.7713 0 8.6623-4.7288 8.6623-10.537 0-5.808-3.891-10.537-8.6623-10.537-4.7714 0-8.6481 4.7287-8.6481 10.537" fill="#0f141b"/>
  <path d="m137.95 157.39c0-4.3738 2.769-7.9239 6.1772-7.9239 3.4081 0 6.1913 3.5501 6.1913 7.9239 0 4.3737-2.7832 7.9238-6.1913 7.9238-3.4082 0-6.1772-3.5502-6.1772-7.9238" fill="#00b8ee"/>
  <path d="m97.612 165.19c-34.024-4.3168-55.609 12.255-60.281 33.243-0.69569 3.1383 0.0583 6.1062 2.2295 8.8185 10.224 12.752 51.548 17.041 68.83 17.041l3.2235 0.0109c14.854 0.0679 39.804 0.25577 44.831-11.19 3.3939-7.7677-10.04-41.735-58.833-47.927" fill="#0f141b"/>
  <path d="m111.63 221.06-3.2377-0.0109c-18.688 0-57.327-4.6435-66.302-15.819-1.5479-1.9454-2.0733-3.9193-1.5905-6.092 4.2317-19 18.546-26.512 29.821-29.466 24.581-6.447 57.682 2.8828 73.771 20.804 8.3926 9.3298 11.545 16.501 9.3866 21.315-4.2601 9.4716-28.713 9.3439-41.849 9.2729" fill="#fff"/>
  <g fill="#0f141b">
   <path d="m92.555 222.66 2.8401 0.0583c-2.1301-12.795 1.3064-46.478 3.5785-56.319l-1.9597 0.26979c-2.2863 9.9261-6.6174 43.013-4.4589 55.993"/>
   <path d="m62.818 217.07 2.7548 0.51098c-2.9679-11.147-2.1159-40.003 2.0307-48.282l-1.8461-0.511c-4.5441 9.1167-5.737 37.773-2.9395 48.282"/>
   <path d="m126.48 222.71 2.5844 1.1645c-0.7385-13.491 1.8603-36.694 3.0532-45.044l-2.0165-0.4117c-1.8745 13.164-4.3028 32.079-3.6211 44.291"/>
   <path d="m235.27 216.37c-9.841-87.021-73.53-219.31-96.961-219.31-20.42 0-108.8 89.903-144.8 160.66-16.643 32.718-17.239 37.035 2.3146 59.259 40.272 45.811 81.809 55.254 86.069 52.414 4.7429-3.1667 4.7287-17.041 5.6802-31.056 0.49696-7.3701 0.9652-14.343 1.988-18.958l0.22772-1.0224-0.89415-0.55362c-10.849-6.6316-41.962-28.784-56.333-51.818 13.263-49.503 71.641-103.19 85.7-108.8 29.367 23.431 55.211 108.07 58.761 139.32-31.738 16.387-53.323 19.795-66.274 21.84-8.0375 1.2639-12.468 1.9597-13.831 5.2116-1.0082 2.4425-1.4485 6.4044-1.4485 11.105 0 13.689 2.7265 33.897 6.3335 41.607 0.5964 1.2922 1.1643 2.6554 3.0814 3.3229 18.475 6.3477 80.687-7.5972 100.27-17.58 25.973-13.235 32.775-22.181 30.119-45.64"/>
  </g>
  <path d="m230.79 217.85-0.82319-6.6032c-2.0733-20.434-20.15-102.78-63.093-175.65l-1.0935-1.7894c-11.815-19.355-21.088-31.482-27.975-32.334-7.8528-0.99398-21.173 10.48-37.106 25.419-41.352 38.767-82.902 92.615-102.73 131.58-15.01 29.523-17.353 35.075-3.053 49.531 2.5134-11.346 9.5995-29.097 11.389-32.675 1.8887-3.7916 1.6473-1.1786 0.22661 4.2601-1.2922 4.9844-6.7736 19-9.3013 29.594-0.26924 1.1218 0.17052 2.84 0.85235 3.7063 6.2765 7.8954 17.68 18.688 28.174 26.001 2.3574-11.275 8.5487-24.368 10.537-28.074 2.059-3.8483 2.9111-3.266 0.78129 2.4283-1.8744 4.9986-5.5382 16.331-7.8529 26.64-0.46892 2.1159-0.21314 3.0246 1.2213 4.1323 24.595 18.759 44.703 24.78 48.409 22.309 3.5501-2.3715 4.5157-16.686 5.2968-28.188 0.46892-7.0149 0.93693-13.576 1.8744-18.361-11.772-7.3416-42.616-29.608-56.816-52.783l-0.327-0.54015 0.15649-0.59642c12.837-49.19 73.161-106.89 88.54-111.74l0.72391-0.22661 0.61104 0.45434c32.207 24.723 57.952 116.83 60.622 142.86l0.0993 0.97985-0.88057 0.45433c-32.661 17.026-54.814 20.505-68.063 22.593-6.5323 1.0224-10.849 1.704-11.588 3.4507-0.83771 2.0022-1.1928 5.4671-1.1928 9.713 0 12.809 3.3087 32.675 6.9582 40.5 0.25577 0.52557 0.9652 1.0224 2.0875 1.4059 15.28 5.2542 82.718-11.715 95.072-18.02 31.624-16.118 30.361-25.263 28.259-40.429" fill="#ffe792"/>
  <path d="m230.79 217.85-0.82319-6.6032c-2.0733-20.434-20.15-102.78-63.093-175.65l-1.0935-1.7894c-0.11393-0.19856-0.22661-0.38366-0.34048-0.5682 14.967 51.846 22.465 109.63 14.584 163.82 0 0.0393 0.0109 0.0993 0.0109 0.14191l0.0993 0.97991-0.31243 0.16996c-3.8199 25.476-11.062 50.156-22.564 73.019 19.909-4.3453 39.208-9.9972 45.271-13.093 31.624-16.118 30.361-25.263 28.259-40.429" fill="#dbc77f"/>
  <path d="m118.38 36.251c-30.971 16.529-93.453 97.472-101.26 123.35-1.7324 5.737-2.5276 8.5203 0.1851 12.951 9.7131 15.876 38.284 38.569 53.791 51.292 0 0 0.71034 0.54016 0.86599 0.6529 0.34048 0.52557 0.49696 1.8886 0.49696 3.7915 0 7.1996-2.0164 22.21-3.0956 30.318 0 0 9.0031 11.9 11.616 10.153 4.7572-3.1667 5.6518-16.401 6.5891-30.417 0.49697-7.3842 0.96521-14.342 1.988-18.972l0.22773-1.0082-0.88057-0.55362c-10.863-6.6316-41.977-28.799-56.362-51.832 8.8894-36.353 70.889-102.53 85.671-108.76 24.68 22.238 53.422 105.07 58.378 136.23 0.34046 2.1727 0.49696 3.0389-1.2354 3.9193-30.829 15.663-51.889 18.986-64.598 20.988-8.0516 1.2496-12.482 1.9454-13.831 5.2115-1.0224 2.4425-1.4627 6.3902-1.4627 11.105 0 13.689 3.6638 33.74 7.2706 41.465 1.5763 3.3655 7.5547 4.5868 18.816 3.8199l2.5844-0.17051-1.491-2.13c-3.0816-4.3596-10.537-38.199-7.4552-46.01 0.22661-0.59646 0.511-0.9652 0.75308-1.0224 38.355-8.0233 57.91-14.059 75.447-25.433 2.5418-1.6472 3.9619-1.9454 3.3086-6.163-10.182-66.103-44.802-136.47-70.15-161.59-2.1585-2.1301-3.7206-2.485-6.163-1.1786" fill="#0f141b"/>
  <path d="m120.98 38.62c8.0233 0.85235 57.1 74.865 69.028 162.43-12.993 10.153-37.39 18.915-74.68 26.711-0.88056 0.1851-2.0874 0.82314-2.8685 2.7974-0.65289 1.6473-0.92336 4.1182-0.92336 7.1003 0 11.985 4.4731 32.107 7.5972 39.491-11.46 0.51099-13.434-1.562-13.76-2.2579-4.8566-10.409-9.1167-42.161-5.7653-50.199 0.72391-1.7608 5.0553-2.4425 11.587-3.4649 12.994-2.0448 34.55-5.4246 66.188-21.613 1.988-1.0082 2.5702-3.3797 2.2863-5.3536-4.5158-30.645-34.152-113.86-57.981-139.52-2.8543-3.0815-3.9051-2.6981-9.9545 1.8887-12.425 9.4433-69.909 67.182-81.326 105.96-0.66748 2.2579-1.5052 3.2377 0.55362 6.376 14.697 22.451 44.121 43.681 55.552 50.809-0.92336 4.7857-1.3916 11.36-1.8745 18.361-0.7667 11.502-1.7324 25.816-5.2825 28.188-0.90878 0.61105-3.5643 0.73848-8.0233-0.35506 0.24119-1.8602 0.90878-6.9866 0.90878-6.9866 1.9597-14.669 3.0814-24.311 3.0814-30.077 0-3.7773-0.48238-5.8932-1.5194-6.6742l-0.9798-0.7239c-16.771-12.766-53.962-47.827-53.252-54.232 4.1607-37.504 92.402-129.61 101.41-128.66" fill="#ef8337"/>
  <g fill="#0f141b">
   <path d="m207.56 212.74c0.61005 5.4814 2.2578 18.361 3.0672 26.754 0.54014 5.7085-0.028 10.21 0.80955 14.612l1.8176-0.19856c-0.82408-4.3453 0.85235-10.096 0.36963-15.308-0.46891-5.2115-2.5987-21.798-4.0187-27.251-1.4343-5.453-2.6555-4.0898-2.0448 1.3917"/>
   <path d="m163.63 230.77c0.21316 2.5704 1.7466 17.552 2.3573 25.958 0.42629 5.7796 1.6046 9.3013 2.4709 13.845l1.4342-0.28382c-0.83771-4.4447-1.2354-9.8551-1.6615-15.578-0.61004-8.4778-2.0022-21.329-3.1809-26.782-1.1786-5.453-1.6331 0.28437-1.42 2.84"/>
   <path d="m82.359 222.48c0 12.042 10.395 22.266 23.459 22.266 13.05 0 24.979-9.0315 24.979-21.073 0-13.448-10.253-23.218-23.942-23.218-13.05 0-24.496 9.9828-24.496 22.025"/>
  </g>
  <path d="m86.101 222.3c0-10.437 9.3155-18.929 20.747-18.929 11.446 0 20.761 8.4919 20.761 18.929s-9.3155 18.929-20.761 18.929c-11.431 0-20.747-8.4918-20.747-18.929" fill="#686d70"/>
  <path d="m116.59 205.6c2.9395 16.998-7.8529 33.47-23.686 30.687 3.6921 3.0531 8.5771 4.9417 13.945 4.9417 11.446 0 20.761-8.4918 20.761-18.929 0-7.228-4.4731-13.519-11.019-16.7" fill="#515457"/>
  <path d="m52.285 245.27c0 13.05 11.701 23.218 24.751 23.218 13.05 0 24.041-9.7416 24.041-22.792 0-13.05-11.829-24.638-24.879-24.638-13.05 0-23.914 11.162-23.914 24.212" fill="#0f141b"/>
  <path d="m56.281 244.82c0-11.446 9.3155-20.747 20.747-20.747 11.446 0 20.761 9.3013 20.761 20.747 0 11.446-9.3155 20.747-20.761 20.747-11.431 0-20.747-9.3013-20.747-20.747" fill="#686d70"/>
  <path d="m86.639 226.44c5.6376 26.257-10.835 37.049-22.494 34.621 3.55 2.8116 8.0233 4.5157 12.894 4.5157 11.446 0 20.747-9.3155 20.747-20.761 0-7.9806-4.53-14.91-11.147-18.375" fill="#515457"/>
  <path d="m154.86 251.86c-10.366 10.267-16.771 23.445-16.118 33.4 0.35506 5.2826 2.3715 9.202 6.163 12.085 11.034 8.4066 34.82 2.0022 50.951-13.973 12.042-11.943 19.654-26.271 18.943-36.964-0.28439-4.4447-2.3857-9.7556-5.4387-12.085-11.687-8.8752-39.137 2.3148-54.501 17.538" fill="#0f141b"/>
  <path d="m147.77 294.67c-3.0247-2.3004-4.7714-5.7938-5.0553-10.111-0.58183-8.9038 4.9985-20.321 14.555-29.793 15.763-15.606 40.372-23.97 49.702-16.87 2.3147 1.7609 3.607 4.4448 3.8483 7.9808 0.62468 9.6562-6.7879 24.183-18.035 35.317-15.024 14.882-35.217 20.931-45.015 13.476" fill="#686d70"/>
  <path d="m210.82 245.88c-0.22773-3.5359-1.5195-6.2198-3.8484-7.9806-5.5807-4.246-16.657-2.9537-28.032 2.13 12.141 29.707-4.8992 54.686-26.47 56.986 10.665 3.2377 27.407-3.0246 40.315-15.819 11.247-11.133 18.659-25.66 18.035-35.317" fill="#515457"/>
 </g>
</svg>
