<?xml version="1.0" encoding="UTF-8"?>
<!-- Created with Inkscape (http://www.inkscape.org/) -->
<svg version="1.1" viewBox="0 0 120.85 120.23" xmlns="http://www.w3.org/2000/svg">
 <g stroke-width="2.014">
  <path d="m28.148 64.395c-2.2778-1.1379-7.188-2.1006-11.617 1.3957l-1.3232 1.2144c-1.2527-0.49343-2.7572-0.59614-4.7349-0.05035-6.759 1.865-10.721 6.9926-8.1567 7.9251 2.5638 0.93047 9.5746 2.3161 11.673 5.8124l6.8758-4.9746z" fill="#53B7D4"/>
  <path d="m8.3306 76.821c2.3362 0.90026 4.6161 2.1207 5.6654 3.8689l6.8758-4.9746 4.1227-5.9816c-5.9937 0.7049-16.039 2.4329-16.664 7.0873" fill="#459BB4"/>
  <path d="m19.669 71.263c0.62837-1.2567 2.1228-1.8368 2.1228-1.8368-1.6313-2.0966-5.5466-4.6664-7.8768-3.0351 1.9455 0.95262 4.4912 2.1892 5.754 4.8719" fill="#fff"/>
  <path d="m102.93 71.988c-0.93248-5.3613-4.2918-14.316-6.3884-16.18l-48.284-9.345c-1.1862 0.52565-3.9676 3.8246-5.3895 5.8104-1.6334 2.2819-14.362 11.975-18.41 14.916-7.3169 5.3109-12.473 12.608-11.826 21.981 0.30613 4.4409 2.9767 8.6119 5.9252 11.826l-0.09063-0.0282c-5.1196 1.7058-7.3128 6.8718-7.0611 8.636l34.276 2.4853 0.11883 0.23161c5.3593 2.5638 30.73 6.5536 47.408-6.4448z" fill="#53B7D4"/>
  <path d="m61.379 96.236c-1.72 0-2.7209-1.289-2.5779-3.1499-9.4517 5.0108-25.368 4.7832-34.228-1.863-5.7298-4.2979-10.026-11.744-1.4098-23.038-6.5757 5.2183-10.793 12.217-10.187 21.02 0.30814 4.4409 2.6424 8.5817 5.5909 11.796l-0.08862-0.0282c-4.1952 1.3977-7.2947 7.0047-7.0631 8.636l34.276 2.4853 0.11883 0.23161c5.3613 2.5638 30.73 6.5536 47.408-6.4448 0 0-1.9073-7.6411-6.2031-11.077-2.2597 5.3452-20.337 6.8738-25.636 1.432" fill="#459BB4"/>
  <path d="m48.913 58.856c3.4379 2.5779-0.29203-12.39-0.29203-12.39-1.1842 0.52565-3.885 3.7158-5.748 5.8124-0.65254 0.73511-2.6122 2.4249-5.0531 4.4368 4.9343-2.872 7.6552-0.43704 11.093 2.1409" fill="#459BB4"/>
  <path d="m59.949 91.745c-3.7924 4.8114-13.421 19.683-15.359 22.666-1.9395 2.9827-2.5981 3.7883-7.4558 4.6221-10.439 1.7904-25.58-0.26384-30.121-2.5336-3.0532-1.5266-1.7824-2.3503 0.29807-3.1318-0.29807-1.4924 5.2183-6.2635 16.7-7.9029-1.9878-5.7963-2.2335-20.734 7.3068-29.376 0 0 32.423 10.845 28.631 15.657" fill="#53B7D4"/>
  <path d="m24.543 88.321c-2.0664 7.0591-1.6475 13.878-0.52968 17.143-11.482 1.6394-16.998 6.4106-16.7 7.9029-2.9908 1.1238-3.1197 1.72-0.29807 3.1318 1.722 0.85998 4.9706 1.6898 8.9059 2.2899 0.4894-3.9313 21.286-3.7158 18.789-5.4882-7.6995-5.46-10.134-15.486-10.167-24.98" fill="#459BB4"/>
  <path d="m101.4 70.417c3.4298 3.7279 13.133 18.4 13.58 32.266 3.0291 2.2396 6.1004 3.8286 5.0511 6.0662-0.94255 2.006-10.712 7.2323-15.846 4.8638-9.8746-4.5557-14.567-11.883-16.654-17.697z" fill="#53B7D4"/>
  <path d="m118.52 105.26c-0.9788-0.80761-2.2597-1.6354-3.5326-2.5759-0.0221-0.67066-0.0705-1.3433-0.13493-2.016-0.91033 4.0179-2.1993 4.4469-1.4843 5.4499 0.78949 1.1057 4.0119-1.5749 5.1518-0.85796" fill="#459BB4"/>
  <path d="m88.407 94.323c-3.8226-3.9555-0.86803 1.5951-0.86803 1.5951 2.0865 5.8164 6.7811 13.141 16.654 17.697 5.1337 2.3685 14.904-2.8559 15.846-4.8618 0.0322-0.0705 0.0604-0.13695 0.0866-0.20543-13.917 8.3118-27.896-10.269-31.718-14.225" fill="#459BB4"/>
  <path d="m48.087 46.934c-4.5154 9.3792 3.3392 16.104 13.047 19.933 15.119 5.9675 34.101 0.92241 35.154-10.4z" fill="#fff"/>
  <path d="m48.087 46.934c-1.9274 4.0038-1.5951 7.5223 0.16716 10.539 1.3796-1.2003 5.0813-3.9132 6.9644-7.0712z" fill="#dcdddd"/>
  <path d="m50.322 41.395c-2.6746 3.6695-3.158 10.376-0.66261 14.118 9.1879 13.784 37.464 14.305 45.752 2.874 2.0503-2.8297 1.9415-8.5333 0.95866-10.714z" fill="#53B7D4"/>
  <path d="m96.685 51.344c-0.05035-1.5588-0.25981-2.9384-0.58205-3.6534l-45.774-6.2917c-2.6726 3.6675-3.158 10.374-0.66261 14.118-0.17925-2.5397 3.4016-6.4065 5.5506-5.6896 2.1489 0.71497 40.244-0.71698 41.468 1.5165" fill="#459BB4"/>
  <path d="m53.122 42.563s0.36051-0.40481 0.58406-0.76331c6.1991 0.54579 42.675 4.5698 42.675 4.5698 1.1379 2.3725-4.7107 12.471-22.869 10.533-17.157-1.8307-20.903-11.162-21.473-14.388z" fill="#fff"/>
  <path d="m62.205 43.389-8.4024-1.732-0.67469 0.94255-1.0815-0.09264c0.31217 1.7683 1.3333 5.1538 4.6725 8.0963 2.2758-1.9838 4.2435-4.459 5.4861-7.2141" fill="#dcdddd"/>
  <path d="m94.953 29.432c-3.0613-5.9514-33.918-10.882-37.317-4.8457s-3.742 16.082-3.742 16.082c-0.66261 2.4672 3.7501 9.8182 13.554 12.529 12.398 3.4298 26.996-0.14702 28.847-7.2585 0.64247-2.4692 0.8197-7.4357-1.0412-9.063 0.71296-0.38669 1.7743-3.4097-0.30009-7.4437" fill="#53B7D4"/>
  <path d="m95.255 36.884c1.3977-2.445 0.74921-5.4036-0.30009-7.4437-3.0593-5.9494-33.918-10.882-37.317-4.8457s-3.742 16.082-3.742 16.082c-0.42495 1.5749 1.2245 5.1377 5.0189 8.2151-0.11278-1.3454 1.6072-8.2191 8.338-7.5042 1.0916-3.9313 4.1025-3.8286 6.7308-2.8639 4.2959 1.577 9.7538 1.4763 13.319 0.288 2.5799-0.85998 2.7209 2.8619 0.57399 4.4389 3.6051-0.40079 5.5848 0.85796 6.3481 6.0883 1.0251-1.011 1.7482-2.1449 2.0724-3.3916 0.51156-1.9636 1.2708-7.0409-1.0412-9.063" fill="#459BB4"/>
  <path d="m87.843 17.65c-12.104 4.1287-21.812-5.5566-24.069 1.9435-0.91033 4.1368 1.2003 10.092 1.2003 10.092 7.3189-9.6793 24.778 2.878 25.809 4.9121 1.0292 2.0341-1.2849-14.922-2.9404-16.948" fill="#933000"/>
  <path d="m95.577 36.904 0.62837-15.909 15.745-0.34037c2.1066 2.8236 4.2737 0.20543 4.2697-0.56996 0-0.77338 2.2134 2.8377 1.5206 3.0371-0.69483 0.2014-2.9424 0.66462-1.9939 1.6132 0.94859 0.95061 2.878 0.61024 3.5104 0.4753 0.52968 1.3937-0.47329 2.8478-0.47329 2.8478s-2.8478-0.95061-3.1318 0.18932c-0.28397 1.1399 0.56795 2.1832 1.8972 1.9918-0.47329 1.5186-1.6132 2.1832-1.6132 2.1832s-1.4239-1.2326-2.3725-0.37863c-0.94859 0.85394-1.9254 3.0814 1.5105 2.2174 1.4823 1.0815 1.3957 2.3201 1.3373 2.3383-0.73108 0.20744-1.4239 1.8972-0.38065 2.5618-0.56794 0.28397-0.4894 0.58607-1.4219 0.85394s-1.7079-0.18932-1.7079-0.18932-0.38065-2.5638-1.8992-1.8992c-1.5186 0.66462-1.2346 1.5186-0.28398 1.7079 0.56795 0.56996 0.56795 1.7099 0.56795 1.7099s-1.9153-0.92241-1.8972 0.66261c8e-3 0.72705 1.4098 1.6092 1.4239 1.6132 0 0-2.0885 1.8025-3.0371 1.5186-0.0544-0.66261 0.0423-1.7421-0.40079-2.0039-0.31821-0.1873-0.99491 0.06646-1.8327 1.1077-0.75928 0.09466-1.5629-0.33634-1.5629-0.33634s0.38064-1.8992-0.9486-1.8025c-1.3272 0.09264-1.6132 1.6112-1.7079 2.7511-1.1399-0.18932-1.8972-0.56996-1.8972-0.56996s1.4219-1.0433 0.94658-1.8972c-0.47329-0.85394-1.3272-1.0433-1.8025 0s-0.85394 1.3272-0.85394 1.3272l-0.94859-0.66261 0.09466-2.0885s2.008 0.3746 1.6132-1.9939c-0.18932-1.1379-1.1379-1.2326-1.6132-0.94859-0.47329 0.28599-0.56996 0.75928-0.56996 0.75928z" fill="#fff"/>
  <path d="m110.62 21.819c0.0806-1.3433-1.0835-1.1198-2.8136-1.0815l-5.0753 0.10876c-2.1751 0.04834-4.3502 0.09264-6.5254 0.14098-0.06646 1.6857-0.13494 3.3714-0.2014 5.0592-0.05841 1.4642-0.1148 2.9284-0.1732 4.3925-0.0282 0.70087-0.05639 1.4038-0.08257 2.1026-0.02215 0.55184-0.21348 1.3735-0.07855 1.9032 0.18932 0.75726 1.2426 0.52364 1.8569 0.76733 0.49544 0.19737 0.54982 0.47933 0.83178 0.82373 0.45315 0.55184 1.9496-0.56795 2.6041-0.52364 0.67872 0.04834 1.4682 1.2487 2.0926 0.99492 1.4561-0.59413 0.85595-2.5819 2.163-3.4379 1.3534-0.88415 2.8317-0.62233 3.2728-2.5819 0.2155-0.95665-0.0644-1.3957 0.71296-2.1046 1.1278-1.0271 3.0351-1.0271 1.7361-3.1821-0.78144-1.295-1.0876-0.55989-0.55587-2.2678 0.143-0.45718 0.21751-0.82171 0.23564-1.1137" fill="#dcdddd"/>
  <path d="m44.019 18.154c-1.2285 2.2436-3.1056 2.0422-4.2818 0.31016-0.75928 0.75928-1.6152 1.1399-1.6152 1.1399s1.7099 1.3272 0.85595 2.5618c-0.85595 1.2326-2.0885 1.1399-2.7531 0-1.1399 0.28397-1.5186 2.0865-1.5186 2.0865s1.4078 1.0896 1.4239 1.9939c0.28397 0.47329 1.9918 0.56996 1.9918 0.56996s-0.75726-2.2778 0.85595-1.5186 1.0433 3.2264-0.85595 3.7964c0.28599 0.56795 0.94859 1.5186 0.94859 1.5186s1.6152-0.28599 0.95061 0.94859-2.3785 1.7965-3.5487-0.60621c-0.66462 0.75928-1.3876 2.0301-1.3876 2.0301l0.95061 3.0371s2.1832-1.4239 3.2264-0.09667c0.4753-1.7079 1.3292-2.7511 2.5618-2.0865 1.3756 0.73914 0.52163 3.5164-1.1963 2.8941-0.56996 0.38065-0.79754 1.7562-0.79754 1.7562l0.95061 0.94859s1.6132-1.5206 1.8025 0.18932c0.20946 1.8871-0.90429 2.8156-1.2608 2.9042 0.69282 0.79754 1.9254 1.2708 1.9254 1.2708s0.56795-2.4672 1.3272-1.9918c0.76129 0.47329 1.4239 1.3272 1.4239 1.3272s-0.66261-3.2264 1.0433-2.8458c1.7099 0.37863 1.8992 0.4753 1.4239 1.7079 0.75928 0.85394 1.6152 1.4239 1.6152 1.4239s1.8025-1.3292 3.2264-0.85394c0.47329-1.1399 0.66261-2.5618 1.9918-2.7531 1.3292-0.18932 2.449 0.66663 1.5004 1.6172-0.09869 0.34641 0.83782 1.873 0.87206 1.8952 0.62837 0.38266 2.4148 0.32627 2.5638 0.09466 0.14702-0.23161-0.61628-2.9404 1.1379-2.9425 1.0473-2e-3 1.8952 0.61226 2.3725 0.94859 0.37058 0.26383 1.9636-2.0523 1.4924-2.2174-0.55788-0.19737-2.5638-1.2326-2.2517-2.1469 0.31418-0.92443 1.3292-1.4239 2.1812-1.0433 1.3313-0.56996 1.1399-1.8045 1.1399-1.8045s-1.8045-2.2859 0.09264-3.4238l-0.52565-1.1862s-0.7915 0.26383-1.581 0c-0.78949-0.26182-0.72504-0.74719-0.92241-1.8428-0.19535-1.0956-19.353-9.6108-19.353-9.6108" fill="#fff"/>
  <path d="m61.218 35.836c0.85192-0.7331 1.4642-1.5689 4.2375 0.10473 0.34439 0.20946 1.3413-1.0936 0.85192-1.7119-2e-3 -2e-3 -1.8045-2.2859 0.09264-3.4258l-0.52565-1.1842s-0.7915 0.26383-1.581 0-0.72504-0.74719-0.92241-1.8428c-0.19536-1.0916-19.224-9.5544-19.353-9.6108 0.20946 0.09264-0.66865 0.8197-0.73511 0.88616-0.4169 0.4169-0.41488 0.55385-0.35245 1.1258 0.1289 1.1319-0.25981 2.012-1.2084 2.6826-0.46926 0.33432-0.61628 0.8922-0.64045 1.5226-0.0282 0.78546 0.68073 0.52364 1.5689 1.5689 0.56593 0.66462 0.17522 1.9636 1.0312 2.1308 1.0855 0.20946 2.1006-0.55184 2.9445 0.11883 1.0171 0.80963-0.29807 1.722 0.0282 2.7431 0.62837 1.9697 2.4772 2.3141 4.1972 2.3886 0.87408 0.03827 0.94457-0.44711 1.6736 0.46725 0.52364 0.65858 0.14098 1.3091 0.56593 2.0422 0.94859 1.6394 2.8961 0.40683 4.3079 0.69886 1.2547 0.25981 1.9979 1.6756 3.2385 1.8066 0.63844 0.06646 0.5901-0.19939 0.84185-0.68275 0.15105-0.29203-0.45718-1.6595-0.26182-1.8287" fill="#dcdddd"/>
  <path d="m80.915 23.732c-8.0258-1.9254-13.776 3.6111-15.27 5.2545-0.25376 0.27793 0.81567 1.6011 0.81567 1.6011s-0.70289 0.58003-0.74719 0.80157c1.1721 2.9243 4.8779 7.335 13.965 7.9472 7.8788 0.5317 11.158-3.6534 11.347-4.5073 0 0-0.72705-8.8455-10.11-11.097" fill="#ee869a"/>
  <path d="m91.086 34.93s-0.77338-8.9341-10.155-11.186c-8.0258-1.9254-13.776 3.6111-15.272 5.2545-0.25175 0.27592 0.81567 1.6011 0.81567 1.6011s-0.70289 0.58003-0.74719 0.80157c0.29203 0.72705 1.4481 1.9918 2.0986 2.8236 6.0158-6.1588 14.036-4.5839 18.045-1.863 1.6857 1.144 3.0069 3.8669 2.5779 5.1558 2.0059-1.146 2.5638-2.2617 2.6363-2.588" fill="#cf7487"/>
  <path d="m73.202 17.731c2.2476 7.1557-2.439 28.166-3.4822 31.014-0.64448 1.7562-1.4279 1.8025-1.5186 0.47329-0.19133-2.7511-0.91838-22.879-2.4672-27.425-2.1409-6.2776 5.7983-4.8215 7.4679-4.0622" fill="#FFF799"/>
  <path d="m73.242 17.63c-2.7531-0.88616-9.5282-1.7622-7.5142 4.1529 0.27189 0.79553 0.5176 2.0704 0.73914 3.6453 1.2024-4.2455 3.3493-6.9664 7.2726-4.5919-0.09264-1.1278-0.24168-2.3886-0.49746-3.2063" fill="#DED685"/>
  <path d="m113.99 17.187s-0.91637-3.1277-1.5669-2.2255c-0.65254 0.90227-1.6132 1.6132-2.8478 1.0453-1.2326-0.56996 1.1379-2.4188 1.1379-2.4188s-0.6626-0.23967-1.1379-1.1883c-0.47329-0.94859 2.9425-1.5186 2.9425-1.5186s-0.18932-1.6132-0.85394-1.9939c-0.66462 1.0453-2.2778 1.8992-2.9424 0.95061-0.66261-0.95061 1.8992-1.6132 1.8992-1.6132s-1.5588-1.6515-1.8992-1.5186c-0.40079 0.50149-1.6132 1.7079-2.5618 0.28397-0.9486-1.4239 1.6132-2.9404 1.6132-2.9404s-0.37863-0.75928-1.6132-1.6152c-0.0967 1.5186-1.5186 2.3745-2.2778 1.7079-0.75927-0.66462 0.66462-2.1812 0.66462-2.1812s-0.4612-0.51558-1.0453-0.85394c-0.1873-0.11077-1.3635 0.55989-2.3705 1.2326 0.75928 1.8992-0.28599 2.2778-1.4239 2.5618-1.1399 0.28599-0.56996-1.3474-0.52767-1.6777 0.052364-0.42898-1.8891 0.10473-2.0362 0.44509-0.11077 3.3916-1.6394 5.18-4.5396 7.3451-2.0764-4.894-8.3078-8.3541-15.204-8.058-8.1225 0.34641-13.049 4.1045-14.142 6.7328-1.8388-1.6595-3.0351-4.1388-2.8075-6.7912-0.75928-1.2346-1.7401-1.0312-1.7401-1.0312s-0.09466 2.2758-1.5186 1.5165c-1.4239-0.75726-0.75928-2.9404-0.75928-2.9404l-0.98283-0.19737-1.1057 0.29203s0 2.4672-0.85394 1.9939c-0.85394-0.4753-0.94859-1.4239-0.94859-1.4239l-1.0996 0.21751-1.1782 0.54177 0.19133 1.8972s2.8458 0.37863 1.7079 1.8025c-1.1399 1.4239-3.0452 0.70289-3.3291-0.81567-1.0453 0.18932-1.6052 0.81567-1.6052 0.81567s1.5165 1.1379 0.37863 1.9939c-1.1399 0.85394-2.0885 0.18932-2.2778-1.3292-1.2346 0.4753-2.7914 0.88415-3.1318 1.2346s0.66462 2.2778 0.66462 2.2778 1.3292-0.94859 2.0885-0.28599c0.75928 0.66462-4e-3 2.1449-1.4239 2.2778-0.01611 0.62837 0.75928 1.6132 0.75928 1.6132s2.7511-0.85394 2.9425 0.4753c0.18932 1.3272-1.8045 2.6565-3.0371 1.8972-0.85595 0.37863-2.1832 0.4753-2.1832 0.4753l0.4753 2.1812s1.4219-1.0433 2.1812 0c0.75928 1.0453 0.75928 1.9939-0.75928 2.3745-0.16515 0.62233 0.34439 2.3866 0.4753 2.5618l1.7079-0.56996s1.0453-2.3725 2.1832-1.0433c1.1379 1.3272 1.3272 2.7511-0.4753 2.6565-0.37863 0.38065 0.28397 2.0885 0.28397 2.0885s1.4239-1.7079 2.5638-0.75928c1.1379 0.94859 0.89019 2.1469-1.7985 3.3453 0.74518 0.53774 1.5608 2.3805 1.5608 2.3805l2.1348-0.41287s-0.56795-2.8458 1.0433-2.7511c1.6152 0.09466 1.8992 0.93651 1.5206 1.5045-0.02014 0.03021-0.03424 0.05236-0.04834 0.0725 0-2e-3 -0.08257 0.14501-0.08056 0.14299-0.03424 0.05236-0.34641 0.12487-0.15709 0.46322 0.18932 0.33634 2.2476 0.54579 2.5618 0.37863 0.3162-0.16515-0.66261-2.7511 0.38065-2.6565 1.0433 0.09466 1.6716 1.871 1.589 1.9939-0.08257 0.12487 2.016-0.09667 2.016-0.09667s-0.56795-2.7511 0.85394-2.8458c1.4239-0.09667 1.6575 1.0614 1.6575 1.0614l2.0039-2.1993s-2.3322-2.1852-1.4783-3.3231c0.85394-1.1399 2.2778-0.85394 2.2778-0.85394s1.0976-1.4843 0.85394-1.8045c-0.24369-0.31821-1.5186-0.18932-1.9939-0.75928-0.43301-0.52163-0.20946-3.7199 8.7307-1.5165 6.3783 1.5709 9.6954 1.4279 13.107-0.07049 0 0 0.97478-0.64851 1.9959-1.0916l6.6381 11.79c0.18529-0.64649 0.31016-1.2205 1.2285-0.30009 1.2346 1.2326 0.28196 2.1026 0.28196 2.1026s1.5186 0.09466 1.9918-0.18932c-0.09466-0.56996 0.38065-1.5186 1.4239-1.6132 1.0453-0.09466 0.87206 0.92845-0.0544 2.5658 1.2326 0.28397 3.2103-0.62434 3.2103-0.62434l1.3051-2.2255s-0.75928-0.38065-1.5186-1.4239c-0.75927-1.0433 1.1379-2.4672 2.4672-1.7079s-0.26987 1.3474-0.26987 1.3474 1.7482 1.4138 2.3483 1.2084c0.60219-0.20744 0.26384-0.93248 1.4018-1.5951 0.59815-0.35044 1.8609 0.33231 2.0241 0.55788 0 0 0.62635-1.2487 0.18931-2.9425-0.59211 0.12487-1.3272 0.85394-2.4672 0-1.1379-0.85394 0.10674-1.8045 0.85394-1.9939 0.74921-0.1873 1.8368-0.12688 1.8368-0.12688l1.2003-1.6756s-0.79956 0.39273-1.6535-1.1258c-0.85394-1.5186 2.1771-1.4883 2.1771-1.4883" fill="#fff"/>
 </g>
 <g fill="#dcdddd" stroke-width="2.014">
  <path d="m65.226 17.026c-0.0141 6e-3 -0.0282 0.0141-0.04229 0.02215-1.4682 0.76129-1.72 2.7411-3.6393 2.5719-0.50149-0.04431-1.156-0.15709-1.587 0.1873-0.33432 0.26786 0.52364 1.2265-0.31217 1.9073-0.48537 0.39273-1.5165-0.41891-2.5638 0.47128-0.51156 0.43502-0.62233 1.1137-1.4118 1.2547-1.2426 0.21953-1.6817-1.0553-2.876-0.47128-0.95665 0.46725-1.1903 0.93852-0.79754 1.9858 0.30613 0.81567 0.45315 1.2688-0.02618 1.9999-0.42093 0.64045-1.0574 1.0694-1.7663 1.3353-0.13091 0.04834-1.3735 0.65455-1.297 0.73914 0.59816 0.65254 1.0855 1.434 1.4521 2.2557l2.1832-0.28599s-0.56996-2.8458 1.0433-2.7511c1.6132 0.09466 1.9435 0.84991 1.5629 1.4199-0.01813 0.02618-0.03222 0.04632-0.04431 0.06646-0.03424 0.05035-0.47329 0.35849-0.28397 0.69684 0.18932 0.33634 2.2476 0.54579 2.5618 0.37863 0.09466-0.66865-0.71497-2.7552 0.37863-2.6565 1.0453 0.09466 1.8025 1.8207 1.72 1.9455-0.08257 0.12285 1.8871-0.04834 1.8871-0.04834s-0.56795-2.7511 0.85394-2.8458c1.4239-0.09667 1.6777 1.0614 1.6777 1.0614l1.9838-2.2194s-2.3322-2.165-1.4783-3.303c0.85394-1.1399 2.2778-0.85394 2.2778-0.85394s1.0976-1.4843 0.85394-1.8025c-0.24571-0.32023-1.5186-0.19133-1.9939-0.75928-0.76129-0.91637 1.8408-2.878 7.5988-1.7663-1.4299-0.27591-2.8035-0.79149-4.2314-1.0815-1.1862-0.23967-2.5739-0.018126-3.6836 0.54579"/>
  <path d="m100.15 18.697c-0.76733-0.01208-1.6897 0.42898-2.5235-0.22557-0.75122-0.5901-0.7774-1.6777-1.4722-2.3141-0.68476-0.62635-2.0664-1.3635-2.9908-0.94859-0.56191 0.25376-1.5709 0.61427-2.1268 0.87408-0.65052 0.3021-1.0412 0.4028-1.6172 0.79553 1.5971 2.7954 3.1459 5.6392 4.7188 8.4568l1.2024 2.159c0.06848 0.11883 0.51156 0.7049 0.47128 0.84387 0.18932-0.66462 0.21147-1.4722 1.444-0.23967 1.2346 1.2346 0.26383 2.1369 0.26383 2.1369s1.5186 0.09466 1.9939-0.18932c-0.09667-0.56996 0.37863-1.5186 1.4219-1.6152 1.0453-0.09264 0.94859 1.5206-0.0947 2.4692 1.2346 0.28397 2.9888-0.42093 2.9888-0.42093 0.27189-0.13695 0.75726-0.76331 0.94255-1.013 0.27592-0.37259 0.51961-0.87609 0.75324-1.2728-0.92846-0.76129-3.3312-1.7965-2.8982-3.3976 0.1732-0.63844 1.1117-0.94658 1.013-1.6414-0.15105-1.0553-1.9395-0.44308-2.3221-1.5367-0.27995-0.7915 0.38065-1.1782 0.0201-2.0241-0.30009-0.71094-0.71497-0.89019-1.1883-0.89623"/>
  <path d="m68.207 12.394c-1.8871-1.9979-1.2467-4.8034 0.11278-7.0571-2.5739 1.2205-4.5577 3.0492-5.2324 4.3986 0.47732 0.66663 3.885 2.6585 5.1196 2.6585"/>
 </g>
 <g stroke-width="2.014">
  <path d="m95.537 17.992c-0.64247-3.0029-3.315-2.3926-5.3995-1.5689-2.0845 0.82574-2.4329 0.82977-1.8408 2.3524 1.6233 4.169 4.1126 23.644 4.2032 25.979 0.09667 2.4672-0.09466 3.7964 1.0433 0.47329 1.1399-3.3191 3.7017-19.264 1.9939-27.235" fill="#FFF799"/>
  <path d="m89.998 16.422c-2.0845 0.82574-2.298 0.82977-1.7059 2.3503 0.37259 0.95866 0.78949 2.7209 1.2144 4.896 0.65254-4.0582 3.3734-6.6341 6.0682-5.4519-0.0141-0.07452-0.0282-0.15306-0.04229-0.22557-0.64448-3.0029-3.45-2.3946-5.5345-1.5689" fill="#DED685"/>
  <path d="m80.532 8.5065c-2.5578-0.24369-6.7388 2.2778-6.4549 4.9343 0.28599 2.6585 3.1338 2.3725 6.8335 2.3725 3.7017 0 5.4841-0.72907 5.3149-2.7511-0.18932-2.2778-1.7079-4.177-5.6936-4.5557" fill="#53B7D4"/>
  <path d="m74.934 11.064c-0.59614 0.72303-0.94255 1.5387-0.85394 2.3685 0.28397 2.6585 3.1318 2.3725 6.8335 2.3725 1.9918 0 3.4238-0.21348 4.2999-0.72504-7.5183-0.054378-10.239-0.19737-10.279-4.0159" fill="#459BB4"/>
  <path d="m90.099 9.01c-0.92241 0.26786-1.5931 2.0543-1.5931 4.1408l2.3886-1.1037c0.098686-0.84588-0.19133-2.0362-0.79553-3.0371" fill="#FFF799"/>
  <path d="m89.998 9.0301c0.6042 1.001 1.001 2.1066 0.90227 2.9505l1.6616-0.80963c-0.73108-1.6172-1.9334-2.3242-2.5638-2.1409" fill="#fff"/>
  <path d="m71.973 13.179c-0.75122-5.4036-3.6836-5.5868-3.6836-5.5868-1.8166 0.16313-3.3453 1.0976-3.9414 3.1378 0 0 4.743 2.882 7.625 2.449" fill="#fff"/>
  <path d="m71.892 13.139c-0.53774-4.6745-2.6383-4.8316-2.6383-4.8316-1.0433 0.66462-2.2335 2.306-1.6656 3.9192 0 0 2.2396 1.2869 4.3039 0.91234" fill="#FFF799"/>
 </g>
 <g fill="#0f141b" stroke-width="2.014">
  <path d="m15.38 65.603 1.3615 0.43301c4.2838-3.3815 9.1033-2.447 11.274-1.3594l1.009-0.64247c-2.6686-1.9556-9.1113-2.01-13.645 1.5689"/>
  <path d="m12.862 66.51 1.2326 0.15105c2.0281-1.4199 5.7641 0.81164 7.4437 2.9706l0.5035-0.39072c-1.8368-2.3604-4.0562-5.4036-9.1798-2.731"/>
  <path d="m9.9821 66.671c-5.2203 1.1218-9.0509 3.9575-9.9028 7.1839-0.23564 0.8922 0.004028 1.5669 3.2969 2.2557 3.2929 0.6908 8.7347 2.0462 10.356 4.751l0.53774-0.71296c-1.7502-2.9163-6.6502-3.9917-9.8988-4.9585l-1.9294-0.60621c-0.40884-0.14904-0.59212-0.40683-0.576-0.81164 0.066462-1.6918 3.2023-4.9444 8.4165-6.3824 4.4368-1.2245 6.6744 0.81567 8.9281 3.3171l0.59816 0.66462 0.47128-0.431-0.59816-0.65858c-2.2939-2.5497-4.1408-4.8034-9.6994-3.6111"/>
  <path d="m42.528 51.888c-1.2104 1.5407-14.755 12.253-18.96 15.306-8.2292 5.9735-12.469 11.81-11.641 21.898 0.59413 7.2323 5.5627 13.671 11.317 16.454l0.46322-0.71295c-4.459-2.8921-9.8344-8.7267-10.312-15.653-0.576-8.3641 3.3372-15.846 11.317-21.64 3.8568-2.7995 16.464-12.136 18.086-14.436 1.6233-2.298 4.5456-5.5002 5.4902-5.9212l0.16112-1.1017c-2.1369 0.8056-3.9213 3.2607-5.9212 5.8064"/>
  <path d="m10.989 109.67 0.84789-0.5035c-0.19133-1.3433 2.6826-6.4287 6.767-7.7902l-0.26786-0.8056c-4.2636 1.4199-8.7569 6.8677-7.3471 9.0992"/>
  <path d="m45.992 111.95-0.36655 0.76733c5.2847 3.305 30.846 7.1235 48.11-6.33l-0.78143-0.83379c-16.042 12.503-41.172 9.1657-46.962 6.3965"/>
  <path d="m96.302 56.319c1.8871 1.6756 5.2445 10.132 6.2212 15.754l0.90831 0.56392c-0.22355-6.906-4.4892-15.482-6.6845-17.431z"/>
  <path d="m60.533 96.377c-1.1661 1.0271-2.6625 3.0794-6.902 3.9797l-0.1873 0.78345c4.4389-0.94255 6.3139-2.6766 7.0913-3.6796 0.78143-1.003 1.1641-2.1107-2e-3 -1.0835"/>
  <path d="m85.225 98.673c0.54982 0.84991 3.172 3.1841 5.3391 3.8024l-0.25779-1.0553c-2.0059-0.57399-3.9615-2.0845-4.5315-2.8438-0.56996-0.75726-1.0996-0.75525-0.54982 0.09667"/>
  <path d="m22.469 97.948c0 2.6826 0.51558 5.4962 1.011 7.1557-9.9149 1.5125-17.453 5.7218-16.569 7.9754-0.8056 0.37259-4.892 1.587-0.084588 3.7843 4.6362 2.1167 20.555 4.5436 31.279 2.7048 4.9867-0.85394 5.3512-1.8811 7.3712-4.9887 8.6078-13.242 13.923-21.24 14.777-22.549 0.85394-1.3111 1.1178-2.4531-0.60219-0.60219-1.72 1.8529-10.336 14.924-15.413 22.734-1.8489 2.8438-2.3463 3.6091-7.1719 4.4368-10.223 1.7522-26.176-1.0614-29.86-2.4974-3.6856-1.436 0.59614-2.4792 0.59614-2.4792l-0.07049-0.35446c-0.022154-0.10272 0.046322-0.35044 0.30009-0.71094 1.1661-1.6454 5.7943-5.4156 15.762-6.5777 1.7804 3.5064 1.2084 1.3695 0.62434-0.66865-1.4038-4.9021-1.0714-21.608 6.8375-28.849 1.0735-0.98485 1.5588-2.2798-0.24571-0.67872-7.6069 6.7489-8.5414 15.409-8.5414 22.164"/>
  <path d="m101.08 70.699c2.1167 2.7048 12.03 16.795 13.087 28.49 0.33835 3.7319 0.11279 6.181 0.50149 5.903s0.44509-1.726 0.44509-1.726c3.0996 2.2899 5.1035 3.9394 4.2898 5.0672-1.4501 2.006-10.175 7.0349-15.047 4.7873-10.072-4.6463-14.473-13.363-16.432-17.455-1.1178-2.3342-1.3454-1.0795-0.79956 0.288 3.0391 7.5908 7.1356 13.744 16.626 18.134 4.753 2.2013 13.335-1.2044 16.597-5.2525 0.70087-0.86602 0.66865-1.5588-0.0544-2.3946-0.72504-0.83581-2.5457-2.3382-4.9081-4.0864-0.66059-16.853-12.05-30.822-13.679-32.331-1.6293-1.5085-1.2789-0.25981-0.62635 0.576"/>
  <path d="m7.1625 113.07s-2.3121 1.5991-0.5317 0.87609c1.7824-0.72303 11.873-1.8307 13.399-1.9274 2.0281-0.13292 2.2114-0.52767 0.05841-0.63642-2.151-0.11077-11.17 0.80157-12.926 1.6877"/>
  <path d="m7.5653 112.69 0.89422 0.35849c2.5376-2.3302 8.8354-3.2083 10.739-3.6917 1.9032-0.48537 1.4038-0.65254-0.32425-0.48537-1.726 0.16716-8.7106 1.434-11.309 3.8185"/>
  <path d="m47.181 55.997c1.8911 5.9292 8.4971 9.5443 13.605 11.56 9.6753 3.8165 22.152 3.2305 29.608-1.3514 3.8991-2.3967 5.9494-6.2817 6.2978-10.016l-0.719 0.24168c-0.3303 3.5265-2.4692 6.5999-6.191 8.8858-7.2947 4.4832-19.026 4.9987-28.528 1.2487-4.9907-1.9677-11.379-5.4418-13.48-10.801-1.0654-2.7249-0.86401-5.6513 0.60219-8.6985l-0.57399-0.27592c-1.5447 3.2123-1.5669 6.2434-0.62031 9.206"/>
  <path d="m49.316 55.755c4.4308 6.6462 14.112 11.089 24.873 11.301 9.643 0.18932 17.274-3.5386 21.578-8.4145 2.8478-3.2264 2.1308-10.102 0.72705-11.121l-0.52968 1.1017c0.75726 1.6817 0.62837 7.4317-0.88616 9.5202-3.6554 5.0431-11.748 8.0641-21.115 7.8788-10.489-0.20543-19.661-4.32-23.94-10.737-2.4772-3.7158-1.6636-9.5 0.01007-12.011l-0.70691-0.47128c-2.2597 2.8136-2.6826 8.9462-0.01007 12.954"/>
  <path d="m77.189 2.5048c-7.9392 0.34037-12.809 3.9535-14.35 7.0611l0.7049 0.45718c1.3594-3.3996 7.5102-6.334 13.86-6.6059 6.8536-0.29404 12.978 2.8961 14.821 7.8868l0.6183-0.45114c-2.3383-5.0672-8.4387-8.6562-15.655-8.348"/>
  <path d="m66.998 32.674c-0.38669-0.50551-0.71497-1.007-0.99693-1.4904-0.17723 0.12084-0.36252 0.24369-0.50954 0.39273 0.40481 0.7049 0.90227 1.442 1.5065 2.1791z"/>
  <path d="m64.743 27.64h-0.63642c0 0.43704 0.14098 1.1218 0.44711 1.9435h0.66663c-0.32627-0.8197-0.47732-1.5065-0.47732-1.9435"/>
  <path d="m91.146 34.064c-0.12285 0.55184-3.6071 5.4982-11.435 4.9706-2.8861-0.19334-5.2727-0.90026-7.2343-1.873-0.07653 0.27793-0.22557 0.51558-0.34037 0.75324 2.0503 1.0674 4.5476 1.8388 7.5686 2.0422 7.9331 0.53371 11.506-3.9313 11.75-5.0249z"/>
  <path d="m66.515 27.277c-0.5901 0.58406-1.1218 1.2205-1.577 1.9113 0 0 0.24369 0.7049 0.68073 0.46322 0.37259-0.20744 0.53371-0.66865 0.82574-0.98485-0.02215-0.46322 0.15911-0.92644 0.07049-1.3897"/>
  <path d="m80.814 23.45c-2.3403-0.52968-4.751-0.50551-7.0127-0.0141v0.89019c2.1892-0.56191 4.5396-0.65858 6.8738-0.1289 5.3935 1.2205 9.2563 5.5727 9.9995 10.89l0.43301-0.53572c-0.4894-6.2011-4.6302-9.8203-10.294-11.101"/>
  <path d="m92.173 40.066c-3.3996 2.5981-8.0298 3.6957-9.3067 3.891-1.7159 0.25981-1.6998 0.84789 0.09869 0.62837 2.9626-0.35849 6.3683-1.2487 9.1436-3.3694 0.03021-0.38266 0.14098-0.76733 0.06445-1.15"/>
  <path d="m96.222 32.131c-0.05035-0.10674-0.18529-0.36856-0.37259-0.56191-0.05236 0.33634-0.09667 0.67268-0.13494 1.009 0.24168 0.63642 0.3887 1.7562-0.21953 3.307-0.0141 0.49947-0.02014 0.99693-0.02417 1.4944 0.04834-0.0866 0.10271-0.16515 0.15105-0.25175 1.4219-2.6363 0.89422-4.3724 0.60017-4.9967"/>
  <path d="m116 19.946c-0.32023 0.53774-1.8287 3.1116-3.4057 1.0271l-0.35447 0.39877c0.55587 0.54378 1.0352 0.91033 1.877 0.83581 1.9354-0.16918 2.0241-1.6334 2.2013-1.589 0.17723 0.04431 1.3353 2.2698 1.0453 2.3342-0.29002 0.06042-1.8549 0.576-2.0422 1.2225-0.0141 0.05236-0.0262 0.1148-0.0262 0.18126 0 0.16112 0.0604 0.35446 0.26383 0.55788 0.9486 0.94859 3.0875 0.73914 3.4097 0.63844 0.32022-0.1007-0.0322 2.4269-0.36655 2.1832-0.33231-0.24369-2.0221-0.52364-2.7592-0.11883-0.57399 0.31418-0.71497 1.5508-0.0463 2.2899 0.34036 0.37863 0.82976 0.576 1.3715 0.59413-0.37259 0.88817-0.96471 1.4078-1.2285 1.6031-0.42294-0.31418-1.6354-1.0795-2.5538-0.25175-0.59615 0.53572-1.297 1.6616-0.91234 2.3785 0.29001 0.53975 1.6736 0.84387 2.304 0.37058 0.30412-0.22758 1.6877 1.724 1.2386 2.008-0.45113 0.28397-0.78546 0.99693-0.78546 1.6092v0.05841c0.0121 0.32224 0.2437 0.62635 0.37863 0.81768 0.13293 0.19133-0.5478 0.53975-1.0714 0.65455s-1.4561 0.02417-1.5004-0.41891c-0.0443-0.44308-0.30613-1.2386-1.005-1.6253-0.34439-0.18932-0.72705-0.19536-1.1399-0.0141-1.0352 0.45315-1.2205 0.96068-1.2205 1.2668 0 0.0282 2e-3 0.05438 4e-3 0.07855 0.0403 0.38065 0.37662 0.68073 0.87609 0.81164 0.3021 0.32828 0.40683 0.84789 0.44509 1.1822-0.44106-0.06243-1.4178-0.41287-1.8166 0.38467-0.39878 0.79956 0.83379 2.163 1.148 2.2557 0.31418 0.09466-1.732 1.2306-2.3121 1.2406-6e-3 -0.16716-0.0101-0.35648-0.0101-0.35648-4e-3 -0.7049-8e-3 -1.436-0.52162-1.6756-0.4451-0.20946-1.2749-0.09063-1.9415 0.97478-0.44912 0.04632-1.0332-0.11077-1.2869-0.15508 0.0121-0.10271 0.0221-0.22154 0.0221-0.36051 0-0.3746-0.0685-0.83782-0.34439-1.154-0.15307-0.1732-0.43906-0.37259-0.93047-0.33835-1.5165 0.10876-1.9395 2.4551-1.9153 2.6967 0.0201 0.24168-1.3776-0.23362-1.1903-0.33634 0.29807-0.10674 0.8197-0.86803 0.8197-1.4501 0-0.16515-0.0383-0.3303-0.1289-0.49544-0.30411-0.54579-0.75726-0.86199-1.2124-0.84387-0.24772 0.01208-0.71698 0.13695-1.0453 0.86199-0.28599 0.62635-0.52163 0.94457-0.65656 1.0996-0.2014-0.14098-0.51558-0.36051-0.65455-0.45718 0.01007-0.21147-0.25578-1.6877 0.07653-1.6857 0.33231 2e-3 0.74518 0.06848 1.1319-0.30814 0.40481-0.39877 0.6324-1.148 0.4894-1.9999-0.09264-0.56593-0.37863-0.98485-0.80157-1.1802-0.37863-0.17522-0.84789-0.15306-1.1923 0.05438-0.56593 0.33835-0.68476 0.90227-0.68879 0.92644 0 0 0.31217 0.57802 0.49947 0.10271 0.18529-0.4753 0.08459-0.37259 0.45114-0.59212 0.16918-0.1007 0.45516-0.14904 0.71698-0.0282 0.26786 0.12285 0.44711 0.40079 0.51357 0.79956 0.11278 0.6767 0.0282 1.1601-0.25175 1.434-0.38669 0.38467-0.57399 0.58205-1.0634 0.26786-0.49142-0.3162-0.71296 2.1892-0.4028 2.4651 0.31016 0.27793 0.52968 0.60017 0.92845 0.82171 0.39877 0.22355 0.66462 0.17925 0.79754-0.13292 0.13292-0.31016 0.08257-0.3021 0.56996-1.3756 0.16112-0.35446 0.3746-0.55385 0.60219-0.56392 0.25578-0.01007 0.45315 0.24369 0.65858 0.61226 0.35447 0.63844-0.55586 1.1782-0.92845 1.6193-0.37259 0.44308 2.3685 1.5588 2.441 0.71497 0.0745-0.84185 0.60621-2.4571 1.4722-2.5195 0.2296-0.0141 0.39676 0.04028 0.50954 0.16918 0.29203 0.3303 0.26384 1.0956 0.0926 1.4501-0.17321 0.35446 2.1671 0.82373 2.3906 0.29203 0.24974-0.60017 0.8197-1.005 1.1419-0.84991 0.56594 0.27592 0.0705 1.867 0.38266 1.9697 1.1319 0.37863 3.1761-1.1037 3.4419-1.3695 0.26585-0.26786 0.58406-0.32828 0.0262-0.65254-0.55989-0.32425-1.4602-0.90227-1.2225-1.5931 0.16716-0.48537 0.87609-0.5035 1.5145-0.10674 0.576 0.35648 0.31821-1.5669-0.31821-2.2053 0 0-0.67268-0.3303-0.6908-0.5035-0.0222-0.19536 0.0826-0.48739 0.78747-0.79553 0.26383-0.1148 0.4894-0.11883 0.68879-6e-3 0.53572 0.29606 0.83581 1.2849 0.70087 1.73-0.13494 0.44711 1.4521 0.76532 2.2053 0.58406 1.4541-0.34641 1.8086-1.1903 1.5649-1.5125-0.37461-0.5035-0.60622-1.7159 0.42495-2.151 0.5176-0.21953-1.1117-3.1177-1.8307-2.87-0.72102 0.24974-1.6354 0.26585-1.8066-0.05236-0.21147-0.39273 0.17119-1.0755 0.71698-1.5669 0.46926-0.42093 1.003-0.39072 1.9657 0.42495 0.60017 0.50954 3.0371-2.8498 1.9395-2.8156-0.43301 0.0141-1.0332-0.03625-1.3816-0.42495-0.29807-0.32828-0.42495-1.0654-0.10674-1.3272 0.32023-0.26182 2.1328-0.19737 2.6826 0.37259 0.54982 0.56795 1.2225-3.9072 0.29203-3.6917-2.0926 0.48135-3.309-0.08257-3.1882-0.50551 0.10674-0.36453 0.97075-0.87408 1.8066-0.90227 1.2809-0.04632-1.2749-4.3321-1.7703-3.4983"/>
  <path d="m103.39 0.87344c-0.3162 0.008056-2.7108 1.2366-2.4893 1.5528 0.22154 0.31821 0.30814 1.15 0.14098 1.4763-0.21349 0.41891-1.1158 0.61628-1.4259 0.66059s-0.26383-1.1218-0.13091-1.4924c0.19133-0.54378-2.4953-0.24571-2.588 0.58205-0.65052 5.7862-6.612 8.8274-9.2845 9.6612-0.9788 0.30613-1.0714 0.66663-2e-3 0.46725 2.8256-0.52767 10.34-4.5718 9.776-9.927-0.03222-0.31217 0.84991-0.52163 1.4944-0.4753-0.11681 0.56593-0.16313 1.2608 0.15508 1.5971 0.12285 0.1289 0.35245 0.26182 0.74115 0.16716 0.69885-0.17522 1.4078-0.39877 1.72-1.007 0.10271-0.2014 0.15508-0.431 0.15508-0.68879 0-0.288-0.0785-0.62233-0.20543-0.98686 0.30411-0.15911 1.5608-1.0574 1.8851-0.95262 0.32627 0.10473 0.91033 0.37259 0.73511 0.62837-0.17521 0.25779-0.65455 0.87408-0.65455 1.4883 0 0.018126 0 0.036252 2e-3 0.054378 0.0121 0.25779 0.11882 0.48336 0.30814 0.64851 0.36252 0.31821 0.85595 0.37863 1.3574 0.17119 0.63038-0.26383 1.1963-1.3393 1.2567-1.6132 0.0624-0.2739 1.3212 0.97075 1.0916 1.0815-0.2296 0.10674-1.4763 1.0835-1.6877 2.01-0.0262 0.1148-0.0403 0.22758-0.0403 0.34037 0 0.28196 0.0846 0.55385 0.25376 0.80761 0.35648 0.5317 0.78546 0.79956 1.2809 0.79956 0.64448 0 1.3977-0.78345 1.5226-0.85394s1.3111 0.84185 1.3172 1.0513c6e-3 0.20946-1.4581 0.58406-1.6636 1.1379-0.0262 0.07049-0.0463 0.15709-0.0463 0.25578 0 0.13494 0.0383 0.29404 0.15709 0.46121 0.2437 0.34842 0.61024 0.52767 1.0594 0.5176 0.70691-0.0141 1.5568-0.53572 2.1086-1.2346 0.26988 0.30613 0.69685 1.2608 0.54177 1.4078-0.15709 0.14702-2.5155 0.54781-2.876 1.2507-0.13695 0.26988 0.0201 1.1359 1.0614 1.6777-0.53371 0.44107-1.4239 1.2728-1.4239 1.9475 0 0.02618 2e-3 0.05035 4e-3 0.07452 0.0181 0.1873 0.11681 0.44509 0.47933 0.61226 1.2467 0.57399 2.5517 0.0081 2.9727-0.86401 0.29203-0.6042 1.4239 1.5568 0.92443 1.6072-1.0996 0.10876-1.6656 0.32425-1.8851 0.91436-0.37661 1.0171 0.89422 2.2335 1.5387 2.1087 0.24571-0.04834-0.719 1.0513-0.87408 1.2789-0.39474-0.17522-1.2104-0.09466-1.8972 0.10473-1.4662 0.42294-1.7643 1.7099-0.82373 2.4128 0.88616 0.66663 1.9516 0.66059 2.3362 0.21953 0.21953-0.24974 0.26988 2.3967-0.13292 2.0482s-1.3071-0.63844-2.1812-0.1289c-0.75726 0.44308-0.92039 1.1158-1.0574 1.3353-0.13493 0.21953-1.722-0.81567-1.8368-0.91838-0.11682-0.10271 0.52364-0.38065 0.55385-0.6908 4e-3 -0.02215 4e-3 -0.04028 4e-3 -0.06243 0-0.29203-0.21348-0.56191-0.63441-0.80359-0.9063-0.5176-2.0482-0.15306-2.6323 0.49544-0.2578 0.288-0.38871 0.61024-0.38871 0.92241 0 0.23161 0.0725 0.45919 0.22154 0.66261 0.53774 0.73712 1.0614 1.2708 1.3554 1.3413 0.29605 0.07049-1.3474 1.8227-1.4118 1.9113-0.23966 0.11278-2.0442 0.63441-2.2516 0.57399-0.20946-0.06445 0.56593-1.013 0.56593-1.4883 0-0.18932-0.0322-0.36856-0.10271-0.52565-0.15911-0.36252-0.49142-0.54781-0.91436-0.50954-0.52565 0.04834-0.98685 0.29807-1.299 0.70289-0.2296 0.29807-0.32023 0.719-0.36453 0.9929-0.04431 0.27592-0.79352 0.12487-1.2507 0.12084 0.06042-0.1289 0.11278-0.27793 0.12285-0.46121 2e-3 -0.02417 2e-3 -0.04834 2e-3 -0.0725 0-0.45919-0.06042-1.003-0.5317-1.4742-0.62434-0.62434-1.0735-0.84789-1.3876-0.76331-0.32023 0.0866-0.09264 0.98082-0.09264 0.98082 0.03424-0.13292 0.37058-0.35245 0.94255 0.21953 0.37058 0.37058 0.54177 1.3695 0.30411 1.6132-0.23765 0.24571-0.28196 0.55586 0.11681 0.60017 0.39877 0.04431 1.3615-0.07855 1.8388-0.10473 0.41891-0.02417 0.47732-0.27592 0.45114-0.52968-0.0282-0.25175 0.05841-0.55788 0.25376-0.80963 0.15709-0.20744 0.45113-0.46121 0.94054-0.50551 0.26786-0.02618 0.3605 0.10473 0.4028 0.20543 0.28196 0.68073-1.2447 2.1107-0.64046 2.3564 0.29808 0.12084 2.8881-0.08862 3.3714-0.55788 0.48537-0.46926 2.0845-2.4772 1.5669-2.7894-1.5387-0.92845-1.8307-1.8368-1.442-2.2718 0.44912-0.49947 1.3192-0.78345 1.9999-0.39273 0.29002 0.16515 0.38467 0.30009 0.37863 0.37259-0.0121 0.10473-0.19536 0.31821-0.46322 0.4753-0.35648 0.20744-0.45113 0.32627-0.0806 0.61024 0.77741 0.59614 2.5094 1.5024 2.8196 0.92644 0.92846-1.73 1.3292-1.8186 2.8055-0.90026 0.75324 0.46926 0.99291-3.7762 0.22356-3.3453-0.76935 0.43301-1.1963 0.74719-2.1771 0.01208-0.63239-0.47329-0.17723-1.3574 0.70289-1.5327 0.53371-0.10876 1.2527-0.32425 1.6877-0.0282 0.43704 0.29606 2.0704-2.1711 1.2527-2.2678-0.81567-0.09667-1.3917-1.0714-1.2024-1.7159 0.11279-0.38467 1.0976-0.4028 1.7824-0.37863 1.0151 0.03424-0.82171-4.1247-1.7502-2.6363-0.63039 1.013-1.7522 1.3715-2.3967 0.7774-0.41892-0.38669 0.32224-1.156 0.83782-1.579 0.43704-0.35648 0.30411-0.64045-0.13091-0.96471-0.31418-0.23564-0.60219-0.60823-0.56996-0.90831 0.0463-0.44912 1.8972-0.88616 2.6021-0.93047 0.7049-0.04431-0.44711-3.3171-0.98284-2.5759-0.53371 0.74115-1.3756 1.3272-1.9979 1.3393-0.27995 0.00604-0.70289-0.49142-0.68074-0.54982 0.14098-0.38266 1.1278-0.75324 1.8005-0.97075 0.67469-0.22154-1.9173-2.2194-2.1731-1.9073-0.25577 0.31217-0.76129 0.85796-1.2829 0.85796-0.31419 0-1.0594-1.0533-0.99693-1.3252 0.21549-0.95464 1.0553-1.4239 1.6736-1.8287 0.61628-0.40884-1.865-2.6263-1.9999-1.8489-0.13293 0.77539-0.59212 1.436-1.0292 1.6152-0.43502 0.18126-0.95262-0.25175-0.95866-0.37259-0.0262-0.50954 0.61628-1.3051 0.81567-1.5266 0.32235-0.35849-1.0331-1.2628-1.3493-1.2547"/>
  <path d="m72.799 17.61c0.26182 1.7622 0.3887 4.1851 0.3887 6.181 0 10.392-3.2345 23.457-3.7601 24.845-0.52767 1.3856-0.65254 1.0191-0.86199-1.732s-1.1701-21.072-2.5215-25.209l-0.87609 0.37058c1.3272 4.0542 2.3161 22.531 2.5256 24.672 0.27995 2.8418 0.42495 3.7722 1.009 3.879 0.59413 0.10674 1.011-0.69483 1.4219-1.8186 0.98283-2.6806 5.4781-19.995 3.5587-30.943z"/>
  <path d="m37.856 19.825c0.7915 0.43704 1.2406 1.5749 0.82373 2.1771-0.36051 0.51961-0.72504 0.68073-1.1681 0.66462-0.4169-0.01611-1.3977-0.91637-1.3977-0.91637-0.94255 0.23564-1.4964 1.3917-1.73 2.016-0.16313 0.44107-0.14299 0.56996 0.17522 0.80963 0.61226 0.46121 1.3735 1.1238 1.2789 2.0462-0.03222 0.31418 2.0019 0.51558 2.4329 0.53975 0 0 0.33634 0.06243 0.08257-0.42697-0.25175-0.49142-0.34037-1.6434 0.50551-1.2064 0.53975 0.27793 0.83782 0.76935 0.78949 1.4017-0.05236 0.70691-1.0996 1.7421-1.7703 1.8589-0.31821 0.05438-0.27995 0.13091-0.15508 0.35648 0.2739 0.49142 0.82171 1.3111 0.95665 1.577 0.13292 0.26585 0.42495 0.13897 0.42495 0.13897 0.26786-0.04632 0.68879-0.03827 0.78747 0.09869 0.05438 0.07452 0.0141 0.25376-0.10674 0.47933-0.33432 0.6183-0.97075 1.0211-1.5528 0.97679-0.59614-0.04431-1.3373-1.0533-1.3977-1.4179-0.06243-0.36453-0.19334-0.56996-0.48336-0.36453-0.29002 0.20744-1.5528 1.7683-1.6031 2.2315s0.96873 3.9897 1.3816 3.5587c0.22355-0.23564 2.0845-1.1923 2.9002-0.17723 0.29002 0.36252 0.44509-0.08862 0.44509-0.08862 0.30613-1.0976 0.77136-1.9838 1.2749-2.1973 0.28196-0.12084 0.5901-0.08862 0.94255 0.1007 0.43502 0.23564 0.65254 0.69483 0.56593 1.2003-0.08257 0.49142-0.69886 1.6998-1.4017 1.1621s-1.4481 1.6978-1.434 2.018c0.0081 0.18327 1.0292 1.2366 1.0292 1.2366s0.2739 0.24168 0.49142-0.05639c0.21953-0.29807 0.84588-0.63642 1.1158-0.53774 0.16918 0.06445 0.23564 0.34439 0.25981 0.56996 0.17522 1.583-0.59816 2.5598-1.2326 2.6665s2.304 2.4349 2.4208 1.7139c0.1148-0.72303 0.50954-1.8911 0.82775-2.0241 0.02417-0.01007 0.04834-0.01611 0.09466 0.0141 0.71094 0.44509 1.1943 1.0714 1.3574 1.2688s0.5176 0.18529 0.45114-0.20744c-0.06646-0.39273-0.23161-2.0321 0.18327-2.441 0.08257-0.08056 0.2296-0.17723 0.55586-0.10674 0.79352 0.17723 1.3232 0.30814 1.4219 0.49343 0.07855 0.14904-0.04028 0.50753-0.18126 0.87408l0.04834 0.26182c0.77136 0.86803 1.6253 1.442 1.6616 1.4662l0.29203-6e-3c0.01813-0.01208 1.9838-1.0231 2.9948-0.81768 0.4028 0.08056 0.58003-0.85192 0.58003-0.85192 0.3303-0.94457 0.76733-1.6575 1.6817-1.7884 0.78345-0.11278 1.297 0.07653 1.4622 0.41086 0.09869 0.19939-0.17119 0.45114-0.43502 0.78345-0.26182 0.3303 0.85394 1.7018 0.78949 2.1832-0.06243 0.48537 3.3694 0.62635 3.2909 0.12084-0.07855-0.5035-0.18932-2.3423 0.17522-2.731 0.14904-0.15911 0.33835-0.22557 0.58003-0.20341 0.96873 0.08862 2.0986 0.74317 2.4551 1.0835 0.35648 0.34238 2.308-2.4712 1.6676-2.7048-1.73-0.63038-1.7723-1.3232-2.1046-1.9032-0.3303-0.57802 1.1923-1.5024 1.8207-0.82574 0.62635 0.6767 1.4803-1.6273 1.5246-1.9375 0.04431-0.31016-0.20543-0.3887-0.20543-0.3887-0.0081-0.01007-0.87408-1.1258-0.69684-2.0905 0.0725-0.39676 0.36252-0.79956 0.72101-0.95665 0.35849-0.15508-0.54982-1.8489-0.73712-1.6454-0.19133 0.20341-0.72504 0.23362-1.4199 0-0.51357-0.17119-0.71698-1.2567-0.74719-1.6213l-0.37461-0.12491c0.01611 0.17723 0.03827 1.9234 0.96068 2.2315 0.61024 0.2014 1.2024 0.12487 1.5145 0.05639 0.1007 0.22758 0.27592 0.62233 0.36655 0.82171-0.41488 0.30613-0.70087 0.68073-0.78546 1.148-0.02215 0.11883-0.03222 0.24168-0.03222 0.36051 0 0.9345 0.60219 1.8267 0.78143 2.0724 2e-3 0.02417 4e-3 0.03222 4e-3 0.07452 0 0.29002-0.10473 0.9788-0.94255 1.3695-0.97679-0.32828-1.8791 0.32627-2.3564 1.1862-0.05639 0.10271-0.0725 0.48739-0.04834 0.56593 0.2296 0.73914 1.9636 1.8307 2.2053 1.8911 0.23967 0.06042-0.95464 1.9878-1.289 1.6656-0.33432-0.32023-1.4098-0.76129-2.2355-0.83581-0.39877-0.03625-0.74317 0.08862-0.99894 0.36252-0.33634 0.35849-0.50753 0.96873-0.50753 1.7643 0 0.23967 0.1289 0.87206-0.09466 0.91838-0.22154 0.04431-1.6958 0.15508-1.9113-0.21147s-0.79352-1.3856-0.83782-1.4742c-0.04431-0.08862 0.45718-0.63642 0.45718-0.82373 0-0.16918-0.04834-0.31016-0.09667-0.40884-0.29203-0.58406-1.2124-0.92241-2.1429-0.78949-1.2205 0.1732-1.6031 1.2648-1.9395 2.2275 0 0-0.11278 0.3021-0.18529 0.49544-1.2467-0.25779-2.6122 0.5317-3.0552 0.82574-0.24974-0.18126-0.79956-0.61226-1.3252-1.1802 0.11077-0.30814 0.1873-0.56795 0.1873-0.7774 0-0.13494-0.02618-0.25376-0.0866-0.36252-0.20744-0.39072-0.74719-0.52565-1.7602-0.75122-0.52565-0.11681-0.84588 0.06646-1.0251 0.24168-0.36051 0.35446-0.45919 0.99693-0.45919 1.589 0 0.16918 0.01007 0.33231 0.02014 0.48537-0.25779-0.25779-0.57399-0.54579-0.92443-0.76532-0.17723-0.11278-0.37259-0.1289-0.55989-0.05236-0.53975 0.22557-0.92443 1.6998-1.0654 1.871-0.13897 0.16918-1.6172-0.87005-1.291-0.98283s1.0694-1.1178 1.0694-2.3362c0-0.15911-0.0081-0.32425-0.02618-0.49343-0.06042-0.53572-0.25981-0.86803-0.59212-0.99089-0.51156-0.18932-1.1399 0.23362-1.4501 0.48336-0.19334-0.19133-0.50954-0.41086-0.66462-0.66462-0.15508-0.25578 0.26182-1.7461 0.87408-1.4219s1.6233-0.81768 1.7683-1.6575c0.01611-0.10473 0.02618-0.20744 0.02618-0.30814 0-0.6042-0.31217-1.1339-0.85394-1.4259-0.4894-0.26383-0.95665-0.30411-1.3856-0.12084-0.58205 0.24772-1.0594 0.93852-1.4058 1.9677-0.96672-0.75324-2.8156-0.04431-2.9706 0.18126-0.15508 0.22557-0.74921-2.4027-0.81366-2.6081 0.18327-0.24369 1.001-1.9153 1.1621-1.4702 0.16313 0.44509 1.2567 1.3333 1.6756 1.3635 0.78747 0.05841 1.6052-0.44107 2.0382-1.2447 0.22758-0.42495 0.25175-0.76733 0.07049-1.0191-0.25779-0.35849-0.82373-0.35446-1.1218-0.32425-0.15105-0.22154-0.48135-0.71497-0.71698-1.1359 1.0654-0.45114 1.6293-1.4058 1.6918-2.2335 4e-3 -0.05639 6e-3 -0.11278 6e-3 -0.16918 0-0.76733-0.39877-1.4078-1.0896-1.7341-0.49544-0.23362-0.87609-0.23765-1.1278-0.0141-0.20341 0.18126-0.26786 0.4753-0.26786 0.7774 0 0.24772 0.04229 0.49544 0.09063 0.69684-0.62031-0.06848-1.2185-0.21147-1.3836-0.37863 0-0.01007 2e-3 -0.01813 2e-3 -0.0282 0-0.74719-0.98686-1.6253-1.4038-1.9636 0.10271-0.3746 0.44711-1.3796 1.144-1.6777 0.35849 0.5035 0.83984 0.81164 1.3615 0.83178 0.62434 0.02417 1.2225-0.3303 1.6857-0.99894 0.19939-0.288 0.28196-0.58607 0.28196-0.8781 0-0.69684-0.66462-1.4682-0.78949-1.6334s0.95061-0.9929 1.1178-0.82574c0.16515 0.16515 1.4622 1.1903 2.0845 1.1319 1.1137-0.10876 2.3483-1.1641 2.6001-1.9818l-0.7049-0.04431c-0.2014 0.64851-1.0473 1.4299-1.9435 1.5186-0.74719 0.07049-1.7461-0.98887-1.871-1.2547-0.31016-0.66663-2.3101 1.3615-2.0946 1.4823"/>
  <path d="m93.301 45.141c-0.20744 0.6042-0.37058 1.0513-0.49746 1.3635-0.0081-0.21751-0.0141-0.46725-0.02014-0.719l-0.03021-1.0453c-0.084588-2.2315-2.2517-22.136-4.4771-27.141 1.6575-1.0896 4.5255-2.0341 5.8587-1.3675 0.576 0.29002 0.95262 0.88012 1.152 1.8086 0.40079 1.877 0.56593 4.2113 0.56593 6.7247 0 7.9634-1.6434 17.725-2.5517 20.376m2.6605-27.318c-0.2296-1.0755-0.90026-1.8146-1.6132-2.1731-1.5971-0.79956-5.1901 0.64649-6.6845 1.3917-3.1177 1.5608-7.8425 1.875-14.088 0.33432-5.3351-1.3131-7.5908-0.26585-8.2433 0.78143-0.10876 0.17119-0.17119 0.64448-0.17119 0.81366 0 0.18327 0.06445 0.35648 0.18932 0.50753 0.39072 0.46926 1.5125 0.72303 1.8126 0.79352 0.3021 0.0725-0.52565 1.1117-0.63038 1.3313-0.44912-0.04028-1.5729-0.03222-2.3282 0.97679-0.17522 0.23362-0.24772 0.49343-0.24772 0.76532 0 1.0292 1.2708 2.3121 1.436 2.6263s-1.1379 1.3554-1.5387 1.8327c-0.2155-0.45919-0.69684-0.92845-1.6454-0.86602-0.34439 0.02417-0.62233 0.17119-0.82775 0.43905-0.29606 0.39072-0.37662 0.98485-0.37662 1.5206 0 0.3746 0.04028 0.7049 0.0725 0.92644-0.31217 0.04431-1.3816 0.03625-1.4118-0.06646-0.2014-0.71296-0.98686-1.7884-1.877-1.869-0.23564-0.02215-0.44107 0.05639-0.5901 0.2296-0.20946 0.24168-0.27793 0.66059-0.27793 1.1017 0 0.43502 0.31016 1.0473 0.1289 1.2084-0.18126 0.15911-1.9556-0.10674-1.9556-0.10674 0.11883-0.17723 0.49947-0.71094 0.49947-0.91436 0-0.16716-0.03827-0.33432-0.11681-0.4894-0.15709-0.31821-0.61024-0.86199-1.871-0.93651-0.4028-0.02417-0.74115 0.11077-0.9788 0.38467-0.34641 0.39676-0.43704 1.0251-0.43704 1.5749 0 0.33231 0.03424 0.62233 0.06243 0.82775-0.36051 0.04834-1.5165 0.5035-1.7139 0.22557-0.19939-0.27995-0.74518-1.5629-1.1641-1.7381s1.869-1.1883 2.0664-2.0422c0.0282-0.1289 0.04229-0.25779 0.04229-0.38467 0-0.50753-0.23362-0.98686-0.67066-1.3514-0.31418-0.26182-0.67268-0.3746-1.0674-0.34037-0.64045 0.05841-1.2749 0.67268-1.5528 0.82171-0.28196 0.14904-0.44107-1.3071-0.22758-1.3534 0.21348-0.04834 1.1822-0.33634 1.3252-0.62837 0.29203-0.59614-0.0141-1.5145-0.8197-2.4551-0.32224-0.37662-0.68073-0.53975-1.0614-0.48336-0.77338 0.1148-1.3292 1.1359-1.5004 1.4863-0.16112 0.05438-1.2386 0.3746-1.4138 0.47128-0.17522 0.09667-0.39474-1.8791-0.35446-2.0664 0.64045-0.19133 1.0553-0.5035 1.2124-0.9345 0.04834-0.13091 0.0725-0.27189 0.0725-0.4169 0-0.40481-0.18327-0.85998-0.54781-1.3615-0.22557-0.31016-0.52163-0.49544-0.88012-0.55184-0.51357-0.08056-1.0171 0.13091-1.3353 0.3021-0.09063-0.41488-0.42898-1.4118-0.33835-1.5588 0.08862-0.14299 0.23161 0.31016 1.869-0.42495 1.2668 0.5035 1.4763 0.24571 2.2174-0.24168 0.76532-0.50149 1.1762-1.2547 1.0735-1.9677-0.04229-0.30613-0.20341-0.55586-0.46121-0.719-0.72504-0.45718-2.0784-0.16112-2.6041-0.02014-0.12487-0.23765-0.93651-1.0795-0.53975-1.1419 0.39676-0.06243 1.3353-0.80157 1.5246-1.3715 0.05236-0.15911 0.07855-0.31418 0.07855-0.45919 0-0.32023-0.12285-0.60219-0.35849-0.80761-0.67266-0.5901-1.6273-0.17723-2.1026 0.088614-0.12285-0.41488-0.719-1.442-0.50753-1.7381 0.21147-0.29807 2.2094-0.87005 2.6343-1.0392 0.16112 0.75122 0.51156 1.3031 1.009 1.5145 0.48336 0.20543 1.0533 0.088616 1.6092-0.32828 0.34842-0.26182 0.52565-0.57802 0.52565-0.93852 0-0.5317-0.3887-0.98686-0.66059-1.2447 0.20341-0.14501 0.98485-0.84588 1.0533-0.46322 0.07049 0.38467 0.77136 1.2547 1.4783 1.4299 0.8056 0.2014 1.6313-0.10473 2.2033-0.82171 0.21751-0.26988 0.32627-0.53371 0.32627-0.78546 0-0.11077-0.02014-0.21953-0.06243-0.32425-0.28398-0.70691-1.4541-0.98485-1.9355-1.0714-0.028196-0.27592-0.22355-1.2346-0.15105-1.5024 0.07452-0.26585 1.8227-0.81366 1.865-0.47329 0.04431 0.34238 0.30411 0.81768 0.96471 1.1842 0.28397 0.15709 0.5035 0.076532 0.61024 0.016112 0.49544-0.29203 0.70087-1.7018 0.6183-1.9878-0.08257-0.28599 1.5749-0.34842 1.5105-0.068476-0.06445 0.27793-0.0866 0.5176-0.0866 0.85394 0 0.72504 0.20341 1.589 1.0513 2.0422 0.42093 0.22355 0.79553 0.24571 1.1117 0.064448 0.51558-0.29404 0.6908-1.0412 0.74921-1.4783 0.288 0.10473 1.301 0.55788 1.2124 0.82373-0.24168 0.72303 0.31418 4.5174 2.3987 6.5717 3.4037 3.3553 8.203 3.8649 10.312 4.1086 0.6042 0.06848 0.54781-0.35044-0.24974-0.48135-3.027-0.50551-7.2101-1.5608-9.8102-4.3341-1.585-1.6918-2.1771-4.6362-2.0402-5.8084 0.13695-1.1742-2.2073-1.7643-2.3362-1.3534-0.13091 0.40884-0.098686 1.2869-0.48739 1.5085-0.058406 0.034238-0.23362 0.13292-0.62031-0.072504-1.2205-0.64851-0.8056-2.1832-0.63441-2.6424 0.31821-0.84789-2.5678-0.4753-2.588-0.12285s-0.14904 1.8066-0.37058 1.9355c-0.0081 0.00604-0.03021 0.02014-0.10271-0.02014-0.72303-0.4028-0.80761-0.85998-0.8197-1.2285-0.012084-0.36655-2.6283 0.29807-2.8055 0.60823s0.10473 2.2617 0.42898 2.3282c0.32627 0.066462 1.5588 0.36051 1.732 0.78949 0.02417 0.06042 0.09869 0.24571-0.1873 0.60219-0.45315 0.56392-1.0654 0.79956-1.6837 0.64448-0.6042-0.14904-1.1218-0.99492-1.158-1.4098-0.07653-0.85595-2.5658 0.70087-2.1791 1.1419 0.39072 0.44107 0.74518 0.63038 0.74518 1.0614 0 0.19536-0.01813 0.34842-0.23362 0.50954-0.28599 0.21348-0.70893 0.43502-1.1037 0.26786-0.39676-0.16918-0.82373-1.1137-0.76129-1.5468 0.08056-0.54378-3.4963 0.85192-3.744 1.4863-0.20946 0.53975 0.81164 2.7431 1.1419 2.5517 0.7049-0.41287 1.3574-0.6908 1.7522-0.34641 0.44107 0.38669-0.0725 1.6595-1.3272 1.6736-0.66462 0.0081 0.31217 2.4349 0.87609 2.2577 1.585-0.50149 2.5356-0.26182 2.6021 0.21147 0.0725 0.50753-0.51558 1.2527-1.1037 1.6374-0.61427 0.4028-1.3876-0.50149-1.871-0.04431-0.48135 0.45919-1.2245 0.21751-1.9334 0.33432-0.71296 0.11681 0.23161 2.8196 0.49544 2.729 0.26182-0.09063 0.84588-0.47933 1.436-0.38669 0.22154 0.03424 0.40079 0.14904 0.54378 0.34842 0.26988 0.36856 0.55989 0.89623 0.41086 1.3051-0.11077 0.3021-0.77338 0.77942-1.2326 0.67872-0.46121-0.10473 0.35648 3.0311 0.65254 3.0995 0.29203 0.06848 2.0341-0.76532 2.0341-0.76532 0.13695-0.31016 0.64448-1.2165 1.158-1.291 0.19737-0.03021 0.39273 0.0725 0.59614 0.31016 0.64045 0.74719 0.94255 1.5085 0.75122 1.8972-0.15508 0.3162-0.56996 0.50954-1.2104 0.41287-0.64247-0.09466 0.01007 2.9203 0.65858 2.4309 0.65052-0.48739 1.2749-1.5004 2.2053-0.72504 0.39474 0.32828 0.56191 0.77539 0.45718 1.2285-0.17723 0.76935-1.9777 1.5508-2.3503 1.7441-0.37058 0.19133 1.1802 0.82574 1.4984 2.6585 0.05639 0.32224 3.0673 0.01007 2.7048-0.56392-0.36252-0.57198-0.22557-1.732 0.2155-2.2376 0.13494-0.15508 0.31821-0.22355 0.56392-0.20946 0.7331 0.04229 1.2588 0.28196 1.4461 0.65455 0.04229 0.08459-0.88817 1.2608-0.67469 1.5286 0.2155 0.26786 2.8317 0.53371 3.2305 0.31217s-0.13292-1.2426-0.13292-1.7743 0.21348-0.82373 0.29807-0.81567c0.38266 0.03424 0.84588 0.40884 1.1802 0.95262 0.25376 0.41086 0.16313 0.88415 0.34037 0.92845 0.17723 0.04431 2.3503 0.17723 2.4833-0.04431 0.13091-0.22154-0.4894-1.7743 0.04229-2.5477 0.10674-0.15508 0.25779-0.22557 0.45516-0.23765 1.1258-0.07653 1.4078 1.0392 1.6958 1.0473 0.288 0.0081 2.2839-2.2335 2.151-2.5638s-2.0664-2.2617-1.4783-3.0452c0.74518-0.9929 1.6414-0.74719 2.0241-0.75726 0.38669-0.01007 1.7441-2.1469 1.2386-2.2899s-1.7965-0.28397-2.1328-0.68476c-0.03424-0.04431-0.14501-0.17723 0.0141-0.431 0.48739-0.77942 2.9948-2.3685 7.8727-0.72907 5.8688 1.5226 9.3027 1.6656 13.991-0.08056 2.151 4.8799 4.3341 24.247 4.4449 26.976 0.06243 1.5568 0.31418 2.6887 0.64448 2.7411 0.30613 0.04632 0.89824-0.46725 1.583-2.4631 1.2064-3.5205 3.3634-19.445 1.6696-27.344"/>
  <path d="m64.058 10.259 0.50149 0.33432c0.62434-1.152 2.4933-2.5457 3.9857-2.2456 1.579 0.31821 2.6424 1.8791 2.9888 4.9585l0.56191 0.08257c-0.46322-4.2334-2.2698-5.7057-3.5829-5.9695-1.7884-0.36051-3.7098 1.4642-4.455 2.8397"/>
  <path d="m89.998 8.4662c-1.2527 0.26988-1.7824 2.8861-1.7824 4.9021l0.61024-0.21953c0-2.1892 0.72705-3.6997 1.4017-3.8447 0.50954-0.11077 1.3212 0.69684 1.8871 1.9475l0.38467-0.4169c-0.91033-2.012-1.9073-2.4953-2.5014-2.3685"/>
  <path d="m67.28 12.333 0.55385 0.0866c-0.50954-1.446 0.63844-3.2405 1.583-3.8427l-0.41287-0.33432c-1.0453 0.66663-2.3866 2.2154-1.724 4.0904"/>
  <path d="m91.066 12.152-0.35648 0.07049c0.32828-1.158-0.40683-2.596-1.011-3.0774l0.26383-0.26585c0.66865 0.5317 1.5266 1.7723 1.1037 3.2728"/>
  <path d="m71.047 11.145c0 0.62233-0.21147 1.1278-0.47329 1.1278-0.26383 0-0.4753-0.50551-0.4753-1.1278s0.21147-1.1278 0.4753-1.1278c0.26182 0 0.47329 0.50551 0.47329 1.1278"/>
  <path d="m89.978 11.044c0 0.58406-0.19133 1.0574-0.42697 1.0574-0.23765 0-0.42697-0.47329-0.42697-1.0574s0.18932-1.0574 0.42697-1.0574c0.23564 0 0.42697 0.47329 0.42697 1.0574"/>
  <path d="m74.41 13.401c-0.10876-1.0211 0.53975-1.9173 1.1037-2.4873 1.3031-1.3192 3.5003-2.2396 5.0028-2.0966 2.739 0.26786 5.1961 1.7562 5.4056 4.2636 0.04834 0.58003-0.08056 1.0271-0.39474 1.3695-0.65254 0.70893-2.1147 1.0392-4.602 1.0392l-0.98283 4e-3c-3.4862 0.02417-5.3149-0.05841-5.5325-2.0925m0.67268-3.1499c-0.94859 0.95866-1.4138 2.2114-1.3071 3.2184 0.29002 2.7028 2.8861 2.6847 6.1709 2.6605l0.9788-4e-3c2.7149 0 4.2777-0.38467 5.0692-1.2447 0.43704-0.47329 0.62635-1.0976 0.56392-1.8529-0.16515-1.9657-2.2154-4.6624-6.185-4.894-1.9516-0.1148-3.8447 0.65254-5.2908 2.1167"/>
  <path d="m77.451 12.011c0.23765 0.1873 0.94255 1.0453 1.2024 1.3131 0.26182 0.26786 0.64247 0.42495 0.37259-0.23362-0.27189-0.65858-0.6324-1.3494-1.291-1.6495s-0.52364 0.38266-0.28397 0.56996"/>
  <path d="m83.03 12.877c-0.18529 0.55586-0.0081 0.90429 0.44107 0.42495 0.44912-0.48135 0.85192-1.0654 0.98485-1.2467s-0.14501-0.55184-0.45114-0.44912c-0.30613 0.1007-0.80761 0.76935-0.97478 1.2708"/>
 </g>
 <g stroke-width="2.014">
  <path d="m94.228 49.189 0.95061 1.3876s1.7038-2.6404 1.1299-4.2536c0 0-1.8086 2.7451-2.0805 2.8659" fill="#dcdddd"/>
  <path d="m51.732 42.563c0.37058 2.0986 3.3009 13.006 21.892 14.99 14.871 1.587 20.625-4.896 22.037-6.8939 1.1399-1.6172 1.4783-3.7017 1.0372-4.6241l-0.59816 0.46523c0.2739 0.56795 0.04632 1.9153-1.0956 3.5326-1.3594 1.9294-6.9302 8.0963-21.455 6.5455-18.138-1.9355-20.833-12.108-21.189-14.126z" fill="#0f141b"/>
  <path d="m95.194 37.468c1.2708 1.1117 0.83984 7.6915 0.6767 8.3621-0.49947 1.9193-2.0462 3.6735-4.4731 5.0733-5.8507 3.3755-15.659 4.1488-23.848 1.8831-9.3913-2.5981-13.878-9.7035-13.258-12.009l-0.60823 0.43704c-0.7049 2.6202 3.5829 9.6108 13.639 12.392 8.3923 2.3221 18.468 1.5125 24.5-1.9657 2.6283-1.5165 3.7319-3.6957 4.8719-5.5949 1.3353-2.2335 0.66462-8.4669-1.0815-9.9935z" fill="#0f141b"/>
 </g>
</svg>
