<?xml version="1.0" encoding="UTF-8"?>
<!-- Created with Inkscape (http://www.inkscape.org/) -->
<svg version="1.1" viewBox="0 0 85.749 73.76" xmlns="http://www.w3.org/2000/svg">
 <g transform="translate(-1.8402 -2.6667)">
  <path d="m65.788 15.018c6.9574-6.9787 12.252-8.5381 13.131-8.1388 0.62256 0.28408 0.82451 10.104-2.551 18.126" fill="#f2984f"/>
  <path d="m78.92 6.8799c-2.103 2.2321-5.3813 8.3499-7.2156 13.722l4.6646 4.4035c3.3755-8.0219 3.1735-17.842 2.551-18.126" fill="#a86124"/>
  <path d="m71.703 20.602 3.0839 2.9108c1.1434-7.9718 2.9776-12.881 4.1317-16.633-2.1015 2.2321-5.3813 8.3498-7.2156 13.722" fill="#92541c"/>
  <path d="m75.111 19.57c0.0151-0.53148-0.0455-1.0659-0.1822-1.5822 0.43275-2.7317-1.8813-4.8832-5.3191-5.1338 0.78806-5.5347-1.7462-7.867-5.6167-7.4995-1.2482-1.4243-3.0551-2.2944-5.0746-2.2944-2.885 0-5.2006 1.5898-5.5438 3.8827-0.10782-3e-3 -0.21409-9e-3 -0.32191-9e-3 -3.5273 0-7.3674 3.5881-7.3674 8.0766 0 1.6642 0.8488 3.3922 2.4674 4.2653 0 0 20.207 7.6316 24.055 7.3583 3.8477-0.2716 3.3011-6.0844 2.9032-7.0652" fill="#ef8200"/>
  <path d="m56.803 18.532s-0.58763-0.73495-0.34774-0.75165c1.9664-0.1231 4.3488-1.3362 5.4846-2.6466 1.5169-1.7477 4.2501-2.3247 7.6696-2.2792 0.17156-1.2102 0.18525-2.267 0.0607-3.1766-1.195 0.78048-2.6284 1.28-3.8826 0.7349-0.92017 0.98244-3.5228 2.2518-5.2507 1.5974-1.0523 1.7188-2.9959 2.7468-5.1657 2.5601-0.28545 1.2451-6.8618 4.0405-9.3034 2.3566 0.39633 0.96419 1.0963 1.8176 2.0848 2.3505 0 0 2.2048 0.83364 5.2978 1.9375l1.8798-0.77286z" fill="#cf7100"/>
  <path d="m83.04 56.623c-2.1273-1.1874-10.928-3.9707-11.337-4.1332-0.40998-0.16399-1.5154-1.7599-1.8965-2.6891l-3.4666 8.4334c1.0644 1.4455 1.7614 2.1334 2.4356 2.4006 0.6757 0.26557 4.9531 0.87918 6.0585 0.96118 1.7842 0.13214 3.1143 0.78199 5.2993 1.7401 1.1662 0.51172 2.4356 1.3499 3.8067 1.3499 1.0918 0 1.8616-0.39642 2.0013-1.1404 0.74859-0.29613 1.192-0.87612 1.031-1.5989 1.0447-1.1874-0.40241-3.3557-3.9327-5.3236" fill="#f2984f"/>
  <path d="m86.774 59.659c-0.15185 0.52081-0.33405 0.93689-0.52993 1.0736 0.13209 0.55727-0.15487 1.192-0.91258 1.4789 0.0409 0.61344-1.0842 1.5549-2.5783 1.0022-1.4941-0.5527-4.6661-2.4158-6.8557-2.7423-2.1896-0.32798-5.7306-0.71669-6.631-1.0857-0.53753-0.21995-1.5731-1.1525-2.516-2.1516l-0.40998 1.0006c1.0644 1.4455 1.7599 2.1334 2.4356 2.4006 0.6757 0.26557 4.9516 0.87918 6.057 0.96118 1.7857 0.13214 3.1158 0.78199 5.3008 1.7401 1.1662 0.51172 2.4356 1.3499 3.8067 1.3499 1.0918 0 1.8616-0.39642 2.0013-1.1404 0.74707-0.29613 1.192-0.87612 1.031-1.5989 0.50716-0.57702 0.42211-1.3848-0.1989-2.2883" fill="#d18344"/>
  <path d="m83.04 56.623c-0.45705-0.25524-1.2238-0.5846-2.1486-0.94598-0.97028-0.0516-1.8267-0.0745-1.8631 4e-3 -0.0805 0.18379 0.16399 1.3301 0.40997 2.0256-0.40997-0.0215-2.0468-0.10158-2.0666 0.16399-0.0211 0.26729 0.40998 1.4942 0.83817 2.1076-0.26574 0.043-1.7173 0.0818-1.7796 0.30819-0.0366 0.13213 0.41605 1.0158 0.83818 1.8464 0.84728 0.30086 1.7447 0.71062 2.8653 1.2026 1.1662 0.51173 2.4356 1.3499 3.8067 1.3499 1.0918 0 1.8616-0.39642 2.0013-1.1404 0.74859-0.29613 1.192-0.87612 1.031-1.5989 1.0447-1.1874-0.40241-3.3557-3.9327-5.3236" fill="#a86124"/>
  <path d="m86.774 59.659c-0.15185 0.52081-0.33405 0.93689-0.52993 1.0736 0.13209 0.55727-0.15487 1.192-0.91258 1.4789 0.0409 0.61344-1.0842 1.5549-2.5783 1.0022-1.3575-0.50256-4.0982-2.0817-6.2301-2.6132 0.14729 0.35854 0.45097 0.95662 0.74403 1.5336 0.8488 0.30086 1.7447 0.71062 2.8668 1.2026 1.1662 0.51172 2.4356 1.3499 3.8067 1.3499 1.0918 0 1.8616-0.39642 2.0013-1.1404 0.74707-0.29613 1.192-0.87612 1.031-1.5989 0.50716-0.57702 0.42211-1.3848-0.1989-2.2883" fill="#92541c"/>
  <path d="m41.701 65.873c-0.51778 0.98239-3.7778 6.0828-4.036 6.3819-0.78048 0.89738-0.81084 1.8358-0.37507 2.097 0.15185 0.0913 0.34012 0.13041 0.54359 0.13515 0.17312 0.68786 0.95965 1.0219 1.8601 0.62256 0.41303 0.70305 1.7735 0.50415 3.4392-0.70757 1.1358-0.82602 3.544-3.8067 4.2577-5.3904z" fill="#d18344"/>
  <path d="m45.181 70.656s-0.0744-1.1738-0.20045-1.2983c-0.12452-0.12439-1.3226 0.29914-1.9482 0.47527 0 0 0.20045-1.274 0.0759-1.4243-0.0744-0.0895-1.6703-0.0172-2.9852 0.0624-1.0735 1.7067-2.3035 3.6047-2.4583 3.7839-0.78048 0.89738-0.81084 1.8358-0.37507 2.097 0.15185 0.0913 0.34012 0.13041 0.5436 0.13515 0.17311 0.6894 0.95965 1.0219 1.8601 0.62256 0.41304 0.70305 1.7735 0.50415 3.4392-0.70757 0.89436-0.64989 2.5768-2.6375 3.6002-4.2258-0.57701 0.1429-1.2998 0.34606-1.5518 0.47983" fill="#92541c"/>
  <path d="m57.213 64.686c-1.4531 2.8243-5.9462 5.0837-9.3733 5.0837-2.185 0-3.4863-0.80782-4.8499-2.4432l3.5273-4.5234 8.4318 0.1231z" fill="#d18344"/>
  <path d="m43.42 47.837c0.49197-1.1191 3.957-4.9941 4.8848-6.303 2.3779-3.3573 2.0742-7.1488 0.0547-9.1683-0.7911-0.79107-2.6466-1.4197-5.0761-1.3924l-2.1 9.4143 0.16248 5.0472 1.0933 3.0839" fill="#ef8200"/>
  <path d="m41.694 46.419 0.74403 2.1 0.98091-0.68179c0.49197-1.1191 3.957-4.9926 4.8848-6.303 1.1889-1.6779 1.7067-3.4651 1.6764-5.0837-0.0258 3.3436-6.388 4.575-8.2861 9.9685" fill="#cf7100"/>
  <path d="m42.793 48.192c-0.73643-2.0468 0.10933-4.9106 1.0918-6.6583 0.98243-1.7462 2.4006-3.1097 2.4006-5.8384 0-2.0468-0.39628-3.4924-1.6642-5.3479-1.9254-2.8197-4.8924-4.3245-7.7486-4.5037l1.7735 16.7 3.0004 6.4123" fill="#ef8200"/>
  <path d="m39.756 44.916 1.8904 4.0405 1.1464-0.76379c-0.73643-2.0468 0.10933-4.9121 1.0918-6.6583 0.88525-1.5746 2.1212-2.841 2.3566-5.0731-0.47679 2.5616-5.354 2.9458-6.4852 8.4546" fill="#cf7100"/>
  <path d="m41.946 48.601c-2.0195-3.0839-2.2549-6.719-1.2284-10.996 0.659-2.7438 0.65445-7.0045-0.16399-9.1136-0.85335-2.2017-2.4022-4.3746-3.8735-5.7305-2.4735-2.2746-7.6438-2.8486-11.733-0.2462l9.3581 19.428 6.0859 7.8594" fill="#ef8200"/>
  <path d="m30.719 34.498 3.5865 7.4449 6.0859 7.8594 1.5549-1.2011c-1.0948-1.6718-1.6612-3.5076-1.7902-5.5195-2e-3 -9e-3 -3e-3 -0.0129-5e-3 -0.0215-0.21866-2.4918-2.8653-5.4679-9.4325-8.5624" fill="#cf7100"/>
  <path d="m40.883 49.474c-5.2128-5.6759-8.1312-17.764-9.0043-20.055-2.3004-6.0403-6.4138-7.9126-10.096-7.9126-8.4485 0-13.938 5.7108-13.18 14.46l30.616 15.391" fill="#ef8200"/>
  <path d="m10.34 36.841 28.879 14.516 1.6642-1.8828c-1.3575-1.4774-2.557-3.3906-3.6078-5.4512-2e-3 -2e-3 -3e-3 -3e-3 -5e-3 -3e-3 -5.1414-5.3221-17.245-7.2034-26.931-7.1791" fill="#cf7100"/>
  <path d="m39.681 51.193c-11.706-13.37-18.072-17.463-26.194-17.463-5.8004 0-11.242 5.2022-11.242 12.061 0 2.639 1.9648 8.6778 9.141 7.9399l26.878-0.9551" fill="#ef8200"/>
  <path d="m17.307 44.863c-4.0937 4.039-10.533 4.6934-14.834 2.7043 0.69241 2.8896 3.0824 6.7616 8.9132 6.1633l26.876-0.9551 1.4182-1.5822c-1.2603-1.4395-2.4553-2.7666-3.6017-3.998-2.0165-2.1455-13.587-4.4612-18.772-2.3323" fill="#cf7100"/>
  <path d="m23.692 47.209c-9.0225 0-13.424 4.7481-13.424 9.3323 0 4.0755 2.964 7.4221 8.1312 7.4221 3.2904 0 5.6243-1.3727 6.1588-4.3488 4.1134-4.4034 8.2952-6.2225 12.86-5.6106l1.0371-1.4197c-5.5119-3.6837-10.615-5.3752-14.762-5.3752" fill="#ef8200"/>
  <path d="m23.965 55.014c-1.0918 2.1273-5.8399 3.0566-7.3674 1.3863-1.0006 1.0097-3.711 2.106-6.2878 0.96569 0.37352 3.6913 3.2753 6.5976 8.0887 6.5976 3.2904 0 5.6243-1.3727 6.1588-4.3473 4.1134-4.405 8.2967-6.2241 12.86-5.6121l1.0371-1.4197c-0.7501-0.5011-1.4911-0.96118-2.226-1.3909-5.5256 0.2505-10.773 2.5783-12.263 3.8204" fill="#cf7100"/>
  <path d="m75.591 19.95c-0.17312 3.2783 0.39327 4.4353 2.346 5.5392" fill="#f2984f"/>
  <path d="m81.198 26.704c0-0.94598-1.1965-1.4987-2.8683-1.2588-0.62863-2.8258-1.9891-4.9652-3.2191-5.8748-0.0168 1.6004-0.73644 3.1462-2.2564 4.0208-0.17006 0.70912-0.49045 1.3924-1.0022 2.0074 0-1.7917-2.882-4.5188-5.6243-5.6486 0.50108 0.7015 0.77288 1.4334 0.82299 2.1288-1.3104-1.365-4.0937-1.283-6.631-1.8555-2.2032-0.49804-3.0703-0.95356-3.6169-1.6915-11.785-1.7811-20.752 4.2136-20.913 5.1839-0.12603 0.75771 6.9013 7.9475 14.079 9.7407 1.9846 3.5227 6.1071 6.9271 8.1859 7.8184l-0.65444-0.28709c-0.24904 2.3566-2.9124 4.7891-6.877 4.7891-4.0436 0-7.9702 1.1798-10.641 3.6837-1.7781 1.6672-5.0716 6.7676-6.8542 10.955-1.3119-0.49959-2.513-0.12913-3.5425 1.3089-0.40847 0.57396-2.018 3.2752-3.2737 5.2674-1.2557 1.9922-3.4043 5.2112-3.623 5.6759-0.33405 0.71213-0.37507 1.3757 0.18525 1.7796 0.14579 0.10631 0.29915 0.18508 0.45857 0.23544 8e-3 0.46008 0.34468 1.0856 0.92321 1.3165 0.66051 0.26428 1.2238 0.24146 1.7432-0.12009 1.4364 0.37059 2.3885 0 3.465-1.0113 0.39478-0.37188 3.834-3.8492 5.0807-5.7731 0.66356 0.28407 1.4926 0.36155 3.1705 0.36155 4.3503 0 7.3188-2.2625 9.0514-5.6881 1.277 0.47833 2.9199 0.72733 4.3898 0.71213 4.329-0.043 11.637-2.0104 14.038-3.5592 4.4262-2.8561 6.1664-8.8008 5.2401-16.209-0.11691-0.93384-0.0455-1.7188 0.10932-2.4067 5.808-1.7857 10.655-8.2436 10.655-15.602" fill="#f2984f"/>
  <path d="m31.756 63.004c-1.9238 0.40546-6.6446 8.491-7.3948 9.639-0.73947 1.1297-1.854 1.2117-1.9117 0.9384-5e-3 0.34305 0.1169 0.64533 0.42362 0.867 0.14578 0.10459 0.30065 0.18508 0.45856 0.23544 8e-3 0.46012 0.34468 1.0842 0.92473 1.3165 0.659 0.26428 1.2223 0.24146 1.7432-0.12138 1.4349 0.37188 2.3885 1e-3 3.4635-1.0113 0.39478-0.37188 3.8356-3.8492 5.0822-5.7716 0.66356 0.28408 1.4911 0.36155 3.169 0.36155 4.3518 0 7.3204-2.2625 9.0529-5.6896 0.58915-1.0431 0.77896-1.8251 1.0826-2.721-6.016 6.3956-14.17 1.5518-16.094 1.9573" fill="#d18344"/>
  <path d="m65.423 42.953c-0.12603 0.46614 2.4599 2.3293 4.9622 1.1388-0.0275-0.6681 0.0396-1.2573 0.15792-1.7856-2.7894 0.81083-5.0214 0.27805-5.1202 0.64684" fill="#d18344"/>
  <path d="m75.926 23.456c0.35837 0.88069 1.0234 1.4759 2.0302 2.0453 0.0926-0.0215 0.20195-0.0344 0.37352-0.0547-0.55575-2.5008-1.6839-4.4626-2.7894-5.5119-0.12603 1.3924 0.0896 2.7924 0.3857 3.5212" fill="#5a4c2a"/>
  <path d="m77.05 21.98c-0.46768-0.85641-0.99002-1.5518-1.5093-2.0453-0.12754 1.3924 0.0896 2.7924 0.3857 3.5212 0.0729 0.17906 0.16248 0.34477 0.26118 0.50411 0.68785 0.31894 0.94902-0.64989 0.86247-1.98" fill="#fff"/>
  <path d="m78.33 25.446c-0.23536-1.0614-0.57548-2.0256-0.97331-2.8653-0.25968 1.1404 0.0592 2.3369 0.97331 2.8653" fill="#7e6b3b"/>
  <path d="m51.033 31.82c-0.62711-0.25825-1.2011-0.68174-1.4729-1.1054 0.46313-0.29914 2.2366-0.77743 2.9199-0.91408-0.71062-0.29915-2.4568-0.84578-3.5744-1.0371 1.1996-0.76374 3.4651-1.1996 4.7481-1.3362-0.95661-0.54513-4.203-0.92778-5.9492-0.92778 1.3347-1.0538 4.159-2.0574 6.8754-2.0195-6.5718-2.4644-13.473-2.4295-18.69-0.76378-0.12603 0.75771 6.9013 7.946 14.079 9.7407 0 0-0.28545-0.68179-0.38114-1.1191 0.35381-0.17605 0.84577-0.34004 1.4456-0.5178" fill="#a86124"/>
  <path d="m53.653 27.427c-0.95509-0.54508-4.203-0.92773-5.9477-0.92773 1.3332-1.0538 4.1575-2.0575 6.8755-2.0195-6.5718-2.4644-13.475-2.4295-18.692-0.76379 2.6132 0.27504 8.4698 2.305 13.754 4.6692 1.2451-0.53148 2.9579-0.84577 4.0102-0.95816" fill="#92541c"/>
  <path d="m69.186 48.949c-0.99913-0.24921-2.0013 0.0564-2.9063 1.4744-0.75769 1.1859-2.7028 4.6631-4.2774 5.9553-0.79718 0.65445-8.5958 2.2503-9.1273 2.6998-0.93839 0.79568-3.049 1.3727-4.8438 1.2558-0.1989 0.92928-0.56182 1.9193-1.2649 3.4347 1.277 0.47833 2.92 0.72733 4.3898 0.71213 4.3306-0.043 11.637-2.0104 14.039-3.5592 3.0156-1.9466 4.7815-5.3297 5.31-9.6314 0.14273-1.1753-0.25206-2.0742-1.3195-2.3414" fill="#fff1ac"/>
  <path d="m47.535 61.97c-0.19588 0.5193-0.4449 1.1024-0.76833 1.7994 1.2755 0.47829 2.92 0.72733 4.3898 0.71213 4.329-0.043 11.637-2.0104 14.038-3.5592 2.097-1.3544 3.588-3.4013 4.4809-5.969-4.7648 4.903-14.196 7.5906-22.14 7.0166" fill="#dcd096"/>
  <path d="m32.846 70.057c-0.12603-0.10029-0.92321 0.29915-1.7477 0.64839 0.10021-0.42354 0.32497-2.4219 0.12452-2.5464-0.20044-0.12439-1.7477 0.67417-2.5479 0.97482 0-0.27633 0.0759-1.6991-0.0744-1.7735-0.15035-0.0757-0.64989 0.10029-1.4729 0.42354-0.0138-0.19584-0.1154-0.99307-0.23536-1.7219-0.19739 0.32023-0.39327 0.63319-0.58004 0.92928-1.2557 1.9922-3.4043 5.2128-3.623 5.6759-0.33556 0.71217-0.37507 1.3772 0.18525 1.7811 0.14424 0.1046 0.29914 0.18508 0.45705 0.23544 8e-3 0.46012 0.34468 1.0842 0.92472 1.3165 0.659 0.26428 1.2223 0.24147 1.7432-0.12138 1.4364 0.37189 2.3885 2e-3 3.4635-1.0113 0.25662-0.24147 1.7963-1.7918 3.1872-3.377 0.13971-0.6848 0.26118-1.3802 0.19588-1.4334" fill="#a86124"/>
  <path d="m22.449 73.581c-5e-3 0.34305 0.1169 0.64533 0.42517 0.867 0.14423 0.10631 0.29914 0.18508 0.45856 0.23544 6e-3 0.46008 0.34469 1.0842 0.92321 1.3165 0.66052 0.26427 1.2239 0.24146 1.7432-0.12009 1.4364 0.37059 2.3885 0 3.4651-1.0113 0.25662-0.24275 1.7948-1.7933 3.1857-3.377 0.13972-0.6863 0.26269-1.3817 0.19589-1.4349-0.12452-0.10029-0.92321 0.29914-1.7477 0.64838 0.1002-0.42353 0.32492-2.4219 0.12452-2.5464-0.20045-0.12439-1.7477 0.67417-2.5464 0.97482 0-0.27504 0.0744-1.6991-0.0759-1.7735-0.11996-0.0607-0.46919 0.043-1.028 0.25352-1.4957 2.1941-2.841 4.4611-3.2115 5.029-0.73948 1.1297-1.8525 1.2117-1.9117 0.9384" fill="#92541c"/>
  <path d="m75.482 70.922c-0.42517-1.2132-2.3171-3.4423-5.0746-6.4123-1.0644-1.1464-6.4123-5.0746-7.8047-6.3577 0.16399-0.84578-0.13666-2.428-0.32798-2.8379l-9.7407 2.264c-0.42973 1.9299 0.40998 5.5134 2.7286 6.713 2.0362 1.0538 8.4045 4.8575 11.106 7.0683 2.7013 2.2093 2.264 2.9473 3.2464 3.7095 0.98242 0.76529 2.5115 0.49197 2.7301 0.3551 0.12146-0.0758 0.19739-0.1868 0.24598-0.31292 0.92624 0.49499 1.775 0.0215 1.9892-0.85339 1.3772-0.20359 1.3666-2.0074 0.90194-3.336" fill="#f2984f"/>
  <path d="m74.425 73.016c-0.30672 1.0432-1.6171 1.3301-2.0256 1.1449-1.1054 0.57397-2.4067-1.0067-3.1158-1.9664-0.7091-0.95962-3.5972-3.7839-5.3707-4.8514-1.7735-1.0674-6.3303-3.7885-7.5588-4.3898-1.2223-0.59829-3.6549-2.3597-3.8598-3.3436 0.23535 1.8009 1.1327 3.8341 2.7681 4.6814 2.0362 1.0538 8.4045 4.8574 11.106 7.0667 2.7013 2.2109 2.2655 2.9473 3.2479 3.711 0.98091 0.76378 2.51 0.49047 2.7286 0.35381 0.12147-0.0745 0.1989-0.18681 0.24599-0.3112 0.92624 0.49503 1.775 0.0215 1.9907-0.85486 1.2542-0.18508 1.3544-1.6991 1.0128-2.9716 0.19438 0.85791-0.69999 1.772-1.1692 1.731" fill="#d18344"/>
  <path d="m75.482 70.922c-0.34468-0.98545-1.6581-2.6406-3.6169-4.818-0.56485-0.22468-1.075-0.4145-1.1039-0.36758-0.0607 0.1033 0.10933 0.53294 0.15035 0.86092-0.34162-0.23242-2.6876-1.6445-2.9336-1.5837-0.24598 0.0624-0.34774 2.3338-0.36896 2.5996-5e-3 0.0788 2e-3 0.12138 0.0138 0.14893 0.0306 4e-3 0.0607 9e-3 0.0896 0.0172 0 0-0.0607 0.0486-0.0896-0.0172-0.5436-0.0956-1.2512-0.16227-1.4456-0.0258-0.20497 0.1429-0.0198 1.1464 0.24598 2.2716-0.31584-0.0865-1.1084-0.17604-1.9178-0.0387 0.71518 0.50105 1.3544 0.97331 1.8631 1.3909 2.7013 2.2093 2.264 2.9473 3.2464 3.7095 0.98242 0.76529 2.5115 0.49197 2.7301 0.3551 0.12146-0.0757 0.19739-0.1868 0.24598-0.31292 0.92624 0.49499 1.775 0.0215 1.9892-0.85339 1.3772-0.20359 1.3666-2.0074 0.90195-3.336" fill="#a86124"/>
  <path d="m74.425 73.016c-0.30672 1.0432-1.6171 1.3301-2.0256 1.1449-1.1054 0.57397-2.4067-1.0067-3.1158-1.9664-0.44034-0.59673-1.7234-1.9132-3.0566-3.0794 0.0547 0.27805 0.12297 0.57853 0.19589 0.89282-0.31585-0.0865-1.1085-0.17604-1.9178-0.0387 0.71518 0.49959 1.3544 0.97331 1.8631 1.3894 2.7013 2.2109 2.2655 2.9473 3.2479 3.711 0.98091 0.76379 2.51 0.49047 2.7286 0.35381 0.12147-0.0745 0.1989-0.1868 0.24599-0.3112 0.92624 0.49503 1.775 0.0215 1.9907-0.85486 1.2542-0.18508 1.3544-1.6991 1.0128-2.9716 0.19438 0.85791-0.69999 1.772-1.1692 1.731" fill="#92541c"/>
  <path d="m63.312 22.488c-1.9132 0-3.828 1.892-3.828 3.7444 0 2.1394 1.8358 4.6054 4.7891 4.6054 2.4265 0 4.0497-1.7963 4.3169-4.3062-1.3468-2.7058-2.9807-4.0436-5.2781-4.0436" fill="#5a4c2a"/>
  <path d="m64.561 26.172c-2.3095-1.233-4.2197-0.54057-4.8089 1.5017 0.60586 1.6703 2.223 3.1644 4.5219 3.1644 0.95357 0 1.7811-0.28107 2.4523-0.76986 0.13209-1.7325-0.94447-3.2449-2.1653-3.8962" fill="#7e6b3b"/>
  <path d="m64.028 22.734c-0.62407 0.23372-0.6757 1.4714-0.27637 2.4963 0.35531 0.91108 1.2193 1.6338 1.9132 1.4015 0.69393-0.2307 0.83666-1.2072 0.369-2.343-0.50867-1.2345-1.3514-1.8008-2.0058-1.5549" fill="#fff"/>
  <path d="m77.372 26.867c0.10782 0.40847 1.5685 1.0933 2.0058 1.0234 0.51475-0.0805 1.397-1.2087 1.2892-1.6976-0.1822-0.81544-3.544-0.25653-3.295 0.67417" fill="#0f141b"/>
  <path d="m76.628 32.939c-0.20045-0.16097-4.1119 1.5184-4.2714 1.8692-0.50412 1.11 0.27332 4.1073 1.0234 4.1073 1.9724 0 3.5789-5.7108 3.2479-5.9765" fill="#923000"/>
  <path d="m72.211 35.468c-0.10782 1.3347 0.53904 3.4468 1.1692 3.4468 0.88676 0 1.6976-1.154 2.2944-2.4492-0.85336-0.9323-2.141-1.1965-3.4635-0.99759" fill="#ed8599"/>
  <g fill="#cf7100">
   <path d="m71.853 25.598c0.71063-2.8425-2.349-6.9089-7.047-7.0607 0.5527 0.45095 1.0416 0.94141 1.4212 1.4121 1.075 0.40976 2.6117 1.52 3.3481 2.1182 2.1288 1.728 2.2776 3.5303 2.2776 3.5303"/>
   <path d="m74.427 16.881c0.22322 0.65441-0.20652 3.7171-1.5366 4.3336 0.082 0.63926 0.14578 1.7857-0.0349 2.3764 0.9141-0.48891 1.9512-1.5093 2.2048-3.3557 0.25206-1.8267-0.63318-3.3542-0.63318-3.3542"/>
   <path d="m67.05 22.079c-0.53601-1.2072-1.8312-2.0499-4.2152-2.5373-2.0195-0.41449-4.326 0.12138-5.7306-0.79107 0.94902 0.74554 1.9831 1.2891 4.4369 1.6885 2.4523 0.39771 3.6533 0.65747 4.1726 0.83511 0.51779 0.17604 1.3362 0.8048 1.3362 0.8048"/>
  </g>
  <g fill="#0f141b">
   <path d="m57.923 41.343c-2.8577-1.2968-6.0054-3.8827-8.1449-7.6013-7.2247-1.8631-14.334-9.0498-14.164-10.072 0.27181-1.6248 9.9746-7.1579 20.965-5.4892 0.0471 4e-3 0.49804 0.63926 0.34774 0.61649-11.566-1.6779-20.393 4.1438-20.757 4.9501 0.25662 0.98696 6.9787 7.6423 13.714 9.4006 0.15486 0.0387 0.30822 0.14117 0.39629 0.29139 2.0119 3.4818 5.559 6.4154 7.7486 7.4722 1.6156 0.77894 1.5093 1.1631-0.10627 0.43124"/>
   <path d="m69.411 42.31c6.3653-1.2892 11.51-8.236 11.51-15.606 0-0.93686-1.7857-1.6505-4.3609-0.53906-0.74707 0.32325-0.89132-0.0172-0.13666-0.3551 3.0217-1.3529 5.1748-0.35854 5.1748 0.87311 0 7.6772-5.2902 14.68-12.128 16.039-0.88676 0.17604-0.95509-0.22942-0.0592-0.41149"/>
   <path d="m77.639 26.793c0.14579 0.34778 1.3727 0.87311 1.6946 0.82296 0.56182-0.0895 1.1464-0.97632 1.0599-1.3635-0.13515-0.618-2.9093-0.0788-2.7544 0.54057m-0.53752 0.14591c-0.0379-0.14419-0.0592-0.42956 0.23535-0.71519 0.60585-0.58916 2.2412-0.85034 3.0217-0.61649 0.40997 0.12138 0.54056 0.35209 0.57852 0.52387 0.1336 0.59673-0.64382 1.8342-1.5032 1.9694-0.57396 0.0925-2.1698-0.54969-2.3323-1.1616"/>
   <path d="m78.105 25.487c-0.6924-2.5707-1.775-4.575-2.9989-5.5711-0.082-0.0667-0.0516-0.66505 0.0759-0.57853 1.4941 1.0128 2.6497 3.1098 3.3147 6.0267 0.0349 0.15022-0.35837 0.24749-0.39177 0.1231"/>
   <path d="m72.601 34.946c-0.45856 1.0872 0.34468 3.6898 0.78048 3.6898 1.2451 0 2.8091-3.2358 3.0095-5.395-0.8245 0.21995-3.4757 1.3985-3.79 1.7052m0.78048 4.2471c-1.0766 0-1.7659-3.4256-1.277-4.5006 0.31886-0.70154 4.2865-2.3004 4.698-1.9709 0.69544 0.55421-1.2588 6.4716-3.421 6.4716"/>
   <path d="m75.417 36.555c-0.29458-0.68635-2.021-1.1328-3.1325-0.81087-0.14729 0.0439-0.0228-0.41321 0.0622-0.43426 1.2588-0.31722 2.5996 0.0215 3.3056 0.87918 0.0881 0.10933-0.19132 0.47222-0.23536 0.36586"/>
   <path d="m63.312 22.766c-1.7584 0-3.5486 1.7492-3.5486 3.4666 0 2.0894 1.8115 4.326 4.5097 4.326 2.7408 0 3.9252-2.2989 4.0041-4.0345-1.321-2.589-2.8805-3.7581-4.9653-3.7581m0.96116 8.4394c-3.0308 0-5.067-2.6147-5.067-4.9729 0-2.0301 2.0347-4.1332 4.1058-4.1332 2.6011 0 4.4095 1.6976 5.8217 5.3312 0.32949 0.84422-0.0108 0.97331-0.36745 0.13945-0.0306-0.0697-0.0607-0.13945-0.0911-0.20961-0.38114 1.9147-1.693 3.8446-4.4019 3.8446"/>
   <path d="m66.493 21.966c-0.91106-0.64839-2.3445-0.88224-3.8583-1.0781-4.0709-0.52843-5.5863-1.4562-6.2119-2.6421-0.38415-0.72581-0.0151-0.91864 0.39177-0.2066 0.61801 1.0811 1.7174 1.6855 5.9006 2.2974 1.4941 0.21693 2.9184 0.42655 3.9312 1.0614-0.41299-1.4061-1.7447-2.7362-3.6549-3.6169-1.0067-0.46464-0.80781-0.81388 0.19739-0.35381 2.1015 0.95967 3.5379 2.2792 3.9935 3.8249 0.34619 1.1707 0.15035 1.3119-0.68936 0.71368"/>
   <path d="m71.488 25.051c-0.49349-1.6733-3.0156-3.79-4.8438-4.6039-0.15487-0.0697-0.41303-0.75466-0.26876-0.70607 2.0317 0.69694 5.0275 3.1143 5.6425 5.1505 1.7735-2.8759-0.0941-7.6149-2.6922-8.4227-0.78655-0.24276-0.69088-0.60737 0.0987-0.39341 3.4954 0.95205 4.9592 6.1785 3.0126 9.1956-0.50563 0.78505-0.66203 0.75466-0.94901-0.22037"/>
   <path d="m73.04 23.151c1.1722-0.78198 1.8464-2.2382 1.7766-3.8781-0.0653-1.5214-0.82299-3.4484-2.7377-4.4292-0.97483-0.49955-0.79717-0.87918 0.1822-0.37791 1.8024 0.92166 3.0612 2.6618 3.1523 4.7952 0.0835 1.9694-0.84576 3.7004-2.3627 4.5356-0.0426 0.0215-0.0941-0.58916-0.0108-0.64533"/>
   <path d="m74.671 17.404c0.10782-2.3096-2.0985-4.2972-5.7382-4.2972-3.0293 0-4.6115 0.45401-6.5551 1.9193-0.64837 0.48741-0.88069 0.19455-0.22623-0.32927 2.0195-1.6096 3.6776-2.1471 6.7813-2.1471 4.5492 0 6.6295 2.8455 6.2514 5.3145-0.0211 0.13817-0.5193-0.33572-0.51323-0.46007"/>
   <path d="m77.536 25.577c-1.8859-1.1494-2.39-2.4766-2.223-5.641 8e-3 -0.15323 0.4373 0.0882 0.43275 0.18981-0.11389 2.8455 0.5026 4.1134 2.182 5.2097 0.12908 0.0835-0.30672 0.29312-0.39177 0.24147"/>
   <path d="m78.751 7.0949m-1.605 14.902c2.0742-6.0859 2.0514-14.102 1.6202-14.878-0.83362-0.26126-5.2037 1.4425-8.8373 4.7071-0.1154 0.10158-0.16094-0.71062-0.0759-0.78504 3.6397-3.1674 8.1251-4.8939 9.182-4.4156 1.0538 0.4798 0.5102 10.175-1.52 15.954-0.0409 0.11406-0.39327-0.51323-0.36895-0.58309"/>
   <path d="m73.885 14.591c0.77743-1.9892 3.9312-6.9757 4.8438-7.8336 0.11238-0.10631 0.41148 0.24922 0.30065 0.35381-0.8655 0.81543-4.1225 6.1937-4.692 7.8625-0.0396 0.11535-0.48134-0.31119-0.45249-0.38264"/>
   <path d="m49.603 33.293c-0.0607-0.15796-0.13666-0.36456-0.1989-0.56639-0.17156-0.54814-0.10326-0.58912 0.42212-0.79869 0.13816-0.0547 0.29458-0.11105 0.47375-0.17174-0.29002-0.17776-0.54664-0.38393-0.74403-0.59828-0.4859-0.52232-0.33861-0.63621 0.28851-0.88676 0.45553-0.18206 1.1084-0.37662 1.6718-0.52537-0.60433-0.20187-1.362-0.42525-2.0301-0.57853-1.116-0.25954-1.0143-0.58305 0.0198-1.028 0.90194-0.38738 2.0301-0.65898 2.9731-0.82602-1.0781-0.25654-2.6405-0.44338-3.8826-0.50868-1.4471-0.0775-1.3058-0.46464-0.25356-1.0614 1.1965-0.67723 2.9366-1.2725 4.7876-1.4714-5.6804-1.8176-11.994-1.939-17.157-0.29011-0.14579 0.0456 0.0562-0.60285 0.16855-0.63625 5.2674-1.5898 11.643-1.4121 17.36 0.46008 1.4729 0.48289 1.3544 0.85792-0.16399 1.0098-1.8343 0.18078-3.5926 0.77136-4.7496 1.4304 1.2648 0.0667 2.8759 0.25654 4.0269 0.53295 1.4607 0.3508 1.5321 0.81694 0.0653 1.0644-0.9308 0.15797-2.0696 0.42225-2.9564 0.80631 0.65748 0.15797 1.3772 0.37059 1.9648 0.56484 1.2785 0.42655 1.236 0.73947 0.0851 1.0386-0.61952 0.16098-1.3514 0.37963-1.7826 0.55727 0.16399 0.17174 0.37959 0.33874 0.62256 0.4859 0.84576 0.51323 0.89132 0.65441-0.0228 0.95054-0.27788 0.0913-0.49652 0.17002-0.6757 0.24749 0.11389 0.38738 0.40391 1.034 0.40542 1.0401 0.0607 0.14118-0.65901-0.0882-0.71822-0.24147"/>
   <path d="m69.314 12.835c0.45249-2.595-2e-3 -4.7375-1.28-6.0297-0.91865-0.93079-2.2154-1.3362-3.6716-1.154-0.0714 9e-3 -0.45553-0.49352-0.30371-0.51931 1.8176-0.31119 3.3572 0.0956 4.452 1.2026 1.4076 1.4243 1.8965 3.8204 1.3514 6.596-0.0258 0.13516-0.57548 0.0564-0.54815-0.0956"/>
   <path d="m64.922 13.211c1.2072-3.3527 0.32192-7.0956-2.5768-8.9041-3.4362-2.1455-8.6323-0.23242-8.6323 2.6558 0 0.15323-0.55726 0.15323-0.55726 0 0-3.3102 5.3995-5.8035 9.5433-3.2343 2.9852 1.8525 4.077 5.6258 2.838 9.346-0.0258 0.0775-0.66659 0.28106-0.61497 0.13687"/>
   <path d="m46.875 18.611c-0.7501-0.65295-1.4683-1.8783-1.4683-3.6002 0-4.7816 4.0497-8.4318 7.659-8.4318 2.6056 0 4.9334 1.1221 6.4093 2.9457 1.2269 1.5169 1.6247 3.4104 1.3271 5.3085-0.16399 1.0447-0.58611 0.97176-0.42668-0.0684 0.26725-1.7371-0.20952-3.5015-1.3332-4.8893-1.3696-1.6931-3.5531-2.6618-5.9902-2.6618-3.992 0-7.088 4.1908-7.088 7.7971 0 1.7083 0.80173 2.8698 1.4896 3.3466 0.12603 0.0865-0.49045 0.3297-0.57852 0.25352"/>
   <path d="m54.915 18.05c0.72733-0.85029 0.82907-2.0817 0.27026-3.295-0.56485-1.2284-1.6247-2.0848-2.5768-2.0848-1.116 0-1.6232 0.97331-1.6232 1.8768 0 0.71514 0.23229 1.2344 0.57396 1.529 0.51171 0.44036 0.35075 0.69849-0.23234 0.334-0.49197-0.30689-0.97635-0.99453-0.97635-1.8631 0-1.4258 0.85336-2.5373 2.2579-2.5373 1.1631 0 2.4796 1.025 3.131 2.4416 0.618 1.3423 0.48286 2.7863-0.26725 3.793-0.0426 0.0577-0.65748-0.0775-0.55726-0.19455"/>
   <path d="m65.442 60.367c3.7763-2.6967 5.5818-8.6824 4.7147-15.62-0.14423-1.1601-0.0409-1.9254 0.10175-2.4006 0.0258-0.0865 0.65445-0.16872 0.59674-0.0258-0.12452 0.31291-0.31128 1.0356-0.14578 2.3581 0.88372 7.0653-0.70607 13.358-4.8195 16.051-0.0426 0.0301-0.57397-0.27332-0.44793-0.36284"/>
   <path d="m46.752 64.044c-0.14273-0.059 0.0699-0.57242 0.21108-0.51625 1.8935 0.77441 5.9948 0.82146 7.4084 0.29441 0.0941-0.0344 0.659 0.2901 0.52538 0.36758-1.4547 0.84879-5.972 0.74252-8.1449-0.14592"/>
   <path d="m86.842 61.618c0.17157-0.19584 0.22928-0.45857 0.17311-0.78203-0.20195-1.1616-1.7371-2.6451-4.1104-3.9692-1.6885-0.94142-7.6498-2.9062-10.196-3.746-0.70759-0.23372-1.0249-0.33874-1.11-0.37189-0.42974-0.17302-0.88677-0.87767-1.1753-1.397-0.0805-0.14419 0.23234-0.76073 0.30065-0.62252 0.38721 0.77437 0.84273 1.4061 1.0826 1.5017 0.0729 0.0301 0.51475 0.17604 1.0766 0.35983 2.5601 0.84427 8.5867 2.7863 10.321 3.7536 2.5555 1.4243 4.1271 3.0505 4.3609 4.3958 0.0852 0.49047-0.043 1.0401-0.44184 1.3484-0.0653 0.0499-0.38264-0.35381-0.28089-0.47071"/>
   <path d="m85.953 63.183c0.26725-0.0344 0.61193-0.27805 0.72429-0.66659 0.14424-0.49804-0.0607-1.1327-0.69088-1.7067-0.55727-0.51022-0.35532-0.74557 0.24598-0.27805 0.78199 0.60737 1.1692 1.4926 0.97939 2.141-0.16248 0.55723-0.65141 0.99454-1.1904 1.0629-0.0108 2e-3 -0.22171-0.53299-0.0684-0.55271"/>
   <path d="m83.941 64.965c-1.11 0-2.1577-0.5178-3.0824-0.97637-0.28395-0.13946-1.3848-0.63926-1.3848-0.63926-1.854-0.81841-3.0779-1.3575-4.6601-1.4759-1.0371-0.0757-5.4086-0.69237-6.139-0.97938-0.76377-0.30086-1.2694-0.96117-1.7158-1.5427-0.0941-0.1231 0.34924-0.46008 0.44186-0.33875 0.42212 0.5497 0.85791 1.1191 1.4774 1.3635 0.59522 0.23371 4.7876 0.8549 5.9765 0.94296 1.6779 0.12439 2.9366 0.67873 4.8438 1.52 0 0 1.11 0.50411 1.4076 0.6514 0.91106 0.45099 1.854 0.91714 2.8349 0.91714 0.52537 0 1.7477-0.1076 1.7477-1.113 0-0.29613-0.25662-0.80626-0.91865-1.2071-0.57093-0.34477-0.39327-0.61499 0.20501-0.29613 0.82603 0.43886 1.2709 0.93233 1.2709 1.5032 0 1.031-0.88373 1.6703-2.305 1.6703"/>
   <path d="m74.608 74.475c-0.15336 0-0.15336-0.55727 0-0.55727 0.25206 0 0.44338-0.0986 0.58764-0.30216 0.36138-0.51017 0.37201-1.605 0.0228-2.6011-0.4525-1.2907-2.7894-3.916-5.0154-6.3151-0.58156-0.62561-2.5753-2.182-4.3336-3.5562-1.4577-1.1373-2.8349-2.2139-3.456-2.7863-0.0714-0.0654-0.10326-0.16227-0.085-0.25825 0.13666-0.70607-0.0108-2.0149-0.17613-2.5327-0.20953-0.6514 0.0577-0.83364 0.33405-0.20359 0.24599 0.55877 0.51931 1.8479 0.41454 2.6846 0.64989 0.57853 1.9451 1.5898 3.3117 2.6572 1.8616 1.4546 3.787 2.9579 4.3974 3.6154 3.2555 3.5061 4.7436 5.392 5.1353 6.511 0.34618 0.99005 0.45097 2.3369-0.0941 3.1067-0.25055 0.35079-0.6104 0.53751-1.0432 0.53751"/>
   <path d="m72.572 75.3c-0.044-0.0301 0.0987-0.62713 0.22016-0.52994 0.40998 0.32928 0.82451 0.3551 1.1388 0.0727 0.43428-0.39168 0.64685-1.3074 0.18069-2.1623-0.38113-0.69694-0.0471-0.88675 0.34012-0.17002 0.60889 1.1267 0.44035 2.2154-0.14729 2.7454-0.47982 0.43275-1.2952 0.34477-1.7325 0.0439"/>
   <path d="m69.424 75.312c-0.41755-0.32324-0.61952-0.66052-0.83969-1.0371-0.33405-0.57091-0.76074-1.3651-2.3915-2.6998-2.6709-2.185-9.0711-6.0069-11.057-7.0364-2.3293-1.2056-3.1553-4.7071-2.8273-6.7753 0.12603-0.8002 0.49652-0.74248 0.36745 0.043-0.30822 1.8904 0.6013 5.1444 2.715 6.2393 2.0605 1.0659 8.4106 4.8529 11.154 7.0971 1.7082 1.4 2.1972 2.2336 2.554 2.841 0.20497 0.35209 0.35532 0.60737 0.68786 0.867 0.87613 0.68179 2.2458 0.42354 2.4128 0.33573 0.35075-0.22038 0.27483-0.77592-0.14272-1.1738-0.49502-0.47376-0.24293-0.78048 0.27938-0.29312 0.63319 0.58766 0.81236 1.5306 0.15642 1.9406-0.49653 0.3099-2.2139 0.31722-3.0688-0.34778"/>
   <path d="m32.277 62.057c1.4562-4.3124 5.3297-10.837 7.4798-12.852 2.5859-2.425 6.467-3.7065 10.867-3.7065 3.831 0 6.4214-2.3885 6.6568-4.6191 0.0168-0.15323 0.51172-0.0172 0.49501 0.13817-0.25967 2.4766-3.0065 5.0382-7.1518 5.0382-4.2577 0-7.9702 1.2815-10.451 3.6078-1.9041 1.7856-5.9067 8.0066-7.4297 12.524-0.4449 1.318-0.90954 1.1828-0.46615-0.13042"/>
   <path d="m22.71 74.674c-0.35381-0.25653-0.91865-0.88981-0.32949-2.1425 0.13209-0.27805 3.1857-4.8787 3.6943-5.688 0.54663-0.86553 1.1586-1.8662 1.7113-2.7666 0.7167-1.1707 1.3226-2.273 1.5594-2.6041 1.0599-1.485 2.6147-1.8494 3.9039-1.2558 0.13972 0.0654-0.0941 0.57095-0.23384 0.50716-1.0174-0.47071-2.3946 0.0301-3.2039 1.1631-0.22473 0.31593-0.83817 1.318-1.5503 2.4796-0.55271 0.9035-1.1677 1.9056-1.7143 2.7742-0.51171 0.81237-3.4848 5.3874-3.6063 5.6455-0.48134 1.0204-0.0471 1.3332 0.0956 1.4364 0.5603 0.40546 1.1479 0.20962 1.4182-0.0504 0.67874-0.64835 0.96421-0.44033 0.33556 0.2307-0.61345 0.65441-1.5397 0.66048-2.0802 0.27031"/>
   <path d="m24.152 76.258c-0.73188-0.29311-1.1586-1.1206-1.0978-1.7113 0.0168-0.15323 0.57093-0.0943 0.55423 0.0594-0.0349 0.33401 0.23384 0.92778 0.7501 1.1343 0.86398 0.34778 1.4911 0.13042 2.1136-0.74708 0.61649-0.86704 1.0842-0.5694 0.4692 0.30043-0.74707 1.0584-1.7948 1.3635-2.7894 0.96419"/>
   <path d="m25.907 76.144c-0.14879-0.0387 0.37507-0.47984 0.4859-0.46012 1.0553 0.20057 1.769-0.0745 2.7651-1.0113 0.6666-0.62708 4.2243-4.1316 5.0397-5.647 0.0729-0.13515 0.56485 0.12913 0.49045 0.26428-0.95358 1.7705-5.0336 5.7943-5.0761 5.8338-1.1965 1.1267-2.3445 1.3787-3.705 1.0204"/>
   <path d="m37.714 69.736c-2.3779 0-3.0536-0.13816-4.0633-0.99758-0.55879-0.47678-0.33862-0.78806 0.24447-0.35252 0.85033 0.63625 1.4683 0.79262 3.8189 0.79262 5.5499 0 9.4279-3.8568 10.48-10.605 0.15641-0.99758 0.52689-0.99302 0.369 0.0129-1.1039 7.0349-5.0002 11.148-10.849 11.148"/>
   <path d="m47.841 70.089c-1.9482 0-3.5805-0.81238-4.6965-2.1516-0.0987-0.11836 0.32948-0.47372 0.42818-0.35509 1.0204 1.2254 2.4538 1.8464 4.2562 1.8464 3.1872 0 7.3826-2.0681 8.8023-4.3382 0.082-0.13041 0.55423 0.16399 0.47224 0.29441-1.5306 2.4508-5.8536 4.7041-9.2624 4.7041"/>
   <path d="m37.147 74.591c-0.69544-0.41923-0.61648-1.5473 0.23686-2.5267 0.21409-0.24749 1.274-1.7523 1.7811-2.6011 0.0592-0.0986 0.7167-0.12611 0.64078 4e-3 -0.4191 0.73947-1.6429 2.6375-1.9299 2.9685-0.66962 0.76986-0.74099 1.4957-0.44186 1.6748 0.3371 0.20186 0.95965 0.0956 1.3878-0.21392 0.76833-0.5512 1.069-0.26127 0.33104 0.32496-0.72277 0.57698-1.5579 0.63621-2.0058 0.36758"/>
   <path d="m37.612 74.495c-0.0108-0.15323 0.54511-0.18982 0.55574-0.0344 0.0455 0.67111 1.1252 0.88219 2.1015 0.043 0.67267-0.58003 0.9308-0.40976 0.28546 0.22468-1.2375 1.2178-2.8668 0.89739-2.9427-0.22941"/>
   <path d="m39.446 75.239c-0.0759-0.13343 0.40696-0.40976 0.48286-0.27633 0.30521 0.53148 1.3757 0.42655 3.0414-0.785 0.99153-0.72126 3.0034-3.2814 3.6624-4.4156 0.0271-0.0486 0.63926-9e-3 0.56638 0.12741-0.53601 0.99913-2.6557 3.8675-3.831 4.7223-1.7264 1.2573-3.418 1.5109-3.9221 0.62713"/>
   <path d="m43.727 46.821c0.22322-0.44794 3.9373-4.865 4.3503-5.4481 2.2913-3.2327 1.8935-6.5065 0.55575-8.1783-0.0972-0.12009 0.65444-0.0547 0.75466 0.10631 1.2512 2.0089 1.605 5.0807-0.78351 8.4516-0.42668 0.6028-3.7566 4.3913-4.1286 4.9182-0.0835 0.11708-0.81692 0.28709-0.74859 0.15022"/>
   <path d="m42.383 47.565c-0.45856-1.6612 0.33255-4.8058 1.9892-7.3431 0.83969-1.2892 1.6338-2.5054 1.6338-4.5264 0-1.5518-0.37201-2.9913-1.0477-4.0527-0.082-0.13041 0.67874 0.0727 0.78655 0.26256 0.62256 1.1024 0.90954 2.39 0.90954 3.79 0 2.1865-0.96876 3.5304-1.816 4.8301-1.4896 2.2853-2.4826 5.1172-1.9952 6.8831 0.0409 0.14893-0.42668 0.27935-0.46009 0.15625"/>
   <path d="m36.501 22.973c-2.9002-2.4538-7.7182-2.3095-10.542-0.64839-0.0714 0.043-0.63622-0.26256-0.50564-0.34477 3.6442-2.3186 8.4637-1.9223 11.408 0.5679 0.1169 0.10029-0.30822 0.4692-0.35987 0.42526"/>
   <path d="m41.428 48.233c-1.6338-2.6557-2.1045-6.3728-1.0644-10.709 0.65141-2.7104 0.83058-6.9316-0.0622-8.9177-0.0638-0.14118 0.62407 0.0499 0.67722 0.20057 0.7835 2.267 0.63925 6.2498 0.0108 8.8631-1.0052 4.1909-0.72126 7.8594 0.83361 10.386 0.0805 0.13042-0.34162 0.26428-0.39478 0.17777"/>
   <path d="m40.353 49.202c-4.5735-4.777-7.2475-15.635-8.7355-19.685-1.0674-2.9002-3.8416-7.7334-9.8349-7.7334-7.8548 0-12.929 5.0533-12.929 12.873 0 0.15323-0.5603 0.48134-0.56486 0.32798-0.25963-8.2132 5.2978-13.909 13.49-13.909 2.7165 0 7.8518 1.1418 10.416 8.2269 1.4592 4.0268 3.831 14.223 8.4835 19.544 0.1002 0.11535-0.27026 0.41277-0.32493 0.3551"/>
   <path d="m1.8402 45.791c0-6.6887 5.4026-12.339 11.646-12.339 8.2952 0 14.492 4.1134 25.731 16.868 0.10175 0.11536-0.24293 0.46314-0.34469 0.34778-11.113-12.612-17.283-16.543-25.387-16.543-5.9431 0-10.963 5.2781-10.963 11.666 0 3.8538 3.4195 8.2679 8.2451 7.6802 0.15035-0.0172 0.01076 0.54664-0.14273 0.56334-4.5462 0.51629-8.7856-3.2494-8.7856-8.2436"/>
   <path d="m18.398 64.332c-5.0974 0-8.5002-3.2084-8.5002-7.7896 0-4.6297 4.3792-9.7013 13.793-9.7013 4.1438 0 9.6876 2.0195 14.19 5.0761 0.12753 0.0852-0.13515 0.46615-0.26269 0.38092-4.4171-2.9215-9.885-4.8104-13.927-4.8104-9.0316 0-13.147 4.6934-13.147 9.0544 0 4.2729 3.1568 7.1427 7.8533 7.1427 3.8674 0 5.9978-1.936 5.9978-5.4512 0-2.2883-1.1282-4.9607-4.3063-4.9607-2.0119 0-3.213 1.4957-3.213 2.9412 0 1.031 0.34162 1.7659 0.93839 2.0134 0.34318 0.1429 0.87462 0.12439 1.2239-0.0757 0.67418-0.38867 0.88524 4e-3 0.19739 0.42655-0.50868 0.31291-1.1115 0.37963-1.6338 0.16399-0.81691-0.33874-1.3742-1.2603-1.3742-2.5282 0-1.7204 1.5017-3.4985 3.8614-3.4985 2.9549 0 4.9395 2.1653 4.9395 5.518 0 3.8188-2.4659 6.098-6.631 6.098"/>
   <path d="m24.697 59.129c3.6427-3.9662 7.7273-5.8414 11.848-5.4284 0.15185 0.0172-0.1655 0.54357-0.22016 0.53901-4.0496-0.34304-8.1373 1.8039-11.719 5.9174-0.0547 0.0637-0.0592-0.86399 0.0911-1.028"/>
   <path d="m17.113 48.079c0.57549-1.1525 0.3037-2.2959-0.07287-2.9047-0.7911-1.2801-2.4629-2.1061-4.2622-2.1061-2.0909 0-3.418 0.98851-3.6488 1.9664-0.10476 0.44489 0.03658 0.95055 0.40085 1.2132 0.59371 0.42655 0.4024 0.76073-0.21409 0.34778-0.58611-0.39168-0.89284-0.99457-0.72884-1.6885 0.28089-1.192 1.8646-2.4508 4.244-2.4508 1.9876 0 3.793 0.98549 4.6828 2.425 0.59826 0.96875 0.6256 2.056 0.13515 3.1052-0.03056 0.0654-0.60434 0.2307-0.53601 0.0925"/>
   <path d="m24.067 36.578c-0.0486-2.3657-0.91258-4.4611-2.3308-5.6379-0.83362-0.69087-1.7887-0.97938-2.6861-0.81083-0.79869 0.15194-1.441 0.83665-1.5792 1.7826-0.12452 0.85792-0.44338 0.81539-0.39784-0.0607 0.06073-1.2178 0.81843-2.138 1.851-2.3323 1.0629-0.19885 2.2291 0.14118 3.1917 0.94142 1.5883 1.315 2.4158 3.7186 2.4158 6.3334 0 0.15323-0.46312-0.14591-0.46464-0.21564"/>
  </g>
  <path d="m77.753 26.746c-0.0455-0.12138 0.0349-0.35079 0.42667-0.47828 0.30216-0.0986 0.50564-0.0439 0.55423 0.0667 0.0501 0.11708-0.10932 0.28537-0.39629 0.41622-0.24142 0.11105-0.53904 0.11535-0.58459-4e-3" fill="#8a969d"/>
 </g>
</svg>
