<?xml version="1.0" encoding="UTF-8"?>
<!-- Created with Inkscape (http://www.inkscape.org/) -->
<svg version="1.1" viewBox="0 0 353.49 288.79" xmlns="http://www.w3.org/2000/svg">
 <g transform="translate(53.303 -2.1067)">
  <path d="m-21.948 197.41-9.8841 1.6198-1.6693 3.629 0.91004 9.139 8.093-2.7248z" fill="#b8e4fa"/>
  <path d="m-21.948 197.41-4.4229 1.5895-4.0889 8.0124-2.1321 4.7856 8.093-2.7249z" fill="#6dcef5"/>
  <path d="m-36.318 172.58-12.005 6.4004-4.7517 10.187 9.256 2.7778 6.9373-2.4103z" fill="#b8e4fa"/>
  <path d="m-37.26 178.83-11.462 5.453-4.3536 4.8814 9.257 2.7825 6.9345-2.4121z" fill="#6dcef5"/>
  <path d="m-36.379 186.38-9.2467 3.4387-7.4486-0.6516 9.257 2.7825 6.9345-2.4121z" fill="#5baccd"/>
  <path d="m41.257 155.45-32.403 38.601-45.857 5.4607 1.359-42.46 60.215-56.082 20.893-3.5936z" fill="#b8e4fa"/>
  <path d="m41.257 155.45-32.403 38.601-45.857 5.4607 25.006-43.715 53.371-53.745 4.1974-2.6259z" fill="#6dcef5"/>
  <path d="m41.257 155.45-32.403 38.601-45.857 5.4607 46.599-19.051 32.383-37.829z" fill="#5baccd"/>
  <path d="m-15.881 180.08-9.5701 25.078 4.494 16.537 12.844-10.607 5.6935-27.161-1.7902-4.8865-7.4105-1.6191z" fill="#b8e4fa"/>
  <path d="m-11.416 177.34-9.6889 27.675 0.14973 16.679 12.842-10.608 5.6945-27.156-1.7893-4.7665z" fill="#6dcef5"/>
  <path d="m-4.2492 179.28-6.8915 28.022-9.817 14.39 12.844-10.607 5.6936-27.161z" fill="#5baccd"/>
  <path d="m171.18 91.129 6.4835-10.206 45.688-14.404 31.885 9.7304 8.9399 37.806-21.926 24.277-46.483 0.97378-16.392-9.7206z" fill="#b8e4fa"/>
  <path d="m172.83 99.306 28.012-8.9398 22.607-23.689 31.788 9.574 8.9398 37.806-21.924 24.274-46.485 0.97193-16.392-9.7157z" fill="#6dcef5"/>
  <path d="m208.63 128.57 45.313-31.263 1.3003-21.054 8.9398 37.806-21.926 24.277-46.484 0.96908-16.792-10.471z" fill="#5baccd"/>
  <path d="m258.82 91.1-1.531 4.0896 0.80847 5.4329 2.736 3.2866 28.731-2.2892 10.623-12.004-13.636-6.8187z" fill="#b8e4fa"/>
  <path d="m283.31 88.269-26.019 6.9179 0.80665 5.4358 2.736 3.2866 28.731-2.2893 9.577-11.585z" fill="#5baccd"/>
  <path d="m235.27 126.29 2.5732-8.7108 6.2534-3.3503 35.499 10.754 10.165 16.726-20.917 6.6399-29.603-15.382z" fill="#b8e4fa"/>
  <path d="m235.36 126.47 2.7587-8.6189 33.14 9.9396 8.3291-2.8163 10.165 16.726-20.917 6.6399-29.603-15.382z" fill="#6dcef5"/>
  <path d="m235.42 126.2 31.12 15.03 23.212 0.47627-20.917 6.6399-29.6-15.38z" fill="#5baccd"/>
  <path d="m222.31 81.367 8.4508 4.5925 6.9764-0.63428 21.678-26.637-0.43279-20.956-21.562 7.6231-15.908 29.323z" fill="#b8e4fa"/>
  <path d="m222.91 81.571 7.8541 4.3875 6.9764-0.63426 21.678-26.637-0.14392-20.398-19.618 15.257z" fill="#6dcef5"/>
  <path d="m237.95 85.119 21.466-26.431-0.43272-20.956-7.9715 22.814-20.353 25.361z" fill="#5baccd"/>
  <path d="m64.022 241.21-26.234-37.283 11.525-154.46 53.767-46.826 58.313 41.358 32.951 152.68-9.0289 18.01-23.515 26.678z" fill="#b8e4fa"/>
  <path d="m118.46 193.73-70.143 25.65-11.152-14.856 81.187-32.068-9.576-144.35-5.6889-24.779 58.31 41.357 32.951 152.68-9.0232 18.014z" fill="#6dcef5"/>
  <path d="m172.13 97.747-1.3658-6.6523-53.951 58.001s-0.0118 0.0146-0.0118 0.0146l0.61479 9.2295z" fill="#b8e4fa"/>
  <path d="m169.98 84.433-5.359-22.933-50.162 52.218 1.8938 28.58z" fill="#b8e4fa"/>
  <path d="m116.76 247.89-0.10673-20.47-21.13-19.259-0.44138 22.601z" fill="#fff"/>
  <g fill="#ffe96b">
   <path d="m115.03 48.046c0.0121 2.4959-2.0579 4.5254-4.6237 4.5419-2.5688 0.01442-4.6614-1.9993-4.6756-4.4921-0.0121-2.4959 2.0596-4.5283 4.6266-4.5401 2.5688-0.01442 4.6576 1.9925 4.6727 4.4903"/>
   <path d="m115.48 63.323c0.0123 2.4959-1.9912 4.5271-4.4794 4.5402-2.4837 0.01194-4.5099-1.9997-4.5237-4.493-0.0125-2.4958 1.9879-4.5291 4.4765-4.542 2.4836-0.01194 4.5114 1.9972 4.5266 4.4947"/>
   <path d="m116.33 77.577c0.0124 2.496-1.9912 4.527-4.4746 4.5392-2.4884 0.01301-4.5143-1.999-4.5285-4.4919-0.0121-2.4959 1.9912-4.5272 4.4765-4.542 2.4884-0.01301 4.5114 1.9972 4.5266 4.4947"/>
   <path d="m100.89 65.806c0.0124 2.4959-1.9912 4.5271-4.4765 4.5419-2.4866 0.01014-4.5127-2.0014-4.5266-4.4947-0.0094-2.4941 1.9912-4.5271 4.4765-4.542 2.4866-0.01004 4.5143 1.999 4.5266 4.4947"/>
   <path d="m87.027 69.588c0.01504 2.4976-1.9912 4.5271-4.4764 4.5419-2.4837 0.01194-4.5099-1.9997-4.5266-4.4947-0.01121-2.4913 1.9937-4.5256 4.4776-4.5374 2.4854-0.01481 4.5114 1.9972 4.5255 4.4901"/>
   <path d="m129.65 64.498c0.0122 2.3684-1.8942 4.301-4.2547 4.314-2.358 0.0146-4.2853-1.9002-4.2975-4.2683-0.0151-2.3702 1.8891-4.3001 4.2528-4.3111 2.3609-0.013 4.2872 1.8969 4.2993 4.2654"/>
   <path d="m143.34 67.793c0.0126 2.2531-1.7993 4.0855-4.0419 4.1004-2.2438 0.01027-4.0697-1.8053-4.0793-4.0565-0.0139-2.2503 1.7918-4.0861 4.0383-4.0947 2.2427-0.01483 4.0717 1.802 4.0828 4.0508"/>
  </g>
  <path d="m194.42 198.04-76.066-25.587 0.10994 21.806-71.357 23.671 18.502 22.549 96.198 0.89282 22.959-25.225z" fill="#5baccd"/>
  <path d="m51.857 268.85-7.4731-0.10148-23.868-14.262-2.3215-20.462 16.482-22.774 60.85-3.0862 21.129 19.255 0.10954 20.472-17.804 16.479-5.2343 0.92425z" fill="#b8e4fa"/>
  <g fill="#5baccd">
   <path d="m51.857 268.85-15.661-32.908-1.5196-24.691 60.85-3.0863 21.129 19.255 0.10957 20.472-17.804 16.48-5.2343 0.92425z"/>
   <path d="m95.527 208.16 21.129 19.255 0.10784 20.475-21.608-16.559z"/>
   <path d="m44.386 268.74-23.87-14.259 15.552-20.611 59.361-2.5498 21.334 16.564-17.804 16.479z"/>
  </g>
  <path d="m39.341 256.6 26.475-16.185 33.178 8.5578-0.76324 10.954-24.122 30.129z" fill="#b8e4fa"/>
  <path d="m123.41 250.06-0.10036-18.814 22.069-12.841 48.183-0.14436 22.056 15.163-2.0099 16.714-22.622 12.847-43.151 1.8884z" fill="#b8e4fa"/>
  <path d="m145.38 218.41 48.183-0.14434 22.056 15.163-2.0099 16.714-22.622 12.847-44.49-23.566z" fill="#6dcef5"/>
  <path d="m193.56 218.27-0.24475 4e-3c3e-3 0.65881 0.0336 20.07 0.0336 20.07s-13.875 23.835-15.619 25.227l13.257-0.5799 22.62-12.844 2.0098-16.714z" fill="#5baccd"/>
  <path d="m123.41 250.06 23.746-11.553 45.663-0.17071 20.789 11.801-22.622 12.847-43.151 1.8884z" fill="#5baccd"/>
  <path d="m153.86 253.22 22.652-6.7602 20.176 7.9825-22.187 29.656-22.805-21.458z" fill="#b8e4fa"/>
  <path d="m65.817 240.41 33.176 8.5606-0.76613 10.952-24.12 30.126z" fill="#6dcef5"/>
  <path d="m98.993 248.97-0.76611 10.952-24.117 30.128z" fill="#5baccd"/>
  <path d="m176.52 246.46 20.176 7.9825-22.189 29.659z" fill="#6dcef5"/>
  <g fill="#0f141b">
   <path d="m-34.352 202.72s0.76057 10.049 1.0622 10.165c0.30021 0.11946 9.0738-3.3911 9.0738-3.3911l-0.54124-1.1816s-5.6469 1.9052-7.1371 2.4052c-0.15039-1.5469-0.75015-7.5503-0.78666-7.9194 0.16313-0.35196 1.577-3.4357 1.577-3.4357l-1.1181-0.582z"/>
   <path d="m-31.104 206.52c-0.02293 0.0537-1.985 5.0924-1.985 5.0924l0.99534 0.38931 1.9633-5.0382c-0.02443 0.0526 4.3662-8.2019 4.3662-8.2019l-0.94637-0.49989z"/>
   <path d="m-33.969 202.93 2.6702 4.7902 6.3831 0.71958 0.11874-1.0645s-5.338-0.60149-5.8337-0.65575c-0.24059-0.43216-2.4044-4.31-2.4044-4.31z"/>
   <path d="m-47.859 177.91c-0.83736 0.56466-1.245 0.72067-1.5237 1.3829-0.28114 0.66091-4.0909 9.6315-3.9142 10.076 0.17221 0.44593 9.1284 3.1163 9.5521 3.1137 0.42595 5.5e-4 7.2682-2.3792 7.2682-2.3792l-0.6713-1.3305s-6.3345 2.2289-6.7898 2.391c-0.42639-0.12688-6.6082-2.0823-8.016-2.5064 0.6438-1.3781 3.3498-8.4494 3.5431-8.8742 0.45713-0.24087 12.471-6.4961 12.471-6.4961l-0.7583-1.4208s-10.321 5.4802-11.161 6.0428"/>
   <path d="m-49.198 183.69 0.47512 0.96095 12.543-6.1768-0.47067-0.9627z"/>
   <path d="m-49.587 184.22-0.01806 0.15549 2.8341 5.1274 0.9007-0.18652s-2.754-4.7709-2.8925-5.0404c0.03403-0.29704 1.4477-5.5588 1.4477-5.5588l-1.038 0.10107z"/>
   <path d="m25.067 101.98c0.97469-0.75777 20.577-3.5399 20.577-3.5399l-0.45443-1.378s-18.592 2.2215-19.677 2.4167c-1.0856 0.1955-1.7456 0.76274-2.3568 1.1939-0.609 0.42829-57.725 54.661-58.903 55.988-1.0815 1.2167-2.3719 41.032-2.3638 42.252 0.0067 1.2144 0.37461 1.2572 1.1235 1.2502 0.74952-2e-3 5.9796-0.5233 13.999-1.0046 0.16209-0.8029 0.39144-1.6431 0.66603-2.4671-7.0442 0.83877-12.747 1.5186-13.571 1.614 0.07569-2.3176 1.0325-39.459 1.5834-40.943 0.55066-1.484 58.407-54.625 59.377-55.382"/>
   <path d="m8.3084 193.04c-0.28651 0.0323-5.6861 0.67841-12.617 1.5006-0.15804 0.8923-0.27441 1.5766-0.42433 2.4107 12.947-1.9277 13.836-1.9304 14.207-2.2248 0.41316-0.33146-0.090599 0.28997 32.061-38.436l-1.1021-1.5269s-31.59 37.635-32.125 38.277"/>
   <path d="m-11.874 155.28s-22.066 1.1461-23.096 1.4316c-1.0255 0.28366-0.63485 1.1448-0.63485 1.1448s22.894-1.1789 23.619-1.2169c0.49286 0.53078 21.018 22.529 21.488 23.033-0.058869 0.67539-1.4411 13.752-1.4411 13.752s0.56586 0.84262 1.03-0.18942c0.46006-1.0309 2.0734-14.134 2.0734-14.134s-21.538-23.081-22.01-23.454c-0.46588-0.36953-1.029-0.36741-1.029-0.36741"/>
   <path d="m41.278 101.14-0.09114 0.0559-53.483 54.129-25.055 42.952 1.3869 0.80848s24.854-42.603 24.956-42.779c0.14444-0.14117 53.047-53.684 53.194-53.831 0.17408-0.098 3.699-2.1842 3.699-2.1842l-0.81364-1.3831z"/>
   <path d="m-36.642 198.25 0.61152 1.4839 15.202-6.1706c0.44787-0.71159 1.0073-1.3983 0.97597-2.2221-9.1182 3.7498-16.789 6.9088-16.789 6.9088"/>
   <path d="m42.553 143.02-0.77266-1.0912s-31.563 36.852-31.815 37.14c-0.12221 0.0513-5.6991 2.3463-12.952 5.3324-0.024967 0.71687-0.10507 1.3558-0.30072 2.046l13.847-5.6184z"/>
   <path d="m24.53 101.78s16.236 0.81613 16.811 0.84454c0.3892 0.36577 3.3937 3.2469 3.3937 3.2469l1.1091-1.1597-3.8206-3.6604-17.41-0.87503z"/>
   <path d="m-11.474 177.82s6.5546 1.4596 6.8379 1.8353c0.28207 0.37113 1.3483 4.2288 1.3831 4.3262-0.08714 0.42754-5.4765 26.129-5.5877 26.665-0.38672 0.31974-10.056 8.3048-11.667 9.6372-0.55502-2.034-3.9757-14.63-4.1029-15.083 0.1832-0.47488 8.9942-24.601 9.1684-25.066 0.11314-0.0727 3.9677-2.3152 3.9677-2.3152m7.6734 0.89119c-0.18614-0.3711-7.3045-1.9232-7.864-1.7347-0.56174 0.19139-4.8756 2.5772-4.8756 2.5772l-9.7542 25.564s4.4445 17.868 4.8897 17.991c0.44085 0.12372 14.021-11.581 14.021-11.581s5.3942-26.464 5.3881-27.494c-0.00766-1.0283-1.6159-4.949-1.8053-5.3219"/>
   <path d="m-21.224 203.79-4.4314 0.97106 0.17459 0.78597s4.1296-0.90848 4.3279-0.95195c0.19187 0.0631 9.6884 2.9718 9.9287 3.046 0.14938 0.19481 2.7941 3.6852 2.7941 3.6852l0.63726-0.48628-2.9493-3.8894-10.38-3.1841z"/>
   <path d="m-4.7322 179.46c-0.317 1.3192-6.7048 27.41-6.7484 27.614-0.10934 0.15862-7.9676 11.379-9.0646 12.948-0.0085-2.7125-0.05369-15.588-0.05778-15.754 0.06023-0.16884 9.0446-24.975 9.4103-26.36zm-7.0272-2.1126-9.9122 26.744 0.32404 16.987s0.8091 0.30594 0.80818 0.29289c0.09373 0.0666 10.054-13.856 10.054-13.856l6.4115-27.776z"/>
   <path d="m224.7 65.575c-1.4904-0.40005-1.895-0.2619-4.1899 0.5644-2.2931 0.82346-42.218 13.442-43.475 14.43-1.257 0.98787-6.0048 9.4851-6.0048 9.4851l1.0588 1.6477s5.8835-9.2543 6.273-9.8753c0.72929-0.23028 44.376-13.992 44.996-14.187 0.0669 0.0191 0.45314 0.13476 1.0921 0.33002 0.31463-0.75965 1.3068-1.1836 1.395-2.0523-0.60162-0.18444-1.0029-0.30716-1.1466-0.3448"/>
   <path d="m255.68 75.78c-0.13475-0.08398-3.3047-1.4998-7.682-2.895-0.3251 0.5974-1.078 1.1989-1.5519 1.7992 4.2748 1.304 7.5374 2.3033 7.896 2.4114 0.12123 0.50117 1.7634 7.4576 3.5883 15.18 0.37114-0.71654 0.8561-1.2896 1.7434-1.5763-1.9281-8.0938-3.8161-14.809-3.9938-14.92"/>
   <path d="m241.77 137.27c-0.90302 0.0185-44.5 1.0831-45.907 0.68346-0.3933-0.1099-0.52416-0.13624-16.144-9.6919l0.19849 1.8715s14.418 9.5038 15.48 9.6447c1.0674 0.13975 46.705-0.30936 47.51-0.71908 0.18299-0.0893 1.3714-0.76923 3.0719-2.6152-0.79948-0.39706-1.5997-0.78649-2.3953-1.1833-1.042 1.1538-1.713 1.8979-1.8145 2.0097"/>
   <path d="m262.66 103.57c-0.83418 0.18853-1.5158-0.12927-2.2114-0.62282 1.3783 5.8279 2.4662 10.436 2.5572 10.807-0.19903 0.21785-1.8581 2.0541-4.1623 4.6064 0.6642 0.42248 1.2812 0.84403 1.9691 1.273 2.3362-2.7632 3.9699-4.8022 4.0383-5.1736 0.0901-0.45726-0.8664-5.027-2.1913-10.889"/>
   <path d="m200.33 89.776-27.454 8.8224 0.32081 1.0239s27.329-8.1559 27.557-8.2284c0.23109 0.03118 49.166 6.5796 51.827 6.9411-2.2325 1.4861-44.075 29.304-44.328 29.473-0.30981 6e-3 -29.622 0.51939-29.622 0.51939l0.0204 1.0713 30.253-0.16546s46.4-30.14 46.12-31.492c-0.27641-1.3508-53.718-8.0328-53.718-8.0328z"/>
   <path d="m253.7 97.129 0.41829 1.7936 9.4617 15.69 1.0554-0.8308s-9.4567-15.742-9.5101-16.174c0.0122-0.31884 0.4453-21.273 0.4453-21.273l-1.0684-0.04894z"/>
   <path d="m241.17 136.95c-0.95975-0.26778-31.678-8.8686-32.284-9.0396-0.12782-0.62486-7.1125-37.117-7.2226-37.655 0.37249-0.39293 20.96-22.204 21.692-22.969 0.0763 0.08159 0.45667 0.46756 1.0546 1.0797 0.26005-0.27231 0.52453-0.54075 0.75256-0.84851-0.89214-0.88695-1.41-1.3973-1.41-1.3973l-0.78392 0.02434-22.953 23.931s7.1585 38.754 8.244 39.152c1.0863 0.40313 33.622 9.0336 33.622 9.0336s0.42547-1.3272 1.1226-3.4923c-0.35655-0.14336-0.71872-0.201-1.0758-0.22844-0.43835 1.3988-0.71634 2.2725-0.75811 2.4097"/>
   <path d="m240.18 82.395c3e-3 0.64709-0.53426 0.93283-0.76747 1.3448 7.0429 7.2144 13.777 14.113 13.984 14.33-0.0832 0.27433-2.6362 8.3967-5.3902 17.142 0.39624 0.0152 0.99409 0.8571 1.1843 0.20129 2.839-8.9391 5.4206-17.191 5.4212-17.632 2e-3 -0.48348-6.8715-7.7445-14.433-15.386"/>
   <path d="m225.16 67.52c-0.22659 0.30903-0.48702 0.57658-0.75255 0.84854"/>
   <path d="m239.41 83.738c0.23121-0.40882 0.23524-1.0476 0.23061-1.6916"/>
   <path d="m286.48 83.659c0.50912 0.2497 10.829 5.4147 12.417 6.2062-1.1853 1.3391-9.3349 10.546-9.7173 10.98-0.6208 0.0509-27.197 2.1666-27.995 2.2265-0.40484-0.48714-2.0928-2.5113-2.3244-2.791-0.0602-0.39519-0.79506-4.9308-0.84734-5.2939 0.1191-0.31951 1.2037-2.6454 1.424-3.2286 0.37115-0.11228 7.1834-2.1534 13.878-4.1586 6.4922-1.9445 12.874-3.8553 13.164-3.9408m-1.218-0.93893c-1.3044 0.41274-26.7 8.0223-26.7 8.0223l-1.8517 4.1125 0.86836 5.8603 3.0935 3.3901s28.639-1.7972 29.276-1.9571c0.63878-0.16258 10.329-11.769 10.129-12.495-0.1991-0.72121-11.215-6.6592-12.032-7.0602-0.82181-0.39955-1.4796-0.28954-2.783 0.12762"/>
   <path d="m282.64 87.968-0.11448 0.18365 2.2619 10.189 4.5112 3.1595 0.47809-0.64529s-3.6487-2.4422-4.0178-2.6611c-0.0954-0.43426-2.0111-9.4354-2.0964-9.835 0.21637-0.34697 3.3482-5.2735 3.3482-5.2735l-0.91819-0.23851z"/>
   <path d="m283.19 87.761-25.507 6.7355-0.2705 0.84249s8.1488-2.0485 15.311-3.8482c5.569-1.3995 10.541-2.6485 10.621-2.6669 0.16435 0.02358 10.893 1.2704 13.365 1.5578-2.1279 1.2928-11.427 6.9359-11.61 7.0492-0.24192 0.02466-27.054 2.6582-27.054 2.6582l0.24166 0.76799 27.16-2.3811 14.483-8.7968-16.646-1.9398z"/>
   <path d="m244.19 114.92c0.62237 0.1895 34.305 10.562 34.877 10.736 0.29575 0.48347 8.536 14.046 9.4755 15.591-1.7455 0.5518-19.038 6.0398-19.625 6.2274-0.57564-0.3026-28.923-14.882-29.406-15.136-0.11052-0.24387-3.5822-5.4028-3.6791-5.8731-0.0956-0.46593 2.618-8.6549 2.5752-8.5224-0.0919 0.2813 5.2504-2.7377 5.7826-3.0229m-0.93607-0.56103s-5.2251 2.646-5.599 2.9264c-0.37014 0.28715-3.1269 8.9985-3.033 9.3715 0.0936 0.37332 4.188 6.6723 4.188 6.6723s29.252 16.003 29.958 15.874c0.71032-0.13038 20.187-6.1836 21.028-6.5626 0.83667-0.3777 1.119-0.47274 0.26823-2.0583-0.85345-1.5874-8.9156-15.799-9.9392-16.29-1.1577-0.55038-34.233-9.7255-35.376-10.127-1.1426-0.40218-1.4946 0.19422-1.4946 0.19422"/>
   <path d="m270.52 127.39-0.25508 0.0836-4.5578 13.509 2.7832 7.3928 0.8497-0.20711s-2.3873-6.8593-2.5033-7.1904c0.11141-0.33233 4.1101-12.171 4.2707-12.653 0.48377-0.15644 9.0486-2.738 9.0486-2.738l-0.56561-0.74655z"/>
   <path d="m238.22 118.32c0.35451 0.10812 32.044 10.005 32.226 10.058 0.13885 0.10938 14.025 10.613 16.24 12.289-2.7709-0.0321-20.066-0.22272-20.287-0.22531-0.20797-0.10707-30.056-14.235-30.293-14.347-0.13491-0.18586 1.8105-7.6536 2.1133-7.7752m-3.2322 8.248 31.161 14.94 23.778 0.26444-18.986-14.359-32.63-9.7489z"/>
   <path d="m258.2 38.862c0.0383 1.9626 0.39204 19.004 0.40298 19.548-0.12052 0.14842-2.4891 3.059-5.6057 6.8886-6.2115 7.6327-15.394 18.916-15.671 19.258-0.60735 0.05457-5.7373 0.69019-6.4862 0.6015-0.74727-0.09128-7.3127-3.6086-7.5952-4.0748-0.28541-0.468-0.98963-5.3786-0.93383-6.1958 0.0539-0.81397 15.382-28.345 15.667-28.88 0.53799-0.18593 18.352-6.4839 20.221-7.1454m0.26119-1.6446c-1.1664 0.26803-21.102 7.3129-21.658 8.1604-0.55077 0.84693-15.563 28.419-15.747 28.982-0.18378 0.56252 0.60066 7.0112 0.97667 7.385 0.37334 0.3717 7.9739 4.8211 8.5353 4.7253 0.56135-0.09564 7.2609-0.8032 7.5715-0.97569 0.73078-0.41219 22.083-26.527 22.083-26.527s-0.34105-18.498-0.35145-19.886c-8e-3 -1.3862-0.24406-2.1307-1.4105-1.8625"/>
   <path d="m236.9 45.492s1.4429 8.1057 2.0091 8.5703c0.56168 0.46544 11.165 7.0523 11.822 7.1407 0.6532 0.08903 8.7994-1.9936 8.7994-1.9936s0.77583-1.4232-0.23259-1.0445c-1.0081 0.37803-7.0243 2.0455-8.125 1.7931-1.1074-0.24809-11.052-6.5573-11.337-7.1145-0.28884-0.55819-1.8997-7.6221-1.8997-7.6221z"/>
   <path d="m257.48 40.261c-0.89629 2.7654-6.9769 19.923-7.0333 20.103-0.12823 0.1547-19.883 24.985-19.883 24.985l-7.1309-3.8936s16.181-26.78 16.758-27.782c0.15742-0.12416 14.966-11.641 17.289-13.413m0.35414-1.3915-18.651 13.79-16.591 28.427c0.35166 0.79598 7.5178 4.9779 8.2531 4.8202 1.7768-0.38498 20.913-25.27 20.913-25.27l7.4412-22.806z"/>
   <path d="m101.4 3.0862c-0.88371 0.89415-52.383 45.041-53.262 47.268-0.87441 2.2257-12.027 153.05-11.527 154.72 0.50162 1.6663 4.3607 6.0634 4.3607 6.0634l1.2833-0.82013s-3.0799-5.4359-3.374-5.9538c0.04887-0.64667 11.406-152.83 11.472-153.7 0.64632-0.56414 51.565-44.91 52.797-45.985 1.3357 0.94807 56.12 40.074 56.786 40.545 0.60406 2.8172 32.77 149.62 33.285 152-0.32096 0.63609-8.405 16.767-8.7019 17.358-0.55808 0.28849-5.5525 2.5135-5.5525 2.5135l1.6397 1.2651 5.5163-2.1937s8.6552-16.185 9.164-17.237c0.19276-0.3978 0.44642-0.60188 0.40566-1.0529-0.03978-0.4469-33.066-151.66-33.605-153.17-0.5362-1.5088-56.578-41.025-57.579-41.852-1.5837-1.3103-2.2237-0.6542-3.1077 0.23987"/>
   <path d="m108.34 27.016-58.979 22.809-0.3519 2.1931s59.117-23.201 59.636-23.403c0.52821 0.17364 52.754 17.922 52.754 17.922l-0.70033-2.0053-52.094-17.614z"/>
   <path d="m117.93 171.05-80.278 32.575 0.67186 1.5339s79.379-32.284 79.93-32.51c0.56316 0.19545 75.086 26.182 75.086 26.182l1.029-1.759-76.162-26.136z"/>
   <path d="m117.11 241.8 6.4317 9e-3 -0.17564-1.9529-6.43-0.0124z"/>
   <path d="m117.35 193.07-41.876 15.192 0.54839 1.5084s41.114-14.915 41.619-15.098c0.51588 0.16255 66.32 21.118 66.32 21.118l1.6695-1.292-68.024-21.52z"/>
   <path d="m109.53 28.148-6.1252-23.964-0.89133 0.00544s5.279 23.572 5.3053 23.696c6e-3 0.02658 0.39556 5.8841 1.0162 15.213 0.57063-0.0022 1.1142-6e-3 1.7292-0.0085-0.63506-9.1905-1.0343-14.941-1.0343-14.941"/>
   <path d="m111.23 52.725c-0.53434 8.31e-4 -1.1465 0.0061-1.7462 0.0103 0.13755 2.0525 0.27781 4.2023 0.42978 6.423 0.55525-0.0042 1.178-0.0059 1.7613-0.0087-0.15299-2.2254-0.30287-4.3731-0.44502-6.4245"/>
   <path d="m112.26 67.716c-0.65441 0.0013-1.2202 0.0035-1.7827 0.01131 0.10915 1.6129 0.21653 3.2602 0.32632 4.9292 0.60769 0.06088 1.2125 0.16241 1.815 0.25602-0.11829-1.7578-0.24127-3.4948-0.35875-5.1962"/>
   <path d="m113.23 81.636c-0.65645 0.0047-1.2344 0.0067-1.8145 0.01106 2.7272 40.899 6.0225 90.203 6.0225 90.203-3e-3 -0.0691 6e-3 22.382 6e-3 22.382l1.5168-0.30026 0.53025-21.626c-2e-3 -0.0346-3.4282-49.665-6.2608-90.67"/>
   <path d="m93.703 207.21c-2.2983 0.28279-58.747 2.5667-59.596 2.9966-0.84875 0.43452-16.695 22.323-17.027 23.526-0.32742 1.2092 1.8091 21.213 2.4854 21.75 0.6796 0.53896 23.12 13.923 24.517 14.332 1.3969 0.40947 7.7592 0.10821 7.7592 0.10821l-1.3716-2.1611s-4.6651 0.0689-5.7814-0.0814c-1.1191-0.15269-22.301-13.321-23.167-13.841-0.11435-0.97856-2.1307-18.75-2.2142-19.523 0.46531-0.63752 15.361-21.232 15.933-22.021 0.99834-0.0502 59.022-2.996 59.893-3.0384 0.63045 0.57257 19.795 18.036 20.451 18.637 7e-3 0.87641 0.50203 18.336 0.10254 19.532-0.39512 1.1947-16.782 15.536-17.223 15.942 0.48136-0.0823 0.3748-0.0653-4.9229 0.87166l0.37174 2.1109 5.5429-0.97864s17.334-15.272 17.865-16.494c0.5337-1.2198 0.70667-19.617 0.43025-20.967-0.27617-1.3506-19.711-18.828-20.392-19.639-0.67964-0.80636-1.3618-1.3468-3.6573-1.0623"/>
   <path d="m94.635 230.19s-57.323 2.4671-59.151 2.9474c-1.8318 0.48608-14.71 20.571-14.71 20.571l0.6219 0.96898s13.665-19.546 14.925-19.971c1.2586-0.42939 57.783-2.8925 58.596-2.6248 0.81275 0.26757 21.321 16.118 21.321 16.118l0.64505-1.1305s-19.26-15-20.348-16.076c-1.091-1.0787-1.9004-0.80241-1.9004-0.80241"/>
   <path d="m94.29 230.84 1.6058 0.01 0.16283-22.639-1.6059-0.0101z"/>
   <path d="m33.872 211.29 1.2248 22.68 1.606-0.0846-1.2249-22.68z"/>
   <path d="m65.986 241.56c1.3836-0.39936 30.262 7.8066 31.877 8.2242-0.1017 1.4535-0.6409 9.1553-0.6815 9.7311-0.16762 0.20805-4.0356 5.0397-8.5697 10.703-6.27 7.8319-13.814 17.255-14.608 18.243-1.5612-1.4994-32.511-30.122-32.784-31.069-0.27829-0.94546 23.381-15.431 24.766-15.833m-2.2707-1.3257c-1.485 0.95709-26.567 15.829-25.882 16.773 0.6819 0.94321 35.426 33.823 36.698 33.891 1.2762 0.0668 24.744-30.565 24.744-30.565s1.0067-10.962 0.73145-11.906c-0.27827-0.94544-30.344-8.6337-32.105-9.0272-1.7594-0.39626-2.7062-0.12271-4.1863 0.83341"/>
   <path d="m65.283 240.66 8.5668 49.29 25.489-40.034-0.80056-1.2316s-22.641 36.491-24.026 38.693c-0.47106-2.571-7.6858-46.898-7.6858-46.898z"/>
   <path d="m216.79 233.34c-0.78959-1.0577-21.221-15.641-22.896-16.14-1.6737-0.50192-48.802 0.14069-48.802 0.14069l-0.25046 0.14624s-21.921 12.253-22.602 13.153c-0.67998 0.90576 0.10208 19.36 0.63807 19.969 0.5362 0.6086 25.238 15.148 25.238 15.148l6.228-0.24496c-0.56743-0.56486-1.046-1.2211-1.4715-1.9242-2.8037 0.12328-4.6264 0.20378-4.7556 0.20815-0.52831-0.32114-22.664-13.742-23.634-14.331-7e-3 -1.0875-0.0872-16.473-0.0941-17.592 1.0085-0.58938 20.81-12.113 21.283-12.392 0.56124-6.8e-4 46.904-0.13728 47.562-0.13764 0.52087 0.35867 21.394 14.01 21.669 14.953 0.27547 0.94369-2.1739 14.219-2.2908 15.185-0.89293 0.50627-20.94 12.422-21.368 12.669-0.016-1e-3 -0.62806-0.2122-0.70378-0.21202-0.51433 0.71076-0.94689 1.4678-1.4009 2.196l1.9787 0.17861s22.251-12.967 22.653-13.643c0.40335-0.67953 3.8072-16.27 3.0194-17.33"/>
   <path d="m193.06 237.27-46.184 0.41158-23.78 11.372 0.69636 1.4499s23.135-11.065 23.453-11.217c0.35257-2e-3 45.158-0.40194 45.604-0.40702 0.38212 0.22999 20.093 12.055 20.093 12.055l0.82807-1.3787-20.479-12.285z"/>
   <path d="m192.47 237.93 1.4075 0.16896 0.49565-19.342-1.6109-0.0406z"/>
   <path d="m144.58 218.46 1.2775 19.85 1.3045 0.26386-0.97734-20.217z"/>
   <path d="m176.47 247.6c0.62331 0.24541 16.29 6.4435 18.528 7.3296-1.5034 2.0087-19.251 27.087-20.545 28.817-1.5847-1.4937-20.741-20.681-21.566-21.458 0.22407-0.97863 1.6587-7.2187 1.8844-8.2126 1.1176-0.3301 21.029-6.2758 21.698-6.4753m-1.7769-1.1983c-0.94425 0.27569-21.034 5.7032-21.569 6.791-0.53425 1.0802-2.0606 9.536-1.7732 10.109 0.28836 0.57818 22.616 21.87 23.382 21.79 0.76427-0.0763 22.7-30.013 22.968-30.825 0.265-0.81437-18.325-7.0996-19.953-7.7718-1.6248-0.6633-2.1083-0.36669-3.055-0.0936"/>
   <path d="m174.04 282.53c-1.612-2.2672-19.361-29.789-19.361-29.789l-1.2468 0.79913s20.039 31.04 21.294 30.744c1.2597-0.29001 2.3282-37.783 2.3282-37.783l-1.3097 0.17871s-1.5353 33.07-1.7048 35.851"/>
   <path d="m106.53 47.916c-0.0107-2.045 1.7074-3.7208 3.8281-3.732 2.1181-0.01293 3.854 1.6471 3.8648 3.6918 9e-3 2.048-1.7092 3.7237-3.8252 3.7339-2.121 0.01114-3.856-1.6438-3.8677-3.6936m-1.603 0.18281c0.0134 2.9346 2.4714 5.3073 5.4789 5.2916 3.0047-0.01736 5.4355-2.4152 5.422-5.3498-0.0153-2.9317-2.4731-5.3043-5.4788-5.2916-3.0094 0.01853-5.4402 2.4163-5.4221 5.3497"/>
   <path d="m107.28 63.366c-0.0118-2.0497 1.6375-3.7245 3.678-3.734 2.0404-0.0095 3.704 1.6449 3.7186 3.6963 0.0109 2.045-1.6414 3.7181-3.6809 3.7322-2.0358 0.0087-3.7067-1.6467-3.7158-3.6945m-1.6064 0.0095c0.0153 2.9317 2.4065 5.3026 5.3317 5.2913 2.9242-0.01585 5.2912-2.4136 5.2778-5.3482-0.0163-2.9363-2.4105-5.309-5.3346-5.2932-2.9241 0.01585-5.293 2.4165-5.2749 5.35"/>
   <path d="m108.13 77.621c-0.0118-2.0497 1.6374-3.7245 3.6798-3.7369 2.0386-0.0068 3.7024 1.6474 3.7169 3.6991 0.0107 2.0451-1.6414 3.7181-3.6763 3.7312-2.0404 0.0096-3.7096-1.6485-3.7204-3.6934m-1.6044 0.0063c0.0134 2.9345 2.4047 5.3055 5.3347 5.2932 2.9213-0.01765 5.2883-2.4154 5.2731-5.3471-0.0163-2.9363-2.4104-5.3091-5.3328-5.2961-2.9242 0.01605-5.293 2.4165-5.2749 5.35"/>
   <path d="m92.519 65.85c-0.0088-2.0479 1.6408-3.7226 3.681-3.7323 2.0404-0.0095 3.7039 1.645 3.7186 3.6963 0.01079 2.0451-1.6414 3.7181-3.6791 3.7294-2.0404 0.0095-3.7117-1.6453-3.7206-3.6934m-1.43 0.0079c0.01226 2.9299 2.4046 5.3055 5.3316 5.2914 2.9242-0.01605 5.2912-2.4137 5.2778-5.3482-0.0153-2.9317-2.4076-5.3073-5.3318-5.2914-2.9317 0.01503-5.2929 2.4164-5.2777 5.3482"/>
   <path d="m78.827 69.283c-0.0088-2.0478 1.6389-3.7196 3.678-3.734 2.0386-0.0067 3.7069 1.6468 3.7187 3.6963 0.01069 2.045-1.6414 3.7181-3.678 3.734-2.0387 0.0068-3.7097-1.6485-3.7187-3.6963m-1.6042 0.35729c0.01523 2.9317 2.4075 5.3073 5.3317 5.2913 2.9241-0.01585 5.2929-2.4165 5.2778-5.3482-0.01523-2.9316-2.4076-5.3072-5.3318-5.2914-2.927 0.01416-5.294 2.4119-5.2777 5.3482"/>
   <path d="m121.9 64.19c-0.0117-1.9222 1.5419-3.4934 3.4516-3.5049 1.9176-0.01068 3.487 1.5458 3.4943 3.4688 0.01 1.9251-1.5418 3.4934-3.4534 3.5078-1.9158 0.0078-3.4807-1.5497-3.4924-3.4717m-1.6043 0.35726c0.0161 2.8088 2.3042 5.0836 5.1056 5.0667 2.8024-0.01215 5.0674-2.3102 5.0531-5.1219-0.0134-2.8071-2.306-5.0807-5.1074-5.0639-2.7996 0.01385-5.0646 2.3121-5.0513 5.1191"/>
   <path d="m135.84 67.486c-9e-3 -1.8051 1.4437-3.2799 3.2387-3.2913 1.7976-0.0097 3.2672 1.4516 3.276 3.257 9e-3 1.8052-1.4438 3.28-3.2416 3.2896-1.7948 0.01155-3.2643-1.4498-3.2731-3.2553m-1.431 0.35382c0.0135 2.6917 2.2105 4.87 4.8902 4.8568 2.6813-0.01608 4.8566-2.2148 4.8431-4.9066-0.0182-2.6906-2.2105-4.8698-4.8937-4.8509-2.6824 0.01122-4.8549 2.2119-4.8396 4.9008"/>
   <path d="m-52.69 188.71 0.33211 0.47005 6.7586 0.67906 9.1699-3.2516-0.35886-1.0081s-9.1215 3.2379-9.332 3.3138c-0.19184-0.0182-4.4486-0.0867-5.9062-0.20734 0.87436-1.0711 3.0766-4.0653 3.0766-4.0653l-0.18028-1.0954z"/>
   <path d="m-46.876 189.62 3.2077 2.4854 0.16312-0.35198-2.4521-2.433z"/>
  </g>
 </g>
</svg>
