<?xml version="1.0" encoding="UTF-8"?>
<svg version="1.1" viewBox="0 0 436.5 475.23" xmlns="http://www.w3.org/2000/svg">
 <g transform="translate(-.05 .015094)">
  <path d="m352 98.35-17.4 48.55-20.15-24.4q14.4-23.65 14.4-25.4 0-1.5 1.15-15.15 1.15-14.1 1.6-17.45 3.35 2.7 7.8 7.9 6.05 7.05 9.85 14.3l2.75 11.65" fill="#ba0031"/>
  <path d="m328.85 97.1q0-1.5 1.15-15.15 1.15-14.1 1.6-17.45l1.6 1.35v14.6q-0.2 15.1-1.1 17.6-0.75 2.15-5.25 11.15l-7.55 15.5-4.85-2.2q14.4-23.65 14.4-25.4" fill="#db8f86"/>
  <path d="m362.2 73.6q7.3 8.9 10 13.95l0.9 14.15-16.5 62.3-27.15-22.5 9.5-20.9q9.5-21.35 9.5-23.5 0-1.95 2.05-17.45l2.1-16.55q3 2.55 9.6 10.5" fill="#ba0031"/>
  <path d="m348.45 97.1q0-2.15 2.1-18.3l2.05-15.7 2.2 1.7-0.95 14.3-1.45 19.15q-0.45 4.05-9.85 25.6l-9.35 20.8-3.75-3.15 9.5-20.9q9.5-21.35 9.5-23.5" fill="#db8f86"/>
  <path d="m393.25 90.3 2.75 12-11.3 58-31.25-9.85 8.75-25.05q8.7-24.8 8.7-23.35l1.9-14.95q1.9-16.8 2.2-22.45 4.75 4.2 11.2 14.35l7.05 11.3" fill="#ba0031"/>
  <path d="m375 64.65 2.4 2.1-0.6 15.4q-0.85 16.2-2.15 20.45l-6.75 22.9q-5.8 19.2-8.85 26.15l-5.6-1.2 17.45-48.4 4.1-37.4" fill="#db8f86"/>
  <path d="m396.3 69.25q5.75 3.7 15.9 21.45 10.15 17.65 10.7 24.85 0.75 10.05-5.3 38.3-3.05 14.15-6.25 26.3l-33.45-28.6 8.4-25.35q7.15-21.1 7.15-22.75 0-1.4 1.35-16.15l1.5-18.05" fill="#ba0031"/>
  <path d="m394.9 85.25 1.4-16 0.5 0.1q0.6 0.3 1.25 1.5 0.75 1.4 0.5 15.75-0.3 14.1-1 17.6-0.85 4.35-13.1 50.4l-6.55-3.05 8.4-25.35q7.15-21.1 7.15-22.75 0-1.8 1.45-18.2" fill="#db8f86"/>
  <path d="m400.05 162.7q12.2 11.65 14.35 26.4-3.55 22.15-15.15 54.3-14.65 40.55-30 57.05l-32.95-154.1q5.4 2.1 16.45 3.75 16.05 2.4 31.65 1.15 10.75 6.75 15.65 11.45" fill="#ba0031"/>
  <path d="m384.45 151.45-10.7 32.3q-8.9 24.3-17 33.9l-20.45-71.3q4.75 1.8 16.8 3.55 16.35 2.35 31.35 1.55" fill="#db8f86"/>
  <path d="m410.1 173.75q2.8 5.25 4.3 15.35-3.55 22.15-15.15 54.3-14.65 40.55-30 57.05l-11.45-45.85q13.35-18.4 26.8-48.05 9.1-20 17-42.3 6 4.85 8.5 9.5" fill="#990024"/>
  <path d="m406.05 169.45q6.8 9 8.35 19.65-3.55 22.15-15.15 54.3-14.65 40.55-30 57.05l-11.9-29.95q18.15-19.25 31.6-46.9 13.6-28.05 17.1-54.15" fill="#6c5d4e"/>
  <g fill="#0d131a">
   <path d="m404 167.25 4.85 6.95q-4.95 23.15-23.3 59.7-9.15 18.3-17.35 31.95-1.2-7.25-2.15-10.3 6.7-10.8 21-43.35 15.25-34.65 16.95-44.95"/>
   <path d="m348.8 172.4 9.75 1.7q10.2 1.3 18.45 0.3 1.2-0.15 10.9 8.95l9.45 9.1-3.95 5.7-9-8.2q-9.2-8.2-10.5-8.15-16.9 0.85-23.1-1.35l-2-8.05"/>
   <path d="m375.5 218.75q-8.15-7.75-11.55-9.3l-6.8 0.45 1.95-7.25 6.65-0.5q2.45 0.75 11.95 9.55l9 8.65-3.7 5.85-7.5-7.45"/>
  </g>
  <g fill="#eeeeef">
   <path d="m399.6 184.55q3.9 0 18.1 3.4 15.2 3.65 16.65 5.7-1.9 2.55-16.85 7.75-14.35 5-17.9 5-3.1 0-5.25-3.2-2.2-3.2-2.2-7.75 0-4.5 2.2-7.7t5.25-3.2"/>
   <path d="m422.9 220.5q-1.95 2.75-17.65 8.4-15.05 5.45-18.75 5.45-3.2 0-5.5-3.45-2.25-3.5-2.25-8.45 0-4.9 2.25-8.4 2.3-3.5 5.5-3.5 4.05 0 18.95 3.75 15.95 4 17.45 6.2"/>
   <path d="m393.25 242q17.2 4.3 18.75 6.6-2.05 2.8-19 8.65-16.2 5.55-20.15 5.55-3.35 0-5.75-3.65-2.4-3.6-2.4-8.75t2.4-8.8q2.35-3.65 5.75-3.65 4.25 0 20.4 4.05"/>
  </g>
  <g fill="#c8c9ca">
   <path d="m392.15 195.45q0-1.1 0.3-3.1l25.85 0.85q15.95 0.3 16.05 0.45-1.9 2.55-16.85 7.75-14.35 5-17.9 5-3.1 0-5.25-3.2-2.2-3.2-2.2-7.75"/>
   <path d="m378.85 220.6 21.5 0.9q12.2 0.3 21.6-0.15-4 3.1-18.35 8.15-13.7 4.85-17.1 4.85-3.2 0-5.5-3.45-2.25-3.5-2.25-8.45l0.1-1.85"/>
   <path d="m392.45 257.45q-15.8 5.35-19.6 5.35-3.35 0-5.75-3.65-2.4-3.6-2.4-8.75 0-1.7 0.3-3.3 19.6 2.8 46.8 1.75-2.85 2.95-19.35 8.6"/>
  </g>
  <g fill="#0d131a">
   <path d="m331.2 61.6q2.2 1.7 7.05 7.5 6.9 8.3 10.8 16.25l-0.2 3.3q-3.35-6.35-9.95-14.85-5.9-7.65-6.7-7.75-0.45-0.05-1.15 14.15l-0.95 16.9q-0.1 1-4.15 8.35l-7.65 13.35q-1.35-0.9-1.75-1.8l7.6-13.1q3.75-6.8 3.9-7.7l0.7-16.6 0.85-16.4q0.2-1.3 0.5-1.65l1.1 0.05"/>
   <path d="m352.9 60.8q1.35 0.9 8.45 9.9 8 10.15 11.55 16.45l-0.4 2.95q-2.4-4.4-10.9-15.35-8.2-10.55-8.35-10-3.65 30.65-3.65 32.6 0 2.05-6.95 18.45l-10.45 23.65-1.5-2.55q6.05-13.2 11.15-25.2 5.55-13.2 5.55-14.75 0-1.4 1.75-18.1l1.9-17.5q0.15-0.95 0.55-1.05 0.35-0.1 1.3 0.5"/>
   <path d="m374.15 61.95q0.65-0.05 1.45 0.7 5.7 5.45 12.65 16.85 3.5 5.75 6.15 10.85l-0.05 4.4q-0.65-1.95-9.4-15.6-8.9-13.85-9.25-12.75l-1.15 15.55q-1.1 15.4-2.35 19.7l-6.85 20.55-9.9 28.6-2.75-0.6 8.15-22.85 9.35-25.7q0.9-2.35 2.1-20.6l1.1-18.4q0.1-0.65 0.75-0.7"/>
   <path d="m394.25 67.05q0.1-0.85 1.05-0.7 0.85 0.1 1.6 0.75 7.75 6.45 17.45 24.1 9.4 17.15 10 24.85 0.8 10.05-5.05 38-2.95 14.1-6.4 27.45l-2.05-5.85q2.9-10.25 5.7-22.4 5.65-24.25 5.65-35.3l-0.1-2.35q-1.45-9.95-13.3-28.55-4.05-6.35-8.1-11.8-3.6-4.8-3.7-4.45l-0.9 15.45q-0.95 15.45-1.55 17.5l-14.1 47.7-3.35-0.1 15.5-48.2q0.35-1.45 1-18.5l0.65-17.6"/>
   <path d="m393.2 256.7 4.25-1.35q-6.1 15.25-12.8 26.9-7.45 13-14.9 20.3l-1.15-2.7q12.35-13.2 24.6-43.15"/>
   <path d="m405 229 2.05-1.05-5.35 16.3-3.2-1.25 4.45-13.15 2.05-0.85"/>
   <path d="m407.5 214.8 2.75-10.5 3.2-2.1q-1.1 6-2.95 13.2l-3-0.6"/>
   <path d="m335.95 147.2-0.6-2.45q6.55 2.45 20.45 4.4 16.75 2.35 27.15 0.8l3.6 0.2 6.2 3.6q6.25 4.1 10.6 9.05 0.95 2.55 2.55 4.85 1.65 2.25 3.3 3.35 4.45 7.65 5.8 15.65l-1 0.2-0.9-0.1q-1.2-5.7-4.55-11.6-2.55-1.2-3.55-2.3-2-2.2-3.8-7.55-4.3-4.7-9.65-8.75-3.3-2.5-5.8-3.95l-1.25-0.55-1.3 0.05q-11.55 1.95-27.65-0.4-12.45-1.8-19.6-4.5"/>
   <path d="m399.6 185.25q-2.8 0.1-4.75 3.05-2 2.95-2 7.15 0 4.25 2 7.25 1.95 3 4.75 3 3.05 0 18.45-5.45 15.45-5.5 15.25-6.6-0.15-0.8-15-4.65-15.1-3.85-18.7-3.75m-8.45 10.5q0-4.8 2.55-8.35 2.5-3.55 5.9-3.55 3.65 0 15.25 2.5 13.45 2.95 19.7 5.95 1.95 0.95 2 1.35 0.05 0.45-1.75 1.45-8.35 4.6-20.7 8.55-10.9 3.45-14.5 3.45-3.4 0-5.9-3.25-2.55-3.35-2.55-8.1"/>
   <path d="m405.8 227.45q16.15-6.15 16.05-6.95 0-0.5-16-4.8-16.3-4.4-19.35-4.4-2.9 0-5 3.25-2.05 3.3-2.05 7.9 0 4.65 2.05 7.95 2.1 3.25 5 3.25 3 0 19.3-6.2m18.1-8.2q1.35 0.5 1.4 0.95 0.05 0.5-1.5 1.5-6.75 4.3-20.8 9.05-12.8 4.3-16.5 4.3-3.55 0-6.2-3.6-2.75-3.7-2.75-8.85t2.75-9q2.65-3.75 6.2-3.75 3.45 0 14.95 2.7 13.15 3.1 22.45 6.7"/>
   <path d="m414.65 248.7q-0.05 0.6-2.25 1.85-6.8 3.85-21.85 8.75-14.2 4.6-17.95 4.6-0.85 0-1.75-0.5l-1.65-1.05v-1.75q1.65 1.5 3.65 1.5 3.4 0 20.75-6.15 17.25-6.15 17.4-7.35 0.1-0.8-17.1-5.35-17.35-4.6-21.05-4.6-3.45 0-5.7 4.2l-0.35-2q2.35-4 5.9-4 3.85 0 17.5 3.35 15 3.65 22.45 7 2.05 0.9 2 1.5"/>
  </g>
  <path d="m59.95 292.55q1.05-2.8 1.15-8.05l-0.05-4.7 56.4 1.1 46.9 48.3q1.55 0.5 5.7 9.95 4.3 9.85 3.2 12.85-1.1 2.95-26.5 13.75-23.65 10.05-29.05 11.25-1.85 0.4-12.85-4.35-10.75-4.6-23.4-11.15-32.45-16.8-32.05-21.75 0.35-4.4 8.75-12.4 8.75-7.55 9.55-8.7 1.05-1.4-2.65-12.2l-5.1-13.9" fill="#ba0031"/>
  <path d="m117.7 377q-1.8 0.4-12.25-4.1-10.2-4.35-22.5-10.65-31.35-16.05-33.45-21.8 24.2-9.15 42.2-20.05 21.1-12.8 35.75-29.2l36.9 38q1.55 0.5 5.7 9.95 4.3 9.85 3.2 12.85-1.1 2.95-26.5 13.75-23.65 10.05-29.05 11.25" fill="#990024"/>
  <path d="m73.55 349.45-2.25-5.45q14.05-17.7 15.2-19.95 0.7-1.35-3.2-13.6l-4.05-12h7.9l2.95 10.65q2.95 11.4 2.95 15.2t-9.75 14.85q-4.85 5.55-9.75 10.3" fill="#0d131a"/>
  <path d="m96 296.9 6.1-5.7q23.25 35.8 24.9 39.65 1.05 2.45-13.5 16.65-7.3 7.1-14.8 13.7l-3.8-4.75 11.95-12.1q11.9-12.3 11.65-13.3-0.45-1.6-22.5-34.15" fill="#0d131a"/>
  <path d="m49.4 337q4.45-0.35 8.25 2.2 3.25 2.2 5.6 6.1l-12.75 18.35-11.05 3.25q-12.05 3.3-16.75 3.4 4.6-8.65 11.65-17.35 6.8-8.45 15.05-15.95" fill="#eeeeef"/>
  <path d="m61.6 342.95 1.65 2.35-12.75 18.35-11.05 3.25q-12.05 3.3-16.75 3.4 2.35-4.35 11.75-12.3 13.25-11.25 27.15-15.05" fill="#c8c9ca"/>
  <path d="m75.25 376.15q-5.25 3.4-19.8 8.6-13.75 4.95-21 6.35 3.95-11.25 14.65-27.35 11.3-17.1 18.05-20.65 6.4-1.1 13.15 3.4 5.45 3.65 8.5 8.8l-13.55 20.85" fill="#eeeeef"/>
  <path d="m34.45 391.1q0.25-0.6 4.55-5.15 5.35-5.6 11.55-11.2 18.8-16.9 34.75-24 2.1 2.25 3.5 4.55l-13.55 20.85q-5.25 3.4-19.8 8.6-13.75 4.95-21 6.35" fill="#c8c9ca"/>
  <path d="m117.45 375.95q-7.3 3.4-17.35 7.6-20.15 8.4-34.05 12.45 0.45-7.85 7.05-19.8 7.4-13.3 17.4-21.45 11.2-2.2 19.7 6.45 7.25 7.35 7.25 14.75" fill="#eeeeef"/>
  <path d="m107.15 358.55q4.7 3.45 7.65 8.75 2.65 4.85 2.65 8.65l-18.05 7.75q-20.75 8.65-34 12.95 7.25-8.8 21.1-21.1 11.7-10.45 20.65-17" fill="#c8c9ca"/>
  <path d="m107.8 267.5 4.9 16.15q-11.7 15.55-26.3 17.6-10.7 1.45-20.35-4.1-0.5-0.3 0.3 8.05l0.9 8.4-7-21.35 2.3-20.15 45.25-4.6" fill="#0d131a"/>
  <path d="m113.5 236.7q1.95 12.9-2.45 28.1-4.15 14.2-15.95 21.75-11.05 7.05-21.85 4.35-12.15-3.1-16.75-17.1-4.4-13.4 0.5-28.55 4.75-14.75 17.7-23.15 13-8.45 25.2-4.55 11.2 3.65 13.6 19.15" fill="#ba0031"/>
  <path d="m86.15 241q-0.25 4.45-2.65 9.25-2.2 4.5-6.3 6.3-3.9 1.7-7 0.1-3.5-1.75-3.95-6.7-0.45-4.8 2.05-9.55 2.45-4.65 7-6.65 4.55-2.05 8 0.05 3.2 1.9 2.85 7.2" fill="#db8f86"/>
  <path d="m108.9 224.25q4.9 6.9 5.15 19.05 0.2 10.5-3 21.5-4.15 14.2-15.95 21.75-11.05 7.05-21.85 4.35-7.05-1.8-11.75-7.7 22.3 1.9 35.85-18.15 11.8-17.5 11.55-40.8" fill="#990024"/>
  <path d="m90.6 189.65q-0.5 0.85-9 22.2-8.5 21.3-10.9 25.2-1.7-3.35-4.85-13.4-3.2-10.1-3.6-13.45l4.5-15.2 23.85-5.35" fill="#eeeeef"/>
  <path d="m70.3 194.2 20.3-4.55q-0.5 0.85-9 22.2-8.5 21.3-10.9 25.2-0.9-1.8-2.2-5.55 1.4-8.05 1.75-18.55l0.05-18.75" fill="#c8c9ca"/>
  <path d="m27.8 138.55q0.35-3.45 6.9-13.45l6.45-9.3 67.75 49.4q-1.25 7.05-11.3 20.6-3.8 3.45-17.7 6.8l-19.55 4q-5.65 1.15-19.2-16.65-5.25-6.95-9.2-13.55-3.95-6.65-4.15-8.95-0.9-9.9 0-18.9" fill="#968471"/>
  <path d="m40.55 142.6q2.65-4.85 11.7-18.8l57.05 41.6q-1.2 6.8-11.3 20.6-3.8 3.45-17.7 6.8l-19.55 4q-4.35 0.9-14.25-10.55-8.45-9.8-14.75-20.7 3.05-12.25 8.8-22.95" fill="#6c5d4e"/>
  <path d="m41.15 115.8 6.25 4.55q-3.7 2.9-5.85 5.35-2.8 3.05-4.2 6.35-2.65 6.3-3.6 16.85l-1.3 18.3q-4.4-7.3-4.65-9.75-0.9-9.9 0-18.9 0.35-3.45 6.9-13.45l6.45-9.3" fill="#ba0031"/>
  <path d="m68.05 193.3q-2.4 9.25-9.05 26.15-6.4 16.25-10.1 22.85-7.35-16.2-7.2-30.45l8.95-22.75q3.45 0 7.7 0.9 5.25 1.15 9.7 3.3" fill="#eeeeef"/>
  <path d="m50.45 189.6 0.2-0.5q3.45 0 7.7 0.9 5.25 1.15 9.7 3.3-2.4 9.25-9.05 26.15-6.4 16.25-10.1 22.85l-2.3-5.45 2.7-23.6q1.5-14.05 1.15-23.65" fill="#c8c9ca"/>
  <path d="m34.9 173q8.45 0.75 16.25 13.3l-6.5 19.9q-7.1 21-10.25 26.3-4.5-7.85-7.2-29.5-2.55-20-1.05-25 0.65-2.25 2.95-3.7 2.55-1.6 5.8-1.3" fill="#eeeeef"/>
  <path d="m38.3 173.85q6.65 2.55 12.85 12.45l-6.2 19.05q-6.8 20.25-10.1 26.4-0.15-18.8 0.3-28.85 0.7-15.9 3.15-29.05" fill="#c8c9ca"/>
  <path d="m25.4 181.45q-17.1 10.7-23.25 12.9 0.6-6 7.25-22.95 7-17.95 10.9-21.2 4.3-3.65 10.9-7.6 8.95-5.3 14.05-5.65 2.45 2.6 2.55 14.8 0.15 12.45-2.75 16.25-3.2 3.2-19.65 13.45" fill="#eeeeef"/>
  <path d="m45 136.95h0.25q2.45 2.6 2.55 14.8 0.15 12.45-2.75 16.25-3.25 3.2-19.5 13.35-17.05 10.6-23.3 12.9 14.45-28.5 42.75-57.3" fill="#c8c9ca"/>
  <path d="m128.35 189.8q2.35-5.55 2.45-12.6 0-4.35-0.75-8.25l69.05-64.85 54.9 216.15-17.35 33.8q-13.45-11.25-42.35-18.65-22.45-5.75-34.85-5.75-19.55 0-26.65-7.8-4.15-4.55-13-20.55-8.75-15.9-12.55-25.55-4.2-10.75-6.65-24.55-2.75-15.3-0.05-18.75 3.95-5.05 13.35-18.9 11.75-17.35 14.45-23.75" fill="#968471"/>
  <path d="m107.25 275.75q-2.95-7.5-5.15-17.2 13.8 6.3 32.05 8.05 67.65 8.55 114.85 33.95l5 19.7-17.35 33.8q-13.45-11.25-42.35-18.65-22.45-5.75-34.85-5.75-19.55 0-26.65-7.8-4.15-4.55-13-20.55-8.75-15.9-12.55-25.55" fill="#6c5d4e"/>
  <path d="m199.1 104.1 20.65 81.35q-22.1-10.95-44.05-12.3-24.15-1.5-45.3 8.95 0.95-6.75-0.35-13.15l69.05-64.85" fill="#6c5d4e"/>
  <path d="m162.25 83.6 12.75 57.2q-5.9 1.1-13.6 7.05-5.65 4.4-10.3 9.6-3.15 3.6-8.6 7-5.1 3.25-8.6 4.1-3.15 0.8-8-1.1-4.35-1.7-7.55-4.45l43.9-79.4" fill="#968471"/>
  <path d="m162.25 83.6 12.75 57.2q-5.9 1.1-13.6 7.05-5.65 4.4-10.3 9.6-3.15 3.6-8.6 7-5.1 3.25-8.6 4.1-3.15 0.8-8-1.1-4.35-1.7-7.55-4.45l43.9-79.4" fill="#6c5d4e"/>
  <path d="m361.65 229.1-56.55 12.4-160-163.8-33.4-59.7q4.65-3.4 24.1-7.85 22.7-5.15 40.85-4.85 0.75 0.05 1.4 0.7 0.7 0.7 1.4 0.7l3.05-0.45 2.95-0.4q5.95 0.7 10.65 2.15 29.95 9.5 48.9 20.9 23.45 14.05 44.45 38.55 23.4 27.35 46.5 77.9 24.05 52.65 25.7 83.75" fill="#0d131a"/>
  <path d="m200.35 79.6q20.8 5.25 38.8 17.65 23.6 16.35 37.9 42.35 17.5 31.9 19.75 76.45l-25.75 10.9-83.8-99.25-9.25-50.55q6.45-1.6 22.35 2.45" fill="#968471"/>
  <path d="m178 77.15q6.45-1.6 22.35 2.45 20.8 5.25 38.8 17.65 23.6 16.35 37.9 42.35 17.5 31.9 19.75 76.45l-25.75 10.9-47.25-55.95 0.45-33.75q0.3-20.3 3.7-33.75-11.35-6.7-21.85-11-8.7-3.55-10.5-3.2-1 0.2-1.25 22.2-0.3 22.45-1 23.3-0.95 1.2-5.75-14.5l-4.6-15.95-5-27.2" fill="#6c5d4e"/>
  <path d="m333.8 183.5q4.5 14.95 4.5 19.5 3.7 1.35 13.55 9.15 10.4 8.2 13.1 12.5 1.1 6.35 1.2 19 0.15 15-1.75 23.2l-59.1-52.9-0.85-13.2q9.6-10.5 24.85-31.35l4.5 14.1" fill="#ba0031"/>
  <path d="m329.3 169.4 4.5 14.1q4.5 14.95 4.5 19.5 2.25 0.85 8.1 5 5.85 4.25 11 8.75l2.55 23.75q1.5 14.1 1.45 23.65l-56.1-50.2-0.85-13.2q9.6-10.5 24.85-31.35" fill="#990024"/>
  <path d="m333.2 144.65 3.25 0.6q3.2 0.7 3.85 1.05 5.8 9.45 13.9 34.85 4.05 12.7 6.9 23.5l-3.25 7.5-16.1-10.85q-2.1-11.45-7.6-26.8l-5.1-13.05 4.15-16.8" fill="#ba0031"/>
  <path d="m330.5 144.8-2.6 10.25q-1.05 3.95-11.2 18.3-8.85 12.55-14.2 18.8-0.6-5.95-4.55-24.6l-3.8-17.45q16.9-32.2 17.35-34.35 0.75-3.7 0.9-10.4v-6l3.7-0.3 6.25 11q6.85 12.65 10.15 21.15 0.2 4.1-2 13.6" fill="#ba0031"/>
  <path d="m328.25 153.65-0.35 1.4q-1.05 3.95-11.2 18.3-8.85 12.55-14.2 18.8-0.6-5.95-4.55-24.6l-3.8-17.45q16.9-32.2 17.35-34.35l0.35-2.25q1.9 5.75 8.65 20 5.85 12.5 7.75 20.15" fill="#990024"/>
  <path d="m282.7 65.3-0.95-6.5 2.15-0.05q2.25 0.1 2.8 0.65l8.55 10.65q8.1 10.35 9.75 13.2 1.7 3.05 1.9 6.55 0.1 2.6-0.7 8.6-3.1-5.6-13.6-19.9l-9.9-13.2" fill="#ba0031"/>
  <path d="m282.7 65.3-0.95-6.5 1.65-0.05 2.75 0.35q0.65 2.25 0.85 5.8l0.15 6.25-4.45-5.85" fill="#db8f86"/>
  <path d="m254.55 35.3 1.85-0.75q2-0.7 2.45-0.5 1 0.4 8.55 6.8l8.8 7.75q1.1 1.1 1.05 7.4l-0.1 11.15q4.6 3.9 14.3 18.4 9.65 14.45 12.9 22.15 0 3.3-7.75 19.4l-7.8 15.45q-9.4-26.1-36.45-47.3-19.75-15.5-38.95-22.2l-1.15-20.4q-0.9-13.85-2.25-18.3 8.95 3.1 34.3 15.15l10.25-14.2" fill="#ba0031"/>
  <path d="m253.9 53.9q13.55 6.35 23.2 13.85 1.75 1.35 3.75 3.85l3.75 4.3 12.75 17q7.55 10.4 9.5 15.05 0 3.3-8.6 20.9l-8.6 16.95q-9.4-26-39.35-49.25-11.25-8.7-23.75-15.65-10.45-5.85-18.1-8.55l-0.7-22q-0.55-15.65-1.85-19.95 3.95 1.35 17.05 8.25l17.55 9.05q1.5 1.15 13.4 6.2" fill="#990024"/>
  <path d="m243.55 49.35 7.7-13.7 3.5-0.95 4.1-0.65 1 0.65q-8.65 16.45-10.4 16.85-1.1 0.25-3.6-0.95l-2.3-1.25" fill="#db8f86"/>
  <path d="m247.4 29.5 2.55 4.8-5.4 7.4q-33.65-16-41.4-18.8-2.8-3.05-10-9.65-7.9-7.15-9.8-8l2.55-1.35q3.3-1.4 6.75-1.4 6.75 1.45 27.15 10.15 19.05 8.05 23 10.55 1.7 1.2 4.6 6.3" fill="#ba0031"/>
  <path d="m206.8 19.45 13.45 5.65q15.65 6.4 27.55 12.65l-5.2 8.6q-19.8-6.6-29.8-11.9-10.9-5.8-12.65-6.45-3.1-3.4-11-10.9-8.9-8.45-10.75-9.3l3.8-2.6q4.3-2.6 6.75-2.5 2.4 0.05 9.85 7.9l8 8.85" fill="#db8f86"/>
  <path d="m200.7 29.7q0.95 2.1 3 20.4l2.25 21.1-12.9-1.65-10.6-1.15q-13.65-35.9-17.35-42.4-3.45-3.25-17.25-9.6-12.8-5.85-14.3-5.85l-4.95 1.25-4.05 1.2 2.45-2.65q2.55-2.8 3.15-3.25 1.9-0.7 18.35-3.15 17.3-2.6 21.25-2.4 3.65 1.1 16.85 13.4 12.8 11.9 14.1 14.75" fill="#ba0031"/>
  <path d="m163.3 24.6q9.05-1.3 21.35 0.65 11.3 1.8 16.05 4.55 1 2.3 3 20.5l2.25 20.9-12.9-1.65-10.6-1.15q-13.65-35.9-17.35-42.4l-1.8-1.4" fill="#990024"/>
  <path d="m168.1 22.6q1.65 1.95 6.95 16.4l4.95 14.05 3.3 14.85q-17.55-35.75-21.3-42.25-3.4-3.2-16.1-8.8-11.55-5.05-13.1-5.05l-4.6 0.6-3.65 0.6 2.45-2.65q2.55-2.8 3.15-3.25l2-0.55 3.3-0.1q2.45 0.65 16.1 7.1 14.85 7 16.55 9.05" fill="#db8f86"/>
  <path d="m166.6 48.25q3.7 9.9 6.85 19.5l-62.6-25.45-9.15-23.75q2.9-1.6 8.8-3.95 4.95-2 6.95-2.55 3.15 0.6 19.65 6.8 16.8 6.3 19.65 8.1 2.5 1.55 9.85 21.3" fill="#ba0031"/>
  <path d="m166.6 48.25q3.7 9.9 6.85 19.5l-50.7-20.6q8.4-7.9 15.55-12.5 9.05-5.85 18.1-7.9l0.35 0.2q2.5 1.55 9.85 21.3" fill="#990024"/>
  <path d="m173.85 60.4q2.85-3.65 16.15-14.5 14.3-11.6 17.3-11.5 0.45 5.9-4.95 22.4-5.05 15.35-7.65 18.8-2.35 3.05-7.4 3.7-5.45 0.65-9.55-2.35-4.15-3-5.2-8.4-1-5.15 1.3-8.15" fill="#eeeeef"/>
  <path d="m218.55 56.6q13.3-11.6 16.05-11.55 0.65 5.05-4.5 22-4.8 15.95-7.2 19.35-2.2 3.05-6.9 3.7-5.05 0.65-8.9-2.35t-4.85-8.45q-0.9-5.1 1.25-8.15 2.5-3.6 15.05-14.55" fill="#eeeeef"/>
  <path d="m179.8 78.1q2.75-4.5 14.4-20.7 9.05-12.65 13.1-21.2-0.4 7.05-5.5 22.2-4.75 14.1-7.1 17.2-2.05 2.65-6.35 3.5-4.55 0.9-8.55-1" fill="#c8c9ca"/>
  <path d="m234.4 45.1 0.2-0.05q0.65 5.05-4.5 22-4.8 15.95-7.2 19.35-1.9 2.65-5.9 3.5-4.25 0.9-7.95-0.95 14.65-20.85 25.35-43.85" fill="#c8c9ca"/>
  <path d="m309.1 137.75q17.15 0.25 19.2 2.25-1.3 3.4-15.85 13.25-13.95 9.45-17.75 10.35-3.5 0.9-7.5-1.9-4.25-3-5.4-7.95t1.3-9.8q2.35-4.55 5.8-5.4l20.2-0.8" fill="#eeeeef"/>
  <path d="m327.45 139.5q0.55 0.2 0.85 0.5-1.3 3.4-15.85 13.25-13.95 9.45-17.75 10.35-3.5 0.9-7.5-1.9-4.25-3-5.4-7.95-0.25-1.15-0.35-2.65 22.95-4.95 46-11.6" fill="#c8c9ca"/>
  <path d="m369.4 290.35q0 28.85-1.1 64.95-0.85 27.3-1.9 47.55-0.15 2.85-14.35 7.1-12.55 3.8-31.95 7.6-18.6 3.6-34 5.4l-20.3 0.7q-8.55-2.6-21.95-16.1-13.65-13.75-14.55-21.25-0.25-2.2 1.65-11.15l4.4-20.25q6.7-32.15 6.7-54.35 0-19.1 2.1-35.65l2.1-12.75q0.7-5.05 6-12.65 5.9-8.45 14.45-15.25 22.7-18.05 48.75-13.3 28.55 5.25 41.8 26.2 12.15 19.25 12.15 53.2" fill="#ba0031"/>
  <path d="m324.3 213.05q23.75 7.05 34.85 27.35 10.25 18.75 10.25 49.95 0 28.85-1.1 64.95-0.85 27.3-1.9 47.55-0.2 3.7-23.2 9.6-20.6 5.25-45.25 8.9-1.35-8.65-10.05-37.65-7.05-23.45-5.15-25.05 14.55-12.35 26.9-34.55 11.5-20.65 18.1-44.1 6.6-23.3 6-41.15-0.65-19.05-9.45-25.8" fill="#990024"/>
  <path d="m356.9 274.45q0 20.2-14.35 34.5-14.4 14.3-34.7 14.3t-34.7-14.3q-14.35-14.3-14.35-34.5t14.35-34.5q14.4-14.3 34.7-14.3t34.7 14.3q14.35 14.3 14.35 34.5" fill="#0d131a"/>
  <path d="m350.75 272.3q0 17.95-12.55 30.6-12.6 12.7-30.35 12.7-17.8 0-30.4-12.7-12.55-12.65-12.55-30.6t12.55-30.6q12.6-12.65 30.4-12.65t30.35 12.65q12.55 12.7 12.55 30.6" fill="#ba0031"/>
  <path d="m308.75 247.2q4.65 3.25 5.05 9.2 0.4 5.9-3.7 10.95-4.1 5.1-10.25 6.4-6.2 1.3-10.85-1.95t-5.05-9.15 3.7-11 10.25-6.4q6.2-1.3 10.85 1.95" fill="#db8f86"/>
  <path d="m344.2 249.3q6.55 10.5 6.55 23 0 17.95-12.55 30.6-12.6 12.7-30.35 12.7-9.85 0-18.7-4.3 14.25-0.55 25.55-8.4 10.6-7.3 16.25-19.25 5.65-11.9 4.85-24.9-0.85-13.7-8.7-25.1 10.7 5.4 17.1 15.65" fill="#990024"/>
  <g fill="#0d131a">
   <path d="m272.15 391.8-8.85-20.25q-8.9-20.3-9.3-20.75-0.7-0.7 26.15-40.8l6.1 5.8q-20.25 33.3-20.75 34.95-0.25 0.85 7.4 18.7 8.4 19.65 9.6 23.5l-10.35-1.15"/>
   <path d="m328.2 375.15 5.95 17.1-11.45 3.4-5.2-17.85q-5.2-18.1-5.4-19.55-0.2-1.35 0.2-18.4l0.45-18.95 9.85-4.1-0.3 39.45q-0.05 1.45 5.9 18.9"/>
   <path d="m368.85 329.4 0.1 5.3q-0.05 7-0.85 15.5-0.8 4-1.05 19.75l-0.1 14.9-4.2 2.5q-4.5 2.45-5.8 2.2-0.55-4.35 1.55-28.4 1.8-21.1 2.4-24.95 0.2-1.35-12.45-12.75l-13.6-12.05 6.8-4.75 27.2 22.75"/>
  </g>
  <path d="m362.6 381.2q1.95 0.4 8.6 6.95 7.35 7.25 10.5 13 3.95 11.2 7.1 25 4.25 18.45 3.65 28.65-6.75-2.85-22-14.8-15.05-11.8-15.9-12.1l-6.4-30.55q1.95-3.45 4.7-7.2 5.55-7.5 9.75-8.95" fill="#eeeeef"/>
  <path d="m366.9 388.4q-4.5-7.15-4.3-7.2 1.95 0.4 8.6 6.95 7.35 7.25 10.5 13 3.95 11.2 7.1 25 4.25 18.45 3.65 28.65-0.75-0.3-6.85-20.3-7-22.85-9.8-29.45-3.15-7.45-8.9-16.65" fill="#c8c9ca"/>
  <path d="m340.95 391.5q10.45 7.8 13.5 13.6 2.8 8.85 1.75 33.7-1.05 24.95-4.55 30.55-7.45-3.5-27.8-26.7-21.05-23.95-19.85-29.6 0.85-4.1 9.9-15.6 8.85-11.25 12.75-13.65 4.2 0.15 14.3 7.7" fill="#eeeeef"/>
  <path d="m329.1 385.2q8.1 5.05 14.35 9.65 9.15 6.75 11 10.25 2.75 8.65 2.9 27.25 0.2 22.5-4.95 37-3.75-29.7-7.25-45.3-6.45-28.85-16.05-38.85" fill="#c8c9ca"/>
  <path d="m277.85 384q6.4 0 15.65 10.5 9.15 10.45 11.25 20 0.45 10.9-4.2 30.55-5.15 21.8-11.25 27.6-4.85-3.15-19.15-25.95-14.2-22.6-15.8-29.4-1.4-5.85 9.45-19.25 9.6-11.85 14.05-14.05" fill="#eeeeef"/>
  <path d="m304.75 414.5q0.4 9.65-3.5 27.5-4.3 19.6-9.75 27.85 1.55-44.2-8.8-84.4 6.6 3.4 13.4 12.25 6.9 9.05 8.65 16.8" fill="#c8c9ca"/>
  <path d="m160.95 95.5q0 16.75-4.4 30.25-8.9 27.15-33.15 36.25-19.7 7.35-29.3 2.15-4.55-2.5-6.15-7.65-0.45-1.25 22.55-33.15 23.4-32.55 27.95-35.1 4.25-2.35 13.8 2.2 4.8 2.3 8.7 5.05" fill="#968471"/>
  <path d="m133.75 92.9q3.3-3.85 4.7-4.65 4.25-2.35 13.8 2.2 4.8 2.3 8.7 5.05 0 13.2-2.7 24.25-5.5 22.35-20.6 34.25 4.7-6.15 7.4-12.45 6.1-15.9 5.25-24.7-1.3-13.45-16.55-23.95" fill="#6c5d4e"/>
  <path d="m143.4 90.35q-0.15 7.3-3 17.95-7.3 27.6-21.55 42.1-6.4 6.4-10.6 9.1-5.6 3.55-11.4 3.5-3.35-0.05-7.6-2.95l-3.55-2.9 55.3-73.4q2.6-0.75 2.4 6.6" fill="#fff"/>
  <path d="m141 83.75q2.9-0.8 2.95 5.35 0.05 6.55-3.2 17.8l-3.4 0.3q-2.9 0.05-3.4 0.45-13.65 20.05-20.35 27.95-14.55 16.95-24.85 17.55l52.25-69.4" fill="#dbdcdc"/>
  <path d="m133.95 40.15q-0.85 7.65-2.75 60.45-5.3 7.65-11.8 16.2-13.05 17.05-19.15 21.55-16.7-13-4.55-61.9 6.1-24.5 15.55-46.35 4 1 10.4 3.6 8.4 3.4 12.3 6.45" fill="#0d131a"/>
  <path d="m114.3 92.1q0 6.05-3.85 10.1-3.8 4-9.25 4-5.4 0-9.2-4.35t-3.8-10.45 3.8-10.45q3.8-4.3 9.2-4.3 5.3 0 9.25 4.65 3.85 4.65 3.85 10.8" fill="#fccf00"/>
  <path d="m100.2 77.6q3.65 0 5.45 0.7 2.2 0.95 3.9 3.7-3.05 3.4-5.3 11-2.15 7.2-2.15 12.95-5.5-0.05-9.65-4.25-4.25-4.3-4.25-10.3 0-6.1 3.3-9.95 3.35-3.85 8.7-3.85" fill="#dab300"/>
  <path d="m104.4 92.55q0 1.25-0.8 2.1-0.75 0.9-1.85 0.9t-1.85-0.9q-0.8-0.85-0.8-2.1t0.8-2.1q0.75-0.9 1.85-0.9t1.85 0.9q0.8 0.85 0.8 2.1" fill="#fff"/>
  <path d="m177.05 70.7q2.95 4.05 8.5 27.85 5 21.35 5.7 28.55l-15.2 19.25q-0.7-4.4-8.55-24.15-7.55-19-9-21.1-1.1-1.55-8.55-4.95-6.95-3.15-8-3.15-18.85 22.85-22.95 27l4.35-24.35 4.15-23.6q-9.6-14.75-10.1-16.1-0.45-1.15 7.95-13.85 7.95-11.9 10.1-14.3 0.8-0.7 2.8-0.9 1.7-0.2 3.35-0.05 6.85 4.55 35.45 43.85" fill="#ba0031"/>
  <path d="m165.45 54.95 6.45 8.1 5.1 6.3-13.15-0.5-12-0.7q2.15-2.7 6.7-6.7 5.05-4.45 6.9-6.5" fill="#990024"/>
  <path d="m170.7 118.55 7.6 19.3-2.25 8.5q-0.7-4.4-8.55-24.15-7.55-19-9-21.1-0.9-1.25-7.55-4.35-5.15-2.35-9.6-4.05 0.4-1.1 2-2.4 1.55-1.25 2.45-1.25 0.85 0 8 4.1 7.05 4.05 8.2 5.1 0.95 0.85 8.7 20.3" fill="#990024"/>
  <path d="m140.8 26.75q-4.85 6.7-10.5 16.65-5.6 9.75-5.35 11l3.7 6.95q3.6 6.45 4.15 8.45 0.75 2.75-3.8 19.05-4.7 16.6-9.2 26.6l4.65-25.8 3.05-17.6q-9.6-14.75-10.1-16.1-0.45-1.15 7.95-13.85 7.95-11.9 10.1-14.3 1.3-1.15 5.35-1.05" fill="#db8f86"/>
  <path d="m173.4 44.6q-7.9 17.95-11 21.25-2.9 3.15-8.55 3.25-6.05 0.15-10.25-3.6t-4.8-9.85q-0.55-5.7 2.35-8.8 3.4-3.65 19.35-14.15 17.05-11.2 20.3-10.8 0.75 4-7.4 22.7" fill="#eeeeef"/>
  <path d="m164.4 46.3 16.2-21.7q-1.35 7-8.6 23.05-6.95 15.4-9.6 18.2-1.95 2.1-5.55 2.9l-7.4-0.2q6.3-10.2 14.95-22.25" fill="#c8c9ca"/>
  <path d="m82.85 23.45q0.2-6.7 0-9.8 0.75-1.55 2.6-2.4 1.9-0.95 3.5-0.45 4.3 3.65 15 8.3 10 4.35 14.7 5.05 4.95 0.65 4.95 3.25-11.35 13.3-20.25 54.1-4.45 20.4-6.65 38.15l6.05-3.35q6.25-3.4 7.1-3.4l0.15 9.9q0.1 9.3-0.45 11.4-0.95 0.95-14.95 21.55-14.4 20.55-18.05 22.2-11.15-30.45-32.65-48.95l-9.8-38.55-9.1-35.3q0.3-2.05 1.6-3.45 1.45-1.5 3.15-1.1l5.9 1.65 6.55 0.9-4.6-19.9q-0.05-1.85 2.05-3.45 2.05-1.55 3.85-1.15 3.05 1.7 15.4 5.6l-0.35-15.55q0.45-1.35 2.2-2.55 1.7-1.2 3.2-1.15 3.25 1.7 18.9 8.45" fill="#ba0031"/>
  <g fill="#db8f86">
   <path d="m34.1 90.45-9.1-35.3q0.3-1.9 1.45-3.25 1.3-1.5 2.9-1.35 5.6 14.9 12.4 45.15l6.35 28.4q0.6 1.15 13.75 19.75 13.4 20.7 15.75 33.45l-1.05 0.65q-11.15-30.45-32.65-48.95l-9.8-38.55"/>
   <path d="m37.6 33.25q-0.05-1.85 2.05-3.45 2.05-1.55 3.85-1.15 6.25 33.95 10.2 66.6 2.9 24.1 3.45 25.15l9 17.05q7.45 15.75 6.75 22.6-1.15-4.8-11.25-22.45l-9.85-16.75-9.5-60.3q-3.3-21.8-4.7-27.3"/>
   <path d="m59 17.9q1.05-1.3 2.75-2.3 1.8-1 3.05-0.95 1.7 14.9 1.4 59.1-0.25 40.75 0.2 41.75 3.35 7.1 6.05 16.2 4.55 15.1 4.4 27.4-2.95-13.7-8.9-28.45l-6.65-14.9q-1.2-2.75-2.25-49.7-1.1-46.9-0.05-48.15"/>
   <path d="m82.85 13.65q0.75-1.55 2.6-2.4 1.9-0.95 3.5-0.45 1.25 19.3-3.35 56.9-3 24.25-5.75 38.8-0.35 1.9 0.3 8.85l1.5 14.55q1.9 21.05-0.85 29.65-1.85-25.05-4.4-38.75-2.2-9-2.35-10.4-0.1-1.35 4.4-48.25t4.4-48.5"/>
  </g>
  <path d="m280 77.9q5.05 5.65 8.15 13.45 3.25 8.25 2.95 15.65l-2.15 12.75q-0.5 3.8-3.75 9.05-2.9 4.6-6.1 7.7-11.65 11.15-27.7 9.25-15.65-1.9-27.35-15.05-11.6-13.05-11.85-29-0.25-16.2 11.5-27.5 11.85-11.35 28.35-10.3 16.5 1.1 27.95 14" fill="#ba0031"/>
  <path d="m251.95 97.7q-2 1.5-4.6 2.25-2.8 0.85-5.25 0.55l-4.1-1.1q-1.25-0.3-2.9-1.5-1.4-1.05-2.3-2.2-3.35-4.15-2.25-9.4 1.1-5.05 5.75-8.5 4.65-3.4 9.9-3.05 5.3 0.4 8.65 4.6 3.4 4.25 2.55 9.6-0.85 5.4-5.45 8.75" fill="#db8f86"/>
  <path d="m281.2 79.3q4.6 5.7 7.3 13.05 2.85 7.7 2.6 14.65l-2.15 12.75q-0.5 3.8-3.75 9.05-2.9 4.6-6.1 7.7-11.65 11.15-27.7 9.25-15.65-1.9-27.35-15.05-4.3-4.9-7.2-10.55 29.7 3.5 45.15-5.9 16.05-9.8 19.2-34.95" fill="#990024"/>
  <path d="m249.6 86.15q0.1-5.5 4-4.65 16.4 4.75 28.15 14.3 8.5 6.9 10.65 12.1-1.1 1.1-1.4 1.75-0.3 0.7-0.75 4.35-0.5 4.3 0 5.85l-1.8-4.25q-2.05-4.75-12.9-13.9-11.35-9.6-18.05-11.4 0.7 5.25-1.4 20.15l-2.25 13.85q-1.25-0.15-3-0.7-3.5-1.05-6-3.1 1.65-4.8 3.35-18.65 1.4-11.85 1.4-15.7" fill="#0d131a"/>
  <path d="m205.6 128.6 5.7 0.25 65.25 39.75q1.25 2.55 2.15 3.4l4.4 3.15q4.2 6.5 5.1 10.65 0.8 3.55-0.35 7.95-0.95 3.5-6.15 33.1l-5.9 33.95q-0.75 4.35-5.9 10.75-3.95 4.9-8.3 8.55-3.2 2.65-61.65-15.25-58.3-17.9-59.7-21.55-2.1-5.4-4.45-14.6-2.95-11.75-2.5-16.75 0.55-5.35 6.45-21.15 5.7-15.1 7.8-17.85 1.45-1.85 7.85-6.35l10.35-7.5q3.6-2.9 9.25-13.8l6.8-13.5q1.6-2.75 8.4-4.35l9.45-1.85q3.15 2.7 5.95 3" fill="#ba0031"/>
  <path d="m272.45 166.1 4.1 2.5q1.25 2.55 2.15 3.4l4.4 3.15q4.2 6.5 5.1 10.65 0.8 3.55-0.35 7.95-0.95 3.5-6.15 33.1l-5.9 33.95q-0.75 4.35-5.9 10.75-3.95 4.9-8.3 8.55-3.2 2.65-61.65-15.25-58.3-17.9-59.7-21.55-0.75-2-0.5-7.6 0.35-6.25 1.85-12.25 4.2-16.5 13.85-17.6 18.55 8.05 38.75 10.55 20.85 2.55 37.95-1.6 18.5-4.45 28.85-16 11.45-12.75 11.45-32.7" fill="#990024"/>
  <path d="m197 133.75q1.15-5.4 2.65-8.15l83.45 50.65q-6.6 13.65-18.85 17.5-3.85 1.2-7.8 1.25l-3.15-0.15 6.2 8.05q6.35 8.4 7.4 10.3t-2.2 26.95l-3.45 24.65-7.6-3 2.9-22.55q2.85-22.7 2.55-23.35-0.65-1.35-6.45-8.4-6.75-8.3-11.25-12.3-1.35 11.15-8.3 37.95l-6.65 24.55-2.95-2.35q-3.25-2.4-4.85-2.4 4.3-11.85 9.2-36.85l4.05-22.6-11.95 4.55q-12 4.6-12.2 4.95l-14.25 46.2-8.85-4.05 8.05-23.05q8.15-23.25 8.6-24.2 0.85-1.55 16.2-11.45-19.75-15.1-21.5-37.55-0.6-7.6 1-15.15" fill="#0d131a"/>
  <path d="m242.4 114.1q15.7 1.45 26.7 13 11.3 11.75 11.5 27.55 0.25 16.05-11.35 24.5-11.7 8.55-27.55 6-15.8-2.6-26.4-14.75-10.05-11.5-11.3-25.6-1.4-15.5 9.85-23.25 13.1-8.9 28.55-7.45" fill="#ba0031"/>
  <path d="m242.5 185.25q-15.25-2.2-26-13.5 7.3-0.05 16.3-2.5 10.5-2.8 18.6-7.75 21.4-13.05 17.5-34.6l0.2 0.2q11.3 11.75 11.5 27.55 0.25 16.05-11.35 24.5-11.35 8.3-26.75 6.1" fill="#990024"/>
  <path d="m265.6 281.2q-6.8 10.1-15.25 20.1-16.65 19.6-31.85 26.95l1.55-11.35q0.95-8 1.45-9.85l16.05-46.65 11.8-5.3q9.9-4.15 11.5-2.35 2 2.35 4.15 14.4 2.2 12.2 0.6 14.05" fill="#eeeeef"/>
  <path d="m260.85 252.75q2 2.35 4.15 14.4 2.2 12.2 0.6 14.05-6.8 10.1-15.25 20.1-16.65 19.6-31.85 26.95 6.65-7.65 14.8-20.75 16.4-26.2 24.45-55.15 2.4-0.4 3.1 0.4" fill="#c8c9ca"/>
  <path d="m228.8 245.85q5.15 7.1 6.35 9.9 3.6 8.5 0.6 17.8-4.35 13.4-15.1 32.4-12.55 22.35-22.6 30.35-0.85-9.6-0.6-31.2 0.2-20.85 1.1-30.45l4.75-18.95q6.8-5.2 14.55-8.6 8.95-4 10.95-1.25" fill="#eeeeef"/>
  <path d="m226.15 244.8q1.9 0 2.65 1.05 5.15 7.1 6.35 9.9 3.6 8.5 0.6 17.8-3.95 12-13.45 29.4-11.05 20.3-20.65 30.05 9.3-19.2 15.65-43.35 4.95-19.1 8.85-44.85" fill="#c8c9ca"/>
  <path d="m200.5 246.9q3.7 11.5 2.05 19.35-1.85 8.85-16.25 28.4-14.25 19.35-24.4 27.2-1.8-10.1 0.6-38 2.1-24.7 4-31.8 0.95-3.65 11.35-10.2 10.8-6.75 17.05-6.95 2.55 2.55 5.6 12" fill="#eeeeef"/>
  <path d="m194.9 234.9q2.55 2.55 5.6 12 3.7 11.5 2.05 19.35-1.85 8.75-16.2 28.3-14.15 19.25-24.3 27.2 10-17.3 18.65-42.65l13.9-44.15 0.3-0.05" fill="#c8c9ca"/>
  <path d="m150.1 204.3q1.45-0.65 3 0.9 1.75 1.7 4.25 6.75 2.9 5.7 6.95 18.55 5.1 16.3 2.55 19l-18.05 16.15q-15.65 14.15-20.55 21.3-1.7-8.3-0.5-28.3 1.25-21.4 4.85-31.4 2.5-6.95 8.9-14.75 5.65-6.95 8.6-8.2" fill="#eeeeef"/>
  <path d="m148.8 265.65q-15.65 14.15-20.55 21.3-0.15-0.8 1.45-8.85 2-10.2 4.95-20.25 9.2-31.15 22.9-45.55 3.35 7.3 6.95 18.9 4.85 15.65 2.35 18.3l-18.05 16.15" fill="#c8c9ca"/>
  <path d="m238.9 122.55q6.2 0 10.6 3.45 4.4 3.4 4.4 8.25 0 4.9-4.4 8.3-4.35 3.45-10.6 3.45-6.2 0-10.6-3.45-4.4-3.4-4.4-8.3 0-4.85 4.4-8.25 4.4-3.45 10.6-3.45" fill="#db8f86"/>
  <g fill="#0d131a">
   <path d="m59.1 293.95q-0.75-2.7 0.15-5.95 0.95-3.45 0.65-5v-0.5q1.2 2.25 2.4 3.2l-0.75 4q-0.5 2.75 0.3 4.4 1.65 3.55 4.4 12.6 2.55 8.5 2.9 10.85 0.2 1.55-0.15 2.1l-2.25 1.95q-3.6 2.7-7.75 6.65-4.8 4.55-6.8 7.65-2.45 0.15-4.15 1.45 0.6-3.3 3.75-7 2.15-2.5 6.6-6.35l4.75-3.7 3.6-2.85q0-1.05-3.3-10.6l-4.35-12.9"/>
   <path d="m117.95 378.2-2.35-0.25 1.45-2.15h0.4q5.95-1.35 29.2-11.35 24.2-10.45 25.45-12.9 0.95-2.5-3-11.55-3.75-8.55-5.3-9.7l0.15 0.1 3.1-0.2q2.25 2.25 4.1 6.1l3.8 8.15q2.35 5.8 1.5 8.1-1.45 3.85-27.25 14.6-24.55 10.2-31.25 11.05"/>
   <path d="m49.3 335.75q4.45-0.3 8.35 2.05 3.95 2.35 6.65 6.9l-2.1 1.25q-1.45-2.4-6.1-5.3-4.8-3-6.25-2.05-5.45 3.65-15.95 17.1-10.15 13-8.9 13.2 1.35 0.15 25.1-6.4l-1.55 3.45q-19.1 5.55-24.7 5.8-2.9 0.15-3.5-0.5-0.6-0.75 0.6-2.95 5.65-10.25 13.45-19.3 7.65-8.95 14.15-12.9l0.75-0.35"/>
   <path d="m66.6 342 1.45-0.4q6.75-1.15 13.35 3.7 5.05 3.7 8.45 9.4l-2.1 1.25q-2.65-4.5-9.3-8.65-7.2-4.55-10.55-2.55-5.45 3.3-19.35 24.15-13.55 20.4-12.1 20.5 1.45 0.05 17.05-5.5 16.7-5.95 21.1-8.8l-2.05 4.05q-5 2.8-19.5 7.9-13.85 4.9-17.3 5.35-3.1 0.4-3.55 0.05-0.4-0.35 0.3-2.6 2.8-8.4 14.5-25.6 12.7-18.6 19.6-22.25"/>
   <path d="m75.15 377.5q-3.6 6.4-6 11.65-2.25 5.1-1.6 5.15 1.55 0.1 23.35-8.5 21.85-8.6 25.3-10.65-0.3-3.35-2.55-7.4-2.5-4.45-6.25-7.5-3.05-2.5-7.8-3.85-5.6-1.6-8.7 0.25-6.05 3.65-15.75 20.85m-11.7 18.35q1.25-7.1 8.15-19.3 8.35-14.8 18.1-22.75l0.25-0.15 1.35-0.35 3.9-0.25q6.75 0.4 14.4 5.25 4.65 2.95 7.15 8.75 1.95 4.55 1.95 8.9l-0.8 1.9-16.55 7.2q-19.3 8-34.25 12.75-3.15 1-3.7 0.45-0.3-0.3 0.05-2.4"/>
   <path d="m110.45 221.05-1.55 1.9-1.75 1.8q-1.6-2.05-3.2-3.3-1.85-1.35-4.3-2.15-4.95-1.6-10.2-1.2-5.55 0.45-10.7 3.05-0.15 0.1-0.25-1.25v-2.35q5.55-2.35 11.8-3 6.5-0.7 11.15 0.8 6 2 9 5.7"/>
   <path d="m91.8 287q8.7-4.05 14.05-13.15l1.5 2.05q-6.15 9.65-16.05 14.1-9.55 4.3-18.35 2.05-9.75-2.45-15.1-12.1-4.1-7.4-5.15-16.7-1.15-9.95 1.7-18.8 3.45-10.7 12.15-18.9l0.85 1.9 0.9 1.85q-7.2 7.3-10.15 16.3-2.7 8.4-1.75 17.15 0.85 8.15 4.65 15.05 2.35 4.2 6.15 7.1 3.65 2.75 8.05 3.85 8.25 2.1 16.55-1.75"/>
   <path d="m89.6 189.05 3.85 0.1-10.35 23.4-11.15 24.85q-1.15 2-1.75 1.9l-1.15-1.4q-2.35-4-5-14.25-2.45-9.25-2.65-13.1l2.4-2.5q0.15 2.75 3.35 14.9 3.2 12.2 3.65 11.45l9.4-22.65 9.4-22.7"/>
   <path d="m28.95 138.65-0.35 5.9-1.8 1.15-1.85 1q-0.1-1.65 0.1-3.65l0.45-3.55q0.35-3.6 7.05-13.65l7.65-10.75 1.15 3.65-7.35 10.1q-4.75 7.05-5.05 9.8"/>
   <path d="m67.3 196.45q-0.2-0.95 0.05-2.35 24.5-4.75 29.4-9.15 9.15-12.4 10.8-19.05l2.45-0.4q-0.8 4.4-3.9 10.75-3 6.15-6.6 10.95l-1.2 1.25q-3.1 2.85-13.3 4.9l-17.7 3.1"/>
   <path d="m42.1 123.45 1.25 2.3-2.9 3.1q-2.95 3.55-3.35 5.95l-1.15 5.65-2.25 0.85 1.5-6.8q0.45-2.75 3.65-7.1l3.25-3.95"/>
   <path d="m68.55 192.25q0.8 0.45 0.65 1.35-2.2 8.3-10.2 28.2-6.65 16.4-8.65 20.4-0.95 1.95-1.75 2-0.7 0.05-1.6-1.65-6.25-11.85-6.2-24.8 0.65-2.35 2.1-3.95 0.15 7.1 2.85 16.2 2.5 8.55 3.3 7.5 1-1.2 7.9-17.6 7.5-17.85 9.7-25.9-4.1-1.9-8.85-2.9l-7.15-0.85v-2.3q10.05 0 17.9 4.3"/>
   <path d="m24.55 181.8 2.4-1.25-0.1 2.65q-1.25 10.9 2.75 30.15 1.45 7 3 12.25 1.5 4.95 1.85 4.4 0.6-0.9 7.55-20.65l7.85-22.85q-6.1-9.7-12.7-11.8l2.1-2.1q3.3 1.25 6.4 3.75 4 3.25 6.25 7.6 0.7 1.35 0.65 2.15l-0.65 2-7.5 21.65q-7.2 21-8.45 23.65l-1.55 2.85q-0.85 0.4-2.35-3.05-5.45-12.4-7.6-27.4-2.15-14.9 0.1-24"/>
   <path d="m45.9 143.6q-0.65-4.4-1.2-5.4-0.6-1-8.85 3.2-8.85 4.55-14.8 9.7-3.3 2.8-11.05 22.2-7.6 19.15-6.35 19.15 1.1 0 19.4-11.25 18.6-11.45 21.05-13.9 2.5-3.25 2.5-14.4 0-4.4-0.7-9.3m-1.7-7.95q1.35-0.3 2 0.35 0.6 0.6 1.35 2.75 1.4 4.5 2 13.2 0.8 11.8-2.35 16.35-3.15 3.15-20.25 13.85-17.35 10.8-23.55 13.3-2.7 1.05-3.15 0.65-0.4-0.4 0-3.3 0.7-4.75 6.65-21.35 6.85-19.1 10.65-22.3 5.5-4.6 9.2-6.8 7.7-4.6 17.45-6.7"/>
   <path d="m128.85 169.2 2.4-0.5 1.5 7.55q0.65 7.3-2.2 13.7-3 6.65-13.8 23.7-9.5 14.95-12.2 18.4-2.4 3.15-0.8 17.8 1.65 14.85 5.75 25.3 4 10.25 12 25.6 8.35 16.1 12.2 20.3 6.55 7.1 25.75 7.35 16.2 0.25 36.8 4.8 27.85 6.2 39.7 16.8l-0.1 5q-13.25-11.1-39.85-18-21.35-5.55-37.1-5.65-10.9-0.1-17.15-1.5-7.2-1.65-10.75-5.55-4.05-4.5-13.65-21.95-9.5-17.35-13.35-27.2-3.8-9.75-5.5-24-1.75-14.95 0.85-19.55 1.4-2.45 14.1-20.55 11.45-16.3 13.75-21.75 2.35-5.5 2.35-12.6 0-4.2-0.7-7.5"/>
   <path d="m121.4 285.9q-1.95-0.45-7.05-3.65-5.3-3.35-7.8-5.8l0.05-3.65q2.5 2.5 8.1 6.45 5.8 4 7.8 4.45l6.15 0.6q17.35 0.2 33 1.9l-0.3 3-30.3-2.3-5.75-0.15-3.9-0.85"/>
   <path d="m188.9 290.45 9.15 2.1v2.7l-5.5-1.05-5.75-0.9q0.8-1.35 2.1-2.85"/>
   <path d="m174.8 139.7 0.4 2.15q-5.55 1.05-12.95 6.75-5.7 4.35-10.3 9.55-3.8 4.25-8.4 7.8-5.15 3.95-8.4 4.65-5.4 1.1-10.6-1.3-4.25-2-6.9-5.5l2.75-1.65q3.45 2.95 6.2 4.25 3.6 1.65 7.05 1.1 3.2-0.5 8.35-3.85 5.1-3.35 8.3-6.95 3.95-4.4 8.65-8.3 8.95-7.4 15.85-8.7"/>
   <path d="m336 195 1.8-0.7q1.35 5.75 1.45 8.05 3.95 1.85 12.55 8.1 8.75 6.3 13 10.4 1.3 1.3 1.75 2.65l0.5 3.2q0.25 1.65 0.2 7.05l-0.15 11.5q0 7.8-0.55 13.8-0.6-5.4-1.45-8.4l0.1-5.35q0-15.3-1.15-20.3-0.5-2.05-11.5-10.35-9.75-7.35-12.55-8.8l-2.15-1.3q-0.45-0.5-0.5-1.55-0.1-2.75-1.35-8"/>
   <path d="m340.55 148.35q-0.85-1.2-3.1-1.75l-2.7-0.55-3.65 15.6q3.45 7.45 7.8 23.35l4.2 15.4q0.6 1.2 7.4 5.9 6.7 4.6 6.9 4.3 2.95-5.65 2.6-7.7-16.1-50.1-19.45-54.55m-9.2-5.05 4.35 0.4 4.1 0.75q1.15 0.55 1.4 0.95l1.95 3.3q3.85 6.95 11.65 29.85l7.6 23.05q0.6 1.45 0.1 3l-1.4 3.3q-1.1 2.6-3.95 6.75l-16.75-12.2-12-40.8 2.95-18.35"/>
   <path d="m297.75 161.95 4.15 20.15q-1.05 0.25-1.85 0.7l-4.05-19.9q0.7-0.5 1.75-0.95"/>
   <path d="m333.7 135.2-2.15 11.15-2.65 10.85q-0.8 2.75-6.8 10.95l-11.45 15.2-2-0.55q6.05-8.05 11.65-16.55 6.1-9.2 6.65-11.45l2.7-11.85q2.1-9.8 1.9-11.55t-7.2-15.25l-7.65-14.25q-0.65-0.85-1.7-1.35-0.9-0.4-1.6-0.35l-0.2 6.6q-0.25 6.65-0.8 9.15-0.3 1.5-10.75 21.8l-2.15-0.05 7.2-14.75 3.35-7.7q0.75-3.55 0.45-11.3l-0.45-7h2.6q2.85 0.25 4.3 1.6 1.5 1.45 8.2 13.5 6.1 11.1 7.45 14.1 1.1 2.5 1.3 3.9 0.3 1.95-0.2 5.15"/>
   <path d="m286.05 60.1-1.7-0.7-1.55-0.3q-0.2 0.65 0.8 5.8l9.3 12.35q8.85 12 12.7 18.25l0.35-4.7q0-3.85-1.8-7.1-1.65-2.85-9.75-13.2l-8.35-10.4m-5.95-2.6 0.45-0.25 1.05-0.35 2.75 0.15q2.2 0.3 2.9 1 1.95 1.9 8.5 9.9 8.15 10 10.55 14.85 1.65 3.3 1.7 8.65 0.1 4.6-0.85 7.1-0.1 1.2-0.95 0.9l-0.85-0.6q-3-5.45-13.55-19.05l-10-12.65-0.8-1.45-0.9-8.2"/>
   <path d="m260.25 35.5-4.15 0.5q-3.6 0.85-4 1.55l-3.55 5.95-3.55 5.85q-0.65 0.85-1.85 0.6l-3.1-1.2-15.2-6.05q-15.85-6.6-22.5-10.6l0.6 0.1q0.5-0.4 0.05-2.65 39.25 15.5 40.1 15.95 0.55 0.3 4.4-4.85l4.5-5.9q0.8-0.75 3.75-1.45l4.15-0.4q1 0.3 8.6 6.95l8.65 7.8q0.8 0.8 1.45 7.55 0.6 6.75 0.35 11.4 3.95 3.55 17.4 22.6l12.65 18.3q0 2.55-5.55 13.15l-9.05 16.75-1.25 0.1q-0.55 0.1-1 0.35l8.35-16.3q4.65-9.55 4.8-12-3.3-7.65-13.85-22.85-10.4-14.95-14.95-18.8l-0.7-1.55 0.5-11.25q0-5.05-0.8-5.85l-7.85-7.2-7.4-6.55"/>
   <path d="m244.8 38.95q2.65-4.95 2.55-6-0.05-1.15-1.85-4.5-1.9-3.5-3.25-4.45-3.7-2.35-22.55-10.4-20.3-8.65-27.15-10.15-3.55 0.05-5.45 0.85l-3.9 2.2q4.95 3.5 21.3 21.05 6.5 2.4 37.1 16.1 0.5 0.25 3.2-4.7m-0.2-16.7q2.15 1.5 4.3 5.35 2.1 3.7 2.1 5.75-7.25 13.45-8.4 14.05-1.15 0.55-41.9-17.6l-12.9-12.65-10.35-9.8 6.15-4.4q4-2.5 7.7-2.5l1.05 0.15q6.85 1.5 28 10.45 20.1 8.5 24.25 11.2"/>
   <path d="m204.7 68.35-1.55-14.1q0.5-1.3 0.8-3.4l0.4-3.55 2.15 19.9q-1.05 0.5-1.8 1.15"/>
   <path d="m170.4 0 0.8 0.15q3.85 1.1 16.65 13.85 12.25 12.15 13.7 15.3 0.6 1.3 1.5 7.85l-1.8 0.75q-0.95-6.7-1.45-7.8-1.15-2.55-13.7-14.3-12.95-12.15-16.55-13.3-4.25-0.15-21.35 2.4-16.65 2.45-17.6 3.1l-1.4 1.25-1.55 1.8q1.6-0.5 2.8-0.5l2.45 0.25q1.8 0.25 14.95 6.2 13.6 6.1 14.95 7.6 1.25 1.4 1.8 2.75l0.7 2.05-2.05 1.35q-0.6-1.25-18-9.35-17.9-8.25-20.4-7.5l-2.15-0.55 2.55-3.85q2.25-3.3 3.65-3.95 1.85-0.9 19.45-3.3 17.9-2.45 22.05-2.25"/>
   <path d="m197.8 71.05 0.55-1.85 5.3 0.65q-0.55 1.7-0.5 2.1l-5.35-0.9"/>
   <path d="m172.75 46.15q0.65-1.55 0.8-3.2l2.7 6.1 2.6 5.9-1 0.8-0.9 1.1-4.2-10.7"/>
   <path d="m161.35 32.75-0.65 0.35-0.6 0.35-1.75-4.2q-0.7-1.6-1.2-1.9-2.8-1.75-20.2-8.25-16.9-6.35-18.4-6.5-1.2-0.05-6.6 2.25-5.1 2.2-8.4 4.1l-2.3-1.2q10-5.75 12.85-6.75 3.75-1.3 5.95-0.35l17.9 7q17.5 7 20.15 8.6 0.65 0.4 1.4 2.2l1.85 4.3"/>
   <path d="m168.1 55.1 1.35-2 3.15 9.1-2.4-1.1-2.1-6"/>
   <path d="m207 32.75q1.45-0.7 1.75-0.5 0.3 0.25 0.1 2.15-0.8 8.9-5.9 24.55-4.7 14.55-7.2 17.8-1.7 2.2-5.8 3.4-4 1.2-7.7 0.65l-0.75-3 7.3 0.2q3.55-0.9 5.15-3 2.05-2.7 7.65-20.65 5.55-17.9 4.75-18.75-0.6-0.65-13.85 9.7-13.8 10.75-17.85 15.7-0.5 0.6-0.85 1.65l-1.3-1.85 0.45-1.35q3.9-5.1 13.55-13.05 11.3-9.3 20.5-13.65"/>
   <path d="m234.2 43.75q1.2-0.65 1.7-0.35 0.55 0.3 0.3 1.85l-1.25 8.35q-1.5 8-3.85 14.65l-1.55 1.1-1.5 1.15q2.1-6.55 4.1-15.2 1.95-8.45 1.55-9.05-0.35-0.65-13.8 10.9-13.55 11.6-15.65 14.55-1.3 1.9-1.3 4.9 0 2.7 1.55 5.45 1.45 2.65 3.9 4.55l2.75 1.85q1.5 0.75 3.2 0.75v1.95q-4.45 0-7.8-2.65-4.15-3.25-5.3-9.3-1.1-5.85 1.3-9.2 2.45-3.4 12.6-12.25 11.75-10.25 19.05-14"/>
   <path d="m309.85 139q-17.15-0.4-20.75 0.45-3.15 0.8-5.25 5.05-2.2 4.5-1.1 9.05 0.55 2.35 2 4.4t3.6 3.35q3.3 2.05 6.15 1.4 2.85-0.7 17.7-11.05 14.65-10.2 14.75-11.25 0.05-1-17.1-1.4m18.85-0.45q1.65 0.25 1.6 0.95-0.05 0.85-2.3 3.1-4.55 4.55-17.2 12.9-12.5 8.25-15.85 9.05-3.6 0.9-7.6-1.65-2.45-1.5-4.15-3.85-1.7-2.3-2.35-5.05-1.25-5.35 1.4-10.5 2.55-4.95 6.4-5.9l16.7-0.55q14.4 0.2 23.35 1.5"/>
   <path d="m235.3 341q3.15-16 4-29.35 2.5-1.5 3.9-3.65-0.6 14.65-3.75 32.7-1.75 10.15-5.6 27.5l-2.45 11.4q-0.95 5-0.75 6.55 0.55 4.85 8 13.7 6.85 8.15 15.4 15-0.3 0.7-0.15 2.45l0.25 2.45q-9.9-7.15-18.1-15.95-9.3-9.95-9.95-15.5-0.4-3.65 3.85-22.75l5.35-24.55"/>
   <path d="m358.4 232.9q13.95 20.1 13.4 56.65-0.75 47.3-2.75 96l-1.5-1.1q-1-0.75-1.6-1 2.1-53.15 2.1-93.1 0-35-12.9-54.05t-39.9-24q-16.6-3-32.4 3.8l1.55-4q8.15-3.65 15.55-4.6 7.8-1 16.75 0.65 28.15 5.15 41.7 24.75"/>
   <path d="m338.9 241.05q12.85 12.95 12.85 31.25t-12.85 31.3q-12.9 12.95-31.05 12.95-15.4 0-27.45-9.7-11.8-9.6-15.3-24.4 0.85-1.1 1.45-2.75 2.65 14.6 14.4 24 11.75 9.35 27.25 9.35 17.5 0 29.5-11.6 12.1-11.75 12.1-29.15 0-17.45-11.9-29.3-11.9-11.8-29.3-11.8-8.7 0-16.7 3.25-7.75 3.15-13.75 8.9l0.1-3.7q5.95-5.5 13.45-8.5 7.75-3.1 16.15-3.1 18.15 0 31.05 13"/>
   <path d="m362.65 383q-0.95-0.3-6.45 5.95-5.25 6.05-6.9 9l-2.25-1.25q1.5-3 5-7.65 5.65-7.5 10.1-9.05l0.7-0.05q1.8 0.35 9.25 7.9 6.55 6.6 8.5 9.2 2.75 3.6 3.85 6.35 1.9 4.75 6.25 22.75 5.05 21.15 4.75 28.65-0.15 3-0.9 3.25-0.55 0.15-3.5-1.15-5.05-2.25-19.4-13.75l-14.75-12.15q-0.35-2.35-0.15-3.25l15.75 12q13.85 10.3 17.5 12.4l1.25 0.65q0.6 0.05 0.6-1.45 0-3.3-4.55-24.45-4.8-22.2-6.8-25.2-3.15-4.8-9.35-11.3-6.25-6.6-8.5-7.4"/>
   <path d="m340.5 392.8q-9.35-7.05-13.55-7.65-3.65 2.55-11.5 12.45-7.95 10-9.85 14.65l-1.9-2q3.1-6.25 10.5-16.3 7.75-10.5 11.1-12.55l2.15-0.3 3.4 1.55q4.2 2 8.05 4.5 12.3 7.9 16.7 17.35l0.7 2.05q3.05 9.5 2.6 33.3-0.45 24.15-4.1 30.4-1.4 2.35-2.15 2.5-0.8 0.2-3.3-1.35-6.2-3.75-22.25-21.4-17.4-19.1-22.7-29.65l0.65-2.9 0.35-2.65q2.8 7.35 22.9 30.05 19.6 22.1 22.8 22.7 0.9 0.15 2.45-14 1.55-14.7 1.55-25.85 0-16.2-1.85-22.05-2.95-5.5-12.75-12.85"/>
   <path d="m291.1 395.3q-9.85-10.6-12.4-9.95-2.9 0.65-12.65 12.25-10.6 12.5-10.6 18.25l0.15 1.15q1.4 5.9 13.5 25.55 11.95 19.35 18.5 26.7 1.1 0.95 1.7 0.8l1.4-1.4q4.95-7.8 9.05-25.75 3.75-16.55 3.75-26.95l-0.05-1.25q-1.8-8.05-12.35-19.4m-19.65-8.1 4-3.75 3.1-1.9q6.2 0 16 11.25 9.75 11.2 11.8 20.55l0.35 2.8q0.5 11.1-3.65 30.05-4.85 22.05-11.5 27.75l-1.95 1.25q-0.85 0.15-2.25-1.15-12-11.1-23.4-31.1-9.2-16.2-11.55-25.2-1.85-7.1 10.4-21.4 3.85-4.5 8.65-9.15"/>
   <path d="m159.65 102.5 1.7 5.55q-2.05 17.95-9.15 31.1-9.8 18.2-28.2 25.1-9.5 3.6-17.2 3.95-7.3 0.3-12.5-2.25-1.85-0.95-4.45-3.8l1.5-1.6q1.45 1.7 3.75 2.9 4.55 2.2 11.65 1.6 7.1-0.65 16.25-4.1 19.4-7.25 28.85-26.7 6.7-13.7 7.8-31.75"/>
   <path d="m142.25 93.1 1.9 0.3q-1.25 14.2-6.5 28.4-6.8 18.45-18.25 30.05-5.85 5.95-10.35 8.6-5.85 3.55-12.2 3.5-3.25 0-6.5-1.8l0.9-0.75 0.6-0.85q2.8 1.45 5 1.5 5.45 0 10.6-3.15 4.25-2.65 10.7-9.2 10.05-10.25 17.1-28.7 5.75-15.15 7-27.9"/>
   <path d="m129.25 131.8q0.15-0.15-2.5-5.45l-4.5-8.9 1.2-1.45 4.75 9.6q3.55 7.3 3.2 7.9-0.3 0.55-8.6-1.15l-10.1-2.2 3.55 9.8q2.7 7.3 3.7 9.45l-0.95 1.1q-4.55-1.2-15.2-5.75 4.3 13.4 5.2 14.3l-1.15 0.75-13.55-3.75q0.85-0.5 1.3-1.55l6.55 2.25q4.35 1.5 4.25 1.05l-4.7-12.9 1.95-2.25 7.95 3.45q5.8 2.45 6.15 2.3 0.55-0.2-7.9-18.9l0.05-2q19.15 4.55 19.35 4.3"/>
   <path d="m141.7 102.15-7.95 0.65q0.8-1.05 1.55-1.75l6.3-0.5 0.1 1.6"/>
   <path d="m132.15 105.55 1-1.9 3.55 7.2q2.3 4.8 2 5.35t-6.5 0.15l-8.5-0.7 0.8-1.65 7.65 0.5 4.55 0.1q0.15-0.2-1.5-3.35l-3.05-5.7"/>
   <path d="m105.35 76.35q4.35 1.65 7.15 5.95 2.85 4.45 2.85 9.8 0 6.35-4.1 10.75t-10.05 4.4l-3.15-0.4 0.5-2.05 2.65 0.35q5.05 0 8.55-3.8 3.45-3.75 3.45-9.25 0-4.25-2.65-7.95-2.45-3.4-6.05-5.15 0-0.45 0.45-1.35l0.4-1.3"/>
   <path d="m102.9 86.45q2.25 0.25 3.8 2.15t1.55 4.5q0 2.8-1.75 4.8-1.7 1.95-4.2 1.95l-1.25-0.15 0.6-6.65q0.25-4.15 1.25-6.6"/>
  </g>
  <path d="m103.4 92q0.8-0.15 1.35 0.3t0.55 1.25q0 0.75-0.45 1.25t-1.1 0.5q-1.45 0.1-1.75-1.2-0.15-0.65 0.25-1.3 0.4-0.7 1.15-0.8" fill="#fff"/>
  <g fill="#0d131a">
   <path d="m168.25 119.95q7.65 17.9 8.35 22.4l-1.5 4.15q-0.7-4.3-8.25-23.25-7.35-18.3-8.85-20.4-1-1.4-7.95-5.3-7-3.95-7.75-3.45-0.8 0.45-19.1 23.1-3.5 4.3-4.55 3.8t-0.1-5.25l4.75-25.45 3.2-18-9.5-14.15q-0.7-1-0.45-2.7 0.25-1.6 1.15-3.25l7.9-13.1q7.15-11.65 8.05-12.4 1.1-0.9 4.95-1.3 3.95-0.45 5.15 0.4l3.7 4.2 6.05 7.3q0-0.1-0.9 0.6l-1.5 1q-7.9-9.55-9.2-10.75l-3.15-0.15q-2.6 0.35-3.2 1.05-0.8 0.9-8.5 13.15-7.85 12.55-7.85 13.25 0 0.6 4.3 6.95l4.85 7.1q1.15 2.05 0.6 4.15-9.2 43.7-8.45 43.25l9.5-11.35 10.3-12.35q1.2-1.2 2.2-1.5 0.85-0.3 2.05 0 1.55 0.35 7.2 3.55 6.2 3.5 7.5 5.3 1.7 2.35 9 19.4"/>
   <path d="m184.6 98.75q-5.5-23.55-8.35-27.45l-9.9-13.5 0.95-1.5 0.85-1.7q3.35 4.2 10.5 14.4 4.9 6.9 9.6 30.15 3.3 16.5 4.35 27.6l-2.35 0.45q-0.65-7-5.65-28.45"/>
   <path d="m173.3 42.4q8-18.9 6.6-19.35-1.65-0.55-18.4 10.45-16.2 10.6-19.65 14-2.15 2.1-2.15 6.65v0.65q0.15 2.95 1.35 5.55t3.2 4.45q4 3.5 9.7 3.35 5.2-0.2 7.75-2.95 3.5-3.75 11.6-22.8m8.2-23.05q1.7-0.7 1.95-0.45 0.35 0.25 0.05 2.5-1.4 9.4-9.65 26.4-7.35 15.05-10.75 18.7-3.25 3.5-9.25 3.8-6.4 0.35-10.8-3.6-2.3-2.05-3.7-5.3-1.4-3.15-1.55-6.5-0.25-5.65 2.65-8.7 3.5-3.8 15.75-12.35 14.9-10.4 25.3-14.5"/>
   <path d="m43.35 25.35 6.75 3.3q6.3 2.9 8.75 3.7l0.25 3.15-8.85-3.15-7-2.75q-0.75-0.4-2.75 1.6-1.95 1.95-1.65 2.5 0.55 0.8 7.15 37.95 6.85 38.5 7.1 45.7 0.15 3.95 1.65 5.9 2.7 3.3 8.55 13.6 8 14.1 10.4 23.4 0.85 3.4 0.6 3.45-0.3 0.1-1.45-3.15-2.4-6.85-10.55-20.25-6.85-11.2-10.6-15.95-1.2-1.5-1.3-3-0.45-6.6-7.6-47.25l-7.2-40.4q-0.5-2.75 2.85-6.05 3.25-3.2 4.9-2.3"/>
   <path d="m82.4 22.05q0.1 0.85-0.2 2.65l-17.8-8.55q-0.65-0.3-2.7 1-2.1 1.3-2 2.1 2.8 73.55 2.8 93.5 0 2.35 0.3 3.4 0.3 1 1.45 2.75 3.3 5 7.8 18.15 4.9 14.35 5.25 22.2 0.25 4.75-0.45 2.85l-1.3-5.05q-1.75-7.85-7.3-21.65-5.4-13.4-7.9-16.6-0.75-1-0.95-2.15l-0.05-2.1-1.8-49.45q-1.65-45.55-1.55-47.8 0.05-1.7 3.85-3.9t5.25-1.35l7.75 4.7q6.95 4.15 9.55 5.3"/>
   <path d="m124.5 23.85q0.95 0.6 0.85 2.35l-0.5 2.15q-12 26.3-19.7 55.3-5.05 19-7.1 34l6.75-3.9 4.5-2.55q1.8-0.85 2.25-0.3 0.35 0.45 0.25 2.95l-0.35 10.75-0.4 9.25-2.35 3.75-4.05 6q-7.45 11.8-16.65 23.65-7.55 9.75-9.85 11.65-1.45 1.3-2.2 1.05-0.6-0.25-1-1.55-2.15-7.7-9.2-18.95-8.5-13.65-22.15-29.05-0.75-0.85-1.45-2.5l-0.6-1.5q-0.45-4.2-9.55-37.3l-9.55-34.45q-0.45-1.9 2.15-4.5 2.6-2.5 4.35-2.1l5.55 1.75q4.25 1.4 6.25 1.6l0.4 1.45 0.2 1.6-6.7-1.35-4.8-1.2q-0.7-0.3-2.3 1.1-1.6 1.35-1.4 2.1l8.6 30.45q8.6 30.95 9.4 37.25 0.2 1.3 1.1 3.25 0.95 2 1.8 2.9 10.75 11.3 21.25 30.2l8.75 16.25q0.8 0.05 10.7-12.9 9.5-12.45 14.95-20.45l4.1-5.7q1.65-2.3 1.95-3.15 0.4-1.1 0.4-10 0.05-8.85-0.35-8.75-0.5 0.2-4.65 2.5l-6.2 3.6q-1.75 1.1-2.1 0.95-0.35-0.2-0.25-1.95 0.45-8.45 5.5-30.55 7.7-33.5 20-61 0.55-1.2-0.05-1.85-0.6-0.7-2.55-0.95-4.65-0.6-14.8-5-10.55-4.6-15.15-8.35-0.8-0.25-2.35 0.4-1.65 0.7-2.25 1.7l0.05 3.65q0.45 9.95-3.3 44.75l-5.15 44.95q-0.3 2.5 0.55 4.55 2.45 8.75 4.2 25.15 1.85 17.5 0.7 25.15-0.5 3.35-1.1 3-0.55-0.4-0.35-4.55 0.5-8.8-2.5-27.5-2.5-15.8-3.7-19.1-1.55-3.95-0.75-9.65 1.9-13.6 4.85-42.15 4.2-41.05 3.15-50.95-0.1-1.1 3.6-2.85 3.8-1.8 4.8-0.95 4.35 3.55 15.05 9 10.95 5.55 15.05 6.15 4.2 0.6 5.4 1.25"/>
   <path d="m290.3 119.95q-0.55 4.15-4.05 10-3.1 5.1-6.2 8.1l-1.9 1.65-1.65-2.4 1.8-1.65q4.8-4.6 7.45-11.15 2.7-6.8 1.8-12.4l1.95 3.3 0.8 4.55"/>
   <path d="m279.15 78.65q-5.6-6.25-12.85-9.8-7.25-3.5-15.3-3.85-7.45-0.25-14.3 2.35-6.85 2.55-12.2 7.7-8.7 8.35-10.25 20.2-1.45 11.25 3.85 22.7-1.75 1.05-2.6 2.15-6.15-12.4-4.65-24.95 1.5-13 10.8-21.95 5.8-5.55 13.65-8.65 8-3.2 15.85-2.85 8.55 0.3 16.2 4 7.7 3.7 13.6 10.3 5.85 6.55 9.05 14.75 3.6 9.2 2.45 17.2l-2.2 2.3-0.3-3.3q0.25-6.95-2.7-14.75-3-7.8-8.1-13.55"/>
   <path d="m203.7 126.15 4 1.05-1.8 2.7q-1.2-0.1-3.65-1.3l-2.9-1.65q-0.8-0.55-7.9 1.5-7.45 2.15-8.55 4l-6.45 12.45q-7.05 12.9-9.9 15.2l-9.2 6.7q-7.75 5.6-8.8 6.95-2 2.55-7.65 17.65-5.8 15.6-6.3 20.65l0.2 4.1q0.3 3.25 0.75 5.45l-2.05 5.35q-1.85-3.3-2.8-6.5-1-3.4-0.8-5.85 0.55-5.65 6.7-23.05 6.05-17 8.3-19.8 1.5-1.85 9.9-7.4l9.75-6.5q2.55-2.1 9.3-15.05l6.2-12.5q1.4-2.4 9.6-4.25l8.7-1.7 1.4-0.05q0.25 0.05 1.25 0.65 0.7 0.4 2.7 1.2"/>
   <path d="m163.3 251.75 3.5 1.15v2.6l-5.25-1.8 1.75-1.95"/>
   <path d="m282.15 176.05-2.65-1.25-1.8-1.6-0.8-1.4 1.45-2.5 0.85 1.5 2 1.6 2.85 1.85 0.15 0.2q4.5 7.1 5.7 11.1 1.15 3.95 0 8.3-0.95 3.5-6.35 33.15-4.9 26.9-6.25 35.1-0.6 3.55-4.25 8.1l-6.75 7.3-0.5-3.2q7.85-8.35 8.75-13.7l5.85-33.85q5.25-29.75 6.2-33.35 0.65-2.5 0.65-4.45 0-2.5-1.15-5.45-1.2-3.05-3.95-7.45"/>
   <path d="m242.45 115.4q-15.15-1.55-27.9 7.2-7.95 5.4-9.25 15.5-0.95 7.55 2 16.1 3 8.55 8.95 15.4 10.3 11.8 25.65 14.35 15.35 2.5 26.65-5.8 4.6-3.35 7.4-8.55 2.75-5.15 3.3-11.4 0.7-8.05-2.2-16.1-2.9-8-8.8-14.15-10.6-11.05-25.8-12.55m-39.6 22.4q1.35-10.45 10.3-17.25 13.8-10.4 30.8-9 16.25 1.3 25.8 12.3 14.25 16.3 12.65 34.8-0.6 6.6-3.95 12.3-3.2 5.35-8.45 9.2-12.1 8.8-28.4 6.2-16.3-2.65-27.2-15.15-6.3-7.2-9.45-16.3-3.1-9.05-2.1-17.1"/>
   <path d="m248.45 253.35q11.75-5.4 13.55-2.95 1.6 2.15 4 13 2.25 10.2 2.15 12.8l-0.35 3.85q-0.45 1.9-1.6 3.7-7.4 11.25-11.35 16.1-13.1 16.25-28.85 26.7-6.35 4.2-7.95 3.3-1.3-0.8-0.45-6.75 1.95-13.8 2.7-16.35l4.05-5.25q-0.5 1.8-2.2 11.9-1.85 10.75-1.6 12.05 0.15 0.8 6.65-4.65 6.9-5.75 14.6-13.2 21.25-20.6 23.2-29.55 0.95-4.25-1.25-13.65-2.05-8.8-3.8-10.8-1.05-0.9-11.45 3.8l-10.25 4.9-1.15-3.05 11.35-5.9"/>
   <path d="m215.1 247q8.05-4 11.95-3.4 1.25 0.2 4.05 2.3 3.25 4.15 5.85 10.3 3.25 7.45 2.8 12.4-0.75 8.95-12 30.9-12 23.4-22.7 34.2-4.45 4.45-7.25 3.5-2.6-0.9-2.7-5.7-0.3-11.05 0.65-34.05l0.85-18.85 3.35-3.7-0.55 28.65q-0.5 26.95-0.3 30.15 9.65-8.8 21.2-29.5 10.05-18.1 14.25-31.05 1.3-3.9 1.3-7.9 0-5.2-3.2-11.35-1.85-3.55-3.85-6-0.75-1-1.5-1.3l-2.8-0.05q-2.85 0.7-8.45 3.2-7.25 3.3-12 6.9l-1.5-1.95q5.75-4.4 12.55-7.7"/>
   <path d="m198.45 245.25q-2.85-7.55-4.45-8.75-1.6-1.25-13.55 5.85-12 7.15-12.75 10-1.15 4.4-3.2 30.1-2.15 26.65-1.65 34.55 0.1 1.5 0.7 1.65 0.6 0.1 1.85-1.1 10.25-9.6 22.25-26.7 12.1-17.3 13.7-24.85 0.5-2.2 0.5-4.9 0-6.95-3.4-15.85m-38.75 70.65q-0.8-18.45 1.6-40.7 1.8-16.65 3.55-23.2 1.1-4.2 12.15-11.1 11.3-7.05 17.9-7.2l0.9 0.35q2.8 2.8 6.25 12.9 4.15 12.25 2.45 20.35-1.75 8.25-13.25 25.1-11.15 16.4-21.75 26.8-5.2 5.1-7.3 4.4-2.15-0.75-2.5-7.7"/>
   <path d="m156.3 212.5q-2.4-4.75-4.15-6.4-1-0.9-1.6-0.7-2.65 1.15-7.75 7.45-5.85 7.25-9.05 14.8-3.05 7.05-4.65 23.95-1.6 16.85-0.3 27.3 0.4 2.85 0.85 3.15 0.3 0.2 1.25-0.85 1.75-1.9 10.65-10.3l15.75-14.4 8.65-7.85q0.55-0.55 0.55-2.3 0-5.05-4.15-17.85-3.6-11.15-6.05-16m-6.4-10.55q2.25-1 4.7 2.45 1.1 1.55 3.85 7l6.9 17.55q6.15 17.95 2.95 21.35l-12.65 12.25-20.15 19.75q-4.8 4.8-7.5 4.2-2.65-0.65-3.45-6.95-1.35-11.2-0.65-22.35 0.95-15.75 6.05-29.2 2.8-7.5 9.3-15.9 6.4-8.35 10.65-10.15"/>
  </g>
  <path d="m322.7 185.6q16.75 3.75 18.35 6.1-2 3.05-18.25 9.7-15.65 6.4-19.5 6.5-3.6 0.1-6.95-3.4-3.55-3.8-3.65-8.85-0.1-5.1 3.3-9.35 3.2-4.05 6.75-4.15 4.3-0.1 19.95 3.45" fill="#eeeeef"/>
  <path d="m292.7 195.65q-0.05-0.85 24-2.7l24.35-1.25q-2 3.05-18.25 9.7-15.65 6.4-19.5 6.5-3.6 0.1-6.95-3.4-3.55-3.8-3.65-8.85" fill="#c8c9ca"/>
  <path d="m323.05 186.9q-16.55-3.85-20.25-3.75-3.25 0.1-6.2 3.85-3.05 3.95-2.95 8.6 0.15 5.15 3.9 8.75 2.85 2.7 5.75 2.6 3-0.05 19.75-7.15 16.6-7 16.6-8.05 0.05-1-16.6-4.85m18.8 3.05q1.7 0.85 1.65 1.75t-1.65 1.75q-7.8 4.25-21.35 9.75-13.85 5.6-17.15 5.7-3.65 0.1-7.1-3.15-2.45-2.3-3.65-4.25-1.55-2.45-1.6-5.05-0.15-5.85 3.05-10.25 3.35-4.55 8.7-5 3.35-0.25 18.25 2.9 15.75 3.3 20.85 5.85" fill="#0d131a"/>
  <path d="m67.4 160.8q0.25-0.3 1.2 0.75 0.9 1.05 0.65 1.35-1.65 2-6 3.55-3.85 1.4-6.45 1.4-2.3 0-2.3-0.95 0-1 2.3-1 1.9 0 5.4-1.55 3.7-1.7 5.2-3.55" fill="#0d131a"/>
 </g>
</svg>
