<?xml version="1.0" encoding="UTF-8"?>
<!-- Created with Inkscape (http://www.inkscape.org/) -->
<svg version="1.1" viewBox="0 0 264.85 345.52" xmlns="http://www.w3.org/2000/svg">
 <path d="m239.84 88.339c-11.229 28.689-70.648 44.108-99.55 1.8507 23.33-22.968 78.943-16.546 99.55-1.8507" fill="#009f50"/>
 <path d="m145.54 71.102c-2.5319 2.5319-7.6133 8.6134-11.144 13.015-25.18-6.9327-40.577-56.782-14.887-82.643 20.289 4.889 33.985 36.515 26.031 69.628" fill="#009f50"/>
 <g fill="#c0dc96">
  <path d="m94.253 94.394 53.699 38.749c4.9734 13.866 5.1905 49.147-2.8273 70.797-11.463-9.0806-36.579-3.2312-45.469 26.414-15.801 1.7422-38.748-0.422-50.424-5.8476-5.6366 6.5077-17.332 13.44-21.224 13.206-3.8943-0.24113-9.5912-8.2939-15.376-19.48-6.7199-12.994-17.97-59.76-5.4015-81.622 12.548-21.863 54.762-41.343 87.024-42.215"/>
  <path d="m214.87 232.35c9.1023-1.9592 35.431 3.9968 43.598 14.589l-8.9745 35.154c-13.909 4.5515-36.749 0.60284-47.999-5.9561-12.548-7.3155-4.2078-40.024 13.376-43.789"/>
  <path d="m63.727 257.85c18.184 2.3812 58.016 1.2961 72.308-11.484 14.717 12.144 54.443 14.993 73.18 0 1.9773-1.5734 4.2741-4.2983 5.9139-7.5922 1.1273 13.909-3.4663 27.137-15.801 40.556-21.267 23.159-56.804 32.368-92.512 18.354-0.42198 7.5922-3.6773 19.267-7.1455 24.032l-37.238-3.2553c-8.2306-14.27-8.2306-42.427 1.2961-60.611"/>
 </g>
 <path d="m146.99 231.47c8.4856 3.5326 25.18 7.635 38.472 4.9554-1.4227-14.568-10.464-40.598-35.644-53.465 6.3588-4.5273 19.374-2.55 30.412 7.7833 11.016 10.315 21.203 31.667 20.501 42.555 3.5327-0.54256 9.7618-5.51 11.867-14.27 5.9561 1.278 8.0606 17.098-2.2546 26.584-10.315 9.464-46.659 18.524-74.243 1.1273 4.3827-3.5326 9.3362-10.315 10.889-15.27" fill="#0f141b"/>
 <path d="m204.97 205.73c1.5553-1.278 5.2327-2.978 5.932-2.128 0.72341 0.85 1.5553 6.0821 0.60284 11.314-1.7-2.6766-3.9546-6.0821-6.5077-9.1873" fill="#c0dc96"/>
 <g fill="#d3965c">
  <path d="m180.57 191.24c10.612 1.2117 27.881 13.441 31.922 27.179-0.6149 6.1466-4.25 13.228-11.718 15.334-1.3202-15.248-7.5711-30.199-20.204-42.513"/>
  <path d="m185.46 236.42c-9.1234 2.0014-25.584 0.30141-38.514-4.6781 2.8273-6.4649 5.4436-21.203-2.0195-27.477 2.128-5.3352 4.8468-16.141 4.8891-21.309 15.206 6.7627 34.601 29.965 35.643 53.465"/>
  <path d="m91.654 94.175c5.8898-0.54256 17.524 0.12063 28.243 6.5294 11.101-13.186 36.196-43.257 40.514-41.428 2.4897 1.0429-7.3161 18.289-10.719 24.18-2.339 0.91632-7.0611 4.039-9.2729 6.2738 0.3617 1.5734 1.7 3.6592 3.1288 5.2327-2.339 4.1897-6.401 10.974-9.6762 16.205 5.6366 5.4859 11.782 13.59 15.035 27.052l-4.039 4.1897c-2.4897-3.1288-9.0167-12.547-10.719-16.461-5.2327 2.7429-13.334 6.4016-19.225 8.2306-2.6164-5.7632-6.0164-13.994-7.975-22.628-7.975-2.2124-16.737-5.3593-22.224-8.1022 1.9532-2.7429 5.4859-7.1883 6.9327-9.2729"/>
 </g>
 <g fill="#ffe33f">
  <path d="m104.99 160.7c7.5928 2.8695 7.9328 20.48 1.0188 35.218-6.8905 14.717-18.311 25.414-25.925 22.033-7.635-3.4-7.2094-22.862-1.0429-35.537 6.1882-12.654 15.333-25.733 25.945-21.714"/>
  <path d="m98.7 230.87c6.8055-24.308 33.049-38.854 46.809-26.626 8.1028 7.1883 5.7632 34.665-13.845 45.617-14.525 8.1028-54.784 13.484-85.238 3.9124-31.241-9.804-45.107-33.857-41.173-58.42 3.2553 15.95 13.93 41.045 22.755 42.364 5.2085 0.76561 14.632-6.8055 20.905-13.207 14.78 5.5522 34.367 9.0812 49.786 6.3588"/>
  <path d="m235.36 283.48c-2.1883-1.9351-5.9561-5.6124-7.5494-7.4644 4.4007-3.5929 11.314-9.549 16.418-13.419-3.2554-4.5514-6.146-10.166-7.9961-14.122 4.039-1.5734 14.292-4.5515 18.077-5.2508 2.8936 2.0195 7.1033 5.932 8.145 9.2934 1.489 4.8288 0.42198 18.779-6.9116 26.137-2.3812 2.3631-10.527 4.8288-20.183 4.8288"/>
  <path d="m58.712 310.46c0.9766-2.6344 3.828-7.8472 5.299-9.9101 2.9358 3.6351 10.293 11.867 14.313 15.503 3.9124-3.3398 9.0167-9.6123 11.76-13.632 3.1468 3.4241 9.5062 10.485 12.165 14.122-2.1702 4.9976-5.5944 10.4-9.1234 12.143-5.2929 2.6585-20.034 1.2358-27.243-3.9124-3.4483-2.4475-5.293-9.1234-7.1672-14.313"/>
 </g>
 <path d="m239.15 87.682c-21.99 21.501-68.075 22.309-98.551 1.6397 3.2734 12.207 27.009 27.626 50.169 26.86 24.606-0.80781 43.81-12.378 48.382-28.498" fill="#008c46"/>
 <path d="m115.52 5.915c-6.6777 20.034-5.0398 58.633 22.16 73.796l-4.0812 5.0398c-24.096-12.378-37.132-51.317-18.077-78.837" fill="#008c46"/>
 <g fill="#ad7b49">
  <path d="m197.7 218.39c4.4851-1.7 8.1456-4.3827 10.57-8.145 1.4227 2.1039 3.1288 4.7202 4.3164 7.72-0.65711 7.72-5.2327 12.675-11.761 15.674-0.24114-5.8898-1.6156-11.038-3.1288-15.249"/>
  <path d="m149.18 211.83c10.804 5.4256 22.628 8.5923 33.07 8.8473 1.8507 5.082 2.978 9.9529 3.2734 15.589-8.23 2.7429-30.773-1.1032-38.705-4.7022 2.6163-6.9327 3.1468-15.035 2.3631-19.736"/>
  <path d="m143.35 87.049c7.55-11.441 14.972-23.691 16.95-27.774 1.1273 1.6819-3.8944 12.484-10.038 24.032-2.3812 1.1454-4.871 2.4897-6.9122 3.7436"/>
  <path d="m140.72 90.989c0.76561 1.2117 1.8507 2.6766 3.0202 4.1234-3.9788 7.0394-7.72 13.207-9.9318 16.418-1.6578-1.8688-3.4242-3.5327-4.8046-4.5937 2.9961-3.4483 7.2733-9.379 11.718-15.951"/>
 </g>
 <g fill="#a5be83">
  <path d="m6.1505 198.15c6.5294 16.184 19.14 35.027 34.878 33.262-3.8522 2.8092-9.9318 6.4649-12.76 6.3799-4.889-0.12063-16.928-15.737-22.118-39.642"/>
  <path d="m216.37 236.73c-4.5092 41.173-34.899 66.481-71.372 67.268-36.473 0.76561-68.245-14.717-77.071-46.085 5.0639 1.1273 17.928 1.3383 27.306 0.68121 10.038 28.009 81.452 42.023 107.7-8.5067 4.3585-1.5071 11.846-6.8905 13.44-13.356"/>
  <path d="m234.99 283.7c-14.738-0.0603-30.242-4.889-35.281-9.2723 3.5326-4.889 6.2738-10.591 7.4433-13.908 8.6345 2.8695 20.565 5.2326 32.687 6.0164-3.9968 3.3156-9.1873 7.5072-12.101 9.804 1.8266 1.917 4.678 4.8288 7.2516 7.3583"/>
 </g>
 <path d="m262.29 265.91c-1.1454 4.4249-4.3585 12.25-7.89 14.015-5.4678 2.7429-12.356 3.8039-19.416 3.7858-2.5741-2.5319-5.4256-5.4678-7.2522-7.3583 2.9117-2.2968 8.1028-6.5077 12.122-9.804 7.6561 0.48228 15.398 0.36171 22.437-0.63901" fill="#dcc437"/>
 <path d="m82.659 311.62c1.0188-9.3573 1.489-19.565 1.1454-27.838 7.0611 6.4866 14.122 10.4 22.564 14.121-0.48228 7.6139-2.1461 13.888-4.232 18.779-4.1054-5.1905-9.549-11.463-11.995-14.015-2.4234 2.8273-4.8469 6.0164-7.4861 8.9534" fill="#a5be83"/>
 <path d="m95.185 327.32c-2.5741 2.339-9.2084 2.7429-15.482 1.9592 1.2117-4.7866 2.2305-11.016 2.9539-17.652 2.6344-2.9358 5.0639-6.1249 7.4861-8.9528 2.4475 2.55 7.89 8.8045 11.994 14.015-2.1702 5.0639-4.7624 8.6339-6.9544 10.633" fill="#dcc437"/>
 <path d="m144.95 203.86c2.7007 39.28-64.97 60.526-115.25 34.049-1.9773 0.78369-5.6969-1.5734-8.4428-5.1061-2.7429-3.5327-12.356-19.608-15.695-37.642-4.9734 13.696 4.5756 49.85 40.237 58.909 40.641 10.294 80.411 3.2132 93.298-10.08 12.951-13.335 13.653-32.007 5.8476-40.131" fill="#dcc437"/>
 <path d="m210.56 203.52c-0.6571 2.4475-1.2117 4.4008-2.339 6.4655l3.189 5.2327c0.7415-2.339 0.7415-9.634-0.85-11.697" fill="#a5be83"/>
 <path d="m24.3 170.2c0.76561-1.5734 1.9351-3.4905 2.978-4.8468 0.91633-1.2358-0.76561-2.3631-1.8266-1.0188-1.1695 1.4649-2.339 4.3827-2.3812 5.51-0.04224 0.8922 0.7415 1.4046 1.2358 0.3617" fill="#0f141b"/>
 <path d="m10.453 162.86c0.12063-1.9532 0.18085-4.1475 0.48227-6.146 0.24114-1.3624-1.6156-1.7422-2.0436-0.24115-0.54255 1.8688-0.12063 5.6547 0.30143 6.7205 0.3617 0.95852 1.1454 1.2117 1.2539-0.30141" fill="#0f141b"/>
 <path d="m80.955 185.47c-4.5937 12.696-3.5085 21.459 0.48227 22.862 4.232 1.5131 10.336-6.0164 14.653-17.439 4.889-12.951 4.1054-20.778-0.42199-22.373-4.5093-1.5734-10.485 5.293-14.695 16.949" fill="#3e4e56"/>
 <path d="m82.051 185.87c-4.9132 13.547-3.2554 20.289-0.24115 21.374 2.9539 1.061 8.6978-4.9132 13.164-16.758 4.5695-12.144 4.3164-19.438 0.30143-20.863-3.6351-1.2539-8.7406 3.8944-13.228 16.248m-1.0007 23.564c-5.4437-1.9351-5.6969-11.888-1.1936-24.351 4.5515-12.569 10.889-19.502 16.184-17.673 5.1905 1.8266 6.6777 9.209 1.1273 23.904-4.9976 13.291-11.697 19.714-16.121 18.119" fill="#0f141b"/>
 <path d="m84.824 186.94c-2.2968 6.3588-1.7422 10.719 0.24115 11.442 2.1039 0.74149 5.1663-3.0202 7.3155-8.7195 2.4475-6.4866 2.0617-10.4-0.24114-11.207-2.2788-0.78972-5.2508 2.6585-7.3589 8.485" fill="#0f141b"/>
 <path d="m85.885 179.94c-2.0436 4.9373-2.339 8.5284-0.95852 9.1662 1.2961 0.60284 4.039-1.8929 6.0164-6.8477 2.0195-5.0398 1.9773-8.0817 0.60284-8.7623-1.2358-0.60284-3.7437 1.8929-5.6366 6.4438" fill="#fff"/>
 <g fill="#0f141b">
  <path d="m78.216 182.9m2.7851 34.07c-6.8483-2.8092-7.3583-17.97-1.061-33.367 6.231-15.206 17.013-24.84 24.159-21.927 5.9139 2.4234 8.1239 16.121 1.4468 32.389-5.8476 14.313-17.353 25.861-24.542 22.904m-3.5748-34.41c-4.7444 11.59-7.5283 32.198 2.7248 36.706 7.9111 3.4663 21.415-7.0816 28.349-23.989 6.9755-17.056 4.6359-32.708-3.5085-35.941-8.5489-3.4664-20.82 6.7627-27.562 23.223"/>
  <path d="m203.09 275.21c13.93 7.4439 39.302 9.2301 49.786 3.7014 6.7838-3.5748 11.08-20.99 7.975-26.881-4.2561-8.1028-22.777-18.481-44.49-18.587 0.24113-0.87411 0.42199-2.1883 0.60283-3.1046 22.926 0.3617 42.024 11.335 46.553 20.246 3.7195 7.3372-0.63901 26.605-9.3362 31.028-12.037 6.1249-37.642 4.8468-53.593-3.9546 0.8078-0.80781 1.911-1.6578 2.5319-2.4475"/>
  <path d="m134.79 83.544c-12.994-6.4221-21.862-18.694-25.413-34.176-3.1288-13.696-1.5312-33.623 10.612-46.808 11.144 4.1897 18.354 14.78 22.628 26.562 4.1898 11.59 5.4015 29.305 0.24113 45.128l3.9546-3.6351c3.9366-14.249 3.4-30.135-1.3805-43.385-4.8288-13.334-13.59-23.053-25.627-27.179-0.36171-0.12063-0.6993-0.02106-0.95852 0.24114-11.909 11.335-17.034 31.688-12.909 49.722 3.6171 15.695 13.76 29.285 27.306 36.154z"/>
  <path d="m237.89 88.675c-6.231 14.589-22.054 23.692-41.981 25.457-17.63 1.5553-40.939-3.2975-54.167-23.84 11.484-9.3362 29.284-13.079 47.851-12.973 16.843 0.06025 34.027 3.3156 48.297 11.356m-98.721 0.6571c-0.30143 0.30141-0.422 0.7415-0.18085 1.1514 10.527 18.587 33.75 29.476 57.165 27.413 20.927-1.8507 38.791-12.994 44.916-29.518 0.18086-0.42199 0.0211-0.83192-0.3617-1.0851-12.93-8.6128-33.942-13.738-51.466-13.802-19.289-0.06025-38.727 4.8047-50.041 15.844"/>
  <path d="m144.18 203.38c4.7444-15.312 5.8054-37.429 4.6359-53.763-1.5071-21.352-10.102-32.113-18.821-40.534-2.4475-2.3631-1.489-3.4905 1.1695-1.4046 10.889 8.4434 19.758 21.735 21.182 41.598 1.5312 21.437-0.0211 40.024-5.8054 55.932z"/>
  <path d="m93.252 94.404c-2.9539 3.189-4.5695 5.7632-6.6988 8.7834 5.9983 2.6585 12.293 4.7022 20.884 7.2522 0.30141 0.0602 0.60284 0.3617 0.639 0.68122 1.0188 5.5281 3.5749 13.504 7.465 21.628 6.4221-2.128 11.059-4.3163 18.077-7.8261 0.42198-0.24114 0.93441-0.0602 1.1695 0.3617 3.0624 5.3171 5.932 10.187 10.144 15.716 1.0188-1.061 2.4053-2.3631 3.3578-3.9546l0.72342 2.339c-1.1695 1.7663-2.3812 3.3397-3.4422 4.4007-0.54257 0.54256-1.0007 0.60285-1.5132-0.0602-4.4248-5.721-7.5072-10.825-10.527-16.439-6.9761 3.7195-10.889 5.5522-18.077 8.3156-0.87411 0.3617-1.3805 0.30143-1.7663-0.54255-3.4844-7.1883-6.3588-15.695-7.7622-22.67-8.8473-2.2124-15.355-4.1897-22.097-7.2522-0.65709-0.30143-0.95852-1.1273-0.68121-1.5734 1.8507-2.9539 4.1897-5.6788 7.1666-8.7834z"/>
  <path d="m150.59 180.86c4.7022-2.5922 16.929-1.5734 27.435 6.6994 9.6973 7.6133 22.267 24.797 24.096 43.874 3.5749-1.0188 8.8045-6.5077 9.1445-14.249l2.3209 2.4897c-0.91631 7.9328-7.2733 15.163-13.44 16.184-0.54256 0.0603-0.93441-0.24113-0.93441-0.87411-0.18085-17.098-13.398-38.217-22.585-45.766-7.5072-6.1466-19.948-8.6345-24.861-6.7205 16.376 7.5072 33.517 29.986 35.516 54.464 0.0422 0.42198-0.30142 0.85-0.6812 0.9344-12.399 2.7429-31.326-1.489-40.088-5.0156l1.0429-2.4897c8.3578 3.382 24.712 6.3377 36.515 4.6359-2.2546-21.309-18.099-44.299-34.41-50.785z"/>
  <path d="m137.03 246.21c25.988 14.738 57.166 8.4217 70.288-0.18084 9.8462-6.4649 11.207-23.053 4.7624-26.286-0.24113-0.12051-0.3617-0.30143-0.42198-0.54256-3.3578-11.059-18.566-24.861-30.114-26.711l-2.2546-3.2553c14.249 0.9344 30.412 16.312 34.24 28.264 8.1878 4.5695 7.1883 23.351-4.3827 30.879-15.44 10.081-48.403 15.333-74.498-0.6571z"/>
  <path d="m210.12 204.6c-0.48227-0.24113-2.5319 0.60284-4.5274 1.9773l-1.5734-2.0436c1.2358-0.87412 5.2086-2.6163 7.0816-1.8085 2.3209 1.0007 2.1461 9.8679 1.5734 13.93l-2.0617-3.1287c0.30141-1.8507 0.3617-8.4856-0.48227-8.9323"/>
  <path d="m69.108 258.03c9.8046 30.667 42.002 44.618 70.841 44.661 28.944 0.0422 61.78-13.611 72.839-51.998 0.7415-2.5741 2.3631-2.1883 1.7241 0.42198-8.8473 36.218-38.748 54.996-74.562 54.953-37.792-0.0422-66.927-20.416-73.562-48.361z"/>
  <path d="m233.63 283.48c-2.5741-2.1461-4.8288-4.7444-6.656-7.0816-0.30142-0.36171-0.3617-0.80781 0.12051-1.2117 5.6968-5.0398 9.4851-8.315 15.397-12.633-3.2131-5.3352-5.4437-8.6556-7.635-13.504-0.36171-0.80781-0.0422-1.3202 0.48227-1.5312 3.9546-1.6819 11.016-3.9366 17.248-5.293l2.6344 1.8929c-6.4866 1.5553-13.185 3.4904-17.183 5.1061 2.0436 4.66 4.5514 8.6556 7.3155 13.27 0.24114 0.36171 0.18086 0.76561-0.24114 1.1032-4.5273 3.7437-10.059 7.5283-15.652 12.505 1.8085 2.2787 5.51 5.293 8.06 7.2733z"/>
  <path d="m107.91 298.42c-0.42198 12.016-4.3827 23.032-11.271 29.923-6.146 6.1249-29.093 2.4475-33.027-3.4905-11.016-16.631-11.761-46.511-1.4649-67.778l2.9961 0.422c-9.8679 19.821-9.1023 50.02 1.0429 65.311 3.0443 4.6178 23.437 7.9967 28.328 3.1287 6.1888-6.2099 10.017-17.46 10.379-28.498z"/>
  <path d="m58.376 307.75c1.0188-2.5922 2.7248-5.2749 4.8891-8.1878 0.54255-0.72341 1.2539-0.68121 1.7663-0.0603 3.189 3.9366 7.9328 9.7407 13.42 14.866 3.5507-3.4422 6.9327-7.4222 10.952-12.654 0.54256-0.68122 1.1454-0.48227 1.5734-0.0602 4.021 3.9546 8.5706 9.0601 11.74 13.186l-1.1273 3.1046c-3.4663-4.6781-7.6772-9.7612-11.356-13.632-3.7015 5.082-6.8483 9.4423-10.995 13.164-0.54255 0.48227-1.061 0.3617-1.5975-0.12051-5.3774-4.9976-10.059-10.719-13.398-14.929-1.7 2.5319-3.4663 6.1888-4.5093 9.3151z"/>
  <path d="m147.68 84.592c6.6355-12.058 12.378-23.18 11.697-23.627-2.3812-1.5071-29.029 29.816-38.217 40.768-0.30142 0.30141-0.76561 0.3617-1.1273 0.12063-15.035-8.8895-35.26-8.2089-60.568 1.1273-28.094 10.357-44.469 22.458-51.402 37.111-13.909 29.391 5.082 90.448 19.672 96.275 3.171 1.278 14.036-6.316 20.65-12.93 0.24114-0.24114 0.639-0.3617 0.95852-0.18085 13.717 5.5281 35.261 8.2728 48.978 5.6788 5.082-22.777 30.73-37.877 46.617-27.286 13.568 9.0384 6.2949 43.576-17.929 52.295-31.028 11.186-76.135 9.1873-100.76-7.2305-17.566-11.697-26.073-34.857-21.777-53.21l1.1936 4.1234c-1.3624 18.055 7.9533 36.621 22.458 46.319 28.349 18.991 75.072 14.865 97.742 6.6988 21.99-7.9322 27.69-39.067 17.035-46.17-15.716-10.464-37.94 7.2094-42.3 26.222-0.12063 0.65709-0.7415 1.5312-1.4227 1.6397-13.845 2.55-35.622-0.54255-49.701-6.1249-5.8476 5.6969-17.928 14.844-22.543 12.994-17.226-6.8694-35.813-72.074-22.267-100.74 7.1461-15.099 25.053-27.903 53.593-38.429 24.053-8.8684 47.511-9.974 61.334-1.5553 12.398-14.632 28.264-33.411 36.834-38.897 4.1054-2.6344 6.231-1.4649 4.8046 3.2312-1.3624 4.5273-4.8468 11.888-9.1017 19.842z"/>
  <path d="m144.57 96.393c-3.4483 6.0399-6.5077 11.74-9.1873 16.142l-2.5319-2.2124c2.4897-4.021 6.0399-10.08 9.719-16.588z"/>
 </g>
 <path d="m120.88 280.8c2.7851-14.653 24.861-20.863 32.262-16.248 18.396 11.484 26.839 31.837 23.606 60.207l-40.492 11.25c-8.23-9.3151-19.267-34.644-15.376-55.209" fill="#c0dc96"/>
 <path d="m131.17 328.89c1.4649-4.1234 4.7022-11.76 6.6783-15.588 5.1905 2.55 13.419 7.6561 18.715 11.76 2.2546-5.1061 6.3799-14.206 9.3151-19.012 3.5327 2.55 8.4217 6.4655 11.569 9.804 0 5.7873-1.278 16.567-3.9124 21.182-2.6585 4.5937-22.373 8.9106-29.71 5.8717-4.5093-1.8507-10.209-10.485-12.654-14.015" fill="#ffe33f"/>
 <path d="m121.07 280.26c1.5975 11.08 7.5289 25.053 14.674 37.218-1.2117 2.8936-3.0202 7.0177-4.7203 10.782-7.0816-11.952-13.206-29.688-9.9529-47.999" fill="#a5be83"/>
 <path d="m157.15 343.4c-4.9132 0.78973-10.336 1.5975-14.717-1.3805-3.1046-2.1039-7.4005-7.0177-11.399-13.759 1.7-3.7678 3.5085-7.89 4.7202-10.782 6.9116 11.76 14.972 21.82 21.394 25.924" fill="#dcc437"/>
 <path d="m154.72 264.06c21.927 12.144 29.583 46.979 21.416 71.755-2.8936 8.7617-28.88 12.165-34.452 7.8261-16.928-13.185-25.329-42.534-22.139-61.908 0.63901-3.9124 2.6826-3.6592 2.1461 0.30142-2.4656 18.311 5.9983 46.362 22.203 58.995 4.6117 3.5929 26.945-0.0602 28.944-6.1677 6.7844-20.608 2.6163-56.081-19.225-68.862-2.4053-1.4046-1.3202-3.2554 1.1032-1.917" fill="#0f141b"/>
 <path d="m130.21 327.2c1.8266-4.7866 4.2139-9.804 6.6566-14.738 0.24114-0.54255 0.65709-0.68121 1.2117-0.42198 7.1883 3.7195 13.143 7.2944 18.184 10.974 2.8514-6.4649 5.5944-12.463 8.6978-17.822 0.3617-0.60285 0.7656-0.68122 1.3202-0.30143 3.9366 2.9539 7.3583 5.5281 11.122 9.2301l-0.0429 3.617c-3.6592-3.6592-7.6139-7.1027-11.187-9.8679-3.0202 5.7873-5.3593 11.57-8.23 18.269-0.3617 0.87413-1.0007 1.0851-1.7241 0.54256-6.3588-4.8046-11.888-8.6345-17.779-11.718-1.8929 3.828-4.3405 9.4851-6.4016 14.823z" fill="#0f141b"/>
</svg>
