<?xml version="1.0" encoding="UTF-8"?>
<!-- Created with Inkscape (http://www.inkscape.org/) -->
<svg version="1.1" viewBox="0 0 118.65 131.54" xmlns="http://www.w3.org/2000/svg">
 <g transform="translate(-3.0365 -3.4255)">
  <path d="m83.16 15.128c-0.0739 1.5628 2.5324 1.8236 3.8343 0.40832 0.85414-0.93031 0.8934-2.1214 2.9779-3.6104-0.74564-0.18714-1.3412-0.74328-0.85643-1.415 0.48227-0.66941 2.0822-1.7844 2.8647-2.1214-0.70639 0.0393-1.3389 0.1132-1.9714 0.0739 0.63277-1.5975 3.1626-3.3865 10.346-3.3472-2.9779-1.302-8.6105-2.2738-14.365-0.22379-2.7193 0.96721-6.5329 3.7743-8.562 5.8796-0.96721 1.0065-2.0106 1.4151-2.7539 0.29773-0.74564-1.115-1.2281-2.3431-4.206-2.1953-2.9779 0.14788-7.3686 1.1911-11.09 7.6664 0.37168-1.8583 0.51956-4.9862-1.2673-5.9904 0.74558 3.1995 0.52152 5.3209-1.2627 7.0315-0.89569 0.85871-2.2716 2.1976-3.7605 1.639-1.4889-0.55882-2.6062-0.89104-4.2429-0.29511-1.6367 0.5935-4.1322 1.6736-5.321 3.1233-1.1934 1.452-0.78255 2.754 0.5935 3.3888 1.5213 0.69944 2.4192 1.6736 1.2304 3.0517-1.1911 1.3758-3.2018 2.941-4.8016 3.4234-1.6021 0.48227-2.8671 0.55883-4.4299 0.48227-1.5628-0.0739-6.6252 0.93266-8.5228 3.6866-1.8975 2.7539-4.4922 8.2342-1.415 13.546 0.41094 0.70867 0.66948 1.3389 0.0759 1.7867-0.59546 0.44758-1.1911 1.5997-1.0065 2.6432l1.0434 3.7974 7.4424 3.6081 15.559-22.366 7.8902-10.372 5.5564-5.8058 4.4668-1.2927 1.7867 3.3264 1.6367 1.4889 4.9124-3.2757 1.5397-2.8278-0.3972-2.6801 2.2322-2.4308 2.5809-1.0942z" fill="#e50021"/>
  <path d="m55.767 50.336c0-1.1935-0.33503-1.4913-0.66947-2.1953-0.33503-0.70874-0.44758-2.4585 0.52152-3.3888 0.96492-0.92801 2.8648-1.5998 4.0928-1.8237 1.2281-0.22379 3.0148-0.11059 4.0559-1.8236-2.0453 0.63277-3.0886 0.9303-4.7623 1.0065-1.6759 0.0739-3.922 0.31868-4.9146-0.67176-0.48226-0.48227-0.66948-1.5258 0.33503-1.9714 1.0065-0.44562 1.676-0.44562 2.2716-0.26109 0.59547 0.18714 1.8975 0.29773 2.5693-0.78026 0.66941-1.0804 1.8236-3.9451 5.4341-5.6211-1.7498 0.40832-3.7235 0.81952-4.7277 0.96728-1.0042 0.14985-2.8278-0.11321-2.4192-2.0845 0.40833-1.9738 2.0107-3.9082 3.2387-5.097 1.2258-1.1935 3.3472-2.8671 4.4646-3.091 1.1173-0.22379 2.0107 0.0739 1.5651 1.7867-0.44758 1.7128-0.78255 3.1279 0.89104 3.5365 1.676 0.40832 4.3168-0.74565 7.2947-3.4257 2.9779-2.6778 4.2798-4.7993 5.621-7.1077-1.0065 0.41094-1.8259 0.63931-2.4192 0-0.48489-0.51956 0.66947-1.9368 1.302-2.5324 0.63473-0.59351 2.6801-1.5998 3.6473-0.63015 0.37168-0.37168 0.21005-2.0707-1.8237-1.5651-1.3389 0.337-3.9451 1.639-4.9123 2.7909-0.96721 1.1542-1.2281 2.3846-1.1911 3.4257 0.0393 1.0434-0.29119 1.8306-1.0804 2.4954-0.70638 0.59547-1.3758 1.0411-1.8975 1.2996-0.51956 0.26305-1.5628 0.18714-1.4497-1.1519-0.52153 0.2238-1.1542 0.14985-1.2673-0.14788-0.11059-0.30035 0.0759-0.59809 0.29773-0.96957 0.22379-0.37167 0.48488-1.0411 0.1132-1.4889-0.37429-0.44562-1.4889-0.74328-3.0148-0.37167-1.5258 0.37167-4.1344 1.2188-7.4078 3.9451-1.3389 1.1173-2.9779 2.9779-3.7212 4.7647-0.74329 1.7844-1.9022 3.7166-4.206 5.0993-1.1172 0.66948-3.4973 0.0327-1.8975-2.7562-1.0042 0.41094-2.5232 1.235-5.1363 4.6538-0.48227 0.63015-0.70638 1.115-0.74336 2.3454-0.0393 1.2281 0 2.7886-1.3043 3.9428-1.3019 1.1542-3.0125 2.4585-3.1625 3.5366-0.41094-1.1912 0-3.1256 1.9737-5.3233-2.2346-0.33241-4.8408 2.0107-6.1796 4.8016-1.339 2.7909-3.4604 7.7056-1.5998 13.177l13.622-3.8713c2.3823-1.0434 6.773-2.4955 7.9272-2.4192z" fill="#fcd13f"/>
  <path d="m45.383 65.409c0.27483 1.0527-0.68099 4.0744-2.7725 4.8754-1.1172 0.42926-3.2941 0.48488-4.9701-0.5562 3.3888-2.7932 5.7711-3.6127 7.7425-4.3191" fill="#fcd13f"/>
  <path d="m42.015 66.843c0.72025 0.90262 0.53788 2.3408-0.46656 2.8116-0.50582 0.23557-1.8306 0.34616-2.4192-1.0249z" fill="#005b96"/>
  <path d="m32.359 70.952c-2.7609 0.29315-4.8224-1.8791-4.6562-5.1755z" fill="#fcd13f"/>
  <path d="m31.68 70.188c-1.1727 0.31868-2.7009-0.5562-2.4377-2.5855z" fill="#005b96"/>
  <path d="m30.78 69.363c-0.0523 0.11321-0.12695 0.19173-0.21267 0.18911-0.22837-7e-3 -0.37429-0.38803-0.35335-0.79177 0.17798 0.18911 0.41355 0.45478 0.56536 0.60266" fill="#0f141b"/>
  <path d="m29.323 67.855c-0.10143 1.3181 0.78255 1.2973 0.96027 0.96956z" fill="#fff"/>
  <path d="m41.256 68.279c0 0.42271-0.17079 0.76409-0.38345 0.76409-0.21005 0-0.38084-0.34157-0.38084-0.76409 0-0.42468 0.17079-0.7641 0.38084-0.7641 0.21266 0 0.38345 0.33961 0.38345 0.7641" fill="#0f141b"/>
  <g fill="#fff">
   <path d="m39.286 68.52c0.0949 0.31867 0.6164 0.47768 0.96034 0.27679 0.32979-0.19369 0.41551-0.63931 0.26763-1.055z"/>
   <path d="m63.769 50c0.74564 0 1.3412 0.0393 2.2323 0-0.89111 1.1542-1.8606 2.3454-2.9756 3.3864 0.26109-0.85407 0.5562-2.2715 0.74329-3.3864"/>
   <path d="m50.482 58.858c1.228-2.717 2.3454-5.0601 4.5038-7.5186-1.7498 0.26109-5.471 1.3412-7.8164 2.4216 0.52153-2.1607 1.1911-5.2863 0.8934-7.4816-2.1954 1.3758-5.2471 3.7604-9.1184 8.2988 0.26109-1.3758 0.41094-3.6473 0.26109-4.8754-1.5998 1.1173-4.9493 4.8385-6.4013 10.533-1.0411-1.9345-3.3864-6.1035-4.9124-7.7033-0.18715 0.89104-0.22379 2.3431-0.0739 3.682-1.3412-1.2281-3.4257-2.9387-4.4668-3.4973 0.26109 1.8976 1.4128 5.6187 2.8648 8.7859 0.33504-0.59809 0.76639-0.84949 1.3043-0.41094 1.7844 1.452 3.3864 2.904 5.4687 5.8796 2.1214-2.5301 8.1488-8.2273 10.794-8.9314 1.1172-0.29773 4.91-0.0667 6.5121 3.9428 0.29773 0.74565-0.37168 3.5735-1.0781 4.4669-0.52152 0.44562-1.3781 1.0434-2.0476 1.3782-0.14788 1.7867-0.59546 5.1732-1.0781 6.9576 1.9715-1.0019 6.6229-3.7581 7.2208-5.3579 0.59351-1.5997-0.67176-6.5513-2.8301-10.57"/>
   <path d="m28.662 69.422c-0.41814-0.20089-0.95111-0.58172-1.4174-0.94875-0.43188 1.0826-0.66483 2.7817-0.36448 3.615 0.29774 0.83333 1.9991 2.4331 3.181 3.2988-0.58172-1.5836-0.83332-3.3495-0.75022-5.2817-0.16621-0.11778-0.49862-0.46656-0.64847-0.68335"/>
   <path d="m68.309 77.69c0.74564 2.6062 2.2715 8.0033 3.6104 10.607 0.78255-1.4497 2.5324-4.0559 3.0517-4.6908l0.0739 1.452s-0.0739 5.4364 3.7604 8.7466c0.37167 1.3412 2.3431 3.3865 3.2388 4.1322 0.89104 0.74558 1.7844 1.4497 2.2323 2.0453 1.1911 3.3149 3.1256 8.562 2.9017 10.423-0.22183 1.8629-1.9714 5.134-3.7581 7.2554 4.206 2.5324 20.693 3.1279 24.788 2.7932 1.4128-1.265 3.0887-2.7539 4.1298-3.5712-0.44562-0.22379-1.3758-0.59547-2.1214-0.81946 1.2304-1.2281 4.206-4.2452 5.6211-5.471-1.3043-0.0739-5.3602-0.0393-6.9231 0.11059 0.8934-0.66948 1.3782-1.1173 1.7867-1.7106-1.3389-0.2238-3.982-0.18715-5.6949-0.0393-3.0517-6.4752-7.0708-14.365-11.688-19.28 1.2673 0.26305 3.0171 0.59546 3.9082 0.82181-1.1519-1.2281-2.7539-2.9432-3.4973-4.0213 0.74336 0.30035 1.4151 0.55882 1.8237 0.59547-0.48489-0.81952-0.85643-1.415-1.2281-2.0845 3.1256 0.59547 9.0814 1.7128 11.501 1.452-1.7128-1.0803-12.692-6.3644-16.004-7.9295 1.1911-0.40635 3.2018-0.81723 4.6515-1.8976-1.4128-0.48226-5.1363-0.96721-7.0708-1.115 1.0065-0.78255 2.2692-1.6021 2.8671-2.0084-1.9368 0.11058-8.0034 0.70409-10.275 0.74335-2.3431-5.7319-5.8057-14.144-7.4424-15.894-1.6367-1.7498-3.0517-3.2364-8.8205-5.6556l-0.63277 0.44562c-0.96721 4.43-3.3126 7.4055-4.4645 8.7098 3.4604-0.18453 7.1608 1.0665 9.116 5.1732 1.1173 2.3454 1.9738 6.5883 0.55882 10.681"/>
   <path d="m49.329 93.807c-0.59547-0.0739-1.8236-0.37167-2.3084-0.63276-1.4128 1.8606-3.9428 3.1626-5.0232 3.2388-1.0804 0.0739-2.1953-0.15246-2.941-1.0804-0.78255 4.5014-1.7867 9.453-4.8754 14.7-1.1912 0.55882-4.8385 2.2345-6.1036 2.717l4.2429 4.9862 7.4055 3.9843c3.982-0.81952 12.096-2.5324 15.298-4.0952-0.52152-0.29773-1.6021-0.66941-2.1953-0.85643 1.0411-0.78025 2.9017-2.0822 3.5711-2.567-0.78026-0.18453-3.3864-0.81945-4.3168-1.0065 0.63276-0.22182 1.302-0.5935 1.6367-0.7779-0.66947-0.41094-2.1953-1.0457-3.2365-1.5652-0.26109-2.1584-0.26109-5.5472 0.0739-7.8902 0.33503-2.3454 0.22183-4.7647-0.18715-5.9535-0.40832-1.1934-0.81723-2.3846-1.0412-3.2018"/>
  </g>
  <g fill="#db4f04">
   <path d="m50.381 58.65c0.75716 1.5582 2.1792 4.4945 2.7586 7.2093 2.9825-1.3804 6.5421-4.3168 8.278-8.1419 1.736-3.8297 2.6085-8.188 2.447-11.394-0.0458-0.89104-0.47572-1.3528-1.4244-0.84491-3.248 1.736-8.188 4.9839-12.059 13.172"/>
   <path d="m47.17 67.828c-0.8934 0.52152-2.2716 1.228-2.9779 1.452-1.5628 1.3782-4.0928 1.9368-6.6621 0.41094-1.3389 0.96721-2.6063 1.8975-3.2388 2.3431-0.70638-0.29773-1.3759-0.74335-1.7867-1.1173-0.92801 0.11321-2.1814 0.0131-3.1926-0.81258-0.11975 2.5624 0.35794 6.3344 2.784 8.3681 1.3782 1.1542 5.1778 1.6644 8.0034 1.0804 2.1584-0.44562 2.9779-1.1934 3.7212-1.9714 0.63277-0.29774 2.3061-1.4912 3.3126-3.241l-1.0434 0.44758c0.63277-2.53 0.81946-4.5776 1.0804-6.9599"/>
   <path d="m37.531 79.812c-1.4889 0-4.5153-0.12433-6.2536-2.1584-0.89333 1.2304-2.7909 3.7235-3.9082 3.0887-0.70638 2.2345-1.8214 6.0666-2.2692 7.8163-0.85643-1.4866-2.6063-4.5776-3.2388-5.3579 0.03926 1.7106 0.26109 5.5818 0.59547 7.8903-0.48226-0.44759-1.5628-1.3043-2.3062-1.7498 0.37168 1.4128 0.9303 4.1298 1.6367 6.1404-0.48488 1.1542-1.4889 4.1298-1.9714 5.9188 0.22183 1.4497 0.63277 3.5712 0.96728 5.3579 2.0453 3.2018 4.5384 8.5597 0.55621 15.483 0.52152 0.44562 1.8606 1.639 1.4151 3.3495l1.7129-1.7498 4.6515-3.9451c-1.0042-1.452-2.4193-3.682-2.4562-4.3537-0.0393-0.66948 0.22379-6.1427 0.8934-10.122 0.66941-3.9843 2.6432-14.031 3.7212-16.152 1.0804-2.1214 4.5407-7.4446 6.2536-9.4553"/>
   <path d="m76.238 90.159-0.52152-1.302-1.1912 1.3759c0.26109-1.8237 0.55883-5.7688 0.55883-6.6992-0.74336 0.93031-2.0845 2.7909-3.0518 4.7277-1.1911-2.2346-3.0517-7.7056-3.7235-10.57-0.96721 2.5301-2.4931 5.2102-3.5711 5.8426-1.0804 0.63277-3.3126 0.33504-5.9165-1.1911-3.3888-0.18715-9.4923 0.0739-12.022 1.0804 1.9345 2.0476 2.941 5.0601 0.22379 9.7508 1.6736 0.63276 3.8713 0.8911 6.2882 0.66947 2.4192-0.22379 8.9337-0.52152 11.129 0.33438-1.4889 4.7647-3.4604 10.868-4.6146 14.294 1.3758 1.8583 3.4234 5.2448 4.1668 6.6229 1.7498 0.85642 6.2166 2.7932 8.6728 8.4096l2.0107-0.59351c-1.4889-0.85643-3.0148-1.7128-3.5365-4.7254-0.52153-3.0171 0.59546-11.985 1.0411-15 0.44759-3.0148 1.0434-6.736 1.5259-7.9664 0.48488-1.2281 1.4889-3.6081 2.5323-5.0601"/>
   <path d="m98.518 82.715c11.314-4.2683 22.828-13.738 22.828-27.939 0-8.3358-2.5485-16.018-12.456-24.216-5.4595-4.5153-15.857-8.1465-21.191-6.8976-2.3316 0.54508-3.0748 1.8352-3.3726 3.2757-0.29773 1.4382 0.63015 3.2111 2.4815 3.9705 3.0264 1.2396 5.9142 1.5489 9.4277 2.5785 4.9124 1.4405 14.391 5.3118 17.717 17.221 1.2165 4.3583 1.0896 11.464-3.772 18.11-3.5597 4.8685-8.5967 9.4784-16.824 11.265 1.1912 0.69716 3.9705 2.036 5.1617 2.6316"/>
   <path d="m23.649 54.133c-1.7498-1.863-5.0994-4.7277-5.8796-4.0583-0.78255 0.66948 0.22183 5.471 2.2692 8.5251 2.0476 3.0517 3.8344 4.8754 5.471 6.3251 0.0739-0.9303 0.37168-2.6778 0.70638-3.4234-0.8934-1.7129-1.9345-4.8385-2.567-7.3685"/>
  </g>
  <g fill="#fcd13f">
   <path d="m73.706 60.05c-0.63277-1.1542-1.7128-2.5324-3.1256-3.6866 1.3389 3.7605 1.6829 9.3538-1.9252 13.744-0.0766-1.8975-2.2069-8.6451-10.097-8.1603-0.96728 1.1172-3.0218 2.9502-5.4179 3.9128 0.28137 1.0734 0.57911 2.897 0.28137 3.4926-0.29773 0.59547-0.74328 1.452-1.9344 2.1607 0.33438 3.6842 2.5785 8.719 9.4161 11.796 1.4889 0.66941 3.4973 0.93023 4.6514-0.48227 1.1542-1.415 2.4193-3.7212 3.1649-6.2904 3.4234-2.8279 5.658-6.1428 4.9862-16.487"/>
   <path d="m47.021 93.173c2.2854-3.188 2.3084-8.1488-0.22379-9.7508-2.53-1.5998-5.7318 0.85407-7.1077 3.6473-1.3782 2.7909-2.1953 7.3316 0.14788 8.9683 2.3454 1.639 5.9558-1.1519 7.1838-2.8648"/>
   <path d="m30.061 75.387c-0.75716-0.60005-2.0591-1.789-2.5046-2.3107-0.85642 2.0106-1.9253 6.2166-0.18714 7.6664 0.44758 0.37168 2.3823-0.74335 3.9082-3.0887-0.40832-0.48488-0.87023-1.3343-1.2165-2.2669"/>
   <path d="m20.782 106.76c-0.66941-3.9059-2.0476-11.424-2.2692-13.287-0.66941 1.8975-1.2673 4.1321-1.7129 6.4382-0.33503-1.5974-0.78026-3.9451-1.1173-4.8732-0.52152 3.0494-1.2281 9.0791-1.5628 12.02-2.0845 2.8278-4.9123 7.11-5.5079 11.353-0.59547 4.2429 0.9303 7.1815 3.9451 7.9641 3.0148 0.78026 8.3565-0.9326 10.383-7.4078 0.96728-3.0887 0.74564-8.5204-2.1584-12.207"/>
   <path d="m63.992 115.09c-2.1583-3.5342-5.7318-9.49-7.6663-11.39 0.0739 0.89562 0.33438 3.1648 0.59547 4.356-0.93031-1.265-1.8976-2.6062-2.5324-3.1256 0.78255 3.6104 1.4889 7.4816 2.1214 10.307-0.40832 6.2535 2.1607 11.875 5.8819 13.624 3.7212 1.7498 8.9683 1.2281 10.607-0.66941 1.6367-1.8976-0.63277-6.3275-1.8975-7.7425-1.2674-1.4151-3.6473-4.1321-7.11-5.3602"/>
   <path d="m88.549 85.608c-1.923-3.0702-4.8824-6.4174-9.5177-4.7992-4.6331 1.6182-4.2776 6.5259-2.7424 9.5708 1.5374 3.0448 5.5564 7.2808 10.259 5.3209 2.6316-1.0988 4.3052-6.4174 2.0014-10.093"/>
  </g>
  <path d="m44.105 69.268c0.69487-0.81952 1.3897-2.4054 1.2766-3.8597-3.1672 0.72254-8.1811 4.3283-11.127 6.6876-1.3874-0.72255-5.1709-4.4322-6.5006-6.4267-0.19827 0.59547-0.0458 2.5808 0.76868 3.6727-1.0665-0.67177-2.8532-2.4077-3.0517-3.0033-0.19827-0.5935 0.29773-5.0855 1.3389-5.4341 1.0434-0.34615 4.2429 3.3011 6.1797 6.0666 3.3495-3.832 8.2919-8.3958 10.817-9.0675 1.4889-0.39719 5.3048 0.61379 6.3759 3.8966 0.39719 1.2142-0.12237 3.4973-0.96728 4.5154-0.84255 1.0157-3.6704 2.6039-5.1109 2.9525" fill="#e50021"/>
  <g fill="#005b96">
   <path d="m52.468 63.786c2.9802-1.6136 7.1539-7.1769 7.8187-11.852 0.10601-0.73641-0.0327-1.2281-1.0158-0.59808-0.98337 0.63277-3.2272 2.3154-4.6999 4.5246-1.4728 2.2091-2.4885 4.2775-2.8048 5.9258 0.17537 0.4201 0.52611 1.332 0.7018 1.9991"/>
   <path d="m108.03 120.56c-0.62753-2.0129-1.6805-4.2152-4.0443-3.742-1.3227 0.26305-2.3039 0.56536-2.7217 1.7752-0.75487-0.75716-1.8906-1.399-2.9479-1.2466-1.0572 0.15247-2.0014 0.56799-2.4169 1.7013-0.8334-0.98344-1.8906-1.4359-2.6847-1.4359-0.79413 0-1.6644 0.18911-2.38 1.5097-1.2096-1.018-2.6477-1.699-3.9313-0.86794-0.75487-0.75487-2.0776-1.2858-3.0241-0.72026-1.1334 0.681-3.4026 2.3846-4.4598 3.4027-1.0573 1.0203-1.3228 2.9109-0.48946 3.7812 0.82868 0.86794 1.9644 1.2835 3.0217 1.2466 0 2.1538 1.2466 3.2503 2.7217 3.6288 1.4751 0.37626 3.211 0.11321 4.4599-1.512 1.0203 1.699 2.4562 2.1169 3.5134 2.0407 1.0596-0.0759 2.4192-0.49142 3.3265-1.7013 0.79407 1.7775 2.5716 2.1169 3.6658 1.9668 1.0965-0.15247 2.4192-0.94647 2.7978-3.2157 0.8703 2.156 2.8717 2.9133 4.3445 2.4585 1.4751-0.45479 2.717-1.2881 2.4192-3.7397-0.14985-1.2488-0.60463-3.518-1.1704-5.3302"/>
   <path d="m70.937 114.93c-0.10405 1.8998 0.29119 4.3283 0.66018 5.0416 0.36906 0.71096 1.8214 2.2414 3.0079 2.9294l-1.8999 0.4731c0.47572 0.92566 0.73871 2.3223 0.73871 3.3518 1.2928-0.49862 2.6386-1.0296 3.1949-1.4243 0.55163-0.3972 0.84255-0.89798 0.68557-1.9276-0.15901-1.0273-0.5032-2.6362-0.79177-3.3242-0.29054-0.68564-0.63473-1.055-1.5836-1.108-0.68786-0.63277-1.2142-1.0019-1.9529-1.399 0.58173-0.31605 0.68564-0.76409 0.66025-1.2396-0.0262-0.47572-0.42272-1.2673-2.7193-1.3735"/>
   <path d="m38.374 122.39c0.95569-0.33504 2.1838-0.9926 1.736-2.4538-0.44562-1.4658-1.3874-2.5578-2.8278-2.3846-0.14788-0.81717-0.8934-1.6367-2.7794-1.4382-0.32064-0.6465-0.99031-1.3666-2.1837-1.2904-0.37168-0.64651-1.3389-1.3897-2.4793-1.1173-0.14985-0.32064-0.59547-0.79178-1.168-1.1404l-1.9345 0.74336c-0.0995 1.0665-0.22379 1.8606 0.0739 2.6316 0.29774 0.76874 1.2419 2.7771 2.4331 4.1183 1.2396 0.94182 2.3569 1.6875 3.0748 2.0591 0.72019 0.37168 1.3897 0.84485 1.7128 1.2904 1.3897-0.32325 3.2757-0.64651 4.3421-1.018"/>
   <path d="m33.586 126.61c0.96721-1.0042 1.5074-2.9201-0.17341-3.8205-2.0845-1.1172-4.9146-3.0517-7.0476-5.2355 0.0262 0.89339 0.0262 2.4816 0.14984 3.2757-0.62098-0.29774-1.5143-0.81717-1.9114-1.1404-0.3972-0.32521-1.2142-0.57256-1.3389 0.32326-0.12433 0.89104-0.30035 2.1307 0.66948 3.2734 0.96721 1.1427 3.1741 3.0771 5.3094 4.1437 1.0919 0.54704 3.0517 0.52152 4.3421-0.81952"/>
   <path d="m22.792 125.86c0.27221-1.4128-0.09946-2.7309-1.452-3.622-1.5259 2.4077-5.1132 4.7762-8.1257 4.2175-1.3389-0.24931-3.1995-1.1912-4.019-2.8533-1.4404 0.3743-3.6473 0.84491-4.6145 1.1912-0.96957 0.34616-1.8606 1.4635-0.66948 2.8047-0.14985 1.0157 0.24735 2.4054 1.512 2.6778 0.69486 2.0614 2.4331 3.5227 5.1363 2.1353 0.14985 1.2396 1.0181 1.5628 2.0591 1.9599 1.0434 0.39458 2.5809 0.49601 3.4996-0.52152 0.91643-1.0157 4.2914-5.3094 6.6737-7.9895"/>
  </g>
  <g fill="#b94100">
   <path d="m34.206 79.39c-2.0845 3.3749-4.7623 7.8394-5.5587 10.72-0.79177 2.8786-4.0675 17.168-5.1617 25.504-0.24735 1.8629-0.64389 4.2221-2.133 6.5513 0.64651 0.59546 1.639 1.4404 1.5397 3.3749 0.49404-0.59547 1.0412-1.2396 1.5374-1.736-0.74329-0.74558-1.8375-2.8024-1.0434-4.0952 0.30035-0.48226 0.63473-0.40832 1.2304 0 0.59547 0.41094 1.1773 0.79642 1.8975 1.1173-0.0739-0.91643-0.12499-2.6293-0.12499-3.2503 0.74565 0.74329 2.0591 1.8375 2.9294 2.5554-1.1427-1.5143-2.507-3.6473-2.6316-4.79-0.12433-1.1404 0.16163-5.4964 0.72026-8.9568 0.55882-3.4603 2.2715-13.361 3.4603-15.889 1.1911-2.5323 3.8343-7.8925 6.7383-10.683-0.74565 0.0393-2.26-0.1361-3.4003-0.42271"/>
   <path d="m18.078 54.529c1.8352 1.6852 3.772 1.736 5.9558 1.2905 0.49404 1.4889 1.4866 4.416 2.2807 5.7064-0.44562 0.94189-0.84256 2.1838-0.84256 3.2249-2.2831-1.2904-5.5079-5.4087-7.3939-10.222"/>
   <path d="m54.749 51.849c0 2.6316 3.3242 5.5079 6.9969 5.2101-1.2396 2.4331-3.4234 6.5006-8.5343 8.7351-0.59547-1.9368-1.5398-4.6145-2.7794-7.0476 1.0434-2.4308 2.0338-4.416 4.3168-6.8976"/>
   <path d="m48.249 90.903c3.9451 0 7.5186-0.14789 9.3792-0.59547 1.8606-0.44562 4.2429-2.53 3.3495-6.1797 0.33503 0.29773 1.0411 1.3043 1.452 2.013-0.41094 0.93031-1.452 3.682-1.8236 4.6515 0.85643-0.41094 2.0476-1.1173 2.7539-1.5651-0.0393 0.93259-0.11058 2.8671-0.11058 3.8366 0.44561-0.29773 1.265-0.67176 1.8975-1.0065l-0.70867 2.0822c-1.5997-0.40636-4.5776-0.51956-6.549-0.48227-1.9737 0.0393-9.3422 0.74565-10.868-0.48488 0.44758-0.5562 1.0042-1.5605 1.2281-2.2692"/>
   <path d="m76.063 89.905c-0.86336 1.8005-2.2553 4.8892-2.5578 5.7987 1.6805-0.12236 4.9631-0.28857 6.0527-0.16882l-0.93718-1.8929c-0.96956-0.98337-1.9691-2.6454-2.5578-3.7373"/>
   <path d="m65.022 83.211c-0.3972 2.1837-0.34616 4.6653 0.64389 6.9969l-0.29773 0.94183c-1.3897-2.3292-3.8205-6.549-4.9632-8.038 2.2346 1.0919 3.772 0.89333 4.6169 0.0995"/>
   <path d="m75.691 88.87c-0.54508 0.59546-1.175 1.2004-1.5882 1.8836-1.1912 1.9876-1.7175 3.4188-2.4816 6.055-1.1888 4.1206-3.4234 14.391-4.266 20.148 1.0411 0.84262 3.4742 2.2808 5.4086 6.4521l1.9345-0.49862c-1.4889-0.79414-3.091-2.1307-3.4234-3.9705-0.49601-2.7263-0.34616-5.6049 0.19827-10.219 0.54508-4.6168 1.4312-11.145 2.0315-13.017 0.59808-1.8722 2.0383-4.7 2.6824-5.7411z"/>
   <path d="m120.15 45.744c0.49666 11.214-4.2683 19.952-11.512 25.31-2.5555 2.5069-6.1289 6.7498-15.36 9.1298 1.0688 0.54508 3.4512 1.7383 5.1871 2.5324 8.832-3.772 16.376-8.338 20.444-17.17 4.0721-8.8344 2.1861-15.78 1.2419-19.802"/>
  </g>
  <path d="m80.539 75.524c1.8883-0.33699 6.6852-1.0642 9.5892-1.983-1.6459-0.0968-9.0098 0.91879-10.122 0.62818z" fill="#dbdcdc"/>
  <g fill="#d9b536">
   <path d="m54.479 78.579c2.7309 1.9183 6.4937 3.0979 9.7393 2.2138 0.73642 0.14527 1.916 0.29315 2.507 0.29315-0.59089 1.1819-1.6228 2.5832-2.8763 2.7308-1.2535 0.14788-6.7868-1.3297-9.37-5.2378"/>
   <path d="m57.231 74.875c2.4816 2.036 6.3506 4.3676 10.52 4.3676l-0.84255 1.7382c-2.2323 0.14788-7.1469-2.036-9.677-6.1058"/>
   <path d="m46.462 75.272c1.5882 0.19827 4.1691 0.49666 6.6991 1.4405 0.29773 0.496 0.8934 1.4889 1.2904 2.0337-0.44562 0.29774-1.8352 0.84262-2.7793 0.64389-1.2904 0.3972-4.5638 0.19827-7.1446-2.133 0.69486-0.59351 1.4889-1.4404 1.9345-1.9853"/>
   <path d="m75.701 88.75c1.2512 1.5213 3.0102 2.3661 4.2291 2.4008 1.826 1.048 5.5126 0.30494 6.1889-1.4197 0.84491 0.16883 2.5023-0.37167 3.2457-1.7244 0.60921 2.2992-0.30231 6.863-3.2803 7.8118-2.9756 0.94647-8.0496-0.37364-10.383-7.0684"/>
   <path d="m39.153 87.587c0.0327 0.74558 0.27025 1.5836 0.74793 1.9114 0.0903 0.86566 1.1057 2.1814 3.0472 1.8236 0.7179 1.0457 2.6293 1.8537 4.483 1.3158-1.6736 2.1815-5.1109 4.9008-7.5602 3.405-2.4492-1.4936-1.4035-5.9165-0.7179-8.4558"/>
   <path d="m56.656 115.92c1.0226 3.6497 2.1792 6.2767 3.6496 7.2093 0.57714 1.3343 3.0702 2.9825 6.1843 2.2692 1.4682 1.0249 4.4068 2.0938 6.8076 0.75945 0.13611 0.9765 0.0458 2.7124-2.223 3.3357-2.2692 0.62099-6.676 0.71096-9.5685-1.1127-2.8925-1.826-5.5633-7.477-4.85-12.461"/>
  </g>
  <path d="m76.312 82.566c-2.2438-1.8906-4.169-5.1248-5.5264-7.9434-0.69709 0.89334-1.4612 1.602-2.2184 1.9506-0.0831 0.41093-0.16817 0.79877-0.25847 1.1542 0.74564 2.6778 2.2715 7.8164 3.6473 10.533 0.78255-1.452 2.2716-3.7974 3.091-4.6538 0.0393 1.3043-0.2238 4.4668-0.52153 6.5513l1.175-1.4081c-0.98109-2.7516-0.0589-5.1432 0.61182-6.1843" fill="#dbdcdc"/>
  <g fill="#d9b536">
   <path d="m70.787 74.622c-0.93959-1.9553-1.609-3.7097-1.9207-4.6885 0.40374 1.7383 0.12957 4.483-0.30035 6.6414 0.75716-0.35073 1.5236-1.0573 2.2208-1.9529"/>
   <path d="m9.7936 114.05c0.29054 1.5512 0.72719 2.8116 1.3089 3.3426 0.43646 1.5512 3.4904 3.4926 5.5725 2.5716 0.72948 1.0181 3.4442 1.7429 5.4295 1.0642-1.7914 3.0056-5.5749 6.8861-10.178 5.1386-4.6053-1.7452-3.6358-8.1926-2.133-12.117"/>
   <path d="m26.668 76.491c0.34616 0.48488 0.89798 0.76181 1.5213 0.58892-0.24212 0.58893-0.89798 1.3482-1.6252 1.3828-0.10405-0.41552-0.0694-1.2466 0.10404-1.9715"/>
   <path d="m26.599 79.084c0.86336 0.82875 2.3154 0.10404 4.4253-1.8329l0.24015 0.38084c-1.0365 1.4174-3.0771 3.3888-3.6981 3.2157-0.62295-0.17537-0.75952-0.75945-0.96727-1.7636"/>
  </g>
  <g fill="#dbdcdc">
   <path d="m26.87 70.607c0.68099 1.4035 1.7036 2.3846 2.6847 2.9387l0.42729 1.6621c-0.68328-0.33962-2.8301-2.3777-3.1533-3.0241-0.0851-0.55621-0.0851-1.0249 0.0393-1.5767"/>
   <path d="m51.177 60.384c0.0995 4.4668-1.2904 10.471-5.1616 14.391 2.036-0.99031 7.1885-4.0582 7.4447-5.3071 0.39719-1.9368-0.74565-6.1058-2.2831-9.0837"/>
   <path d="m53.259 77.012c-0.60463-1.0226-1.6782-3.8112-1.8121-5.4871-1.3505 0.94646-2.9733 2.0545-4.326 2.7563-0.21463 0.35336-0.39916 0.65554-0.65789 0.99031 2.2554 0.25389 5.7134 0.93031 6.796 1.7405"/>
   <path d="m62.408 86.07c-0.51237 1.3227-1.5651 3.9105-1.9252 4.8454 0.66248-0.42272 2.2022-1.295 2.8763-1.6875-0.0458 0.96263-0.0523 3.2341-0.11059 3.8343 0.60267-0.31148 1.3551-0.70403 1.8976-1.0041l0.22379-0.90727c-0.79642-1.3204-2.1792-3.8781-2.9618-5.0808"/>
   <path d="m76.063 89.905c-0.32325 0.61837-0.71561 1.6413-1.0157 2.3338 0.33242 0.60005 0.9326 1.4128 1.4151 1.8653 0.11974-0.84262 0.35989-2.0753 0.51236-2.5578-0.27221-0.4502-0.62099-0.93488-0.91185-1.6413"/>
   <path d="m84.326 96.212c0.14789 1.5397 0.29773 3.6727 0.99266 5.0624-1.242-1.5882-3.0772-3.1765-3.7235-3.6704-0.64389-0.49666-2.133-1.8375-2.7286-3.6727 1.7867 1.5374 3.2272 2.0822 5.4595 2.2808"/>
   <path d="m112.12 116.73c-1.7129 0.44562-3.2018 0.96721-4.7647 1.5628 0.22379 0.66941 0.59547 1.639 0.74564 2.3823 0.99031-0.99266 3.5712-3.2249 4.266-3.622z"/>
   <path d="m109.19 115.82c1.8352-1.8859 4.1182-4.1182 6.4498-5.2124l0.14985 0.24932c-1.639 1.4405-4.416 3.7697-5.4595 5.2101z"/>
   <path d="m105.81 111c0.84262-0.0995 2.0338-0.29773 2.9779-0.29773 0.74329-0.44562 1.2904-0.9926 1.9344-1.6852-1.1911-0.19827-3.6727-0.24931-5.7572-0.0995 0.24931 0.54508 0.59808 1.3874 0.84484 2.0822"/>
   <path d="m43.239 96.158c2.7286 0.94876 4.5337 2.7932 5.217 5.7734 0.68335 2.9825 1.3043 7.4517 2.0476 9.8109-0.30951-3.7235-0.18453-7.2646 0.12433-9.4369 0.31147-2.1722-0.0654-5.0301-0.49666-6.0873-0.43384-1.055-0.73642-1.9484-0.89104-2.3869-0.46198-0.10404-1.7683-0.337-2.2184-0.65796-1.0457 1.0688-1.7636 1.8145-3.7835 2.9849"/>
   <path d="m40.173 119.79c2.6801-0.18714 9.7878-1.7498 12.692-2.941 0.81952 0.18714 1.489 0.40832 2.0845 0.74328-2.4954 1.2674-11.948 3.5366-15.222 4.0929 0.37168-0.51957 0.51957-1.0412 0.44562-1.8952"/>
   <path d="m50.631 112.38c0.29774 0.37167 0.67177 0.66947 1.265 0.81723 0.93266-0.29577 1.3782-0.55621 1.8237-0.81723-0.74335-0.48488-2.5301-1.1911-3.2757-1.4889 0 0.22379 0.0759 0.9303 0.18715 1.4889"/>
  </g>
  <g fill="#004a7e">
   <path d="m101.9 125.07c1.7682 2.4747 3.3588 3.0055 4.3306 2.784 0.97186-0.22182 2.9155-0.70873 2.784-3.3126 0.57453 2.0753 0.44104 4.8131-2.4747 5.1686-2.9156 0.35336-4.199-1.9437-4.6399-4.6399"/>
   <path d="m95.406 125.87c0.8841 1.6805 2.1653 2.6939 3.4904 2.6939 1.325 0 2.5624-0.83798 3.0933-2.5624l0.53069 1.3274c-0.79642 2.6939-2.5185 3.091-3.5804 3.091-1.0596 0-3.4904-0.70638-3.5342-4.5499"/>
   <path d="m89.131 124.72c0.61837 2.1214 1.7683 3.3149 3.0056 3.4026 1.2373 0.0903 2.5185-0.13415 3.2687-1.8121 0.0877 0.48488 0.22182 1.459 0.48684 1.9899-0.79642 1.235-1.7683 2.0314-4.0213 1.7221-2.253-0.30952-3.3588-2.253-2.7401-5.3025"/>
   <path d="m82.637 124.06c-0.0877 2.4747 1.0595 3.4927 2.253 3.7558 1.1935 0.26567 2.6062 0.13414 4.0213-1.0595l0.26567 1.2812c-1.415 1.9876-3.7997 2.2092-5.2148 1.4128-1.4128-0.79642-2.9155-2.5185-1.325-5.3902"/>
   <path d="m79.588 120.83c-0.39719 1.4589 0.13415 3.7997 2.8278 3.622l-0.48488 1.4174c-1.7683 0-3.1833-0.79643-3.4026-1.7244-0.22182-0.92802-0.13414-2.1215 1.0595-3.3149"/>
   <path d="m71.061 116.68c0.83798 0.0877 1.9437 0.0458 2.4308-0.48684 0.0877 0.39916 0 1.1058-0.57452 1.3712-0.57453 0.26305-1.4151 0.35074-1.856 0.30951z"/>
   <path d="m72.651 123.44c1.2373-0.30951 3.2249-0.84026 4.2845-1.6805 0.31147 1.018 0.70867 2.3431 0.35532 2.8278-0.35532 0.48685-2.5647 1.856-3.8459 2.2554 0-1.1496-0.35336-2.477-0.79414-3.4027"/>
   <path d="m32.469 122.17c2.6432-0.33504 4.9516-0.89334 5.8057-1.1911 0.85643-0.29773 1.452-1.0412 1.3412-2.0453 0.74335 0.78026 0.96728 2.6778-0.67177 3.2364-1.6367 0.55882-3.9082 1.0803-4.9862 1.265-0.29773-0.44758-0.96721-0.96721-1.4889-1.265"/>
   <path d="m28.747 119.75c0.78255-0.0739 1.6367-0.22379 2.904-0.59547-0.63473 0.44758-1.1172 1.2651-0.81945 2.0845-0.52153-0.37429-1.5628-1.0781-2.0845-1.4889"/>
   <path d="m23.797 122.91c2.754 1.9368 5.0601 3.3149 6.5121 3.2388 1.452-0.0739 3.3495-0.55883 3.6473-2.717 0.59547 0.85643 1.0734 3.1025-2.2323 4.206-1.452 0.48488-4.6146-0.74329-7.9272-4.7277"/>
   <path d="m9.0316 123.81c1.1911 3.3865 5.3163 4.5684 8.959 3.0494 1.3389-0.55621 3.0148-1.4128 4.6515-3.0494-0.14788-0.59808-0.75487-1.1934-1.2905-1.639-1.5374 2.0476-3.9197 4.6538-7.3062 4.356-1.265-0.11321-3.0033-0.2238-5.0139-2.717"/>
   <path d="m10.696 131.06c0.52152 1.8975 2.6593 2.3153 3.7212 1.8605 1.0411-0.44758 5.658-5.7688 8.0403-9.3422 0.14788 0.41094 0.44562 1.1542 0.37168 2.0845-1.5258 1.8606-5.8819 7.1469-6.5883 7.9295-0.70638 0.78026-1.3758 1.1519-2.1953 1.0758-0.81946-0.0739-2.5693-0.5562-2.9779-1.1519-0.40832-0.59547-0.8934-1.4889-0.37168-2.4561"/>
   <path d="m6.119 129.01c0.22379 1.5628 1.8236 2.7909 4.5038 1.8976-0.18715 0.40832-0.26109 1.0065-0.14985 1.5258-1.7106 0.74564-3.0517 0.66947-3.982-0.33438-0.9303-1.0065-1.2651-2.1214-0.37168-3.0887"/>
   <path d="m4.9648 126.67c-0.48226 1.0804 0.11059 1.7498 1.0065 2.4192-0.26305 0.33242-0.44758 0.78255-0.48488 1.265-0.85643-0.26109-1.639-1.1911-1.6759-2.1214-0.03926-0.9326 0.70867-1.265 1.1542-1.5628"/>
   <path d="m4.1464 125.03c-0.14985 0.67177 0.03926 1.2281 0.37168 1.639l-0.66948 0.8934c-0.70867-0.74565-0.81946-1.9345 0.29773-2.5324"/>
   <path d="m60.01 52.94c-1.242 0.84491-2.9779 1.392-4.1183 1.3412-1.886 1.983-3.525 5.0117-4.2175 7.394 0.24669 0.54704 0.6925 1.3897 0.84255 2.0338 2.4816-1.0919 6.1035-5.0116 7.4932-10.769"/>
   <path d="m25.547 59.938c-0.96728-0.96721-3.9082-3.9451-4.7277-4.1298 0.55882 1.8237 3.6473 6.0666 4.8754 7.2924 0.0759-0.48226 0.33503-1.1912 0.52153-1.5628z"/>
  </g>
  <path d="m54.552 105.1c1.2905 2.777 2.2831 4.6146 3.2734 6.9484-0.19631-0.89569-0.64389-2.9779-0.79177-3.772-1.0434-1.392-1.7382-2.5324-2.4816-3.1764" fill="#d9b536"/>
  <path d="m15.646 95.22c0.14985 2.036 0.59547 5.3094 0.64651 7.1954 0.14788-0.59547 0.34616-1.7844 0.44562-2.2831-0.24669-1.6875-0.59547-3.4719-1.0919-4.9123" fill="#d9b536"/>
  <path d="m20.372 89.499c0.63735 1.8652 1.422 3.9728 1.8167 5.0024l-0.39262 1.0296c-0.59089-1.422-1.4728-4.9055-1.4243-6.032" fill="#b94100"/>
  <path d="m73.161 123.31s1.4382 1.6367 1.3897 1.8836c-0.0458 0.24931-1.2419 0.69487-1.2419 0.69487z" fill="#b94100"/>
  <g fill="#0f141b">
   <path d="m37.214 77.801c0.0196 0.0524-0.42926 0.11321-0.66254 0.19173-0.443 0.14985-1.108 0.41356-1.5605 0.63015-0.13873 0.0667-0.35074 0.13153-0.39262-0.0327-0.0393-0.17079 0.12237-0.25847 0.22379-0.31606 0.57976-0.35335 1.7429-0.5032 1.8144-0.51694 0.11321-0.0262 0.53592-0.0654 0.57715 0.0458"/>
   <path d="m32.591 77.463c0.2565 0.1433 0.70638 0.50058 0.85871 0.6556 0.0805 0.0831 0.16425 0.22183 0.0759 0.33242-0.0713 0.0903-0.19369 0.0393-0.31606-0.0759-0.3599-0.33503-0.56537-0.56537-0.741-0.75951-0.12236-0.13415-0.33503-0.31148-0.32063-0.34158 0.0327-0.0739 0.34157 0.13414 0.443 0.18911"/>
   <path d="m29.201 67.58c-0.27222 2.0938 1.1404 3.0079 2.5231 2.7308 0.0903-0.0196 2e-3 -0.26763-0.0877-0.24473-1.1012 0.29774-2.4654-0.60266-2.2277-2.44 0.0131-0.0949-0.1963-0.13873-0.20743-0.0458"/>
   <path d="m41.924 66.948c0.67177 0.84026 0.46656 2.1238-0.44562 2.5508-0.86336 0.40374-1.9114-0.0831-2.2784-0.93724-0.0393-0.0851-0.26109 0.0458-0.2264 0.13414 0.40177 0.9396 1.5882 1.5652 2.6478 1.0688 1.175-0.55424 1.2558-2.0591 0.48226-3.0286-0.0589-0.0713-0.23753 0.13873-0.17995 0.21201"/>
   <path d="m27.331 65.346c1.2673 2.0314 5.8173 7.0268 6.9253 6.893 0.33046-0.0393 0.99725-0.53069 2.3523-1.5536 2.4493-1.8444 6.152-4.6353 9.2915-5.2586 0.55424-0.11059 0.48684-0.43842-0.0667-0.3298-3.4188 0.66254-7.0268 3.3357-9.5038 5.2009-1.0365 0.78026-1.886 1.4312-2.14 1.4612-0.76868 0.0923-4.8338-4.1967-6.5721-6.5906-0.32522-0.44758-0.57911-0.28857-0.28596 0.17799"/>
   <path d="m45.215 65.404c-0.0877 2.3869-1.0595 4.1067-2.6639 4.723-0.94418 0.36251-3.0887 0.5333-4.82-0.54247l-0.26109 0.30035c1.7545 1.1242 4.0051 1.0688 5.2656 0.58631 1.7382-0.66719 2.9248-2.4354 2.9248-5.1663z"/>
   <path d="m32.342 70.785c-1.1865 0.12498-2.283-0.22837-3.0886-0.9926-0.9765-0.92108-1.4659-2.3454-1.3804-4.0074l-0.34877-0.4574c-0.31606 2.0707 0.44104 3.8112 1.4866 4.8016 0.87946 0.83332 2.3407 1.1703 3.6566 0.95104z"/>
   <path d="m55.792 50.733c-2.8463 0.62818-6.5374 1.6506-9.4069 3.2318-0.58893 0.32521-0.49143 0.56078 0.13414 0.31147 3.0956-1.2373 5.8612-2.1491 8.6036-2.7748z"/>
   <path d="m21.447 56.416c0.83797 0.75952 2.9963 2.6109 4.3976 4.4646l-0.35532-1.018c-1.4197-1.8791-2.964-3.061-3.8135-3.832-0.66247-0.60463-1.3596-0.33503-1.3066 0.41814 0.02617 0.35073 0.337 0.35335 0.337 0 0-0.27222 0.24015-0.48946 0.741-0.0327"/>
   <path d="m25.9 63.046c-1.2812-1.3943-4.3768-5.6742-4.8893-7.1262l-0.31606 0.11059c1.0572 2.6409 3.7442 6.032 5.0763 7.4793z"/>
   <path d="m25.65 64.751c-4.7831-4.2291-7.6917-9.2106-7.978-13.671-0.05235-0.83333 0.26763-1.0042 1.0226-0.66248 1.6205 0.73636 3.7743 2.6962 5.0763 4.3745l-0.21725-1.0134c-1.7036-1.9137-3.4026-3.1948-4.7253-3.7951-1.085-0.49404-1.7683-0.18911-1.6852 1.0781 0.29054 4.5476 3.1187 10.102 8.4397 14.285z"/>
   <path d="m52.095 19.098c0.87488 0.38084 1.9898 0.92337 3.5988-0.1734 3.405-2.3292 3.3588-5.7942 2.7539-7.8672 1.1196 1.2512 1.2258 4.3976 0.53069 6.0596-0.16359 0.40178 0.0995 0.58631 0.31148 0.12956 1.2904-2.7886 0.34877-6.1751-0.96728-6.893-0.45936-0.25193-0.84484-0.25651-0.62557 0.43187 1.1404 3.5965-0.21921 6.2743-2.2022 7.6294-1.452 0.9926-2.3707 0.69251-3.241 0.28857-2.4677-1.1449-6.6806 1.055-8.5897 2.6916-1.1934 1.0204-1.6113 2.0522-1.5189 2.6409 0.12236 0.76868 1.0988 1.422 2.0199 1.8098 1.4797 0.61641 1.3481 1.7636 0.99489 2.1745-3.4118 3.9798-5.9188 4.0998-8.3011 4.079-4.5384-0.0393-8.315 1.7036-10.039 4.2429-2.9963 4.4091-3.4603 9.6769-0.83562 13.664 0.4273 0.64389 0.4502 0.87259 0.0694 1.1935-0.7641 0.64847-1.1519 1.5328-1.0826 2.784l0.62557 0.49601c-0.13153-1.2765 0.16359-2.3499 0.90033-2.9709 0.64847-0.54966 0.44759-1.1242 0.0739-1.6759-2.2715-3.3334-2.006-8.7628 0.96034-13.181 1.6228-2.417 5.2955-3.9798 9.3515-3.9798 2.4539 0 5.4064-0.27941 8.9106-4.3699 0.60005-0.69945 0.22641-2.2414-1.1172-2.8047-0.81023-0.33699-1.4613-0.8703-1.5628-1.5212-0.11321-0.72026 0.27679-1.4866 1.1265-2.2161 1.9852-1.7013 5.8149-3.5504 7.8556-2.6616"/>
   <path d="m46.664 74.652c1.0619-1.3828 2.0222-2.8625 2.4585-3.9128 0.23753-0.57453-2e-3 -0.70867-0.29774-0.16163-0.54704 1.0226-1.7821 2.7078-2.62 3.7744z"/>
   <path d="m29.119 69.938c-0.34157 5.1617 1.7083 8.839 4.4322 9.5985 2.9433 0.81953 7.0546 0.71797 9.123-0.67634 1.3966-0.93953 2.4677-2.4516 2.8509-3.7789 0.13415-0.45478-0.0327-0.97415-0.42468-1.055-0.22379-0.0458-0.25847 0.20808-0.0667 0.33241 0.14527 0.0949 0.20809 0.3069 0.10862 0.61641-0.44562 1.3942-1.4774 2.4469-2.7539 3.4419-1.6252 1.265-5.7896 1.3666-8.6636 0.5634-2.5739-0.7156-4.2106-4.0744-4.2683-8.7651z"/>
   <path d="m46.832 74.458c-0.66025 0.98802-1.8283 2.163-3.1118 3.1372l-0.8703 1.0203c1.9276-1.0642 4.0606-3.1972 4.767-4.6446z"/>
   <path d="m27.11 80.612c-0.78719 2.4793-1.8375 6.2605-2.3062 8.5782-0.12694 0.63277 0.14331 0.69709 0.33045 0.0785 0.70638-2.3384 1.5236-5.1986 2.5301-8.4212z"/>
   <path d="m22.719 91.462c-0.15443-1.6574-0.52611-5.2055-0.7018-7.7333 0.85414 1.3482 2.2969 4.1136 3.0079 5.4133l0.20547-0.71332c-0.8241-1.5051-2.2507-4.019-3.0333-5.1917-0.29773-0.44562-0.55424-0.40374-0.55882 0.20285-0.01963 2.5323 0.31606 5.5287 0.74329 8.0772 0.06544 0.38084 0.38542 0.47768 0.337-0.0523"/>
   <path d="m21.967 95.209c-0.32522-1.0365-0.9926-3.3911-1.4889-5.4248 0.50778 0.37888 1.4173 1.1404 2.0545 1.7152l-0.01963-0.65305c-0.7249-0.68793-1.5928-1.2488-2.0453-1.5605-0.40636-0.28399-0.55882-0.21267-0.46656 0.27941 0.44758 2.3615 1.2697 5.284 1.6205 6.399z"/>
   <path d="m16.143 120.43c-0.63473 3.3749-2.6063 4.8524-4.0698 4.416-1.7498-0.52153-1.6044-3.7027-1.1173-5.8311 0.48488-2.1099 1.8306-5.2747 3.7466-5.037 1.2858 0.15901 2.193 2.4608 1.4405 6.4521m0.66941 0.0739c0.78026-4.1437-0.19173-6.7592-2.0338-6.9899-2.2715-0.284-3.7927 2.6293-4.416 5.3509-0.61837 2.6986-0.27941 5.8911 1.5697 6.4405 1.8837 0.56078 4.2291-1.3504 4.88-4.8015"/>
   <path d="m24.231 123.66c-0.53527 0.22183-7.6247 9.1183-8.5573 10.159-0.29054 0.32588-0.82181 0.50321-1.4982 0.50582-1.0896 2e-3 -2.32-0.4502-2.8647-1.0526-0.42468-0.46852-0.51694-1.0711-0.45282-1.6483 0.06544-0.58892 0.40636-0.98802 0.94189-1.3666 0.78026-0.55163 3.4188-3.0956 4.4922-4.0444l-1.1426 0.22379c-1.0665 0.93953-3.1303 2.8094-3.8966 3.3495-0.61379 0.43646-1.0411 1.1034-1.115 1.789-0.07394 0.67642 0.15443 1.5652 0.64389 2.1076 0.61183 0.67635 2.0107 1.2881 3.4742 1.2881 0.98108 0 1.4289-0.28399 1.886-0.79178 0.93724-1.0457 8.0611-9.8686 8.5597-10.074z"/>
   <path d="m34.199 124.55c5e-3 1.0827-0.70409 2.3107-2.754 2.8094-2.0037 0.48946-4.3906-1.6228-6.1219-3.0886-2.0407-1.7267-2.0684-3.0449-1.8976-3.9844 0.12433-0.68557 0.49862-0.88182 1.0596-0.44562 0.47572 0.36906 1.3181 0.83562 1.7313 1.0804 0.40832 0.24015 0.5333 0.0262 0.5032-0.29774-0.0589-0.53068-0.16621-1.976-0.17079-2.6616 1.3597 1.4497 3.9913 3.338 4.543 3.742 0.35074 0.25651 3.1025 1.3689 3.1072 2.8463m-8.1234-6.8584c0 0.57715 0.17079 2.3223 0.20808 2.8048-0.48946-0.24735-1.2673-0.69951-1.6459-0.99267-0.74328-0.57976-1.452-0.443-1.6574 0.69945-0.18715 1.0203-0.25389 2.5716 1.9067 4.4253 2.1353 1.8329 4.4368 3.9751 6.7637 3.4304 2.1214-0.49862 2.9641-1.9945 3.0771-3.405 0.15901-2.0014-2.7793-2.8417-3.4442-3.3172-1.8236-1.3089-3.8089-3.0934-4.5846-3.9059-0.37429-0.39262-0.6236-0.3298-0.6236 0.26109"/>
   <path d="m46.558 83.689c1.6898 1.1103 2.2184 5.2032 0.99725 7.9918-1.272 2.8948-5.2586 5.2286-7.2185 4.3306-2.8647-1.3111-1.482-6.0873-0.75716-8.0772 1.4659-4.012 5.5288-5.1963 6.9784-4.2452m0.46394-0.52872c-1.9599-1.4774-6.4082 0.21725-7.9295 4.2429-1.7844 4.7276-1.115 8.0749 1.0804 9.0837 2.3476 1.0757 6.6621-1.5536 8.038-4.6908 1.1866-2.7054 0.97415-7.0014-1.1888-8.6358"/>
   <path d="m40.582 95.22c-1.0826-0.17995-1.1219-2.043-0.8934-3.832 0.27941-2.1792 1.452-3.3149 2.0106-3.1511 0.89798 0.25651 1.1381 2.507 0.97879 3.989-0.17537 1.6413-1.4012 3.1118-2.096 2.9941m-1.3735-3.8966c-0.25651 2.0129-0.0327 4.1182 1.2765 4.3629 0.89569 0.16621 2.4978-1.3204 2.7516-3.7004 0.13414-1.2443 0.16163-3.9983-1.3527-4.3953-1.1566-0.30494-2.3685 1.3458-2.6755 3.7327"/>
   <path d="m54.357 78.479c-0.46394 0.49404-1.6182 0.73871-2.5554 0.66948l-0.44758 0.40832c1.0041 0.15901 2.7447 7e-3 3.2941-0.81717z"/>
   <path d="m60.084 109.07c1.6759-4.9516 4.5038-13.957 5.621-18.313 0.21921-0.86337-0.12956-1.0503-0.39261-0.20089-1.1358 3.6612-4.2221 13.301-5.8242 17.731z"/>
   <path d="m101.58 120.22c-0.16424-2.5462 0.87259-2.8348 2.4908-2.9849 1.5512-0.14331 2.7447 0.74106 3.3588 2.4931 0.81023 2.3084 1.2835 4.7323 1.4451 6.1058 0.20089 1.7429-0.28137 2.7447-1.5697 3.248-1.5906 0.61837-3.1857 0.0713-4.266-1.4682-1.0826-1.542-1.2996-4.9031-1.4589-7.3939m6.3944-1.0088c-0.66248-1.8837-2.1376-2.8532-3.8343-2.6939-1.6436 0.14985-3.4465 0.53985-3.2526 3.3726 0.1734 2.5347 0.60005 6.8514 1.7383 8.4696 1.175 1.676 3.1833 2.1976 4.9285 1.5166 1.886-0.73635 2.1676-2.5762 2.0291-3.7696-0.16162-1.392-0.78948-4.5615-1.609-6.8953"/>
   <path d="m105.08 109.27c1.5582-0.14331 3.989-0.24212 5.2079-0.11059-0.65305 0.57453-1.5236 1.3066-2.0084 1.6275l0.92337-0.0654c0.83103-0.52872 1.2419-0.96721 1.6482-1.3712 0.37625-0.37887 0.26305-0.61379-0.26764-0.68328-1.5605-0.20285-3.9243-0.17995-5.868-0.0589z"/>
   <path d="m77.517 82.1c2.7956-2.0614 6.6622-1.3505 8.7005 0.84255 4.3306 4.6562 3.4627 9.7208 0.60921 12.152-1.923 1.6366-6.3021 0.78948-8.9013-2.7933-2.9525-4.0674-3.1695-8.1649-0.40832-10.201m-0.44104-0.61183c-2.8901 2.1307-3.1072 6.5606 0.3069 11.263 2.7909 3.8482 7.6686 4.7 9.9609 2.747 2.9825-2.5392 4.0998-7.8926-0.57715-12.923-2.5323-2.724-6.8676-3.1695-9.6908-1.0873"/>
   <path d="m81.155 92.628c-1.3435-1.826-1.616-4.2406-0.34158-5.0808 1.4266-0.94188 3.682-0.10601 4.7507 1.6598 0.77103 1.2719 1.706 3.7627 0.32784 5.0346-1.1012 1.0158-3.7028-0.20547-4.7369-1.6136m-0.6787-5.6302c-1.5859 1.0457-1.3827 3.7812 0.23753 5.9835 1.4866 2.0222 4.1829 2.7539 5.4733 1.5997 1.5582-1.3966 1.0203-3.9798-0.13611-5.7134-1.235-1.8537-3.6682-3.1303-5.5749-1.8698"/>
   <path d="m86.045 99.071c1.482 0.61641 3.2226 4.5361 3.7051 6.6852 0.14068 0.62557 0.43645 0.56079 0.33045-0.0759-0.39458-2.3223-2.1815-6.5882-3.9428-7.0361-0.45936-0.11516-0.53068 0.24474-0.0923 0.4273"/>
   <path d="m90.039 78.597c1.7313-0.38345 3.1441-0.91643 4.5106-1.6644 0.5261-0.28596 0.40897-0.49404-0.14985-0.64389-2.373-0.63931-6.0042-0.99267-7.8348-0.92343-0.56995 0.0196-0.56995 0.33699 0 0.33699 1.4358 0 5.1501 0.42468 7.5416 1.0019-1.3897 0.68558-3.1487 1.265-4.7692 1.5951z"/>
   <path d="m8.824 120.53c0-5.1847 2.8209-9.303 5.5057-13.283 0.41094-3.4627 0.78255-6.4105 1.422-11.267 0.21267 0.9303 0.58892 3.1556 0.81258 4.5985l0.32325-1.0434c-0.29773-1.9183-0.58631-3.1049-0.8934-4.266-0.21201-0.79871-0.47768-0.85879-0.59547 0.0262-0.71103 5.3948-1.055 8.0034-1.489 11.662-3.3242 4.2683-5.6695 8.1626-5.6695 13.647 0 4.0259 2.7909 6.5144 6.4752 6.2166 3.8043-0.30951 8.2873-4.0097 8.996-9.9124 0.26109-2.1814 0.49666-6.055-2.7055-10.298-0.86794-4.4483-1.8329-10.028-2.2092-12.754-0.12236-0.91178-0.44562-0.84713-0.66941-0.0739-0.75022 2.6016-1.4151 4.887-1.8975 8.3588-0.08572 0.62099 0.23099 0.67176 0.33503 0.0589 0.44562-2.6824 1.1727-5.3856 1.8606-7.8002 0.43646 3.0032 1.3273 8.495 2.1237 12.567 0.0046 0.0262 0.01309 0.0523 0.03272 0.0694 1.886 2.4562 2.7793 6.2928 2.3615 9.7739-0.66018 5.5172-4.6215 9.1576-8.345 9.4577-3.2687 0.26763-5.7711-2.2392-5.7711-5.7342"/>
   <path d="m57.033 108.1c-0.59547-0.96956-1.4636-2.3569-2.2323-3.1649-0.31868-0.33699-0.68793-0.443-0.55883 0.26109 0.28596 1.5928 1.6367 8.2989 2.0083 10.086-0.37168 5.3602 1.1681 12.422 7.4447 14.405 3.2895 1.0388 7.6248 0.98108 9.49-1.1172 2.0845-2.3431-0.8841-10.51-8.9706-13.659-2.1215-3.6842-5.6187-8.8205-7.4424-11.09-0.39-0.48488-0.70638-0.55882-0.63276 0.18453 0.26567 2.6454 0.9303 5.6926 1.4774 7.8256 0.19369 0.75716 0.48488 0.6164 0.33045-0.0668-0.36251-1.7406-1.0088-4.8523-1.3112-7.387 1.729 2.4031 5.2448 7.6779 7.1561 10.831 0.0131 0.0262 0.0393 0.0523 0.0667 0.0654 9.2684 4.8569 9.984 11.577 8.8044 12.853-1.5813 1.7083-5.875 1.8468-8.7767 0.93031-6.0712-1.916-7.0407-9.49-7.0776-13.834-0.1662-0.9996-1.7775-8.1857-2.0707-9.7093 0.48684 0.55882 1.983 2.8163 2.4054 3.4442z"/>
  </g>
  <path d="m81.68 13.228c-1.639 0.12694-5.4456 2.2738-6.2674 4.2245-0.26763 0.63473-0.46133 1.6852-0.41814 2.4954 0.0458 0.74794-0.28595 1.3274-0.88417 1.9091-0.77332 0.75022-1.5651 1.2881-2.0845 1.512-0.60267 0.25651-0.97186 0-0.92108-0.68793 0.0654-0.88411 0.0851-0.90956-0.57257-0.58892-0.23557 0.1132-0.43187 0.17798-0.57256 0.18256-0.32064 7e-3 -0.33961-0.33241 0.0949-0.81952 0.33242-0.37364 0.72948-1.392 0.20285-1.9598-0.45674-0.49666-1.5005-0.85184-3.8459-0.27221-2.6524 0.65305-9.1345 4.1575-11.046 9.4692-0.34158 0.95111-1.4359 2.2184-2.35 3.0748-0.97644 0.91879-2.133 1.9876-3.1787 1.2743-0.48684-0.33241-0.56995-1.1866-0.0857-2.073 0.75029-1.3758 0.13872-0.91185-0.73635-0.45217-2.0984 1.1011-4.0905 3.8435-4.8362 4.8084-0.24931 0.32522-0.59351 0.9765-0.59351 1.6367 0 1.0688 0.34158 2.874-1.6066 4.5384-0.87488 0.74564-2.1792 1.8698-2.6062 2.7494-0.106-0.61183 0.56995-2.8855 2.0292-4.2844 0.46852-0.4502 0.22379-0.63931-0.34877-0.64389-3.7836-0.0393-6.803 5.2124-8.0264 9.8617-0.57714 2.1907-0.8934 5.9927 0.41094 9.0075l0.24015-0.75487c-0.65109-2.32-0.57911-5.9004-0.0262-8.0218 1.235-4.6977 3.9105-9.3515 7.177-9.5385-1.8606 2.0014-2.1607 4.2821-1.7867 5.127 0.16817 0.38084 0.39916 0.54966 0.59547-0.0995 0.32064-1.0665 1.7706-2.1146 2.777-2.9756 1.7867-1.5259 1.6666-3.3865 1.6275-4.8431-0.0196-0.64847 0.24015-1.108 0.47114-1.4058 0.77332-0.99724 2.8994-3.6727 4.7185-4.6792-0.54705 1.0018-0.43842 2.1076 0.23099 2.5646 1.2673 0.86572 2.8116-0.24473 3.8205-1.1911 0.95569-0.89569 2.1445-2.4954 2.5069-3.4996 1.7613-4.8962 7.7864-8.3265 10.677-9.0398 2.1769-0.53527 2.8694-0.17537 3.2595 0.24931 0.38542 0.41552 0.0262 0.97414-0.21725 1.2488-0.47114 0.54509-0.49404 1.0919 0.0995 1.4659 0.22379 0.13611 0.55883 0.0713 0.92337-0.106-0.27679 1.1127 0.91185 1.6021 1.4774 1.3874 0.75258-0.28595 1.639-0.97879 2.4354-1.6482 0.71332-0.59809 1.048-1.512 1.0019-2.3616-0.0393-0.741 0.12891-1.6666 0.38346-2.2715 0.76639-1.8167 4.2775-3.8736 5.8034-3.9913 0.9534-0.0739 1.6944 0.64389 1.3689 1.1773l0.35794 0.5032c0.68099-0.78949-0.0458-2.3846-1.6829-2.2577" fill="#fcd13f"/>
  <g fill="#0f141b">
   <path d="m27.879 56.141c-0.87259-1.0711-2.8948-2.7148-4.1921-3.622-0.41094-0.28661-0.78948-0.16163-0.59808 0.5935 0.74564 2.9294 1.9114 6.8746 3.1279 8.8114l0.27221-0.62361c-1.0342-1.422-2.5046-6.5975-2.8902-8.1326 1.6297 1.1657 3.592 2.8486 4.2798 3.6935z"/>
   <path d="m38.746 49.642c-1.9044 1.639-4.9216 5.5079-6.0551 9.8986-1.4128-2.7678-2.8948-5.0462-4.4899-6.9969-0.36709-0.4502-0.5104-0.47768-0.59547 0.22379-0.29773 2.4562 0.0524 5.104 0.48685 6.96 0.13414 0.58631 0.45478 0.43188 0.32783-0.0739-0.29773-1.2881-0.56536-5.0994-0.40832-6.6437 1.5721 1.9876 3.0748 4.483 4.4322 7.2001 0.36447 0.73635 0.49404 0.46656 0.62098-0.0995 0.95805-4.2729 3.9867-8.165 5.9535-9.9655 0.0262 0.9095-0.22379 3.9382-0.49142 5.5864-2e-3 7e-3 -2e-3 0.0196-2e-3 0.0262 0 0.4502 0.21267 0.45216 0.33504 0.0262 0.43384-1.475 0.76638-4.086 0.63276-5.8426-0.0458-0.5935-0.20285-0.76409-0.74564-0.29773"/>
   <path d="m47.381 53.711c0.56995-1.8629 1.2026-4.1944 1.0411-7.2946-0.0262-0.48685-0.29774-0.54508-0.79413-0.22379-2.994 1.946-6.1058 4.9239-8.7097 8.1395l-0.13152 0.93953c2.537-3.2433 6.0943-6.5952 9.1438-8.6405-0.0327 3.091-0.74794 5.5957-1.2212 7.3524z"/>
   <path d="m63.59 50.316c0.46852-0.0131 1.6251-0.0458 2.0752-0.0589-0.66941 0.74335-1.9183 2.1261-2.6108 2.8417l-0.12432 0.7641c0.89339-0.80336 2.5393-2.6732 3.2849-3.4973 0.54509-0.60266 0.32064-0.71561-0.23295-0.69944l-2.373-0.0393z"/>
   <path d="m53.137 66.166c7.5855-3.0033 11.489-12.431 10.942-20.197-0.0524-0.78255-0.55424-1.205-1.8121-0.62361-4.6399 2.1607-9.8247 7.1469-11.935 13.253l0.28857 0.50582c2.2046-5.8426 7.8557-11.473 11.824-13.343 0.83568-0.39261 1.1565-0.20285 1.175 0.26567 0.28596 7.5602-3.3865 16.591-10.614 19.672z"/>
   <path d="m52.598 64.029c4.633-2.7286 7.5602-8.3842 7.8833-12.403 0.0589-0.75945-0.38542-1.0526-1.2142-0.56995-3.2018 1.8606-6.7014 6.1266-7.6202 10.49l0.27483 0.55162c0.82875-4.042 4.5684-8.8436 7.5624-10.686 0.42272-0.26109 0.58893-0.0949 0.56341 0.13415-0.45217 3.8758-3.6981 9.6816-7.6294 12.041z"/>
   <path d="m28.45 69.149c-1.2004-0.88639-2.44-2.1676-2.6662-2.7908-0.33242-0.92337 0.44104-4.9147 1.1519-5.1778 0.62753-0.23557 3.8874 3.1833 5.8311 5.8796 0.15246 0.21005 0.34419 0.26109 0.56995-0.0262 3.7166-4.6838 9.3492-8.4627 10.52-8.7674 1.0642-0.27679 4.7646 0.27484 6.0297 3.6081 0.45478 1.1981-0.44562 3.9382-0.88646 4.3999-0.48488 0.5104-3.518 2.3753-4.8223 2.8324l-0.36971 0.48226c1.5374-0.22183 5.067-2.3616 5.5818-2.9018 0.50321-0.52872 1.6828-3.6034 1.1658-4.9631-1.265-3.3311-4.5153-4.4668-6.6991-4.1436-1.3597 0.20089-7.0708 4.3421-10.792 9.1067-1.1426-1.7382-5.0116-6.5513-6.3274-6.1312-1.3966 0.4502-1.7267 5.0693-1.4382 5.9326 0.37168 1.115 2.4308 2.8279 3.8205 3.4488z"/>
   <path d="m34.55 72.034c-0.99037-0.69715-1.6067-1.8791-1.8444-2.7424-0.16359-0.60005-0.46656-0.51695-0.32522 0.0903 0.21921 0.93488 0.62295 1.9321 1.4959 2.6246z"/>
   <path d="m30.129 75.186c-1.4566-1.078-2.8556-2.6685-2.9987-3.2964-0.17341-0.75952-0.15247-2.1146 0.29577-3.2734l-0.34419-0.21463c-0.56341 1.1034-0.68558 2.8255-0.50059 3.6381 0.24015 1.055 2.9987 3.5042 3.8643 3.9497z"/>
   <path d="m46.524 74.951c2.4538-1.5143 6.8076-3.6242 7.2093-5.7064 0.43188-2.2507-0.92107-6.7291-3.6035-11.392-0.32064-0.55621-0.56341-0.3599-0.30035 0.15246 2.5762 5.037 3.6427 9.3099 3.2595 11.166-0.30952 1.4912-4.266 3.7812-6.5652 5.1593 0.48684-2.4031 0.741-4.6445 0.83104-6.5583v-0.0131l-0.36252 0.24931c-0.18715 1.8468-0.54443 4.2499-1.048 6.6253-0.0694 0.32326 2e-3 0.67635 0.57911 0.32064"/>
   <path d="m27.358 72.765c-1.018 2.3569-1.8652 6.8052-0.12433 8.2896 0.66947 0.56995 2.8417-0.9303 4.176-3.2388l-0.30493-0.30951c-0.59547 1.115-3.0171 3.3911-3.5227 3.0241-1.4174-1.0204-0.69716-5.1109 0.14985-7.3962z"/>
   <path d="m26.551 78.622c0.66247 0.42009 2.0106-0.29316 2.7863-3.7235l-0.36709-0.32064c-0.56995 2.6062-1.9091 3.8781-2.3823 3.5227z"/>
   <path d="m19.892 102.02c0.56995-1.8375 1.5836-5.1455 2.3546-7.1215 0.21921-0.56078-0.08049-0.72941-0.337-0.18256-0.9534 2.0199-1.6737 4.1275-2.2623 6.0643z"/>
   <path d="m29.591 120.23c-1.579-2.1977-2.6454-4.2129-2.6547-5.0139-0.0995-7.8926 3.3265-22.286 4.3399-24.873 0.97186-2.4746 4.3283-7.874 6.8122-10.607l-1.0434 0.0739c-2.4747 2.8255-5.3579 7.4447-6.4752 10.349-1.0019 2.6085-4.2798 17.179-4.1806 25.109 0.0131 1.0711 1.1911 2.9017 2.3084 4.3421z"/>
   <path d="m3.9107 127.95c-1.018-0.74329-0.92795-1.8259-0.79407-2.2091 0.17798-0.51236 0.51956-0.94189 1.4889-1.2397 1.2765-0.39457 3.3357-0.87946 4.5153-1.1657l0.22183 0.48685c-1.3135 0.38083-3.6981 0.91643-4.5661 1.1911-0.48946 0.15246-0.89333 0.46394-1.0364 0.8703-0.15247 0.43842-0.12695 1.0249 0.38542 1.4936z"/>
   <path d="m5.5971 130.78c-1.2396-0.27483-1.886-1.4012-2.0591-2.2092-0.29315-1.3689 0.741-2.1376 2.0338-2.5901 1.5697-0.54966 3.1302-1.2212 4.1436-1.579l0.337 0.40832c-1.4035 0.60921-3.1303 1.2904-4.1806 1.7244-0.72025 0.29774-1.9737 0.72026-1.7129 1.9368 0.12236 0.57453 0.57715 1.3158 1.4635 1.6621z"/>
   <path d="m10.535 132.07c-0.85414 0.47768-1.8537 0.801-2.7678 0.49666-0.83797-0.2768-1.4012-0.89569-1.699-1.5628-0.53985-1.2189-0.0458-1.7937 1.0711-2.3293 1.3689-0.65554 3.4281-1.699 4.73-2.4885l-0.49142-0.29577c-1.2904 0.78491-3.3518 1.7314-4.7138 2.3823-1.0042 0.4803-1.9368 1.3851-1.2396 2.9548 0.33438 0.75022 1.2604 1.6274 2.1814 1.9344 1.0065 0.33241 2.2392 0.0262 3.1765-0.49601z"/>
   <path d="m23.065 125.37c0.24669-1.265-0.26763-2.4285-1.5628-3.2918l-0.34877 0.38803c1.302 0.86795 1.6829 2.2346 1.2165 3.6727z"/>
   <path d="m51.222 71.737c0.22838 5.471 4.88 10.718 10.947 12.281 1.0226 0.26567 2.7217 0.19369 3.7212-1.1542 3.2664-4.3998 4.3214-9.1529 2.9779-14.031-1.0296-3.7374-4.4668-7.7794-10.122-7.1469l-0.30231 0.55621c5.6118-0.51956 8.6889 3.2087 9.6978 6.8722 1.3135 4.7738 0.3972 9.1899-2.8025 13.502-0.66941 0.90256-1.6689 1.1496-3.1486 0.78019-5.6257-1.4081-10.136-7.0938-10.48-12.032z"/>
   <path d="m57.674 75.13c-1.235-1.8329-1.5536-4.5107 0.21921-6.0827 1.6597-1.4682 3.989-1.0896 5.1224 0.18453 1.452 1.632 0.75487 3.8274-0.59809 4.5522-0.59546 0.32064-0.4731 0.53331 0.15901 0.29774 1.8999-0.70874 2.4562-3.1649 0.93031-5.2125-1.205-1.6159-4.2175-1.9737-6.0273-0.37168-1.9206 1.7013-2.0476 4.4691-0.41094 6.9969 1.9137 2.957 7.1077 6.7498 9.677 5.5171l0.40832-0.60463c-1.7313 1.1334-6.5606-0.94188-9.4808-5.2771"/>
   <path d="m52.984 76.563c-1.7775-0.83569-4.8223-1.3966-6.4198-1.4058l-0.18911 0.43188c1.5582-0.0458 4.9631 0.66947 6.7152 1.5697z"/>
   <path d="m44.281 77.409c1.4728 1.3759 4.3421 2.4285 6.115 2.3616 2.3084-0.0805 2.4631-1.1173 1.4844-1.7383-0.70174-0.44759-2.2022-0.8472-3.4326-0.8472-0.47572 0-0.52872 0.27025-0.0523 0.29053 1.0342 0.0523 2.6085 0.46198 3.2664 0.87953 0.60267 0.38345 0.30951 0.96263-1.2789 1.018-1.512 0.0458-4.2706-0.96034-5.6857-2.2854z"/>
   <path d="m63.431 53.051c4.8915 1.8121 8.3404 3.7859 10.427 8.0057 2.1884 4.423 5.1501 11.318 6.4244 14.289 0.20547 0.4803 0.52153 0.39457 0.34616-0.0995-1.3158-3.7212-4.1113-10.259-6.302-14.689-2.1376-4.3191-5.4525-6.2466-10.42-8.0888z"/>
   <path d="m68.78 70.418c3.5573-4.259 3.6865-11.66 1.8259-14.028l-0.94411-0.44758c2.2876 2.0707 2.2322 9.4069-0.99266 13.871z"/>
   <path d="m73.26 59.541c1.0688 5.5956-0.36448 13.733-4.5661 16.847l-0.14789 0.51498c4.6146-2.4008 6.2513-10.737 5.3094-16.545z"/>
   <path d="m63.412 93.175c-0.3599 0.17798-0.39262 0.1361-0.37887-0.33504 0.0131-0.52152 0.15704-2.26 0.17994-3.3056-0.76867 0.46394-1.7544 1.055-2.4031 1.4312-0.35335 0.20547-0.60463 0.0949-0.40832-0.39262 0.54443-1.362 1.1496-2.7378 1.8144-4.6284l0.34878 0.46852c-0.60463 1.5421-1.3528 3.3472-1.7567 4.1598 0.61641-0.35794 1.9506-1.1981 2.3153-1.452 0.3743-0.26109 0.4502-0.18714 0.43842 0.25651-0.0131 0.6579-0.10404 2.6316-0.11778 3.3195 0.5261-0.23296 1.1311-0.59547 1.6598-0.97415l-0.13414 0.53069c-0.42468 0.32979-1.2558 0.77103-1.5582 0.92107"/>
   <path d="m74.86 92.391c0.48226 0.77103 0.76874 1.1542 1.3274 1.7498 0.27221 0.29054 0.41551 0.27025 0.47114-0.14984 0.0995-0.74336 0.27221-1.4382 0.39719-2.0315l-0.37167-0.48488c-0.13611 0.69251-0.27222 1.4266-0.37364 2.2461-0.50779-0.6465-0.9165-1.2904-1.1773-1.7128z"/>
   <path d="m79.884 73.871c2.7055 0.0262 8.7836-0.64651 10.051-0.72019 0.28857-0.0131 1.1103 0.0668 0.37168 0.58173-0.57257 0.39719-1.886 1.265-2.6801 1.8605l-0.69486-0.0458c0.8934-0.6465 2.2577-1.5374 2.8279-1.8606-1.9114 0.14788-7.941 0.86794-9.6008 0.82639z"/>
   <path d="m88.395 78.125c-0.69709-0.19369-0.40374-0.51694 0.0995-0.34615 3.7466 1.2535 14.416 6.6991 16.972 8.1373 0.83104 0.46853 1.0434 0.84256-0.12433 0.85179-2.8787 0.0262-7.9411-0.90027-10.718-1.5466 0.74329 0.91879 1.0503 1.2858 1.235 1.5628 0.56537 0.84491 0.17537 0.75945-0.61641 0.49666-0.29773-0.0995-0.59546-0.22379-1.0157-0.44759 1.115 1.265 2.2276 2.3615 2.9525 3.1533 0.66948 0.73177 0.4731 0.91879-0.32325 0.75258-1.5281-0.31867-2.53-0.63015-3.4488-0.92801l-0.56995-0.69251c1.5143 0.47114 2.9525 0.81716 3.8713 1.0896-0.89798-0.97643-2.043-2.1653-3.0033-3.3495-0.42272-0.51956-0.26567-0.74099 0.44758-0.44562 0.33241 0.13611 0.56995 0.2467 1.0411 0.3972-0.32326-0.59547-0.68329-1.0111-0.9926-1.5374-0.32522-0.56078-0.0327-0.62099 0.49666-0.49666 2.6547 0.61837 8.2572 1.512 10.67 1.512-3.7212-1.736-15.806-7.8394-16.972-8.1626"/>
   <path d="m94.003 33.438c5.8588 1.1819 16.318 4.7923 19.631 17.611 3.562 13.784-9.6146 27.29-20.988 28.821l0.96027 0.46198c11.362-1.736 24.396-15.487 20.781-29.474-3.3588-12.994-14.128-16.974-20.044-18.253-4.8131-1.0412-10.065-2.1076-9.5454-5.6164 0.33961-2.2992 2.6847-3.7028 8.7375-2.7609 6.6367 1.0342 13.396 4.5453 18.541 9.6377 5.2932 5.2355 8.4396 11.565 8.8598 17.821 0.92566 13.814-7.3916 25.01-22.817 30.723l0.64651 0.45478c15.979-6.0527 23.77-16.969 22.842-31.224-0.44104-6.736-3.7674-13.13-9.1207-18.426-5.194-5.1363-12.225-8.8044-18.929-9.8478-6.8214-1.0642-9.2592 0.741-9.677 3.5735-0.56798 3.8205 3.9682 5.2586 10.122 6.4982"/>
   <path d="m72.093 88.024c-0.91649-1.7613-2.7978-7.6917-3.5966-10.99l-0.39719 1.0919c0.86565 3.4003 2.7655 8.7998 3.6704 10.471z"/>
   <path d="m74.699 90.035c0.29054-1.6574 0.49666-4.3675 0.54443-6.302 0.0131-0.62296-0.16359-0.62557-0.54443-0.14985-0.99266 1.2419-2.1584 3.151-3.0726 5.007-0.1662 0.3442 0.11779 0.49863 0.29774 0.16163 0.71096-1.3158 2.1353-3.4488 2.9109-4.6077-0.15705 2.0984-0.39458 5.0001-0.65789 6.4867z"/>
   <path d="m75.518 88.646c-0.48685 0.48684-1.0157 1.1404-1.4428 1.9068-0.20089 0.3599 0.0196 0.52873 0.26763 0.20286 0.4803-0.62099 0.90033-1.0688 1.3736-1.5397z"/>
   <path d="m74.972 122.76c-1.0804-0.52153-2.507-1.6667-2.941-2.5301-0.76409-1.5305-0.8472-3.7442-0.66483-7.1353 0.28858-5.4203 1.8375-14.696 2.3107-16.695 0.3972-1.6737 1.5074-3.6866 2.5601-5.9442l-0.37168-0.81952c-1.0642 2.2784-2.387 4.8823-2.7909 6.5883-0.47572 2.0083-2.0915 11.341-2.3823 16.785-0.18453 3.4442-7e-3 5.8058 0.83333 7.3962 0.61641 1.1634 1.8098 2.0961 2.8509 2.6155z"/>
   <path d="m65.444 90.68c-0.85185-1.6736-2.8925-5.0647-4.5776-7.4055l-0.93724-0.30951c1.7475 2.3638 4.4137 6.9946 5.2171 8.6451z"/>
   <path d="m63.831 129.19c-2.0338-1.0919-3.1395-3.1094-3.3172-4.3145-0.27483-1.8768 0.443-2.56 2.0152-2.3985 1.8006 0.18257 3.4811 2.2369 4.7346 4.3907 0.95111 1.6367 0.83568 2.5947-0.0831 2.9917l0.64389 0.0739c0.69709-0.49666 0.96028-1.3551-0.12236-3.375-1.1173-2.0822-2.994-4.3052-5.1016-4.5776-1.7844-0.23099-2.9179 0.80565-2.6155 2.8671 0.16882 1.1473 0.8934 2.8786 2.5324 3.9705z"/>
   <path d="m73.463 127.1c0.76868-0.25651 2.2553-0.81952 3.0171-1.2881 0.70402-0.43384 1.228-0.95569 1.228-1.669 0-0.69945-0.496-2.9594-1.0226-4.5107-0.52872-1.5513-3.3911-0.9095-5.3025-0.52873l0.14985 0.63277c1.5859-0.31867 4.2406-0.85185 4.55 0.0523 0.56341 1.6367 0.98338 3.5227 0.98338 4.1136 0 0.58631-0.26764 0.97186-0.90027 1.2881-0.64389 0.32522-1.9529 0.93031-2.7055 1.1819z"/>
   <path d="m73.502 125.55c0.30493-0.0458 0.52414-0.16883 0.7641-0.33504-0.30232-0.59088-1.0273-1.4081-1.2858-1.6736-0.13873-0.1433 0-0.44562 0.14788-0.48488 0.70174-0.17079 1.8375-0.43188 2.1676-0.55424 0.5863-0.22183 0.67405 0.0393 0.17798 0.31147-0.66947 0.3743-1.422 0.54247-1.916 0.66948 0.49404 0.54247 0.98802 1.145 1.2281 1.5836 0.11058 0.20547 0.0851 0.44562-0.0923 0.53789-0.39 0.20547-0.66941 0.29773-1.1796 0.35335z"/>
   <path d="m75.455 119.08c-0.45936-0.61379-1.7175-1.4543-2.2692-1.676l-0.63277 0.29773c0.51956 0.13153 1.6505 0.77562 2.2276 1.3412z"/>
   <path d="m71.156 118.15c1.5905 0 2.6062-0.39 2.717-1.4128 0.1433-1.3043-0.62819-2.066-2.7909-2.0106l0.0523 0.6164c1.8537-0.0458 2.3061 0.47311 2.1814 1.3181-0.106 0.69487-0.76409 0.83797-2.1976 0.91185z"/>
   <path d="m46.688 83.579c2.8301-0.68329 8.8344-1.3412 13.253-0.64651l-1.4566-0.81259c-4.4576-0.51694-9.864 0.29774-12.394 1.1173z"/>
   <path d="m46.741 93.374c1.6413 1.0249 5.2747 0.81252 6.5467 0.75251 3.4096-0.15443 8.4581-0.21463 11.106 0.35794l0.17341-0.76868c-2.6916-0.58172-7.8718-0.34615-11.302-0.19173-1.3274 0.0589-4.6077 0.26109-6.2028-0.60462z"/>
   <path d="m38.758 94.699c-0.0995 3.4904-2.6062 12.182-5.1293 15.658-0.42729 0.58631-0.0903 0.83797 0.3671 0.27025 3.0494-3.7951 4.9862-11.351 5.3579-14.961z"/>
   <path d="m48.844 93.658c0.19369 0.72254 0.54967 1.669 0.96721 2.717 0.3599 0.89798 0.81952 3.3334 0.41094 6.2535-0.35335 2.5162-0.41094 6.3644 0.19827 9.3838 0.12237 0.61837 0.39 0.59089 0.33504-0.0327-0.31148-3.4695-0.17799-6.8584 0.1734-9.3492 0.41814-2.9848 0.12237-5.2817-0.25193-6.2166-0.4129-1.0365-0.77561-1.8952-0.96721-2.6062z"/>
   <path d="m52.283 113.37c0.64389-0.20089 1.1266-0.48946 1.5374-0.74329 0.2467-0.15705 0.24212-0.32522-0.0458-0.51498-0.9326-0.60463-2.6062-1.2928-3.4003-1.5605l0.0589 0.6556c0.71103 0.23754 1.9738 0.74794 2.911 1.1934-0.41552 0.22182-0.94647 0.44103-1.519 0.62098z"/>
   <path d="m39.848 121.38c3.9428-0.85413 11.962-2.6524 14.631-3.7812-0.61379-0.27025-1.2881-0.4803-1.6136-0.57256-0.35794-0.10143-0.27941-0.3069 0-0.51237 1.2442-0.93488 2.0498-1.5258 3.0956-2.1653-1.3966-0.30952-2.9109-0.72026-4.326-1.055-0.4502-0.10405-0.38346-0.40832 0.0877-0.32522 1.0965 0.19173 3.0286 0.46852 4.4253 0.84026 0.4273 0.11321 0.54247 0.67406 0.18715 0.88182-1.1127 0.64847-1.826 1.085-3.0795 2.0245 0.65796 0.1937 1.1219 0.35794 1.7498 0.61379 0.443 0.17995 0.4574 0.39458 0.21725 0.51237-2.5993 1.2696-11.886 3.465-16.33 4.3999z"/>
   <path d="m34.388 109.56c-1.4889 0.87259-5.7272 2.7193-7.6432 3.4373l0.13153 0.58892c1.8283-0.68564 5.3348-2.2507 7.0431-3.2203z"/>
   <path d="m34.115 123.56c1.4359-0.24734 3.6589-0.75258 4.6746-1.0388 1.3181-0.36972 2.2369-1.5813 1.5097-3.1164-0.64389-1.362-1.4959-2.3639-3.3634-1.9783-1.7244 0.35335-4.2452 1.1519-5.1455 1.482-1.2489 0.46198-1.4821 1.4312-1.1473 2.1953l0.62753 0.42729c-0.56995-0.76645-0.25847-1.8283 0.71561-2.1861 0.89104-0.3298 3.278-1.0296 4.9862-1.3828 1.5097-0.31147 2.0661 0.24212 2.7447 1.5974 0.45478 0.90727 0.0739 2.1515-1.1357 2.4931-0.78949 0.21921-3.7581 0.90956-4.7623 1.085z"/>
   <path d="m37.48 117.68c0.12236-1.2119-1.2651-2.2946-3.5135-1.6829-1.6113 0.44104-4.9101 1.5836-6.0089 2.0037l0.24669 0.51956c1.0919-0.41552 4.3583-1.5906 5.9604-2.0292 1.4982-0.40636 2.9294 0.20351 2.7586 1.235z"/>
   <path d="m34.141 116.27c-0.0393-0.741-0.88875-1.5282-2.5485-1.018-1.175 0.36252-3.3149 1.1866-4.3768 1.632l-0.22379-0.47114c1.4105-0.56798 3.4373-1.4081 4.4761-1.6805 2.1607-0.56536 3.1926 0.44562 3.241 1.4082z"/>
   <path d="m26.853 115.36c0.67176-0.39 1.8468-0.95798 2.844-1.2742 1.1057-0.35074 2.1515 0.20285 2.3153 0.82639l0.61903-0.0831c-0.12237-0.76638-1.4959-1.7729-3.0171-1.2881-1.1727 0.37364-2.4631 1.0504-2.9941 1.362z"/>
   <path d="m30.247 113.76c-0.21267-0.53527-0.82646-1.1012-1.4244-1.2812l-0.54508 0.34878c0.52873 0 1.1704 0.69022 1.3366 1.0642z"/>
   <path d="m79.401 95.146c-1.6367-0.0739-3.9082-0.12236-5.7319 0.0262l-0.11059 0.86565c2.1584-0.22379 4.5776-0.29773 6.2513-0.22379z"/>
   <path d="m91.993 95.691c-0.20547-0.59809-0.53985-0.47114-0.38084 0.0995 0.18257 0.64389 0.40636 1.5882 0.52872 2.3569 0.0694 0.42926 0.46198 0.57519 0.3972-0.0262-0.0995-0.94189-0.24669-1.5628-0.54508-2.4331"/>
   <path d="m77.9 93.162c0.90485 2.1699 2.126 3.6173 3.4718 4.6653 1.2651 0.98108 2.7194 2.1769 3.4904 3.2965 0.52872 0.76639 0.98344 0.47114 0.45478-0.29577-0.78949-1.145-2.133-2.4978-3.4234-3.4973-1.1773-0.91878-1.7429-1.7128-2.6039-3.1026z"/>
   <path d="m83.941 117.51c1.5513-1.6528 2.6385-3.8366 3.2388-5.097 0.50059-1.055 0.57257-2.35 0.26109-3.9082-0.27941-1.3943-1.6021-5.0901-2.6062-7.9272l-1.228-1.1935c1.0319 2.8694 2.8855 7.6732 3.1741 9.1183 0.29773 1.4797 0.15704 2.7378-0.28138 3.7327-0.87259 1.9715-2.9502 5.0878-4.2314 6.2444z"/>
   <path d="m110.44 116.21c2.32-2.32 4.4184-4.2752 5.5102-5.2655 0.34158-0.30951 0.29774-0.58434-0.40635-0.64847-1.362-0.12498-4.4553-0.23753-7.574 0.30232-0.55163 0.0949-0.51498 0.45674 0.0393 0.4201 3.2734-0.19828 5.6464-0.30232 7.23-0.16883-1.0296 0.92801-3.4304 3.0587-5.508 5.134z"/>
   <path d="m108.09 121.22c1.5997-1.5628 3.4304-3.2595 4.4022-3.9913 0.30493-0.22641 0.33961-0.51694-0.0327-0.67405-0.95105-0.40374-1.856-0.72948-2.7863-0.85185-0.60005-0.0759-0.68099 0.24931-0.11778 0.40832 0.77332 0.22183 1.4058 0.3972 2.2622 0.84262-1.025 0.741-2.604 2.0776-4.0051 3.3749z"/>
   <path d="m87.997 84.81c6.4752 5.5795 12.366 14.319 17.8 26.667 0.29577 0.66712 0.72025 0.58631 0.45936-0.0968-4.5961-11.997-12.087-23.147-18.996-27.831z"/>
   <path d="m102.18 126.65c-0.21725 2.3916-1.4244 3.4488-3.2503 3.3842-1.9945-0.0713-2.9779-1.9575-3.1511-3.2041-0.18453-1.3274 0.0262-4.6931 0.24931-6.7175 0.16883-1.5028 0.82181-2.4077 2.6686-2.3592 0.8241 0.0262 2.0129 0.60267 2.6893 1.6713l-0.106-1.1173c-0.64389-0.96492-1.8352-1.3135-2.6108-1.332-2.0245-0.0523-3.1118 1.2119-3.2988 2.8971-0.22838 2.0498-0.32326 5.8542-0.14527 7.1977 0.22379 1.7059 1.4359 3.6588 3.6381 3.735 2.1353 0.0785 3.4165-0.89333 3.7696-3.1256z"/>
   <path d="m95.67 127.77c-0.41094 1.3435-1.6528 2.066-3.3218 1.9275-1.8791-0.15247-2.9779-1.3527-3.0103-3.2964-0.0393-2.5023 0.91879-5.1663 1.3089-6.1289 0.61183-1.5143 1.3528-2.32 2.3823-2.32 1.0965 0 2.2877 0.86801 2.7078 1.7083l0.28858-0.79642c-0.58631-0.81487-1.8352-1.579-3.1557-1.5167-1.1796 0.0589-2.2876 0.89569-2.9317 2.6986-0.76874 2.1538-1.4451 4.8223-1.4174 6.4752 0.0393 2.2646 1.235 3.8874 3.735 4.0905 1.6229 0.13152 3.3173-0.69945 3.899-1.8998z"/>
   <path d="m89.095 127.41c-1.1912 2.2022-2.9248 2.096-4.4622 1.7013-1.6182-0.41094-2.717-2.0914-2.1861-3.8043 0.58827-1.9114 2.8647-4.9978 4.2383-6.369 0.47114-0.47114 1.0319-0.70409 1.6713-0.69022 0.90491 0.0196 1.7244 0.87259 2.193 1.3851l0.4201-0.53985c-0.45217-0.67641-1.4705-1.4474-2.5462-1.4474-0.9326 0-1.6506 0.25651-2.1907 0.79407-1.3966 1.3989-3.8066 4.6769-4.4114 6.6368-0.65305 2.1053 0.4731 4.4553 2.5762 4.9932 1.4774 0.37626 3.832 0.22641 4.8962-1.7406z"/>
   <path d="m82.143 125.43c-0.8103 0.0667-1.4313 0.1361-2.6085-0.67635-1.1542-0.79413-0.87495-2.6732 0.19369-3.6727 0.87952-0.8241 2.4423-2.0176 3.188-2.5762 1.7105-1.2835 2.6893-0.88182 3.6057 0.12956l0.57518-0.49666c-1.0342-1.1358-2.3246-1.856-4.4714-0.24473-0.75258 0.5634-2.4931 1.9715-3.3819 2.8025-1.4151 1.325-1.7013 3.7882-0.10404 4.9193 1.018 0.72019 2.0776 0.79406 2.9548 0.72019z"/>
   <path d="m55.432 48.066c-0.39916-0.83569-0.38803-2.1053 0.59547-3.1649 1.0019-1.0804 3.0125-1.5951 4.4645-1.7867 1.5398-0.20089 2.6432-0.55883 3.4258-1.7129 0.42926-0.62818-0.0393-0.77332-0.70639-0.40635-1.639 0.89104-4.9839 1.0296-6.6253 0.9303-1.8236-0.1132-2.7239-0.78255-2.6408-1.4889 0.0694-0.58631 1.3273-1.1658 2.4815-0.95569 2.1792 0.39719 2.6454-0.19173 3.2849-1.3897 1.4221-2.6663 2.567-3.4996 5.0994-4.8385 0.99495-0.52873 0.8934-1.0411-0.22379-0.70868-0.36252 0.11059-3.6358 0.91185-4.8016 1.0065-1.3874 0.11058-2.4516-0.57257-1.7151-2.5254 1.1311-2.9964 4.8292-6.1427 6.8792-6.9922 0.76409-0.31868 1.3135-0.34616 1.5905-0.0805 0.31409 0.29773 0.18714 1.1288-0.12891 2.006-0.46656 1.295-0.12499 2.3893 0.22379 2.754 0.73412 0.77097 2.3962 0.66019 3.4604 0.33503 3.7927-1.1612 9.1322-7.2762 10.658-10.446 0.25193-0.52152 0.0393-0.66483-0.47114-0.39916-1.2766 0.66483-1.9137 0.11517-1.8698-0.26305 0.0831-0.73635 1.3066-1.9137 1.8814-2.3292 0.76875-0.55424 2.2923-0.79642 2.6432-0.0327 0.50582 1.0942 1.3874 1.3781 2.4931 1.2096 1.0342-0.15901 2.0799-1.0572 2.5116-2.0938 0.39458-0.94875 1.0504-1.699 2.2231-2.5577 0.38345-0.28138 0.16162-0.43842-0.0923-0.48488-0.5935-0.11059-1.115-0.36906-0.73641-0.99725 0.33699-0.56079 1.242-1.1449 2.7193-1.9991 0.46656-0.27025 0.27941-0.5032-0.18453-0.46394-0.27221 0.0196-1.3989 0.11975-1.5836 0.12695 1.9667-2.6339 5.561-2.7147 9.7947-2.7955 1.0388-0.0196 1.0781-0.48684 0.0995-0.81258-11.699-3.9082-19.626 1.9714-23.089 6.0666-0.44758 0.53069-0.91414 0.76639-1.3389 0.70638-0.44562-0.0654-0.80565-0.28857-1.1473-0.9534-0.72255-1.4012-1.8653-1.9945-3.9521-2.036-4.3491-0.0805-8.5966 2.6455-11.164 7.4609l-0.22379 1.0873c2.6131-4.7877 7.0361-7.9641 11.404-7.8787 1.9898 0.0327 2.934 0.39261 3.5804 1.6506 0.3972 0.76639 0.93031 1.2119 1.4889 1.2904 0.54246 0.0739 1.2096-0.30035 1.7636-0.8934 3.4396-3.6796 10.725-9.2545 21.962-6.2535-4.0398 0.15443-8.1003 0.60921-9.7185 3.3611-0.106 0.18256-0.0524 0.31867 0.11779 0.39457 0.27221 0.12499 1.3366-0.11516 1.4266-0.13152-1.1842 0.72948-2.0107 1.3689-2.3315 1.8999-0.41094 0.68786-0.15246 1.3666 0.64389 1.5143-0.8472 0.63931-1.6551 1.3458-2.0314 2.2484-0.39 0.93495-1.3089 1.6852-2.2323 1.8283-1.0042 0.15443-1.5258 0.0694-1.9506-0.84949-0.36252-0.78719-1.983-1.1034-3.5065-0.0393-0.81723 0.56995-1.9345 1.9322-2.0338 2.8024-0.0995 0.86565 0.91872 1.3412 2.3084 0.7018-1.7244 3.181-6.7545 8.4696-10.321 9.5615-1.2166 0.37168-2.3385 0.26109-2.8556-0.27941-0.40374-0.4273-0.29512-1.1843 0.0262-2.08 0.36709-1.0226 0.38083-2.0222-0.0393-2.4192-0.38803-0.36905-1.3597-0.37887-2.2692 0-2.103 0.87259-6.0573 4.2522-7.2208 7.3316-0.99953 2.6408 0.50582 3.5042 2.1792 3.3703 1.1888-0.0949 2.567-0.48488 3.6797-0.801-1.9068 1.0296-2.8948 2.3454-4.0375 4.4899-0.62099 1.1635-0.85185 1.4058-2.7909 1.0527-1.6551-0.30035-3.0864 0.46656-3.1995 1.452-0.14788 1.3043 1.4682 2.0845 3.2757 2.0845 2.2323 0 4.9539-0.29053 6.429-0.80793-0.68328 0.55882-1.5836 0.79413-2.6824 0.93724-1.5074 0.19827-3.7628 0.69715-4.827 1.8444-1.332 1.4335-1.0711 2.8948-0.61379 3.8504 0.5104 1.0665 0.83797 2.0845 0.39261 3.0333l0.70639-0.66948c0.23557-0.99489-0.16359-1.7452-0.55883-2.5669"/>
  </g>
 </g>
</svg>
