<?xml version="1.0" encoding="UTF-8" standalone="no"?>
<!-- Created with Inkscape (http://www.inkscape.org/) -->

<svg
   version="1.1"
   viewBox="0 0 131.67 194.73"
   id="svg632"
   sodipodi:docname="393-2.svg"
   inkscape:version="1.2.2 (b0a8486, 2022-12-01)"
   xmlns:inkscape="http://www.inkscape.org/namespaces/inkscape"
   xmlns:sodipodi="http://sodipodi.sourceforge.net/DTD/sodipodi-0.dtd"
   xmlns="http://www.w3.org/2000/svg"
   xmlns:svg="http://www.w3.org/2000/svg">
  <defs
     id="defs636">
    <clipPath
       id="clipPath43724">
      <g
         transform="scale(1,-1)"
         id="g1656">
        <path
           d="m 548.05,622.99 c -0.002,0.009 -0.004,0.018 -0.005,0.027 -0.037,0.006 -0.07,0.013 -0.101,0.02 0.035,-0.016 0.071,-0.032 0.106,-0.047"
           id="path1654" />
      </g>
    </clipPath>
    <clipPath
       id="clipPath43152">
      <g
         transform="scale(1,-1)"
         id="g1661">
        <path
           d="m 550,627.82 -0.167,0.074 z m -0.322,-0.253 0.178,-0.301 c 10e-4,0.001 0.003,0.001 0.005,0.002 l -0.179,0.299 z"
           id="path1659" />
      </g>
    </clipPath>
    <clipPath
       id="clipPath17033-3">
      <path
         d="M 0,841.89 H 595.276 V 0 H 0 Z"
         id="path2095" />
    </clipPath>
    <clipPath
       id="clipPath17048-4">
      <path
         d="M 0,841.89 H 595.276 V 0 H 0 Z"
         id="path2098" />
    </clipPath>
    <clipPath
       id="clipPath17063-0">
      <path
         d="M 0,841.89 H 595.276 V 0 H 0 Z"
         id="path2101" />
    </clipPath>
    <clipPath
       id="clipPath12593-2">
      <path
         d="M 0,841.89 H 595.276 V 0 H 0 Z"
         id="path2104" />
    </clipPath>
    <clipPath
       id="clipPath12608-1">
      <path
         d="M 0,841.89 H 595.276 V 0 H 0 Z"
         id="path2107" />
    </clipPath>
    <clipPath
       id="clipPath12623-0">
      <path
         d="M 0,841.89 H 595.276 V 0 H 0 Z"
         id="path2110" />
    </clipPath>
    <clipPath
       id="clipPath12638-5">
      <path
         d="M 0,841.89 H 595.276 V 0 H 0 Z"
         id="path2113" />
    </clipPath>
    <clipPath
       id="clipPath12653-4">
      <path
         d="M 0,841.89 H 595.276 V 0 H 0 Z"
         id="path2116" />
    </clipPath>
    <clipPath
       id="clipPath12668-0">
      <path
         d="M 0,841.89 H 595.276 V 0 H 0 Z"
         id="path2119" />
    </clipPath>
    <clipPath
       id="clipPath12683-8">
      <path
         d="M 0,841.89 H 595.276 V 0 H 0 Z"
         id="path2122" />
    </clipPath>
    <clipPath
       id="clipPath12698-2">
      <path
         d="M 0,841.89 H 595.276 V 0 H 0 Z"
         id="path2125" />
    </clipPath>
    <clipPath
       id="clipPath12713-9">
      <path
         d="M 0,841.89 H 595.276 V 0 H 0 Z"
         id="path2128" />
    </clipPath>
    <clipPath
       id="clipPath12728-9">
      <path
         d="M 0,841.89 H 595.276 V 0 H 0 Z"
         id="path2131" />
    </clipPath>
    <clipPath
       id="clipPath12743-6">
      <path
         d="M 0,841.89 H 595.276 V 0 H 0 Z"
         id="path2134" />
    </clipPath>
    <clipPath
       id="clipPath12758-10">
      <path
         d="M 0,841.89 H 595.276 V 0 H 0 Z"
         id="path2137" />
    </clipPath>
    <clipPath
       id="clipPath12773-2">
      <path
         d="M 0,841.89 H 595.276 V 0 H 0 Z"
         id="path2140" />
    </clipPath>
    <clipPath
       id="clipPath12788-8">
      <path
         d="M 0,841.89 H 595.276 V 0 H 0 Z"
         id="path2143" />
    </clipPath>
    <clipPath
       id="clipPath12803-7">
      <path
         d="M 0,841.89 H 595.276 V 0 H 0 Z"
         id="path2146" />
    </clipPath>
    <clipPath
       id="clipPath12818-9">
      <path
         d="M 0,841.89 H 595.276 V 0 H 0 Z"
         id="path2149" />
    </clipPath>
    <clipPath
       id="clipPath12833-4">
      <path
         d="M 0,841.89 H 595.276 V 0 H 0 Z"
         id="path2152" />
    </clipPath>
    <clipPath
       id="clipPath12848-2">
      <path
         d="M 0,841.89 H 595.276 V 0 H 0 Z"
         id="path2155" />
    </clipPath>
    <clipPath
       id="clipPath12863-1">
      <path
         d="M 0,841.89 H 595.276 V 0 H 0 Z"
         id="path2158" />
    </clipPath>
    <clipPath
       id="clipPath12878-3">
      <path
         d="M 0,841.89 H 595.276 V 0 H 0 Z"
         id="path2161" />
    </clipPath>
    <clipPath
       id="clipPath12893-3">
      <path
         d="M 0,841.89 H 595.276 V 0 H 0 Z"
         id="path2164" />
    </clipPath>
    <clipPath
       id="clipPath12908-5">
      <path
         d="M 0,841.89 H 595.276 V 0 H 0 Z"
         id="path2167" />
    </clipPath>
    <clipPath
       id="clipPath12923-9">
      <path
         d="M 0,841.89 H 595.276 V 0 H 0 Z"
         id="path2170" />
    </clipPath>
    <clipPath
       id="clipPath12938-3">
      <path
         d="M 0,841.89 H 595.276 V 0 H 0 Z"
         id="path2173" />
    </clipPath>
    <clipPath
       id="clipPath12953-7">
      <path
         d="M 0,841.89 H 595.276 V 0 H 0 Z"
         id="path2176" />
    </clipPath>
    <clipPath
       id="clipPath12968-74">
      <path
         d="M 0,841.89 H 595.276 V 0 H 0 Z"
         id="path2179" />
    </clipPath>
    <clipPath
       id="clipPath12983-8">
      <path
         d="M 0,841.89 H 595.276 V 0 H 0 Z"
         id="path2182" />
    </clipPath>
    <clipPath
       id="clipPath12998-54">
      <path
         d="M 0,841.89 H 595.276 V 0 H 0 Z"
         id="path2185" />
    </clipPath>
    <clipPath
       id="clipPath13013-2">
      <path
         d="M 0,841.89 H 595.276 V 0 H 0 Z"
         id="path2188" />
    </clipPath>
    <clipPath
       id="clipPath13028-4">
      <path
         d="M 0,841.89 H 595.276 V 0 H 0 Z"
         id="path2191" />
    </clipPath>
    <clipPath
       id="clipPath13043-0">
      <path
         d="M 0,841.89 H 595.276 V 0 H 0 Z"
         id="path2194" />
    </clipPath>
    <clipPath
       id="clipPath13058-6">
      <path
         d="M 0,841.89 H 595.276 V 0 H 0 Z"
         id="path2197" />
    </clipPath>
    <clipPath
       id="clipPath13073-0">
      <path
         d="M 0,841.89 H 595.276 V 0 H 0 Z"
         id="path2200" />
    </clipPath>
    <clipPath
       id="clipPath13088-7">
      <path
         d="M 0,841.89 H 595.276 V 0 H 0 Z"
         id="path2203" />
    </clipPath>
    <clipPath
       id="clipPath13103-0">
      <path
         d="M 0,841.89 H 595.276 V 0 H 0 Z"
         id="path2206" />
    </clipPath>
    <clipPath
       id="clipPath13118-0">
      <path
         d="M 0,841.89 H 595.276 V 0 H 0 Z"
         id="path2209" />
    </clipPath>
    <clipPath
       id="clipPath13133-5">
      <path
         d="M 0,841.89 H 595.276 V 0 H 0 Z"
         id="path2212" />
    </clipPath>
    <clipPath
       id="clipPath13148-2">
      <path
         d="M 0,841.89 H 595.276 V 0 H 0 Z"
         id="path2215" />
    </clipPath>
    <clipPath
       id="clipPath13163-4">
      <path
         d="M 0,841.89 H 595.276 V 0 H 0 Z"
         id="path2218" />
    </clipPath>
    <clipPath
       id="clipPath13178-8">
      <path
         d="M 0,841.89 H 595.276 V 0 H 0 Z"
         id="path2221" />
    </clipPath>
    <clipPath
       id="clipPath13193-1">
      <path
         d="M 0,841.89 H 595.276 V 0 H 0 Z"
         id="path2224" />
    </clipPath>
    <clipPath
       id="clipPath13208-55">
      <path
         d="M 0,841.89 H 595.276 V 0 H 0 Z"
         id="path2227" />
    </clipPath>
    <clipPath
       id="clipPath13223-3">
      <path
         d="M 0,841.89 H 595.276 V 0 H 0 Z"
         id="path2230" />
    </clipPath>
    <clipPath
       id="clipPath13238-8">
      <path
         d="M 0,841.89 H 595.276 V 0 H 0 Z"
         id="path2233" />
    </clipPath>
    <clipPath
       id="clipPath13253-2">
      <path
         d="M 0,841.89 H 595.276 V 0 H 0 Z"
         id="path2236" />
    </clipPath>
    <clipPath
       id="clipPath13268-8">
      <path
         d="M 0,841.89 H 595.276 V 0 H 0 Z"
         id="path2239" />
    </clipPath>
    <clipPath
       id="clipPath13283-1">
      <path
         d="M 0,841.89 H 595.276 V 0 H 0 Z"
         id="path2242" />
    </clipPath>
    <clipPath
       id="clipPath13298-6">
      <path
         d="M 0,841.89 H 595.276 V 0 H 0 Z"
         id="path2245" />
    </clipPath>
    <clipPath
       id="clipPath13313-2">
      <path
         d="M 0,841.89 H 595.276 V 0 H 0 Z"
         id="path2248" />
    </clipPath>
    <clipPath
       id="clipPath13328-8">
      <path
         d="M 0,841.89 H 595.276 V 0 H 0 Z"
         id="path2251" />
    </clipPath>
    <clipPath
       id="clipPath13343-2">
      <path
         d="M 0,841.89 H 595.276 V 0 H 0 Z"
         id="path2254" />
    </clipPath>
  </defs>
  <sodipodi:namedview
     id="namedview634"
     pagecolor="#505050"
     bordercolor="#eeeeee"
     borderopacity="1"
     inkscape:showpageshadow="0"
     inkscape:pageopacity="0"
     inkscape:pagecheckerboard="0"
     inkscape:deskcolor="#505050"
     showgrid="false"
     inkscape:zoom="0.21424177"
     inkscape:cx="-2.3338119"
     inkscape:cy="28.005743"
     inkscape:window-width="1309"
     inkscape:window-height="456"
     inkscape:window-x="98"
     inkscape:window-y="25"
     inkscape:window-maximized="0"
     inkscape:current-layer="svg632" />
  <path
     d="m 104.778,171.182 c 6.0429,5.6864 9.2348,19.098 5.0983,22.054 -3.4922,2.4913 -12.874,-0.0563 -21.224,-10.91 -5.9068,-7.6803 -6.0007,-14.995 -2.0143,-18.732 2.9057,-2.7243 11.133,0.99308 18.14,7.588"
     fill="#FDD23C"
     id="path502" />
  <path
     d="m 43.245,92.332 c -1.3356,0.60836 -4.6761,1.5874 -7.1126,2.4913 -7.3519,2.7259 -12.924,8.0619 -14.465,15.769 -1.09,5.4455 2.1175,15.301 16.835,7.943 9.7212,-4.8622 13.872,-23.831 11.618,-25.016 -2.252,-1.187 -5.5722,-1.7797 -6.8765,-1.187"
     fill="#3271AB"
     id="path504" />
  <path
     d="m 88.538,92.332 c 1.3356,0.60679 4.6761,1.5858 7.1142,2.4897 7.3503,2.7259 12.922,8.0619 14.465,15.769 1.0885,5.4455 -2.1175,15.303 -16.835,7.943 -9.7228,-4.8606 -13.872,-23.831 -11.62,-25.016 2.252,-1.1854 5.5722,-1.7797 6.8765,-1.1854"
     fill="#3271AB"
     id="path506" />
  <path
     d="m 27.003,171.182 c -6.0429,5.6864 -9.2348,19.098 -5.0983,22.053 3.4922,2.4928 12.872,-0.0548 21.222,-10.908 5.9084,-7.6803 6.0023,-14.995 2.0159,-18.732 -2.9073,-2.7243 -11.133,0.99308 -18.14,7.588"
     fill="#FDD23C"
     id="path508" />
  <path
     d="m 28.505,103.832 c -5.4283,3.0152 -13.978,11.621 -17.391,15.492 -11.698,13.278 -10.933,27.401 -8.7719,29.561 3.8347,3.8347 24.555,-5.494 34.065,-19.76 0.94929,-1.4216 2.6883,-14.741 3.5188,-17.35 0.82886,-2.6086 -4.4681,-6.7373 -6.046,-6.6388 -1.897,0.11726 -4.3085,-1.8986 -5.3751,-1.3043"
     fill="#ffffff"
     id="path510" />
  <path
     d="m 103.278,103.832 c 5.4283,3.0152 13.98,11.621 17.391,15.492 11.698,13.279 10.933,27.401 8.7719,29.562 -3.8331,3.8331 -24.555,-5.4955 -34.065,-19.761 -0.94928,-1.4216 -2.6883,-14.741 -3.5188,-17.35 -0.82887,-2.6086 4.4696,-6.7373 6.0476,-6.6388 1.897,0.11726 4.307,-1.897 5.3736,-1.3043"
     fill="#ffffff"
     id="path512" />
  <path
     d="m 65.888,89.612 c 4.149,0 8.298,0.47542 13.396,2.7274 5.0983,2.2536 13.398,8.8923 15.057,10.669 5.6613,6.0664 12.372,20.897 12.372,35.926 0,18.179 -13.794,31.893 -40.826,31.893 -27.032,0 -40.826,-13.714 -40.826,-31.894 0,-15.028 6.7107,-29.858 12.372,-35.924 1.6593,-1.7766 9.9589,-8.4169 15.057,-10.67 5.0967,-2.252 9.2473,-2.7259 13.396,-2.7259"
     fill="#A0D8E5"
     id="path514" />
  <path
     d="m 45.261,124.342 c -6.6575,0 -9.6039,4.4931 -9.6039,8.8923 0,5.0107 2.8056,9.84 9.3662,9.8416 5.0592,0 9.7228,-3.3233 9.7228,-9.0112 0,-5.3751 -4.1099,-9.7228 -9.4851,-9.7228"
     fill="#ffffff"
     id="path516" />
  <path
     d="m 35.776,161.692 c 0.47387,5.9272 7.1705,10.652 13.753,6.9953"
     fill="#ffffff"
     id="path518" />
  <path
     d="m 89.838,94.472 c 3.4359,0.45666 7.5896,2.8995 9.6039,5.0983 4.2085,4.59 5.6817,15.088 -2.1347,21.341 -8.2011,6.5621 -23.868,4.529 -31.417,-7.1142 -7.5521,11.643 -23.218,13.676 -31.419,7.1126 -7.8164,-6.2509 -6.3416,-16.749 -2.1347,-21.339 2.0143,-2.1988 6.1665,-4.6417 9.6039,-5.0983"
     fill="#3B82C4"
     id="path520" />
  <path
     d="m 86.518,124.342 c 6.6575,0 9.6039,4.4931 9.6039,8.8923 0,5.0107 -2.8056,9.8416 -9.3678,9.8416 -5.0576,0 -9.7212,-3.3233 -9.7212,-9.0112 0,-5.3751 4.1099,-9.7228 9.4851,-9.7228"
     fill="#ffffff"
     id="path522" />
  <path
     d="m 82.248,168.692 c 6.584,3.6564 13.279,-1.0681 13.753,-6.9953"
     fill="#ffffff"
     id="path524" />
  <path
     d="m 29.154,112.492 c 2.8948,8.6843 26.439,10.725 34.975,2.9652 -4.8215,6.2384 -11.685,9.4835 -19.206,9.4835 -4.9075,0 -10.142,-2.4334 -12.568,-5.5737 -2.0159,-2.607 -3.2013,-6.8749 -3.2013,-6.8749"
     fill="#3271AB"
     id="path526" />
  <path
     d="m 68.158,116.872 c 6.0132,6.0132 31.519,3.8535 34.145,-4.0302 -1.664,8.3246 -9.6946,12.092 -16.005,12.092 -2.6086,0 -9.1285,-1.3043 -12.686,-3.6752 -3.5563,-2.3709 -5.4533,-4.3867 -5.4533,-4.3867"
     fill="#3271AB"
     id="path528" />
  <path
     d="m 27.612,151.612 c 1.4263,3.2123 16.122,9.7228 38.278,9.7228 17.821,0 36.509,-5.1812 38.549,-10.079 -1.897,3.3217 -4.2288,6.878 -8.5749,10.672 -0.31747,1.8172 -2.6883,6.4026 -5.2172,7.1142 -2.5288,0.71158 -4.7433,0.94772 -7.8242,-0.55362 -2.055,0.79133 -10.863,2.3302 -16.932,2.3302 -6.0679,0 -14.15,-1.1854 -16.404,-2.3114 -1.3043,0.88987 -5.4533,2.1347 -8.6546,0.53486 -3.2013,-1.6014 -4.6244,-4.8622 -4.8606,-6.9969 -1.7782,-1.4216 -4.9216,-4.5056 -5.8693,-5.691 -0.94929,-1.1854 -2.4897,-4.7418 -2.4897,-4.7418"
     fill="#8ABBC7"
     id="path530" />
  <path
     d="m 39.587,168.172 c 2.0612,1.0306 4.8215,2.1332 7.9837,1.2652 0.31591,1.3434 -0.0798,5.0576 -1.3434,7.746 -2.7666,-2.6086 -11.382,-7.6694 -20.157,-5.2969 1.9783,-2.055 7.6678,-6.4026 10.434,-7.5083 0.63339,1.345 2.2911,3.3984 3.0824,3.794"
     fill="#DAB634"
     id="path532" />
  <path
     d="m 90.918,169.042 c 1.1213,-0.61305 3.6752,-2.4897 4.5056,-4.2679 1.897,0.71157 8.0619,4.504 10.789,7.5865 -5.691,-0.71001 -15.65,0.71157 -20.037,6.0476 -1.4232,-2.3709 -2.3709,-6.6403 -2.2536,-9.0096 2.2536,0.47229 5.691,0.355 6.9953,-0.35657"
     fill="#DAB634"
     id="path534" />
  <path
     d="m 12.432,58.092 c 0,-33.605 22.903,-57.419 53.54,-57.419 33.166,0 54.893,27.733 53.593,58.161 -0.94617,22.214 -21.294,42.924 -53.473,42.924 -39.493,0 -53.661,-26.743 -53.661,-43.667"
     fill="#3B82C4"
     id="path536" />
  <path
     d="m 13.094,54.672 c 0.27681,-3.5719 3.2889,-19.452 10.875,-20.665 8.8454,-1.4153 22.464,7.2534 28.125,47.053 h 27.773 c 0.97431,-21.646 13.69,-46.881 24.233,-47.405 12.18,-0.60992 14.513,17.697 14.749,22.678 1.0932,22.938 -20.39,46.255 -52.78,46.255 -30.158,0 -54.946,-22.284 -52.976,-47.916"
     fill="#ffffff"
     id="path538" />
  <path
     d="m 42.814,47.952 12.805,5.214 c 0,0 9.1676,-12.014 10.433,-12.014 1.2621,0 10.273,11.7 10.273,11.7 l 13.279,-4.8997 c 0,0 -6.7967,11.379 -9.485,32.407 0.34875,-2.7196 -2.4162,-16.285 -14.227,-16.285 -8.4325,0 -13.905,7.7632 -13.753,15.018 0,0 -4.1084,-21.658 -9.3255,-31.14"
     fill="#A0D8E5"
     id="path540" />
  <path
     d="m 51.982,79.482 c 0,8.5123 6.2274,15.412 13.911,15.412 7.6819,0 13.909,-6.8999 13.909,-15.412 0,-8.5107 -6.2274,-15.412 -13.909,-15.412 -7.6834,0 -13.911,6.9015 -13.911,15.412"
     fill="#FDD23C"
     id="path542" />
  <path
     d="m 53.405,72.772 c -1.9721,12.661 26.805,13.318 24.977,-0.31591 3.4765,6.9547 1.1573,22.131 -12.489,22.131 -11.804,0 -16.393,-12.269 -12.488,-21.815"
     fill="#DAB634"
     id="path544" />
  <path
     d="m 65.968,101.722 c -27.04,0 -51.748,-18.107 -51.748,-46.363 0,-28.829 21.064,-53.546 51.748,-53.545 30.682,0 51.748,24.716 51.748,53.546 0,28.255 -24.71,46.362 -51.748,46.362 m 0,-101.72 c -29.816,0 -54.167,22.583 -54.167,55.359 0,26.274 21.471,48.037 54.167,48.037 32.698,0 54.167,-21.763 54.167,-48.035 0,-32.778 -24.352,-55.36 -54.167,-55.36"
     id="path546"
     style="fill:#0f141b" />
  <path
     d="m 23.575,33.175 c -8.9752,2.2098 -14.649,19.328 -6.5027,42.895 0.14701,0.42069 4.7433,5.3782 4.5244,4.9888 -11.864,-21.225 -7.2315,-43.453 2.7853,-45.691 11.479,-2.5648 22.755,14.214 27.041,46.989 0.0563,0.44259 1.481,-0.63495 1.431,-1.0775 C 48.7722,45.3503 35.37,30.2743 23.575,33.1753"
     id="path548"
     style="fill:#0f141b" />
  <path
     d="m 108.368,33.175 c 8.2496,2.0299 15.078,19.256 6.9062,42.896 -0.1455,0.41912 -5.0123,5.3751 -4.7918,4.9873 10.305,-18.09 7.6819,-43.323 -2.9198,-45.691 -11.481,-2.5648 -22.755,14.214 -27.041,46.989 -0.0579,0.44259 -1.4795,-0.63495 -1.4294,-1.0775 4.0786,-35.929 17.481,-51.005 29.276,-48.104"
     id="path550"
     style="fill:#0f141b" />
  <path
     d="m 55.448,52.222 c -1.0541,-0.41756 -12.505,-5.3673 -12.505,-5.3673 -0.41445,-0.16108 -0.7366,1.7422 -0.32374,1.9033 0,0 10.63,4.2476 11.973,4.7261 1.5686,0.55987 1.456,0.50357 2.2911,-0.6287 3.7815,-5.1265 8.4091,-10.638 9.0878,-10.638 0.66936,0 5.139,5.3032 8.8783,10.353 1.09,1.4732 1.2902,1.3684 2.9261,0.74597 1.6343,-0.6193 11.548,-4.5588 11.548,-4.5588 0.41601,-0.16266 0.22678,-2.0644 -0.18922,-1.9033 0,0 -11.585,4.9497 -12.638,5.3673 -8.7485,-11.948 -10.086,-12.377 -10.525,-12.377 -0.43788,0 -1.775,0.4285 -10.523,12.377"
     id="path552"
     style="fill:#0f141b" />
  <path
     d="m 53.029,79.432 c 0,-7.9696 5.7098,-14.586 12.89,-14.586 7.1814,0 12.888,6.6168 12.888,14.586 0,7.9728 -5.7067,14.59 -12.888,14.59 -7.1799,0 -12.89,-6.6168 -12.89,-14.59 m -2.0159,0 c 0,8.8611 6.8342,15.933 14.906,15.933 8.345,0 14.906,-6.4949 14.906,-15.933 0,-8.8579 -6.8358,-15.931 -14.906,-15.931 -8.0713,0 -14.906,7.0735 -14.906,15.931"
     id="path554"
     style="fill:#0f141b" />
  <path
     d="m 78.858,83.142 c -0.0298,0.0329 -3.281,3.3561 -12.89,3.3561 -9.607,0 -12.858,-3.3233 -12.89,-3.3561 -0.29558,-0.32841 -1.3668,0.19549 -1.076,0.53017 1.5185,1.7406 6.0961,4.5728 13.966,4.5728 7.7632,0 12.303,-2.668 13.966,-4.5728 0.29089,-0.33312 -0.77883,-0.85702 -1.076,-0.53017"
     id="path556"
     style="fill:#0f141b" />
  <path
     d="m 29.961,56.932 c 4.5603,-0.72722 8.1855,5.2328 9.4944,12.205 1.506,8.04 0.0454,14.074 -3.8535,14.902 -4.1099,0.87892 -8.3872,-6.0804 -9.6899,-12.547 -1.5201,-7.5349 -0.19861,-13.881 4.0489,-14.56"
     fill="#00428E"
     id="path560" />
  <path
     d="m 32.327,67.922 c 2.6258,-0.41912 5.078,0.3988 7.2768,2.1081 -0.0485,-0.29713 -0.0923,-0.58802 -0.14859,-0.89142 -1.3074,-6.9719 -4.9341,-12.93 -9.4944,-12.203 -4.2476,0.67718 -5.5691,7.025 -4.0505,14.558 0.08131,0.3988 0.17358,0.80072 0.2768,1.2026 1.3919,-2.6289 3.4359,-4.343 6.1399,-4.7746"
     fill="#003376"
     id="path562" />
  <path
     d="m 31.316,63.712 c 2.2802,-0.36282 4.0927,2.6164 4.7464,6.1008 0.7538,4.0223 0.0234,7.0376 -1.9252,7.452 -2.0565,0.43946 -4.1944,-3.0387 -4.8465,-6.2744 -0.75849,-3.7659 -0.09859,-6.939 2.0253,-7.2784"
     fill="#0f141b"
     id="path564" />
  <path
     d="m 30.31,58.102 c 1.6202,-0.18454 3.4875,1.1072 4.1459,3.9645 0.70532,3.0434 -0.10631,5.3689 -2.2067,5.899 -2.3021,0.58489 -4.1678,-1.7907 -4.5869,-4.3789 -0.48169,-2.9636 0.83355,-5.2797 2.6477,-5.4846"
     fill="#ffffff"
     id="path566" />
  <path
     d="m 101.988,56.932 c -4.5635,-0.72722 -8.1886,5.2328 -9.4944,12.206 -1.5076,8.0384 -0.0469,14.074 3.8519,14.901 4.1099,0.87892 8.3856,-6.0804 9.6915,-12.547 1.5185,-7.5349 0.1986,-13.881 -4.0489,-14.56"
     fill="#00428E"
     id="path568" />
  <path
     d="m 99.668,67.872 c 2.6868,0.4285 4.7198,2.1206 6.1117,4.7198 0.0923,-0.36595 0.17829,-0.73034 0.25179,-1.0963 1.517,-7.5333 0.19705,-13.881 -4.0505,-14.558 -4.5619,-0.72722 -8.187,5.2328 -9.4944,12.205 -0.0548,0.29714 -0.0986,0.5849 -0.1455,0.87578 2.2113,-1.7344 4.6823,-2.5695 7.3269,-2.1457"
     fill="#003376"
     id="path570" />
  <path
     d="m 30.088,57.732 c -3.3374,0.53172 -4.9059,6.0679 -3.3858,13.603 1.4184,7.0376 5.666,12.571 8.7312,11.917 3.3624,-0.71315 4.6589,-6.326 3.2279,-13.962 -1.1698,-6.2384 -4.479,-12.209 -8.5733,-11.557 m -5.1484,13.975 c -1.8392,-9.1254 0.68498,-14.896 4.8934,-15.569 3.866,-0.61616 8.775,3.1528 10.602,12.888 1.6296,8.6984 -0.31591,14.879 -4.6651,15.803 -4.0927,0.87578 -9.0081,-4.1005 -10.83,-13.123"
     id="path572"
     style="fill:#0f141b" />
  <path
     d="m 93.288,69.282 c -1.4341,7.6381 -0.13609,13.249 3.2263,13.964 2.8041,0.6068 7.097,-3.8065 8.7328,-11.917 1.5201,-7.5427 0.10477,-13.048 -3.3858,-13.604 -3.3952,-0.53954 -7.0626,3.4844 -8.5733,11.557 m 2.8901,15.542 c -4.3508,-0.92426 -6.2728,-7.1861 -4.6417,-15.885 1.8235,-9.7321 6.6966,-13.425 10.58,-12.807 4.5103,0.71939 6.5136,7.4363 4.8762,15.569 -1.9095,9.4506 -7.2049,13.892 -10.814,13.123"
     id="path574"
     style="fill:#0f141b" />
  <path
     d="m 100.628,63.712 c -2.2817,-0.36282 -4.0943,2.6164 -4.748,6.1023 -0.7538,4.0208 -0.0219,7.036 1.9267,7.4504 2.055,0.43946 4.1928,-3.0387 4.845,-6.2744 0.76005,-3.7659 0.10014,-6.939 -2.0237,-7.2784"
     id="path576"
     style="fill:#0f141b" />
  <path
     d="m 101.638,58.102 c -1.6202,-0.18454 -3.4891,1.1088 -4.1459,3.9645 -0.70532,3.0434 0.10631,5.3689 2.2067,5.899 2.302,0.58489 4.1662,-1.7907 4.5869,-4.3789 0.48012,-2.9636 -0.83355,-5.2797 -2.6477,-5.4846"
     fill="#ffffff"
     id="path580" />
  <path
     d="m 36.464,133.242 c 0,-4.0239 2.7212,-8.0854 8.7969,-8.0854 4.8668,0 8.6781,3.916 8.6781,8.9158 0,5.3861 -4.4853,8.2026 -8.9158,8.2026 -6.3119,0 -8.5592,-4.6651 -8.5592,-9.0331 m 4.3383,-8.9424 c -4.0786,1.5514 -6.2744,5.261 -6.2744,8.9424 0,4.9122 3.1419,10.492 10.65,10.492 5.2328,0 10.769,-3.2169 10.769,-9.6618 0,-4.3054 -2.7978,-7.929 -6.3354,-9.5773 -1.3152,-0.61149 -7.5411,-0.67717 -8.8094,-0.19549"
     id="path582"
     style="fill:#0f141b" />
  <path
     d="m 35.201,161.722 c 0.20643,3.3499 2.0393,6.3072 5.0092,7.8993 3.0074,1.6124 6.5481,1.5279 9.7118,-0.2299 0.38942,-0.21425 -0.3941,-1.6264 -0.78352,-1.4091 -2.7149,1.5092 -5.6144,1.5858 -8.1682,0.21738 -2.2395,-1.2011 -3.7502,-3.2279 -4.3789,-5.7583 -0.0688,-0.28307 -1.4184,-1.1635 -1.3903,-0.7194"
     id="path584"
     style="fill:#0f141b" />
  <path
     d="m 36.102,163.692 c -3.1466,1.5483 -6.5746,3.9973 -9.6524,6.8937 -7.355,6.9234 -8.4138,20.379 -4.8043,22.958 3.7377,2.6696 13.575,0.82573 22.328,-10.552 3.5032,-4.5525 4.7808,-9.521 4.4274,-13.636 -0.039,-0.44259 -1.3981,-0.29244 -1.359,0.15322 0.31904,3.7111 -1.298,8.0854 -4.5541,12.317 -8.0259,10.434 -16.989,12.977 -20.115,10.742 -2.887,-2.0612 -1.0744,-14.918 5.1828,-20.808 2.9636,-2.79 6.254,-5.1421 9.2598,-6.6216 0.39879,-0.19706 -0.31278,-1.6452 -0.71314,-1.4482"
     id="path586"
     style="fill:#0f141b" />
  <path
     d="m 28.126,176.162 c -2.7337,2.4491 -5.8975,6.6403 -7.7069,10.67 -0.15796,0.35033 0.35344,3.7393 0.47855,3.3108 1.3184,-4.4305 4.7746,-10.436 7.979,-13.309 1.8298,-1.6436 1.0822,-2.3146 -0.75067,-0.67247"
     id="path588"
     style="fill:#0f141b" />
  <path
     d="m 33.462,180.782 c -3.3733,4.3617 -5.752,8.9549 -6.193,12.708 -0.05169,0.44259 1.5498,0.63026 1.6014,0.18923 0.40974,-3.4781 2.2989,-8.2026 5.5002,-12.344 1.5498,-2.0065 0.63964,-2.5617 -0.90863,-0.55362"
     id="path590"
     style="fill:#0f141b" />
  <path
     d="m 77.838,134.072 c 0,-4.9998 3.8112,-8.9158 8.6765,-8.9158 6.0789,0 8.7985,4.0614 8.7985,8.0854 0,4.368 -2.2505,9.0331 -8.5608,9.0331 -4.429,0 -8.9142,-2.8181 -8.9142,-8.2026 m 3.9739,-9.4069 c -3.3452,1.7218 -5.7911,5.2469 -5.7911,9.4069 0,6.4448 5.2829,9.6008 10.514,9.6008 7.5083,0 10.667,-5.5206 10.667,-10.431 0,-3.5829 -2.0487,-7.1892 -5.9037,-8.811 -1.3403,-0.563 -8.0838,-0.48638 -9.4866,0.23458"
     id="path592"
     style="fill:#0f141b" />
  <path
     d="m 95.098,162.412 c -0.44415,2.4131 -2.0362,4.5869 -4.2866,5.7911 -2.3161,1.2433 -4.92,1.2933 -7.4113,0.16577 -0.25335,-0.11726 -2.3881,0.5411 -2.0002,0.75849 3.1653,1.7578 7.2674,1.9283 10.276,0.31591 2.9683,-1.5905 5.114,-4.6448 5.3751,-7.904 0.0344,-0.44415 -1.9048,0.61617 -1.9533,0.87265"
     id="path594"
     style="fill:#0f141b" />
  <path
     d="m 94.968,165.142 c 3.0042,1.4779 6.29,3.8284 9.2567,6.62 7.0266,6.6122 7.9243,18.85 5.1812,20.809 -3.1262,2.2332 -12.087,-0.30808 -20.115,-10.744 -3.2545,-4.2319 -4.8715,-8.6061 -4.5541,-12.317 0.039,-0.44415 -1.567,-0.58333 -1.6061,-0.13917 -0.35188,4.1146 1.2073,9.166 4.7073,13.72 8.7547,11.379 18.67,13.221 22.409,10.552 4.0083,-2.8619 3.0652,-16.002 -4.6244,-23.238 -3.0778,-2.8979 -6.7983,-5.1624 -9.9433,-6.7091 -0.39879,-0.19862 -1.1119,1.2496 -0.71157,1.4466"
     id="path596"
     style="fill:#0f141b" />
  <path
     d="m 102.898,176.932 c 3.2044,2.8744 6.6669,8.7813 7.9837,13.212 0.12667,0.42851 1.0822,-2.4835 0.67091,-3.4296 -1.7703,-4.0896 -5.1843,-8.0212 -7.943,-10.494 -1.9189,-1.7203 -2.632,-1.0103 -0.71157,0.71157"
     id="path598"
     style="fill:#0f141b" />
  <path
     d="m 97.448,181.252 c 3.023,3.9113 4.8153,8.4435 5.383,11.836 0.0329,0.20018 1.7375,0.84137 1.6859,0.40036 -0.44257,-3.7565 -2.8666,-8.5264 -6.2384,-12.888 -1.9017,-2.4631 -2.7353,-1.8094 -0.83044,0.65215"
     id="path600"
     style="fill:#0f141b" />
  <path
     d="m 35.851,94.072 c -8.9893,3.048 -12.572,7.3159 -14.646,14.968 -0.12512,0.45822 1.7672,-0.39567 2.1472,-1.3903 2.0894,-5.458 6.7185,-10.12 13.151,-12.505 0.41912,-0.15639 -0.2299,-1.2167 -0.65215,-1.0728"
     id="path602"
     style="fill:#0f141b" />
  <path
     d="m 95.488,95.302 c 6.1211,2.2708 10.965,6.7889 13.16,11.915 0.23301,0.54579 1.7782,1.4012 1.6765,0.96649 -1.5107,-6.4386 -6.5481,-11.942 -14.394,-14.111 -0.43007,-0.11881 -0.86015,1.0713 -0.44259,1.2292"
     id="path604"
     style="fill:#0f141b" />
  <path
     d="m 29.344,114.892 c -3.511,7.6772 -5.5268,16.293 -5.5268,24.039 0,9.7619 4.1506,17.725 11.62,23.418 3.6799,2.7978 3.8926,1.5905 0.56145,-1.1557 -6.6263,-5.4627 -10.126,-13.151 -10.126,-22.262 0,-7.086 1.5561,-14.863 4.4024,-22.054 0.17984,-0.4551 -0.74599,-2.3896 -0.93053,-1.9846"
     id="path606"
     style="fill:#0f141b" />
  <path
     d="m 82.188,167.992 c -4.845,1.3434 -10.326,2.0252 -16.296,2.0252 -5.6113,0 -10.799,-0.6021 -15.42,-1.7907 -3.4812,-0.89768 -3.6642,-0.13763 -0.30183,1.1448 4.9498,1.8876 9.9761,2.5601 15.722,2.5601 6.1164,0 11.546,-0.96024 16.645,-2.7368 3.5892,-1.2496 3.3124,-2.2223 -0.34875,-1.2026"
     id="path608"
     style="fill:#0f141b" />
  <path
     d="m 101.378,114.462 c -0.4113,0.17204 -0.6021,0.64746 -0.43008,1.0572 3.1982,7.5646 4.9576,15.878 4.9576,23.413 0,9.2552 -3.6126,17.045 -10.448,22.523 -2.3896,1.9158 -1.6374,2.6258 0.87735,0.87265 8.3012,-5.7708 11.185,-13.633 11.185,-23.396 0,-7.746 -1.8063,-16.285 -5.0858,-24.043 -0.17202,-0.40819 -0.64589,-0.60054 -1.0556,-0.42695"
     id="path610"
     style="fill:#0f141b" />
  <path
     d="m 29.984,116.052 c -2.9652,-6.6403 0.35657,-13.043 0.35657,-13.043 -6.5215,3.084 -15.814,12.452 -19.225,16.324 -11.698,13.278 -10.933,27.4 -8.7735,29.559 3.3139,3.3139 19.242,-3.2044 29.644,-14.242 0.66934,-0.71001 0.49105,-13.013 -2.0018,-18.598"
     fill="#A0D8E5"
     id="path614" />
  <path
     d="m 102.108,114.272 c 2.2708,-5.3345 -0.6928,-10.198 -0.14225,-10.378 0.5286,-0.1736 0.98213,-0.23615 1.309,-0.0548 5.4283,3.0152 13.98,11.621 17.391,15.492 11.698,13.281 10.933,27.401 8.7735,29.562 -3.3499,3.3467 -19.577,-3.3421 -29.969,-14.593 -0.78976,-0.85702 -2.6211,-6.2994 -4.3007,-11.656 0,0 4.246,-2.0487 6.939,-8.3731"
     fill="#A0D8E5"
     id="path616" />
  <path
     d="m 30.181,136.792 c 0.91175,-0.98525 1.6593,-2.8072 -1.5013,-1.5404 -3.1622,1.2636 -17.904,9.8401 -26.084,13.753 2.4897,0.71158 8.8923,0.35501 15.295,-3.3202 6.401,-3.6752 11.302,-7.8242 12.291,-8.8923"
     fill="#8ABBC7"
     id="path618" />
  <path
     d="m 101.238,135.962 c -1.0666,-0.94773 -0.9618,-2.5867 1.1854,-1.187 8.1808,5.336 16.835,9.2489 27.98,13.043 -2.0143,2.8448 -7.8242,2.252 -15.412,-1.897 -7.588,-4.149 -12.492,-8.8392 -13.753,-9.9589"
     fill="#8ABBC7"
     id="path620" />
  <path
     d="m 30.893,101.542 c -7.0688,3.927 -15.722,11.585 -20.592,17.111 -12.108,13.747 -11.269,28.568 -8.7719,31.065 3.6376,3.6361 18.005,-2.4272 28.236,-11.762 2.0018,-1.8251 1.212,-2.5726 -0.78976,-0.74597 -10.581,9.654 -23.651,13.518 -26.064,11.107 -1.6499,-1.6499 -2.8275,-15.25 8.8094,-28.457 3.1231,-3.5469 12.278,-12.635 17.671,-15.63 0.38785,-0.21738 1.8908,-2.9057 1.5013,-2.6883"
     id="path622"
     style="fill:#0f141b" />
  <path
     d="m 36.677,95.412 c -9.5773,4.9544 -12.677,18.951 -3.0183,26.68 8.6734,6.939 24.619,3.6627 32.232,-6.9312 8.0212,11.163 22.913,14.163 32.345,6.6137 10.211,-8.1667 6.3807,-21.854 -3.7643,-26.679 -0.40349,-0.18922 -1.0979,1.2668 -0.69283,1.4576 10.286,4.8903 10.355,17.86 3.0262,23.721 -7.9118,6.3307 -23.59,3.3264 -30.236,-6.9218 -0.48793,-0.75068 -0.82259,-0.8195 -1.3528,0 -7.1314,10.994 -22.644,12.998 -30.24,6.9218 -7.7225,-6.1774 -6.5152,-19.205 3.0543,-23.734 0.40348,-0.18923 -1.1323,-1.2433 -1.3528,-1.1291"
     id="path624"
     style="fill:#0f141b" />
  <path
     d="m 102.888,104.542 c 5.3908,2.9964 14.053,11.776 17.176,15.322 11.635,13.209 10.333,26.586 8.6828,28.238 -2.4413,2.4413 -15.589,-1.9298 -26.108,-11.765 -1.8767,-1.7547 -2.6414,-0.73817 -0.76475,1.015 10.151,9.4929 24.452,15.795 28.138,12.111 2.7806,-2.7822 3.3561,-16.347 -8.7344,-31.042 -4.6839,-5.691 -14.111,-13.47 -19.741,-16.598 -0.38785,-0.21738 0.9618,2.5038 1.3512,2.7196"
     id="path626"
     style="fill:#0f141b" />
</svg>
