<?xml version="1.0" encoding="UTF-8"?>
<svg version="1.1" viewBox="0 0 441.5 453.73" xmlns="http://www.w3.org/2000/svg">
 <g transform="translate(-.049621 .024038)">
  <path d="m356 395.85q1 1.4 0.85 2.5-0.2 1.3-2.15 0.8-5.05-1.25-9.1-1 2.95 5.6 3.85 10.8 0.3 1.95-0.65 2.45-1 0.5-3.2-0.75-8.15-4.7-10.8-6.8l-3.85 3.55q1.8 3 3.5 7.85 1.8 5.25 0.95 5.95-0.7 0.55-8.1-4.25-9.65-6.25-12.55-7.7-4.75-2.4-7.3-3.2l-3.5-0.65-6.9-1.4-9.45-2.3-9-2.4-6.6-2q-2.15-0.9-3.4-3.1-1.5-2.6-0.45-5.45 0.65-1.75 3.85-8.05l4.8-10.4 31.55-4.3 1.2 4.55q0.7 2.4 1.8 4.45 6.2 3.1 13.25 5.55 7.45 2.55 11.75 2.95l7.55 1.05q3.3 0.9 5.4 3.1 2.65 2.7 6.7 8.2" fill="#f5ac3c"/>
  <path d="m202.8 392.3q0.1 7.85 2.55 16.15 2.2 7.65 7.75 20 1.2 2.7 1.45 5.5 0.2 2.55-0.3 6.1-1.2 8.2-2.05 10.45-0.65 1.7-1.95 1.6-1.3-0.15-2.55-2l-4.25-5.75q-3.15-4.1-4.65-5.6-1.65-1.65-4.1-2.8-2.5-1.15-5.15-1.45l-5.2-0.3q-2.85 0.45-5.25 3.3-4.75 5.75-7.95 10.3-1.35 1.85-2.7 1.9-1.45 0.05-2.2-2.05t-1-6.8q-0.25-4.35 0.1-7.1-7.35-2.45-12.1 2.7l-4.8 5.05-3.95 4.35q-1.55 1.95-3.15 1.8-1.7-0.15-2-2.85-0.3-2.8 0.7-9.25 1-6.55 2.1-9.15 1.1-2.4 4.35-5.25 2.8-2.5 5.85-4.25 8.8-5 12.05-7.55 9.7-7.75 12-17.05h26.4" fill="#f5ac3c"/>
  <path d="m284.3 116.45-1.75 2.3q-0.8 0.8-1.6 0.65-0.9-0.15-0.9-1.55l0.15-8.2 5.7-3.4q0.7 3.75 0.1 7.1l-1.7 3.1" fill="#fff"/>
  <path d="m249.75 104.35q1.4 0.5 3.4 1.55l3.05 1.6q-0.05 3.25-1.05 4.9-0.7 1.2-2.2 1.9l-1.25-0.75-1.55-1.5q-1.25-1.7-1.5-5-0.25-3.35 1.1-2.7" fill="#36a0da"/>
  <path d="m280.2 109.65 4.15-2.5q0.25 7.75-4.25 8.75l0.1-6.25" fill="#36a0da"/>
  <path d="m260.35 109.4q0.2 5.15-2.7 7.55-2.9-1.15-4.75-2.7 1.7-0.75 2.45-2.35 0.7-1.55 0.85-4.4l4.15 1.9" fill="#fff"/>
  <g fill="#3e4e57">
   <path d="m260.15 108.85q3.2 1.65 5.6 5.95 1.9 3.4 2.4 6.3-1.85-0.15-5.7-1.4l-5.75-2.25q2.3-1 3.05-3.65 0.5-1.75 0.4-4.95"/>
   <path d="m286.05 106.1 2.85-0.85q-0.65 3.3-2.7 7.35 0.35-2.45-0.15-6.5"/>
   <path d="m278.65 81.95q-1.5-13.85-2.55-19.25 4.1 2.15 8.45 7.35 2.35 2.8 6.35 8.7 0.35 5.65 0.2 9.95l-0.7 8.7q-2.55-6.55-6.15-11.9-0.8 4.1-4.15 15.5 0-5-1.45-19.05"/>
   <path d="m265 58.95q1.75 7.1 3.35 25.85-2.6 4.7-7.6 16.3l-5.1-10.1q-2.85-5.5-4.45-7.7-2.05 4.3-6.55 18.2-3.75-14.5-7.85-38.55 8-4.8 15.5-5.45 5.65-0.5 12.7 1.45"/>
   <path d="m226.8 97.45-10.2-11.1q2.15-5.2 5.3-10.35 3-4.95 5.2-7.1 3.1 20.7 8.45 38.55l-8.75-10"/>
   <path d="m349.8 230.9q0.3 2.55 1.75 4.2 1.2 1.4 3.85 2.8 13.8 7.35 21.4 11.95 14.15 23.1 25.2 45.5 14.85 30.1 20.3 51.65-25.3-7.35-43.45-16.95-23.6-12.45-41.25-31.3-0.15 14.25-8.8 29.3-4.15 7.2-13.3 18.35-4.1 5.05-5.35 10.6-0.95 4.3-0.05 7.3 1.05 3.4 7.65 8.65-2.4 0.3-8.3-0.95l2.85 6.25q-4.35-1.85-7.4-5.3l0.05 6.8q-0.15 3.9-0.55 5.5-4.55-5.45-9.35-12.25-1.05 3.9-2.8 8.3-1.9 4.65-3.65 7.65-2.3-2.65-8.55-11.95l-5.9 4.35q-2.85 1.75-5.1 2.4l2.4-7.7-6 1.2-5.85 1q4.5-5.45 7.1-7.3 3.1-2.2 1.3-6.15-1.35-3.25-4.45-8.6-3.4-5.9-5.85-9.05-11.05 2.35-20.75 6.2-8.35 3.3-12.25 6.2-5.7 4.3-12.8 17-2.25 4.1-2.5 6.8-0.2 2.25 1 5.1 1.05 2.45 2.7 4.7l3.95 4.7q-4.15-1.9-8.75-5.2 2.2 5.35 3.7 11-5.95-1-11.15-6.35-1.65 6-2.3 9.95-1.6-1.8-2.85-4.4l-2.35-5.85q-3.5 8.9-5.1 14.3-1.65-2.6-3-6.75l-1.95-7.25q-3.65 2.5-9.6 5.45-5.5 2.7-10.6 4.65l3.6-6.1 3.9-6.65q-1.9 1-5.35 2.1l-5.9 1.65q2.65-3.35 8.6-9.35l-6.15-0.45q-3.65-0.5-5.05-1.25 2.3-2.7 12.55-6.8 0.8-8.75 0.45-11.9-0.45-3.65-3.05-8.3l-7.25-11.9q-5.6-9.7-10.65-22.05-5.85-14.35-4.15-30.35 1.55-14.5 9.7-33.2l20.05-4.05q11.7-2.55 17.2-4.6 2.2-6.4 2.8-15.5 0.35-5.7 0.2-17.35-8.6-0.5-19.7 1.15-9.95 1.45-16.4 3.7-9.9 8.8-21.35 28.55-21.7 12.35-58.6 22.55-26.9 7.45-52.85 11.6-3.2 0.5-3.55-1.4-0.35-1.6 1.3-3.75 20.35-26.6 48.05-47.05 26.2-19.35 61.8-35.25 18.8-17.05 33.6-28 12.85-9.55 25.25-16.35l9.65-25.85 7.4-20.05 88.1 14.55q0.6 4.9 2.8 14.1l3.2 12.55q12.25 13.15 44.25 41.8-1.8 3.5 2.25 36.7"/>
  </g>
  <g fill="#5084c4">
   <path d="m284.35 85.15q1.8 2.5 6.05 12.25-0.5 4.8-1.4 7.5l-8.7 4.5-0.15-7.8 4.2-16.45"/>
   <path d="m247.9 92q2.2-6.1 3.3-8.7 3.7 5.7 9.55 17.8l7.6-17.3q0.85 7.9 0.95 20 0.1 13.15-0.9 16.75-0.75-2.5-2.55-5.6-1.9-3.15-3.5-4.55-1.6-1.45-6.55-3.5-4.75-2-10.8-3.85l-0.35-2 3.25-9.05"/>
   <path d="m136.1 187.2q10.75-2.35 15.65-2.25l-18.2 16.2q-7.6 3.4-16.25 7.6-10.1 4.95-15.2 7.9 2.4-6.25 7.35-13.35 4.1-5.8 9.15-11.1 6.7-2.65 17.5-5"/>
   <path d="m149 237.4q6-7.75 10.4-11.95 5.95-2.3 19.15-3.6l16.25-0.8q0.6 8.55-0.5 18.85-1.1 9.9-3 14.15-7.45 2.8-24.2 6.05-12.1 2.4-25.65 4.4-22.8 12.05-67.8 26.2-48.55 15.3-72.3 16.2l10.9-9.95q6.95-6.1 10.7-8.95 13.15 1.2 54.75-10.85 42.2-12.25 59.65-22.7 4.95-8.45 11.65-17.05"/>
   <path d="m101.45 292.55q-2.2-1.3-2.2-2.55-0.05-1.05 1.65-2.6 4.75-4.4 13.45-10.8l14.45-6.2q8.6-3.6 12.65-5.9l13.1-1.95q-6.7 14.25-8.6 28.75-1.15 8.95-0.5 21.5-7.75-2.6-20.85-8.6-13.55-6.25-23.15-11.65"/>
   <path d="m347.1 197.4q-0.1-2.65 1-3.75 0.85-0.85 2.95-1.2l13.35-0.6q9.5-0.15 12.6 0.05 5.4 0.3 6.65 4.55 2.15 7.1 3.8 19.3t1.5 19.75q14.4 25.15 26.65 52.85 17.55 39.7 24.9 72.6l-9.7-7.7-8.3-6.55q-4.6-18.9-17.75-46.5-12-25.2-27.75-50.7l-10-5.9-12.15-6.4q-2.3-1.1-3.25-2.5-0.85-1.2-1.3-3.55-0.75-4.15-1.95-16.75-1.15-12.25-1.25-17"/>
  </g>
  <path d="m192.2 138.85q5.2-7.3 10.05-9.1l-9.25 26.65q-7.35 3.75-11.1 6.25 3.55-14.4 10.3-23.8" fill="#f5ac3c"/>
  <path d="m263.3 47.6-7.7-6.15q-4.5-3.9-6.95-6.35 0-7.25 1.35-17.75 1.4-10.7 3.1-16.05 4.8 5.65 11.2 15.85l8.25 13.85q0.2 3.85-0.7 13.8 4.6 13.6 6.7 35.65 1.75 18.2 1.5 37.4-0.05 1.6 1 1.6 0.95 0 1.85-1.2 7-8.7 8-25.1 0.75-11.95-1.8-32.2-3.95-3.6-8.8-10.05l0.25-14.35q0.25-8.65 0.85-11.65 8.55 14.7 12.15 32.95 3.35 16.75 2.05 33.55-1.25 16.15-6.5 28.25-5.3 12.4-13.3 17.1-2.1 1.25-3.6 0.7-1.05-0.4-2.8-2.4l-9.5-0.3q-15.6-15.8-24-27.15-5.65-15.8-8.9-41.2-3.2-24.5-2.2-41.8 4.75 5.25 16.5 29.4-1.75 2.6-4.7 8.55 2.2 16.3 5.85 30.45 3.55 13.85 6.5 17.9 2.5 3.4 8.5 6.4 3.3 1.65 8.7 3.55 1.7 0.6 2.25 0 0.3-0.4 0.45-2.15 1.15-15.65-0.65-35.05-1.35-14.5-4.9-36.05" fill="#f5ac3c"/>
  <path d="m399.2 288.25q6.75 13.25 12.4 26.95 7.4 18 10.55 31.25-19.55-5.1-38.25-14.3-28.95-14.25-45.9-34.1-0.6-26.1-12.65-73.85 20.65 40.8 73.85 64.05" fill="#27333a"/>
  <g fill="#f5ac3c">
   <path d="m382.7 319.85q-1.05 6.2-4.3 9.95-2.05 2.35-7.5 5.8 1.75-4.15 2.85-17.35 0.2-2.65 1.9-4 1.6-1.25 3.5-0.7 1.9 0.6 2.9 2.2 1.05 1.75 0.65 4.1"/>
   <path d="m390.25 294.7q1.45-1.05 3.85-0.9 1.8 0.1 3.05 2.2 1.25 2.05 1.2 4.65-0.2 9.9-10.25 16.75 0.8-2.7 0.95-8.35 0.1-5.1-0.35-9.4-0.4-3.5 1.55-4.95"/>
   <path d="m401.05 321.25q1.6 4.55 0.1 11.5-1.15 5.25-3.5 9.95-3.05-9.3-5.4-17.35-0.95-3.15-0.45-4.85 0.55-1.7 2.7-2.65l3.85-0.15q1.75 0.9 2.7 3.55"/>
  </g>
  <path d="m260.85 155.3q1.95 2.8 4.45 8.65 2.4 5.65 3.7 10.3 1.25 4.5 3.4 18.8 2.05 14.05 3.25 25.75 0.8 8 0.4 15.85-0.5 9-2.5 15.25-4.6 14.3-8.55 31.45-5 10-14.6 10.6-6.25 0.45-8.8-4.5-2.4-4.6-0.45-11.2-9.3 3.85-13.85-1.1-4.3-4.65-1.35-13.3-9.25 3.25-13-2.65-3.55-5.55 0.9-12.15l-7.45 1.2-5.45-0.25q17.75-16.05 32.75-35.95 14.55-19.3 21.65-35.7-5.55-1.2-10.1-3.65-4.05-2.15-8.3-5.8 3.2-1.25 11.2-5.1 8.4-4.05 12.7-6.5" fill="#fff"/>
  <path d="m282.55 170.75q1.4-4.2 5-11.45 5.7 2.15 8.55 4-1.15 2.5-3.3 5.05-2.55 2.95-5.6 4.8 6.7 16.95 19 42.2 13.05 26.85 20.2 37.4-5.1-1.35-7.55-2.5 3.2 4.55 3.15 8.85-0.05 3.8-2.6 6.25-2.5 2.35-6.15 2.25-3.9-0.15-7.45-3.2 2.65 7.1 1.15 11.55-1.75 5.15-8.65 4.6-4.95-10.1-7.75-17.7-3.75-10.1-4.95-18.65-0.4-2.95-1.1-15.75l-1.65-24.45q-0.55-6.4-0.95-13.75l-0.65-12.15q-0.2-3.05 1.3-7.35" fill="#fff"/>
  <g fill="#3e4e57">
   <path d="m315.25 255.4q2.6 4.05-0.3 6.25-1.2 0.9-2.8 0.55-1.7-0.35-2.9-2-1.1-1.55-0.95-3.4 0.15-1.6 1.15-2.75 0.95-1 2.9-0.55 1.95 0.4 2.9 1.9"/>
   <path d="m254.4 275.4q1.9 1.4 2 3.55 0.1 2-1.25 3.75-1.2 1.55-3.55 1.45-2.15-0.05-3.45-1.3-1.2-1.15-1.25-3.35t1.15-3.55q1.25-1.4 2.95-1.55 1.8-0.2 3.4 1"/>
   <path d="m239.9 263.9q1.2 1.45 0.65 3.6-0.5 2-2.05 3.25-1.5 1.1-3.5 0.9-2.05-0.2-2.95-1.55t-0.4-3.15q0.5-1.75 2-3.2 1.4-1.4 3.3-1.3 1.8 0.1 2.95 1.45"/>
   <path d="m224.75 250.35q1.35 1.25 1.05 3.5-0.3 2.2-2 3.55-1.65 1.3-3.75 1-1.95-0.3-3-1.8-0.9-1.25-0.15-3.25 0.65-1.7 1.95-2.8 1.3-1.05 2.85-1.2 1.8-0.2 3.05 1"/>
   <path d="m248.9 104.4q-0.45 0.8-0.35 2.65t0.7 3.6q-2.25-1.1-3.75-7.55l3.4 1.3"/>
   <path d="m280.1 117.6 0.5 0.05 0.7-0.1q0.8-0.3 3-1.75l-1.65 2.4q-1.35 1.5-1.85 1.45-0.7-0.15-0.7-2.05"/>
   <path d="m299.3 266.2q1.75 0.75 2.65 2.45 1.05 1.9 0.4 3.9-0.55 1.8-2 2.65l-2 0.35q-1.7-0.05-2.75-0.8l-2-4.4q0.3-0.95 0.95-2.1 0.8-1.5 1.35-1.85 1.5-0.95 3.4-0.2"/>
  </g>
  <path d="m305.75 69.1q1.5 7.9 0.85 18.25-0.6 10.7-3.35 20.55-2.5 9.05-6.5 19.2l-3.9 9.6q-1.85 4.55-2.1 5.75-0.95 4.15-1.25 7.85-0.25 3.55 0.15 5.65-1.95 2.9-3.95 7-2.45 5-3.1 8.1-1 3.5-0.75 12.8 0.2 6.75 1.25 20.45 0.8 9.6 1.45 23.2l0.8 14.2q0.95 9.2 4.25 19 3.25 9.7 8.25 18.35l4.85 8.35q2.7 4.85 3.25 6.55 0.3 2.1-4.3 8.5l-7.95 10.35q-12.45 16.1-34.5 33.2-1.9-22.85 2.75-51.15 3.75-22.4 9.2-37.15 5.7-15.35 4.7-34.9-0.3-6.65-1.55-15.7l-1.9-13.8q-3.4-28.55-16.15-44.25-13.65-16.75-44.25-27.5-1.75-9.25-8.3-27.15-4.75-12.95-9.2-23.3 13.25 3.25 39.95 35.25l11.1 13.1q8.15 9.4 14.35 15.3l4.8 0.3h4.7q3.5 3.8 6.4 1.7 10.5-7.35 15.55-22.75 4.25-12.9 4.35-30.5 4.8-4.3 10.05-14.4" fill="#5084c4"/>
  <path d="m166.85 223.65q3.55-0.95 7.5-1.45 2.2 0.85 2.75 3.05 0.5 1.9-0.45 4-0.95 2.05-2.65 2.85-1.95 0.9-3.95-0.35-2.05-1.3-5.1-2.95-3.6-1.95-5.8-2.85l7.7-2.3" fill="#afbfe2"/>
  <path d="m133.4 187.55q10.2-2.6 18.05-2.45l-17.9 15.6q-6.05-4.45-15.6-8.5 12.1-3.8 15.45-4.65" fill="#afbfe2"/>
  <g fill="#4573ab">
   <path d="m137.65 254.35q0.5 3.05 5.5 5.25 5.15 2.3 12.75 2.65l-7 0.95-7.3 0.8q-31.45 15.95-74.65 28.9-40.55 12.1-65.6 14.2 4-4.15 11.2-10.4 5.85-5.05 10.6-8.75 3.1 0.75 16.35-1.6 13.75-2.45 30.75-6.95 43.7-11.6 67.4-25.05"/>
   <path d="m145.7 293q-1.55 12.55 0.2 19.55-13.2-4.15-29.3-11.6-19.5-9-16.7-11.9l21.8 0.85q13 0.95 24 3.1"/>
   <path d="m371.9 332.5q-6.95-3.6-16.9-10.7-11.85-8.45-18.15-15.25l1.15-8.5q5.4 5.95 13.9 13.3 12.25 10.65 20.6 14.35l-0.6 6.8"/>
   <path d="m378.65 329.6q6.65 3.65 17.15 7.85l2 4.95 1.5-3.35q3.7 1.6 11.6 4.15 7.6 2.45 11.25 3.25l9.15 7.3 8.75 7.6q-13.3-3.25-33.2-11.45-21.55-8.9-32.2-16.25l4-4.05"/>
   <path d="m359.95 218.9q1.3 7.7 5.8 15.65 4.55 7.95 11.55 14.75-17.1-9.8-24.45-13.6 1.3-4.45 2.8-7.95 1.6-3.85 4.3-8.85"/>
   <path d="m290.55 143.15q-0.85 3.4-1.15 7.2-0.25 3.55 0.05 5.95-5.05-1.4-13.75-7.65-8.95-6.45-15.85-13.8l5 0.4 4.55-0.1q3.35 3.6 5.95 1.9 8.85-5.8 14.15-18.4 6.1-14.55 6.55-36.4 2.2 13.15 1 30.2-1.05 14.4-3.55 22.55l-1.45 3.75q-1.1 2.6-1.5 4.4"/>
  </g>
  <g fill="#d49433">
   <path d="m171.75 415.75q-4.1 5.85-6.4 18.1-3.6-0.9-6.2-0.6-1.35 0.2-3.8 1.1 4.95-8.6 8.4-12.3 2.55-2.7 8-6.3"/>
   <path d="m203 398.95q0 3.25 2.5 10.75 1.8 5.4 4.3 11.3-6.05-6.8-24.2-9.1-17.3-2.25-27.05 1.45l5.8-4.05q2.9-2.3 3.1-3.3 6.95-3.45 16.25-9.2 0.85 6.9 4.55 13.7 0.5-1.7 2.25-6.05l3-7.8q0.15 1.55 2.05 5.1 1.75 3.25 3.25 5.05 0.75-4.1 2.2-10l2 2.15"/>
   <path d="m181.6 434.85q3.4-12.1 7.8-11.75 3.25 0.3 5.45 4.15 2.15 3.8 2.7 10.1-4-2.65-9.85-3.25l-6.1 0.75"/>
   <path d="m280.3 376.7q5.6 8.6 8.55 11.85 1.6-2.75 3.5-7.7 1.7-4.4 2.8-8.3 5.05 7.35 9.6 12.2 0.75-3.55 0.35-12.1l3.9 3.55q1.7 1.25 3.55 1.6l-1.25-2.85q6.75 3.95 11.15 5.15-5.8 1.2-10.2 4.85-3.85 3.15-5.75 7.35-4.25-0.4-9.8 3.2-5.2 3.45-6.8 7.05l-9.3-2.2q-5.7-1.5-8.25-2.65-3.65-1.7-4.35-4.05-1.05-3.35 2.1-10.3 5.6-3.15 10.2-6.65"/>
  </g>
  <path d="m23.15 287.95q-5.35 4.2-11.35 9.35-7.3 6.3-10.45 9.8 5.7-11.45 20.35-27.1 12.45-13.3 26.35-24.5l-18.05 19.85q-8.95 10.55-6.85 12.6" fill="#afbfe2"/>
  <path d="m282.2 247.35q-0.3-10.1 0-22 0.3-13.45 1.15-20.2l0.9 23.75q0.75 15 2.35 21.05 2.7 10.9 8.35 23.6 5.3 11.95 11.1 20.75-0.4 1.75-1.6 3.65l-2.4 3.15 0.3-2.85 0.05-2.65q-0.85-2.2-4.9-8.5-4.6-7.2-7.15-12.6-3.9-8.25-6.15-16.2-1.85-6.75-2-10.95" fill="#afbfe2"/>
  <path d="m213.95 89.3q-7.15-7.15-18.65-17.55 9.2 2.05 29.4 23.75 11.05 11.9 30.1 34.1-6.45-5.6-15.4-14.25-8.6-8.35-14.15-14.3l-11.3-11.75" fill="#4573ab"/>
  <path d="m381.1 192.4-5.1 5.55-5.7 6.3q-2.8 1.3-4.6-0.4-1.65-1.45-1.9-4.45t0.95-5.2q1.4-2.5 3.95-2.5l12.4 0.7" fill="#afbfe2"/>
  <path d="m264.05 356.8q-3.4-6.05-6.15-9.95l18.3-3.5q14.85-1.85 29-7.5 22.15-8.9 30.15-23.6-6.25 19.95-20.3 34.5-3.45 3.6-5 12.6-0.55 3.5 0.9 6.15 1.65 3 6.95 7.05l-3.85-0.15-4.6-0.95q2.1 4.65 3.35 6.35-1.8-0.4-4.05-1.95-2.05-1.4-3.65-3.2 0.5 8.8-0.35 12.1-6.3-7.1-9.5-11.95l-2.95 8.8q-1.85 4.8-3.45 6.95-3.85-4.4-8.55-11.85l-5.15 3.95-5.7 3.45q0.95-2.15 1.4-4.55l0.6-3.7-5.55 1.15-6.3 1.1 4.25-4.35 3.35-3.15q1.3-1.25 1.6-2.3 0.4-1.4-0.55-3.55-1.3-2.85-4.2-7.95" fill="#27333a"/>
  <path d="m327.2 399.6q5.55 2.4 7.9 4.25l-4.4 3.1q-1.35-2.45-4.55-5.05l-7-4.9q2.45 0.25 8.05 2.6" fill="#d49433"/>
  <path d="m161.2 384.05q3.75-1.85 8.2-3.55 0.95-7.05 0.65-12.9 1.85 4.8 7.35 7.95 5.2 3 12.15 3.75 7 0.7 13.45-1.05 6.95-1.95 11.4-6.3-5.05 9.05-4.8 11.55 0.4 5.45 7.85 13.85l-4.25-2.15q-2.75-1.45-4.4-2.7 1.6 5.8 3.25 10.45-3-0.25-5.5-1.55-2.85-1.5-5.55-4.6-1.7 6-2.2 10-4.15-5.05-5.3-10.15l-5.25 13.85q-2.6-4.1-4.65-13.45l-10.05 5.4q-6.9 3.5-10.1 4.75 3.5-5.65 7.35-12.9-2.8 1.35-6.4 2.65-3.65 1.3-5.7 1.65l9.55-10-7.15-0.4q-3.8-0.45-4.1-1.2-0.35-0.7 4.2-2.95" fill="#27333a"/>
  <g fill="#d49433">
   <path d="m389.4 295.55q0.7-1.1 2.4-1.6l3.3 0.15q3.5 1.75 3.2 6.75-0.2 3.85-2.25 7.95-0.4-2-2.9-3.6-2.25-1.45-4.25-1.45l-0.15-5q0.05-2.3 0.65-3.2"/>
   <path d="m373.2 323q0-5.45 1.6-7.85 1.65-2.5 4.8-1.3 3 1.1 2.9 5.1-0.05 3.4-2 6.9-0.55-2.2-2.95-2.95l-4.35 0.1"/>
   <path d="m394.2 331.8q-2.35-5.9-2.6-8.25-0.5-4.45 3.25-5.85 6.45-2.4 6.8 8.4-2.75-0.35-4.85 1.3-2 1.65-2.6 4.4"/>
   <path d="m185.05 151.95q3.15 2.1 9.2 0.85l-1.55 3.75-10.7 6.35q0.75-4.75 3.05-10.95"/>
  </g>
  <g fill="#0d131a">
   <path d="m251.95 105.35q0.7-0.05 1.15 0.9 0.45 0.85 0.5 2 0.1 1.1-0.4 2.05t-1.2 0.9q-0.5-0.05-0.9-0.95-0.4-0.85-0.5-2.2-0.05-1.1 0.35-1.9 0.4-0.75 1-0.8"/>
   <path d="m280.5 113.7 0.15-4.7q0.55-0.1 1 0.5 0.45 0.65 0.45 1.75 0 2.05-1.6 2.45"/>
   <path d="m264.4 280 0.15 2.9q-1.85 4.2-5.25 6.9-3.3 2.65-7.2 3.15-7.7 0.95-11.3-4.45-3.6-5.35-0.15-12.15 1.05-0.65 2.05-1.35-3.45 6.5-0.5 11.6 2.95 5.15 9.95 4.25 4.1-0.55 7.3-3.3 3.25-2.85 4.95-7.55"/>
   <path d="m224.95 253.55q0.1-1.6-0.95-2.6-0.95-0.9-2.65-0.65-1.65 0.2-2.8 1.4-1.2 1.3-1.3 2.9-0.1 1.65 0.95 2.6 0.95 0.9 2.6 0.7 1.7-0.2 2.85-1.45 1.2-1.25 1.3-2.9m0.2-3.8q1.4 1.35 1.3 3.7-0.1 2.3-1.65 4-1.6 1.65-3.9 1.9-2.35 0.25-3.8-1.15-1.4-1.35-1.3-3.65 0.1-2.25 1.65-3.95 1.7-1.75 4-2 2.2-0.2 3.7 1.15"/>
   <path d="m236.25 263.35q-1.55 0.2-2.8 1.5-1.2 1.3-1.3 2.9-0.1 1.65 0.95 2.6 0.9 0.85 2.6 0.65 1.75-0.15 2.85-1.4 1.2-1.25 1.3-2.9 0.1-1.6-0.95-2.6-1.05-0.95-2.65-0.75m-4.15 8.15q-1.5-1.35-1.4-3.6 0.05-2.3 1.7-4.1 1.55-1.65 3.8-1.85 2.3-0.25 3.8 1.15 1.55 1.45 1.4 3.65-0.1 2.15-1.85 3.95-1.55 1.65-3.85 1.85-2.25 0.2-3.6-1.05"/>
   <path d="m254.4 282.25q1.2-1.15 1.2-2.85t-1.2-2.85q-1.15-1.2-2.85-1.2t-2.85 1.2q-1.2 1.15-1.2 2.85t1.2 2.85q1.15 1.2 2.85 1.2t2.85-1.2m1.2-6.95q1.6 1.7 1.6 4.1 0 2.6-1.65 4.2-1.65 1.55-4.2 1.55-2.25 0-3.8-1.55-1.65-1.65-1.65-4.15 0-2.6 1.7-4.25 1.65-1.65 4.2-1.65 2.2 0 3.8 1.75"/>
   <path d="m315.65 259.45c0.1-0.93333-0.13333-1.9333-0.7-3-0.53333-0.96667-1.2667-1.6667-2.2-2.1-0.9-0.4-1.7167-0.4-2.45 0-0.73333 0.43333-1.1833 1.1333-1.35 2.1-0.16667 1 0.0167 1.9833 0.55 2.95 0.53333 1 1.2667 1.7 2.2 2.1 0.9 0.4 1.7333 0.4 2.5 0 0.83333-0.43333 1.3167-1.1167 1.45-2.05m0.55-3.8c0.7 1.2667 0.96667 2.5667 0.8 3.9-0.16667 1.5-0.86667 2.6-2.1 3.3-1.0333 0.56667-2.2333 0.58333-3.6 0.05-1.3333-0.56667-2.35-1.4833-3.05-2.75-0.73333-1.3-0.96667-2.65-0.7-4.05 0.23333-1.4333 0.88333-2.4333 1.95-3 1.7843-0.93464 3.6-0.15 3.6-0.15 1.3667 0.5 2.4 1.4 3.1 2.7"/>
   <path d="m117.75 191.7 0.25-0.2q6.65-2.8 16.65-5.1 11.3-2.6 17.7-2.2l-1.55 1.5q-6.2-0.1-17.15 2.9-7.6 2.1-14.4 4.7-4.3 4.6-8.6 10.45-4.95 6.7-7.8 12.3l-2.05 0.85q2.9-6.6 7.95-13.95 4.55-6.6 9-11.25"/>
   <path d="m101.7 294.1q-3.4-2-3.65-3.85-0.2-1.75 2.35-3.95 4.2-3.65 6.75-5.5 3.1-2.25 8.05-5.15l9.2-3q-8.65 4.8-13.4 7.95-4.65 3.15-9.05 7.2-1.5 1.4-1.35 2.2 0.1 0.85 2.05 2 8.75 5.2 20.7 10.45 6.5 2.8 22.95 9.3l0.45 3.15q-26.1-9.35-45.05-20.8"/>
   <path d="m165.6 432.7-0.2 2q-6.4-1.9-9.75 0.95-5.2 4.4-10.3 11.15-2.15 2.8-4.55 2.25-2.65-0.6-2.65-5.2 0-12.75 4.25-19.45 2.55-4.05 9.1-8.1l10.1-6.1q6.35-3.95 7.8-5.95l2.75-0.9q-1.3 2.35-8.2 7.2-3.85 2.7-11.45 7.45-6.15 3.85-8.35 7.55-3.55 6-3.55 18.4 0 2.2 0.95 2.5 0.85 0.25 1.85-1 1.75-2.2 4.95-5.45 3.3-3.4 6.1-5.8 2-1.75 4.7-2l6.45 0.5"/>
   <path d="m252.6 0q1.15-0.25 3.05 2.1 4 4.95 10.05 15.15l7.45 12.7q0.5 0.65 0.4 1.8l-0.95 12.6q9.35 33.4 8.05 73.35-0.05 0.9 0.5 1 0.45 0.05 0.9-0.55 5.7-6.75 7.5-20.4 1.9-14.9-1.05-36.35l-4.55-4.7-4.05-4.65q-0.4-0.55-0.4-1.35l0.2-23.4q-0.05-3.05 1.1-3.4 1.15-0.3 2.6 2.35 5.8 10.9 8.85 22.05 4 14.45 4.25 31.7 0.3 20.05-4.25 33.8-5 15.3-16.15 23.5-1.7 1.25-3.1 1.05-1.1-0.15-2.5-1.3-3.1-2.7-7.2-4.55-4.3-1.95-8.3-2.3l-1.65-2q4.4-0.2 9.55 2.1 4.9 2.2 8.65 5.75 1.65 1.6 3.65 0.25 9.45-6.25 14.8-20.6 5.65-15.25 5-35.65-1.05-32.05-13.5-52.9-0.55 19.95-0.45 23.45 1.35 2.1 4.15 5.25l4.55 4.8q2.35 20.7 1.75 31.65-0.95 17-8.3 26.55-1.35 1.75-2.5 1.6-1.25-0.2-1.2-2.75 0.75-21.3-2.5-44.3-2.55-17.85-6-28.5l0.45-6.6 0.3-6.45q-4.25-8-9.5-16.1-4.85-7.6-8.9-12.7-1.95 10.05-3.6 32 6.55 6.1 14.15 12.35 3.95 20.95 5.35 37.6 1.45 17.95 0.2 34.4-0.1 1.85-0.9 2.35l-2.3-0.05q-8.35-2.7-12.4-5.35-6.9-4.45-9.1-11.8-2.5-8.4-5.15-21.35-2.35-11.45-3.7-20.85 1.2-3.05 4.4-8.4l-7-13.9q-4.65-8.7-7.6-13.3-1.05 17.8 2.7 44.8 3.95 28.45 9.9 40l-2.85-3.25q-4.85-11.85-8.2-33.65-3.6-23.55-3.6-47.9 0-2.95 1.05-3.35 1.15-0.4 3.05 2.75 3.95 6.3 14.05 26.55 0.6 1.1 0.1 1.9l-2.25 3.45q-1.5 2.35-2.3 4.2 1.4 9.15 3.75 20.4 2.7 12.85 5.25 21.3 2.05 6.95 8.55 11.2 3.5 2.35 11.65 5.2 1.55 0.6 1.7-1.15 2-30.05-5.7-71.15l-7.35-5.8-6.65-5.65-0.85-1-0.1-1q0.3-6.1 1.2-14.75 1.05-10.25 2.2-16.8 0.5-2.8 1.6-3.05"/>
   <path d="m265 57.7 0.35 2.6q-5.65-2.35-14.5-1.2-9.2 1.15-13.6 5.2l-0.45-2.8q4.85-3.9 13.75-4.95 8.5-1.05 14.45 1.15"/>
   <path d="m217.25 87.4-1.4-1.05q2-5.9 5.2-11.35 3.05-5.25 5.8-7.7l0.8 2.75q-5.3 5.2-10.4 17.35"/>
   <path d="m208.65 110.4 0.85 2.45-7.05 20.6-8.3 22.45-3.7 1.9q7.25-16.6 18.2-47.4"/>
   <path d="m195.75 72.1q5.35 3.4 17.8 15.9l23.2 23.75q10 10.1 15.95 15.6 2.25 2.7 11.85 12.45-11.65-9.65-28.7-27.1l-22.65-23.25q-12.35-12.45-17.5-16.1l0.05-1.25"/>
   <path d="m280.6 127.55-1.25 1.5c-0.46732 0.5098-0.7 0.55-0.7 0.55-0.1-0.13333-0.1-0.5 0-1.1 0.13333-0.66667 0.35-1.2833 0.65-1.85 0.33333-0.6 0.75-0.71667 1.25-0.35 0.46667 0.36667 0.48333 0.78333 0.05 1.25"/>
   <path d="m270.15 127.95s0.7353 0.58922 1.5 1.8c0.43333 0.76667 0.56667 1.2 0.4 1.3l-1.2-0.65-1.85-1.3c-0.53333-0.33333-0.4793-0.80199-0.25-1.1 0.28476-0.37009 1.4-0.05 1.4-0.05"/>
   <path d="m194.25 73.75q-1.1-2.5-0.5-3.15 0.65-0.6 3.25 0.4 6.8 2.65 15.5 10.5 8.75 7.9 21.25 22.75 14.4 17.15 24.4 27.2 18.3 18.3 31.65 24.15l-0.75 2q-13.65-5.2-32.45-24.6-6.8-6.95-24.1-27.5-23.55-27.95-36.75-33 4.85 10.2 9.25 22.05 5.35 14.5 8 26.3 25.05 7.9 39.6 22.7 14.3 14.55 18.25 35.4 4.8 25.45 5.7 44.2 0.85 17.95-2 26.95-10.1 31.95-13.35 56.85-2.7 20.4-1.05 39.15v0.05l-1.95 0.25q-2.45-26.3 3.5-55.95 2.75-13.85 11.1-41.15 2.75-8.95 1.75-27.5-0.95-18.3-5.35-42.4-3.7-20.35-18-34.35-14.25-13.95-39.65-22.3-0.4-0.1-0.4-0.45-3.8-18.6-16.9-48.55"/>
   <path d="m259.25 135.1-0.35-1.7 5.15 0.9 4.95 0.3 1 1.25q-2.9 0.15-5.65-0.05l-5.1-0.7"/>
   <path d="m307.6 71.65q0.8 16.6-1.9 30.25-3 15-11.75 34.55-2.4 5.4-3.05 10.9-0.4 3.45-0.15 8.9-4.35 6.6-6.3 11.65-2.15 5.6-2.05 10.85 0.2 9.55 1.6 27.8 1.5 19.15 1.65 24.3 0.35 9.1 1.55 15.7 2.6 14.3 8.15 25.55l5.55 10.45 5.3 9.5q0.9 1.65 0.7 3.05-0.15 1.55-1.7 3.75-20.15 29.9-44.85 47.4l-1.4-0.95q13.45-10.4 26.35-24.45 11.95-13.05 18.35-23.5l1.15-2.25q0.25-1.1-0.25-2.05l-5.35-9.5q-3.35-5.95-5.6-10.5-5.45-10.95-8.2-26.3-1.3-7.45-1.55-15.85-0.15-5.95-1.75-23.9-1.6-17.65-1.8-28.15-0.2-10.7 8.3-22.9-0.5-4.15 0.2-8.95 0.85-5.8 3.35-11.4 9.05-20.35 11.7-33.55 2.45-12.2 1.65-30.55-1.75 3.5-4.1 6.7l-5.2 6.45-0.3-2.3 4.3-5.65q1.7-2.5 3.4-6.05 1.2-2.55 2.45-2.55 1.4-0.05 1.55 3.55"/>
   <path d="m301.45 296.35q-0.2-1.8-3.8-7.35-4.7-7.25-8.5-15.65-3-6.6-4.7-12.2-2.1-6.8-2.65-13.45-0.15-2 0.2-2.1 0.3-0.1 0.65 2 0.6 4 3.4 13.1 1.65 5.25 4.8 12.15 3.95 8.65 8.25 15.2 3.65 5.45 4.05 7.8 0.4 2.5-2.45 7.35l-9.05 10.5q10.2-13.4 9.8-17.35"/>
   <path d="m276.3 64-0.4-2.85q4.3 2.25 8.9 7.55 4.55 5.3 6.25 9.95l-0.05 3.25q-1.65-4.65-6.35-10.25-4.5-5.35-8.35-7.65"/>
   <path d="m246.95 92.25 2.3-7.45q0.75-2.55 1.8-2.6 1.05-0.1 2.15 2.1l7.55 15.3q0.95-3.1 3.4-8.95l4-9 0.4 3.9q-1.65 3.4-6.8 15.6-0.4 0.95-1.1 0.9-0.6-0.05-0.95-0.8-2.9-6.3-8.45-16.25l-6 16.65-1-1.75 2.7-7.65"/>
   <path d="m284.7 87.1-2.05 8.05-2.35 8.1-0.25-3.6 3-13.3q0.35-2.1 1.2-2.2 0.8-0.1 1.6 1.6 3.15 6.3 4.6 11l-0.45 2.2-2.35-5.7-2.95-6.15"/>
   <path d="m258 117.05-0.8-0.4q1.3-0.85 2-2.85 0.65-1.85 0.6-4.1l0.75 0.1q0.35 5.15-2.55 7.25"/>
   <path d="m253.15 114.45-0.6-0.85q1.5 0.05 2.4-2.1 0.85-2.1 0.35-4l1.2 0.25q0.3 2.6-0.8 4.7-1.05 2-2.55 2"/>
   <path d="m283.7 107.9 0.4-0.4 0.4-0.05q0.4 3.4-0.8 5.85-1.15 2.3-3.3 3l-0.1-0.9q1.7-0.35 2.75-2.55t0.65-4.95"/>
   <path d="m285.15 112.65c0.7-1.8333 0.83333-3.9333 0.4-6.3 0.26667-0.13333 0.51667-0.28333 0.75-0.45 0.46667 2.6 0.33333 4.8833-0.4 6.85-0.46667 1.1667-1.0667 2.2167-1.8 3.15-0.8 0.93333-1.6 1.5667-2.4 1.9-0.7 0.3-1.3167 0.3-1.85 0v-0.7s1.1556 0.19147 1.65-0.05c1.7123-0.83624 2.85-2.3667 3.65-4.4"/>
   <path d="m237.1 169.1q-1.65-1.25-1.25-2.2 0.3-0.85 2.3-1.6 5.75-2.15 12-5.2 6.4-3.1 10-5.45l0.85 1.5q-3.5 2.35-9.9 5.55-6.25 3.15-12.4 5.65 6.8 5.75 17.15 8.25 0.35 0.05 0.5 0.45l-0.05 0.65q-5.95 14.15-20.5 34.15-16.4 22.45-33 36.8 8.05-0.3 12.6-2.3l-1.35 2.15q-5.1 1.85-10.4 2.2-3.35 0.2-3.75-1.1-0.45-1.25 1.6-2.95 16.7-14.05 32.5-35.35 14.05-18.9 20.3-33.35-5.4-1.35-9.05-3-3.95-1.75-8.15-4.85"/>
   <path d="m215.2 245q1.05-0.85 1.45-0.45t-0.55 1.35q-3.25 3.4-3.5 7.3-0.25 3.4 1.85 5.9 2 2.5 5.35 2.95 3.8 0.5 7.75-2.05 1.25-0.75 1.55-0.25 0.3 0.45-0.85 1.35-4.05 3.2-8.9 2.7-4.4-0.45-6.7-3.3-2.4-2.9-1.9-7.4 0.5-4.95 4.45-8.1"/>
   <path d="m243 273.7q1.05-0.8 1.4-0.4 0.4 0.45-0.6 1.4-4.05 4-9.25 4.15-4.55 0.15-7.35-2.3-2.65-2.3-3.2-6.4-0.65-4.6 1.9-8.4l1.75-0.75q-2.5 4-1.9 8.1 0.55 3.5 3 5.65 2.55 2.15 5.9 2.25 4.15 0.05 8.35-3.3"/>
   <path d="m320.9 259.15q0.05-4.45-3.55-10.05-0.65-1.05-0.15-1.4 0.5-0.3 1.25 0.7 4.25 5.9 4.3 11.3 0.1 4.75-2.75 7.05-2.55 2.1-6.65 1.8-4.1-0.35-6.85-2.8l-1.35-3.05q3.2 3.15 7.3 3.65 3.75 0.5 5.95-1.35 2.45-2.05 2.5-5.85"/>
   <path d="m195.9 154q2.9-1.45 3.3-0.85 0.4 0.65-2.4 2.15-16.8 8.95-33.55 22.05-11 8.6-28.8 24.85l-0.2 0.15q-40.35 16.1-78.95 47.6-35.1 28.6-52.45 55.8 30.55-3.1 78.65-18.8 40.95-13.35 60-23.4l0.25-0.1 26.55-4.6q12.4-2.5 22.25-5.85 2.1-7.3 2.8-16.5 0.5-6.05 0.5-15.6l0.1-0.25q7.35-15.55 14.35-33.45 5.9-15.2 9.2-25.75 1.05-3.35 1.75-3.1 0.65 0.25-0.25 3.5-3.1 11.35-8.6 25.95-6.55 17.45-14.3 33.4 0 10.55-0.4 16.25-0.7 9.85-2.8 17.3l-0.45 0.4q-9.8 3.35-23.2 5.85l-27.7 4.4q-20.1 10.5-60.15 23.8-48.05 16-78.35 18.85-4.45 0.35-2.3-3.15 16.75-26.95 52.4-56 38.5-31.35 79.55-48.45 17.55-16 29.15-24.9 17-13.05 34.05-21.55"/>
   <path d="m148.6 235.6q5.2-6.9 9.7-10.95l0.2-0.15q6.55-2.25 16-3.4l20.5-1.15-0.3 1.8q-22.2 0.3-34.5 4.6-12.05 10.95-22 28.4l-0.25 0.25q-18.1 10.8-54.35 21.6-32.9 9.75-56.85 12.9-8.8 1.1-4.6-5.75 2.65-4.3 10-12.15 3.5-3.8 19.15-19.75l6.55-4.7q-15.25 15.5-22.3 23.25-8.15 8.95-11.15 13.9-1.2 2-0.7 2.65 0.55 0.65 3.2 0.3 24.05-3.1 56.15-12.5 35.8-10.4 53.75-21.05 5.9-10.35 11.8-18.1"/>
   <path d="m22.25 287.2 1.55 1.4-11.3 9.1q-6.35 5.3-9.65 8.85l-0.95-0.9q7.75-8.35 20.35-18.45"/>
   <path d="m118.1 193.55 1.05-1.4q7.7 3.4 11.2 5.75 1 0.7 0.8 1.15-0.25 0.4-1.35-0.25-4.7-2.75-11.7-5.25"/>
   <path d="m158.7 226.95 0.9-1.45q7.7 3.3 14.1 8 1.45 1.05 1.25 1.5-0.2 0.4-1.75-0.55-6.9-4.25-14.5-7.5"/>
   <path d="m181.6 241.45q-1-0.85-0.7-1.2t1.35 0.45q2.65 2.1 5.35 5.75 2.55 3.45 4.05 6.9l-1.35 0.65q-1.45-3-3.6-6.35-2.8-4.25-5.1-6.2"/>
   <path d="m201.7 130.95q-4.7 1.25-10.95 12.15-5.75 10.05-7.75 18.8l-2.65 1.9q1.75-9.65 8.2-20.85 7.3-12.7 14.05-14l-0.9 2"/>
   <path d="m156.6 262c-9.7333 20.833-12.633 39.5-8.7 56 1.5667 6.5333 4.6333 14.2 9.2 23 2.5333 4.8667 6.1 11.267 10.7 19.2 1.2333 2.3 2.0167 3.9667 2.35 5 0.5 1.5333 0.75 3.5 0.75 5.9l-0.25 8.9c-0.0212 0.53104-0.2 0.95-0.2 0.95s-0.41144 0.54379-0.9 0.65c-1.6667 0.53333-3.5833 1.3333-5.75 2.4-2.2 1.0667-3.8333 2-4.9 2.8l9.65 0.85c0.73333-0.0333 1.1667 0.11667 1.3 0.45 0.16667 0.3 0 0.68333-0.5 1.15l-8.3 7.95c5.0667-1.8 8.2833-3.0667 9.65-3.8 0.53333-0.26667 0.91667-0.35 1.15-0.25 0.23333 0.13333 0.2 0.5-0.1 1.1-1.8667 3.7-4.0667 7.5167-6.6 11.45l10.45-5.35c3.7667-1.9333 6.1833-3.3 7.25-4.1 0.56667-0.43333 0.95-0.61667 1.15-0.55 0.2 0.0667 0.33333 0.36667 0.4 0.9 0.83333 4.6333 2.0167 8.6833 3.55 12.15l4.85-12.5c0.2-0.56667 0.48333-0.81667 0.85-0.75 0.33333 0.1 0.56667 0.38333 0.7 0.85 1.2333 3.9333 2.55 6.7667 3.95 8.5 0.33333-2.1333 0.98333-4.8667 1.95-8.2 0.3-0.93333 0.8-0.98333 1.5-0.15 2.5667 2.9667 5.5833 4.7667 9.05 5.4l-2.85-9.1c-0.23333-0.6-0.23333-1.0333 0-1.3s0.58333-0.2 1.05 0.2c1 0.8 2.5667 1.7833 4.7 2.95-2.1333-2.8-3.5667-5.0667-4.3-6.8-1.1-2.6667-1.1667-5.0833-0.2-7.25 1.9-4.1 3.95-7.8667 6.15-11.3 2.8-4.4333 5.6333-7.8667 8.5-10.3 3.4667-2.9333 9.4167-5.7833 17.85-8.55 9.4667-3.1 20.7-5.6 33.7-7.5 1.6667-0.23333 2.5167-0.15 2.55 0.25 0 0.36667-0.75 0.68333-2.25 0.95-24.767 4-41.6 9.3167-50.5 15.95-1.7333 1.3-3.9833 3.9667-6.75 8-2.9333 4.2333-5.4333 8.5667-7.5 13-0.7 1.4-0.66667 3.2 0.1 5.4 0.93333 2.8667 3 5.9667 6.2 9.3 1.2667 1.3333 1.7 2.2167 1.3 2.65s-1.5833 0.15-3.55-0.85c-2.2333-1.2-3.85-2.2667-4.85-3.2l2.65 6.95c0.43333 1.3333 0.55 2.1667 0.35 2.5 0 0-0.70818 0.61732-2.45 0.15-3.4333-0.76667-6.5333-2.6667-9.3-5.7-0.46667 2.3-0.8 4.6667-1 7.1-0.1 1.6333-0.5 2.5333-1.2 2.7-0.73333 0.2-1.6167-0.56667-2.65-2.3l-1.65-3.05c-0.56667-1.1667-1.05-2.5333-1.45-4.1-1.7667 5.0333-2.9 8.5333-3.4 10.5-0.46667 1.8333-1.05 2.7667-1.75 2.8-0.76667 0.0667-1.5167-0.91667-2.25-2.95-1.2333-3.4333-2.2-7.1-2.9-11l-8.35 5.15c-2.9667 1.7333-5.8167 3.2167-8.55 4.45-1.9667 0.9-3.2167 1.0667-3.75 0.5-0.53333-0.53333-0.23333-1.65 0.9-3.35l5.9-9.1c-2.5667 1.4667-5.1 2.6333-7.6 3.5-2.974 0.90121-3.6-0.1-3.6-0.1-0.23333-0.7 0.35-1.7333 1.75-3.1l6.65-6.4-8.4-0.45c-1.7-0.26667-2.6167-0.85-2.75-1.75s0.55-1.75 2.05-2.55c3.3333-1.8 7.0833-3.4167 11.25-4.85 0.36667-3.9667 0.55-7.0167 0.55-9.15 0-1.6667-0.16667-3.15-0.5-4.45-0.4-1.5333-1.1167-3.1667-2.15-4.9-5.4-8.5-9.3667-15.067-11.9-19.7-4.4667-8-7.6-15.833-9.4-23.5-2.1-9-2.5-17.917-1.2-26.75 1.2667-8.7667 4.3833-18.55 9.35-29.35l3.2-0.15"/>
   <path d="m177.5 410.4-7 7.8q-1.15 1.4-1.4 1.2-0.25-0.25 0.65-1.55 2.8-3.95 6.35-8.2 1.05-1.35 1.75-0.9 0.75 0.45-0.35 1.65"/>
   <path d="m163.95 422.35-3.65 5q-0.75 0.95-1.65 0.45t0.25-1.65l4.3-4.3q1-1 1.25-0.75 0.2 0.25-0.5 1.25"/>
   <path d="m187.65 417.75-3.35 5.1-1.1 1.25q-0.3-0.05 0.3-1.5l1.15-2.9 1.4-2.75q0.9-1.45 1.7-1.05 0.85 0.35-0.1 1.85"/>
   <path d="m196.45 415q0.4 0.15 0.15 1.55-0.8 4.4-0.1 6.9 0.7 2.15 0.85 4.3 0.1 1.05-0.3 1.05-0.35 0.05-0.55-0.95l-1.15-3.9q-0.5-1.5-0.4-3.2 0.05-1.7 0.75-4.45 0.35-1.45 0.75-1.3"/>
   <path d="m215.85 437.25q-0.5 7.85-2.3 13.55-0.9 2.9-2.75 2.9-1.55 0.05-3-1.75l-4.2-5.45-4.25-5.75q-2.4-3.05-4.75-4.1l-4-1.1-4.45-0.6q-3.7 0-6.15 2.85-3.05 3.7-7.85 10.45-2.3 3.15-4.25 2.85-2-0.35-3.05-4.1-1.2-4.4-0.6-11.1 0.65-6.8 2.9-12.4 0.6-1.5 1.25-1.55 0.6 0 0.15 1.85-3.8 14.45-1.7 22.35 0.5 1.9 1.1 2.2 0.75 0.45 2.1-1.25 3.35-4.4 8.15-10 2.1-2.4 3.35-3.15 1.95-1.15 4.8-0.8 6 0.8 8.65 1.8t5.6 4.65l8.5 10.45q0.65 0.8 1.25 0.85 0.75 0.05 1.05-0.95 2.15-7.5 2.45-13.2 0.15-2.5-0.85-5.3l-6.45-15.7q-4.2-10.9-4.55-17.75l1.8 1.45q0.7 5.35 4.25 14.7l6.45 15.8 1.15 3.5q0.3 1.5 0.2 3.8"/>
   <path d="m338.95 284c1.1 11.067 0.11667 21.35-2.95 30.85-3.5333 10.9-10.067 21.65-19.6 32.25-1.5333 1.7-2.8 3.6833-3.8 5.95-0.73333 1.7-1.2 3.2333-1.4 4.6-0.3 2.1333-0.41667 3.7-0.35 4.7 0.1 1.3333 0.5 2.4667 1.2 3.4 1.5333 1.9 3.2 3.4333 5 4.6 1.3 0.83333 1.9333 1.6 1.9 2.3 0 0.76667-0.86667 1.1-2.6 1l-5.55-1.15c0.73333 1.7 1.55 3.15 2.45 4.35 0.66667 0.83333 0.71667 1.45 0.15 1.85s-1.3667 0.31667-2.4-0.25c0 0-1.5186-0.80867-2.6-1.8l-2.65-2.45c0.36667 4 0.53333 6.9833 0.5 8.95-0.0333 1.8-0.45 2.7667-1.25 2.9-0.76667 0.13333-1.6333-0.48333-2.6-1.85l-6.9-10.1c-1.1667 4.6667-2.7333 9.2167-4.7 13.65-0.53333 1.2333-1.1 1.9333-1.7 2.1-0.66667 0.16667-1.4-0.36667-2.2-1.6-2.8333-4.2-5.05-7.7167-6.65-10.55-2.0333 2-4.8667 4.1333-8.5 6.4-3.3333 2.0333-4.2833 1.2833-2.85-2.25l2-5.4-8.15 2.15c-2.1 0.53333-3.3333 0.55-3.7 0.05-0.33333-0.53333 0.23333-1.6333 1.7-3.3 1.5667-1.8 3.5333-3.6833 5.9-5.65 0.93333-0.73333 1.4333-1.4667 1.5-2.2 0.0667-0.56667-0.15-1.4167-0.65-2.55-2.8333-6.3667-6.3833-12.317-10.65-17.85l2.3-0.65c2.1333 3.3 4.1333 6.6333 6 10 1.7667 3.2 3.0333 5.7667 3.8 7.7 0.7 1.8 0.96667 3.15 0.8 4.05-0.16667 0.83333-0.85 1.7667-2.05 2.8-1.6333 1.3667-3.6667 3.3167-6.1 5.85l9.25-1.8c1.1-0.2 1.5667 0.18333 1.4 1.15-0.46667 2.9-0.91667 4.8667-1.35 5.9l8.6-5.75c0.49567-0.39053 0.9-0.4 0.9-0.4s0.39445-0.0909 0.8 0.6c1.6333 2.7333 4.1667 6.2667 7.6 10.6 1.1333-2.2 2.2833-4.7333 3.45-7.6 1.2-3.1 1.9333-5.3833 2.2-6.85 0.1-0.56667 0.33333-0.85 0.7-0.85 0.3-0.0333 0.58333 0.13333 0.85 0.5 1.6667 2.4667 4.4333 6.0833 8.3 10.85 0.26667-2.8333 0.26667-6.3333 0-10.5-0.0333-0.6 0.13333-0.93333 0.5-1 0.3-0.0333 0.58333 0.11667 0.85 0.45 1.4333 1.8333 3.2333 3.25 5.4 4.25l-2.2-4.4c-0.4-0.96667 0-1.3 1.2-1l5.55 0.85c-2.1667-1.9333-3.7667-3.55-4.8-4.85-1.7-2.0333-2.1833-5.15-1.45-9.35 0.3-1.8 0.81667-3.6167 1.55-5.45 0.96667-2.5333 2.1667-4.6 3.6-6.2 7.5667-8.5333 12.983-16.6 16.25-24.2 4.6333-10.9 6.4833-23.467 5.55-37.7-0.6-8.9333-3.0833-22.917-7.45-41.95-4.6333-19.967-9.6833-38.167-15.15-54.6-4.5-13.5-7.7667-23.7-9.8-30.6-4.1-13.833-6.5167-24.233-7.25-31.2l1.55-2.25c1.3 9.6667 3.7667 20.45 7.4 32.35 2.1 6.9 5.4833 17.3 10.15 31.2 6.8667 21.833 12 39.733 15.4 53.7 3.8667 15.767 6.4667 30.183 7.8 43.25"/>
   <path d="m269.4 382.65 1.9 0.8q-1.65 3.95-2.05 5.45-0.75 3.05 0.15 4.85 1 2.05 4.7 3.25 22.35 6.75 30.25 7.35 3.9 0.35 11.45 4.35 7.5 4 17 10.75 1.15 0.85 1.7 0.75 0.45-0.1 0.25-0.9-1.95-6.6-3.95-10.3-2.5-4.6-6.35-7.2-5.8-3.95-10.2-6.15-5.15-2.55-9.8-3.45-1.7-0.35-1.55-0.95 0.1-0.6 1.8-0.3 5.45 0.95 10.35 3.15 4.75 2.15 10.45 6.2 4.15 2.95 7 7.7 2.6 4.3 4.45 10.7 0.85 2.95-0.7 3.9-1.6 1-4.4-1-20.65-14.75-27.45-15.3-4.95-0.4-15.9-3.2l-15.15-4q-2.1-0.55-3.9-1.7-1.85-1.2-2.55-2.6-1.1-2.2-0.1-5.75 0.65-2.55 2.6-6.4"/>
   <path d="m331.4 408-1-1.65q2.05-1.95 4.05-3.15l1.6 1.05q-0.7 0.4-2.3 1.75l-2.35 2"/>
   <path d="m323 384.9c-1.2333-0.46667-1.7833-0.93333-1.65-1.4 0 0 0.30766-0.65081 2.05-0.05 8.7333 3.1667 15.267 6.8167 19.6 10.95 4.2 4 6.75 8.8667 7.65 14.6 0.33333 1.9333 0.05 3.25-0.85 3.95-1.0333 0.8-2.6167 0.45-4.75-1.05-10.333-7.1333-19.45-12.333-27.35-15.6l-3.35-2.1c4.1333 0.6 9.4167 2.5833 15.85 5.95 5.1 2.6667 10.417 5.9167 15.95 9.75 0.66667 0.46667 1.25 0.63333 1.75 0.5 0.46667-0.16667 0.63333-0.58333 0.5-1.25-0.86667-5.3667-3.2833-9.9333-7.25-13.7-3.9-3.7-9.95-7.2167-18.15-10.55"/>
   <path d="m347.9 387.7c-1.0667-1.0667-2.3667-1.8333-3.9-2.3l-6-0.85c-3.0333-0.0667-7.0667-0.86667-12.1-2.4-5.4-1.6333-10.083-3.5667-14.05-5.8l-1.45-3.15c4.8 2.6 9.85 4.85 15.15 6.75 5.6 2 9.7833 3 12.55 3s5.0333 0.28333 6.8 0.85c1.7 0.56667 3.15 1.45 4.35 2.65 1.8 1.8 4.6167 5.0833 8.45 9.85 1.3333 1.7 1.7333 2.9167 1.2 3.65-0.5 0.7-1.75 0.81667-3.75 0.35l-4.7-1.1c-2.4032-0.57077-5.25-0.35-5.25-0.35l-0.75-1.9c1.9-0.36667 5.4333 0.05 10.6 1.25 0 0 0.67252 0.0764 0.85-0.15 0.15456-0.1972 0.18333-0.45-0.05-0.75-4.2-5.3-6.85-8.5-7.95-9.6"/>
   <path d="m346.3 196.05c0-1.5667 0.36667-2.65 1.1-3.25 0.53333-0.46667 1.4667-0.76667 2.8-0.9l14.75-1c5.7-0.2 9.85-0.23333 12.45-0.1 3 0.16667 4.9167 0.71667 5.75 1.65 0.56667 0.66667 1.2833 2.7167 2.15 6.15 2.8333 11 4.4167 23.25 4.75 36.75 10.667 18.367 20.517 38.133 29.55 59.3 10.367 24.267 17.6 45.833 21.7 64.7 0.33333 1.5333 0.33333 2.5167 0 2.95 0 0-0.60851 0.82222-3.2 0.1-9.3-2.5667-19.95-6.4667-31.95-11.7-11.267-4.9-22.217-10.317-32.85-16.25l1.4-1.6c9.9667 5.5667 20.75 10.8 32.35 15.7 11.567 4.8667 22.117 8.6333 31.65 11.3-4.1333-18.467-11.467-40.133-22-65-8.8-20.767-18.333-40.483-28.6-59.15l-0.05-0.3c-0.3-12.9-1.9167-24.983-4.85-36.25-0.66667-2.6333-1.4-4.3167-2.2-5.05-0.8-0.7-2.4167-1.1167-4.85-1.25-2.8667-0.16667-6.6833-0.21667-11.45-0.15l-13.75 0.7c-1.2333 0.13333-2.0833 0.43333-2.55 0.9-0.43333 0.43333-0.63333 1.2333-0.6 2.4 0.13333 3.8 0.55 9.1833 1.25 16.15 0.63333 6.2333 1.2833 11.8 1.95 16.7 0.23333 1.8667 0.78333 3.3 1.65 4.3 0.63333 0.76667 1.7333 1.5167 3.3 2.25 3.1 1.5 6.9833 3.65 11.65 6.45l9.75 5.95 0.25 0.2c12.3 19.967 22.2 37.883 29.7 53.75 7.2667 15.3 12.65 29.467 16.15 42.5 0.36667 1.3667 0.36667 2.3 0 2.8-0.43333 0.6-1.3667 0.68333-2.8 0.25-5-1.5333-12.333-4.2-22-8l0.9-2c6.7 2.6 13.75 5.0333 21.15 7.3-3.3667-12.3-8.65-26.083-15.85-41.35-6.7667-14.367-16.317-32.3-28.65-53.8-8.7333-5.2667-16.05-9.3-21.95-12.1-1.6-0.76667-2.8167-1.7167-3.65-2.85-0.93333-1.3-1.55-3.0333-1.85-5.2-0.6-4.6-1.15-10.35-1.65-17.25-0.53333-7.2-0.8-12.767-0.8-16.7"/>
   <path d="m377.7 330.25 1.15-1.7q7.95 4.2 17.15 8l0.45 2.5q-9.65-3.95-18.75-8.8"/>
   <path d="m372.2 331.45-0.5 2q-11.1-6.35-20.45-13.35-8.9-6.65-14.9-12.95l0.2-2.25q11.6 12.8 35.65 26.55"/>
   <path d="m373.35 325.55-0.3 1.95q-21.5-12.3-34.95-28.25l-0.1-2.6q14 16.65 35.35 28.9"/>
   <path d="m431.9 352.75 8.25 7.15-1 1.35-8.45-6.8-9.9-7.45 1.35-2.05q4 3 9.75 7.8"/>
   <path d="m380.05 315.5c-0.93333-0.86667-2.0333-0.98333-3.3-0.35-1.2667 0.66667-1.9667 1.75-2.1 3.25-0.83333 7.5333-1.6333 12.817-2.4 15.85 4.3667-2.7667 7.2667-6.75 8.7-11.95 0.43333-1.5333 0.56667-2.8833 0.4-4.05-0.16667-1.2-0.6-2.1167-1.3-2.75m-7.3 1.6c0.26667-2.3667 1.4833-3.9167 3.65-4.65 2.0667-0.66667 3.8667-0.31667 5.4 1.05 0.96667 0.9 1.5833 2.1333 1.85 3.7 0.26667 1.5333 0.15 3.2-0.35 5-0.83333 3-2.3167 5.8167-4.45 8.45-2.0667 2.5333-4.4333 4.4833-7.1 5.85-1.1115 0.45061-1.45 0.05-1.45 0.05-0.16667-0.26667-0.15-0.68333 0.05-1.25 0.56667-1.8333 1.0833-4.9167 1.55-9.25l0.85-8.95"/>
   <path d="m395.6 296q-1.2-1-2.8-0.9-1.25 0.1-2.05 0.95-0.95 0.9-0.95 2.4l0.15 5.05q0 6.3-0.75 12.5 4.75-4.1 6.8-9.15 1.6-3.95 1.25-7.4-0.25-2.25-1.65-3.45m-6.5-2.15q1.35-1.25 3.5-1.4 2.55-0.25 4.35 1.25 2 1.6 2.35 4.8 0.6 5.15-1.9 10.05-2.6 5.2-8.25 9.4-0.95 0.75-1.3 0.6-0.45-0.15-0.25-1.55 0.9-7.15 0.1-19-0.15-2.65 1.4-4.15"/>
   <path d="m397.55 318.65q-2.3-0.8-3.95 1.15-1.7 1.95-1 4.4 3.35 11.65 5.25 16.4l0.1-0.35q2.05-6.05 2.55-10.1 0.5-3.55-0.05-6.8-0.6-3.95-2.9-4.7m-4.85-1.35q3.15-2.3 6.05-0.95 1.5 0.75 2.35 2.15 0.95 1.6 1.4 4.5 0.7 4.5-0.7 10.3-0.85 3.65-3.1 9.45-0.3 0.9-0.85 0.85-0.5-0.05-0.85-0.85-2.4-5.35-6.4-18.4-1.35-4.55 2.1-7.05"/>
   <path d="m380.3 192.5 1.85 1.4q-3.8 3.05-8.15 7.7-4.8 5.15-8.35 10.25-1.1 1.5-1.6 1.2-0.55-0.3 0.5-1.85 6.9-10.4 15.75-18.7"/>
   <path d="m353.6 236.15-1.75-1.2q4.05-9.95 7.25-15.5 0.85-1.45 1.4-1.2 0.5 0.3-0.25 1.8-3.2 6.55-6.65 16.1"/>
   <path d="m325.3 172.5q12.5 11.7 23.4 20.55l-1.6 1.9q-9.7-7.9-22.05-19.7-13.45-12.75-21.3-22l-0.45-3.25q7.35 8.85 22 22.5"/>
  </g>
  <path d="m250.75 104.9c0.63333 0.0667 0.96667 0.71667 1 1.95 0 0-8e-3 1.0235-0.25 1.45-0.15175 0.26724-0.46667 0.66667-0.7 0.6-0.23333-0.0333-0.43333-0.26667-0.6-0.7-0.2-0.43333-0.3-0.88333-0.3-1.35-0.0333-0.6 0.0333-1.0833 0.2-1.45 0.16667-0.36667 0.38333-0.53333 0.65-0.5" fill="#fff"/>
  <path d="m269.05 119.9-1.45 1.25q-0.9-2.5-2.5-5.45-1.65-3.1-2.9-4.4-1.85-1.85-17.15-7.9l0.05-1.35q15.85 5.85 18.25 8 2.95 2.65 5.7 9.85" fill="#0d131a"/>
  <path d="m282.45 108.1c0.2-0.0333 0.38333 0.13333 0.55 0.5 0 0 0.23718 0.82528 0.25 1.25 0.0147 0.48769-0.0196 0.99665-0.2 1.45-0.106 0.26643-0.3 0.7-0.5 0.7-0.46667 0-0.73333-0.63333-0.8-1.9-0.0333-0.53333 0.0333-1 0.2-1.4 0.13333-0.36667 0.3-0.56667 0.5-0.6" fill="#fff"/>
  <g fill="#0d131a">
   <path d="m288.85 104.05-0.15 1.7-4.25 2.4-4.15 2.85-0.15-2q2.95-2.2 8.7-4.95"/>
   <path d="m248.15 104.3 1.1 0.45q-0.65 3.25 1.05 6.85 0.15 0.2-0.35 0l-0.75-0.55q-1.65-3.1-1.05-6.75"/>
   <path d="m301.7 272.15c0.2-0.96667 0.11667-1.8667-0.25-2.7-0.4-1.0333-1.0667-1.7833-2-2.25 0 0-1.1706-0.7098-2.7-0.2-0.6 0.23333-1.0833 0.7-1.45 1.4-0.43333 0.73333-0.63333 1.5667-0.6 2.5l-1.15-2c0.0667-0.7 0.36667-1.3667 0.9-2 0.5-0.6 1.0667-1.0333 1.7-1.3 2.0817-0.7647 3.85 0.2 3.85 0.2 1.3333 0.63333 2.2667 1.6333 2.8 3 0.56667 1.4 0.61667 2.8167 0.15 4.25-0.5 1.4333-1.4273 2.2462-2.55 2.85-0.50443 0.2713-1.1275 0.267-1.7 0.25-0.81682-0.0243-2.5239-0.11725-2.4-0.5l-0.25-0.85-0.3-0.85c0.66667 0.46667 1.4592 0.70952 2.25 0.8 0.58333 0.0667 1.2351 0.0821 1.75-0.2 0.90403-0.49521 1.7167-1.2333 1.95-2.4"/>
   <path d="m326.05 249.8c1.1 1.6 1.4667 2.7333 1.1 3.4 0 0-0.56341 0.99215-2.9 0.1l-4.95-2.25-0.95-1.9 5.9 2.2c-5.3667-8.4667-12.217-21.483-20.55-39.05-3.9667-8.4333-9.7833-21.217-17.45-38.35-0.33333-0.7-0.15-1.2167 0.55-1.55 1.1333-0.56667 2.4833-1.6833 4.05-3.35 1.7333-1.8 3.0167-3.5667 3.85-5.3-1.7-0.93333-4.1-2.1-7.2-3.5l0.35-1.75c2.7 1.0333 5.25 2.1167 7.65 3.25 1.1 0.53333 1.7333 1 1.9 1.4 0.16667 0.43333-0.0333 1.0833-0.6 1.95l-3.95 4.65c-1.7 1.7333-3.25 3.0333-4.65 3.9 5.7 13.2 11.283 25.533 16.75 37 8.7667 18.333 15.8 31.383 21.1 39.15"/>
   <path d="m305.25 262.1q2.7 3.75 3.2 8.3 0.4 4.35-1.35 7.45-1.6 2.75-4.85 3.7l-2.6 0.2-1.1-0.2v-1.8q2.35 0.5 4.3-0.65 1.45-0.9 2.4-2.5 1.55-2.7 1.25-6.5t-2.4-7.4q-0.65-1.15-0.15-1.4 0.5-0.3 1.3 0.8"/>
  </g>
 </g>
</svg>
