<?xml version="1.0" encoding="UTF-8"?>
<!DOCTYPE svg PUBLIC "-//W3C//DTD SVG 1.1//EN" "http://www.w3.org/Graphics/SVG/1.1/DTD/svg11.dtd">
<svg xmlns="http://www.w3.org/2000/svg" version="1.1" width="300px" height="300px" style="shape-rendering:geometricPrecision; text-rendering:geometricPrecision; image-rendering:optimizeQuality; fill-rule:evenodd; clip-rule:evenodd" xmlns:xlink="http://www.w3.org/1999/xlink">
<g><path style="opacity:1" fill="#11181b" d="M 191.5,1.5 C 196.844,1.33398 202.177,1.50065 207.5,2C 208.059,2.72472 208.392,3.55805 208.5,4.5C 202.535,13.4757 196.535,22.4757 190.5,31.5C 195.442,38.049 195.775,44.8823 191.5,52C 194.35,55.0378 195.683,58.7044 195.5,63C 195.353,66.2748 194.686,69.4415 193.5,72.5C 195.958,77.5442 197.625,82.8775 198.5,88.5C 207.312,93.147 213.479,100.147 217,109.5C 219.723,117.282 221.223,125.282 221.5,133.5C 219.712,133.215 218.045,133.548 216.5,134.5C 224.945,145.444 227.612,157.61 224.5,171C 228.559,178.285 232.226,185.785 235.5,193.5C 232.298,196.243 228.631,198.243 224.5,199.5C 227.122,205.886 228.122,212.553 227.5,219.5C 223.422,218.863 219.589,217.53 216,215.5C 215.833,216 215.667,216.5 215.5,217C 217.642,227.594 218.975,238.427 219.5,249.5C 216.04,249.525 212.706,250.192 209.5,251.5C 207.017,258.291 204.35,264.958 201.5,271.5C 203.902,277.705 205.902,284.039 207.5,290.5C 206.197,295.133 203.031,297.133 198,296.5C 195.648,296.695 193.648,296.028 192,294.5C 189.998,287.822 187.998,281.155 186,274.5C 183.228,279.108 179.395,282.442 174.5,284.5C 173.28,284.113 172.613,283.28 172.5,282C 173.459,279.88 173.626,277.713 173,275.5C 167.068,284.766 159.235,291.932 149.5,297C 146.534,297.895 143.867,297.395 141.5,295.5C 136.754,290.255 132.588,284.588 129,278.5C 126.793,281.078 124.96,283.911 123.5,287C 121.024,287.68 119.191,286.847 118,284.5C 115.959,288.084 113.792,291.584 111.5,295C 107.09,296.989 102.924,296.489 99,293.5C 98.3333,290.833 98.3333,288.167 99,285.5C 102.627,279.08 106.127,272.58 109.5,266C 106.369,266.777 104.036,268.777 102.5,272C 100.888,272.72 99.3876,272.554 98,271.5C 97.1965,265.828 96.3632,260.161 95.5,254.5C 91.8018,256.195 88.9685,255.195 87,251.5C 80.4192,241.513 77.4192,230.513 78,218.5C 74.8838,220.024 73.0505,219.024 72.5,215.5C 73.0411,212.792 73.7077,210.126 74.5,207.5C 74,207.167 73.5,206.833 73,206.5C 70.3612,207.994 67.5279,208.661 64.5,208.5C 64.3338,201.161 66.3338,194.494 70.5,188.5C 69.2643,187.643 67.931,186.977 66.5,186.5C 64.3095,173.281 67.1428,161.281 75,150.5C 77.7273,147.269 80.894,144.603 84.5,142.5C 86.9028,136.341 90.7361,131.341 96,127.5C 96.5323,124.736 97.3657,122.07 98.5,119.5C 94.6229,118.803 90.7896,118.136 87,117.5C 85.2713,112.293 85.938,107.293 89,102.5C 94.0962,94.4157 101.263,88.9157 110.5,86C 116.107,84.6765 121.774,83.6765 127.5,83C 129.345,77.8028 132.511,73.6362 137,70.5C 137.052,62.7312 140.052,56.3979 146,51.5C 145.629,44.9371 147.796,39.4371 152.5,35C 156.007,32.746 159.673,30.746 163.5,29C 161.716,23.726 162.55,18.8927 166,14.5C 173.412,7.87781 181.912,3.54447 191.5,1.5 Z"/></g>
<g><path style="opacity:1" fill="#6c6b6c" d="M 190.5,5.5 C 194.846,5.33432 199.179,5.50098 203.5,6C 197.973,13.361 192.639,20.861 187.5,28.5C 180.583,28.7187 173.583,28.7187 166.5,28.5C 165.331,22.339 167.331,17.5057 172.5,14C 178.208,10.3101 184.208,7.47678 190.5,5.5 Z"/></g>
<g><path style="opacity:1" fill="#6b6a6b" d="M 167.5,31.5 C 174.391,30.9013 181.058,31.7346 187.5,34C 191.62,38.2155 192.453,43.0488 190,48.5C 187.353,49.4637 184.853,48.9637 182.5,47C 171.532,44.435 160.865,45.2683 150.5,49.5C 149.401,46.641 149.901,43.9743 152,41.5C 156.205,36.4922 161.372,33.1589 167.5,31.5 Z"/></g>
<g><path style="opacity:1" fill="#6d6c6e" d="M 186.5,52.5 C 186.654,56.0254 185.321,58.8587 182.5,61C 177.964,62.3789 173.297,62.8789 168.5,62.5C 162.866,63.1884 157.199,63.6884 151.5,64C 148.165,64.7526 144.998,65.9193 142,67.5C 141.578,60.854 144.411,56.0207 150.5,53C 159.35,48.7254 168.683,47.392 178.5,49C 181.31,49.9064 183.976,51.0731 186.5,52.5 Z"/></g>
<g><path style="opacity:1" fill="#565555" d="M 186.5,52.5 C 188.504,53.6728 190.004,55.3395 191,57.5C 191.793,61.423 191.626,65.2564 190.5,69C 189.5,69.6667 188.5,69.6667 187.5,69C 185.623,66.8942 183.29,65.5609 180.5,65C 176.363,64.1606 172.363,63.3272 168.5,62.5C 173.297,62.8789 177.964,62.3789 182.5,61C 185.321,58.8587 186.654,56.0254 186.5,52.5 Z"/></g>
<g><path style="opacity:1" fill="#6e6d6e" d="M 182.5,69.5 C 182.03,78.2902 177.363,81.9569 168.5,80.5C 160.882,79.3999 153.215,79.2332 145.5,80C 144.577,82.0408 144.244,84.2075 144.5,86.5C 141.518,86.9629 138.518,87.2962 135.5,87.5C 135.5,86.1667 135.5,84.8333 135.5,83.5C 131.561,83.8224 130.728,82.489 133,79.5C 141.456,69.9448 152.123,65.6114 165,66.5C 171.13,66.1228 176.963,67.1228 182.5,69.5 Z"/></g>
<g><path style="opacity:1" fill="#575555" d="M 182.5,69.5 C 193.533,74.956 196.533,83.2893 191.5,94.5C 185.143,87.4967 177.476,82.83 168.5,80.5C 177.363,81.9569 182.03,78.2902 182.5,69.5 Z"/></g>
<g><path style="opacity:1" fill="#66ab27" d="M 147.5,83.5 C 168.743,79.8441 184.243,87.5108 194,106.5C 196.118,112.346 196.785,118.346 196,124.5C 192.826,125.728 189.659,125.561 186.5,124C 172.418,118.908 160.918,110.408 152,98.5C 149.788,93.6977 148.288,88.6977 147.5,83.5 Z"/></g>
<g><path style="opacity:1" fill="#65aa27" d="M 124.5,86.5 C 127.247,86.1866 129.914,86.52 132.5,87.5C 123.519,105.151 109.186,114.485 89.5,115.5C 89.5913,106.821 93.258,99.9875 100.5,95C 107.94,90.3153 115.94,87.4819 124.5,86.5 Z"/></g>
<g><path style="opacity:1" fill="#6e6d6e" d="M 140.5,89.5 C 142.467,89.2606 144.301,89.5939 146,90.5C 150.506,104.345 159.34,114.512 172.5,121C 177.003,123.39 181.669,125.39 186.5,127C 171.717,132.617 161.383,142.783 155.5,157.5C 147.249,153.631 138.583,152.131 129.5,153C 127.812,155.726 126.312,158.559 125,161.5C 123.975,157.717 121.808,155.05 118.5,153.5C 114.753,154.306 111.086,155.306 107.5,156.5C 108.295,151.851 108.461,147.184 108,142.5C 105.174,140.66 102.007,139.994 98.5,140.5C 97.549,132.331 99.049,124.665 103,117.5C 116.236,112.637 126.403,104.137 133.5,92C 136.104,91.6097 138.438,90.7763 140.5,89.5 Z"/></g>
<g><path style="opacity:1" fill="#65a927" d="M 195.5,92.5 C 205.426,96.6153 211.926,103.949 215,114.5C 216.582,119.417 217.749,124.417 218.5,129.5C 214.359,130.275 210.359,129.608 206.5,127.5C 205.571,126.311 205.238,124.978 205.5,123.5C 203.833,123.5 202.167,123.5 200.5,123.5C 199.919,114.51 197.586,106.01 193.5,98C 194.32,96.1997 194.986,94.3664 195.5,92.5 Z"/></g>
<g><path style="opacity:1" fill="#171b20" d="M 110.5,115.5 C 113.238,114.965 115.072,115.965 116,118.5C 116.793,122.423 116.626,126.256 115.5,130C 118.167,129.667 120.833,129.333 123.5,129C 119.557,131.804 115.223,133.804 110.5,135C 115.399,136.368 120.399,137.368 125.5,138C 120.09,138.56 114.756,138.56 109.5,138C 113.2,142.035 117.2,145.702 121.5,149C 118.261,148.554 115.261,147.221 112.5,145C 104.924,139.785 102.091,132.619 104,123.5C 105.305,120.039 107.471,117.372 110.5,115.5 Z"/></g>
<g><path style="opacity:1" fill="#e3bd3a" d="M 110.5,117.5 C 111.822,117.33 112.989,117.663 114,118.5C 114.996,123.229 114.496,127.729 112.5,132C 110.564,132.813 108.564,133.313 106.5,133.5C 104.43,127.206 105.764,121.873 110.5,117.5 Z"/></g>
<g><path style="opacity:1" fill="#15191d" d="M 153.5,115.5 C 158.439,114.352 161.939,116.019 164,120.5C 164.667,124.5 164.667,128.5 164,132.5C 162.143,138.178 158.309,140.345 152.5,139C 150.959,137.421 149.792,135.587 149,133.5C 147.226,126.523 148.726,120.523 153.5,115.5 Z"/></g>
<g><path style="opacity:1" fill="#f1c83c" d="M 154.5,117.5 C 160.742,117.429 163.409,120.596 162.5,127C 163.054,131.105 161.721,134.438 158.5,137C 154.834,138.271 152.334,137.104 151,133.5C 149.622,127.53 150.789,122.196 154.5,117.5 Z"/></g>
<g><path style="opacity:1" fill="#524a24" d="M 109.5,123.5 C 111.465,123.948 111.798,124.948 110.5,126.5C 109.614,125.675 109.281,124.675 109.5,123.5 Z"/></g>
<g><path style="opacity:1" fill="#4b4324" d="M 155.5,124.5 C 156.586,124.62 157.253,125.287 157.5,126.5C 157.167,127.167 156.833,127.833 156.5,128.5C 155.571,127.311 155.238,125.978 155.5,124.5 Z"/></g>
<g><path style="opacity:1" fill="#66aa27" d="M 194.5,127.5 C 197.5,127.5 200.5,127.5 203.5,127.5C 203.283,154.312 190.117,170.312 164,175.5C 158.858,176.341 156.691,174.175 157.5,169C 158.681,155.973 164.347,145.306 174.5,137C 180.874,132.977 187.54,129.811 194.5,127.5 Z"/></g>
<g><path style="opacity:1" fill="#64a727" d="M 205.5,131.5 C 212.634,135.04 217.468,140.706 220,148.5C 222.368,154.978 223.035,161.645 222,168.5C 216.363,161.523 209.196,157.023 200.5,155C 204.707,147.737 206.374,139.904 205.5,131.5 Z"/></g>
<g><path style="opacity:1" fill="#5f9f26" d="M 94.5,131.5 C 95.4794,134.625 95.8128,137.958 95.5,141.5C 93.5,141.5 91.5,141.5 89.5,141.5C 90.2816,137.72 91.9483,134.387 94.5,131.5 Z"/></g>
<g><path style="opacity:1" fill="#467523" d="M 92.5,144.5 C 96.6344,143.515 100.968,143.182 105.5,143.5C 105.802,146.059 105.468,148.393 104.5,150.5C 104.5,148.5 104.5,146.5 104.5,144.5C 100.5,144.5 96.5,144.5 92.5,144.5 Z"/></g>
<g><path style="opacity:1" fill="#66ab27" d="M 92.5,144.5 C 96.5,144.5 100.5,144.5 104.5,144.5C 104.5,146.5 104.5,148.5 104.5,150.5C 104.649,153.607 104.149,156.607 103,159.5C 95.1858,164.824 90.3525,172.157 88.5,181.5C 82.1343,184.196 75.4677,185.196 68.5,184.5C 67.7534,169.892 72.7534,157.725 83.5,148C 86.3093,146.259 89.3093,145.092 92.5,144.5 Z"/></g>
<g><path style="opacity:1" fill="#66ab27" d="M 130.5,155.5 C 138.844,154.878 146.677,156.545 154,160.5C 154.333,165.5 154.667,170.5 155,175.5C 155.5,176 156,176.5 156.5,177C 160.541,177.173 164.541,177.673 168.5,178.5C 171.966,185.074 173.3,192.074 172.5,199.5C 138.201,203.872 124.201,189.205 130.5,155.5 Z"/></g>
<g><path style="opacity:1" fill="#66ab27" d="M 114.5,156.5 C 116.199,156.34 117.866,156.506 119.5,157C 130.467,177.468 126.134,193.801 106.5,206C 104.833,206.667 103.167,206.667 101.5,206C 87.0515,184.317 91.3848,167.817 114.5,156.5 Z"/></g>
<g><path style="opacity:1" fill="#66ab27" d="M 198.5,158.5 C 206.503,159.42 213.003,163.087 218,169.5C 222.898,176.738 227.398,184.238 231.5,192C 228.874,194.146 225.874,195.479 222.5,196C 202.719,200.091 188.052,193.424 178.5,176C 182.47,173.344 186.47,170.677 190.5,168C 193.754,165.253 196.42,162.086 198.5,158.5 Z"/></g>
<g><path style="opacity:1" fill="#64a727" d="M 171.5,176.5 C 173.144,176.286 174.644,176.62 176,177.5C 181.255,189.752 190.421,197.252 203.5,200C 209.594,200.293 215.594,200.46 221.5,200.5C 224.219,205.255 224.886,210.255 223.5,215.5C 220.103,213.478 216.436,212.478 212.5,212.5C 212.663,214.857 212.497,217.19 212,219.5C 208.726,214.226 204.226,210.392 198.5,208C 191.606,206.282 184.606,205.282 177.5,205C 176.5,204 175.5,203 174.5,202C 176.311,193.201 175.311,184.701 171.5,176.5 Z"/></g>
<g><path style="opacity:1" fill="#64a727" d="M 86.5,185.5 C 87.675,185.281 88.675,185.614 89.5,186.5C 90.3456,189.548 91.3456,192.548 92.5,195.5C 87.7224,200.612 83.7224,206.279 80.5,212.5C 78.1705,215.367 76.8372,215.034 76.5,211.5C 77.5081,208.155 78.5081,204.822 79.5,201.5C 76.0135,201.905 72.6801,202.905 69.5,204.5C 68.7677,198.58 70.4344,193.246 74.5,188.5C 78.7874,188.027 82.7874,187.027 86.5,185.5 Z"/></g>
<g><path style="opacity:1" fill="#66ab27" d="M 140.5,229.5 C 140.426,231.411 139.426,232.578 137.5,233C 131.5,233.667 125.5,233.667 119.5,233C 118.748,232.329 118.414,231.496 118.5,230.5C 121.326,220.91 120.992,211.41 117.5,202C 122.177,197.652 125.677,192.485 128,186.5C 131.72,193.054 136.886,198.054 143.5,201.5C 139.476,210.484 138.476,219.817 140.5,229.5 Z"/></g>
<g><path style="opacity:1" fill="#66ab27" d="M 108.5,239.5 C 99.0662,241.942 90.7329,239.942 83.5,233.5C 79.7343,220.126 83.0677,208.793 93.5,199.5C 95.6325,203.131 98.2992,206.298 101.5,209C 103.167,209.667 104.833,209.667 106.5,209C 108.933,207.368 111.433,205.868 114,204.5C 114.945,204.905 115.612,205.572 116,206.5C 117.682,216.663 116.349,226.33 112,235.5C 111.051,237.093 109.885,238.426 108.5,239.5 Z"/></g>
<g><path style="opacity:1" fill="#66ab27" d="M 146.5,201.5 C 169.738,196.911 181.405,206.411 181.5,230C 181.333,233.167 181.167,236.333 181,239.5C 179.537,243.423 178.37,247.423 177.5,251.5C 165.872,249.437 156.039,244.103 148,235.5C 142.516,224.412 142.016,213.078 146.5,201.5 Z"/></g>
<g><path style="opacity:1" fill="#65aa27" d="M 180.5,208.5 C 198.536,207.69 210.036,216.023 215,233.5C 216.195,237.751 216.695,242.085 216.5,246.5C 208.505,247.19 200.505,247.357 192.5,247C 189.302,246.152 186.469,244.652 184,242.5C 186.691,230.796 185.524,219.462 180.5,208.5 Z"/></g>
<g><path style="opacity:1" fill="#55911e" d="M 140.5,229.5 C 148.64,244.419 161.307,252.586 178.5,254C 179.874,251.417 181.374,248.917 183,246.5C 190.045,250.068 197.545,251.402 205.5,250.5C 203.983,255.038 202.316,259.538 200.5,264C 199.833,264.667 199.167,264.667 198.5,264C 197.173,260.64 194.84,258.974 191.5,259C 188.155,266.028 183.822,272.361 178.5,278C 177.668,278.688 177.002,278.521 176.5,277.5C 177.978,274.024 177.812,270.691 176,267.5C 168.494,278.841 158.66,287.508 146.5,293.5C 139.316,287.431 133.316,280.431 128.5,272.5C 126.098,275.626 123.931,278.96 122,282.5C 116.716,275.766 112.883,268.266 110.5,260C 106.876,261.431 103.876,263.931 101.5,267.5C 99.6488,262.304 99.1488,256.97 100,251.5C 108.509,246.428 114.675,239.428 118.5,230.5C 118.414,231.496 118.748,232.329 119.5,233C 125.5,233.667 131.5,233.667 137.5,233C 139.426,232.578 140.426,231.411 140.5,229.5 Z"/></g>
<g><path style="opacity:1" fill="#548f1e" d="M 83.5,233.5 C 90.7329,239.942 99.0662,241.942 108.5,239.5C 104.379,244.815 99.212,248.815 93,251.5C 91.7387,251.241 90.7387,250.574 90,249.5C 86.9751,244.459 84.8084,239.126 83.5,233.5 Z"/></g>
<g><path style="opacity:1" fill="#af9052" d="M 192.5,262.5 C 194.624,263.031 196.124,264.365 197,266.5C 199.37,273.944 201.537,281.444 203.5,289C 203.245,290.326 202.578,291.326 201.5,292C 199.5,292.667 197.5,292.667 195.5,292C 192.793,284.809 190.459,277.475 188.5,270C 189.966,267.568 191.299,265.068 192.5,262.5 Z"/></g>
<g><path style="opacity:1" fill="#b09153" d="M 110.5,270.5 C 112.512,273.352 114.179,276.519 115.5,280C 114.332,284.168 112.499,288.002 110,291.5C 107.936,292.591 105.769,292.758 103.5,292C 102.426,291.261 101.759,290.261 101.5,289C 104.377,282.746 107.377,276.579 110.5,270.5 Z"/></g>
</svg>
