<?xml version="1.0" encoding="UTF-8"?>
<!DOCTYPE svg PUBLIC "-//W3C//DTD SVG 1.1//EN" "http://www.w3.org/Graphics/SVG/1.1/DTD/svg11.dtd">
<svg xmlns="http://www.w3.org/2000/svg" version="1.1" width="300px" height="300px" style="shape-rendering:geometricPrecision; text-rendering:geometricPrecision; image-rendering:optimizeQuality; fill-rule:evenodd; clip-rule:evenodd" xmlns:xlink="http://www.w3.org/1999/xlink">
<g><path style="opacity:1" fill="#0f161b" d="M 191.5,223.5 C 190.833,223.167 190.167,222.833 189.5,222.5C 192.337,220.598 195.671,219.931 199.5,220.5C 199.5,218.167 199.5,215.833 199.5,213.5C 197.897,213.688 196.563,213.188 195.5,212C 205.13,212.359 214.797,212.525 224.5,212.5C 222.175,203.522 218.508,195.189 213.5,187.5C 214.919,186.549 216.585,186.216 218.5,186.5C 220.374,187.285 222.374,187.952 224.5,188.5C 233.738,192.882 243.405,194.549 253.5,193.5C 250.054,185.716 247.221,177.716 245,169.5C 243.729,168.117 242.229,167.117 240.5,166.5C 239.933,165.58 240.599,165.246 242.5,165.5C 241.738,156.761 237.072,151.927 228.5,151C 230.769,150.242 232.936,150.409 235,151.5C 227.078,139.291 215.911,131.124 201.5,127C 194.568,125.211 187.568,124.211 180.5,124C 181.883,125.271 182.883,126.771 183.5,128.5C 182.833,128.5 182.5,128.833 182.5,129.5C 177.472,118.806 169.138,112.139 157.5,109.5C 155.942,91.8755 154.942,74.2089 154.5,56.5C 153.683,50.2771 155.016,44.6105 158.5,39.5C 160.087,35.9768 160.587,32.3101 160,28.5C 157.879,26.5426 155.379,26.0426 152.5,27C 145.629,31.2419 142.295,37.4086 142.5,45.5C 143.419,48.0892 145.086,50.0892 147.5,51.5C 148.429,52.6888 148.762,54.0222 148.5,55.5C 147.824,73.2033 146.657,90.8699 145,108.5C 144.329,109.252 143.496,109.586 142.5,109.5C 140.05,109.298 137.717,109.631 135.5,110.5C 136.091,106.036 134.758,102.369 131.5,99.5C 128.054,95.0069 123.387,93.0069 117.5,93.5C 116.99,99.072 117.823,104.405 120,109.5C 120.708,110.381 121.542,111.047 122.5,111.5C 122.5,111.833 122.5,112.167 122.5,112.5C 122.557,113.609 122.89,114.609 123.5,115.5C 120.178,114.342 118.012,112.008 117,108.5C 115.711,102.912 115.211,97.2449 115.5,91.5C 128.429,90.1247 136.095,95.7914 138.5,108.5C 140.059,107.926 141.559,107.26 143,106.5C 145.253,88.5322 146.086,70.5322 145.5,52.5C 138.669,47.0495 137.669,40.5495 142.5,33C 139.975,20.9897 143.309,10.6564 152.5,2C 154.167,1.33333 155.833,1.33333 157.5,2C 158.151,9.44298 158.818,16.943 159.5,24.5C 161.984,26.0915 162.984,28.4248 162.5,31.5C 162.348,37.1216 160.515,42.1216 157,46.5C 156.865,66.8697 157.699,87.2031 159.5,107.5C 163.332,107.944 166.832,109.278 170,111.5C 172.295,99.4405 179.462,94.4405 191.5,96.5C 195.223,106.782 192.556,114.949 183.5,121C 204.379,122.622 221.879,131.122 236,146.5C 239.172,150.841 241.839,155.508 244,160.5C 247.893,172.681 252.059,184.681 256.5,196.5C 243.376,197.342 231.042,194.675 219.5,188.5C 218.5,188.667 217.5,188.833 216.5,189C 221.858,196.745 225.024,205.245 226,214.5C 217.56,215.38 209.06,215.546 200.5,215C 201.435,217.381 201.768,219.881 201.5,222.5C 197.958,222.187 194.625,222.521 191.5,223.5 Z"/></g>
<g><path style="opacity:1" fill="#676667" d="M 152.5,3.5 C 153.822,3.33003 154.989,3.66337 156,4.5C 156.873,11.2809 156.373,17.9476 154.5,24.5C 150.582,25.9326 147.415,28.266 145,31.5C 143.42,28.0283 143.087,24.3616 144,20.5C 146.333,14.5012 149.166,8.83457 152.5,3.5 Z"/></g>
<g><path style="opacity:1" fill="#6e6d6e" d="M 158.5,39.5 C 155.667,41.4779 152.667,43.3112 149.5,45C 147.19,45.4966 144.857,45.6633 142.5,45.5C 142.295,37.4086 145.629,31.2419 152.5,27C 155.379,26.0426 157.879,26.5426 160,28.5C 160.587,32.3101 160.087,35.9768 158.5,39.5 Z"/></g>
<g><path style="opacity:1" fill="#575555" d="M 158.5,39.5 C 155.016,44.6105 153.683,50.2771 154.5,56.5C 152.621,55.6586 150.621,55.3253 148.5,55.5C 148.762,54.0222 148.429,52.6888 147.5,51.5C 145.086,50.0892 143.419,48.0892 142.5,45.5C 144.857,45.6633 147.19,45.4966 149.5,45C 152.667,43.3112 155.667,41.4779 158.5,39.5 Z"/></g>
<g><path style="opacity:1" fill="#6e6d6e" d="M 148.5,55.5 C 150.621,55.3253 152.621,55.6586 154.5,56.5C 154.942,74.2089 155.942,91.8755 157.5,109.5C 169.138,112.139 177.472,118.806 182.5,129.5C 184.965,141.889 180.131,150.223 168,154.5C 168.918,148.066 166.752,143.066 161.5,139.5C 160.811,137.556 160.311,135.556 160,133.5C 159.818,136.226 159.318,138.893 158.5,141.5C 154.056,146.115 153.389,151.281 156.5,157C 153.993,157.093 151.826,157.926 150,159.5C 149.005,163.145 148.172,166.812 147.5,170.5C 145.09,169.611 142.59,168.945 140,168.5C 137.966,168.354 136.299,169.02 135,170.5C 134.667,166.167 134.333,161.833 134,157.5C 132.701,156.91 131.868,155.91 131.5,154.5C 132.515,150.869 132.681,147.202 132,143.5C 131.363,141.697 130.197,140.364 128.5,139.5C 127.833,137.5 127.167,135.5 126.5,133.5C 124.608,139.168 122.941,144.835 121.5,150.5C 116.186,142.204 116.353,133.871 122,125.5C 127.021,117.624 133.854,112.291 142.5,109.5C 143.496,109.586 144.329,109.252 145,108.5C 146.657,90.8699 147.824,73.2033 148.5,55.5 Z"/></g>
<g><path style="opacity:1" fill="#006a36" d="M 131.5,99.5 C 126.561,102.044 123.561,106.044 122.5,111.5C 121.542,111.047 120.708,110.381 120,109.5C 117.823,104.405 116.99,99.072 117.5,93.5C 123.387,93.0069 128.054,95.0069 131.5,99.5 Z"/></g>
<g><path style="opacity:1" fill="#00592a" d="M 131.5,99.5 C 134.758,102.369 136.091,106.036 135.5,110.5C 133.105,112.07 130.605,113.403 128,114.5C 125.991,114.242 124.157,113.575 122.5,112.5C 122.5,112.167 122.5,111.833 122.5,111.5C 123.561,106.044 126.561,102.044 131.5,99.5 Z"/></g>
<g><path style="opacity:1" fill="#005e2e" d="M 186.5,96.5 C 187.833,96.5 189.167,96.5 190.5,96.5C 191.332,103.255 190.165,109.589 187,115.5C 184.93,117.787 182.43,119.453 179.5,120.5C 170.54,113.966 170.54,107.132 179.5,100C 181.713,98.3838 184.047,97.2172 186.5,96.5 Z"/></g>
<g><path style="opacity:1" fill="#006b36" d="M 240.5,166.5 C 239.267,168.796 237.267,170.13 234.5,170.5C 226.89,158.04 217.89,146.54 207.5,136C 205.183,133.843 202.516,132.343 199.5,131.5C 212.502,142.153 223.169,154.82 231.5,169.5C 230.486,170.765 228.986,171.431 227,171.5C 222.071,170.892 217.238,169.892 212.5,168.5C 212.649,167.448 212.483,166.448 212,165.5C 210.667,168.167 209.333,170.833 208,173.5C 202.215,163.595 197.215,153.262 193,142.5C 190.552,137.248 187.386,132.581 183.5,128.5C 182.883,126.771 181.883,125.271 180.5,124C 187.568,124.211 194.568,125.211 201.5,127C 215.911,131.124 227.078,139.291 235,151.5C 232.936,150.409 230.769,150.242 228.5,151C 237.072,151.927 241.738,156.761 242.5,165.5C 240.599,165.246 239.933,165.58 240.5,166.5 Z"/></g>
<g><path style="opacity:1" fill="#0c1e1d" d="M 199.5,131.5 C 198.078,131.291 196.745,130.791 195.5,130C 197.352,129.227 198.686,129.727 199.5,131.5 Z"/></g>
<g><path style="opacity:1" fill="#66aa27" d="M 121.5,151.5 C 124.538,154.442 128.038,156.775 132,158.5C 132.361,165.199 133.028,171.865 134,178.5C 134.819,182.794 136.319,186.794 138.5,190.5C 140.804,188.569 142.638,186.236 144,183.5C 147.262,176.048 149.929,168.381 152,160.5C 163.647,159.288 173.647,154.621 182,146.5C 184.035,143.439 185.201,140.105 185.5,136.5C 190.682,149.522 196.182,162.522 202,175.5C 204.715,180.618 208.548,184.618 213.5,187.5C 218.508,195.189 222.175,203.522 224.5,212.5C 214.797,212.525 205.13,212.359 195.5,212C 196.563,213.188 197.897,213.688 199.5,213.5C 199.5,215.833 199.5,218.167 199.5,220.5C 195.671,219.931 192.337,220.598 189.5,222.5C 189.33,223.822 189.663,224.989 190.5,226C 188.527,226.495 186.527,226.662 184.5,226.5C 182.307,225.203 179.973,225.203 177.5,226.5C 177.957,227.298 178.624,227.631 179.5,227.5C 183.637,227.281 184.971,228.947 183.5,232.5C 170.473,241.173 156.14,244.673 140.5,243C 133.718,241.111 127.718,237.945 122.5,233.5C 119.38,229.972 120.047,227.805 124.5,227C 120.453,227.181 116.453,227.015 112.5,226.5C 113.976,223.585 114.81,220.585 115,217.5C 112.165,218.42 109.332,219.42 106.5,220.5C 106.167,220 105.833,219.5 105.5,219C 106.161,216.536 106.661,214.036 107,211.5C 107.383,210.944 107.883,210.611 108.5,210.5C 109.756,210.539 110.756,210.039 111.5,209C 109.288,208.211 107.288,208.378 105.5,209.5C 98.8523,210.139 92.1856,210.473 85.5,210.5C 86.4189,200.491 88.7522,190.825 92.5,181.5C 92.1667,181.167 91.8333,180.833 91.5,180.5C 90.4016,182.632 89.4016,184.798 88.5,187C 86.4817,187.505 84.4817,188.005 82.5,188.5C 81.448,188.649 80.448,188.483 79.5,188C 84.7134,184.454 88.88,179.954 92,174.5C 97.2706,165.962 101.437,156.962 104.5,147.5C 104.5,146.833 104.5,146.167 104.5,145.5C 108.426,140.398 112.592,135.398 117,130.5C 116.44,135.756 116.44,141.09 117,146.5C 117.996,148.66 119.496,150.327 121.5,151.5 Z"/></g>
<g><path style="opacity:1" fill="#528b1f" d="M 104.5,147.5 C 101.437,156.962 97.2706,165.962 92,174.5C 88.88,179.954 84.7134,184.454 79.5,188C 80.448,188.483 81.448,188.649 82.5,188.5C 80.3926,189.468 78.0593,189.802 75.5,189.5C 75.3874,186.951 76.0541,184.618 77.5,182.5C 88.4268,173.958 96.4268,163.292 101.5,150.5C 102.728,149.694 103.728,148.694 104.5,147.5 Z"/></g>
<g><path style="opacity:1" fill="#0d1c1c" d="M 199.5,131.5 C 202.516,132.343 205.183,133.843 207.5,136C 217.89,146.54 226.89,158.04 234.5,170.5C 237.812,177.593 242.479,183.76 248.5,189C 248.167,189.167 247.833,189.333 247.5,189.5C 241.034,183.704 235.7,177.038 231.5,169.5C 223.169,154.82 212.502,142.153 199.5,131.5 Z"/></g>
<g><path style="opacity:1" fill="#00582a" d="M 240.5,166.5 C 242.229,167.117 243.729,168.117 245,169.5C 247.221,177.716 250.054,185.716 253.5,193.5C 243.405,194.549 233.738,192.882 224.5,188.5C 224.665,184.818 224.499,181.152 224,177.5C 221.961,179.874 219.628,181.874 217,183.5C 214.667,181.167 212.333,178.833 210,176.5C 209.902,173.565 210.735,170.898 212.5,168.5C 217.238,169.892 222.071,170.892 227,171.5C 228.986,171.431 230.486,170.765 231.5,169.5C 235.7,177.038 241.034,183.704 247.5,189.5C 247.833,189.333 248.167,189.167 248.5,189C 242.479,183.76 237.812,177.593 234.5,170.5C 237.267,170.13 239.267,168.796 240.5,166.5 Z"/></g>
<g><path style="opacity:1" fill="#1d2526" d="M 196.5,186.5 C 193.753,186.187 191.086,186.52 188.5,187.5C 188.624,188.107 188.957,188.44 189.5,188.5C 190.721,195.612 187.721,198.946 180.5,198.5C 174.308,198.797 171.808,195.797 173,189.5C 168.965,191.444 165.965,190.444 164,186.5C 158.676,176.925 161.176,172.258 171.5,172.5C 169.187,167.018 170.52,162.851 175.5,160C 179.097,158.723 182.764,158.39 186.5,159C 187.969,162.656 188.969,166.489 189.5,170.5C 196.585,168.24 199.918,170.906 199.5,178.5C 199.927,181.826 198.927,184.492 196.5,186.5 Z"/></g>
<g><path style="opacity:1" fill="#f5f5f6" d="M 177.5,160.5 C 180.187,160.336 182.854,160.503 185.5,161C 188.022,165.238 188.022,169.571 185.5,174C 187.631,173.602 189.631,172.602 191.5,171C 192.833,170.333 194.167,170.333 195.5,171C 196.98,173.247 197.647,175.747 197.5,178.5C 197.712,181.011 197.045,183.178 195.5,185C 192.007,186.004 188.841,185.504 186,183.5C 187.164,187.35 187.498,191.35 187,195.5C 177.261,199.895 173.095,196.895 174.5,186.5C 171.872,188.633 169.039,188.966 166,187.5C 164.085,183.393 163.585,179.226 164.5,175C 168.353,174.413 172.02,174.746 175.5,176C 169.656,169.762 170.322,164.595 177.5,160.5 Z"/></g>
<g><path style="opacity:1" fill="#1d2523" d="M 105.5,191.5 C 104.539,189.735 104.205,187.735 104.5,185.5C 97.6326,185.795 94.2993,182.462 94.5,175.5C 94.0381,169.445 96.5381,167.445 102,169.5C 101.566,159.946 106.066,156.446 115.5,159C 116.333,159.833 117.167,160.667 118,161.5C 118.32,164.54 118.32,167.54 118,170.5C 123.949,166.788 127.616,168.454 129,175.5C 130.623,184.201 127.29,187.868 119,186.5C 121.245,194.822 118.078,197.988 109.5,196C 107.249,195.252 105.916,193.752 105.5,191.5 Z"/></g>
<g><path style="opacity:1" fill="#f5f5f6" d="M 105.5,191.5 C 104.924,187.888 105.924,184.888 108.5,182.5C 97.9772,185.57 93.9772,181.57 96.5,170.5C 100.576,170.281 104.243,171.114 107.5,173C 102.799,169.219 102.466,165.219 106.5,161C 108,160.833 109.5,160.667 111,160.5C 112.981,160.629 114.647,161.296 116,162.5C 116.56,166.988 116.227,171.321 115,175.5C 116.947,171.443 120.114,169.943 124.5,171C 128.051,175.415 128.384,180.082 125.5,185C 121.647,185.587 117.98,185.254 114.5,184C 117.571,186.823 118.238,190.156 116.5,194C 112.259,195.188 108.592,194.355 105.5,191.5 Z"/></g>
<g><path style="opacity:1" fill="#182021" d="M 183.5,128.5 C 187.386,132.581 190.552,137.248 193,142.5C 197.215,153.262 202.215,163.595 208,173.5C 209.333,170.833 210.667,168.167 212,165.5C 212.483,166.448 212.649,167.448 212.5,168.5C 210.735,170.898 209.902,173.565 210,176.5C 212.333,178.833 214.667,181.167 217,183.5C 219.628,181.874 221.961,179.874 224,177.5C 224.499,181.152 224.665,184.818 224.5,188.5C 222.374,187.952 220.374,187.285 218.5,186.5C 219.833,186.5 221.167,186.5 222.5,186.5C 224.62,179.644 223.287,178.811 218.5,184C 217.5,184.667 216.5,184.667 215.5,184C 211.667,181.5 208.5,178.333 206,174.5C 199.614,162.005 193.614,149.338 188,136.5C 186.608,134.158 185.775,134.158 185.5,136.5C 185.201,140.105 184.035,143.439 182,146.5C 173.647,154.621 163.647,159.288 152,160.5C 149.929,168.381 147.262,176.048 144,183.5C 142.638,186.236 140.804,188.569 138.5,190.5C 136.319,186.794 134.819,182.794 134,178.5C 133.028,171.865 132.361,165.199 132,158.5C 128.038,156.775 124.538,154.442 121.5,151.5C 121.5,151.167 121.5,150.833 121.5,150.5C 122.941,144.835 124.608,139.168 126.5,133.5C 127.167,135.5 127.833,137.5 128.5,139.5C 130.197,140.364 131.363,141.697 132,143.5C 132.681,147.202 132.515,150.869 131.5,154.5C 131.868,155.91 132.701,156.91 134,157.5C 134.333,161.833 134.667,166.167 135,170.5C 136.299,169.02 137.966,168.354 140,168.5C 142.59,168.945 145.09,169.611 147.5,170.5C 148.172,166.812 149.005,163.145 150,159.5C 151.826,157.926 153.993,157.093 156.5,157C 153.389,151.281 154.056,146.115 158.5,141.5C 159.318,138.893 159.818,136.226 160,133.5C 160.311,135.556 160.811,137.556 161.5,139.5C 166.752,143.066 168.918,148.066 168,154.5C 180.131,150.223 184.965,141.889 182.5,129.5C 182.5,128.833 182.833,128.5 183.5,128.5 Z"/></g>
<g><path style="opacity:1" fill="#006835" d="M 136.5,170.5 C 138.527,170.338 140.527,170.505 142.5,171C 144.41,171.408 145.41,172.575 145.5,174.5C 143.811,179.408 141.644,184.075 139,188.5C 135.89,182.79 135.056,176.79 136.5,170.5 Z"/></g>
<g><path style="opacity:1" fill="#929598" d="M 127.5,154.5 C 126.29,154.068 125.29,153.401 124.5,152.5C 125.999,151.322 126.999,149.655 127.5,147.5C 128.714,149.859 128.714,152.192 127.5,154.5 Z"/></g>
<g><path style="opacity:1" fill="#e5e5e6" d="M 158.5,142.5 C 161.044,142.104 163.211,142.771 165,144.5C 165.499,148.152 165.665,151.818 165.5,155.5C 162.833,156.167 160.167,156.833 157.5,157.5C 155.88,152.304 156.214,147.304 158.5,142.5 Z"/></g>
<g><path style="opacity:1" fill="#f6f6f6" d="M 127.5,154.5 C 128.714,152.192 128.714,149.859 127.5,147.5C 126.999,149.655 125.999,151.322 124.5,152.5C 124.335,149.482 124.502,146.482 125,143.5C 126.667,139.5 128.333,139.5 130,143.5C 130.499,147.152 130.665,150.818 130.5,154.5C 129.5,154.5 128.5,154.5 127.5,154.5 Z"/></g>
<g><path style="opacity:1" fill="#528d1f" d="M 218.5,186.5 C 216.585,186.216 214.919,186.549 213.5,187.5C 208.548,184.618 204.715,180.618 202,175.5C 196.182,162.522 190.682,149.522 185.5,136.5C 185.775,134.158 186.608,134.158 188,136.5C 193.614,149.338 199.614,162.005 206,174.5C 208.5,178.333 211.667,181.5 215.5,184C 216.5,184.667 217.5,184.667 218.5,184C 223.287,178.811 224.62,179.644 222.5,186.5C 221.167,186.5 219.833,186.5 218.5,186.5 Z"/></g>
<g><path style="opacity:1" fill="#255039" d="M 177.5,177.5 C 181.029,176.889 182.862,178.223 183,181.5C 177.648,184.877 175.815,183.544 177.5,177.5 Z"/></g>
<g><path style="opacity:1" fill="#1a2627" d="M 112.5,177.5 C 114.361,181.328 113.027,182.995 108.5,182.5C 106.424,177.589 107.757,175.923 112.5,177.5 Z"/></g>
<g><path style="opacity:1" fill="#016434" d="M 112.5,177.5 C 112.934,180.166 111.934,181.333 109.5,181C 108.306,178.342 109.306,177.176 112.5,177.5 Z"/></g>
<g><path style="opacity:1" fill="#3e6621" d="M 196.5,186.5 C 194.167,187.167 191.833,187.833 189.5,188.5C 188.957,188.44 188.624,188.107 188.5,187.5C 191.086,186.52 193.753,186.187 196.5,186.5 Z"/></g>
<g><path style="opacity:1" fill="#3d6621" d="M 105.5,209.5 C 107.288,208.378 109.288,208.211 111.5,209C 110.756,210.039 109.756,210.539 108.5,210.5C 107.791,209.596 106.791,209.263 105.5,209.5 Z"/></g>
<g><path style="opacity:1" fill="#10171a" d="M 142.5,109.5 C 133.854,112.291 127.021,117.624 122,125.5C 116.353,133.871 116.186,142.204 121.5,150.5C 121.5,150.833 121.5,151.167 121.5,151.5C 119.496,150.327 117.996,148.66 117,146.5C 116.44,141.09 116.44,135.756 117,130.5C 112.592,135.398 108.426,140.398 104.5,145.5C 107.152,138.019 111.818,132.186 118.5,128C 119.743,126.846 120.743,125.512 121.5,124C 104.502,123.168 88.5022,126.835 73.5,135C 72.1218,136.713 70.4552,138.047 68.5,139C 70.8333,139.333 73.1667,139.667 75.5,140C 72.1667,140.667 68.8333,141.333 65.5,142C 62.6673,145.328 60.334,148.995 58.5,153C 60.8333,153.333 63.1667,153.667 65.5,154C 62.5432,154.279 59.8766,155.113 57.5,156.5C 54.4916,165.987 51.6583,175.653 49,185.5C 48.5348,186.931 47.7014,188.097 46.5,189C 52.941,189.147 59.2744,188.313 65.5,186.5C 66.5602,181.804 67.7269,177.138 69,172.5C 70.8333,175.5 72.6667,178.5 74.5,181.5C 78.7865,179.103 82.6199,176.103 86,172.5C 86.4983,169.183 86.665,165.85 86.5,162.5C 86.3691,161.624 86.7025,160.957 87.5,160.5C 88.3184,163.107 88.8184,165.774 89,168.5C 93.4356,162.608 97.6023,156.608 101.5,150.5C 96.4268,163.292 88.4268,173.958 77.5,182.5C 76.0541,184.618 75.3874,186.951 75.5,189.5C 78.0593,189.802 80.3926,189.468 82.5,188.5C 84.4817,188.005 86.4817,187.505 88.5,187C 89.4016,184.798 90.4016,182.632 91.5,180.5C 91.8333,180.833 92.1667,181.167 92.5,181.5C 88.7522,190.825 86.4189,200.491 85.5,210.5C 92.1856,210.473 98.8523,210.139 105.5,209.5C 106.791,209.263 107.791,209.596 108.5,210.5C 107.883,210.611 107.383,210.944 107,211.5C 106.661,214.036 106.161,216.536 105.5,219C 105.833,219.5 106.167,220 106.5,220.5C 109.332,219.42 112.165,218.42 115,217.5C 114.81,220.585 113.976,223.585 112.5,226.5C 116.453,227.015 120.453,227.181 124.5,227C 120.047,227.805 119.38,229.972 122.5,233.5C 127.215,246.706 134.548,258.206 144.5,268C 142.874,267.805 141.207,267.805 139.5,268C 136.87,271.632 133.87,274.965 130.5,278C 135.267,278.467 139.933,277.967 144.5,276.5C 144.334,282.509 144.501,288.509 145,294.5C 149.775,291.192 154.275,287.526 158.5,283.5C 161.341,285.086 164.007,286.92 166.5,289C 168.044,290.187 169.711,290.52 171.5,290C 170.46,284.892 169.96,279.726 170,274.5C 173.668,276.878 177.501,276.878 181.5,274.5C 178.646,271.812 175.646,269.312 172.5,267C 170.633,266.289 169.133,266.789 168,268.5C 174.459,257.228 179.626,245.228 183.5,232.5C 184.971,228.947 183.637,227.281 179.5,227.5C 180.919,226.549 182.585,226.216 184.5,226.5C 186.527,226.662 188.527,226.495 190.5,226C 189.663,224.989 189.33,223.822 189.5,222.5C 190.167,222.833 190.833,223.167 191.5,223.5C 192.461,225.265 192.795,227.265 192.5,229.5C 190.5,229.5 188.5,229.5 186.5,229.5C 184.036,241.759 179.369,253.092 172.5,263.5C 176.16,266.991 179.994,270.324 184,273.5C 184.667,274.5 184.667,275.5 184,276.5C 180.625,277.87 177.125,278.87 173.5,279.5C 173.487,284.463 173.153,289.463 172.5,294.5C 167.57,292.12 163.07,289.12 159,285.5C 154.277,289.894 149.277,293.894 144,297.5C 143.228,297.355 142.561,297.022 142,296.5C 142.042,290.459 141.875,284.459 141.5,278.5C 136.933,280.452 132.267,280.786 127.5,279.5C 131.167,274.833 134.833,270.167 138.5,265.5C 130.035,254.909 123.369,243.242 118.5,230.5C 115.914,229.52 113.247,229.187 110.5,229.5C 111.008,226.824 111.175,224.157 111,221.5C 108.618,222.554 106.118,223.221 103.5,223.5C 103.469,219.516 104.136,215.683 105.5,212C 100.56,212.486 95.5597,212.986 90.5,213.5C 88.1088,213.441 85.7754,213.107 83.5,212.5C 82.9743,204.748 84.3076,197.248 87.5,190C 83.2625,190.841 78.9292,191.174 74.5,191C 73.1667,189 73.1667,187 74.5,185C 72.1064,183.048 70.6064,180.548 70,177.5C 68.8694,181.526 67.3694,185.359 65.5,189C 58.2901,191.444 50.9568,191.944 43.5,190.5C 46.1381,186.889 47.9715,182.889 49,178.5C 50.8201,166.038 54.8201,154.372 61,143.5C 68.0872,134.415 77.2539,128.582 88.5,126C 99.1382,124.464 109.805,123.13 120.5,122C 122.64,121.027 124.307,119.527 125.5,117.5C 124.757,116.818 124.091,116.151 123.5,115.5C 122.89,114.609 122.557,113.609 122.5,112.5C 124.157,113.575 125.991,114.242 128,114.5C 130.605,113.403 133.105,112.07 135.5,110.5C 137.717,109.631 140.05,109.298 142.5,109.5 Z"/></g>
<g><path style="opacity:1" fill="#00582a" d="M 57.5,156.5 C 58.5,160.833 61.1667,163.5 65.5,164.5C 62.925,169.65 60.425,174.65 58,179.5C 61.9321,175.286 65.0988,170.62 67.5,165.5C 74.0215,165.619 80.3548,164.619 86.5,162.5C 86.665,165.85 86.4983,169.183 86,172.5C 82.6199,176.103 78.7865,179.103 74.5,181.5C 72.6667,178.5 70.8333,175.5 69,172.5C 67.7269,177.138 66.5602,181.804 65.5,186.5C 59.2744,188.313 52.941,189.147 46.5,189C 47.7014,188.097 48.5348,186.931 49,185.5C 51.6583,175.653 54.4916,165.987 57.5,156.5 Z"/></g>
<g><path style="opacity:1" fill="#0d1c1c" d="M 67.5,165.5 C 65.0988,170.62 61.9321,175.286 58,179.5C 60.425,174.65 62.925,169.65 65.5,164.5C 71.3213,149.846 81.6547,139.679 96.5,134C 98.9494,133.275 101.283,132.275 103.5,131C 104.833,130.333 106.167,130.333 107.5,131C 94.274,135.862 82.774,143.362 73,153.5C 70.8784,157.363 69.0451,161.363 67.5,165.5 Z"/></g>
<g><path style="opacity:1" fill="#111c1b" d="M 104.5,145.5 C 104.5,146.167 104.5,146.833 104.5,147.5C 103.728,148.694 102.728,149.694 101.5,150.5C 101.75,148.326 102.75,146.659 104.5,145.5 Z"/></g>
<g><path style="opacity:1" fill="#006a36" d="M 104.5,145.5 C 102.75,146.659 101.75,148.326 101.5,150.5C 97.6023,156.608 93.4356,162.608 89,168.5C 88.8184,165.774 88.3184,163.107 87.5,160.5C 86.7025,160.957 86.3691,161.624 86.5,162.5C 80.3548,164.619 74.0215,165.619 67.5,165.5C 69.0451,161.363 70.8784,157.363 73,153.5C 82.774,143.362 94.274,135.862 107.5,131C 106.167,130.333 104.833,130.333 103.5,131C 101.283,132.275 98.9494,133.275 96.5,134C 81.6547,139.679 71.3213,149.846 65.5,164.5C 61.1667,163.5 58.5,160.833 57.5,156.5C 59.8766,155.113 62.5432,154.279 65.5,154C 63.1667,153.667 60.8333,153.333 58.5,153C 60.334,148.995 62.6673,145.328 65.5,142C 68.8333,141.333 72.1667,140.667 75.5,140C 73.1667,139.667 70.8333,139.333 68.5,139C 70.4552,138.047 72.1218,136.713 73.5,135C 88.5022,126.835 104.502,123.168 121.5,124C 120.743,125.512 119.743,126.846 118.5,128C 111.818,132.186 107.152,138.019 104.5,145.5 Z"/></g>
<g><path style="opacity:1" fill="#3e6721" d="M 184.5,226.5 C 182.585,226.216 180.919,226.549 179.5,227.5C 178.624,227.631 177.957,227.298 177.5,226.5C 179.973,225.203 182.307,225.203 184.5,226.5 Z"/></g>
<g><path style="opacity:1" fill="#1d2624" d="M 141.5,201.5 C 143.088,200.359 144.421,198.859 145.5,197C 155.502,195.338 160.002,199.504 159,209.5C 157.681,211.487 155.848,212.654 153.5,213C 159.222,219.066 158.222,224.066 150.5,228C 145.95,228.659 142.616,226.826 140.5,222.5C 138.877,226.058 136.21,227.224 132.5,226C 128.376,223.58 126.543,220.08 127,215.5C 128.167,214.333 129.333,213.167 130.5,212C 126.677,208.384 126.511,204.551 130,200.5C 134.633,194.84 138.467,195.173 141.5,201.5 Z"/></g>
<g><path style="opacity:1" fill="#f5f5f6" d="M 141.5,201.5 C 141.892,203.179 142.392,204.846 143,206.5C 145.273,196.267 149.94,194.933 157,202.5C 158.106,208.415 155.606,211.915 149.5,213C 156.976,216.989 157.309,221.322 150.5,226C 145.096,226.618 141.93,224.118 141,218.5C 137.344,225.931 133.344,226.264 129,219.5C 128.405,218.101 128.572,216.768 129.5,215.5C 131.769,214.185 134.102,213.018 136.5,212C 129.791,211.083 127.958,207.583 131,201.5C 134.578,197.552 138.078,197.552 141.5,201.5 Z"/></g>
<g><path style="opacity:1" fill="#202e2e" d="M 139.5,209.5 C 143.691,208.869 145.525,210.535 145,214.5C 139.42,216.752 137.587,215.085 139.5,209.5 Z"/></g>
<g><path style="opacity:1" fill="#006836" d="M 140.5,210.5 C 141.5,210.5 142.5,210.5 143.5,210.5C 143.5,211.833 143.5,213.167 143.5,214.5C 142.5,214.5 141.5,214.5 140.5,214.5C 140.5,213.167 140.5,211.833 140.5,210.5 Z"/></g>
<g><path style="opacity:1" fill="#54911f" d="M 183.5,232.5 C 179.626,245.228 174.459,257.228 168,268.5C 169.133,266.789 170.633,266.289 172.5,267C 175.646,269.312 178.646,271.812 181.5,274.5C 177.501,276.878 173.668,276.878 170,274.5C 169.96,279.726 170.46,284.892 171.5,290C 169.711,290.52 168.044,290.187 166.5,289C 164.007,286.92 161.341,285.086 158.5,283.5C 154.275,287.526 149.775,291.192 145,294.5C 144.501,288.509 144.334,282.509 144.5,276.5C 139.933,277.967 135.267,278.467 130.5,278C 133.87,274.965 136.87,271.632 139.5,268C 141.207,267.805 142.874,267.805 144.5,268C 134.548,258.206 127.215,246.706 122.5,233.5C 127.718,237.945 133.718,241.111 140.5,243C 156.14,244.673 170.473,241.173 183.5,232.5 Z"/></g>
</svg>
