<?xml version="1.0" encoding="UTF-8"?>
<!-- Created with Inkscape (http://www.inkscape.org/) -->
<svg version="1.1" viewBox="0 0 248.46 393.73" xmlns="http://www.w3.org/2000/svg">
 <g transform="translate(-8.1445 73.453)">
  <g fill="#fff">
   <path d="m119.47 273.66c-3.5803 2.6805-6.2796 5.6422-8.9601 8.8289 18.689 11.153 47.762 6.2796 62.233-14.34 14.471-20.62 22.981-42.757 19.72-79.141-1.7995-19.963-3.3366-34.06-2.8118-48.4 22.794 8.7164 51.286-12.278 61.202-38.933 4.8737-13.047 5.8859-29.448 2.0432-44.051-13.309-25.343-34.303-31.492-51.211-32.26-16.908-0.76855-39.964 8.1916-50.705 33.029-10.76 24.856-7.4418 57.116 0 87.333 7.423 30.236 12.315 74.455 4.0864 99.124-4.6113 13.834-14.078 32.785-35.597 28.811"/>
   <path d="m126.83 238.38c1.7245 1.7245 3.0742 3.8427 4.6113 5.7547 8.8289-14.209 5.5485-29.711 2.1182-43.788-4.6113-18.82-16.908-52.43-24.012-73.574-7.1044-21.126-11.341-43.02-8.2666-60.115 3.0742-17.095 11.528-31.51 17.095-36.497l-2.4931-10.76c-16.514 13.834-21.332 32.466-23.431 47.837-2.1182 15.371 2.0245 41.202 7.6855 59.534 7.8729 25.549 22.269 58.597 25.737 73.199 3.4491 14.584 5.3798 28.811 0.956 38.409"/>
   <path d="m149.31-0.18938 6.1484 6.5233 2.1182-8.6414z"/>
  </g>
  <path d="m131.44 244.14c6.7295-10.047 6.4483-27.012 2.8867-42.064-4.6113-19.457-19.963-58.503-25.868-78.879-8.454-29.205-16.271-63.396 9.9161-93.032-5.5673-20.17-10.947-58.334-7.1044-61.146 3.8427-2.8305 30.986 22.906 44.182 37.321 4.9862-26.58 22.925-78.054 28.305-78.56 5.3798-0.50612 18.951 42.251 26.637 74.024 9.9724-9.2225 40.714-29.711 43.788-26.899 3.0742 2.8118-5.8859 41.483-11.022 58.128 2.8305 4.1052 7.9479 14.865 10.254 26.393-7.6855-16.646-23.3-34.585-53.536-34.078-30.217 0.52486-47.369 21.276-53.517 47.387-6.1484 26.131 1.031 58.916 6.1484 80.679 5.1174 21.763 10.497 65.045 4.0864 86.058-6.3921 20.994-16.889 38.671-37.134 34.191 6.9919-3.599 15.052-9.6162 15.821-14.734 0.76854-5.1174-0.76855-9.9911-3.8427-14.79" fill="#80cce3"/>
  <path d="m198.35 106.03c-8.1916 9.2226-18.014 28.624-16.139 54.548 2.3056 31.773 1.031 126.53-63.002 113.73-3.1304 2.0994-6.0172 4.7987-8.6977 8.2478 18.82 9.6162 45.513 10.179 66.076-19.214 20.545-29.373 16.514-66.845 14.977-82.965-1.5371-16.139-6.2046-53.798 6.7857-74.343" fill="#dcdddd"/>
  <path d="m204.63 101.23c1.3496 18.239 42.457 17.677 49.562-14.977-1.5371 28.811-34.191 65.308-64.539 54.154-0.2062-13.253 4.2176-34.191 14.977-39.177" fill="#dcdddd"/>
  <g fill="#0f141b">
   <path d="m253.02-24.05c1.3122 0.97474-2.643 25.624-11.697 58.916-0.86227 3.1304 1.0497 3.7115 2.0994 0.48738 11.528-35.166 14.527-59.628 11.528-61.671-5.3798-3.6365-37.453 19.589-44.951 26.318l0.67483 3.5616c23.525-18.164 40.939-28.661 42.345-27.611"/>
   <path d="m115.24 17.785c-9.2226 8.2291-15.915 17.995-19.907 28.999-14.359 39.458 6.392 92.057 19.776 125.8 12.147 30.611 15.54 49.506 11.153 65.608l2.062 2.0807c4.8362-16.664 1.9682-37.246-10.516-68.738-13.29-33.497-33.347-84.578-19.214-123.42 3.749-10.291 9.5225-19.214 17.47-26.805z"/>
   <path d="m150.42 1.2129c2.3244-0.82478 4.7238-1.6121 7.2168-2.3619l0.63733-3.2054c-3.4116 0.93725-6.692 1.9682-9.8599 3.1117z"/>
   <path d="m118.19 27.793c-33.235 39.44-17.02 78.223-3.2242 120.12 11.341 34.472 29.092 72.225 15.783 95.993l1.2934 1.4808c16.233-21.144-3.9364-69.188-14.078-98.318-14.959-43.02-27.518-79.798 0.99348-116.07z"/>
   <path d="m112.16-29.488c2.9617-1.2372 25.624 19.382 46.938 41.408 2.1744 2.2307 3.3928 0.80603 1.3871-1.5746-15.146-18.145-43.92-44.894-49.824-42.439-5.1361 2.1369 0.11247 47.087 10.347 73.293 1.4996 3.8052 3.2242 2.8118 1.987-0.67482-9.4662-27.686-13.065-69.075-10.835-70.013"/>
   <path d="m184.02-70.228c3.3179-0.2062 16.664 36.515 26.73 79.61 0.9185 3.899 3.0554 3.4116 2.4181-0.54361-4.705-29.58-21.988-82.103-29.336-82.291-6.617-0.16871-23.263 48.1-29.43 79.216l2.1932 1.6308c8.1541-34.547 24.462-77.436 27.424-77.623"/>
   <path d="m189.64 142.27c17.283 4.9862 37.528-2.2307 51.211-19.345 15.277-19.064 24.725-54.286 2.9617-90.913l-1.1247 3.1867c19.42 35.128 10.272 66.714-4.5176 85.177-13.253 16.533-32.241 23.881-48.4 18.951z"/>
   <path d="m118.27 275.1c11.078 1.987 20.844-1.687 27.518-9.0538 16.739-18.408 20.02-63.808 7.7792-115.08-14.078-59.028-9.6162-92.544 15.84-113.95 22.906-19.27 75.692-11.659 84.521 30.217l-1.3309-10.778c-10.535-32.316-59.872-42.12-85.102-22.007-26.618 21.201-31.323 57.247-17.058 117.03 12.109 50.724 9.8224 94.7-6.542 112.7-6.2608 6.8982-14.059 10.235-23.656 8.8851z"/>
   <path d="m109.61 283.52c18.314 8.9601 36.047 8.0604 52.111-2.943 25.512-17.489 36.215-54.998 31.848-95.918-5.2674-49.468-2.1182-73.031 10.872-82.291 2.062-1.4809 1.2372-2.6805-0.956-1.4621-14.715 8.1916-18.595 33.685-13.234 83.903 4.2926 40.302-6.9919 77.08-30.011 93.519-14.546 10.403-31.529 11.566-49.112 3.3741z"/>
  </g>
  <g fill="#fff">
   <path d="m70.384 125.7c-34.51 0.33741-62.009 31.323-60.415 61.371 1.7808 33.291 33.947 48.756 66.395 47.106 31.942-1.6308 61.109-18.145 60.603-51.155-0.5436-36.44-36.515-57.603-66.582-57.322"/>
   <path d="m53.263 231.85c6.5233 9.8036 8.454 24.387 8.6415 32.654s1.7433 30.142 18.445 33.61c9.2226 1.9307 18.82-1.1434 24.593-8.8289 5.7547-7.6855 14.209-16.327 20.919-19.401 6.7295-3.0742 14.227-12.484 7.1231-23.825-7.1231-11.322-17.095-17.095-25.549-19.195-9.6162 4.6113-33.422 10.741-54.173 4.9862"/>
   <path d="m133.81 248.05c3.0742 6.9169 3.2054 12.934-4.3488 19.589 6.9169 6.7857 17.545 8.9601 21.501-0.76854 3.974-9.7287-2.943-19.195-17.152-18.82"/>
   <path d="m74.777 295.81c-6.6545 9.3538-3.0742 23.431 6.9169 23.056 9.9911-0.39365 17.789-6.0172 14.209-22.419-7.423 3.2054-15.371 2.4368-21.126-0.63733"/>
  </g>
  <g fill="#80cce3">
   <path d="m50.148 129.59c-6.8232-14.64-25.287-43.432-28.624-42.589-4.705 1.1809-9.1476 43.582-6.1484 73.199 2.4931-4.4988 7.9854-12.315 10.816-14.809 2.4931 1.3309 9.485 4.1614 12.972 5.3236 0.50612-4.3301 0.1687-11.641 0-15.802 2.4931-1.1622 7.498-3.824 10.985-5.3236"/>
   <path d="m54.806 128.43c4.8175 11.153 13.965 32.279 17.133 32.785 3.1679 0.48737 12.822-24.462 15.146-33.61-9.485-2.1744-19.963-2.8305-32.279 0.82478"/>
   <path d="m90.744 128.26c7.3293-16.477 24.125-44.088 28.942-43.92 4.8362 0.16871 11.491 36.59 7.8167 69.375-2.1557-2.9992-8.8102-10.31-12.634-12.803-3.3366 1.8183-9.485 5.6422-12.972 6.6545 0.31866-4.1614 0-11.978-0.33741-15.315-2.6618-1.1622-6.6545-2.8305-10.816-3.9927"/>
  </g>
  <path d="m12.542 201.05c0.26243-4.6113 4.1426-9.0351 8.6977-7.0481 7.3106 3.2054 16.214 10.985 19.739 21.519 1.7808 5.3798 0.11247 10.891-6.1484 10.497-9.2225-5.3798-17.414-12.934-22.288-24.968" fill="#ffe45f"/>
  <path d="m134.2 199.52c-0.13121-6.0172-2.6993-10.76-10.76-9.0913-9.8599 2.0432-16.289 13.29-17.789 25.362-0.65608 5.1174 3.1866 9.2038 7.0294 8.6977 9.0913-5.8859 18.708-14.602 21.519-24.968" fill="#ffe45f"/>
  <path d="m88.662 196.27c-1.5746 0.50612-5.1174 1.3871-7.0669 1.5746-0.69357 5.6235-11.172 10.422-16.027 0.88102-2.5306-0.18745-4.6675-0.43114-6.5045-0.80604 0.18745 3.018 1.0685 10.46 4.7987 16.402 4.0489-5.3048 14.959-9.7287 22.719-2.7743 1.4434-4.6113 2.3994-9.7287 2.0807-15.277" fill="#922f00"/>
  <path d="m64.012 214.93c3.7865-6.4858 14.921-10.235 22.644-3.2804-1.106 4.8737-6.5795 12.409-11.135 12.278-4.5738-0.14996-8.3228-3.9365-11.509-8.9976" fill="#ed8599"/>
  <g fill="#dcdddd">
   <path d="m61.331 254.51c3.6553 17.47 10.122 33.235 22.663 33.816 9.8036 0.44988 19.026-7.1231 24.781-12.878s26.505-12.484 25.156-25.362c2.6993 5.2674 2.4369 13.965-5.8859 18.314-8.3228 4.3488-17.677 13.59-22.663 19.982-4.9862 6.4108-14.527 11.697-24.2 9.8599-18.82-3.5803-19.589-26.131-19.851-43.732"/>
   <path d="m71.575 303.62c6.9169-2.943 19.345-2.8118 24.968 1.2747 0.13122-1.912 0.13122-5.2486-0.76854-8.1916-6.6545 2.3056-15.371 2.6993-20.994-0.89976-0.89977 1.4059-2.3056 4.7425-3.2054 7.8167"/>
   <path d="m133.04 264.06c6.1484 4.8737 15.877 3.4491 18.689-2.5681 0 4.7425-3.3179 11.397-9.2226 11.528-5.8859 0.13122-9.335-1.4059-13.178-5.511 1.1434-0.88102 2.5681-2.0432 3.7115-3.4491"/>
   <path d="m73.24 233.96c0-1.5933 11.528-3.8427 12.297-2.3056 0.76854 1.5371-3.4678 3.6553-5.3798 4.0302-1.9307 0.39364-6.9169-0.5811-6.9169-1.7246"/>
  </g>
  <g fill="#0f141b">
   <path d="m85.846 127.21c-3.1867 11.941-8.1916 22.513-12.709 31.548-0.86227 1.7245-1.5933 1.6308-2.4931 0.0937-4.0302-6.9169-10.535-20.188-14.471-31.36l-2.718 0.9185c4.4238 11.809 11.341 25.831 15.652 31.979 2.3619 3.3366 3.6553 3.1679 5.6798-0.18745 4.0677-6.8044 10.366-19.888 13.815-32.073z"/>
   <path d="m74.903 192.09c0 0.35615-0.7498 0.63733-1.6683 0.63733-0.91851 0-1.6683-0.28118-1.6683-0.63733 0-0.35616 0.7498-0.63733 1.6683-0.63733 0.9185 0 1.6683 0.28117 1.6683 0.63733"/>
   <path d="m78.746 318.16c-0.5436-2.9617-0.63733-6.2046-0.3749-9.2226 0.14996-1.8932-0.76854-2.1369-1.2934-0.31867-0.89976 3.1304-0.89976 6.1484-0.33741 9.2413z"/>
   <path d="m86.783 317.73c-0.41239-3.0929-0.5436-6.2983-0.48737-8.7914 0.0562-2.2681-1.0122-2.3056-1.3309-0.0562-0.39365 2.6805-0.41239 6.5795-0.075 9.2788z"/>
   <path d="m39.855 168.73c5.9984 0.46862 8.7914 8.6414 8.2853 15.183-0.63733 8.0229-5.0612 13.178-10.31 12.747-5.736-0.44988-9.3725-6.617-8.7539-14.415 0.73106-9.4475 6.1109-13.89 10.778-13.515"/>
  </g>
  <path d="m39.546 170.26c2.9992 0.24369 5.2111 2.7368 4.9862 5.6422-0.2062 2.6805-3.1304 5.0049-5.811 4.7987-3.2991-0.26243-5.2299-2.5681-4.9674-5.736 0.22494-2.868 3.0179-4.9299 5.7922-4.705" fill="#fff"/>
  <path d="m106.14 165.57c5.3611-0.3749 9.8786 6.2234 10.385 13.684 0.67482 9.6162-3.3554 13.871-8.529 14.227-6.7295 0.46862-10.122-5.2486-10.61-12.203-0.67483-9.7099 3.1117-15.315 8.7539-15.708" fill="#0f141b"/>
  <path d="m105.82 167.07c3.4303-0.24369 5.7172 2.0807 5.9047 4.7425 0.22494 3.2991-1.837 5.8297-5.2299 6.0734-3.0367 0.2062-5.5485-2.2119-5.736-5.1174-0.22494-3.018 2.0432-5.4923 5.0612-5.6985" fill="#fff"/>
  <g fill="#0f141b">
   <path d="m20.801 86.056c-5.8297 2.1744-10.816 51.999-6.3358 76.836l2.1744-3.7115c-3.2241-21.426 1.6496-69.469 5.1174-70.687 1.762-0.61859 20.076 25.606 27.012 41.745l3.0929-1.2184c-6.2233-14.471-25.906-44.894-31.06-42.964"/>
   <path d="m119.47 85.929c4.0677 0.26243 9.6537 44.557 6.7857 67.238l2.943 3.1866c2.943-30.592-2.3056-72.993-9.3538-73.368-5.1361-0.28118-23.994 26.449-30.254 45.138l3.2429 1.0872c6.6357-19.776 24.181-43.432 26.637-43.282"/>
   <path d="m90.885 194.75c-10.385 3.5053-27.893 4.1052-34.978 1.3871-2.0432-0.76855-2.5493 0.52486-0.54361 1.3684 9.2226 3.824 23.956 3.1117 36.103-1.2747 2.4181-0.86228 1.8558-2.3056-0.58109-1.4809"/>
   <path d="m64.351 198.94c1.3684 3.7303 5.5673 6.4295 9.7662 6.2046 4.1239-0.22494 7.7604-3.0742 8.6414-7.1793l-2.0807 0.29992c-1.031 2.8305-3.5053 4.5925-6.7107 4.78-2.7555 0.14996-6.1484-1.2184-7.6292-4.1052z"/>
   <path d="m86.495 210.71c-2.4931-2.9242-7.5355-4.2176-12.615-3.4491-4.8362 0.73106-8.5852 3.3928-10.291 6.6732l1.031 1.5183c1.7433-3.2804 5.1361-5.4173 9.6724-6.1109 4.8175-0.73106 8.9789 0.33741 11.697 3.0929z"/>
   <path d="m87.299 196.44c0.50612 13.89-5.3423 25.624-10.985 26.412-7.6855 1.0872-14.959-12.016-15.952-24.95l-2.5118-0.2062c0.84352 15.258 10.291 28.586 18.895 27.162 8.1353-1.3309 13.59-14.977 13.084-28.717z"/>
   <path d="m36.935 226.51c5.1924 0.14996 7.8542-5.0612 4.6675-12.84-3.3179-8.1541-10.985-18.164-19.645-20.62-6.2233-1.7808-9.485 1.912-9.8786 5.9422l2.3806 5.5673c-2.0994-6.2608 0.84353-10.91 6.8607-9.2038 7.7417 2.1932 14.715 11.06 17.976 19.082 3.2616 7.9479 0.26243 11.266-5.2486 10.422z"/>
   <path d="m134.71 197.53c0.76854-5.6422-3.4491-9.8974-10.441-8.5102-8.8851 1.7433-16.458 9.7849-19.214 22.475-1.5558 7.1793 0.89976 13.815 5.6985 13.815l2.1182-1.5371c-4.2926 0.58109-7.2918-4.3676-5.4361-11.772 1.3871-5.5485 5.5485-18.37 17.189-20.676 6.4295-1.2559 9.2413 2.3056 8.4165 9.7287z"/>
   <path d="m105.38 290.18c5.3423-6.5608 11.322-14.434 19.082-18.314 12.803-6.4108 15.127-14.715 10.122-24.968-3.4303-6.9919-13.459-17.808-25.756-20.62l-3.1866 1.4809c12.409 1.9682 23.188 13.122 26.562 20.057 4.5925 9.3725 1.7058 16.533-9.0538 22.513-8.5102 4.7237-13.665 11.678-19.476 18.576-5.3986 6.3733-12.897 9.0913-20.582 8.1916-18.745-2.2306-19.326-22.719-19.963-35.728-0.56235-11.434-3.599-22.925-8.3228-29.205l-3.4678-0.50612c4.8924 5.661 8.5102 18.408 9.0913 29.973 0.65608 12.747 1.4059 36.365 22.532 38.015 8.304 0.65607 15.765-1.2747 22.419-9.4662"/>
   <path d="m94.793 296.48c2.7368 14.752-3.5241 20.844-13.384 21.126-8.6227 0.24368-11.791-13.59-5.5673-21.313l-1.837-0.73105c-8.2478 10.61-2.5868 25.118 7.6855 24.706 11.809-0.46862 18.633-8.4165 15.183-24.369z"/>
   <path d="m128.02 268.33c11.003 9.2226 20.488 6.9357 23.994-1.2747 4.63-10.891-5.1361-20.994-19.139-20.226l0.73105 2.2119c10.497-0.56236 20.638 6.9169 16.308 17.114-3.5803 8.379-12.24 7.4418-20.282 0.69356z"/>
   <path d="m151.67 261.52c-2.1369-0.14996-4.7237-0.82478-7.8729-2.2682-1.5183-0.69357-2.1369 0.35616-0.71231 1.2184 2.4368 1.4621 6.1859 2.9992 8.529 3.1679z"/>
   <path d="m148.44 270.07c-2.1557-0.65607-5.6797-2.3994-8.3603-4.6675-1.3309-1.1434-2.2494-0.28117-1.031 0.956 2.1932 2.1744 5.0237 4.3676 7.8916 5.2486z"/>
   <path d="m102.68 230.2c22.175-7.8729 36.178-24.687 36.178-46.563 0-17.133-9.41-33.104-23.375-44.088-0.84353-0.65608-1.2559-0.0937-1.7808 0.22494-2.9992 2.1744-7.2356 4.8175-10.703 6.2421-0.11248-4.0864 0.13121-8.6602-0.16871-13.346 0.0562-0.71231-0.26243-1.2184-0.89976-1.5183-9.1101-4.3863-19.401-6.8044-30.086-6.8044-11.941 0-23.263 3.5053-33.029 9.335-0.93725 0.5436-0.78729 1.2184-0.71231 2.0057 0.31866 3.7678 0.39364 9.335 0.03749 13.628-4.2739-1.4996-7.5355-3.0367-11.116-4.9112-0.84352-0.44988-1.4809-0.14996-2.0245 0.41239-10.272 10.572-16.852 24.706-16.852 39.589 0 26.787 19.139 45.007 49.712 49.149 3.4116 0.46862 3.5616-1.2372 0.14996-1.7246-29.242-4.2739-46.488-21.538-46.488-47.294 0-14.302 5.7172-27.518 15.071-37.64 3.5428 1.9495 7.7604 3.5053 12.353 4.8924 0.69356 0.22494 1.106-0.28117 1.1622-0.80603 0.48737-4.1239 0.78729-10.497 0.5811-15.371 9.1288-5.3423 19.626-8.3228 31.023-8.3228 10.31 0 19.926 2.1557 28.605 6.1484 0.26243 4.78 0.29992 9.9911 0.5436 14.546 0.0375 0.71232 0.82478 0.93726 1.1997 0.7873 4.4801-1.7808 8.6227-3.9927 12.54-6.467 12.803 10.385 20.751 25.156 20.751 41.464 0 20.976-12.672 36.74-33.441 44.463-3.5616 1.3122-2.9617 3.2991 0.76855 1.9682"/>
  </g>
  <path d="m60.436 236.7c-7.6105-0.84352-16.908 1.6683-15.502 12.559 1.4246 10.872 21.894 11.547 26.262-3.4678 0.89976-3.0742-6.1484-8.5852-10.76-9.0913" fill="#fff"/>
  <path d="m45.389 243.04c1.3496 9.5037 15.183 13.834 25.362 3.2616-1.7433 6.6357-10.179 12.428-17.864 10.385-4.3301-1.1622-9.5225-4.2364-7.498-13.646" fill="#dcdddd"/>
  <g fill="#0f141b">
   <path d="m43.18 246.79c-0.956 13.253 21.988 17.377 28.174 0.22494 0.84352-2.3619-0.43114-2.8305-1.3871-0.50611-5.7547 14.021-24.875 10.516-24.256 0.31866 0.41239-6.7107 6.5045-10.497 13.796-9.5412 2.0432 0.26243 2.3056-1.031 0.29992-1.4246-7.7979-1.5558-15.971 1.8183-16.627 10.928"/>
   <path d="m49.518 255c-0.35616-2.5868 0.80604-6.9544 2.1369-8.6227 1.2559-1.5371 0.39365-2.4369-1.0497-1.0872-1.4996 1.4059-3.0367 5.0424-2.9805 8.3228z"/>
   <path d="m57.697 257.3c-0.46863-2.868-0.01874-6.1296 1.1997-8.379 0.89976-1.6308-0.18745-2.3244-1.2559-0.78729-1.6308 2.3244-2.4743 6.767-1.7808 9.2975z"/>
  </g>
  <path d="m96.611 237.81c-7.2168-2.4931-10.01-15.99 2.6805-20.113 9.0913-2.943 20.882 4.8737 11.284 18.97-1.9307 2.8118-10.628 2.2869-13.965 1.1434" fill="#fff"/>
  <g fill="#0f141b">
   <path d="m99.811 216.16c-14.115 3.3741-12.297 19.082-4.1614 22.082 1.837 0.69356 2.3244-0.41239 0.59984-1.3309-6.0359-3.2054-8.4915-15.333 4.0677-18.314 11.566-2.7555 15.915 8.4352 9.9161 17.039-1.1997 1.7433-0.28118 2.4931 1.1622 0.95599 8.0041-8.529 2.062-23.675-11.584-20.432"/>
   <path d="m94.625 219.49c0.76855 2.6243 1.912 6.1484 2.6243 8.6415 0.48737 1.7433 1.7245 1.4996 1.4059-0.3749-0.46862-2.8492-1.3122-6.1671-2.3056-9.0913z"/>
   <path d="m103.53 216.93c0.13122 3.1304 0.31867 6.2046 0.50612 9.2226 0.11247 1.7995 1.3496 1.4246 1.3496 0.13122 0-3.3366-0.0562-6.0921-0.0937-9.2226z"/>
  </g>
 </g>
</svg>
