<?xml version="1.0" encoding="UTF-8"?>
<!-- Created with Inkscape (http://www.inkscape.org/) -->
<svg version="1.1" viewBox="0 0 358.06 342.47" xmlns="http://www.w3.org/2000/svg">
 <path d="m155.89 172.4c13.686 5.2808 26.565 16.767 23.852 39.944-2.5656 21.915-9.535 35.132-21.461 55.36-8.3025 14.097-23.529 27.152-34.751 30.292-22.282 6.2343-36.144-9.6232-39.225-14.185-4.6791-6.9091-8.537-17.793-2.0541-42.276 5.5303-20.889 21.666-44.11 29.001-53.087 10.063-12.336 27.504-22.663 44.637-16.048" fill="#00aee5"/>
 <path d="m128.82 214.57c5.7062 6.5719 14.654 9.6522 25.289 9.4618 10.107-0.20791 14.904 0.70272 11.574 11.266-3.6384 11.456-16.943 34.985-25.084 43.273-9.4323 9.6231-23.588 17.896-37.464 11.295-13.173-6.2634-17.559-19.407-14.156-36.394 3.4471-17.28 13.276-36.482 22.282-44.857 8.1266-7.5545 12.879 0.57383 17.559 5.9553" fill="#0f141b"/>
 <g fill="#00aee5">
  <path d="m127.58 296.4c-0.49898 6.2933-2.1248 13.584-6.1611 17.104 0.99794 11.735-2.0832 17.588-5.0168 23.456-3.2724 6.5424-12.219 5.9998-10.708-3.0645 1.4096-8.493 4.5182-11.486 5.0318-15.857 0.49896-4.2687 1.5094-10.562 1.7589-12.571 0.24949-2.025 1.9211-5.2954 5.3981-3.8712 0.49897-1.0104 0.37423-1.8628 0.12474-2.6862 1.7589-3.5219 7.5545-9.0506 9.5641-2.5074"/>
  <path d="m79.018 271.23c-4.0043 2.5531-7.569 5.7798-10.84 10.562-7.5399 6.0438-11.897 11.236-17.427 19.803-4.7091 7.2613-2.2454 9.8576-0.63204 10.972 3.5926 2.4658 6.1316 1.9502 12.791-7.1145 4.5328-6.1607 12.249-15.006 14.522-17.265 2.2579-2.2745 3.8421-4.3714 2.8442-6.132 0.74846-1.2599 2.2579-1.5094 3.7714-2.2745 1.5094-0.74846-0.24949-10.811-5.0313-8.552"/>
  <path d="m127.33 175.11c2.8899-5.8966 6.9532-9.9895 9.7254-12.997 2.7568-3.023 4.8704-1.1019 5.1195 1.1726 0.24949 2.2578 1.7589 11.075 0.76094 16.106-1.0104 5.0313-19.128 1.7589-15.608-4.2837"/>
  <path d="m103.17 203.04c-8.3025-6.2929-15.344-21.636-13.833-37.494 1.5094-15.857 10.65-31.641 18.703-36.687 10.562-6.5865 8.8306-9.8872 5.7503-18.204-3.2849-8.8015-12.307-28.678-17.793-38.125-10.063-17.368-26.14-37.655-37.2-47.762-11.545-10.562-24.394-19.158-32.448-23.661 25.509 23.881 49.64 56.49 60.964 76.366 8.3171 14.595 11.735 24.952 16.268 37.787 1.4678 4.1373 2.1123 5.3103-1.4221 7.584-6.3079 4.05-20.903 20.83-21.886 41.381-0.95221 19.569 6.5129 37.127 17.867 47.366 8.9628 8.0975 8.552-5.2808 5.0318-8.552"/>
  <path d="m175.64 232.19c10.048 0 34.061-6.601 44.036-25.626 8.7279-16.635 6.0143-24.923 1.9959-35-2.5364-6.322-2.4658-8.5957 1.526-12.879 11.031-11.823 35.968-28.751 53.6-37.171 16.855-8.0534 48.569-21.901 77.511-23.148-35.484 10.063-50.549 16.386-77.76 32.712-15.168 9.0946-27.93 20.874-41.014 31.45-4.5182 3.6508-5.3249 4.3128-3.2724 12.073 3.5219 13.349 1.2017 30.042-8.2589 42.32-10.811 14.053-26.477 23.602-51.385 24.614 1.027-3.6384 2.1996-7.4809 3.0229-9.3441"/>
 </g>
 <g fill="#a499c9">
  <path d="m95.876 210.34c-9.0655-12.336-20.756-33.064-13.583-57.121 4.4592-14.963 14.038-25.935 22.707-32.682-6.5424-24.908-16.077-42.437-27.842-59.409-17.632-25.451-36.716-48.569-50.3-58.896 18.013 42.202 15.622 95.142-26.213 127.05 34.736 16.166 26.536 52.94 18.233 97.666 26.228-11.134 43.787-5.6621 63.164 15.094 5.0313-16.855 8.3025-22.385 13.833-31.7"/>
  <path d="m172.62 241.54c29.03-1.9502 49.376-15.109 58.28-37.626 3.7839-9.52 3.023-21.886 0.85242-30.937-0.48235-2.0666-0.98131-3.6508-0.66114-5.0022 0.41581-1.6591 1.7755-2.9356 2.9315-4.0625 32.492-32.154 78.303-55.61 120.87-65.115-32.125 22.825-48.789 49.64-42.276 112.39-33.812-7.2318-62.181 34.531-79.359 80.87-20.023-28.971-54.715-30.995-76.615-20.581 9.0506-14.331 11.955-20.258 15.974-29.939"/>
  <path d="m132.3 176.74c1.131 0.16633 2.9356-0.0831 3.8878 0.0831 0.93973 0.20792 1.7755 0.0831 1.5842-1.2308-0.2079-1.3181-0.74847-4.3419-1.131-5.2808-0.37422-0.95222-1.289-0.80668-2.2454 0.12474-0.93973 0.93975-3.023 4.1207-3.023 4.6791 0 0.57382-0.5863 1.4096 0.9231 1.6009"/>
 </g>
 <g fill="#fff">
  <path d="m128.15 187.12c2.0666 3.7714 8.3025 14.904 9.051 16.605-8.4788 5.6621-18.865-5.2808-12.073-15.476 1.8919-2.8317 2.0832-1.7007 3.0229-1.131"/>
  <path d="m155.14 212.23c7.1732-2.2579 13.965-4.1498 19.627-5.4712-0.37423 11.515-13.539 18.204-19.627 5.4712"/>
  <path d="m125.88 211.66c-3.4055 5.4717-6.0438 9.6232-7.364 9.4323-1.3223-0.20791-2.0666-15.285-2.0666-15.285 3.9627-0.55719 6.0289 1.3181 9.4323 5.8525"/>
  <path d="m157.21 223.92c4.5328 0 8.8747 0.93973 9.2414 4.1498-5.838 5.2808-12.82 8.1121-13.965 7.3636-1.131-0.76093 3.023-8.493 4.7232-11.515"/>
  <path d="m126.88 288.83c-1.131-3.7714-3.0812-9.6082-4.2101-9.6082-1.131 0-5.1195 9.8286-5.3099 12.659 3.9752-0.57383 6.9237-1.4221 9.52-3.0521"/>
  <path d="m88.83 272.63c3.5801-1.5094 9.4909-3.2142 10.826-1.7173 0.9231 1.0395-4.5328 8.1266-6.4251 10.576-2.2579-2.6404-3.4637-5.6476-4.4005-8.8601"/>
 </g>
 <path d="m172.62 241.54c21.3-1.289 40.237-9.5641 49.933-22.898 13.451-18.512 12.278-33.577 9.4614-45.21-0.60292-2.4782-1.4969-4.0625-1.0853-5.4422 0.71936-2.4782 4.05-4.5473 8.8747-8.9923 31.391-28.868 75.501-52.793 115.94-60.01-65.673 32.462-90.771 49.449-71.526 86.444-41.513-12.087-45.048 34.971-47.556 71.716-10.195-20.771-50.241-8.6838-73.389 4.1498 4.5328-10.195 6.0729-11.955 9.3441-19.759" fill="#8e84ae"/>
 <path d="m26.859 2.235c21.651 18.688 67.081 71.673 78.141 118.31-26.492 20.346-34.545 55.58-9.1242 89.803-6.2929 13.085-10.826 22.649-13.833 31.699 1.5094-22.648-5.0313-60.891-43.288-51.341 26.17-35.22 43.288-66.421-4.5324-72.963 40.765-28.194 29.191-68.445-7.364-115.5" fill="#8e84ae"/>
 <g fill="#0098c7">
  <path d="m127.58 296.4c-2.6861 1.6009-5.9702 2.2745-8.8015 2.7735-0.33265 1.1726-0.894 2.0541-1.2599 2.0084-3.023-0.24949-5.5303 2.5074-5.5303 6.7919 0 4.2833-1.0104 9.8132-2.524 14.097-1.5094 4.2683 7.2759 14.537 10.063 6.7915 2.2579-6.2929 2.524-10.576 1.5094-14.845 5.0313-6.0434 6.5424-10.826 6.5424-17.618"/>
  <path d="m79.018 271.23c1.0104 2.2578 1.5094 6.2933 3.0229 8.552-0.76093 1.2599-1.7589 2.2745-1.7589 2.2745 1.2599 5.0317-5.8234 7.4227-11.295 16.063-4.0916 6.4542-17.896 1.0395-12.366-5.0022 3.551-3.8587 9.8868-9.3736 11.574-11.061 3.5219-5.5449 7.0559-7.8035 10.826-10.826"/>
  <path d="m131.92 294.32c-7.1732 4.7236-23.221 8.0389-34.824 0.92311-13.495-8.288-20.096-20.361-17.823-38.858 1.8919-15.52 5.5008-22.649 8.1117-29.059-4.1498 16.224-10.869 41.498-1.5094 54.862 12.733 18.189 29.118 16.928 46.046 12.131"/>
 </g>
 <g fill="#0f141b">
  <path d="m26.068 1.876c40.061 38.418 68.298 81.633 78.038 118.6-29.617 21.417-32.726 61.316-8.4052 90.757 0.20792 0.24949 1.0728-1.2474 0.96885-1.3805-21.607-25.113-21.974-65.526 7.364-87.412 2.0541-1.526 2.0541-1.4678 1.1144-4.65-11.251-38.022-36.218-75.897-74.694-113.61 49.669 32.14 69.384 73.946 83.95 110.72 1.788 4.5032 0.57382 7.8917-6.2929 12.718-19.554 13.73-28.986 52.471-7.1 74.87 0.24949 0.24948 1.0562-1.289 0.80668-1.5385-19.729-20.199-12.249-57.795 7.4518-71.643 7.1732-5.0313 9.3441-8.5666 6.7624-15.094-18.791-47.381-37.64-81.545-88.952-113.7-1.8795-1.1726-2.6113-0.16632-1.0104 1.3639"/>
  <path d="m25.552 1.672c22.605 54.085 11.896 95.862-24.717 126.45-1.2017 1.0104-0.93974 1.6591-0.24949 1.9668 17.603 8.1557 34.838 23.632 17.324 96.023-0.5863 2.3909-0.48234 2.8608 1.1144 2.025 23.133-12.029 44.139-6.337 62.842 14.845 0.24949 0.24949 0.96883-1.1144 0.74846-1.3805-17.676-20.449-38.198-28.091-63.106-15.593 13.847-57.326 9.5787-83.54-17.324-97.035 39.665-33.005 46.911-76.41 24.967-127.19-0.93974-2.1705-2.4782-2.2287-1.5842-0.08312"/>
  <path d="m85.844 143.29c-25.7 15.96-49.17 40.619-67.14 82.718-0.16632 0.41581 0.6154 1.3181 0.76094 0.99794 15.534-35.499 39.357-64.998 65.35-81.237 0.29106-0.2079 1.3348-2.6695 1.0271-2.4782"/>
  <path d="m1.264 128.69c-0.29108 0.16631 0 1.4803 0.29106 1.2932 27.504-18.146 77.379-15.3 103.15-8.8456 0.33265 0.0831 0.44076-1.6009 0.0831-1.6716-26.316-5.7503-72.641-10.474-103.56 9.2265"/>
  <path d="m136.42 161.85c-2.1996 1.9959-6.4397 6.8651-9.0801 11.178-2.1581 3.5053-1.0271 4.7527 1.131 1.2599 2.524-4.0791 6.381-9.0946 8.6402-10.899 1.9502-1.5551 3.6217-3.0354 4.4301 1.5094 0.63204 3.6092 0.99794 6.1465 1.0686 9.256 0.12474 4.2687 1.4969 4.4596 1.393 0.24949-0.0831-3.2267-0.33265-6.5424-1.1019-10.254-1.0271-4.9141-3.0354-5.4276-6.4838-2.287"/>
  <path d="m124.8 202m1.2308-13.965c0.91062-1.2183 1.1726-1.3805 2.0084 0.16632 2.9315 5.0459 4.9577 8.4343 8.4784 15.432-8.6547 4.1806-17.251-5.3394-10.488-15.578m0.0416-2.1581c-8.3029 9.1682-1.7007 23.602 10.708 19.085 1.3056-0.46987 1.3805-0.77757 0.41581-2.7568-1.131-2.3036-6.7915-12.395-8.8452-16.121-0.76093-1.4678-1.2599-1.3223-2.2745-0.20792"/>
  <path d="m174.17 207.31c-0.63204 11.618-14.595 15.476-17.955 5.1195 6.4542-2.0084 11.97-3.6217 17.955-5.1195m-0.54471-1.1726c-3.6675 0.99794-13.437 3.6799-17.427 4.9581-1.4387 0.46987-1.7173 0.93973-1.131 2.129 5.0313 10.811 19.084 7.3931 20.404-5.618 0.16632-1.7755 0.0416-2.0541-1.8504-1.4678"/>
  <path d="m119.6 205.06m-31.142 62.123c-0.95221-17.705 9.3296-43.816 22.443-57.033 6.616-6.6451 9.3591-5.0463 16.708 3.8878 6.4838 7.8921 15.285 11.017 29.426 10.415 7.7744-0.33265 10.62 2.9772 8.1557 10.547-4.05 12.425-19.07 42.98-37.362 52.838-19.466 10.503-38.389-2.4949-39.372-20.654m21.431-57.928c-13.334 13.422-23.676 39.987-22.707 58.001 1.0562 19.598 21.065 32.609 41.264 21.71 18.629-10.048 33.87-40.985 37.963-53.571 3.2724-10.063-1.4969-12.571-9.4323-12.234-13.862 0.60292-22.091-2.287-28.385-9.9308-9.1824-11.163-12.689-10.693-18.703-3.9752"/>
  <path d="m115.82 205.7c-0.0416 1.7173 0.37423 7.6572 1.131 11.911 1.0271 5.897 1.1435 6.3665 4.5768 1.63 0.2079-0.29108 3.8712-5.6621 5.09-7.6426 0.2079-0.29107-0.91064-0.98131-1.0853-0.67361-1.3514 2.1996-3.0645 4.7677-4.4741 6.7478-2.287 3.2433-2.3452 3.0812-2.9647-0.73183-0.70272-4.3419-0.99794-11.031-0.99794-11.192v-0.0291c0-0.33264-1.2599-0.37423-1.2765-0.015"/>
  <path d="m156.76 223.64c-2.1872 4.2101-3.4637 6.9241-4.166 8.6842-1.8337 4.5914-1.2017 4.6646 2.919 3.0354 3.6508-1.4387 9.2414-4.3565 11.456-6.6447 0.24949-0.24949-0.54472-1.289-0.79421-1.0395-1.8462 1.9086-6.0729 4.2392-9.3296 5.7207-3.7548 1.7298-4.2392 2.0541-2.5531-1.7755 0.79004-1.8213 1.9793-4.2687 3.6092-7.3786 0.0416-0.0831-0.98132-0.91062-1.1435-0.60292"/>
  <path d="m97.765 269.7c-2.8899 0.12475-7.2759 1.2183-9.3736 2.287-0.29108 0.16633 0.29106 1.3057 0.58629 1.1435 2.2745-1.1726 5.7798-1.8628 8.1266-2.0957 2.1705-0.20791 2.4491-0.12475 1.3348 1.6882-1.393 2.2454-3.8005 6.0434-6.0289 8.5811-0.12474 0.12475 0.73183 1.1144 0.96885 0.85243 0.66115-0.76094 5.5303-6.8942 6.8651-10.151 0.70273-1.6882 0.80668-2.4658-2.4782-2.3036"/>
  <path d="m124.28 280.39c-1.4387-2.5074-1.7589-3.1394-3.4055-0.0145-1.2474 2.3618-3.813 9.2709-4.2392 11.266-0.0831 0.33265 1.1726 0.61541 1.2474 0.24949 0.69024-3.181 2.9647-8.4052 3.8712-10.356 0.88152-1.8795 0.92311-1.5094 1.9668 0.60293 0.82331 1.6591 2.3161 4.6941 2.6279 6.8942 0.0416 0.33265 1.3223 0.16632 1.2765-0.2079-0.37423-2.6279-2.3327-6.7037-3.3431-8.4643"/>
  <path d="m127.02 296.63c-0.45324 6.4106-2.1997 13.32-8.4198 18.952-2.1997 1.9668-0.93973 2.42 1.4221 0.2079 6.2343-5.8821 8.6397-12.073 9.0215-19.7 0.0145-0.33265-1.9959 0.20791-2.025 0.55718"/>
  <path d="m117.69 299.01c-0.24949 2.42-0.95221 5.5012-2.6695 8.6547-1.393 2.5656-0.29108 2.7277 1.4803-0.16632 1.4387-2.3452 2.3618-5.7648 2.6861-8.6547 0.0295-0.33264-1.4512-0.16633-1.4969 0.16633"/>
  <path d="m111.2 310.17c-0.12474 5.6039-1.6591 10.488-2.919 13.598-1.5094 3.6799-3.0936 7.0996-3.5801 10.195-1.4096 9.0946 8.068 11.911 12.586 3.418 4.0916-7.7158 5.2808-15.593 4.929-23.822-0.015-0.33265-1.4096 0.66114-1.393 1.0104 0.41581 9.3587-1.4969 14.918-4.665 21.035-4.05 7.7894-10.547 4.9141-9.755-1.5552 0.33265-2.9647 1.7007-6.1906 3.1685-9.799 1.3057-3.2142 2.8899-8.2584 3.023-14.053 0.12474-5.3103 1.9086-9.755 5.1635-7.9212 0.29108 0.16632 0.74847-1.1144 0.41582-1.2183-5.6767-1.8795-6.8651 4.2246-6.9678 9.1092"/>
  <path d="m79.297 269.92c-5.7353 3.3431-11.31 9.6082-14.244 16.694-1.2017 2.8608-0.33265 3.4304 0.85241 0.93973 2.8733-6.0875 8.1266-12.19 13.716-15.461 0.29106-0.16633-0.01451-2.3493-0.33265-2.1705"/>
  <path d="m81.704 279.46c-4.0209 2.6862-7.3491 6.4547-10.342 11.061-1.7755 2.7277-1.2765 3.9294 0.33265 1.4803 2.6861-4.0916 7.7012-9.0214 11.046-11.266 0.29108-0.20791-0.73183-1.4678-1.0271-1.2766"/>
  <path d="m68.947 280.64c-7.5104 5.0022-17.163 15.989-21.065 23.559-3.8587 7.4663 5.369 15.754 12.733 5.9261 4.5328-6.0288 13.334-16.972 13.334-16.972s4.5914-5.1195 5.8675-6.601c1.2599-1.4969 1.6882-3.3598 1.131-4.8991-0.12474-0.33265-1.3223 0.0831-1.2017 0.42413 0.37423 1.1019 0.04162 2.287-1.0104 3.5219 0 0-2.4949 2.657-5.8384 6.5865-4.3124 5.09-10.488 12.234-13.715 16.752-4.9877 6.9823-13.686 2.9772-9.0946-4.7378 5.5299-9.315 10.121-14.845 18.16-21.989 0.33265-0.29108 0.99796-1.7589 0.70272-1.5718"/>
  <path d="m356.11 97.996c-39.973 23.999-50.373 59.761-44.227 112.31-40.648-8.0239-69.223 52.661-78.655 80.107-14.537-19.612-44.535-35.044-77.232-19.334-0.29106 0.12475-1.8919 2.3618-1.5967 2.2288 41.85-19.495 70.69 8.3612 77.07 17.163 1.9377 2.6862 1.6424 4.2978 3.052 0.20792 5.2076-15.05 33.02-82.468 73.946-79.329 4.2833 0.33266 5.1486 2.1706 4.6351-2.5531-5.8089-54.29 8.2439-88.542 44.198-110.13 0.29107-0.20792-0.88153-0.85243-1.1892-0.67362"/>
  <path d="m355.18 97.621c-60.084 5.0609-111.23 38.844-133.02 60.847-3.8878 3.9294-4.9286 5.8089-1.9959 12.087 15.916 34.076-18.38 60.275-44.623 60.656-0.33265 0-0.98131 1.7007-0.6154 1.7007 30.599 0.24949 62.548-30.042 47.146-63.018-2.3909-5.1049-1.526-7.3636 1.5967-10.488 25.451-25.362 75.912-54.363 125.6-59.922-58.881 16.106-84.17 36.247-116.1 64.323-4.6941 4.1498-2.8317 4.8259-1.3639 12.19 7.32 36.702-22.253 63.282-59.526 64.954-0.33265 0.0145-0.82332 1.6134-0.46987 1.5967 41.733-1.6716 69.678-30.541 61.052-69.237-1.4221-4.5037-1.2599-5.9557 1.0104-7.9653 32.771-28.795 66.568-53.116 121.62-66.113 3.5802-0.85241 3.3722-1.9211-0.29106-1.6134"/>
  <path d="m231.33 168.44c27.856 2.7444 55.947 13.848 80.503 42.657 0.24949 0.24949 0.88153-0.54471 0.66114-0.82332-22.458-27.006-51.561-41.88-81.002-43.229-0.33265-0.0145-0.51145 1.3639-0.16633 1.393"/>
  <path d="m231.14 202.24c4.87 34.927 6.7769 54.759 1.6591 88.6-0.24949 1.7464 1.1601 1.4096 1.4512-0.48234 5.5448-36.614 3.3015-57.15-2.0541-90.008-0.0416-0.33264-1.1019 1.5385-1.0562 1.892"/>
  <path d="m132.17 175c0.64451-1.0395 1.2308-1.8046 2.3161-3.418 1.2765-1.9086 1.4512-2.129 2.025 0.29107 0.24949 1.0104 0.45324 2.5074 0.5863 3.3307 0.16633 0.93973 0.29106 1.2017-0.83578 1.131-1.0686-0.0416-2.0832-0.0416-3.4014-0.12474-1.2017-0.0416-1.3223-0.16632-0.69024-1.2017m1.9086-4.9577c-0.0831 0.12474-2.4658 3.4346-3.2267 4.8259-0.88152 1.6009-1.2017 2.42 0.55719 2.4034 1.289 0 4.2101 0.0831 5.6767 0.12474 1.6716 0.0416 1.6425 0.0831 1.4096-1.6424-0.2079-1.4678-0.99794-5.0463-1.0562-5.2222-0.98132-3.1103-1.2765-2.9647-3.3598-0.48234"/>
 </g>
 <path d="m169.1 185.68c5.5299-2.0084 8.8011-3.023 11.075-3.5219 4.0209-0.894 4.6941 0.89399 4.0209 4.0209-0.74846 3.5219-3.023 11.574-6.5424 13.847-3.5219 2.2579-12.322-7.804-8.5516-14.346" fill="#00aee5"/>
 <path d="m172.5 190.14c3.4014-1.131 5.8526-2.2579 6.4102-1.8919 0.57382 0.37422-0.74846 5.2954-1.6882 6.2343-1.5094-1.3181-3.2142-2.8317-4.7232-4.3423" fill="#a499c9"/>
 <g fill="#0f141b">
  <path d="m179.24 181.66c-3.418 0.60292-7.1732 2.1123-9.8431 3.4762-2.8733 1.4512-2.2745 2.5656 0.57381 1.1601 2.5822-1.2766 6.3956-2.5822 9.6522-3.2724 4.0791-0.8649 4.6059-0.12474 3.6217 4.43-0.69024 3.1976-3.3889 8.3466-4.7232 10.738-0.0416 0.57383 0.33265 1.7755 0.41582 2.8317 2.3618-3.551 5.2222-9.0214 6.0143-13.187 1.0395-5.5153 0.33264-7.2318-5.6916-6.1756"/>
  <path d="m174.4 189.84c0.70272-0.4158 1.9377-0.66113 2.6986-0.83577 1.3805-0.33265 1.526-0.29108 1.1435 1.1435-0.16632 0.71936-0.51146 1.8171-0.894 2.6404-0.49897 1.0728-0.69025 1.0728-1.4512 0.0831-0.5863-0.77756-1.1019-1.2474-1.6882-1.7755-0.80668-0.73183-0.45323-0.88152 0.2079-1.2474m2.8317-2.1872c-0.0416 0.0145-2.7444 0.71936-4.3419 1.4969-2.0541 0.98132-1.5552 1.2017-0.29108 2.1706 1.526 1.1892 2.3743 2.2163 3.3431 3.4471 1.131 1.4678 1.2474 0.99796 1.9793-0.41581 0.82331-1.6009 1.3639-3.023 1.7464-4.5182 0.57382-2.3036-0.0416-2.6986-2.42-2.1872"/>
  <path d="m159.42 174.7c5.2663 2.5074 9.4764 5.6916 12.659 9.5645 0.51146-0.0295 1.0271-0.0831 1.4969-0.16631-7.6426-9.52-18.541-14.727-30.614-14.449 0.12474 0.42413 0.20792 0.83579 0.24949 1.2474 5.149-0.0831 10.533 1.1019 16.195 3.8005"/>
  <path d="m168.44 252.28c9.0655-18.835 13.818-39.004 12.19-52.075-0.12475-0.89398-0.29108-1.7755-0.46987-2.657-0.33266 1.0728-0.80668 1.9502-1.3348 2.7735 1.8046 12.864-2.1705 29.734-12.146 50.96-11.676 24.805-37.699 57.971-67.858 43.728-30.746-14.522-18.116-54.216-4.9436-78.743 9.9749-18.556 20.669-33.064 32.697-40.31 0.48234-0.86489 0.91062-1.8046 1.393-2.657-1.9793 0.96885-3.9627 2.0999-5.8825 3.4928-8.053 5.8675-20.126 20.712-29.631 38.256-16.092 29.69-24.82 67.125 5.8089 81.765 28.78 13.745 55.273-13.583 70.176-44.535"/>
  <path d="m132.16 194.33c-2.3909 0.48651-6.7919 3.3889-7.9948 5.7798l0.49898 0.92311c2.0957-2.4367 5.633-4.5032 8.3466-5.2808z"/>
  <path d="m163.45 209.55c1.3181 2.3909 2.3327 7.1145 2.0957 9.1828l1.2599-0.20791c0.0831-2.5822-0.29106-6.6742-1.6133-9.3441z"/>
 </g>
</svg>
