<?xml version="1.0" encoding="UTF-8"?>
<svg version="1.1" viewBox="0 0 131.65 158.24" xmlns="http://www.w3.org/2000/svg">
 <path d="m93.605 53.08q6.4-6.4 15.5-6.4 9.05 0 15.45 6.4 6.45 6.45 6.45 15.55 0 9.05-6.45 15.5-6.4 6.45-15.45 6.45t-15.5-6.45q-6.4-6.4-6.4-15.5t6.4-15.55" fill="#f3848d"/>
 <path d="m118.1 70.63 0.8 2.1q0.55 2.45-0.8 4.25-1.35 1.75-4.05 1.65l-2.4-0.5q2.65-1.35 4.8-4.55 1.1-1.6 1.65-2.95" fill="#b40a5c"/>
 <path d="m87.955 64.53 0.85 3q1.25 3.55 3.1 6.6 6.05 9.7 16.4 10.15 10.3 0.45 16.95-4.25 3.35-2.35 4.6-4.8-1.2 4-4.65 7.9-6.9 7.8-18.15 7.25-15.75-2.2-19-14.25-1-3.75-0.65-8.05l0.55-3.55" fill="#c86e77"/>
 <g fill="#0d131a">
  <path d="m93.405 54.93q-5.6 6.5-5.4 14.35 0.25 8.9 6.4 14.65 6.15 5.75 15.4 5.75 8.55 0 14.4-6.4 5.5-6.05 5.5-13.75 0-8.75-5.6-15.05-5.95-6.7-15.15-6.7-9.4 0-15.55 7.15m16.4 36.25q-9.9 0-16.55-6.05-6.7-6.1-6.95-15.55-0.25-8.95 5.8-16 6.55-7.65 16.7-7.65 10.1 0 16.5 6.7 6.35 6.6 6.35 16.8 0 8.2-6.15 14.8-6.5 6.95-15.7 6.95"/>
  <path d="m105 74.78c0.23333-0.0333 0.54131 0.75826 0.65 1.2 0.28675 1.1654 0.19495 2.3998-0.05 3.6-0.6 2.4333-2.2167 3.85-4.85 4.25-0.73333 0.13333-1.1167 0.0667-1.15-0.2-0.0333-0.2 0.3-0.41667 1-0.65 1.9667-0.5 3.25-1.8 3.85-3.9 0.4654-1.3227 0.25-3.2 0.25-3.2 0-0.7 0.1-1.0667 0.3-1.1"/>
  <path d="m120.9 61.83 0.35-0.65c0.15803-0.29349 0.36667-0.36667 0.5-0.3 0.26667 0.1 0.26667 0.51667 0 1.25-1.0667 2.8-2.6833 4.4-4.85 4.8-0.67361 0.0857-2.0444 0.14218-2.95-0.25-0.41152-0.17822-1.114-0.46628-1-0.9 0.0391-0.14861 0.30147-0.13935 0.45-0.1 0.26719 0.0708 0.45555 0.11536 0.75 0.15 0 0 1.8725 0.20748 2.7-0.15 1.7099-0.7387 3.1833-1.8167 4.05-3.85"/>
  <path d="m118.5 74.13c0-1.3333-0.13333-2.3-0.4-2.9-0.86667 2.1-1.9167 3.75-3.15 4.95l-2.6 1.95s1.7614 0.16952 2.6-0.05c0.98827-0.25871 2.1-0.75 2.7-1.45 0.56667-0.66667 0.85-1.5 0.85-2.5m-0.5-4.1c0.1-0.0333 0.37305 0.26517 0.5 0.45 0.47492 0.69142 0.9 2.35 0.9 2.35 0.36667 1.7667 0.0333 3.25-1 4.45-1.0333 1.2333-2.4333 1.8333-4.2 1.8-1.2333 0-1.7212-0.11758-2.5-0.45-0.20849-0.089-0.53227-0.174-0.55-0.4-0.0184-0.23498 0.5-0.5 0.5-0.5l2.2-1.7c1.6333-1.5333 2.8833-3.3667 3.75-5.5 0.15588-0.41569 0.4-0.5 0.4-0.5"/>
 </g>
 <path d="m21.355 80.83q14.2-12.6 32.65-12 15.15 0.1 27.35 9.75 13.65 10.8 17.55 29.55 3.55 17.2-8.1 34.2-4.45 6.5-9.75 10.8-4.9 4-7.8 4-1.8 0-3.65-2.1l-1.5-2.15q-10.5 2.55-21.5 1.45-8.4-0.85-11.1-2.5l-1.45 2.3q-1.85 2.4-3.55 2.7-1.75 0.3-6-2.6l-3.9-3q-3.6-3.8-7.3-9.55-7.4-11.45-8-21.25-0.45-25 16.05-39.6" fill="#f3848d"/>
 <g fill="#00aa5b">
  <path d="m64.105 38.48q5.3 0.4 9.35 4.2 2.05 1.9 3 3.75-1.55 10.85-9.4 17.75-3.95 3.45-7.6 4.75h-6.65q8.3-8.55 10.65-20.35 0.7-3.7 0.75-7.25l-0.1-2.85"/>
  <path d="m81.855 39.13q1.95-2 3.65-3.15-1.55 10.8 4.1 18.35 2.85 3.8 6 5.45-9.6-0.4-15.25-6.4-1.75-1.85-2.9-4.05l-0.8-1.85q1.3-4.35 5.2-8.35"/>
  <path d="m123.1 17.33q7 10.35 6.45 18.55-0.35 5.15-3.5 8.6-3.6-5.1-5.75-6.8-6.75-5.45-18.35-6.35-11.45-0.9-19.5 7.25-4 4.05-5.75 8.3-4.7-7.85-12.95-8.5l-5.95 0.35-4 0.65q-0.9 0.05-2.55 0.95-2.15 1.25-3.6 1.8-6.25 2.25-18 0.9-12-1.35-20.7 5.85-4.35 3.6-6.3 7.5-2.35-9.05-1.35-19.9 1.95-21.6 18.65-30.4 19.1-9.5 37.45-1.75 9.2 3.85 14.55 9.6 10.75-12.25 27.1-10.6 15.65 1.6 24.05 14"/>
 </g>
 <path d="m57.055 69.38q-4.35 9.15-5.55 19.5-1.25 10.9 0.45 27.2 0.2 1.9-2.35 2-2.6 0.1-3-1.65-2.55-10.15-1.2-25.15 1.35-15.35 5.6-21.9l2.5-0.05q2.65-0.05 3.55 0.05" fill="#b40a5c"/>
 <g fill="#008f4d">
  <path d="m76.705 46.73q-1.45-2.95-5-5.35-7-4.8-17.2-1.9l-14.15 3.65-12.25-0.4q-9.2-0.6-16.85 4.15-6.1 3.8-8.55 8.75 0.5-3.95 3-8.1 5-8.3 15-9.2 4.65-0.4 15.2-0.05 5.55 0.15 13.75-2.45 9-2.85 17.1 0.1 8.6 3.1 9.95 10.8"/>
  <path d="m85.655 57.48q-6.1-3.2-8.85-9.85l0.9-2.45q1.1-2.65 2.1-3.35l-0.05 1.85q0.05 2.3 0.8 4.6 2.45 7.2 10.65 11.1-2.5-0.3-5.55-1.9"/>
  <path d="m64.055 47.13 0.5-8.05q7.65 1.7 10.65 5.5 1.55 1.85 1.5 3.4-4.25-2.1-8.85-1.7l-3.8 0.85"/>
  <path d="m83.255 37.13q-2.15 1.75-3.6 3.8l-1.05 1.7 1.05-2.45q1.5-2.9 3.6-5.35 6.7-7.85 17.05-7.95 10.9-0.05 19 6.8 6.9 5.85 6.5 10.65-1.9-3.35-6-6.65-8.15-6.65-18.95-6.4-10.8 0.3-17.6 5.85"/>
 </g>
 <path d="m49.405 139.23q15.05 0.4 28-4.05 14.1-4.8 22-14.35-0.3 10.3-9.7 22.9-9 12.15-16 13.4-2.15-0.3-3.95-2.4l-1.35-2q-8.4 1.9-14.7 1.75-5.05-0.1-11.95-1.3l-5.95-1.2-1.9 2.05q-2.3 2.2-4.05 2.65-5.2-0.9-13.1-10.65-9.5-11.75-11.25-25.2 5.05 8.25 17.4 13.25 11.8 4.75 26.5 5.15" fill="#c86e77"/>
 <path d="m25.205 87.63q-0.6-0.8-0.45-2.05 0.2-1.45 1.35-2.45t2.4-1.2q1.45-0.2 2.4 0.9 0.9 1.05 0.5 2.6-0.35 1.35-1.5 2.25-1.25 0.95-2.55 0.95t-2.15-1" fill="#f9bfbe"/>
 <path d="m102.85 53.58c-0.1-0.43333 0.0406-0.99938 0.3-1.4 0.33697-0.52047 0.90812-0.91529 1.5-1.1 0.57298-0.17881 1.2562-0.20412 1.8 0.05 0.52414 0.24494 1.0146 0.73752 1.15 1.3 0.14099 0.58558-0.0921 1.2656-0.45 1.75-0.3601 0.48739-0.95681 0.82609-1.55 0.95-0.59296 0.12386-1.2801 0.0609-1.8-0.25-0.46065-0.27542-0.81667-0.7-0.95-1.3" fill="#f9bfbe"/>
 <g fill="#0d131a">
  <path d="m57.605 125.98q0.9-0.9 1.2-0.65 0.35 0.25-0.45 1.4-1.85 2.75-7.8 3-6.1 0.2-8.3-3-0.8-1.15-0.4-1.45 0.4-0.25 1.35 0.85 1.95 2.3 6.95 2.3 5.1 0 7.45-2.45"/>
  <path d="m33.805 151.83c-1.4-0.6-1.95-1.0333-1.65-1.3 0.26667-0.23333 1.1833-0.0833 2.75 0.45 4.1667 1.4 8.6833 2.2667 13.55 2.6 7.4333 0.53333 14.933-0.25 22.5-2.35 1.4896-0.31177 1.95 0.05 1.95 0.05-0.16667 0.43333-0.96667 0.86667-2.4 1.3-7.9667 2.4667-15.767 3.3167-23.4 2.55-4.9667-0.5-9.4-1.6-13.3-3.3"/>
  <path d="m125.85 43.23q2.1-3.1 2.6-6.1 0.55-3.45-0.65-8.5-1.65-7-8-13.55-7.65-7.95-18.15-10.2-10.75-2.35-20.45 2.8-4.75 2.5-8.45 6.4 1.85 2.15 2.45 4.15 0.45 1.3 0.15 1.45-0.35 0.2-0.9-0.8-6.1-10.85-21.25-14.9-15.95-4.25-30.45 2.55-15.65 7.35-19.7 25.4-2.55 11.65-0.2 22.95 2.25-5.15 7.7-8.85 6.8-4.6 15.55-4.15 12.1 0.55 15.65 0.2 3.6-0.35 9-2.65 6-2.6 13.2-1.75 9 1.1 12.55 7.8 3-5.65 7.5-9.45 7.6-6.45 17.55-5.8 8.85 0.65 15.9 4.8 6.25 3.65 8.4 8.2m3.65-15.05q2.6 10.2-3.15 16.75l-0.75 0.4-0.5-0.65q-1.25-3.7-6.95-7.25-7.1-4.4-16.65-4.95-10.85-0.75-18.6 6.9-2.45 2.35-4.3 5.35l-1.4 2.55-0.6 0.4-0.7-0.4q-3.3-6.8-11.75-7.75-7.05-0.8-13.9 2.4-5.1 2.4-9.95 2.65l-14.5-0.75q-10.55-0.4-17.6 6.35-3.55 3.4-5 6.95-0.4 0.75-0.75 0.7-0.3 0-0.6-0.85-3.35-12.1-0.65-25.6 3.85-19.5 20.3-27 14.6-6.7 29.55-3.15 12.55 3 20.55 11.45 4.25-4.4 9.15-6.95 10-5.2 21.45-2.95 10.95 2.2 18.65 10.2 6.5 6.8 8.65 15.2"/>
  <path d="m63.555 38.83q0-0.3 0.8-0.3 0.75 0 0.8 0.3l0.1 3q-0.1 3.65-0.85 7.4-2.4 11.9-10.85 20.15-0.2 0.2-0.75-0.25t-0.35-0.7q7.5-8.4 10.05-19.8 0.8-3.55 1-7l0.05-2.8"/>
  <path d="m75.855 46.88q0.05-0.3 0.75-0.2 0.75 0.15 0.65 0.4-0.85 5.1-3.85 10.4-5.9 10.6-16.45 12.45l-0.75-0.5q-0.45-0.6-0.15-0.7 9.85-2.1 15.8-12.15 2.95-5 4-9.7"/>
  <path d="m84.855 36.33q0-0.3 0.75-0.25 0.7 0.05 0.7 0.35-0.35 11.2 4.4 18 2.35 3.4 5.1 4.75 0.95 0.25 0.8 0.9l-0.4 0.35-0.6 0.15q-3.5 0.25-7.65-1.2-8.3-2.85-11.95-11.25-0.1-0.25 0.4-0.9 0.55-0.6 0.65-0.35 2.85 5.75 7.9 9.05 3.95 2.6 8.75 3.4-4.4-3.3-6.4-7.05-2.55-4.9-2.55-12.85l0.1-3.1"/>
  <path d="m18.905 82.03q14.2-14.1 33.05-14.1 20.95 0 34.9 14.6 13.6 14.3 13.55 34.95-0.05 16.2-11.55 29.75-4.3 5.1-9 8.3-4.3 2.9-6.5 2.7-2.6-0.2-6.05-5.3-0.2-0.25 0.55-0.6l0.9-0.05q2.5 3.75 4.55 3.95t6.05-2.7q4.35-3.1 8.3-8.05 10.5-13.05 10.45-27.95 0-20.1-12.4-33.55-13-14.05-33.75-14.05-18.65 0-32.05 13.7-13.65 14.05-13.15 33.95 0.4 15.15 9.8 27.45 3.6 4.75 7.65 7.75 3.7 2.8 6.05 2.9 0.6 0.05 2.4-1.5l2.45-2.55q0.15-0.25 0.95 0 0.8 0.3 0.6 0.55-0.9 1.45-2.8 3.3-2.25 2.2-3.45 2.15-2.65-0.1-6.8-3.1-4.45-3.25-8.45-8.35-10.2-13.1-10.6-28.6-0.55-20.85 14.35-35.55"/>
 </g>
 <path d="m73.255 110.23 2.25 0.7q2.3 1.45 2.35 5.05 0.05 3.55-2.05 4.9-1.05 0.65-2.1 0.6l-2.1-0.45q-2.15-1-2.35-3.75-0.7-4.1 1.6-6l2.4-1.05" fill="#b40a5c"/>
 <path d="m72.905 114.78c-0.86667-0.1-1.3372-0.73571-1.5-1.4-0.14301-0.58366 0.163-1.2559 0.6-1.7 0.1885-0.19155 0.44288-0.32181 0.7-0.4 0.22381-0.0681 0.46837-0.0827 0.7-0.05 0.618 0.0873 0.97514 0.38869 1.25 0.8 0.26339 0.39414 0.30397 0.92903 0.25 1.4-0.0289 0.25221-0.14442 0.4994-0.3 0.7-0.42009 0.54163-0.9 0.78333-1.7 0.65" fill="#fff"/>
 <path d="m27.905 110.58 2.2 0.85q2.2 1.6 2.05 5.15-0.1 3.6-2.3 4.8-1.1 0.6-2.15 0.45-1 0-2.05-0.55-2.05-1.1-2.15-3.9-0.45-4.1 1.95-5.85l2.45-0.95" fill="#b40a5c"/>
 <path d="m27.355 115.18c-0.83333-0.16667-1.2833-0.65-1.35-1.45-0.0333-0.66667 0.18333-1.1833 0.65-1.55 0 0 0.4461-0.29006 0.7-0.35 0.22709-0.0536 0.7 0 0.7 0 0.5 0.1 0.86667 0.36667 1.1 0.8 0.36667 0.66667 0.36733 1.3718-0.15 2-0.41954 0.50946-1.0167 0.65-1.65 0.55" fill="#fff"/>
 <path d="m24.205 116.53q-0.05 2.2 1.05 3.7 1.05 1.45 2.4 1.45 3.2-0.1 3.7-4.85 0.1-2.05-0.8-3.75-1.05-1.8-2.6-1.8-1.7-0.05-2.7 1.45-1 1.45-1.05 3.8m3.3 6q-1.8-0.1-3.2-1.65-1.55-1.75-1.5-4.35 0.05-2.3 1.35-4.1 1.45-2.05 3.8-2.05 1.9 0.05 3.35 1.85 1.55 1.95 1.35 4.7-0.1 2.4-1.45 4-1.45 1.7-3.7 1.6" fill="#0d131a"/>
 <path d="m69.755 116.28q0.1 2.05 1.1 3.5 1.05 1.45 2.45 1.5 1.6 0.05 2.65-1.6 0.9-1.45 0.95-3.45-0.1-2.4-1-3.9-1-1.7-2.75-1.7-1.5 0-2.4 1.3-1.1 1.5-1 4.35m3.35-6.5q2-0.05 3.5 1.6 1.65 1.8 1.7 4.8-0.05 2.75-1.55 4.5-1.4 1.55-3.2 1.55-2.05-0.05-3.5-1.65-1.55-1.7-1.65-4.25-0.1-2.6 1.2-4.5 1.4-2 3.5-2.05" fill="#0d131a"/>
</svg>
