<?xml version="1.0" encoding="UTF-8"?>
<!DOCTYPE svg PUBLIC "-//W3C//DTD SVG 1.1//EN" "http://www.w3.org/Graphics/SVG/1.1/DTD/svg11.dtd">
<svg xmlns="http://www.w3.org/2000/svg" version="1.1" width="300px" height="300px" style="shape-rendering:geometricPrecision; text-rendering:geometricPrecision; image-rendering:optimizeQuality; fill-rule:evenodd; clip-rule:evenodd" xmlns:xlink="http://www.w3.org/1999/xlink">
<g><path style="opacity:1" fill="#11161c" d="M 104.5,1.5 C 129.331,-0.819032 145.497,9.84763 153,33.5C 153.333,40.1667 153.667,46.8333 154,53.5C 180.235,42.4903 205.402,44.657 229.5,60C 231.325,61.4659 231.825,63.2992 231,65.5C 225.758,69.5388 220.258,73.2055 214.5,76.5C 219.851,82.0169 225.018,87.6836 230,93.5C 233.527,97.5537 235.694,102.22 236.5,107.5C 230.815,107.197 225.148,107.03 219.5,107C 229.503,127.011 233.003,148.178 230,170.5C 228.156,184.551 225.99,198.551 223.5,212.5C 224.453,227.604 231.119,239.437 243.5,248C 249.275,251.284 254.609,255.117 259.5,259.5C 252.838,263.781 245.505,266.615 237.5,268C 226.524,269.018 215.524,269.851 204.5,270.5C 199.758,278.74 193.758,285.907 186.5,292C 180.291,292.483 175.124,290.316 171,285.5C 156.204,289.483 141.204,290.816 126,289.5C 121.122,298.195 114.622,299.695 106.5,294C 102.797,290.633 99.464,286.966 96.5,283C 77.5816,283.889 60.2483,279.222 44.5,269C 41.8975,267.446 40.7308,265.28 41,262.5C 53.6133,256.22 63.28,246.887 70,234.5C 74.0644,225.975 74.3978,217.308 71,208.5C 57.3673,183.076 54.034,156.41 61,128.5C 56.8507,130.795 52.684,130.961 48.5,129C 52.2124,105.719 63.2124,86.886 81.5,72.5C 65.3992,58.2317 62.5659,41.5651 73,22.5C 80.739,11.2448 91.239,4.24483 104.5,1.5 Z M 124.5,56.5 C 134.004,63.8514 133.337,65.8514 122.5,62.5C 123.747,60.677 124.414,58.677 124.5,56.5 Z"/></g>
<g><path style="opacity:1" fill="#b5676f" d="M 141.5,18.5 C 145.29,32.9372 139.957,41.6038 125.5,44.5C 125.799,42.396 125.466,40.396 124.5,38.5C 123.738,44.5847 122.738,50.5847 121.5,56.5C 117.481,59.1285 113.148,61.2952 108.5,63C 94.4659,65.9963 82.4659,62.4963 72.5,52.5C 69.19,30.9543 77.5234,15.7877 97.5,7C 114.841,1.16713 129.508,5.00046 141.5,18.5 Z"/></g>
<g><path style="opacity:1" fill="#8c4d55" d="M 141.5,18.5 C 150.387,30.1332 152.887,43.1332 149,57.5C 147.217,63.0675 144.883,68.4008 142,73.5C 141,74.8333 140,74.8333 139,73.5C 136.433,65.359 132.1,58.359 126,52.5C 125.503,49.854 125.336,47.1873 125.5,44.5C 139.957,41.6038 145.29,32.9372 141.5,18.5 Z"/></g>
<g><path style="opacity:1" fill="#009d4f" d="M 225.5,61.5 C 223.634,64.2701 220.968,65.7701 217.5,66C 211.213,67.1072 204.88,67.6072 198.5,67.5C 195.167,66.5 191.833,65.5 188.5,64.5C 185.696,63.3622 182.696,63.1955 179.5,64C 180.244,65.0386 181.244,65.5386 182.5,65.5C 203.25,71.2043 219.25,83.2043 230.5,101.5C 213.152,99.9637 196.152,96.6303 179.5,91.5C 179.628,89.3453 179.128,87.3453 178,85.5C 177.727,92.8667 177.227,100.2 176.5,107.5C 172.809,110.535 168.809,113.368 164.5,116C 149.54,119.875 134.874,119.042 120.5,113.5C 117.568,112.2 115.234,110.2 113.5,107.5C 112.672,103.999 110.672,101.332 107.5,99.5C 90.4787,109.511 72.812,118.177 54.5,125.5C 53.8933,125.376 53.56,125.043 53.5,124.5C 57.9635,103.892 68.6302,87.3924 85.5,75C 97.9778,77.8859 108.978,75.2193 118.5,67C 124.064,65.99 129.398,66.6567 134.5,69C 135.796,71.7612 136.963,74.5945 138,77.5C 138.561,78.0219 139.228,78.3552 140,78.5C 142.321,77.5128 143.987,75.8461 145,73.5C 147.587,68.8288 149.753,63.9955 151.5,59C 157.403,55.364 163.737,52.6973 170.5,51C 190.191,48.2431 208.524,51.7431 225.5,61.5 Z"/></g>
<g><path style="opacity:1" fill="#8d4d55" d="M 72.5,52.5 C 82.4659,62.4963 94.4659,65.9963 108.5,63C 113.148,61.2952 117.481,59.1285 121.5,56.5C 114.649,69.9722 103.649,75.1389 88.5,72C 80.2127,67.9263 74.8794,61.4263 72.5,52.5 Z"/></g>
<g><path style="opacity:1" fill="#008744" d="M 225.5,61.5 C 227.645,61.9166 228.312,62.9166 227.5,64.5C 221.833,67.8333 216.167,71.1667 210.5,74.5C 206.437,72.1401 202.437,69.8067 198.5,67.5C 204.88,67.6072 211.213,67.1072 217.5,66C 220.968,65.7701 223.634,64.2701 225.5,61.5 Z"/></g>
<g><path style="opacity:1" fill="#093f2a" d="M 188.5,64.5 C 186.265,64.2053 184.265,64.5386 182.5,65.5C 181.244,65.5386 180.244,65.0386 179.5,64C 182.696,63.1955 185.696,63.3622 188.5,64.5 Z"/></g>
<g><path style="opacity:1" fill="#018342" d="M 179.5,91.5 C 196.152,96.6303 213.152,99.9637 230.5,101.5C 233.232,102.967 233.065,103.967 230,104.5C 213.182,101.669 196.349,99.0025 179.5,96.5C 179.5,94.8333 179.5,93.1667 179.5,91.5 Z"/></g>
<g><path style="opacity:1" fill="#008744" d="M 113.5,107.5 C 111.504,105.667 109.171,105.167 106.5,106C 88.7655,114.041 70.7655,121.208 52.5,127.5C 52.2627,126.209 52.596,125.209 53.5,124.5C 53.56,125.043 53.8933,125.376 54.5,125.5C 72.812,118.177 90.4787,109.511 107.5,99.5C 110.672,101.332 112.672,103.999 113.5,107.5 Z"/></g>
<g><path style="opacity:1" fill="#7e4f71" d="M 68.5,275.5 C 115.177,277.615 148.344,257.615 168,215.5C 177.616,189.275 176.449,163.608 164.5,138.5C 167.247,138.813 169.914,138.48 172.5,137.5C 176.882,125.214 179.549,112.547 180.5,99.5C 187.857,100.805 195.191,102.305 202.5,104C 208.221,113.698 211.721,124.198 213,135.5C 218.383,170.925 211.383,203.592 192,233.5C 170.711,260.233 142.878,275.066 108.5,278C 99.1667,278.667 89.8333,278.667 80.5,278C 76.2335,277.811 72.2335,276.977 68.5,275.5 Z"/></g>
<g><path style="opacity:1" fill="#7c4e70" d="M 220.5,216.5 C 219.71,215.391 219.21,214.058 219,212.5C 214.981,221.857 212.148,231.524 210.5,241.5C 212.756,258.991 222.756,266.324 240.5,263.5C 218.079,269.364 196.745,266.53 176.5,255C 200.241,232.682 213.741,205.182 217,172.5C 218.556,154.592 217.223,136.925 213,119.5C 211.411,114.398 209.245,109.565 206.5,105C 210.942,103.622 214.442,104.788 217,108.5C 220.863,116.09 223.53,124.09 225,132.5C 227.945,156.427 226.612,180.094 221,203.5C 220.501,207.821 220.334,212.154 220.5,216.5 Z"/></g>
<g><path style="opacity:1" fill="#008945" d="M 176.5,107.5 C 175.644,115.596 174.144,123.596 172,131.5C 171.735,133.651 170.735,135.318 169,136.5C 150.981,132.348 134.815,124.681 120.5,113.5C 134.874,119.042 149.54,119.875 164.5,116C 168.809,113.368 172.809,110.535 176.5,107.5 Z"/></g>
<g><path style="opacity:1" fill="#7c4e70" d="M 116.5,115.5 C 99.3582,121.992 82.0248,127.659 64.5,132.5C 64.8567,130.411 65.5233,128.411 66.5,126.5C 80.8348,120.916 95.0014,114.916 109,108.5C 111.396,111.067 113.896,113.4 116.5,115.5 Z"/></g>
<g><path style="opacity:1" fill="#905d81" d="M 116.5,115.5 C 130.764,126.599 146.764,134.265 164.5,138.5C 176.449,163.608 177.616,189.275 168,215.5C 148.344,257.615 115.177,277.615 68.5,275.5C 59.4259,273.866 51.4259,270.033 44.5,264C 75.4806,249.223 83.6472,226.39 69,195.5C 60.8552,174.99 59.3552,153.99 64.5,132.5C 82.0248,127.659 99.3582,121.992 116.5,115.5 Z"/></g>
<g><path style="opacity:1" fill="#8f5c80" d="M 220.5,216.5 C 221.429,230.196 227.429,241.029 238.5,249C 243.906,252.732 249.573,256.065 255.5,259C 250.63,260.967 245.63,262.467 240.5,263.5C 222.756,266.324 212.756,258.991 210.5,241.5C 212.148,231.524 214.981,221.857 219,212.5C 219.21,214.058 219.71,215.391 220.5,216.5 Z"/></g>
<g><path style="opacity:1" fill="#8b4d55" d="M 184.5,263.5 C 181.302,262.066 177.968,261.566 174.5,262C 170.284,265.056 165.951,267.889 161.5,270.5C 161.995,268.518 162.495,266.518 163,264.5C 166.677,262.151 170.344,259.818 174,257.5C 177.628,259.394 181.128,261.394 184.5,263.5 Z"/></g>
<g><path style="opacity:1" fill="#623d45" d="M 186.5,263.5 C 187.289,263.783 187.956,264.283 188.5,265C 183.177,265.499 177.844,265.666 172.5,265.5C 177.167,264.833 181.833,264.167 186.5,263.5 Z"/></g>
<g><path style="opacity:1" fill="#b0646c" d="M 184.5,263.5 C 185.167,263.5 185.833,263.5 186.5,263.5C 181.833,264.167 177.167,264.833 172.5,265.5C 179.094,267.742 185.928,268.075 193,266.5C 195.9,266.9 198.733,267.566 201.5,268.5C 197.121,276.049 191.788,282.883 185.5,289C 181.275,289.635 177.942,288.135 175.5,284.5C 176.665,283.416 177.998,282.583 179.5,282C 178.667,281.833 177.833,281.667 177,281.5C 171.169,283.571 165.169,284.905 159,285.5C 158.167,285.167 157.333,284.833 156.5,284.5C 158.568,279.962 160.235,275.295 161.5,270.5C 165.951,267.889 170.284,265.056 174.5,262C 177.968,261.566 181.302,262.066 184.5,263.5 Z"/></g>
<g><path style="opacity:1" fill="#8a4c54" d="M 157.5,273.5 C 149.086,277.027 140.42,279.86 131.5,282C 130.186,282.985 129.186,284.152 128.5,285.5C 128.649,284.448 128.483,283.448 128,282.5C 127.292,283.381 126.458,284.047 125.5,284.5C 124.726,283.853 123.726,283.52 122.5,283.5C 116.005,284.045 109.672,284.712 103.5,285.5C 100.768,284.033 100.935,283.033 104,282.5C 122.915,280.064 141.081,275.064 158.5,267.5C 158.795,269.735 158.461,271.735 157.5,273.5 Z"/></g>
<g><path style="opacity:1" fill="#b4666e" d="M 157.5,273.5 C 156.812,278.044 155.146,282.211 152.5,286C 144.323,286.823 136.323,286.656 128.5,285.5C 129.186,284.152 130.186,282.985 131.5,282C 140.42,279.86 149.086,277.027 157.5,273.5 Z"/></g>
<g><path style="opacity:1" fill="#ac6169" d="M 125.5,284.5 C 122.866,288.968 119.366,292.635 115,295.5C 110.394,293.061 106.561,289.728 103.5,285.5C 109.672,284.712 116.005,284.045 122.5,283.5C 123.726,283.52 124.726,283.853 125.5,284.5 Z"/></g>
</svg>
