<?xml version="1.0" encoding="UTF-8"?>
<!DOCTYPE svg PUBLIC "-//W3C//DTD SVG 1.1//EN" "http://www.w3.org/Graphics/SVG/1.1/DTD/svg11.dtd">
<svg xmlns="http://www.w3.org/2000/svg" version="1.1" width="300px" height="300px" style="shape-rendering:geometricPrecision; text-rendering:geometricPrecision; image-rendering:optimizeQuality; fill-rule:evenodd; clip-rule:evenodd" xmlns:xlink="http://www.w3.org/1999/xlink">
<g><path style="opacity:1" fill="#161c21" d="M 177.5,173.5 C 178.479,176.625 178.813,179.958 178.5,183.5C 176.996,187.35 174.663,190.683 171.5,193.5C 178.518,194.026 183.018,190.693 185,183.5C 185.667,179.5 185.667,175.5 185,171.5C 180.163,164.653 176.163,157.32 173,149.5C 171.349,140.623 174.849,135.123 183.5,133C 189.84,132.399 196.174,131.733 202.5,131C 207.597,127.567 212.931,124.567 218.5,122C 232.584,119.752 239.584,125.752 239.5,140C 238.096,146.775 237.596,153.609 238,160.5C 240.397,165.627 243.064,170.627 246,175.5C 248.455,183.416 245.955,188.916 238.5,192C 231.897,193.163 225.23,193.83 218.5,194C 205.862,197.175 200.529,205.342 202.5,218.5C 203.348,219.625 204.348,219.625 205.5,218.5C 205.5,219.167 205.833,219.5 206.5,219.5C 205.341,221.377 203.674,221.877 201.5,221C 197.69,211.076 199.69,202.409 207.5,195C 216.813,191.478 226.479,189.812 236.5,190C 242.74,188.014 245.24,183.848 244,177.5C 241.079,172.659 238.412,167.659 236,162.5C 235.522,154.827 235.689,147.16 236.5,139.5C 236.633,127.138 230.633,122.304 218.5,125C 212.707,127.73 207.04,130.73 201.5,134C 195.5,134.333 189.5,134.667 183.5,135C 181.413,135.792 179.579,136.959 178,138.5C 176.445,143.382 176.112,148.382 177,153.5C 180.3,159.48 183.634,165.48 187,171.5C 189.678,182.158 186.512,190.325 177.5,196C 174.653,196.944 172.153,196.444 170,194.5C 169.498,191.176 170.831,188.842 174,187.5C 174.667,186.833 174.667,186.167 174,185.5C 162.435,177.94 153.768,167.94 148,155.5C 146.905,182.222 153.572,206.889 168,229.5C 171.754,235.258 176.254,240.425 181.5,245C 182.833,245.667 184.167,245.667 185.5,245C 188.228,242.608 191.228,240.608 194.5,239C 198.021,238.309 201.355,238.809 204.5,240.5C 205.167,241.833 206.167,242.833 207.5,243.5C 207.5,244.167 207.5,244.833 207.5,245.5C 200.328,239.731 193.662,240.231 187.5,247C 184.833,247.667 182.167,247.667 179.5,247C 170.572,238.965 163.739,229.465 159,218.5C 153.045,204.636 148.711,190.303 146,175.5C 145.5,168.842 145.334,162.175 145.5,155.5C 147.795,138.634 146.295,121.968 141,105.5C 140.586,105.043 140.086,104.709 139.5,104.5C 138.544,105.865 137.878,107.365 137.5,109C 141.867,121.439 143.534,134.273 142.5,147.5C 138.491,174.11 142.491,199.443 154.5,223.5C 159.999,236.501 168.333,247.334 179.5,256C 182.366,257.457 185.366,257.79 188.5,257C 194.783,249.58 200.783,249.746 206.5,257.5C 205.833,257.5 205.5,257.833 205.5,258.5C 203.072,256.751 200.406,255.418 197.5,254.5C 194.128,255.701 191.128,257.534 188.5,260C 187.207,260.49 185.873,260.657 184.5,260.5C 176.608,257.953 170.108,253.286 165,246.5C 145.84,219.182 137.34,188.848 139.5,155.5C 140.658,145.675 140.825,135.675 140,125.5C 139.616,121.347 138.616,117.347 137,113.5C 136.31,112.262 135.81,112.262 135.5,113.5C 134.662,113.158 134.328,112.492 134.5,111.5C 136.712,107.12 138.045,102.454 138.5,97.5C 138.257,93.8491 136.59,91.0157 133.5,89C 102.214,84.4282 75.7144,93.5949 54,116.5C 52.295,118.577 51.1283,120.91 50.5,123.5C 49.5269,125.948 49.1936,128.615 49.5,131.5C 48.8826,131.389 48.3826,131.056 48,130.5C 47.6667,127.167 47.3333,123.833 47,120.5C 42.7485,113.995 40.9151,106.828 41.5,99C 41.4975,88.6749 44.4975,79.3415 50.5,71C 38.4279,53.5823 41.0946,38.5823 58.5,26C 71.5971,20.189 84.7637,20.0223 98,25.5C 106.48,6.00644 121.313,-1.8269 142.5,2C 154.315,4.74052 165.315,9.40718 175.5,16C 188.843,22.3346 202.843,24.6679 217.5,23C 221.102,24.2734 222.268,26.7734 221,30.5C 217.934,36.9003 213.434,42.067 207.5,46C 191.709,56.2422 174.709,63.0756 156.5,66.5C 163.565,76.4295 166.065,87.4295 164,99.5C 160.453,110.805 156.12,121.805 151,132.5C 147.434,144.61 149.434,155.61 157,165.5C 162.761,172.099 169.261,177.766 176.5,182.5C 177.484,179.572 177.817,176.572 177.5,173.5 Z"/></g>
<g><path style="opacity:1" fill="#01ace2" d="M 172.5,17.5 C 180.579,29.9981 180.246,42.3314 171.5,54.5C 169.806,56.8606 167.806,58.8606 165.5,60.5C 160.86,61.3973 156.194,61.5639 151.5,61C 148.167,58.3333 144.833,55.6667 141.5,53C 140.668,52.3123 140.002,52.479 139.5,53.5C 150.158,61.4678 157.158,71.8012 160.5,84.5C 159.956,88.7462 157.956,92.2462 154.5,95C 151.991,96.4213 149.657,98.0879 147.5,100C 145.655,101.128 143.655,101.628 141.5,101.5C 141.901,93.9597 138.568,88.9597 131.5,86.5C 131.167,85.6667 130.833,84.8333 130.5,84C 134.926,72.2891 132.259,62.6224 122.5,55C 111,52.5035 103.834,57.0035 101,68.5C 100.231,74.9433 100.731,81.2767 102.5,87.5C 88.1424,89.6851 75.309,95.3518 64,104.5C 64.2289,97.1782 61.7289,91.0116 56.5,86C 50.2118,85.2657 46.3785,88.099 45,94.5C 45.6639,86.5139 48.3306,79.1806 53,72.5C 58.7605,65.9008 65.2605,60.2342 72.5,55.5C 71.635,54.4173 70.635,54.2506 69.5,55C 63.4154,59.1611 57.7487,63.4945 52.5,68C 43.0211,53.681 45.0211,41.0144 58.5,30C 61.5544,27.8061 64.8878,26.1395 68.5,25C 75.8825,24.2365 83.2158,24.4032 90.5,25.5C 95.4489,30.9421 96.7822,37.2754 94.5,44.5C 90.4246,44.9519 86.7579,46.4519 83.5,49C 87.9697,48.8492 92.3031,47.8492 96.5,46C 101.614,45.8909 106.614,45.2242 111.5,44C 108.774,43.8184 106.107,43.3184 103.5,42.5C 98.8883,25.2222 104.888,13.0556 121.5,6C 134.252,3.24141 146.586,4.57474 158.5,10C 163.035,12.767 167.701,15.267 172.5,17.5 Z"/></g>
<g><path style="opacity:1" fill="#fbfcfc" d="M 172.5,17.5 C 186.813,24.3354 201.98,27.3354 218,26.5C 218.635,28.6354 218.301,30.6354 217,32.5C 209.104,41.5246 199.604,48.1912 188.5,52.5C 182.833,53.1667 177.167,53.8333 171.5,54.5C 180.246,42.3314 180.579,29.9981 172.5,17.5 Z"/></g>
<g><path style="opacity:1" fill="#d2d5d6" d="M 90.5,25.5 C 92.9279,26.2122 95.2612,27.2122 97.5,28.5C 98.2927,33.5063 99.626,38.3397 101.5,43C 99.1341,43.4396 96.8008,43.9396 94.5,44.5C 96.7822,37.2754 95.4489,30.9421 90.5,25.5 Z"/></g>
<g><path style="opacity:1" fill="#c0c1c1" d="M 188.5,52.5 C 181.412,56.5309 173.746,59.1976 165.5,60.5C 167.806,58.8606 169.806,56.8606 171.5,54.5C 177.167,53.8333 182.833,53.1667 188.5,52.5 Z"/></g>
<g><path style="opacity:1" fill="#f1d73d" d="M 112.5,55.5 C 120.154,54.243 125.321,57.243 128,64.5C 130.134,71.431 129.967,78.2643 127.5,85C 125.866,85.4935 124.199,85.6602 122.5,85.5C 125.328,78.7695 125.161,72.1028 122,65.5C 115.969,60.6837 111.636,62.017 109,69.5C 108.281,74.2007 108.447,78.8673 109.5,83.5C 108.638,85.767 106.971,86.767 104.5,86.5C 101.434,77.4951 102.267,68.8284 107,60.5C 108.73,58.5981 110.563,56.9314 112.5,55.5 Z"/></g>
<g><path style="opacity:1" fill="#e6e7e8" d="M 114.5,63.5 C 119.151,64.1742 120.651,66.8408 119,71.5C 115.559,74.0385 113.392,73.0385 112.5,68.5C 112.902,66.6998 113.569,65.0332 114.5,63.5 Z"/></g>
<g><path style="opacity:1" fill="#e9d13c" d="M 55.5,93.5 C 51.919,92.5515 50.0857,94.2182 50,98.5C 49.3,104.209 50.1334,109.709 52.5,115C 51.7113,116.626 50.7113,118.126 49.5,119.5C 44.3465,109.643 44.1798,99.6434 49,89.5C 53.4539,86.3304 56.7873,87.3304 59,92.5C 61.5846,97.4613 61.9179,102.461 60,107.5C 59.4412,103.814 58.7745,100.147 58,96.5C 57.6232,95.0577 56.7899,94.0577 55.5,93.5 Z"/></g>
<g><path style="opacity:1" fill="#f3d93d" d="M 134.5,111.5 C 133.263,112.965 132.263,114.632 131.5,116.5C 125.076,122.751 118.409,128.917 111.5,135C 102.143,142.673 91.4762,145.339 79.5,143C 73.7817,141.427 68.115,139.927 62.5,138.5C 54.6898,136.374 50.6898,131.374 50.5,123.5C 51.1283,120.91 52.295,118.577 54,116.5C 75.7144,93.5949 102.214,84.4282 133.5,89C 136.59,91.0157 138.257,93.8491 138.5,97.5C 138.045,102.454 136.712,107.12 134.5,111.5 Z"/></g>
<g><path style="opacity:1" fill="#0093c1" d="M 160.5,84.5 C 161.839,91.4598 161.339,98.4598 159,105.5C 155.585,113.991 151.919,122.325 148,130.5C 147.804,120.348 145.637,110.681 141.5,101.5C 143.655,101.628 145.655,101.128 147.5,100C 149.657,98.0879 151.991,96.4213 154.5,95C 157.956,92.2462 159.956,88.7462 160.5,84.5 Z"/></g>
<g><path style="opacity:1" fill="#e3e3e4" d="M 55.5,93.5 C 56.2653,96.0961 56.5987,98.7628 56.5,101.5C 53.512,101.845 52.1787,100.512 52.5,97.5C 52.1104,95.0182 53.1104,93.6848 55.5,93.5 Z"/></g>
<g><path style="opacity:1" fill="#c8b334" d="M 145.5,155.5 C 145.5,152.833 145.5,150.167 145.5,147.5C 144.5,147.5 143.5,147.5 142.5,147.5C 143.534,134.273 141.867,121.439 137.5,109C 137.878,107.365 138.544,105.865 139.5,104.5C 140.086,104.709 140.586,105.043 141,105.5C 146.295,121.968 147.795,138.634 145.5,155.5 Z"/></g>
<g><path style="opacity:1" fill="#211e1d" d="M 106.5,94.5 C 113.175,94.3337 119.842,94.5004 126.5,95C 129.228,95.5274 130.561,97.194 130.5,100C 126.101,117.441 115.768,130.108 99.5,138C 90.4404,141.301 81.4404,140.968 72.5,137C 54.5246,131.826 52.858,123.493 67.5,112C 79.3507,103.404 92.3507,97.5709 106.5,94.5 Z"/></g>
<g><path style="opacity:1" fill="#c97183" d="M 111.5,127.5 C 108.213,123.512 103.879,121.012 98.5,120C 94.1794,119.501 89.8461,119.334 85.5,119.5C 97.1001,107.291 111.433,101.291 128.5,101.5C 125.227,111.765 119.56,120.432 111.5,127.5 Z"/></g>
<g><path style="opacity:1" fill="#8d2e00" d="M 106.5,96.5 C 113.508,96.3337 120.508,96.5004 127.5,97C 127.957,97.414 128.291,97.914 128.5,98.5C 109.248,98.7125 93.4147,106.046 81,120.5C 78.3861,125.507 76.8861,130.841 76.5,136.5C 69.9779,134.723 64.1446,131.723 59,127.5C 58.2619,124.788 58.9286,122.455 61,120.5C 69.6031,112.444 79.4365,106.278 90.5,102C 95.9952,100.225 101.329,98.3918 106.5,96.5 Z"/></g>
<g><path style="opacity:1" fill="#ea8397" d="M 85.5,119.5 C 89.8461,119.334 94.1794,119.501 98.5,120C 103.879,121.012 108.213,123.512 111.5,127.5C 102.622,136.236 91.9549,139.569 79.5,137.5C 78.6665,130.512 80.6665,124.512 85.5,119.5 Z"/></g>
<g><path style="opacity:1" fill="#cfb935" d="M 131.5,116.5 C 123.337,129.834 112.004,139.334 97.5,145C 84.8987,147.111 73.232,144.945 62.5,138.5C 68.115,139.927 73.7817,141.427 79.5,143C 91.4762,145.339 102.143,142.673 111.5,135C 118.409,128.917 125.076,122.751 131.5,116.5 Z"/></g>
<g><path style="opacity:1" fill="#14191b" d="M 134.5,111.5 C 134.328,112.492 134.662,113.158 135.5,113.5C 126.621,130.216 113.287,141.716 95.5,148C 90.757,148.543 86.0903,148.543 81.5,148C 84.7541,151.043 87.0875,154.543 88.5,158.5C 88.8933,164.678 88.0599,170.678 86,176.5C 81.9199,184.329 77.5865,191.996 73,199.5C 68.5031,207.491 64.8365,215.825 62,224.5C 61.1883,232.222 61.5217,239.889 63,247.5C 65.6805,254.495 68.0138,261.495 70,268.5C 67.1483,264.796 64.815,260.796 63,256.5C 61.5441,259.032 60.3774,261.699 59.5,264.5C 49.699,280.396 54.0324,286.896 72.5,284C 87.053,281.559 101.72,280.892 116.5,282C 133.105,285.717 149.605,289.884 166,294.5C 167.888,294.204 169.722,293.704 171.5,293C 175.5,287.667 180.167,283 185.5,279C 193.211,278.078 200.877,277.078 208.5,276C 210.706,272.587 212.373,268.92 213.5,265C 211.043,262.601 208.377,260.434 205.5,258.5C 205.5,257.833 205.833,257.5 206.5,257.5C 209.365,259.793 212.698,261.126 216.5,261.5C 219.301,261.365 221.301,260.032 222.5,257.5C 223.397,252.563 221.897,248.563 218,245.5C 215.833,247 216,248.167 218.5,249C 213.916,250.337 210.249,249.171 207.5,245.5C 207.5,244.833 207.5,244.167 207.5,243.5C 209.21,245.2 211.21,246.533 213.5,247.5C 216.885,237.523 215.551,228.19 209.5,219.5C 208.538,215.542 207.538,215.542 206.5,219.5C 205.833,219.5 205.5,219.167 205.5,218.5C 206.371,210.92 209.704,204.754 215.5,200C 223.731,198.727 232.064,198.06 240.5,198C 242.852,197.76 244.852,196.927 246.5,195.5C 254.118,190.812 256.284,184.146 253,175.5C 249.784,169.736 247.117,163.736 245,157.5C 245.991,148.214 246.324,138.88 246,129.5C 240.436,117.134 230.936,112.3 217.5,115C 211.372,117.563 205.705,120.897 200.5,125C 192.639,126.992 184.639,127.992 176.5,128C 166.975,132.225 163.808,139.392 167,149.5C 170.5,157.66 174.833,165.326 180,172.5C 180.879,176.477 180.379,180.144 178.5,183.5C 178.813,179.958 178.479,176.625 177.5,173.5C 174.618,168.758 171.451,164.092 168,159.5C 163.28,151.643 161.947,143.31 164,134.5C 166.327,129.577 170.16,126.41 175.5,125C 183.188,124.57 190.854,123.903 198.5,123C 203.497,119.166 208.83,115.833 214.5,113C 229.238,108.129 240.404,112.296 248,125.5C 249.028,128.91 249.528,132.41 249.5,136C 248.5,143.489 248,150.989 248,158.5C 250.743,164.985 253.743,171.319 257,177.5C 259.66,190.021 254.827,197.854 242.5,201C 234.5,201.333 226.5,201.667 218.5,202C 214.447,204.387 211.447,207.72 209.5,212C 215.468,221.241 218.635,231.408 219,242.5C 226.435,248.751 227.268,255.585 221.5,263C 219.866,263.494 218.199,263.66 216.5,263.5C 215.972,269.254 213.972,274.42 210.5,279C 208.232,280.552 205.732,281.385 203,281.5C 190.626,277.689 181.959,281.689 177,293.5C 175.786,295.049 174.286,296.215 172.5,297C 168.167,297.667 163.833,297.667 159.5,297C 143.999,290.833 127.999,286.5 111.5,284C 105.5,283.333 99.5,283.333 93.5,284C 84.0411,285.559 74.5411,286.726 65,287.5C 61.0497,287.593 57.2164,287.093 53.5,286C 50.8059,283.347 49.9726,280.18 51,276.5C 53.208,268.917 56.3746,261.75 60.5,255C 48.9769,239.221 49.1436,223.721 61,208.5C 69.6462,199.213 76.8128,188.88 82.5,177.5C 79.6667,171.833 76.8333,166.167 74,160.5C 73.0044,155.771 73.5044,151.271 75.5,147C 68.5964,144.549 61.9297,141.549 55.5,138C 52.5914,136.594 50.5914,134.428 49.5,131.5C 49.1936,128.615 49.5269,125.948 50.5,123.5C 50.6898,131.374 54.6898,136.374 62.5,138.5C 73.232,144.945 84.8987,147.111 97.5,145C 112.004,139.334 123.337,129.834 131.5,116.5C 132.263,114.632 133.263,112.965 134.5,111.5 Z"/></g>
<g><path style="opacity:1" fill="#f3d93d" d="M 142.5,147.5 C 143.5,147.5 144.5,147.5 145.5,147.5C 145.5,150.167 145.5,152.833 145.5,155.5C 145.334,162.175 145.5,168.842 146,175.5C 148.711,190.303 153.045,204.636 159,218.5C 163.739,229.465 170.572,238.965 179.5,247C 182.167,247.667 184.833,247.667 187.5,247C 193.662,240.231 200.328,239.731 207.5,245.5C 210.249,249.171 213.916,250.337 218.5,249C 216,248.167 215.833,247 218,245.5C 221.897,248.563 223.397,252.563 222.5,257.5C 219.201,258.376 215.868,258.543 212.5,258C 209.354,255.688 206.354,253.188 203.5,250.5C 200.375,248.649 197.042,248.149 193.5,249C 190.612,253.447 186.612,255.114 181.5,254C 170.845,246.175 162.512,236.342 156.5,224.5C 156.043,223.702 155.376,223.369 154.5,223.5C 142.491,199.443 138.491,174.11 142.5,147.5 Z"/></g>
<g><path style="opacity:1" fill="#00ace3" d="M 206.5,219.5 C 207.538,215.542 208.538,215.542 209.5,219.5C 211.972,227.582 210.305,234.582 204.5,240.5C 201.355,238.809 198.021,238.309 194.5,239C 191.228,240.608 188.228,242.608 185.5,245C 184.167,245.667 182.833,245.667 181.5,245C 176.254,240.425 171.754,235.258 168,229.5C 153.572,206.889 146.905,182.222 148,155.5C 153.768,167.94 162.435,177.94 174,185.5C 174.667,186.167 174.667,186.833 174,187.5C 170.831,188.842 169.498,191.176 170,194.5C 172.153,196.444 174.653,196.944 177.5,196C 186.512,190.325 189.678,182.158 187,171.5C 183.634,165.48 180.3,159.48 177,153.5C 176.112,148.382 176.445,143.382 178,138.5C 179.579,136.959 181.413,135.792 183.5,135C 189.5,134.667 195.5,134.333 201.5,134C 207.04,130.73 212.707,127.73 218.5,125C 230.633,122.304 236.633,127.138 236.5,139.5C 235.689,147.16 235.522,154.827 236,162.5C 238.412,167.659 241.079,172.659 244,177.5C 245.24,183.848 242.74,188.014 236.5,190C 226.479,189.812 216.813,191.478 207.5,195C 199.69,202.409 197.69,211.076 201.5,221C 203.674,221.877 205.341,221.377 206.5,219.5 Z"/></g>
<g><path style="opacity:1" fill="#f3d93d" d="M 246.5,195.5 C 236.257,197.099 225.923,197.932 215.5,198C 212.705,199.793 210.205,201.96 208,204.5C 205.853,209.18 204.02,213.847 202.5,218.5C 200.529,205.342 205.862,197.175 218.5,194C 225.23,193.83 231.897,193.163 238.5,192C 245.955,188.916 248.455,183.416 246,175.5C 243.064,170.627 240.397,165.627 238,160.5C 237.596,153.609 238.096,146.775 239.5,140C 239.584,125.752 232.584,119.752 218.5,122C 212.931,124.567 207.597,127.567 202.5,131C 196.174,131.733 189.84,132.399 183.5,133C 174.849,135.123 171.349,140.623 173,149.5C 176.163,157.32 180.163,164.653 185,171.5C 185.667,175.5 185.667,179.5 185,183.5C 183.018,190.693 178.518,194.026 171.5,193.5C 174.663,190.683 176.996,187.35 178.5,183.5C 180.379,180.144 180.879,176.477 180,172.5C 174.833,165.326 170.5,157.66 167,149.5C 163.808,139.392 166.975,132.225 176.5,128C 184.639,127.992 192.639,126.992 200.5,125C 205.705,120.897 211.372,117.563 217.5,115C 230.936,112.3 240.436,117.134 246,129.5C 246.324,138.88 245.991,148.214 245,157.5C 247.117,163.736 249.784,169.736 253,175.5C 256.284,184.146 254.118,190.812 246.5,195.5 Z"/></g>
<g><path style="opacity:1" fill="#76a649" d="M 139.5,155.5 C 139.664,152.813 139.497,150.146 139,147.5C 124.032,161.964 107.199,165.631 88.5,158.5C 87.0875,154.543 84.7541,151.043 81.5,148C 86.0903,148.543 90.757,148.543 95.5,148C 113.287,141.716 126.621,130.216 135.5,113.5C 135.81,112.262 136.31,112.262 137,113.5C 138.616,117.347 139.616,121.347 140,125.5C 140.825,135.675 140.658,145.675 139.5,155.5 Z"/></g>
<g><path style="opacity:1" fill="#8bc355" d="M 139.5,155.5 C 137.34,188.848 145.84,219.182 165,246.5C 170.108,253.286 176.608,257.953 184.5,260.5C 171.562,269.418 157.229,272.918 141.5,271C 133.908,268.136 126.242,265.469 118.5,263C 109.454,262.193 100.454,262.526 91.5,264C 82.9849,266.338 74.6516,269.172 66.5,272.5C 61.394,272.299 59.0607,269.632 59.5,264.5C 60.3774,261.699 61.5441,259.032 63,256.5C 64.815,260.796 67.1483,264.796 70,268.5C 68.0138,261.495 65.6805,254.495 63,247.5C 61.5217,239.889 61.1883,232.222 62,224.5C 64.8365,215.825 68.5031,207.491 73,199.5C 77.5865,191.996 81.9199,184.329 86,176.5C 88.0599,170.678 88.8933,164.678 88.5,158.5C 107.199,165.631 124.032,161.964 139,147.5C 139.497,150.146 139.664,152.813 139.5,155.5 Z"/></g>
<g><path style="opacity:1" fill="#dac338" d="M 77.5,148.5 C 79.9345,149.099 81.6012,150.599 82.5,153C 81.5071,155.453 81.3405,157.953 82,160.5C 85.5015,164.833 86.1682,169.5 84,174.5C 82.5272,170.221 80.5272,166.221 78,162.5C 76.3834,157.824 76.2167,153.157 77.5,148.5 Z"/></g>
<g><path style="opacity:1" fill="#03799f" d="M 83.5,154.5 C 85.5725,157.456 86.4058,160.79 86,164.5C 83.8358,161.553 83.0025,158.219 83.5,154.5 Z"/></g>
<g><path style="opacity:1" fill="#ceb835" d="M 246.5,195.5 C 244.852,196.927 242.852,197.76 240.5,198C 232.064,198.06 223.731,198.727 215.5,200C 209.704,204.754 206.371,210.92 205.5,218.5C 204.348,219.625 203.348,219.625 202.5,218.5C 204.02,213.847 205.853,209.18 208,204.5C 210.205,201.96 212.705,199.793 215.5,198C 225.923,197.932 236.257,197.099 246.5,195.5 Z"/></g>
<g><path style="opacity:1" fill="#dec639" d="M 64.5,208.5 C 65.0431,208.56 65.3764,208.893 65.5,209.5C 58.9186,221.064 56.7519,233.397 59,246.5C 55.9128,239.458 54.9128,232.125 56,224.5C 58.5765,219.013 61.4099,213.679 64.5,208.5 Z"/></g>
<g><path style="opacity:1" fill="#0092bf" d="M 209.5,219.5 C 215.551,228.19 216.885,237.523 213.5,247.5C 211.21,246.533 209.21,245.2 207.5,243.5C 206.167,242.833 205.167,241.833 204.5,240.5C 210.305,234.582 211.972,227.582 209.5,219.5 Z"/></g>
<g><path style="opacity:1" fill="#d0ba35" d="M 154.5,223.5 C 155.376,223.369 156.043,223.702 156.5,224.5C 162.512,236.342 170.845,246.175 181.5,254C 186.612,255.114 190.612,253.447 193.5,249C 197.042,248.149 200.375,248.649 203.5,250.5C 206.354,253.188 209.354,255.688 212.5,258C 215.868,258.543 219.201,258.376 222.5,257.5C 221.301,260.032 219.301,261.365 216.5,261.5C 212.698,261.126 209.365,259.793 206.5,257.5C 200.783,249.746 194.783,249.58 188.5,257C 185.366,257.79 182.366,257.457 179.5,256C 168.333,247.334 159.999,236.501 154.5,223.5 Z"/></g>
<g><path style="opacity:1" fill="#77a849" d="M 205.5,258.5 C 208.377,260.434 211.043,262.601 213.5,265C 212.373,268.92 210.706,272.587 208.5,276C 200.877,277.078 193.211,278.078 185.5,279C 180.167,283 175.5,287.667 171.5,293C 169.722,293.704 167.888,294.204 166,294.5C 149.605,289.884 133.105,285.717 116.5,282C 101.72,280.892 87.053,281.559 72.5,284C 54.0324,286.896 49.699,280.396 59.5,264.5C 59.0607,269.632 61.394,272.299 66.5,272.5C 74.6516,269.172 82.9849,266.338 91.5,264C 100.454,262.526 109.454,262.193 118.5,263C 126.242,265.469 133.908,268.136 141.5,271C 157.229,272.918 171.562,269.418 184.5,260.5C 185.873,260.657 187.207,260.49 188.5,260C 191.128,257.534 194.128,255.701 197.5,254.5C 200.406,255.418 203.072,256.751 205.5,258.5 Z"/></g>
</svg>
