<?xml version="1.0" encoding="UTF-8"?>
<!DOCTYPE svg PUBLIC "-//W3C//DTD SVG 1.1//EN" "http://www.w3.org/Graphics/SVG/1.1/DTD/svg11.dtd">
<svg xmlns="http://www.w3.org/2000/svg" version="1.1" width="300px" height="300px" style="shape-rendering:geometricPrecision; text-rendering:geometricPrecision; image-rendering:optimizeQuality; fill-rule:evenodd; clip-rule:evenodd" xmlns:xlink="http://www.w3.org/1999/xlink">
<g><path style="opacity:1" fill="#009862" d="M 170.5,41.5 C 165.017,44.2777 159.35,46.7777 153.5,49C 144.414,49.6274 135.414,49.1274 126.5,47.5C 126.277,52.2804 127.944,56.2804 131.5,59.5C 136.858,64.2591 143.025,65.5924 150,63.5C 149.782,68.5909 148.782,73.5909 147,78.5C 143.667,85.1667 140.333,91.8333 137,98.5C 130.387,111.116 132.887,121.45 144.5,129.5C 142.611,130.742 140.611,130.742 138.5,129.5C 137.172,125.746 134.506,124.579 130.5,126C 126.217,129.065 123.884,133.232 123.5,138.5C 125.167,138.5 126.833,138.5 128.5,138.5C 140.713,145.21 150.546,154.543 158,166.5C 161.348,172.532 164.681,178.532 168,184.5C 172.2,176.249 174.533,167.583 175,158.5C 172.776,156.946 170.276,155.946 167.5,155.5C 167.167,154.167 166.833,152.833 166.5,151.5C 167.824,145.892 168.824,140.225 169.5,134.5C 178.98,135.239 187.313,138.739 194.5,145C 205.435,155.768 213.768,168.268 219.5,182.5C 220.472,183.399 221.138,184.566 221.5,186C 220.457,189.632 219.124,193.132 217.5,196.5C 193.118,200.382 169.118,198.882 145.5,192C 135.09,191.519 124.757,190.519 114.5,189C 111.567,186.736 109.4,183.902 108,180.5C 106.504,174.505 105.17,168.505 104,162.5C 102.457,160.622 100.624,159.122 98.5,158C 94.5314,157.147 90.5314,156.481 86.5,156C 85.0292,153.757 84.0292,151.257 83.5,148.5C 78.4152,152.893 77.2485,158.227 80,164.5C 83.1115,166.771 86.6115,167.938 90.5,168C 93.9355,171.757 95.4355,176.257 95,181.5C 97.3326,191.165 103.166,197.665 112.5,201C 123.762,202.267 135.095,202.934 146.5,203C 157.085,205.646 167.751,207.979 178.5,210C 188.828,210.5 199.161,210.666 209.5,210.5C 204.024,218.252 196.691,223.585 187.5,226.5C 181.755,226.211 176.088,226.711 170.5,228C 159.526,233.677 148.192,237.843 136.5,240.5C 135.508,240.672 134.842,240.338 134.5,239.5C 128.417,233.929 122.084,227.762 115.5,221C 112.618,219.392 109.618,218.059 106.5,217C 99.9822,216.396 93.6488,215.063 87.5,213C 83.8333,207.333 80.1667,201.667 76.5,196C 60.264,199.431 53.4306,192.931 56,176.5C 57.8344,171.338 60.5011,166.672 64,162.5C 73.6007,150.897 83.934,139.897 95,129.5C 104.666,117.523 110.666,103.857 113,88.5C 113.093,74.787 113.76,61.1203 115,47.5C 116.256,43.9837 118.256,40.9837 121,38.5C 121.333,40.1667 121.667,41.8333 122,43.5C 124.144,29.0197 132.311,19.853 146.5,16C 156.96,14.9449 167.293,15.6115 177.5,18C 186.167,18.3333 194.833,18.6667 203.5,19C 196.333,22.2829 189.333,25.9496 182.5,30C 177.971,33.3635 173.971,37.1969 170.5,41.5 Z"/></g>
<g><path style="opacity:1" fill="#fadf3e" d="M 171.5,169.5 C 170.399,170.8 169.066,171.3 167.5,171C 162.167,164.333 156.833,157.667 151.5,151C 147.295,147.071 142.628,143.904 137.5,141.5C 134.743,139.914 131.743,138.914 128.5,138.5C 127.282,137.839 125.949,137.172 124.5,136.5C 126.131,133.404 128.131,130.57 130.5,128C 133.498,127.109 136.164,127.609 138.5,129.5C 139.072,132.244 140.738,133.077 143.5,132C 146.167,130 148.833,128 151.5,126C 161.906,120.277 167.239,123.277 167.5,135C 166.952,140.909 165.952,146.742 164.5,152.5C 164.39,154.374 165.056,155.874 166.5,157C 173.131,157.487 175.297,160.987 173,167.5C 172.722,168.416 172.222,169.082 171.5,169.5 Z"/></g>
<g><path style="opacity:1" fill="#121b1d" d="M 138.5,129.5 C 136.164,127.609 133.498,127.109 130.5,128C 128.131,130.57 126.131,133.404 124.5,136.5C 125.949,137.172 127.282,137.839 128.5,138.5C 126.833,138.5 125.167,138.5 123.5,138.5C 123.884,133.232 126.217,129.065 130.5,126C 134.506,124.579 137.172,125.746 138.5,129.5 Z"/></g>
<g><path style="opacity:1" fill="#01ade1" d="M 115.5,144.5 C 125.496,145.81 129.662,151.477 128,161.5C 122.862,165.759 118.195,165.093 114,159.5C 111.844,155.738 111.177,151.738 112,147.5C 113.145,146.364 114.312,145.364 115.5,144.5 Z"/></g>
<g><path style="opacity:1" fill="#131b1d" d="M 144.5,127.5 C 144.5,128.167 144.5,128.833 144.5,129.5C 132.887,121.45 130.387,111.116 137,98.5C 140.333,91.8333 143.667,85.1667 147,78.5C 148.782,73.5909 149.782,68.5909 150,63.5C 143.025,65.5924 136.858,64.2591 131.5,59.5C 143.068,64.9223 153.234,62.9223 162,53.5C 165.089,49.6464 167.922,45.6464 170.5,41.5C 173.971,37.1969 177.971,33.3635 182.5,30C 189.333,25.9496 196.333,22.2829 203.5,19C 194.833,18.6667 186.167,18.3333 177.5,18C 167.293,15.6115 156.96,14.9449 146.5,16C 132.311,19.853 124.144,29.0197 122,43.5C 121.667,41.8333 121.333,40.1667 121,38.5C 118.256,40.9837 116.256,43.9837 115,47.5C 113.76,61.1203 113.093,74.787 113,88.5C 110.666,103.857 104.666,117.523 95,129.5C 83.934,139.897 73.6007,150.897 64,162.5C 60.5011,166.672 57.8344,171.338 56,176.5C 53.4306,192.931 60.264,199.431 76.5,196C 80.1667,201.667 83.8333,207.333 87.5,213C 93.6488,215.063 99.9822,216.396 106.5,217C 109.618,218.059 112.618,219.392 115.5,221C 122.084,227.762 128.417,233.929 134.5,239.5C 132.407,238.955 130.407,238.122 128.5,237C 123.483,231.914 118.483,226.914 113.5,222C 104.893,219.505 96.2265,217.172 87.5,215C 83.2658,211.361 80.4324,206.861 79,201.5C 77.8333,200.333 76.6667,199.167 75.5,198C 69.7222,197.906 64.0555,197.239 58.5,196C 55.125,191.409 53.2916,186.243 53,180.5C 49.9104,186.74 49.7437,193.073 52.5,199.5C 53.8333,201.167 55.1667,202.833 56.5,204.5C 55.5,204.5 54.5,204.5 53.5,204.5C 53.7373,205.791 53.404,206.791 52.5,207.5C 50.3652,202.253 48.6985,196.753 47.5,191C 47.9506,187.08 48.7839,183.247 50,179.5C 56.2127,168.419 63.8794,158.419 73,149.5C 82.7863,134.249 85.453,117.915 81,100.5C 76.7256,93.228 72.0589,86.228 67,79.5C 61.1923,70.268 59.1923,60.268 61,49.5C 62.1811,45.6371 64.0144,42.1371 66.5,39C 63.0694,23.8624 68.7361,13.8624 83.5,9C 93.7749,7.767 104.108,7.10033 114.5,7C 120.022,5.937 125.356,4.27033 130.5,2C 133.482,1.50204 136.482,1.33537 139.5,1.5C 139.657,2.87344 139.49,4.20677 139,5.5C 132.076,8.92338 126.576,13.9234 122.5,20.5C 124.392,21.4734 126.392,22.1401 128.5,22.5C 143.585,11.9267 159.918,9.76008 177.5,16C 186.174,16.1768 194.84,16.1768 203.5,16C 206.841,17.5281 206.841,19.5281 203.5,22C 187.442,27.0615 175.276,36.8948 167,51.5C 163.278,55.725 159.112,59.3916 154.5,62.5C 152.211,74.4099 147.711,85.4099 141,95.5C 138.469,100.594 136.635,105.928 135.5,111.5C 136.805,117.801 139.805,123.134 144.5,127.5 Z"/></g>
<g><path style="opacity:1" fill="#f2d83d" d="M 99.5,58.5 C 102.868,64.6366 106.701,64.9699 111,59.5C 115.812,89.0576 107.812,114.391 87,135.5C 90.2525,129.681 93.5859,123.681 97,117.5C 102.242,103.967 103.908,89.967 102,75.5C 100.581,69.9099 99.7482,64.2433 99.5,58.5 Z"/></g>
<g><path style="opacity:1" fill="#00aadf" d="M 76.5,60.5 C 84.1245,59.4487 91.1245,60.9487 97.5,65C 105.483,92.7391 99.9833,117.572 81,139.5C 82.2944,134.259 83.6277,128.926 85,123.5C 86.9083,110.138 84.2416,97.8046 77,86.5C 74.3778,79.3561 73.0444,72.0228 73,64.5C 74.3756,63.2949 75.5423,61.9616 76.5,60.5 Z"/></g>
<g><path style="opacity:1" fill="#ebd13c" d="M 62.5,59.5 C 65.0069,63.4192 67.5069,63.4192 70,59.5C 70.9207,68.7618 72.5874,77.7618 75,86.5C 68.1377,78.7739 63.9711,69.7739 62.5,59.5 Z"/></g>
<g><path style="opacity:1" fill="#f2f3f3" d="M 65.5,50.5 C 66.5,50.5 67.5,50.5 68.5,50.5C 68.6621,52.5273 68.4955,54.5273 68,56.5C 66.9887,57.3366 65.8221,57.67 64.5,57.5C 64.298,55.0504 64.6314,52.717 65.5,50.5 Z"/></g>
<g><path style="opacity:1" fill="#eff0f0" d="M 103.5,49.5 C 108.213,49.4676 109.713,51.8009 108,56.5C 104.775,59.313 102.942,58.4796 102.5,54C 102.773,52.4672 103.106,50.9672 103.5,49.5 Z"/></g>
<g><path style="opacity:1" fill="#008555" d="M 170.5,41.5 C 167.922,45.6464 165.089,49.6464 162,53.5C 153.234,62.9223 143.068,64.9223 131.5,59.5C 127.944,56.2804 126.277,52.2804 126.5,47.5C 135.414,49.1274 144.414,49.6274 153.5,49C 159.35,46.7777 165.017,44.2777 170.5,41.5 Z"/></g>
<g><path style="opacity:1" fill="#e9d13b" d="M 81.5,30.5 C 80.2058,31.2899 79.0391,32.2899 78,33.5C 75.3769,38.4104 73.0435,43.4104 71,48.5C 70.0239,46.1128 68.1906,44.9461 65.5,45C 69.3101,38.6897 74.3101,33.5231 80.5,29.5C 81.1067,29.6236 81.44,29.9569 81.5,30.5 Z"/></g>
<g><path style="opacity:1" fill="#f2d83d" d="M 119.5,27.5 C 121.527,27.3379 123.527,27.5045 125.5,28C 120.963,35.0386 116.629,42.2053 112.5,49.5C 110.226,44.2044 106.726,43.2044 102,46.5C 104.83,37.4998 110.663,31.1664 119.5,27.5 Z"/></g>
<g><path style="opacity:1" fill="#00945f" d="M 81.5,30.5 C 86.4725,26.5596 92.1392,24.0596 98.5,23C 105.5,22.3333 112.5,22.3333 119.5,23C 122.451,23.096 125.118,23.9293 127.5,25.5C 112.453,26.7005 102.953,34.7005 99,49.5C 98.6667,54.1667 98.3333,58.8333 98,63.5C 91.5542,58.9129 84.3876,57.4129 76.5,59C 75.0692,59.4652 73.9025,60.2986 73,61.5C 72.0776,50.1054 74.9109,39.7721 81.5,30.5 Z"/></g>
<g><path style="opacity:1" fill="#111a1f" d="M 92.5,25.5 C 99.327,24.8253 102.16,27.8253 101,34.5C 99.1667,40.3333 95.3333,44.1667 89.5,46C 82.6759,46.4942 80.1759,43.3276 82,36.5C 84.3566,31.6455 87.8566,27.9788 92.5,25.5 Z"/></g>
<g><path style="opacity:1" fill="#f0f0f1" d="M 90.5,30.5 C 92.1667,30.5 93.8333,30.5 95.5,30.5C 95.3027,37.0322 91.9694,40.0322 85.5,39.5C 85.3433,38.1266 85.51,36.7932 86,35.5C 87.7073,33.9625 89.2073,32.2959 90.5,30.5 Z"/></g>
<g><path style="opacity:1" fill="#009560" d="M 130.5,3.5 C 132.527,3.33788 134.527,3.50454 136.5,4C 130.023,7.9771 124.689,13.1438 120.5,19.5C 100.717,17.9838 83.3833,23.6505 68.5,36.5C 66.4974,21.3153 73.1641,12.482 88.5,10C 97.5,9.66667 106.5,9.33333 115.5,9C 120.857,7.82893 125.857,5.9956 130.5,3.5 Z"/></g>
<g><path style="opacity:1" fill="#f5da3d" d="M 134.5,239.5 C 134.842,240.338 135.508,240.672 136.5,240.5C 141.248,240.725 145.915,240.225 150.5,239C 158.271,235.115 166.271,231.781 174.5,229C 179.167,228.333 183.833,228.333 188.5,229C 197.517,232.588 206.85,233.921 216.5,233C 222.293,230.27 227.96,227.27 233.5,224C 238.915,222.918 244.249,221.585 249.5,220C 249.936,210.617 252.103,210.117 256,218.5C 256.678,220.598 256.511,222.598 255.5,224.5C 249.676,226.566 243.676,228.066 237.5,229C 230.895,233.136 223.895,236.469 216.5,239C 212.5,239.667 208.5,239.667 204.5,239C 194.386,235.814 184.053,234.48 173.5,235C 164.677,237.941 156.01,241.274 147.5,245C 140.187,247.435 133.187,246.769 126.5,243C 121.5,238 116.5,233 111.5,228C 105.537,225.082 99.2042,223.749 92.5,224C 87.7609,222.881 83.9276,220.381 81,216.5C 79.1288,211.919 76.6288,207.752 73.5,204C 67.8247,203.406 62.158,202.74 56.5,202C 55.5291,200.519 54.1958,199.685 52.5,199.5C 49.7437,193.073 49.9104,186.74 53,180.5C 53.2916,186.243 55.125,191.409 58.5,196C 64.0555,197.239 69.7222,197.906 75.5,198C 76.6667,199.167 77.8333,200.333 79,201.5C 80.4324,206.861 83.2658,211.361 87.5,215C 96.2265,217.172 104.893,219.505 113.5,222C 118.483,226.914 123.483,231.914 128.5,237C 130.407,238.122 132.407,238.955 134.5,239.5 Z"/></g>
<g><path style="opacity:1" fill="#1d241f" d="M 247.5,197.5 C 245.824,198.183 245.157,199.517 245.5,201.5C 244.735,201.077 243.902,200.743 243,200.5C 232.387,205.725 221.22,209.058 209.5,210.5C 199.161,210.666 188.828,210.5 178.5,210C 167.751,207.979 157.085,205.646 146.5,203C 135.095,202.934 123.762,202.267 112.5,201C 103.166,197.665 97.3326,191.165 95,181.5C 95.4355,176.257 93.9355,171.757 90.5,168C 86.6115,167.938 83.1115,166.771 80,164.5C 77.2485,158.227 78.4152,152.893 83.5,148.5C 84.0292,151.257 85.0292,153.757 86.5,156C 90.5314,156.481 94.5314,157.147 98.5,158C 100.624,159.122 102.457,160.622 104,162.5C 105.17,168.505 106.504,174.505 108,180.5C 109.4,183.902 111.567,186.736 114.5,189C 124.757,190.519 135.09,191.519 145.5,192C 169.118,198.882 193.118,200.382 217.5,196.5C 224.535,194.911 231.202,192.411 237.5,189C 238.059,188.275 238.392,187.442 238.5,186.5C 236.182,179.857 232.849,173.857 228.5,168.5C 225.912,172.674 223.579,177.007 221.5,181.5C 221.043,182.298 220.376,182.631 219.5,182.5C 213.768,168.268 205.435,155.768 194.5,145C 187.313,138.739 178.98,135.239 169.5,134.5C 168.824,140.225 167.824,145.892 166.5,151.5C 166.833,152.833 167.167,154.167 167.5,155.5C 170.276,155.946 172.776,156.946 175,158.5C 174.533,167.583 172.2,176.249 168,184.5C 164.681,178.532 161.348,172.532 158,166.5C 150.546,154.543 140.713,145.21 128.5,138.5C 131.743,138.914 134.743,139.914 137.5,141.5C 150.132,152.409 160.132,165.409 167.5,180.5C 169.289,177.017 170.623,173.35 171.5,169.5C 172.222,169.082 172.722,168.416 173,167.5C 175.297,160.987 173.131,157.487 166.5,157C 165.056,155.874 164.39,154.374 164.5,152.5C 165.952,146.742 166.952,140.909 167.5,135C 167.239,123.277 161.906,120.277 151.5,126C 148.833,128 146.167,130 143.5,132C 140.738,133.077 139.072,132.244 138.5,129.5C 140.611,130.742 142.611,130.742 144.5,129.5C 144.5,128.833 144.5,128.167 144.5,127.5C 147.899,125.969 151.233,124.135 154.5,122C 161.343,118.769 166.177,120.602 169,127.5C 173.283,123.412 178.116,122.579 183.5,125C 185.054,126.892 186.888,128.392 189,129.5C 212.528,119.835 223.361,127.835 221.5,153.5C 228.723,154.887 231.889,159.221 231,166.5C 233.421,170.34 235.588,174.34 237.5,178.5C 240.432,179.817 243.432,180.984 246.5,182C 251.069,184.541 252.569,188.375 251,193.5C 250.34,195.324 249.173,196.657 247.5,197.5 Z"/></g>
<g><path style="opacity:1" fill="#008354" d="M 217.5,196.5 C 219.124,193.132 220.457,189.632 221.5,186C 221.138,184.566 220.472,183.399 219.5,182.5C 220.376,182.631 221.043,182.298 221.5,181.5C 223.579,177.007 225.912,172.674 228.5,168.5C 232.849,173.857 236.182,179.857 238.5,186.5C 238.392,187.442 238.059,188.275 237.5,189C 231.202,192.411 224.535,194.911 217.5,196.5 Z"/></g>
<g><path style="opacity:1" fill="#d0ba35" d="M 203.5,152.5 C 205.371,152.859 206.871,153.859 208,155.5C 211.453,160.621 215.286,165.454 219.5,170C 222.095,170.6 224.429,170.1 226.5,168.5C 224.766,172.3 222.766,175.966 220.5,179.5C 215.573,169.966 209.906,160.966 203.5,152.5 Z"/></g>
<g><path style="opacity:1" fill="#03acdd" d="M 135.5,159.5 C 142.922,159.006 145.588,162.339 143.5,169.5C 138.151,170.649 134.818,168.483 133.5,163C 133.978,161.697 134.645,160.531 135.5,159.5 Z"/></g>
<g><path style="opacity:1" fill="#f5da3d" d="M 82.5,151.5 C 83.1312,153.448 84.1312,155.281 85.5,157C 89.7966,158.081 94.1299,159.081 98.5,160C 99.9308,160.465 101.097,161.299 102,162.5C 102.915,171.669 105.748,180.169 110.5,188C 112.275,189.439 114.275,190.439 116.5,191C 126.486,192.074 136.486,193.074 146.5,194C 173.302,201.882 200.302,202.549 227.5,196C 231.286,194.607 234.952,192.941 238.5,191C 239.894,190.044 240.561,188.711 240.5,187C 239.875,185.159 239.708,183.326 240,181.5C 246.094,182.904 249.094,186.57 249,192.5C 243.826,197.673 237.659,201.173 230.5,203C 213.548,208.205 196.214,209.872 178.5,208C 166.881,205.41 155.214,203.076 143.5,201C 134.167,200.667 124.833,200.333 115.5,200C 107.948,197.978 102.448,193.478 99,186.5C 97.4949,180.422 95.8283,174.422 94,168.5C 90.1024,166.523 86.1024,164.856 82,163.5C 79.9464,159.387 80.1131,155.387 82.5,151.5 Z"/></g>
<g><path style="opacity:1" fill="#d6be36" d="M 137.5,141.5 C 142.628,143.904 147.295,147.071 151.5,151C 156.833,157.667 162.167,164.333 167.5,171C 169.066,171.3 170.399,170.8 171.5,169.5C 170.623,173.35 169.289,177.017 167.5,180.5C 160.132,165.409 150.132,152.409 137.5,141.5 Z"/></g>
<g><path style="opacity:1" fill="#f9de3e" d="M 226.5,168.5 C 224.429,170.1 222.095,170.6 219.5,170C 215.286,165.454 211.453,160.621 208,155.5C 206.871,153.859 205.371,152.859 203.5,152.5C 194.892,140.366 183.225,133.699 168.5,132.5C 168.33,131.178 168.663,130.011 169.5,129C 173.142,126.592 177.142,125.925 181.5,127C 183.723,128.733 186.056,130.233 188.5,131.5C 210.136,121.973 219.97,128.973 218,152.5C 220.396,155.409 223.396,157.409 227,158.5C 227.747,161.924 227.58,165.257 226.5,168.5 Z"/></g>
<g><path style="opacity:1" fill="#008454" d="M 245.5,201.5 C 247.308,206.681 248.141,212.015 248,217.5C 236.735,220.216 226.235,224.716 216.5,231C 206.281,232.251 196.614,230.751 187.5,226.5C 196.691,223.585 204.024,218.252 209.5,210.5C 221.22,209.058 232.387,205.725 243,200.5C 243.902,200.743 244.735,201.077 245.5,201.5 Z"/></g>
<g><path style="opacity:1" fill="#0096c5" d="M 57.5,206.5 C 61.8461,206.334 66.1794,206.501 70.5,207C 73.98,213.095 77.6466,219.095 81.5,225C 83.8333,226 86.1667,227 88.5,228C 94.5813,228.138 100.581,228.804 106.5,230C 111.816,233.914 116.483,238.581 120.5,244C 129.306,251.457 139.306,253.457 150.5,250C 158.271,246.115 166.271,242.781 174.5,240C 184.086,238.848 193.419,239.848 202.5,243C 208.167,243.667 213.833,243.667 219.5,243C 227.703,238.481 236.203,234.648 245,231.5C 246.167,231.833 247.333,232.167 248.5,232.5C 247.937,233.939 247.603,235.439 247.5,237C 247.307,239.008 247.974,240.508 249.5,241.5C 250.167,243.167 250.833,244.833 251.5,246.5C 243.288,248.027 236.455,252.027 231,258.5C 229.441,260.217 228.608,262.217 228.5,264.5C 230.5,264.5 232.5,264.5 234.5,264.5C 214.786,262.959 197.119,268.293 181.5,280.5C 179.852,279.073 177.852,278.24 175.5,278C 163.162,276.027 150.829,276.027 138.5,278C 135.848,278.353 133.848,279.52 132.5,281.5C 124.868,272.621 115.201,269.288 103.5,271.5C 105.292,270.691 107.292,270.191 109.5,270C 104.58,267.084 100.247,263.418 96.5,259C 89.2136,254.117 81.2136,252.284 72.5,253.5C 72.6646,250.482 72.498,247.482 72,244.5C 71.6174,243.944 71.1174,243.611 70.5,243.5C 68.8121,232.812 62.8121,225.812 52.5,222.5C 57.0093,217.929 57.6759,212.762 54.5,207C 55.1765,205.317 56.1765,205.15 57.5,206.5 Z"/></g>
<g><path style="opacity:1" fill="#d0ba35" d="M 52.5,199.5 C 54.1958,199.685 55.5291,200.519 56.5,202C 62.158,202.74 67.8247,203.406 73.5,204C 76.6288,207.752 79.1288,211.919 81,216.5C 83.9276,220.381 87.7609,222.881 92.5,224C 99.2042,223.749 105.537,225.082 111.5,228C 116.5,233 121.5,238 126.5,243C 133.187,246.769 140.187,247.435 147.5,245C 156.01,241.274 164.677,237.941 173.5,235C 184.053,234.48 194.386,235.814 204.5,239C 208.5,239.667 212.5,239.667 216.5,239C 223.895,236.469 230.895,233.136 237.5,229C 243.676,228.066 249.676,226.566 255.5,224.5C 254.71,225.794 253.71,226.961 252.5,228C 240.93,230.119 230.263,234.452 220.5,241C 204.196,239.842 187.862,239.176 171.5,239C 163.281,241.775 155.281,245.109 147.5,249C 138.716,250.808 130.716,249.142 123.5,244C 118.41,236.908 112.076,231.241 104.5,227C 99.5,226.667 94.5,226.333 89.5,226C 85.5315,225.036 82.3649,222.869 80,219.5C 78.4018,214.468 75.9018,209.968 72.5,206C 67.5111,205.501 62.5111,205.334 57.5,205.5C 57.5,204.833 57.1667,204.5 56.5,204.5C 55.1667,202.833 53.8333,201.167 52.5,199.5 Z"/></g>
<g><path style="opacity:1" fill="#00abe1" d="M 52.5,222.5 C 62.8121,225.812 68.8121,232.812 70.5,243.5C 70.1778,244.858 70.1778,246.525 70.5,248.5C 64.4337,248.158 58.4337,247.325 52.5,246C 45.3238,245.179 42.4904,241.345 44,234.5C 46.5972,230.295 49.4305,226.295 52.5,222.5 Z"/></g>
<g><path style="opacity:1" fill="#171f21" d="M 247.5,197.5 C 247.088,204.505 249.922,209.505 256,212.5C 259.91,217.296 260.243,222.296 257,227.5C 255.736,229.607 253.903,230.607 251.5,230.5C 251.371,232.216 251.038,233.883 250.5,235.5C 249.539,237.265 249.205,239.265 249.5,241.5C 247.974,240.508 247.307,239.008 247.5,237C 247.603,235.439 247.937,233.939 248.5,232.5C 247.333,232.167 246.167,231.833 245,231.5C 236.203,234.648 227.703,238.481 219.5,243C 213.833,243.667 208.167,243.667 202.5,243C 193.419,239.848 184.086,238.848 174.5,240C 166.271,242.781 158.271,246.115 150.5,250C 139.306,253.457 129.306,251.457 120.5,244C 116.483,238.581 111.816,233.914 106.5,230C 100.581,228.804 94.5813,228.138 88.5,228C 86.1667,227 83.8333,226 81.5,225C 77.6466,219.095 73.98,213.095 70.5,207C 66.1794,206.501 61.8461,206.334 57.5,206.5C 57.5,206.167 57.5,205.833 57.5,205.5C 62.5111,205.334 67.5111,205.501 72.5,206C 75.9018,209.968 78.4018,214.468 80,219.5C 82.3649,222.869 85.5315,225.036 89.5,226C 94.5,226.333 99.5,226.667 104.5,227C 112.076,231.241 118.41,236.908 123.5,244C 130.716,249.142 138.716,250.808 147.5,249C 155.281,245.109 163.281,241.775 171.5,239C 187.862,239.176 204.196,239.842 220.5,241C 230.263,234.452 240.93,230.119 252.5,228C 253.71,226.961 254.71,225.794 255.5,224.5C 256.511,222.598 256.678,220.598 256,218.5C 252.103,210.117 249.936,210.617 249.5,220C 244.249,221.585 238.915,222.918 233.5,224C 227.96,227.27 222.293,230.27 216.5,233C 206.85,233.921 197.517,232.588 188.5,229C 183.833,228.333 179.167,228.333 174.5,229C 166.271,231.781 158.271,235.115 150.5,239C 145.915,240.225 141.248,240.725 136.5,240.5C 148.192,237.843 159.526,233.677 170.5,228C 176.088,226.711 181.755,226.211 187.5,226.5C 196.614,230.751 206.281,232.251 216.5,231C 226.235,224.716 236.735,220.216 248,217.5C 248.141,212.015 247.308,206.681 245.5,201.5C 245.157,199.517 245.824,198.183 247.5,197.5 Z"/></g>
<g><path style="opacity:1" fill="#0e171e" d="M 56.5,204.5 C 57.1667,204.5 57.5,204.833 57.5,205.5C 57.5,205.833 57.5,206.167 57.5,206.5C 56.1765,205.15 55.1765,205.317 54.5,207C 57.6759,212.762 57.0093,217.929 52.5,222.5C 49.4305,226.295 46.5972,230.295 44,234.5C 42.4904,241.345 45.3238,245.179 52.5,246C 58.4337,247.325 64.4337,248.158 70.5,248.5C 70.1778,246.525 70.1778,244.858 70.5,243.5C 71.1174,243.611 71.6174,243.944 72,244.5C 72.498,247.482 72.6646,250.482 72.5,253.5C 67.3899,265.608 71.3899,272.608 84.5,274.5C 90.7748,273.091 97.1081,272.091 103.5,271.5C 115.201,269.288 124.868,272.621 132.5,281.5C 140.676,293.614 151.676,297.447 165.5,293C 170.682,288.583 176.016,284.417 181.5,280.5C 197.119,268.293 214.786,262.959 234.5,264.5C 241.139,265.222 247.306,263.889 253,260.5C 256.535,255.381 256.035,250.715 251.5,246.5C 250.833,244.833 250.167,243.167 249.5,241.5C 249.205,239.265 249.539,237.265 250.5,235.5C 250.738,240.98 252.904,245.647 257,249.5C 259.733,258.855 256.233,264.355 246.5,266C 235.847,266.876 225.18,267.543 214.5,268C 203.031,270.236 192.698,274.903 183.5,282C 177.116,287.385 170.45,292.385 163.5,297C 154.391,298.846 146.058,297.179 138.5,292C 132.383,284.877 125.383,278.877 117.5,274C 106.37,273.063 95.3698,273.896 84.5,276.5C 80.2213,276.264 76.2213,275.097 72.5,273C 70.5125,271.681 69.3459,269.848 69,267.5C 68.5314,261.818 68.6981,256.152 69.5,250.5C 62.4376,249.753 55.4376,248.586 48.5,247C 41.9037,245.751 39.4037,241.917 41,235.5C 45.1223,228.385 49.6223,221.552 54.5,215C 53.5212,212.567 52.8545,210.067 52.5,207.5C 53.404,206.791 53.7373,205.791 53.5,204.5C 54.5,204.5 55.5,204.5 56.5,204.5 Z"/></g>
<g><path style="opacity:1" fill="#00abe1" d="M 72.5,253.5 C 81.2136,252.284 89.2136,254.117 96.5,259C 100.247,263.418 104.58,267.084 109.5,270C 107.292,270.191 105.292,270.691 103.5,271.5C 97.1081,272.091 90.7748,273.091 84.5,274.5C 71.3899,272.608 67.3899,265.608 72.5,253.5 Z"/></g>
<g><path style="opacity:1" fill="#00abe1" d="M 251.5,246.5 C 256.035,250.715 256.535,255.381 253,260.5C 247.306,263.889 241.139,265.222 234.5,264.5C 232.5,264.5 230.5,264.5 228.5,264.5C 228.608,262.217 229.441,260.217 231,258.5C 236.455,252.027 243.288,248.027 251.5,246.5 Z"/></g>
<g><path style="opacity:1" fill="#00abe1" d="M 181.5,280.5 C 176.016,284.417 170.682,288.583 165.5,293C 151.676,297.447 140.676,293.614 132.5,281.5C 133.848,279.52 135.848,278.353 138.5,278C 150.829,276.027 163.162,276.027 175.5,278C 177.852,278.24 179.852,279.073 181.5,280.5 Z"/></g>
</svg>
