<?xml version="1.0" encoding="UTF-8" standalone="no"?>
<!-- Created with Inkscape (http://www.inkscape.org/) -->

<svg
   version="1.1"
   viewBox="0 0 85.611 139.14"
   id="svg8308"
   sodipodi:docname="438.svg"
   inkscape:version="1.2.2 (b0a8486, 2022-12-01)"
   xmlns:inkscape="http://www.inkscape.org/namespaces/inkscape"
   xmlns:sodipodi="http://sodipodi.sourceforge.net/DTD/sodipodi-0.dtd"
   xmlns="http://www.w3.org/2000/svg"
   xmlns:svg="http://www.w3.org/2000/svg">
  <defs
     id="defs8312" />
  <sodipodi:namedview
     id="namedview8310"
     pagecolor="#505050"
     bordercolor="#eeeeee"
     borderopacity="1"
     inkscape:showpageshadow="0"
     inkscape:pageopacity="0"
     inkscape:pagecheckerboard="0"
     inkscape:deskcolor="#505050"
     showgrid="false"
     inkscape:zoom="1.1993474"
     inkscape:cx="67.536727"
     inkscape:cy="70.871874"
     inkscape:window-width="1309"
     inkscape:window-height="430"
     inkscape:window-x="117"
     inkscape:window-y="323"
     inkscape:window-maximized="0"
     inkscape:current-layer="g8306" />
  <g
     transform="translate(-.50353 -1.2776)"
     id="g8306">
    <g
       transform="matrix(.47633 0 0 -.47633 31.221 130.58)"
       id="g8140">
      <path
         d="m0 0c1.354-9.546-2.846-18.034-9.383-18.961-6.536-0.927-12.931 6.06-14.284 15.604-1.354 9.546 2.845 18.034 9.383 18.961 6.534 0.928 12.931-6.059 14.284-15.604"
         fill="#d3965c"
         id="path8138" />
    </g>
    <g
       transform="matrix(.47633 0 0 -.47633 31.171 134.23)"
       id="g8144">
      <path
         d="m0 0c0.427 2.373 0.486 4.975 0.105 7.661-1.353 9.545-7.749 16.532-14.284 15.605-6.538-0.928-10.737-9.416-9.383-18.962 0.722-5.088 2.874-9.449 5.721-12.273 3.006 4.73 9.206 8.115 17.841 7.969"
         fill="#ad7b4a"
         id="path8142" />
    </g>
    <g
       transform="matrix(.47633 0 0 -.47633 7.5876 89.61)"
       id="g8148">
      <path
         d="m0 0c13.621 15.699 43.553 17.964 70.218 17.123 30.899-0.974 63.838-11.216 70.374-24.175 3.134-6.212 1.5-17.687 0.125-25.997-0.73-4.419-9.225-13.578-12.82-15.759-2.38-10.087-22.773-33.771-56.657-34.969-40.487-1.427-60.347 23.272-65.132 44.463-2.671 1.335-7.371 7.499-8.812 11.019-1.474 3.596 0.666 25.947 2.704 28.295"
         fill="#d3965c"
         id="path8146" />
    </g>
    <g
       transform="matrix(.47633 0 0 -.47633 73.849 92.521)"
       id="g8152">
      <path
         d="m0 0c3.285-9.504-28.689-35.084-68.123-34.71-30.641 0.29-41.18 8.413-48.52 12.328-7.01 3.739 9.816 8.794 10.025 12.515-0.428 10.399-1.214 20.744-1.049 30.966-13.028-2.366-24.411-6.884-31.442-14.987-2.037-2.348-4.178-24.699-2.704-28.296 1.441-3.519 6.141-9.683 8.812-11.018 4.786-21.191 24.645-45.89 65.132-44.463 33.884 1.197 54.277 24.881 56.657 34.969 3.596 2.181 12.09 11.34 12.82 15.759 1.254 7.563 1.821 20.261-0.29 26.713-0.016-0.438-1.491 0.721-1.318 0.224"
         fill="#ad7b4a"
         id="path8150" />
    </g>
    <g
       transform="matrix(.47633 0 0 -.47633 16.876 119.6)"
       id="g8156">
      <path
         d="m0 0c-0.831 3.093 12.18 1.589 20.139-4.394 3.743-2.815 15.539-13.97 10.603-15.783-7.42-2.725-24.829-1.85-30.742 20.177"
         fill="#d3965c"
         id="path8154" />
    </g>
    <g
       transform="matrix(.47633 0 0 -.47633 29.249 124.21)"
       id="g8160">
      <path
         d="m0 0c-2.222 2.275-4.523 4.287-5.837 5.274-7.959 5.983-20.969 7.487-20.139 4.394 2.835-10.565 8.317-16.255 14.072-19.026-0.693 3.615 3.347 7.529 11.904 9.358"
         fill="#ad7b4a"
         id="path8158" />
    </g>
    <g
       transform="matrix(.47633 0 0 -.47633 58.271 122.08)"
       id="g8164">
      <path
         d="m0 0c-2.793 0.425-16.647-2.391-21.403-13.177 4.931-3.943 9.635-4.37 12.851-3.915z"
         fill="#ad7b4a"
         id="path8162" />
    </g>
    <g
       transform="matrix(.47633 0 0 -.47633 64.241 131.13)"
       id="g8168">
      <path
         d="m0 0c-6.576-9.049-16.193-13.126-21.482-9.104-5.291 4.024-4.247 14.624 2.327 23.674 6.572 9.052 16.191 13.128 21.479 9.104 5.291-4.023 4.248-14.622-2.324-23.674"
         fill="#d3965c"
         id="path8166" />
    </g>
    <g
       transform="matrix(.47633 0 0 -.47633 56.514 122.51)"
       id="g8172">
      <path
         d="m0 0c-1.023-1.068-2.011-2.237-2.933-3.51-6.574-9.05-7.618-19.65-2.327-23.674 3.663-2.784 9.4-1.684 14.765 2.26-10.471 4.093-10.284 14.558-9.505 24.924"
         fill="#ad7b4a"
         id="path8170" />
    </g>
    <g
       transform="matrix(.47633 0 0 -.47633 16.464 93.025)"
       id="g8176">
      <path
         d="m0 0c-2.796 14.806 4.147 34.541 22.464 53.247 18.513 18.904 23.589 24.093 23.411 29.533-0.252 7.597-5.914 5.8-12.924 7.769-3.818 1.521-2.567 13.213 1.124 12.461 2.332-0.478 13.304-1.86 15.562 0.394 4.109 4.104 2.246 15.568 2.246 15.568l14.039-0.695s-3.271-11.832-0.017-16.161c1.297-1.722 14.767-1.882 14.767-1.882l-1.045-11.167s-11.013 2.083-11.292-4.075c-0.47-10.314 7.707-19.227 21.114-38.543 13.727-19.779 18.503-36.888 13.149-47.935-23.068-31.858-92.391-18.09-102.6 1.486"
         fill="#d3965c"
         id="path8174" />
    </g>
    <g
       transform="matrix(.47633 0 0 -.47633 49.862 56.885)"
       id="g8180">
      <path
         d="m0 0c-1.294 3.12-1.921 6.061-1.781 9.121 0.279 6.158 11.292 4.074 11.292 4.074l1.045 11.168s-13.469 0.16-14.766 1.882c-3.255 4.329 0.017 16.161 0.017 16.161l-14.04 0.695s1.864-11.464-2.246-15.568c-2.258-2.254-13.229-0.872-15.562-0.395-3.691 0.753-4.941-10.939-1.124-12.46 7.01-1.969 12.673-0.172 12.924-7.769 0.067-2.051-0.613-4.068-2.48-6.795 8.484 2.856 16.744 8.157 26.721-0.114"
         fill="#ad7b4a"
         id="path8178" />
    </g>
    <g
       transform="matrix(.47633 0 0 -.47633 24.403 70.713)"
       id="g8184">
      <path
         d="m0 0c-13.967-16.72-19.147-33.716-16.668-46.841 2.113-4.054 6.768-7.856 13.016-11.06-4.89 18.824-2.652 39.566 3.652 57.901"
         fill="#ad7b4a"
         id="path8182" />
    </g>
    <g
       transform="matrix(.47633 0 0 -.47633 50.272 95.646)"
       id="g8188">
      <path
         d="m0 0c2.334 1.323 1.705 5.472-1.556 3.92-8.278-3.945-20.033-2.967-24.785-0.252-3.295 1.882-4.472-2.346-1.098-4.099 8.698-4.522 19.856-3.868 27.439 0.431"
         fill="#ed8599"
         id="path8186" />
    </g>
    <g
       transform="matrix(.47633 0 0 -.47633 47.865 75.275)"
       id="g8192">
      <path
         d="m0 0c-0.511-7.984-4.372-14.259-8.625-14.02-4.251 0.241-7.285 6.906-6.773 14.886 0.509 7.986 4.371 14.261 8.622 14.021 4.254-0.239 7.285-6.905 6.776-14.887"
         fill="#fff095"
         id="path8190" />
    </g>
    <g
       transform="matrix(.47633 0 0 -.47633 57.413 86.132)"
       id="g8196">
      <path
         d="m0 0c0.076-8.575-3.399-15.336-7.764-15.102-4.369 0.237-7.972 7.382-8.05 15.958-0.077 8.575 3.401 15.337 7.77 15.098 4.364-0.236 7.967-7.378 8.044-15.954"
         fill="#fff095"
         id="path8194" />
    </g>
    <g
       transform="matrix(.47633 0 0 -.47633 37.121 87.005)"
       id="g8200">
      <path
         d="m0 0c-0.758-8.659-5.334-15.3-10.211-14.833-4.881 0.469-8.216 7.869-7.458 16.531 0.763 8.658 5.334 15.297 10.216 14.829 4.876-0.471 8.217-7.868 7.453-16.527"
         fill="#fff095"
         id="path8198" />
    </g>
    <g
       transform="matrix(.47633 0 0 -.47633 33.386 44.93)"
       id="g8204">
      <path
         d="m0 0c2.615-18.444-10.158-35.508-28.527-38.114-18.372-2.604-35.384 10.235-38.002 28.68-2.616 18.442 10.158 35.507 28.529 38.113 18.372 2.604 35.385-10.235 38-28.679"
         fill="#00a63c"
         id="path8202" />
    </g>
    <g
       transform="matrix(.47633 0 0 -.47633 84.899 45.463)"
       id="g8208">
      <path
         d="m0 0c2.613-18.444-10.159-35.508-28.528-38.113-18.374-2.606-35.385 10.234-38.002 28.679-2.614 18.444 10.157 35.507 28.529 38.113 18.371 2.604 35.384-10.235 38.001-28.679"
         fill="#00a63c"
         id="path8206" />
    </g>
    <g
       transform="matrix(.47633 0 0 -.47633 61.996 17.575)"
       id="g8212">
      <path
         d="m0 0c3.003-21.165-11.711-40.757-32.864-43.758-21.153-2.999-40.734 11.729-43.735 32.896s11.712 40.758 32.866 43.757c21.151 3.001 40.733-11.728 43.733-32.895"
         fill="#00a63c"
         id="path8210" />
    </g>
    <g
       transform="matrix(.47633 0 0 -.47633 8.5643 33.865)"
       id="g8216">
      <path
         d="m0 0c-10.288-6.997-16.287-19.475-14.417-32.663 2.617-18.444 19.629-31.283 38.001-28.679 5.648 0.802 10.763 2.973 15.069 6.128-26.701-4.586-50.265 21.117-38.653 55.214"
         fill="#009234"
         id="path8214" />
    </g>
    <g
       transform="matrix(.47633 0 0 -.47633 56.742 37.431)"
       id="g8220">
      <path
         d="m0 0c-5.844-7.063-8.808-16.483-7.418-26.296 2.617-18.444 19.628-31.285 38.001-28.678 7.374 1.045 13.843 4.425 18.78 9.285-20.38-12.284-54.863 14.361-49.363 45.689"
         fill="#009234"
         id="path8218" />
    </g>
    <g
       transform="matrix(.47633 0 0 -.47633 29.05 9.0453)"
       id="g8224">
      <path
         d="m0 0c-5.984-7.931-8.938-18.151-7.434-28.769 3.002-21.167 22.582-35.895 43.736-32.895 5.218 0.74 10.041 2.493 14.308 5.028-29.851-1.113-47.833 26.211-50.61 56.636"
         fill="#009234"
         id="path8222" />
    </g>
    <g
       transform="matrix(.47633 0 0 -.47633 30.713 130.66)"
       id="g8228">
      <path
         d="m0 0c1.269-8.941-2.529-16.9-8.468-17.742-5.935-0.842-11.797 5.747-13.065 14.687-0.564 3.974-0.123 7.752 1.057 10.799-0.555 0.526-1.082 1.105-1.573 1.728-1.631-3.559-2.292-8.077-1.618-12.827 1.434-10.119 8.756-18.068 15.868-17.059 7.116 1.009 11.604 10.138 10.169 20.255-0.165 1.176-0.645 2.776-0.953 3.871-0.7-0.161-1.406-0.303-2.114-0.424 0.301-1.051 0.536-2.151 0.697-3.288"
         fill="#0f141b"
         id="path8226" />
    </g>
    <g
       transform="matrix(.47633 0 0 -.47633 47.879 128.13)"
       id="g8232">
      <path
         d="m0 0c-10.331-2.365-19.509-2.984-32.879-0.182-1.245-1.477-1.806-1.717-3.52-2.209 14.207-3.705 27.341-2.573 38.333 0.512-0.922 0.68-1.178 1.01-1.934 1.879"
         fill="#0f141b"
         id="path8230" />
    </g>
    <g
       transform="matrix(.47633 0 0 -.47633 26.155 122.11)"
       id="g8236">
      <path
         d="m0 0c9.487-7.132 11.571-11.878 11.344-13.426-0.018-0.125-0.044-0.298-0.462-0.45-3.701-1.362-10.211-1.814-16.375 1.381-6.199 3.213-10.533 9.245-12.887 17.918 1.428 0.979 11.493-0.249 18.38-5.423m-19.681 7.208c-0.77-0.522-1.092-1.353-0.859-2.224 2.234-10.54 6.899-16.352 13.604-19.828 6.798-3.524 14.455-2.606 18.574-1.092 1.06 0.389 2.197 0.992 2.347 2.02 0.319 2.16-2.377 7.936-12.666 15.669-6.827 5.131-17.972 7.5-21 5.455"
         fill="#0f141b"
         id="path8234" />
    </g>
    <g
       transform="matrix(.47633 0 0 -.47633 76.185 95.055)"
       id="g8240">
      <path
         d="m0 0c-1.057 7.452-7.327 14.917-20.96 18.928-0.08-0.768-0.164-1.554-0.271-2.344 8.394-3.726 14.45-8.12 16.772-12.729 3.162-6.268 1.039-19.11 0.017-25.282-2.092-12.645-31.988-31.762-77.693-28.352-28.264 2.109-61.917 21.458-63.761 34.44-0.788 5.561 1.4 24.401 2.762 26.009 4.156 4.789 10.748 8.773 18.546 11.514 0.118 0.849 0.48 2.301 0.539 3.143-8.286-2.902-17.765-8.45-21.131-12.573-2.915-3.569-4.564-22.011-3.691-28.173 0.79-5.558 5.927-12.095 10.284-14.845 1.857-10.786 7.068-20.076 16.576-28.57-0.855 2.32-1.576 4.738-2.297 7.182-5.491 6.152-9.174 12.648-11.313 19.346 13.652-10.801 33.782-19.231 54.11-20.478 29.449-1.807 51.742 5.555 63.169 12.471-1.185-2.773-3.204-6.129-6.423-9.622 0.974-0.459 1.423-0.972 2.329-1.545 4.274 4.965 6.268 9.651 7.272 13.253 10.988 8.063 13.347 12.518 14.1 17.083 1.258 7.607 1.907 15.209 1.064 21.144"
         fill="#0f141b"
         id="path8238" />
    </g>
    <g
       transform="matrix(.47633 0 0 -.47633 47.569 128.13)"
       id="g8244">
      <path
         d="m0 0-0.361-0.817 0.699-0.56c3.785-3.028 7.323-4.635 10.304-4.83 0.041 0.783 0.146 2.106 0.176 2.887-2.365 0.181-5.22 1.006-8.232 3.19 3.358 6.562 10.591 9.906 15.43 11.145 0.851 1.019 2.137 1.802 3.072 2.876-5.058-0.299-16.709-3.96-21.088-13.891"
         fill="#0f141b"
         id="path8242" />
    </g>
    <g
       transform="matrix(.47633 0 0 -.47633 64.727 131.48)"
       id="g8248">
      <path
         d="m0 0v-1e-3zm-21.737-7.359c-4.66 3.545-3.475 13.584 2.581 21.928 3.988 5.488 9.39 9.33 14.098 10.023 2.216 0.326 4.154-0.083 5.6-1.182 4.658-3.543 3.475-13.586-2.584-21.928-3.987-5.49-9.39-9.33-14.099-10.023-2.216-0.326-4.151 0.081-5.596 1.182m16.668 35.083c-5.546-0.816-11.568-4.959-16.111-11.085-7.249-9.774-8.205-20.949-2.181-25.437 2.035-1.517 4.675-2.087 7.637-1.652 5.547 0.817 11.568 4.961 16.111 11.089 4.681 6.309 6.74 13.203 5.986 18.506-0.411 2.908-1.67 5.337-3.805 6.929-2.033 1.514-4.675 2.085-7.637 1.65"
         fill="#0f141b"
         id="path8246" />
    </g>
    <g
       transform="matrix(.47633 0 0 -.47633 48.302 44.068)"
       id="g8252">
      <path
         d="m0 0c-0.537 0.727-0.867 1.733-1.044 2.899-0.379 2.497 0.602 5.475 1.057 8.131-0.813-0.219-2.298-0.174-3.123-0.312-0.386-2.479-0.639-5.469-0.245-8.059 0.228-1.528 0.799-3.167 1.585-4.211 1.101-1.463 6.415-1.783 11.852-1.99 0.202 0.728 0.448 1.449 0.733 2.168-5.045 0.197-9.994 0.721-10.815 1.374"
         fill="#0f141b"
         id="path8250" />
    </g>
    <g
       transform="matrix(.47633 0 0 -.47633 33.528 44.627)"
       id="g8256">
      <path
         d="m0 0c3.826-0.628 11.989-1.768 14.367 0.604 2.543 2.541 3.329 7.843 3.27 11.631-0.79 0.187-2.265 0.483-3.034 0.746 0.12-3.698 0.429-8.372-1.638-10.435-1.381-1.38-9.065-0.929-13.195-0.299-0.477 0.073-0.435-2.138 0.23-2.247"
         fill="#0f141b"
         id="path8254" />
    </g>
    <g
       transform="matrix(.47633 0 0 -.47633 60.22 71.179)"
       id="g8260">
      <path
         d="m0 0c-14.386 20.208-22.041 29.232-22.366 39.082-0.031 0.962 0.417 1.687 1.141 2.218 1.385 1.021 3.831 1.211 5.876 1.134-0.112 0.731-0.115 2.096-0.18 2.825-2.286 0.054-5.244-0.85-7.132-2.237-1.274-0.938-1.956-2.231-2.028-3.847-0.06-1.282 9e-3 -2.542 0.198-3.799 0.748-4.944 10.04-19.863 21.103-35.386 8.371-12.063 13.348-23.016 14.727-32.14 0.855-5.646 1.254-10.451-0.698-14.528-9.576-13.14-32.03-20.07-55.954-18.476-22.128 1.477-42.606 12.335-44.399 19.516-3.772 15.124 4.766 35.527 21.172 52.281 18.844 19.244 23.91 24.417 23.716 30.305-0.016 0.543-0.063 1.042-0.133 1.507-0.776 5.13-5.016 6.755-9.066 7.358-0.674 0.101-0.991-0.839-1.729-0.708-0.073-0.728-0.199-1.448-0.383-2.156 0.748-0.132 1.469-0.242 2.147-0.342 4.45-0.664 6.68-0.999 6.836-5.725 0.166-5-5.552-11.931-24.086-29.589-17.949-17.101-24.559-40.525-20.673-53.822 5.389-10.336 27.221-20.817 50.254-20.981 42.573-0.306 54.445 19.587 54.445 19.587 6.137 13.376-2.432 33.373-12.788 47.923"
         fill="#0f141b"
         id="path8258" />
    </g>
    <g
       transform="matrix(.47633 0 0 -.47633 37.405 95.508)"
       id="g8264">
      <path
         d="m0 0c-1.154 0.601-1.568 1.497-1.57 2.137-5e-3 0.385 0.139 0.692 0.376 0.817 0.303 0.163 0.816 0.06 1.41-0.278 4.78-2.734 16.847-3.97 25.639 0.221 0.761 0.363 1.271 0.338 1.514-0.073 0.344-0.581 0.195-1.837-0.81-2.407-7.704-4.368-18.626-4.539-26.559-0.417m-2.345 4.35c-0.814-0.425-1.301-1.272-1.3-2.263 2e-3 -1.107 0.868-2.742 2.678-3.752 7.583-4.231 18.048-5.011 28.423 0.204 1.813 0.914 3.302 3.381 1.767 5.127-0.721 0.818-1.916 1.671-3.918 0.731-8.303-3.896-19.996-2.806-24.401-0.344-1.604 0.895-2.723 0.571-3.249 0.297"
         fill="#0f141b"
         id="path8262" />
    </g>
    <g
       transform="matrix(.47633 0 0 -.47633 43.782 81.563)"
       id="g8268">
      <path
         d="m0 0c-3.699 0.209-6.425 6.627-5.953 14.017 0.473 7.39 3.998 13.455 7.696 13.248 2.769-0.155 4.995-3.796 5.739-8.72 0.248-1.649 0.332-3.444 0.213-5.298-0.473-7.388-3.997-13.453-7.695-13.247m-7.91 14.345c-0.583-8.571 2.799-15.486 7.701-15.746 4.902-0.256 9.201 6.254 9.784 14.822 0.583 8.573-2.799 15.489-7.701 15.747-4.901 0.257-9.2-6.255-9.784-14.823"
         fill="#0f141b"
         id="path8266" />
    </g>
    <g
       transform="matrix(.47633 0 0 -.47633 53.738 92.934)"
       id="g8272">
      <path
         d="m0 0c-3.841 0.209-7.148 7.143-7.221 15.143-0.05 5.727 1.56 10.896 4.1 13.165 0.877 0.786 1.799 1.157 2.739 1.103 3.844-0.205 7.149-7.139 7.221-15.137 0.05-5.727-1.558-10.897-4.099-13.17-0.879-0.781-1.798-1.153-2.74-1.104m-4.314 29.504c-2.988-2.616-4.818-8.131-4.779-14.391 0.056-9.144 4.011-16.502 8.998-16.755 1.452-0.073 2.882 0.469 4.136 1.566 2.983 2.619 4.813 8.133 4.775 14.394-0.054 9.143-4.008 16.499-8.997 16.752-1.453 0.073-2.884-0.467-4.133-1.566"
         fill="#0f141b"
         id="path8270" />
    </g>
    <g
       transform="matrix(.47633 0 0 -.47633 55.172 86.366)"
       id="g8276">
      <path
         d="m0 0c0.035-3.712-1.305-6.648-2.986-6.557-1.683 0.093-3.075 3.173-3.109 6.89-0.032 3.71 1.307 6.646 2.988 6.554 1.683-0.089 3.075-3.174 3.107-6.887"
         fill="#0f141b"
         id="path8274" />
    </g>
    <g
       transform="matrix(.47633 0 0 -.47633 32.3 93.678)"
       id="g8280">
      <path
         d="m0 0c-4.325 0.414-7.379 7.576-6.669 15.641 0.89 10.123 5.261 14.461 9.247 14.078 4.708-0.454 7.472-6.521 6.672-15.64-0.874-9.945-6.095-14.385-9.25-14.079m-8.572 16.097c-0.853-9.25 2.814-16.894 8.353-17.401 4.33-0.396 10.326 3.585 11.441 15.619 0.983 10.621-3.239 16.931-8.352 17.401-4.209 0.386-10.377-4.124-11.442-15.619"
         fill="#0f141b"
         id="path8278" />
    </g>
    <g
       transform="matrix(.47633 0 0 -.47633 34.518 87.017)"
       id="g8284">
      <path
         d="m0 0c-0.33-3.75-2.121-6.639-4.001-6.458-1.881 0.181-3.14 3.364-2.81 7.115 0.331 3.75 2.124 6.641 4.001 6.458 1.884-0.176 3.14-3.365 2.81-7.115"
         fill="#0f141b"
         id="path8282" />
    </g>
    <g
       transform="matrix(.47633 0 0 -.47633 8.5703 93.857)"
       id="g8288">
      <path
         d="m0 0c4.113-11.436 17.633-22.33 35.036-27.368 5.965-1.729 6.395-0.091 0.487 1.686-16.147 4.854-29.693 16.796-33.93 26.419-1.7 3.859-2.48 1.731-1.593-0.737"
         fill="#0f141b"
         id="path8286" />
    </g>
    <g
       transform="matrix(.47633 0 0 -.47633 51.541 107.49)"
       id="g8292">
      <path
         d="m0 0c-5.486-1.068-3.737-2.428 0.269-1.736 15.291 2.645 32.258 10.412 40.285 19.399 2.376 2.664 3.792 6.163-0.078 2.442-9.865-9.483-22.385-16.585-40.476-20.105"
         fill="#0f141b"
         id="path8290" />
    </g>
    <g
       transform="matrix(.47633 0 0 -.47633 2.2144 49.351)"
       id="g8296">
      <path
         d="m0 0c-2.525 17.816 9.853 34.357 27.598 36.874 17.742 2.515 34.233-9.931 36.76-27.748 2.526-17.815-9.854-34.355-27.597-36.872-17.745-2.516-34.235 9.931-36.761 27.746m-1.664-7.056c6.382-18.139 23.06-28.621 45.483-22.42 19.014 5.257 28.584 27.521 22.202 45.659-6.382 18.139-26.758 27.684-45.419 21.278-18.66-6.408-28.649-26.378-22.266-44.517"
         fill="#0f141b"
         id="path8294" />
    </g>
    <g
       transform="matrix(.47633 0 0 -.47633 53.726 49.884)"
       id="g8300">
      <path
         d="m0 0c-2.526 17.816 9.855 34.357 27.597 36.874 17.741 2.515 34.233-9.931 36.761-27.748 2.524-17.815-9.857-34.356-27.599-36.871-17.741-2.517-34.23 9.93-36.759 27.745m-3.605 3.158c0.837-19.193 16.853-34.367 37.576-34.448 19.746-0.078 34.834 18.067 33.992 37.26-0.838 19.193-17.575 34.177-37.308 33.402-19.731-0.775-35.103-17.021-34.26-36.214"
         fill="#0f141b"
         id="path8298" />
    </g>
    <g
       transform="matrix(.47633 0 0 -.47633 26.104 22.664)"
       id="g8304">
      <path
         d="m0 0c-2.898 20.444 11.363 39.434 31.794 42.331 20.428 2.897 39.408-11.38 42.307-31.824 2.9-20.444-11.362-39.436-31.792-42.332-20.428-2.897-39.41 11.379-42.309 31.825m-3.684 11.06c-3.294-21.794 12.325-42.288 34.814-45.687 22.491-3.398 43.465 11.568 46.759 33.361 3.294 21.79-12.326 42.285-34.815 45.683-22.49 3.398-43.466-11.566-46.758-33.357"
         fill="#0f141b"
         id="path8302" />
    </g>
  </g>
</svg>
