<?xml version="1.0" encoding="UTF-8"?>
<svg version="1.1" viewBox="0 0 258.65 276.1" xmlns="http://www.w3.org/2000/svg">
 <g>
  <path d="m252.5 91.603 5.35 10.65q-1.45 4.35-1.7 9.9l-0.1 16.95q0 21.7-11.65 49.15-3.25-13.6-7.55-26.15-1.3 5.85-3.4 11.9-2.35 6.8-4.3 9.35-0.45-5.3-1.85-10.2-1.4-4.8-2.8-6.35-4.4 16.95-5.1 20.2-1.25 6-0.9 11.05 0.4 5.95-3 15.3-2.7 7.45-4.35 9.5-0.5 0.65-24 13-23.8 12.5-25.95 14.45-5.55 5-13.8 7.4-5.25 1.55-11.1 1.9 4.65-3.35 9.05-7.5 4.8-4.5 7.25-8-3.8-0.25-10.45 0.2l-9.4 0.5q10.05-5.95 12.8-8.1-3.25-1.85-9.75-0.65-7.25 1.3-14.7 5.85-6.45 3.9-20.75 5.85-13.75 1.8-20 0.1-20.75-5.6-44.2-19.4-21.3-13.7-26.55-16.1 2.95-1.35 14.7 1 13.95 2.85 18.15 2.8-5-3-12.95-8.9l-9.4-7.15q3.5 0.15 12.65 2.2 8.2 1.9 13.5 1.6-6.75-5.55-13.2-14.25-6.9-9.3-8.05-10.4-7.75-7.3-14.45-16.2-6.3-8.35-7.35-12.15-3-10.95-0.65-34.9 2.55-26 9.5-35.9 1.25 2.5 2.9 7.55 1.4 4.4 1.8 6.5l0.95 5.15q0.85 3.85 1.95 5.6 0.65-6.45 2.05-10.25 1.7-3.85 2.65-6.95 0.5 2.6 1.55 5.85l1.55 5.1 1.75-4.3q0.7-2.1 0.95-4.45 0.35-2.95 1.95-6.8l3.15-6.35 3.15-7.5q1.8-5.15 3-7.6 3-6.3 20.4-19.75 18.55-14.3 29.35-17 2.6-0.15 13.4 2.6 11.3 2.9 13.85 3 9-6.05 19.75-11.9 12.25-6.7 16.25-7.1 3.3-0.35 15.2 1.4 13.5 2 25.45 5.1 6.25 1.95 12.85 5.75l12.85 8.1-18.2-1.4-13.1-0.85q3.45 1.75 6.95 4.6l4.45 3.9-8.9 0.3q-3.75 0.15-5.6 0.8l4.35 4.25q2.2 2.2 3.45 2.9 1.5 0.85 11.5 2.95l12.4 2.2q2.1 0.2 8.6 6.3l7.05 6.9q3.45 2.95 8.2 11.55 4.85 8.85 5.45 13.7 0.25 2.15 5.15 11.65" fill="#b47aa5"/>
  <path d="m221.95 166.3q-2.3 8.3-2.95 13.25-0.55 4.25-0.25 8.95 0.4 5.95-2.8 14.6-2.45 6.7-4.15 8.9-0.5 0.6-24.3 13.4-24.15 12.95-26.3 14.9-5.55 5-14.35 7.6-5.85 1.7-11.7 2.05 13.35-9.7 17.65-15.85-3.85-0.25-10.8 0.05l-9.75 0.4q10.9-6.35 13.65-8.5-3.2-1.8-10.5-0.25-7.85 1.7-15.45 6.3-6.45 3.9-20.2 5.75-13.15 1.7-19.4 0-14.55-3.9-29.45-11.3 56.95-1.35 100-16.35 43.85-15.3 71.05-43.9" fill="#96668b"/>
  <path d="m236.45 151.6q-1.45 6.55-3.2 12.15-2.25 7.15-4.1 9.6-0.6-6.85-2.5-12.25 10.2-11.85 17.9-25.5 8.15-14.5 12.6-29.55-0.65 3.05-0.9 8.45l-0.2 14.6q0 22.4-11.4 49.35-2.45-10.1-8.2-26.85" fill="#96668b"/>
 </g>
 <path d="m96.852 191.95q8.6 2.85 13 9.15 4.9 7 2.15 15.2-2.1 6.35-9.45 8.9-7.2 2.5-15.8 0.1-8.4-2.35-13-9.4-4.65-7.05-2.4-13.75 2.45-7.45 10.15-10.25 7.3-2.6 15.35 0.05" fill="#67ae3e"/>
 <path d="m160.85 240.4q3.35-1.85 11.9-7.05 5.9-3.65 8.25-4.55 0.7-0.2 1.7 2.15 2 4.8 2.6 10.35 0.85 7.35-1.4 12.45-2.65 6.2-8.65 10.65-5.55 4.15-12.4 5.7-15.75 3.5-19.6 3.8l-17.85 0.75q-8.35-0.2-17.75-2-8-1.5-15.4-7.95-5.15-4.45-8.1-9.15-2.1-3.25-3.7-8.4-1.6-4.9-1.35-6.85 0.25-1.6 1.4-2.45l3.1 0.55 8.2 0.55q13.65 0 25.45-5.4l13.1-6.2q9.5-3.65 14.95-1.1-2.9 2.3-7.55 4.95l-5.45 3.1q19.05 0 20.8 0.25l-9.05 9q-5.75 5.5-7.85 6.05 6.05-0.1 12.5-2.2 7.7-2.55 12.15-7" fill="#d1c7bc"/>
 <path d="m112.15 257.95q3.8 1.25 5.45 1.45l11.9 0.45 7.95-0.8 15.9-2.4q4.65-0.2 14.75-4.7 10.15-4.5 17.3-9.6 0.55 6.75-1.5 11.4-2.65 6.2-8.65 10.65-5.55 4.15-12.4 5.7-15.75 3.5-19.6 3.8l-17.85 0.75q-8.35-0.2-17.75-2-8-1.5-15.4-7.95-5.15-4.45-8.1-9.15-1.65-2.6-3.1-6.65-1.35-3.65-1.8-6.5l5.7 5.1q3.85 3.3 5 3.8l9.3 2.25q1.2 0.6 4.2 1.4l3.6 1.05q1.5 0.75 5.1 1.95" fill="#a7a098"/>
 <g fill="#67ae3e">
  <path d="m218 118.5q3.65 0 6.4 2.85 2.7 2.9 2.6 6.65-0.1 3.4-2.4 6.2-2.5 3.1-6.15 3.1-4.35 0-7.05-2.85-2.45-2.55-2.45-5.85 0-4.5 2.75-7.35 2.6-2.75 6.3-2.75"/>
  <path d="m210.05 141.6q2.15-0.1 3.8 1.35 1.7 1.55 1.7 4 0 2.2-1.65 3.8-1.65 1.55-3.7 1.4-2.35-0.2-3.8-2.05-1.25-1.6-1.25-3.15 0-1.9 1.4-3.55 1.45-1.7 3.5-1.8"/>
  <path d="m191.95 54.153q1.7-0.1 3.3 1.3 1.8 1.55 1.8 3.7 0 2-1.55 3.45-1.5 1.4-3.4 1.25-2.15-0.15-3.55-1.85-1.15-1.4-1.15-2.85 0-1.7 1.3-3.25 1.4-1.55 3.25-1.75"/>
  <path d="m194 76.853q5.65-6 13.9-5.85 7.05 0.15 12.95 5.35 6.6 5.8 6.6 14.35 0 8.65-5.3 14.7-5.65 6.4-14.4 6.4-8.35 0-13.8-5.45-5.6-5.6-5.6-14.55 0-8.95 5.65-14.95"/>
 </g>
 <path d="m200.25 92.103q0-3.6 2.4-6.1 2.25-2.3 5.1-2.3t5.15 2.25q2.5 2.4 2.5 6 0 4-2 6.45-2.05 2.55-5.65 2.55-3.4 0-5.55-2.9-1.95-2.6-1.95-5.95" fill="#ffea81"/>
 <g fill="#67ae3e">
  <path d="m174.15 45.053q3.5 0 5.85 2.65 2.1 2.4 2.1 5.25t-1.9 5.05q-2.25 2.6-6.05 2.6-3.65 0-6.1-2-2.65-2.1-2.65-5.65t2.55-5.75q2.45-2.15 6.2-2.15"/>
  <path d="m51.402 74.503q1.7-0.1 3.3 1.3 1.8 1.55 1.8 3.65 0 2.05-1.55 3.45-1.5 1.4-3.4 1.25-2.2-0.15-3.55-1.85-1.15-1.4-1.15-2.85 0-1.7 1.3-3.2 1.35-1.6 3.25-1.75"/>
  <path d="m48.052 166q1.7-0.1 3.3 1.3 1.8 1.55 1.8 3.7 0 2-1.55 3.4-1.5 1.4-3.4 1.3-2.2-0.15-3.55-1.9-1.15-1.4-1.15-2.8 0-1.75 1.3-3.25 1.35-1.6 3.25-1.75"/>
  <path d="m133.45 208.3q1.95-0.15 3.5 1.2 1.7 1.45 1.7 3.65 0 2-1.55 3.45-1.5 1.4-3.4 1.25-2.2-0.15-3.55-1.85-1.15-1.4-1.15-2.85 0-1.7 1.25-3.15 1.35-1.5 3.2-1.7"/>
  <path d="m51.502 93.103q2.1 2.75 2.1 6.05 0 3.25-1.85 5.8-2.25 3-5.95 3-3.55 0-5.95-2.3-2.6-2.45-2.6-6.5 0-4.15 2.5-6.7 2.35-2.45 6.05-2.45 3.4 0 5.7 3.1"/>
  <path d="m61.202 178.4q3.4 0 5.7 2.75 2.1 2.45 2.1 5.35 0 2.85-1.85 5.1-2.25 2.7-5.95 2.7-3.55 0-5.95-2-2.6-2.2-2.6-5.8 0-3.65 2.5-5.9 2.35-2.2 6.05-2.2"/>
 </g>
 <path d="m92.352 201.45q3.25 0 5.5 2.6 2.05 2.4 1.9 5.1-0.2 3.2-1.9 5.15-1.95 2.3-5.5 2.3-3.2 0-5.6-2.2t-2.35-5.35q0.1-3.5 2.35-5.6 2.15-2 5.6-2" fill="#ffea81"/>
 <path d="m153.65 200.5q3.4 0 5.7 2.7 2.1 2.4 2.1 5.3 0 2.8-1.85 5.05-2.25 2.6-5.95 2.6-3.6 0-6-2-2.6-2.1-2.6-5.65 0-3.65 2.5-5.85 2.4-2.15 6.1-2.15" fill="#67ae3e"/>
 <path d="m137.3 26.403q9 0 15 5.95 5.65 5.65 5.65 13.45 0 7.3-5.7 13-5.9 5.95-14.15 5.95-8.2 0-14.3-5.1-6.65-5.55-6.65-14.15 0-8.5 6.65-14.1 6-5 13.5-5" fill="#67ae3e"/>
 <path d="m137.1 38.303q3.25 0 5.45 2.15 2.05 2 2.05 4.8 0 2.65-2.05 4.7-2.15 2.1-5.2 2.1-3 0-5.25-1.85-2.4-2-2.4-5.05t2.45-5.05q2.2-1.8 4.95-1.8" fill="#ffea81"/>
 <path d="m84.152 36.153q7.7 0.45 11.85 7.75 3.9 6.75 1.75 13.05-2.3 6.75-8.2 10.65-5.95 3.9-12.15 2.65-6.95-1.4-10.65-7.2-3.8-6.05-1.7-13.45 2.05-7.1 7.7-10.65 5-3.15 11.4-2.8" fill="#67ae3e"/>
 <path d="m85.802 49.653q1.25 2.4 0.5 4.6-0.8 2.3-2.8 3.65-2 1.3-4.1 0.9-2.4-0.5-3.65-2.45-1.3-2.05-0.6-4.6 0.7-2.4 2.75-3.8 1.85-1.2 3.95-1.1 2.6 0.15 3.95 2.8" fill="#ffea81"/>
 <path d="m45.202 147.4q-4.3 5.55-11.8 6.4-6.85 0.8-12.75-4.4-6.35-5.5-6.8-14.1-0.4-8.8 4.1-14.55 4.05-5.2 10.3-6.05 6.3-0.85 12.35 3.7 6.75 5.1 7.95 13.85 1.2 9.2-3.35 15.15" fill="#67ae3e"/>
 <path d="m30.102 126.6q2.5-0.35 4.9 1.5 2.65 2.1 3.1 5.75 0.5 3.8-1.3 6.25-1.7 2.3-4.65 2.65-2.7 0.3-5.05-1.8-2.5-2.3-2.65-5.85-0.2-3.65 1.6-6 1.55-2.15 4.05-2.5" fill="#ffea81"/>
 <path d="m182.85 165.4q8.6 0.2 13.55 7.75 5.25 7.9 1.55 17.45-2.75 7.05-8.75 11.2-6.7 4.65-14.2 3.1-8.5-1.7-11.8-9.3-3.05-7.05-0.2-15.2 2.6-7.55 8.5-11.6 5.2-3.5 11.35-3.4" fill="#67ae3e"/>
 <path d="m180.95 177.6q3.65-0.05 5.65 2.1 2 2.1 2 6t-2.1 6.15q-2.05 2.25-5.55 2.25-3.3 0-5.55-1.95-2.4-2.1-2.4-5.8 0-4.2 2.4-6.55 2.15-2.1 5.55-2.2" fill="#ffea81"/>
 <path d="m78.752 102.1q5.65 7.95 13.6 11.4 7 3.05 14.6 2.2l3.85 12.95q2.95 9.8 3.1 11.3 3.05-3.85 6.3-12.65l3.1-9.1q0.8-1.7 1.8-2.1l3.4-0.3q6.8 0 16.6-4.25 10.65-4.6 14.4-10.25 0.45 6.15-1.5 13.45-2.1 7.65-5.3 10.4-5.9 5.05-12.65 6.1-6.25 1-14.9-1.25l-6.3 11.4q2.45 4.7 5.5 8.8 2.55 3.4 4.6 5.25 1.9-3.65 4.9-8.35 3.5-5.45 4.8-6.35l6.8 8.5q4.9 6.3 5.25 7.1 2.9-0.95 6-5.1l5.25-8.15q-0.8 6.65-3.85 14.3-2.8 7-5.15 9.55-1.9-1.75-6.1-7.6-3.8-5.35-4.9-6-3.15 4.25-8.15 12.3-4.15 6.25-7.05 7.5-3-3-8.3-11.45l-6.15-9.55q-2.15 1.35-9.25 10.95-6.75 9.2-8.05 9.65-2.45-2.2-6.5-9.1-3.8-6.45-4.25-8.6-2.05 4.7-3.55 7.2-1.65 2.7-4.05 5-3.6-3.3-6.1-10.85-0.9-2.7-2.8-10.9 2.4 3.35 5.5 6.5 2.45 2.55 4.45 4.1 1.75-5.2 4.4-10.1l3.45-6.55q4.1 4.2 9.85 19.9l9-11.2q5.4-7.1 5.8-8.05l-1-4.75q-0.75-2.8-0.7-3.65-4.3 1.85-9.7 1.75-7.5-0.25-12.6-4.9-5.15-4.75-7.25-12.9-2-7.7-0.2-13.55" fill="#67ae3e"/>
 <g fill="#519032">
  <path d="m109.2 220.95q-3.55 3.8-9.6 5.05-6.15 1.2-12.85-0.7l-2.5-0.85q13.15-1.4 24.95-3.5"/>
  <path d="m138.55 214.1q-0.35 1.7-1.8 2.8-1.4 1.05-3.05 0.95-1.9-0.15-3.25-1.5l8.1-2.25"/>
  <path d="m153.65 216.15q-2.55 0-4.65-1.1-2.1-1.15-3.15-3.15 7.6-2.45 15.25-5.55l0.35 2.15q0 2.8-1.85 5.05-2.25 2.6-5.95 2.6"/>
  <path d="m199.2 185.9-1.25 4.7q-2.75 7.05-8.75 11.2-6.7 4.65-14.2 3.1-3.05-0.6-5.6-2.1 16.4-7.45 29.8-16.9"/>
 </g>
 <path d="m195.7 55.003q2.1 1.8 2.1 4.15 0 2.05-1.9 3.8-1.85 1.75-3.85 1.6-2.4-0.15-3.95-2-1.4-1.65-1.4-3.4 0-2 1.45-3.7 1.55-1.8 3.75-2 1.85-0.15 3.8 1.55m0.65 4.15q0-1.75-1.4-3.05-1.55-1.35-2.95-1.2-1.55 0.1-2.75 1.5-1.1 1.3-1.1 2.75 0 1.1 0.95 2.3 1.15 1.5 3.05 1.65 1.55 0.15 2.9-1.05 1.3-1.3 1.3-2.9" fill="#0f141b"/>
 <path d="m212.8 98.003q1.85-2.25 1.85-6.05 0-3.2-2.25-5.45-2.05-2.1-4.65-2.1t-4.6 2.15q-2.15 2.25-2.15 5.55 0 3.15 1.8 5.5 1.95 2.6 4.95 2.6 3.2 0 5.05-2.2m-13.45-5.9q0-4 2.7-6.75 2.5-2.6 5.7-2.6 3.25 0 5.8 2.55 2.75 2.7 2.75 6.6 0 4.55-2.3 7.25-2.35 2.75-6.25 2.75-3.75 0-6.15-3.1-2.25-2.85-2.25-6.7" fill="#ffea81"/>
 <path d="m167.2 46.603q2.7-2.5 6.95-2.5 3.75 0 6.4 2.85 2.45 2.7 2.45 6 0 3.05-2.5 5.75-2.85 3.1-7.05 3.1-3.75 0-6.25-2.3-2.7-2.45-2.7-6.55 0-3.9 2.7-6.35m12.3 1.65q-2.15-2.5-5.35-2.5-3.55 0-5.75 2-2.25 2-2.25 5.2 0 3.35 2.55 5.3 2.25 1.65 5.45 1.65 3.4 0 5.45-2.4 1.75-2 1.75-4.55 0-2.5-1.85-4.7" fill="#0f141b"/>
 <path d="m92.402 200.35q3.5 0 6 2.65 1.25 1.3 1.9 3 0.65 1.65 0.55 3.25-0.25 4-2.5 6.2-2.25 2.25-5.95 2.25-4 0-6.75-2.85-2.45-2.45-2.35-5.8 0.1-3.9 2.6-6.3 2.55-2.4 6.5-2.4m6.6 8.8q0.15-2.6-1.9-4.85-2-2.15-4.75-2.15-3.2 0-5.15 1.9-2 1.9-2.1 5.05 0 2.65 1.85 4.5 2.2 2.3 5.4 2.3 3.65 0 5.4-2.6 1.15-1.75 1.25-4.15" fill="#ffea81"/>
 <path d="m122.75 30.703q6.35-5.4 14.55-5.4 10 0 16.2 6.05 6 5.8 5.8 14.45-0.2 8-5.95 13.75-6.05 6.05-15.25 6.25-8.6 0.25-15.2-5.25-7.1-5.95-7.1-15.05 0-8.9 6.95-14.8m34.45 15.1q0-7.35-5.3-12.8-5.7-5.9-14.6-5.9-6.95 0-12.8 4.7-6.65 5.4-6.65 13.7t6.4 13.6q5.9 4.9 13.85 4.9 8.05 0 13.75-5.85 5.35-5.5 5.35-12.35" fill="#0f141b"/>
 <path d="m128.8 45.153q0-3.4 2.65-5.65 2.45-2.1 5.65-2.1 3.75 0 6.2 2.5 2.25 2.3 2.25 5.35 0 2.9-2.3 5.2-2.4 2.5-5.9 2.5-3.35 0-5.85-2.1-2.7-2.25-2.7-5.7m8.3-6.15q-2.4 0-4.35 1.6-2.3 1.75-2.3 4.55 0 2.75 2.2 4.5 2 1.65 4.7 1.65 2.75 0 4.7-1.95 1.85-1.85 1.85-4.1 0-2.45-1.8-4.25-1.95-2-5-2" fill="#ffea81"/>
 <path d="m84.252 35.053q7.65 0.45 12.55 7.75t2.5 14.45q-2.45 7.2-8.95 11.3t-13.15 2.75q-7.85-1.55-11.65-7.95-3.75-6.3-1.55-14 2.2-7.75 8.45-11.5 5.2-3.15 11.8-2.8m10.45 8.1q-1.9-2.85-4.65-4.45t-5.95-1.8q-5.95-0.35-10.7 2.5-5.65 3.4-7.65 10.4-2 6.85 1.5 12.6 1.65 2.75 4.35 4.6 2.7 1.9 5.95 2.55 6 1.15 11.65-2.55t7.85-10.3q1-3 0.35-6.75-0.65-3.7-2.7-6.8" fill="#0f141b"/>
 <g fill="#ffea81">
  <path d="m81.952 45.953q2.65 0.15 4.25 2.55 0.9 1.35 1.2 3 0.25 1.65-0.2 3.05-0.9 2.65-3.25 4.15-2.3 1.5-4.75 1-2.85-0.65-4.3-2.95-1.45-2.45-0.6-5.25 0.8-2.85 3.15-4.35 2.1-1.3 4.5-1.2m2.9 3.45q-1.2-1.75-3.05-1.8-1.85-0.1-3.45 0.9-1.85 1.2-2.5 3.45-0.6 2.1 0.45 3.9 1.1 1.75 3.25 2.25 1.8 0.35 3.6-0.85t2.5-3.25q0.35-0.95 0.1-2.25-0.2-1.3-0.9-2.35"/>
  <path d="m35.902 127.3q2.75 2.35 3.25 6.4 0.45 3.6-1.5 6.65-2.05 3.1-5.4 3.5-3.4 0.4-6.1-2.35-2.6-2.65-2.75-6.35-0.2-4.15 1.9-6.85 1.85-2.4 4.65-2.8 3.25-0.5 5.95 1.8m1.5 6.65q-0.45-3.65-2.55-5.4-1.9-1.65-4.65-1.25-2.2 0.35-3.65 2.25-1.55 2.1-1.4 5.5 0.15 3.25 2.35 5.3 2.05 1.95 4.55 1.7 2.9-0.35 4.3-2.3 1.5-2.1 1.05-5.8"/>
  <path d="m174.95 178.95q2.45-2.15 6-2.25 3.9-0.1 6.25 2.35 2.3 2.4 2.3 6.65t-2.3 6.75q-2.35 2.55-6.25 2.55-3.55 0-6.05-2.1-2.85-2.4-2.85-6.55 0-4.8 2.9-7.4m1.05 1.3q-2.3 2.1-2.3 6.1 0 3.4 2.3 5.3 2 1.7 4.95 1.7 3.25 0 5.1-2 1.8-2.05 1.8-5.65 0-7.55-6.9-7.35-3 0.1-4.95 1.9"/>
 </g>
 <g fill="#0f141b">
  <path d="m86.959 224.63c-5.7697-1.6187-10.823-5.6078-13.525-10.677-2.0711-3.8885-2.5623-7.99-1.3847-11.556 1.2989-3.9506 3.9825-7.04 7.7521-8.9399 4.7696-2.4029 11.057-2.7018 16.824-0.79859 6.4323 2.1248 11.542 6.179 14.013 11.13 1.9233 3.853 2.1658 7.9841 0.71627 12.278-2.7073 8.0226-13.196 11.707-24.395 8.564m-16.652-22.804c-3.0062 9.1116 3.7399 21.017 16.167 24.497 12.161 3.415 23.602-0.73987 26.611-9.6561 3.731-11.053-1.9972-21.088-15.918-25.684-11.684-3.8559-23.546 0.79273-26.86 10.843"/>
  <path d="m154.36 2.9262c3.5328-0.30198 21.723 1.1719 39.467 5.7173 8.3823 2.6604 14.835 6.8241 22.78 12.071-5.5181-0.55615-27.114-2.11-27.792-2.2224-1.3965-0.23404-1.6303 0.76335-0.44368 1.3584 4.092 2.0449 9.7995 7.5994 10.015 7.8036-1.8995 0.0419-10.326-0.13925-12.362 0.58636-1.6954 0.60397-1.1362 1.166-0.78671 1.4827 1.3462 1.2251 5.9886 6.1139 7.3496 6.8922 2.3434 1.3405 21.158 5.3296 24.295 5.6167 3.5801 0.32548 14.19 11.284 15.102 12.151 4.4914 3.8501 12.791 17.966 14.125 25.29 1.3344 7.3242 10.649 19.182 10.226 23.239-0.42607 4.0571-1.6658 24.429-1.6658 24.429 0 14.589-3.5298 30.844-10.16 47.15-3.1363-12.376-6.9058-23.218-7.0745-23.698-0.48813-1.4056-1.2664-0.48233-1.3876 0.0856-1.5623 7.194-3.9322 15.471-6.0922 19.715-0.82865-6.4542-2.7694-12.829-4.6157-14.847-0.54432-0.5981-1.003-0.54189-1.2338 0.3045l-3.45 12.728c-2.2132 7.9516-3.3434 12.334-3.1157 19.253-0.20129 8.8718-4.589 20.508-7.3141 22.985-2.728 2.4799-46.959 26.154-49.202 28.172-6.8526 6.1701-15.895 8.2326-21.919 8.9044 7.5538-5.661 12.776-10.277 15.232-13.808 0.30445-0.43536 0.22477-1.0061-1.2693-1.1008-4.3406-0.28437-15.51 0.19797-17.288 0.24243 1.6805-1.0062 9.4562-5.5694 11.155-6.8892 0.79929-0.61823-0.234-1.1097-0.88173-1.3879-4.521-1.9383-14.324-0.93514-24.993 5.5486-8.9592 5.448-32.866 7.8598-40.228 5.8801-24.354-6.5607-43.885-18.919-56.812-27.098-4.2133-2.6663-7.6632-4.8325-10.439-6.2914 3.1334-0.3045 8.6752 1.0476 13.679 2.113 5.9501 1.2695 11.675 2.3052 16.019 1.7873 1.1095-0.13337 0.86983-0.98539 0.29019-1.3375-6.8201-4.1252-15.776-10.813-20.191-14.107 3.9707-0.46725 16.341 3.9625 23.679 3.338 0.624-0.0503 1.577-0.32883 0.42019-1.2784-7.2787-5.9984-12.022-12.743-15.833-18.164-2.1569-3.0747-4.0239-5.7292-5.8081-7.3981-10.557-9.8781-20.285-23.156-21.608-27.986-1.0207-3.7228-1.5533-9.9195-1.5533-17.179 0-17.054 2.9499-39.941 9.406-50.411 1.6392 3.7938 3.4558 10.035 3.8464 12.201 0 0 1.4942 8.7298 3.0741 11.296 0.42942 0.70128 1.2072 0.94102 1.3315-0.30785 0.73723-7.3686 1.7842-9.9609 2.9943-12.962 0.26-0.65094 0.52923-1.3139 0.79846-2.0418 0.51497 2.1898 1.0889 4.1518 1.6481 6.0635l0.80768 2.8083c0.59213 2.0449 1.2279 0.18622 1.7635-0.87886 1.2279-2.9593 2.5001-6.0221 2.8552-9.3543 0.47052-4.3915 3.0801-9.3069 4.9856-12.899 1.7782-3.0865 3.7695-9.6206 6.172-15.107 2.8996-6.6258 33.423-31.312 49.382-35.286 2.9914-0.78684 24.599 6.1405 27.082 5.2113 2.006-0.75161 26.703-17.628 35.538-18.383m-0.49736-2.8852c-6.024 0.63333-25.247 12.396-35.621 19.386-2.5623-0.15351-23.534-6.3802-28.04-5.6847-5.0891 0.79019-42.755 22.189-49.527 36.257-1.1806 2.4592-2.3286 5.6167-3.1422 7.8953-0.96452 2.7018-1.5681 4.4566-3.0032 7.1644-1.9617 3.6961-4.4559 8.067-4.953 12.731-0.29858 2.7935-0.99412 5.6876-2.086 8.3392-0.0973-0.34645-1.8817-5.9452-2.4943-9.1589-0.52084-2.7404-1.2782-0.46136-1.3965-0.0839-0.55942 1.7992-1.4616 3.5925-1.9794 4.8798-1.0918 2.7048-1.7339 4.4508-2.4646 10.044-0.83704-2.5154-1.3285-7.9604-1.3285-7.9604-0.45542-2.5391-3.16-11.396-5.0003-15.078-0.31955-0.6392-0.49736-1.1452-1.2368-0.0914-11.14 15.879-13.081 62.657-10.672 71.449 1.3728 5.016 12.119 19.425 22.925 29.374 2.2665 2.0863 14.099 18.812 19.324 23.384-4.6778 6e-3 -7.8171-1.3998-12.036-2.3172-3.7251-0.81116-8.042-0.79606-11.735-0.95285-2.9351-0.12163 1.1422 2.2756 1.4143 2.7018 3.9766 2.9711 11.439 8.6026 18.049 12.808-5.9147 0.4169-24.306-6.1524-30.07-3.6577-1.3462 0.583-0.66258 1.0121 8e-3 1.314 2.9144 1.3079 10.169 6.4216 15.258 9.7093 15.557 10.056 31.348 19.797 55.912 26.414 8.4 2.261 31.911-0.40265 41.494-6.4926 9.119-5.7972 18.057-7.1378 22.546-5.6877-1.6658 1.1482-12.539 7.2591-12.539 7.2591-1.0503 0.62997-1.4438 1.3791 0.38749 1.3317 0 0 15.56-0.60649 19.543-0.44123-2.8286 3.56-9.2048 8.6796-17.007 14.385-0.7129 0.52092-1.7724 1.4442 0.47052 1.3051 5.9264-0.36993 18.732-1.6069 26.955-9.0081 2.1185-1.9028 17.513-10.754 29.745-17.483 13.613-7.4928 17.711-8.5078 21.081-11.559 3.373-3.0539 7.3053-19.185 7.3053-27.317 0-4.2228 0.10651-7.0697 2.2872-14.897 0 0 2.3759-8.7743 3.0327-11.186 1.4676 2.7876 2.944 8.9607 3.4914 15.125 0.0587 0.74238-0.13335 2.3793 1.296 0.36994 2.3492-3.3084 5.027-11.636 6.7904-19.132 1.4054 4.2318 4.3524 14.222 6.749 24.088 0.75735 3.0984 1.0977 2.2165 1.9883 0.11241 7.2638-17.173 11.72-37.136 11.72-52.53-0.96754-14.536 1.4883-20.431 1.3462-24.432-0.19794-5.7203-9.0154-15.995-9.8172-22.849-0.82529-7.0016-10.051-23.366-14.403-27.095 0 0-13.223-13.332-17.478-13.556-3.2132-0.16861-20.942-3.122-22.925-4.2554-1.1746-0.67444-4.9352-4.214-5.8732-5.1166 1.6421-0.32883 14.039-0.5981 14.039-0.5981 1.4054-0.0335 1.4587-0.30786 0.43529-1.2724 0 0-6.033-5.2734-8.9829-7.2265 1.4676 0.11241 23.002 1.0683 28.325 1.7164 3.5031 0.43201 0.1778-1.4796-1.1569-2.403-8.4444-5.5752-16.921-10.319-25.839-13.145-17.948-4.5987-37.512-7.262-41.112-6.8802"/>
  <path d="m180.61 229.43c3.7222 2.6692 5.021 18.59 2.66 24.032-3.3464 7.7178-11.232 13.823-20.581 15.933 0 0-15.214 3.4623-19.451 3.8027-14.06 1.1304-22.508 1.2251-35.405-1.2133-20.238-3.8174-31.269-30.057-26.878-33.561 0.31367-0.2483-2.0504-1.0564-2.3611-0.80781-4.8081 3.8411 4.8524 31.966 28.132 36.361 17.747 3.3529 27.339 1.9265 36.766 1.1689 4.3435-0.34897 20.862-3.9388 20.862-3.9388 9.7848-2.2106 18.247-9.085 21.774-17.22 3.7251-8.5908-0.39923-23.446-3.6955-25.796-0.32207-0.23656-2.148 1.0091-1.8226 1.24"/>
  <path d="m83.18 247.21c1.6214 1.7638 4.5388 3.8974 6.5064 4.7555 1.9942 0.87299 2.5741-0.4555 0.57955-1.3228-1.7841-0.77845-4.5417-2.7995-6.0241-4.4123-1.7456-1.8998-2.8138-0.92332-1.0621 0.97952"/>
  <path d="m98.971 254.24c1.7782 1.3613 7.2106 2.1455 7.7846 2.4414 1.9439 1.0032 9.3586 3.3707 11.693 3.5956 4.4648 0.42613 7.3319 0.51169 11.137 0.30198 2.3641-0.1275 5.1661-0.3196 8.0183-0.76922 2.5593-0.40517 2.3345-1.8318-0.23064-1.4293-2.7842 0.44124-4.9856 0.20972-7.3111 0.33722-3.7162 0.20384-7.9651 0.38503-12.365-0.0335-2.157-0.2072-8.4651-2.3526-10.282-3.2848-0.72213-0.37328-1.9557-0.68953-3.3878-1.0535-1.5533-0.39929-3.3138-0.84933-4.4085-1.3968-2.66-1.3317-3.0062-0.51505-0.64832 1.2932"/>
  <path d="m171.65 249.31c-5.811 3.2523-11.297 6.324-18.3 6.6229-3.4056 0.14177-3.3405 1.5862 0.0587 1.4442 7.3437-0.31373 12.98-3.4683 18.942-6.8063 3.2458-1.814 2.5416-3.0747-0.70452-1.2607"/>
  <path d="m209.71 128.61c0-6.0813 4.2725-9.3631 8.2935-9.3631 2.1155 0 4.2399 0.93808 5.8258 2.5775 1.6332 1.6808 2.5327 3.924 2.4617 6.1523-0.10651 3.5245-2.9559 8.6203-7.832 8.6203-6.0359 0-8.7491-4.6697-8.7491-7.987m-1.8078 0.0252c0 4.8088 3.956 9.7833 10.575 9.7833 6.0774 0 9.4947-6.0369 9.625-10.396 0.13587-4.4064-4.4708-10.6-10.098-10.6-4.8998 0-10.101 3.9298-10.101 11.213"/>
  <path d="m213.42 143.55c0.91134 0.86116 1.4143 2.0656 1.4143 3.3913 0 1.237-0.54181 2.4473-1.4823 3.3174-0.88467 0.81956-2.009 1.2428-3.089 1.16-3.1156-0.24243-4.3761-3.2581-4.3761-4.4774 0-2.0745 1.8019-4.4921 4.2074-4.6253 1.2131-0.0671 2.4232 0.38168 3.3257 1.234m-3.4174-2.8675c-3.3878 0.18623-5.7489 3.4505-5.7489 6.2618 0 2.3112 2.0977 5.812 5.8939 6.1051 2.8611 0.22229 6.317-2.9209 6.317-6.1051 0-3.2226-2.4913-6.4837-6.462-6.2618"/>
  <path d="m189.08 91.783c0-5.8505 2.1156-11.151 5.9502-14.924 3.444-3.3913 8.0153-5.2142 12.871-5.1343 7.7017 0.12751 18.842 6.9603 18.842 18.99 0 9.8721-6.6513 20.363-18.984 20.363-10.995 0-18.679-7.9338-18.679-19.294m-2.0564 6e-3c0 12.234 8.8763 21.626 20.732 21.114 14.903-0.64507 21.294-10.929 21.294-22.203 0-13.175-12.693-20.413-21.126-20.552-12.172-0.19797-20.901 9.2418-20.901 21.641"/>
  <path d="m55.808 79.469c0 2.4798-1.4765 4.1785-4.1896 3.9743-2.8641-0.21307-4.0181-2.8942-4.0181-3.9743 0-1.8229 1.6924-4.075 3.876-4.2526 0.97349-0.0755 4.3317 1.018 4.3317 4.2526m-4.447-5.6937c-3.0683 0.2483-5.2075 3.199-5.2075 5.6937 0 2.0507 1.9084 5.158 5.3553 5.4184 2.2161 0.16274 5.746-1.9205 5.746-5.4184 0-3.3765-3.2429-5.9068-5.8939-5.6937"/>
  <path d="m51.032 167.96c0.91419 0.84338 1.4173 1.9176 1.4173 3.0333 0 1.0713-0.47974 2.1277-1.3078 2.8971-0.81691 0.76084-1.87 1.1541-2.8848 1.0772-2.8612-0.21306-4.018-2.8942-4.018-3.9743 0-1.82 1.6924-4.075 3.879-4.2525 0.88761-0.0671 2.0327 0.40516 2.9144 1.2192m-3.0299-2.6574c-3.0712 0.24829-5.2075 3.1989-5.2075 5.6907 0 2.0507 1.9055 5.158 5.3525 5.4154 1.4173 0.10653 2.8641-0.42614 3.9795-1.4589 1.1214-1.0416 1.7664-2.4858 1.7664-3.9565 0-3.3854-3.1452-5.9156-5.8909-5.6907"/>
  <path d="m136.62 210.16c0.85506 0.78432 1.3255 1.8525 1.3255 3.0037 0 3.2138-2.1096 4.1312-4.1926 3.9743-2.8611-0.21307-4.0151-2.8912-4.0151-3.9743 0-1.7844 1.5682-3.9151 3.8228-4.1104 1.0593-0.0948 2.2043 0.32296 3.0594 1.1067m-3.1837-2.5479c-3.0772 0.26592-5.1424 3.0895-5.1424 5.5516 0 2.0508 1.9055 5.161 5.3524 5.4184 3.2695 0.24579 5.746-3.0629 5.746-5.4184 0-2.9297-2.8494-5.8209-5.956-5.5516"/>
  <path d="m37.986 99.14c0-4.9686 3.2191-8.4369 7.829-8.4369 4.5595 0 7.0804 4.9864 7.0804 8.4369 0 3.3588-2.1955 8.0847-7.0804 8.0847-3.7695 0-7.829-2.5301-7.829-8.0847m-1.938 0c0 6.2589 5.1601 9.5318 9.767 9.5318 5.882 0 8.5893-5.8328 8.5893-9.7922 0-4.0394-3.0979-9.6236-8.5893-9.6236-5.459 0-9.767 4.0661-9.767 9.884"/>
  <path d="m53.419 186.52c0-4.3413 3.2191-7.3715 7.829-7.3715 4.5595 0 7.0774 4.356 7.0774 7.3715 0 2.9326-2.1954 7.0608-7.0774 7.0608-3.7724 0-7.829-2.2106-7.829-7.0608m-1.6362 3e-3c0 5.7025 4.7666 8.6914 9.4711 8.6914 6.0064 0 8.548-4.7408 8.7078-8.6914 0.16858-4.2554-3.5743-9.005-8.7078-9.005-5.5743 0-9.4711 3.702-9.4711 9.005"/>
  <path d="m145.82 208.51c0-4.2791 3.2191-7.268 7.829-7.268 4.5595 0 7.0803 4.2969 7.0803 7.268 0 2.8912-2.1983 6.9602-7.0803 6.9602-3.7695 0-7.829-2.1781-7.829-6.9602m-1.6421 3e-3c0 5.6403 4.7695 8.5907 9.48 8.5907 6.0122 0 8.7136-5.0248 8.7136-8.5907 0-4.211-3.5772-8.9045-8.7136-8.9045-5.5803 0-9.48 3.6606-9.48 8.9045"/>
  <path d="m14.617 135.29c-0.62736-12.246 6.6809-18.886 13.741-19.874 9.3053-1.3021 18.377 8.5908 19.498 16.954 1.7013 12.651-6.3347 19.809-14.486 20.73-9.1574 1.0328-18.179-6.5814-18.753-17.809m13.454-21.875c-7.9059 1.1068-16.099 8.4576-15.403 21.982 0.50574 9.8484 8.3912 20.975 20.928 19.706 10.918-1.1038 18.395-10.325 16.699-22.985-1.5089-11.242-12.415-20.076-22.223-18.703"/>
  <path d="m175.16 204.23c-4.6571-0.93221-8.2757-3.4505-10.465-7.2739-2.5919-4.5336-2.9647-10.633-0.99413-16.32 3.7784-10.911 12.684-14.625 19.164-14.492 5.0832 0.10653 9.9002 2.832 12.888 7.2916 3.2547 4.8532 3.8109 11.014 1.5327 16.903-3.2695 8.4458-11.921 15.93-22.126 13.891m-13.158-24.16c-4.9027 14.154 1.6008 23.719 12.773 25.956 11.19 2.2372 20.643-5.883 24.197-15.063 4.7785-12.355-3.0061-26.37-16.034-26.642-7.0922-0.14763-16.83 3.8885-20.936 15.749"/>
  <path d="m107.81 131.72v-0.0587zm6.6632 8.7062c4.024-5.084 9.5243-21.902 9.5243-21.902 0.92612-1.9916 1.2634-1.9916 4.5033-1.9916 7.9769 0 23.798-5.7824 30.348-13.204-0.0755 19.842-11.548 31.667-33.491 25.988-0.31955-0.0839-0.65419 0.0587-0.81356 0.35232l-5.6098 10.183c-0.29271 0.61823-0.97349 1.3554-0.69194 1.9028 3.4115 6.5666 7.2993 11.547 9.9504 13.903 0.47638 0.42278 0.7691 1.3849 1.4261 0.12415 1.9883-3.8323 6.9029-11.884 8.9888-13.962 3.2162 3.9418 11.027 13.858 11.468 14.838 0.15097 0.33722 0.53259 0.50918 0.88174 0.39677 3.8582-1.2488 7.2698-6.1464 9.48-10.067-2.1451 9.5052-5.9738 18.333-7.5153 18.904-0.61561 0.23069-9.3498-12.426-10.601-13.163-0.31955-0.18622-0.728-0.10318-0.94682 0.19545-2.1155 2.8616-13.042 19.321-14.477 19.315-1.432-6e-3 -13.178-19.555-14.013-20.537-0.23064-0.27262-0.62987-0.33134-0.93499-0.14176-2.2901 1.4323-15.489 19.3-16.812 20.283-3.5092-3.5067-9.6723-14.675-10.146-16.936-0.14761-0.69289-0.51748-2.104-1.37-0.13925-2.3463 5.3977-3.9795 8.4458-6.9236 11.426-4.1718-4.2377-6.3051-12.272-7.5182-17.673 3.1895 3.9418 6.462 6.898 8.113 8.1587 0.69194 0.53015 1.003-0.0973 1.1184-0.34058 2.7458-5.7173 6.8289-14.459 7.3615-15.578 3.5092 4.4566 7.7077 15.436 8.9741 18.871 0.28684 0.77258 0.71291 0.80529 1.219 0.22816 4.6927-5.3444 14.998-19.688 14.989-19.809-0.13587-1.6424-1.7191-7.2621-1.8966-7.9664-0.22813-0.91737-0.598-1.3553-1.6037-0.91737-4.2814 1.8525-13.498 3.5008-20.738-3.1427-8.5982-7.8864-8.6042-19.3-7.5597-24.284 7.0006 9.0849 16.815 13.701 27.271 12.74 0.29271 0.98254 6.5951 21.946 6.7549 23.571 0.10903 1.0328 0.85213 0.93213 1.29 0.37581m44.693-40.018c-5.172 7.6941-22.94 14.231-30.993 14.231-4.7962 0-4.3139 0.1275-5.8377 3.3972 0 0-4.6305 14.758-8.0598 19.901-0.73639-3.0362-6.1247-22.399-6.1247-22.399-0.0973-0.33722-0.57955-0.82878-0.92611-0.79019-10.628 1.1985-21.247-3.8974-28.103-13.568-0.58626-0.82291-1.0445-0.55951-1.2811 0.20384-2.3611 7.5846-0.45878 21.064 7.0448 27.947 7.3349 6.7264 17.762 5.519 22.715 3.6902 0.11239 0.82543 1.213 5.4036 1.358 6.8596-0.9261 1.6128-8.1367 11.535-12.927 17.161-1.9764-5.2586-6.4472-14.503-9.9179-18.09-0.20381-0.21307-0.74226-0.8313-1.1835 0.22229-0.58877 1.3997-7.5271 15.444-7.5271 15.444s-6.0774-5.2734-9.2936-9.8011c-1.3965-1.9649-1.5445 0.20384-1.2397 1.9443 2.1569 9.8691 5.8702 21.185 9.9237 21.541 1.3345 0.11828 5.2638-6.5104 7.4296-11.328 1.8788 4.3146 8.9414 17.051 11.122 17.152s14.625-18.797 16.779-20.528c3.0801 5.3178 12.261 20.517 14.43 20.875 3.4558 0.57713 11.557-14.172 15.409-19.496 1.0503 0.98841 9.3912 13.604 11.492 13.37 2.0977-0.23404 8.619-16.744 9.7669-25.917 0.25413-2.0714-0.364-2.2047-1.3758-0.38755-3.2073 5.741-6.4827 10.079-10.77 12.911-1.8729-2.7995-8.8438-11.37-10.797-13.758-0.68942-0.84338-1.5297-1.6897-2.2931-0.84632-1.6362 1.7992-7.0803 9.1353-9.335 13.293-2.5031-2.4562-5.6365-6.5814-8.6515-12.302 0.19794-0.35483 5.2075-9.1974 5.6897-10.067 25.197 6.2884 36.263-8.5286 34.798-30.51-0.0671-1.021-0.72213-1.2459-1.3226-0.35483"/>
  <path d="m138.12 114.08c-2.5268 0.98539-4.4677 2.835-5.4708 5.2024-1.9469 4.6017 0.67432 11.094 5.9175 11.976 1.6984 0.28437 6.1247-1.8643 5.743-1.746-8.1544 2.5746-12.297-5.0218-10.329-9.6679 0.85213-2.0034 2.5061-3.5748 4.666-4.4182 3.6156-1.4115 6.6691 0.34058 7.4354 2.7995 0.52336 1.666-0.21639 5.4303-3.4974 6.688-2.4528 0.94102-4.0535 0.11241-4.8228-2.3083-0.38496-1.2074 0.41685-2.8231 1.5859-3.1989 1.6392-0.5268 2.6599 0.55028 2.1066 1.7518-0.79845 1.7312 0.26923 2.2816 1.1273 0.25165 0.3313-0.78684 0.16271-2.0419-0.53006-2.7166-0.81103-0.79019-2.0533-1.2015-3.1452-0.66269-3.6718 1.8111-2.7783 6.1197-0.45877 7.7799 1.074 0.76671 3.3109 1.0564 4.6542 0.45298 7.4384-3.3617 4.2222-11.088 1.083-12.168-1.3138-0.44963-3.3138-1.089-6.0656-0.0168"/>
  <path d="m93.475 114.45c-5.0921 1.3405-6.9472 6.7974-5.1364 10.692 1.6066 3.4594 5.3553 4.4153 8.1633 3.8412 1.6421-0.33721 2.9203-1.2193 3.592-2.4799 1.7279-3.2374-0.50322-9.0643-5.1572-7.629-1.9883 0.61236-3.0535 3.2108-1.6747 4.8651 1.0563 1.2695 2.4706 0.83465 1.2486-0.45885-1.5534-1.6424-0.36988-2.5272 0.85808-3.0273 3.5742-1.4589 4.7281 3.7021 3.3641 5.7055-1.4142 2.0745-6.8703 3.3469-9.0834-1.4234-1.5061-3.2433 0.50575-7.7178 4.1926-8.6884 2.7901-0.73063 6.4739 0.0336 8.4444 4.3679 1.5681 3.4623 1.503 7.4041-0.16858 9.81-1.2604 1.814-3.3819 2.6752-6.1336 2.4858-0.39923-0.0335-0.74226 0.27263-0.77245 0.67192-0.0252 0.39678 3.6245 0.67192 4.6985 0.2785 1.6658-0.60985 2.7842-1.7518 3.45-2.7107 1.9498-2.8084 2.3492-6.6229 0.57368-10.529-1.9262-4.2525-6.2372-6.8803-10.459-5.7705"/>
 </g>
</svg>
