<?xml version="1.0" encoding="UTF-8" standalone="no"?>
<svg
   version="1.1"
   viewBox="0 0 406.38 417.29"
   id="svg1923"
   sodipodi:docname="445-x.svg"
   inkscape:version="1.2.2 (b0a8486, 2022-12-01)"
   xmlns:inkscape="http://www.inkscape.org/namespaces/inkscape"
   xmlns:sodipodi="http://sodipodi.sourceforge.net/DTD/sodipodi-0.dtd"
   xmlns="http://www.w3.org/2000/svg"
   xmlns:svg="http://www.w3.org/2000/svg">
  <defs
     id="defs1927" />
  <sodipodi:namedview
     id="namedview1925"
     pagecolor="#505050"
     bordercolor="#eeeeee"
     borderopacity="1"
     inkscape:showpageshadow="0"
     inkscape:pageopacity="0"
     inkscape:pagecheckerboard="0"
     inkscape:deskcolor="#505050"
     showgrid="false"
     showguides="false"
     inkscape:zoom="1.1311078"
     inkscape:cx="222.34838"
     inkscape:cy="169.74509"
     inkscape:window-width="1309"
     inkscape:window-height="430"
     inkscape:window-x="97"
     inkscape:window-y="145"
     inkscape:window-maximized="0"
     inkscape:current-layer="svg1923" />
  <path
     d="m 327.86104,336.41606 c 0,0 -7.5e-4,0 -7.5e-4,7.5e-4 0,7.5e-4 0,7.5e-4 -7.5e-4,0.002 0,0 7.5e-4,0 7.5e-4,0 7.5e-4,-0.002 0,-7.5e-4 7.5e-4,-0.003"
     style="fill:#000000;fill-opacity:1;fill-rule:nonzero;stroke:none;stroke-width:0.999776"
     id="path13424" />
  <path
     d="m 327.86004,336.41886 c -0.043,0.097 0.054,-0.034 0,0"
     style="fill:#000000;fill-opacity:1;fill-rule:nonzero;stroke:none;stroke-width:0.999776"
     id="path13428" />
  <path
     d="m 288.05021,80.504557 c -9.53265,-2.26679 -23.16687,-9.667105 -15.42359,-20.556097 -0.44584,-0.576946 -0.68875,-0.887917 -0.68875,-0.887917 0,0 -23.75866,-3.851644 -35.47255,-20.393112 L 213.49638,56.81675 c 20.45481,-9.274141 38.37952,0.136988 68.21705,29.638256 l -2.52711,11.256958 c 3.48078,0.152986 11.1151,0.156985 15.28564,-0.656939 3.84765,-3.639664 6.30578,-6.81637 8.544,-10.377039 -5.56205,-0.65794 -12.00679,-2.469772 -14.96575,-6.173429"
     style="fill:#ffffff;fill-opacity:1;fill-rule:nonzero;stroke:none;stroke-width:0.999776"
     id="path13528" />
  <path
     d="m 293.45502,97.055025 c 2.95496,0.183983 9.55664,-9.231145 10.95015,-13.409759 -2.5661,-0.796926 -9.98749,-5.055531 -9.98749,-5.055531 l 10.71024,-6.740376 -2.40716,-12.999797 c 0,0 5.17419,1.203889 13.23736,9.750098 l 1.68441,-5.898455 c 3.24586,3.607666 9.87453,17.271401 9.0988,22.369929 -0.61978,4.071623 -10.06146,9.456125 -33.28631,11.983891"
     style="fill:#ffffff;fill-opacity:1;fill-rule:nonzero;stroke:none;stroke-width:0.999776"
     id="path13532" />
  <path
     d="m 326.96196,84.616776 c -3.01394,2.829739 -8.8389,3.876642 -24.57238,2.015813 -2.01029,3.902639 -3.66372,6.478401 -7.51036,10.117064 18.11664,-1.325877 31.317,-6.580391 32.08274,-12.132877"
     style="fill:#ffffff;fill-opacity:1;fill-rule:nonzero;stroke:none;stroke-width:0.999776"
     id="path13536" />
  <path
     d="m 283.34676,30.563381 c 0,0 -0.31889,-7.781279 2.68706,-8.327229 3.00495,-0.546949 18.71443,1.228886 34.69582,22.544913 15.98239,21.315026 10.38136,31.562077 9.56265,32.109027 -0.81871,0.546949 -4.37047,0.273974 -6.5567,-0.818924 0,0 -38.94434,-38.646422 -40.38883,-45.507787"
     style="fill:#4b5170;fill-opacity:1;fill-rule:nonzero;stroke:none;stroke-width:0.999776"
     id="path13540" />
  <path
     d="m 223.78037,2.0358229 c -3.27086,3.02172 -5.703,16.8304411 15.16268,38.9993881 20.7967,22.094955 38.00966,17.847348 39.0323,17.135414 3.38681,-2.357782 3.87164,-22.14595 -16.28929,-40.126285 C 237.61251,-3.4246714 225.71968,0.24398825 223.78037,2.0358229"
     style="fill:#4b5170;fill-opacity:1;fill-rule:nonzero;stroke:none;stroke-width:0.999776"
     id="path13544" />
  <path
     d="M 61.234113,291.26824 C 147.93568,263.31383 189.32416,181.13344 189.32416,181.13344 181.52789,172.24726 188.0546,159.9154 188.0546,159.9154 l -5.62102,-7.07434 -23.75167,-5.25851 c 1.45049,-2.53877 9.79157,-8.88618 9.79157,-8.88618 4.16954,-4.71456 66.35771,-63.655107 79.59406,-66.374855 13.23636,-2.720748 33.72317,14.326673 33.72317,14.326673 l -2.35718,10.518026 c 18.67545,1.813832 47.50334,-5.441496 47.14046,-12.694824 -0.79871,-15.950523 -25.18016,-50.840293 -57.66776,-58.963541 -8.98985,-2.248791 -32.85147,13.240774 -32.85147,13.240774 0,0 -37.051,27.880419 -48.12111,43.287992 0,0 -16.12534,6.740376 -16.60717,7.944264 -0.48084,1.203889 -1.92533,4.814555 -2.88799,16.369481 0,0 -27.19546,30.09222 -38.50749,38.51744 -11.31103,8.42622 -3.60973,11.55593 -3.60973,11.55593 -34.060052,87.95985 -72.128686,128.68108 -76.028323,134.17657 -1.16159,2.2078 -2.698048,5.06653 10.941166,0.66794"
     style="fill:#4b5170;fill-opacity:1;fill-rule:nonzero;stroke:none;stroke-width:0.999776"
     id="path13548" />
  <path
     style="fill:#f9be00;fill-opacity:1;stroke:none;stroke-width:0.749834px;stroke-linecap:butt;stroke-linejoin:miter;stroke-opacity:1"
     d="m 302.64126,58.424372 1.32566,7.45881 1.32567,5.967049 -8.94826,5.635546 -1.82279,1.160259 9.94251,5.304043 -3.977,6.795805 -4.80555,5.635546 5.7998,-0.663006 11.7653,-2.48627 8.94826,-3.480778 3.8113,-2.983524 0.99425,-1.989016 v -2.817773 l -1.9885,-6.298551 -2.48563,-5.967049 -4.97125,-7.127308 -1.65709,5.967049 -6.29693,-5.635546 -5.63409,-3.978032 z"
     id="path19417" />
  <path
     d="m 150.37523,126.61649 c -4.13455,-2.43378 -48.61594,0.48195 -48.61594,0.48195 C 89.613552,118.33925 61.687351,99.325014 37.018008,84.969344 19.205255,74.601304 1.158593,67.308979 1.158593,64.988193 c 0,-3.240699 15.723483,-12.649828 66.425686,-13.962707 46.449701,-1.203888 102.040191,16.012518 120.817601,30.57317 l -13.37031,27.052494 z"
     style="fill:#4b5170;fill-opacity:1;fill-rule:nonzero;stroke:none;stroke-width:0.999776"
     id="path13552" />
  <path
     d="m 398.95649,308.38485 c -0.77273,13.97171 -3.57275,10.05807 -7.38141,1.34988 -7.09251,-20.57109 -25.9269,-55.61985 -44.92023,-82.33937 -20.2529,-28.49137 -40.62275,-48.48252 -40.62275,-48.48252 0,0 -5.64602,-2.82374 -6.49272,-3.10571 -0.8467,-0.28197 -2.54111,-10.44704 -2.54111,-10.44704 l -18.57548,-16.80544 c -1.21957,-16.78644 -16.78311,-47.30961 -16.78311,-47.30961 1.52646,-3.662664 4.30849,-7.038352 4.30849,-7.038352 l 5.36311,1.128896 10.44334,9.318136 c 0,0 0.8467,16.37748 1.4115,17.50538 0.56481,1.1299 18.91237,27.95341 29.0758,37.27155 0,0 12.70254,3.67066 44.88226,7.90526 l 11.29103,8.47122 c 0,0 -1.1286,12.9888 8.18713,19.20023 l 6.21082,6.49339 c 0,0 12.74553,36.64761 15.46057,78.91669 0.8667,13.52375 0.99665,22.29894 0.68276,27.96741"
     style="fill:#4b5170;fill-opacity:1;fill-rule:nonzero;stroke:none;stroke-width:0.999776"
     id="path13556" />
  <path
     d="m 249.8941,217.93013 c -3.75568,14.01971 -15.04272,28.57236 -15.04272,28.57236 -6.75763,-7.01135 -46.02585,-38.08548 -46.02585,-38.08548 l -14.5169,-4.00563 c 0,0 -29.89351,53.17808 -101.834266,82.48436 12.896472,10.61102 43.030906,31.49609 91.744806,32.10603 42.42011,0.52995 100.19084,-35.72869 85.67493,-101.07164"
     style="fill:#4b5170;fill-opacity:1;fill-rule:nonzero;stroke:none;stroke-width:0.999776"
     id="path13560" />
  <path
     d="m 76.198157,254.72872 -7.26145,-4.84255 C 64.51326,187.76693 52.00965,175.0851 52.00965,175.0851 c 0,0 -0.788724,-1.76984 -1.673413,6.01744 -0.88469,7.78728 -5.581042,41.41317 -6.642669,45.12882 0,0 -10.439337,-14.15768 -11.147089,-13.44975 -0.706754,0.70793 -0.530814,10.44203 4.954262,25.66162 l -26.008876,31.85605 c 0,0 1.061627,5.31151 41.225536,-4.77756 l 9.17678,10.99698 z"
     style="fill:#4b5170;fill-opacity:1;fill-rule:nonzero;stroke:none;stroke-width:0.999776"
     id="path13564" />
  <path
     d="m 179.32117,136.79604 7.86124,16.60046 -28.12513,-5.41749 c 0,0 1.39751,-8.91218 20.26389,-11.18297"
     style="fill:#ffffff;fill-opacity:1;fill-rule:nonzero;stroke:none;stroke-width:0.999776"
     id="path13568" />
  <path
     d="m 189.45342,182.75089 c 0,0 -0.8737,11.70692 -4.19253,18.52128 l -4.89129,-6.11643 8.03518,-13.10479 z"
     style="fill:#ffffff;fill-opacity:1;fill-rule:nonzero;stroke:none;stroke-width:0.999776"
     id="path13572" />
  <path
     d="m 134.25019,383.24013 c 0,0 -6.97956,-18.53629 -2.67607,-24.09177 0.50583,-24.54773 9.36172,-43.274 9.36172,-43.274 27.83024,-14.17169 48.82986,-39.22837 54.39591,-49.09845 5.56605,-9.87009 -4.5534,-51.8792 -5.31314,-57.44769 -0.75873,-5.56748 -9.61362,-13.9177 -9.61362,-13.9177 0,0 -21.3655,33.75887 -52.89344,59.27651 0,0 2.39416,29.95723 2.64707,42.61105 0,0 -3.85665,8.51721 -8.66396,11.55493 -2.42015,1.52886 -27.350403,45.3508 -29.121776,48.38753 -1.770384,3.03771 -8.423047,22.16094 -8.423047,31.77705 0,0 17.785763,6.14243 38.025663,3.61167 z"
     style="fill:#4b5170;fill-opacity:1;fill-rule:nonzero;stroke:none;stroke-width:0.999776"
     id="path13576" />
  <path
     d="m 238.00907,282.53035 c 0,0 13.44828,-2.32478 43.41277,13.08279 0,0 -26.73862,30.16121 -31.64889,36.82659 -2.84001,3.85364 4.84629,11.01698 7.34041,17.3384 3.60974,9.14814 7.57635,21.16803 9.62663,23.35083 3.73069,3.97263 4.32848,1.10289 8.38505,4.14562 l 25.35411,-16.63546 3.04193,-10.34605 c 0,0 -14.80181,-11.7809 -14.19801,-19.68017 2.32718,-30.42618 25.19116,-31.02813 34.81778,-48.96247 8.90987,-16.60047 -35.98038,-65.11997 -72.74547,-79.66262 0,0 -11.56194,-18.86826 -13.9951,-27.59145 -1.62342,-12.78081 2.84001,-25.76561 2.84001,-25.76561 l -4.86829,4.66556 c 0,0 -5.27415,19.07224 -4.86829,21.10005 0.40685,2.02881 43.60869,56.60176 7.50536,108.13399"
     style="fill:#4b5170;fill-opacity:1;fill-rule:nonzero;stroke:none;stroke-width:0.999776"
     id="path13580" />
  <path
     d="m 187.98443,192.04742 c 26.73562,-13.74672 52.22267,-1.50085 52.22267,-1.50085 -0.74973,-2.74875 -9.24475,-14.74464 -9.7026,-16.14951 -0.45783,-1.40487 4.8673,-21.10004 4.8673,-21.10004 0,0 15.48556,-15.02561 17.30892,-15.57156 3.06992,-0.92091 17.01103,3.83564 17.01103,3.83564 l 8.73194,6.99336 c -2.01229,-20.49911 -16.78311,-47.30962 -16.78311,-47.30962 0.44384,-2.324788 4.23651,-6.341416 4.23651,-6.341416 l 13.80916,1.169891 2.10426,-9.425127 c 0,0 -21.34451,-18.317303 -35.08669,-14.068697 -13.74318,4.248606 -76.71007,64.733009 -76.71007,64.733009 l 0.74973,0.99891 c 0,0 7.16049,-1.78184 8.57799,-1.51586 l 7.16348,15.76253 c 0,0 6.74664,18.49429 1.49948,39.48934"
     style="fill:#e73820;fill-opacity:1;fill-rule:nonzero;stroke:none;stroke-width:0.999776"
     id="path13584" />
  <path
     d="m 188.05081,191.32899 c 0,0 24.26948,-13.37176 52.46058,-0.72593 0,0 9.31973,19.18723 9.38271,27.32747 0,0 -5.74898,17.2974 -14.17802,28.34437 0,0 -39.23623,-32.70496 -45.63099,-36.6306 0,0 -2.17924,-6.68638 -4.79532,-9.01217 0,0 2.32519,-6.3954 2.76104,-9.30314"
     style="fill:#f9be00;fill-opacity:1;fill-rule:nonzero;stroke:none;stroke-width:0.999776"
     id="path13588" />
  <path
     d="m 272.75718,60.294128 c -0.37787,0.047 -5.43909,7.066346 0.24091,12.758819 2.25321,2.258791 15.04173,7.824275 15.04173,7.824275 -0.95567,-1.720841 -12.14174,-18.971243 -15.28264,-20.583094"
     style="fill:#ffffff;fill-opacity:1;fill-rule:nonzero;stroke:none;stroke-width:0.999776"
     id="path13592" />
  <path
     d="m 273.10596,60.117345 c -5.59204,5.050532 -1.4415,10.887991 -0.8707,11.577928 1.81237,2.192797 7.30444,1.163892 9.03183,-1.423869 z"
     style="fill:#ffffff;fill-opacity:1;fill-rule:nonzero;stroke:none;stroke-width:0.999776"
     id="path13596" />
  <path
     d="m 256.79568,72.997552 c 0,0 -0.072,8.86318 0.50382,9.29514 0.5768,0.432959 9.14979,-5.4045 9.14979,-5.4045 0,0 -6.12385,-3.385686 -9.65361,-3.89064"
     style="fill:#ffffff;fill-opacity:1;fill-rule:nonzero;stroke:none;stroke-width:0.999776"
     id="path13600" />
  <path
     d="m 266.37642,77.032679 c 0,0 -1.1516,8.358226 -0.71975,9.295139 0.43085,0.936913 9.86854,-4.395593 9.86854,-4.395593 0,0 -6.5547,-4.3226 -9.14879,-4.899546"
     style="fill:#ffffff;fill-opacity:1;fill-rule:nonzero;stroke:none;stroke-width:0.999776"
     id="path13604" />
  <path
     d="m 158.17919,132.77222 c 0,0 3.77568,-3.32669 6.75363,-3.44568 1.27555,-0.051 9.46068,6.91436 9.91452,8.27923 0,0 -16.28129,3.36669 -19.3732,2.91173 -0.80172,-1.62885 2.70505,-7.74528 2.70505,-7.74528"
     style="fill:#ffffff;fill-opacity:1;fill-rule:nonzero;stroke:none;stroke-width:0.999776"
     id="path13608" />
  <path
     d="m 170.39051,120.50225 c 0,0 -3.03994,4.98554 -2.2732,7.00536 0.40985,1.08189 19.28322,-2.46878 19.28322,-2.46878 0,0 -4.49642,-6.20542 -9.0968,-9.26714 -5.19917,0.72293 -7.91322,4.73056 -7.91322,4.73056"
     style="fill:#ffffff;fill-opacity:1;fill-rule:nonzero;stroke:none;stroke-width:0.999776"
     id="path13612" />
  <path
     d="m 282.55614,128.91667 c 0,0 2.67606,7.18234 8.65896,9.57712 0.20993,1.26588 5.9829,-19.57619 5.9829,-19.57619 0,0 -0.91468,-1.54886 -14.64186,9.99907"
     style="fill:#ffffff;fill-opacity:1;fill-rule:nonzero;stroke:none;stroke-width:0.999776"
     id="path13616" />
  <path
     d="m 294.24184,142.22484 c 0,0 2.32219,8.44922 8.93986,10.91399 0,0 7.4124,-17.20141 5.91293,-20.70108 -0.63378,-1.47886 -14.85279,9.78709 -14.85279,9.78709"
     style="fill:#ffffff;fill-opacity:1;fill-rule:nonzero;stroke:none;stroke-width:0.999776"
     id="path13620" />
  <path
     d="m 214.17594,220.61868 c -10.07247,-29.48927 -24.85228,-39.48534 -24.85228,-39.48534 -7.28644,-9.7511 -1.26955,-21.21803 -1.26955,-21.21803 l -6.18383,-7.73529 c 0.20992,-0.075 19.76806,3.08371 25.54403,13.19477 5.77597,10.11107 9.1228,17.47739 10.34937,28.1664 0.88868,7.75628 0.66177,16.85544 -0.24092,22.38792 -0.66677,4.08463 -2.43015,7.37433 -3.34682,4.68957"
     style="fill:#ffffff;fill-opacity:1;fill-rule:nonzero;stroke:none;stroke-width:0.999776"
     id="path13624" />
  <path
     d="m 404.44497,227.08279 c -9.46668,-12.83882 -29.28272,-32.69898 -29.28272,-32.69898 -7.38341,-6.34741 -6.69266,-18.23231 -6.69266,-18.23231 l -11.41999,-8.19224 c 0,0 23.88862,1.91282 29.42567,6.64338 8.67695,7.41532 22.44113,35.52071 17.9697,52.48015"
     style="fill:#ffffff;fill-opacity:1;fill-rule:nonzero;stroke:none;stroke-width:0.999776"
     id="path13628" />
  <path
     d="m 278.75987,195.50991 c 0,0 -6.33977,5.12452 -14.15403,21.10604 0,0 7.72829,11.20297 18.32157,11.63793 -0.52082,-27.70544 -4.16754,-32.74397 -4.16754,-32.74397"
     style="fill:#ffffff;fill-opacity:1;fill-rule:nonzero;stroke:none;stroke-width:0.999776"
     id="path13632" />
  <path
     d="m 300.28681,215.53885 c -2.76502,-0.023 -9.58563,12.14788 -12.93045,18.04233 -1.76139,3.10471 16.02237,15.35558 16.02237,15.35558 0,0 -0.32689,-33.37491 -3.09192,-33.39791"
     style="fill:#ffffff;fill-opacity:1;fill-rule:nonzero;stroke:none;stroke-width:0.999776"
     id="path13636" />
  <path
     d="m 178.51406,207.90216 c 0,0 -7.21947,9.14715 -11.26105,20.02515 l 2.11726,12.51484 3.56174,1.54086 c 0,0 6.93057,-7.89427 7.41141,-10.879 0.48082,-2.98472 -0.097,-23.7788 -1.82936,-23.20185"
     style="fill:#ffffff;fill-opacity:1;fill-rule:nonzero;stroke:none;stroke-width:0.999776"
     id="path13640" />
  <path
     d="m 172.06531,237.36193 c 0,0 -10.00948,11.26496 -11.35701,16.46348 -1.34752,5.19752 2.50213,14.92261 2.98296,15.21059 0.48183,0.28897 8.18113,-7.31632 9.62562,-12.12988 1.44349,-4.81455 0.38486,-19.15823 -1.25157,-19.54419"
     style="fill:#ffffff;fill-opacity:1;fill-rule:nonzero;stroke:none;stroke-width:0.999776"
     id="path13644" />
  <path
     d="m 91.446104,380.73875 c 0,0 -7.064516,4.89355 -8.229105,8.93118 -1.165594,4.03863 -0.310893,25.08168 0.853695,25.23766 1.164589,0.15499 12.421642,-17.55037 13.741179,-23.99578 -0.387862,-5.97944 -6.365769,-10.17306 -6.365769,-10.17306"
     style="fill:#ffffff;fill-opacity:1;fill-rule:nonzero;stroke:none;stroke-width:0.999776"
     id="path13648" />
  <path
     d="m 111.17329,383.07654 c 0,0 -8.23012,4.58158 -9.00584,9.86308 -0.77673,5.28052 11.79985,23.68382 12.57658,23.68382 0.77673,0 4.11556,-21.27703 3.80467,-22.83089 -0.3109,-1.55286 -5.4341,-10.87 -7.37541,-10.71601"
     style="fill:#ffffff;fill-opacity:1;fill-rule:nonzero;stroke:none;stroke-width:0.999776"
     id="path13652" />
  <path
     d="m 130.5046,381.13552 c 0,0 -8.48602,6.67838 -8.69495,11.80391 -0.15594,3.80464 22.43613,20.18913 22.90196,20.18913 0.46584,0 -4.91527,-23.21785 -10.02747,-28.92533 -2.16125,-3.22369 -4.17954,-3.06771 -4.17954,-3.06771"
     style="fill:#ffffff;fill-opacity:1;fill-rule:nonzero;stroke:none;stroke-width:0.999776"
     id="path13656" />
  <path
     d="m 304.51933,390.51115 c -14.85279,-3.53567 -29.3517,-13.61874 -29.3517,-13.61874 1.82736,-8.01726 9.01783,-10.846 9.01783,-10.846 0,0 19.3912,18.57029 20.33387,24.46474"
     style="fill:#ffffff;fill-opacity:1;fill-rule:nonzero;stroke:none;stroke-width:0.999776"
     id="path13660" />
  <path
     d="m 296.44456,358.61751 c 0,0 -6.01188,1.76783 -8.31108,10.31804 l 3.47778,2.47477 c 0,0 25.04821,11.43894 27.87722,10.848 2.83001,-0.58895 -18.56449,-22.10796 -23.04392,-23.64081"
     style="fill:#ffffff;fill-opacity:1;fill-rule:nonzero;stroke:none;stroke-width:0.999776"
     id="path13664" />
  <path
     d="m 304.0474,350.83692 c 0,0 -4.77532,4.3616 -4.95126,9.19715 l 5.77597,5.00954 c 0,0 20.09895,6.07344 22.16122,4.2456 2.06328,-1.82882 -22.98593,-18.45229 -22.98593,-18.45229"
     style="fill:#ffffff;fill-opacity:1;fill-rule:nonzero;stroke:none;stroke-width:0.999776"
     id="path13668" />
  <path
     d="M 278.1045,57.941246 C 272.22656,55.000518 260.77858,49.895991 242.83588,30.863754 224.89218,11.831516 224.27239,1.6194614 224.27239,1.6194614 c 0,0 -5.10421,6.8083693 2.32019,20.1151376 7.42539,13.306767 17.9447,28.006406 36.04335,35.277733 12.21971,5.260513 15.46857,0.928914 15.46857,0.928914"
     style="fill:#393d59;fill-opacity:1;fill-rule:nonzero;stroke:none;stroke-width:0.999776"
     id="path13672" />
  <path
     d="m 290.52654,35.297143 c -4.64037,-5.72447 -4.22352,-13.253773 -4.22352,-13.253773 0,0 -4.11955,1.537858 -2.836,8.920174 z"
     style="fill:#393d59;fill-opacity:1;fill-rule:nonzero;stroke:none;stroke-width:0.999776"
     id="path13676" />
  <path
     d="m 316.46734,61.653902 c 0,0 10.51831,14.699639 13.92111,14.699639 0,0 -0.72474,3.283696 -5.36512,0.189983 -1.7014,-5.105528 -8.55599,-14.889622 -8.55599,-14.889622"
     style="fill:#393d59;fill-opacity:1;fill-rule:nonzero;stroke:none;stroke-width:0.999776"
     id="path13680" />
  <path
     d="m 198.8725,139.70738 c 0,0 -10.34036,-1.34988 -17.30791,1.79883 l -2.69706,-4.94655 c 0,0 13.93611,0.67494 20.00497,3.14772"
     style="fill:#ffffff;fill-opacity:1;fill-rule:nonzero;stroke:none;stroke-width:0.999776"
     id="path13684" />
  <path
     d="m 187.01287,153.32492 -28.37504,-5.74848 c 0,0 5.62403,-9.54611 20.68474,-10.22005 z"
     style="fill:#393d59;fill-opacity:1;fill-rule:nonzero;stroke:none;stroke-width:0.999776"
     id="path13688" />
  <path
     d="m 49.397461,259.91304 c -9.978496,6.27442 -38.238577,10.31504 -38.238577,10.31504 0,0 -0.535815,1.37688 9.157781,1.0919 9.693604,-0.28497 27.084502,-2.85073 32.787495,-6.27341 z"
     style="fill:#393d59;fill-opacity:1;fill-rule:nonzero;stroke:none;stroke-width:0.999776"
     id="path13692" />
  <path
     d="m 277.84699,370.88176 c -16.40324,-10.74499 -10.99314,-18.97523 -18.41054,-28.57734 -1.91733,-2.48078 -7.84125,-11.68593 -7.84125,-11.68593 0,0 -2.92497,1.48987 -1.75938,5.57449 1.16759,4.08563 7.85525,12.00289 13.30833,30.33519 1.88034,6.31942 4.37646,10.27605 12.17473,9.99408 z"
     style="fill:#393d59;fill-opacity:1;fill-rule:nonzero;stroke:none;stroke-width:0.999776"
     id="path13696" />
  <path
     d="m 89.149412,364.43466 c 0,0 -3.402808,11.66992 0.48583,17.50638 l -5.995894,5.83546 c 0,0 2.476126,-14.64764 5.510064,-23.34184"
     style="fill:#393d59;fill-opacity:1;fill-rule:nonzero;stroke:none;stroke-width:0.999776"
     id="path13700" />
  <path
     d="m 95.955427,385.6682 c 0,0 5.347123,2.43178 8.588983,2.59376 0,0 -2.59409,2.91673 -2.75503,4.21461 l -3.889638,-0.81093 c 0,0 -1.296543,-5.18652 -1.944315,-5.99744"
     style="fill:#393d59;fill-opacity:1;fill-rule:nonzero;stroke:none;stroke-width:0.999776"
     id="path13704" />
  <path
     d="m 116.04928,387.93819 c 0,0 4.69935,0.80892 7.77826,-1.13589 0,0 -2.2682,3.89163 -2.2682,5.99744 l -2.75504,0.81092 z"
     style="fill:#393d59;fill-opacity:1;fill-rule:nonzero;stroke:none;stroke-width:0.999776"
     id="path13708" />
  <path
     d="m 307.94983,179.94864 c 0,0 40.93963,0.96591 68.55295,15.06561 l 5.79296,6.18143 4.2495,16.03152 c -22.20719,-26.65654 -77.62975,-35.15475 -77.62975,-35.15475 z"
     style="fill:#393d59;fill-opacity:1;fill-rule:nonzero;stroke:none;stroke-width:0.999776"
     id="path13712" />
  <path
     d="m 315.18229,180.37471 c -9.09181,-1.69784 -11.44898,-6.71138 -12.42864,-7.69129 -0.97966,-0.97991 -1.78937,-8.31823 -2.76803,-9.88708 -0.97966,-1.56686 -22.31316,-20.10014 -22.31316,-20.10014 l 0.19493,5.29151 18.61546,16.85544 c 0,0 1.37252,9.21214 2.15625,9.80009 0.78272,0.58894 12.73553,6.86036 12.73553,6.86036 z"
     style="fill:#393d59;fill-opacity:1;fill-rule:nonzero;stroke:none;stroke-width:0.999776"
     id="path13716" />
  <path
     d="m 126.09924,156.42532 c 0,0 1.02564,3.42469 13.36532,6.5594 13.61722,3.45668 42.87196,13.87271 47.41136,16.64745 l 2.52112,1.51387 -11.34802,18.91825 c 0,0 -5.04324,-17.4054 -53.71515,-39.60333 z"
     style="fill:#393d59;fill-opacity:1;fill-rule:nonzero;stroke:none;stroke-width:0.999776"
     id="path13720" />
  <path
     d="m 160.98491,140.01875 c 0,0 -6.2648,3.36269 -7.94522,7.18433 l 5.19518,0.91592 c 0,0 6.72264,-8.10025 11.00114,-9.17015 z"
     style="fill:#393d59;fill-opacity:1;fill-rule:nonzero;stroke:none;stroke-width:0.999776"
     id="path13724" />
  <path
     d="m 260.1566,131.33435 c 0,0 7.95821,3.2567 17.90572,11.93989 l -0.19493,4.71357 c 0,0 -6.13585,-5.79846 -8.12516,-6.34242 -1.9893,-0.54194 -10.12744,-3.61866 -17.72478,-4.70356 z"
     style="fill:#c82e19;fill-opacity:1;fill-rule:nonzero;stroke:none;stroke-width:0.999776"
     id="path13728" />
  <path
     d="m 214.8547,221.4557 c -2.79902,-42.30408 -28.00217,-45.07082 -28.00217,-45.07082 l 1.86135,4.69956 c 0,0 12.75651,5.64748 26.14082,40.37126"
     style="fill:#dbdcdc;fill-opacity:1;fill-rule:nonzero;stroke:none;stroke-width:0.999776"
     id="path13732" />
  <path
     d="m 404.44497,225.95909 c -13.04543,-35.54171 -33.81413,-38.06548 -33.81413,-38.06548 0,0 1.06962,2.81274 4.20552,5.74147 3.1369,2.92773 23.54273,24.16676 29.18975,33.36991 z"
     style="fill:#dbdcdc;fill-opacity:1;fill-rule:nonzero;stroke:none;stroke-width:0.999776"
     id="path13736" />
  <path
     d="m 170.6838,120.77963 c 0,0 -0.79872,2.96672 2.62408,3.42368 3.4238,0.45696 13.92111,0.45696 13.92111,0.45696 0,0 -14.83279,3.53767 -18.94134,2.96672 -1.48349,-2.28178 2.39615,-6.84736 2.39615,-6.84736"
     style="fill:#dbdcdc;fill-opacity:1;fill-rule:nonzero;stroke:none;stroke-width:0.999776"
     id="path13740" />
  <path
     d="m 157.90419,134.24668 c 0,0 -0.79872,2.28279 4.45043,2.73975 5.24816,0.45695 12.43664,0.22798 12.43664,0.22798 0,0 -16.31628,3.65266 -18.59848,3.1957 -2.28219,-0.45596 1.71141,-6.16343 1.71141,-6.16343"
     style="fill:#dbdcdc;fill-opacity:1;fill-rule:nonzero;stroke:none;stroke-width:0.999776"
     id="path13744" />
  <path
     d="m 296.73416,119.00329 c 0,0 -6.39276,13.76473 -8.43504,17.40639 0,0 2.30819,1.95382 3.10691,2.04181 0.79972,0.09 5.32813,-19.4482 5.32813,-19.4482"
     style="fill:#dbdcdc;fill-opacity:1;fill-rule:nonzero;stroke:none;stroke-width:0.999776"
     id="path13748" />
  <path
     d="m 309.25287,132.85681 c 0,0 -7.63532,15.18659 -9.6776,18.11832 0,0 3.10791,2.1318 3.72969,1.86483 0.62078,-0.26598 4.70534,-12.07788 5.94791,-19.98315"
     style="fill:#dbdcdc;fill-opacity:1;fill-rule:nonzero;stroke:none;stroke-width:0.999776"
     id="path13752" />
  <path
     d="m 178.43039,208.06575 c 0,0 -6.91858,19.92415 -6.77263,29.88023 l -2.25821,2.25779 c 0,0 -2.60609,-11.11797 -1.73639,-13.72373 0.8677,-2.60576 9.37771,-17.54638 10.76723,-18.41429"
     style="fill:#dbdcdc;fill-opacity:1;fill-rule:nonzero;stroke:none;stroke-width:0.999776"
     id="path13756" />
  <path
     d="m 172.17858,238.11906 c 0,0 -8.33708,16.1555 -8.33708,30.74816 0,0 -3.47278,-6.08044 -3.47278,-15.63456 7.81526,-12.68082 11.80986,-15.1136 11.80986,-15.1136"
     style="fill:#dbdcdc;fill-opacity:1;fill-rule:nonzero;stroke:none;stroke-width:0.999776"
     id="path13760" />
  <path
     d="m 84.335404,414.10497 c 4.087566,-20.18813 7.28044,-33.09194 7.28044,-33.09194 0,0 -7.15249,4.72656 -8.302084,8.30423 -1.149594,3.57867 -0.638776,25.42565 1.021644,24.78771"
     style="fill:#dbdcdc;fill-opacity:1;fill-rule:nonzero;stroke:none;stroke-width:0.999776"
     id="path13764" />
  <path
     d="m 114.84919,416.13428 c -1.91632,-21.20904 -3.9596,-32.96395 -3.9596,-32.96395 0,0 -7.79227,5.62148 -8.43105,9.7101 -0.63777,4.08962 12.43764,23.7788 12.39065,23.25385"
     style="fill:#dbdcdc;fill-opacity:1;fill-rule:nonzero;stroke:none;stroke-width:0.999776"
     id="path13768" />
  <path
     d="m 144.48339,413.06676 c -8.04717,-12.13787 -19.28723,-26.83051 -19.28723,-26.83051 0,0 -3.70469,3.70466 -2.93797,7.28232 0.76574,3.57667 22.2252,19.54819 22.2252,19.54819"
     style="fill:#dbdcdc;fill-opacity:1;fill-rule:nonzero;stroke:none;stroke-width:0.999776"
     id="path13772" />
  <path
     d="m 278.43548,371.05485 c 0,0 20.2459,14.1207 25.04122,19.4502 0,0 -20.48581,-7.18233 -28.15812,-13.9827 0,0 2.05128,-4.26761 3.1169,-5.4675"
     style="fill:#dbdcdc;fill-opacity:1;fill-rule:nonzero;stroke:none;stroke-width:0.999776"
     id="path13776" />
  <path
     d="m 318.79512,381.84645 c -21.97828,-14.52266 -27.57232,-18.92024 -27.57232,-18.92024 0,0 -3.06293,4.2636 -3.32983,5.99544 0,0 26.63965,13.9907 30.90215,12.9248"
     style="fill:#dbdcdc;fill-opacity:1;fill-rule:nonzero;stroke:none;stroke-width:0.999776"
     id="path13780" />
  <path
     d="m 326.65367,369.18913 c -18.2476,-9.59411 -26.77261,-12.52384 -26.77261,-12.52384 l -1.06563,3.06371 c 0,0 5.9939,4.79755 6.92557,6.26242 0,0 20.2459,4.52958 20.91267,3.19771"
     style="fill:#dbdcdc;fill-opacity:1;fill-rule:nonzero;stroke:none;stroke-width:0.999776"
     id="path13784" />
  <path
     d="m 207.83576,164.03572 c 13.81515,2.00881 22.14623,11.84991 22.14623,11.84991 l 5.60404,-22.7409 8.08016,-8.43322 c -14.12304,5.4235 -44.79328,-5.00454 -44.79328,-5.00454 0,0 -11.73689,-3.2167 -20.00498,-3.14671 l 7.18748,15.52857 c 0,0 14.40394,5.27151 21.78035,11.94689"
     style="fill:#c82e19;fill-opacity:1;fill-rule:nonzero;stroke:none;stroke-width:0.999776"
     id="path13788" />
  <path
     d="m 188.55883,182.6023 -7.72829,13.35376 4.51642,5.02054 c 0,0 6.02288,-16.46647 3.21187,-18.3743"
     style="fill:#393d59;fill-opacity:1;fill-rule:nonzero;stroke:none;stroke-width:0.999776"
     id="path13792" />
  <path
     d="m 278.91402,195.6472 c 0,0 -8.55,15.80153 -8.73594,26.39855 0,0 -7.16448,-3.84964 -5.76097,-6.32141 8.55,-15.05761 14.49691,-20.07714 14.49691,-20.07714"
     style="fill:#dbdcdc;fill-opacity:1;fill-rule:nonzero;stroke:none;stroke-width:0.999776"
     id="path13796" />
  <path
     d="m 299.91455,215.72404 c 0,0 -4.46043,4.64756 -12.63856,18.40429 0,0 2.97395,4.64757 4.27549,5.57748 0,0 2.41615,-10.59701 8.73494,-24.16676"
     style="fill:#dbdcdc;fill-opacity:1;fill-rule:nonzero;stroke:none;stroke-width:0.999776"
     id="path13800" />
  <path
     d="m 39.508334,86.493702 c 0,0 50.458292,-8.987167 100.999556,-26.319563 12.74153,4.140617 26.28478,7.737284 49.0048,21.997964 0,0 -15.97339,5.539487 -17.89072,8.09525 -1.91732,2.555763 -3.62072,17.255407 -3.62072,17.255407 L 150.7483,126.485 c 0,0 -33.43927,-1.0659 -48.13511,0.42596 z"
     style="fill:#393d59;fill-opacity:1;fill-rule:nonzero;stroke:none;stroke-width:0.999776"
     id="path13804" />
  <path
     d="m 280.73598,70.64007 c -3.87164,-5.17952 -6.83661,-9.042162 -8.10916,-10.69201 -3.44379,4.842552 -2.65506,8.992168 0.11597,12.31086 2.833,0.504953 5.62002,-0.035 7.99319,-1.61885"
     style="fill:#f9be00;fill-opacity:1;fill-rule:nonzero;stroke:none;stroke-width:0.999776"
     id="path13808" />
  <path
     d="m 288.05021,80.504557 c -0.10496,-0.131988 -0.22292,-0.253977 -0.32288,-0.391964 -2.51912,-3.457679 -4.88729,-6.657383 -6.99155,-9.472122 -2.37217,1.582852 -5.16019,2.122802 -7.9932,1.617849 3.45979,4.144617 10.01449,6.988353 15.30763,8.246237"
     style="fill:#3e4e57;fill-opacity:1;fill-rule:nonzero;stroke:none;stroke-width:0.999776"
     id="path13812" />
  <path
     d="m 256.33964,75.871386 c 0,0 5.9869,1.260883 7.77127,2.835738 l 2.83501,-2.205796 -10.71024,-3.991631 z"
     style="fill:#dbdcdc;fill-opacity:1;fill-rule:nonzero;stroke:none;stroke-width:0.999776"
     id="path13816" />
  <path
     d="m 266.21097,79.547245 c 0,0 5.25016,2.416777 6.51172,4.306602 l 2.835,-1.785835 c 0,0 -7.14149,-4.830552 -9.13579,-5.461494 z"
     style="fill:#dbdcdc;fill-opacity:1;fill-rule:nonzero;stroke:none;stroke-width:0.999776"
     id="path13820" />
  <path
     d="m 127.83194,271.85944 c 1.23157,17.34339 26.47671,35.74069 54.87375,12.51784 0,0 -26.31378,23.7538 -42.35914,32.41999 0,0 -5.91993,21.677 -7.20347,26.81152 0,-14.08869 -15.36661,-20.4921 -26.57068,-11.20696 5.45508,-9.62911 14.5209,-22.6669 14.5209,-22.6669 l 4.49243,-5.13652 4.81331,-7.05935 z"
     style="fill:#393d59;fill-opacity:1;fill-rule:nonzero;stroke:none;stroke-width:0.999776"
     id="path13824" />
  <path
     d="m 252.01895,251.63681 c 0,0 24.99323,20.30712 38.1866,26.64253 16.04538,7.70429 42.67903,5.13453 32.08975,-12.83981 0,0 7.70129,18.2963 -6.09686,26.9625 -15.00374,9.42313 -19.76407,14.88063 -23.56174,26.55054 -0.14895,-12.11887 -23.60571,-11.12597 -31.44196,0.32198 7.06052,-8.98817 20.66774,-24.30476 20.66774,-24.30476 0,0 -29.20275,-13.15978 -43.3208,-13.15978 0,0 8.02219,-10.27204 13.47727,-30.1732"
     style="fill:#393d59;fill-opacity:1;fill-rule:nonzero;stroke:none;stroke-width:0.999776"
     id="path13828" />
  <path
     d="m 59.770026,260.48469 c -11.170083,-7.64429 -18.973344,-10.60902 -4.572398,8.78918 1.858351,2.50578 3.970607,5.00155 6.284798,7.46732 3.113904,-3.37469 5.388104,-6.80337 7.463376,-10.60002 -3.189876,-1.78684 -6.265799,-3.66466 -9.175776,-5.65648"
     style="fill:#393d59;fill-opacity:1;fill-rule:nonzero;stroke:none;stroke-width:0.999776"
     id="path13832" />
  <path
     d="m 129.48176,286.19211 c -12.2537,-1.97882 -24.30747,-4.97254 -35.609507,-8.93317 -7.151486,3.86064 -14.302979,7.06934 -21.454465,9.6161 12.548595,10.19506 28.595962,19.18723 46.248762,25.03269 3.70371,-4.38659 8.07217,-8.05325 10.77022,-12.55084 1.75439,-4.38959 0.31489,-8.77719 0.045,-13.16478"
     style="fill:#393d59;fill-opacity:1;fill-rule:nonzero;stroke:none;stroke-width:0.999776"
     id="path13836" />
  <path
     d="m 177.67975,288.70478 c -12.16973,9.86308 -24.49041,20.10114 -38.10363,28.44036 8.22811,1.39188 16.62716,2.02581 25.03321,1.72884 58.94831,-2.08781 79.60306,-42.46806 85.12913,-59.78846 -12.31268,17.97134 -40.12692,27.64244 -72.05871,29.61926"
     style="fill:#393d59;fill-opacity:1;fill-rule:nonzero;stroke:none;stroke-width:0.999776"
     id="path13840" />
  <path
     d="m 279.1764,97.827534 2.55,-11.249999 q -23,-22.75 -37.65,-29.35 -15.6,-7.100002 -30.6,-0.299982 l 23,-18.150002 q 7.3,10.350002 22.1,16.400002 7.4,3.049999 13.35,3.999999 l 0.7,0.9 q -5.2,7.300002 1.25,13.5 5.05,4.849999 14.15,7.050002 2.05,2.549998 6.5,4.2 3.7,1.399997 8.5,1.949998 -3.65,5.800002 -8.55,10.350002 l -7.9,0.749998 -7.4,-0.05"
     fill="#393d59"
     id="path1727-7"
     style="stroke-width:0.999999" />
  <path
     d="m 223.55564,3.7069682 c 3.00395,-3.85064381 19.55714,-1.1228966 38.05965,15.7965368 17.75476,16.235497 18.27358,34.99276 16.29828,37.175558 -3.38182,2.986724 -22.62306,-0.012 -39.14926,-17.580372 C 223.37771,22.743205 221.00454,6.9746655 223.55564,3.7069682 M 222.02818,2.245103 c -4.35147,5.6274791 1.45949,24.483734 14.45193,38.361448 17.74277,18.952245 39.23623,21.538006 42.94692,17.443385 2.91498,-3.220702 1.80537,-23.670808 -16.34726,-40.270271 C 245.98777,2.1501123 226.55759,-3.6163537 222.02818,2.245103"
     style="fill:#0f141b;fill-opacity:1;fill-rule:nonzero;stroke:none;stroke-width:0.999776"
     id="path13844" />
  <path
     d="m 320.50433,42.054717 c -13.7072,-17.571373 -30.97414,-23.020869 -35.23565,-20.209128 -2.75303,1.816831 -2.835,6.897361 -2.5461,8.121248 0.12895,0.547948 2.15524,1.280881 2.02929,0.731932 -0.009,-0.04299 -1.02464,-5.62148 1.65941,-7.433312 2.61509,-1.765837 18.59648,2.580761 32.32866,20.183131 13.64622,17.49238 13.06842,30.595167 11.19308,32.367003 -1.32354,1.249884 -3.78968,0.441959 -5.01124,-0.07699 0.077,0.813925 0.2649,1.572854 0.73573,2.189798 1.7164,0.600944 4.01959,0.938913 5.67801,-0.627942 2.5701,-2.428775 3.02394,-17.487381 -10.83119,-35.245737"
     style="fill:#0f141b;fill-opacity:1;fill-rule:nonzero;stroke:none;stroke-width:0.999776"
     id="path13848" />
  <path
     d="m 260.22147,93.891617 c -2.09326,0.380965 -2.05927,1.313879 0.06,1.270883 2.96296,-0.062 5.88494,0.203981 9.24776,0.803926 4.02359,0.717933 7.83125,1.133895 9.93651,1.081899 0.5638,-0.013 0.66677,-2.26379 0.10397,-2.248791 -1.95032,0.047 -5.56205,-0.155986 -9.4157,-0.747932 -3.81466,-0.586945 -6.60768,-0.764929 -9.93252,-0.159985"
     style="fill:#0f141b;fill-opacity:1;fill-rule:nonzero;stroke:none;stroke-width:0.999776"
     id="path13852" />
  <path
     d="m 265.63847,93.822124 c -0.21292,0.172984 -5.07021,3.78365 -6.21281,10.261046 -0.43286,2.45678 0.65776,2.84774 1.30054,0.79493 1.87834,-5.997444 6.38076,-9.487122 6.42674,-9.525118 0.43685,-0.355967 -1.07762,-1.886825 -1.51447,-1.530858"
     style="fill:#0f141b;fill-opacity:1;fill-rule:nonzero;stroke:none;stroke-width:0.999776"
     id="path13856" />
  <path
     d="m 225.13309,105.44685 c 0.24492,0.24497 4.81431,5.67047 11.54295,8.21324 0.56481,0.21298 1.24656,0.10999 1.4225,-0.32497 0.17594,-0.43696 0.015,-1.0869 -0.73274,-1.42787 -5.91493,-2.70075 -11.1171,-6.97436 -11.17608,-7.02935 -1.58544,-1.46386 -2.48513,-0.86192 -1.05663,0.56895"
     style="fill:#0f141b;fill-opacity:1;fill-rule:nonzero;stroke:none;stroke-width:0.999776"
     id="path13860" />
  <path
     d="m 256.85486,109.92493 c -1.4255,1.38787 -4.54341,2.82874 -5.87294,3.45268 -0.66976,0.31497 -0.98666,0.87792 -0.80372,1.31088 0.18194,0.43296 0.81071,0.46396 1.46349,0.25798 0.22292,-0.07 4.02258,-1.75284 5.73798,-3.89664 0.99966,-1.25289 0.62378,-2.24379 -0.52481,-1.1249"
     style="fill:#0f141b;fill-opacity:1;fill-rule:nonzero;stroke:none;stroke-width:0.999776"
     id="path13864" />
  <path
     d="m 273.69345,66.442259 c -0.007,0.936913 0.74974,1.702842 1.68441,1.709842 0.93667,0.006 1.7024,-0.748931 1.7084,-1.683845 0.008,-0.934912 -0.74674,-1.701842 -1.68241,-1.709841 -0.93667,-0.007 -1.7034,0.748931 -1.7104,1.683844"
     style="fill:#0f141b;fill-opacity:1;fill-rule:nonzero;stroke:none;stroke-width:0.999776"
     id="path13868" />
  <path
     d="m 273.31648,62.212451 c 3.03294,3.837644 12.78752,16.42048 14.42794,20.739079 0.5758,1.51386 0.32888,2.666754 -0.2869,5.691473 -0.61079,3.006722 0.0609,3.647663 1.20357,0.596945 1.07363,-2.861735 1.40452,-5.216517 0.93068,-6.80737 -1.1396,-3.822645 -11.79586,-17.786353 -14.97574,-21.407017 -4.14855,-4.720563 -4.74634,-3.177706 -1.29955,1.18689"
     style="fill:#0f141b;fill-opacity:1;fill-rule:nonzero;stroke:none;stroke-width:0.999776"
     id="path13872" />
  <path
     d="m 287.85088,79.456954 c -6.08287,-1.128896 -14.65186,-5.558485 -16.20831,-10.227053 -0.98066,-2.947727 -0.14095,-6.461402 2.04128,-8.588205 -0.36587,-0.365966 -0.73074,-0.458957 -1.09661,-0.822924 -2.24822,1.803833 -3.78068,6.199426 -2.34318,10.236052 1.66341,4.670568 10.79321,9.410129 17.63082,11.01998 0.45783,0.10799 0.43884,-1.532858 -0.024,-1.61785"
     style="fill:#0f141b;fill-opacity:1;fill-rule:nonzero;stroke:none;stroke-width:0.999776"
     id="path13876" />
  <path
     d="m 271.96085,71.865357 c 2.18724,2.022812 7.48138,2.05281 9.34373,-1.693844 l -0.89369,-1.016905 c -1.81037,3.34969 -6.89558,3.494676 -8.39006,1.208888 z"
     style="fill:#0f141b;fill-opacity:1;fill-rule:nonzero;stroke:none;stroke-width:0.999776"
     id="path13880" />
  <path
     d="m 255.68247,73.056747 c -0.2799,9.007166 0.76973,9.686102 1.15759,9.943079 0.48283,0.32397 1.29255,0.86492 10.08447,-5.512489 0.38086,-0.274975 -0.61779,-1.652847 -0.99865,-1.376873 -3.04693,2.208795 -6.89659,4.919544 -8.27211,5.522488 -0.17893,-0.879918 -0.055,-7.432311 -0.025,-8.381223 v -0.028 c 0,-0.456958 -1.93132,-0.636941 -1.94632,-0.166984"
     style="fill:#0f141b;fill-opacity:1;fill-rule:nonzero;stroke:none;stroke-width:0.999776"
     id="path13884" />
  <path
     d="m 266.48458,85.748072 c 0,-1.553856 0.31889,-5.559486 0.78273,-8.830183 0.006,-0.039 0.009,-0.08099 0.009,-0.119989 0,-0.416961 -1.66842,-0.947912 -1.73439,-0.481955 -1.39551,9.82909 -0.76273,10.621016 -0.33088,10.932988 0.40885,0.296972 1.36752,0.994908 10.64726,-4.213611 0.40986,-0.230978 -0.42285,-1.71484 -0.83271,-1.484862 -3.27585,1.83883 -7.1095,3.825646 -8.541,4.197612"
     style="fill:#0f141b;fill-opacity:1;fill-rule:nonzero;stroke:none;stroke-width:0.999776"
     id="path13888" />
  <path
     d="m 296.70498,38.884711 c -0.11396,0.455957 0.98365,1.463864 1.29054,1.109897 0.30589,-2.188797 7.15249,-7.693288 14.56389,-4.076622 0.42086,0.20498 0.67176,-1.068902 0.25191,-1.280882 -7.44639,-3.759652 -15.18267,0.546949 -16.10634,4.247607"
     style="fill:#0f141b;fill-opacity:1;fill-rule:nonzero;stroke:none;stroke-width:0.999776"
     id="path13892" />
  <path
     d="m 311.59755,54.104602 c -0.21892,0.415961 0.86969,1.808832 1.20258,1.477862 2.51611,-3.971632 7.32742,-6.386408 12.77851,-3.736653 0.42385,0.204981 0.78473,-1.018906 0.35988,-1.220887 -8.43805,-3.973633 -13.06742,1.070901 -14.34097,3.479678"
     style="fill:#0f141b;fill-opacity:1;fill-rule:nonzero;stroke:none;stroke-width:0.999776"
     id="path13896" />
  <path
     d="m 231.03902,31.755771 c 0.039,0.467956 1.44049,0.836922 1.44049,0.366966 -0.088,-11.403945 8.17813,-20.155134 23.74367,-17.939339 0.50782,0.07199 0.25891,-1.269882 -0.23892,-1.390872 -13.62222,-3.309693 -26.14582,4.189613 -24.94524,18.963245"
     style="fill:#0f141b;fill-opacity:1;fill-rule:nonzero;stroke:none;stroke-width:0.999776"
     id="path13900" />
  <path
     d="m 246.22389,47.631101 c 0,0.469956 1.67941,0.54395 1.6994,0.07299 0.52782,-12.159874 12.44464,-19.777169 23.58673,-17.116416 0.45784,0.108991 0.30089,-1.50686 -0.14995,-1.635848 -12.29668,-3.545672 -25.14118,4.498584 -25.13618,18.679271"
     style="fill:#0f141b;fill-opacity:1;fill-rule:nonzero;stroke:none;stroke-width:0.999776"
     id="path13904" />
  <path
     d="m 171.8246,133.9664 c -0.40086,0.39697 1.16459,2.29979 1.56546,1.90383 3.4158,-3.38069 6.92556,-6.80437 10.47532,-10.21805 l -3.98461,0.44696 c -2.86999,2.77074 -5.57704,5.41549 -8.05617,7.86726"
     style="fill:#0f141b;fill-opacity:1;fill-rule:nonzero;stroke:none;stroke-width:0.999776"
     id="path13908" />
  <path
     d="m 236.23039,37.48724 c -19.17726,13.671734 -41.04459,34.365818 -51.31698,46.178724 -0.36987,0.424961 4.04657,-0.74693 4.41645,-1.171891 11.33002,-13.027794 31.39198,-30.895139 48.58195,-43.009018 -0.65477,-0.570947 -1.22258,-1.229886 -1.68142,-1.997815"
     style="fill:#0f141b;fill-opacity:1;fill-rule:nonzero;stroke:none;stroke-width:0.999776"
     id="path13912" />
  <path
     d="m 299.85717,41.608958 c -9.6996,-9.473123 -22.37015,-16.750448 -32.68253,-17.657365 0.36987,0.837923 1.1256,1.538858 1.76238,2.322786 9.4037,1.450865 20.46582,8.744189 29.43067,16.51347 4.49143,4.132618 5.74799,2.981724 1.48948,-1.178891"
     style="fill:#0f141b;fill-opacity:1;fill-rule:nonzero;stroke:none;stroke-width:0.999776"
     id="path13916" />
  <path
     d="m 317.4264,92.377534 c -6.1,2.333299 -13.617,3.8167 -22.55,4.450001 1.8,-1.700001 3.2833,-3.349999 4.45,-4.950002 l 3.05,-5.149999 c 0,0 13.967,1.0012 17.05,0.750002 3.4,-0.333317 5.9,-1.250004 7.5,-2.750004 -0.36665,2.800003 -3.5333,5.350001 -9.5,7.650002"
     fill="#d7a400"
     id="path1729-0"
     style="stroke-width:0.999999" />
  <path
     d="m 310.63489,52.404359 c -3.81566,-4.470586 -5.73999,-3.631664 -1.89634,0.746931 12.93946,14.735636 18.55249,28.280381 16.78611,31.765059 -6.71065,9.538116 -39.35019,12.080881 -45.04719,11.705916 0.52881,-2.454773 1.86834,-8.295232 2.10226,-9.61711 0.011,-0.059 0.016,-0.118989 0.016,-0.178983 0,-0.289973 -0.12296,-0.568948 -0.34488,-0.764929 -0.75973,-0.671938 -18.68245,-16.722453 -33.63419,-14.819628 -10.24141,1.303879 -40.93764,28.367373 -64.02753,50.347335 l 1.51447,1.91883 c 26.14782,-24.989691 53.88709,-48.818485 62.671,-49.936381 12.87648,-1.638848 29.47366,11.043978 32.18471,13.326766 -0.64978,3.636663 -2.14225,9.372132 -2.35318,10.006074 -0.20593,0.616943 -0.21292,1.192889 0.5848,1.339876 9.9565,1.817835 41.83132,-2.717749 48.28405,-11.8899 3.09992,-4.407592 -4.43844,-20.40611 -16.84009,-33.949856"
     style="fill:#0f141b;fill-opacity:1;fill-rule:nonzero;stroke:none;stroke-width:0.999776"
     id="path13920" />
  <path
     d="m 168.27565,103.89999 c -32.03476,37.53152 -22.32817,26.62254 -41.25753,42.02611 -2.59409,2.11181 -4.30949,4.13762 -4.29449,6.55639 0.025,4.11562 4.73634,6.72438 4.90928,6.84837 2.57509,1.84983 3.56175,0.82392 0.83771,-1.33488 -0.19493,-0.15498 -3.19988,-2.28079 -3.44579,-5.4535 -0.13396,-1.72083 1.07062,-3.39868 3.20487,-4.97054 15.17667,-11.18495 22.64105,-18.93524 40.43181,-39.77831 0.36587,-0.42796 -0.02,-4.3236 -0.38586,-3.89364"
     style="fill:#0f141b;fill-opacity:1;fill-rule:nonzero;stroke:none;stroke-width:0.999776"
     id="path13924" />
  <path
     d="m 197.04685,78.328559 c -16.91306,5.381501 -24.99723,9.204147 -26.12183,10.649013 -1.68041,2.160801 -2.72605,6.360412 -3.81067,22.104958 -0.18193,2.63375 1.22657,2.42677 1.54046,0.097 1.40251,-10.40904 2.2922,-18.279311 4.0176,-20.498106 0.72374,-0.840922 8.04117,-4.026627 25.83993,-11.11697 3.24086,-1.29188 2.60208,-2.529765 -1.46549,-1.235885"
     style="fill:#0f141b;fill-opacity:1;fill-rule:nonzero;stroke:none;stroke-width:0.999776"
     id="path13928" />
  <path
     d="m 125.13229,155.92967 c -12.95346,36.38463 -39.729066,88.6268 -73.03837,130.13795 -6.683657,8.33223 -4.391464,10.49903 4.675359,7.79228 42.352137,-12.63083 97.515781,-45.27381 133.100281,-112.42759 0.26492,-0.49796 -1.6914,-1.0739 -1.9753,-0.58694 -43.79463,75.18103 -94.18695,98.00992 -133.978982,111.37868 -1.833354,0.61594 -4.301488,1.26388 -1.213576,-2.36978 19.416192,-22.82888 61.038578,-88.93676 74.328918,-132.09077 0.046,-0.15098 -1.65442,-2.34178 -1.89833,-1.83383"
     style="fill:#0f141b;fill-opacity:1;fill-rule:nonzero;stroke:none;stroke-width:0.999776"
     id="path13932" />
  <path
     d="m 50.129909,259.71926 c -1.705404,-2.46977 -2.825009,-1.56585 -1.360525,0.91192 3.435797,5.82346 7.496372,11.28395 12.058769,16.36148 0.417851,-0.80692 0.764731,-1.61885 1.215571,-2.36978 -4.216521,-4.57458 -8.207116,-9.53411 -11.913815,-14.90362"
     style="fill:#0f141b;fill-opacity:1;fill-rule:nonzero;stroke:none;stroke-width:0.999776"
     id="path13936" />
  <path
     d="m 119.79846,311.25299 c -15.91842,-5.02554 -31.493949,-13.21377 -45.392069,-24.8537 -0.820715,0.36997 -1.719402,0.76693 -2.613089,1.23389 13.337318,11.37994 29.406688,20.11614 46.443708,25.65862 0.5508,-0.67894 1.04363,-1.35987 1.56145,-2.03881"
     style="fill:#0f141b;fill-opacity:1;fill-rule:nonzero;stroke:none;stroke-width:0.999776"
     id="path13940" />
  <path
     d="m 263.74134,127.27103 c -2.99995,1.90882 -24.74131,19.30021 -29.08879,25.93559 -1.79737,2.74375 -4.72834,15.09661 -5.63103,21.19004 -0.04,0.26898 0.028,0.54195 0.18994,0.75993 11.84085,15.93952 25.04721,44.79685 21.30852,72.84026 -2.76403,20.74408 -15.12669,40.17728 -33.91609,53.31506 -19.02233,13.29977 -46.60564,18.85425 -75.07066,14.85562 -0.59779,0.75393 -1.23757,1.46287 -1.7174,2.33379 28.14812,4.51958 56.82306,0.27498 78.57343,-14.93162 19.25824,-13.46375 31.93179,-33.13693 34.77179,-54.44596 0.46984,-3.52967 0.68876,-7.06634 0.68876,-10.58602 0,-24.8477 -11.53595,-49.6604 -22.04126,-63.94707 1.08162,-7.15235 3.30584,-18.12133 4.60838,-20.35512 2.11926,-3.63366 24.02957,-21.93797 27.90121,-25.39965 2.40516,-2.1508 2.31418,-3.40768 -0.5768,-1.56485"
     style="fill:#0f141b;fill-opacity:1;fill-rule:nonzero;stroke:none;stroke-width:0.999776"
     id="path13944" />
  <path
     d="m 36.455307,237.25204 c -26.5376875,31.94104 -26.357751,32.65998 -26.198806,33.29492 0.07697,0.30597 0.296895,0.74093 0.91168,1.0619 4.210522,2.2068 30.742212,-0.71793 42.229179,-5.04953 0.527815,-0.19798 -0.435844,-2.74374 -0.963659,-2.54477 -12.357667,4.65957 -35.156664,6.81337 -39.376183,5.70248 3.857644,-4.27461 15.802452,-19.10223 25.057205,-30.2402 0.157947,-0.19099 -1.298545,-2.65976 -1.659416,-2.2248"
     style="fill:#0f141b;fill-opacity:1;fill-rule:nonzero;stroke:none;stroke-width:0.999776"
     id="path13948" />
  <path
     d="m 49.858204,177.30239 c -1.399511,10.03807 -6.744633,48.75749 -6.809613,49.17445 -0.530813,3.40068 0.803718,4.04763 1.773376,0.11599 1.405509,-5.69747 5.703001,-32.97795 7.06552,-49.22144 0.03801,-0.45996 0.08897,-0.94392 0.14395,-1.1319 2.863995,2.09881 12.221716,28.67835 15.021729,72.97225 0.03599,0.56194 2.983953,1.76483 2.94897,1.20188 -2.733046,-43.214 -13.107403,-76.17294 -18.114649,-76.20494 -0.819709,-0.006 -1.670413,0.52095 -2.029283,3.09371"
     style="fill:#0f141b;fill-opacity:1;fill-rule:nonzero;stroke:none;stroke-width:0.999776"
     id="path13952" />
  <path
     d="m 31.821828,211.8027 c -2.799015,1.97482 3.069926,23.7918 5.542056,29.26929 1.698409,3.76265 3.05493,2.73474 1.883339,-0.78993 -2.571096,-7.73328 -5.821955,-21.04305 -6.245804,-26.31756 1.341527,1.45087 3.73369,4.81355 5.377114,6.88436 1.813358,2.28479 4.2735,5.57049 5.225164,6.55539 0.391865,0.40597 1.28055,-2.56776 0.888685,-2.97372 -0.883685,-0.91591 -2.566094,-3.03472 -4.347469,-5.27851 -6.241815,-7.86327 -7.171489,-8.16325 -8.323085,-7.34932"
     style="fill:#0f141b;fill-opacity:1;fill-rule:nonzero;stroke:none;stroke-width:0.999776"
     id="path13956" />
  <path
     d="m 63.245604,247.86586 12.122744,8.25124 c 0.447848,0.34296 1.961312,-2.30479 1.512474,-2.64676 l -13.003437,-7.26533 c -2.179238,-1.66684 -2.965959,-0.42096 -0.631781,1.66085"
     style="fill:#0f141b;fill-opacity:1;fill-rule:nonzero;stroke:none;stroke-width:0.999776"
     id="path13960" />
  <path
     d="m 174.20356,136.2346 c 5.87295,-1.23989 13.58824,-1.0379 23.53075,2.34678 3.37781,1.15189 2.92397,2.44977 -0.21593,1.58185 -28.39803,-7.85027 -37.3239,7.23133 -37.70377,7.89627 -0.2799,0.48795 -2.05327,-0.51795 -1.77637,-1.00691 0.053,-0.095 2.90998,-5.46349 10.16543,-8.83618 l 6.06188,-0.68793 z"
     style="fill:#0f141b;fill-opacity:1;fill-rule:nonzero;stroke:none;stroke-width:0.999776"
     id="path13964" />
  <path
     d="m 177.83869,137.49948 8.28009,16.41048 c 0.23992,0.50995 2.08827,-0.35796 1.84836,-0.86892 l -7.64532,-16.28049 c -0.23991,-0.51095 -2.72304,0.22798 -2.48313,0.73893"
     style="fill:#0f141b;fill-opacity:1;fill-rule:nonzero;stroke:none;stroke-width:0.999776"
     id="path13968" />
  <path
     d="m 144.52948,143.51122 c 0.55981,0.77093 2.0143,2.95273 3.4128,3.51168 1.26556,0.50595 29.55963,5.68447 35.21865,6.71737 0.16294,0.02 6.76762,0.86193 13.9301,4.12362 9.61763,4.3796 23.58073,27.0385 19.04332,57.20271 -0.78372,5.20751 -1.39951,4.32359 -2.67107,1.13289 -4.44643,-11.15296 -13.62521,-35.32173 -31.07508,-39.03838 -3.85365,-0.81993 -4.46244,0.46195 -0.43685,1.73384 15.53254,4.90554 25.18816,27.27047 29.6236,38.07947 3.31984,8.09525 4.68035,7.69629 6.5367,-1.34988 4.53242,-22.11095 -3.96761,-52.41614 -20.12593,-59.86045 -7.62632,-3.51268 -14.11005,-4.41559 -14.25,-4.43259 -13.28234,-2.42577 -33.84812,-5.80747 -35.0557,-6.21343 -0.59479,-0.23797 -1.94631,-1.11589 -3.1359,-2.23679 -1.32453,-1.24588 -1.90233,-0.59095 -1.01464,0.62994"
     style="fill:#0f141b;fill-opacity:1;fill-rule:nonzero;stroke:none;stroke-width:0.999776"
     id="path13972" />
  <path
     d="m 188.12038,181.5153 c -0.60179,5.68247 -2.32519,14.72264 -3.90063,17.76336 -0.2599,0.50195 1.97631,2.60076 2.23721,2.09981 1.7294,-3.3377 3.39082,-13.32578 4.03659,-19.42821 0.059,-0.56095 -2.31419,-0.99491 -2.37317,-0.43496"
     style="fill:#0f141b;fill-opacity:1;fill-rule:nonzero;stroke:none;stroke-width:0.999776"
     id="path13976" />
  <path
     d="m 181.02478,152.58298 c 0,0 5.23315,7.07335 5.93191,7.98426 -0.73274,1.40588 -3.23786,5.26051 -3.23786,9.97208 0,3.67366 1.60543,7.44931 4.90328,11.64892 0.34887,0.44396 2.21122,-0.47895 1.86234,-0.92291 -7.75428,-9.87309 -1.7094,-19.83017 -1.44849,-20.25013 0.22492,-0.36096 0.20393,-0.82592 -0.0549,-1.16289 l -5.79497,-7.5613 c -0.34387,-0.44696 -2.30319,0.10699 -2.16123,0.29197"
     style="fill:#0f141b;fill-opacity:1;fill-rule:nonzero;stroke:none;stroke-width:0.999776"
     id="path13980" />
  <path
     d="m 205.78628,63.851499 c -1.19858,2.675752 -1.49247,12.517841 11.15509,29.801241 0.2779,0.378964 1.6774,-0.54795 1.4185,-0.939914 -11.57094,-17.461383 -11.87784,-26.251569 -11.02014,-28.165391 0.19094,-0.428961 -1.36252,-1.125896 -1.55345,-0.695936"
     style="fill:#0f141b;fill-opacity:1;fill-rule:nonzero;stroke:none;stroke-width:0.999776"
     id="path13984" />
  <path
     d="m 215.18658,55.213299 c -1.59544,3.720655 0.72474,15.274585 11.65891,30.286196 0.2759,0.379965 1.68141,-0.534951 1.4245,-0.928915 -10.5403,-16.176502 -12.66355,-26.01759 -11.51896,-28.686344 0.18494,-0.43196 -1.37952,-1.103897 -1.56445,-0.670937"
     style="fill:#0f141b;fill-opacity:1;fill-rule:nonzero;stroke:none;stroke-width:0.999776"
     id="path13988" />
  <path
     d="m 225.00524,47.377124 c -2.22622,4.267605 2.51411,18.58528 10.85319,30.560171 0.26891,0.385964 1.7074,-0.446959 1.47148,-0.853921 -8.52701,-14.732636 -12.19472,-26.273568 -10.8162,-28.918322 0.21792,-0.416962 -1.29255,-1.203889 -1.50847,-0.787928"
     style="fill:#0f141b;fill-opacity:1;fill-rule:nonzero;stroke:none;stroke-width:0.999776"
     id="path13992" />
  <path
     d="M 6.3222785,67.237786 C 0.81521345,64.458043 0.33137823,63.702113 9.3492139,60.679393 57.718244,44.467894 141.58382,52.918111 188.32841,82.424379 c 0.47683,0.301972 2.13425,-1.517859 1.66441,-1.82983 C 147.21483,52.274171 63.283294,41.176198 7.8667366,58.607584 -0.94417168,61.379328 -2.6845585,65.275967 4.3309773,68.960626 45.700463,90.683615 59.959455,100.18573 98.504929,126.30632 c 2.374171,1.60985 2.912971,2.46877 7.452381,2.04581 10.95616,-1.02091 41.6194,-1.75684 44.92024,-1.20689 0.55581,0.092 0.8727,-1.84283 0.33589,-2.01581 -4.64438,-1.49187 -45.26312,-0.106 -49.0328,0.11898 C 59.991446,97.64597 47.648775,88.096854 6.3222785,67.237786"
     style="fill:#0f141b;fill-opacity:1;fill-rule:nonzero;stroke:none;stroke-width:0.999776"
     id="path13996" />
  <path
     d="m 310.63768,180.54679 c -2.78102,-1.69884 -10.00848,-5.3705 -10.75522,-6.4004 -0.16294,-0.42296 -0.38986,-1.56986 -0.63078,-2.78475 -0.35987,-1.82483 -0.80971,-4.09562 -1.48348,-5.76346 -1.02664,-2.53877 -19.05432,-19.4732 -26.93455,-24.21376 -5.34612,-3.2167 -16.92406,-5.23851 -17.41689,-5.31951 -0.5568,-0.091 -2.03028,2.26879 -1.47448,2.35979 0.11696,0.019 12.86649,1.60384 17.80875,4.69156 5.25716,3.28669 25.12519,21.27203 26.13183,23.26684 0.59379,1.46886 0.74174,3.91364 1.08562,5.65348 0.2819,1.42687 0.50483,2.55377 0.78272,3.2387 0.45485,1.12289 3.56176,2.27179 12.06177,6.5084 3.12391,1.55585 4.32549,0.82392 0.82471,-1.23689"
     style="fill:#0f141b;fill-opacity:1;fill-rule:nonzero;stroke:none;stroke-width:0.999776"
     id="path14000" />
  <path
     d="m 284.79736,127.26453 c -1.55446,-2.2088 -2.54911,-3.68066 -2.69506,-3.97463 -0.38887,-0.77793 -0.5648,-3.21971 -0.89369,-10.16406 -0.13095,-2.77975 -0.2959,-6.23743 -0.41385,-6.69838 -0.41686,-0.76193 -6.65367,-6.538398 -10.89018,-10.775006 -0.39886,-0.398963 2.20423,-0.833922 2.60208,-0.434959 3.4388,3.439682 10.17543,9.121155 10.62028,10.229055 0.22192,0.55595 -0.12696,2.34478 0.12195,7.5823 0.16295,3.42868 0.61679,8.27323 0.8827,8.99916 0.14594,0.26298 1.14959,1.67285 2.70404,3.79665 z"
     style="fill:#0f141b;fill-opacity:1;fill-rule:nonzero;stroke:none;stroke-width:0.999776"
     id="path14004" />
  <path
     d="m 295.32206,141.6324 c -1.1576,-1.52386 -2.2942,-3.03972 -3.38481,-4.50859 l 1.09861,-2.94072 c 1.37452,1.83383 2.82801,3.75965 4.29849,5.69347 z"
     style="fill:#0f141b;fill-opacity:1;fill-rule:nonzero;stroke:none;stroke-width:0.999776"
     id="path14008" />
  <path
     d="m 303.71461,152.25672 c 2.21823,2.66574 4.2855,5.00453 6.00989,6.71837 0.40087,0.39697 3.03294,-0.13599 2.61509,-0.51395 -1.26556,-1.13789 -4.11356,-4.57558 -7.53636,-8.91317 z"
     style="fill:#0f141b;fill-opacity:1;fill-rule:nonzero;stroke:none;stroke-width:0.999776"
     id="path14012" />
  <path
     d="m 307.09723,158.77901 c 0.16194,0.066 13.08141,5.76047 49.68456,10.49802 7.4244,0.88093 24.65635,2.56977 28.88686,6.65439 12.28969,11.8679 18.43453,31.51908 18.73343,44.3309 0.11796,5.13252 0.17294,5.60648 -2.76203,1.45586 -7.93122,-11.20896 -21.9353,-25.77361 -25.49105,-28.51336 -4.8643,-3.74865 -22.70903,-7.47731 -23.50075,-7.68129 -3.19088,-0.82492 -3.68571,0.34597 -0.56581,1.36487 6.89458,2.2518 19.6871,6.41741 22.803,8.7122 3.52776,2.60075 15.87143,16.40548 24.77231,27.56845 4.40745,5.52648 6.85359,8.18224 6.71464,-2.78875 -0.15095,-12.03788 -4.60539,-33.27792 -18.99833,-46.21472 -6.57469,-5.90745 -27.81424,-7.17533 -29.82653,-7.4723 -34.40094,-4.88455 -49.71656,-9.63911 -49.8815,-9.69111 -3.00195,-0.97591 -3.6967,0.49696 -0.5688,1.77684"
     style="fill:#0f141b;fill-opacity:1;fill-rule:nonzero;stroke:none;stroke-width:0.999776"
     id="path14016" />
  <path
     d="m 355.44036,168.27113 c 0,0 10.53531,7.97626 11.46299,8.6662 -0.10497,0.62094 -0.23193,1.60384 -0.23193,2.90272 0,3.74366 1.70141,9.74411 7.59734,14.34468 0.44584,0.34697 2.32618,-0.63294 1.88034,-0.97991 -8.18413,-6.38641 -6.61468,-16.01752 -6.51671,-16.39648 0.10096,-0.40097 -0.047,-0.82593 -0.37987,-1.07491 l -11.00014,-8.19723 c -0.45184,-0.33698 -3.08092,0.53495 -2.81202,0.73493"
     style="fill:#0f141b;fill-opacity:1;fill-rule:nonzero;stroke:none;stroke-width:0.999776"
     id="path14020" />
  <path
     d="m 304.85492,179.09762 c 4.2705,5.61848 50.30734,47.5696 85.94883,132.20776 3.57075,8.48022 9.17578,12.65183 9.21877,0.48896 0.07,-19.60818 -2.21123,-77.09186 -16.56119,-110.93773 -0.21992,-0.51895 -2.92197,-0.96991 -2.88598,-0.87691 11.23105,29.0633 16.63816,70.34248 16.89406,112.35859 0.03,4.60557 -1.30654,5.57049 -3.26985,0.65994 -35.16865,-87.89786 -85.25008,-132.37075 -85.83088,-133.13467 -0.34188,-0.44696 -3.85564,-1.21489 -3.51376,-0.76594"
     style="fill:#0f141b;fill-opacity:1;fill-rule:nonzero;stroke:none;stroke-width:0.999776"
     id="path14024" />
  <path
     d="m 261.07797,101.17294 c 0.14395,0.30597 14.46793,30.81815 16.89708,48.07255 0.079,0.55895 1.57044,0.023 1.51646,-0.53795 -1.83135,-18.77126 -15.97239,-47.14463 -16.56718,-48.40652 -0.24092,-0.509949 -2.08727,0.36097 -1.84636,0.87192"
     style="fill:#0f141b;fill-opacity:1;fill-rule:nonzero;stroke:none;stroke-width:0.999776"
     id="path14028" />
  <path
     d="m 296.24434,119.57504 c -0.82272,4.11462 -4.2725,15.34458 -5.50807,17.96634 -4.68436,-3.14671 -7.10251,-8.09925 -7.29344,-8.41822 4.53441,-3.58067 10.44134,-7.93927 12.80151,-9.54812 m -14.42694,8.6812 c -0.39086,0.33097 -0.51682,0.86392 -0.22492,1.54485 0,0 2.33418,6.11843 8.80091,9.7771 0.47883,0.27097 1.08862,0.24697 1.62343,-0.46296 1.08062,-1.43386 2.93297,-8.01226 3.67871,-10.774 2.5451,-9.41913 2.30619,-9.98608 1.87134,-10.37604 -0.80472,-0.72093 -6.49472,2.47277 -15.74947,10.29105"
     style="fill:#0f141b;fill-opacity:1;fill-rule:nonzero;stroke:none;stroke-width:0.999776"
     id="path14032" />
  <path
     d="m 308.51303,133.31287 c -0.2949,3.62166 -4.18553,16.01552 -5.74399,18.94524 -4.43644,-2.94873 -6.87558,-7.33632 -7.48137,-9.79009 4.99425,-3.83465 11.06912,-8.09525 13.22536,-9.15515 m -14.90077,8.15924 c -0.32589,0.25198 -0.46883,0.67394 -0.36287,1.0709 0.084,0.32097 1.78837,7.5963 9.05782,11.31595 0.47583,0.24298 1.31454,0.41297 1.9873,-0.69293 1.31554,-2.1598 7.38341,-20.10114 5.45908,-21.591 -0.65177,-0.50496 -1.87734,-1.1269 -16.14133,9.89708"
     style="fill:#0f141b;fill-opacity:1;fill-rule:nonzero;stroke:none;stroke-width:0.999776"
     id="path14036" />
  <path
     d="m 216.32229,186.72502 c 7.75927,0.19898 16.65815,1.88082 23.11988,4.87555 0.51182,0.23698 1.36952,-1.61585 0.8587,-1.85283 -6.89258,-3.1957 -15.93441,-5.22651 -23.96859,-5.53849 z"
     style="fill:#0f141b;fill-opacity:1;fill-rule:nonzero;stroke:none;stroke-width:0.999776"
     id="path14040" />
  <path
     d="m 197.98742,189.27048 c -3.25586,0.90792 -6.44074,2.06481 -9.49567,3.46969 -0.51182,0.23597 -1.35952,-1.60886 -0.8527,-1.85584 3.09591,-1.51086 6.19583,-2.74674 9.28175,-3.72365 z"
     style="fill:#0f141b;fill-opacity:1;fill-rule:nonzero;stroke:none;stroke-width:0.999776"
     id="path14044" />
  <path
     d="m 189.12433,210.27654 c 16.59317,12.30486 28.87186,22.31993 45.3221,37.10156 0.54281,0.48696 0.98165,0.60995 1.52546,-0.18298 4.94726,-7.21233 13.26234,-20.84207 14.66485,-29.40328 0.091,-0.55695 -1.81436,-1.94282 -1.90533,-1.38587 -1.29554,7.90927 -8.91087,21.586 -13.74217,28.85433 -16.07736,-14.39167 -28.96684,-25.33166 -45.30311,-37.44454 -0.45284,-0.33696 -1.01464,2.12481 -0.5618,2.46078"
     style="fill:#0f141b;fill-opacity:1;fill-rule:nonzero;stroke:none;stroke-width:0.999776"
     id="path14048" />
  <path
     d="m 195.33815,248.27592 c 1.45249,0.75893 35.19565,24.29775 36.78609,25.09268 0.50882,0.25397 0.66876,0.17898 1.08962,-0.11399 4.42144,-3.07772 15.3566,-15.0596 19.72007,-25.9286 0.20893,-0.52395 -1.05563,-3.41969 -1.19358,-2.87273 -2.11326,8.45721 -12.89047,21.21603 -19.0753,26.20957 -4.72834,-2.44078 -36.33125,-24.37374 -36.66714,-24.54973 -0.49982,-0.26097 -1.15958,1.90183 -0.65976,2.1628"
     style="fill:#0f141b;fill-opacity:1;fill-rule:nonzero;stroke:none;stroke-width:0.999776"
     id="path14052" />
  <path
     d="m 179.65345,207.81927 c 1.4305,2.50177 2.0233,21.65599 1.46049,23.60581 -0.60579,2.10181 -3.85764,7.73729 -7.45538,10.89399 -0.42385,0.37097 -1.18159,-1.1029 -0.95867,-1.31187 3.4318,-3.2307 5.98991,-8.44523 6.45974,-10.07307 0.1,-0.37997 0.14395,-1.46887 0.14395,-2.97373 0,-4.95654 -0.20693,-15.34758 -0.80072,-18.80226 -2.37317,3.12372 -8.84889,13.71373 -10.2684,18.99324 -0.006,0.044 -0.009,0.101 -0.009,0.17299 0,1.26688 0.8677,6.74537 1.74939,11.62192 0.011,0.061 -1.7164,1.01491 -1.81736,0.45896 -0.76574,-4.23361 -2.26921,-11.44294 -1.96631,-12.57184 1.31554,-4.89954 10.18442,-21.06105 12.67555,-20.68408 0,0 0.41686,0.009 0.78672,0.66994"
     style="fill:#0f141b;fill-opacity:1;fill-rule:nonzero;stroke:none;stroke-width:0.999776"
     id="path14056" />
  <path
     d="m 161.53061,255.60235 c 0,-0.54796 0.032,-1.0859 0.10397,-1.60586 0.33088,-2.41677 7.75428,-12.83681 10.51031,-15.66455 0.33188,2.45377 0.36087,8.94018 0.36087,13.27077 0,2.1798 -0.093,4.01563 -0.32888,4.92155 -0.69076,2.64575 -5.34513,9.71509 -7.91922,11.43393 -0.91468,-2.0178 -2.72705,-7.97725 -2.72705,-12.35584 m 10.06847,-18.90626 c -2.21222,1.34988 -11.53895,13.74973 -11.9878,17.02143 -0.88568,6.4564 2.96596,14.86662 3.34484,15.43957 0.34087,0.51395 0.74374,0.65994 1.22057,0.50895 3.30683,-1.0579 9.08681,-9.22015 9.97649,-12.62683 0.61879,-2.37578 0.34988,-9.13915 0.25392,-11.15596 -0.43185,-8.94618 -1.27056,-9.24215 -1.63343,-9.37014 -0.36387,-0.12799 -0.76273,-0.068 -1.17459,0.18298"
     style="fill:#0f141b;fill-opacity:1;fill-rule:nonzero;stroke:none;stroke-width:0.999776"
     id="path14060" />
  <path
     d="m 278.77856,196.55471 c 1.48148,3.99463 3.24487,25.87461 3.24487,30.65416 0,0.14099 -0.012,0.18499 -0.016,0.29697 -2.66607,-0.38896 -13.85714,-5.94145 -16.52421,-11.09397 4.99025,-8.45422 11.25406,-17.95234 13.29534,-19.85716 m 0.31389,-1.70084 c -1.20158,-0.31497 -6.37276,4.19961 -15.44158,21.12604 -0.18094,0.33897 -0.18194,0.61894 -0.059,0.91892 2.80202,6.80037 15.82145,12.87381 18.94636,12.67583 1.06462,-0.067 1.35052,-0.78694 1.4135,-1.00592 0.55081,-1.93081 -2.02129,-28.91832 -3.90163,-32.79796 -0.34588,-0.81492 -0.73675,-0.85992 -0.95766,-0.91691"
     style="fill:#0f141b;fill-opacity:1;fill-rule:nonzero;stroke:none;stroke-width:0.999776"
     id="path14064" />
  <path
     d="m 300.02831,216.1191 c 1.26356,4.3376 2.69505,24.87569 2.69505,30.95913 0,0.24298 -0.008,0.41296 -0.014,0.60995 -3.14689,-1.99382 -12.55959,-9.45213 -14.38495,-13.84172 4.68935,-8.19225 9.76757,-15.82154 11.70389,-17.72736 m -13.72318,17.12041 c -0.15095,0.25298 -0.19793,0.56195 -0.095,0.83792 2.53611,6.77338 14.37995,15.1396 16.65615,16.00852 0.16695,0.064 0.67477,0.25798 1.1646,-0.028 0.45384,-0.26498 1.51547,-0.88592 -0.33888,-20.17613 -1.4365,-14.93862 -2.55411,-15.34258 -3.12291,-15.52857 -0.80771,-0.26397 -2.47113,-0.86592 -14.26399,18.88626"
     style="fill:#0f141b;fill-opacity:1;fill-rule:nonzero;stroke:none;stroke-width:0.999776"
     id="path14068" />
  <path
     d="m 134.82738,305.40763 c 0.014,0.047 1.31455,4.09762 2.07428,6.78537 0.71575,2.53577 1.57544,1.98482 1.22557,-0.52595 -0.33888,-2.42677 -1.28255,-6.63938 -1.34053,-6.83537 -0.5918,-2.01181 -2.55011,-1.43687 -1.95932,0.57595"
     style="fill:#0f141b;fill-opacity:1;fill-rule:nonzero;stroke:none;stroke-width:0.999776"
     id="path14072" />
  <path
     d="m 107.1463,331.33173 c 3.57175,4.29761 11.29203,9.91009 27.82424,7.03935 0.46283,-0.079 0.2729,-1.74284 -0.19394,-1.69084 -15.28063,1.75283 -23.49175,-3.10672 -26.52469,-6.78138 -0.3009,-0.35796 -1.40551,1.07191 -1.10561,1.43287"
     style="fill:#0f141b;fill-opacity:1;fill-rule:nonzero;stroke:none;stroke-width:0.999776"
     id="path14076" />
  <path
     d="m 100.39706,342.16663 c 5.9889,7.95226 18.71844,11.04798 31.68189,7.95526 0.45684,-0.10899 0.14495,-1.75783 -0.31689,-1.67185 -10.02648,2.53177 -24.44242,-0.50995 -30.04046,-7.35331 -0.2969,-0.36297 -1.60744,0.69593 -1.32454,1.0699"
     style="fill:#0f141b;fill-opacity:1;fill-rule:nonzero;stroke:none;stroke-width:0.999776"
     id="path14080" />
  <path
     d="m 94.257617,353.53948 c 8.105163,11.40294 26.863573,14.30667 36.008363,7.37631 0.37487,-0.28397 -0.35387,-1.82983 -0.72274,-1.53986 -7.80126,6.15343 -27.56533,2.77575 -34.146023,-7.10034 z"
     style="fill:#0f141b;fill-opacity:1;fill-rule:nonzero;stroke:none;stroke-width:0.999776"
     id="path14084" />
  <path
     d="m 268.30374,310.47246 c 3.26185,7.30332 12.94546,10.74501 23.34481,10.63002 0.46984,-0.006 0.68176,-1.69684 0.21292,-1.68885 -10.29038,0.16199 -19.80705,-4.47458 -22.19421,-9.96007 -0.2829,-0.37497 -1.55445,0.59194 -1.36352,1.0189"
     style="fill:#0f141b;fill-opacity:1;fill-rule:nonzero;stroke:none;stroke-width:0.999776"
     id="path14088" />
  <path
     d="m 260.69621,318.6217 c 6.06487,9.24015 17.79676,14.38367 28.19011,11.85291 0.45584,-0.11099 0.51881,-1.78683 0.056,-1.70284 -11.34302,2.08981 -22.07625,-4.20162 -26.84557,-11.11697 -0.26691,-0.38697 -1.65842,0.57594 -1.40051,0.9669"
     style="fill:#0f141b;fill-opacity:1;fill-rule:nonzero;stroke:none;stroke-width:0.999776"
     id="path14092" />
  <path
     d="m 253.05299,328.94505 c 10.19442,13.70874 35.07569,17.2994 38.45251,9.64411 0.18893,-0.42996 -0.15595,-2.04781 -0.40986,-1.65085 -4.09256,6.37941 -25.31311,3.74665 -36.98002,-9.32314 -0.36687,-0.29297 -1.34253,0.95391 -1.06263,1.32988"
     style="fill:#0f141b;fill-opacity:1;fill-rule:nonzero;stroke:none;stroke-width:0.999776"
     id="path14096" />
  <path
     d="m 238.85338,280.01528 c -0.55881,-0.071 -1.97631,2.87774 -1.41351,2.92473 9.37871,0.77493 27.58132,5.32651 45.3151,14.17569 3.76468,1.87683 4.08257,0.30597 0.3009,-2.03481 -16.04437,-9.94408 -33.10939,-13.64174 -44.20249,-15.06561"
     style="fill:#0f141b;fill-opacity:1;fill-rule:nonzero;stroke:none;stroke-width:0.999776"
     id="path14100" />
  <path
     d="m 252.27087,338.44847 c -1.51147,-3.15171 -1.16759,-5.12652 0.78372,-7.60429 7.21147,-9.15716 29.43767,-34.42082 29.6576,-34.84378 0.079,-0.15098 -1.94832,-1.79083 -2.20923,-1.29088 -0.048,0.093 -18.48452,20.89907 -30.39434,35.16675 -2.47612,2.96372 -1.66641,6.57638 -0.62477,8.75319 1.63442,3.44668 5.79096,8.96517 8.00818,14.75763 3.1369,8.19424 5.38411,17.99133 9.55365,21.81098 2.38717,2.1878 6.35377,1.67185 7.38241,2.29978 0.48183,0.29398 1.37752,-1.55285 1.06163,-1.74484 -0.97366,-0.59394 -3.75968,-0.013 -6.36777,-2.46176 -4.09556,-3.84265 -8.28509,-17.10742 -9.75657,-21.23204 -1.47248,-4.12261 -5.26315,-9.7421 -7.09451,-13.61074"
     style="fill:#0f141b;fill-opacity:1;fill-rule:nonzero;stroke:none;stroke-width:0.999776"
     id="path14104" />
  <path
     d="m 127.00033,255.10869 c -1.00365,7.5713 -0.20792,18.97724 2.31019,44.10792 0.5708,5.70047 2.32918,6.11943 2.03729,-0.14899 -1.05263,-22.55092 -2.47214,-34.25783 -1.90534,-45.3678 0.029,-0.56295 -2.36917,0.84892 -2.44214,1.40887"
     style="fill:#0f141b;fill-opacity:1;fill-rule:nonzero;stroke:none;stroke-width:0.999776"
     id="path14108" />
  <path
     d="m 130.33686,292.66001 c -0.052,0.071 -1.7164,9.04616 -8.80591,14.19369 -3.07492,2.23279 -26.313767,42.75104 -30.072445,49.48642 -4.558401,8.16824 -8.919868,32.54798 -8.973849,33.29091 -0.04198,0.56195 1.448492,0.71293 1.489472,0.14999 0.01402,-0.17599 5.546052,-23.97578 9.351716,-31.27111 4.855297,-9.30913 26.796606,-46.88665 29.848526,-49.40842 6.5727,-5.4295 7.23546,-11.29196 7.45939,-11.59493 0.33488,-0.45296 0.038,-5.29951 -0.2969,-4.84655"
     style="fill:#0f141b;fill-opacity:1;fill-rule:nonzero;stroke:none;stroke-width:0.999776"
     id="path14112" />
  <path
     d="m 180.51226,197.24015 c 0.06,0.053 6.61567,5.66047 8.08815,13.51575 l 0.84371,4.2016 c 2.50611,12.21088 8.37306,40.80423 4.14454,51.93519 -4.88828,12.86682 -38.51548,39.96131 -53.61418,48.35653 -3.23587,1.79783 -12.8365,46.35671 -10.97515,54.86492 0.98565,4.50658 2.04628,7.13434 2.98195,9.45112 0.80672,1.99582 1.24357,3.01073 1.9893,5.62148 0.15495,0.54295 2.07428,0.81593 2.0063,0.25798 -0.35287,-2.92273 -0.75274,-4.52358 -1.69441,-6.98135 -0.86369,-2.25879 -1.78936,-5.17653 -2.73903,-9.51512 -1.86035,-8.51222 8.2621,-50.06336 10.26539,-52.01918 21.69839,-12.13088 49.39167,-35.15275 54.61284,-48.89648 4.43944,-11.68492 -1.7334,-40.46725 -4.2745,-52.85311 l -0.83671,-4.16661 c -1.57045,-9.13615 -9.46268,-15.48857 -9.72758,-15.72155 -0.42386,-0.37096 -1.49348,1.57686 -1.07062,1.94883"
     style="fill:#0f141b;fill-opacity:1;fill-rule:nonzero;stroke:none;stroke-width:0.999776"
     id="path14116" />
  <path
     d="m 266.97061,211.94568 c -5.61303,-3.53367 -11.06012,-6.48939 -16.08436,-8.79418 -0.18494,-0.085 -0.33988,-0.22198 -0.44484,-0.39496 -5.696,-9.30214 -13.9741,-24.9357 -14.5419,-30.57017 -1.24656,-12.38786 2.17524,-21.80298 2.32719,-22.23194 0.18893,-0.52996 3.16889,-2.00482 3.16889,-1.58386 0,0.11299 -3.24387,9.29314 -3.24387,18.87425 0,1.63785 0.075,3.33769 0.24991,5.07553 0.50183,4.98254 7.82426,18.98224 13.46627,28.23339 5.36413,2.48177 11.07512,5.70047 16.92507,9.21915 z"
     style="fill:#0f141b;fill-opacity:1;fill-rule:nonzero;stroke:none;stroke-width:0.999776"
     id="path14120" />
  <path
     d="m 290.3742,229.59265 c -2.41715,-2.1578 -4.8693,-4.22561 -7.33443,-6.19843 l -1.11361,-4.88554 c 3.25486,2.43777 6.50272,5.07353 9.7106,7.92326 z"
     style="fill:#0f141b;fill-opacity:1;fill-rule:nonzero;stroke:none;stroke-width:0.999776"
     id="path14124" />
  <path
     d="m 303.90825,243.1406 c 7.00354,7.90127 14.62487,18.46529 17.87172,26.9255 3.7197,9.68811 0.74074,15.30059 -8.33907,22.17795 -6.09786,4.61757 -16.66315,11.10397 -20.67275,20.96306 -5.34312,13.13878 -6.88158,18.06232 -2.82,24.40974 3.72868,5.82546 11.14609,12.66383 13.73118,14.30668 0.47683,0.30297 1.4025,-1.52886 1.09661,-1.72385 -2.44514,-1.55385 -9.00984,-8.33922 -12.48262,-13.76572 -1.4295,-2.23179 -2.19423,-4.06262 -2.19423,-6.43741 0,-3.24669 1.4315,-7.5083 4.5604,-15.20259 3.80966,-9.36413 14.58188,-16.52747 20.02197,-20.40511 10.34738,-7.38032 13.05543,-15.70054 9.75858,-25.12068 -3.72369,-10.64 -13.33532,-22.83588 -20.99163,-31.36309 z"
     style="fill:#0f141b;fill-opacity:1;fill-rule:nonzero;stroke:none;stroke-width:0.999776"
     id="path14128" />
  <path
     d="m 96.637087,391.45517 c -0.100967,0.55694 0.266907,1.08689 0.821712,1.18888 1.259558,0.22898 3.506771,0.69394 4.178531,0.96091 0.52382,0.20898 1.11761,-0.045 1.32653,-0.56995 0.20893,-0.52495 -0.045,-1.11689 -0.5698,-1.32787 -1.08161,-0.43096 -4.215513,-1.0079 -4.569389,-1.0739 -0.554806,-0.1 -1.086624,0.26698 -1.187584,0.82193"
     style="fill:#0f141b;fill-opacity:1;fill-rule:nonzero;stroke:none;stroke-width:0.999776"
     id="path14132" />
  <path
     d="m 118.14574,392.68335 c -0.54681,0.13699 -0.87969,0.69194 -0.74274,1.23988 0.13695,0.54495 0.69076,0.87792 1.23857,0.74194 1.23956,-0.30998 2.75502,-0.65994 3.04193,-0.68394 0.54481,-0.045 0.98265,-0.51396 0.96066,-1.0609 -0.023,-0.54695 -0.44784,-0.97991 -0.99565,-0.97991 -0.35288,0 -1.53146,0.24998 -3.50277,0.74293"
     style="fill:#0f141b;fill-opacity:1;fill-rule:nonzero;stroke:none;stroke-width:0.999776"
     id="path14136" />
  <path
     d="m 83.953735,400.33044 c 0,-4.78656 0.179937,-9.22914 0.522814,-10.31804 0.903688,-2.87574 5.90193,-7.6053 7.284444,-8.25824 1.243567,1.04591 4.910282,6.35341 4.910282,9.24814 0,0.16299 -0.01199,0.31897 -0.03696,0.46796 -0.637771,3.82965 -9.340717,18.88226 -12.236703,22.45793 -0.42885,-2.2608 -0.443845,-8.50122 -0.443845,-13.59775 m 6.87559,-20.10713 c -2.153244,1.10089 -7.641318,5.73046 -8.688948,9.06516 -0.679764,2.1628 -0.794721,22.67589 0.967655,25.76661 0,0 0.330889,0.68393 0.817716,0.83492 0.485829,0.14999 1.053628,-0.26498 1.053628,-0.26498 2.449143,-1.60984 12.537603,-17.66236 13.669203,-23.81779 0.759731,-4.12662 -4.986253,-11.35795 -6.380763,-11.82291 -0.522814,-0.17298 -1.043634,0.038 -1.438491,0.23899"
     style="fill:#0f141b;fill-opacity:1;fill-rule:nonzero;stroke:none;stroke-width:0.999776"
     id="path14140" />
  <path
     d="m 103.03124,392.75864 v -0.002 c 0.24492,-1.86582 6.59969,-8.71719 7.9912,-8.93717 1.76738,0.03 5.78197,8.24124 6.36077,10.04907 0.01,0.10499 0.018,0.22498 0.018,0.38196 0,3.17472 -1.84536,16.68946 -2.89499,20.69909 -2.96096,-3.86864 -11.47497,-20.13914 -11.47497,-22.19095 m -2.02828,-0.23298 c -0.48484,2.84175 9.26174,21.04306 12.53659,24.16877 0.18894,0.18098 0.68176,0.69194 1.33454,0.57995 0.67776,-0.11699 1.4175,-0.20299 3.15989,-11.28096 0.60579,-3.85365 1.57644,-10.811 1.37251,-12.44685 -0.06,-0.47995 -4.49942,-11.37295 -8.43803,-11.37295 -2.62108,0 -9.33973,6.68839 -9.9655,10.35204"
     style="fill:#0f141b;fill-opacity:1;fill-rule:nonzero;stroke:none;stroke-width:0.999776"
     id="path14144" />
  <path
     d="m 131.58442,382.57618 c 4.44944,3.40969 11.07911,23.63682 12.31268,29.30429 -4.77932,-3.2877 -20.10594,-16.97643 -21.21655,-19.08423 0.071,-3.85564 6.66266,-10.06407 8.06017,-10.55102 0.24791,-0.085 0.63478,0.17098 0.8437,0.33096 m -1.62343,-2.07581 h -7.5e-4 c -1.87035,0.64794 -9.44669,7.43232 -9.33273,12.48385 0.064,2.81374 20.8207,19.89816 23.12389,20.90306 0.73974,0.32097 1.20757,0.17299 1.46749,-0.057 1.97231,-1.75683 -5.59304,-22.81188 -9.01085,-28.64334 -1.37551,-2.34779 -3.88563,-5.5055 -6.2468,-4.68658"
     style="fill:#0f141b;fill-opacity:1;fill-rule:nonzero;stroke:none;stroke-width:0.999776"
     id="path14148" />
  <path
     d="m 284.0904,366.77805 c 2.34618,0.91392 15.61552,17.19141 19.19626,22.59691 -5.54605,-1.74284 -22.11023,-8.57821 -27.21444,-12.9958 1.89933,-4.76956 5.679,-8.96517 8.01818,-9.60111 m -0.33288,-1.79084 c -6.51372,1.52386 -9.15879,10.11707 -9.7046,11.16597 -0.20493,0.39496 -0.11595,0.86592 0.18394,1.19489 2.90198,3.18571 11.70589,7.44331 16.64816,9.50912 5.80896,2.42777 13.26035,4.92555 14.28099,4.2466 0.18193,-0.12098 0.73974,-0.58694 0.33788,-1.55185 -0.71475,-1.71684 -18.12164,-25.41265 -21.74637,-24.56473"
     style="fill:#0f141b;fill-opacity:1;fill-rule:nonzero;stroke:none;stroke-width:0.999776"
     id="path14152" />
  <path
     d="m 296.48965,359.66511 c 2.44614,0.53995 17.98469,16.55946 22.2492,21.80698 -5.17319,-1.37488 -20.63177,-7.71429 -29.83854,-12.88681 1.74539,-4.2656 5.39011,-8.40122 7.58934,-8.92017 m -0.31689,-2.03481 c -5.4101,1.41986 -8.37606,8.86217 -8.97785,10.54902 -0.06,0.16498 1.7204,2.55776 2.04528,2.75475 6.32079,3.86563 10.73124,5.49748 18.14363,8.40721 12.03378,4.72057 12.68555,3.90864 13.16039,3.3157 0.31889,-0.40097 0.3029,-0.87792 -0.024,-1.43687 -1.96031,-3.34569 -20.54979,-24.58872 -24.34746,-23.58981"
     style="fill:#0f141b;fill-opacity:1;fill-rule:nonzero;stroke:none;stroke-width:0.999776"
     id="path14156" />
  <path
     d="m 327.92942,369.62548 c 0.32988,-0.78593 -0.03,-1.52686 -2.75903,-3.97563 -2.65407,-2.38278 -7.4164,-6.23142 -12.13275,-9.80309 -8.2601,-6.25642 -8.64096,-6.01644 -9.30473,-5.67747 -4.37746,2.23279 -5.4201,8.40122 -5.64102,9.6391 -0.099,0.55595 1.66242,1.09991 1.77737,0.54895 0.66777,-3.1807 2.34318,-6.93035 4.46444,-8.48821 2.64707,1.43386 18.12864,13.22178 21.87133,16.97443 -4.67637,-0.37997 -20.47382,-4.55358 -21.83834,-5.21352 -0.50283,-0.24498 -0.16994,2.01181 0.32588,2.26979 0.90069,0.46795 19.23525,5.4255 22.40614,4.40059 0,0 0.58979,-0.13299 0.83071,-0.67494"
     style="fill:#0f141b;fill-opacity:1;fill-rule:nonzero;stroke:none;stroke-width:0.999776"
     id="path14160" />
  <path
     d="m 156.48968,139.478 c 0,-1.35888 0.8667,-4.10962 2.53711,-5.92346 2.07328,-2.25079 3.95261,-3.1977 6.17483,-2.94672 2.06628,0.24997 6.45774,4.63157 7.92423,6.4784 -3.06093,0.81893 -13.85814,2.43777 -16.60718,2.55776 -0.005,-0.064 -0.029,-0.094 -0.029,-0.16598 m 1.03463,-7.30733 c -1.6774,1.82183 -2.89998,4.72957 -2.89998,7.01435 0,0.63995 0.10997,1.21389 0.35588,1.67285 0.31689,0.58995 0.97266,0.59794 1.25356,0.60194 0.16794,7.5e-4 17.91871,-1.83683 18.8154,-3.40668 0.25191,-0.43996 0.20593,-0.96591 -0.13096,-1.55785 -1.12161,-1.97382 -7.14949,-7.20234 -9.56064,-7.50731 -3.21987,-0.40696 -5.37512,0.51195 -7.83326,3.1827"
     style="fill:#0f141b;fill-opacity:1;fill-rule:nonzero;stroke:none;stroke-width:0.999776"
     id="path14164" />
  <path
     d="m 171.73254,120.47976 c 2.52611,-2.88074 5.90892,-3.89864 6.59368,-3.74066 1.26956,0.40096 6.84959,5.83946 8.09815,7.77128 -3.09891,0.80293 -15.07071,2.52377 -17.70877,2.56676 0.017,-1.0439 1.05962,-4.36659 3.01694,-6.59738 m -1.53447,-1.34688 c -2.5461,2.90073 -3.98959,7.45231 -2.86199,9.01917 0.39086,0.54294 0.58679,0.81492 6.80561,-0.007 3.21387,-0.42496 6.99055,-1.0289 9.61963,-1.53886 3.51476,-0.68093 3.91262,-0.91691 4.08856,-1.62985 0.15194,-0.61294 -0.16194,-1.23888 -0.45085,-1.71484 -1.33153,-2.18979 -6.91856,-7.77928 -8.76692,-8.22324 -1.63443,-0.39396 -5.58004,0.83893 -8.43404,4.09462"
     style="fill:#0f141b;fill-opacity:1;fill-rule:nonzero;stroke:none;stroke-width:0.999776"
     id="path14168" />
  <path
     d="m 59.698951,256.1186 c -4.356473,5.08553 -4.389462,12.39385 0.814709,20.03114 0.254911,0.37296 1.536466,0.024 1.281556,-0.34897 -4.374468,-6.4194 -4.494426,-13.90071 -0.561808,-18.49128 3.179889,-3.71266 8.105158,-5.4635 11.210066,-3.98464 0.407857,0.19498 1.401514,-0.85691 0.993657,-1.0499 -3.801669,-1.81083 -10.041482,-0.47495 -13.73818,3.84365"
     style="fill:#0f141b;fill-opacity:1;fill-rule:nonzero;stroke:none;stroke-width:0.999776"
     id="path14172" />
  <path
     d="m 85.42972,297.1116 c 0.286894,0.34997 1.594436,-0.29297 1.328534,-0.65994 -3.204878,-4.41759 -4.892281,-8.73619 -5.538059,-12.69882 -0.643769,0.11698 -1.353523,0.12598 -2.049279,0.27397 0.764732,4.23361 2.685056,8.73819 6.258804,13.08479"
     style="fill:#0f141b;fill-opacity:1;fill-rule:nonzero;stroke:none;stroke-width:0.999776"
     id="path14176" />
  <path
     d="m 292.89041,91.59913 c -0.35687,0.804925 -1.06063,1.822831 -1.79837,2.48477 -0.63077,0.564947 -0.47183,0.85292 0.47983,0.489954 1.09962,-0.418961 1.89634,-1.0699 2.42515,-2.1528 0.74974,-1.536858 -0.51381,-2.157801 -1.10661,-0.821924"
     style="fill:#0f141b;fill-opacity:1;fill-rule:nonzero;stroke:none;stroke-width:0.999776"
     id="path14180" />
  <path
     d="m 302.0599,57.331902 c -1.12761,0.643941 2.11325,13.118786 2.5301,14.280678 -1.44748,0.845922 -11.53995,6.272419 -11.49396,7.094343 0.028,0.505954 6.78262,3.78365 9.91052,5.348505 -2.15124,4.562578 -4.46843,8.6422 -8.62497,12.404852 -0.18493,0.168984 1.1506,0.64694 1.51447,0.348967 3.35682,-2.746745 7.52636,-8.809184 9.1148,-12.384853 0.29889,-0.672937 0.24691,-0.949912 -0.38787,-1.271882 -2.96695,-1.503861 -7.59133,-3.78465 -8.66295,-4.476586 0.86669,-0.905916 7.55135,-4.705564 9.86253,-6.320415 0.46184,-0.32397 0.47584,-0.496954 0.31989,-0.96691 -0.98965,-2.966725 -2.15524,-9.314137 -2.47513,-11.55893 7.79926,5.07653 11.45298,9.219147 11.61092,9.370133 0.89069,0.848921 1.05064,0.444958 1.33454,-0.620943 0.2949,-1.099898 1.24156,-5.171521 1.28455,-5.576483 0.049,-0.467957 -0.91568,-1.439867 -0.96466,-0.97291 -0.071,0.676937 -1.25156,3.953634 -1.39652,5.091528 -5.33312,-4.990538 -12.77751,-10.187056 -13.47626,-9.789094"
     style="fill:#0f141b;fill-opacity:1;fill-rule:nonzero;stroke:none;stroke-width:0.999776"
     id="path14184" />
</svg>
