<?xml version="1.0" encoding="UTF-8"?>
<!-- Created with Inkscape (http://www.inkscape.org/) -->
<svg version="1.1" viewBox="0 0 326.39 385.03" xmlns="http://www.w3.org/2000/svg" xmlns:cc="http://creativecommons.org/ns#" xmlns:dc="http://purl.org/dc/elements/1.1/" xmlns:rdf="http://www.w3.org/1999/02/22-rdf-syntax-ns#">
 <metadata>
  <rdf:RDF>
   <cc:Work rdf:about="">
    <dc:format>image/svg+xml</dc:format>
    <dc:type rdf:resource="http://purl.org/dc/dcmitype/StillImage"/>
   </cc:Work>
  </rdf:RDF>
 </metadata>
 <g transform="translate(-372.99 -449.37)">
  <g transform="matrix(9.7378 0 0 -9.7378 671.86 699.78)">
   <path d="m0 0c-0.177 0.035-1.074-1.35-0.999-1.541 0.074-0.192 0.818-0.277 0.967-0.149 0.149 0.127 0.436 0.404 0.415 0.521-0.022 0.117-0.224 1.137-0.383 1.169" fill="#fff"/>
  </g>
  <g transform="matrix(9.7378 0 0 -9.7378 689.36 701.85)">
   <path d="m0 0c-0.113 0.068-1.743-1.159-1.775-1.488-0.032-0.33 0.297-0.627 0.531-0.776s0.829-0.298 0.936-0.032c0.106 0.266 0.414 2.232 0.308 2.296" fill="#fff"/>
  </g>
  <g transform="matrix(9.7378 0 0 -9.7378 696.4 722.03)">
   <path d="m0 0c-0.184 0.074-1.52-0.755-1.584-1.307-0.064-0.553 1.063-1.191 1.34-0.851 0.276 0.34 0.457 2.073 0.244 2.158" fill="#fff"/>
  </g>
  <g transform="matrix(9.7378 0 0 -9.7378 650.23 715.2)">
   <path d="m0 0s0.666 0.801 1.531 0.772c0 0-0.433-0.566-0.309-0.729s0.663-0.291 0.968-0.149c0 0 0.049-0.567 0.333-0.695 0.283-0.127 0 0 0 0l-1.985-0.652z" fill="#ffeda9"/>
  </g>
  <g transform="matrix(9.7378 0 0 -9.7378 678.25 724.1)">
   <path d="m0 0s-0.638-1.403-0.595-1.46c0.042-0.056 1.219-0.368 1.219-0.368s-0.411 0.553-0.369 0.694c0.043 0.142 0.751 0.907 0.751 0.907l-0.212 0.128z" fill="#ffeda9"/>
  </g>
  <g transform="matrix(9.7378 0 0 -9.7378 690.53 743.97)">
   <path d="m0 0s-0.269-0.581-0.553-0.964c-0.283-0.382-0.708-0.822-0.708-0.822s0.538-0.354 0.723-0.609c0.184-0.255 0.467-0.468 0.467-0.468s0.284 0.836 0.411 1.417c0.128 0.581 0.17 1.673 0.17 1.673z" fill="#ffeda9"/>
  </g>
  <g transform="matrix(9.7378 0 0 -9.7378 688.74 773.23)">
   <path d="m0 0-1.46-0.439 0.581-1.148s0.383 0.552 0.553 0.85 0.326 0.737 0.326 0.737" fill="#ffeda9"/>
  </g>
  <g transform="matrix(9.7378 0 0 -9.7378 674.52 795.31)">
   <path d="m 0,0 -1.035,-0.014 0.071,-0.766 c 0,0 0.354,0.213 0.539,0.369 C -0.241,-0.255 0,0 0,0" fill="#ffeda9"/>
  </g>
  <g transform="matrix(9.7378 0 0 -9.7378 660.59 712.87)">
   <path d="m0 0c-0.075-0.139-0.042-0.292 0.085-0.399 0.247-0.207 0.861-0.211 1.095-0.026 0.062 0.05 0.083 0.342 0.021 0.293-0.261-0.207-0.667-0.161-0.852-0.087-0.088 0.035-0.091 0.089-0.05 0.163 0.208 0.37 0.726 1.268 0.813 1.26 0.11-0.013 0.266-0.649 0.317-0.991 0.012-0.079 0.256 0.107 0.244 0.186-0.026 0.178-0.243 1.035-0.541 1.084-0.273 0.046-0.931-1.11-1.132-1.483" fill="#061922"/>
  </g>
  <g transform="matrix(9.7378 0 0 -9.7378 676.99 721.76)">
   <path d="m0 0c-0.197 0.123-0.395 0.313-0.395 0.493 0 0.038 9e-3 0.076 0.028 0.112 0.103 0.19 1.436 1.333 1.517 1.269 0.105-0.074-0.19-1.837-0.278-2.017-0.102-0.141-0.52-0.077-0.872 0.143m0.976 2.102c-0.492-0.306-1.467-1.118-1.597-1.36-0.174-0.321-0.026-0.753 0.435-1.041 0.438-0.273 1.064-0.333 1.298-4e-3 0.124 0.173 0.305 1.577 0.323 2.156 0.014 0.473-0.085 0.482-0.459 0.249" fill="#061922"/>
  </g>
  <g transform="matrix(9.7378 0 0 -9.7378 687.71 741.78)">
   <path d="m0 0c-0.304 0.131-0.574 0.398-0.574 0.652 0 0.044 8e-3 0.088 0.026 0.13 0.206 0.495 1.264 1.209 1.384 1.136 0.098-0.044-0.153-1.688-0.225-1.85-0.091-0.205-0.386-0.165-0.611-0.068m0.404 2.063c-0.482-0.251-1.059-0.785-1.219-1.169-0.197-0.473 0.189-0.994 0.676-1.204 0.449-0.193 0.871-0.062 1.014 0.26 0.06 0.136 0.275 1.127 0.275 1.727 0 0.554-0.082 0.733-0.746 0.386" fill="#061922"/>
  </g>
  <g transform="matrix(9.7378 0 0 -9.7378 649.77 713.28)">
   <path d="m0 0c-0.024-0.03 0.147-0.364 0.19-0.297 0.223 0.342 0.893 0.677 1.277 0.749 0.049 0.01 0.202 0.239 0.122 0.239-0.387 0-1.226-0.246-1.589-0.691" fill="#061922"/>
  </g>
  <g transform="matrix(9.7378 0 0 -9.7378 694.55 741.8)">
   <path d="m0 0c0.161-1.67-1.339-5.102-2.964-6.106-0.028-0.017-0.013-0.341 0.057-0.302 2.095 1.182 3.566 4.847 3.153 6.705-0.017 0.078-0.254-0.22-0.246-0.297" fill="#061922"/>
  </g>
  <g transform="matrix(9.7378 0 0 -9.7378 432.86 603.62)">
   <path d="m0 0c0.037-0.53 0.34-1.913 0.787-2.19 1.651-1.022 6.389-1.011 10.735-0.212 4.636 0.851 6.138 1.514 7.675 2.508 0.361 0.234 1.665 1.354 1.68 1.637 0.083 1.658-0.941 3.413-1.744 4.252-0.468 0.489-1.474 1.304-2.48 1.559 0 0-0.666 2.289-2.112 4.585-1.445 2.296-2.615 3.338-2.87 3.316-0.255-0.021-1.998-2.87-2.317-5.442 0 0-1.743 2.339-2.849 3.274-1.105 0.935-1.934 1.573-2.678 1.488s-1.191-2.976-1.361-4.401c-0.17-1.424-0.106-4.57-0.106-4.57s-0.702-0.638-1.233-1.403c-0.532-0.766-1.233-2.892-1.127-4.401" fill="#009aa5"/>
  </g>
  <g transform="matrix(9.7378 0 0 -9.7378 591.23 649.16)">
   <path d="m0 0s1.679 0.702 2.657 1.786 1.786 2.466 1.935 3.359 0.021 2.041 0.021 2.041l0.341 0.403s-0.022 0.511 0.021 0.915c0.042 0.403 0.064 0.637 0.17 0.701s1.105-0.85 1.105-0.85 1.276 1.02 1.467 0.914c0.192-0.106-0.021-1.339-0.021-1.339s1.382 0.552 1.531 0.404c0.148-0.149-0.192-1.17-0.192-1.17s1.191 0.022 1.318-0.212c0.128-0.234-0.616-1.318-0.616-1.318s0.978-0.447 1.02-0.596c0.043-0.148-0.744-0.914-0.956-1.254-0.213-0.34-1.233-1.701-1.829-2.7-0.595-0.999-1.807-2.636-2.211-3.061s-1.637-1.51-1.637-1.51-0.935 1.191-1.7 1.893c-0.766 0.701-2.424 1.594-2.424 1.594" fill="#009aa5"/>
  </g>
  <g transform="matrix(9.7378 0 0 -9.7378 405.67 765.36)">
   <path d="m0 0s-1.12-0.184-1.686-0.241c-0.567-0.057-1.276-0.156-1.29-0.298-0.014-0.141 1.729-0.807 1.729-0.807s-1.474-0.865-1.432-1.049c0.043-0.184 2.169-0.199 2.169-0.199s-0.666-0.453-0.51-0.666c0.156-0.212 1.417-0.014 1.417-0.014s-0.893-0.553-0.865-0.765c0.029-0.213 2.098-0.511 3.076-0.199 0 0 0.311-1.459 0.68-1.573 0.369-0.113 2.154 0.836 2.821 1.502 0 0 0.056-0.411 0.014-0.708-0.043-0.298-0.128-0.666-0.128-0.666s0.695 0.099 1.049 0.382c0.354 0.284 0.709 0.978 0.709 0.978s1.516 0.681 4.209 0.681 4.493-0.879 4.563-1.233c0.071-0.355 0.383-1.12 1.063-1.545 0 0 0.497 0.808 0.709 0.978 0 0 0.482-0.992 1.573-1.446 0 0 0.936 1.389 1.517 1.857 0 0 1.19-0.992 2.069-1.29 0 0 0.553 1.729 0.666 2.055l2.608-0.992s0.014 1.318-0.17 2.211c0 0 1.771 0.014 1.814 0.099 0.042 0.085-0.751 1.729-0.751 1.729s1.587 0.397 1.587 0.468-1.148 1.162-1.148 1.162 1.148 1.559 1.049 1.786-1.743 0.581-1.743 0.581 0.765 1.701 0.68 1.729-2.395-0.808-2.395-0.808-0.815 2.452-1.517 3.451c-0.701 0.999-1.7 2.147-1.7 2.147s0.17-0.538 0.17-0.836c0-1.994-2.103-3.77-5.457-3.77-2.472 0-3.968 1.658-3.968 3.345 0 1.163 0.368 2.012 0.907 2.65 0 0-2.495-0.227-3.997 0.014s-2.523 0.61-2.523 0.61-1.736-1.651-3.862-5.117c-2.126-3.465-3.706-6.193-3.706-6.193" fill="#009aa5"/>
  </g>
  <g transform="matrix(9.7378 0 0 -9.7378 479.37 655.23)">
   <path d="m0 0s-2.48-1.276-4.649-4.011c-2.168-2.735-4.11-6.888-4.01-7.015 0.099-0.128 1.176 0.226 1.176 0.226s-0.199-1.388-0.071-1.445 1.601 0.864 1.601 0.864 0.071-1.432 0.553-1.516c0.326-0.057 1.233 0.864 1.233 0.864s0.043-1.176 0.468-1.275 1.332 0.978 1.531 1.502c0 0 0.807-0.595 1.063-0.524 0.255 0.071 0.141 0.723 0.17 1.219 0.028 0.496 0.17 1.601 0.297 1.97 0.128 0.368 1.007 2.692 1.304 3.373 0.298 0.68 0.808 1.474 1.177 2.041 0.368 0.566 1.148 2.877 0.028 3.217s-1.871 0.51-1.871 0.51" fill="#009aa5"/>
  </g>
  <g transform="matrix(9.7378 0 0 -9.7378 439.7 625.15)">
   <path d="m0 0s0.85-1.828 3.38-2.891 4.783-0.936 5.804-0.936c2.071 0 5.207 0.704 6.93 1.616 1.807 0.957 3.359 2.721 3.806 4.061 0.446 1.339 0.34 2.147 0.34 2.147s-0.765-1.127-1.935-1.744c-1.169-0.616-3.061-1.679-6.76-2.338s-6.846-0.808-8.589-0.638-2.976 0.723-2.976 0.723" fill="#ffeda9"/>
  </g>
  <g transform="matrix(9.7378 0 0 -9.7378 542.86 661.31)">
   <path d="m0 0s-0.935-0.936-0.935-2.409c0-2.251 1.734-3.586 4.095-3.586 2.247 0 4.213 0.979 4.933 2.324 0.675 1.263 0.553 2.178-0.1 2.806-0.779 0.752-3.026 2.112-3.026 2.112s-1.126-0.553-2.388-0.808c-1.261-0.255-2.579-0.439-2.579-0.439" fill="#ffeda9"/>
  </g>
  <g transform="matrix(9.7378 0 0 -9.7378 523.4 745.08)">
   <path d="m0 0c-2.131 0-4.705-0.879-4.705-4.72 0-2.255 1.997-4.336 4.847-4.336 2.243 0 4.663 1.298 4.663 3.826 0 2.845-2.091 5.23-4.805 5.23" fill="#ffeda9"/>
  </g>
  <g transform="matrix(9.7378 0 0 -9.7378 507.6 563.46)">
   <path d="m0 0c0.94 0.209 1.704-1 1.935-1.892 0.304-1.179-0.151-2.539-0.957-2.7-0.849-0.17-1.663 0.648-1.977 1.956-0.252 1.049 0.154 2.448 0.999 2.636" fill="#fff"/>
  </g>
  <g transform="matrix(9.7378 0 0 -9.7378 574.05 553.93)">
   <path d="m0 0c0.704 0.151 1.502-0.844 1.658-1.658 0.247-1.286 0.132-2.497-0.68-2.7-0.566-0.142-1.417 0.592-1.722 1.637-0.45 1.544 0.114 2.586 0.744 2.721" fill="#fff"/>
  </g>
  <g transform="matrix(9.7378 0 0 -9.7378 524.36 630.53)">
   <path d="m0 0s0.383 1.743 0.574 1.786c0.191 0.042 0.935-1.488 0.935-1.488z" fill="#fff"/>
  </g>
  <g transform="matrix(9.7378 0 0 -9.7378 570.94 622.04)">
   <path d="m0 0s0.085 1.722 0.276 1.743c0.192 0.022 1.085-1.339 1.085-1.339z" fill="#fff"/>
  </g>
  <g transform="matrix(9.7378 0 0 -9.7378 513.19 766.33)">
   <path d="m0 0c2.636 0.553 4.336-1.048 4.677-2.679 0.383-1.828 0.043-3.571-2.679-4.124-2.905-0.59-5.106 1.678-5.378 3.04-0.256 1.278 0.714 3.204 3.38 3.763" fill="#d4c48e"/>
  </g>
  <g transform="matrix(9.7378 0 0 -9.7378 520.22 783.17)">
   <path d="m0 0c-0.912 0-2.268-0.882-2.268-2.083 0-1.086 0.926-1.942 2.311-1.942 1.706 0 2.579 0.754 2.579 2.041 0 1.322-1.583 1.984-2.622 1.984" fill="#774619"/>
  </g>
  <g transform="matrix(9.7378 0 0 -9.7378 405.74 775.23)">
   <path d="m0 0c0.149-0.212 0.829-0.128 1.063-0.021 0 0 0.553-1.169 1.276-1.169 0.722 0 0.807 0.531 0.807 0.531s0.659-1.169 1.276-0.787c0.616 0.383 1.233 1.106 1.233 1.106s1.254-0.404 1.467 0c0.212 0.404 0.255 1.679 0.744 3.189 0.489 1.509 1.594 5.676 1.531 5.676-0.064 0-0.468-0.361-1.255-2.36-0.786-1.998-1.297-3.125-1.318-3.699s-0.191-2.402-0.319-2.445c-0.127-0.042-1.084 0.426-1.084 0.426s-0.85-1.276-1.467-1.319c-0.616-0.042-0.574 1.106-0.574 1.106s-0.916-0.816-1.19-0.744c-0.489 0.127-0.617 1.403-0.617 1.403s-0.468-0.298-0.786-0.468c-0.319-0.17-0.787-0.425-0.787-0.425" fill="#00808a"/>
  </g>
  <g transform="matrix(9.7378 0 0 -9.7378 402.64 805.25)">
   <path d="m0 0c-0.106 0.128-0.043 0.234 0.298 0.191 0.598-0.075 1.946-0.187 2.636-0.042v-0.34s-0.532-0.234-1.255-0.192c-0.722 0.043-1.679 0.383-1.679 0.383" fill="#00808a"/>
  </g>
  <g transform="matrix(9.7378 0 0 -9.7378 434.62 816.33)">
   <path d="M 0,0 C 0.149,-0.181 0.489,-0.234 0.755,-0.128 1.698,0.25 2.735,0.875 3.072,1.212 3.231,1.371 3.646,1.478 3.391,1.201 3.136,0.925 2.87,0.606 2.37,0.287 1.871,-0.032 0.563,-0.638 0.393,-0.648 0.223,-0.659 0,0 0,0" fill="#00808a"/>
  </g>
  <g transform="matrix(9.7378 0 0 -9.7378 464.85 816.84)">
   <path d="m0 0c0.17 0.032 1.286 1.169 1.254 2.168l0.436-1.158s-0.17-0.627-0.595-0.893-1.137-0.5-1.137-0.5z" fill="#00808a"/>
  </g>
  <g transform="matrix(9.7378 0 0 -9.7378 395.6 797.8)">
   <path d="m0 0c-0.043 0.085 0.127 0.468 1.942 0.312l-0.468-0.298z" fill="#00808a"/>
  </g>
  <g transform="matrix(9.7378 0 0 -9.7378 380.28 788.96)">
   <path d="m0 0c0 0.071 2.579 0.241 2.268-0.113-0.312-0.355-0.298-0.085-0.298-0.085l-1.29 0.028z" fill="#00808a"/>
  </g>
  <g transform="matrix(9.7378 0 0 -9.7378 378.07 771.58)">
   <path d="m0 0c-0.142 0.17 0.981-0.083 1.644-0.354 0.312-0.128 0.298-0.411 0.142-0.44-0.156-0.028-0.723 0.255-0.723 0.255z" fill="#00808a"/>
  </g>
  <g transform="matrix(9.7378 0 0 -9.7378 479.65 657.03)">
   <path d="m 0,0 c 0.723,-0.723 3.061,-1.786 5.782,-1.786 0,0 0.255,0.964 0.624,1.304 0,0 -2.324,-0.198 -4.252,0.114 C 0.227,-0.057 0,0 0,0" fill="#00808a"/>
  </g>
  <g transform="matrix(9.7378 0 0 -9.7378 535.96 674.42)">
   <path d="m0 0c2.027 0 4.925 0.864 6.186 2.296l-0.404 0.298s-1.19-0.596-2.742-0.872-2.331-0.376-2.331-0.376-0.454-0.517-0.539-0.729c-0.085-0.213-0.17-0.617-0.17-0.617" fill="#d4c48e"/>
  </g>
  <g transform="matrix(9.7378 0 0 -9.7378 441.28 628.6)">
   <path d="m0 0c1.697-2.08 7.357-3.226 11.168-2.608 4.528 0.734 7.918 3.203 8.504 4.961 0 0-1.049-5.811-11.452-5.811-6.321 0-8.22 3.458-8.22 3.458" fill="#d4c48e"/>
  </g>
  <g transform="matrix(9.7378 0 0 -9.7378 470.13 459.74)">
   <path d="m0 0c-0.34-1.042-0.468-7.249-0.17-8.78s-1.233-1.318-1.403-0.298c-0.17 1.021-0.085 3.529 0.17 5.528 0.255 1.998 1.403 3.55 1.403 3.55" fill="#00808a"/>
  </g>
  <g transform="matrix(9.7378 0 0 -9.7378 534.85 523.16)">
   <path d="m0 0c-0.028 1.757 0.595 6.151 1.134 7.086 0 0-0.652-0.482-1.417-2.296-0.766-1.814-0.879-2.919-0.879-2.919s0.312-0.567 0.624-1.021c0.311-0.453 0.538-0.85 0.538-0.85" fill="#00808a"/>
  </g>
  <g transform="matrix(9.7378 0 0 -9.7378 623.11 672.76)">
   <path d="m0 0c0.702 0.319 2.849 2.339 3.742 3.55 0.893 1.212 3.167 3.806 3.72 3.997 0 0 0.085-0.17-0.255-0.595s-0.935-1.042-1.105-1.403c-0.171-0.362-1.489-2.19-1.956-2.913-0.468-0.723-1.191-1.722-1.658-2.189-0.468-0.468-1.638-1.51-1.638-1.51z" fill="#00808a"/>
  </g>
  <g transform="matrix(9.7378 0 0 -9.7378 467.64 774.2)">
   <path d="m0 0c-0.043 0.595-0.298 1.297 0.128 2.913 0.425 1.615 2.189 5.059 2.763 5.399 0 0-0.999-1.679-1.382-2.636-0.382-0.956-0.893-2.508-0.999-3.167s-0.17-2.041-0.212-2.254c-0.043-0.212-0.149-0.404-0.149-0.404z" fill="#00808a"/>
  </g>
  <g transform="matrix(9.7378 0 0 -9.7378 569.49 803.59)">
   <path d="m0 0c0.043-0.319 0.383-1.722 1.042-2.02l-0.298-0.531s-0.616 0.489-0.808 0.829c-0.191 0.34-0.297 0.829-0.297 0.829z" fill="#00808a"/>
  </g>
  <g transform="matrix(9.7378 0 0 -9.7378 588.54 813.95)">
   <path d="m0 0c0.17-0.531 0.744-1.297 1.233-1.488l-0.149-0.255s-0.531 0.212-0.935 0.574c-0.404 0.361-0.631 0.715-0.631 0.715z" fill="#00808a"/>
  </g>
  <g transform="matrix(9.7378 0 0 -9.7378 617.31 811.25)">
   <path d="m0 0c0.255-0.276 1.573-1.191 1.743-1.254l-0.021-0.17s-0.532 0.148-1.084 0.489c-0.553 0.34-0.914 0.595-0.914 0.595z" fill="#00808a"/>
  </g>
  <g transform="matrix(9.7378 0 0 -9.7378 638.02 806.29)">
   <path d="m0 0c-0.276 0.149-0.446 0.298 0.34 0.213 0.649-0.07 2.232-0.532 2.424-0.638l0.042-0.532s-1.275 0.468-1.594 0.596c-0.319 0.127-1.212 0.361-1.212 0.361" fill="#00808a"/>
  </g>
  <g transform="matrix(9.7378 0 0 -9.7378 679.21 789.31)">
   <path d="m0 0s-1.446-0.298-1.722-0.34c-0.276-0.043-0.276-0.234 0.085-0.255 0.361-0.022 1.92 0.106 1.92 0.106z" fill="#00808a"/>
  </g>
  <g transform="matrix(9.7378 0 0 -9.7378 685.01 768.82)">
   <path d="m0 0s-1.02-0.531-1.254-0.638c-0.234-0.106 0-0.17 0.191-0.149 0.191 0.022 1.509 0.383 1.509 0.383z" fill="#00808a"/>
  </g>
  <g transform="matrix(9.7378 0 0 -9.7378 685.22 743.97)">
   <path d="m0 0s-0.787-1.339-0.999-1.594l0.283-0.192 1.12 1.786z" fill="#00808a"/>
  </g>
  <g transform="matrix(9.7378 0 0 -9.7378 672.18 737.35)">
   <path d="m0 0c-0.085-0.213-0.51-0.298-0.361 0.043 0.148 0.34 0.531 1.211 0.531 1.211l0.351 0.128z" fill="#00808a"/>
  </g>
  <g transform="matrix(9.7378 0 0 -9.7378 545.62 449.46)">
   <path d="m0 0c-0.616-0.154-2.103-3.443-2.438-5.499-7e-3 -0.046 0.345-0.482 0.356-0.403 0.308 2.154 1.837 5.214 2.217 5.314 0.311 0.078 3.452-3.211 4.857-7.802 0.132-0.43 0.469-0.402 0.337 0.028-1.364 4.457-4.398 8.595-5.329 8.362" fill="#061922"/>
  </g>
  <g transform="matrix(9.7378 0 0 -9.7378 638.64 574.22)">
   <path d="m0 0c-0.407 1.977-2.555 4.207-4.401 4.72-0.259 0.072-0.149-0.281 0.11-0.352 1.724-0.479 3.448-2.85 3.766-4.397 0.874-4.242-2.426-7.88-8.678-8.714-6.17-0.823-11.091 1.415-11.701 5.321-0.344 2.206 0.835 4.953 2.154 5.967 0.105 0.08 0.102 0.191 0.101 0.223-0.176 5.777 1.021 8.627 1.426 8.743 1.243 0.355 4.551-3.023 6.68-6.82 0.204-0.365 0.405-0.278 0.211 0.092-2.041 3.891-5.537 7.731-7.072 7.292-0.785-0.224-2.069-3.893-1.814-9.375-1.286-1.107-2.531-3.835-2.155-6.243 0.636-4.068 5.876-6.331 12.208-5.487 6.956 0.928 10.038 4.79 9.165 9.03" fill="#061922"/>
  </g>
  <g transform="matrix(9.7378 0 0 -9.7378 635.33 583.95)">
   <path d="m0 0c0-0.941-2.819-3.126-8.232-4.088-7.894-1.404-11.562-0.579-11.964 0.283-0.034 0.072-0.208-0.032-0.174-0.104 0.546-1.17 4.611-1.884 12.206-0.534 5.388 0.958 8.351 3.251 8.351 4.422 0 0.08-0.187 0.101-0.187 0.021" fill="#061922"/>
  </g>
  <g transform="matrix(9.7378 0 0 -9.7378 529.41 611.98)">
   <path d="m0 0c-0.266-0.066-0.564-1.038-0.709-1.82-0.015-0.078 0.34-0.105 0.355-0.026 0.121 0.656 0.297 1.507 0.418 1.526 0.155 0.017 0.434-0.624 0.798-1.352 0.036-0.071 0.375 0.035 0.342 0.107-0.48 1.062-1.018 1.611-1.204 1.565" fill="#061922"/>
  </g>
  <g transform="matrix(9.7378 0 0 -9.7378 573.29 603.91)">
   <path d="m0 0c-0.281-0.07-0.423-0.983-0.411-1.862-2e-3 -0.08 0.355-0.023 0.357 0.057 0 0 0.011 1.48 0.139 1.531 0.127 0.056 0.912-1.261 0.912-1.261 0.042-0.068 0.377 0.073 0.335 0.14-0.428 0.717-1.023 1.472-1.332 1.395" fill="#061922"/>
  </g>
  <g transform="matrix(9.7378 0 0 -9.7378 499.86 590.46)">
   <path d="m0 0c-0.334 1.446 0.173 2.566 0.921 2.673 0.715 0.102 1.385-0.673 1.667-1.93 0.271-1.207-0.043-2.216-0.746-2.4-0.659-0.172-1.558 0.425-1.842 1.657m0.887 2.915c-1.029-0.147-1.547-1.524-1.205-3.004 0.301-1.305 1.413-1.994 2.211-1.786 0.86 0.224 1.327 1.299 1.02 2.664-0.317 1.413-1.153 2.251-2.026 2.126" fill="#061922"/>
  </g>
  <g transform="matrix(9.7378 0 0 -9.7378 573.09 552.15)">
   <path d="m0 0m-0.482-2.621c-0.298 1.53 0.18 2.248 0.552 2.34 0.539 0.135 1.404-0.579 1.629-1.903 0.206-1.202-0.096-2.154-0.718-2.264-0.438-0.077-1.211 0.529-1.463 1.827m0.496 2.551c-0.697-0.174-1.098-1.204-0.822-2.621 0.304-1.566 1.283-2.067 1.828-1.97 0.799 0.14 1.243 1.12 1.006 2.508-0.239 1.401-1.339 2.252-2.012 2.083" fill="#061922"/>
  </g>
  <g transform="matrix(9.7378 0 0 -9.7378 511.67 573.94)">
   <path d="m0 0c0.171 0.038 0.325-0.177 0.369-0.439 0.054-0.327-9e-3 -0.501-0.165-0.53-0.197-0.037-0.335 0.131-0.394 0.399-0.069 0.313 0.062 0.542 0.19 0.57" fill="#061922"/>
  </g>
  <g transform="matrix(9.7378 0 0 -9.7378 572.94 563.73)">
   <path d="m0 0c0.209 0.056 0.38-0.201 0.416-0.402 0.047-0.256-0.024-0.473-0.159-0.51-0.138-0.038-0.296 0.081-0.385 0.345-0.056 0.17-0.085 0.51 0.128 0.567" fill="#061922"/>
  </g>
  <g transform="matrix(9.7378 0 0 -9.7378 476.97 654.56)">
   <path d="m0 0c-1.911-1.033-3.783-2.91-5.218-4.838-2.248-3.02-3.563-6.164-3.352-6.387 0.151-0.16 0.916 0.097 1.281 0.222 0.121 0.042-0.023 0.215 0.049 0.248-0.17-0.076-0.892-0.187-0.988-0.099-0.096 0.114 3.747 8.223 8.527 10.685 0.05 0.026-0.244 0.199-0.299 0.169" fill="#061922"/>
  </g>
  <g transform="matrix(9.7378 0 0 -9.7378 407.77 760.12)">
   <path d="m0 0c0.061 0.292-0.131 0.354-0.251 0.014-0.202-0.573-0.226-1.61-0.019-1.67 0.204-0.058 1.233 0.576 1.581 0.797 0.071 0.045 0.108 0.384 0.043 0.338-0.34-0.239-1.258-0.74-1.4-0.684-0.078 0.036-0.012 0.925 0.046 1.205" fill="#061922"/>
  </g>
  <g transform="matrix(9.7378 0 0 -9.7378 420.51 765.78)">
   <path d="m0 0c-0.084-1.075 0.369-1.704 0.659-1.704 0.212 0 1.098 0.734 1.297 0.971 0.051 0.061-0.099 0.227-0.151 0.166-0.201-0.239-1.017-0.737-1.174-0.737-0.19 0-0.454 0.707-0.409 1.293 0 4e-3 1e-3 7e-3 1e-3 0.011 0 0.238-0.204 0.243-0.223 0" fill="#061922"/>
  </g>
  <g transform="matrix(9.7378 0 0 -9.7378 457.43 770.26)">
   <path d="m0 0c-0.473-0.853-1.263-1.24-1.403-1.24-0.182 0-0.448 0.59-0.4 1.159 0.014 0.176-0.168 0.257-0.188 0.01-0.061-0.732 0.198-1.569 0.574-1.569 0.255 0 1.121 0.532 1.63 1.449 0.039 0.07-0.174 0.261-0.213 0.191" fill="#061922"/>
  </g>
  <g transform="matrix(9.7378 0 0 -9.7378 494.87 693.05)">
   <path d="m0 0c-0.632-0.818-2.2-4.166-2.541-5.925-0.158-0.819-0.077-2.281-0.186-2.357-0.101-0.059-0.876 0.289-1.064 0.476-0.141 0.142-0.29 0.124-0.138-0.085 0.423-0.583 1.222-0.777 1.41-0.666 0.292 0.173 0.293 1.755 0.446 2.548 0.334 1.726 1.626 5.094 2.243 5.892 0.31 0.402 0.14 0.519-0.17 0.117" fill="#061922"/>
  </g>
  <g transform="matrix(9.7378 0 0 -9.7378 590.85 650.58)">
   <path d="m0 0c3.171-1.451 5.937-5.66 6.78-8.891 0.125-0.477 0.414-0.411 0.282 0.065-1.05 3.796-3.695 7.786-6.69 9.071-0.046 0.02-0.445-0.212-0.372-0.245" fill="#061922"/>
  </g>
  <g transform="matrix(9.7378 0 0 -9.7378 540.43 661.93)">
   <path d="m0 0c-0.798-0.897-1.164-2.513-0.658-3.777 0.555-1.382 1.997-2.338 4.04-2.338 3.063 0 4.84 1.45 5.399 2.764 0.386 0.906 0.179 1.873-0.406 2.481-0.055 0.058-0.263-0.143-0.208-0.201 0.501-0.521 0.599-1.308 0.26-2.103-0.523-1.229-2.123-2.541-5.045-2.541-2.424 0-3.315 1.32-3.63 2.106-0.493 1.229-0.242 2.751 0.583 3.54 0.058 0.056-0.292 0.118-0.335 0.069" fill="#061922"/>
  </g>
  <g transform="matrix(9.7378 0 0 -9.7378 640.02 557.11)">
   <path d="m0 0c-0.12-0.051-0.269-0.411-0.201-1.809-0.083-0.093-0.177-0.223-0.251-0.356-0.043-0.076 0.146-0.394 0.171-0.318 0.057 0.171 0.215 0.405 0.327 0.517 0.026 0.027 0.042 0.064 0.042 0.102 0 0.57 4e-3 1.439 0.082 1.468 0.078 0.042 0.669-0.528 0.946-0.805 0.057-0.056 0.254 0.142 0.205 0.205-0.641 0.826-1.143 1.072-1.321 0.996" fill="#061922"/>
  </g>
  <g transform="matrix(9.7378 0 0 -9.7378 664.54 572.44)">
   <path d="m0 0c-0.043-0.297 0.209-0.371 0.299-0.033 0.202 0.757 0.249 1.53 3e-3 1.635-0.311 0.134-1.119-0.439-1.788-1.152-0.196-0.208 2e-3 -0.406 0.204-0.204 0.315 0.315 1.273 1.016 1.381 0.958 0.081-0.037-0.032-0.744-0.099-1.204" fill="#061922"/>
  </g>
  <g transform="matrix(9.7378 0 0 -9.7378 677.09 580.08)">
   <path d="m0 0c-0.12-0.279 0.125-0.409 0.266-0.114 0.335 0.702 0.527 1.404 0.292 1.538-0.23 0.132-1.006-0.085-1.631-0.461-0.041-0.025-0.045-0.356 0.024-0.316 0.504 0.291 1.26 0.508 1.355 0.446 0-3e-3 -2e-3 -6e-3 1e-3 -8e-3 0.081-0.036-0.163-0.749-0.307-1.085" fill="#061922"/>
  </g>
  <g transform="matrix(9.7378 0 0 -9.7378 699.36 599.06)">
   <path d="m0 0c-0.03 0.121-0.482 0.425-1.216 0.52l-0.012 4e-3c0.785 1.192 0.696 1.349 0.665 1.4-0.144 0.24-1.305 0.211-1.588 0.175-0.079-9e-3 -0.043-0.297 0.036-0.287 0.448 0.056 1.1 0.023 1.18-0.083 0.061-0.099-0.354-0.776-0.595-1.138-0.117-0.174-0.093-0.227 0.261-0.361 0.257-0.097 0.7-0.219 0.745-0.358 0.019-0.137-0.349-0.54-0.63-0.843-0.547-0.588-0.958-1.169-1.478-2.026-1.045-1.721-3.438-4.876-4.501-5.443-0.049-0.026 0.174-0.37 0.245-0.333 1.298 0.692 2.717 2.614 4.564 5.57 0.513 0.821 1.03 1.538 1.474 2.013 0.691 0.739 0.876 1.086 0.85 1.19" fill="#061922"/>
  </g>
  <g transform="matrix(9.7378 0 0 -9.7378 376.69 790.35)">
   <path d="m0 0c0.086-0.252 1.134-0.312 2.181-0.136-0.417-0.225-0.648-0.578-0.594-0.714 0.076-0.191 0.737-0.227 1.517-0.058 0.102 0.022 0.352 0.314 0.272 0.308-0.684-0.052-1.274-0.089-1.313-0.013-0.02 0.04 0.099 0.166 0.389 0.386 0.368 0.28 0.264 0.332-0.199 0.305-0.602 0-1.715 0.042-1.728 0.123-0.013 0.066 0.682 0.482 1.239 0.791 0.274 0.151 0.415 0.238-0.035 0.369-0.641 0.187-1.552 0.566-1.536 0.671 0.02 0.073 2.435 0.285 2.797 0.356 0.069 0.013 0.036 0.349-0.042 0.333-0.35-0.068-2.417-0.336-2.665-0.378-0.786-0.131-0.888-0.294-0.226-0.671 0.396-0.225 1.128-0.388 1.515-0.505-1.437-0.678-1.623-1.019-1.572-1.167" fill="#061922"/>
  </g>
  <g transform="matrix(9.7378 0 0 -9.7378 397.4 805.53)">
   <path d="M 0,0 C 0.067,-0.269 2.091,-0.758 3.486,-0.369 3.563,-0.347 3.532,0.019 3.455,-0.002 2.299,-0.325 0.73,0.014 0.561,0.177 0.496,0.269 1.217,0.72 1.793,1.035 2.111,1.208 2.05,1.344 1.701,1.176 0.455,0.58 -0.037,0.15 0,0" fill="#061922"/>
  </g>
  <g transform="matrix(9.7378 0 0 -9.7378 465.88 804.84)">
   <path d="m0 0c-0.572-0.796-2.537-1.614-2.861-1.601-0.118 0.083-0.499 0.677-0.555 1.505-0.022 0.315-0.209 0.299-0.215-0.017-0.022-1.034 0.395-1.87 0.652-1.913 0.448-0.075 2.553 1.047 3.16 1.892 0.219 0.303 0.037 0.437-0.181 0.134" fill="#061922"/>
  </g>
  <g transform="matrix(9.7378 0 0 -9.7378 480.24 806.51)">
   <path d="m0 0c-0.488-1.019-1.17-1.264-1.521-1.323 0.108 0.311 0.143 0.74 0.143 1.039 0 0.071-2e-3 0.135-5e-3 0.188-5e-3 0.08-0.285-0.104-0.285-0.151 4e-3 -0.288-0.076-0.813-0.15-1.07-0.088-0.3-0.093-0.427 0.368-0.312 0.438 0.111 1.227 0.495 1.711 1.504 0.034 0.072-0.227 0.197-0.261 0.125" fill="#061922"/>
  </g>
  <g transform="matrix(9.7378 0 0 -9.7378 564.73 813.19)">
   <path d="m0 0c0.076-0.662 0.657-1.399 1.25-1.715 0.108-0.058 0.158-0.021 0.199 0.067 6e-3 0.011 0.542 1.157 1.054 1.491 0.285 0.187 0.164 0.351-0.122 0.164-0.469-0.307-0.972-0.948-1.141-1.283-0.521 0.362-0.958 1.086-0.905 1.608 1e-3 5e-3 1e-3 0.01 1e-3 0.015 0 0.074-0.347-0.252-0.336-0.347" fill="#061922"/>
  </g>
  <g transform="matrix(9.7378 0 0 -9.7378 615.04 811.74)">
   <path d="m0 0c-0.513-0.447-1.488-1.443-1.743-1.8-0.498 0.238-1.05 0.775-1.246 1.324-0.027 0.076-0.33-0.365-0.313-0.403 0.256-0.586 1.012-1.152 1.615-1.375 0.061-0.023 0.13-2e-3 0.168 0.052 0.012 0.017 1.159 1.637 1.7 2.079 0.307 0.252 0.141 0.403-0.181 0.123" fill="#061922"/>
  </g>
  <g transform="matrix(9.7378 0 0 -9.7378 639.19 806.19)">
   <path d="m0 0c-0.257-0.668-0.533-1.464-0.623-1.831-0.561 0.237-1.395 0.68-1.834 1.174-0.053 0.059-0.31-0.186-0.257-0.245 0.516-0.58 1.598-1.188 2.185-1.391 0.103-0.036 0.153-0.051 0.189 0.104 2e-3 0.012 0.348 1.256 0.66 2.066 0.028 0.075-0.292 0.198-0.32 0.123" fill="#061922"/>
  </g>
  <g transform="matrix(9.7378 0 0 -9.7378 663.11 795.93)">
   <path d="m0 0c0-8e-3 1e-3 -0.016 2e-3 -0.024 0.108-0.646 0.057-1.342 0.065-1.755-0.635 0.294-2.166 0.735-2.528 0.872-0.416 0.158-0.518-0.113-0.103-0.27 1.204-0.457 2.486-0.997 2.777-1.133 0.199-0.093 0.225-0.086 0.225 0.12 0 0.054 0.047 1.359-0.102 2.254-0.013 0.078-0.336 5e-3 -0.336-0.064" fill="#061922"/>
  </g>
  <g transform="matrix(9.7378 0 0 -9.7378 676.47 761.1)">
   <path d="m0 0c0.634-0.418 0.825-0.83 0.99-1.047-0.538-0.184-1.226-0.474-1.235-0.477-0.133-0.036-0.162-0.081-0.088-0.211 0.42-0.736 0.499-1.21 0.586-1.466-0.375-0.06-0.862-0.194-1.612-0.21-0.306-7e-3 -0.321-0.141-0.014-0.166 0.937-0.074 1.627-0.047 1.983 0.029 0.091 0.019 0.145 0.048 0.109 0.179-8e-3 0.028-0.187 0.662-0.712 1.615 0.328 0.092 1.104 0.278 1.497 0.425 0.113 0.043 0.152 0.079 0.073 0.21-0.016 0.027-0.529 0.635-1.481 1.262-0.29 0.192-0.363 0.033-0.096-0.143" fill="#061922"/>
  </g>
  <g transform="matrix(9.7378 0 0 -9.7378 678.99 720.14)">
   <path d="m0 0c-0.059-0.012-1.553-0.327-2.429-0.733-0.073-0.033 0.059-0.349 0.131-0.315 0.625 0.289 1.418 0.366 1.867 0.471-0.145-0.364-0.425-1.243-0.425-1.243-0.043-0.135-0.036-0.164 0.103-0.195 0.642-0.144 1.252-0.429 1.569-0.546-0.311-0.546-0.74-1.199-1.031-1.536-0.023-0.027 0.244-0.277 0.296-0.216 0.518 0.599 0.956 1.254 1.219 1.779 0.056 0.113 0.032 0.157-0.077 0.2-0.04 0.015-0.936 0.36-1.749 0.561 0.101 0.254 0.69 1.579 0.69 1.579 0.092 0.234 0.08 0.245-0.164 0.194" fill="#061922"/>
  </g>
  <g transform="matrix(9.7378 0 0 -9.7378 479.82 790.14)">
   <path d="m0 0c0 2.909 1.587 4.511 4.469 4.511 2.852 0 4.617-2.65 4.617-5.106 0-2.121-1.888-3.661-4.49-3.661-2.228 0-4.596 1.492-4.596 4.256m-0.379 0c0-2.952 2.607-4.545 4.975-4.545 2.769 0 4.858 1.661 4.858 3.95 0 2.595-1.955 5.336-4.985 5.336-3.069 0-4.848-1.645-4.848-4.741" fill="#061922"/>
  </g>
  <g transform="matrix(9.7378 0 0 -9.7378 499.48 803.18)">
   <path d="m0 0c0 1.11 1.203 1.939 2.279 1.939 1.295 0 2.3-0.997 2.3-1.854 0-1.214-0.852-1.939-2.279-1.939-1.376 0-2.3 0.745-2.3 1.854m-0.325 0c0-1.282 1.076-2.051 2.625-2.051 1.894 0 2.615 1.059 2.615 2.136 0 1.012-1.154 2.094-2.636 2.094-1.212 0-2.604-0.904-2.604-2.179" fill="#061922"/>
  </g>
  <g transform="matrix(9.7378 0 0 -9.7378 474.68 751.56)">
   <path d="m0 0c-0.087-0.053 0.397-1.913 0.652-1.984s1.46 0.808 1.332 1.19c-0.127 0.383-1.842 0.879-1.984 0.794" fill="#fff"/>
  </g>
  <g transform="matrix(9.7378 0 0 -9.7378 506.42 732.52)">
   <path d="m0 0c-0.166-6e-3 -0.723-2.183-0.468-2.48 0.255-0.298 0.836-0.312 1.162-0.241s0.95 0.51 0.936 0.709c-0.014 0.198-1.219 2.026-1.63 2.012" fill="#fff"/>
  </g>
  <g transform="matrix(9.7378 0 0 -9.7378 546.03 735.55)">
   <path d="m0 0c-0.164 0.073-1.332-0.808-1.488-1.219s0.071-0.935 0.524-1.148c0.454-0.212 1.049 0.099 1.134 0.34s0.085 1.914-0.17 2.027" fill="#fff"/>
  </g>
  <g transform="matrix(9.7378 0 0 -9.7378 475.3 755.15)">
   <path d="M 0,0 C 0,0.064 1.828,-0.702 1.594,-0.978 1.361,-1.254 0.73,-1.701 0.659,-1.658 0.588,-1.616 0,0 0,0" fill="#d1d3d4"/>
  </g>
  <g transform="matrix(9.7378 0 0 -9.7378 503.66 739.01)">
   <path d="M 0,0 C 0.043,0.298 1.701,-1.559 1.339,-1.807 0.978,-2.055 0,-2.275 -0.149,-1.765 -0.298,-1.254 0,0 0,0" fill="#d1d3d4"/>
  </g>
  <g transform="matrix(9.7378 0 0 -9.7378 533.47 754.74)">
   <path d="M 0,0 C -0.106,0.213 1.361,1.764 1.403,1.573 1.446,1.382 1.531,0.213 1.424,0.021 1.318,-0.17 1.02,-0.531 0.638,-0.468 0.255,-0.404 0,0 0,0" fill="#d1d3d4"/>
  </g>
  <g transform="matrix(9.7378 0 0 -9.7378 473.28 750.05)">
   <path d="m0 0m0.875-1.987c-0.131 0.139-0.588 1.374-0.651 1.735 0.348-0.034 1.514-0.479 1.727-0.71 0.016-0.018 0.023-0.041 0.023-0.069 0-0.084-0.067-0.205-0.144-0.307-0.308-0.408-0.849-0.703-0.955-0.649m-0.823 1.916c-0.117-0.153 0.186-1.778 0.623-2.161 0.283-0.248 0.904 0.202 1.221 0.529 0.369 0.379 0.509 0.743 0.31 0.959-0.236 0.256-1.928 0.969-2.154 0.673" fill="#061922"/>
  </g>
  <g transform="matrix(9.7378 0 0 -9.7378 504.7 757.25)">
   <path d="m0 0c-0.164 0.069-0.191 0.174-0.197 0.247-2e-3 0.033-3e-3 0.068-3e-3 0.106 0 0.595 0.292 2.03 0.412 2.064 0.163 0.023 1.336-1.518 1.412-1.768 3e-3 -0.017 5e-3 -0.034 5e-3 -0.05 0-0.122-0.096-0.23-0.182-0.302-0.359-0.298-1.089-0.448-1.447-0.297m0.127 2.667c-0.358-0.054-0.688-2.038-0.655-2.457 0.016-0.222 0.149-0.397 0.372-0.491 0.536-0.227 1.354-0.065 1.856 0.354 0.226 0.189 0.323 0.416 0.274 0.639-0.041 0.186-1.275 2.041-1.847 1.955" fill="#061922"/>
  </g>
  <g transform="matrix(9.7378 0 0 -9.7378 537.36 757.19)">
   <path d="m0 0c-0.269 0.113-0.492 0.354-0.492 0.673 0 0.091 0.018 0.189 0.058 0.291 0.125 0.322 1.035 1.066 1.285 1.15 0.068-0.118 0.097-0.506 0.097-0.906 0-0.42-0.03-0.841-0.075-0.939-0.167-0.367-0.57-0.397-0.873-0.269m-0.732 1.102c-0.249-0.642 0.143-1.196 0.603-1.389 0.442-0.187 1.075-0.087 1.311 0.432 0.2 0.441 0.039 2.12-0.263 2.19-0.333 0.077-1.51-0.871-1.651-1.233" fill="#061922"/>
  </g>
 </g>
</svg>
