<?xml version="1.0" encoding="UTF-8"?>
<!-- Created with Inkscape (http://www.inkscape.org/) -->
<svg version="1.1" viewBox="0 0 91.665 126.56" xmlns="http://www.w3.org/2000/svg">
 <g transform="translate(-35.334 -36.154)">
  <path d="m66.388 86.126c-9.1221 3.2306-15.422 11.323-14.596 20.002 0.66847 7.0189 9.6259 14.907 18.249 16.578-2.1391 1.6717-6.5504 4.4343-8.3334 5.3702-1.7824 0.93586-2.9658 2.8231-2.4509 4.9466 0.35617 1.4706 2.1391 2.7632 4.0552 3.5654-4.9552 2.1316-9.1088 6.797-8.6008 12.255 0.569 6.1183 10.483 12.047 17.068 4.991 1.9166 0.13372 4.7242 0 6.1499-0.26738 2.7632 3.699 11.944 3.1637 14.216-1.6043 2.2728-4.768 1.3813-10.071-7.9772-14.171 3.1193 0 5.1253-1.4257 5.5707-3.253 0.44547-1.8273 0.13372-3.1199-0.26738-3.7883-0.40108-0.66848-2.1391-1.6487-3.6097-2.3616-1.3369-2.0498-2.0059-3.03-2.7632-4.0552l0.0893-0.57969c5.5033-0.37916 17.354-5.1531 17.87-17.358 0.20053-4.7461-2.1391-12.768-6.8852-15.508-3.6097 4.2113-10.183 11.832-13.614 14.105-3.4316-3.6097-10.738-13.533-14.17-18.866" fill="#fff2ad"/>
  <path d="m94.106 100.67c-3.4659-0.37274-6.866 3.3183-7.0414 7.5761-0.13372 3.253 1.1145 7.5312 4.3231 7.7986 3.2086 0.26739 6.0606-3.298 6.328-7.0857 0.2674-3.7878-0.71285-7.9772-3.6097-8.289" fill="#00b9ef"/>
  <path d="m68.436 96.569c-3.022-0.7904-8.512 1.8268-9.4478 6.952-0.93586 5.1253 2.2728 9.4922 5.4814 9.8933 3.2086 0.40107 8.1553-1.7829 8.7794-7.3531 0.62409-5.5702-1.9161-8.735-4.813-9.4922" fill="#00b9ef"/>
  <path d="m60.482 100.04c-1.6043 5.5151 0.43476 8.9911 4.6124 9.5591 4.7306 0.64334 8.2457-4.5001 7.1194-9.9601-3.3167-5.0028-8.9291-3.3354-11.732 0.40108" fill="#0081cc"/>
  <path d="m87.254 108.03c0.3551 3.6691 3.9776 5.2809 6.3504 4.0776 3.6605-1.8562 4.106-7.266 1.8717-10.896-3.4461-1.8557-7.697 1.3899-8.2221 6.8184" fill="#0081cc"/>
  <path d="m44.491 37.386c-0.87329-1.1284-1.6209-0.72408-1.1728 0.58665 5.2424 15.324 18.79 46.787 37.24 67.019 13.923-12.163 41.048-49.038 45.669-58.282 0.53477-1.0695 0.21766-1.6252-1.1556-0.469-6.2959 5.2975-35.047 29.527-44.495 36.39-7.9323-9.0911-26.669-33.077-36.086-45.245" fill="#e8390e"/>
  <path d="m58.748 73.007c0 2.9504 2.2129 11.749 3.6878 14.91 1.4754-0.73798 2.9504-1.4225 3.9514-1.7915-2.2653-3.5824-5.4793-9.0617-7.6392-13.119" fill="#31363b"/>
  <g fill="#fff2ad">
   <path d="m43.318 37.972c1.7118 9.9569 9.058 41.107 13.8 53.939 1.1572-1.0915 3.4621-3.0209 5.3178-3.9948-1.4198-3.3803-3.1578-11.135-3.7595-15.212-4.6793-7.6874-13.404-28.02-15.359-34.732"/>
   <path d="m60.028 129.5c-3.4862-4.5728-21.173-17.72-24.222-14.669-0.49788 0.49841 0.58878 3.8493 2.6712 6.475-1.8562-0.27167-2.7161 0.6337-1.8562 3.1241 0.85991 2.4899 3.4862 5.8852 5.1611 7.5152-1.63 0.045-1.3594 1.9092-0.31658 3.7579 2.3995 4.2557 9.4168 8.1494 14.035 8.1494 1.2225-2.4444 4.2589-6.2007 7.8114-7.2654-2.8765-1.2011-5.8194-3.8723-3.284-7.0868"/>
   <path d="m86.196 128.55c2.8974-3.5766 13.766-11.09 15.937-9.1911 0.72462 0.63423-0.58878 4.3461-3.1691 7.1531 2.807 0.31712 1.2674 4.7092-3.2145 8.9649 2.8519-0.0909 1.8562 4.8445-4.1204 7.6061-1.4936-1.5391-4.5103-4.1108-7.4617-5.2926 2.346 0.22192 5.0627-0.95512 5.6055-3.083 0.54333-2.1284 0.0904-3.5771-0.40751-4.1654-0.49787-0.58878-1.992-1.4941-3.1691-1.992"/>
  </g>
  <g fill="#e8390e">
   <path d="m74.176 128.12c0.49361-1.1904 1.3931-3.3097 1.6546-3.8616 0.26151-0.55136 0.84227-0.4936 1.1326 0.23262 0.58024-1.1321 1.2482-2.4097 1.6257-2.9033s1.4225-0.72623 1.2482 0.31926c-0.17379 1.0455-0.52247 2.6712-0.90001 3.7456 0.98772-1.3359 2.0327-2.5258 2.584-2.9905 0.55188-0.46471 1.0449-0.60964 0.84227 0.49359-0.20322 1.1027-2.1776 5.951-3.368 7.374-1.1904 1.423-2.1193 2.3514-3.0776 2.4968 0.11658-1.4514-0.72569-3.745-1.7418-4.9065"/>
   <path d="m58.877 155.26c-1.3706 1.0695-3.3092 2.9412-3.6097 3.7771-0.30107 0.83531 0.16684 1.1364 0.90216 0.73532 0.73531-0.40108 1.9386-0.769 2.5402-0.90269-0.36739 1.1701-0.46793 2.2728-0.43423 2.7744 0.0331 0.50108 0.46793 1.0027 1.4038 0.33423 0.93586-0.66847 3.4092-2.7744 4.6124-4.9803-1.4038 0-3.9103-0.56792-5.4146-1.738"/>
   <path d="m84.212 156c1.5043 1.0027 4.3119 3.1418 5.114 4.0108 0.80215 0.86902 1.3032 0.53478 0.93584-0.43423-0.36792-0.96954-0.46793-1.4706-0.70216-1.9054 0.86902 0.53478 1.9386 1.0696 2.5402 1.5043 0.60162 0.43423 1.2369 0.0668 0.70217-0.769-0.53478-0.83532-2.1728-2.7407-3.2424-3.7434-1.7043 1.0027-3.3423 1.3032-5.3477 1.3369"/>
  </g>
  <path d="m73.544 114.3c1.7888 0.92142 7.7788 1.5444 10.625 1.4632 0 0.84067-0.89467 2.3583-1.5995 1.6535-1.3824 1.4637-4.5873 3.6322-6.559 3.4156-2.2225-0.24438-3.198-4.2552-2.4664-6.5323" fill="#ee869a"/>
  <g fill="#fff">
   <path d="m82.163 115.76c0.0273 0.65027 0.46045 1.8428 0.8674 1.8701 0.40644 0.0273 1.0294-0.86795 1.2466-1.8161-0.59627 0.054-1.4364 0.0273-2.114-0.054"/>
   <path d="m73.679 114.51c0.0813 0.78611 0.56899 1.8701 1.0027 1.9514 0.43425 0.0818 1.3011-0.73157 1.6268-1.2466-1.0032-0.18985-1.8434-0.40644-2.6295-0.70483"/>
   <path d="m68.167 97c-1.8717-0.30161-3.6953 1.2637-4.1001 3.1199-0.45724 2.0958 0.40054 4.1525 2.0503 4.5456 1.8525 0.44172 3.6006-0.56739 4.1445-3.2086 0.48719-2.368-0.71338-4.2338-2.0947-4.4568"/>
   <path d="m91.699 101.82c-1.3653-0.0364-2.7199 1.8262-2.7199 3.4728 0 1.9434 1.2065 3.3851 2.5525 3.4124 1.476 0.0299 2.6536-1.2139 2.706-3.368 0.0433-1.776-1.0888-3.4782-2.5386-3.5172"/>
  </g>
  <g fill="#ddd196">
   <path d="m45.574 49.886c2.3878 6.3098 9.5505 22.682 14.155 29.845-0.35937-2.1279-0.77327-4.4033-0.97971-6.6793-3.5856-6.6194-13.722-27.858-15.446-35.443 0.25029 2.3674 1.5166 9.0505 2.2706 12.277"/>
   <path d="m110.79 69.773c-5.4584 7.0258-13.542 17.479-16.642 21.136 0.9642 0.75457 2.1257 1.7995 3.0546 2.845 2.7872-4.8777 10.452-18.407 13.588-23.981"/>
   <path d="m70.041 122.77c-0.93586 0.66846-1.9161 1.4262-2.5846 1.8717 1.7 1.3701 4.2937 2.5108 6.9018 3.1701 0.2492-0.84387 1.1508-2.7054 1.3043-3.2808 0.15345-0.57542 0.23692-0.52782 0.37061-0.79522-1.9049-0.16737-3.5092-0.46791-5.9921-0.96578"/>
   <path d="m82.527 127.29c1.0514 0.20535 2.5824 0.73156 3.5194 1.1203-0.77703-0.82248-2.0113-2.6509-2.9022-3.8397-0.21016 0.75082-0.39092 2.0396-0.61713 2.7193"/>
   <path d="m59.336 131.18c0.83852 5.3739 13.637 5.7467 16.401 0.83852 0.49734 2.7958-0.58986 5.467-4.6589 5.8397-4.0696 0.37327-13.233-1.9567-11.742-6.6783"/>
   <path d="m81.018 131.49c1.8947 2.0498 7.02 3.5097 8.9772 2.6712-0.86953 1.9567-2.5161 3.9766-6.0264 3.6033-3.5102-0.37272-5.3429-1.9878-5.529-4.2557 0.86953 0.31069 1.8947-0.52783 2.5781-2.0188"/>
   <path d="m35.949 114.72c0.93584 2.9081 6.1862 9.8377 9.0339 11.328 1.0605 0.55508 1.1968 2.1658-0.0765 1.5407-1.9717-0.96956-10.595-9.7596-8.9574-12.868"/>
   <path d="m36.881 121.39c0.0343 3.5177 5.4681 10.17 10.554 12.451 1 0.44867 1.0589 2.123-0.27594 1.6557-4.1386-1.4487-9.2248-7.1906-10.381-10.554-0.37969-1.1038-0.68985-2.9659 0.10316-3.5525"/>
   <path d="m41.295 132.39c-0.17221 2.8969 7.4152 9.9676 14.899 10.243-0.31017 0.3797-0.51712 0.86313-0.6551 1.2423-5.9322 0.10316-12.648-5.1381-14.106-7.8296-0.89683-1.6557-1.1038-3.2418-0.13793-3.6557"/>
   <path d="m55.903 143.26c-1.5375 8.4895 8.7457 13.604 17.213 8.835-3.8327 6.1948-11.475 6.037-15.508 2.1391-4.0156-3.8792-3.1755-8.066-1.7048-10.974"/>
   <path d="m92 143.66c1.6958 6.9692-6.6306 11.454-10.974 9.2537-1.2498-0.6337-2.1385-0.89252-3.0204-0.86258-1.6118 0.0545-3.5407 0.0225-4.8734-0.0855-0.56847 0.62354-1.0867 1.454-1.5878 1.9557 1.6712 0.0331 5.0135-0.13373 6.3504-0.30108 2.3728 2.6738 8.2221 3.4429 11.999 0.80215 3.7771-2.6402 4.2787-7.52 2.1059-10.762"/>
   <path d="m102.1 119.2c-0.68664 2.6744-4.9627 8.1917-8.2515 10.324-0.82461 0.53477-0.84227 2.2177 0.36794 1.4706 2.4573-1.5177 10.341-10.024 7.8836-11.795"/>
   <path d="m99.641 126.97c-0.3615 2.8904-4.1322 7.7499-7.5649 9.7735-0.72622 0.42781-1.085 2.0455 0.0999 1.5043 3.722-1.6984 10.464-9.4708 7.4649-11.278"/>
   <path d="m96.533 135.75c0.0364 1.7348-3.053 5.1638-5.7269 6.1392 0.36097 0.4337 0.43048 0.69146 0.81231 1.2332 3.3969-0.8674 7.2275-6.4328 4.9146-7.3724"/>
  </g>
  <path d="m73.738 118.21c2.0295-0.66899 4.9466-0.66846 6.5627 1.1348 0.90912-0.50054 1.884-1.3829 2.3717-1.831-0.2107-0.47382-0.47435-1.2909-0.47435-1.8049-1.2909-0.0396-4.2156-0.2107-5.9541-0.56632-0.32942 0.6321-1.2257 1.4487-1.568 1.3567-0.34226-0.092-0.93533-1.2118-1.1198-1.7781-0.21071 0.94815 0.0113 2.6589 0.18183 3.4889" fill="#933000"/>
  <path d="m75.723 131.02c1.2257-0.13372 5.5926-5.2146 6.4173-8.6013 0.31176 0.1562 0.42353 0.60216 0.0893 1.5824-0.33424 0.98023-3.3648 8.6232-6.2617 9.0243 0.045-0.51285 0-1.4257-0.24492-2.0054" fill="#c93008"/>
  <path d="m79.711 121.19c0.64601-0.24545 1.2701 0.31176 1.0471 2.1166l-1.6931 2.0947c0.46793-1.4706 0.98023-3.9215 0.646-4.2113" fill="#e8390e"/>
  <g fill="#c93008">
   <path d="m77.193 132.53c0.77971 1.0246 2.8076 1.4032 3.5204-0.64654 0.7134-2.0498 2.3846-6.9515 2.4514-7.7761 0.0668-0.82461-0.20909-1.1909-0.67274-1.2637-0.88718 3.1573-3.0487 7.9708-5.2991 9.6863"/>
   <path d="m57.306 156.83c2.1594-0.72836 4.2793 0.86633 4.9563 2.8712 0 0 0.53478-0.30054 1.9958-2.5536-1.0861-0.11707-4.2445-0.88611-5.3809-1.8385-0.46793 0.40107-0.98611 0.98611-1.5712 1.5209"/>
   <path d="m90.973 155.93c-1.0342 0.0171-3.8691 1.1128-4.1113 1.8385-0.0668 0.20055-1.0808-0.85563-2.4198-1.6016 1.5765-0.16952 4.0012-0.78023 5.306-1.5257 0.25455 0.25403 0.97114 0.89895 1.2252 1.2888"/>
  </g>
  <g fill="#0f141b">
   <path d="m43.745 37.978c10.326 29.561 26.321 54.799 36.963 66.274 12.678-10.577 38.796-47.141 45.141-57.718 0.27862-0.46365 0.16737-0.67061-0.33424-0.22568-11.89 10.554-29.538 25.26-44.578 36.774-0.3214 0.24599-0.55617 0.22033-0.76901-0.0081-7.6312-8.2082-32.231-40.116-35.997-45.405-0.43103-0.60536-0.72569-0.54868-0.42621 0.3091m36.57 67.48c-11.433-12.142-26.853-36.83-37.347-67.271-0.76205-2.2108 0.49199-2.7231 1.83-1.0198 2.8166 3.5867 29.806 38.327 35.855 44.729 13.887-11.104 33.15-26.638 44.403-36.231 1.7262-1.4717 2.4439-0.47648 1.5706 1.153-6.0494 11.292-31.897 47.478-45.695 58.687-0.24599 0.19946-0.41177 0.16952-0.61606-0.0475"/>
   <path d="m66.715 86.508c-9.2708 3.4958-14.486 10.417-14.3 18.738 0.17167 7.7055 8.4762 15.196 19.51 17.621 1.146 0.25189 1.0091 0.77168-0.14763 0.55992-11.486-2.0985-20.506-9.8511-20.691-18.161-0.19038-8.5435 5.1178-16.05 15.12-19.543z"/>
   <path d="m94.357 90.481c5.275 3.2803 8.1002 11.48 7.3382 18.066-0.90804 7.8462-8.2184 14.134-18.443 15.577-0.0744 0.0113-0.18128-0.65458-0.10155-0.66902 10.047-1.8621 16.273-7.4665 17.197-15.025 0.82409-6.7456-1.9503-14.228-6.5959-17.214z"/>
   <path d="m114.48 64.83c-5.1156 8.4708-12.349 21.224-16.985 29.462l-0.74493-0.85885c4.0423-7.1793 10.045-17.405 14.865-25.519z"/>
   <path d="m62.037 88.181c-1.484-3.3177-3.36-10.864-4.0204-16.354l1.0364 1.4123c0.80377 4.8183 2.5418 11.391 3.9038 14.436z"/>
   <path d="m56.725 92.389c-4.5996-12.8-11.932-42.204-13.959-54.997l1.2546 2.4407c2.2461 12.695 9.3067 40.088 13.555 51.729z"/>
   <path d="m59.546 103.4c-1.0872 4.9269 1.6872 8.9286 4.7878 9.5591 3.4252 0.69521 7.3494-1.8509 8.2387-6.4173 0.92944-4.7691-1.1904-8.7334-4.2862-9.4837-2.6311-0.63798-7.6302 1.3107-8.7403 6.3419m4.537 10.428c-4.0215-0.81713-6.7996-5.7788-5.7194-10.674 1.0594-4.8012 5.9691-7.9269 10.107-6.9237 3.8509 0.93371 6.1322 5.5862 5.1344 10.711-1.0829 5.5574-5.9691 7.6061-9.5216 6.8857"/>
   <path d="m81.258 111.76c0.0214-0.14278-0.27862-0.40109-0.76312-0.4567-0.40697-0.047-0.83265 0.0883-0.85244 0.26738-0.023 0.20856 0.31498 0.49466 0.7519 0.51767 0.4353 0.023 0.82996-0.10591 0.86366-0.32835"/>
   <path d="m87.767 108.07c-0.4369 4.544 1.199 7.3258 3.7316 7.5414 3.1755 0.25829 5.4119-3.4263 5.6654-6.9692 0.30268-4.2397-0.93852-7.2643-3.4012-7.5451-1.4626-0.16738-5.4483 1.2749-5.9959 6.9729m3.6648 8.4018c-3.3423-0.20589-5.2247-3.3766-4.7311-8.5104 0.51605-5.3632 4.1445-7.9548 7.1462-7.7082 2.8883 0.2369 4.8584 3.5536 4.4461 8.5114-0.37916 4.559-3.2953 7.9264-6.8611 7.7072"/>
   <path d="m82.9 117.79c-2.699 2.4733-5.5916 3.6664-7.1125 3.3172-2.3648-0.54279-3.4407-4.4536-2.5717-6.7178 0.15458-0.40322 0.25776-0.46526 0.64332-0.30964 2.0423 0.80163 8.013 1.4375 10.378 1.4075 1.0348-0.0129 1.0738 0.53746 0.0385 0.60484-2.4701 0.1604-7.9398-0.22086-10.358-1.0011-0.45776 2.2001 0.42728 5.075 1.9054 5.3814 1.6284 0.3369 4.3782-1.1781 6.6178-3.2338z"/>
   <path d="m74.643 116.88c-0.5123-0.0513-1.0712-1.0273-1.2086-1.915l0.6337-0.34813c0.0315 0.74066 0.45722 1.5621 0.65671 1.577 0.25134 0.0181 0.84974-0.52247 1.2268-1.0482l0.77007 0.0962c-0.2968 0.57328-1.4418 1.7016-2.0787 1.638"/>
   <path d="m82.926 117.97c-0.7182 0.0113-1.0957-1.5155-1.0856-2.1808l0.70911 4.4e-4c0 0.59894 0.25027 1.5316 0.43317 1.5332 0.22994 2e-3 0.64707-0.67328 0.9305-1.4631l0.73316 0.0213c-0.2353 0.81928-1.0412 2.0776-1.7204 2.0888"/>
   <path d="m70.809 122.96c-1.6642 1.1417-6.3996 4.0359-8.628 5.3049-3.4397 1.9578-3.3263 5.2087-0.81392 6.7526 4.2279 2.5985 8.9553 3.1963 12.308 1.6797 1.6455-0.74439 2.2653-3.1423 1.5797-5.4985-0.98986-3.398-3.3316-4.4092-5.5237-3.3006-2.784 1.4102-4.7712 2.1311-7.1611 2.8568-0.97758 0.29734-1.1434-0.28022-0.16632-0.58291 2.1888-0.67755 4.0268-1.4466 7.0103-2.9755 2.491-1.277 5.4691-0.44172 6.7098 3.8188 0.75723 2.6006 0.076 5.413-2.1814 6.4339-3.1054 1.4048-8.2178 1.2556-12.906-1.7856-3.1798-2.0632-2.9354-5.7435 0.69092-7.9772 2.2059-1.3589 6.1911-3.8916 7.8446-5.0274z"/>
   <path d="m76.714 124.92c-0.11125-0.9166-0.4829-0.9471-0.63692-0.4797-0.17754 0.53157-0.81872 2.3984-1.6187 4.0782l-0.59093-0.63156c0.68505-1.3369 1.2032-2.6904 1.5706-3.7103 0.38825-1.076 1.4065-1.0016 1.7551-0.0668z"/>
   <path d="m78.463 126.17c0.38987-1.3129 0.92518-3.3151 1.0193-4.1611 0.0589-0.52782-0.31711-0.63317-0.61819-0.13373-0.83585 1.3867-1.9386 3.3755-2.8685 5.5114-0.34546 0.79414-0.90858 0.57648-0.54655-0.26097 0.72462-1.6744 1.9108-4.114 2.8247-5.6809 0.78931-1.3524 2.0824-0.82997 1.9278 0.56418-0.0855 0.76901-0.37272 1.8551-0.67808 2.9097z"/>
   <path d="m76.015 132.53c2.0225 0 5.4344-6.8403 6.0413-9.4254 0.12838-0.54707-0.0621-0.53531-0.30108-0.30108-0.91874 0.90269-2.2225 2.4626-3.3509 3.96-0.56419 0.74815-0.92515 0.43799-0.39253-0.33315 1.1423-1.6541 2.5236-3.3092 3.2996-4.0953 0.861-0.87222 1.7263-0.68718 1.3899 0.90911-0.49467 2.3503-3.7514 10.203-6.6948 10.079z"/>
   <path d="m80.218 123.93c0.5043-1.7883 0.0396-2.6145-0.34171-2.3439l-0.55563-0.62514c0.79682-0.59949 2.1605 0.0438 1.7428 2.1664z"/>
   <path d="m82.441 122.56c0.7519-0.0834 1.2696 0.69736 1.0193 2.0054-0.4321 2.2621-1.9455 6.7392-2.729 8.1152-0.94708 1.6637-2.8931 1.7359-3.6734-0.11335l0.50322-0.36471c0.76526 1.2204 1.7872 1.1958 2.5065-0.0165 0.78078-1.3155 2.3819-5.4894 2.806-7.7066 0.2321-1.2145-0.023-1.2754-0.33422-1.2482z"/>
   <path d="m78.689 133.48c0.57916 3.0252 3.5851 3.9017 6.0579 3.8937 4.2119-0.0535 5.5269-3.6151 4.5873-6.0911-0.42033-1.1091-3.7183-2.7578-7.1355-3.6851l0.25135-0.60162c3.0081 0.82461 6.8103 2.3787 7.4868 4.0333 1.3043 3.1883-0.43903 7.0488-5.1691 7.1077-2.6888 0.0336-6.0943-0.7214-6.7296-4.7905z"/>
   <path d="m85.473 128.37c-0.83692-0.87703-1.823-2.2172-2.5354-3.4921l0.26953-1.2637c0.87168 1.6508 2.307 4.1466 3.4546 5.1349z"/>
   <path d="m81.004 137.09c-0.95672 2.7466-2.9402 5.9462-4.536 7.5424-0.2893 0.28877-0.42781 0.25561-0.60161-0.092-0.79414-1.5877-2.7338-4.7514-3.9536-6.7905l0.95243-0.26738c1.0118 1.8123 2.5904 4.7129 3.4092 6.4595 1.4385-1.6893 3.0322-4.8942 3.8691-7.3702z"/>
   <path d="m63.999 136.89c-3.9942 1.0027-9.3419 6.1611-8.7318 11.756 0.71767 6.5772 10.896 12.144 17.366 3.6022 0.47755-0.62996 0.93584-0.30589 0.49519 0.34975-6.2526 9.3061-18.084 3.9964-18.965-3.86-0.65722-5.8627 4.468-10.854 8.8655-12.383z"/>
   <path d="m72.096 153.4c1.8289 0.11609 4.1766 0.0273 6.2937-0.17594 0.91607-0.0876 0.96207 0.4476 0.0577 0.60375-2.2535 0.38878-4.8188 0.54655-7.1285 0.53317z"/>
   <path d="m78.305 153.56c2.638 2.6322 9.2628 2.468 11.707 0.15878 3.3958-3.2097 3.3236-7.9478 0.91873-10.545-2.0744-2.2402-4.6648-4.175-7.428-5.1889l1.345-0.26739c2.522 1.0834 4.9589 2.7166 6.8686 4.7793 2.4525 2.6493 3.069 8.1916-1.0359 12.041-2.8578 2.6797-10.478 2.791-13.269-0.84387z"/>
   <path d="m58.699 159.25c-0.87435 0.17273-1.777 0.50696-2.6295 0.90804-1.2487 0.58772-1.7722-0.16472-1.0695-1.4038 0.70214-1.2364 2.2899-2.791 3.6097-3.7044l0.83585 0.5567c-1.1241 0.64281-3.2546 2.5183-3.8552 3.5541-0.23797 0.41177 2e-3 0.5551 0.28824 0.39413 0.99468-0.55938 1.8289-0.88398 2.9541-1.1851z"/>
   <path d="m64.843 157.14c-1.1904 1.8701-3.3258 4.0194-5.0301 5.1611-1.1781 0.78933-1.915 0.38664-1.8829-0.74655 0.0278-0.99682 0.24494-2.3172 0.89683-3.7931 0.3107-0.70323 0.69572-0.54975 0.42728 0.16952-0.53264 1.4316-0.62248 2.9937-0.62248 3.5568 0 0.47595 0.25936 0.60162 0.78023 0.21177 2.0273-1.5155 3.2226-2.8493 4.4338-4.6124z"/>
   <path d="m84.803 155.92c1.7327 1.2145 3.7546 2.8017 5.0162 4.0552 0.16846 0.16683 0.31337 0.13259 0.24759-0.10106-0.23903-0.85136-0.54706-2.0246-1.1321-2.9771-0.36418-0.59254-0.0508-0.82623 0.34922-0.25563 0.74439 1.061 1.2968 2.4942 1.446 3.1669 0.27702 1.2428-0.64065 1.4984-1.522 0.62461-1.2022-1.1915-3.9423-3.2487-5.8424-4.4124z"/>
   <path d="m89.313 157.15c0.73531 0.35669 2.2851 1.2615 3.0493 1.799 0.31337 0.22032 0.45509 0.0567 0.25401-0.26418-0.80644-1.2904-1.8872-2.4573-3.4049-3.6996l0.73158-0.53853c1.2877 1.1129 2.5514 2.5953 3.2594 3.8702 0.75563 1.3594-0.0487 1.9391-1.1583 1.1979-0.76632-0.51178-1.6599-0.94708-2.284-1.2059z"/>
   <path d="m59.676 129.95c-5.8413-6.728-18.256-14.67-22.34-14.952-1.2514-0.0834-1.4706 0.37328-1.0615 1.337 1.4123 3.3231 4.2643 8.0911 8.6687 10.732 0.77863 0.46686 0.58076 0.94868-0.24012 0.5567-3.8969-1.8605-7.951-7.2638-9.1569-10.921-0.61552-1.8674 0.11125-2.6771 2.1391-2.5402 4.1851 0.28878 16.444 7.9323 22.416 15.107z"/>
   <path d="m38.873 121.99c-1.7524-0.7182-2.6273-0.21392-1.8049 2.1894 1.3808 4.0306 5.6985 9.3585 10.12 10.779 0.87115 0.27969 0.86526 0.86527-0.13421 0.59092-5.0221-1.3776-9.4361-7.2034-10.706-11.139-0.992-3.0739 0.25616-3.9188 2.0947-3.3423z"/>
   <path d="m42.575 132.66c-1.4503-0.28826-2.1172 0.58183-0.77702 2.8161 2.1182 3.53 9.4259 8.636 13.927 7.8932l-0.34762 0.69305c-4.6333 0.42462-11.884-3.7183-14.439-7.9767-1.676-2.7947-0.6813-4.5103 0.72622-4.4622z"/>
   <path d="m59.905 138.48c-0.48826-4.383-6.1547-5.9536-7.6622-2.7659-1.031 2.1776 0.4845 4.5483 3.329 4.2065 0.71338-0.0855 0.79734 0.44707 0.0952 0.59842-3.452 0.74599-5.4953-2.4477-4.1932-5.1809 1.6995-3.5653 8.3392-2.4289 9.1125 2.6947z"/>
   <path d="m86.093 128.48c3.2942-4.2263 9.9222-8.6842 13.903-9.8398 2.3605-0.68344 3.6033 0.52087 2.5985 2.9327-1.1172 2.6819-4.6124 7.4339-8.4473 9.6056-0.74602 0.42246-1.1102 6e-3 -0.30643-0.52355 3.384-2.2278 6.7419-6.8381 7.8264-9.4414 0.63531-1.5241 0.24225-2.0065-1.454-1.5123-3.8546 1.1187-10.431 5.2055-13.582 9.1767z"/>
   <path d="m98.964 126.51c1.5712-0.0503 2.415 1.5712 1.2343 3.7103-1.3851 2.5081-3.8012 6.4082-8.0334 8.0949-0.73211 0.29145-1.0262-0.19251-0.18931-0.57649 3.7792-1.7332 5.9852-5.2755 7.4066-7.9296 0.88559-1.6535 0.3059-2.8268-0.97327-2.7027z"/>
   <path d="m91.206 142.73c1.8492-0.58397 3.8578-2.2156 5.0221-4.2113 0.9904-1.6979 0.50643-2.5493-0.86902-2.4316l0.52729-0.64654c1.2476-0.11124 2.5124 1.1032 1.0915 3.5429-1.2038 2.0674-3.1717 3.8996-5.1119 4.5654z"/>
   <path d="m89.335 135.57c1.507 0.0818 2.3706 2.8974-0.45136 5.0071l-0.69466-0.55028c2.3648-1.6407 2.1963-4.0135 0.86098-3.9274z"/>
   <path d="m79.988 119.56c-0.89628-1.3187-4.0627-2.0541-6.197-1.0289-0.18823 0.0909-0.36899-0.35028-0.18663-0.45295 2.3022-1.2926 5.5381-0.72462 6.8184 1.1588 0.1182 0.17274-0.36152 0.43103-0.43478 0.323"/>
  </g>
 </g>
</svg>
