<?xml version="1.0" encoding="UTF-8"?>
<!-- Created with Inkscape (http://www.inkscape.org/) -->
<svg version="1.1" viewBox="0 0 119.22 151.38" xmlns="http://www.w3.org/2000/svg">
 <g transform="translate(-15.884 -35.164)">
  <path d="m91.458 117.02c0.33028-12.564-4.5418-22.161-10.981-28.718-0.35793 10.565-25.967 25.34-42.623 29.907l-16.296 10.477c3.4023 5.9999 18.894 17.014 29.638 19.879 6.8954 14.417 25.878 21.402 42.354 20.864 11.999-5.1926 15.222-21.937 15.043-29.549-0.26648-11.322-4.5668-17.999-12.031-23.23z" fill="#ef8200"/>
  <g fill="#352113">
   <path d="m78.238 86.602c16.857 0 36.067-22.881 37.876-35.549 0.59873-4.1892-1.5219-5.1939-5.8196-3.7609-4.5675 1.5225-15.849 7.0737-23.909 14.326 1.791-5.9986 4.2688-18.115 4.2688-22.504 0-3.224-1.1685-4.5017-4.7162-2.4772-11.879 6.7769-23.627 25.707-23.013 44.95-13.984-1.381-28.383 6.4532-31.161 16.834-1.7015 6.3578-3.4924 11.641-8.5073 13.431l14.596 6.3572c12.357-3.6707 39.219-15.043 42.622-29.907-0.53688-0.44805-1.5219-1.2541-2.2384-1.7015"/>
   <path d="m38.073 156.94c-0.69217 0.0631-1.8258-0.0955-2.518-0.28359-1.2527-0.34148-2.4765-0.067-1.9192 1.8883 1.2271 4.3122 5.2557 8.1191 9.1896 9.285 0.0941-3.9346-2.4548-8.562-4.7524-10.89"/>
   <path d="m96.562 116.65c9.7923 5.4248 12.28 19.394 11.552 25.755-1.1304 9.8693-3.0391 20.725-14.866 26.977 21.62-0.30136 29.16-11.215 29.296-24.684 0.17308-17.19-12.711-27.624-25.981-28.048"/>
  </g>
  <path d="m24.751 111.29c2.0298-1.433 4.1787-3.9398 4.6563-5.3728 1.91-2.6864 3.4628-5.1939 4.1188-6.9256 0.65664-1.7311 2.1627-4.2162 3.4023-5.6709 1.7317-2.0298 5.6709-5.1926 7.6415-4.7741 3.1746 0.67176 6.3446 13.412 5.134 17.608-1.7732 6.1466-8.0257 10.046-12.119 11.522-2.0291-5.4334-8.9541-7.1033-12.834-6.3868" fill="#fccf00"/>
  <path d="m62.851 95.662c-5.2531-0.06107-9.3146 7.8343-9.2515 14.64 0.06448 6.9184 2.2594 14.317 7.554 14.385 5.3735 0.0704 8.4448-7.3256 8.8265-13.748 0.42635-7.1717-2.2028-15.222-7.1289-15.277" fill="#fff"/>
  <path d="m51.196 148.57c-1.9699 1.0442-9.2844 5.7367-10.983 7.1934-0.83626 0.71587-1.4718 1.1113-2.139 1.1817 2.6759 2.6976 4.7985 7.6185 4.7517 10.89 7.8336 1.7179 20.25-1.1475 24.309-4.132-6.2078-2.5068-14.566-10.447-15.939-15.133" fill="#ef8200"/>
  <path d="m28.855 111.32c-5.9242-0.67835-11.34 2.2542-12.268 8.4613-0.6448 4.3221 3.0726 9.4304 9.3127 10.119 6.492 0.71653 11.802-2.42 12.268-7.3421 0.51847-5.488-3.8688-10.614-9.3127-11.238" fill="#d83339"/>
  <path d="m126.06 93.175c-5.2498 0-8.5791 3.7694-8.4146 8.9245 0.11778 3.6674 3.4115 7.6 8.5652 7.4526 5.1143-0.14682 8.1994-4.2425 8.1435-8.3554-0.0625-4.6741-3.803-8.0218-8.2942-8.0218" fill="#d83339"/>
  <path d="m63.356 101.19c-2.2456 0-4.1596 2.9009-4.3576 7.9988-0.19673 5.057 1.4968 7.7237 3.4622 7.7724 2.1265 0.0519 4.1543-3.0634 4.3576-7.5329 0.22699-4.9932-1.2554-8.2382-3.4622-8.2382" fill="#352113"/>
  <path d="m75.731 85.169c16.297-2.4173 36.623-24.892 40.563-35.37-0.98495 14.058-21.043 35.997-38.055 36.892z" fill="#281304"/>
  <path d="m89.878 36.19c-0.35793 5.4919-5.5518 24.416-8.0593 29.37 1.7317-1.5521 3.224-2.9845 4.4175-3.9997 1.7317-4.5366 6.2084-23.341 3.6418-25.371" fill="#281304"/>
  <g fill="#cf7100">
   <path d="m29.407 130.15c3.5812 7.2822 16.834 15.64 26.982 19.102-8.6856 0.38885-30.355-12.148-34.653-20.385 1.7015 0.89481 4.955 1.4922 7.6711 1.2837"/>
   <path d="m88.975 169.13c0.80402 1.8771 2.1647 4.659 3.7523 6.3532 1.0047 1.0725 1.1429 1.9673 0.87114 2.6812-0.53559 1.406 0.84546 2.1923 2.6798 1.6745 6.165-1.7416 9.668-7.1506 9.6009-12.377-4.4892 1.4074-11.209 2.4732-16.904 1.6686"/>
   <path d="m101.68 162.34c-12.945 2.6009-34.299-2.1508-45.921-13.235-1.487-0.0454-3.5029-0.22963-4.6261-0.56781 6.4848 13.679 25.323 21.414 43.232 20.749 2.7707-1.7363 5.4314-4.4576 7.3151-6.9454"/>
  </g>
  <path d="m121.8 138.04c-0.47768 10.148-8.8159 20.289-16.098 23.155-1.2139 0.47702-2.564 0.856-4.0142 1.1475-1.8837 2.4877-4.5445 5.209-7.3158 6.9447 3.1944-0.11837 6.3598-0.50135 9.4192-1.1685 11.187-2.439 22.101-12.924 18.009-30.078" fill="#281304"/>
  <path d="m67.124 163.77c-2.6739-1.2837-6.419-3.9589-8.987-5.9913-2.9174 2.6108-10.3 5.1669-16.173 5.8078 0.40464 1.283 0.64742 2.747 0.72178 4.1175 7.473 1.9982 18.298-0.51386 24.438-3.9339" fill="#cf7100"/>
  <path d="m36.099 163.34c1.4337 2.2239 3.7747 3.6102 6.5868 4.3629-0.07434-1.3699-0.31714-2.8345-0.72112-4.1175-2.3094 0.252-4.3859 0.20792-5.8657-0.24541" fill="#281304"/>
  <path d="m117.69 100.24c1.8554 7.8237 14.196 6.6947 16.615 0.64413-0.0802 4.5188-3.226 8.5508-8.5495 8.5508-5.3228 0-8.3882-4.1135-8.0658-9.1949" fill="#b7282e"/>
  <path d="m63.425 103.29c-0.64085 0-1.1258 0.84417-1.1679 1.8988-0.04343 1.1277 0.44412 2.1042 1.1448 2.1061 0.61321 2e-3 1.2198-0.85138 1.2021-2.0541-0.01393-0.95008-0.5007-1.9508-1.1791-1.9508" fill="#fff"/>
  <g fill="#0f141b">
   <path d="m21.572 111.82c5.0932-1.4547 7.2934-4.4359 9.1291-11.779 1.6929-6.7716 4.7353-10.905 11.764-14.92 8.0014-4.5695 18.879-5.6564 28.504-2.4035 1.2409 0.41911 1.0323 1.1192-0.22964 0.77835-9.6344-2.5983-19.838-1.5219-27.648 2.9456-5.9288 3.3924-9.3048 7.2388-10.971 13.908-1.3646 5.457-3.1167 9.2673-7.2204 11.365z"/>
   <path d="m90.887 119.02c-0.1132-15.908-5.9341-28.251-16.079-33.991-1.0889-0.6165-0.77507-1.2462 0.35662-0.73033 11.132 5.082 18.057 19.709 16.534 34.764-0.13488 1.3383-0.80139 1.3073-0.81126-0.0428"/>
   <path d="m26.829 111.97c-4.2662 0-8.7304 2.791-9.3133 7.6323-0.5994 4.9794 2.7062 9.0028 8.479 9.7252 6.0288 0.75334 10.886-2.3108 11.445-7.1796 0.50991-4.4405-2.9746-10.178-10.611-10.178m-1.0527 18.691c-6.3512-0.79415-10.523-5.3288-9.8134-11.221 0.50004-4.1543 3.9865-8.7561 10.821-8.835 8.1053-0.0961 12.913 5.9578 12.248 11.748-0.65993 5.742-6.4144 9.1646-13.256 8.3086"/>
   <path d="m22.256 118.35c-0.27832-0.0362-0.75533 0.7369-0.81718 1.8311-0.05658 1.0034 0.25463 1.6705 0.49346 1.6942 0.33753 0.0356 0.6573-0.42173 0.72112-1.5014 0.08421-1.4449-0.20331-1.9989-0.3974-2.0239"/>
   <path d="m29.724 119.12c-0.38359-0.0605-0.72638 0.60005-0.84744 1.9002-0.11712 1.2771 0.16054 1.7107 0.4678 1.7706 0.31779 0.0619 0.86389-0.31713 1.0034-1.5403 0.12239-1.0764-0.22699-2.0692-0.62374-2.1304"/>
   <path d="m69.007 101.86c5.7795-4.4596 10.13-9.3633 10.775-14.047l1.1863 1.1205c-0.51189 4.7886-5.2577 9.9285-11.579 14.589z"/>
   <path d="m53.588 112.87c-6.1051 2.9476-11.904 5.0972-15.768 5.9374l-0.45925-1.1415c3.6016-0.73691 9.7357-3.0582 16.241-6.3249z"/>
   <path d="m62.926 96.273c-4.3451-0.09927-8.2468 5.7867-8.6745 13.062-0.54281 9.2403 2.9259 14.439 6.6151 14.741 3.772 0.32634 7.8566-4.3352 8.4468-13.626 0.52834-8.3211-3.0036-14.099-6.3874-14.177m-2.1193 28.983c-4.4405-0.18282-8.3297-5.7999-7.7303-15.999 0.47307-8.0514 4.4471-14.266 9.82-14.148 4.3557 0.09668 8.235 6.1005 7.6408 15.462-0.61717 9.7094-4.5136 14.901-9.7305 14.686"/>
   <path d="m63.356 101.6c-2.1522 0-3.7247 3.1128-3.899 7.5928-0.19015 4.8728 1.5146 7.329 3.0555 7.3665 1.7192 0.0422 3.6155-2.7279 3.8168-7.1428 0.20067-4.4122-1.0679-7.8165-2.9733-7.8165m-0.84284 15.77c-2.7167-0.0651-4.1951-3.7115-4.0194-8.2218 0.1908-4.9057 2.0719-8.3613 4.8623-8.3613 1.9627 0 4.2912 2.3028 4.0023 8.6521-0.20726 4.5629-2.0568 7.931-4.8452 7.931"/>
   <path d="m37.249 117.18c5.4689-2.3811 11.85-6.5993 11.954-13.577 0.0862-5.7374-2.8141-14.097-4.5892-14.495-2.6397-0.59545-8.4475 4.8064-10.327 9.5068-0.83889 2.0976-3.3286 6.492-5.3873 8.939l1.2705-3.1937c1.1626-1.9804 2.318-4.3432 3.02-6.1874 2.0068-5.2742 8.6087-10.968 11.715-10.229 3.0068 0.71652 5.7459 10.214 5.6637 15.715-0.08686 5.865-4.1188 10.79-12.962 14.472z"/>
   <path d="m77.659 86.039c14.237 0.13488 34.342-18.593 37.773-35.064 0.58558-2.8108-0.41582-4.2866-3.9063-3.3911-10.902 2.7983-35.84 19.856-41.304 35.522l-1.1475-0.38029c4.9991-16.287 30.744-33.866 42.261-36.228 4.6373-0.95008 6.0525 0.99088 5.2939 4.757-3.4582 17.181-22.769 35.51-37.782 35.88z"/>
   <path d="m62.371 81.42c-1.864-20.219 13.061-40.574 23.898-45.597 3.0818-1.4284 5.0524-0.5369 4.9754 2.7062-0.15657 6.6486-2.1561 17.012-4.1714 22.494l-2.1489 1.7021c2.6713-6.6572 4.7761-17.627 5.184-24.148 0.14344-2.2949-0.8981-3.0542-3.3806-1.7528-11.653 6.1117-24.308 26.945-23.061 44.774z"/>
   <path d="m55.819 149.62c-11.369-0.12831-29.815-12.366-35.917-21.779l2.3581 0.88692c6.4137 8.2566 22.607 18.973 33.588 20.081 1.1231 0.11319 1.0942 0.8244-0.02895 0.81125"/>
   <path d="m35.307 135.62c-0.66388-0.75203-0.13357-1.2528 0.58097-0.56847 3.2648 3.1273 8.0928 4.3589 13.111 3.599 4.3688-0.65927 7.3908-2.5766 9.518-5.8295 0.56058-0.85666 1.1646-0.55729 0.72309 0.37108-1.8206 3.8227-5.465 6.1242-10.096 6.8243-5.0557 0.76061-10.35-0.44939-13.837-4.3964"/>
   <path d="m91.405 116.29c19.954-1.8594 33.695 11.766 32.154 31.042-1.5008 18.76-18.785 25.883-44.224 21.495-10.34-1.7824-24.497-9.5449-28.768-20.239l1.3093 0.0856c4.6359 9.3831 17.791 16.914 27.716 18.619 22.098 3.7951 40.328-0.56847 41.9-20.091 1.4324-17.795-11.157-31.503-30.155-29.517z"/>
   <path d="m92.117 169.12c9.1034-3.0891 15.443-15.668 15.173-29.986-0.15796-8.3962-4.3648-19.127-12.423-22.35l2.2805-0.27897c7.6553 3.9181 11.685 14.075 11.854 22.365 0.28949 14.157-5.99 26.683-14.466 30.607z"/>
   <path d="m125.96 108.81c3.8859 0 7.6224-3.0641 7.6224-7.6112 0-4.5405-3.6898-7.3855-7.825-7.271-4.3747 0.12573-7.5474 3.2082-7.5204 7.5737 0.0263 4.2023 3.3694 7.3085 7.723 7.3085m4e-3 1.5166c-4.5576 0-8.9784-3.1088-9.0146-8.837-0.0342-5.4564 4.0563-8.9297 8.787-9.0659 5.4294-0.15856 9.3686 3.9142 9.3686 8.762 0 6.119-4.8485 9.141-9.141 9.141"/>
   <path d="m106.51 167.17c-0.0179 7.4842-5.0676 12.059-10.463 13.357-2.3535 0.56585-3.351-0.65005-3.1075-2.1015 0.15458-0.93363 0.08415-1.6501-0.59744-2.364-1.3514-1.4179-3.3713-4.0701-3.9734-6.8967l1.3541-0.01c0.62835 2.595 2.2232 4.907 3.4253 6.1657 0.77442 0.81191 1.079 1.7811 0.83889 3.2148-0.11638 0.70401 0.49544 1.2837 1.8699 0.94087 4.8827-1.2198 9.3554-5.463 9.3548-12.037z"/>
   <path d="m42.329 167.58c-0.35595-3.9708-2.1916-8.0448-5.0873-10.523l1.1646-0.20067c2.9286 2.5344 4.8129 6.8677 4.8412 10.862z"/>
   <path d="m67.705 163.95c-4.5701 4.2313-17.779 5.7334-23.661 4.8241-4.3162-0.66782-7.0493-3.2838-8.6745-5.5189-2.1495-2.9542-2.9772-5.9091-1.8363-6.7822 0.70467-0.53953 1.7271-0.50531 3.1595-0.0869 0.89087 0.25859 1.7469 1e-3 2.3634-0.48161 3.0667-2.4002 8.5626-6.3558 11.431-7.6922l1.7528 0.7435c-2.5555 1.081-9.2541 5.3886-12.55 7.9422-0.90206 0.69873-1.9495 0.88297-3.2056 0.53491-0.95798-0.26581-1.81-0.45661-2.3015-0.0422-0.34279 0.28884 0.15923 2.4502 2.1193 5.2386 1.3429 1.91 4.0043 4.207 7.9435 4.7228 8.3231 1.0929 19.129-1.4416 22.292-4.126z"/>
   <path d="m126.8 109.66c1.337 10.831-7.375 12.175-10.396 9.2679-1.5021-1.4449-1.5344-4.0931-0.0565-5.3985 1.3856-1.2271 3.9352-0.8777 5.1722 0.45401 2.9555 3.1832 1.6745 9.8272-4.9445 12.675l1.1008 1.3712c8.2764-3.9352 9.0659-11.235 5.2577-15.441-1.9364-2.139-5.7413-2.7424-8.0047-0.75862-2.5818 2.2627-2.3147 6.3289 0.0473 8.5738 4.505 4.2813 15.732 1.3126 13.736-11.036z"/>
  </g>
  <path d="m82.733 183.31c-2.6686-2.57-9.5515-3.2714-12.139-2.6035-0.19536 0.40662-0.52045 0.92772-0.89481 1.3021-0.60138 0.60203-0.82837 2.1509 0.37436 2.7667 4.5162 2.3081 10.883 1.0409 12.659-1.4653" fill="#352113"/>
  <path d="m86.237 149.25c-2.8568-3.6082-16.16-2.6042-17.192 0.17905-2.7463 7.4026-1.3449 25.154 1.0744 29.189 0.35793 0.59809 0.59216 1.3646 0.47505 2.085 2.3897-0.95074 9.2317 0.069 12.139 2.6035 7.0454-9.5857 8.0178-28.354 3.5036-34.057" fill="#ef8200"/>
  <path d="m114.73 181.96c2.7437-0.29606 4.5425-1.3146 6.2367-3.9721 6.9184-10.844 7.5915-24.579 2.4423-31.758-2.4897-3.474-5.8861-3.5154-9.237-0.24213-6.8118 6.6545-7.0072 19.914-4.8669 30.307 0.41845 2.0291 0.0724 2.7693-0.5961 3.1036-0.95601 0.47833-1.3988 1.7719 0.0593 2.2094 1.2672 0.37898 4.0912 0.55532 5.9617 0.352" fill="#ef8200"/>
  <path d="m120.55 178.65c6.3295-8.46 9.5627-25.842 1.0494-34.357 3.551 10.252 2.1745 25.738-3.5846 32.797-2.0765 2.545-6.2854 2.8134-8.6981 1.8765-1.8758 0.8698-2.037 2.3107-0.46913 2.6792 1.3482 0.31713 4.0392 0.59283 5.917 0.30989 2.4134-0.36121 4.1741-1.1514 5.7854-3.3056" fill="#cf7100"/>
  <path d="m85.833 148.96c2.9476 9.9167-0.33555 24.879-4.0872 29.636-0.62439 0.79022-1.7653 1.7291-3.22 2.5627 1.3718 0.46453 2.8391 1.1725 4.0464 2.1416 6.9118-7.5428 8.8074-30.399 3.2608-34.341" fill="#cf7100"/>
  <path d="m69.148 183.22c-0.13428 1.6751 4.1714 3.6201 9.9831 2.2778 1.2554-0.29016 2.4035-1.0633 3.4405-2.1956-1.2073-0.96983-2.6752-1.6778-4.0464-2.1423-2.5173 1.4429-5.9801 2.5706-9.3771 2.0601" fill="#281304"/>
  <g fill="#0f141b">
   <path d="m119.61 144.32c-3.8773-0.21516-8.3014 4.0089-10.182 13.387-0.9073 4.5274-0.86718 12.764 0.57044 18.565 0.53098 2.1397-2e-3 3.0753-0.96784 3.601-0.95995 0.52307-0.75731 1.0172 0.46188 1.387 1.46 0.44149 4.0175 0.44083 6.0328 2e-3 2.0772-0.45269 3.6431-1.6324 4.9353-3.576 3.1819-4.7899 5.0254-10.687 5.3084-17.379 0.41979-9.92-3.401-15.832-6.1591-15.986m-3.953 38c-2.2232 0.40661-5.013 0.35069-6.4716-0.0119-2.3765-0.59019-2.4127-2.4265-0.75928-3.3299 0.63953-0.34806 0.80732-0.70335 0.37964-2.5075-1.2455-5.2505-1.8219-14.38-0.97443-19.107 1.8522-10.334 6.8986-14.531 11.816-14.317 4.3497 0.19078 8.1652 7.3401 7.7474 17.377-0.27042 6.4861-2.4489 12.848-5.8946 17.965-1.3639 2.0272-2.7844 3.372-5.8433 3.9319"/>
   <path d="m82.389 183.63c-3.1667-2.2252-8.2145-3.2437-11.919-2.4265l0.23554-0.98496c3.9734-0.85074 8.9988 0.25725 12.222 2.6752z"/>
   <path d="m71.186 185.95c-3.3733-1.2541-2.9516-3.1615-1.4765-4.7688 0.45464-0.49544 0.3757-1.0258-0.03422-1.9798-3.2575-7.5777-4.153-21.275-0.97377-29.907 0.45597-1.2389 1.1001-1.0113 0.76849 0.26384-2.291 8.8159-1.2613 22.603 1.3238 29.251 0.49017 1.2606 0.55268 2.1673-0.29278 3.0897-1.231 1.3435-1.0988 2.2384 1.083 2.97 2.139 0.71915 7.9139 1.2435 10.392-1.8284 7.1263-8.8343 7.8428-28.055 4.0425-33.422-0.80927-1.1429-0.25922-1.5633 0.63888-0.50203 4.9222 5.811 3.7767 26.78-3.7635 34.864-3.2957 3.5325-10.027 2.595-11.708 1.9692"/>
  </g>
 </g>
</svg>
