<?xml version="1.0" encoding="UTF-8"?>
<!-- Created with Inkscape (http://www.inkscape.org/) -->
<svg version="1.1" viewBox="0 0 220.91 277.51" xmlns="http://www.w3.org/2000/svg">
 <g transform="translate(17.036 -15.244)" stroke-width="2.9616">
  <g fill="#005e96">
   <path class="st17" d="m78.421 250.5c-10.662 11.846-21.027 31.985-17.77 35.539 6.2194 7.1079 33.466 6.2194 36.724 1.1846 1.777-2.6654 3.85-17.473 2.073-27.247l-9.7732-9.181z"/>
   <path class="st17" d="m131.14 259.97c1.777 3.5539 13.031 23.693 20.435 25.174 8.8848 1.4807 21.027-1.1847 26.654-5.3309 4.7385-3.5539 5.6271-6.2194-0.59214-11.254-7.7001-6.5155-18.954-11.846-28.431-15.993h-11.846z"/>
   <path class="st17" d="m72.201 245.46c-38.205-3.2578-84.406-14.512-87.367-21.324-2.9616-7.1078 21.916-22.804 30.504-24.285 6.8117-1.4809 34.354 15.104 47.089 27.543l6.5156 7.9964z"/>
  </g>
  <path class="st18" d="m158.98 178.23c13.92-0.88876 21.324-11.254 21.324-18.658 0-4.4424-2.3693-8.8848-8.2924-8.5887 0 0-2.6655 2.3694-5.0348 2.9616-6.2193-8.2924-22.212-6.5155-26.358 10.07-0.88876 0.2966-9.181 0-12.735-0.59214 0.88874-6.8117-4.4424-15.104-14.512-16.585-9.181-1.1846-17.177 3.8501-19.547 11.55-8.2925-13.031-25.766-18.362-34.058-10.662-6.8117 6.2193-0.88875 19.843 9.477 27.247-5.6269 10.958-9.7732 25.47-9.7732 42.647 0 23.1 21.62 45.609 54.197 45.609 33.17 0 53.605-14.512 53.901-46.497 0.59214-10.958-2.9616-23.693-8.5886-38.501z" fill="#60c0bd"/>
  <path class="st17" d="m197.48 77.538c1.4808-7.1078 2.3693-24.877-0.59213-29.32-2.6655-4.1463-16.289-11.254-26.358-12.143z" fill="#005e96"/>
  <path class="st19" d="m121.07 16.825c-54.493-2.3693-85.886 40.87-83.221 82.036 1.1846 19.843 9.7733 36.724 23.1 47.978 8.5886-6.2193 24.877-1.1846 32.874 11.55 2.6654-7.7002 10.366-12.735 19.547-11.55 10.069 1.1847 15.4 9.7733 14.512 16.585l12.735 0.59215c3.8501-16.585 19.843-18.362 26.358-10.069 13.031-6.8117 23.1-17.473 29.024-31.097 20.139-48.57-18.066-103.36-74.928-106.03z" enable-background="new" fill="#fff"/>
  <path class="st20" d="m161.94 213.77c-0.59217 3.5539-10.366 9.7732-19.843 12.735 0 0 3.5539 5.0347 3.2578 6.2193-1.7769 3.8501-20.731 4.4424-23.1 0.88879-0.59216-1.1847 4.4424-6.8118 4.7385-7.1078-14.216-4.1463-24.877-10.366-23.989-13.92 1.4809-8.5886 15.4-22.212 34.947-20.435 13.623 1.1846 25.174 14.512 23.989 21.62z" fill="#fbd375"/>
  <g fill="#d9b766">
   <path class="st21" d="m118.99 216.44c0-1.1846 10.662-1.777 12.735-10.069 0.59214-2.0732-4.7385-7.1079-11.254-11.55-10.07 4.1463-16.289 12.143-17.474 18.066-0.59212 3.5539 9.181 9.4772 23.1 13.623l1.4809-0.88873c-5.3309-3.2578-8.5887-5.9232-8.5887-9.181z"/>
   <path class="st21" d="m123.44 230.95c-0.88874 1.1846-1.4808 2.3693-1.1846 2.6655 2.3692 3.5539 21.027 2.9616 23.1-0.88875 0.29664-0.29663 0-1.1846-0.59213-2.0731-6.5155 2.0731-16.289 2.3693-21.324 0.29661z"/>
   <path class="st21" d="m143.87 193.34c-1.777 1.1847-2.6654 2.3693-2.3692 3.8501 1.1846 5.0347 13.327 12.143 13.327 15.993 0 3.8501-6.5155 11.254-12.735 13.327 9.4771-2.9617 19.25-9.181 19.843-12.735 0.88874-6.2194-7.1079-16.585-18.066-20.435z"/>
  </g>
  <path class="st17" d="m34.589 41.999c-4.4424 7.404-0.29616 31.985 5.9232 34.355 6.2193 2.3693 17.177-2.6654 24.285-14.808 5.9232-10.069 6.5155-25.47 1.4808-27.543-6.2193-2.9616-26.654 0.29663-31.689 7.9963z" fill="#005e96"/>
  <path class="st22" d="m147.13 74.576c-13.327-0.88876-24.877 6.5155-24.877 16.585 0 9.7732 11.846 16.585 25.173 15.993 11.846-0.59213 20.139-8.2925 19.843-16.289 0-8.5886-8.5886-15.4-20.139-16.289z" fill="#865b15"/>
  <path class="st23" d="m166.08 232.73c-10.662 11.55-23.1 15.696-47.386 16.585-23.397 0.88876-56.863-18.362-59.232-33.466 0 0-2.6655 26.95 24.581 40.278 27.247 13.327 50.643 4.7385 60.417 0.88876 15.696-6.5155 21.62-24.285 21.62-24.285z" fill="#52a7a5"/>
  <g fill="#004c7e">
   <path class="st24" d="m62.132 234.21c-33.466 0-67.821-7.9963-77.298-13.031 0 0-3.8501 5.0347 13.031 10.366 16.881 5.3309 43.535 11.55 72.263 14.216z"/>
   <path class="st24" d="m67.463 264.41s21.62-1.4808 32.578 8.8848c0 0 0.88876-7.7001-0.29662-10.662 0 0-14.512-4.1462-22.804-10.366z"/>
   <path class="st24" d="m161.64 258.2s-14.512 0.88878-24.877 12.439l-3.85-8.5886s11.846-2.3693 19.547-9.181z"/>
   <path class="st24" d="m62.428 65.988c-13.327 0-28.135-13.327-29.32-20.731 0 0-1.777 10.069 0.29619 16.881 2.3693 6.8116 2.3693 17.177 15.104 14.216 10.069-3.2577 13.92-10.366 13.92-10.366z"/>
   <path class="st24" d="m197.18 48.514c0 2.9616-5.0347 7.7001-6.8116 8.8848l7.9964 15.696s1.1846-9.4772 0.88876-15.4z"/>
  </g>
  <g fill="#dbdcdc">
   <path class="st25" d="m190.07 134.7s-7.1078 7.9964-29.616 13.92c0 0 4.7385 1.777 6.5155 5.0348 0 0 12.735-7.1078 17.77-12.735z"/>
   <path class="st25" d="m148.31 151.28c-4.1462 0.59214-8.5886 1.1846-13.327 1.777-2.9616 0.29662-6.2193 0.29662-9.1808 0.59213 0 0 2.9616 4.4423 2.073 9.477 0 0 0.59212 1.4808 5.3309 1.4808 4.4424 0 7.1078-0.29664 7.7002-1.1846 0.59214-0.88879 2.9616-9.181 6.5155-10.958z"/>
   <path class="st25" d="m98.263 150.69c-6.5155-1.4808-12.439-3.2577-17.77-5.3309 0 0 9.7733 5.9232 13.327 12.439z"/>
   <path class="st25" d="m76.348 143.88c-20.139-8.5886-31.985-20.139-33.762-23.693 0 0-0.29619 9.7733 17.77 26.654 0 0 2.9617-2.6654 6.8118-2.9616 3.85-0.29665 9.1808 0 9.1808 0z"/>
  </g>
  <path class="st26" d="m123.44 96.788c2.0732 3.2577 9.181 8.8848 18.658 9.7732 11.846 0.88879 21.916-2.6653 23.989-10.662-11.846 10.366-29.616 8.2924-42.647 0.88877z" fill="#6a4504"/>
  <g fill="#0f141b">
   <path class="st27" d="m76.348 251.09c-10.366 11.55-21.916 30.208-17.473 35.539 3.8501 4.7385 15.993 6.8117 25.47 5.9231 3.2578-0.29661 12.143-1.1846 14.216-4.4424 2.0731-3.2577 3.5539-16.881 1.777-26.358 0-0.59213-2.3693-0.29665-2.0732 0.29664 1.777 9.7732-0.59211 21.916-2.0731 24.285-0.88876 1.1846-4.7385 2.6654-11.55 3.2578-9.181 0.59214-20.139-0.59212-23.693-4.4424-2.0731-2.3693 5.6271-20.139 16.585-32.578 0.88878-0.59215-0.5921-2.0731-1.1847-1.4808z"/>
   <path class="st27" d="m75.459 273c-4.4424 5.627-6.5155 13.92-6.5155 16.585 0 0.59215 2.6654 0.88874 2.6654 0.29663 0.29664-2.9616 1.777-11.254 5.3309-16.289 1.1846-1.777 0-2.6654-1.4808-0.59216z"/>
   <path class="st27" d="m86.713 275.67c-3.2578 5.9232-4.4424 11.846-5.0348 15.104 0 0.59211 2.6655 0.88876 2.6655 0.29662 0.59214-3.2578 1.4808-9.181 3.5539-14.512 1.1846-2.6654 0.29661-3.2577-1.1846-0.88874z"/>
   <path class="st27" d="m151.87 254.35c7.9962 3.8501 17.177 7.9962 24.877 14.512 2.6654 2.3692 4.1463 4.1461 4.1463 5.627 0 1.1846-1.1847 2.3692-3.2578 4.1461-5.3309 3.8501-17.177 6.8116-25.766 5.0347-6.5155-1.1846-15.696-16.881-18.362-22.212-0.29663-0.59211-2.0731 0.29662-2.0731 0.88876 0 0.29662 10.366 22.508 19.25 24.285 9.477 1.777 22.804-1.4808 28.727-5.6271 2.0732-1.4808 4.1463-3.8501 4.4425-6.2194 0-2.073-1.1846-5.0347-4.7385-7.9962-7.7002-6.8116-17.177-10.662-25.47-14.512-0.88877 0-2.3693 1.7769-1.777 2.0731z"/>
   <path class="st27" d="m150.98 271.52c2.6655 2.6655 10.069 10.958 10.366 13.327 0 0.59212 2.9616 0.2966 2.9616-0.29662-0.59213-3.2578-9.7733-12.439-12.439-14.216-1.777-1.1846-2.3693-0.29661-0.88873 1.1846z"/>
   <path class="st27" d="m163.12 268.86c4.4423 3.2577 10.662 8.8848 12.143 11.846 0.29663 0.5921 2.6654-0.88878 2.3692-1.4808-1.777-3.8501-9.4771-9.181-13.623-11.55-1.7769-1.1846-2.3693 0-0.88875 1.1848z"/>
   <path class="st27" d="m15.043 198.67c-10.662 1.777-26.654 12.439-31.097 20.731-1.1846 1.777-1.1846 4.1462-0.59236 5.627 3.2578 7.7002 47.978 20.139 86.479 21.62 0.59212 0 0-2.6654-0.59215-2.6654-38.501-3.2578-80.852-14.512-83.221-20.435-0.29618-0.88873 0-1.777 0.59236-2.9615 3.8501-7.1078 21.916-18.362 29.024-19.843 5.9232-1.1846 31.689 13.92 43.239 25.174 0.59212 0.59214 2.0731-1.1846 1.7769-1.777-11.846-13.327-37.612-26.951-45.609-25.47z"/>
   <path class="st27" d="m172.01 37.26c8.8848 1.1846 21.323 7.7002 23.693 11.55 2.0731 3.2577 2.0731 13.919 1.1847 21.916-0.29665 2.6655 2.6654 5.9232 2.9615 5.0347 1.1846-7.9963 0.88879-23.693-2.0731-28.135-2.9616-4.7385-17.473-12.735-26.654-13.92z"/>
   <path class="st27" d="m67.167 34.595c11.254-9.181 28.727-17.474 53.605-16.289 27.839 1.1846 53.013 15.696 67.524 38.501 13.031 20.435 15.104 44.424 6.2194 65.747-5.3309 13.031-15.4 23.693-28.431 30.504-1.1846 0.59213 0.29661 2.9616 1.4808 2.3693 13.92-7.1078 25.174-18.362 30.801-31.985 9.181-22.212 6.8116-46.793-6.5156-67.821-14.808-23.397-42.351-39.093-71.078-40.278-25.766-1.1846-45.312 8.2925-57.455 17.77z"/>
   <path class="st27" d="m40.809 76.649c-1.777 7.1078-2.3693 14.808-2.0731 22.212 1.1846 19.547 9.4771 36.132 22.508 47.089 0.88875 0.59213-0.88875 2.9616-2.0731 1.777-14.216-11.254-23.693-28.431-24.877-48.866-0.59235-8.5886 0.29618-17.177 2.6654-25.47z"/>
   <path class="st27" d="m33.701 41.11c-3.2578 5.3309-2.9616 18.954 0 27.839 1.1846 3.2578 3.5539 7.404 6.2193 8.5886 6.8117 2.3693 19.25-2.3692 26.654-15.4 4.4423-7.404 5.6271-18.954 3.5539-25.47-0.59212-2.073-2.0731-3.5539-3.5539-4.1462-7.1078-3.2577-26.358-1.777-32.874 8.5886zm7.404 33.762c-1.4808-0.59215-2.9616-2.9616-4.4424-6.8117-2.9616-8.2925-3.8501-21.027-0.88843-25.47 4.4424-7.1078 24.581-10.069 29.912-7.7002 1.1847 0.59214 1.777 1.7769 2.0731 2.6655 1.777 5.0347 0.59214 15.696-3.85 23.1-6.8118 11.55-17.177 16.289-22.804 14.216z"/>
   <path class="st27" d="m82.863 87.015c-1.1847 9.7733 2.9615 18.066 9.477 18.658 6.2194 0.88878 11.846-7.1078 12.735-15.993 0.88875-11.55-2.6654-20.731-8.8848-21.027-6.8117-0.29659-12.143 7.404-13.327 18.362z"/>
  </g>
  <path class="st2" d="m90.267 75.761c-0.29665 3.5539 1.777 6.2194 4.1461 6.5156 2.9617 0.29662 5.3309-2.3693 5.6271-5.3309 0.29662-3.2577-1.4808-6.5156-4.1463-6.8117-2.3692-0.59213-5.0347 2.3692-5.6269 5.627z" fill="#fff"/>
  <path class="st27" d="m181.78 71.022c-5.627 0.88874-7.1078 9.4771-6.2193 18.658 0.88874 8.2924 4.1462 15.104 8.8848 15.104 5.0347 0 7.4039-7.7002 7.4039-14.512 0-10.958-4.4423-20.139-10.069-19.25z" fill="#0f141b"/>
  <path class="st2" d="m182.08 71.911c-2.0731 0.29662-3.8501 2.6654-3.5539 5.9231 0.29663 3.2577 2.3693 5.3309 4.7385 5.0347 2.0731-0.29551 3.5539-2.9616 3.2577-5.6269-0.2955-2.9617-2.3692-5.3309-4.4423-5.3309z" fill="#fff"/>
  <g fill="#0f141b">
   <path class="st27" d="m76.94 112.48c0 0.88875 0.88877 1.4808 1.7769 1.4808 0.59216 0 1.4808-0.88875 1.4808-1.4808 0-0.88877-0.88874-1.4808-1.7769-1.4808-0.88876 0-1.4808 0.5921-1.4808 1.4808z"/>
   <path class="st27" d="m101.52 113.97c0.59215 0 1.4808 0.59214 1.4808 1.4808 0 0.5921-0.59212 1.1846-1.1846 1.4807-0.88876 0-1.4808-0.59212-1.4808-1.4807 0-0.88879 0.88874-1.1846 1.1846-1.4808z"/>
   <path class="st27" d="m89.971 126.7c0.59213 0 1.4808 0.59214 1.4808 1.1846 0 0.88877-0.29661 1.4808-1.1846 1.4808-0.59217 0-1.4809-0.59215-1.4809-1.4808 0-0.29663 0.29665-1.1846 1.1847-1.1846z"/>
   <path class="st27" d="m183.56 124.33c0.59216 0 1.1846 0.59215 1.1846 1.4808 0 0.88878-0.29551 1.4808-0.88874 1.4808-0.59217 0-1.1846-0.59213-1.1846-1.4808 0-0.88874 0.59216-1.4808 0.88875-1.4808z"/>
   <path class="st27" d="m178.82 113.08c0.59211 0 1.1846 0.59214 1.4808 1.4809 0 0.88875-0.59215 1.4808-0.88874 1.4808-0.88878 0-1.1846-0.88878-1.4808-1.4808-0.29662-0.59214 0-1.4809 0.88878-1.4809z"/>
   <path class="st27" d="m190.67 109.52c0.59214 0 1.1846 0.59214 1.4808 1.4809 0 0.88874-0.59213 1.4808-0.88878 1.4808-0.88874 0-1.1847-0.88877-1.4808-1.4808-0.29661-0.29665 0.29664-1.1847 0.88877-1.4809z"/>
   <path class="st27" d="m168.45 118.41c-5.3309 7.1078-14.216 12.143-25.47 12.439-11.254 0.29663-21.027-3.85-26.951-10.958-1.4808-2.0731-2.6654-1.1847-1.4808 1.1846 5.0347 7.9963 15.993 13.327 28.431 12.735 12.143-0.29663 22.212-6.5156 26.951-14.512 1.1846-1.777-0.29665-2.6655-1.4808-0.88875z"/>
   <path class="st27" d="m140.02 73.095c-5.627 0.88874-10.366 2.9616-13.92 6.5155-3.2577 3.2577-5.0347 7.7002-4.7385 11.55 0 3.8501 1.4808 7.7001 4.4424 10.662 5.0347 4.7385 13.327 7.9963 21.62 7.404 13.327-0.88875 21.324-9.181 21.324-18.066 0-7.1078-5.6269-13.919-13.92-16.585-5.0347-2.0731-10.069-2.3693-14.808-1.4808zm-12.143 26.654c-2.6654-2.3693-4.1462-5.627-4.1462-8.5886 0-3.2578 1.4808-6.5156 4.1462-9.181 4.4424-4.1463 11.55-6.5155 19.25-6.2194 10.662 0.59213 18.954 7.1078 19.25 15.104 0 6.8117-7.404 14.512-18.954 15.104-7.7001 0.29663-15.104-2.073-19.547-6.2193z"/>
   <path class="st27" d="m169.34 156.32c-1.4808-5.9232-7.1078-10.069-13.327-9.7732-5.9233 0.59217-13.623 4.1462-15.993 16.289-1.4809 0.29665-7.1078 0-10.366-0.29663 0.88878-7.9964-5.0347-16.585-15.4-18.066-8.5886-1.1847-16.881 3.2577-20.139 11.254-5.0347-7.4039-13.031-13.031-21.027-13.919-7.1078-0.88876-18.362 2.9616-18.066 13.919 0 7.404 4.7386 14.808 13.92 20.139 0.59215 0.29662 1.777-1.7769 1.1846-2.0731-6.5155-4.4423-11.55-12.439-11.55-18.066 0.29661-7.7001 8.5887-10.958 14.512-10.069 7.7002 1.1846 15.696 6.2194 20.139 13.327 0.88878 1.1846 1.4808 1.1846 2.0731-0.29664 2.3692-7.404 10.069-11.846 18.362-10.958 8.5887 1.1846 13.623 7.7002 13.623 13.623 0 2.3693 0.59213 2.9616 1.4808 3.2577 3.2577 1.4809 10.958 0.88877 12.439 0.29662 0.29663 0 0.88877 0 1.4808-2.3692 2.6655-8.8848 8.5886-12.439 13.623-12.735 5.0348-0.29665 9.181 2.0731 11.846 6.5155 0.59216 2.3693 1.4808 2.3693 1.1846 0z"/>
   <path class="st27" d="m171.71 150.39c-0.59216 0-0.29665 1.777 0.29659 1.777 2.073 0 3.5539 0.59212 5.0347 1.7769 1.4808 1.4809 2.0731 3.554 2.0731 5.9232 0 7.1078-8.2926 15.696-19.547 17.473-0.59212 0 0 2.3694 0.59214 2.3694 12.439-0.88877 22.212-11.846 22.212-19.843 0-5.627-3.5539-10.662-10.662-9.4771z"/>
   <path class="st27" d="m70.721 171.12c-5.6271 7.404-13.623 25.47-13.623 46.793 0 22.508 22.508 47.089 56.863 47.089 35.835 0 55.974-17.177 56.27-48.274 0-10.069-2.9617-23.1-10.07-39.093-0.88876-2.0731-3.2578-1.1846-2.3692 0.88877 6.2193 15.993 9.1808 28.135 8.8848 37.908-0.29659 29.616-18.658 45.312-52.717 45.312-32.874 0-53.013-23.1-53.013-44.424 0-21.027 6.2194-36.132 11.55-45.016 1.1846-2.3693 0-3.5539-1.777-1.1846z"/>
   <path class="st27" d="m102.11 209.63c-0.88876 2.3693-1.1846 4.4424 1.1846 7.1078 3.8501 3.8501 11.846 8.5886 21.324 10.366-1.4808 1.777-4.4423 5.0347-3.5539 7.1078 1.1847 3.2578 10.07 3.2578 14.512 2.6655 4.1463-0.59217 9.7733-2.0732 10.366-3.8501 0.59216-1.777-0.88876-4.1463-2.3692-6.2194 5.9231-1.777 11.55-4.7385 15.4-7.9962 4.4423-3.5539 4.1463-6.8116 2.9616-10.662-0.59217-2.0731-1.777-4.1462-2.9616-5.627-4.1463-5.3309-11.846-11.846-21.323-12.735-17.177-1.1846-31.689 10.366-35.539 19.843zm25.766 18.066c1.1847-0.88875 1.1847-1.4808-0.29552-2.0731-15.697-4.4423-23.397-10.366-23.397-12.439 1.4808-7.7002 14.216-21.324 33.762-19.547 8.5886 0.88875 15.696 6.2194 19.547 11.254 2.3692 2.9616 3.554 5.9231 3.554 8.2924v0.88874c-0.59216 2.6654-9.181 8.5886-18.954 11.846-1.1846 0.29661-1.1846 0.88875-0.59215 1.777 1.4808 2.0731 3.2577 4.7385 3.2577 5.3309-0.29663 0.59212-4.1463 1.777-8.8848 2.0731-5.9232 0.29661-11.846-0.59213-12.143-1.1847-0.59212-1.1846 3.2578-5.6269 4.1462-6.2193z"/>
   <path class="st27" d="m120.77 194.82c4.4425 6.5156 5.0348 17.77 2.3694 29.616-0.29664 0.59213 1.777 0.88877 1.777 0.29662 2.0732-6.2194 4.1463-21.027-2.6654-31.097-0.29662-0.29665-2.0731 0.5921-1.4809 1.1846z"/>
   <path class="st27" d="m144.17 194.52c5.9232 5.9231 4.4424 24.877-0.88877 31.097-0.29661 0.59214 1.4808 0.88879 1.7769 0.29665 5.9231-6.8117 7.404-25.47 0.59217-32.281-0.29665-0.59217-2.073 0.29659-1.4808 0.88875z"/>
  </g>
  <path class="st19" d="m165.79 205.48c-11.846 0.59211-23.1-4.4424-23.989-10.366-1.777-9.181 15.104-18.066 25.173-18.658 7.9964-0.59213 14.512 9.7732 12.439 18.362-1.7769 6.5156-6.8116 10.366-13.623 10.662z" enable-background="new" fill="#fff"/>
  <path class="st25" d="m179.12 197.48c-11.254 7.404-33.762 0.88878-37.02-2.3693 0 0 0.88875 7.7002 10.07 9.181 9.181 1.4808 17.77 4.7385 23.989-1.7769z" fill="#dbdcdc"/>
  <path class="st27" d="m166.68 174.68c-7.404 0.59213-17.77 4.7385-23.1 11.254-2.3693 2.9617-3.5539 6.5156-2.9617 9.181 0.88876 5.6271 9.181 10.958 19.25 11.846 3.8501 0.29664 10.662 0.88878 15.4-2.6655 2.6654-2.0731 5.3309-5.627 5.9231-9.4771 0.88876-5.0347-0.29551-10.662-3.5539-14.808-2.9616-3.2577-7.4039-5.627-10.958-5.3309zm-23.989 20.139c-0.29664-2.073 0.29661-4.1462 2.0731-6.5155 4.7385-5.9232 15.104-10.366 21.916-10.662 2.9616-0.2966 5.627 1.1846 7.9962 3.8501 2.3693 2.6654 4.1463 7.9963 3.2578 12.735-1.1846 6.2193-5.9231 9.477-12.439 9.7732-10.662 0.59211-21.62-3.8501-22.804-9.181z" fill="#0f141b"/>
  <path class="st19" d="m76.348 199.56c11.55 11.55 49.459 15.696 55.086 5.6271 4.1463-7.404-12.735-21.916-26.654-27.247-5.9231-2.3693-10.662-3.5539-14.512-3.8501-19.547-0.59213-20.139 19.25-13.92 25.47z" enable-background="new" fill="#fff"/>
  <path class="st25" d="m73.386 186.52c0 6.2194 12.439 15.696 28.135 18.066 15.696 2.3693 24.285 1.4808 30.801 0 0 0-1.4808 7.404-20.435 7.404-18.954 0-30.504-7.404-35.835-11.55-5.3309-4.1462-2.6655-13.919-2.6655-13.919z" fill="#dbdcdc"/>
  <path class="st27" d="m72.498 182.08c-2.6655 5.6269-3.8501 16.289 8.8848 23.693 10.069 5.9232 24.877 7.9964 38.205 6.2194 14.216-1.777 14.216-9.181 12.735-13.327-2.9616-8.2924-15.993-18.954-26.654-23.1-6.5155-2.6654-11.55-3.2578-15.104-3.5539-11.254 0-15.993 5.627-18.066 10.07zm10.662 21.027c-9.7733-5.0347-10.366-13.92-7.9964-19.843 2.3693-5.3309 7.7002-7.9964 15.104-7.7002 3.5539 0 7.7001 0.88874 13.919 3.5539 11.254 4.4424 23.397 14.216 25.766 21.324 0.59213 1.777 0.59213 3.2578 0 4.4424-1.1846 2.3692-4.7385 4.1462-10.069 4.7385-10.366 1.1846-26.654-1.1846-36.724-6.5155z" fill="#0f141b"/>
 </g>
</svg>
