<?xml version="1.0" encoding="UTF-8"?>
<!-- Created with Inkscape (http://www.inkscape.org/) -->
<svg version="1.1" viewBox="0 0 86.13 101.83" xmlns="http://www.w3.org/2000/svg">
 <g transform="translate(-2.3853 -2.7577)">
  <g fill="#fff3c3">
   <path d="m15.44 36.709c0.34686 6.7683 6.5227 13.323 15.81 14.215 0 0 2.1645 1.8999 5.7992 1.7125 3.6357-0.1855 6.4295-2.8847 6.4295-2.8847s3.0867-0.28487 6.324-2.5028c5.3231-3.6489 7.3418-7.975 7.0768-13.1-0.62653-12.251-13.252-16.762-21.687-16.328-10.1 0.51864-20.339 7.488-19.753 18.888"/>
   <path d="m15.81 47.221c1.3515 4.6819 4.3024 7.4033 8.3852 7.1932 0.66817-0.0331 4.7804-1.0004 5.316-1.4452 0.53661-0.44624 0.97196-1.2223 1.7357-1.5687 0.86928-0.39513 2.6798 2.1398 0.58203 4.8007-1.8043 2.2889-5.6733 3.9792-8.2797 4.1131-6.667 0.3426-11.862-5.4433-13.303-10.49-0.47131-1.6496 5.263-3.648 5.5635-2.6031"/>
   <path d="m47.965 48.182c0.83853 0.26878 1.8422 0.78553 2.6306 0.61896 2.5861-0.54561 5.2706-2.216 7.0891-4.1486 1.1669-1.2379 2.5482-2.9968 2.6438-5.0794 0.0885-1.916 5.4343-1.3193 5.5682 0.18834 0.19828 2.2444-1.1991 5.1154-3.0489 6.9718-4.1917 4.2078-8.7345 6.0921-13.048 5.3619-0.50728-0.08423-3.179-0.98191-3.0285-2.4129 0.14859-1.4333 0.78317-1.633 1.1934-1.5001"/>
   <path d="m31.483 60.912c0.7666 8.902 6.1881 13.646 11.538 13.373 2.9098-0.14953 5.5919-1.6288 6.5847-2.5728 0 0-0.34166-1.7703-0.48457-4.5551-0.14385-2.7863 0.37195-9.0705 0.90194-10.715 0.52952-1.6477 0.76375-2.552 0.76375-2.552s-0.50491-1.0931-0.9871-1.7949c-0.48315-0.70129-1.1939-3.6811-1.5294-3.6636-0.33361 0.01704-1.3136 0.51485-1.9761 0.66107-0.66297 0.1448-2.8156 0.6606-2.8156 0.6606s-2.1701 2.3315-5.1665 2.7091c-2.9978 0.37715-6.315-1.1281-6.315-1.1281s0.22383 2.7257 0.0284 3.797c-0.19637 1.0704-0.67999 4.1676-0.54229 5.7812"/>
   <path d="m40.733 74.04c0.0146 1.2256 1.0434 5.0842 2.6282 6.5946l-3.5803 7.5013s3.1076-1.4726 5.4878-0.81203c2.3807 0.65871 3.7218 1.2336 4.3469 3.073 0 0 0.59293-2.6008 0.45097-5.3591-0.14055-2.7574-0.34166-3.9466-1.1111-4.2437-0.76991-0.29576-1.7849-0.4945-2.1233-1.0907-0.3374-0.59766-1.4248-3.2808-1.5512-4.1103-0.12636-0.83049-0.0601-0.61045-0.1344-1.5299-0.0753-0.91756-4.4335-1.475-4.4136-0.0232"/>
   <path d="m58.476 72.568c2.8165 1.802 5.299 2.1171 7.8094 1.9884 6.049-0.31186 9.7571-3.8003 12.359-8.1752 1.9543-3.2845 3.7128-7.9144 3.8491-10.714 0.0204-0.41974 1.7972-0.88869 2.5629-0.67669 0.76471 0.21152 1.9506 1.2819 1.8062 1.7504-0.14289 0.46847-2.1171 7.7336-4.8854 11.731-4.7468 6.8497-10.394 9.4145-14.922 9.6478-5.3482 0.27446-9.3454-2.4952-9.3454-2.4952z"/>
  </g>
  <path d="m39.709 88.391c-0.41027 0.34544-2.2217 2.9637-2.9164 3.5576-0.69657 0.59483-4.6796 3.5363-4.5064 6.9065 0.17318 3.3697 2.8213 4.3516 3.6465 4.1136 0 0 1.2067 1.1953 2.4877 1.1286 1.2834-0.0653 1.6548-0.41974 1.6548-0.41974s0.67384 0.60713 1.4253 0.56832c0.75287-0.0369 4.3256-2.2449 6.2019-7.3281 1.8753-5.0804 1.8753-6.7158 1.8753-6.7158s-0.51438-1.8578-3.2793-2.6798c-2.7654-0.82102-5.8791 0.27494-6.5894 0.86881" fill="#cc5d00"/>
  <path d="m82.566 55.455s0.44528-2.7465 0.27256-6.0902c-0.30806-6.0164-2.4398-8.3786-2.4398-8.3786s-0.41643 1.6969-3.3408 1.8465c-4.1974 0.21626-6.0547-2.8847-6.2497-6.6765-0.21105-4.1297 3.2287-7.7895 6.9212-7.9792 5.0766-0.26074 9.7362 6.0419 10.192 14.895 0.0805 1.5871 0.52479 6.9685-1.0804 13.252 0 0-0.72541-1.0931-1.7849-1.3326-1.059-0.2385-2.49 0.46374-2.49 0.46374" fill="#cc5d00"/>
  <path d="m19.109 25.518s-0.70367-2.2823-0.71644-4.1519c-0.0217-3.3527 0.19733-5.3809 1.6439-6.0892 0.78459-0.38566 4.2698 1.8678 5.2105 5.2342 0 0-1.766 0.95635-3.1099 1.9747-1.3439 1.0188-3.028 3.0323-3.028 3.0323" fill="#f2973a"/>
  <path d="m45.55 19.385c3.2188-3.2543 6.4815-4.9322 7.5368-4.4368 1.1977 0.56123 1.6397 4.5111-0.54229 9.0194 0 0-2.4588-2.2184-3.6929-2.853-1.2337-0.63504-3.3016-1.7296-3.3016-1.7296" fill="#f2973a"/>
  <path d="m16.294 30.243s-1.0619-3.5481-1.2275-6.7655c-0.37999-7.4057 0.64545-11.938 3.4468-12.83 1.262-0.4027 4.1926 0.93269 5.8858 2.8407 1.0661 1.2015 2.5336 2.844 4.2712 5.6875l-3.4232 1.3349c-1.112-2.0939-3.117-5.7897-5.2105-5.2346-2.0944 0.5546-1.7864 7.6324-1.0647 10.277 0 0-0.97954 1.0553-1.616 2.2605-0.63599 1.2057-1.0619 2.429-1.0619 2.429" fill="#0f141b"/>
  <path d="m42.799 18.548 0.35539-1.2469s2.694-3.0148 4.6166-4.1756c3.8065-2.2955 6.8407-3.2405 8.3502-2.747 0.36864 0.12161 1.8271 1.3321 1.6174 5.9511-0.2087 4.619-1.3505 9.5924-2.5852 11.666 0 0-0.93315-1.8786-1.3273-2.4725-0.39371-0.59482-1.2469-1.4452-1.2469-1.4452s1.0425-2.5388 1.378-4.1481c0.33692-1.6089 0.0597-4.2759-0.78458-4.9588-0.84468-0.68331-3.2779 0.89436-4.7335 1.9184-1.4551 1.025-2.7404 2.6547-2.7404 2.6547z" fill="#0f141b"/>
  <g fill="#fff">
   <path d="m20.222 34.942c-0.26594-5.1793 2.7347-7.9324 4.8234-8.0389 2.5605-0.13155 4.9502 3.4024 5.1911 8.0701 0.13011 2.5435-2.1001 4.7586-4.7766 4.8953-3.1572 0.16136-5.1334-2.8866-5.2379-4.9266"/>
   <path d="m46.869 26.034c2.6405-0.13628 5.5233 3.1265 5.7249 7.0366 0.1803 3.5235-2.2468 6.3164-5.157 6.4664-2.1962 0.11309-5.0056-2.0263-5.14-4.6374-0.27872-5.4528 2.578-8.7643 4.5721-8.8656"/>
   <path d="m28.599 42.662s1.0008 1.5403 1.3756 1.5005c0.37478-0.04023 1.0766-1.8782 1.0766-1.8782z"/>
   <path d="m41.669 42.22s0.35443 1.6165 0.90715 1.7551c0.55081 0.13912 1.2952-1.281 1.2952-1.281z"/>
  </g>
  <path d="m30.56 46.184-0.89484-1.9231s0.45334-0.14811 0.6871-0.49687c0.23424-0.34639 0.69941-1.4802 0.69941-1.4802s2.0343-0.75382 2.5785-0.78269c0.54277-0.02698 1.4201-0.07241 1.4201-0.07241s-2.2004 1.2024-2.9533 2.0372c-0.75428 0.83474-1.537 2.7181-1.537 2.7181" fill="#923000"/>
  <path d="m30.596 46.057s0.6043-2.0831 1.9444-2.9074c1.3406-0.82244 3.2117-1.9241 4.2158-1.9331 1.0056-0.01046 4.8281 1.0221 4.8281 1.0221s0.50824 1.7343 0.92939 1.7684c0.42068 0.03454 1.3572-1.3122 1.3572-1.3122s0.32841-0.11547 0.13628 0.48173c-0.9625 2.9803-3.9508 7.073-7.2803 7.2439-0.61281 0.03123-2.9088-0.60429-4.353-2.0949-1.4447-1.4897-1.7778-2.2686-1.7778-2.2686" fill="#ed8599"/>
  <g fill="#fbd6a0">
   <path d="m14.186 48.226c-2.5567 2.8345 1.4452 11.154 9.2664 10.752 3.3224-0.17036 6.7863-1.7017 8.5726-3.8477l-0.28865 1.439s-3.2055 3.4047-8.3872 3.6702c-7.8179 0.40222-12.429-7.1615-13.077-10.473 0 0 1.3922-0.60192 1.6572-0.89484 0.26356-0.29339 0.574-0.78411 0.574-0.78411z"/>
   <path d="m60.963 39.428c0.89672 0.33172 2.4853 4.3142-0.15759 6.7115-3.427 3.1104-7.8259 5.7864-11.189 5.644l0.41027 0.38424s5.4996 1.0586 10.438-3.4133c4.937-4.4695 5.1636-6.0467 5.5096-9.1083 0 0-1.0974 0.39182-1.5564 0.16468-0.45854-0.22809-1.4404-0.84752-1.4404-0.84752s-0.62747 0.2825-0.9308 0.32509c-0.30617 0.04448-1.0836 0.1396-1.0836 0.1396"/>
   <path d="m32.142 63.95c0.97671 4.5414 10.88 9.3837 17.148 4.3157l0.31658 3.4464s-2.7408 2.376-6.5852 2.5728c-3.8443 0.19686-6.8785-1.7845-8.4676-4.1742-1.5886-2.3897-2.4115-6.1607-2.4115-6.1607"/>
   <path d="m32.523 51.781c3.0124 4.204 10.475 4.1496 13.485-2.5359l-2.5298 0.50728s-2.2913 2.6736-6.2198 2.8747c-3.0498 0.15616-4.7354-0.8461-4.7354-0.8461"/>
   <path d="m57.897 74.917c12.154 5.8659 24.143-2.676 28.019-15.684 0 0-0.5139 4.1614-4.6166 10.182-4.1027 6.0202-10.12 8.5064-14.077 8.7108-6.1844 0.31704-9.5134-2.5004-9.5134-2.5004z"/>
  </g>
  <path d="m32.286 98.855c0.1467 0.94215 1.4963 2.7574 2.7981 2.8175l-0.0818-0.79262s1.2691 2.7006 4.4354 1.5322l-0.10785-0.4557s2.5544 1.5871 5.5891-2.1294c3.0342-3.7175 4.1108-7.2495 4.5016-9.4481 0 0 0.0539 3.5164-2.1602 7.7351-2.2132 4.2191-4.8802 6.1153-5.5493 6.1498-0.66912 0.0346-1.6359-0.58632-1.6359-0.58632s-0.70744 0.37195-1.6548 0.41975c-1.8247 0.0951-2.4877-1.1286-2.4877-1.1286s-1.0079 0.47085-2.6069-1.2904c-1.599-1.7604-1.0396-2.8232-1.0396-2.8232" fill="#a74b00"/>
  <path d="m41.079 75.641c0.40932 0.60808 2.8553 0.94311 3.974-0.11978l-0.11643-1.4613s-0.85934 0.38141-1.9155 0.22524c-1.0557-0.15568-2.1455-0.18454-2.1455-0.18454z" fill="#fbd6a0"/>
  <path d="m71.111 37.427c0.0728 1.4144 2.5378 3.7237 5.9359 3.5495 2.8411-0.14622 4.2603-1.8985 4.1917-3.233 0 0 0.36106 4.8565-4.1798 5.0889-3.3702 0.17367-4.5206-1.5687-5.0718-2.4895-0.5494-0.92134-0.8759-2.9159-0.8759-2.9159" fill="#a74b00"/>
  <path d="m81.415 39.02c0.60286 0.86313 2.5364 6.9647 1.8029 12.253 0 0-0.38992-4.3374-1.0766-6.8161-0.68615-2.4782-1.7424-3.471-1.7424-3.471z" fill="#a74b00"/>
  <path d="m39.715 87.969c-0.2437 0.17887-0.18739 1.0477-0.10556 0.91424 0.84751-1.3505 4.7363-1.8365 7.3712-0.83805 1.1792 0.44718 2.5837 1.5209 2.3126 3.1497-0.0255 0.15521 0.49688-0.72306 0.43158-1.0524-0.21957-1.0874-1.1125-1.9671-2.6074-2.5331-2.3287-0.88253-5.811-0.81155-7.4024 0.35964" fill="#cc5d00"/>
  <path d="m82.214 55.731c-0.0895 0.13013 0.35775 0.29481 0.43677 0.15853 0.57778-0.99232 3.4468-0.99327 3.9532 0.7188 0.0449 0.15095 0.36957-0.0374 0.34071-0.19118-0.33693-1.7991-3.4346-2.5601-4.7307-0.68615" fill="#cc5d00"/>
  <g fill="#0f141b">
   <path d="m35.051 17.616c-10.499 0.53851-20.319 7.507-20.071 18.88 0.14385 6.5847 6.6074 14.081 16.417 14.724 0.15615 0.0114-0.22478-0.58536-0.35492-0.59719-8.9763-0.77985-15.12-7.8818-15.257-14.152-0.2896-13.298 12.505-17.778 19.309-18.287 11.444-0.85793 21.759 6.7077 21.479 17.542-0.18739 7.2273-6.8274 12.707-13.024 13.791-0.13387 0.02366-0.47368 0.65113-0.31942 0.62937 6.5345-0.94926 13.911-6.7352 14.109-14.416 0.29432-11.408-9.8924-18.75-22.288-18.114"/>
   <path d="m43.935 48.849c-1.439 2.1063-4.0833 3.3475-6.8913 3.4738-2.6315 0.11878-5.0808-0.75004-6.5492-2.5317-0.80114-0.97197-1.1437-0.69278-0.34071 0.2773 1.5829 1.9217 4.1482 3.064 6.9604 2.9372 2.9855-0.13344 5.6421-1.6747 7.1805-3.9262 0.63883-0.93601 0.27966-1.166-0.35964-0.23045"/>
   <path d="m18.19 10.497c-3.0432 1.0269-5.1248 8.2655-2.1626 20.262 0.0374 0.15332 0.56691-0.92512 0.50491-1.2024-2.4427-10.862-0.54608-17.715 1.8394-18.519 2.305-0.77843 6.3429 2.5596 9.8735 8.1387 0.0554 0.08613 0.91566-0.09654 0.83237-0.23045-3.8278-6.1517-8.213-9.3506-10.888-8.4482"/>
   <path d="m43.147 16.757c-0.10315 0.11972-0.15143 1.2109-0.0492 1.0922 4.5802-5.308 11.365-8.0105 12.964-7.1696 2.1309 1.1225 1.8162 11.127-1.1551 16.987-0.071 0.13865 0.71596 0.25506 0.78742 0.11451 2.7711-5.4684 3.4502-16.123 0.63315-17.605-1.7821-0.93648-8.3479 0.98143-13.181 6.5814"/>
   <path d="m25.617 20.239c-1.6709-3.7975-4.4496-5.6302-5.6865-5.22-1.9823 0.65918-2.5326 5.591-1.2308 10.995 0.0369 0.15237 0.64073-0.77275 0.59293-0.99374-1.1078-5.157-0.58677-8.9929 0.81723-9.4599 0.90288-0.30049 3.3035 1.5218 4.8688 5.1457 0.0313 0.07288 0.68473-0.35917 0.63836-0.46658"/>
   <path d="m45.346 19.199c-0.10369 0.1183 0.45853 0.51485 0.56264 0.39655 2.2894-2.6325 6.1252-5.0207 7.0778-4.407 1.1792 0.76139 1.1721 4.5035-0.72307 8.6573-0.0653 0.14338 0.5371 0.5016 0.60145 0.35869 1.8857-4.1349 2.0334-8.4591 0.43015-9.493-1.5001-0.96818-5.8314 2.0509-7.949 4.4874"/>
   <path d="m20.532 34.562c-0.11831-4.1458 2.2723-7.2245 4.5499-7.2666 2.508-0.04543 5.1007 3.3352 4.8504 8.089-0.11683 2.2525-2.0107 3.982-4.3866 4.1463-2.2141 0.15285-4.9237-1.8006-5.0136-4.9687m-0.54041 0.01467c0.10462 3.7152 2.7053 5.7883 5.5971 5.5886 2.5373-0.17651 4.743-2.0504 4.884-4.7534 0.22714-4.3261-1.8488-9.0288-5.4102-8.8466-2.6963 0.13818-5.2048 3.2912-5.0709 8.0114"/>
   <path d="m25.188 28.165c-0.3038 0.0034-0.67764 1.907-0.5229 5.6061 0.15617 3.7005 0.53142 5.3028 0.87686 5.2767 0.34449-0.0284 0.52148-2.1682 0.48362-5.192-0.0397-3.0224-0.35774-5.6965-0.83758-5.6908"/>
   <path d="m42.543 34.653c-0.16041-4.5243 1.8181-8.0431 4.602-8.1851 2.5302-0.13013 5.3444 3.5401 5.1442 7.3527-0.16184 3.0877-2.1512 5.2233-4.8277 5.3614-2.4687 0.12634-4.8367-2.1839-4.9185-4.5291m-0.54182 0.01988c0.10557 2.9788 2.8449 5.2801 5.4925 5.1428 2.8042-0.14291 5.1447-2.3414 5.3359-5.9676 0.2366-4.5049-2.8203-8.2599-5.7239-8.1103-3.135 0.16089-5.2763 4.0289-5.1045 8.9351"/>
   <path d="m47.063 27.526c-0.50207 0.01988-0.48882 2.4602-0.35679 5.1471 0.17887 3.6659 0.61233 5.6179 0.92417 5.6283 0.31184 0.0095 0.43394-3.2595 0.33882-5.6596-0.0979-2.4777-0.39749-5.1372-0.9062-5.1159"/>
  </g>
  <path d="m47.114 28.705c-0.0672 4.74e-4 -0.19354 0.64451-0.13723 2.085 0.0526 1.3292 0.22287 2.2255 0.33219 2.2331 0.11027 0.0062 0.14575-1.2332 0.11496-2.1928-0.061-1.8394-0.24986-2.1266-0.30995-2.1252" fill="#fff"/>
  <g fill="#0f141b">
   <path d="m25.184 42.25c0.5158 0.66486 1.1825 1.0496 2.2941 0.99184 1.5445-0.07855 5.8053-1.5403 8.4993-1.6789 2.9684-0.1519 5.9184 1.4423 8.125 1.3292 1.1783-0.06105 1.8522-0.3885 2.4096-0.98333 0.42447-0.45333 0.18692-0.61328-0.26547-0.25885-0.37762 0.2986-1.1551 0.57258-2.1734 0.62558-1.352 0.06814-5.1769-1.4315-8.1472-1.2791-2.5255 0.13013-7.3962 1.5526-8.5031 1.6094-0.86029 0.04543-1.5919-0.24323-1.9378-0.62274-0.44765-0.49024-0.72022-0.27257-0.30096 0.26689"/>
   <path d="m30.826 42.079c-0.0975 0.66912-0.64403 1.6274-0.88725 1.8375-0.25128-0.17272-0.85226-0.98238-1.0174-1.3505-0.0653-0.14386-0.58393 0.08991-0.52052 0.23282 0.0657 0.14528 1.0004 1.7646 1.5838 1.7149 0.55555-0.04637 1.3008-1.6463 1.4045-2.3528 0.0223-0.15569-0.5404-0.23708-0.56313-0.08186"/>
   <path d="m41.263 42.192c4e-3 0.0194 0.49972 2.0372 1.2379 2.1351 0.52621 0.0705 1.5829-1.2545 1.6856-1.74 0.0317-0.15379-0.52526-0.27068-0.55697-0.11689-0.0667 0.31563-0.80587 1.1542-1.0685 1.2748-0.15568-0.10032-0.49923-0.78695-0.68898-1.4665-0.0198-0.07192-0.64404-0.23944-0.60903-0.0866"/>
   <path d="m43.906 42.546c-0.81155 3.9503-4.4818 7.4237-7.1417 7.5595-2.1058 0.10837-5.5569-2.3447-6.9642-6.0812-0.0558-0.14717-0.5035-0.02082-0.44766 0.1273 1.5677 4.1642 5.148 6.6405 7.453 6.5218 2.8681-0.14717 6.6661-3.6967 7.56-8.0573 0.0322-0.15379-0.42778-0.22383-0.45949-0.07003"/>
   <path d="m35.599 41.201c-2.2028 0.65681-4.3843 1.942-5.1968 4.4245-0.0345 0.10742 0.42258 0.61233 0.46043 0.45948 0.67007-2.7668 4.539-4.6374 6.297-4.5584 0.15757 0.0075-0.96346-0.50302-1.5606-0.32557"/>
   <path d="m15.543 47.026c0.69893 3.0413 2.1209 5.3056 4.1131 6.5544 1.7755 1.112 3.984 1.4083 6.3822 0.85745 1.5266-0.35064 3.2325-0.93506 3.6522-1.2497l0.49496-0.45097c0.45476-0.43109 1.2128-1.1537 1.6359-1.3046 0.14859-0.05253-0.35727-0.46516-0.44718-0.415-0.93838 0.36721-2.0258 1.7149-2.0258 1.7149-0.27493 0.20679-1.7864 0.77133-3.4378 1.1504-2.2482 0.51674-4.3071 0.24465-5.9525-0.786-1.8611-1.165-3.3323-3.3016-3.9962-6.191-0.035-0.15379-0.45381-0.03265-0.41879 0.1202"/>
   <path d="m10.078 49.806c1.352 6.7437 8.9753 12.203 15.312 10.746 2.9538-0.67763 5.3406-2.403 6.5733-4.1567 0.0899-0.12919-0.22714-0.61896-0.31705-0.49024-1.1542 1.6425-3.6759 3.1729-6.4962 3.8207-6.3178 1.4513-13.293-4.1931-14.645-10.081-0.036-0.15379-0.4576 0.0075-0.42684 0.16136"/>
   <path d="m59.616 41.453c-0.56454 2.1119-4.6138 6.0055-8.7752 6.9618-0.8177 0.18786-1.5417-0.09748-2.1503-0.25695-0.0828-0.0213-1.0093 0.50208-0.85224 0.49545 0.10691-0.0056 0.34544 0.05678 0.59719 0.12256 0.62889 0.16326 1.5796 0.41264 2.5321 0.19354 4.1084-0.94358 8.4648-4.8873 9.1509-7.453 0.0406-0.15142-0.46233-0.21578-0.50255-0.06341"/>
   <path d="m65.631 39.68c0.19591 2.9088-1.7192 6.0949-5.2569 8.7421-3.5103 2.6282-7.6958 4.1368-10.137 3.5103-0.68142-0.17414-0.77843 0.25317-0.0558 0.42447 2.6164 0.62322 7.02-0.72401 10.626-3.4251 3.6948-2.7635 5.6014-6.1848 5.3908-9.2896-9e-3 -0.15663-0.57732-0.1183-0.56785 0.03785"/>
   <path d="m31.733 55.424c-2.4403 10.069 2.2449 19.553 11.424 19.066 0.64263-0.0356 1.2985-0.1277 1.9624-0.28015 1.4016-0.32225 3.7222-1.3747 4.6143-2.2482 0.11361-0.11066-0.16611-0.57543-0.27873-0.46659-0.81533 0.79783-3.162 1.8602-4.4633 2.1592-0.63977 0.14669-1.2725 0.2366-1.8919 0.26689-8.2788 0.4169-12.729-9.4542-10.892-18.429 0.16467-0.79972-0.28155-0.86077-0.47463-0.0686"/>
   <path d="m40.454 74.08c0.28677 3.3134 1.4087 6.6093 4.0781 7.6253 0.56075 0.21248 0.72732-0.061 0.18266-0.31373-2.5085-1.1603-3.2978-5.1632-3.5401-7.2093-0.0161-0.14385-0.72827-0.20111-0.7207-0.10221"/>
   <path d="m43.136 80.605c-0.25081 0.42542-2.8298 6.0561-3.4076 7.0754-1.0103 1.775-2.6296 3.8046-4.1013 4.955-7.8311 6.1252-1.6122 11.051 0.33361 10.604 0.15284-0.035 0.0455-0.50445-0.10691-0.46942-1.5701 0.36059-6.5918-4.1472 0.13582-9.6956 1.4906-1.2266 3.1918-3.2831 4.2333-5.1135 0.5934-1.0434 3.0758-6.6708 3.3101-7.0669 0.079-0.13724-0.31705-0.42542-0.39702-0.28914"/>
   <path d="m36.739 96.35c-1.7291 1.4088-2.3055 3.1899-1.8961 4.9706 0.62653 2.7281 3.5652 4.0535 5.6449 2.6112 0.12971-0.0895-0.26832-0.65587-0.39845-0.56642-1.8431 1.2772-4.2044-0.0526-4.6914-2.1711-0.36248-1.5786 0.17888-3.108 1.6089-4.5447 0.43392-0.43581 0.20773-0.68662-0.26785-0.29953"/>
   <path d="m44.764 74.048c-0.0459 1.4466 0.69846 3.8784 1.7315 5.625 0.31658 0.53237 0.8901 0.78459 1.4438 1.0288 0.69089 0.30521 1.343 0.59152 1.5886 1.3827 0.28865 0.93079 0.5139 4.5835-0.27163 8.8126-1.6591 8.9418-6.5004 13.98-8.5764 12.68-1.6198-1.0141-1.3751-4.4756 0.82527-6.8062 0.5688-0.60192 0.26547-0.85414-0.34023-0.29008-2.446 2.269-3.0356 6.3131-0.84136 7.6868 3.8268 2.3968 8.2452-5.8517 9.5721-13 0.7505-4.0422 0.55034-8.0403 0.17556-9.2507-0.32132-1.0392-1.006-1.5933-1.792-1.7859-0.56737-0.13912-1.0709-0.37336-1.2928-0.74956-0.99942-1.687-1.6042-4.168-1.5128-5.4741 0.0107-0.15757-0.7065 0.0951-0.70935 0.14055"/>
   <path d="m80.254 41.426c2.7773 3.3683 2.9992 12.477 0.6677 19.337-2.4091 7.083-6.7432 11.825-11.892 13.008-4.0232 0.92465-8.3015 0.33172-10.4-1.4442-0.12072-0.10073-0.48693 0.33314-0.3672 0.43535 2.2624 1.9118 6.6557 2.6646 10.909 1.6875 5.3444-1.228 9.8692-6.0935 12.343-13.369 2.6713-7.8572 2.3542-16.681-0.66675-20.343-0.0989-0.12256-0.6942 0.56785-0.59435 0.68899"/>
   <path d="m77.661 27.911c-2.2577 0.11689-7.5207 2.2141-7.2103 8.619 0.19732 4.107 2.6254 6.7655 6.8913 6.5459 2.3334-0.1183 4.4425-1.978 4.4231-5.2621-0.0121-2.0282-1.0581-3.4634-2.7474-3.7327-1.0193-0.16184-1.0534 0.13865-0.044 0.35916 1.5692 0.34166 2.1138 2.0126 2.1214 3.3825 0.0165 2.6878-1.9392 4.5887-3.7625 4.6829-3.3143 0.16893-5.9307-2.0111-6.1366-6.0334-0.24701-4.7979 3.5694-7.8434 6.5213-7.9934 5.423-0.27825 9.4651 6.137 9.9317 14.728 1.094 20.153-9.5006 33.917-20.322 34.484-4.0842 0.21342-7.9608-1.06-9.5546-2.34-0.12166-0.0984-0.47746 0.34592-0.3549 0.44482 1.7206 1.3813 5.5947 2.8241 9.988 2.5993 9.7064-0.49828 22.246-12.541 21.027-35.144-0.58252-10.838-5.3075-15.619-10.772-15.34"/>
   <path d="m49.718 52.352c0.33882 0.40696 0.67148 1.0463 0.87638 1.7485 0.0502 0.17462 0.42637-0.2754 0.37242-0.4803-0.15948-0.61612-0.60997-1.2161-0.91945-1.5871-0.4661-0.55886-0.79404-0.24039-0.32935 0.31894"/>
  </g>
  <g fill="#fff3c3">
   <path d="m29.382 21.079c-1.1944-5.9487-2.5747-17.518-2.0816-17.711 0.49307-0.19354 3.8855 14.771 3.8855 14.771l0.0857 2.7323s-1.59 1.7017-1.8895 0.20821"/>
   <path d="m39.67 17.982s2.4152-6.2686 3.5032-9.0056c1.0888-2.737 2.6263-5.4409 2.852-5.3965 0.22477 0.04354-0.24749 2.8057-0.98144 5.9146-0.73394 3.1104-2.7891 10.98-3.0711 12.001-0.28251 1.0202-2.3566-0.21484-2.3419-0.99658 0.0165-0.78411 0.0393-2.5165 0.0393-2.5165"/>
   <path d="m7.8706 37.546c-3.586 1.4229-5.935 6.0902-4.9029 8.9654 1.1021 3.0688 3.9163 4.275 5.3709 3.1326 0 0 1.1674 0.44292 2.5596-0.16042 1.3946-0.60145 1.6122-1.2554 1.6122-1.2554s1.9718 0.318 2.9722-0.87828c1.6354-1.9591 1.5569-4.3772 1.0671-5.8649-1.165-3.5448-6.0746-4.9715-8.6791-3.939"/>
   <path d="m56.661 35.571c0.21248 4.1666 4.4746 4.3095 6.3486 3.4445 0 0 0.63362 0.91802 2.0542 0.8442 1.4201-0.07288 2.438-1.4641 2.438-1.4641s0.62322 0.16231 1.598 0.11309c1.7949-0.09323 2.8927-2.402 2.7489-5.2252-0.17367-3.3674-4.4411-5.9444-7.4478-5.7902-4.371 0.22525-8.0081 2.8705-7.7398 8.0777"/>
  </g>
  <path d="m3.4945 47.784c0.41737 0.7737 2.5667 1.0406 3.4274 0.66202 0 0 1.2256 0.18739 2.9982-0.3639 1.7731-0.55223 3.065-1.4972 3.065-1.4972s3.232-0.71076 3.8562-1.5805c0 0-0.59719 2.2506-1.6188 2.7219-1.024 0.47132-2.6183 0.42778-2.6183 0.42778s-0.53473 0.99042-1.9359 1.4409c-1.4016 0.44813-2.4247 0.12398-2.4247 0.12398s-1.4386 0.53378-2.5922 0.09133c-1.1537-0.44387-2.1569-2.0263-2.1569-2.0263" fill="#fbd6a0"/>
  <path d="m56.737 36.253c0.30617 1.0728 3.3304 2.049 5.1859 1.4509 0 0 1.3444 0.89531 3.0158 0.80919 2.5203-0.13013 3.1615-1.2516 3.1615-1.2516s2.6448 0.11546 3.6498-1.5275c0 0-1.0676 2.8601-2.4905 2.8927-1.4239 0.03123-1.6477-0.2508-1.6477-0.2508s-1.1551 1.4144-2.5482 1.4845c-1.3926 0.07288-2.0542-0.84468-2.0542-0.84468s-1.1059 0.50775-2.7205 0.32131c-2.7815-0.31705-3.5519-3.0839-3.5519-3.0839" fill="#fbd6a0"/>
  <g fill="#0f141b">
   <path d="m27.164 2.7593c-0.88442 0.14622 0.17319 9.8839 1.8436 17.788 0.21673 1.0335 0.71785 0.96913 0.56264-0.0743-0.79026-5.2824-2.3499-16.494-2.1715-16.532 0.21388-0.04495 2.9997 11.127 3.5992 14.864 0.0256 0.15521 0.24844-1.7353 0.2191-1.8895-2.0949-11.267-3.5704-14.236-4.053-14.156"/>
   <path d="m45.884 4.0476c0.17841 0.06719-4.0005 16.89-4.0085 16.922-0.17556 0.70934 0.25932 0.9502 0.50065 0.09417 3.6546-13.001 4.4983-17.779 3.7696-17.958-0.46658-0.115-1.8228 1.5952-6.5189 14.041-0.18833 0.49829 0.0908 1.6449 0.13771 1.5076 2.6173-7.6276 5.9596-14.668 6.1195-14.607"/>
   <path d="m12.152 43.104c1.0562 3.4762 0.54419 5.7731-2.1791 6.3987-2.1403 0.49166-4.1822-2.5932-3.6697-5.361 0.12166-0.64782-0.25222-0.67905-0.37904-0.04306-0.68568 3.4104 1.2904 6.6226 4.1765 5.9596 4.0024-0.91944 3.5865-4.371 2.4697-7.0764-0.26736-0.64972-0.61944-0.5404-0.41832 0.12209"/>
   <path d="m8.2465 37.164c-3.7861 0.86976-6.6202 5.1873-5.6794 9.2843 0.70934 3.0834 3.5462 4.6824 5.9317 3.4677 0.14149-0.07003-0.41831-0.4292-0.49828-0.39466-1.8427 0.78316-4.1571-0.65539-4.7496-3.2325-0.79878-3.4748 1.6591-7.7734 5.1234-8.5693 3.1464-0.72259 7.2358 1.0023 8.0706 4.6355 0.82527 3.5902-1.3472 5.7249-3.7085 5.4996-0.10087-0.0095-0.30853 0.53473-0.26642 0.54182 3.1681 0.45333 5.634-1.7154 4.6062-6.1896-0.92417-4.0213-5.3482-5.8427-8.8296-5.043"/>
   <path d="m67.221 32.097c1.9028 2.7162 0.65256 7.3546-2.1791 7.436-2.3145 0.06578-4.2664-4.1344-2.8927-6.9377 0.35065-0.7188 0.0341-0.85887-0.36911-0.12161-1.9174 3.5027 0.39419 7.7105 3.2784 7.6281 3.1852-0.09038 5.255-4.7889 2.4602-8.1879-0.468-0.5669-0.70555-0.39702-0.29765 0.18313"/>
   <path d="m64.227 27.269c-5.0865 0.40554-8.1496 3.4232-8.0176 8.0881 0.0938 3.2647 2.8369 5.2971 6.9524 3.9835 0.14954-0.04874-0.30615-0.50113-0.37289-0.4822-3.1232 0.88727-5.8242-0.68-5.9047-3.5036-0.12448-4.3933 2.5686-7.1331 7.3887-7.5193 3.5074-0.27872 7.3092 2.3552 7.2666 5.9582-0.0416 3.4686-2.0802 5.0681-3.8377 4.2802-0.14291-0.06436-0.37618 0.4557-0.23187 0.51911 2.3339 1.0458 4.6914-0.14149 4.7482-4.7695 0.0492-4.0909-4.019-6.8738-7.991-6.5544"/>
  </g>
  <g fill="#fff3c3">
   <path d="m18.813 31.999c-2.6466-1.3685-6.8554-2.959-9.3714-3.8349-2.5175-0.87544-5.3903-1.3567-5.5829-1.0117-0.19118 0.34544 11.862 5.8011 13.49 7.3087 1.6264 1.5086 1.9818-2.1962 1.4646-2.4621"/>
   <path d="m19.367 41.983c-9.6009 3.0385-14.043 7.1724-13.991 7.3792 0.0539 0.20726 2.3632-0.49782 4.5437-1.28 2.1805-0.78269 10.114-3.7454 11.15-3.9664 1.0358-0.22099-0.75334-2.4328-1.7021-2.1328"/>
   <path d="m53.511 29.17c2.023-1.669 6.0509-3.9977 8.46-4.9313 2.4105-0.93317 6.3467-2.0566 6.4962-1.8692 0.14954 0.18692-3.4946 2.6651-4.99 3.4677-1.4944 0.80256-7.6286 4.8045-8.3843 5.3179-0.75571 0.51485-2.4134-1.3013-1.5819-1.9851"/>
   <path d="m54.343 38.316c2.1645 0.07335 9.7897 1.9293 11.5 2.5676 1.7073 0.63694 3.1653 1.2876 3.1464 1.4575-0.0194 0.16799-2.6249-0.0056-3.6371-0.12067-1.0122-0.1164-6.6651-0.88726-7.5652-1.0089-0.90052-0.12067-3.4563-0.40885-4.2172-0.53709-0.75997-0.12919-0.20536-2.3911 0.77322-2.3585"/>
   <path d="m49.384 60.858s-0.48314 3.0986-0.21767 6.1011c0.68852 7.7616 2.5222 11.46 5.2176 11.322 1.7187-0.088 2.8492-1.175 3.4412-3.1653 0.83238-2.8071 1.0131-5.3037 1.3259-6.7986 0.31562-1.4958 0.94878-4.3781 0.94878-4.3781s-1.5143 1.421-4.6833 0.71454c-5.1982-1.1565-6.0325-3.7961-6.0325-3.7961"/>
  </g>
  <path d="m49.431 60.688c1.0344-8.5073 3.4833-10.513 4.9867-10.589 0.36152-0.01893 0.71359 0.29859 0.71359 0.29859s1.6307-1.4248 2.9244-1.2389c1.2947 0.18455 2.1583 1.2289 2.1583 1.2289s0.80634-0.627 1.8176 0.04637c1.4826 0.98617 2.0055 2.0542 2.1058 4.0251 0.0431 0.83664-0.51722 2.9604-1.7556 4.4198-1.2374 1.4589-1.6955 2.322-1.8777 3.1412-0.18123 0.81912-0.40458 1.9193-0.40458 1.9193s-1.546 1.236-4.0928 0.79735c-6.1148-1.0552-6.5757-4.0483-6.5757-4.0483" fill="#cc5d00"/>
  <g fill="#f2973a">
   <path d="m55.148 68.132c-0.795-0.26311-1.8867 1.6046-2.0717 3.7076-0.18503 2.1058 1.0378 3.885 1.7537 3.9759 0.71644 0.0876 1.3458-1.5365 1.6477-3.8131 0.30237-2.2794-0.56217-3.6158-1.3297-3.8704"/>
   <path d="m54.409 53.2c-0.56075-0.1254-1.5616 0.58157-1.6898 1.3718-0.12636 0.78884 0.10409 2.005 0.95398 2.2406 0.84893 0.23613 1.3084-0.62558 1.5829-1.2829 0.27257-0.65587-0.0284-2.1484-0.84704-2.3296"/>
   <path d="m58.663 53.903c-0.51627-0.16751-1.4007 0.49025-1.6354 1.3397-0.23612 0.8513 0.15143 1.8649 0.66249 2.0338 0.51154 0.16988 1.2351-0.42684 1.4755-1.1669 0.24228-0.73584 0.23472-1.9657-0.50254-2.2066"/>
   <path d="m62.662 55.094c-0.4292-0.18834-1.2762 0.17745-1.6122 1.2559-0.33503 1.0789 0.0369 1.8124 0.49166 1.9577 0.45524 0.14385 1.1438-0.56075 1.3619-1.2138 0.21815-0.65492 0.44339-1.7002-0.24134-1.9998"/>
  </g>
  <path d="m34.976 9.7883c-1.5706-0.03218-4.0024 1.1546-3.9366 3.8335 0.0255 1.0605 0.47795 10.951 0.51816 11.731 0.0402 0.77985 1.0051 2.7143 4.1335 2.72 3.1284 8e-3 4.0857-1.4944 4.0677-2.9173-0.017-1.4244-0.15757-10.689-0.27257-11.856-0.19684-1.9794-1.7542-3.4525-4.5101-3.5112" fill="#f9be00"/>
  <g fill="#fbd6a0">
   <path d="m3.8591 27.153s7.8226 2.3528 13.317 6.3964c0.4784 0.35159 0.75665 1.6799-0.76991 0.50113-1.5266-1.1797-5.3932-3.0328-6.9443-3.8756-1.5512-0.84231-5.6023-3.0219-5.6023-3.0219"/>
   <path d="m5.3762 49.362s9.9-4.4993 14.714-5.5313c1.2862-0.27541 1.5313 0.424 0.74104 0.54892-0.79073 0.12445-4.0459 1.1707-6.9623 2.2851-2.9173 1.1135-6.2951 2.2511-7.2036 2.5056-0.90904 0.25601-1.2895 0.19165-1.2895 0.19165"/>
   <path d="m55.397 31.112c-0.37669 0.27115-0.84705-0.18029-0.24229-0.90998 0.60524-0.72827 10.695-6.5809 13.207-7.6887 0 0-1.8512 1.4641-4.2622 2.9282-2.4105 1.4655-6.5222 4.0497-7.0115 4.3265-0.48788 0.27635-1.6908 1.3439-1.6908 1.3439"/>
   <path d="m68.732 42.213c-1.4182-0.28534-5.6388-0.89531-14.276-2.2274-0.83758-0.12966-1.3297 0.73868-0.65066 0.89957 0.67906 0.16042 15.163 1.5673 15.163 1.5673s0.39796-0.11073-0.23661-0.23944"/>
   <path d="m49.238 65.084c0.36342 7.0948 3.0058 12.022 5.4144 11.899 1.6558-0.0846 3.0385-1.6458 3.3082-3.0181 0 0-0.17793 4.142-3.577 4.3166-2.1346 0.10972-3.8666-2.4654-4.4638-5.3567-0.44624-2.1545-0.68189-7.8406-0.68189-7.8406"/>
  </g>
  <path d="m49.289 61.052c0.62038 1.9241 3.2566 3.3603 5.9629 3.8718 2.1673 0.41028 3.8912 0.14386 4.7311-0.67384 0.23613-0.23046 0.14954-1.1878 0.10744-1.0363-0.35112 1.2805-2.712 1.5346-4.7311 1.1513-2.896-0.5475-5.916-2.3443-5.6903-4.4704 0.0174-0.15805-0.49829 0.78978-0.37998 1.1575" fill="#cc5d00"/>
  <g fill="#0f141b">
   <path d="m4.2577 27.209c0.1226-0.22099 6.7546 1.3117 13.36 4.6384 0.74814 0.3762 1.0042-0.13202 0.25505-0.50917-7.1402-3.5964-14.319-5.388-14.657-4.468-0.33077 0.89768 8.2433 4.2911 13.386 7.4209 0.93884 0.57164 1.1542 0.21389 0.36247-0.43819-2.844-2.3457-12.82-6.4427-12.707-6.6438"/>
   <path d="m5.832 49.168c-0.15332-0.28771 5.5474-4.2925 12.883-6.6254 1.1551-0.36721 0.99847-0.94689-0.17272-0.54182-11.681 4.0379-13.838 7.2302-13.549 7.612 0.56124 0.74672 12.89-4.3511 15.404-4.9739 1.36-0.33598 1.2242-0.88868-0.13769-0.55176-2.5468 0.62984-14.316 5.2881-14.427 5.0808"/>
   <path d="m68.055 22.607c0.11549 0.16704-4.415 2.8175-6.914 4.3308-2.5714 1.5554-4.9999 3.0247-5.8408 3.648-0.64073 0.4751-0.34734 0.96534 0.33786 0.45759 0.82102-0.60807 3.2377-2.0712 5.7982-3.6196 7.7928-4.716 7.7365-4.8201 7.5316-5.2006-0.43251-0.81013-8.1491 1.2303-15.234 6.403-0.6445 0.47226-0.30806 0.93175 0.33645 0.45948 5.996-4.3791 13.854-6.667 13.984-6.4787"/>
   <path d="m68.524 42.193c-0.0412 0.16704-14.26-1.7187-14.26-1.7187-0.94641-0.11594-1.0074 0.44908-0.061 0.56501 13.949 1.8469 15.756 1.8696 15.806 1.59 0.0942-0.50965-3.0034-2.4777-14.81-4.4713-1.0926-0.18455-1.1575 0.41216-0.0781 0.56406 5.5432 0.77654 13.441 3.3181 13.402 3.471"/>
   <path d="m35.476 27.71c-1.7215-0.03785-3.5155-0.83001-3.6418-2.5142-0.10503-1.387-0.45711-9.9028-0.50869-11.403-0.0431-1.2242 0.52573-2.2657 1.6009-2.9329 1.3094-0.81013 3.1317-0.88585 4.4335-0.18219 0.81722 0.44008 1.7996 1.3704 1.8488 3.2945l0.0232 0.92276c0.0728 2.8539 0.24559 9.5389 0.12877 10.505-0.18881 1.5692-2.0958 2.3495-3.8846 2.3102m4.3005-13.752c-0.0728-2.8137-1.9056-4.6805-4.7628-4.5333-3.0087 0.15474-4.3422 1.9577-4.2565 4.3885 0.0515 1.502 0.33645 9.9705 0.42825 11.365 0.15332 2.3287 2.6017 3.3437 4.6214 3.241 1.9799-0.10268 4.1865-0.87307 4.2707-3.0271 0.0402-1.0131-0.22051-8.3233-0.30096-11.434"/>
   <path d="m32.33 13.063-1.3056 0.06956c-0.15662 8e-3 -0.12971 0.57732 0.0275 0.56832l1.3098-0.07003c2.1152-0.11594 6.518-0.35633 7.0186-0.30853 0.15664 0.01561 0.21201-0.55129 0.0558-0.56643-0.50397-0.04875-3.9324 0.1325-7.1062 0.30711"/>
   <path d="m31.262 16.569c0.88491 0.01657 7.4753-0.28818 8.1889-0.33172 0.15617-0.0095 0.12261-0.57826-0.0345-0.56832-0.90052 0.05537-7.3092 0.34591-8.1439 0.3303-0.1571-0.0028-0.16751 0.56643-0.0107 0.56974"/>
   <path d="m31.322 19.675c-0.1571 9e-3 -0.12488 0.57731 0.0322 0.56738 1.5218-0.08471 7.4819-0.20537 8.1292-0.15616 0.15664 0.01274 0.21295-0.5352 0.0563-0.5475-0.73821-0.05631-6.7735 0.05537-8.2177 0.13628"/>
   <path d="m31.51 23.678c1.3595 0.07666 7.1081-0.10978 7.9821-0.17698 0.15664-0.0118 0.16941-0.55744 0.0134-0.54514-0.7931 0.06058-6.6334 0.22856-7.9622 0.15379-0.15711-0.0095-0.18881 0.55886-0.0331 0.56832"/>
   <path d="m48.908 62.776c-0.60712 10.707 2.1753 16.035 5.4831 15.909 2.7872-0.10369 3.7284-2.4905 4.4236-6.8322 0.40505-2.5302 1.9051-9.7202 2.2302-10.583 0.47226-1.2597 2.5738-2.4257 3.2571-5.2285 1.033-4.231-1.9534-7.1634-4.3005-5.917-0.13912 0.07382 0.12917 0.5759 0.26736 0.50302 1.6534-0.8797 4.1472 1.8649 3.3257 5.237-0.50775 2.0826-2.6372 4.1202-3.0763 5.1864-0.39324 0.9573-1.8886 8.3578-2.2652 10.712-0.74625 4.6639-1.6364 6.1115-3.8051 6.1919-2.5742 0.097-5.5247-5.395-4.9706-15.146 0.50586-8.892 3.4639-12.486 5.0927-12.364 1.095 0.08282 2.119 3.2964 0.061 6.2889-0.46185 0.67337-0.14149 0.89436 0.31989 0.22241 2.2368-3.2561 1.3477-7.1109-0.28771-7.2354-2.2652-0.16799-5.1679 2.7247-5.7552 13.055"/>
   <path d="m55.002 50.237c-0.0985 0.12161 0.34071 0.4822 0.44008 0.362 0.5494-0.66722 1.7755-1.227 2.7257-0.99752 2.738 0.66533 3.2443 4.1264 0.34829 7.7166-0.55366 0.68521-0.24844 0.91992 0.30617 0.23566 3.5055-4.3455 2.6537-7.8827-0.42873-8.6294-1.1944-0.2896-2.7347 0.51532-3.3915 1.3127"/>
   <path d="m54.848 75.621c-0.60524-0.0185-1.4201-1.2578-1.3761-3.5368 0.044-2.35 1.113-3.6385 1.6496-3.6428 0.77133-6e-3 1.3075 1.5848 0.99704 3.7606-0.33833 2.3802-0.88205 3.4308-1.2706 3.4189m0.26973-7.7488c-1.0784-0.10221-2.2572 1.7031-2.3045 4.1708-0.0496 2.6334 1.0576 3.9929 2.0296 4.0228 0.85649 0.026 1.5502-1.1224 1.9231-3.745 0.34498-2.4233-0.29527-4.318-1.6482-4.4486"/>
   <path d="m54.525 52.914m-0.67858 3.6707c-0.6024-0.0715-1.1589-0.78364-0.87117-1.8796 0.22809-0.8707 0.79546-1.3534 1.4438-1.2308 0.51864 0.09796 0.80872 0.8513 0.58536 1.8786-0.15994 0.73347-0.67999 1.2862-1.1579 1.2318m-1.4229-2.0253c-0.37478 1.43 0.15 2.447 1.3572 2.5903 0.78554 0.0909 1.5512-0.62748 1.7793-1.6785 0.22571-1.0325 0.0795-2.3462-1.0349-2.5572-0.79215-0.14906-1.7485 0.30238-2.1015 1.6454"/>
   <path d="m57.756 57.017c-0.36862-0.0899-0.64309-0.82575-0.44623-1.6382 0.21957-0.90619 0.83994-1.3557 1.3236-1.2228 0.43014 0.11972 0.54656 0.90525 0.22193 1.8091-0.26452 0.73631-0.69656 1.1494-1.0993 1.0519m-0.99942-1.7722c-0.26216 1.0827 0.13387 2.1465 0.86598 2.3249 0.71501 0.17178 1.3922-0.36863 1.7688-1.4111 0.39844-1.1045 0.21058-2.3263-0.60665-2.5515h-9.5e-4c-0.62274-0.17036-1.6974 0.28108-2.0272 1.6378"/>
   <path d="m62.753 54.814-4.7e-4 -1e-3zm-1.1934 3.2022c-0.32888-0.11689-0.53331-0.73489-0.31042-1.4679 0.28629-0.94831 0.89673-1.3136 1.3515-1.1873 0.33456 0.0932 0.42826 0.70318 0.0648 1.6709-0.22099 0.58962-0.78836 1.0969-1.1059 0.98428m-0.85602-1.633c-0.29623 0.97859-4e-3 1.933 0.66723 2.1706 0.69229 0.24512 1.5195-0.49829 1.828-1.3212 0.42589-1.1376 0.27966-2.216-0.44577-2.4186-0.72022-0.20254-1.6558 0.27162-2.0495 1.5692"/>
  </g>
  <path d="m25.255 29.435c-0.0715-4.73e-4 -0.24702 0.51816-0.1732 2.2454 0.07 1.6823 0.23046 2.1124 0.31373 2.1067 0.0653-0.0062 0.18219-0.55507 0.16232-2.0878-0.0176-1.3326-0.18645-2.2662-0.30285-2.2643" fill="#fff"/>
 </g>
</svg>
