<?xml version="1.0" encoding="UTF-8"?>
<!DOCTYPE svg PUBLIC "-//W3C//DTD SVG 1.1//EN" "http://www.w3.org/Graphics/SVG/1.1/DTD/svg11.dtd">
<svg xmlns="http://www.w3.org/2000/svg" version="1.1" width="300px" height="300px" style="shape-rendering:geometricPrecision; text-rendering:geometricPrecision; image-rendering:optimizeQuality; fill-rule:evenodd; clip-rule:evenodd" xmlns:xlink="http://www.w3.org/1999/xlink">
<g><path style="opacity:1" fill="#be4463" d="M 189.5,28.5 C 192.009,29.9213 194.343,31.5879 196.5,33.5C 202.94,42.1295 205.94,51.9628 205.5,63C 205.446,70.0469 204.28,76.8802 202,83.5C 199.882,88.0941 197.048,92.0941 193.5,95.5C 193.723,93.6583 194.057,91.825 194.5,90C 194.316,88.6244 193.649,87.7911 192.5,87.5C 199.069,76.0565 201.236,63.7232 199,50.5C 197.736,42.472 194.236,35.6386 188.5,30C 189.056,29.6174 189.389,29.1174 189.5,28.5 Z"/></g>
<g><path style="opacity:1" fill="#1a1b21" d="M 189.5,28.5 C 189.389,29.1174 189.056,29.6174 188.5,30C 194.236,35.6386 197.736,42.472 199,50.5C 201.236,63.7232 199.069,76.0565 192.5,87.5C 185.138,95.3527 177.138,102.519 168.5,109C 157.81,117.679 150.31,128.512 146,141.5C 145.333,144.5 145.333,147.5 146,150.5C 146.278,149.584 146.778,148.918 147.5,148.5C 147.477,150.927 146.977,153.26 146,155.5C 144.61,148.879 143.944,142.212 144,135.5C 144.893,136.711 145.726,136.711 146.5,135.5C 147.236,133.459 148.069,131.459 149,129.5C 152.729,124.614 156.229,119.614 159.5,114.5C 154.709,99.0685 154.376,83.5685 158.5,68C 158.333,67.1667 158.167,66.3333 158,65.5C 156.859,67.6089 155.359,69.4422 153.5,71C 150.391,72.3922 147.724,74.2256 145.5,76.5C 145.672,75.5084 145.338,74.8417 144.5,74.5C 147.985,73.1521 151.152,71.1521 154,68.5C 158.96,60.0813 163.793,51.5813 168.5,43C 162.822,41.6084 157.155,40.1084 151.5,38.5C 161.934,26.3505 174.601,23.0172 189.5,28.5 Z M 171.5,27.5 C 178.956,25.943 185.123,27.943 190,33.5C 200.794,51.0222 201.128,68.6888 191,86.5C 189.188,89.2802 187.021,91.7802 184.5,94C 176.462,100.025 168.795,106.525 161.5,113.5C 160.104,111.028 159.27,108.362 159,105.5C 158.333,98.1667 158.333,90.8333 159,83.5C 160.985,74.2257 162.652,64.8923 164,55.5C 166.372,50.5882 168.872,45.7549 171.5,41C 165.742,40.5151 160.075,39.5151 154.5,38C 159.593,33.374 165.259,29.874 171.5,27.5 Z"/></g>
<g><path style="opacity:1" fill="#696a6b" d="M 147.5,148.5 C 148.232,147.192 149.066,145.858 150,144.5C 151.35,148.001 153.684,149.334 157,148.5C 159.4,152.687 162.4,153.354 166,150.5C 167,148.167 168,145.833 169,143.5C 169.402,144.872 169.902,146.205 170.5,147.5C 168.384,149.4 167.051,151.733 166.5,154.5C 164.612,158.694 165.612,162.194 169.5,165C 168.457,168.913 166.291,172.08 163,174.5C 162.51,173.207 162.343,171.873 162.5,170.5C 160.265,170.205 158.265,170.539 156.5,171.5C 153.726,173.064 151.059,174.897 148.5,177C 149.98,182.188 147.98,184.188 142.5,183C 142.063,180.551 142.063,178.217 142.5,176C 138.998,173.706 135.998,174.206 133.5,177.5C 129.52,174.565 129.52,171.565 133.5,168.5C 132.873,167.583 132.539,166.583 132.5,165.5C 132.389,164.883 132.056,164.383 131.5,164C 141.882,149.817 143.048,134.984 135,119.5C 133.223,117.21 131.056,115.543 128.5,114.5C 127.909,113.849 127.243,113.182 126.5,112.5C 128.731,108.708 130.398,104.708 131.5,100.5C 132.319,97.6946 132.819,94.6946 133,91.5C 134.572,96.4068 135.738,101.407 136.5,106.5C 140.679,103.465 143.346,99.4655 144.5,94.5C 145.241,88.5293 145.575,82.5293 145.5,76.5C 147.724,74.2256 150.391,72.3922 153.5,71C 155.359,69.4422 156.859,67.6089 158,65.5C 158.167,66.3333 158.333,67.1667 158.5,68C 154.376,83.5685 154.709,99.0685 159.5,114.5C 156.229,119.614 152.729,124.614 149,129.5C 148.069,131.459 147.236,133.459 146.5,135.5C 145.726,136.711 144.893,136.711 144,135.5C 143.944,142.212 144.61,148.879 146,155.5C 146.977,153.26 147.477,150.927 147.5,148.5 Z"/></g>
<g><path style="opacity:1" fill="#595959" d="M 142.5,75.5 C 138.738,77.7719 134.738,79.4385 130.5,80.5C 129.728,79.3065 128.728,78.3065 127.5,77.5C 127.586,76.5041 127.252,75.6708 126.5,75C 131.773,75.339 137.107,75.5057 142.5,75.5 Z"/></g>
<g><path style="opacity:1" fill="#909191" d="M 143.5,74.5 C 143.833,74.5 144.167,74.5 144.5,74.5C 145.338,74.8417 145.672,75.5084 145.5,76.5C 145.575,82.5293 145.241,88.5293 144.5,94.5C 142.264,97.9441 139.764,101.277 137,104.5C 136.996,98.0135 135.496,92.0135 132.5,86.5C 131.833,84.5 131.167,82.5 130.5,80.5C 134.738,79.4385 138.738,77.7719 142.5,75.5C 143.167,75.5 143.5,75.1667 143.5,74.5 Z"/></g>
<g><path style="opacity:1" fill="#33363b" d="M 132.5,86.5 C 135.496,92.0135 136.996,98.0135 137,104.5C 139.764,101.277 142.264,97.9441 144.5,94.5C 143.346,99.4655 140.679,103.465 136.5,106.5C 135.738,101.407 134.572,96.4068 133,91.5C 132.819,94.6946 132.319,97.6946 131.5,100.5C 131.777,95.7668 131.443,91.1001 130.5,86.5C 130.97,85.537 131.637,85.537 132.5,86.5 Z"/></g>
<g><path style="opacity:1" fill="#da4f71" d="M 192.5,87.5 C 193.649,87.7911 194.316,88.6244 194.5,90C 194.057,91.825 193.723,93.6583 193.5,95.5C 185.979,102.515 177.979,109.015 169.5,115C 164.18,119.474 159.846,124.641 156.5,130.5C 154.05,132.629 152.383,135.296 151.5,138.5C 149.085,141.34 147.752,144.673 147.5,148.5C 146.778,148.918 146.278,149.584 146,150.5C 145.333,147.5 145.333,144.5 146,141.5C 150.31,128.512 157.81,117.679 168.5,109C 177.138,102.519 185.138,95.3527 192.5,87.5 Z"/></g>
<g><path style="opacity:1" fill="#909191" d="M 128.5,114.5 C 132.169,117.841 134.836,121.841 136.5,126.5C 135.234,143.693 128.567,158.36 116.5,170.5C 115.609,169.89 114.609,169.557 113.5,169.5C 113.109,165.617 113.776,161.95 115.5,158.5C 115.167,158.167 114.833,157.833 114.5,157.5C 113.099,158.521 111.765,159.521 110.5,160.5C 106.484,161.743 102.484,161.743 98.5,160.5C 95.577,154.71 96.2437,149.21 100.5,144C 97.1347,143.946 93.8014,144.446 90.5,145.5C 84.3383,144.218 83.005,140.884 86.5,135.5C 87.5,135.167 88.1667,134.5 88.5,133.5C 88.6107,132.883 88.944,132.383 89.5,132C 86.6287,131.882 83.962,131.216 81.5,130C 88.9153,123.624 97.2487,118.791 106.5,115.5C 107.439,130.049 113.605,141.716 125,150.5C 121.623,145.402 118.956,139.735 117,133.5C 115.576,127.224 115.242,120.891 116,114.5C 120.119,113.341 124.286,113.341 128.5,114.5 Z"/></g>
<g><path style="opacity:1" fill="#6c6b6c" d="M 151.5,138.5 C 152.383,135.296 154.05,132.629 156.5,130.5C 159.115,128.621 161.281,126.288 163,123.5C 167.257,129.621 169.924,136.287 171,143.5C 170,142.5 169,141.5 168,140.5C 166.427,152.475 162.427,153.475 156,143.5C 155.405,147.082 154.071,147.416 152,144.5C 151.505,142.527 151.338,140.527 151.5,138.5 Z"/></g>
<g><path style="opacity:1" fill="#6e6d6e" d="M 37.5,138.5 C 37.5,139.167 37.8333,139.5 38.5,139.5C 45.4743,142.318 52.4743,145.151 59.5,148C 61.492,148.574 62.992,149.741 64,151.5C 64.4186,150.328 65.0853,149.328 66,148.5C 65.4476,153.423 65.4476,158.423 66,163.5C 66.6529,166.139 67.8196,168.473 69.5,170.5C 61.1152,167.808 53.4485,163.808 46.5,158.5C 39.9331,152.888 34.9331,146.055 31.5,138C 33.4884,137.82 35.4884,137.986 37.5,138.5 Z"/></g>
<g><path style="opacity:1" fill="#161b21" d="M 173.5,252.5 C 175.355,252.728 176.188,252.061 176,250.5C 174.429,248.077 172.263,246.744 169.5,246.5C 169.611,245.883 169.944,245.383 170.5,245C 160.243,245.677 150.576,243.677 141.5,239C 140.667,238.167 139.833,237.333 139,236.5C 136.287,228.826 133.121,221.492 129.5,214.5C 130.774,212.007 131.44,209.341 131.5,206.5C 139.528,202.465 146.528,196.965 152.5,190C 145.686,193.55 138.352,196.05 130.5,197.5C 129.209,197.737 128.209,197.404 127.5,196.5C 139.556,194.654 150.056,189.654 159,181.5C 159.47,180.423 159.303,179.423 158.5,178.5C 159.939,176.412 160.606,174.079 160.5,171.5C 159.167,171.5 157.833,171.5 156.5,171.5C 158.265,170.539 160.265,170.205 162.5,170.5C 162.343,171.873 162.51,173.207 163,174.5C 166.291,172.08 168.457,168.913 169.5,165C 165.612,162.194 164.612,158.694 166.5,154.5C 167.051,151.733 168.384,149.4 170.5,147.5C 169.902,146.205 169.402,144.872 169,143.5C 168,145.833 167,148.167 166,150.5C 162.4,153.354 159.4,152.687 157,148.5C 153.684,149.334 151.35,148.001 150,144.5C 149.066,145.858 148.232,147.192 147.5,148.5C 147.752,144.673 149.085,141.34 151.5,138.5C 151.338,140.527 151.505,142.527 152,144.5C 154.071,147.416 155.405,147.082 156,143.5C 162.427,153.475 166.427,152.475 168,140.5C 169,141.5 170,142.5 171,143.5C 169.924,136.287 167.257,129.621 163,123.5C 161.281,126.288 159.115,128.621 156.5,130.5C 159.846,124.641 164.18,119.474 169.5,115C 177.979,109.015 185.979,102.515 193.5,95.5C 197.048,92.0941 199.882,88.0941 202,83.5C 204.28,76.8802 205.446,70.0469 205.5,63C 205.94,51.9628 202.94,42.1295 196.5,33.5C 192.336,26.0733 186.003,21.5733 177.5,20C 152.463,18.4444 134.963,29.2777 125,52.5C 123.799,55.8668 123.632,59.2002 124.5,62.5C 123.609,61.8902 122.609,61.5569 121.5,61.5C 121.149,58.0968 120.482,54.7635 119.5,51.5C 120.65,52.8502 121.317,52.6836 121.5,51C 120.144,49.4329 119.477,47.5996 119.5,45.5C 120.265,46.6602 121.265,47.6602 122.5,48.5C 127.382,42.5735 132.382,36.7402 137.5,31C 134.409,26.2937 130.076,24.627 124.5,26C 121.812,30.9481 120.145,36.1148 119.5,41.5C 119.5,39.1667 119.5,36.8333 119.5,34.5C 119.98,29.874 121.813,25.874 125,22.5C 131.032,22.8476 135.699,25.5142 139,30.5C 141.043,28.2878 143.209,26.2878 145.5,24.5C 139.017,17.4805 131.684,16.6471 123.5,22C 111.535,33.6612 109.201,47.1612 116.5,62.5C 118.095,63.4339 119.761,63.4339 121.5,62.5C 118.668,65.1783 115.501,67.5116 112,69.5C 111.333,71.8333 111.333,74.1667 112,76.5C 113.039,75.2899 114.206,74.2899 115.5,73.5C 115.833,73.5 116.167,73.5 116.5,73.5C 115.177,76.7109 113.01,77.7109 110,76.5C 109.416,73.7433 109.75,71.0766 111,68.5C 112.896,67.3204 114.396,65.8204 115.5,64C 111.764,55.1803 110.598,46.0136 112,36.5C 115.817,22.3459 124.984,16.1792 139.5,18C 142.558,19.2177 145.224,21.051 147.5,23.5C 160.965,16.2511 174.631,15.7511 188.5,22C 195.708,27.2311 200.875,34.0644 204,42.5C 205.703,49.0861 207.036,55.7527 208,62.5C 208.786,59.4173 210.619,57.2506 213.5,56C 240.242,47.4614 265.908,36.4614 290.5,23C 292.81,22.5034 295.143,22.3367 297.5,22.5C 298.105,28.2328 296.938,33.5661 294,38.5C 290.917,43.5877 287.083,48.0877 282.5,52C 286.467,51.3128 290.467,51.4795 294.5,52.5C 295.565,54.8528 295.398,57.1861 294,59.5C 289.737,67.5525 283.57,73.7192 275.5,78C 278.854,78.4552 282.187,78.9552 285.5,79.5C 285.421,80.9305 285.754,82.2638 286.5,83.5C 285.161,87.3476 282.828,90.5142 279.5,93C 275.5,95 271.5,97 267.5,99C 272.584,101.163 273.751,104.663 271,109.5C 266.144,114.236 260.311,117.069 253.5,118C 257.213,119.691 258.379,122.525 257,126.5C 255.269,128.617 253.102,130.117 250.5,131C 247.08,131.517 243.747,132.35 240.5,133.5C 241.404,136.308 240.737,138.808 238.5,141C 233.875,143.704 228.875,145.038 223.5,145C 227.761,147.532 228.428,150.698 225.5,154.5C 219.92,156.584 214.253,156.917 208.5,155.5C 209.226,158.463 208.226,160.963 205.5,163C 199.796,163.687 194.13,163.521 188.5,162.5C 188.573,166.481 186.573,168.147 182.5,167.5C 178.295,167.314 174.795,165.648 172,162.5C 170.867,169.764 167.867,176.097 163,181.5C 156.524,187.645 150.357,194.145 144.5,201C 140.361,203.479 136.528,206.313 133,209.5C 133.582,219.029 136.249,228.029 141,236.5C 150.256,242.355 160.422,244.855 171.5,244C 173.667,245.5 175.5,247.333 177,249.5C 177.973,254.212 176.807,255.212 173.5,252.5 Z M 191.5,100.5 C 190.457,103.056 188.79,105.223 186.5,107C 183.299,109.267 179.966,110.934 176.5,112C 181.17,107.673 186.17,103.84 191.5,100.5 Z M 119.5,45.5 C 119.5,44.1667 119.5,42.8333 119.5,41.5C 120.145,36.1148 121.812,30.9481 124.5,26C 130.076,24.627 134.409,26.2937 137.5,31C 132.382,36.7402 127.382,42.5735 122.5,48.5C 121.265,47.6602 120.265,46.6602 119.5,45.5 Z"/></g>
<g><path style="opacity:1" fill="#01915e" d="M 166.5,154.5 C 167.885,153.426 169.051,152.093 170,150.5C 170.827,154.541 170.66,158.541 169.5,162.5C 166.828,160.575 165.828,157.908 166.5,154.5 Z"/></g>
<g><path style="opacity:1" fill="#35311a" d="M 127.5,66.5 C 130.855,68.1853 131.189,70.1853 128.5,72.5C 128.167,72.5 127.833,72.5 127.5,72.5C 126.551,71.8476 125.385,71.5143 124,71.5C 121.779,71.3932 119.946,72.0598 118.5,73.5C 118.167,73.5 117.833,73.5 117.5,73.5C 117.167,73.5 116.833,73.5 116.5,73.5C 116.167,73.5 115.833,73.5 115.5,73.5C 116.6,72.4415 117.934,71.6082 119.5,71C 122.576,70.6543 125.576,69.9876 128.5,69C 127.748,68.3292 127.414,67.4959 127.5,66.5 Z"/></g>
<g><path style="opacity:1" fill="#ceb702" d="M 127.5,72.5 C 124.713,73.4767 121.713,73.81 118.5,73.5C 119.946,72.0598 121.779,71.3932 124,71.5C 125.385,71.5143 126.551,71.8476 127.5,72.5 Z"/></g>
<g><path style="opacity:1" fill="#eed201" d="M 121.5,61.5 C 122.609,61.5569 123.609,61.8902 124.5,62.5C 125.026,64.2303 126.026,65.5637 127.5,66.5C 127.414,67.4959 127.748,68.3292 128.5,69C 125.576,69.9876 122.576,70.6543 119.5,71C 117.934,71.6082 116.6,72.4415 115.5,73.5C 114.206,74.2899 113.039,75.2899 112,76.5C 111.333,74.1667 111.333,71.8333 112,69.5C 115.501,67.5116 118.668,65.1783 121.5,62.5C 121.5,62.1667 121.5,61.8333 121.5,61.5 Z"/></g>
<g><path style="opacity:1" fill="#8c8d8d" d="M 226.5,54.5 C 221.845,56.9498 217.678,60.2832 214,64.5C 211.404,78.9596 206.071,92.293 198,104.5C 188.632,113.768 177.465,119.768 164.5,122.5C 166.294,120.203 168.294,118.037 170.5,116C 186.269,112.237 197.102,102.737 203,87.5C 206.445,78.7155 209.112,69.7155 211,60.5C 215.58,57.0282 220.746,55.0282 226.5,54.5 Z"/></g>
<g><path style="opacity:1" fill="#662c3f" d="M 119.5,34.5 C 119.5,36.8333 119.5,39.1667 119.5,41.5C 119.5,42.8333 119.5,44.1667 119.5,45.5C 119.477,47.5996 120.144,49.4329 121.5,51C 121.317,52.6836 120.65,52.8502 119.5,51.5C 118.238,45.7032 118.238,40.0366 119.5,34.5 Z"/></g>
<g><path style="opacity:1" fill="#575758" d="M 252.5,45.5 C 251.942,46.7899 250.942,47.6232 249.5,48C 250.167,48.1667 250.833,48.3333 251.5,48.5C 253.703,47.2326 256.037,46.2326 258.5,45.5C 249.616,51.5438 241.116,58.2105 233,65.5C 229.783,75.5436 227.783,85.8769 227,96.5C 218.693,125.585 199.526,137.251 169.5,131.5C 166.716,129.048 167.049,127.048 170.5,125.5C 169.178,125.33 168.011,125.663 167,126.5C 166.338,125.016 165.504,123.683 164.5,122.5C 177.465,119.768 188.632,113.768 198,104.5C 206.071,92.293 211.404,78.9596 214,64.5C 217.678,60.2832 221.845,56.9498 226.5,54.5C 229.483,51.8343 232.816,50.8343 236.5,51.5C 241.823,49.5067 247.156,47.5067 252.5,45.5 Z"/></g>
<g><path style="opacity:1" fill="#1c2126" d="M 170.5,125.5 C 180.679,121.153 189.846,115.153 198,107.5C 202.424,101.658 206.091,95.3243 209,88.5C 211.216,80.6164 213.882,72.9497 217,65.5C 214.288,80.6215 208.622,94.6215 200,107.5C 192.05,116.622 182.217,122.622 170.5,125.5 Z"/></g>
<g><path style="opacity:1" fill="#7f8081" d="M 250.5,44.5 C 251.167,44.5 251.833,44.5 252.5,44.5C 252.5,44.8333 252.5,45.1667 252.5,45.5C 247.156,47.5067 241.823,49.5067 236.5,51.5C 236.369,50.6236 236.702,49.9569 237.5,49.5C 241.779,47.6304 246.112,45.9637 250.5,44.5 Z"/></g>
<g><path style="opacity:1" fill="#4b4c4e" d="M 252.5,44.5 C 251.833,44.5 251.167,44.5 250.5,44.5C 259.605,40.3674 268.772,36.0341 278,31.5C 278.5,31.6667 279,31.8333 279.5,32C 270.848,35.9914 262.514,40.4914 254.5,45.5C 253.817,45.1373 253.15,44.8039 252.5,44.5 Z"/></g>
<g><path style="opacity:1" fill="#d54d6e" d="M 119.5,34.5 C 118.238,40.0366 118.238,45.7032 119.5,51.5C 120.482,54.7635 121.149,58.0968 121.5,61.5C 121.5,61.8333 121.5,62.1667 121.5,62.5C 119.761,63.4339 118.095,63.4339 116.5,62.5C 109.201,47.1612 111.535,33.6612 123.5,22C 131.684,16.6471 139.017,17.4805 145.5,24.5C 143.209,26.2878 141.043,28.2878 139,30.5C 135.699,25.5142 131.032,22.8476 125,22.5C 121.813,25.874 119.98,29.874 119.5,34.5 Z"/></g>
<g><path style="opacity:1" fill="#909191" d="M 169.5,131.5 C 199.526,137.251 218.693,125.585 227,96.5C 227.783,85.8769 229.783,75.5436 233,65.5C 241.116,58.2105 249.616,51.5438 258.5,45.5C 266.105,41.3617 273.771,37.195 281.5,33C 285.344,30.578 289.01,27.9113 292.5,25C 293.793,24.51 295.127,24.3433 296.5,24.5C 295.628,30.8763 293.128,36.5429 289,41.5C 279.797,52.3719 268.631,60.5386 255.5,66C 256.5,66.6667 257.5,66.6667 258.5,66C 268.123,59.8551 278.456,55.3551 289.5,52.5C 291.955,52.112 293.288,53.112 293.5,55.5C 284.308,71.949 270.308,81.7823 251.5,85C 260.093,83.423 268.759,81.923 277.5,80.5C 279.5,80.6667 281.5,80.8333 283.5,81C 284.554,82.3876 284.72,83.8876 284,85.5C 275.337,93.4157 265.17,98.5824 253.5,101C 258.5,101.333 263.5,101.667 268.5,102C 270.988,105.448 270.322,108.448 266.5,111C 262.312,113.062 257.979,114.729 253.5,116C 245.5,116.333 237.5,116.667 229.5,117C 237.554,117.747 245.554,118.747 253.5,120C 257.376,122.128 257.376,124.461 253.5,127C 247.867,129.078 242.033,130.245 236,130.5C 230.489,129.433 224.989,128.599 219.5,128C 225.416,129.979 231.416,131.646 237.5,133C 240.167,135 240.167,137 237.5,139C 235.043,140.562 232.376,141.562 229.5,142C 223.796,142.456 218.13,142.456 212.5,142C 217.118,143.281 221.284,145.448 225,148.5C 225.825,150.701 225.325,152.534 223.5,154C 212.803,156.074 203.136,153.907 194.5,147.5C 193.707,148.355 194.04,149.189 195.5,150C 198.912,151.455 202.079,153.288 205,155.5C 207.145,157.895 206.978,160.062 204.5,162C 195.333,163.251 187.333,160.751 180.5,154.5C 180.167,154.667 179.833,154.833 179.5,155C 182.272,157.688 184.938,160.354 187.5,163C 186.942,165.058 185.609,166.225 183.5,166.5C 179.293,166.246 175.793,164.579 173,161.5C 172.72,156.803 172.22,152.137 171.5,147.5C 171.972,145.693 172.306,143.86 172.5,142C 171.646,138.459 170.646,134.959 169.5,131.5 Z"/></g>
<g><path style="opacity:1" fill="#e05073" d="M 196.5,33.5 C 194.343,31.5879 192.009,29.9213 189.5,28.5C 174.601,23.0172 161.934,26.3505 151.5,38.5C 157.155,40.1084 162.822,41.6084 168.5,43C 163.793,51.5813 158.96,60.0813 154,68.5C 151.152,71.1521 147.985,73.1521 144.5,74.5C 144.167,74.5 143.833,74.5 143.5,74.5C 139.486,74.6655 135.486,74.4988 131.5,74C 130.263,73.7679 129.263,73.2679 128.5,72.5C 131.189,70.1853 130.855,68.1853 127.5,66.5C 126.026,65.5637 125.026,64.2303 124.5,62.5C 123.632,59.2002 123.799,55.8668 125,52.5C 134.963,29.2777 152.463,18.4444 177.5,20C 186.003,21.5733 192.336,26.0733 196.5,33.5 Z"/></g>
<g><path style="opacity:1" fill="#3c2f2a" d="M 147.5,63.5 C 146.871,65.9971 145.204,67.3304 142.5,67.5C 142.932,66.2905 143.599,65.2905 144.5,64.5C 144.435,64.9382 144.601,65.2716 145,65.5C 145.708,64.6195 146.542,63.9528 147.5,63.5 Z"/></g>
<g><path style="opacity:1" fill="#2f2e31" d="M 134.5,61.5 C 134.285,63.1788 134.952,64.1788 136.5,64.5C 137.006,62.8946 137.673,62.5613 138.5,63.5C 138.833,65.8333 140.167,67.1667 142.5,67.5C 139.713,68.4767 136.713,68.81 133.5,68.5C 133.198,65.9407 133.532,63.6074 134.5,61.5 Z"/></g>
<g><path style="opacity:1" fill="#edeeee" d="M 136.5,64.5 C 139.481,67.1224 139.148,67.789 135.5,66.5C 135.863,65.8165 136.196,65.1499 136.5,64.5 Z"/></g>
<g><path style="opacity:1" fill="#dac219" d="M 144.5,63.5 C 144.5,63.8333 144.5,64.1667 144.5,64.5C 143.599,65.2905 142.932,66.2905 142.5,67.5C 140.167,67.1667 138.833,65.8333 138.5,63.5C 139.167,63.5 139.833,63.5 140.5,63.5C 141.507,63.5476 141.84,62.5476 141.5,60.5C 142.5,60.5 143.5,60.5 144.5,60.5C 144.5,61.5 144.5,62.5 144.5,63.5 Z"/></g>
<g><path style="opacity:1" fill="#e6e7e7" d="M 148.5,61.5 C 147.662,61.8417 147.328,62.5084 147.5,63.5C 146.542,63.9528 145.708,64.6195 145,65.5C 144.601,65.2716 144.435,64.9382 144.5,64.5C 144.5,64.1667 144.5,63.8333 144.5,63.5C 145.451,62.0813 145.784,60.4147 145.5,58.5C 146.5,58.5 147.5,58.5 148.5,58.5C 148.5,59.5 148.5,60.5 148.5,61.5 Z"/></g>
<g><path style="opacity:1" fill="#3d3b3d" d="M 148.5,61.5 C 148.5,60.5 148.5,59.5 148.5,58.5C 147.5,58.5 146.5,58.5 145.5,58.5C 145.784,60.4147 145.451,62.0813 144.5,63.5C 144.5,62.5 144.5,61.5 144.5,60.5C 143.5,60.5 142.5,60.5 141.5,60.5C 141.84,62.5476 141.507,63.5476 140.5,63.5C 139.697,62.5768 139.53,61.5768 140,60.5C 147.273,57.2118 147.106,55.7118 139.5,56C 138.295,57.3756 136.962,58.5423 135.5,59.5C 138.473,53.3577 142.973,52.0243 149,55.5C 149.789,57.7116 149.622,59.7116 148.5,61.5 Z"/></g>
<g><path style="opacity:1" fill="#868888" d="M 140.5,63.5 C 139.833,63.5 139.167,63.5 138.5,63.5C 137.673,62.5613 137.006,62.8946 136.5,64.5C 134.952,64.1788 134.285,63.1788 134.5,61.5C 134.328,60.5084 134.662,59.8417 135.5,59.5C 136.962,58.5423 138.295,57.3756 139.5,56C 147.106,55.7118 147.273,57.2118 140,60.5C 139.53,61.5768 139.697,62.5768 140.5,63.5 Z"/></g>
<g><path style="opacity:1" fill="#01905d" d="M 142.5,168.5 C 141.136,166.809 139.803,165.142 138.5,163.5C 140.111,154.582 142.944,154.249 147,162.5C 148.568,166.917 147.068,168.917 142.5,168.5 Z"/></g>
<g><path style="opacity:1" fill="#1b2025" d="M 128.5,114.5 C 131.056,115.543 133.223,117.21 135,119.5C 143.048,134.984 141.882,149.817 131.5,164C 132.056,164.383 132.389,164.883 132.5,165.5C 127.059,169.766 121.726,174.266 116.5,179C 112.797,181.354 108.797,182.854 104.5,183.5C 104.918,182.778 105.584,182.278 106.5,182C 92.4364,183.225 80.1031,179.392 69.5,170.5C 67.8196,168.473 66.6529,166.139 66,163.5C 65.4476,158.423 65.4476,153.423 66,148.5C 65.0853,149.328 64.4186,150.328 64,151.5C 62.992,149.741 61.492,148.574 59.5,148C 52.4743,145.151 45.4743,142.318 38.5,139.5C 40.4048,139.094 42.4048,138.761 44.5,138.5C 40.5866,135.618 40.5866,132.785 44.5,130C 48.3896,127.053 52.7229,125.22 57.5,124.5C 51.9221,126.63 46.9221,129.796 42.5,134C 46.156,140.825 51.8226,144.659 59.5,145.5C 59.799,141.47 60.799,137.637 62.5,134C 66.5068,133.287 70.3402,133.787 74,135.5C 73.5089,132.819 72.6756,130.153 71.5,127.5C 73.2225,129.253 74.7225,131.253 76,133.5C 77.1882,132.437 77.6882,131.103 77.5,129.5C 78.1667,130.167 78.8333,130.833 79.5,131.5C 78.3747,133.129 77.0414,134.629 75.5,136C 76.7588,136.923 78.0921,137.757 79.5,138.5C 76.9309,142.597 76.9309,146.597 79.5,150.5C 78.5416,150.047 77.7083,149.381 77,148.5C 76.3159,145.62 76.4826,142.787 77.5,140C 76.9019,138.699 75.9019,137.865 74.5,137.5C 66.1031,146.774 64.6031,157.107 70,168.5C 71.7772,170.79 73.9438,172.457 76.5,173.5C 83.2465,178.438 90.9131,180.438 99.5,179.5C 103.167,179.333 106.833,179.167 110.5,179C 110.833,178.667 111.167,178.333 111.5,178C 109.09,177.943 107.756,176.776 107.5,174.5C 110.09,173.872 112.423,172.705 114.5,171C 113.944,170.617 113.611,170.117 113.5,169.5C 114.609,169.557 115.609,169.89 116.5,170.5C 120.901,171.13 124.568,169.797 127.5,166.5C 137.488,154.564 140.488,141.231 136.5,126.5C 134.836,121.841 132.169,117.841 128.5,114.5 Z"/></g>
<g><path style="opacity:1" fill="#2f3338" d="M 79.5,150.5 C 82.7635,151.482 86.0968,152.149 89.5,152.5C 87.8636,157.334 88.197,162.001 90.5,166.5C 89.2101,165.942 88.3768,164.942 88,163.5C 87.2585,160.438 87.4252,157.438 88.5,154.5C 86.5767,153.692 84.5767,153.192 82.5,153C 81.0577,152.623 80.0577,151.79 79.5,150.5 Z"/></g>
<g><path style="opacity:1" fill="#2a2e34" d="M 86.5,135.5 C 83.005,140.884 84.3383,144.218 90.5,145.5C 93.8014,144.446 97.1347,143.946 100.5,144C 96.2437,149.21 95.577,154.71 98.5,160.5C 95.8619,159.758 94.5286,157.925 94.5,155C 95.0029,151.991 96.0029,149.158 97.5,146.5C 93.6195,146.412 89.6195,146.246 85.5,146C 82.7441,142.037 82.9107,138.204 86,134.5C 86.3988,134.728 86.5654,135.062 86.5,135.5 Z"/></g>
<g><path style="opacity:1" fill="#909191" d="M 79.5,150.5 C 80.0577,151.79 81.0577,152.623 82.5,153C 84.5767,153.192 86.5767,153.692 88.5,154.5C 87.4252,157.438 87.2585,160.438 88,163.5C 88.3768,164.942 89.2101,165.942 90.5,166.5C 91.7489,168.136 93.4156,169.303 95.5,170C 99.2027,170.579 102.869,170.412 106.5,169.5C 106.5,171.5 106.5,173.5 106.5,175.5C 96.3415,177.157 86.3415,176.49 76.5,173.5C 73.9438,172.457 71.7772,170.79 70,168.5C 64.6031,157.107 66.1031,146.774 74.5,137.5C 75.9019,137.865 76.9019,138.699 77.5,140C 76.4826,142.787 76.3159,145.62 77,148.5C 77.7083,149.381 78.5416,150.047 79.5,150.5 Z"/></g>
<g><path style="opacity:1" fill="#6a6a6b" d="M 79.5,131.5 C 82.5,132.167 85.5,132.833 88.5,133.5C 88.1667,134.5 87.5,135.167 86.5,135.5C 86.5654,135.062 86.3988,134.728 86,134.5C 82.9107,138.204 82.7441,142.037 85.5,146C 89.6195,146.246 93.6195,146.412 97.5,146.5C 96.0029,149.158 95.0029,151.991 94.5,155C 94.5286,157.925 95.8619,159.758 98.5,160.5C 98.6107,161.117 98.944,161.617 99.5,162C 101,162.167 102.5,162.333 104,162.5C 106.544,162.664 108.71,161.997 110.5,160.5C 111.765,159.521 113.099,158.521 114.5,157.5C 114.833,157.833 115.167,158.167 115.5,158.5C 113.776,161.95 113.109,165.617 113.5,169.5C 113.611,170.117 113.944,170.617 114.5,171C 112.423,172.705 110.09,173.872 107.5,174.5C 107.5,172.5 107.5,170.5 107.5,168.5C 101.647,168.949 95.98,168.283 90.5,166.5C 88.197,162.001 87.8636,157.334 89.5,152.5C 86.0968,152.149 82.7635,151.482 79.5,150.5C 76.9309,146.597 76.9309,142.597 79.5,138.5C 78.0921,137.757 76.7588,136.923 75.5,136C 77.0414,134.629 78.3747,133.129 79.5,131.5 Z"/></g>
<g><path style="opacity:1" fill="#585959" d="M 136.5,126.5 C 140.488,141.231 137.488,154.564 127.5,166.5C 124.568,169.797 120.901,171.13 116.5,170.5C 128.567,158.36 135.234,143.693 136.5,126.5 Z"/></g>
<g><path style="opacity:1" fill="#142023" d="M 142.5,168.5 C 147.068,168.917 148.568,166.917 147,162.5C 142.944,154.249 140.111,154.582 138.5,163.5C 137.169,160.939 137.502,158.439 139.5,156C 142.636,154.959 145.136,155.793 147,158.5C 148.483,161.702 148.817,165.036 148,168.5C 146.057,169.807 144.223,169.807 142.5,168.5 Z"/></g>
<g><path style="opacity:1" fill="#323232" d="M 46.5,158.5 C 53.4485,163.808 61.1152,167.808 69.5,170.5C 80.1031,179.392 92.4364,183.225 106.5,182C 105.584,182.278 104.918,182.778 104.5,183.5C 104.5,184.167 104.167,184.5 103.5,184.5C 79.6407,186.402 60.6407,177.736 46.5,158.5 Z"/></g>
<g><path style="opacity:1" fill="#1a1f25" d="M 98.5,160.5 C 102.484,161.743 106.484,161.743 110.5,160.5C 108.71,161.997 106.544,162.664 104,162.5C 102.5,162.333 101,162.167 99.5,162C 98.944,161.617 98.6107,161.117 98.5,160.5 Z"/></g>
<g><path style="opacity:1" fill="#009761" d="M 132.5,165.5 C 132.539,166.583 132.873,167.583 133.5,168.5C 129.52,171.565 129.52,174.565 133.5,177.5C 135.998,174.206 138.998,173.706 142.5,176C 142.063,178.217 142.063,180.551 142.5,183C 147.98,184.188 149.98,182.188 148.5,177C 151.059,174.897 153.726,173.064 156.5,171.5C 157.833,171.5 159.167,171.5 160.5,171.5C 160.606,174.079 159.939,176.412 158.5,178.5C 153.211,182.149 147.544,185.316 141.5,188C 131.069,190.551 120.735,193.051 110.5,195.5C 108.973,195.427 107.973,196.094 107.5,197.5C 101.391,200.724 95.391,204.224 89.5,208C 86.408,208.736 83.408,208.569 80.5,207.5C 79.2525,199.692 79.2525,192.025 80.5,184.5C 88.1667,185.833 95.8333,185.833 103.5,184.5C 104.167,184.5 104.5,184.167 104.5,183.5C 108.797,182.854 112.797,181.354 116.5,179C 121.726,174.266 127.059,169.766 132.5,165.5 Z"/></g>
<g><path style="opacity:1" fill="#515253" d="M 90.5,166.5 C 95.98,168.283 101.647,168.949 107.5,168.5C 107.5,170.5 107.5,172.5 107.5,174.5C 107.756,176.776 109.09,177.943 111.5,178C 111.167,178.333 110.833,178.667 110.5,179C 106.833,179.167 103.167,179.333 99.5,179.5C 90.9131,180.438 83.2465,178.438 76.5,173.5C 86.3415,176.49 96.3415,177.157 106.5,175.5C 106.5,173.5 106.5,171.5 106.5,169.5C 102.869,170.412 99.2027,170.579 95.5,170C 93.4156,169.303 91.7489,168.136 90.5,166.5 Z"/></g>
<g><path style="opacity:1" fill="#008454" d="M 158.5,178.5 C 159.303,179.423 159.47,180.423 159,181.5C 150.056,189.654 139.556,194.654 127.5,196.5C 121.528,197.474 115.528,197.641 109.5,197C 110.056,196.617 110.389,196.117 110.5,195.5C 120.735,193.051 131.069,190.551 141.5,188C 147.544,185.316 153.211,182.149 158.5,178.5 Z"/></g>
<g><path style="opacity:1" fill="#017c50" d="M 80.5,184.5 C 79.2525,192.025 79.2525,199.692 80.5,207.5C 78.8639,206.251 77.6972,204.584 77,202.5C 75.1831,196.915 73.6831,191.248 72.5,185.5C 70.4925,183.992 68.8259,182.158 67.5,180C 71.8578,181.397 76.1912,182.897 80.5,184.5 Z"/></g>
<g><path style="opacity:0.728" fill="#13181e" d="M 117.5,73.5 C 117.833,73.5 118.167,73.5 118.5,73.5C 121.713,73.81 124.713,73.4767 127.5,72.5C 127.833,72.5 128.167,72.5 128.5,72.5C 129.263,73.2679 130.263,73.7679 131.5,74C 135.486,74.4988 139.486,74.6655 143.5,74.5C 143.5,75.1667 143.167,75.5 142.5,75.5C 137.107,75.5057 131.773,75.339 126.5,75C 127.252,75.6708 127.586,76.5041 127.5,77.5C 128.728,78.3065 129.728,79.3065 130.5,80.5C 131.167,82.5 131.833,84.5 132.5,86.5C 131.637,85.537 130.97,85.537 130.5,86.5C 131.443,91.1001 131.777,95.7668 131.5,100.5C 130.398,104.708 128.731,108.708 126.5,112.5C 127.243,113.182 127.909,113.849 128.5,114.5C 124.286,113.341 120.119,113.341 116,114.5C 115.242,120.891 115.576,127.224 117,133.5C 118.956,139.735 121.623,145.402 125,150.5C 113.605,141.716 107.439,130.049 106.5,115.5C 97.2487,118.791 88.9153,123.624 81.5,130C 83.962,131.216 86.6287,131.882 89.5,132C 88.944,132.383 88.6107,132.883 88.5,133.5C 85.5,132.833 82.5,132.167 79.5,131.5C 78.8333,130.833 78.1667,130.167 77.5,129.5C 74.2252,123.269 70.2252,117.603 65.5,112.5C 52.9847,96.6444 38.3181,83.3111 21.5,72.5C 19.0495,69.7232 16.0495,67.7232 12.5,66.5C 9.72574,63.4355 6.39241,62.1022 2.5,62.5C 6.81306,81.1125 13.4797,98.7791 22.5,115.5C 26.3533,124 31.3533,131.666 37.5,138.5C 35.4884,137.986 33.4884,137.82 31.5,138C 34.9331,146.055 39.9331,152.888 46.5,158.5C 60.6407,177.736 79.6407,186.402 103.5,184.5C 95.8333,185.833 88.1667,185.833 80.5,184.5C 76.1912,182.897 71.8578,181.397 67.5,180C 68.8259,182.158 70.4925,183.992 72.5,185.5C 73.6831,191.248 75.1831,196.915 77,202.5C 77.6972,204.584 78.8639,206.251 80.5,207.5C 83.408,208.569 86.408,208.736 89.5,208C 95.391,204.224 101.391,200.724 107.5,197.5C 110.634,198.035 113.634,199.035 116.5,200.5C 118.167,202.833 120.167,204.833 122.5,206.5C 120.688,210.068 121.688,212.568 125.5,214C 123.641,214.601 123.308,215.434 124.5,216.5C 124.5,217.5 124.5,218.5 124.5,219.5C 122.801,219.34 121.134,219.506 119.5,220C 124.86,225.02 129.027,230.853 132,237.5C 132.497,240.146 132.664,242.813 132.5,245.5C 132.526,249.892 134.859,251.892 139.5,251.5C 145.8,253.442 151.466,256.609 156.5,261C 158.157,261.725 159.157,261.225 159.5,259.5C 158.833,259.5 158.5,259.167 158.5,258.5C 158.5,257.5 158.5,256.5 158.5,255.5C 159.833,255.5 161.167,255.5 162.5,255.5C 166.016,255.221 169.349,256.221 172.5,258.5C 173.386,257.675 173.719,256.675 173.5,255.5C 174.451,256.919 174.784,258.585 174.5,260.5C 172.09,259.937 169.757,259.437 167.5,259C 169.016,260.897 169.683,263.064 169.5,265.5C 164.844,263.283 159.844,262.116 154.5,262C 153.5,261 152.5,260 151.5,259C 144.909,255.868 138.242,253.034 131.5,250.5C 130.895,244.804 130.062,239.137 129,233.5C 125.734,228.397 121.9,223.73 117.5,219.5C 119.423,218.692 121.423,218.192 123.5,218C 121.324,214.489 119.824,210.656 119,206.5C 116.791,204.627 114.958,202.46 113.5,200C 110.036,199.183 106.702,199.517 103.5,201C 99.1019,204.394 94.4352,207.394 89.5,210C 82.873,223.48 80.7063,237.647 83,252.5C 87.9493,257.824 94.1159,260.657 101.5,261C 106.717,264.878 108.217,269.711 106,275.5C 102.693,271.902 98.8599,270.902 94.5,272.5C 94.5999,275.667 93.9332,278.667 92.5,281.5C 89.5583,282.458 87.5583,281.291 86.5,278C 84.1523,277.654 82.3189,276.487 81,274.5C 79.6541,271.13 77.8208,268.13 75.5,265.5C 71.9919,270.504 67.9919,275.004 63.5,279C 61.892,279.658 60.7253,279.158 60,277.5C 57.7898,269.471 60.2898,263.304 67.5,259C 66.9186,258.107 66.5852,257.107 66.5,256C 69.1884,249.599 70.855,242.932 71.5,236C 70.5,230.333 69.5,224.667 68.5,219C 68.8333,218.167 69.1667,217.333 69.5,216.5C 71.3325,217.248 72.9991,218.248 74.5,219.5C 75.6632,213.863 75.8299,208.196 75,202.5C 73.6833,197.9 72.6833,193.234 72,188.5C 69.112,185.278 66.612,181.778 64.5,178C 48.5589,168.053 36.8923,154.387 29.5,137C 30.0223,136.05 30.689,135.216 31.5,134.5C 15.2323,112.035 5.23231,87.0349 1.5,59.5C 7.61872,60.8909 13.2854,63.3909 18.5,67C 43,83.5 63.5,104 80,128.5C 87.9347,121.282 97.1014,116.282 107.5,113.5C 108.036,108.69 109.203,104.023 111,99.5C 115.121,91.422 119.621,83.5886 124.5,76C 122.167,74.957 119.834,74.1237 117.5,73.5 Z M 128.5,89.5 C 130.884,93.8079 131.051,98.4746 129,103.5C 127.56,109.837 123.726,112.837 117.5,112.5C 117.687,110.436 118.187,108.436 119,106.5C 121.684,100.456 124.851,94.7891 128.5,89.5 Z"/></g>
<g><path style="opacity:1" fill="#046e49" d="M 66.5,139.5 C 67.675,139.281 68.675,139.614 69.5,140.5C 65.7975,148.703 64.7975,148.37 66.5,139.5 Z"/></g>
<g><path style="opacity:1" fill="#565657" d="M 57.5,124.5 C 62.7157,123.805 67.3823,124.805 71.5,127.5C 72.6756,130.153 73.5089,132.819 74,135.5C 70.3402,133.787 66.5068,133.287 62.5,134C 60.799,137.637 59.799,141.47 59.5,145.5C 51.8226,144.659 46.156,140.825 42.5,134C 46.9221,129.796 51.9221,126.63 57.5,124.5 Z"/></g>
<g><path style="opacity:1" fill="#2e2f30" d="M 39.5,109.5 C 36.8333,111.833 34.1667,114.167 31.5,116.5C 32.6045,119.722 34.4378,122.389 37,124.5C 41.4646,121.688 45.9646,119.021 50.5,116.5C 54.3269,115.733 57.9936,114.733 61.5,113.5C 63.099,113.768 64.4324,113.434 65.5,112.5C 70.2252,117.603 74.2252,123.269 77.5,129.5C 77.6882,131.103 77.1882,132.437 76,133.5C 74.7225,131.253 73.2225,129.253 71.5,127.5C 67.3823,124.805 62.7157,123.805 57.5,124.5C 52.7229,125.22 48.3896,127.053 44.5,130C 40.5866,132.785 40.5866,135.618 44.5,138.5C 42.4048,138.761 40.4048,139.094 38.5,139.5C 37.8333,139.5 37.5,139.167 37.5,138.5C 31.3533,131.666 26.3533,124 22.5,115.5C 24.7925,115.244 26.9592,115.577 29,116.5C 31.9556,113.278 35.4556,110.944 39.5,109.5 Z"/></g>
<g><path style="opacity:1" fill="#585859" d="M 31.5,116.5 C 37.8333,116.5 44.1667,116.5 50.5,116.5C 45.9646,119.021 41.4646,121.688 37,124.5C 34.4378,122.389 32.6045,119.722 31.5,116.5 Z"/></g>
<g><path style="opacity:1" fill="#8f9091" d="M 61.5,113.5 C 57.9936,114.733 54.3269,115.733 50.5,116.5C 44.1667,116.5 37.8333,116.5 31.5,116.5C 34.1667,114.167 36.8333,111.833 39.5,109.5C 45.0368,107.709 50.7035,107.209 56.5,108C 57.6635,110.328 59.3302,112.162 61.5,113.5 Z"/></g>
<g><path style="opacity:1" fill="#d74d6f" d="M 127.5,77.5 C 128.545,80.1138 129.045,82.7804 129,85.5C 124.747,92.3372 120.747,99.3372 117,106.5C 114.182,113.255 113.182,120.255 114,127.5C 115.446,131.814 116.446,136.147 117,140.5C 105.766,124.3 105.766,107.967 117,91.5C 120.252,86.6657 123.252,81.6657 126,76.5C 126.383,77.056 126.883,77.3893 127.5,77.5 Z"/></g>
<g><path style="opacity:1" fill="#424448" d="M 12.5,66.5 C 16.0495,67.7232 19.0495,69.7232 21.5,72.5C 20.9569,72.56 20.6236,72.8933 20.5,73.5C 21.5,74.3333 22.5,75.1667 23.5,76C 21.4473,76.3247 19.4473,75.9913 17.5,75C 18.8333,74.3333 18.8333,73.6667 17.5,73C 14.9655,71.0657 12.2988,69.7323 9.5,69C 11.0374,71.3128 11.5374,73.8128 11,76.5C 8.87624,73.3331 8.37624,69.9997 9.5,66.5C 10.5272,67.7914 11.5272,67.7914 12.5,66.5 Z"/></g>
<g><path style="opacity:1" fill="#68686a" d="M 12.5,66.5 C 11.5272,67.7914 10.5272,67.7914 9.5,66.5C 8.37624,69.9997 8.87624,73.3331 11,76.5C 11.5374,73.8128 11.0374,71.3128 9.5,69C 12.2988,69.7323 14.9655,71.0657 17.5,73C 18.8333,73.6667 18.8333,74.3333 17.5,75C 19.4473,75.9913 21.4473,76.3247 23.5,76C 22.5,75.1667 21.5,74.3333 20.5,73.5C 20.6236,72.8933 20.9569,72.56 21.5,72.5C 38.3181,83.3111 52.9847,96.6444 65.5,112.5C 64.4324,113.434 63.099,113.768 61.5,113.5C 59.3302,112.162 57.6635,110.328 56.5,108C 50.7035,107.209 45.0368,107.709 39.5,109.5C 35.4556,110.944 31.9556,113.278 29,116.5C 26.9592,115.577 24.7925,115.244 22.5,115.5C 13.4797,98.7791 6.81306,81.1125 2.5,62.5C 6.39241,62.1022 9.72574,63.4355 12.5,66.5 Z"/></g>
<g><path style="opacity:1" fill="#22272d" d="M 23.5,102.5 C 23.795,104.423 24.6283,106.09 26,107.5C 27.451,105.536 29.2843,104.203 31.5,103.5C 25.885,111.778 22.7184,110.778 22,100.5C 22.2784,101.416 22.7784,102.082 23.5,102.5 Z"/></g>
<g><path style="opacity:1" fill="#909191" d="M 31.5,103.5 C 29.2843,104.203 27.451,105.536 26,107.5C 24.6283,106.09 23.795,104.423 23.5,102.5C 24.9894,98.8467 27.6561,96.3467 31.5,95C 37.4163,93.5919 42.7497,94.5919 47.5,98C 43.7808,98.3884 40.1141,99.0551 36.5,100C 34.4156,100.697 32.7489,101.864 31.5,103.5 Z"/></g>
<g><path style="opacity:1" fill="#303439" d="M 23.5,86.5 C 25.0261,84.87 27.0261,84.0367 29.5,84C 26.382,82.107 23.0487,80.7736 19.5,80C 23.0527,79.4024 26.386,80.0691 29.5,82C 32.672,83.7519 35.672,85.7519 38.5,88C 33.6072,87.0984 28.6072,86.5984 23.5,86.5 Z"/></g>
<g><path style="opacity:1" fill="#181d23" d="M 23.5,86.5 C 22.941,89.8434 21.6077,92.8434 19.5,95.5C 18.3384,90.8687 18.1717,86.202 19,81.5C 19.3333,85.1667 19.6667,88.8333 20,92.5C 20.4238,89.9746 21.5905,87.9746 23.5,86.5 Z"/></g>
<g><path style="opacity:1" fill="#018c5a" d="M 131.5,206.5 C 128.5,207.833 125.5,207.833 122.5,206.5C 120.167,204.833 118.167,202.833 116.5,200.5C 121.167,199.5 125.833,198.5 130.5,197.5C 138.352,196.05 145.686,193.55 152.5,190C 146.528,196.965 139.528,202.465 131.5,206.5 Z"/></g>
<g><path style="opacity:1" fill="#0b382d" d="M 110.5,195.5 C 110.389,196.117 110.056,196.617 109.5,197C 115.528,197.641 121.528,197.474 127.5,196.5C 128.209,197.404 129.209,197.737 130.5,197.5C 125.833,198.5 121.167,199.5 116.5,200.5C 113.634,199.035 110.634,198.035 107.5,197.5C 107.973,196.094 108.973,195.427 110.5,195.5 Z"/></g>
<g><path style="opacity:1" fill="#383d3e" d="M 122.5,206.5 C 125.5,207.833 128.5,207.833 131.5,206.5C 131.44,209.341 130.774,212.007 129.5,214.5C 128.833,214.833 128.167,215.167 127.5,215.5C 126.209,215.263 125.209,215.596 124.5,216.5C 123.308,215.434 123.641,214.601 125.5,214C 121.688,212.568 120.688,210.068 122.5,206.5 Z"/></g>
<g><path style="opacity:1" fill="#6b6a6b" d="M 80.5,210.5 C 82.5,210.5 84.5,210.5 86.5,210.5C 86.1662,214.648 83.8328,216.315 79.5,215.5C 79.6287,213.784 79.962,212.117 80.5,210.5 Z"/></g>
<g><path style="opacity:1" fill="#626263" d="M 127.5,215.5 C 128.406,222.721 130.239,229.721 133,236.5C 133.805,239.696 133.638,242.696 132.5,245.5C 132.664,242.813 132.497,240.146 132,237.5C 129.027,230.853 124.86,225.02 119.5,220C 121.134,219.506 122.801,219.34 124.5,219.5C 124.5,218.5 124.5,217.5 124.5,216.5C 125.209,215.596 126.209,215.263 127.5,215.5 Z"/></g>
<g><path style="opacity:1" fill="#878989" d="M 129.5,214.5 C 133.121,221.492 136.287,228.826 139,236.5C 139.833,237.333 140.667,238.167 141.5,239C 150.576,243.677 160.243,245.677 170.5,245C 169.944,245.383 169.611,245.883 169.5,246.5C 166.213,247.161 162.88,247.661 159.5,248C 162.623,248.206 165.623,248.873 168.5,250C 166.351,250.579 164.185,251.079 162,251.5C 157.608,249.852 153.108,249.019 148.5,249C 153.193,251.519 157.859,253.685 162.5,255.5C 161.167,255.5 159.833,255.5 158.5,255.5C 158.5,256.5 158.5,257.5 158.5,258.5C 155.243,257.538 152.243,256.038 149.5,254C 146.28,252.648 142.947,251.814 139.5,251.5C 134.859,251.892 132.526,249.892 132.5,245.5C 133.638,242.696 133.805,239.696 133,236.5C 130.239,229.721 128.406,222.721 127.5,215.5C 128.167,215.167 128.833,214.833 129.5,214.5 Z"/></g>
<g><path style="opacity:1" fill="#5a5a5b" d="M 80.5,217.5 C 78.4887,219.667 77.3221,222.334 77,225.5C 76.1681,234.992 74.5014,244.326 72,253.5C 71.7767,255.881 70.61,257.547 68.5,258.5C 70.6861,251.389 72.0194,244.056 72.5,236.5C 71.5318,230.509 71.0318,224.509 71,218.5C 74.9077,224.11 76.7411,223.443 76.5,216.5C 78.099,216.232 79.4324,216.566 80.5,217.5 Z"/></g>
<g><path style="opacity:1" fill="#8c8d8d" d="M 80.5,217.5 C 81.5,217.5 82.5,217.5 83.5,217.5C 80.6456,228.964 79.8123,240.631 81,252.5C 83.0875,256.302 86.2541,258.802 90.5,260C 94.3214,260.686 97.988,261.686 101.5,263C 99.0643,263.206 97.3976,264.373 96.5,266.5C 92.28,265.705 88.4467,264.038 85,261.5C 85.3076,264.635 87.1409,266.302 90.5,266.5C 90.8039,267.15 91.1373,267.817 91.5,268.5C 89.7086,269.17 88.0419,269.837 86.5,270.5C 85.1497,271.483 84.1497,272.816 83.5,274.5C 83.1667,274.333 82.8333,274.167 82.5,274C 81.1084,271.276 79.9417,268.443 79,265.5C 78.196,264.196 77.0293,263.529 75.5,263.5C 72.8696,264.815 70.2029,266.149 67.5,267.5C 65.7749,266.985 64.1083,266.318 62.5,265.5C 65.2659,263.741 67.2659,261.407 68.5,258.5C 70.61,257.547 71.7767,255.881 72,253.5C 74.5014,244.326 76.1681,234.992 77,225.5C 77.3221,222.334 78.4887,219.667 80.5,217.5 Z"/></g>
<g><path style="opacity:1" fill="#313337" d="M 169.5,246.5 C 172.263,246.744 174.429,248.077 176,250.5C 176.188,252.061 175.355,252.728 173.5,252.5C 172.375,253.348 172.375,254.348 173.5,255.5C 173.719,256.675 173.386,257.675 172.5,258.5C 169.349,256.221 166.016,255.221 162.5,255.5C 157.859,253.685 153.193,251.519 148.5,249C 153.108,249.019 157.608,249.852 162,251.5C 164.185,251.079 166.351,250.579 168.5,250C 165.623,248.873 162.623,248.206 159.5,248C 162.88,247.661 166.213,247.161 169.5,246.5 Z"/></g>
<g><path style="opacity:1" fill="#605f61" d="M 159.5,259.5 C 159.5,258.5 159.5,257.5 159.5,256.5C 164.795,255.963 167.295,258.297 167,263.5C 164.266,262.551 161.766,261.217 159.5,259.5 Z"/></g>
<g><path style="opacity:1" fill="#565657" d="M 139.5,251.5 C 142.947,251.814 146.28,252.648 149.5,254C 152.243,256.038 155.243,257.538 158.5,258.5C 158.5,259.167 158.833,259.5 159.5,259.5C 159.157,261.225 158.157,261.725 156.5,261C 151.466,256.609 145.8,253.442 139.5,251.5 Z"/></g>
<g><path style="opacity:1" fill="#4a4b4d" d="M 96.5,266.5 C 96.33,267.822 96.6634,268.989 97.5,270C 97,270.167 96.5,270.333 96,270.5C 93.9771,269.293 92.1437,267.96 90.5,266.5C 87.1409,266.302 85.3076,264.635 85,261.5C 88.4467,264.038 92.28,265.705 96.5,266.5 Z"/></g>
<g><path style="opacity:1" fill="#686768" d="M 61.5,268.5 C 62.9778,268.238 64.3112,268.571 65.5,269.5C 61.7794,280.12 60.4461,279.787 61.5,268.5 Z"/></g>
<g><path style="opacity:1" fill="#474748" d="M 98.5,265.5 C 104.279,265.112 106.779,267.778 106,273.5C 103.966,271.968 101.799,270.635 99.5,269.5C 98.5713,268.311 98.238,266.978 98.5,265.5 Z"/></g>
<g><path style="opacity:1" fill="#6c6b6c" d="M 86.5,270.5 C 92.1906,270.548 93.8573,273.215 91.5,278.5C 88.9452,276.301 87.2785,273.634 86.5,270.5 Z"/></g>
</svg>
