<?xml version="1.0" encoding="UTF-8"?>
<!DOCTYPE svg PUBLIC "-//W3C//DTD SVG 1.1//EN" "http://www.w3.org/Graphics/SVG/1.1/DTD/svg11.dtd">
<svg xmlns="http://www.w3.org/2000/svg" version="1.1" width="300px" height="300px" style="shape-rendering:geometricPrecision; text-rendering:geometricPrecision; image-rendering:optimizeQuality; fill-rule:evenodd; clip-rule:evenodd" xmlns:xlink="http://www.w3.org/1999/xlink">
<g><path style="opacity:0.916" fill="#161a20" d="M 234.5,251.5 C 233.833,251.5 233.5,251.167 233.5,250.5C 233.552,246.802 233.886,243.135 234.5,239.5C 234.667,228.162 234.5,216.828 234,205.5C 227.884,197.663 220.05,195.33 210.5,198.5C 210.5,198.167 210.5,197.833 210.5,197.5C 211.833,197.5 213.167,197.5 214.5,197.5C 213.301,193.901 212.301,190.235 211.5,186.5C 211.833,186.5 212.167,186.5 212.5,186.5C 213.953,189.353 215.119,192.353 216,195.5C 218.597,190.734 222.097,186.734 226.5,183.5C 227.491,179.555 227.824,175.555 227.5,171.5C 227.833,171.5 228.167,171.5 228.5,171.5C 228.334,176.511 228.501,181.511 229,186.5C 230.772,183.29 232.272,179.956 233.5,176.5C 234.878,175.455 235.878,174.122 236.5,172.5C 245.911,102.408 215.245,69.2415 144.5,73C 137.089,73.9148 129.756,75.2481 122.5,77C 179.35,71.1807 209.017,96.8474 211.5,154C 211.533,156.61 212.2,158.777 213.5,160.5C 212.432,161.434 211.099,161.768 209.5,161.5C 208.5,161.5 207.5,161.5 206.5,161.5C 206.5,160.833 206.5,160.167 206.5,159.5C 207.5,159.5 208.5,159.5 209.5,159.5C 210.459,138.43 205.292,119.096 194,101.5C 187.511,92.9987 179.345,86.8321 169.5,83C 164.323,81.0392 158.99,79.7058 153.5,79C 134.913,76.7153 116.913,78.882 99.5,85.5C 98.1667,86.5 98.1667,87.5 99.5,88.5C 105.304,86.2725 111.304,84.9392 117.5,84.5C 112.664,86.1314 107.664,87.6314 102.5,89C 101.572,89.3879 100.905,90.0546 100.5,91C 108.275,102.382 114.608,114.548 119.5,127.5C 119.5,128.167 119.5,128.833 119.5,129.5C 119.167,129.5 118.833,129.5 118.5,129.5C 105.37,101.896 89.7035,75.8955 71.5,51.5C 71.1667,52.5 70.8333,53.5 70.5,54.5C 72.7607,65.4689 74.7607,76.4689 76.5,87.5C 76.1667,88.8333 75.8333,90.1667 75.5,91.5C 53.4554,77.6194 31.2888,63.9527 9,50.5C 8.2352,50.5699 7.7352,50.9033 7.5,51.5C 7.5,52.1667 7.16667,52.5 6.5,52.5C 5.06873,51.2196 4.40206,49.5529 4.5,47.5C 7.79351,47.259 10.7935,48.0924 13.5,50C 33.5018,61.6654 53.1685,73.8321 72.5,86.5C 72.8333,86 73.1667,85.5 73.5,85C 70.2437,72.3145 68.9103,59.4811 69.5,46.5C 79.8788,58.2445 89.0455,70.9112 97,84.5C 99.3914,83.5709 101.225,82.0709 102.5,80C 100.863,71.1996 100.53,62.3662 101.5,53.5C 105.49,57.6593 109.324,61.9926 113,66.5C 117.689,49.0766 122.689,31.7432 128,14.5C 128.414,14.0426 128.914,13.7093 129.5,13.5C 134.869,25.5799 139.703,37.9133 144,50.5C 149.07,38.6834 155.403,27.6834 163,17.5C 164.163,19.2852 164.83,21.2852 165,23.5C 166.264,32.8041 167.264,42.1374 168,51.5C 172.814,45.3848 177.981,39.5514 183.5,34C 184.5,33.3333 185.5,33.3333 186.5,34C 183.146,45.8978 179.479,57.7312 175.5,69.5C 219.362,76.8533 241.362,102.687 241.5,147C 241.359,156.626 240.193,166.126 238,175.5C 237.5,176.667 236.667,177.5 235.5,178C 246.866,178.206 258.199,178.873 269.5,180C 270.731,181.183 270.731,182.349 269.5,183.5C 264.666,186.752 259.666,189.752 254.5,192.5C 268.831,200.33 282.831,208.663 296.5,217.5C 297.386,218.325 297.719,219.325 297.5,220.5C 280.675,220.284 264.008,218.618 247.5,215.5C 247.167,215.833 246.833,216.167 246.5,216.5C 249.904,220.642 252.238,225.309 253.5,230.5C 248.04,229.236 242.707,227.569 237.5,225.5C 237.598,233.536 237.098,241.536 236,249.5C 235.722,250.416 235.222,251.082 234.5,251.5 Z"/></g>
<g><path style="opacity:1" fill="#d7d6d1" d="M 128.5,18.5 C 130.64,20.7005 132.14,23.3672 133,26.5C 136.136,36.2415 139.469,45.9082 143,55.5C 149.081,44.3367 155.414,33.3367 162,22.5C 163.99,33.9892 165.323,45.6559 166,57.5C 170.765,51.6456 175.765,45.9789 181,40.5C 178.976,50.252 176.31,59.9187 173,69.5C 161.558,69.0426 150.058,69.5426 138.5,71C 134.886,71.9449 131.219,72.6116 127.5,73C 119.846,75.6071 112.179,78.1071 104.5,80.5C 104.059,73.4929 103.892,66.4929 104,59.5C 106.833,63 109.667,66.5 112.5,70C 113.449,70.6172 114.282,70.4506 115,69.5C 119.349,52.4376 123.849,35.4376 128.5,18.5 Z"/></g>
<g><path style="opacity:1" fill="#dad9d3" d="M 7.5,51.5 C 7.7352,50.9033 8.2352,50.5699 9,50.5C 31.2888,63.9527 53.4554,77.6194 75.5,91.5C 75.8333,90.1667 76.1667,88.8333 76.5,87.5C 74.7607,76.4689 72.7607,65.4689 70.5,54.5C 70.8333,53.5 71.1667,52.5 71.5,51.5C 89.7035,75.8955 105.37,101.896 118.5,129.5C 105.98,130.702 93.3138,130.536 80.5,129C 63.1104,126.489 45.777,123.655 28.5,120.5C 27.7611,120.631 27.0944,120.464 26.5,120C 27.6226,118.956 28.9559,118.29 30.5,118C 39.4799,116.004 48.4799,114.171 57.5,112.5C 40.5755,92.2802 23.9088,71.9469 7.5,51.5 Z"/></g>
<g><path style="opacity:0.932" fill="#131a1e" d="M 7.5,51.5 C 23.9088,71.9469 40.5755,92.2802 57.5,112.5C 48.4799,114.171 39.4799,116.004 30.5,118C 28.9559,118.29 27.6226,118.956 26.5,120C 27.0944,120.464 27.7611,120.631 28.5,120.5C 37.1051,124.2 46.1051,127.033 55.5,129C 71.7305,132.872 88.0639,136.205 104.5,139C 108.211,139.825 111.878,139.659 115.5,138.5C 117.12,135.596 118.453,132.596 119.5,129.5C 119.5,128.833 119.5,128.167 119.5,127.5C 128.907,112.41 139.573,98.077 151.5,84.5C 140.17,83.4064 128.836,83.4064 117.5,84.5C 118.609,83.71 119.942,83.21 121.5,83C 131.833,82.3333 142.167,82.3333 152.5,83C 157.673,84.0415 162.673,85.5415 167.5,87.5C 167.5,88.1667 167.5,88.8333 167.5,89.5C 163.442,87.1276 159.109,85.961 154.5,86C 124.146,114.379 108.479,149.379 107.5,191C 107.528,195.58 107.861,200.08 108.5,204.5C 109.099,210.524 109.932,216.524 111,222.5C 111.883,225.102 113.383,227.269 115.5,229C 131.212,242.693 148.545,254.027 167.5,263C 190.785,266.185 212.785,262.018 233.5,250.5C 233.5,251.167 233.833,251.5 234.5,251.5C 215.834,264.168 195.167,269.668 172.5,268C 155.965,261.401 140.632,252.734 126.5,242C 119.89,237.19 113.89,231.69 108.5,225.5C 103.341,223.088 98.3413,220.421 93.5,217.5C 93.0874,222.349 91.9207,227.349 90,232.5C 80.8222,253.032 67.6556,270.532 50.5,285C 48.8333,285.667 47.1667,285.667 45.5,285C 40.4782,277.453 36.6448,269.287 34,260.5C 26.9176,234.648 24.2509,208.315 26,181.5C 27.1351,174.125 28.9685,166.959 31.5,160C 21.0612,155.95 11.3946,150.616 2.5,144C 10.1016,142.45 17.7683,141.117 25.5,140C 16.0955,128.673 8.09551,116.506 1.5,103.5C 14.1103,107.037 26.777,110.37 39.5,113.5C 38.3685,105.009 36.5352,96.6756 34,88.5C 23.8507,77.1926 14.684,65.1926 6.5,52.5C 7.16667,52.5 7.5,52.1667 7.5,51.5 Z M 86.5,213.5 C 85.2438,213.539 84.2438,213.039 83.5,212C 84.9976,211.415 85.9976,211.915 86.5,213.5 Z"/></g>
<g><path style="opacity:1" fill="#3c4c55" d="M 236.5,172.5 C 235.883,172.611 235.383,172.944 235,173.5C 233.039,170.537 230.706,167.871 228,165.5C 227.667,161.833 227.333,158.167 227,154.5C 226.304,157.478 225.804,160.478 225.5,163.5C 221.578,162.248 217.578,161.248 213.5,160.5C 212.2,158.777 211.533,156.61 211.5,154C 209.017,96.8474 179.35,71.1807 122.5,77C 129.756,75.2481 137.089,73.9148 144.5,73C 215.245,69.2415 245.911,102.408 236.5,172.5 Z"/></g>
<g><path style="opacity:1" fill="#d93620" d="M 206.5,159.5 C 205.167,159.5 203.833,159.5 202.5,159.5C 204.215,138.207 199.049,118.874 187,101.5C 181.436,95.4219 174.936,90.7553 167.5,87.5C 162.673,85.5415 157.673,84.0415 152.5,83C 142.167,82.3333 131.833,82.3333 121.5,83C 119.942,83.21 118.609,83.71 117.5,84.5C 111.304,84.9392 105.304,86.2725 99.5,88.5C 98.1667,87.5 98.1667,86.5 99.5,85.5C 116.913,78.882 134.913,76.7153 153.5,79C 158.99,79.7058 164.323,81.0392 169.5,83C 179.345,86.8321 187.511,92.9987 194,101.5C 205.292,119.096 210.459,138.43 209.5,159.5C 208.5,159.5 207.5,159.5 206.5,159.5 Z"/></g>
<g><path style="opacity:1" fill="#007935" d="M 119.5,127.5 C 114.608,114.548 108.275,102.382 100.5,91C 100.905,90.0546 101.572,89.3879 102.5,89C 107.664,87.6314 112.664,86.1314 117.5,84.5C 128.836,83.4064 140.17,83.4064 151.5,84.5C 139.573,98.077 128.907,112.41 119.5,127.5 Z"/></g>
<g><path style="opacity:1" fill="#007a35" d="M 167.5,89.5 C 171.22,91.0499 174.553,93.2166 177.5,96C 161.959,107.244 156.792,122.078 162,140.5C 166.325,146.941 172.158,148.774 179.5,146C 187.333,142.167 193.167,136.333 197,128.5C 199.978,138.257 201.144,148.257 200.5,158.5C 186.855,157.427 173.188,157.26 159.5,158C 152.667,163.5 146.5,169.667 141,176.5C 139.887,167.581 139.054,158.581 138.5,149.5C 132.431,155.907 127.097,162.907 122.5,170.5C 122.846,171.696 123.346,171.696 124,170.5C 127.606,164.293 131.939,158.627 137,153.5C 137.333,159.5 137.667,165.5 138,171.5C 138.118,174.371 138.784,177.038 140,179.5C 142.46,178.042 144.627,176.209 146.5,174C 147.167,173.333 147.833,173.333 148.5,174C 155.033,182.046 162.033,189.712 169.5,197C 173.898,200.948 179.065,203.114 185,203.5C 193.678,202.368 202.178,200.702 210.5,198.5C 220.05,195.33 227.884,197.663 234,205.5C 234.5,216.828 234.667,228.162 234.5,239.5C 220.261,242.296 205.927,244.796 191.5,247C 179.054,249.192 167.388,247.192 156.5,241C 152.833,238.667 149.167,236.333 145.5,234C 133.004,224.333 120.67,214.5 108.5,204.5C 107.861,200.08 107.528,195.58 107.5,191C 108.479,149.379 124.146,114.379 154.5,86C 159.109,85.961 163.442,87.1276 167.5,89.5 Z"/></g>
<g><path style="opacity:1" fill="#1d1f22" d="M 167.5,87.5 C 174.936,90.7553 181.436,95.4219 187,101.5C 199.049,118.874 204.215,138.207 202.5,159.5C 203.833,159.5 205.167,159.5 206.5,159.5C 206.5,160.167 206.5,160.833 206.5,161.5C 203.794,161.425 201.127,161.092 198.5,160.5C 198.334,166.176 198.501,171.843 199,177.5C 204.978,173.023 210.811,168.357 216.5,163.5C 214.031,162.832 211.698,162.165 209.5,161.5C 211.099,161.768 212.432,161.434 213.5,160.5C 217.578,161.248 221.578,162.248 225.5,163.5C 225.804,160.478 226.304,157.478 227,154.5C 227.333,158.167 227.667,161.833 228,165.5C 230.706,167.871 233.039,170.537 235,173.5C 235.383,172.944 235.883,172.611 236.5,172.5C 235.878,174.122 234.878,175.455 233.5,176.5C 233.019,173.545 231.519,171.211 229,169.5C 228.536,170.094 228.369,170.761 228.5,171.5C 228.167,171.5 227.833,171.5 227.5,171.5C 226.698,170.048 226.198,168.382 226,166.5C 224.139,165.236 222.139,164.236 220,163.5C 214.911,166.967 210.078,170.801 205.5,175C 202.714,177.06 199.714,178.56 196.5,179.5C 196.5,173.167 196.5,166.833 196.5,160.5C 190.358,163.957 185.025,168.624 180.5,174.5C 189.815,177.238 197.982,181.905 205,188.5C 206.308,186.359 207.808,184.359 209.5,182.5C 210.984,183.467 211.984,184.8 212.5,186.5C 212.167,186.5 211.833,186.5 211.5,186.5C 210.425,185.438 209.425,185.438 208.5,186.5C 206.167,190.5 203.833,194.5 201.5,198.5C 201.833,198.833 202.167,199.167 202.5,199.5C 205.144,198.705 207.811,198.038 210.5,197.5C 210.5,197.833 210.5,198.167 210.5,198.5C 202.178,200.702 193.678,202.368 185,203.5C 179.065,203.114 173.898,200.948 169.5,197C 162.033,189.712 155.033,182.046 148.5,174C 147.833,173.333 147.167,173.333 146.5,174C 144.627,176.209 142.46,178.042 140,179.5C 138.784,177.038 138.118,174.371 138,171.5C 137.667,165.5 137.333,159.5 137,153.5C 131.939,158.627 127.606,164.293 124,170.5C 123.346,171.696 122.846,171.696 122.5,170.5C 127.097,162.907 132.431,155.907 138.5,149.5C 139.054,158.581 139.887,167.581 141,176.5C 146.5,169.667 152.667,163.5 159.5,158C 173.188,157.26 186.855,157.427 200.5,158.5C 201.144,148.257 199.978,138.257 197,128.5C 193.167,136.333 187.333,142.167 179.5,146C 172.158,148.774 166.325,146.941 162,140.5C 156.792,122.078 161.959,107.244 177.5,96C 174.553,93.2166 171.22,91.0499 167.5,89.5C 167.5,88.8333 167.5,88.1667 167.5,87.5 Z"/></g>
<g><path style="opacity:1" fill="#cccbc6" d="M 38.5,94.5 C 43.4878,99.4921 48.1545,104.825 52.5,110.5C 49.1794,111.949 45.8461,112.282 42.5,111.5C 40.6925,105.937 39.3591,100.27 38.5,94.5 Z"/></g>
<g><path style="opacity:1" fill="#f6f6f6" d="M 178.5,97.5 C 188.47,105.112 193.97,115.112 195,127.5C 190.025,139.518 181.192,145.352 168.5,145C 162.147,138.773 159.98,131.273 162,122.5C 164.544,112.042 170.044,103.708 178.5,97.5 Z"/></g>
<g><path style="opacity:1" fill="#d6d6d0" d="M 36.5,147.5 C 29.0586,147.649 21.7253,146.816 14.5,145C 16.0581,144.79 17.3915,144.29 18.5,143.5C 22.1817,143.665 25.8484,143.499 29.5,143C 29.9574,142.586 30.2907,142.086 30.5,141.5C 23.1811,132.859 16.3478,123.859 10,114.5C 8.06568,111.966 6.73234,109.299 6,106.5C 15.029,109.708 24.1957,112.541 33.5,115C 29.2339,116.087 25.2339,117.754 21.5,120C 29.4808,124.05 37.8141,127.216 46.5,129.5C 42.6473,135.205 39.3139,141.205 36.5,147.5 Z"/></g>
<g><path style="opacity:1" fill="#262328" d="M 177.5,109.5 C 180.119,109.232 182.619,109.565 185,110.5C 187.617,119.308 185.95,127.308 180,134.5C 177.942,136.068 175.775,137.402 173.5,138.5C 171.399,138.368 169.899,137.368 169,135.5C 166.337,124.988 169.171,116.322 177.5,109.5 Z"/></g>
<g><path style="opacity:1" fill="#df3720" d="M 178.5,110.5 C 180.722,110.178 182.556,110.845 184,112.5C 184.923,118.811 183.923,124.811 181,130.5C 178.906,133.103 176.406,135.103 173.5,136.5C 171.575,136.41 170.408,135.41 170,133.5C 168.392,124.154 171.225,116.487 178.5,110.5 Z"/></g>
<g><path style="opacity:1" fill="#1a161b" d="M 175.5,121.5 C 177.984,123.028 177.818,124.694 175,126.5C 174.36,124.735 174.527,123.068 175.5,121.5 Z"/></g>
<g><path style="opacity:1" fill="#aeaeaa" d="M 28.5,120.5 C 45.777,123.655 63.1104,126.489 80.5,129C 93.3138,130.536 105.98,130.702 118.5,129.5C 118.833,129.5 119.167,129.5 119.5,129.5C 118.453,132.596 117.12,135.596 115.5,138.5C 111.878,139.659 108.211,139.825 104.5,139C 88.0639,136.205 71.7305,132.872 55.5,129C 46.1051,127.033 37.1051,124.2 28.5,120.5 Z"/></g>
<g><path style="opacity:1" fill="#141b22" d="M 220.5,102.5 C 224.518,109.204 227.018,116.537 228,124.5C 228.667,132.5 228.667,140.5 228,148.5C 228.108,132.677 225.608,117.344 220.5,102.5 Z"/></g>
<g><path style="opacity:1" fill="#007a35" d="M 104.5,202.5 C 103.054,203.613 101.387,203.78 99.5,203C 82.6211,197.232 67.6211,188.399 54.5,176.5C 50.6134,185.564 44.9467,193.397 37.5,200C 34.6492,201.289 31.6492,201.789 28.5,201.5C 27.3889,196.584 27.2223,191.584 28,186.5C 30.1937,184.728 32.1937,182.728 34,180.5C 38.2261,171.211 39.5595,161.544 38,151.5C 41.4919,143.847 45.4919,136.513 50,129.5C 50.5,130 51,130.5 51.5,131C 45.8674,140.785 44.0341,151.285 46,162.5C 46.4083,164.41 47.5749,165.41 49.5,165.5C 53.8315,163.334 56.9981,160 59,155.5C 61.6618,148.353 63.4951,141.02 64.5,133.5C 68.4616,134.376 72.4616,135.042 76.5,135.5C 71.7656,146.257 72.7656,156.424 79.5,166C 81.9712,166.706 84.3046,166.373 86.5,165C 93.8356,158.494 97.5022,150.328 97.5,140.5C 102.797,141.275 108.13,141.608 113.5,141.5C 106.679,161.244 103.679,181.577 104.5,202.5 Z"/></g>
<g><path style="opacity:1" fill="#3c4b54" d="M 53.5,130.5 C 56.1889,131.038 58.8556,131.705 61.5,132.5C 62.387,144.64 58.5536,154.974 50,163.5C 48.3468,163.18 47.3468,162.18 47,160.5C 46.5473,149.93 48.7139,139.93 53.5,130.5 Z"/></g>
<g><path style="opacity:1" fill="#3c4b54" d="M 78.5,136.5 C 84.3618,138.272 90.3618,139.272 96.5,139.5C 95.7887,148.472 92.4554,156.306 86.5,163C 83.0979,165.398 80.2646,164.898 78,161.5C 74.6286,153.09 74.7953,144.756 78.5,136.5 Z"/></g>
<g><path style="opacity:1" fill="#adada8" d="M 18.5,143.5 C 17.3915,144.29 16.0581,144.79 14.5,145C 21.7253,146.816 29.0586,147.649 36.5,147.5C 35.2163,150.402 34.2163,153.402 33.5,156.5C 24.2631,154.05 15.5964,150.217 7.5,145C 11.1454,144.281 14.8121,143.781 18.5,143.5 Z"/></g>
<g><path style="opacity:1" fill="#3a4952" d="M 35.5,157.5 C 37.546,166.565 35.7127,174.898 30,182.5C 30.4018,173.889 32.2351,165.555 35.5,157.5 Z"/></g>
<g><path style="opacity:1" fill="#ebebec" d="M 160.5,159.5 C 163.518,159.335 166.518,159.502 169.5,160C 166.333,163.167 163.167,166.333 160,169.5C 159.253,166.076 159.42,162.743 160.5,159.5 Z"/></g>
<g><path style="opacity:1" fill="#8f2f00" d="M 171.5,159.5 C 172.833,159.5 174.167,159.5 175.5,159.5C 175.5,164.167 175.5,168.833 175.5,173.5C 168.547,172.882 161.547,173.215 154.5,174.5C 152.444,173.952 150.777,172.786 149.5,171C 152,168.5 154.5,166 157,163.5C 157.373,165.698 157.873,167.865 158.5,170C 158.85,171.257 159.517,171.591 160.5,171C 165.066,167.936 168.733,164.102 171.5,159.5 Z"/></g>
<g><path style="opacity:1" fill="#f4f5f5" d="M 177.5,159.5 C 181.884,159.174 186.217,159.508 190.5,160.5C 186.89,165.613 182.723,170.28 178,174.5C 177.501,169.511 177.334,164.511 177.5,159.5 Z"/></g>
<g><path style="opacity:1" fill="#f7f7f8" d="M 206.5,161.5 C 207.5,161.5 208.5,161.5 209.5,161.5C 211.698,162.165 214.031,162.832 216.5,163.5C 210.811,168.357 204.978,173.023 199,177.5C 198.501,171.843 198.334,166.176 198.5,160.5C 201.127,161.092 203.794,161.425 206.5,161.5 Z"/></g>
<g><path style="opacity:1" fill="#8e2f01" d="M 227.5,171.5 C 227.824,175.555 227.491,179.555 226.5,183.5C 222.097,186.734 218.597,190.734 216,195.5C 215.119,192.353 213.953,189.353 212.5,186.5C 211.984,184.8 210.984,183.467 209.5,182.5C 207.808,184.359 206.308,186.359 205,188.5C 197.982,181.905 189.815,177.238 180.5,174.5C 185.025,168.624 190.358,163.957 196.5,160.5C 196.5,166.833 196.5,173.167 196.5,179.5C 199.714,178.56 202.714,177.06 205.5,175C 210.078,170.801 214.911,166.967 220,163.5C 222.139,164.236 224.139,165.236 226,166.5C 226.198,168.382 226.698,170.048 227.5,171.5 Z"/></g>
<g><path style="opacity:1" fill="#ececed" d="M 233.5,176.5 C 232.272,179.956 230.772,183.29 229,186.5C 228.501,181.511 228.334,176.511 228.5,171.5C 228.369,170.761 228.536,170.094 229,169.5C 231.519,171.211 233.019,173.545 233.5,176.5 Z"/></g>
<g><path style="opacity:1" fill="#f1f1f1" d="M 166.5,175.5 C 167.649,175.791 168.316,176.624 168.5,178C 168.083,182.018 167.083,185.852 165.5,189.5C 163.296,187.133 161.296,184.633 159.5,182C 161.665,179.669 163.999,177.502 166.5,175.5 Z"/></g>
<g><path style="opacity:1" fill="#006429" d="M 104.5,202.5 C 105.752,208.585 107.085,214.751 108.5,221C 108.167,221.167 107.833,221.333 107.5,221.5C 95.2829,214.931 83.6162,207.598 72.5,199.5C 66.5314,194.364 61.0314,188.697 56,182.5C 55.5078,183.549 55.6744,184.549 56.5,185.5C 52.1667,192.833 47.8333,200.167 43.5,207.5C 39.9077,210.595 35.9077,211.595 31.5,210.5C 29.1324,208.044 28.1324,205.044 28.5,201.5C 31.6492,201.789 34.6492,201.289 37.5,200C 44.9467,193.397 50.6134,185.564 54.5,176.5C 67.6211,188.399 82.6211,197.232 99.5,203C 101.387,203.78 103.054,203.613 104.5,202.5 Z"/></g>
<g><path style="opacity:1" fill="#cb7486" d="M 154.5,175.5 C 157.518,175.335 160.518,175.502 163.5,176C 161.735,177.298 159.901,178.464 158,179.5C 155.926,178.928 154.76,177.595 154.5,175.5 Z"/></g>
<g><path style="opacity:1" fill="#e68295" d="M 170.5,176.5 C 183.505,176.838 194.839,181.338 204.5,190C 202.248,193.168 200.248,196.501 198.5,200C 195.518,200.498 192.518,200.665 189.5,200.5C 189.653,194.131 189.32,187.797 188.5,181.5C 186.217,181.608 184.217,182.441 182.5,184C 168.631,198.892 164.631,196.392 170.5,176.5 Z"/></g>
<g><path style="opacity:1" fill="#d6d6d0" d="M 266.5,202.5 C 257.223,205.653 247.556,206.987 237.5,206.5C 237.217,205.711 236.717,205.044 236,204.5C 235.83,198.804 235.33,193.138 234.5,187.5C 231.949,189.894 229.949,192.727 228.5,196C 225.447,196.158 222.447,195.658 219.5,194.5C 221.435,191.062 223.935,188.062 227,185.5C 227.29,187.044 227.956,188.377 229,189.5C 230.753,186.995 232.253,184.329 233.5,181.5C 244.83,180.592 256.163,180.758 267.5,182C 261.112,185.861 254.446,189.194 247.5,192C 253.539,196.02 259.872,199.52 266.5,202.5 Z"/></g>
<g><path style="opacity:1" fill="#f4f4f4" d="M 185.5,183.5 C 186.81,189.288 187.477,195.288 187.5,201.5C 181.675,201.921 176.675,200.087 172.5,196C 177.336,192.33 181.669,188.164 185.5,183.5 Z"/></g>
<g><path style="opacity:1" fill="#efefef" d="M 211.5,186.5 C 212.301,190.235 213.301,193.901 214.5,197.5C 213.167,197.5 211.833,197.5 210.5,197.5C 207.811,198.038 205.144,198.705 202.5,199.5C 202.167,199.167 201.833,198.833 201.5,198.5C 203.833,194.5 206.167,190.5 208.5,186.5C 209.425,185.438 210.425,185.438 211.5,186.5 Z"/></g>
<g><path style="opacity:1" fill="#b2b2ad" d="M 72.5,201.5 C 74.5755,203.719 76.9088,205.719 79.5,207.5C 80.8056,210.98 80.8056,214.313 79.5,217.5C 79.5,215.833 79.5,214.167 79.5,212.5C 76.4816,212.335 73.4816,212.502 70.5,213C 64.003,215.413 58.003,218.58 52.5,222.5C 53.1845,218.446 53.1845,214.446 52.5,210.5C 49.2805,212.479 45.9472,213.145 42.5,212.5C 47.3503,204.119 52.6837,196.119 58.5,188.5C 62.5593,193.562 67.226,197.895 72.5,201.5 Z"/></g>
<g><path style="opacity:1" fill="#eeefef" d="M 232.5,192.5 C 233.638,195.304 233.805,198.304 233,201.5C 228.682,198.777 228.515,195.777 232.5,192.5 Z"/></g>
<g><path style="opacity:1" fill="#afafab" d="M 266.5,202.5 C 275.767,207.135 284.767,212.302 293.5,218C 276.449,216.961 259.449,215.128 242.5,212.5C 241.833,212.667 241.167,212.833 240.5,213C 243.696,217.364 246.696,221.864 249.5,226.5C 249.167,226.833 248.833,227.167 248.5,227.5C 245.167,225.833 241.833,224.167 238.5,222.5C 237.505,217.208 237.172,211.875 237.5,206.5C 247.556,206.987 257.223,205.653 266.5,202.5 Z"/></g>
<g><path style="opacity:1" fill="#006529" d="M 108.5,204.5 C 120.67,214.5 133.004,224.333 145.5,234C 149.167,236.333 152.833,238.667 156.5,241C 167.388,247.192 179.054,249.192 191.5,247C 205.927,244.796 220.261,242.296 234.5,239.5C 233.886,243.135 233.552,246.802 233.5,250.5C 212.785,262.018 190.785,266.185 167.5,263C 148.545,254.027 131.212,242.693 115.5,229C 113.383,227.269 111.883,225.102 111,222.5C 109.932,216.524 109.099,210.524 108.5,204.5 Z"/></g>
<g><path style="opacity:1" fill="#1b2526" d="M 72.5,199.5 C 72.5,200.167 72.5,200.833 72.5,201.5C 67.226,197.895 62.5593,193.562 58.5,188.5C 52.6837,196.119 47.3503,204.119 42.5,212.5C 45.9472,213.145 49.2805,212.479 52.5,210.5C 53.1845,214.446 53.1845,218.446 52.5,222.5C 52.8222,228.358 52.4889,234.025 51.5,239.5C 51.8214,233.974 51.4881,228.64 50.5,223.5C 50.5,220.167 50.5,216.833 50.5,213.5C 46.9014,214.699 43.2347,215.699 39.5,216.5C 39.33,215.178 39.6634,214.011 40.5,213C 36.9748,212.821 33.6414,212.321 30.5,211.5C 31.1667,211.5 31.5,211.167 31.5,210.5C 35.9077,211.595 39.9077,210.595 43.5,207.5C 47.8333,200.167 52.1667,192.833 56.5,185.5C 55.6744,184.549 55.5078,183.549 56,182.5C 61.0314,188.697 66.5314,194.364 72.5,199.5 Z"/></g>
<g><path style="opacity:1" fill="#006329" d="M 30.5,211.5 C 33.6414,212.321 36.9748,212.821 40.5,213C 39.6634,214.011 39.33,215.178 39.5,216.5C 43.2347,215.699 46.9014,214.699 50.5,213.5C 50.5,216.833 50.5,220.167 50.5,223.5C 50.5,231.167 50.5,238.833 50.5,246.5C 49.6739,241.684 49.1739,236.684 49,231.5C 42.2466,246.295 40.7466,261.629 44.5,277.5C 41.6786,273.233 39.5119,268.567 38,263.5C 33.176,248.355 30.0093,232.855 28.5,217C 28.5465,214.705 29.2132,212.871 30.5,211.5 Z"/></g>
<g><path style="opacity:1" fill="#d8d7d1" d="M 79.5,217.5 C 79.6663,224.508 79.4996,231.508 79,238.5C 75.5815,233.332 72.4148,227.998 69.5,222.5C 64.2507,230.425 58.584,238.091 52.5,245.5C 51.5344,243.604 51.2011,241.604 51.5,239.5C 52.4889,234.025 52.8222,228.358 52.5,222.5C 58.003,218.58 64.003,215.413 70.5,213C 73.4816,212.502 76.4816,212.335 79.5,212.5C 79.5,214.167 79.5,215.833 79.5,217.5 Z"/></g>
<g><path style="opacity:1" fill="#3b4a53" d="M 82.5,214.5 C 86.0527,216.224 88.7194,218.724 90.5,222C 89.7784,226.169 88.2784,230.003 86,233.5C 84.4878,232.743 83.1545,231.743 82,230.5C 81.5676,225.154 81.7343,219.82 82.5,214.5 Z"/></g>
<g><path style="opacity:1" fill="#c63320" d="M 68.5,225.5 C 71.149,228.471 72.9823,231.804 74,235.5C 72,233.5 70,231.5 68,229.5C 67.4209,228.072 67.5876,226.738 68.5,225.5 Z"/></g>
<g><path style="opacity:1" fill="#007a35" d="M 44.5,277.5 C 40.7466,261.629 42.2466,246.295 49,231.5C 49.1739,236.684 49.6739,241.684 50.5,246.5C 50.5173,248.028 51.184,248.528 52.5,248C 57.767,242.575 62.4337,236.742 66.5,230.5C 71.5,234.833 76.1667,239.5 80.5,244.5C 72.3586,259.474 61.5252,272.141 48,282.5C 46.3308,281.154 45.1642,279.487 44.5,277.5 Z"/></g>
<g><path style="opacity:1" fill="#ce3420" d="M 81.5,232.5 C 83.1998,233.016 84.5331,234.016 85.5,235.5C 84.4196,237.996 83.0862,240.33 81.5,242.5C 80.3342,239.163 80.3342,235.83 81.5,232.5 Z"/></g>
</svg>
