<?xml version="1.0" encoding="UTF-8"?>
<!DOCTYPE svg PUBLIC "-//W3C//DTD SVG 1.1//EN" "http://www.w3.org/Graphics/SVG/1.1/DTD/svg11.dtd">
<svg xmlns="http://www.w3.org/2000/svg" version="1.1" width="300px" height="300px" style="shape-rendering:geometricPrecision; text-rendering:geometricPrecision; image-rendering:optimizeQuality; fill-rule:evenodd; clip-rule:evenodd" xmlns:xlink="http://www.w3.org/1999/xlink">
<g><path style="opacity:1" fill="#fada00" d="M 211.5,56.5 C 202.278,68.7304 192.278,80.3971 181.5,91.5C 178.379,93.4482 175.379,95.6148 172.5,98C 168.706,99.7197 164.873,99.8863 161,98.5C 159.872,96.6547 159.372,94.6547 159.5,92.5C 159.511,90.9826 160.177,89.8159 161.5,89C 163.473,88.5045 165.473,88.3379 167.5,88.5C 168.341,90.3792 168.675,92.3792 168.5,94.5C 167.022,94.238 165.689,94.5713 164.5,95.5C 166.611,96.8485 168.445,96.5152 170,94.5C 170.428,91.6783 169.928,89.0116 168.5,86.5C 174.506,73.8082 181.506,61.8082 189.5,50.5C 191.433,48.0626 193.6,45.7293 196,43.5C 193.516,49.4769 190.683,55.4769 187.5,61.5C 187.667,61.8333 187.833,62.1667 188,62.5C 189.113,60.6707 190.613,59.8374 192.5,60C 190.912,61.987 190.079,64.1537 190,66.5C 191.763,63.9804 193.763,61.6471 196,59.5C 196.617,60.4491 196.451,61.2825 195.5,62C 196.738,61.9227 197.738,62.0894 198.5,62.5C 197.572,63.7678 197.405,65.1011 198,66.5C 202.667,61.8333 207.333,57.1667 212,52.5C 212.195,53.8193 212.028,55.1526 211.5,56.5 Z"/></g>
<g><path style="opacity:0.859" fill="#1b171b" d="M 183.5,91.5 C 182.833,91.5 182.167,91.5 181.5,91.5C 192.278,80.3971 202.278,68.7304 211.5,56.5C 217.959,49.2267 223.126,41.2267 227,32.5C 226,33.5 225,34.5 224,35.5C 223.833,35.1667 223.667,34.8333 223.5,34.5C 228.703,24.3641 233.203,14.0308 237,3.5C 229.216,9.98319 221.716,16.8165 214.5,24C 213.833,24.6667 213.167,24.6667 212.5,24C 214.103,21.32 214.937,18.4867 215,15.5C 210.833,21.8333 206.667,28.1667 202.5,34.5C 201.998,35.521 201.332,35.6877 200.5,35C 201.842,32.985 202.342,30.8183 202,28.5C 197.177,35.4822 193.011,42.8156 189.5,50.5C 181.506,61.8082 174.506,73.8082 168.5,86.5C 167.662,86.8417 167.328,87.5084 167.5,88.5C 165.473,88.3379 163.473,88.5045 161.5,89C 160.177,89.8159 159.511,90.9826 159.5,92.5C 159.167,92.5 158.833,92.5 158.5,92.5C 158.905,90.3502 159.405,88.3502 160,86.5C 151.507,81.419 142.34,78.919 132.5,79C 133.252,79.6708 133.586,80.5041 133.5,81.5C 125.781,70.0604 117.114,59.3937 107.5,49.5C 101.542,42.3714 95.3751,35.3714 89,28.5C 90.1553,33.5965 92.9886,37.7631 97.5,41C 97.1667,41.1667 96.8333,41.3333 96.5,41.5C 87.0697,33.0671 77.0697,25.4004 66.5,18.5C 66.782,20.8352 68.1153,23.0019 70.5,25C 70.1667,25.1667 69.8333,25.3333 69.5,25.5C 56.4471,17.9666 42.7804,12.1333 28.5,8C 44.299,25.139 61.299,40.8056 79.5,55C 77.5,55 75.5,55 73.5,55C 78.5291,58.5097 83.5291,62.0097 88.5,65.5C 103.395,77.222 118.728,88.3887 134.5,99C 138.072,100.405 141.739,100.738 145.5,100C 149.934,96.7331 150.6,92.7331 147.5,88C 143.863,85.8549 140.53,86.0216 137.5,88.5C 137.167,88.5 136.833,88.5 136.5,88.5C 136.167,87.1667 135.833,85.8333 135.5,84.5C 139.866,85.0715 144.199,85.9048 148.5,87C 151.408,89.7066 152.075,92.8733 150.5,96.5C 151.867,97.84 153.2,99.1733 154.5,100.5C 152.94,100.481 151.44,100.148 150,99.5C 148.105,100.689 146.105,101.689 144,102.5C 144.727,113.773 139.56,118.94 128.5,118C 118.715,111.57 118.048,104.403 126.5,96.5C 125.717,94.7118 124.384,93.7118 122.5,93.5C 117.685,89.5302 112.685,85.6969 107.5,82C 104.406,81.3482 101.406,81.6815 98.5,83C 83.6795,89.4809 71.5128,99.3142 62,112.5C 56.9548,119.423 51.7881,126.256 46.5,133C 45.1667,133.667 43.8333,134.333 42.5,135C 37.2497,135.193 32.083,135.693 27,136.5C 24.7052,155.979 28.7052,173.979 39,190.5C 39.1667,189.833 39.3333,189.167 39.5,188.5C 38.5282,185.536 38.3615,182.536 39,179.5C 40.8808,187.068 42.0475,194.735 42.5,202.5C 42.6254,207.333 41.7921,212 40,216.5C 36.0771,222.924 31.5771,228.924 26.5,234.5C 30.5404,234.926 34.2071,236.259 37.5,238.5C 38.086,238.291 38.586,237.957 39,237.5C 41.6509,226.397 44.4842,215.397 47.5,204.5C 51.1465,192.202 55.6465,180.202 61,168.5C 68.8005,153.884 76.8005,139.55 85,125.5C 85,126.833 85,128.167 85,129.5C 85.7175,128.549 86.5509,128.383 87.5,129C 72.6136,148.589 61.1136,170.089 53,193.5C 46.7105,213.33 41.3771,233.33 37,253.5C 39.3333,252.5 41,250.833 42,248.5C 42.8893,253.931 43.8893,259.264 45,264.5C 47.3773,260.912 49.8773,257.412 52.5,254C 53.635,253.251 54.635,253.417 55.5,254.5C 57.836,260.51 60.1694,266.51 62.5,272.5C 66,266.167 69.5,259.833 73,253.5C 77.738,258.244 81.738,263.577 85,269.5C 87.0025,263.654 88.1692,257.654 88.5,251.5C 92.065,252.956 95.3983,254.956 98.5,257.5C 99.086,257.291 99.586,256.957 100,256.5C 100.333,253.167 100.667,249.833 101,246.5C 104.837,249.085 105.171,248.751 102,245.5C 96.5108,235.544 93.5108,224.878 93,213.5C 91.4733,192.307 92.8066,171.307 97,150.5C 97.9419,147.007 99.2752,143.674 101,140.5C 95.4643,164.297 93.6309,188.297 95.5,212.5C 95.4365,218.262 96.1032,223.929 97.5,229.5C 122.233,233.948 144.9,229.115 165.5,215C 171.708,210.293 177.042,204.793 181.5,198.5C 194.849,179.08 199.016,157.747 194,134.5C 190.857,163.636 174.691,176.469 145.5,173C 119.223,166.238 107.223,149.404 109.5,122.5C 110.522,122.855 111.189,123.522 111.5,124.5C 110.235,125.514 109.569,127.014 109.5,129C 110.027,134.636 111.194,140.136 113,145.5C 114.015,148.21 115.515,150.543 117.5,152.5C 118.857,150.435 120.19,148.435 121.5,146.5C 120.609,149.577 119.776,152.577 119,155.5C 135.865,171.918 155.032,175.418 176.5,166C 180.752,162.419 184.252,158.252 187,153.5C 187.701,150.072 187.368,146.738 186,143.5C 184.248,146.672 182.248,149.672 180,152.5C 177.277,149.443 174.944,146.11 173,142.5C 169,147.167 165,151.833 161,156.5C 160.283,155.956 159.783,155.289 159.5,154.5C 161.017,154.489 162.184,153.823 163,152.5C 165.926,148.318 169.093,144.318 172.5,140.5C 175.546,143.385 178.046,146.718 180,150.5C 182,147.167 184,143.833 186,140.5C 187.583,142.911 188.583,145.578 189,148.5C 191.209,141.988 191.876,135.321 191,128.5C 190.617,129.056 190.117,129.389 189.5,129.5C 193.788,122.999 192.788,117.332 186.5,112.5C 185.828,113.949 185.161,115.282 184.5,116.5C 184.353,113.208 183.353,110.208 181.5,107.5C 179.404,104.738 177.738,101.738 176.5,98.5C 179.709,101.228 182.209,104.561 184,108.5C 192.07,111.813 195.237,117.646 193.5,126C 194.525,128.071 195.358,130.238 196,132.5C 225.467,155.631 247.801,184.298 263,218.5C 269.576,223.887 274.743,230.22 278.5,237.5C 276.396,237.201 274.396,237.534 272.5,238.5C 278.453,248.759 277.619,258.426 270,267.5C 264.22,271.972 258.053,275.806 251.5,279C 242.896,280.542 234.23,280.876 225.5,280C 219.399,277.908 214.399,274.241 210.5,269C 200.803,267.085 196.303,261.252 197,251.5C 199.412,247.084 202.578,243.251 206.5,240C 205.692,239.692 205.025,239.192 204.5,238.5C 208.256,232.987 210.923,226.987 212.5,220.5C 210.236,203.876 205.07,188.209 197,173.5C 191.745,191.418 181.745,206.085 167,217.5C 167.9,227.166 164.4,234.666 156.5,240C 160.536,241.791 164.369,243.958 168,246.5C 168.795,250.791 167.295,253.958 163.5,256C 153.099,260.355 142.766,260.355 132.5,256C 129.833,254 128.5,251.333 128.5,248C 129.057,244.105 130.557,240.605 133,237.5C 133.808,235.421 133.641,233.421 132.5,231.5C 127.276,232.903 121.943,233.569 116.5,233.5C 110.411,233.313 104.411,232.813 98.5,232C 100.576,238.319 103.576,244.152 107.5,249.5C 107.291,250.086 106.957,250.586 106.5,251C 111.279,254.478 115.779,258.311 120,262.5C 122.31,267.285 121.643,271.619 118,275.5C 115.919,278.748 113.086,281.081 109.5,282.5C 108.731,285.872 107.065,288.705 104.5,291C 87.3058,299.517 69.9724,299.517 52.5,291C 49.9382,288.587 46.9382,286.92 43.5,286C 41.6217,284.457 40.1217,282.624 39,280.5C 37.5989,272.585 37.0989,264.585 37.5,256.5C 25.2134,257.81 20.0467,252.477 22,240.5C 23.1628,238.715 23.8295,236.715 24,234.5C 28,229.167 32,223.833 36,218.5C 39.9433,211.181 40.9433,203.514 39,195.5C 32.8552,187.874 28.8552,179.207 27,169.5C 23.8427,158.266 23.176,146.932 25,135.5C 28.7807,132.149 33.114,131.482 38,133.5C 39.9674,133.458 41.8008,132.958 43.5,132C 53.7491,118.413 64.7491,105.413 76.5,93C 84.2738,86.7781 92.9404,82.1115 102.5,79C 91.3766,71.0399 80.7099,62.5399 70.5,53.5C 71.0253,52.8076 71.6919,52.3076 72.5,52C 55.7489,38.4184 40.0823,23.5851 25.5,7.5C 27.7649,6.35258 30.0982,6.18591 32.5,7C 43.3312,10.417 53.6645,14.917 63.5,20.5C 64.5896,19.6086 64.5896,18.6086 63.5,17.5C 64.723,16.3861 66.0563,16.2195 67.5,17C 74.0987,20.5477 80.2654,24.7144 86,29.5C 86.4828,28.552 86.6495,27.552 86.5,26.5C 87.552,26.3505 88.552,26.5172 89.5,27C 104.82,41.4805 118.486,57.3138 130.5,74.5C 142.626,76.3194 153.959,80.3194 164.5,86.5C 165.442,86.3918 166.275,86.0585 167,85.5C 176.988,65.5164 187.988,46.1831 200,27.5C 202.112,23.8729 203.779,23.8729 205,27.5C 207.798,22.7372 210.964,18.2372 214.5,14C 215.635,13.2506 216.635,13.4173 217.5,14.5C 216.572,15.7678 216.405,17.1011 217,18.5C 221.595,14.4496 226.095,10.2829 230.5,6C 232.976,3.42886 235.976,1.92886 239.5,1.5C 236.82,10.8656 233.154,19.8656 228.5,28.5C 230.04,29.5321 230.54,30.8654 230,32.5C 217.855,54.7796 202.355,74.4463 183.5,91.5 Z"/></g>
<g><path style="opacity:1" fill="#f8d901" d="M 107.5,49.5 C 117.114,59.3937 125.781,70.0604 133.5,81.5C 133.427,83.0269 134.094,84.0269 135.5,84.5C 135.833,85.8333 136.167,87.1667 136.5,88.5C 134.637,93.0261 136.304,95.6927 141.5,96.5C 143.569,96.2147 144.902,95.048 145.5,93C 143.381,94.0202 141.047,94.3535 138.5,94C 137.594,92.3005 137.261,90.4672 137.5,88.5C 140.53,86.0216 143.863,85.8549 147.5,88C 150.6,92.7331 149.934,96.7331 145.5,100C 141.739,100.738 138.072,100.405 134.5,99C 118.728,88.3887 103.395,77.222 88.5,65.5C 88.3691,64.6236 88.7025,63.9569 89.5,63.5C 93.6756,66.0876 97.6756,68.9209 101.5,72C 102.167,72.6667 102.833,72.6667 103.5,72C 102.167,70.6667 100.833,69.3333 99.5,68C 101.163,67.7351 102.663,68.2351 104,69.5C 104.167,69.1667 104.333,68.8333 104.5,68.5C 102.667,66.1667 100.833,63.8333 99,61.5C 98.3123,60.6683 98.479,60.0016 99.5,59.5C 103.417,61.7078 107.25,64.0411 111,66.5C 111.5,65.3333 112.333,64.5 113.5,64C 109.421,58.3135 105.921,52.4802 103,46.5C 104.129,48.1412 105.629,49.1412 107.5,49.5 Z"/></g>
<g><path style="opacity:1" fill="#e10713" d="M 107.5,49.5 C 105.629,49.1412 104.129,48.1412 103,46.5C 105.921,52.4802 109.421,58.3135 113.5,64C 112.333,64.5 111.5,65.3333 111,66.5C 107.25,64.0411 103.417,61.7078 99.5,59.5C 98.479,60.0016 98.3123,60.6683 99,61.5C 100.833,63.8333 102.667,66.1667 104.5,68.5C 104.333,68.8333 104.167,69.1667 104,69.5C 102.663,68.2351 101.163,67.7351 99.5,68C 100.833,69.3333 102.167,70.6667 103.5,72C 102.833,72.6667 102.167,72.6667 101.5,72C 97.6756,68.9209 93.6756,66.0876 89.5,63.5C 88.7025,63.9569 88.3691,64.6236 88.5,65.5C 83.5291,62.0097 78.5291,58.5097 73.5,55C 75.5,55 77.5,55 79.5,55C 61.299,40.8056 44.299,25.139 28.5,8C 42.7804,12.1333 56.4471,17.9666 69.5,25.5C 69.8333,25.3333 70.1667,25.1667 70.5,25C 68.1153,23.0019 66.782,20.8352 66.5,18.5C 77.0697,25.4004 87.0697,33.0671 96.5,41.5C 96.8333,41.3333 97.1667,41.1667 97.5,41C 92.9886,37.7631 90.1553,33.5965 89,28.5C 95.3751,35.3714 101.542,42.3714 107.5,49.5 Z"/></g>
<g><path style="opacity:1" fill="#e10c13" d="M 211.5,56.5 C 212.028,55.1526 212.195,53.8193 212,52.5C 207.333,57.1667 202.667,61.8333 198,66.5C 197.405,65.1011 197.572,63.7678 198.5,62.5C 197.738,62.0894 196.738,61.9227 195.5,62C 196.451,61.2825 196.617,60.4491 196,59.5C 193.763,61.6471 191.763,63.9804 190,66.5C 190.079,64.1537 190.912,61.987 192.5,60C 190.613,59.8374 189.113,60.6707 188,62.5C 187.833,62.1667 187.667,61.8333 187.5,61.5C 190.683,55.4769 193.516,49.4769 196,43.5C 193.6,45.7293 191.433,48.0626 189.5,50.5C 193.011,42.8156 197.177,35.4822 202,28.5C 202.342,30.8183 201.842,32.985 200.5,35C 201.332,35.6877 201.998,35.521 202.5,34.5C 206.667,28.1667 210.833,21.8333 215,15.5C 214.937,18.4867 214.103,21.32 212.5,24C 213.167,24.6667 213.833,24.6667 214.5,24C 221.716,16.8165 229.216,9.98319 237,3.5C 233.203,14.0308 228.703,24.3641 223.5,34.5C 223.667,34.8333 223.833,35.1667 224,35.5C 225,34.5 226,33.5 227,32.5C 223.126,41.2267 217.959,49.2267 211.5,56.5 Z"/></g>
<g><path style="opacity:1" fill="#a5181e" d="M 158.5,92.5 C 157.742,94.9815 157.742,97.6481 158.5,100.5C 157.167,100.5 155.833,100.5 154.5,100.5C 153.2,99.1733 151.867,97.84 150.5,96.5C 152.075,92.8733 151.408,89.7066 148.5,87C 144.199,85.9048 139.866,85.0715 135.5,84.5C 135.573,82.9731 134.906,81.9731 133.5,81.5C 133.586,80.5041 133.252,79.6708 132.5,79C 142.34,78.919 151.507,81.419 160,86.5C 159.405,88.3502 158.905,90.3502 158.5,92.5 Z"/></g>
<g><path style="opacity:1" fill="#aa181e" d="M 122.5,93.5 C 117.99,97.1766 113.99,101.343 110.5,106C 114.455,111.877 119.122,117.21 124.5,122C 126.387,122.78 128.054,122.613 129.5,121.5C 135.776,120.18 142.109,119.68 148.5,120C 152.631,122.441 156.965,124.608 161.5,126.5C 163.261,125.965 164.594,124.965 165.5,123.5C 166.899,122.11 168.566,121.11 170.5,120.5C 174.861,121.423 179.194,121.423 183.5,120.5C 184.246,119.264 184.579,117.93 184.5,116.5C 185.161,115.282 185.828,113.949 186.5,112.5C 192.788,117.332 193.788,122.999 189.5,129.5C 186.628,131.544 183.628,131.377 180.5,129C 178.167,128.333 175.833,128.333 173.5,129C 169.229,131.474 164.896,133.641 160.5,135.5C 155.023,131.763 149.023,129.097 142.5,127.5C 136.433,128.851 130.433,130.517 124.5,132.5C 120.132,129.78 115.799,127.113 111.5,124.5C 111.189,123.522 110.522,122.855 109.5,122.5C 107.223,149.404 119.223,166.238 145.5,173C 174.691,176.469 190.857,163.636 194,134.5C 199.016,157.747 194.849,179.08 181.5,198.5C 179.629,198.859 178.129,199.859 177,201.5C 176.601,201.272 176.435,200.938 176.5,200.5C 180.713,195.268 182.046,189.435 180.5,183C 177.15,182.07 174.317,182.903 172,185.5C 167.995,190.159 166.328,195.493 167,201.5C 167.278,202.416 167.778,203.082 168.5,203.5C 168.918,204.222 169.584,204.722 170.5,205C 146.473,217.265 121.473,219.765 95.5,212.5C 93.6309,188.297 95.4643,164.297 101,140.5C 99.2752,143.674 97.9419,147.007 97,150.5C 92.8066,171.307 91.4733,192.307 93,213.5C 93.5108,224.878 96.5108,235.544 102,245.5C 105.171,248.751 104.837,249.085 101,246.5C 100.667,249.833 100.333,253.167 100,256.5C 99.586,256.957 99.086,257.291 98.5,257.5C 95.3983,254.956 92.065,252.956 88.5,251.5C 88.1692,257.654 87.0025,263.654 85,269.5C 81.738,263.577 77.738,258.244 73,253.5C 69.5,259.833 66,266.167 62.5,272.5C 60.1694,266.51 57.836,260.51 55.5,254.5C 54.635,253.417 53.635,253.251 52.5,254C 49.8773,257.412 47.3773,260.912 45,264.5C 43.8893,259.264 42.8893,253.931 42,248.5C 41,250.833 39.3333,252.5 37,253.5C 41.3771,233.33 46.7105,213.33 53,193.5C 61.1136,170.089 72.6136,148.589 87.5,129C 86.5509,128.383 85.7175,128.549 85,129.5C 85,128.167 85,126.833 85,125.5C 76.8005,139.55 68.8005,153.884 61,168.5C 55.6465,180.202 51.1465,192.202 47.5,204.5C 45.4862,204.608 43.8195,203.942 42.5,202.5C 42.0475,194.735 40.8808,187.068 39,179.5C 38.3615,182.536 38.5282,185.536 39.5,188.5C 39.3333,189.167 39.1667,189.833 39,190.5C 28.7052,173.979 24.7052,155.979 27,136.5C 32.083,135.693 37.2497,135.193 42.5,135C 43.8333,134.333 45.1667,133.667 46.5,133C 51.7881,126.256 56.9548,119.423 62,112.5C 71.5128,99.3142 83.6795,89.4809 98.5,83C 101.406,81.6815 104.406,81.3482 107.5,82C 112.685,85.6969 117.685,89.5302 122.5,93.5 Z"/></g>
<g><path style="opacity:1" fill="#251d1a" d="M 133.5,81.5 C 134.906,81.9731 135.573,82.9731 135.5,84.5C 134.094,84.0269 133.427,83.0269 133.5,81.5 Z"/></g>
<g><path style="opacity:1" fill="#443f18" d="M 168.5,86.5 C 169.928,89.0116 170.428,91.6783 170,94.5C 168.445,96.5152 166.611,96.8485 164.5,95.5C 165.689,94.5713 167.022,94.238 168.5,94.5C 168.675,92.3792 168.341,90.3792 167.5,88.5C 167.328,87.5084 167.662,86.8417 168.5,86.5 Z"/></g>
<g><path style="opacity:1" fill="#544e17" d="M 136.5,88.5 C 136.833,88.5 137.167,88.5 137.5,88.5C 137.261,90.4672 137.594,92.3005 138.5,94C 141.047,94.3535 143.381,94.0202 145.5,93C 144.902,95.048 143.569,96.2147 141.5,96.5C 136.304,95.6927 134.637,93.0261 136.5,88.5 Z"/></g>
<g><path style="opacity:1" fill="#eff0f0" d="M 127.5,98.5 C 132.167,99.8333 136.833,101.167 141.5,102.5C 142.651,113.182 137.984,117.349 127.5,115C 122.212,109.456 122.212,103.956 127.5,98.5 Z"/></g>
<g><path style="opacity:1" fill="#e99338" d="M 122.5,93.5 C 124.384,93.7118 125.717,94.7118 126.5,96.5C 118.048,104.403 118.715,111.57 128.5,118C 139.56,118.94 144.727,113.773 144,102.5C 146.105,101.689 148.105,100.689 150,99.5C 151.44,100.148 152.94,100.481 154.5,100.5C 156.322,103.038 158.322,103.038 160.5,100.5C 161.736,101.246 163.07,101.579 164.5,101.5C 164.155,112.661 169.321,117.661 180,116.5C 181.398,113.403 181.898,110.403 181.5,107.5C 183.353,110.208 184.353,113.208 184.5,116.5C 183.651,118.5 182.151,119.833 180,120.5C 176.671,119.359 173.505,119.359 170.5,120.5C 168.566,121.11 166.899,122.11 165.5,123.5C 163.545,124.323 161.545,124.49 159.5,124C 154.822,120.663 149.655,118.496 144,117.5C 138.863,118.163 134.029,119.496 129.5,121.5C 128.127,121.657 126.793,121.49 125.5,121C 121.352,116.018 117.019,111.184 112.5,106.5C 115.881,102.129 119.215,97.796 122.5,93.5 Z"/></g>
<g><path style="opacity:1" fill="#171b22" d="M 128.5,101.5 C 134.499,101.002 136.666,103.669 135,109.5C 132.182,113.424 129.182,113.424 126,109.5C 124.837,106.029 125.67,103.362 128.5,101.5 Z"/></g>
<g><path style="opacity:1" fill="#261b1c" d="M 122.5,93.5 C 119.215,97.796 115.881,102.129 112.5,106.5C 117.019,111.184 121.352,116.018 125.5,121C 126.793,121.49 128.127,121.657 129.5,121.5C 128.054,122.613 126.387,122.78 124.5,122C 119.122,117.21 114.455,111.877 110.5,106C 113.99,101.343 117.99,97.1766 122.5,93.5 Z"/></g>
<g><path style="opacity:1" fill="#2f2824" d="M 181.5,91.5 C 182.167,91.5 182.833,91.5 183.5,91.5C 180.973,93.6054 178.64,95.9387 176.5,98.5C 177.738,101.738 179.404,104.738 181.5,107.5C 181.898,110.403 181.398,113.403 180,116.5C 169.321,117.661 164.155,112.661 164.5,101.5C 163.07,101.579 161.736,101.246 160.5,100.5C 158.322,103.038 156.322,103.038 154.5,100.5C 155.833,100.5 157.167,100.5 158.5,100.5C 157.742,97.6481 157.742,94.9815 158.5,92.5C 158.833,92.5 159.167,92.5 159.5,92.5C 159.372,94.6547 159.872,96.6547 161,98.5C 164.873,99.8863 168.706,99.7197 172.5,98C 175.379,95.6148 178.379,93.4482 181.5,91.5 Z"/></g>
<g><path style="opacity:1" fill="#eaeaeb" d="M 168.5,100.5 C 176.491,102.19 179.824,107.19 178.5,115.5C 171.966,114.634 167.966,110.967 166.5,104.5C 166.803,102.886 167.47,101.552 168.5,100.5 Z"/></g>
<g><path style="opacity:1" fill="#1a1e25" d="M 168.5,103.5 C 173.568,103.601 175.901,106.267 175.5,111.5C 170.42,111.38 168.087,108.713 168.5,103.5 Z"/></g>
<g><path style="opacity:1" fill="#34291f" d="M 153.5,115.5 C 155.225,115.843 155.725,116.843 155,118.5C 153.961,117.756 153.461,116.756 153.5,115.5 Z"/></g>
<g><path style="opacity:1" fill="#413022" d="M 162.5,115.5 C 164.465,115.948 164.798,116.948 163.5,118.5C 162.614,117.675 162.281,116.675 162.5,115.5 Z"/></g>
<g><path style="opacity:1" fill="#271b1c" d="M 165.5,123.5 C 164.594,124.965 163.261,125.965 161.5,126.5C 156.965,124.608 152.631,122.441 148.5,120C 142.109,119.68 135.776,120.18 129.5,121.5C 134.029,119.496 138.863,118.163 144,117.5C 149.655,118.496 154.822,120.663 159.5,124C 161.545,124.49 163.545,124.323 165.5,123.5 Z"/></g>
<g><path style="opacity:1" fill="#33201e" d="M 184.5,116.5 C 184.579,117.93 184.246,119.264 183.5,120.5C 179.194,121.423 174.861,121.423 170.5,120.5C 173.505,119.359 176.671,119.359 180,120.5C 182.151,119.833 183.651,118.5 184.5,116.5 Z"/></g>
<g><path style="opacity:1" fill="#f8f8f8" d="M 111.5,124.5 C 115.903,130.035 121.57,132.868 128.5,133C 133.491,131.507 138.491,130.007 143.5,128.5C 149.08,131.126 154.746,133.459 160.5,135.5C 161.601,136.598 162.934,136.765 164.5,136C 168.268,133.7 172.102,131.533 176,129.5C 180.046,131.222 184.212,132.056 188.5,132C 189.252,131.329 189.586,130.496 189.5,129.5C 190.117,129.389 190.617,129.056 191,128.5C 191.876,135.321 191.209,141.988 189,148.5C 188.583,145.578 187.583,142.911 186,140.5C 184,143.833 182,147.167 180,150.5C 178.046,146.718 175.546,143.385 172.5,140.5C 169.093,144.318 165.926,148.318 163,152.5C 162.184,153.823 161.017,154.489 159.5,154.5C 156.165,149.5 152.165,145.167 147.5,141.5C 144.103,143.894 141.437,146.894 139.5,150.5C 138.185,151.476 136.852,152.476 135.5,153.5C 134.482,152.807 133.482,152.141 132.5,151.5C 130.168,147.532 127.335,143.866 124,140.5C 122.337,142.158 121.504,144.158 121.5,146.5C 120.19,148.435 118.857,150.435 117.5,152.5C 115.515,150.543 114.015,148.21 113,145.5C 111.194,140.136 110.027,134.636 109.5,129C 109.569,127.014 110.235,125.514 111.5,124.5 Z"/></g>
<g><path style="opacity:1" fill="#241f24" d="M 189.5,129.5 C 189.586,130.496 189.252,131.329 188.5,132C 184.212,132.056 180.046,131.222 176,129.5C 172.102,131.533 168.268,133.7 164.5,136C 162.934,136.765 161.601,136.598 160.5,135.5C 164.896,133.641 169.229,131.474 173.5,129C 175.833,128.333 178.167,128.333 180.5,129C 183.628,131.377 186.628,131.544 189.5,129.5 Z"/></g>
<g><path style="opacity:1" fill="#2b2228" d="M 111.5,124.5 C 115.799,127.113 120.132,129.78 124.5,132.5C 130.433,130.517 136.433,128.851 142.5,127.5C 149.023,129.097 155.023,131.763 160.5,135.5C 154.746,133.459 149.08,131.126 143.5,128.5C 138.491,130.007 133.491,131.507 128.5,133C 121.57,132.868 115.903,130.035 111.5,124.5 Z"/></g>
<g><path style="opacity:1" fill="#ab181e" d="M 249.5,247.5 C 248.746,245.554 247.412,244.721 245.5,245C 243.368,248.764 240.868,252.264 238,255.5C 235.754,250.674 233.254,246.008 230.5,241.5C 227.812,244.022 224.979,246.356 222,248.5C 220,242.5 218,236.5 216,230.5C 215.691,231.766 215.191,232.933 214.5,234C 212.254,235.039 210.087,236.206 208,237.5C 209.804,233.612 211.804,229.612 214,225.5C 214.498,222.183 214.665,218.85 214.5,215.5C 215.484,194.449 210.151,175.116 198.5,157.5C 198.491,150.404 197.991,143.404 197,136.5C 224.45,160.087 246.116,188.087 262,220.5C 266.384,225.429 270.884,230.262 275.5,235C 272.196,235.634 269.363,234.8 267,232.5C 267.285,236.212 268.118,239.879 269.5,243.5C 269.167,244.167 268.833,244.833 268.5,245.5C 265.244,243.289 262.078,240.955 259,238.5C 257.886,243.022 257.053,247.689 256.5,252.5C 254.408,250.395 252.075,248.728 249.5,247.5 Z"/></g>
<g><path style="opacity:1" fill="#3a3e44" d="M 132.5,151.5 C 129.521,149.188 126.854,146.521 124.5,143.5C 123.712,144.77 122.712,145.77 121.5,146.5C 121.504,144.158 122.337,142.158 124,140.5C 127.335,143.866 130.168,147.532 132.5,151.5 Z"/></g>
<g><path style="opacity:1" fill="#fafafa" d="M 159.5,154.5 C 159.783,155.289 160.283,155.956 161,156.5C 165,151.833 169,147.167 173,142.5C 174.944,146.11 177.277,149.443 180,152.5C 182.248,149.672 184.248,146.672 186,143.5C 187.368,146.738 187.701,150.072 187,153.5C 184.252,158.252 180.752,162.419 176.5,166C 155.032,175.418 135.865,171.918 119,155.5C 119.776,152.577 120.609,149.577 121.5,146.5C 122.712,145.77 123.712,144.77 124.5,143.5C 126.854,146.521 129.521,149.188 132.5,151.5C 132.712,153.384 133.712,154.717 135.5,155.5C 137.611,154.395 138.945,152.729 139.5,150.5C 142.479,148.188 145.146,145.521 147.5,142.5C 151.188,146.854 155.188,150.854 159.5,154.5 Z"/></g>
<g><path style="opacity:1" fill="#282c32" d="M 159.5,154.5 C 155.188,150.854 151.188,146.854 147.5,142.5C 145.146,145.521 142.479,148.188 139.5,150.5C 141.437,146.894 144.103,143.894 147.5,141.5C 152.165,145.167 156.165,149.5 159.5,154.5 Z"/></g>
<g><path style="opacity:1" fill="#53575c" d="M 139.5,150.5 C 138.945,152.729 137.611,154.395 135.5,155.5C 133.712,154.717 132.712,153.384 132.5,151.5C 133.482,152.141 134.482,152.807 135.5,153.5C 136.852,152.476 138.185,151.476 139.5,150.5 Z"/></g>
<g><path style="opacity:1" fill="#8f0f15" d="M 198.5,157.5 C 210.151,175.116 215.484,194.449 214.5,215.5C 211.919,199.266 206.419,183.932 198,169.5C 197.393,165.463 197.56,161.463 198.5,157.5 Z"/></g>
<g><path style="opacity:1" fill="#291d1d" d="M 121.5,204.5 C 118.779,196.656 120.779,189.823 127.5,184C 133.035,180.908 135.702,182.408 135.5,188.5C 135.471,194.724 133.138,199.89 128.5,204C 126.105,205.598 123.772,205.764 121.5,204.5 Z"/></g>
<g><path style="opacity:1" fill="#ea9438" d="M 121.5,204.5 C 120.571,196.785 122.904,190.285 128.5,185C 130.044,183.813 131.711,183.48 133.5,184C 134.769,192.186 132.102,198.852 125.5,204C 124.207,204.49 122.873,204.657 121.5,204.5 Z"/></g>
<g><path style="opacity:1" fill="#2c1f1e" d="M 176.5,200.5 C 174.455,202.984 171.788,203.984 168.5,203.5C 167.778,203.082 167.278,202.416 167,201.5C 166.328,195.493 167.995,190.159 172,185.5C 174.317,182.903 177.15,182.07 180.5,183C 182.046,189.435 180.713,195.268 176.5,200.5 Z"/></g>
<g><path style="opacity:1" fill="#eb9439" d="M 176.5,183.5 C 177.5,183.5 178.5,183.5 179.5,183.5C 180.217,190.854 177.883,197.02 172.5,202C 171.207,202.49 169.873,202.657 168.5,202.5C 167.641,194.564 170.308,188.23 176.5,183.5 Z"/></g>
<g><path style="opacity:1" fill="#271c1d" d="M 155.5,180.5 C 162.672,179.49 165.172,182.49 163,189.5C 162.042,197.121 158.542,203.288 152.5,208C 146.32,211.21 143.32,209.376 143.5,202.5C 143.542,199.741 144.042,197.075 145,194.5C 147.563,189.108 151.063,184.441 155.5,180.5 Z"/></g>
<g><path style="opacity:1" fill="#ec9539" d="M 156.5,181.5 C 158.167,181.5 159.833,181.5 161.5,181.5C 162.294,191.076 159.294,199.242 152.5,206C 145.433,209.27 142.933,207.103 145,199.5C 147.448,192.565 151.281,186.565 156.5,181.5 Z"/></g>
<g><path style="opacity:1" fill="#910f15" d="M 181.5,198.5 C 177.042,204.793 171.708,210.293 165.5,215C 144.9,229.115 122.233,233.948 97.5,229.5C 96.1032,223.929 95.4365,218.262 95.5,212.5C 121.473,219.765 146.473,217.265 170.5,205C 169.584,204.722 168.918,204.222 168.5,203.5C 171.788,203.984 174.455,202.984 176.5,200.5C 176.435,200.938 176.601,201.272 177,201.5C 178.129,199.859 179.629,198.859 181.5,198.5 Z"/></g>
<g><path style="opacity:1" fill="#8d0f15" d="M 42.5,202.5 C 43.8195,203.942 45.4862,204.608 47.5,204.5C 44.4842,215.397 41.6509,226.397 39,237.5C 38.586,237.957 38.086,238.291 37.5,238.5C 34.2071,236.259 30.5404,234.926 26.5,234.5C 31.5771,228.924 36.0771,222.924 40,216.5C 41.7921,212 42.6254,207.333 42.5,202.5 Z"/></g>
<g><path style="opacity:1" fill="#8e0f15" d="M 163.5,218.5 C 165.264,227.818 161.93,234.984 153.5,240C 154.167,240.333 154.833,240.667 155.5,241C 153.205,242.502 150.872,242.668 148.5,241.5C 146.945,241.722 145.611,242.389 144.5,243.5C 141.594,240.528 138.26,239.861 134.5,241.5C 134.621,237.544 135.621,233.878 137.5,230.5C 146.997,228.082 155.664,224.082 163.5,218.5 Z"/></g>
<g><path style="opacity:1" fill="#e69137" d="M 249.5,247.5 C 251.668,251.012 254.668,253.345 258.5,254.5C 258.757,250.108 259.424,245.775 260.5,241.5C 263.833,243.833 267.167,246.167 270.5,248.5C 270.833,247.833 271.167,247.167 271.5,246.5C 270.499,243.518 269.999,240.518 270,237.5C 273.465,243.414 274.798,249.748 274,256.5C 271.829,262.961 270.163,262.961 269,256.5C 269.505,261.514 268.005,265.681 264.5,269C 262.667,270.167 260.833,271.333 259,272.5C 258.667,270.167 258.333,267.833 258,265.5C 258.445,271.782 255.612,275.616 249.5,277C 246.854,277.497 244.187,277.664 241.5,277.5C 242.263,274.859 242.43,272.192 242,269.5C 241.22,272.512 240.053,275.345 238.5,278C 227.785,280.323 219.451,276.99 213.5,268C 215.398,263.992 216.232,259.826 216,255.5C 215.02,258.898 213.854,262.231 212.5,265.5C 204.258,266.452 199.592,262.619 198.5,254C 198.862,252.775 199.362,251.609 200,250.5C 203.952,246.093 207.785,241.593 211.5,237C 213.025,235.991 214.692,235.491 216.5,235.5C 217.447,240.844 219.281,245.844 222,250.5C 224.963,248.539 227.629,246.206 230,243.5C 232.159,248.489 234.826,253.155 238,257.5C 241,253.995 243.833,250.329 246.5,246.5C 247.417,247.127 248.417,247.461 249.5,247.5 Z"/></g>
<g><path style="opacity:1" fill="#c97f30" d="M 27.5,236.5 C 29.1992,236.34 30.8659,236.506 32.5,237C 34.221,238.527 36.221,239.527 38.5,240C 37.8448,241.487 36.8448,242.653 35.5,243.5C 31.107,242.273 30.7737,242.606 34.5,244.5C 35.7485,247.506 35.7485,250.506 34.5,253.5C 30.0891,254.888 26.5891,253.555 24,249.5C 22.6681,244.415 23.8347,240.081 27.5,236.5 Z"/></g>
<g><path style="opacity:1" fill="#c47c2f" d="M 132.5,242.5 C 134.432,243.653 136.432,243.653 138.5,242.5C 140.774,242.97 142.774,243.97 144.5,245.5C 145.833,244.5 147.167,243.5 148.5,242.5C 150.868,245.014 153.201,245.014 155.5,242.5C 158.382,243.961 161.382,245.127 164.5,246C 166.982,247.955 167.148,250.121 165,252.5C 164.131,247.492 163.464,247.825 163,253.5C 161.89,255.037 160.39,255.703 158.5,255.5C 159.649,250.178 157.649,247.345 152.5,247C 153.729,248.529 155.229,249.696 157,250.5C 158.509,255.493 156.675,257.493 151.5,256.5C 152.461,251.628 150.628,248.295 146,246.5C 146.193,248.187 147.193,249.521 149,250.5C 149.497,252.81 149.663,255.143 149.5,257.5C 143.314,258.332 140.48,255.665 141,249.5C 135.792,245.585 135.459,245.918 140,250.5C 140.494,252.134 140.66,253.801 140.5,255.5C 131.44,255.041 128.773,250.708 132.5,242.5 Z"/></g>
<g><path style="opacity:1" fill="#e69137" d="M 101.5,249.5 C 107.127,253.956 112.627,258.623 118,263.5C 119.044,272.095 115.544,277.761 107.5,280.5C 106.821,275.116 105.821,269.783 104.5,264.5C 104.167,265.5 103.833,266.5 103.5,267.5C 105.076,273.779 105.91,280.112 106,286.5C 101.39,290.796 95.8895,292.796 89.5,292.5C 89.477,290.073 88.977,287.74 88,285.5C 88.1276,288.486 88.1276,291.486 88,294.5C 82.4678,295.927 76.9678,295.76 71.5,294C 70.3317,290.801 69.1651,287.634 68,284.5C 67.6799,287.54 67.6799,290.54 68,293.5C 63.5313,292.338 59.0313,291.171 54.5,290C 53.3144,287.252 52.3144,284.419 51.5,281.5C 50.8333,283.167 50.1667,284.833 49.5,286.5C 44.0245,284.856 40.8578,281.189 40,275.5C 39.3333,268.167 39.3333,260.833 40,253.5C 40.3333,253.167 40.6667,252.833 41,252.5C 41.4513,257.69 42.4513,262.69 44,267.5C 47.4075,263.682 50.5741,259.682 53.5,255.5C 55.9058,262.501 58.9058,269.168 62.5,275.5C 66.433,269.298 70.0996,262.965 73.5,256.5C 77.5,261.5 81.5,266.5 85.5,271.5C 86.086,271.291 86.586,270.957 87,270.5C 87.9518,264.74 89.2851,259.074 91,253.5C 93.9186,256.6 97.4186,258.6 101.5,259.5C 101.5,256.167 101.5,252.833 101.5,249.5 Z"/></g>
</svg>
