<?xml version="1.0" encoding="UTF-8"?>
<!-- Created with Inkscape (http://www.inkscape.org/) -->
<svg version="1.1" viewBox="0 0 147.54 193.56" xmlns="http://www.w3.org/2000/svg">
 <g transform="translate(-33.974 -38.115)">
  <path d="m129.05 215.26c3.3475 8.0095 7.8844 16.722 11.917 15.795 4.9927-1.1495 3.6092-18.128 3.4339-20.606-2.6299 4.7564-11.011 6.4687-15.351 4.8114" fill="#b4153a"/>
  <path d="m176.49 66.972c-0.12084-4.3456-1.0823-5.7777-4.4679-5.5453-11.336 0.78339-33.705 9.8489-41.595 17.617-0.2447-2.7924-1.4356-6.8677-2.9923-9.7397 1.1565 8.7221-2.2807 19.084-8.4962 23.586 2.1061-5.5726 1.7585-10.414 0.18547-14.847-7.3307 16.734-22.121 12.535-19.677 29.637-8.727-5.4522-12.835-16.763-6.3162-27.329-5.2506 1.7105-8.953 7.047-10.746 11.464-2.6404-4.8384-3.4944-10.355-2.0395-15.815-2.0868 3.3202-3.4566 6.3027-4.2938 9.7054-8.4788-8.8594-24.393-18.81-34.907-21.786-4.2123-1.1924-4.6642-0.86246-5.385 3.3155-4.0185 23.24 7.0362 59.68 25.102 70.018-0.14968 2.8193 0.0081 5.8059 0.34404 7.9967-4.3042 0.64031-15.347 2.8589-20.353 4.3108 4.2341 3.3569 14.566 7.1139 21.974 8.8884-3.5315 1.3481-7.6979 2.4668-9.4952 4.1251 4.1932 2.305 12.602 3.5844 17.741 4.04 0.0789 0.0882 0.16904 0.17108 0.24972 0.25914 6.4299 6.9688 18.201 12.31 30.625 11.938 17.277-0.51772 28.181-5.2474 36.365-15.088 3.8504-0.92485 12.169-3.8753 15.411-5.748-2.9926-0.75974-7.0912-1.7663-9.9596-2.3186 10.084-3.3234 19.678-9.6217 21.303-10.69-4.1063-1.0758-12.802-1.9915-18.881-2.478 0.11051-1.8592 0.12323-4.1639 0.0465-6.0756 12.754-7.6237 31.115-38.54 30.26-69.44" fill="#4b516d"/>
  <path d="m156.78 149.74c-3.9295 2.1223-8.3477 4.1694-13.027 5.7326 2.8683 0.5514 6.966 1.558 9.9588 2.3196-3.2409 1.8726-11.56 4.8213-15.41 5.7479-8.1848 9.8406-19.089 14.568-36.365 15.086-12.424 0.37333-24.196-4.9679-30.626-11.938-0.90129 3.4074 0.89399 7.0968 2.9558 9.202-9.2118 2.196-9.6196 10.95-6.7674 15.379 0.56311-1.0753 4.1281-6.0627 7.0794-8.0547-1.5206 19.815 27.59 27.48 42.556 22.765 11.538-0.0421 24.824-7.9981 32.779-25.607-1.3016 0.56638-3.0875 1.2531-4.2705 1.6918 2.5-2.5371 4.4416-5.751 5.8076-9.6565 1.4975-4.2739 10.8-19.544 19.668-20.877-3.7045-1.921-10.628-2.4148-14.339-1.7909" fill="#1d2d4e"/>
  <path d="m106.06 207.48c-1.1743 11.088 3.7839 12.277 9.3354 7.1838 2.6557-2.4384 4.6926-6.0636 5.7032-9.0146-1.3292 0.2132-11.146 1.8816-15.039 1.8308" fill="#fff"/>
  <path d="m143.68 202.71c0.64878 4.1381 0.91391 10.905 0.96517 12.443 0.67066 1.0874 2.0315 2.4009 3.4598 2.516 3.0076 0.24063 5.7699-6.5528 6.905-16.02-2.81 2.1875-8.1184 2.8348-11.33 1.0612" fill="#b4153a"/>
  <g fill="#4b516d">
   <path d="m142.38 192.55c-5.1148 6.1507-11.188 10.263-17.373 12.182 0.85332 2.3168 2.2825 6.3228 4.0404 10.531 4.3402 1.6573 12.721-0.0559 15.351-4.8114-0.18578-2.6222-1.657-15.33-2.018-17.901"/>
   <path d="m152.35 170.19c-1.2855 5.1693-4.3287 9.4602-6.7113 11.878 1.1839-0.43881 2.9688-1.1254 4.2705-1.6918-2.1124 4.6757-4.6698 8.7451-7.5275 12.181 0.36098 2.571 0.85977 6.1733 1.3023 10.157 3.2115 1.7736 8.5199 1.1263 11.33-1.0612 1.6241-13.535-0.042-23.331-2.6639-31.463"/>
   <path d="m176.21 115.21c-1.1709 1.3164-2.8822 3.4193-4.1799 5.2174-0.11363-0.62605-0.31303-1.0786-0.61049-1.2931-1.5841-1.1487-8.8126 5.3887-13.126 10.736-1.1205-0.91321-2.3155-1.7924-2.9658-2.2209-2.8912 3.565-5.9558 6.5073-9.1124 8.5787 0.0767 1.9108 0.0639 4.2156-0.0466 6.0747 6.079 0.48556 14.775 1.4013 18.881 2.478-2.3804 1.5639-5.177 3.2842-8.275 4.9577 3.7113-0.62394 10.635-0.13103 14.339 1.7909-6.148 0.92502-14.988 10.387-18.764 18.656 1.0844 3.3637 1.863 6.8893 2.3813 10.44 16.646-5.6197 26.675-29.239 25.808-64.113-0.0953-3.8483-1.6511-4.3137-4.3295-1.302"/>
  </g>
  <path d="m73.082 104.61c-4.7788-5.4286-14.971-13.304-22.379-16.59-0.82371 9.6511 4.7143 26.906 12.682 34.156 1.3244-6.3173 5.4853-14.151 9.6973-17.566" fill="#1d2d4e"/>
  <path d="m82.452 199.81c-0.44225 2.1195-1.5618 6.6451-2.741 11.296 1.5183 3.9405 9.1059 6.8945 16.377 4.9509 1.6981-2.688 3.3077-5.6826 4.8772-8.9445-6.8339-0.89934-13.554-3.3942-18.513-7.3021" fill="#4b516d"/>
  <path d="m79.711 211.1c-1.3415 5.2843-2.7583 10.728-3.3437 12.982-1.423 5.4799 2.5926 6.8952 7.2574 4.4875 4.8693-2.5111 8.8662-6.8259 12.463-12.52-7.2708 1.9436-14.858-1.0105-16.377-4.95" fill="#b4153a"/>
  <path d="m127.42 69.121c-3.6215-11.62-9.8687-20.734-20.014-30.322 3.2581 8.0831 1.4057 19.198-4.0716 28.317 0.66584-5.9132-0.18225-11.534-2.2995-17.087-1.2611 5.6515-4.0938 9.9584-8.8716 13.417-12.936 9.3611-16.508 16.439-9.8436 28.656 1.7939-4.4172 5.9763-9.3798 10.796-11.934-6.4996 10.535-2.8297 21.616 6.3162 27.329-1.8057-17.874 11.892-11.643 19.669-29.397 1.573 4.433 1.6283 9.5359-0.47772 15.109 6.2552-5.0869 10.399-16.182 8.797-24.087" fill="#b4153a"/>
  <path d="m156.74 84.94c-9.6652 3.6472-20.225 9.7063-24.082 16.136 5.0419 5.3925 8.5197 12.072 10.832 19.701 8.0715-9.0503 14.92-26.523 13.25-35.837" fill="#1d2d4e"/>
  <path d="m90.998 132.02c1.9343-1.0187 1.7711-4.6079 0.59047-7.3768-1.1666-2.7359-3.9175-3.8989-5.8517-2.8784-1.9369 1.0198-2.4487 3.8422-1.2904 6.6235 1.2709 3.0504 4.6175 4.6522 6.5517 3.6317" fill="#b4153a"/>
  <path d="m109.7 131.15c2.1291 0.51223 4.791-1.4488 5.5119-4.656 0.72179-3.2064-0.49036-5.9658-2.6408-6.3781-2.0495-0.3901-4.3913 1.3973-5.0257 4.6233-0.65985 3.3567 0.0274 5.8985 2.1547 6.4108" fill="#b4153a"/>
  <path d="m86.09 149.49c-5.6075-1.9577-15.705-10.294-16.57-11.711-0.45158 2.5685-0.59955 5.5094-0.36555 8.7194 0.72321 9.9213 5.9324 17.842 10.468 17.511 6.389-0.46573 6.4977-12.476 6.4677-14.52" fill="#fff"/>
  <path d="m115.2 149.09c2.6355-1.9054 17.289-14.639 17.589-14.987 3.264 12.325 0.094 24.793-4.3951 26.996-5.37 2.6371-11.755-2.3246-13.194-12.009" fill="#fff"/>
  <path d="m106.06 207.48c-1.1743 11.088 3.7839 12.277 9.3354 7.1838 2.6557-2.4384 4.6926-6.0636 5.7032-9.0146-1.3292 0.2132-11.146 1.8816-15.039 1.8308" fill="#90072b"/>
  <g fill="#383d54">
   <path d="m142.38 192.55c-5.1148 6.1507-11.188 10.263-17.373 12.182 0.54114 1.4708 1.3154 3.6233 2.259 6.0749 4.6428-3.961 10.599-6.7384 16.238-8.8914-0.45024-3.9673-0.93616-8.0314-1.1238-9.3651"/>
   <path d="m155.51 186.87c-0.39478-6.4344-1.6078-11.856-3.1638-16.683-1.2855 5.1693-4.3288 9.4593-6.7113 11.877 1.184-0.43792 2.9698-1.1246 4.2714-1.6919-2.1132 4.6767-4.6706 8.7461-7.5284 12.181 0.29499 2.0953 0.67988 4.8838 1.0528 7.9987 2.7041-5.5554 6.7951-10.617 12.079-13.682"/>
   <path d="m152.35 170.19c1.0844 3.3637 1.8631 6.8902 2.3822 10.44 10.758-3.6311 18.496-15.33 22.281-30.005-6.3817 6.7155-14.222 12.55-22.085 14.9-0.99975 1.5536-1.8771 3.1296-2.5775 4.6649"/>
   <path d="m82.452 199.81c-0.34792 1.6707-1.1182 4.8377-2.0068 8.3828 6.4915-1.1093 13.685-1.6364 19.84 0.29217 0.22624-0.45578 0.4547-0.90547 0.6801-1.3728-6.8339-0.89934-13.554-3.3942-18.513-7.3021"/>
  </g>
  <path d="m77.677 195.27c9.5131 12.713 31.068 13.143 37.884 11.469 17.258 0.19587 31.501-15.495 34.112-25.774-0.96186-0.28329-2.4392 0.414-3.1253 0.69753-1.0594 1.6071-7.6227 5.1427-8.7674 5.5796-2.5814 13.976-26.059 18.514-33.106 15.351-5.4299 1.337-16.456 0.14023-26.997-7.3234" fill="#0e1d3b"/>
  <g fill="#0f141b">
   <path d="m158.71 83.735c-7.9598 1.8444-22.136 9.0592-26.76 16.767-0.12773 0.21151-0.19071 0.48898-0.0219 0.66993 4.4956 4.8087 9.2029 14.436 10.743 19.974 0.0822 0.29372 1.1348-0.91657 1.1267-0.95356-1.3121-6.364-5.427-15.107-10.453-19.331 3.9118-5.851 16.491-13.265 25.635-16.388 1.3199-0.4514 2.012-1.2668-0.27032-0.7381"/>
   <path d="m145.66 136.49c0.0943 2.0294 0.0765 4.0572-0.0547 6.0243-0.0198 0.30564 1.4684 0.10053 1.5062-0.20284 0.2783-2.2454 0.0669-4.3969-0.16906-5.9767-0.0445-0.30364-1.2966-0.14974-1.2824 0.15521"/>
   <path d="m144.26 142.71c5.033 0.3605 13.892 1.2563 18.975 2.3396-5.5463 3.5572-11.78 7.262-19.664 9.8945-1.125 0.37547-0.7624 0.90643 0.0716 1.0675 3.2776 0.63071 6.6957 1.3845 8.52 1.9619-3.7222 1.8362-10.155 4.0712-13.315 4.7122-0.27597 0.0559-2.0159 2.1582-1.7179 2.098 3.4878-0.70696 12.913-4.2409 16.853-6.5161 0.56813-0.33129 0.73305-0.71998-0.14116-1.0159-3.3043-1.12-5.2957-1.559-8.1122-1.9397 6.0337-2.1979 13.604-5.2549 19.865-9.7598 0.84581-0.6092 0.83651-1.2769-0.39702-1.5681-5.8588-1.3793-15.454-2.165-20.013-2.2497-2.3096-0.0428-3.2028 0.81234-0.92557 0.97558"/>
   <path d="m60.345 137.09c-0.15322 2.5252-0.40513 5.1203-0.09392 7.4381-4.763 0.55656-12.777 2.2233-18.55 3.7392-1.8366 0.48191-2.1306 1.3578-0.5669 2.3979 6.0797 4.0544 12.644 6.2197 20.221 7.845-2.406 0.72204-5.2944 1.6993-7.6881 2.8464-1.3928 0.66607-1.4481 1.3805-9e-3 2.0361 5.6059 2.5617 10.507 3.2315 17.156 3.5691 7.0982 7.7781 19.091 13.169 30.944 12.813 17.677-0.5281 29.996-5.9487 36.851-15.994 1.062-1.5581 1.0588-2.8292-0.11756-1.3549-8.3185 10.449-19.259 15.127-36.577 15.646-11.448 0.34335-23.684-4.4845-30.446-12.012-0.09348-0.10413-0.2234-0.16802-0.36296-0.18022-5.2321-0.46587-12.406-1.6554-16.527-3.5103 1.7392-0.86042 5.8795-2.4354 8.098-3.2869 1.2002-0.46057 1.6087-0.94485-0.01133-1.3582-7.0127-1.781-16.142-5.172-20.523-8.1273 5.2962-1.4168 15.091-3.3842 19.129-3.9836 0.43101-0.0645 0.49974-0.18942 0.47068-0.58812-0.0011-0.0151-3e-3 -0.0293-0.0058-0.0434-0.22222-1.4529-0.53268-5.7364-0.32679-8.2019 0.15623-1.858-0.95358-1.5812-1.0661 0.31123"/>
   <path d="m72.512 104.23c-4.8769 3.953-8.2214 10.137-9.5702 17.862-0.44682 2.5601 0.37873 3.5386 0.82651 0.97938 1.2105-6.9353 6.0512-15.606 10.356-18.557 1.626-1.1125-0.0817-1.5258-1.6124-0.28507"/>
   <path d="m129.73 78.206c-0.21979 0.21285 0.11419 2.5362 0.32717 2.3158 7.2353-7.4756 30.398-17.649 42.004-18.451 2.8203-0.19306 3.7554 1.0602 3.8566 4.7327 0.61897 22.348-13.4 58.748-30.643 69.368-1.7032 1.0475-0.40599 1.402 1.3024 0.36404 17.777-10.801 31.822-45.888 30.837-69.526-0.21148-5.0736-1.892-6.4765-5.7636-6.2104-12.044 0.8314-33.884 9.6517-41.92 17.406"/>
   <path d="m34.881 66.726c-4.2674 24.686 6.895 61.375 25.684 71.461 0.26907 0.14412 0.96791-1.3643 0.70112-1.5139-18.157-10.225-28.91-46.777-24.976-69.528 0.64014-3.7006 0.9157-3.9461 4.6904-2.8783 9.9978 2.8312 25.82 13.015 34.548 22.241 0.21031 0.22176 0.28826-2.2559 0.07789-2.4786-8.8416-9.3447-24.18-18.136-34.34-21.012-4.6216-1.3084-5.6335-0.64508-6.3861 3.7088"/>
   <path d="m156.25 85.25c1.3769 8.4806-5.7584 26.865-13.212 35.212-1.0867 1.2199-0.21425 1.8721 0.92885 0.75093 9.0746-8.9007 15.145-26.502 13.268-36.212-0.0577-0.30088-1.0337-0.05349-0.9848 0.24894"/>
   <path d="m47.448 87.416c7.4015 2.0345 20.403 12.171 24.827 17.409 0.19781 0.2343 1.4874-0.43588 1.2906-0.66936-5.3994-6.3935-16.091-14.984-24.761-17.367-2.298-0.63234-3.6568-0.0027-1.3562 0.62762"/>
   <path d="m50.062 87.898c-1.1451 9.1458 4.2734 27.731 13.138 35.206 0.23444 0.19675 0.40873-1.5239 0.32329-1.6036-6.9306-6.4859-13.367-25.455-12.362-33.464 0.03783-0.30337-1.0611-0.44157-1.0989-0.1382"/>
   <path d="m75.977 103.27c1.515 3.539 4.7103 8.2689 9.5841 10.792 1.5583 0.80615 2.9594 0.57339 1.4933-0.18312-4.317-2.2352-7.821-6.905-9.3771-10.541-2.5782-6.023-3.0345-15.804 2.1927-25.47 0.01736-1.1733 0.28709-1.9284 0.47513-3.0309-7.2019 9.8843-7.8048 20.405-4.3682 28.433"/>
   <path d="m128.14 69.194c-0.38672 0.57395-0.43587 0.83252-0.72934 1.3478 4.8012 11.922 1.471 30.796-9.3741 40.582-0.51371 0.46421-0.95275 1.6951 0.91922 0.16472 13.4-10.951 14.969-30.482 9.1843-42.094"/>
   <path d="m82.73 170.75c5.7645 11.697 33.432 11.932 39.932-1.2047 0.82195-1.6605 0.26558-2.4198-0.55727-0.75923-5.8558 11.831-33.318 12.438-38.9 1.1134-0.86528-1.7567-1.3393-0.9071-0.47481 0.85057"/>
   <path d="m70.817 166.78c-0.81416 3.1299-0.2007 6.8447 2.9961 9.2886 0.24262 0.1863 1.8009-0.1 1.5477-0.27118-2.7902-1.8973-4.1134-6.0462-3.4904-8.4348 0.07599-0.29542-0.97563-0.87725-1.0535-0.58259"/>
   <path d="m74.378 175.63c-10.125 1.8305-10.695 10.739-7.3476 15.938 0.27431 0.42466 0.66714 0.51144 0.95674-0.0447 0.58732-1.1236 5.15-7.447 8.042-8.4613 1.7979-0.63119 0.97708-1.2263-0.82106-0.59775-2.7908 0.97824-6.2091 5.4745-7.6854 7.707-2.1266-4.2943-1.4224-12.272 7.7472-13.93 1.7546-0.31757 0.88043-0.93202-0.89184-0.61137"/>
   <path d="m73.908 183.91c-2.2208 18.407 24.523 27.956 44.946 22.669 0.29589-0.077-1.3146-0.91248-1.6072-0.82763-14.561 4.2143-43.386-2.7674-41.952-22.481 0.02168-0.30399-1.3507 0.33555-1.3867 0.63968"/>
   <path d="m150 179.68c-1.5417 0.67246-3.567 1.5976-4.3856 1.88-0.28969 0.10074-0.38663 1.3729-0.0978 1.2731 0.5811-0.20251 1.9717-0.81296 3.2452-1.3594-12.511 25.887-38.737 31.889-51.742 12.807-1.2001-1.7592-1.3751-0.39273-0.14541 1.3437 14.504 20.457 41.819 12.634 53.851-15.208 0.27784-0.64385 0.0246-1.062-0.72558-0.73622"/>
   <path d="m170.58 150.65c-4.8551-2.2532-10.464-2.3338-14.656-0.85525-0.2888 0.10068 0.0666 0.96319 0.35524 0.85984 2.5078-0.88335 8.8662-0.7993 13.137 0.75035-6.882 1.5708-13.073 7.8608-18.488 20.821-5.3601 12.825-15.945 18.41-33.744 15.724-1.9304-0.29052-1.193 0.7195 0.72564 1.0807 18.126 3.4304 29.433-2.8961 34.537-16.244 4.8055-12.566 12.101-19.269 18.165-20.599 1.1546-0.25147 1.4139-0.86802-0.0315-1.5375"/>
   <path d="m81.627 198.69c-0.75247 4.4916-5.6083 24.321-5.7961 25.255-1.1553 5.7404 2.877 7.9982 8.3403 5.1798 6.7222-3.4675 12.176-10.085 17.722-21.742 0.13203-0.27535-1.3812-0.64817-1.5132-0.37282-5.4339 11.42-10.521 17.721-17.01 21.07-4.7803 2.4671-7.142 0.48215-6.1003-3.8829 0.50368-2.1115 5.3835-21.758 5.7981-24.233 0.05055-0.30072-1.3915-1.5743-1.4411-1.2737"/>
   <path d="m120.2 205.9c-2.26 7.0941-8.8702 12.147-11.467 10.873-1.8058-0.88741-2.5652-4.1755-2.136-9.2591 0.0261-0.3052-1.4055-0.31894-1.4316-0.0137-0.60163 7.1378 1.4915 9.4877 3.0808 10.267 4.3314 2.1268 11.455-5.4364 13.456-11.717 0.0934-0.29042-1.4091-0.44125-1.5024-0.14994"/>
   <path d="m79.343 210.88c1.1749 5.2556 7.941 8.0602 16.775 5.5231 0.29353-0.0849 0.32889-1.2935 0.03651-1.2051-8.4052 2.5712-15.015-0.80852-15.814-5.0466-0.0567-0.29916-1.0646 0.43012-0.99815 0.72857"/>
   <path d="m141.82 192.95c0.69484 4.9417 1.9891 14.142 2.2836 22.22 0.4349 11.968-1.5314 14.954-3.2561 15.35-5.3676 1.235-12.917-19.421-15.241-25.773l-1.5909 0.42732c4.8114 13.155 11.51 27.706 17.08 26.425 6.2519-1.439 4.753-22.332 2.3174-39.642z"/>
   <path d="m143.88 209.86c-2.1526 4.8728-10.468 6.7432-14.732 4.6195-0.27389-0.1366-0.14657 1.1559 0.0377 1.2292 5.3412 2.1462 12.506 0.56105 15.482-5.1475 0.0745-0.14411-0.66471-0.98133-0.78834-0.70123"/>
   <path d="m151.73 170.55c5.8724 17.228 3.2118 39.298-1.3807 45.201-2.333 3-4.9785 0.25197-5.5837-2.2448-0.0718-0.29717-0.46097 1.6172-0.25839 1.9907 1.3795 2.5638 4.3123 4.024 6.7164 0.93296 4.7217-6.0693 8.4091-27.26 2.1589-47.253-0.0911-0.29308-1.7515 1.0841-1.6526 1.373"/>
   <path d="m154.83 200.79c-2.4045 2.4111-7.5318 3.4693-10.799 1.2766-0.2522-0.17039-0.87053 0.74879-0.61655 0.91905 3.809 2.5567 8.3832 1.8896 11.92-1.3431 0.0915-0.0827-0.28828-1.0705-0.50412-0.85257"/>
   <path d="m155.14 128.21c1.2219 0.65978 4.2754 3.3226 4.9853 3.9776 0.50146 0.46 1.1618 0.4736 0.12449-0.90644-1.0841-1.4446-2.6094-2.9654-4.5858-4.0452-0.26837-0.14685-0.79398 0.8291-0.52396 0.97404"/>
   <path d="m157.9 129.62c-0.17122 0.25315 0.6837 0.92269 0.87191 0.68172 3.6885-4.7173 8.1926-8.7147 10.64-10.18 0.84354-0.50525 1.4424-0.70906 1.6795-0.53756 1.0759 0.78047 0.43524 7.7995-2.0944 13.33-0.96149 2.1028 0.0247 2.0444 0.99176-0.0553 2.724-5.9085 4.009-13.319 1.945-14.815-2.3803-1.7241-10.355 6.1283-14.034 11.576"/>
   <path d="m177.52 113.03c-1.8931 1.1669-4.3909 4.1144-5.8096 6.7445-0.145 0.26913 0.5998 1.3672 0.7588 1.106 1.2642-2.0623 3.7292-5.3367 5.4127-6.5438 1.3672-0.98093 2.0703-0.34328 2.1059 2.1825 0.48633 34.017-9.5149 57.946-25.359 63.235-0.29002 0.0963 0.16962 1.6151 0.45645 1.5118 16.924-6.0328 27.835-30.745 26.278-64.864-0.1859-4.0966-1.7191-4.6818-3.8433-3.372"/>
   <path d="m101.55 49.83c-0.31704-0.77764-0.88843-0.67514-1.0573 0.07618-1.2379 5.5523-4.707 9.8545-9.3893 13.213-14.632 10.496-15.067 17.634-9.4557 28.54 0.56692 1.1003 0.91328 1.1878 1.5046-0.08999 2.1191-4.5957 6.5482-9.7579 12.081-11.681 1.746-0.60772 0.8255-1.1087-0.92225-0.5009-5.5426 1.9268-8.7795 4.7511-11.997 11.431-4.9871-11.698-2.2188-17.957 10.172-26.925 4.3869-3.1756 7.1513-7.0194 8.6172-11.973 1.7784 5.2993 2.2574 9.9803 1.3849 15.918-6e-3 0.03714 1.7452-1.8209 1.783-2.1242 0.74249-5.9295-0.29762-9.9496-2.7208-15.883"/>
   <path d="m127.69 66.729c-2.7057-8.9008-10.896-19.831-18.778-27.577-1.7376-1.7074-2.4014-1.2162-1.8096 0.80293 2.2736 7.7719 0.4551 19.756-4.635 27.584-1.301 1.9987-0.61938 2.9421 0.68074 0.94348 6.3944-9.8308 7.9967-18.202 5.1821-28.265 8.7021 8.6463 15.433 18.595 17.878 27.049 2.0247 7.009 0.42858 17.355-6.6432 24.704 2.1779-4.0838 1.4475-9.0596 0.29815-12.909-0.5502-1.8405-1.0188-1.5791-1.6825-0.17797-3.4518 7.2767-7.7968 9.6646-11.604 12.406-7.0505 5.0769-8.2842 7.4706-7.7875 15.082-8.4909-6.0429-10.855-17.484-5.3361-25.924 0.06927-0.10525-0.92874-0.19713-1.0962 0.05844-5.5984 8.5623-4.2218 20.586 6.7818 27.457 0.50894 0.3172 0.87771 0.12301 0.76327-1.4469-0.62058-8.5133 2.7389-10.932 7.3285-14.236 3.6628-2.6388 9.501-5.8871 11.716-12.831 1.1347 4.949 1.0412 8.6133-0.68283 13.179-0.26517 0.69482-0.0432 1.2486 0.7669 0.68937 7.7686-5.3636 11.402-17.562 8.6611-26.59"/>
   <path d="m86.197 122.02c2.2453-0.92505 4.2766 0.8594 5.2158 3.6915 1.2061 3.634-0.0036 5.4489-0.61976 5.7721-1.6963 0.89577-4.7916-0.54808-5.9052-3.2199-0.98269-2.361-0.63258-5.45 1.3092-6.2437m-0.30406-0.77142c-2.4706 0.89048-3.2838 4.3406-1.9373 7.3721 1.429 3.2178 5.0928 4.8144 7.2622 3.6703 1.6491-0.86907 2.3457-3.2425 1.2242-6.9426-0.99102-3.273-3.5615-5.1765-6.5491-4.0998"/>
   <path d="m107.07 124.65m2.7246 6.0427c-1.6197-0.50821-2.506-2.5282-1.7801-5.9479 0.68229-3.2205 2.8768-4.7082 4.7217-4.0813 1.4869 0.50269 2.6052 2.5273 1.9037 5.6427-0.76159 3.3846-3.6138 4.7718-4.8453 4.3864m-2.9147-6.1219c-0.72705 3.6988 0.48274 6.4137 2.773 6.9643 2.7502 0.662 5.5504-1.9918 6.2146-4.9452 0.78832-3.4966-0.59797-6.264-2.9229-6.8729-2.6588-0.6973-5.3324 1.1277-6.0647 4.8538"/>
  </g>
  <path d="m75.008 142.83c-0.15816 1.4019-0.19525 2.9551-0.07206 4.6451 0.62058 8.5134 3.3357 13.247 6.5965 13.009 2.79-0.20338 4.4718-4.293 4.4252-10.678-3.9924-1.9305-7.8773-3.9833-10.95-6.9767" fill="#00acdc"/>
  <path d="m85.407 149.23c0.17911 6.3723-1.3427 10.694-3.9013 10.88-3.0303 0.22089-5.4417-4.8015-6.0027-12.498-0.11632-1.5957-0.09125-3.1051 0.05875-4.484-0.3193-0.3668-0.73096-0.7242-1.075-0.95142-0.25746 1.6722-0.50958 3.5524-0.36498 5.5361 0.62811 8.6166 3.6522 13.686 7.4576 13.408 3.2128-0.2342 5.0564-4.5092 4.9447-11.43-0.37182-0.15451-0.74523-0.30623-1.1171-0.46075" fill="#0f141b"/>
  <path d="m115.39 149.05c1.1221 6.4458 3.5873 10.391 6.3796 10.218 3.6218-0.22017 5.9187-5.8989 5.3578-15.066-0.0968-1.5739-0.27218-3.0588-0.5201-4.4346-3.5841 3.1055-7.1439 6.9374-11.217 9.2823" fill="#00acdc"/>
  <path d="m127.32 139.25c-0.20514 0.45067-0.70001 0.79272-1.1929 1.0148 0.20652 1.2375 0.35951 2.563 0.44657 3.9783 0.51191 8.3602-1.787 14.294-4.8386 14.481-2.519 0.1532-5.0593-3.7172-6.2218-9.6851-0.15626 0.17602-0.38516 0.28843-0.62736 0.39019 1.1865 6.5557 3.7711 10.592 6.9171 10.399 3.2733-0.20104 6.9234-4.6113 6.2536-15.567-0.11193-1.8179-0.42723-3.4921-0.73658-5.0111" fill="#0f141b"/>
  <path d="m100.28 165.71c-1.5816 0.0401-2.4177 0.52427-2.4056 0.94748 0.01158 0.44113 0.8997 0.90336 2.4347 0.86304 1.4118-0.0367 2.3234-0.47983 2.3182-0.95632-6e-3 -0.51755-1.1221-0.88536-2.3473-0.8542" fill="#0f141b"/>
  <path d="m81.709 147.34c-1.0414 0.0366-1.6586 1.5855-1.4799 4.2574 0.18178 2.7146 1.1586 4.3317 2.0316 4.2681 0.89174-0.065 1.5577-1.7786 1.3973-4.3606-0.15607-2.5215-1.0066-4.1988-1.9489-4.165" fill="#fff"/>
  <path d="m120.51 144.94c-1.3189 0.0595-1.8424 2.3048-1.6699 4.707 0.19924 2.7823 1.0344 4.568 2.1491 4.5172 1.2583-0.0568 1.7965-2.1968 1.6403-4.6476-0.16919-2.6279-0.96108-4.6297-2.1194-4.5766" fill="#fff"/>
  <path d="m122.13 125.52c-6.1843 2.9801-8.5478 14.14-6.7304 23.141 4.2342-3.0607 14.202-11.27 17.045-14.622-1.2335-6.2928-6.7734-10.048-10.315-8.5188" fill="#b4153a"/>
  <path d="m77.073 127.21c-4.2527 0.35294-6.8951 5.9065-7.6005 9.9277 2.7498 4.4984 12.253 10.774 16.692 12.274-0.19095-13.138-4.2484-22.037-9.0917-22.202" fill="#b4153a"/>
  <g fill="#0f141b">
   <path d="m69.708 146.46c-0.74696-10.247 2.3708-18.24 7.3733-18.605 3.4085-0.24847 7.3962 5.7416 8.2404 17.323 0.93548 12.833-2.2264 18.025-5.7399 18.281-4.2949 0.31308-9.2056-7.833-9.8738-16.999m-1.2788 0.46272c0.77038 10.568 6.529 18.061 11.143 17.725 4.6643-0.34001 7.9737-6.7224 7.0377-19.564-0.90609-12.43-5.5648-18.629-9.6088-18.334-5.7251 0.41733-9.3773 9.1187-8.5715 20.173"/>
   <path d="m69.364 138.48c2.6052 3.6063 13.211 10.572 16.425 11.356 0.297 0.0732 0.5594-1.0035 0.26157-1.0757-3.0023-0.7322-13.56-8.0166-16.008-11.404-0.17818-0.24737-0.85769 0.87579-0.67855 1.124"/>
   <path d="m125.19 161.21c-5.2236 0.11684-9.2806-6.2842-9.7804-16.995-0.49899-10.712 4.2383-18.494 8.7169-18.594 4.5198-0.10043 9.3383 6.7694 9.404 17.808 0.0625 10.688-3.2124 17.668-8.3405 17.782m-11.164-16.949c0.28591 10.55 4.883 18.101 11.273 17.958 4.6073-0.10323 9.8005-4.847 9.7206-18.622-0.069-11.735-5.3054-19.207-10.919-19.082-5.8829 0.1309-10.377 8.5885-10.075 19.747"/>
   <path d="m132.49 133.08c-2.3438 2.9623-13.966 13.224-17.596 15.468-0.25941 0.16027 0.32947 1.1936 0.58799 1.0334 4.5314-2.8014 13.739-10.763 17.564-15.189 0.41749-0.48315-0.15993-1.8135-0.55642-1.3122"/>
   <path d="m82.745 148.53c0.35302 0.73117 0.67206 1.88 0.73738 2.9846 0.1745 2.8234-0.38797 4.1161-1.2352 4.1779-0.78138 0.057-1.6496-1.2245-1.8424-4.1029-0.11821-1.7566 0.35948-3.3777 0.90046-3.9343l-0.61402-0.39632c-0.76856 0.6993-1.308 2.2104-1.1617 4.389 0.2159 3.2195 1.6124 4.7406 2.7623 4.6568 1.0599-0.0773 2.2639-1.6278 2.0654-4.8423-0.06537-1.0563-0.27035-1.9781-0.57016-2.7159z"/>
   <path d="m118.36 147.08c-0.15266 0.72867-0.20688 1.6049-0.13427 2.6133 0.22883 3.2006 1.3929 4.7969 2.8526 4.7298 1.4019-0.0628 2.3464-2.0427 2.1609-4.9432-0.13457-2.0793-0.68423-3.8143-1.6554-4.5317l-0.52591 0.46868c0.6455 0.5336 1.1842 2.0439 1.3058 4.1179 0.19371 3.0502-0.47807 4.3284-1.3824 4.3684-0.83735 0.0378-1.6577-1.1398-1.8816-4.2728-0.084-1.165-0.0261-2.1257 0.14302-2.8493z"/>
  </g>
 </g>
</svg>
