<?xml version="1.0" encoding="UTF-8"?>
<!DOCTYPE svg PUBLIC "-//W3C//DTD SVG 1.1//EN" "http://www.w3.org/Graphics/SVG/1.1/DTD/svg11.dtd">
<svg xmlns="http://www.w3.org/2000/svg" version="1.1" width="300px" height="300px" style="shape-rendering:geometricPrecision; text-rendering:geometricPrecision; image-rendering:optimizeQuality; fill-rule:evenodd; clip-rule:evenodd" xmlns:xlink="http://www.w3.org/1999/xlink">
<g><path style="opacity:0.92" fill="#161c22" d="M 134.5,1.5 C 137.572,1.18259 140.572,1.51592 143.5,2.5C 140.619,5.09211 138.619,8.25878 137.5,12C 138,13.5 138.5,15 139,16.5C 144.047,19.8802 148.047,24.2135 151,29.5C 151.498,32.8168 151.665,36.1501 151.5,39.5C 171.328,43.8669 179.495,56.2003 176,76.5C 175.358,78.7619 174.525,80.9285 173.5,83C 208.349,101.547 218.183,129.047 203,165.5C 196.21,175.957 187.71,184.79 177.5,192C 178.167,192.667 178.833,193.333 179.5,194C 184.897,194.227 190.231,194.894 195.5,196C 196.554,197.388 196.72,198.888 196,200.5C 190.667,208.5 184,215.167 176,220.5C 174.335,227.826 172.669,235.159 171,242.5C 169.444,247.876 165.944,251.376 160.5,253C 145.669,257.95 131.003,257.616 116.5,252C 113.642,246.094 111.308,239.928 109.5,233.5C 101.46,230.065 93.9599,225.731 87,220.5C 84.2474,217.499 84.0807,214.499 86.5,211.5C 88.7513,210.305 91.0846,209.305 93.5,208.5C 94.2208,206.314 94.8875,204.147 95.5,202C 55.3092,188.448 40.8092,161.282 52,120.5C 58.8539,106.814 68.6873,95.814 81.5,87.5C 72.2164,72.4343 74.5497,59.2677 88.5,48C 92.8878,45.1394 97.5545,42.8061 102.5,41C 97.0337,32.4134 97.2004,23.9134 103,15.5C 112.206,7.82402 122.706,3.15735 134.5,1.5 Z"/></g>
<g><path style="opacity:1" fill="#fcfcfc" d="M 202.5,155.5 C 193.697,161.902 184.03,166.735 173.5,170C 138.947,181.487 103.614,185.321 67.5,181.5C 60.0028,174.847 55.3361,166.514 53.5,156.5C 53.8333,156.5 54.1667,156.5 54.5,156.5C 57.6005,160.383 61.6005,162.717 66.5,163.5C 67.4361,157.588 68.7694,151.755 70.5,146C 68.6984,141.065 65.365,137.398 60.5,135C 59.1667,134.333 57.8333,134.333 56.5,135C 54.5508,138.907 53.5508,143.073 53.5,147.5C 52.8333,148.5 52.1667,149.5 51.5,150.5C 51.7826,117.775 67.1159,95.2746 97.5,83C 93.3663,83.2055 89.3663,84.3721 85.5,86.5C 82.6646,84.1718 80.8313,81.1718 80,77.5C 78.4914,70.2434 79.8247,63.5767 84,57.5C 92.5459,47.5312 103.379,41.6979 116.5,40C 112.527,39.7229 108.694,39.5562 105,39.5C 99.0759,29.0615 100.909,20.2282 110.5,13C 118.799,7.51171 127.799,5.01171 137.5,5.5C 135.51,8.88936 135.01,12.556 136,16.5C 139.979,20.1482 143.645,24.1482 147,28.5C 148.316,31.6883 148.816,35.0217 148.5,38.5C 144.774,38.1774 141.107,38.5108 137.5,39.5C 149.319,39.4915 159.485,43.4915 168,51.5C 173.886,60.5354 175.053,70.2021 171.5,80.5C 168.374,81.4189 165.374,80.9189 162.5,79C 160.167,78.3333 157.833,78.3333 155.5,79C 177.593,84.0911 193.426,96.9245 203,117.5C 207.77,130.361 207.603,143.028 202.5,155.5 Z"/></g>
<g><path style="opacity:1" fill="#1e232a" d="M 140.5,98.5 C 153.329,97.8158 161.163,103.816 164,116.5C 166.615,127.202 164.115,136.368 156.5,144C 143.194,148.928 134.694,144.428 131,130.5C 128.053,120.483 129.386,111.15 135,102.5C 137.015,101.303 138.849,99.9701 140.5,98.5 Z"/></g>
<g><path style="opacity:1" fill="#cde5f2" d="M 140.5,100.5 C 151.659,99.4824 158.492,104.482 161,115.5C 162.375,123.857 161.375,131.857 158,139.5C 145.376,147.364 137.043,144.03 133,129.5C 131.862,121.624 132.529,113.957 135,106.5C 137.04,104.63 138.873,102.63 140.5,100.5 Z"/></g>
<g><path style="opacity:1" fill="#252a31" d="M 83.5,108.5 C 92.6388,106.983 98.4721,110.65 101,119.5C 102.97,129.467 101.97,139.133 98,148.5C 86.4748,158.254 78.1415,155.921 73,141.5C 70.2094,128.281 73.7094,117.281 83.5,108.5 Z"/></g>
<g><path style="opacity:1" fill="#cbe4f0" d="M 84.5,110.5 C 91.0788,109.038 95.5788,111.371 98,117.5C 101.553,127.753 100.887,137.753 96,147.5C 87.6107,155.062 80.9441,153.729 76,143.5C 75.1883,135.778 75.5217,128.111 77,120.5C 78.803,116.523 81.303,113.189 84.5,110.5 Z"/></g>
<g><path style="opacity:1" fill="#192028" d="M 140.5,110.5 C 147.313,109.812 151.48,112.812 153,119.5C 154.704,126.283 153.204,132.117 148.5,137C 141.255,138.624 136.755,135.79 135,128.5C 133.015,121.128 134.848,115.128 140.5,110.5 Z"/></g>
<g><path style="opacity:1" fill="#005c90" d="M 140.5,112.5 C 145.558,111.717 149.058,113.717 151,118.5C 151.667,122.5 151.667,126.5 151,130.5C 149.287,135.038 146.12,136.538 141.5,135C 135.303,127.737 134.97,120.237 140.5,112.5 Z"/></g>
<g><path style="opacity:1" fill="#1f262d" d="M 184.5,113.5 C 186.91,113.921 188.743,115.254 190,117.5C 192.585,122.168 194.752,127.002 196.5,132C 196.357,134.151 195.357,135.818 193.5,137C 189.343,139.15 185.177,141.316 181,143.5C 175.754,138.535 171.587,132.702 168.5,126C 169.439,124.056 170.773,122.389 172.5,121C 176.396,118.225 180.396,115.725 184.5,113.5 Z"/></g>
<g><path style="opacity:1" fill="#7fc8eb" d="M 183.5,115.5 C 184.822,115.33 185.989,115.663 187,116.5C 190.03,121.226 192.53,126.226 194.5,131.5C 191.228,135.997 186.894,139.33 181.5,141.5C 176.978,136.964 173.644,131.63 171.5,125.5C 171.608,124.558 171.941,123.725 172.5,123C 176.345,120.637 180.011,118.137 183.5,115.5 Z"/></g>
<g><path style="opacity:1" fill="#1c252e" d="M 87.5,119.5 C 95.3936,119.724 99.0602,123.891 98.5,132C 98.3437,136.136 97.177,139.969 95,143.5C 85.387,147.266 80.5537,143.766 80.5,133C 80.8905,127.382 83.2238,122.882 87.5,119.5 Z"/></g>
<g><path style="opacity:1" fill="#005b8f" d="M 87.5,121.5 C 90.0444,121.104 92.2111,121.771 94,123.5C 97.2652,129.472 97.2652,135.472 94,141.5C 86.4605,144.843 82.6272,142.176 82.5,133.5C 82.5273,128.783 84.1939,124.783 87.5,121.5 Z"/></g>
<g><path style="opacity:1" fill="#1d242c" d="M 54.5,156.5 C 53.5975,153.609 53.2641,150.609 53.5,147.5C 53.5508,143.073 54.5508,138.907 56.5,135C 57.8333,134.333 59.1667,134.333 60.5,135C 65.365,137.398 68.6984,141.065 70.5,146C 68.7694,151.755 67.4361,157.588 66.5,163.5C 61.6005,162.717 57.6005,160.383 54.5,156.5 Z"/></g>
<g><path style="opacity:1" fill="#7fc7ea" d="M 57.5,136.5 C 61.8859,137.366 65.3859,139.699 68,143.5C 68.6667,145.5 68.6667,147.5 68,149.5C 67.163,153.714 65.8296,157.714 64,161.5C 60.6381,159.65 57.6381,157.317 55,154.5C 54.4701,148.315 55.3035,142.315 57.5,136.5 Z"/></g>
<g><path style="opacity:1" fill="#1e252e" d="M 131.5,148.5 C 140.676,147.158 143.676,150.658 140.5,159C 129.642,166.714 117.642,169.381 104.5,167C 98.4171,164.418 97.0838,160.418 100.5,155C 106.812,155.356 113.145,155.356 119.5,155C 124.01,153.582 128.01,151.415 131.5,148.5 Z"/></g>
<g><path style="opacity:1" fill="#005c91" d="M 131.5,150.5 C 138.107,148.749 140.607,151.082 139,157.5C 129.362,164.619 118.528,167.452 106.5,166C 102.677,164.359 100.677,161.526 100.5,157.5C 112.096,160.292 122.43,157.958 131.5,150.5 Z"/></g>
<g><path style="opacity:1" fill="#797b80" d="M 53.5,147.5 C 53.2641,150.609 53.5975,153.609 54.5,156.5C 54.1667,156.5 53.8333,156.5 53.5,156.5C 52.5418,154.698 51.8751,152.698 51.5,150.5C 52.1667,149.5 52.8333,148.5 53.5,147.5 Z"/></g>
<g><path style="opacity:1" fill="#d9dada" d="M 202.5,155.5 C 197.67,170.337 188.67,182.003 175.5,190.5C 169.497,187.592 163.164,186.758 156.5,188C 159.695,188.181 162.695,188.681 165.5,189.5C 159.167,188.968 152.834,188.302 146.5,187.5C 141.759,187.878 137.092,188.544 132.5,189.5C 133.609,188.71 134.942,188.21 136.5,188C 131.743,187.19 127.076,187.524 122.5,189C 121.001,189.838 120.668,190.671 121.5,191.5C 121.44,192.043 121.107,192.376 120.5,192.5C 119.833,191.833 119.167,191.167 118.5,190.5C 114.624,191.942 110.957,193.609 107.5,195.5C 103.752,196.538 100.085,197.871 96.5,199.5C 84.9931,196.257 75.3264,190.257 67.5,181.5C 103.614,185.321 138.947,181.487 173.5,170C 184.03,166.735 193.697,161.902 202.5,155.5 Z"/></g>
<g><path style="opacity:1" fill="#f6f6f6" d="M 165.5,189.5 C 169.774,189.803 173.441,191.47 176.5,194.5C 170.273,194.905 164.94,197.238 160.5,201.5C 156.252,200.006 154.252,197.006 154.5,192.5C 153.325,192.281 152.325,192.614 151.5,193.5C 143.51,204.661 132.843,208.828 119.5,206C 116.527,203.552 115.027,200.386 115,196.5C 116.236,205.599 112.236,209.932 103,209.5C 98.0631,210.23 96.3964,208.23 98,203.5C 100.325,199.765 103.491,197.099 107.5,195.5C 110.957,193.609 114.624,191.942 118.5,190.5C 119.167,191.167 119.833,191.833 120.5,192.5C 121.107,192.376 121.44,192.043 121.5,191.5C 124.961,189.909 128.628,189.242 132.5,189.5C 137.092,188.544 141.759,187.878 146.5,187.5C 152.834,188.302 159.167,188.968 165.5,189.5 Z"/></g>
<g><path style="opacity:1" fill="#262b31" d="M 132.5,189.5 C 128.628,189.242 124.961,189.909 121.5,191.5C 120.668,190.671 121.001,189.838 122.5,189C 127.076,187.524 131.743,187.19 136.5,188C 134.942,188.21 133.609,188.71 132.5,189.5 Z"/></g>
<g><path style="opacity:1" fill="#7dc5e8" d="M 170.5,197.5 C 178.167,197.5 185.833,197.5 193.5,197.5C 193.509,199.308 193.009,200.975 192,202.5C 186.37,209.795 179.37,215.128 171,218.5C 165.303,216.65 162.803,212.65 163.5,206.5C 163.667,204.833 163.833,203.167 164,201.5C 166.013,199.752 168.18,198.418 170.5,197.5 Z"/></g>
<g><path style="opacity:0.887" fill="#161c22" d="M 219.5,197.5 C 225.843,197.225 231.177,199.391 235.5,204C 248.102,204.942 253.935,211.775 253,224.5C 252.009,229.317 249.842,233.484 246.5,237C 247.839,246.34 243.672,251.174 234,251.5C 230.524,251.514 227.357,250.514 224.5,248.5C 218.984,252.827 213.817,252.494 209,247.5C 208.51,246.207 208.343,244.873 208.5,243.5C 196.688,240.906 192.188,233.572 195,221.5C 196.7,216.967 199.867,213.967 204.5,212.5C 205.891,203.776 210.891,198.776 219.5,197.5 Z"/></g>
<g><path style="opacity:1" fill="#d2eaf7" d="M 248.5,230.5 C 245.556,232.311 242.556,234.144 239.5,236C 235.082,236.976 230.915,236.476 227,234.5C 225.477,236.354 223.644,237.854 221.5,239C 213.676,240.341 206.343,239.174 199.5,235.5C 194.854,223.794 198.52,216.127 210.5,212.5C 209.675,211.614 208.675,211.281 207.5,211.5C 208.473,206.353 211.473,202.853 216.5,201C 220.926,200.209 225.259,200.543 229.5,202C 231.846,203.533 232.846,205.366 232.5,207.5C 240.786,205.56 246.62,208.56 250,216.5C 250.966,221.39 250.466,226.057 248.5,230.5 Z"/></g>
<g><path style="opacity:1" fill="#bbd9ea" d="M 119.5,219.5 C 119.5,219.833 119.5,220.167 119.5,220.5C 118.833,220.5 118.167,220.5 117.5,220.5C 117.5,220.167 117.5,219.833 117.5,219.5C 115.091,216.425 112.425,213.758 109.5,211.5C 111.868,210.217 114.035,208.55 116,206.5C 117.085,207.293 118.252,207.96 119.5,208.5C 118.728,212.15 118.728,215.816 119.5,219.5 Z"/></g>
<g><path style="opacity:1" fill="#7fc7ea" d="M 106.5,221.5 C 101.797,221.563 97.1304,221.229 92.5,220.5C 85.2901,215.679 86.1234,212.679 95,211.5C 98.1429,212.107 101.31,212.441 104.5,212.5C 105.167,215.5 105.833,218.5 106.5,221.5 Z"/></g>
<g><path style="opacity:1" fill="#69a6c3" d="M 109.5,211.5 C 111.188,215.188 113.855,217.855 117.5,219.5C 117.5,219.833 117.5,220.167 117.5,220.5C 116.837,224.49 116.17,228.49 115.5,232.5C 115.511,234.045 115.844,235.378 116.5,236.5C 116.167,237.5 115.5,238.167 114.5,238.5C 111.61,229.679 108.944,220.679 106.5,211.5C 107.5,211.5 108.5,211.5 109.5,211.5 Z"/></g>
<g><path style="opacity:1" fill="#70b1d0" d="M 168.5,240.5 C 168.813,237.163 167.48,234.829 164.5,233.5C 165.043,233.44 165.376,233.107 165.5,232.5C 162.174,225.869 157.841,220.202 152.5,215.5C 152.5,214.5 152.5,213.5 152.5,212.5C 155.41,210.761 157.91,208.428 160,205.5C 160.945,212.594 164.445,217.927 170.5,221.5C 171.238,228.047 170.572,234.38 168.5,240.5 Z"/></g>
<g><path style="opacity:1" fill="#192129" d="M 109.5,211.5 C 112.425,213.758 115.091,216.425 117.5,219.5C 113.855,217.855 111.188,215.188 109.5,211.5 Z"/></g>
<g><path style="opacity:1" fill="#80c9ec" d="M 152.5,212.5 C 152.5,213.5 152.5,214.5 152.5,215.5C 156.892,221.228 160.892,227.228 164.5,233.5C 167.48,234.829 168.813,237.163 168.5,240.5C 168.107,242.284 167.441,243.95 166.5,245.5C 165.833,244.5 165.167,243.5 164.5,242.5C 163.657,240.827 162.324,239.66 160.5,239C 148.701,235.663 137.035,235.829 125.5,239.5C 121.631,235.536 119.298,230.869 118.5,225.5C 118.517,223.972 119.184,223.472 120.5,224C 125.114,228.619 130.28,232.452 136,235.5C 141.438,229.235 146.271,222.569 150.5,215.5C 147.854,214.836 145.021,214.502 142,214.5C 138.645,214.375 135.478,214.875 132.5,216C 133.295,220.832 134.295,225.665 135.5,230.5C 135.457,231.416 135.124,232.083 134.5,232.5C 128.898,229.229 123.898,225.229 119.5,220.5C 119.5,220.167 119.5,219.833 119.5,219.5C 120.115,216.206 121.115,213.039 122.5,210C 129.874,210.565 136.541,208.731 142.5,204.5C 145.527,206.86 148.194,209.527 150.5,212.5C 151.521,211.998 151.688,211.332 151,210.5C 148.715,208.093 146.549,205.593 144.5,203C 147.667,201.167 150.167,198.667 152,195.5C 153.938,198.39 156.105,201.056 158.5,203.5C 156.474,206.518 154.474,209.518 152.5,212.5 Z"/></g>
<g><path style="opacity:1" fill="#6fafce" d="M 150.5,215.5 C 145.538,220.733 141.038,226.4 137,232.5C 136.023,233.774 135.189,233.774 134.5,232.5C 135.124,232.083 135.457,231.416 135.5,230.5C 134.295,225.665 133.295,220.832 132.5,216C 135.478,214.875 138.645,214.375 142,214.5C 145.021,214.502 147.854,214.836 150.5,215.5 Z"/></g>
<g><path style="opacity:1" fill="#6aa7c5" d="M 92.5,220.5 C 97.1304,221.229 101.797,221.563 106.5,221.5C 107.566,223.701 108.233,226.035 108.5,228.5C 102.581,226.874 97.2474,224.207 92.5,220.5 Z"/></g>
<g><path style="opacity:1" fill="#20303b" d="M 152.5,215.5 C 157.841,220.202 162.174,225.869 165.5,232.5C 165.376,233.107 165.043,233.44 164.5,233.5C 160.892,227.228 156.892,221.228 152.5,215.5 Z"/></g>
<g><path style="opacity:1" fill="#bbd9ea" d="M 118.5,225.5 C 119.298,230.869 121.631,235.536 125.5,239.5C 123.608,240.702 121.774,242.035 120,243.5C 119.22,245.387 119.387,247.054 120.5,248.5C 120.5,249.167 120.5,249.833 120.5,250.5C 118.983,250.489 117.816,249.823 117,248.5C 115.85,245.232 115.016,241.899 114.5,238.5C 115.5,238.167 116.167,237.5 116.5,236.5C 117.008,232.803 117.674,229.136 118.5,225.5 Z"/></g>
<g><path style="opacity:1" fill="#1e2a34" d="M 150.5,215.5 C 146.271,222.569 141.438,229.235 136,235.5C 130.28,232.452 125.114,228.619 120.5,224C 119.184,223.472 118.517,223.972 118.5,225.5C 117.674,229.136 117.008,232.803 116.5,236.5C 115.844,235.378 115.511,234.045 115.5,232.5C 116.17,228.49 116.837,224.49 117.5,220.5C 118.167,220.5 118.833,220.5 119.5,220.5C 123.898,225.229 128.898,229.229 134.5,232.5C 135.189,233.774 136.023,233.774 137,232.5C 141.038,226.4 145.538,220.733 150.5,215.5 Z"/></g>
<g><path style="opacity:1" fill="#b4c9d4" d="M 248.5,230.5 C 247.542,231.962 246.376,233.295 245,234.5C 246.418,244.243 242.252,249.243 232.5,249.5C 229.599,249.047 226.933,248.047 224.5,246.5C 219.682,249.499 215.182,249.166 211,245.5C 210.51,244.207 210.343,242.873 210.5,241.5C 205.525,241.847 201.858,239.847 199.5,235.5C 206.343,239.174 213.676,240.341 221.5,239C 223.644,237.854 225.477,236.354 227,234.5C 230.915,236.476 235.082,236.976 239.5,236C 242.556,234.144 245.556,232.311 248.5,230.5 Z"/></g>
<g><path style="opacity:1" fill="#19222b" d="M 164.5,242.5 C 164.565,242.938 164.399,243.272 164,243.5C 161.489,241.437 158.656,239.937 155.5,239C 148.167,238.333 140.833,238.333 133.5,239C 129.951,239.774 126.618,241.107 123.5,243C 121.393,244.264 120.393,246.097 120.5,248.5C 119.387,247.054 119.22,245.387 120,243.5C 121.774,242.035 123.608,240.702 125.5,239.5C 137.035,235.829 148.701,235.663 160.5,239C 162.324,239.66 163.657,240.827 164.5,242.5 Z"/></g>
<g><path style="opacity:1" fill="#6eafce" d="M 164.5,242.5 C 165.167,243.5 165.833,244.5 166.5,245.5C 162.374,249.563 157.374,252.063 151.5,253C 143.167,253.667 134.833,253.667 126.5,253C 124.148,252.76 122.148,251.927 120.5,250.5C 120.5,249.833 120.5,249.167 120.5,248.5C 120.393,246.097 121.393,244.264 123.5,243C 126.618,241.107 129.951,239.774 133.5,239C 140.833,238.333 148.167,238.333 155.5,239C 158.656,239.937 161.489,241.437 164,243.5C 164.399,243.272 164.565,242.938 164.5,242.5 Z"/></g>
<g><path style="opacity:0.898" fill="#161c23" d="M 62.5,239.5 C 71.3622,238.565 79.0288,241.065 85.5,247C 99.8601,246.029 107.193,252.696 107.5,267C 108.124,273.927 105.29,278.76 99,281.5C 96.823,292.164 90.323,297.498 79.5,297.5C 73.2109,297.603 67.7109,295.603 63,291.5C 61.2932,289.091 60.4598,286.425 60.5,283.5C 50.6329,283.802 46.1329,279.136 47,269.5C 47.6924,268.975 48.1924,268.308 48.5,267.5C 43.6636,253.172 48.3302,243.838 62.5,239.5 Z"/></g>
<g><path style="opacity:1" fill="#d2ebf8" d="M 104.5,262.5 C 105.305,270.526 101.639,274.026 93.5,273C 85.0292,284.139 75.3625,285.305 64.5,276.5C 59.3773,277.901 54.3773,277.568 49.5,275.5C 49.4511,272.626 49.7844,269.792 50.5,267C 46.2787,255.44 49.9454,247.44 61.5,243C 70.9385,240.812 78.7718,243.312 85,250.5C 95.4798,247.991 101.98,251.991 104.5,262.5 Z"/></g>
<g><path style="opacity:0.814" fill="#12181e" d="M 196.5,256.5 C 201.179,256.334 205.845,256.501 210.5,257C 218.121,262.325 219.454,268.992 214.5,277C 209.092,279.444 203.426,280.11 197.5,279C 195.996,277.509 195.163,275.676 195,273.5C 189.548,270.473 188.214,266.139 191,260.5C 192.5,258.531 194.333,257.198 196.5,256.5 Z"/></g>
<g><path style="opacity:1" fill="#c8e0ec" d="M 196.5,258.5 C 209.245,255.104 215.078,259.771 214,272.5C 211.925,276.537 208.592,278.204 204,277.5C 201.329,277.726 198.996,277.059 197,275.5C 196.316,274.216 196.483,273.049 197.5,272C 189.901,268.088 189.567,263.588 196.5,258.5 Z"/></g>
<g><path style="opacity:1" fill="#b5c9d5" d="M 104.5,262.5 C 107.144,270.393 104.644,276.06 97,279.5C 93.9495,292.618 85.7829,297.452 72.5,294C 68.6182,292.321 65.4516,289.821 63,286.5C 62.3486,284.765 62.5153,283.098 63.5,281.5C 60.2152,280.676 56.8818,280.176 53.5,280C 51.9586,278.629 50.6253,277.129 49.5,275.5C 54.3773,277.568 59.3773,277.901 64.5,276.5C 75.3625,285.305 85.0292,284.139 93.5,273C 101.639,274.026 105.305,270.526 104.5,262.5 Z"/></g>
</svg>
