<?xml version="1.0" encoding="UTF-8"?>
<!DOCTYPE svg PUBLIC "-//W3C//DTD SVG 1.1//EN" "http://www.w3.org/Graphics/SVG/1.1/DTD/svg11.dtd">
<svg xmlns="http://www.w3.org/2000/svg" version="1.1" width="300px" height="300px" style="shape-rendering:geometricPrecision; text-rendering:geometricPrecision; image-rendering:optimizeQuality; fill-rule:evenodd; clip-rule:evenodd" xmlns:xlink="http://www.w3.org/1999/xlink">
<g><path style="opacity:0.782" fill="#191b1f" d="M 62.5,41.5 C 61.5655,40.4324 61.2322,39.099 61.5,37.5C 63.8333,37.5 66.1667,37.5 68.5,37.5C 68.5,36.1667 68.5,34.8333 68.5,33.5C 69.5,33.5 70.5,33.5 71.5,33.5C 70.4623,28.1163 67.4623,24.1163 62.5,21.5C 61.3595,20.5745 61.3595,19.7412 62.5,19C 60.3333,16.1667 58.1667,13.3333 56,10.5C 54.9202,7.76293 55.7536,6.09626 58.5,5.5C 60.8442,6.85095 63.1775,8.18428 65.5,9.5C 65.6309,10.3764 65.2975,11.0431 64.5,11.5C 63.0186,10.5197 61.6853,9.35301 60.5,8C 59.0563,7.21948 57.723,7.38615 56.5,8.5C 58.0699,11.0196 59.7365,12.6863 61.5,13.5C 61.2627,14.791 61.596,15.791 62.5,16.5C 62.8333,17.1667 63.1667,17.8333 63.5,18.5C 63.5,19.5 63.5,20.5 63.5,21.5C 65.7659,21.8588 67.5993,21.1922 69,19.5C 70.4443,21.1554 72.2776,21.822 74.5,21.5C 74.822,19.2776 74.1554,17.4443 72.5,16C 75.4471,15.8882 76.7804,14.3882 76.5,11.5C 74.2188,11.9227 72.5521,11.256 71.5,9.5C 70.8333,9.16667 70.1667,8.83333 69.5,8.5C 69.5,8.16667 69.5,7.83333 69.5,7.5C 69.8333,5.5 70.1667,3.5 70.5,1.5C 76.6624,0.15551 78.6624,2.32218 76.5,8C 77.3801,15.8252 78.5468,23.6586 80,31.5C 85.5937,31.7025 87.427,34.3691 85.5,39.5C 84.624,40.2508 83.624,40.7508 82.5,41C 86,44.5 89.5,48 93,51.5C 95.2827,56.9643 96.7827,62.631 97.5,68.5C 100.167,68.5 102.833,68.5 105.5,68.5C 105.866,62.4339 108.366,57.4339 113,53.5C 113.564,46.421 114.564,39.421 116,32.5C 119.51,29.4144 121.677,30.081 122.5,34.5C 126.143,33.5548 129.643,32.2215 133,30.5C 136.154,29.9876 137.82,31.3209 138,34.5C 138.414,34.0426 138.914,33.7093 139.5,33.5C 143.209,23.539 147.209,13.7057 151.5,4C 153.074,3.3013 154.407,3.63463 155.5,5C 154.173,9.79431 153.34,14.6276 153,19.5C 157.786,16.3821 162.286,12.8821 166.5,9C 167.793,8.50999 169.127,8.34332 170.5,8.5C 170.736,11.2257 169.903,13.559 168,15.5C 160.239,22.4227 153.406,30.0894 147.5,38.5C 150.428,39.4841 153.428,39.8174 156.5,39.5C 156.822,41.7224 156.155,43.5557 154.5,45C 149.145,46.1484 143.811,47.4818 138.5,49C 130.617,51.8704 124.117,56.7038 119,63.5C 113.081,73.6273 114.248,74.1273 122.5,65C 130.167,64.3333 137.833,64.3333 145.5,65C 147.044,65.2896 148.377,65.9563 149.5,67C 146.332,73.0072 142.665,78.6738 138.5,84C 133.552,85.0498 128.552,85.5498 123.5,85.5C 123.333,97.1714 123.5,108.838 124,120.5C 123.658,128.321 126.825,134.155 133.5,138C 138.375,139.802 143.375,141.135 148.5,142C 163.799,143.213 179.132,143.88 194.5,144C 206.934,151.055 219.267,158.388 231.5,166C 233.019,167.351 234.352,168.851 235.5,170.5C 231.807,173.676 227.474,175.176 222.5,175C 224.014,176.439 224.347,177.939 223.5,179.5C 220.916,180.393 218.249,180.726 215.5,180.5C 214.556,189.826 214.056,199.159 214,208.5C 214.516,211.034 215.683,213.2 217.5,215C 221.351,217.169 225.185,219.336 229,221.5C 229.312,244.231 234.145,265.898 243.5,286.5C 241.167,286.5 238.833,286.5 236.5,286.5C 237.186,290.287 236.186,293.454 233.5,296C 228.934,297.309 224.267,297.809 219.5,297.5C 219.33,292.514 220.663,288.014 223.5,284C 219.383,281.656 218.55,278.489 221,274.5C 222.235,258.339 219.235,243.006 212,228.5C 210.5,227 209,225.5 207.5,224C 201.281,221.04 195.281,217.707 189.5,214C 185.908,211.079 183.075,207.579 181,203.5C 177.204,208.123 174.038,213.123 171.5,218.5C 172.52,222.041 174.186,225.208 176.5,228C 171.939,236.958 167.772,246.124 164,255.5C 161.198,264.691 161.031,273.858 163.5,283C 161.888,283.72 160.388,283.554 159,282.5C 158.764,284.764 158.264,286.931 157.5,289C 152.012,291.016 146.345,291.849 140.5,291.5C 141.109,285.948 143.109,280.948 146.5,276.5C 144.897,273.656 144.397,270.656 145,267.5C 153.937,255.634 158.27,242.301 158,227.5C 155.333,223.5 152,220.167 148,217.5C 146.203,212.339 145.203,207.005 145,201.5C 136.275,203.66 127.442,203.993 118.5,202.5C 114.245,203.629 110.245,205.296 106.5,207.5C 108.757,211.012 111.257,214.346 114,217.5C 114.006,235.356 120.506,250.523 133.5,263C 131.999,264.252 130.332,265.252 128.5,266C 130.025,267.009 131.692,267.509 133.5,267.5C 134.524,273.883 132.857,279.383 128.5,284C 124.441,283.985 121.274,282.152 119,278.5C 116.941,275.051 115.441,271.384 114.5,267.5C 112.5,266.167 110.5,264.833 108.5,263.5C 107.473,256.147 106.307,248.814 105,241.5C 104.181,237.206 102.681,233.206 100.5,229.5C 89.3268,246.511 83.3268,265.178 82.5,285.5C 80.9411,284.926 79.4411,284.26 78,283.5C 79.3063,287.237 78.1396,290.07 74.5,292C 70.1794,292.499 65.8461,292.666 61.5,292.5C 60.745,286.519 62.4116,281.353 66.5,277C 62.9105,270.685 64.0772,265.519 70,261.5C 79.7408,248.779 83.9075,234.445 82.5,218.5C 79.2665,217.269 77.5998,214.936 77.5,211.5C 77.9428,209.015 78.2761,206.515 78.5,204C 77.5731,198.125 76.4065,192.291 75,186.5C 74.5007,181.511 74.3341,176.511 74.5,171.5C 71.7925,172.449 69.1258,172.449 66.5,171.5C 65.7315,167.555 65.2315,163.555 65,159.5C 60.512,157.191 58.012,153.525 57.5,148.5C 58.8734,148.657 60.2068,148.49 61.5,148C 51.8128,137.58 54.1461,132.747 68.5,133.5C 68.7686,127.727 71.7686,124.227 77.5,123C 80.2913,119.346 81.6246,115.18 81.5,110.5C 75.9236,112.064 70.2569,112.564 64.5,112C 57.6221,109.079 54.7888,103.912 56,96.5C 61.8261,94.1689 67.3261,91.1689 72.5,87.5C 73.3226,83.8471 74.9893,80.6804 77.5,78C 74.4522,77.3936 71.9522,75.8936 70,73.5C 66.722,69.2789 64.222,64.6122 62.5,59.5C 68.6238,58.2261 72.2905,54.5594 73.5,48.5C 69.9744,45.9062 66.3077,43.5729 62.5,41.5 Z"/></g>
<g><path style="opacity:1" fill="#f2f0d1" d="M 154.5,283.5 C 154.027,282.094 153.027,281.427 151.5,281.5C 150.158,280.207 148.491,279.374 146.5,279C 147.293,277.915 147.96,276.748 148.5,275.5C 147.16,274.312 146.493,272.812 146.5,271C 148.841,265.816 151.341,260.649 154,255.5C 155.477,251.57 156.644,247.57 157.5,243.5C 160.93,243.893 164.096,243.227 167,241.5C 166.016,245.165 164.683,248.832 163,252.5C 160.468,261.749 159.968,271.082 161.5,280.5C 160.349,281.731 159.183,281.731 158,280.5C 157.667,278.833 157.333,277.167 157,275.5C 157.053,278.675 156.22,281.342 154.5,283.5 Z"/></g>
<g><path style="opacity:1" fill="#f7f4d4" d="M 228.5,238.5 C 230.781,254.626 234.781,270.292 240.5,285.5C 238.833,285.5 237.167,285.5 235.5,285.5C 234.997,280.5 234.664,280.833 234.5,286.5C 231.267,285.391 227.934,284.558 224.5,284C 225.576,282.274 225.743,280.441 225,278.5C 224.571,282.121 223.404,282.288 221.5,279C 224.016,269.871 224.016,260.704 221.5,251.5C 222.893,247.714 224.56,244.047 226.5,240.5C 227.167,239.833 227.833,239.167 228.5,238.5 Z"/></g>
<g><path style="opacity:1" fill="#f7f4d4" d="M 72.5,281.5 C 71.657,279.827 70.3237,278.66 68.5,278C 68.9574,277.586 69.2907,277.086 69.5,276.5C 66.8478,274.408 66.0145,271.742 67,268.5C 75.3996,259.368 80.8996,248.702 83.5,236.5C 85.8984,236.741 87.8984,236.074 89.5,234.5C 91.5824,234.528 93.4157,233.861 95,232.5C 91.4011,241.723 87.7345,251.056 84,260.5C 82.0307,268.027 81.0307,275.694 81,283.5C 78.5901,282.644 77.4234,281.31 77.5,279.5C 76.7022,281.078 76.2022,282.744 76,284.5C 74.9609,283.29 73.7942,282.29 72.5,281.5 Z"/></g>
<g><path style="opacity:1" fill="#f7f5d5" d="M 125.5,271.5 C 122.873,272.092 120.206,272.425 117.5,272.5C 117.656,267.136 115.156,263.802 110,262.5C 109.567,253.634 108.067,244.967 105.5,236.5C 107.658,233.852 108.992,230.852 109.5,227.5C 110.558,226.4 111.392,225.066 112,223.5C 114.53,238.393 120.697,251.559 130.5,263C 128.423,263.192 126.423,263.692 124.5,264.5C 125.5,265.833 126.5,267.167 127.5,268.5C 126.807,269.518 126.141,270.518 125.5,271.5 Z"/></g>
<g><path style="opacity:1" fill="#88674c" d="M 170.5,222.5 C 171.985,224.162 173.318,225.995 174.5,228C 172.962,234.442 169.296,239.108 163.5,242C 162.207,242.49 160.873,242.657 159.5,242.5C 160.084,237.501 160.251,232.501 160,227.5C 156.664,223.332 153.164,219.332 149.5,215.5C 149.369,214.624 149.702,213.957 150.5,213.5C 157.415,215.958 164.082,218.958 170.5,222.5 Z"/></g>
<g><path style="opacity:1" fill="#83634a" d="M 93.5,214.5 C 95.2445,218.094 97.2445,221.594 99.5,225C 97.61,229.724 94.2767,232.891 89.5,234.5C 87.8984,236.074 85.8984,236.741 83.5,236.5C 84.8403,230.597 85.3403,224.597 85,218.5C 79.4841,214.78 77.9841,209.78 80.5,203.5C 80.1402,199.727 79.3068,196.061 78,192.5C 77.0836,187.514 76.7503,182.514 77,177.5C 81.3009,183.967 86.4676,189.634 92.5,194.5C 89.7357,197.923 87.4024,201.59 85.5,205.5C 87.4445,209.113 90.1112,212.113 93.5,214.5 Z"/></g>
<g><path style="opacity:1" fill="#e0ddc1" d="M 85.5,181.5 C 87.371,181.141 88.871,180.141 90,178.5C 92.503,175.498 94.503,172.165 96,168.5C 98.0176,170.35 99.8509,172.35 101.5,174.5C 98.8083,180.286 96.1416,185.953 93.5,191.5C 88.6671,189.392 86.0004,186.059 85.5,181.5 Z"/></g>
<g><path style="opacity:1" fill="#e0bb3a" d="M 97.5,164.5 C 99.2162,166.447 101.383,167.781 104,168.5C 104.388,170.076 103.888,171.409 102.5,172.5C 98.8457,170.62 97.179,167.953 97.5,164.5 Z"/></g>
<g><path style="opacity:1" fill="#87664c" d="M 208.5,156.5 C 208.56,155.957 208.893,155.624 209.5,155.5C 217.999,159.579 225.999,164.413 233.5,170C 232.377,171.044 231.044,171.71 229.5,172C 225.5,172.333 221.5,172.667 217.5,173C 219.167,174.667 220.833,176.333 222.5,178C 219.854,178.497 217.187,178.664 214.5,178.5C 214.636,170.477 212.636,163.143 208.5,156.5 Z"/></g>
<g><path style="opacity:1" fill="#3b3735" d="M 102.5,130.5 C 104.219,133.859 105.386,137.525 106,141.5C 109.676,142.679 112.176,145.013 113.5,148.5C 111.045,145.766 108.045,143.766 104.5,142.5C 103.368,138.574 102.701,134.574 102.5,130.5 Z"/></g>
<g><path style="opacity:1" fill="#fbf8d8" d="M 102.5,130.5 C 102.701,134.574 103.368,138.574 104.5,142.5C 108.045,143.766 111.045,145.766 113.5,148.5C 113.607,150.903 112.607,152.736 110.5,154C 107.945,155.444 105.279,156.611 102.5,157.5C 104.623,160.246 106.623,163.079 108.5,166C 104.643,166.758 100.977,166.258 97.5,164.5C 96.9101,163.234 96.4101,161.901 96,160.5C 94.9065,168.745 91.4065,175.745 85.5,181.5C 84.5041,181.414 83.6708,181.748 83,182.5C 79.4094,178.323 76.5761,173.657 74.5,168.5C 72.4006,170.52 70.0673,170.854 67.5,169.5C 66.1969,165.968 66.1969,162.468 67.5,159C 56.8186,152.188 57.4853,149.188 69.5,150C 63.1313,147.972 59.2979,143.806 58,137.5C 61.3767,134.987 65.21,133.987 69.5,134.5C 69.6726,131.821 70.6726,129.487 72.5,127.5C 76.8421,125.971 80.5088,123.471 83.5,120C 87.2946,119.163 90.9613,119.496 94.5,121C 97.7834,123.772 100.45,126.939 102.5,130.5 Z"/></g>
<g><path style="opacity:1" fill="#7c7d73" d="M 76.5,146.5 C 77.0353,150.067 76.5353,153.734 75,157.5C 74.6873,153.742 75.1873,150.076 76.5,146.5 Z"/></g>
<g><path style="opacity:1" fill="#622a1e" d="M 57.5,97.5 C 67.883,97.0082 69.2163,100.342 61.5,107.5C 58.4243,104.954 57.091,101.62 57.5,97.5 Z"/></g>
<g><path style="opacity:1" fill="#f4f1d2" d="M 89.5,91.5 C 92.3915,92.4025 95.3915,92.7359 98.5,92.5C 101.394,97.9929 100.728,103.16 96.5,108C 94.7912,109.545 92.7912,110.378 90.5,110.5C 85.428,108.709 80.2613,107.375 75,106.5C 73.1667,106.667 71.3333,106.833 69.5,107C 84.1594,108.175 84.1594,109.675 69.5,111.5C 66.7292,111.616 64.7292,110.449 63.5,108C 66.1284,105.246 68.1284,102.079 69.5,98.5C 72.507,97.6633 75.1737,96.3299 77.5,94.5C 81.3464,92.9116 85.3464,91.9116 89.5,91.5 Z"/></g>
<g><path style="opacity:1" fill="#f0c73d" d="M 102.5,86.5 C 108.544,94.7837 107.377,102.117 99,108.5C 100.285,105.442 101.118,102.108 101.5,98.5C 101.931,95.6068 100.931,93.6068 98.5,92.5C 99.4486,90.2228 100.782,88.2228 102.5,86.5 Z"/></g>
<g><path style="opacity:1" fill="#97812f" d="M 76.5,81.5 C 77.7965,82.8488 77.6298,84.1821 76,85.5C 75.4209,84.0715 75.5876,82.7382 76.5,81.5 Z"/></g>
<g><path style="opacity:1" fill="#88674d" d="M 228.5,238.5 C 227.833,239.167 227.167,239.833 226.5,240.5C 224.53,242.647 222.697,244.98 221,247.5C 219.093,239.691 216.093,232.358 212,225.5C 205.583,220.706 198.75,216.539 191.5,213C 186.3,208.108 182.466,202.275 180,195.5C 177.183,187.378 174.183,179.378 171,171.5C 170.316,172.784 170.483,173.951 171.5,175C 170.552,175.483 169.552,175.649 168.5,175.5C 166.565,174.19 164.565,172.857 162.5,171.5C 157.521,175.326 152.021,176.66 146,175.5C 145.536,176.094 145.369,176.761 145.5,177.5C 135.037,190.748 121.703,200.082 105.5,205.5C 104.417,206.365 104.251,207.365 105,208.5C 107.182,212.01 109.349,215.51 111.5,219C 110.313,221.724 109.647,224.557 109.5,227.5C 108.024,229.769 106.524,232.102 105,234.5C 102.417,226.986 98.5835,220.319 93.5,214.5C 92.287,211.775 90.4536,209.441 88,207.5C 87.3333,205.833 87.3333,204.167 88,202.5C 90.2368,200.353 92.2368,198.02 94,195.5C 98.0045,182.937 104.505,171.937 113.5,162.5C 113.333,162.167 113.167,161.833 113,161.5C 111.846,162.743 110.512,163.743 109,164.5C 108.086,162.336 106.919,160.336 105.5,158.5C 108.587,156.872 111.42,154.872 114,152.5C 114.765,150.934 114.598,149.601 113.5,148.5C 112.176,145.013 109.676,142.679 106,141.5C 105.386,137.525 104.219,133.859 102.5,130.5C 99.6425,120.491 93.1425,116.491 83,118.5C 82.7817,115.755 83.2817,113.088 84.5,110.5C 92.02,113.749 99.02,112.915 105.5,108C 104.167,108 102.833,108 101.5,108C 107.607,102.988 109.44,96.8213 107,89.5C 105.871,87.8588 104.371,86.8588 102.5,86.5C 101.177,84.3176 99.5101,83.6509 97.5,84.5C 96.5084,84.6716 95.8417,84.3382 95.5,83.5C 94.0592,82.187 91.8926,82.187 89,83.5C 88.3581,85.7619 87.5248,87.9285 86.5,90C 87.7375,90.2321 88.7375,90.7321 89.5,91.5C 85.3464,91.9116 81.3464,92.9116 77.5,94.5C 74.3136,95.3379 71.1469,96.3379 68,97.5C 66.1886,96.9221 64.3553,96.4221 62.5,96C 67.1667,93 71.8333,90 76.5,87C 78.1213,84.834 78.9546,82.334 79,79.5C 87.7064,70.2351 97.5397,68.4018 108.5,74C 110.235,74.6514 111.902,74.4847 113.5,73.5C 114.192,74.0253 114.692,74.6919 115,75.5C 117.382,72.5728 119.882,69.7395 122.5,67C 130.853,66.1683 139.187,66.3349 147.5,67.5C 144.448,73.1059 140.781,78.2726 136.5,83C 128.75,82.9829 123.75,83.4829 121.5,84.5C 121.333,95.8382 121.5,107.172 122,118.5C 122.816,123.546 123.816,128.546 125,133.5C 126.873,135.709 129.04,137.542 131.5,139C 137.649,140.912 143.815,142.745 150,144.5C 153.741,150.046 158.907,151.879 165.5,150C 166.38,148.644 166.714,147.144 166.5,145.5C 192.942,139.113 208.442,149.113 213,175.5C 213.105,187.17 213.105,198.836 213,210.5C 215.828,216.59 220.495,220.59 227,222.5C 227.215,227.915 227.715,233.248 228.5,238.5 Z"/></g>
<g><path style="opacity:1" fill="#735740" d="M 170.5,222.5 C 164.082,218.958 157.415,215.958 150.5,213.5C 149.702,213.957 149.369,214.624 149.5,215.5C 148.513,210.695 148.179,205.695 148.5,200.5C 158.636,199.289 168.636,199.956 178.5,202.5C 175.415,207 172.582,211.667 170,216.5C 169.51,218.545 169.677,220.545 170.5,222.5 Z"/></g>
<g><path style="opacity:1" fill="#d6d3b8" d="M 175.5,189.5 C 176.81,192.399 178.143,195.399 179.5,198.5C 172.688,199.452 165.854,199.452 159,198.5C 152.767,198.813 146.6,199.646 140.5,201C 134.098,201.818 127.765,201.484 121.5,200C 125.696,197.739 129.696,195.239 133.5,192.5C 135.134,193.161 136.967,193.494 139,193.5C 150.156,192.798 161.322,192.298 172.5,192C 174.119,191.764 175.119,190.931 175.5,189.5 Z"/></g>
<g><path style="opacity:1" fill="#f8f5d5" d="M 163.5,178.5 C 164.058,179.79 165.058,180.623 166.5,181C 172.571,180.687 175.571,183.52 175.5,189.5C 175.119,190.931 174.119,191.764 172.5,192C 161.322,192.298 150.156,192.798 139,193.5C 136.967,193.494 135.134,193.161 133.5,192.5C 136.971,189.86 139.971,186.694 142.5,183C 146.167,182.667 149.833,182.333 153.5,182C 154.416,181.722 155.082,181.222 155.5,180.5C 158.167,179.833 160.833,179.167 163.5,178.5 Z"/></g>
<g><path style="opacity:1" fill="#e5bf3b" d="M 168.5,175.5 C 169.287,177.104 170.62,177.771 172.5,177.5C 172.5,178.5 172.5,179.5 172.5,180.5C 169.308,180.595 166.308,179.929 163.5,178.5C 163.217,177.711 162.717,177.044 162,176.5C 159.686,177.733 157.519,179.067 155.5,180.5C 151.537,181.44 147.537,181.607 143.5,181C 144.823,180.184 145.489,179.017 145.5,177.5C 151.438,177.748 156.938,176.415 162,173.5C 164.047,174.609 166.213,175.276 168.5,175.5 Z"/></g>
<g><path style="opacity:1" fill="#4f4c3d" d="M 163.5,178.5 C 160.833,179.167 158.167,179.833 155.5,180.5C 157.519,179.067 159.686,177.733 162,176.5C 162.717,177.044 163.217,177.711 163.5,178.5 Z"/></g>
<g><path style="opacity:1" fill="#2f2b24" d="M 168.5,175.5 C 166.213,175.276 164.047,174.609 162,173.5C 156.938,176.415 151.438,177.748 145.5,177.5C 145.369,176.761 145.536,176.094 146,175.5C 152.021,176.66 157.521,175.326 162.5,171.5C 164.565,172.857 166.565,174.19 168.5,175.5 Z"/></g>
<g><path style="opacity:1" fill="#e06988" d="M 173.5,161.5 C 170.162,161.935 167.162,161.268 164.5,159.5C 168.031,156.594 171.031,157.261 173.5,161.5 Z"/></g>
<g><path style="opacity:1" fill="#3b2c2f" d="M 173.5,161.5 C 171.031,157.261 168.031,156.594 164.5,159.5C 163.596,158.791 163.263,157.791 163.5,156.5C 166.187,156.336 168.854,156.503 171.5,157C 173.818,158.102 174.485,159.602 173.5,161.5 Z"/></g>
<g><path style="opacity:1" fill="#e46b8a" d="M 153.5,145.5 C 157.182,145.335 160.848,145.501 164.5,146C 165.833,147 165.833,148 164.5,149C 159.838,150.337 156.171,149.17 153.5,145.5 Z"/></g>
<g><path style="opacity:1" fill="#272728" d="M 95.5,83.5 C 90.6145,82.4048 88.9478,84.0715 90.5,88.5C 93.7083,87.452 96.0416,86.1187 97.5,84.5C 99.5101,83.6509 101.177,84.3176 102.5,86.5C 100.782,88.2228 99.4486,90.2228 98.5,92.5C 95.3915,92.7359 92.3915,92.4025 89.5,91.5C 88.7375,90.7321 87.7375,90.2321 86.5,90C 87.5248,87.9285 88.3581,85.7619 89,83.5C 91.8926,82.187 94.0592,82.187 95.5,83.5 Z"/></g>
<g><path style="opacity:1" fill="#dadbdc" d="M 92.5,88.5 C 94.9752,88.7467 94.9752,89.4134 92.5,90.5C 91.537,90.0302 91.537,89.3635 92.5,88.5 Z"/></g>
<g><path style="opacity:1" fill="#d9d9da" d="M 99.5,85.5 C 100.713,86.4971 100.546,87.4971 99,88.5C 98.5304,87.4232 98.6971,86.4232 99.5,85.5 Z"/></g>
<g><path style="opacity:1" fill="#f0c73d" d="M 95.5,83.5 C 95.8417,84.3382 96.5084,84.6716 97.5,84.5C 96.0416,86.1187 93.7083,87.452 90.5,88.5C 88.9478,84.0715 90.6145,82.4048 95.5,83.5 Z"/></g>
<g><path style="opacity:1" fill="#232022" d="M 117.5,77.5 C 117.5,78.5 117.5,79.5 117.5,80.5C 122.511,80.6659 127.511,80.4993 132.5,80C 133.044,79.2828 133.711,78.7828 134.5,78.5C 134.586,79.4959 134.252,80.3292 133.5,81C 127.509,81.4995 121.509,81.6662 115.5,81.5C 115.229,79.6203 115.896,78.287 117.5,77.5 Z"/></g>
<g><path style="opacity:1" fill="#5d2a1e" d="M 134.5,78.5 C 133.711,78.7828 133.044,79.2828 132.5,80C 127.511,80.4993 122.511,80.6659 117.5,80.5C 117.5,79.5 117.5,78.5 117.5,77.5C 118.247,74.6385 119.914,72.6385 122.5,71.5C 127.142,70.3274 131.809,70.3274 136.5,71.5C 136.122,73.921 135.455,76.2543 134.5,78.5 Z"/></g>
<g><path style="opacity:1" fill="#322825" d="M 134.5,78.5 C 135.455,76.2543 136.122,73.921 136.5,71.5C 131.809,70.3274 127.142,70.3274 122.5,71.5C 122.611,70.8826 122.944,70.3826 123.5,70C 128.222,69.2231 132.889,69.3897 137.5,70.5C 138.241,73.7063 137.241,76.3729 134.5,78.5 Z"/></g>
<g><path style="opacity:1" fill="#7f6049" d="M 84.5,65.5 C 87.2465,65.9276 88.9132,67.5943 89.5,70.5C 88.5,71.8333 87.5,71.8333 86.5,70.5C 85.5435,68.9246 84.8769,67.258 84.5,65.5 Z"/></g>
<g><path style="opacity:1" fill="#612a1e" d="M 82.5,67.5 C 86.4138,70.3148 86.2472,72.6481 82,74.5C 75.7882,73.5834 72.6216,70.2501 72.5,64.5C 73.624,65.914 74.624,67.414 75.5,69C 77.5,69.6667 79.5,69.6667 81.5,69C 82.056,68.6174 82.3893,68.1174 82.5,67.5 Z"/></g>
<g><path style="opacity:1" fill="#532319" d="M 72.5,37.5 C 73.1667,37.5 73.8333,37.5 74.5,37.5C 75.8793,40.0735 77.8793,41.5735 80.5,42C 89.5997,47.5055 94.933,56.6722 96.5,69.5C 94.5328,69.2606 92.6995,69.5939 91,70.5C 89.878,68.5932 89.0447,66.5932 88.5,64.5C 90.0322,61.7167 89.3655,59.55 86.5,58C 88.1554,56.5557 88.822,54.7224 88.5,52.5C 88.5858,51.5041 88.2524,50.6708 87.5,50C 79.589,49.7679 74.589,46.2679 72.5,39.5C 72.5,38.8333 72.5,38.1667 72.5,37.5 Z"/></g>
<g><path style="opacity:1" fill="#7f6149" d="M 64.5,59.5 C 66.1667,59.5 67.8333,59.5 69.5,59.5C 69.4384,67.5864 73.105,73.0864 80.5,76C 76.4469,76.5586 73.2802,75.0586 71,71.5C 68.0458,67.9249 65.8792,63.9249 64.5,59.5 Z"/></g>
<g><path style="opacity:1" fill="#d86684" d="M 88.5,52.5 C 88.822,54.7224 88.1554,56.5557 86.5,58C 89.3655,59.55 90.0322,61.7167 88.5,64.5C 86.8008,64.3398 85.1341,64.5065 83.5,65C 82.7476,65.6708 82.4142,66.5041 82.5,67.5C 77.8634,69.7839 75.5301,68.4506 75.5,63.5C 70.8176,63.1252 69.4843,60.7918 71.5,56.5C 72.325,55.6143 73.325,55.281 74.5,55.5C 73.3306,48.8096 75.4973,47.1429 81,50.5C 81.3333,51.5 81.6667,52.5 82,53.5C 83.8245,51.1762 85.9912,50.8428 88.5,52.5 Z"/></g>
<g><path style="opacity:1" fill="#412d30" d="M 81.5,56.5 C 83.3442,57.2039 83.8442,58.5372 83,60.5C 78.4856,63.3408 76.4856,62.0075 77,56.5C 78.6155,55.1991 80.1155,55.1991 81.5,56.5 Z"/></g>
<g><path style="opacity:1" fill="#ddb83a" d="M 81.5,56.5 C 82.9361,59.5699 81.9361,60.7366 78.5,60C 77.306,57.3422 78.306,56.1756 81.5,56.5 Z"/></g>
<g><path style="opacity:1" fill="#d3b038" d="M 152.5,41.5 C 155.012,42.2162 155.012,43.2162 152.5,44.5C 151.893,44.3764 151.56,44.0431 151.5,43.5C 152.338,43.1583 152.672,42.4916 152.5,41.5 Z"/></g>
<g><path style="opacity:1" fill="#5e291d" d="M 152.5,41.5 C 152.672,42.4916 152.338,43.1583 151.5,43.5C 151.565,43.0618 151.399,42.7284 151,42.5C 150.5,43.6667 149.667,44.5 148.5,45C 144.686,45.2345 141.019,46.0678 137.5,47.5C 137.167,47.1667 136.833,46.8333 136.5,46.5C 137.602,45.8243 138.602,45.1577 139.5,44.5C 141.104,43.713 141.771,42.3797 141.5,40.5C 145.371,40.185 149.038,40.5184 152.5,41.5 Z"/></g>
<g><path style="opacity:1" fill="#5e281c" d="M 122.5,48.5 C 123.952,49.3019 125.618,49.8019 127.5,50C 128.451,50.7175 128.617,51.5509 128,52.5C 120.681,57.4833 115.181,63.9833 111.5,72C 106.917,72.9337 105.417,71.1004 107,66.5C 107.792,61.5796 110.126,57.5796 114,54.5C 114.667,49.8333 115.333,45.1667 116,40.5C 117.333,39.8333 118.667,39.1667 120,38.5C 120.333,42.8333 120.667,47.1667 121,51.5C 121.232,50.2625 121.732,49.2625 122.5,48.5 Z"/></g>
<g><path style="opacity:1" fill="#5e281c" d="M 69.5,38.5 C 70.5434,41.0562 72.2101,43.2228 74.5,45C 74.1667,45.1667 73.8333,45.3333 73.5,45.5C 69.951,43.7622 66.2843,42.4289 62.5,41.5C 62.5,40.5 62.5,39.5 62.5,38.5C 64.8333,38.5 67.1667,38.5 69.5,38.5 Z"/></g>
<g><path style="opacity:1" fill="#e8c13c" d="M 72.5,37.5 C 72.5,38.1667 72.5,38.8333 72.5,39.5C 71.391,39.4431 70.391,39.1098 69.5,38.5C 69.5,37.5 69.5,36.5 69.5,35.5C 71.1788,35.2852 72.1788,35.9519 72.5,37.5 Z"/></g>
<g><path style="opacity:1" fill="#da6685" d="M 79.5,33.5 C 84.1585,33.0146 85.4919,34.848 83.5,39C 78.7107,39.8446 77.3774,38.0113 79.5,33.5 Z"/></g>
<g><path style="opacity:1" fill="#d26480" d="M 139.5,44.5 C 137.801,44.3398 136.134,44.5065 134.5,45C 136.179,48.1138 135.345,50.2805 132,51.5C 130.739,51.2409 129.739,50.5742 129,49.5C 128.915,47.9154 128.749,46.5821 128.5,45.5C 127.024,47.5713 125.024,48.5713 122.5,48.5C 122.595,44.5636 122.428,40.5636 122,36.5C 124.33,34.9683 126.33,35.3017 128,37.5C 128.589,31.5377 131.256,30.2044 136,33.5C 136.825,35.7008 136.325,37.5341 134.5,39C 138.459,38.7913 140.126,40.6246 139.5,44.5 Z"/></g>
<g><path style="opacity:1" fill="#40322b" d="M 128.5,39.5 C 128.088,41.9726 129.088,43.3059 131.5,43.5C 130.458,44.7911 129.292,44.7911 128,43.5C 127.235,41.9343 127.402,40.6009 128.5,39.5 Z"/></g>
<g><path style="opacity:1" fill="#e0bb3a" d="M 128.5,39.5 C 129.833,39.5 131.167,39.5 132.5,39.5C 132.567,40.9587 132.234,42.2921 131.5,43.5C 129.088,43.3059 128.088,41.9726 128.5,39.5 Z"/></g>
<g><path style="opacity:1" fill="#edc53c" d="M 118.5,31.5 C 121.209,34.009 120.875,36.3424 117.5,38.5C 116.154,35.9004 116.488,33.5671 118.5,31.5 Z"/></g>
<g><path style="opacity:1" fill="#5d281c" d="M 147.5,21.5 C 146.343,24.8569 147.676,26.3569 151.5,26C 152.866,24.4002 153.866,22.5668 154.5,20.5C 159.244,16.7119 164.077,13.0453 169,9.5C 169.167,9.83333 169.333,10.1667 169.5,10.5C 161.351,19.8163 153.018,28.9829 144.5,38C 142.098,38.8141 139.765,38.6474 137.5,37.5C 139.527,36.3067 141.027,34.64 142,32.5C 145.088,22.8957 148.755,13.5624 153,4.5C 152.65,9.46334 152.15,14.4633 151.5,19.5C 149.517,19.1568 148.183,19.8235 147.5,21.5 Z"/></g>
<g><path style="opacity:1" fill="#ce617e" d="M 147.5,21.5 C 149.551,19.9624 151.218,20.2957 152.5,22.5C 150.203,25.2896 148.536,24.9563 147.5,21.5 Z"/></g>
<g><path style="opacity:1" fill="#612a1e" d="M 74.5,37.5 C 74.3215,34.7835 73.8215,32.1168 73,29.5C 71.2567,27.6789 69.7567,25.6789 68.5,23.5C 70.7427,22.5258 73.076,22.1924 75.5,22.5C 75.3379,20.4727 75.5045,18.4727 76,16.5C 76.5945,21.3773 77.4279,26.2106 78.5,31C 78.2382,33.5472 77.7382,36.0472 77,38.5C 76.3292,37.7476 75.4959,37.4142 74.5,37.5 Z"/></g>
<g><path style="opacity:1" fill="#d66482" d="M 69.5,8.5 C 70.1667,8.83333 70.8333,9.16667 71.5,9.5C 72.5521,11.256 74.2188,11.9227 76.5,11.5C 76.7804,14.3882 75.4471,15.8882 72.5,16C 74.1554,17.4443 74.822,19.2776 74.5,21.5C 72.2776,21.822 70.4443,21.1554 69,19.5C 67.5993,21.1922 65.7659,21.8588 63.5,21.5C 63.5,20.5 63.5,19.5 63.5,18.5C 66.0545,17.612 68.7212,17.2786 71.5,17.5C 71.7678,15.901 71.4345,14.5676 70.5,13.5C 69.4324,12.5655 68.099,12.2322 66.5,12.5C 66.5,11.1667 66.5,9.83333 66.5,8.5C 67.5,8.5 68.5,8.5 69.5,8.5 Z"/></g>
<g><path style="opacity:1" fill="#5d3337" d="M 65.5,9.5 C 66.1834,7.82351 67.5168,7.15684 69.5,7.5C 69.5,7.83333 69.5,8.16667 69.5,8.5C 68.5,8.5 67.5,8.5 66.5,8.5C 66.5,9.83333 66.5,11.1667 66.5,12.5C 68.099,12.2322 69.4324,12.5655 70.5,13.5C 71.4345,14.5676 71.7678,15.901 71.5,17.5C 68.7212,17.2786 66.0545,17.612 63.5,18.5C 63.1667,17.8333 62.8333,17.1667 62.5,16.5C 63.5,16.5 64.5,16.5 65.5,16.5C 65.5,15.1667 65.5,13.8333 65.5,12.5C 64.0413,12.4326 62.7079,12.7659 61.5,13.5C 59.7365,12.6863 58.0699,11.0196 56.5,8.5C 57.723,7.38615 59.0563,7.21948 60.5,8C 61.6853,9.35301 63.0186,10.5197 64.5,11.5C 65.2975,11.0431 65.6309,10.3764 65.5,9.5 Z"/></g>
<g><path style="opacity:1" fill="#ecc43c" d="M 70.5,13.5 C 70.5,14.5 70.5,15.5 70.5,16.5C 69.5,16.5 68.5,16.5 67.5,16.5C 67.5,15.5 67.5,14.5 67.5,13.5C 68.5,13.5 69.5,13.5 70.5,13.5 Z"/></g>
<g><path style="opacity:1" fill="#e36b8a" d="M 62.5,16.5 C 61.596,15.791 61.2627,14.791 61.5,13.5C 62.7079,12.7659 64.0413,12.4326 65.5,12.5C 65.5,13.8333 65.5,15.1667 65.5,16.5C 64.5,16.5 63.5,16.5 62.5,16.5 Z"/></g>
<g><path style="opacity:1" fill="#5d291e" d="M 71.5,9.5 C 71.5,7.16667 71.5,4.83333 71.5,2.5C 72.8221,2.33003 73.9887,2.66337 75,3.5C 75.4966,5.80982 75.6633,8.14316 75.5,10.5C 74.0413,10.5674 72.7079,10.2341 71.5,9.5 Z"/></g>
<g><path style="opacity:1" fill="#632b1e" d="M 125.5,271.5 C 127.411,271.426 128.578,270.426 129,268.5C 132.742,273.866 131.909,278.533 126.5,282.5C 122.819,280.652 120.152,277.818 118.5,274C 121.191,273.844 123.524,273.011 125.5,271.5 Z"/></g>
<g><path style="opacity:1" fill="#60291d" d="M 72.5,281.5 C 73.6086,283.554 74.6086,285.721 75.5,288C 72.4477,291.014 68.7811,292.014 64.5,291C 62.6554,286.212 63.822,282.379 68,279.5C 69.4064,280.414 70.9064,281.08 72.5,281.5 Z"/></g>
<g><path style="opacity:1" fill="#5f291d" d="M 151.5,281.5 C 153.027,281.427 154.027,282.094 154.5,283.5C 155.278,284.156 155.944,284.989 156.5,286C 152.516,289.335 147.85,290.835 142.5,290.5C 142.231,283.95 145.231,280.95 151.5,281.5 Z"/></g>
<g><path style="opacity:1" fill="#60291c" d="M 223.5,285.5 C 227.303,285.962 230.969,286.962 234.5,288.5C 234.785,290.288 234.452,291.955 233.5,293.5C 229.736,295.441 225.736,296.441 221.5,296.5C 221.242,292.633 221.908,288.966 223.5,285.5 Z"/></g>
</svg>
