<?xml version="1.0" encoding="UTF-8"?>
<svg version="1.1" viewBox="0 0 207.98 201.62" xmlns="http://www.w3.org/2000/svg">
 <defs>
  <clipPath id="clipPath2389">
   <path d="M 0,841.89 H 595.28 V 0 H 0 Z"/>
  </clipPath>
  <clipPath id="clipPath2404">
   <path d="M 0,841.89 H 595.28 V 0 H 0 Z"/>
  </clipPath>
  <clipPath id="clipPath2419">
   <path d="M 0,841.89 H 595.28 V 0 H 0 Z"/>
  </clipPath>
  <clipPath id="clipPath2434">
   <path d="M 0,841.89 H 595.28 V 0 H 0 Z"/>
  </clipPath>
  <clipPath id="clipPath2449">
   <path d="M 0,841.89 H 595.28 V 0 H 0 Z"/>
  </clipPath>
  <clipPath id="clipPath2464">
   <path d="M 0,841.89 H 595.28 V 0 H 0 Z"/>
  </clipPath>
  <clipPath id="clipPath2479">
   <path d="M 0,841.89 H 595.28 V 0 H 0 Z"/>
  </clipPath>
  <clipPath id="clipPath2494">
   <path d="M 0,841.89 H 595.28 V 0 H 0 Z"/>
  </clipPath>
  <clipPath id="clipPath2509">
   <path d="M 0,841.89 H 595.28 V 0 H 0 Z"/>
  </clipPath>
  <clipPath id="clipPath2524">
   <path d="M 0,841.89 H 595.28 V 0 H 0 Z"/>
  </clipPath>
  <clipPath id="clipPath2539">
   <path d="M 0,841.89 H 595.28 V 0 H 0 Z"/>
  </clipPath>
  <clipPath id="clipPath2569">
   <path d="M 0,841.89 H 595.28 V 0 H 0 Z"/>
  </clipPath>
  <clipPath id="clipPath2554">
   <path d="M 0,841.89 H 595.28 V 0 H 0 Z"/>
  </clipPath>
  <clipPath id="clipPath2584">
   <path d="M 0,841.89 H 595.28 V 0 H 0 Z"/>
  </clipPath>
  <clipPath id="clipPath2599">
   <path d="M 0,841.89 H 595.28 V 0 H 0 Z"/>
  </clipPath>
  <clipPath id="clipPath2614">
   <path d="M 0,841.89 H 595.28 V 0 H 0 Z"/>
  </clipPath>
  <clipPath id="clipPath2629">
   <path d="M 0,841.89 H 595.28 V 0 H 0 Z"/>
  </clipPath>
  <clipPath id="clipPath2644">
   <path d="M 0,841.89 H 595.28 V 0 H 0 Z"/>
  </clipPath>
  <clipPath id="clipPath2659">
   <path d="M 0,841.89 H 595.28 V 0 H 0 Z"/>
  </clipPath>
  <clipPath id="clipPath2674">
   <path d="M 0,841.89 H 595.28 V 0 H 0 Z"/>
  </clipPath>
  <clipPath id="clipPath2689">
   <path d="M 0,841.89 H 595.28 V 0 H 0 Z"/>
  </clipPath>
  <clipPath id="clipPath2704">
   <path d="M 0,841.89 H 595.28 V 0 H 0 Z"/>
  </clipPath>
  <clipPath id="clipPath2719">
   <path d="M 0,841.89 H 595.28 V 0 H 0 Z"/>
  </clipPath>
  <clipPath id="clipPath2734">
   <path d="M 0,841.89 H 595.28 V 0 H 0 Z"/>
  </clipPath>
  <clipPath id="clipPath2044">
   <path d="M 0,841.89 H 595.28 V 0 H 0 Z"/>
  </clipPath>
 </defs>
 <g transform="translate(-.027632 .01016)">
  <g fill="#fff">
   <path d="m82.8 34q2.55-3.85 6.7-2.4 3.45 6.05 5.6 13 2.2 7.45 2.55 14.75-2.9 2.25-5.2 4.65-5.75-2.35-9-8.45-2.85-5.35-2.95-11.8-0.1-6.15 2.3-9.75"/>
   <path d="m165.3 65.2q9 10.35 9.7 24.7 0.45 8.95-2.1 15.35-1.8 4.35-6.35 9.95-6.1 5-14.95 8.05-8.7 3-17.2 3.05-21.75 0.25-34.25-8.65-12.4-8.9-13.2-25-0.6-12.35 6.55-22.9 7.05-10.4 19.3-15.45l6.4 6.95q5 5.15 7.35 6.95 4.8-13.25 6.05-16.15 2.85 2.05 7.7 7.35 4.55 4.95 7 8.5 0.9-2.2 1.35-7.05 0.45-4.45 0.3-7.65 9.85 4.45 16.35 12"/>
   <path d="m201.4 102.65q0.95 0.95 0.35 6.55 5 1.45 5 2.6 0.1 1.4-6.1 5.45-4.7 5.05-13.85 11.4-13.55 9.5-28.65 15.25-0.45 20.45-4.7 33-4.8 14.4-13.7 15.05l-10.55-0.8-11.9-0.85q-21.55 2.75-29.3-0.95-9.85-4.65-5.7-19.85 1.45-5.3 4.9-13l5.4-11.75q-9.25-1.15-20.55-7.15-10.95-5.85-17.1-12.65-0.5 0-3.2-1.6-2.85-1.65-3.1-2.4 0-0.4 2.05-1.6 2.1-1.2 3.1-1.4l-0.6-3.6q-0.3-2.75 0-3.15 0.6-0.45 3.35 0.65 2.45 0.95 3.65 1.75 0.8-1.6 2.05-2.85 1.3-1.3 2.45-1.55 0.75-0.15 0.85 4.2 9.9-0.15 21.65 4.05 10.05 3.6 17.7 8.95 11.6 5.05 26.1 4.95 16.45-0.15 28.05-8.3 8.65-6.1 11.15-13.15 2.1-0.85 9.95-2.9l10.15-2.45q0.3-1.25 1-2.6 0.8-1.4 1.4-1.55 0.6 0 2.05 1.75 1.35 1.6 1.75 2.5l2.5-1.3q1.8-0.85 2.4-0.7"/>
   <path d="m84.8 187.2q2.2 2.05 4.75 3.05 2.45 0.9 6.8 1.35-1.9 4.25-5.25 7.2-3.45 3-5.6 2.05-2.75-1.2-2.25-6.85 0.35-4.1 1.55-6.8"/>
  </g>
  <path d="m89.5 31.6q-4.15-1.45-6.7 2.4-2.4 3.6-2.3 9.75 0.1 6.45 2.95 11.8 3.25 6.1 9 8.45-4.4 4.65-7 9.5-9.55-5.15-15.5-22.05-5.35-15.2-4.1-26.8 0.7-6.65 3.75-7.75 4.45-1.55 10.05 2.7 5.3 4.05 9.85 12" fill="#fccf00"/>
  <g fill="#525557">
   <path d="m123.35 49.1q5.15-0.5 10.5 0.05 8.1 0.85 15.1 4.05 0.15 3.2-0.3 7.65-0.45 4.85-1.35 7.05-2.45-3.55-7-8.5-4.85-5.3-7.7-7.35-1.25 2.9-6.05 16.15-2.35-1.8-7.35-6.95l-6.4-6.95q-12.25 5.05-19.3 15.45-7.15 10.55-6.55 22.9 0.8 16.1 13.2 25 12.5 8.9 34.25 8.65 8.5-0.05 17.2-3.05 8.85-3.05 14.95-8.05-6.05 7.4-15.25 11.65-9.45 4.4-20.3 4.5-14.5 0.1-26.1-4.95-4.1-2.85-9.25-5.3-6.85-5-10.7-11.75-4-6.95-4.4-15.05-0.95-18.6 14.3-32.1 12.95-11.5 28.5-13.1"/>
   <path d="m82.55 8.3q10.25 1.75 20.6 14.6 10.85 13.5 11.9 27.75-9.6 2.7-17.4 8.7-0.75-17.45-10.55-31.55-4.3-6.2-8.9-9.15-4.8-3.05-8.6-1.75-3.05 1.1-3.75 7.75 0.4-10.05 6.65-14.2 4.65-3.1 10.05-2.15"/>
   <path d="m149.1 0.9q4.95 0.65 7.75 8.1 2.5 6.6 2.8 16.65 0.3 9.5-1.45 17.9-1.85 8.75-5.05 11.85-13.7-7.95-29.8-6.3-1.95-7.15-0.25-16.15 1.6-8.4 5.8-16.1 4.15-7.7 9.4-12 5.65-4.65 10.8-3.95"/>
   <path d="m1.3 62.05q1.1-1.95 9.45 2.2 8.15 4 19.6 11.9 27.85 19.2 43.25 37.85l-8.05-0.6q-0.1-4.35-0.85-4.2-1.15 0.25-2.45 1.55-1.25 1.25-2.05 2.85-1.2-0.8-3.65-1.75-2.75-1.1-3.35-0.65-0.3 0.4 0 3.15l0.6 3.6q-1 0.2-3.1 1.4-2.05 1.2-2.05 1.6 0.55 1.55 3.6 3.1-6.9 13.2-9.2 25.8-9.1-5.7-18.45-16.3-9.1-10.3-7.05-11.9 1.15-0.9 5.85 0.9 3.35 1.3 7.5 3.5-12.3-11.1-21.7-24.4-9.65-13.7-5.2-14.45 2.2-0.35 12.05 5.45 9.65 5.7 16.55 11.35l-19.7-22.75q-13.3-16.2-11.6-19.2"/>
  </g>
  <path d="m129.85 191 6.95 1 4.95-0.45q-2.3 4.7-5.3 7.25-2.9 2.4-5.25 1.95-1.5-0.3-1.95-2.95-0.5-2.8 0.6-6.8" fill="#fff"/>
  <g fill="#fccf00">
   <path d="m182.5 131.6q11.05-7 17.55-13.75-0.3 15.2-5.6 31-5.2 15.35-13.55 26.9-8.65 11.95-18.2 16.25-10.4 4.65-19.7-0.9 7.45-3.45 11.65-19.8 3.15-12.55 3.5-27.4 12.45-4.75 24.35-12.3"/>
   <path d="m54.95 124.95q6.15 6.8 17.1 12.65 11.3 6 20.55 7.15l-4.5 9.6q-3.2 7.05-4.85 12.25-4.95 15.45 1.45 21.45-10.6 6.4-20.95 4.55-10.2-1.85-16.25-10.75-6.4-9.45-5.7-23.6 0.75-15.85 10.45-34.2 1.8 0.9 2.7 0.9"/>
   <path d="m95.7 92.15q2.8-1.2 6.4 1.05 3.95 2.5 5.95 7.65 1.85 4.85 1.05 8.95-0.8 4.05-3.85 5.1-2.85 0.95-6.65-1.85-3.7-2.75-5.35-6.8-2.05-5-1.45-8.8 0.65-3.95 3.9-5.3"/>
   <path d="m165.95 90.7q2.65-3.15 4.35-2.6 1.75 0.55 2.05 4.25 0.35 4-1.35 9.35-1.65 5.1-4 7.95-2.35 2.8-4.35 2.15-1.9-0.6-2.15-4.5-0.2-3.95 1.35-8.85 1.45-4.55 4.1-7.75"/>
  </g>
  <g fill="#dbdcdc">
   <path d="m96.3 49.4q-4.75-7.25-15-12.1 1.05-3.5 3.05-5.05 2.25-1.7 5.15-0.65 4.75 8.3 6.8 17.8"/>
   <path d="m155.2 125.45q-5.95 9.3-21.2 10-15.05 0.65-25.85-7.45 11.3 3.2 23 3.05 14.2-0.2 24.05-5.6"/>
   <path d="m81.1 179.3c5.5 5.4333 12.147 8.6969 19.85 8l10.5-0.95s7.6948-1.0511 11.55-0.85c3.4835 0.18175 10.3 1.85 10.3 1.85 5.2667 1.0333 9.95 1.2833 14.05 0.75-2.2 2.3667-4.7333 3.65-7.6 3.85l-10.55-0.8-11.9-0.85c-14.367 1.8333-24.133 1.5167-29.3-0.95-4.1667-1.9667-6.4667-5.3167-6.9-10.05"/>
   <path d="m84.8 187.2q2.2 2.05 4.75 3.05 2.45 0.9 6.8 1.35-1.15 2.6-3.15 5-4.8-2.6-10.05-1.5 0.05-2.2 0.7-4.8 0.5-2.05 0.95-3.1"/>
  </g>
  <path d="m89.5 31.6q-2.9-1.05-5.15 0.65-2 1.55-3.05 5.05-6.7-3.15-15.5-5.2-0.3-4.3 0.05-7.45 0.7-6.65 3.75-7.75 4.45-1.55 10.05 2.7 5.3 4.05 9.85 12" fill="#dab300"/>
  <path d="m44.35 145.3-0.8 2.35-0.5 2.2q-6.15-3.85-13.25-10.8-7.95-7.8-11.45-14.25 6.25 6.4 13.5 12.3 8.55 7 12.5 8.2" fill="#38383a"/>
  <path d="m129.85 191 6.95 1 4.95-0.45c-0.96667 2.0667-2.2 3.95-3.7 5.65-1.2-0.36667-2.6333-0.58333-4.3-0.65-2.0388-0.11327-4.6 0-4.6 0-0.0667-1.6667 0.16667-3.5167 0.7-5.55" fill="#dbdcdc"/>
  <path d="m194.2 123.2q-5.35 10.35-15.2 17.85-9.55 7.3-21.25 10.5l0.4-7.65q9.95-3.85 19.85-9.6 9.15-5.35 16.2-11.1" fill="#dab300"/>
  <path d="m73.95 144.55q-6.75-5.55-10.9-12.55 6.7 4.85 14.55 8.3 8.25 3.6 15 4.45l-3.9 8.3q-7.9-2.85-14.75-8.5" fill="#dab300"/>
  <path d="m21.8 113.6q10.1 11.95 12.9 14.8-5.4-2.5-16.15-14.5-12.45-13.85-15.1-23.85 5.75 8.55 18.35 23.55" fill="#38383a"/>
  <path d="m1.2 62.05q3.55 5 19.2 24.5 14 17.45 15.45 20.1l-2.1-1.75-2.15-2-18.2-21q-12.05-14.85-12.2-19.85" fill="#38383a"/>
  <g fill="#0f141b">
   <path transform="matrix(.42741 0 0 -.42753 -23.781 289.56)" d="m468.25 467.45c-2.909 57.058-56.692 100.24-118.25 97.104-59.137-3.012-111.58-51.822-108.67-109.03 1.138-22.323 10.693-41.554 27.278-56.19 5.064-1.92 10.129-4.718 15.197-5.872-22.341 15.13-36.37 37.285-37.696 63.307-2.621 51.391 43.846 101.06 104.28 104.14 59.364 3.021 109.94-39.158 112.73-94.025 2.931-57.517-48.36-94.398-101.03-94.861-22.847-0.202-43.697 4.132-61.233 11.994 1.46-2.127 3.174-3.81 3.868-5.694 16.865-6.212 36.222-9.542 57.086-9.355 57.953 0.513 109.48 38.373 106.43 98.48" clip-path="url(#clipPath2389)"/>
   <path transform="matrix(.42741 0 0 -.42753 -23.781 289.56)" d="m447.32 411.29c-18.294-16.197-49.484-27.201-77.228-27.535-66.826-0.808-106.89 27.196-109.33 76.834-1.351 27.5 13.889 68.059 58.286 87.245 5.98-7.044 23.464-26.528 31.524-32.687 1.402-1.07 2.45-0.844 3.079 0.903 0 0 10.313 29.099 13.419 36.613 9.613-7.655 25.239-26.203 31.601-35.35 1.349-1.94 2.536-0.513 3.325 1.456 3.51 8.761 5.359 21.459 4.428 32.33l-3.057 1.09c0.758-5.288-1.276-20.783-3.816-29.368-8.237 12.045-21.089 26.229-32.549 34.295-1.631 1.15-2.402 0.481-2.971-0.837-3.337-7.72-12.587-31.531-13.473-34.001-8.653 7.338-24.439 22.776-29.46 28.95-0.557 0.683-1.496 0.92-2.309 0.581-39.395-16.412-64.117-53.162-62.187-92.484 2.457-49.923 42.443-79.7 113.74-78.837 28.659 0.345 58.041 11.279 77.017 28.082-0.233-0.209-0.037 2.727-0.043 2.72" clip-path="url(#clipPath2404)"/>
   <path transform="matrix(.42741 0 0 -.42753 -23.781 289.56)" d="m209.35 413.14c-1.099-0.017-1.041-3.333 0.055-3.317 34.28 0.492 75.993-18.39 93.388-31.529 10.113-7.635 9.398-3.041-0.714 4.595-25.997 19.633-60.061 30.716-92.729 30.251" clip-path="url(#clipPath2419)"/>
   <path transform="matrix(.42741 0 0 -.42753 -23.781 289.56)" d="m207.92 423.75c-3.042 1.368-9.421-5.141-12.112-9.499-4.053 2.161-14.779 6.766-17.129 4.624-1.711-1.56 0.644-13.742 1.22-16.819-3.88-1.538-12.188-4.939-12.347-7.687-0.206-3.536 10.675-9.869 16.525-10.523 19.142-23.696 63.661-49.456 96.172-46.554 6.771 0.607 10.113 3.415 3.331 2.948-29.347-2.019-77.522 23.524-97.84 46.018-0.377 0.419-9.887 2.402-13.785 7.845 2.045 1.963 11.201 5.758 11.402 6.254 0.421 1.036-1.852 13.546-1.595 15.041 3.643-0.032 14.807-5.094 15.338-4.903 1.498 0.54 5.362 7.796 9.324 8.956 0.494-1.993 0.577-13.143 0.577-13.145 0-4.097 1.855-2.746 3.046 1.124 1.195 3.881-0.175 15.443-2.127 16.32" clip-path="url(#clipPath2434)"/>
   <path transform="matrix(.42741 0 0 -.42753 -23.781 289.56)" d="m500.8 434.3c-4.188-0.699-36.418-6.27-45.939-11.41-0.53-0.286-0.707-4.672 0.283-4.199 6.104 2.921 40.075 11.183 45.303 12.056 1.085 0.181 1.437 3.732 0.353 3.553" clip-path="url(#clipPath2449)"/>
   <path transform="matrix(.42741 0 0 -.42753 -23.781 289.56)" d="m506.33 445c-2.324 0.056-5.84-6.895-6.132-10.705-0.394-5.106 2.075-8.241 2.458-3.129 0.231 2.991 2.738 7.818 4.067 8.99 1.853-1.338 7.484-9.56 8.042-9.62 1.508-0.157 9.74 4.341 10.873 4.578 0.724-0.934-8e-3 -13.801 0.431-14.677 0.439-0.878 9.65-3.071 11.107-4.898-0.872-3.583-13.361-11.038-13.51-11.201-17.638-18.837-54.996-45.23-98.7-61.722-0.796-0.303-0.285-4.048 0.788-3.813 31.385 6.865 81.401 41.042 100.42 63.551 1.828 1.115 16.572 9.072 16.13 13.403-0.261 2.546-5.065 4.257-12.915 6.921 0.169 1.583 1.247 14.941-0.391 16.18-1.638 1.242-7.35-1.924-12.675-4.863-2.123 3.297-7.662 10.946-9.988 11.005" clip-path="url(#clipPath2464)"/>
   <path transform="matrix(.42741 0 0 -.42753 -23.781 289.56)" d="m423.68 344.1c-0.327-44.641-11.206-111.73-41.212-113.87-8.533-0.609-13.502 0.392-19.253 1.538-17.222 3.444-33.495 2.743-49.388 0.725-35.423-4.501-58.73 1.191-64.611 17.7-8.914 25.034 20.831 79.213 24.936 87.835 0.462 0.996-3.196 2.558-3.659 1.563-6.432-14.189-36.209-63.036-26.317-90.803 7.254-20.372 22.074-26.352 70.152-20.244 14.262 1.81 30.733 1.823 47.11-2.272 5.971-1.491 13.446-2.4 22.515-1.755 34.859 2.491 43.762 74.565 43.278 116.38-0.091 7.896-3.485 11.099-3.551 3.203" clip-path="url(#clipPath2479)"/>
   <path transform="matrix(.42741 0 0 -.42753 -23.781 289.56)" d="m251.76 240.71c-6.127-13.275-5.042-31.104 3.108-34.465 6.565-2.708 21.496 5.158 28.524 22.021 0.423 1.014-4.144 2.589-4.569 1.577-5.407-12.984-16.997-22.934-22.375-20.611-6.459 2.802-4.942 19.95-0.372 29.846 0.458 0.999-3.857 2.629-4.316 1.632" clip-path="url(#clipPath2494)"/>
   <path transform="matrix(.42741 0 0 -.42753 -23.781 289.56)" d="m355.88 231.24c-2.192-10.38-0.857-23.077 6.004-24.842 7.702-1.983 20.496 6.393 27.919 21.626 0.479 0.986-4.055 2.635-4.539 1.646-7.511-15.413-16.594-21.168-22.267-20.034-3.638 0.726-4.177 10.887-1.528 20.584 0.291 1.061-5.361 2.096-5.589 1.02" clip-path="url(#clipPath2509)"/>
   <path transform="matrix(.42741 0 0 -.42753 -23.781 289.56)" d="m522.05 402.29c-1.818-71.86-40.46-146.13-82.604-169.64-16.786-9.361-33.539-9.509-48.224-0.434-0.936 0.579-3.013-2.851-2.075-3.43 15.769-9.744 34.114-9.314 52.655-0.671 44.625 20.803 83.67 105.64 84.157 175.64 8e-3 1.11-3.89-0.729-3.909-1.462" clip-path="url(#clipPath2524)"/>
   <path transform="matrix(.42741 0 0 -.42753 -23.781 289.56)" d="m176.73 388.26c-30.544-59.429-34.629-115.89-6.744-145 18.914-19.749 48.577-26.162 80.824-11.768 0.464 0.204 2.238 6.801 1.241 6.343-31.104-14.322-59.23-11.794-77.167 6.935-26.693 27.873-24.714 83.295 5.04 141.19 0.503 0.978-2.693 3.278-3.194 2.3" clip-path="url(#clipPath2539)"/>
   <path transform="matrix(.42741 0 0 -.42753 -23.781 289.56)" d="m56.485 535.28c-5.848-7.311 21.733-42.613 64.703-92.328 19.836-17.035 20.807-17.108 15.381-10.526-13.744 16.667-83.378 94.237-76.467 99.42 8.928 6.696 115.94-59.65 164.49-120.42 0.727-0.909 5.312-1.198 4.721-0.245-35.114 56.721-164.26 134.8-172.82 124.09" clip-path="url(#clipPath2569)"/>
   <path transform="matrix(.42741 0 0 -.42753 -23.781 289.56)" d="m60.541 474.54c-6.981-6.981 24.272-59.41 69.011-95.33 6.481-5.204 11.496-5.369 5.163 0.012-35.924 30.495-76.004 86.873-70.08 92.1 4.97 4.386 63.454-36.845 71.608-43.685 5.94-4.973 5.725-0.755 0.034 4.5-17.529 16.221-68.175 49.964-75.736 42.403" clip-path="url(#clipPath2554)"/>
   <path transform="matrix(.42741 0 0 -.42753 -23.781 289.56)" d="m94.169 393.83c-4.039-7.811 33.93-54.701 60.924-71.351 0.934-0.577 3.925 3.954 2.991 4.531-30.116 18.577-61.77 59.312-59.986 64.274 0.688 0.477 9.584-0.539 33.501-13.245 2.223-1.185-1.282 4.958-3.51 6.142-21.49 11.413-32.54 12.317-33.92 9.649" clip-path="url(#clipPath2584)"/>
   <path transform="matrix(.42741 0 0 -.42753 -23.781 289.56)" d="m249.1 659.49c-20.853 3.598-40.737-10.923-42.052-42.165-1.312-31.242 7.345-90.806 47.364-113.26 0.954-0.536 2.827 3.085 1.86 3.605-30.265 16.271-47.38 76.63-44.705 110.16 1.713 21.419 12.068 24.374 27.606 13.68 19.94-13.716 42.001-52.887 43.293-93.586 0.033-1.098 3.447 2.434 3.41 3.531-1.331 41.959-23.692 78.725-44.448 93.002-8.418 5.793-19.099 8.873-26.417 3.132 6.458 14.113 19.589 20.689 33.414 18.307 30.193-5.207 71.137-51.776 74.105-96.691 0.073-1.097 3.504-1.308 3.493-0.209-0.491 46.59-44.7 94.932-76.923 100.49" clip-path="url(#clipPath2599)"/>
   <path transform="matrix(.42741 0 0 -.42753 -23.781 289.56)" d="m251.51 603.18c-17.357-14.083-13.31-65.024 19.349-76.04 1.04-0.351 3.857 2.357 2.789 2.626-28.949 7.311-35.211 58.02-19.632 70.655 3.106 2.52 6.833 3.785 11.078 2.062 1.019-0.415 2.514 2.081 1.498 2.492-5.61 2.28-10.824 1.657-15.082-1.795" clip-path="url(#clipPath2614)"/>
   <path transform="matrix(.42741 0 0 -.42753 -23.781 289.56)" d="m367.87 658.76c-19.704-22.752-35.54-62.448-26.317-95.036 0.298-1.058 5.315-1.829 5.016-0.773-8.523 30.113 6.337 71.145 25.628 93.418 23.188 26.773 42.176 21.114 50.012-2.89 10.399-31.854 4.935-90.464-9.745-104.52-0.795-0.76 3.241-3.531 3.965-2.709 16.676 18.869 20.299 75.032 9.81 107.17-9.589 29.372-35.022 32.297-58.369 5.342" clip-path="url(#clipPath2629)"/>
   <path transform="matrix(.42741 0 0 -.42753 -23.781 289.56)" d="m407.27 461.26c-8.167-12.251-50.204-15.332-64.736-4.43-3.683 2.76-3.588-0.391 0.09-3.156 15.428-11.576 56.257-9.205 65.697 4.952 2.251 3.381 1.199 6.011-1.051 2.634" clip-path="url(#clipPath2644)"/>
   <path transform="matrix(.42741 0 0 -.42753 -23.781 289.56)" d="m275.29 429.28c-5.841 14.223-4.859 27.686 4.578 31.687 8.49 3.599 21.555-6.851 26.776-20.227 5.862-15.011 2.948-27.903-5.235-30.725-7.751-2.669-21.178 7.236-26.119 19.265m3.019 34.254c-9.194-3.912-13.434-18.482-6.464-35.453 4.966-12.092 19.354-24.792 31.173-20.729 9.003 3.107 14.174 16.552 7.155 34.534-6.429 16.462-22.505 25.631-31.864 21.648" clip-path="url(#clipPath2659)"/>
   <path transform="matrix(.42741 0 0 -.42753 -23.781 289.56)" d="m436.71 416.89c-4.142 1.331-6.813 10.644-0.946 30.248 4.481 14.978 14.105 23.868 18.115 22.577 4.098-1.314 5.583-13.482 0.307-29.87-5.352-16.623-12.997-24.393-17.476-22.955m-3.996 31.696c-5.666-16.572-3.496-31.662 3.032-34.164 5.839-2.237 15.798 5.729 21.768 24.26 5.702 17.697 3.555 31.697-2.671 33.701-3.565 1.14-14.614-1.682-22.129-23.797" clip-path="url(#clipPath2674)"/>
   <path transform="matrix(.42741 0 0 -.42753 -23.781 289.56)" d="m300.41 483.35c0-13.834 6.844-24.44 17.938-24.44 9.985 0 17.313 9.817 18.234 24.429 0.815 12.899-4.928 26.204-16.159 26.985-10.596 0.739-20.013-12.52-20.013-26.974" clip-path="url(#clipPath2689)"/>
   <path transform="matrix(.42741 0 0 -.42753 -23.781 289.56)" d="m419.07 513.07c-8.128-1.439-12.815-13.476-10.444-26.831 2.366-13.356 10.898-23.051 19.03-21.613 8.541 1.516 13.836 13.638 11.561 26.472-2.3 13.003-12.293 23.364-20.147 21.972" clip-path="url(#clipPath2704)"/>
  </g>
  <g>
   <path transform="matrix(.42741 0 0 -.42753 -23.781 289.56)" d="m311.3 498.64c0-4.988 4.058-9.046 9.044-9.046s9.047 4.058 9.047 9.046-4.061 9.045-9.047 9.045-9.044-4.057-9.044-9.045" clip-path="url(#clipPath2719)" fill="#fff"/>
   <path transform="matrix(.42741 0 0 -.42753 -23.781 289.56)" d="m413.44 500.45c0.647-4.944 4.54-8.505 8.672-7.94 4.138 0.566 6.97 5.048 6.323 9.992-0.655 4.944-4.548 8.505-8.682 7.94-4.132-0.567-6.963-5.047-6.313-9.992" clip-path="url(#clipPath2734)" fill="#fff"/>
   <path transform="matrix(.42741 0 0 -.42753 -23.781 289.56)" d="m379.43 479.28c2.06 0.294 3.343-0.476 3.555-1.519 0.209-1.023-0.862-2.144-2.596-2.463-1.956-0.359-3.57 0.191-3.765 1.244-0.254 1.373 0.629 2.426 2.806 2.738" clip-path="url(#clipPath2044)" fill="#0f141b"/>
  </g>
 </g>
</svg>
