<?xml version="1.0" encoding="UTF-8"?>
<!DOCTYPE svg PUBLIC "-//W3C//DTD SVG 1.1//EN" "http://www.w3.org/Graphics/SVG/1.1/DTD/svg11.dtd">
<svg xmlns="http://www.w3.org/2000/svg" version="1.1" width="300px" height="300px" style="shape-rendering:geometricPrecision; text-rendering:geometricPrecision; image-rendering:optimizeQuality; fill-rule:evenodd; clip-rule:evenodd" xmlns:xlink="http://www.w3.org/1999/xlink">
<g><path style="opacity:0.886" fill="#161d25" d="M 11.5,160.5 C 11.5,161.167 11.8333,161.5 12.5,161.5C 8.98983,163.357 6.1565,166.024 4,169.5C 2.43146,174.625 3.93146,178.459 8.5,181C 15.8333,181.333 23.1667,181.667 30.5,182C 36.7904,184.812 42.7904,188.145 48.5,192C 60.4128,194.696 70.4128,191.362 78.5,182C 73.1706,182.025 68.1706,180.858 63.5,178.5C 63.5,177.833 63.8333,177.5 64.5,177.5C 70.8341,180.138 77.1675,179.972 83.5,177C 89.6546,169.689 95.3212,162.023 100.5,154C 105.154,151.73 109.82,149.564 114.5,147.5C 118.807,145.347 123.14,143.18 127.5,141C 129.439,140.092 130.439,138.592 130.5,136.5C 126.746,137.686 122.913,138.686 119,139.5C 117.604,138.606 116.104,137.939 114.5,137.5C 113.584,137.543 112.917,137.876 112.5,138.5C 108.869,139.412 105.203,139.579 101.5,139C 94.2471,135.805 86.9138,132.805 79.5,130C 75.5,129.333 71.5,129.333 67.5,130C 61.6347,132.542 56.3014,135.875 51.5,140C 44.0331,141.044 36.6998,142.71 29.5,145C 25.1296,146.549 21.4629,149.049 18.5,152.5C 18.5,151.833 18.5,151.167 18.5,150.5C 20.5459,147.634 23.2126,145.467 26.5,144C 33.6406,141.503 40.9739,139.837 48.5,139C 54.2566,134.905 60.2566,131.238 66.5,128C 72.2367,127.211 77.9034,127.544 83.5,129C 89.5,131.667 95.5,134.333 101.5,137C 106.196,137.878 110.529,137.045 114.5,134.5C 113.902,133.205 113.402,131.872 113,130.5C 110.26,129.718 107.426,129.218 104.5,129C 98.9558,119.204 95.9558,108.704 95.5,97.5C 99.254,97.4964 102.921,97.663 106.5,98C 97.5818,80.9224 99.0818,64.7557 111,49.5C 120.996,39.0059 133.163,32.6725 147.5,30.5C 149.285,22.4223 148.619,14.5889 145.5,7C 148.096,6.54205 150.263,7.37538 152,9.5C 152.374,8.58377 152.874,7.75044 153.5,7C 155.355,6.57786 157.189,6.07786 159,5.5C 160.565,6.95247 161.898,8.61913 163,10.5C 165.327,7.42137 167.827,7.08804 170.5,9.5C 172.412,7.84387 174.412,7.51054 176.5,8.5C 171.972,15.4621 169.972,23.1288 170.5,31.5C 189.504,34.7508 202.337,45.4175 209,63.5C 212.971,78.3136 210.471,91.8136 201.5,104C 204.882,104.176 208.215,104.676 211.5,105.5C 212.101,116.919 208.768,127.086 201.5,136C 205.5,136.667 209.5,136.667 213.5,136C 221.768,133.134 230.268,131.3 239,130.5C 250.897,130.864 260.064,136.031 266.5,146C 274.34,148.254 281.673,151.587 288.5,156C 291.936,159.757 293.436,164.257 293,169.5C 294.667,170.5 296,171.833 297,173.5C 299.29,180.64 297.123,185.807 290.5,189C 285.5,189.667 280.5,189.667 275.5,189C 267.196,187.616 258.863,186.449 250.5,185.5C 243.115,187.352 235.781,189.518 228.5,192C 219.275,193.802 212.442,190.636 208,182.5C 206.945,175.446 205.611,168.446 204,161.5C 203.261,157.938 201.761,154.772 199.5,152C 191.802,146.901 183.635,142.734 175,139.5C 167.573,146.319 165.573,154.652 169,164.5C 171.837,173.325 176.337,181.159 182.5,188C 195.198,195.347 207.198,203.681 218.5,213C 242.709,235.518 250.042,262.685 240.5,294.5C 236.429,287.592 231.096,281.759 224.5,277C 208.344,268.758 192.677,259.758 177.5,250C 168.73,241.969 162.897,232.135 160,220.5C 155.359,251.14 137.859,269.307 107.5,275C 94.8333,275.333 82.1667,275.667 69.5,276C 65.23,276.257 61.23,277.424 57.5,279.5C 56.3691,277.926 56.2025,276.259 57,274.5C 63.9205,249.493 78.0872,229.66 99.5,215C 89.8733,210.862 80.8733,205.695 72.5,199.5C 85.476,188.766 100.476,183.932 117.5,185C 123.589,183.956 129.256,181.79 134.5,178.5C 140.962,166.317 144.129,153.317 144,139.5C 142.285,141.759 140.452,143.926 138.5,146C 136.741,146.798 135.074,146.631 133.5,145.5C 132.5,144.167 131.5,142.833 130.5,141.5C 121.606,147.114 112.273,151.947 102.5,156C 98.6087,160.893 95.1087,166.06 92,171.5C 87.4016,176.222 82.9016,181.055 78.5,186C 69.4027,194.808 58.7361,197.475 46.5,194C 41.328,190.915 36.328,187.581 31.5,184C 23.1667,183.667 14.8333,183.333 6.5,183C 1.72548,179.345 0.225485,174.512 2,168.5C 4.7217,165.276 7.88836,162.609 11.5,160.5 Z"/></g>
<g><path style="opacity:1" fill="#cee8f6" d="M 158.5,7.5 C 160.726,10.8175 162.393,14.4842 163.5,18.5C 165.901,14.689 168.901,12.3557 172.5,11.5C 167.591,20.5772 166.757,29.9105 170,39.5C 170.18,37.5116 170.014,35.5116 169.5,33.5C 178.873,35.1195 187.04,39.1195 194,45.5C 194.856,49.6237 195.356,53.7904 195.5,58C 195.668,61.3806 195.001,64.5473 193.5,67.5C 184.432,62.6334 175.099,58.3001 165.5,54.5C 154.726,58.3122 144.059,62.3122 133.5,66.5C 131.523,58.6395 130.19,50.6395 129.5,42.5C 127.143,42.6633 124.81,42.4966 122.5,42C 129.488,36.9474 137.154,34.4474 145.5,34.5C 144.371,36.5294 144.871,36.8627 147,35.5C 150.338,27.4197 151.338,19.0864 150,10.5C 151.867,12.8082 152.867,15.4749 153,18.5C 155.374,15.0855 157.207,11.4189 158.5,7.5 Z"/></g>
<g><path style="opacity:1" fill="#9cafbc" d="M 154.5,8.5 C 155.709,10.4346 155.542,12.4346 154,14.5C 152.41,12.4955 152.576,10.4955 154.5,8.5 Z"/></g>
<g><path style="opacity:1" fill="#afc4d1" d="M 166.5,9.5 C 167.573,10.2506 167.74,11.2506 167,12.5C 166,13.5 165,14.5 164,15.5C 163.833,14.8333 163.667,14.1667 163.5,13.5C 164.286,11.9589 165.286,10.6256 166.5,9.5 Z"/></g>
<g><path style="opacity:1" fill="#7dcae9" d="M 196.5,104.5 C 172.918,114.962 148.585,117.296 123.5,111.5C 102.977,98.0731 97.8102,80.0731 108,57.5C 110.412,53.0841 113.578,49.2508 117.5,46C 120.923,44.0961 124.59,43.2628 128.5,43.5C 129.185,52.2584 130.518,60.9251 132.5,69.5C 143.133,64.3547 154.133,60.0214 165.5,56.5C 174.989,59.5776 183.989,63.7443 192.5,69C 193.793,69.49 195.127,69.6567 196.5,69.5C 196.334,62.4921 196.5,55.4921 197,48.5C 208.424,60.9482 211.424,75.2815 206,91.5C 203.789,96.6111 200.623,100.944 196.5,104.5 Z"/></g>
<g><path style="opacity:1" fill="#1c2f3d" d="M 118.5,75.5 C 115.708,75.4521 113.875,76.7854 113,79.5C 112.337,84.5374 112.504,89.5374 113.5,94.5C 112.034,93.653 111.2,92.3197 111,90.5C 110.148,86.0037 110.648,81.6704 112.5,77.5C 109.625,72.5451 109.958,71.8784 113.5,75.5C 115.316,74.2651 116.983,74.2651 118.5,75.5 Z"/></g>
<g><path style="opacity:1" fill="#1c303f" d="M 118.5,75.5 C 120.41,76.9746 121.576,78.9746 122,81.5C 123.29,87.2723 122.123,92.4389 118.5,97C 115.738,98.0769 114.072,97.2436 113.5,94.5C 116.474,97.2855 118.641,96.6188 120,92.5C 120.948,86.6547 120.448,80.988 118.5,75.5 Z"/></g>
<g><path style="opacity:1" fill="#0b70b1" d="M 143.5,101.5 C 142.401,97.0695 141.401,92.7362 140.5,88.5C 140.427,86.9731 141.094,85.9731 142.5,85.5C 150.202,80.471 153.869,82.8044 153.5,92.5C 153.886,96.4202 152.886,99.9202 150.5,103C 147.829,103.833 145.496,103.333 143.5,101.5 Z"/></g>
<g><path style="opacity:1" fill="#1c2f3e" d="M 143.5,101.5 C 145.496,103.333 147.829,103.833 150.5,103C 152.886,99.9202 153.886,96.4202 153.5,92.5C 153.869,82.8044 150.202,80.471 142.5,85.5C 143.48,81.1733 146.147,79.6733 150.5,81C 152.293,82.7799 153.96,84.6132 155.5,86.5C 157.169,85.1103 158.836,84.7769 160.5,85.5C 159.264,86.3567 157.931,87.0234 156.5,87.5C 155.676,90.7848 155.176,94.1182 155,97.5C 154.047,103.787 150.547,105.954 144.5,104C 143.748,103.329 143.414,102.496 143.5,101.5 Z"/></g>
<g><path style="opacity:1" fill="#b81238" d="M 145.5,87.5 C 148.95,87.5726 150.283,89.4059 149.5,93C 150.283,96.5941 148.95,98.4274 145.5,98.5C 144.285,94.6992 144.285,91.0326 145.5,87.5 Z"/></g>
<g><path style="opacity:1" fill="#0176bb" d="M 118.5,75.5 C 120.448,80.988 120.948,86.6547 120,92.5C 118.641,96.6188 116.474,97.2855 113.5,94.5C 112.504,89.5374 112.337,84.5374 113,79.5C 113.875,76.7854 115.708,75.4521 118.5,75.5 Z"/></g>
<g><path style="opacity:1" fill="#18202f" d="M 117.5,80.5 C 113.729,83.9053 113.562,87.572 117,91.5C 118.289,88.6492 118.789,85.6492 118.5,82.5C 119.634,84.9664 119.801,87.633 119,90.5C 117.519,93.0643 116.019,93.0643 114.5,90.5C 113.004,86.8096 113.337,83.3096 115.5,80C 116.437,79.3083 117.103,79.475 117.5,80.5 Z"/></g>
<g><path style="opacity:1" fill="#b74153" d="M 117.5,80.5 C 118.338,80.8417 118.672,81.5084 118.5,82.5C 118.789,85.6492 118.289,88.6492 117,91.5C 113.562,87.572 113.729,83.9053 117.5,80.5 Z"/></g>
<g><path style="opacity:1" fill="#f8d8e0" d="M 145.5,90.5 C 146.5,90.5 147.5,90.5 148.5,90.5C 147.5,95.8333 146.5,95.8333 145.5,90.5 Z"/></g>
<g><path style="opacity:1" fill="#392132" d="M 145.5,87.5 C 146.601,86.4017 147.934,86.235 149.5,87C 152.167,91 152.167,95 149.5,99C 147.934,99.765 146.601,99.5983 145.5,98.5C 148.95,98.4274 150.283,96.5941 149.5,93C 150.283,89.4059 148.95,87.5726 145.5,87.5 Z"/></g>
<g><path style="opacity:1" fill="#162837" d="M 140.5,88.5 C 141.401,92.7362 142.401,97.0695 143.5,101.5C 142.21,100.942 141.377,99.9423 141,98.5C 140.502,95.1832 140.335,91.8499 140.5,88.5 Z"/></g>
<g><path style="opacity:1" fill="#c4dcea" d="M 97.5,99.5 C 101.163,99.9518 104.83,100.452 108.5,101C 110.461,103.963 112.794,106.629 115.5,109C 111.911,109.207 108.411,109.707 105,110.5C 104.667,114.833 104.333,119.167 104,123.5C 100.631,115.819 98.4642,107.819 97.5,99.5 Z"/></g>
<g><path style="opacity:1" fill="#6cafc9" d="M 196.5,104.5 C 188.395,113.054 178.395,118.221 166.5,120C 154.925,121.339 143.592,120.339 132.5,117C 129.328,115.303 126.328,113.47 123.5,111.5C 148.585,117.296 172.918,114.962 196.5,104.5 Z"/></g>
<g><path style="opacity:1" fill="#1d3140" d="M 124.5,103.5 C 124.414,102.504 124.748,101.671 125.5,101C 130.847,100.484 134.181,102.984 135.5,108.5C 135.167,108.833 134.833,109.167 134.5,109.5C 131.301,106.943 127.634,105.943 123.5,106.5C 123.263,105.209 123.596,104.209 124.5,103.5 Z"/></g>
<g><path style="opacity:1" fill="#007bc2" d="M 124.5,103.5 C 127.562,101.879 130.228,102.379 132.5,105C 129.636,105.193 126.97,104.693 124.5,103.5 Z"/></g>
<g><path style="opacity:1" fill="#c1d9e6" d="M 198.5,105.5 C 202.167,105.5 205.833,105.5 209.5,105.5C 209.699,113.976 207.866,121.976 204,129.5C 203.895,126.527 204.062,123.527 204.5,120.5C 204.522,118.035 204.022,115.702 203,113.5C 199.805,112.851 196.639,112.018 193.5,111C 195.373,109.296 197.04,107.463 198.5,105.5 Z"/></g>
<g><path style="opacity:1" fill="#c9e2f0" d="M 108.5,111.5 C 111.64,110.359 114.973,110.192 118.5,111C 121.997,113.583 125.664,115.916 129.5,118C 126.542,118.229 124.042,119.396 122,121.5C 120.838,126.792 119.838,132.125 119,137.5C 115.385,128.807 111.885,120.141 108.5,111.5 Z"/></g>
<g><path style="opacity:1" fill="#a4b8c5" d="M 106.5,111.5 C 107.117,111.611 107.617,111.944 108,112.5C 108.937,117.354 110.437,122.02 112.5,126.5C 110.305,127.769 108.139,127.769 106,126.5C 105.274,121.448 105.441,116.448 106.5,111.5 Z"/></g>
<g><path style="opacity:1" fill="#cce6f4" d="M 190.5,112.5 C 193.455,113.159 196.455,113.492 199.5,113.5C 197.496,121.181 195.329,128.847 193,136.5C 191,141.833 189,141.833 187,136.5C 182.751,116.604 178.084,116.604 173,136.5C 171.789,139.759 169.956,142.592 167.5,145C 164.692,145.92 162.525,145.087 161,142.5C 158.333,137.167 155.667,131.833 153,126.5C 151,123.833 149,123.833 147,126.5C 144.333,131.833 141.667,137.167 139,142.5C 136.101,145.267 134.101,144.6 133,140.5C 131.48,133.602 128.98,127.102 125.5,121C 127.778,120.014 130.111,119.18 132.5,118.5C 135.656,120.163 138.989,121.33 142.5,122C 156.984,123.909 170.984,122.242 184.5,117C 186.747,115.723 188.747,114.223 190.5,112.5 Z"/></g>
<g><path style="opacity:1" fill="#afc5d1" d="M 201.5,114.5 C 202.617,120.678 202.617,127.011 201.5,133.5C 199.833,133.5 198.167,133.5 196.5,133.5C 197.389,126.941 199.056,120.608 201.5,114.5 Z"/></g>
<g><path style="opacity:1" fill="#acc1ce" d="M 123.5,121.5 C 124.79,122.058 125.623,123.058 126,124.5C 127.068,127.871 128.235,131.204 129.5,134.5C 126.956,135.426 124.456,136.426 122,137.5C 121.84,132.114 122.34,126.78 123.5,121.5 Z"/></g>
<g><path style="opacity:1" fill="#aec3d0" d="M 179.5,124.5 C 181.335,125.122 182.502,126.456 183,128.5C 183.67,132.011 184.837,135.344 186.5,138.5C 186.167,138.833 185.833,139.167 185.5,139.5C 181.926,137.935 178.593,136.102 175.5,134C 176.743,130.764 178.076,127.597 179.5,124.5 Z"/></g>
<g><path style="opacity:1" fill="#a2b5c2" d="M 148.5,126.5 C 149.675,126.281 150.675,126.614 151.5,127.5C 152.747,129.497 153.581,131.497 154,133.5C 150.4,130.646 147.4,131.313 145,135.5C 146.093,132.619 147.26,129.619 148.5,126.5 Z"/></g>
<g><path style="opacity:1" fill="#7dcae9" d="M 112.5,138.5 C 113.496,138.414 114.329,138.748 115,139.5C 115.43,142.192 115.263,144.859 114.5,147.5C 109.82,149.564 105.154,151.73 100.5,154C 95.3212,162.023 89.6546,169.689 83.5,177C 77.1675,179.972 70.8341,180.138 64.5,177.5C 54.4799,167.064 42.1465,162.898 27.5,165C 20.0444,164.044 17.0444,159.877 18.5,152.5C 21.4629,149.049 25.1296,146.549 29.5,145C 36.6998,142.71 44.0331,141.044 51.5,140C 56.3014,135.875 61.6347,132.542 67.5,130C 71.5,129.333 75.5,129.333 79.5,130C 86.9138,132.805 94.2471,135.805 101.5,139C 105.203,139.579 108.869,139.412 112.5,138.5 Z"/></g>
<g><path style="opacity:1" fill="#6bafc8" d="M 164.5,154.5 C 158.045,156.087 151.711,155.754 145.5,153.5C 146.379,147.183 147.212,140.85 148,134.5C 150.267,133.065 152.267,133.398 154,135.5C 156.937,139.721 160.104,143.721 163.5,147.5C 164.474,149.743 164.808,152.076 164.5,154.5 Z"/></g>
<g><path style="opacity:1" fill="#7dc9e8" d="M 261.5,169.5 C 256.573,166.891 251.239,166.058 245.5,167C 237.917,172.183 229.584,174.183 220.5,173C 214.006,170.339 209.339,165.839 206.5,159.5C 205.739,156.146 204.072,153.313 201.5,151C 197.334,148.083 193.001,145.416 188.5,143C 191.264,142.737 192.931,141.237 193.5,138.5C 200.738,138.506 208.072,138.339 215.5,138C 225.851,134.078 236.518,132.745 247.5,134C 254.99,136.746 260.99,141.412 265.5,148C 271.949,150.391 278.282,153.058 284.5,156C 291.013,159.567 292.013,164.234 287.5,170C 278.796,171.974 270.129,171.807 261.5,169.5 Z"/></g>
<g><path style="opacity:1" fill="#68aac3" d="M 114.5,147.5 C 115.263,144.859 115.43,142.192 115,139.5C 114.329,138.748 113.496,138.414 112.5,138.5C 112.917,137.876 113.584,137.543 114.5,137.5C 116.104,137.939 117.604,138.606 119,139.5C 122.913,138.686 126.746,137.686 130.5,136.5C 130.439,138.592 129.439,140.092 127.5,141C 123.14,143.18 118.807,145.347 114.5,147.5 Z"/></g>
<g><path style="opacity:0.945" fill="#222d36" d="M 18.5,150.5 C 18.5,151.167 18.5,151.833 18.5,152.5C 17.0444,159.877 20.0444,164.044 27.5,165C 42.1465,162.898 54.4799,167.064 64.5,177.5C 63.8333,177.5 63.5,177.833 63.5,178.5C 58.9329,174.441 53.9329,170.941 48.5,168C 39.8025,167.702 31.1359,167.035 22.5,166C 19.6894,164.356 17.356,162.19 15.5,159.5C 14.4822,160.193 13.4822,160.859 12.5,161.5C 11.8333,161.5 11.5,161.167 11.5,160.5C 14.3499,157.445 16.6832,154.111 18.5,150.5 Z"/></g>
<g><path style="opacity:1" fill="#7dcae9" d="M 145.5,153.5 C 151.711,155.754 158.045,156.087 164.5,154.5C 166.941,170.394 174.274,183.394 186.5,193.5C 189.276,205.245 193.109,216.578 198,227.5C 209.076,237.935 220.91,247.268 233.5,255.5C 234.568,256.434 235.901,256.768 237.5,256.5C 237.335,253.15 237.502,249.817 238,246.5C 243.188,260.927 243.855,275.593 240,290.5C 235.5,283.333 229.667,277.5 222.5,273C 208.341,265.757 194.674,257.757 181.5,249C 171.222,239.945 164.389,228.778 161,215.5C 160.573,207.752 159.573,200.085 158,192.5C 162.038,219.559 154.205,242.392 134.5,261C 126.427,266.026 117.761,269.692 108.5,272C 94.8429,272.861 81.1763,273.527 67.5,274C 64.4909,275.028 61.4909,275.695 58.5,276C 62.3499,263.466 68.1833,251.966 76,241.5C 76.6543,240.304 77.1543,240.304 77.5,241.5C 74.8277,246.183 73.1611,251.183 72.5,256.5C 78.9145,255.965 85.2478,254.965 91.5,253.5C 98.5834,251.639 105.583,249.472 112.5,247C 115.562,245.939 118.062,244.106 120,241.5C 127.146,227.894 131.98,213.56 134.5,198.5C 130.919,198.138 127.919,199.138 125.5,201.5C 123.09,202.063 120.757,202.563 118.5,203C 133.365,189.774 142.365,173.274 145.5,153.5 Z"/></g>
<g><path style="opacity:1" fill="#cee8f6" d="M 63.5,178.5 C 68.1706,180.858 73.1706,182.025 78.5,182C 70.4128,191.362 60.4128,194.696 48.5,192C 42.7904,188.145 36.7904,184.812 30.5,182C 23.1667,181.667 15.8333,181.333 8.5,181C 3.93146,178.459 2.43146,174.625 4,169.5C 6.1565,166.024 8.98983,163.357 12.5,161.5C 13.4822,160.859 14.4822,160.193 15.5,159.5C 17.356,162.19 19.6894,164.356 22.5,166C 31.1359,167.035 39.8025,167.702 48.5,168C 53.9329,170.941 58.9329,174.441 63.5,178.5 Z"/></g>
<g><path style="opacity:1" fill="#cee8f6" d="M 206.5,162.5 C 209.644,167.809 213.977,171.975 219.5,175C 228.873,176.157 237.54,174.157 245.5,169C 250.983,168.15 256.317,168.65 261.5,170.5C 267.17,172.375 273.003,173.375 279,173.5C 283.575,173.774 287.742,172.941 291.5,171C 296.285,174.886 296.785,179.386 293,184.5C 287.879,187.389 282.379,188.223 276.5,187C 265.904,184.961 255.237,183.961 244.5,184C 220.16,197.332 207.493,190.165 206.5,162.5 Z"/></g>
<g><path style="opacity:1" fill="#29343d" d="M 206.5,159.5 C 209.339,165.839 214.006,170.339 220.5,173C 229.584,174.183 237.917,172.183 245.5,167C 251.239,166.058 256.573,166.891 261.5,169.5C 261.5,169.833 261.5,170.167 261.5,170.5C 256.317,168.65 250.983,168.15 245.5,169C 237.54,174.157 228.873,176.157 219.5,175C 213.977,171.975 209.644,167.809 206.5,162.5C 205.167,161.5 205.167,160.5 206.5,159.5 Z"/></g>
<g><path style="opacity:1" fill="#7bc7e5" d="M 132.5,181.5 C 133.525,181.897 133.692,182.563 133,183.5C 124.833,194.333 115.333,203.833 104.5,212C 101.743,212.584 99.0766,212.25 96.5,211C 88.8553,208.181 81.8553,204.348 75.5,199.5C 77.28,197.556 79.4467,196.223 82,195.5C 90.9393,198.358 100.106,199.191 109.5,198C 117.939,193.459 125.606,187.959 132.5,181.5 Z"/></g>
<g><path style="opacity:1" fill="#c7e0ee" d="M 121.5,185.5 C 124.97,185.71 124.97,186.877 121.5,189C 112.113,196.286 101.446,198.619 89.5,196C 87.6161,195.784 85.9494,195.117 84.5,194C 88.9499,191.739 93.6165,190.072 98.5,189C 106.418,188.556 114.085,187.389 121.5,185.5 Z"/></g>
<g><path style="opacity:1" fill="#cfe8f6" d="M 233.5,255.5 C 222.524,246.031 211.357,236.698 200,227.5C 195.031,217.265 191.698,206.599 190,195.5C 208.619,206.452 223.619,221.119 235,239.5C 235.684,244.822 236.184,250.156 236.5,255.5C 235.5,255.5 234.5,255.5 233.5,255.5 Z"/></g>
<g><path style="opacity:1" fill="#d0e9f7" d="M 89.5,252.5 C 84.5484,253.492 79.5484,254.158 74.5,254.5C 76.2893,246.586 79.4559,239.253 84,232.5C 96.6045,220.378 110.438,210.045 125.5,201.5C 127.806,201.007 130.139,200.674 132.5,200.5C 129.901,214.464 125.401,227.797 119,240.5C 117.457,242.378 115.624,243.878 113.5,245C 105.365,247.526 97.3651,250.026 89.5,252.5 Z"/></g>
<g><path style="opacity:1" fill="#28353e" d="M 91.5,253.5 C 91.1583,252.662 90.4916,252.328 89.5,252.5C 97.3651,250.026 105.365,247.526 113.5,245C 115.624,243.878 117.457,242.378 119,240.5C 125.401,227.797 129.901,214.464 132.5,200.5C 130.139,200.674 127.806,201.007 125.5,201.5C 127.919,199.138 130.919,198.138 134.5,198.5C 131.98,213.56 127.146,227.894 120,241.5C 118.062,244.106 115.562,245.939 112.5,247C 105.583,249.472 98.5834,251.639 91.5,253.5 Z"/></g>
</svg>
