<?xml version="1.0" encoding="UTF-8"?>
<!DOCTYPE svg PUBLIC "-//W3C//DTD SVG 1.1//EN" "http://www.w3.org/Graphics/SVG/1.1/DTD/svg11.dtd">
<svg xmlns="http://www.w3.org/2000/svg" version="1.1" width="300px" height="300px" style="shape-rendering:geometricPrecision; text-rendering:geometricPrecision; image-rendering:optimizeQuality; fill-rule:evenodd; clip-rule:evenodd" xmlns:xlink="http://www.w3.org/1999/xlink">
<g><path style="opacity:0.902" fill="#141d25" d="M 143.5,17.5 C 144.376,17.3691 145.043,17.7025 145.5,18.5C 145.852,21.3087 147.018,23.642 149,25.5C 150.046,23.9095 151.213,22.4095 152.5,21C 153.635,20.2506 154.635,20.4173 155.5,21.5C 153.701,27.3408 153.034,33.3408 153.5,39.5C 193.129,39.9808 224.795,55.8142 248.5,87C 277.013,101.194 287.18,123.694 279,154.5C 273.349,167.485 263.849,176.319 250.5,181C 245.232,182.587 239.899,183.92 234.5,185C 220.072,196.377 203.738,203.711 185.5,207C 195.702,210.574 206.202,212.74 217,213.5C 224.856,211.884 232.69,210.051 240.5,208C 268.196,203.756 287.029,214.59 297,240.5C 297.821,243.554 297.655,246.554 296.5,249.5C 288.519,243.114 279.852,241.947 270.5,246C 266.476,249.685 262.143,253.019 257.5,256C 251.92,257.517 246.253,257.851 240.5,257C 237.438,255.939 234.938,254.106 233,251.5C 229.333,243.5 225.667,235.5 222,227.5C 220.833,226.333 219.667,225.167 218.5,224C 210.831,222.987 203.164,221.82 195.5,220.5C 195.167,220.833 194.833,221.167 194.5,221.5C 203.959,234.694 203.792,247.694 194,260.5C 187.924,265.905 182.591,271.905 178,278.5C 174.051,282.936 171.551,282.269 170.5,276.5C 176.058,263.128 176.891,249.462 173,235.5C 171.366,238.48 169.7,241.48 168,244.5C 162.191,250.398 156.191,256.065 150,261.5C 148.685,264.492 146.685,266.825 144,268.5C 143.127,268.265 142.293,267.931 141.5,267.5C 140.672,272.132 140.172,276.798 140,281.5C 139.439,282.022 138.772,282.355 138,282.5C 127.089,274.925 117.422,265.925 109,255.5C 103.337,246.37 102.171,236.703 105.5,226.5C 101.862,226.738 99.0287,228.404 97,231.5C 93.0441,239.919 88.2108,247.753 82.5,255C 75.6656,257.94 68.6656,258.273 61.5,256C 44.74,245.379 26.4067,240.712 6.5,242C 1.77401,239.612 0.274005,235.778 2,230.5C 4.69124,224.803 8.52458,219.97 13.5,216C 19.6297,213.066 25.2964,209.399 30.5,205C 37.3321,202.678 44.3321,202.012 51.5,203C 62.6366,206.268 73.6366,209.934 84.5,214C 100.16,216.675 114.493,213.342 127.5,204C 114.45,200.474 102.45,194.808 91.5,187C 59.4925,180.663 41.8259,161.33 38.5,129C 40.1947,105.964 51.8613,90.2976 73.5,82C 88.0653,60.081 108.065,46.081 133.5,40C 131.682,34.8485 129.015,30.1819 125.5,26C 129.857,25.7352 134.024,25.9019 138,26.5C 139.63,23.3711 141.464,20.3711 143.5,17.5 Z"/></g>
<g><path style="opacity:1" fill="#222c35" d="M 248.5,91.5 C 249.006,89.8946 249.673,89.5613 250.5,90.5C 251.261,93.4497 252.595,96.1164 254.5,98.5C 253.667,98.8333 252.833,99.1667 252,99.5C 240.372,93.1759 228.205,88.0092 215.5,84C 207.796,82.9272 200.463,84.0939 193.5,87.5C 195.649,85.2542 198.316,83.7542 201.5,83C 207.167,82.3333 212.833,82.3333 218.5,83C 229.495,86.9168 239.995,91.7501 250,97.5C 249.85,95.4944 249.35,93.4944 248.5,91.5 Z"/></g>
<g><path style="opacity:1" fill="#dae6ec" d="M 193.5,87.5 C 200.463,84.0939 207.796,82.9272 215.5,84C 228.205,88.0092 240.372,93.1759 252,99.5C 252.833,99.1667 253.667,98.8333 254.5,98.5C 252.595,96.1164 251.261,93.4497 250.5,90.5C 271.479,100.994 281.313,117.994 280,141.5C 279.028,149.094 276.195,155.761 271.5,161.5C 252.403,170.215 233.07,170.715 213.5,163C 208.465,160.8 204.132,157.633 200.5,153.5C 188.859,162.441 175.859,168.607 161.5,172C 135.16,178 108.827,178 82.5,172C 70.6616,168.412 59.6616,163.245 49.5,156.5C 33.9912,125.865 41.1579,102.199 71,85.5C 71.5074,86.9961 71.0074,88.1627 69.5,89C 81.3865,103.786 96.3865,107.786 114.5,101C 125.401,96.8833 136.067,92.2166 146.5,87C 159.357,82.1331 172.357,81.4664 185.5,85C 190.667,87.5 194.5,91.3333 197,96.5C 197.667,95.5 197.667,94.5 197,93.5C 195.579,91.5952 194.412,89.5952 193.5,87.5 Z"/></g>
<g><path style="opacity:1" fill="#afb9bf" d="M 127.5,44.5 C 128.552,44.3505 129.552,44.5172 130.5,45C 127.246,46.0269 124.246,47.5269 121.5,49.5C 120.614,48.675 120.281,47.675 120.5,46.5C 123.067,46.2785 125.401,45.6118 127.5,44.5 Z"/></g>
<g><path style="opacity:1" fill="#00ace2" d="M 168.5,43.5 C 196.239,46.1187 219.739,57.7854 239,78.5C 242.188,82.9008 245.355,87.2341 248.5,91.5C 249.35,93.4944 249.85,95.4944 250,97.5C 239.995,91.7501 229.495,86.9168 218.5,83C 212.833,82.3333 207.167,82.3333 201.5,83C 198.316,83.7542 195.649,85.2542 193.5,87.5C 189.698,84.615 185.364,82.7817 180.5,82C 172.833,81.3333 165.167,81.3333 157.5,82C 145.489,85.8397 133.823,90.5064 122.5,96C 111.183,100.207 99.5161,101.54 87.5,100C 80.9646,98.2387 75.6313,94.7387 71.5,89.5C 82.6365,70.0222 98.6365,56.3555 119.5,48.5C 119.343,49.8734 119.51,51.2068 120,52.5C 128.032,45.8943 137.198,42.8943 147.5,43.5C 155.525,46.5212 163.525,49.8545 171.5,53.5C 172.614,52.277 172.781,50.9437 172,49.5C 171.284,47.1209 170.117,45.1209 168.5,43.5 Z"/></g>
<g><path style="opacity:1" fill="#122f42" d="M 200.5,63.5 C 198.473,63.3379 196.473,63.5045 194.5,64C 192.1,67.7783 192.267,71.6116 195,75.5C 197.235,77.2024 199.735,78.2024 202.5,78.5C 197.568,79.6067 194.068,77.6067 192,72.5C 189.976,66.6937 191.81,63.027 197.5,61.5C 199.038,61.4534 200.038,62.1201 200.5,63.5 Z"/></g>
<g><path style="opacity:1" fill="#122b3c" d="M 157.5,61.5 C 165.692,60.4197 170.359,63.9197 171.5,72C 171.592,74.8139 170.592,77.1473 168.5,79C 160.26,80.9664 155.427,77.7997 154,69.5C 152.229,68.6959 150.729,67.5292 149.5,66C 151.163,65.7351 152.663,66.2351 154,67.5C 154.564,65.1133 155.73,63.1133 157.5,61.5 Z"/></g>
<g><path style="opacity:1" fill="#102e3f" d="M 200.5,63.5 C 202.394,64.0476 204.06,65.0476 205.5,66.5C 208.445,63.7368 208.945,64.0702 207,67.5C 206.667,70.5 206.333,73.5 206,76.5C 205.29,77.9733 204.124,78.6399 202.5,78.5C 204.387,77.2321 205.387,75.3987 205.5,73C 204.741,69.3128 203.074,66.1462 200.5,63.5 Z"/></g>
<g><path style="opacity:1" fill="#0175b9" d="M 200.5,63.5 C 203.074,66.1462 204.741,69.3128 205.5,73C 205.387,75.3987 204.387,77.2321 202.5,78.5C 199.735,78.2024 197.235,77.2024 195,75.5C 192.267,71.6116 192.1,67.7783 194.5,64C 196.473,63.5045 198.473,63.3379 200.5,63.5 Z"/></g>
<g><path style="opacity:1" fill="#291c2b" d="M 200.5,67.5 C 201.117,67.6107 201.617,67.944 202,68.5C 202.667,70.5 202.667,72.5 202,74.5C 199.391,75.9085 197.558,75.2418 196.5,72.5C 198.042,73.3007 199.708,73.634 201.5,73.5C 201.768,71.901 201.434,70.5676 200.5,69.5C 200.5,68.8333 200.5,68.1667 200.5,67.5 Z"/></g>
<g><path style="opacity:1" fill="#bd0635" d="M 200.5,67.5 C 200.5,68.1667 200.5,68.8333 200.5,69.5C 201.434,70.5676 201.768,71.901 201.5,73.5C 199.708,73.634 198.042,73.3007 196.5,72.5C 196.5,70.8333 196.5,69.1667 196.5,67.5C 197.833,67.5 199.167,67.5 200.5,67.5 Z"/></g>
<g><path style="opacity:1" fill="#eda2b3" d="M 200.5,69.5 C 200.179,71.0481 199.179,71.7148 197.5,71.5C 197.402,68.7524 198.402,68.0857 200.5,69.5 Z"/></g>
<g><path style="opacity:1" fill="#261521" d="M 200.5,67.5 C 199.167,67.5 197.833,67.5 196.5,67.5C 196.5,69.1667 196.5,70.8333 196.5,72.5C 195.539,70.7354 195.205,68.7354 195.5,66.5C 197.415,66.2155 199.081,66.5489 200.5,67.5 Z"/></g>
<g><path style="opacity:1" fill="#0178be" d="M 158.5,62.5 C 164.716,62.1147 168.716,64.948 170.5,71C 167.736,79.8857 163.236,80.719 157,73.5C 154.842,69.4608 155.342,65.7942 158.5,62.5 Z"/></g>
<g><path style="opacity:1" fill="#b10e35" d="M 160.5,71.5 C 160.5,71.1667 160.5,70.8333 160.5,70.5C 160.959,66.1798 162.792,65.5132 166,68.5C 166.922,74.955 165.088,75.955 160.5,71.5 Z"/></g>
<g><path style="opacity:1" fill="#f8d8df" d="M 162.5,68.5 C 166.31,69.7542 166.31,70.7542 162.5,71.5C 162.5,70.5 162.5,69.5 162.5,68.5 Z"/></g>
<g><path style="opacity:1" fill="#1b2436" d="M 160.5,71.5 C 165.088,75.955 166.922,74.955 166,68.5C 162.792,65.5132 160.959,66.1798 160.5,70.5C 158.799,67.6756 159.633,66.009 163,65.5C 166.311,65.8135 167.811,67.6468 167.5,71C 167.896,74.9388 166.229,76.2721 162.5,75C 161.177,74.1841 160.511,73.0174 160.5,71.5 Z"/></g>
<g><path style="opacity:1" fill="#1f303c" d="M 147.5,43.5 C 155.186,44.6738 162.52,47.0072 169.5,50.5C 169.833,50.1667 170.167,49.8333 170.5,49.5C 169.253,47.677 168.586,45.677 168.5,43.5C 170.117,45.1209 171.284,47.1209 172,49.5C 172.781,50.9437 172.614,52.277 171.5,53.5C 163.525,49.8545 155.525,46.5212 147.5,43.5 Z"/></g>
<g><path style="opacity:1" fill="#c6d1d7" d="M 168.5,43.5 C 168.586,45.677 169.253,47.677 170.5,49.5C 170.167,49.8333 169.833,50.1667 169.5,50.5C 162.52,47.0072 155.186,44.6738 147.5,43.5C 147.389,42.8826 147.056,42.3826 146.5,42C 153.167,41.3333 159.833,41.3333 166.5,42C 167.044,42.7172 167.711,43.2172 168.5,43.5 Z"/></g>
<g><path style="opacity:1" fill="#ced9df" d="M 143.5,19.5 C 144.744,23.4725 146.077,27.4725 147.5,31.5C 148.726,28.984 150.226,26.6507 152,24.5C 151.605,29.747 151.438,35.0803 151.5,40.5C 146.456,40.5822 141.456,40.7488 136.5,41C 134.728,35.9548 132.062,31.4548 128.5,27.5C 128.833,27.1667 129.167,26.8333 129.5,26.5C 133.016,27.7559 136.016,29.7559 138.5,32.5C 139.583,27.9143 141.25,23.5809 143.5,19.5 Z"/></g>
<g><path style="opacity:1" fill="#a5afb5" d="M 136.5,27.5 C 138.085,28.0024 138.585,29.0024 138,30.5C 136.961,29.7562 136.461,28.7562 136.5,27.5 Z"/></g>
<g><path style="opacity:1" fill="#b6c0c6" d="M 271.5,161.5 C 264.038,171.741 254.038,178.241 241.5,181C 224.398,184.625 208.398,181.958 193.5,173C 195.007,172.163 195.507,170.996 195,169.5C 188.729,176.726 180.896,181.559 171.5,184C 139.773,192.2 108.44,190.867 77.5,180C 65.1889,175.507 55.8556,167.674 49.5,156.5C 59.6616,163.245 70.6616,168.412 82.5,172C 108.827,178 135.16,178 161.5,172C 175.859,168.607 188.859,162.441 200.5,153.5C 204.132,157.633 208.465,160.8 213.5,163C 233.07,170.715 252.403,170.215 271.5,161.5 Z"/></g>
<g><path style="opacity:1" fill="#0096c4" d="M 190.5,175.5 C 198.439,178.09 206.439,180.59 214.5,183C 219.511,183.585 224.511,184.251 229.5,185C 209.702,199.817 187.369,206.651 162.5,205.5C 138.787,205.906 116.787,200.072 96.5,188C 123.763,193.502 150.763,192.169 177.5,184C 182.583,182.137 186.916,179.304 190.5,175.5 Z"/></g>
<g><path style="opacity:1" fill="#00abe0" d="M 89.5,235.5 C 80.3327,243.472 71.166,243.472 62,235.5C 58.9797,230.801 55.4797,226.467 51.5,222.5C 49.3169,220.216 46.6503,218.882 43.5,218.5C 35.9916,218.962 28.6583,218.462 21.5,217C 29.3875,205.889 40.0541,202.223 53.5,206C 62.3688,208.435 71.0355,211.435 79.5,215C 97.555,218.856 114.222,215.522 129.5,205C 141.667,203.752 143,206.418 133.5,213C 121.689,219.048 109.356,223.715 96.5,227C 94.2779,229.956 91.9446,232.79 89.5,235.5 Z"/></g>
<g><path style="opacity:1" fill="#0094c2" d="M 172.5,217.5 C 170.143,217.337 167.81,217.503 165.5,218C 164.944,218.383 164.611,218.883 164.5,219.5C 161.148,217.542 159.648,214.542 160,210.5C 159.817,213.365 159.317,216.031 158.5,218.5C 153.463,218.587 148.463,218.254 143.5,217.5C 143.722,214.61 143.055,211.943 141.5,209.5C 141.865,208.098 142.699,207.098 144,206.5C 153.466,207.295 162.966,207.795 172.5,208C 174.901,208.805 174.734,209.638 172,210.5C 171.297,212.929 171.463,215.262 172.5,217.5 Z"/></g>
<g><path style="opacity:1" fill="#00aadf" d="M 263.5,233.5 C 249.895,243.643 239.395,240.977 232,225.5C 230.786,223.951 229.286,222.785 227.5,222C 214.456,222.035 201.789,220.035 189.5,216C 185.669,212.581 181.335,209.914 176.5,208C 178.167,207.333 179.833,207.333 181.5,208C 194.987,213.359 208.987,215.692 223.5,215C 235.967,209.866 248.967,208.199 262.5,210C 274.248,213.587 283.581,220.421 290.5,230.5C 290.167,230.833 289.833,231.167 289.5,231.5C 282.618,229.608 275.618,229.108 268.5,230C 266.416,230.697 264.749,231.864 263.5,233.5 Z"/></g>
<g><path style="opacity:1" fill="#b2bcc2" d="M 185.5,215.5 C 181.655,215.288 178.321,216.288 175.5,218.5C 170.59,212.633 171.923,210.133 179.5,211C 181.747,212.277 183.747,213.777 185.5,215.5 Z"/></g>
<g><path style="opacity:1" fill="#d3dfe5" d="M 132.5,230.5 C 130.251,231.08 128.585,232.413 127.5,234.5C 124.437,236.051 121.771,238.218 119.5,241C 118.552,241.483 117.552,241.649 116.5,241.5C 115.736,238.982 114.736,236.649 113.5,234.5C 113.335,231.15 113.502,227.817 114,224.5C 114.308,223.692 114.808,223.025 115.5,222.5C 124.326,220.087 132.326,216.087 139.5,210.5C 141.024,211.527 141.691,213.027 141.5,215C 141.369,217.253 140.869,219.419 140,221.5C 137.665,224.665 135.165,227.665 132.5,230.5 Z"/></g>
<g><path style="opacity:1" fill="#d6e2e8" d="M 42.5,219.5 C 44.3885,220.322 46.3885,221.155 48.5,222C 53.5,227.667 58.5,233.333 63.5,239C 73.5825,245.583 82.9158,244.75 91.5,236.5C 89.0572,242.554 85.7239,248.054 81.5,253C 75.3093,255.865 68.976,256.199 62.5,254C 54.5391,249.52 46.2058,245.854 37.5,243C 27.4824,242.066 17.4824,241.066 7.5,240C 4.00926,238.179 2.84259,235.346 4,231.5C 7.61427,224.219 12.9476,218.552 20,214.5C 20.2511,216.433 20.7511,218.266 21.5,220C 28.4871,220.002 35.4871,219.835 42.5,219.5 Z"/></g>
<g><path style="opacity:1" fill="#d5e0e6" d="M 185.5,215.5 C 193.999,220.179 196.665,227.179 193.5,236.5C 191.147,234.477 188.814,232.477 186.5,230.5C 185.089,228.086 183.089,226.419 180.5,225.5C 178.445,223.445 176.779,221.112 175.5,218.5C 178.321,216.288 181.655,215.288 185.5,215.5 Z"/></g>
<g><path style="opacity:1" fill="#00abe0" d="M 143.5,217.5 C 148.463,218.254 153.463,218.587 158.5,218.5C 155.973,225.884 152.139,232.551 147,238.5C 140.08,251.65 137.58,265.65 139.5,280.5C 134.313,277.99 129.979,274.324 126.5,269.5C 127.139,268.903 127.472,268.07 127.5,267C 127.088,263.973 126.421,261.14 125.5,258.5C 125.046,255.86 123.879,253.527 122,251.5C 120.445,249.854 118.779,249.521 117,250.5C 116.667,253.5 116.333,256.5 116,259.5C 106.421,249.821 103.921,238.487 108.5,225.5C 109.628,224.738 110.795,224.071 112,223.5C 112.177,227.356 112.677,231.023 113.5,234.5C 113.166,237.491 114.166,239.824 116.5,241.5C 117.601,242.598 118.934,242.765 120.5,242C 123.039,239.63 125.372,237.13 127.5,234.5C 129.749,233.92 131.415,232.587 132.5,230.5C 137.81,227.54 141.477,223.207 143.5,217.5 Z"/></g>
<g><path style="opacity:1" fill="#00aadf" d="M 172.5,217.5 C 174.288,221.104 176.955,223.77 180.5,225.5C 181.865,227.86 183.865,229.527 186.5,230.5C 188.071,233.744 190.405,236.411 193.5,238.5C 195.518,236.303 196.685,233.636 197,230.5C 200.391,238.61 200.058,246.61 196,254.5C 195.505,252.527 195.338,250.527 195.5,248.5C 194.998,246.915 193.998,246.415 192.5,247C 185.94,252.575 183.273,259.409 184.5,267.5C 180.813,271.189 177.48,275.189 174.5,279.5C 174.167,278.167 173.833,276.833 173.5,275.5C 174.894,269.483 176.394,263.483 178,257.5C 179.102,245.908 176.435,235.242 170,225.5C 168.693,223.808 167.193,222.475 165.5,221.5C 165.167,220.833 164.833,220.167 164.5,219.5C 164.611,218.883 164.944,218.383 165.5,218C 167.81,217.503 170.143,217.337 172.5,217.5 Z"/></g>
<g><path style="opacity:1" fill="#a9b3b9" d="M 160.5,218.5 C 161.478,218.811 162.145,219.478 162.5,220.5C 161.347,224.973 159.014,228.639 155.5,231.5C 155.167,231.333 154.833,231.167 154.5,231C 157.976,227.548 159.976,223.381 160.5,218.5 Z"/></g>
<g><path style="opacity:1" fill="#0099c8" d="M 165.5,221.5 C 170.281,227.672 170.781,234.338 167,241.5C 159.306,250.527 151.139,258.694 142.5,266C 139.172,261.603 140.172,258.936 145.5,258C 148.538,252.479 149.371,246.645 148,240.5C 149.308,238.359 150.808,236.359 152.5,234.5C 155.43,233.453 157.93,231.787 160,229.5C 161.373,226.331 163.207,223.665 165.5,221.5 Z"/></g>
<g><path style="opacity:1" fill="#d6e2e8" d="M 263.5,233.5 C 272.842,229.484 282.175,229.651 291.5,234C 294.593,237.67 295.759,241.836 295,246.5C 285.566,240.17 276.066,240.004 266.5,246C 257.984,255.96 247.984,257.96 236.5,252C 231.361,243.557 226.861,234.724 223,225.5C 222.167,224.667 221.333,223.833 220.5,223C 222.5,222.333 224.5,222.333 226.5,223C 231.306,227.626 235.639,232.626 239.5,238C 248.921,243.659 256.921,242.159 263.5,233.5 Z"/></g>
<g><path style="opacity:1" fill="#2a3e4c" d="M 180.5,225.5 C 183.089,226.419 185.089,228.086 186.5,230.5C 183.865,229.527 181.865,227.86 180.5,225.5 Z"/></g>
<g><path style="opacity:1" fill="#23303b" d="M 43.5,218.5 C 46.6503,218.882 49.3169,220.216 51.5,222.5C 55.4797,226.467 58.9797,230.801 62,235.5C 71.166,243.472 80.3327,243.472 89.5,235.5C 90.4959,235.586 91.3292,235.252 92,234.5C 92.6917,235.437 92.525,236.103 91.5,236.5C 82.9158,244.75 73.5825,245.583 63.5,239C 58.5,233.333 53.5,227.667 48.5,222C 46.3885,221.155 44.3885,220.322 42.5,219.5C 43.1667,219.5 43.5,219.167 43.5,218.5 Z"/></g>
<g><path style="opacity:1" fill="#213947" d="M 132.5,230.5 C 131.415,232.587 129.749,233.92 127.5,234.5C 128.585,232.413 130.251,231.08 132.5,230.5 Z"/></g>
<g><path style="opacity:1" fill="#232f39" d="M 113.5,234.5 C 114.736,236.649 115.736,238.982 116.5,241.5C 114.166,239.824 113.166,237.491 113.5,234.5 Z"/></g>
<g><path style="opacity:1" fill="#17303d" d="M 127.5,234.5 C 125.372,237.13 123.039,239.63 120.5,242C 118.934,242.765 117.601,242.598 116.5,241.5C 117.552,241.649 118.552,241.483 119.5,241C 121.771,238.218 124.437,236.051 127.5,234.5 Z"/></g>
<g><path style="opacity:1" fill="#cedae0" d="M 194.5,248.5 C 195.052,256.28 192.052,262.28 185.5,266.5C 184.839,258.488 187.839,252.488 194.5,248.5 Z"/></g>
<g><path style="opacity:1" fill="#cfdbe1" d="M 125.5,258.5 C 125.5,261.5 125.5,264.5 125.5,267.5C 125.103,268.525 124.437,268.692 123.5,268C 118.958,263.512 116.958,258.012 117.5,251.5C 118.552,251.351 119.552,251.517 120.5,252C 122.03,254.352 123.697,256.519 125.5,258.5 Z"/></g>
<g><path style="opacity:1" fill="#bdc8ce" d="M 145.5,244.5 C 146.641,247.64 146.808,250.973 146,254.5C 144.915,257.817 143.415,258.151 141.5,255.5C 142.84,251.81 144.174,248.143 145.5,244.5 Z"/></g>
<g><path style="opacity:1" fill="#293e4b" d="M 195.5,248.5 C 195.167,248.5 194.833,248.5 194.5,248.5C 187.839,252.488 184.839,258.488 185.5,266.5C 184.833,266.5 184.5,266.833 184.5,267.5C 183.273,259.409 185.94,252.575 192.5,247C 193.998,246.415 194.998,246.915 195.5,248.5 Z"/></g>
<g><path style="opacity:1" fill="#4a616f" d="M 125.5,258.5 C 126.421,261.14 127.088,263.973 127.5,267C 127.472,268.07 127.139,268.903 126.5,269.5C 126.672,268.508 126.338,267.842 125.5,267.5C 125.5,264.5 125.5,261.5 125.5,258.5 Z"/></g>
</svg>
