<?xml version="1.0" encoding="UTF-8"?>
<!-- Created with Inkscape (http://www.inkscape.org/) -->
<svg version="1.1" viewBox="0 0 98.216 156.37" xmlns="http://www.w3.org/2000/svg">
 <defs>
  <clipPath id="clipPath19404">
   <path d="m0 792h612v-792h-612z"/>
  </clipPath>
 </defs>
 <g transform="translate(-4.7376 -3.8277)">
  <g transform="matrix(2.5874 0 0 -2.5874 -963.67 767.86)">
   <g clip-path="url(#clipPath19404)">
    <g transform="translate(403.31 273.6)">
     <path d="m0 0c5.164-1.122 8.226-8.24 8.517-14.168 0.19-3.878-1.067-7.247-2.786-8.092-3.131-1.539-5.909 2.95-7.004 8.066-2.826-6.78-7.771-12.173-13.161-9.234-1.91-5.2-8.978-6.68-11.886-1.167-4.086 7.747-2.335 18.838 6.209 22.818z" fill="#fff"/>
    </g>
    <g transform="translate(382.46 245.5)">
     <path d="m0 0c-0.458-0.896-0.235-1.83-0.915-2.806-0.525-0.754-1.446-1.123-2.169-0.876-0.723 0.246-1.266 1.118-1.005 2.107 0.269 1.017 0.806 1.575 0.766 2.749 0.078-0.248 2.213-1.607 3.323-1.174" fill="#fff"/>
    </g>
    <g transform="translate(405.86 245.02)">
     <path d="M 0,0 C 0.266,-0.584 0.305,-1.698 0.916,-2.389 1.575,-3.134 3.697,-2.639 3.781,-0.916 3.86,0.716 2.348,1.91 2.361,4.563 1.708,2.992 0,0 0,0" fill="#fff"/>
    </g>
    <g transform="translate(404.17 242.18)">
     <path d="m0 0c1.658 2.513 4.32 7.463 4.503 8.997-3.476-1.884-6.725 7.004-6.607 8.065-2.826-6.975-7.773-12.151-13.191-9.085-1.368-4.287-5.328-4.764-6.681-4.711 0.01-0.643 0.789-2.343 1.253-3.322-1.445-0.373-3.053-1.641-3.163-3.152-0.113-1.538 0.977-2.737 2.47-2.737 1.669 0 2.598 0.63 4.481 0.63 2.866 0 4.325-1.502 6.872-1.502 2.706 0 4.192 1.487 5.651 1.487 1.194 0 1.797-0.338 3.423-0.266 2.322 0.103 3.546 1.375 3.546 2.972 0 0.998-1.017 2.115-2.557 2.624" fill="#fff"/>
    </g>
    <g transform="translate(404.94 270.57)">
     <path d="m0 0c-0.119 1.99-1.711 3.502-4.577 4.02l-13.372-1.234c-3.502-0.916-6.566-3.104-6.089-5.572 0.668-3.45 8.579-4.86 13.571-4.616 5.692 0.278 10.709 3.383 10.467 7.402" fill="#afb7d5"/>
    </g>
    <g transform="translate(393.96 295.05)">
     <path d="m0 0c-2.866-3.024-9.233-10.546-8.199-18.347 0.517-3.897 4.537-7.521 8.517-7.243 4.375 0.307 7.244 6.32 7.203 9.91-0.079 7.123-5.332 10.387-7.521 15.68" fill="#767cba"/>
    </g>
    <g transform="translate(393.05 283.94)">
     <path d="m0 0c-3.462-7.641-1.95-10.666 0.677-12.576 2.387 4.338 2.069 8.159-0.677 12.576" fill="#afb7d5"/>
    </g>
    <g transform="translate(399.9 249.85)">
     <path d="M 0,0 C -0.104,-1.4 0.449,-2.227 1.047,-2.324 1.863,-2.457 2.5,-1.755 2.739,-0.56 3.052,1.007 2.672,1.961 1.757,2.12 0.895,2.27 0.092,1.242 0,0" fill="#fcd13f"/>
    </g>
    <g transform="translate(375.35 253.56)">
     <path d="M 0,0 C 1.963,-11.091 10.703,-8.774 13.091,-4.369 8.862,-7.827 2.653,-6.898 0,0" fill="#dbdcdc"/>
    </g>
    <g transform="translate(403.51 254.98)">
     <path d="m0 0c1.387-2.897 3.377-4.7 5.535-3.64 2.339 1.15 2.944 4.391 2.467 9.565-0.916-8.597-3.98-10.706-8.002-5.925" fill="#dbdcdc"/>
    </g>
    <g transform="translate(378.34 243.05)">
     <path d="m0 0c0.123-0.598 0.536-1.065 1.034-1.235 0.723-0.247 1.644 0.122 2.169 0.876 0.299 0.428 0.424 0.85 0.508 1.263-0.924-1.226-2.424-1.791-3.711-0.904" fill="#dbdcdc"/>
    </g>
    <g transform="translate(406.49 243.07)">
     <path d="m0 0c1.814-0.863 2.637 0.967 2.796 2.32 1.3-2.415-1.911-4.298-2.796-2.32" fill="#dbdcdc"/>
    </g>
    <g transform="translate(403.42 237.62)">
     <path d="m0 0c-1.611-0.234-2.547 0.105-3.741 0.105-1.459 0-2.865-1.128-5.572-1.128-2.546 0-3.979 1.128-6.845 1.128-1.952 0-3.051-0.503-4.508-0.256-1.187 0.201-2.144 0.781-2.405 1.889-0.343-1.407 0.244-3.123 2.405-3.123 1.669 0 2.598 0.63 4.481 0.63 2.866 0 4.326-1.502 6.872-1.502 2.707 0 4.193 1.487 5.652 1.487 1.194 0 1.796-0.337 3.422-0.265 3.092 0.137 3.971 1.933 3.456 3.495-0.317-1.249-1.571-2.222-3.217-2.46" fill="#dbdcdc"/>
    </g>
    <g transform="translate(403.07 273.56)">
     <path d="m0 0c4.271-1.18 7.487-7.446 8.057-12.123 0.812-6.658-1.224-11.43-4.451-9.866-1.748 0.848-3.472 3.712-4.342 7.403-0.222 0.933-0.358 0.971-0.722 0.125-3.443-7.955-8.193-10.897-12.365-8.816-0.321 0.16-0.528 0.192-0.75-0.334-1.002-2.372-3.19-3.991-5.662-4.156-2.362-0.157-4.405 1.059-5.606 3.337-2.27 4.305-2.712 9.589-1.181 14.137 1.194 3.546 3.442 6.274 6.527 7.939 0.241 0.13 1.344 1.204 1.206 1.146-4.139-1.725-7.208-4.896-8.543-8.861-1.578-4.686-1.222-10.459 1.165-14.556 1.409-2.419 3.825-4.003 6.41-3.831 2.698 0.181 5.2 1.827 6.195 4.705 5.041-2.795 9.583 1.186 12.95 8.772 0.767-3.058 2.466-6.786 4.667-7.852 3.495-1.695 6.362 3.128 5.439 10.692-0.758 6.213-4.337 11.753-9.956 12.975-0.146 0.031 0.847-0.805 0.962-0.836" fill="#0f141b"/>
    </g>
    <g transform="translate(408.4 251.21)">
     <path d="m0 0c-0.209-1.754-3.911-8.114-5.197-9.901-0.71-0.988-0.029-0.771 0.796 0.344 2.17 2.929 4.855 7.151 5.147 9.605 0.018 0.148-0.728 0.1-0.746-0.048" fill="#0f141b"/>
    </g>
    <g transform="translate(382.06 244.62)">
     <path d="m0 0c0.145-0.773 1.181-2.713 1.778-3.608 0.494-0.744 0.87-0.679 0.355 0.232-0.561 0.989-1.588 3.504-1.708 4.146-0.028 0.146-0.452-0.624-0.425-0.77" fill="#0f141b"/>
    </g>
    <g transform="translate(378.87 246.66)">
     <path d="m0 0c0.091-0.847-0.705-2.066-0.864-2.703-0.292-1.17 0.506-2.056 1.326-2.335 0.843-0.287 1.891-2e-3 2.468 0.769 0.439 0.586 0.495 1.341 0.589 1.869 0.069 0.39 0.135 0.759 0.316 1.113 0.067 0.133-0.415 0.379-0.483 0.246-0.217-0.425-0.292-0.852-0.366-1.265-0.092-0.517-0.179-1.007-0.53-1.509-0.452-0.649-1.251-0.982-1.859-0.775-0.587 0.2-1.057 0.921-0.831 1.782 0.091 0.343 0.713 1.802 0.764 2.39 0.012 0.137-0.546 0.566-0.53 0.418" fill="#0f141b"/>
    </g>
    <g transform="translate(407.97 249.05)">
     <path d="m0 0c0.087-1.234 0.489-2.136 0.848-2.943 0.315-0.708 0.588-1.321 0.554-1.992-0.032-0.673-0.448-1.214-1.112-1.448-0.511-0.179-0.998-7e-3 -1.23 0.254-0.355 0.401-0.81 1.639-0.921 2.209-0.029 0.147-0.413-0.437-0.347-0.71 0.136-0.555 0.427-1.422 0.87-1.924 0.383-0.432 1.075-0.596 1.807-0.34 0.879 0.309 1.466 1.031 1.51 1.932 0.039 0.8-0.307 1.499-0.636 2.238-0.387 0.87-0.725 1.91-0.718 3.308 1e-3 0.149-0.637-0.413-0.625-0.584" fill="#0f141b"/>
    </g>
    <g transform="translate(404.04 241.84)">
     <path d="m0 0c1.49-0.399 2.417-1.275 2.417-2.285 0-3.32-4.417-2.706-6.301-2.442-0.667 0.094-1.716-0.27-2.462-0.59-2.634-1.127-4.126-1.125-6.719-0.189-1.09 0.393-2.217 0.8-3.74 0.8-1.001 0-3.703-0.63-4.481-0.63-1.283 0-2.299 1.094-2.2 2.447 0.111 1.505 1.562 2.585 2.872 2.838 0.147 0.029 0.045 0.561-0.102 0.532-1.004-0.194-3.371-1.294-3.531-3.469-0.122-1.676 1.23-2.98 2.837-3.051 1.131-0.051 3.666 0.791 4.605 0.791 1.428 0 2.496-0.547 3.542-0.924 3.143-1.136 4.332-1.048 6.965 0.079 0.692 0.297 1.763 0.961 2.678 0.802 3.703-0.644 6.89-0.233 6.767 3.006-0.053 1.405-1.269 2.343-3.007 2.808-0.144 0.039-0.285-0.484-0.14-0.523" fill="#0f141b"/>
    </g>
    <g transform="translate(395.11 247.09)">
     <path d="m0 0c0.303-0.312 0.4-0.672 0.274-1.033-0.514-1.476-3.736-1.34-4.292-0.109-0.147 0.326-0.104 0.698 0.11 1.028 0.404 0.62 0.127 0.816-0.36 0.248-0.319-0.371-0.482-0.962-0.266-1.486 0.69-1.671 4.882-1.99 5.36 0.212 0.118 0.549-0.159 1.155-0.505 1.368-0.589 0.362-0.81 0.273-0.321-0.228" fill="#0f141b"/>
    </g>
    <g transform="translate(400.32 274.32)">
     <path d="m0 0c2.652-0.479 4.239-1.853 4.354-3.769 0.203-3.377-4.267-6.826-10.209-7.116-5.038-0.247-12.669 1.178-13.292 4.398-0.45 2.323 2.623 4.404 5.891 5.258 0.145 0.038 8e-3 0.562-0.137 0.524-3.404-0.89-7.075-3.192-6.538-5.966 0.747-3.86 9.393-5.102 13.85-4.803 6.314 0.425 11.478 3.888 11.25 7.695-0.131 2.186-2.154 3.785-5.073 4.312-0.147 0.027-0.243-0.507-0.096-0.533" fill="#0f141b"/>
    </g>
    <g transform="translate(386.03 276.74)">
     <path d="m0 0c-0.722 5.442 2.527 12.109 7.857 17.835 0.804-1.791 1.938-3.385 3.051-4.922 2.076-2.867 4.186-6.542 4.274-10.363 0.08-3.489-2.89-9.275-6.953-9.559-3.717-0.261-7.717 3.146-8.229 7.009m7.417 18.159c-3.533-3.807-9.249-11.013-8.282-18.302 0.546-4.122 5.154-7.685 9.133-7.407 4.387 0.308 7.784 5.856 7.741 9.742-0.052 4.627-2.53 8.168-4.656 11.104-1.136 1.568-2.219 2.99-2.993 4.702-0.327 0.727-0.437 0.707-0.943 0.161" fill="#0f141b"/>
    </g>
    <g transform="translate(393.08 283.33)">
     <path d="m0 0c2.349-4.001 2.707-7.441 0.549-11.546-3.556 2.774-2.391 7.317-0.549 11.546m-0.384 0.486c-3.384-7.602-2.008-10.62 0.506-12.392 0.535-0.378 0.573-0.282 0.948 0.159 2.004 2.355 2.326 7.215-0.723 12.261-0.35 0.577-0.426 0.656-0.731-0.028" fill="#0f141b"/>
    </g>
    <g transform="translate(400.98 247.75)">
     <path d="m0 0c-0.485 0.079-0.951 0.837-0.859 2.085 0.082 1.103 0.874 2.022 1.494 1.914 0.786-0.137 1.037-1.219 0.799-2.413-0.171-0.852-0.637-1.716-1.434-1.586m-1.309 2.118c-0.119-1.603 0.558-2.453 1.236-2.563 0.932-0.152 1.675 0.466 1.945 1.816 0.358 1.798-0.194 2.957-1.185 3.129-0.925 0.16-1.894-1.011-1.996-2.382" fill="#0f141b"/>
    </g>
   </g>
  </g>
 </g>
</svg>
