<?xml version="1.0" encoding="UTF-8"?>
<!-- Created with Inkscape (http://www.inkscape.org/) -->
<svg version="1.1" viewBox="0 0 404.17 283.39" xmlns="http://www.w3.org/2000/svg">
 <g transform="translate(64.032 -9.1693)">
  <path d="m233.75 87.575c-5.0495-15.539-12.133-25.132-14.03-27.168-3.6574-3.8774-2.8086-6.6228-2.8086-6.6228 4.063-17.951 2.5173-32.808-13.304-40.838-15.82-8.0144-30.723 4.8179-33.428 9.2613-1.9662 3.2241-6.1443 3.8266-6.1443 3.8266-29.682-6.6905-54.688-1.6954-60.762-0.13044-6.0747 1.583-10.574 0.67535-10.574 0.67535-11.635-13.416-27.766-11.397-33.1-9.5542-5.3336 1.8455-10.251 6.7119-13.525 15.155-3.2752 8.427 0.6024 29.398 0.6024 29.398-7.6078 10.413-13.419 19.956-17.132 31.223-6.7265 4.6219-19.938 14.271-29.433 24.896l13.203 11.696 11.658-9.4106c-0.17079 4.4908-0.1524 9.2888 0.11099 14.494 1.6804 34.707 34.393 89.203 99.631 90.97 65.224 1.7508 103.24-33.702 112.25-81.644 2.3643-12.568 2.5472-24.008 1.4643-34.116 6.8763 3.9275 16.254 9.9406 18.107 14.446 0 0 7.2698-8.7654 11.921-11.219-7.215-12.036-20.953-21.389-34.715-25.338" fill="#5892bf"/>
  <g fill="#fff">
   <path d="m47.635 135.93s-1.4198-75.619 85.246-76.95c29.154-0.4518 84.519 19.501 82.631 80.4-0.24883 8.0264-8.9012 76.304-87.398 73.376-55.728-2.0891-80.24-43.918-80.479-76.827"/>
   <path d="m50.74 43.87s-1.9467-18.392 17.232-21.065c12.407-1.7211 21.855 7.7072 22.994 19.3 1.1438 11.497-6.0572 20.041-17.749 21.799-8.1518 1.2294-22.867-7.4358-22.477-20.033"/>
   <path d="m169.83 41.535s-2.0384-23.161 23.352-24.128c9.8313-0.38205 22.412 12.347 19.072 24.439 0 0-1.8973 20.536-22.44 19.389-10.106-0.53923-19.732-8.311-19.985-19.7"/>
  </g>
  <path d="m178.15 216.81s5.4907 11.09 1.1285 18.112c-4.3613 7.0223-19.973 30.832 20.904 48.678 40.877 17.83 60.261 0.35439 49.055-15.058-11.191-15.411-21.396-26.647-51.835-40.773 0 0-4.0434-9.3551-2.0327-19.846z" fill="#5892bf"/>
  <path d="m73.249 210.73s-0.46062 14.858-9.2835 20.244c-8.8382 5.3689-54.57 22.793-50.525 44.008 4.0444 21.215 39.863 14.036 55.911 0.7934 16.033-13.26 23.074-21.331 19.7-33.853-3.3889-12.539-6.3483-8.1036 0.56639-24.101z" fill="#5892bf"/>
  <path d="m-25.109 129.55s1.9381-18.352 17.017-13.628c15.077 4.724 23.317 13.507 26.076 22.727 2.7733 9.22 1.2433 19.072-9.9007 20.097 0 0 12.642 24.128-2.2984 35.078-14.958 10.966-27.819-1.4679-27.819-1.4679s-24.451 12.792-37.491-18.06c-13.056-30.836 20.133-50.37 34.417-44.747" fill="#fff"/>
  <path d="m267.36 157s-23.848-1.503-17.666-19.422c6.1825-17.917 22.822-29.134 35.91-29.174 13.089-0.0551 13.113 14.1 13.113 14.1 9.9789-2.578 41.568 16.639 39.731 44.001-1.6899 25.214-31.859 41.941-45.292 27.369 0 0-16.99 8.145-27.107-9.5125-10.101-17.672 1.3091-27.361 1.3091-27.361" fill="#fff"/>
  <g fill="#46799e">
   <path d="m37.615 245.07c23.484-16.042 54.236-0.18485 47.447 15.196 0 0 7.5623-9.4576 4.3524-18.978-3.1978-9.5201-4.0622-16.545-0.89864-22.903l-14.865-6.9171s-0.62929 11.554-3.6685 14.408c-3.0532 2.8696-32.365 19.194-32.365 19.194"/>
   <path d="m175.62 265.55c-6.3368-16.695 29.335-34.591 52.805-19.835 0 0-22.904-13.463-27.012-15.662-4.093-2.2145-7.41-10.352-7.1059-20.162l-15.401 7.2698s3.1958 9.5837 2.3087 11.963c-6.3645 13.496-12.193 19.468-5.5937 36.427"/>
   <path d="m27.191 117.15-13.969 13.005-4.336-5.602s5.2483-5.2574 8.3917-7.4234c4.0251-3.3184 9.9034-4.236 9.9142 0.0362"/>
   <path d="m235.74 108.64c9.9397 3.3221 20.953 14.677 20.953 14.677l4.1608-4.6373c-3.4002-5.0307-10.161-10.055-14.352-12.177-5.5076-2.8187-11.349-2.584-10.762 2.1381"/>
   <path d="m194.38 189.06c16.539-8.4938 31.198-21.143 42.133-38.61 0 0-17.447 77.904-108.53 74.602-70.348-2.5423-96.013-46.75-99.088-72 8.0987 15.395 23.628 28.167 42.915 36.942 0 0 20.961 22.664 56.749 22.642 35.787-0.0202 56.566-13.135 65.817-23.576"/>
  </g>
  <g fill="#dcdddd">
   <path d="m194.38 189.06c-38.392 19.74-86.931 17.151-122.57 0.93457 0 0 22.265 23.263 59.938 23.123 37.673-0.15609 62.628-24.058 62.628-24.058"/>
   <path d="m13.492 130.61c4.3401 9.6355-2.0783 20.834-11.374 21.343 13.089 24.636-11.749 37.575-27.14 30.115-3.2745 3.7393-20.393 11.483-33.167-3.7846 0 0 11.053 23.967 36.219 14.354 0 0 15.19 12.905 30.265-0.80147 8.9236-8.1244 5.5142-25.669-0.24099-32.893 7.6579-2.7901 19.285-10.178 5.4372-28.334"/>
   <path d="m259.06 121.34c-6.176 11.015-2.1121 27.464 12.014 30.501-8.0817 25.701 17.819 37.615 28.407 26.195 7.4904 11.375 29.8 10.568 39.016-14.158-0.41903 7.6864-0.25412 30.79-28.805 34.958 0 0-13.24-0.72675-16.423-5.0187 0 0-20.744 8.3956-30.028-12.982 0 0-3.6894-16.692 3.1432-23.702 0 0-17.691-2.6677-17.29-15.616 0.40089-12.932 9.9668-20.175 9.9668-20.175"/>
  </g>
  <g fill="#0f141b">
   <path d="m71.521 207.73c-0.01221 21.966-13.951 24.754-26.055 30.58-37.3 17.925-37.61 34.621-32.229 43.077 5.3975 8.4405 27.857 16.167 53.512-0.98902 27.607-18.432 28.21-34.785 20.58-47.822-2.0131-3.4243 3.0438-11.749 5.4517-13.891 0.52537-0.47624-3.9357-2.6253-4.4606-2.1491-2.9184 2.6026-7.4663 14.084-3.7975 19.155 6.9847 9.6854 1.8937 25.787-20.797 40.929-20.576 13.757-41.322 10.913-46.296 2.1842-4.9574-8.7459-2.1579-22.511 30.969-38.43 11.311-5.4355 27.308-7.7773 27.32-30.254-0.0093-0.71875-4.1923-3.0942-4.1959-2.3939"/>
   <path d="m192.65 208.72c-1.4574 10.428 0.41297 19.62 7.7048 22.97 40.88 18.77 52.522 42.245 48.516 50.123-7.4519 14.642-67.376 3.9369-73.891-26.026-1.744-8.0245 1.2051-14.676 5.5313-20.058 4.4418-5.5373 1.1934-17.944-1.528-19.654-0.59373-0.3799-4.558 1.5622-3.9976 1.9953 4.6076 3.5725 5.0688 12.352 2.7161 15.292-4.8926 6.1292-9.4038 15.379-7.4655 24.334 6.8792 31.6 73.528 44.442 82.355 27.086 5.0925-10.012-5.322-35.554-50.54-56.323-4.8095-2.2051-6.403-9.4125-4.7021-21.602 0.11205-0.69692-4.5954 1.1634-4.6965 1.8607"/>
   <path d="m-26.227 127.65c-26.138-3.2504-43.351 22.376-36.165 45.601 6.2015 20.039 29.187 29.343 42.245 20.008 0.68435-0.50296-1.7269-2.8913-2.4112-2.3883-9.26 6.631-30.405-1.3492-35.783-18.66-7.2741-23.483 12.123-44.482 31.787-41.162 1.8077 0.28197 2.8829-1e-3 3.0308-1.5644 0.95497-10.253 14.981-18.394 29.423-4.508 8.8394 8.4835 13.22 17.339 11.732 23.669-0.95402 4.1005-5.2917 6.1485-11.087 7.9774-0.82098 0.24567 1.7173 4.8037 2.5207 4.5426 8.6121-2.6972 10.712-8.2122 11.557-11.82 1.7429-7.3904-1.8973-17.945-11.543-27.202-12.507-12.025-33.295-10.963-35.304 5.505"/>
   <path d="m-23.419 184.55c1.7371 11.308 18.909 14.295 27.465 7.2119 9.5226-7.8985 9.7592-24.278-0.12073-35.169-5.2866-5.8389-4.1743-8.3389 1.6992-2.3377 10.892 11.162 13.128 30.567 1.1025 40.524-11.714 9.6954-32.725 4.5647-32.823-10.247-0.04552-5.8196 1.7355-6.1313 2.6784 0.0379"/>
   <path d="m300.48 123.49c-0.65658-7.0979-3.4096-12.89-8.7712-15.304-8.3945-3.7983-21.562-0.18947-31.315 8.9761-10.344 9.722-15.34 21.762-12.114 30.295 2.3726 6.2587 9.6376 9.9908 18.237 10.257 0.85771 0.0266 2.7423-2.6081 1.8982-2.6343-7.4053-0.22957-14.362-3.6173-16.292-8.7146-2.7397-7.2425 1.5021-17.552 10.778-26.287 8.8501-8.3179 19.699-11.696 26.993-8.4088 4.3853 1.9705 6.1811 6.2968 7.5442 12.205 2.0373 8.9102 3.9264 9.0488 3.0394-0.38476"/>
   <path d="m300.22 183.83c-0.98803 9.2787-7.5102 14.465-15.521 14.216-24.143-0.74844-31.124-32.145-17.024-44.238 5.6499-4.846 7.0106-3.497 1.4051 3.5048-12.007 15.026-0.24096 36.05 15.605 36.542 6.4974 0.20142 11.406-3.3427 12.565-10.913 1.3424-8.9012 3.9823-8.6441 2.9684 0.8873"/>
   <path d="m299.21 123.92c24.493 0.75931 45.832 33.876 32.433 56.767-9.4433 16.142-28.698 19.69-37.72 12.476-0.67037-0.5314-3.3152 1.5556-2.6453 2.1005 11.091 8.8565 32.6 7.6901 44.097-11.991 15.554-26.585-9.7269-61.61-36.067-62.427-0.84419-0.0262-0.93949 3.0481-0.0953 3.0742"/>
   <path d="m171.1 38.89c0.32683-10.543 9.9625-20.558 20.521-20.231 12.278 0.38064 20.006 10.281 19.67 21.11-0.34756 11.211-7.9474 20.333-20.194 19.953-11.53-0.35744-20.372-8.7611-19.998-20.833m-2.7109-0.44553c-0.42656 13.76 9.3478 23.436 22.518 23.844 13.25 0.41076 22.546-9.4233 22.949-22.434 0.41718-13.457-9.0961-23.348-22.155-23.753-11.419-0.354-22.93 10.001-23.313 22.344"/>
   <path d="m53.596 50.437c-4.8813-12.235 2.4899-24.344 11.971-26.218 12.544-2.4986 20.881 5.1904 23.201 13.153 2.9121 9.9897-2.8413 20.667-11.764 23.642-9.7129 3.237-19.784-1.49-23.408-10.577m10.606-28.476c-12.467 4.1566-18.203 15.903-12.979 29.423 4.3525 11.293 15.935 15.622 26.598 12.063 10.18-3.3987 16.836-14.989 13.408-26.796-3.3679-11.613-16.895-18.058-27.027-14.69"/>
   <path d="m56.835 47.247c-2.2615-8.8214 1.7408-17.529 10.662-19.468 7.3826-1.6057 15.287 3.0902 17.034 11.527 1.7764 8.5831-2.7654 15.743-9.5578 17.781-6.87 2.0509-16.061-1.7722-18.138-9.84"/>
   <path d="m175.69 38.703c0.2345-7.5646 6.1248-16.054 16.301-15.738 7.7556 0.24043 14.902 6.2486 14.553 17.508-0.26165 8.4404-7.0044 15.118-16.433 14.826-6.7841-0.21031-14.733-6.5461-14.422-16.595"/>
  </g>
  <path d="m69.093 30.301c3.6857-0.68103 6.8038 1.6298 7.452 5.4116 0.60959 3.5118-1.7101 6.7697-5.3139 7.3755-3.27 0.53576-6.7012-1.8661-7.2577-5.5014-0.57212-3.7004 2.1836-6.7392 5.1196-7.2858" fill="#fff"/>
  <path d="m191.06 25.847c3.8236 0.11854 6.7767 3.0297 6.6512 7.0768-0.12931 4.1712-3.3322 6.7669-6.9811 6.6537-4.0313-0.12497-6.8037-3.1932-6.6843-7.0457 0.12791-4.1261 3.446-6.7954 7.0141-6.6848" fill="#fff"/>
  <g fill="#0f141b">
   <path d="m49.737 134.49c1.2096-39.018 32.854-75.083 81.077-73.588 49.592 1.5374 83.582 32.767 82.375 71.705-1.3986 45.117-27.709 78.287-82.054 77.862-47.843-0.36704-82.661-35.225-81.397-75.979m-4.4849 0.22246c-1.2219 39.416 33.711 79.809 86.029 79.804 58.009-0.0182 85.12-35.364 86.468-78.857 1.4011-45.196-33.948-76.819-87.186-78.469-40.833-1.2659-83.759 27.452-85.311 77.522"/>
   <path d="m60.49 129.38c-1.3093 42.235 25.691 66.504 63.849 67.687 38.779 1.2022 61.993-27.744 61.449-62.639-0.48123-30.828-23.614-52.284-53.983-53.226-71.617-2.2202-75.538 101.11-6.9741 100.05 54.942-0.83172 57.771-83.843 6.1967-84.74-49.868-0.8591-52.688 66.96-6.9196 67.406 35.14 0.3257 34.238-50.284 5.2771-48.806-21.411 1.0895-23.899 28.415-5.3653 28.623 3.0892 0.0506 4.7139-1.3992 4.8378-2.8323 0.13472-1.4282-1.4144-2.7686-4.7661-3.0804-9.1395-0.85719-6.8425-15.308 5.3398-15.935 20.485-1.0549 19.495 35.515-4.6177 35.261-37.561-0.38268-33.629-55.209 6.5498-53.422 40.099 1.7989 39.789 69.412-6.5763 70.748-56.992 1.6448-56.173-88.523 7.0846-86.562 26.357 0.81708 45.729 19.208 46.157 46.033 0.57062 37.128-26.529 57.17-53.857 56.323-32.376-1.0037-58.062-21.407-56.845-60.68 0.97704-31.517 30.12-56.294 64.965-55.213 36.884 1.1434 64.71 26.523 63.657 60.492-0.80721 26.039-14.926 45.957-31.506 56.283-2.4555 1.519-3.3066 3.7564-2.3463 5.2837 0.95571 1.5298 3.2376 1.9666 5.9464 0.50065 17.994-9.6602 34.941-33.891 35.818-62.206 1.18-38.062-30.38-65.916-71.357-67.187-38.619-1.1972-70.914 26.527-72.008 61.818"/>
   <path d="m120.38 35.943c1.343-0.61357 4.159 5.7718 3.4745 6.1333-1.1669 0.61903-6.2418-4.8482-3.4745-6.1333"/>
   <path d="m134.63 35.067c-1.3452-0.77372-3.5586 6.3455-2.7483 6.8808 1.2349 0.83357 4.8309-5.6843 2.7483-6.8808"/>
   <path d="m235.95 86.946c-3.5852-10.871-8.8219-20.869-15.683-28.877-1.6482-1.9309-2.2608-3.1608-0.32205-13.225 2.8717-14.943-3.0571-28.342-16.778-33.661-12.05-4.6753-26.712-1.1896-34.972 10.217-2.8652 3.9463-3.7075 3.4232-10.441 2.0351-20.781-4.2953-37.867-3.867-58.946 1.4577-5.1737 1.3082-5.6965 0.18489-8.6096-2.5308-8.7225-8.1292-20.945-10.835-31.953-5.9321-11.622 5.1873-18.037 18.777-14.531 35.257 1.642 7.6707 1.3032 9.4139-1.012 12.53-5.6376 7.5408-11.97 20.018-14.844 27.357-8.4751 6.0019-28.536 23.218-30.096 26.23-0.33572 0.62671 3.2737 1.8231 3.7239 1.2948 6.056-7.1609 19.598-17.693 29.06-24.684 0.83231-0.61133 1.2037-1.2234 1.5524-2.2654 3.1828-9.5297 7.791-18.393 14.128-26.885 2.1123-2.8355 2.8656-4.9806 1.4446-11.178-3.5519-15.589-0.49647-28.151 12.03-34.282 9.6306-4.7068 22.114-1.1806 28.916 5.153 3.7505 3.4962 5.0547 5.0987 10.775 3.6507 20.677-5.2093 37.428-5.6303 57.798-1.43 7.1437 1.4822 9.9186 1.9478 13.532-3.0373 8.2936-11.443 21.687-13.611 32.086-9.1438 10.414 4.4665 16.487 14.252 14.165 28.495-2.0478 12.562-3.4623 12.422-0.18117 16.047 6.4909 7.1035 11.635 17.019 14.994 28.489 0.41554 1.4634 0.50545 1.6243 2.0424 2.0425 11.889 3.1882 26.758 13.056 33.568 23.756 0.38796 0.60396 3.3752-0.86689 3.0424-1.5008-5.2845-10.031-22.328-22.276-34.506-25.38"/>
   <path d="m236.96 107.32c-1.0722-0.39473-1.3803-0.22353-1.2851 0.78708 4.8564 50.061-21.1 113.47-103.59 114.88-69.539 1.1926-108.22-53.632-104.97-106.41 0.04186-0.82562-0.24119-0.96542-0.79579-0.56691-5.9183 4.2493-11.481 9.3682-13.944 12.735-0.42462 0.57878 1.2811 4.0071 1.6961 3.4461 2.5479-3.4772 6.2741-6.9789 8.9759-9.2864-1.271 52.661 36.95 104.9 109.38 104.54 81.136-0.41733 111.68-61.8 107.37-114.92 5.4342 2.6221 13.382 8.9913 15.828 12.382 0.43423 0.56925 2.7318-1.6866 2.2837-2.2428-5.9886-7.359-13.821-12.846-20.949-15.347"/>
  </g>
 </g>
</svg>
