<?xml version="1.0" encoding="UTF-8"?>
<!-- Created with Inkscape (http://www.inkscape.org/) -->
<svg version="1.1" viewBox="0 0 60.018 75.064" xmlns="http://www.w3.org/2000/svg">
 <g transform="translate(-3.6439 -3.343)">
  <path d="m43.685 43.307c-5.1039 1.3531-11.266 2.3406-19.444 0.76504-2.4121 2.9898-4.4925 10.753-3.9057 16.168-2.2677 1.5209-6.2918 1.2594-9.2543 0.48659-2.9599-0.77414-5.601 1.8865-5.5476 5.6751 0.07413 5.2926 3.0418 8.7026 6.8526 9.6836 3.5206 0.90812 8.9628-0.0546 13.098-3.3086 1.4936 1.6809 5.0949 2.8285 8.2694 0.64141 1.7876 2.2937 6.0251 2.9091 9.119-0.18477 3.0678 3.0405 7.6592 5.2575 11.402 4.9478 6.1084-0.50739 8.9433-6.526 8.9433-11.739 0-5.8625-6.1539-7.8791-9.8892-6.016-0.58805 0.29393-1.9425 0.82486-2.3432 0.93155-0.34593-6.3751-3.9213-15.257-7.3001-18.051" fill="#fff"/>
  <path d="m45.995 11.251c-2.4173-2.7569-9.7434-7.667-13.71-7.5148-3.9642 0.14973-9.1762 3.8524-12.576 8.5712-1.8878-4.3038-6.6847-5.627-10.462-3.5492-4.8022 2.6411-6.6431 11.841-3.626 17.448 1.7577 3.2695 4.4248 4.5367 7.7425 4.08-0.11322 8.7612 5.9666 12.878 10.877 13.786-0.71687 1.0942-1.5717 2.6515-2.1376 4.0488 0.90035-0.43455 1.6146-1.2425 2.1116-2.1116-0.27955 1.8943 0 4.378 1.8943 5.4032l9.9061-0.43588c0.93151-0.74416 1.6458-1.9854 1.9255-3.4152 1.1176 2.4837 3.6221 3.8277 5.5268 2.7959 0.74549-0.40461 1.5521-2.2365 0.93155-4.0996 0.68301 0.65181 1.7707 1.5209 2.7022 1.7694-0.80796-1.4585-2.0492-3.3541-3.4152-4.7202 8.3527-2.1727 10.924-9.387 10.495-14.719 3.4464 0.62061 8.3852-1.8319 8.9134-8.6948 0.52694-6.8642-3.9226-11.865-7.4849-12.951-3.9746-1.21-8.0118 0.0937-9.6147 4.3077" fill="#99def9"/>
  <path d="m39.618 22.005c-1.8566-6.1877-5.3707-8.3123-8.1367-8.2616-2.7634 0.0509-5.9614 2.3614-7.2663 7.827-0.62449 2.6216-1.3752 4.9023-2.3288 6.8318-4.0852 8.2603-0.0221 16.674 10.363 16.674 12.097 0 15.351-9.0669 10.257-16.426-1.1189-1.6159-2.1207-4.0853-2.8883-6.6457" fill="#9acaee"/>
  <g fill="#4f4c4d">
   <path d="m19.889 20.928c-1.491-0.30425-3.0978 1.7968-3.6026 4.3793-0.49699 2.5461-0.13904 5.6205 1.3505 5.947 1.491 0.32639 3.0223-2.4316 3.4464-4.8906 0.45145-2.6099 0.17186-5.156-1.1944-5.4358"/>
   <path d="m45.57 20.611c-1.3661 0.21722-2.2885 2.861-1.7382 5.8703 0.5269 2.887 2.2026 4.8178 3.695 4.564 1.6458-0.27992 2.3288-3.198 1.8318-5.7454-0.58808-3.0119-2.3562-4.9166-3.7886-4.6889"/>
   <path d="m37.053 25.826c0-3.5414-11.575-2.7569-11.406 0.13277 0.13793 2.338 3.531 4.3819 5.5138 4.3819 1.9841 0 5.8924-2.2664 5.8924-4.5146"/>
   <path d="m9.3993 65.556c-1.9685 1.098-1.9255 4.123-1.0304 5.5957 1.18 1.936 3.466 3.0965 5.2614 2.0309 1.7681-1.0474 1.785-3.4764 0.83529-5.316-1.1098-2.1519-3.5818-3.1394-5.0662-2.3106"/>
   <path d="m58.645 67.032c-2.0622-1.5378-4.9114-0.68305-5.8456 0.83529-1.5795 2.5656-1.2139 5.476 0.52952 6.5676 1.6484 1.0343 4.1204 0.5321 5.5658-1.5027 1.4572-2.0452 1.1345-4.8685-0.24968-5.9002"/>
  </g>
  <g fill="#fff">
   <path d="m19.804 21.174c-0.72598-0.17039-1.4364 0.51521-1.6614 1.3986-0.29024 1.1358 0.0295 2.0062 0.70518 2.2261 0.7546 0.24451 1.5352-0.42283 1.7382-1.5274 0.20284-1.1072-0.12613-1.9437-0.78192-2.0973"/>
   <path d="m18.341 28.306c-0.55423-0.14199-1.1228 0.32012-1.2945 1.0174-0.18329 0.74811 0.13646 1.3687 0.59978 1.504 0.56595 0.16669 1.1592-0.42412 1.2919-1.0603 0.14973-0.71558-0.0808-1.3284-0.59719-1.4611"/>
   <path d="m45.558 20.921c-0.81707 0.25116-1.0461 1.3362-0.79103 2.3068 0.32269 1.2373 1.2516 1.8839 1.9776 1.6718 0.75722-0.22127 1.0851-1.3154 0.70385-2.4616-0.41242-1.2347-1.2776-1.7057-1.8904-1.517"/>
   <path d="m47.097 28.167c-0.60627 0.0756-0.98879 0.70647-0.8912 1.3817 0.10547 0.72731 0.59848 1.2568 1.2126 1.1814 0.67394-0.0859 0.99269-0.79365 0.8756-1.517-0.10032-0.62452-0.53996-1.1267-1.197-1.0461"/>
  </g>
  <g>
   <path d="m54.098 31.345c-1.5938 4.0553-5.2848 6.9671-10.486 8.6936-2.524 3.7886-7.0412 4.9816-11.836 5.0233-4.7878 0.0428-8.5738-2.1935-10.328-5.6309-3.2682-1.5118-6.0368-3.7821-7.8387-6.9124 0.69865 7.1596 6.2267 10.603 10.761 11.566l-0.46705 0.71429c4.9387 4.3155 15.962 3.2448 20.309-0.93154l-0.4957-0.497c5.0545-1.3778 10.329-6.5117 10.381-12.025" fill="#7fb7ce"/>
   <path d="m21.448 39.431c6.4622 2.9872 15.445 2.8102 22.203 0.56858-2.5227 3.7873-7.0815 5.0207-11.876 5.0623-4.7878 0.0431-8.5725-2.1922-10.328-5.6309" fill="#7fa6c4"/>
   <path d="m4.4111 18.13c0.24599 6.1149 4.8138 10.929 9.102 10.087-0.03688 0.77281-0.104 1.4051-0.104 2.0374-3.41 1.1605-10.334-2.39-8.998-12.124" fill="#7fb7ce"/>
   <path d="m52.243 27.584c4.313 0.70909 11.113-4.2283 10.229-12.659 2.7022 10.387-5.5203 16.489-10.229 12.659" fill="#7fb7ce"/>
  </g>
  <g fill="#d3d2d2">
   <path d="m22.124 64.639c1.4767 4.8542 7.2298 6.7641 10.408 5.4917 0 1.1709 0.34335 2.5045 1.1709 3.3085-5.4448 3.9057-11.534-1.9529-11.579-8.8002"/>
   <path d="m46.204 64.329c-3.0731 8.1328-11.413 10.523-13.683 5.6998-0.0767 3.1355 2.9703 5.5151 5.8221 5.3564 3.5674-0.19657 6.5833-3.7912 7.8609-11.056"/>
   <path d="m32.592 64.77c0.36031 0.64532 0.56983 1.063 0.85476 1.6133 0.36032-0.68305 0.96799-1.8423 1.4624-2.6008-0.81704 0.58808-1.6341 0.91203-2.3171 0.98749"/>
   <path d="m23.097 69.02c-2.3536 1.8306-5.3408 2.8089-8.1588 2.9338-1.7642 3.181-6.4805 1.1488-6.8955-2.658-1.1137-1.3128-2.1168-3.0535-2.1246-5.1209-1.5222 6.7082 2.956 12.111 8.5465 12.266 4.0345 0.11175 8.1978-1.3349 10.961-3.6637-0.99398-1.0239-1.677-2.2664-2.3288-3.7574"/>
  </g>
  <g>
   <path d="m14.673 71.954c-2.1363 0.52174-4.9062-0.59587-6.9085-2.9547 0.41501 3.8068 5.1456 6.1357 6.9085 2.9547" fill="#393534"/>
   <path d="m59.434 71.927c-1.6601 3.5557-5.9015 4.0462-7.343 0.96798-2.4993-0.58808-5.3616-2.6216-7.1011-4.4665-0.69865 2.0023-1.2971 3.1901-2.4147 4.633 2.9807 3.2617 8.2863 5.2588 12.711 4.9322 4.4261-0.32528 7.546-5.4969 7.7802-10.247-0.84049 1.9138-2.1259 3.289-3.6325 4.1802" fill="#d3d2d2"/>
   <path d="m59.434 71.927c-2.8063 1.6588-4.3051 1.6848-7.343 0.96798 1.4416 3.0782 5.683 2.5877 7.343-0.96798" fill="#393534"/>
  </g>
  <g fill="#0d141b">
   <path d="m19.379 12.939c-0.97448 1.2425-1.2217 0.81703-0.36806-0.51392 1.7369-2.7035 8.4724-9.0201 13.213-9.0812 3.6442-0.0468 10.874 3.9422 14.092 7.5811l-0.4918 0.93151c-3.1017-3.9369-10.293-7.7789-13.595-7.7789-4.11 0-10.467 5.8169-12.85 8.8614"/>
   <path d="m13.363 30.603c-4.9544 1.4936-11.179-4.2882-9.413-13.821 2.1597-11.657 13.057-11.379 15.826-4.9608 0.15858 0.36695-0.22386 0.76891-0.34482 0.52952-3.0652-6.0967-12.615-6.0355-14.585 4.5953-1.5274 8.2434 3.5466 14.095 8.5309 12.945z"/>
   <path d="m52.419 28.007c-0.56592-0.44366-0.33302-0.67136 0.28619-0.30979 5.1091 2.9716 12.39-3.937 9.1944-13.112-3.1043-8.9069-12.872-10.282-15.87-2.8063-0.27439 0.68305-0.58547 0.55423-0.39292-0.1549 2.256-8.3045 13.915-7.2468 17.128 2.7361 3.4803 10.812-5.5099 17.426-10.346 13.647"/>
   <path d="m24.929 44.426c-10.421-1.6627-13.09-9.9386-11.41-17.835 0.1549-0.72727 0.56725-0.6271 0.47228 0.10806-1.0486 8.1302 1.5378 14.867 11.046 17.236 0.7494 0.18882 0.63363 0.60888-0.10805 0.4905"/>
   <path d="m54.612 28.771c0.73376 7.6267-4.6746 14.017-12.542 15.19-0.88209 0.13018-0.96278-0.30057-0.12244-0.48527 7.5057-1.651 12.396-7.5421 11.855-14.86z"/>
   <path d="m25.45 36.079c-0.29135-0.50872 0.0184-0.68435 0.36179-0.2187 3.0535 4.149 10.296 3.8224 12.474-0.70385 0.28508-0.59458 0.60759-0.46059 0.39163 0.15858-1.8241 5.2288-10.581 5.3928-13.228 0.76371"/>
   <path d="m16.603 25.364c-0.53081 2.7231-0.01844 5.3759 1.0942 5.6179 1.059 0.23161 2.5123-1.6744 3.0275-4.6629 0.42283-2.442 0.33044-4.9465-0.90164-5.2002-1.0486-0.21611-2.6541 1.3492-3.22 4.2453m0.95496 6.2072c-1.8722-0.40985-2.0439-3.907-1.5717-6.3296 0.54383-2.7881 2.3796-4.9934 3.9708-4.6811 1.3635 0.26812 1.9659 2.8636 1.4493 5.852-0.61017 3.5427-2.524 5.4475-3.8484 5.1586"/>
   <path d="m45.635 20.896c-1.301 0.20689-1.9958 2.7243-1.4806 5.5463 0.53605 2.9299 1.9269 4.5549 3.3372 4.3142 1.305-0.22238 2.0882-2.4902 1.5196-5.4032-0.6635-3.3957-2.2937-4.6317-3.3762-4.4573m-2.1558 5.6452c-0.5113-2.7985 0.0428-5.8885 2.0608-6.2098 1.6289-0.25779 3.4868 1.5378 4.1464 4.9114 0.66741 3.423-0.40984 5.839-2.0882 6.1252-1.491 0.25226-3.4608-1.2295-4.1191-4.8268"/>
   <path d="m20.506 60.462c-2.3627 1.2841-6.3894 1.236-9.0929 0.68301-3.3632-0.68825-5.0129 1.422-5.3629 4.4704-0.57245 4.9895 2.1155 8.9017 6.5065 10.149 3.6962 1.0486 9.3414-0.42286 12.733-3.2422l0.52432 0.49308c-3.773 3.116-9.7981 4.5926-13.556 3.5232-4.7449-1.3479-7.6475-5.856-7.0594-10.994 0.43584-3.7977 2.9013-5.9614 6.3178-5.2627 2.4043 0.49179 6.405 0.59978 8.6337-0.37341 1.1293-0.70123 1.4025-0.0147 0.35516 0.55298"/>
   <path d="m9.4094 65.855c-1.4181 0.7858-1.7889 3.3085-0.78322 5.1365 1.2828 2.3328 3.4542 2.6398 4.7605 2.0062 1.6016-0.77281 1.7135-3.3723 0.63101-5.1885-1.3492-2.2612-3.3163-2.6684-4.6083-1.9542m-1.249 5.3993c-1.0343-1.8787-0.90942-4.7683 1.0317-5.8416 1.4493-0.80143 3.8446-0.47486 5.3811 2.1012 1.2334 2.07 0.98878 4.9895-0.90034 5.9028-1.971 0.95367-4.3702-0.0859-5.5125-2.1623"/>
   <path d="m19.919 60.588c-0.42415-5.8521 1.2828-12.839 4.0878-16.642l0.7585 0.16117c-2.9117 3.7028-4.4014 10.381-4.0996 15.912z"/>
   <path d="m50.625 61.196c-0.98878-8.7807-4.3923-14.916-7.3613-17.77l0.75721-0.25115c2.982 2.9755 6.3608 9.1281 7.3444 17.849z"/>
   <path d="m26.029 51.759c-1.4962-0.80402-2.3341-2.714-2.109-4.9062-0.44754 0.69083-1.1787 1.3388-1.8384 1.798l0.32528-0.886c0.61929-0.51001 1.1944-1.1879 1.6758-1.9945 0.22386-0.37079 0.48659-0.42544 0.39291 0.14568-0.38509 2.3601 0.25632 4.4222 1.6758 5.2145z"/>
   <path d="m35.916 50.704c1.0617-0.92111 1.465-1.8839 1.8501-3.2578 0.10031-0.3511 0.26812-0.34483 0.40461-0.0431 1.2906 2.8142 3.6924 3.561 5.117 2.701 1.1774-0.71167 1.396-3.2344 0.37208-5.0831-0.31753-0.57378 0.0221-0.76113 0.3695-0.20432 1.2867 2.0622 1.0694 4.996-0.40461 5.8404-1.6888 0.96798-4.3338 0.11985-5.5788-2.5032-0.32269 1.21-0.89772 2.2651-1.9385 3.1732z"/>
   <path d="m47.334 48.439c-1.1644-0.37211-2.4446-1.2334-2.9638-2.1779l-0.15747-0.81058c0.72207 1.033 1.7707 1.8475 2.7608 2.2664z"/>
   <path d="m49.431 61.223c1.3765-0.0295 2.6268-0.55556 3.9721-1.1488 4.7657-2.1038 10.901 0.58156 10.204 7.6436-0.73642 7.4835-5.3473 10.907-10.021 10.679-3.9565-0.19399-7.8322-1.8475-11.13-4.9192l0.51001-0.72727c3.0535 2.9846 6.7914 4.823 10.649 5.0116 4.8932 0.23824 8.5166-3.855 9.1307-10.091 0.63621-6.4519-4.7865-8.7664-9.0682-6.8747-1.4324 0.63231-2.8441 1.0434-4.3546 1.0265-1.2906-0.0148-1.1918-0.57115 0.10806-0.59977"/>
   <path d="m52.556 68.882c-0.96149 2.1519-0.67914 4.4378 1.2112 5.463 1.3609 0.73899 3.8004 0.47619 5.2978-2.213 1.0018-1.7994 0.55556-4.4561-1.1996-5.2783-2.0257-0.95106-4.335-0.15232-5.3095 2.0283m0.96146 5.9301c-2.0231-1.0981-2.6151-3.574-1.4624-6.1565 1.0942-2.4459 3.8862-3.2474 6.042-2.2586 1.9333 0.88471 2.671 3.8264 1.4988 6.0602-1.5391 2.9352-4.4977 3.2136-6.0784 2.3549"/>
   <path d="m33.928 73.688c-2.2924 1.8839-7.1948 2.04-9.9308-2.0296-3.6338-5.4019-3.168-15.044-1.1813-22.901 0.18329-0.7273 0.56076-0.64403 0.41243 0.0885-1.5599 7.7216-2.0114 17.213 1.3856 22.283 2.2989 3.4334 6.3881 3.868 8.9316 2.053z"/>
   <path d="m29.471 74.554c-0.99007-0.50743-1.7121-1.3453-2.3119-2.4056-0.32933-0.58156 7e-3 -0.77411 0.36548-0.21206 0.7702 1.2152 1.7187 2.0335 2.9768 2.5474z"/>
   <path d="m32.9 73.965c-1.3218-0.50091-2.2768-1.7928-2.4746-3.4113-0.087-0.69736 0.30573-0.75983 0.41633-0.0664 0.24857 1.5495 1.3297 2.7426 2.6632 3.1238z"/>
   <path d="m33.2 66.826c-0.27069-0.67132-0.70905-1.4428-1.0929-2.0257l0.73247-0.15859c0.26406 0.45407 0.53081 0.93026 0.76633 1.4233z"/>
   <path d="m34.833 74.804c-3.0861-2.0569-3.7782-5.8169-0.41243-10.767 2.6918-3.9642 3.5037-8.6792 4.1542-13.289 0.12355-0.8808 0.4905-0.83917 0.42025 0.0468-0.37079 4.6083-1.2555 9.6329-4.0007 13.673-3.2045 4.715-2.5123 8.0027 0.19656 9.8085 2.5604 1.707 6.5975 0.75331 8.527-3.4425 2.8961-6.297 3.7092-14.266 1.9412-22.066-0.1796-0.78971 0.21059-0.87818 0.4111-0.0937 1.9633 7.6618 1.3323 16.142-1.7004 22.581-2.2287 4.7319-6.8083 5.3668-9.5366 3.5492"/>
   <path d="m33.045 72.428c1.5261-0.36437 2.7829-1.1111 3.6312-2.0348 0.43455-0.47616 0.71296-0.26554 0.3345 0.25631-0.73247 1.0096-2.1285 1.8787-3.6858 2.2677z"/>
   <path d="m36.161 75.054c0.9875-0.5217 1.9503-1.5313 2.6112-2.4967 0.42674-0.62062 0.73638-0.44625 0.36696 0.21095-0.54512 0.97186-1.4312 1.9659-2.3263 2.5305z"/>
   <path d="m31.714 44.761c11.082 0.156 15.809-7.5746 10.605-15.761-1.5925-2.5045-2.3171-4.8334-3.2747-7.7503-1.8553-5.6569-5.1677-7.1401-7.3756-7.1375-3.1811 1e-3 -5.9978 2.7244-7.036 7.0373-0.72207 2.9937-1.1865 4.9283-2.2651 7.0451-4.3585 8.5712 0.27696 16.437 9.3466 16.566m0.0111 0.60106c-9.3089 0-14.756-8.0053-9.936-17.483 1.0538-2.0712 1.4962-3.9135 2.2092-6.8773 1.193-4.9544 4.2661-7.6423 7.6488-7.6592 2.6411-0.0148 6.0524 1.7954 8.0092 7.7386 0.98096 2.9768 1.7108 5.1078 3.2747 7.5681 5.6062 8.8184 0.58285 16.713-11.206 16.713"/>
  </g>
  <path d="m36.717 55.356c-0.22386-2.4381-0.85609-5.1664-1.8449-7.9701-1.2334-3.4933-2.2612-12.736-2.2092-17.357-0.95755 0.40723-1.9828 0.41763-3.0678-0.052 0.0509 4.5185-0.9224 13.242-2.4771 17.204-0.9615 2.4472-1.5456 5.3733-1.6159 8.1354 3.2747-2.6424 7.8153-2.8376 11.215 0.0402" fill="#99def9"/>
  <path d="m31.225 64.896c4.391 0 5.9965-4.0228 5.4917-9.5405-3.3996-2.8779-7.9389-2.6827-11.215-0.0402-0.1276 5.0649 1.4819 9.5808 5.7232 9.5808" fill="#fff"/>
  <path d="m31.101 29.994c2.632 0 5.5464-2.5149 5.5698-4.054 0.0148-0.93155-1.7707-2.1168-5.303-2.1168-3.3332 0-5.3837 1.1501-5.2978 2.2937 0.12354 1.6211 2.8324 3.8758 5.0311 3.8771m0.0443 0.59196c-2.7283 0.0332-5.7194-2.6072-5.8586-4.4547-0.11986-1.569 2.1962-2.8935 6.0368-2.9429 3.6598-0.0494 6.1201 1.2945 6.0953 2.7803-0.0295 2.1025-3.3489 4.581-6.2736 4.6174" fill="#0d141b"/>
  <path d="m33.043 29.863c-0.16264 5.8234 0.94843 14.052 2.3926 18.337 4.0137 11.907 1.0578 17.503-4.6915 17.034-5.3174-0.44233-7.3483-7.8726-4.1607-17.473 1.3141-3.9565 2.9443-12.388 2.6945-17.874l0.65053 0.17554c0.20542 5.5892-1.3791 13.974-2.662 17.943-3.2161 9.949-0.41501 16.091 3.5557 16.42 4.6044 0.38248 7.8153-4.041 3.9825-16.018-1.504-4.6968-2.4655-12.373-2.3874-18.328z" fill="#0d141b"/>
 </g>
</svg>
