<?xml version="1.0" encoding="UTF-8" standalone="no"?>
<!-- Created with Inkscape (http://www.inkscape.org/) -->

<svg
   version="1.1"
   viewBox="0 0 173.07 282.3"
   id="svg130"
   sodipodi:docname="638.svg"
   inkscape:version="1.3 (0e150ed, 2023-07-21)"
   xmlns:inkscape="http://www.inkscape.org/namespaces/inkscape"
   xmlns:sodipodi="http://sodipodi.sourceforge.net/DTD/sodipodi-0.dtd"
   xmlns="http://www.w3.org/2000/svg"
   xmlns:svg="http://www.w3.org/2000/svg">
  <defs
     id="defs130" />
  <sodipodi:namedview
     id="namedview130"
     pagecolor="#505050"
     bordercolor="#eeeeee"
     borderopacity="1"
     inkscape:showpageshadow="0"
     inkscape:pageopacity="0"
     inkscape:pagecheckerboard="0"
     inkscape:deskcolor="#d1d1d1"
     inkscape:zoom="0.41799506"
     inkscape:cx="89.713979"
     inkscape:cy="165.07372"
     inkscape:window-width="1312"
     inkscape:window-height="431"
     inkscape:window-x="255"
     inkscape:window-y="261"
     inkscape:window-maximized="0"
     inkscape:current-layer="svg130" />
  <path
     d="m 135.23114,236.29844 c -0.5236,5.7121 -1.689,15.737 -4.3131,19.993 l 22.442,8.9773 c 2.9725,-1.0492 10.276,-3.9993 10.609,-5.071 0.52495,-1.691 -0.21867,-5.761 -0.81631,-8.5691 -1.166,-5.4791 -2.5664,-18.943 -3.1484,-24.598 z"
     id="path1-0"
     style="fill:#dce7ed" />
  <path
     d="m 83.931137,246.84844 c -0.40881,4.3144 -1.837,10.405 -2.9155,13.874 -1.0777,3.4676 -2.0401,6.8781 -2.0401,9.5009 l 29.029003,8.8028 c 2.7104,-0.58405 7.4649,-1.6048 8.2194,-3.2068 1.399,-2.9732 -1.5742,-18.012 -8.6269,-37.597 z"
     id="path2-2"
     style="fill:#dce7ed" />
  <path
     d="m 27.120137,241.71844 c -1.7691,7.342 -6.0252,15.385 -5.909,18.241 l 18.537,12.125 c 5.1301,-1.2822 11.589,-3.7569 13.524,-4.4883 2.6234,-0.99083 3.3005,-2.529 2.5066,-5.655 -0.93311,-3.672 -3.7725,-17.909 -4.2975,-22.222 z"
     id="path3-4"
     style="fill:#dce7ed" />
  <path
     d="m 74.210137,47.858444 c -9.7977,1.5681 -20.849,8.4652 -27.825,15.99 -4.0713,0.31104 -8.3851,1.0187 -10.894,1.6455 1.4601,3.2122 3.0703,8.252 1.8092,11.548 -1.5151,3.9634 -7.3447,11.775 -13.29,15.854 3.0907,1.2829 5.3644,9.502196 4.9555,14.864996 l -6.1209,54.678 c 0.0876,3.8173 2.3613,10.638 5.9457,15.097 -0.34975,5.7705 0.96028,15.697 2.4489,23.375 2.0109,10.376 0.26146,22.53 -2.1861,33.46 1.3114,3.4968 3.5898,7.7508 4.7212,7.9566 1.924,0.34908 11.717,-5.1593 16.788,-9.6184 -2.9725,-11.104 4.197,-31.214 8.9189,-36.899 2.0693,0.32054 5.5674,0.37964 7.8398,-0.20307 2.1562,4.9549 5.9654,10.049 8.5107,13.669 5.5959,7.9566 8.2187,20.198 8.2187,28.679 2.5358,4.0224 5.7725,7.8948 7.0825,7.9566 1.8364,0.0877 11.454003,-11.104 13.640003,-15.476 -3.3515,-10.405 -4.6988,-29.11 -4.0224,-34.975 0.26282,-2.2737 0.55416,-4.3722 0.72869,-6.908 5.5674,-1.3548 12.649,-0.34976 16.147,3.2652 1.3983,3.8472 5.2455,8.9759 8.9182,11.687 4.7694,3.5199 10.953,13.417 9.6184,25.881 1.6312,2.1277 4.4292,5.306 5.5953,5.3331 2.4482,0.0577 14.282,-13.057 16.962,-19.061 -0.87403,-3.4975 -3.1253,-6.527 -4.9827,-9.0941 -3.6734,-5.0703 -4.635,-12.416 -3.8479,-20.198 0.78711,-7.7814 1.1362,-26.318 -1.8363,-33.314 -5.3888,-12.68 -17.749,-18.186 -27.892,-15.826 l -37.627003,-2.1861 c -16.205,-6.9949 -21.57,-42.887996 -19.235,-63.653996 0.58202,-5.1878 4.6622,-15.563 10.911,-23.529"
     fill="#00a2b5"
     id="path4-8" />
  <path
     d="m 33.725137,54.953444 c -7.6639,2.3878 -13.977,6.7369 -17.716,11.051 -4.3314,4.9983 -10.2190003,7.7196 -15.1050003,8.3858 l 0.0557,0.55551 c 1.1654,0 3.3311,0.0556 3.6645,0.83328 4.1094,-0.94465 6.8863003,-2.11 9.7746003,-3.4981 0.16706,-2.9433 6.9739,-9.744 16.382,-13.328 0.98065,-0.3742 1.4615,-0.81155 1.5491,-1.6856 0.0604,-0.60917 0.47131,-1.435 1.3942,-2.3131"
     fill="#525557"
     id="path5-3" />
  <path
     d="m 35.490137,65.494444 c -7.5688,1.4146 -15.787,4.07 -20.128,6.3029 -4.3396,2.2336 -8.7145003,3.6869 -10.6190003,3.9199 -1.0119,-0.50594 -2.656,-1.0119 -4.2146,-0.63226 2.1046,6.7036 6.1413,10.873 13.8660003,13.316 3.3284,1.0533 7.0948,2.7552 9.615,4.4965 4.2119,-2.4041 12.577,-12.124 13.48,-16.525 0.70017,-3.4105 -0.45637,-8.1155 -1.9987,-10.878"
     fill="#dce7ed"
     id="path6-9" />
  <path
     d="m 16.085137,71.493444 c 5.4757,5.6217 15.352,5.2516 16.299,-5.251 -5.0791,0.91817 -11.076,2.726 -16.299,5.251"
     fill="#ffffff"
     id="path7-0" />
  <path
     d="m 23.221137,75.019444 c -1.9498,-2.3124 -1.2849,-6.0659 1.2815,-6.8265 3.0092,-0.891 5.3773,2.2289 4.597,5.2659 -1.365,1.1708 -4.0672,1.7555 -5.8785,1.5606"
     fill="#e7b681"
     id="path8-5" />
  <path
     d="m 43.035137,96.149444 c -4.6764,10.114996 -20.843,16.906996 -33.013,10.865996 0.57114,2.599 2.8598,6.343 7.5898,8.2663 -17.9950003,11.501 -11.5110003,43.737 14.15,50.801 9.5308,2.6228 17.4,9.1804 16.525,15.65 4.8095,-1.7487 6.5583,-13.028 1.8364,-19.411 3.0316,-1.0486 6.5868,1.0492 7.5199,5.7718 2.8571,-4.7803 -0.0583,-13.524 -6.3545,-17.254 3.382,0.46655 7.054,-1.399 8.2785,-4.4299 -17.603,1.1076 -22.982,-17.475 -18.887,-37.365 0.81629,-3.964 1.5613,-7.7189 2.3545,-12.893996"
     fill="#ffffff"
     id="path9-2" />
  <path
     d="m 29.052137,234.36844 c -0.67369,2.5345 -1.4139,5.3481 -1.9321,7.3474 1.2584,3.5545 3.7019,9.7732 5.109,9.996 1.4065,0.22275 15.253,-7.4044 19.252,-11.995 -0.3708,-1.7766 -0.96368,-4.8863 -1.1844,-6.9596 -3.4058,3.5538 -14.377,9.7067 -16.523,9.5681 -1.3963,-0.0904 -3.9735,-5.9749 -4.7212,-7.9566"
     id="path10-2"
     style="fill:#525557" />
  <path
     d="m 39.866137,271.84844 c -1.2244,-10.668 -14.531,-14.81 -20.52,-11.017 -1.7481,1.107 -5.6476,2.4998 -7.6937,2.7402 -1.9830003,0.23226 -2.9474003,1.2964 -2.7396003,2.6812 0.34974,2.3308 0.87471,4.4292 2.1569003,5.4791 1.2815,1.0492 9.7949,3.5532 12.649,3.3813 2.9148,-0.17515 11.309,-1.8071 16.147,-3.2645"
     id="path11-7"
     style="fill:#525557" />
  <path
     d="m 81.621137,229.61844 1.9423,1.7657 c 0.24788,2.1888 0.45976,5.7569 0.49508,8.2642 -0.84822,-0.95417 -2.5786,-2.9311 -3.6027,-4.5908 0.38846,-1.2713 1.0588,-3.9912 1.1654,-5.4391"
     id="path12-3"
     style="fill:#525557" />
  <path
     d="m 83.821137,247.53844 c -2.2737,-0.34973 -4.838,0.11628 -6.5277,1.3997 -1.6917,1.2822 -4.252,1.8554 -5.5966,1.9233 -2.3314,0.11629 -2.8564,1.9824 -2.9155,3.6143 -0.0565,1.6312 0.68318,4.0401 2.5073,5.0133 2.6234,1.3983 7.0533,1.5735 9.7345,1.2238 1.0492,-3.3813 2.2737,-9.2109 2.798,-13.174"
     id="path13-7"
     style="fill:#525557" />
  <path
     d="m 84.051137,238.33844 c 0.11617,2.6228 0.17515,5.7698 -0.11616,8.5094 1.399,2.9148 5.6537,8.3953 7.0533,8.4537 1.3983,0.0577 12.999003,-11.658 16.613003,-17.08 -0.99081,-2.216 -2.2153,-5.3623 -2.7396,-7.4031 -2.0985,3.0893 -12.183003,15.271 -13.640003,15.33 -1.4574,0.0583 -5.4214,-5.4201 -7.1701,-7.8106"
     id="path14-9"
     style="fill:#525557" />
  <path
     d="m 108.01114,279.01844 c -1.9233,-11.542 -15.242003,-15.574 -20.868003,-12.241 -1.5742,0.93243 -6.1739,2.8788 -7.8696,3.2639 -2.565,0.58334 -3.7888,2.0985 -3.7888,4.2553 0,2.1569 0.70017,4.8544 2.4482,5.5376 3.7311,1.4574 13.991,2.216 17.487,1.7487 3.4975,-0.46588 9.210203,-1.5151 12.591003,-2.5644"
     id="path15-0"
     style="fill:#525557" />
  <path
     d="m 136.04114,229.00844 c 1.8648,2.7396 4.6567,5.7359 5.7121,5.7121 2.5073,-0.0577 14.924,-13.991 16.963,-19.061 0.52429,1.9824 0.99085,7.928 1.2822,11.367 -2.6228,3.6143 -16.027,16.205 -18.595,16.205 -1.6903,0 -5.0133,-4.8387 -6.1786,-6.9372 0.29202,-2.1562 0.75788,-4.7803 0.81631,-7.2863"
     id="path16-2"
     style="fill:#525557" />
  <path
     d="m 153.59114,265.14844 c -0.33616,-8.9644 -10.649,-16.074 -18.012,-11.308 -1.9824,1.2822 -5.2469,2.9148 -7.2286,3.4391 -1.9817,0.52495 -3.2645,1.6312 -3.0309,3.8472 0.23293,2.2153 1.7474,6.0041 3.3806,6.762 1.6326,0.75721 9.0343,1.399 11.542,1.107 2.5066,-0.29202 10.376,-2.5644 13.349,-3.8472"
     id="path17-3"
     style="fill:#525557" />
  <path
     d="m 57.505137,93.007444 c -1.8112,-0.70494 -7.4323,7.300496 -7.4982,9.668596 -0.0659,2.3681 1.7759,4.7362 3.289,4.6696 1.5124,-0.0653 5.3929,-13.877996 4.2092,-14.337996"
     id="path18-9"
     style="fill:#525557" />
  <path
     d="m 56.304137,106.76844 c -1.3997,0.35045 -5.3053,11.716 -4.1976,12.474 1.107,0.75788 6.7029,-8.2771 6.7029,-9.7929 0,-1.5151 -1.3399,-2.9725 -2.5053,-2.6812"
     id="path19-9"
     style="fill:#525557" />
  <path
     d="m 133.60114,164.18844 c -1.217,0.30494 0,7.1124 1.1661,9.9681 1.166,2.8564 4.3355,7.6034 5.1878,7.3447 1.9239,-0.58337 -4.0218,-17.896 -6.3539,-17.313"
     id="path20-7"
     style="fill:#525557" />
  <path
     d="m 140.47114,167.73844 c -0.81292,0.21531 1.5402,7.763 2.7688,7.6944 0.78643,-0.0436 1.4425,-2.273 1.1803,-3.5844 -0.23227,-1.1606 -2.9576,-4.3722 -3.9491,-4.1101"
     id="path21-0"
     style="fill:#525557" />
  <path
     d="m 22.260137,60.545444 c 1.8662,-1.6319 2.5657,-3.1477 2.5657,-6.5284 0,-2.2737 1.0689,-4.5304 3.1477,-5.8296 3.2645,-2.0401 8.1481,-6.2078 8.6269,-8.0442 0.35043,-1.3413 0.0583,-3.7888 -0.64109,-5.4207 -0.69949,-1.6326 -0.38846,-2.7267 0.93311,-4.6635 4.2547,-6.237 19.663,-22.28 19.964,-25.094 -2.3267,-0.47674 -22.92,16.624 -27.659,21.364 -2.798,2.798 -4.6051,6.2364 -3.0316,11.075 -7.4024,5.5959 -13,13.174 -10.143,18.944 -1.399,1.9824 -2.9922,3.8873 -4.6058,5.4214 -2.3891003,2.273 -3.9049003,5.7712 -2.6228003,9.7929 2.5066003,-0.99084 6.0048003,-3.9049 7.5783003,-5.8289 1.5735,-1.9233 3.9049,-4.0224 5.8866,-5.1878"
     id="path22-3"
     style="fill:#e7b681" />
  <path
     d="m 14.399137,72.280444 c 1.3908,-4.7396 9.1878,-10.833 16.576,-13.44 0.74364,-0.26282 1.1803,-0.65603 1.3121,-1.3121 0.41766,-2.0897 3.5857,-4.8856 6.7756,-5.6829 0.0441,-1.1368 -0.0435,-2.1861 -0.30561,-3.4975 -1.1905,-5.9532 5.818,-12.162 15.098,-13.801 3.8968,-0.68795 6.0034,-3.3223 6.0034,-6.8774 0,-4.9175 3.3806,-8.2778 10.259,-12.475 8.252,-5.0357 19.993,-13.727 23.877,-14.654 -1.2306,3.6666 -23.237,20.192 -24.402,29.926 -0.94602,7.9016 -7.725,12.329 -17.545,14.573 -2.0401,0.46588 -3.6143,1.9817 -3.2061,4.6628 0.77758,5.1172 -5.1885,11.426 -15.564,16.38 -5.0133,0.99152 -14.266,3.3005 -18.879,6.1977"
     id="path23-9"
     style="fill:#e7b681" />
  <path
     d="m 75.190137,164.53844 c -1.257,0.9107 -2.1365,0.52429 -2.0985,-0.93311 0.47538,-18.549 20.357,-50.666 35.703003,-56.98 0.94806,-0.3905 1.6,0.0206 1.3514,1.8581 -0.56436,4.1746 -4.6445,19.68 -6.0435,24.111 5.9457,-2.7396 15.447,-5.9409 19.062,-6.4123 1.3406,-0.17454 2.218,0.10448 1.5151,1.7494 -3.0893,7.2272 -10.55,20.867 -14.864,27.455 2.5644,-0.40816 9.2095,-0.69949 11.308,-0.5243 2.0985,0.17454 1.9742,1.1586 0.81631,2.4476 -2.565,2.8564 -12.857,11.119 -17.546,14.048 -1.399,0.87469 -1.8784,0.58677 -1.8642,-1.0492 0.12362,-15.247 -13.720003,-15.64 -27.339003,-5.7705"
     id="path24-8"
     style="fill:#e7b681" />
  <path
     d="m 124.71114,126.90844 c 12.416,-14.689 31.533,-26.744 39.696,-28.241996 1.308,-0.23973 2.1515,-0.0841 1.238,1.633996 -1.8499,3.4812 -8.4517,17.252 -11.031,24.16 3.454,-1.312 12.64,-3.6897 16.395,-3.979 1.1368,-0.0877 2.0224,0.20985 1.1368,1.5735 -3.5117,5.4065 -13.83,21.029 -18.202,28.607 4.1977,1.8648 10.697,5.6822 12.766,7.7521 0.93243,0.9331 0.62887,1.2448 -1.2244,1.9824 -4.3436,1.729 -7.1722,2.7206 -11.542,4.0218 2.0401,0.81629 5.6544,2.6812 5.6544,3.4975 0,0.81631 -4.1983,2.3314 -9.3847,2.4482 2.2146,-24.657 -16.496,-35.937 -30.049,-33.139 2.5351,-4.3423 4.5759,-8.7145 4.5467,-10.317"
     fill="#dce7ed"
     id="path25-6" />
  <path
     d="m 84.051137,239.64844 c -1.1695,-1.0214 -2.6268,-2.711 -3.6027,-4.5908 -1.3562,5.3182 -3.6869,12.022 -5.5525,14.937 1.1654,-0.46587 2.7389,-1.1076 3.7304,-1.7487 0.99085,-0.64041 3.5552,-0.99152 5.1871,-0.69949 0.23361,-3.0893 0.35043,-5.7705 0.2377,-7.8975"
     fill="#dce7ed"
     id="path26-5" />
  <path
     d="m 25.462137,70.491444 c -0.4326,0.0129 -0.7545,0.52293 -0.7545,1.2489 0,0.69609 0.2309,1.3643 0.7253,1.3929 0.49372,0.0298 0.7837,-0.60986 0.7837,-1.3637 0,-0.64042 -0.31851,-1.2903 -0.7545,-1.2781"
     fill="#0f141b"
     id="path27-7" />
  <path
     d="m 18.763137,44.690444 c -1.8649,3.4384 -2.1997,7.9124 -1.384,9.3413 -0.39321,0.61121 -0.87403,1.4424 -1.3256,2.2587 -2.1284,-2.7402 -0.32122,-8.7145 2.7097,-11.6"
     id="path28-6"
     style="fill:#c2996c" />
  <path
     d="m 10.195137,70.979444 c -0.7579003,-3.8472 2.2153,-7.344 6.4116,-9.909 3.2326,-1.9756 4.726,-4.5868 4.7796,-6.8781 0.0849,-3.6007 1.5097,-6.2649 4.4306,-8.3355 3.2061,-2.2737 6.1508,-4.5813 7.2856,-6.0625 1.3419,-1.7487 1.674,-3.255 0.67097,-5.3922 -0.67097,-1.4275 -1.0669,-3.4968 0.24448,-5.1817 4.5162,-5.8078 16.106,-18.776 22.751,-24.022 0.20513,1.9335 -17.938,21.212 -20.577,25.735 -0.81697,1.399 -0.74974,2.819 -0.0583,4.4306 1.0492,2.4482 1.0071,4.9134 -1.399,7.4031 -1.6903,1.7487 -4.3722,3.9049 -6.6452,5.4785 -2.8048,1.943 -3.1532,4.0238 -3.2061,5.888 -0.0577,2.0401 -0.36333,4.0509 -1.9966,5.7997 -2.6228,1.6177 -4.9834,3.9348 -6.2954,5.4649 -1.3114,1.5301 -4.1813,4.2404 -6.3966,5.581"
     id="path29-2"
     style="fill:#c2996c" />
  <path
     d="m 27.434137,36.413444 c -0.52428,-2.7545 -0.43803,-6.2954 0.87403,-8.7437 -2.3172,2.0543 -3.1912,5.4207 -2.2737,9.7929 0.48082,-0.39321 0.91885,-0.69949 1.3997,-1.0492"
     id="path30-7"
     style="fill:#c2996c" />
  <path
     d="m 17.588137,70.830444 c 1.9851,-3.6394 9.1695,-8.1297 14.841,-8.9807 1.3759,-0.20577 2.2099,-0.57658 2.5515,-1.5599 0.99083,-2.8557 5.5837,-5.8058 8.4286,-6.7498 1.8166,-0.60238 2.3226,-2.1318 1.9932,-3.545 -0.83397,-3.5688 1.0621,-6.5943 4.9549,-7.5776 10.609,-2.6812 15.249,-7.8805 16.117,-13.611 0.43736,-2.8856 3.6156,-7.9213 7.1702,-10.93 4.5467,-3.8472 14.908,-12.765 20.242,-17.225 1.2387,0.7871 -14.673,14.954 -16.832,17.225 -3.3223,3.4975 -6.6452,8.3362 -7.2856,12.124 -1.473,8.7036 -8.3545,12.889 -17.138,14.981 -2.4482,0.58337 -4.2499,1.5898 -3.7895,4.489 0.81699,5.1301 -5.1878,11.717 -15.68,16.613 -4.1352,0.77555 -11.225,2.7613 -15.574,4.7464"
     id="path31-0"
     style="fill:#c2996c" />
  <path
     d="m 39.588137,43.976444 c -0.65536,3.454 1.1341,5.8126 0.78438,7.6048 l -1.3956,0.48285 c 0.0869,-1.3983 -0.0877,-2.8856 -0.26282,-3.7155 -0.17516,-0.83124 -0.21869,-3.4981 0.87403,-4.3722"
     id="path32-3"
     style="fill:#c2996c" />
  <path
     d="m 50.306137,54.031444 c 2.0054,0.38641 3.5891,1.1246 5.0676,1.8995 5.418,-3.5538 12.701,-6.8611 18.261,-8.0924 -5.3487,-0.7742 -17.417,1.3019 -23.328,6.1929"
     fill="#008d9f"
     id="path33-9" />
  <path
     d="m 33.535137,65.880444 c 2.383,-0.68116 9.4296,-1.7807 12.913,-2.0428 2.0414,-2.1216 6.3633,-6.1032 9.0615,-7.8316 -1.4669,-0.78575 -4.2438,-1.9905 -7.3331,-2.3049 -1.9912,4.2425 -8.8537,9.7698 -14.642,12.179"
     fill="#525557"
     id="path34-9" />
  <path
     d="m 28.421137,89.286444 c -1.3773,1.2985 -2.8557,2.546 -4.1779,3.5525 3.835,2.5705 4.8971,11.890996 4.8971,15.038996 4.2547,-1.1654 8.218,-4.3138 9.7474,-6.252 -1.6387,-6.396596 -6.0109,-10.297996 -10.467,-12.339996"
     fill="#008d9f"
     id="path35-9" />
  <path
     d="m 20.414137,87.491444 c -4.2065,-2.5637 -9.8615,-2.8272 -12.5560003,-2.038 2.9202003,2.2554 10.9050003,3.7134 16.3850003,7.3854 1.3222,-1.0065 2.8007,-2.254 4.1779,-3.5525 -2.8706,-1.3155 -5.7759,-1.8601 -8.0068,-1.7949"
     fill="#b9c3c8"
     id="path36-1" />
  <path
     d="m 23.547137,68.468444 c -2.7491,0.86656 -5.2897,1.8228 -7.3739,2.8421 l 0.39457,0.60306 c 1.6598,-0.52699 3.5878,-1.0649 5.655,-1.5844 0.22547,-0.70085 0.65195,-1.4071 1.3243,-1.8608"
     fill="#dcdddd"
     id="path37-7" />
  <path
     d="m 25.233137,67.953444 c -0.57046,0.16775 -1.1321,0.34024 -1.6863,0.51545 -0.67301,0.45365 -1.0995,1.1599 -1.325,1.8608 1.8214,-0.45773 3.7494,-0.89916 5.7195,-1.306 -0.745,-0.80407 -1.7148,-1.1267 -2.7083,-1.0703"
     fill="#c2996c"
     id="path38-2" />
  <path
     d="m 25.233137,67.953444 c 0.99355,-0.0564 1.9633,0.26622 2.7083,1.0703 1.3847,-0.28591 2.7878,-0.55213 4.1807,-0.79593 0.15485,-0.71579 0.25331,-1.4153 0.28863,-2.1202 -2.4095,0.54125 -4.8482,1.1613 -7.1776,1.8458"
     id="path39-3"
     style="fill:#dcdddd" />
  <path
     d="m 10.416137,107.19844 c 1.8914,3.0968 6.6296,6.0985 10.154,6.5936 -1.0927,0.3932 -2.0543,0.96163 -2.8856,1.53 -3.1036,-0.74296 -7.7168003,-5.5368 -7.2686,-8.1236"
     id="path40-6"
     style="fill:#dcdddd" />
  <path
     d="m 8.0671367,140.28844 c 2.5182003,5.4051 6.1229003,9.2999 9.8853003,12.037 7.6639,5.5722 19.426,4.1358 25.06,-4.7511 2.3905,2.0265 4.3722,2.9732 6.9365,3.3236 6.8537,1.6645 10.833,11.833 7.8092,17.235 -0.69882,-3.2652 -3.1457,-6.6262 -7.401,-5.9274 3.9633,7.1117 3.1484,17.371 -2.0978,19.819 0.60781,-6.0897 -4.3416,-11.753 -14.923,-15.214 -15.505,-5.0723 -21.801,-12.767 -25.2690003,-26.523"
     id="path41-5"
     style="fill:#dcdddd" />
  <path
     d="m 40.856137,145.41844 c 6.8843,3.7311 14.874,4.0435 18.712,1.2238 -2.6302,5.0092 -11.434,7.2672 -18.712,-1.2238"
     id="path42-5"
     style="fill:#dcdddd" />
  <path
     d="m 66.679137,181.49844 c -3.7888,0.69881 -12.299,-1.3997 -14.638,-4.3185 -0.76877,2.563 -2.855,4.419 -3.9735,4.6323 1.5987,-7.0357 -7.143,-12.312 -14.605,-14.978 -4.256,-1.5199 -7.2489,-2.6112 -10.502,-4.5141 -0.11612,6.0625 4.1766,14.21 8.9569,19.281 0.39253,6.1983 1.2448,13.07 6.2235,20.016 5.507,7.6842 7.2639,12.893 7.0873,22.608 -0.0583,3.2428 0.28727,7.4011 0.85976,11.82 1.3705,-0.96708 2.9698,-2.1684 4.2669,-3.2598 -0.39797,-3.3155 -0.57998,-6.034 -0.43805,-7.655 0.72395,-8.2221 4.0652,-21.001 9.4846,-29.243 3.2645,0.34905 5.9959,0.18336 8.0944,-0.34094 -2.0408,-4.838 -1.5735,-10.609 -0.81631,-14.048"
     fill="#008d9f"
     id="path43-8" />
  <path
     d="m 47.209137,243.46844 c 1.4044,-1.0384 2.8903,-2.2003 4.2092,-3.3318 -0.43056,-2.618 -0.79592,-5.1172 -1.0635,-7.3481 -1.2971,1.092 -2.8964,2.2934 -4.2669,3.2604 0.31442,2.4306 0.69746,4.9386 1.1212,7.4194"
     fill="#38393a"
     id="path44-1" />
  <path
     d="m 55.866137,261.66844 c -1.5029,-5.8221 -3.2333,-14.145 -4.4482,-21.534 -1.3189,1.1314 -2.8048,2.2934 -4.2092,3.3318 0.99762,5.8506 2.2133,11.541 3.2652,15.648 0.71035,2.7749 -0.26214,4.2846 -2.0109,5.3345 -1.1484,0.68862 -5.1763,2.2425 -9.7875,3.7487 0.42853,1.128 0.80951,2.4082 1.0683,3.7148 5.3311,-1.3956 10.386,-2.9338 12.634,-3.9144 3.1892,-1.3901 4.5223,-2.3253 3.488,-6.3294"
     fill="#b9c3c8"
     id="path45-4" />
  <path
     d="m 23.738137,271.82844 c -3.2897,0.15831 -8.1508,-0.39321 -11.588,-1.6211 -1.2285,-0.43803 -2.1603003,-1.1294 -2.8971003,-2.3076 0.0876,1.3114 0.73752,3.0207 1.4363003,3.5457 1.6509,1.238 8.8313,3.5844 12.751,3.6598 2.6452,0.0515 9.6877,-1.4594 16.302,-3.1912 -0.25807,-1.3066 -0.63906,-2.5868 -1.0683,-3.7148 -5.4099,1.7684 -11.623,3.4703 -14.937,3.6292"
     fill="#38393a"
     id="path46-7" />
  <path
     d="m 102.49114,180.92844 c 4.2798,-2.5881 9.9219,-2.7735 14.937,-0.74635 -0.58676,2.5549 -0.62275,7.9647 0.1345,11.113 -4.3131,-2.4489 -8.1603,-4.6642 -16.03,-2.4489 0.41833,-3.4758 1.1586,-5.3556 0.95891,-7.9179"
     fill="#008d9f"
     id="path47-1" />
  <path
     d="m 109.41114,188.49844 c 0.66961,-1.0934 -7.6143,-0.45432 -7.7386,0.40273 -0.68726,4.7267 -1.4065,9.7671 -1.1844,14.431 0.26215,5.5084 1.8364,18.974 3.7596,25.182 1.4866,-3.5844 0.88283,-9.4452 -0.0868,-13.028 -1.9382,-7.1552 1.3772,-20.664 5.2503,-26.987"
     fill="#008d9f"
     id="path48-3" />
  <path
     d="m 68.836137,254.21844 c 1.3352,1.0812 5.9348,0.85568 7.9566,-0.52428 1.6475,-1.124 4.0224,-2.4482 6.383,-2.8856 -0.26214,2.8856 -1.0492,6.9073 -2.1861,10.055 -6.1202,0.52495 -12.941,-0.96165 -12.154,-6.6452"
     fill="#38393a"
     id="path49-8" />
  <path
     d="m 107.23114,238.26844 c 2.766,10.484 6.2744,32.223 5.238,34.484 -0.42919,0.93585 -2.7022,1.947 -5.6143,2.8238 0.38235,1.056 0.64041,2.2323 0.79863,3.6204 4.3892,-1.1124 8.2955,-2.4068 8.8381,-3.3834 1.7481,-3.1484 -5.3175,-29.098 -9.2605,-37.545"
     fill="#b9c3c8"
     id="path50-4" />
  <path
     d="m 95.331137,277.82844 c -5.2462,0.43736 -12.615,0.16509 -15.126,-0.43735 -2.1861,-0.52427 -3.5851,-1.6611 -4.4985,-4.0992 -0.31038,2.089 -0.39797,6.5474 4.5854,7.4221 4.9841,0.87402 12.139,1.09 15.477,0.78641 2.4279,-0.22002 7.407203,-1.1654 11.885003,-2.2995 -0.15894,-1.3881 -0.41699,-2.5643 -0.79865,-3.621 -3.619,1.09 -8.227503,1.9742 -11.524003,2.2486"
     fill="#38393a"
     id="path51-8" />
  <path
     d="m 131.09114,256.31844 c 1.399,-0.52428 2.5352,-1.0492 4.3722,-2.2438 1.1273,-3.9742 2.0475,-8.601 2.6954,-13.455 -0.89305,-1.1375 -1.8024,-2.4829 -2.7029,-3.9504 -0.87133,7.2577 -2.3586,15.237 -4.3647,19.65"
     fill="#b9c3c8"
     id="path52-0" />
  <path
     d="m 139.19114,223.29844 c -0.16714,-8.5372 -3.4465,-15.674 -10.143,-21.335 -6.965,-5.8873 -10.812,-9.9097 -12.24,-18.07 -0.81631,10.463 5.5375,16.117 10.259,20.052 4.7226,3.9348 9.0941,12.854 9.2686,19.499 0.0386,1.4411 -0.023,3.4425 -0.17721,5.7705 0.89781,1.2421 1.9138,2.4944 2.7932,3.473 0.21188,-3.1633 0.29948,-6.328 0.2404,-9.3895"
     fill="#008d9f"
     id="path53-4" />
  <path
     d="m 136.16114,229.20844 c -0.14948,2.2499 -0.38504,4.8041 -0.70425,7.4561 0.90051,1.4669 1.8099,2.8122 2.7029,3.9498 0.34839,-2.6003 0.61596,-5.2645 0.79388,-7.9328 -0.87947,-0.97861 -1.8947,-2.2309 -2.7925,-3.473"
     fill="#38393a"
     id="path54-6" />
  <path
     d="m 140.01114,265.49844 c -3.8472,0.46589 -8.3063,0.69813 -10.492,-5.4e-4 -1.7942,-0.57454 -2.6805,-1.5151 -3.9633,-3.6136 0.29134,2.3015 1.4255,5.1579 3.1321,5.8431 2.2886,0.91818 8.6241,1.5701 11.542,1.1362 2.9005,-0.43055 8.3593,-1.9694 13.326,-3.7243 -0.13983,-1.2163 -0.3932,-2.4116 -0.71171,-3.4411 -4.8734,1.8214 -10.658,3.5369 -12.832,3.8004"
     fill="#38393a"
     id="path55-0" />
  <path
     d="m 154.87114,208.04844 c -2.0985,-2.798 -4.4584,-6.8204 -5.071,-11.717 0,6.2961 2.1861,10.668 4.3722,14.252 1.4384,2.36 2.4258,5.0961 2.9304,8.0136 0.54735,-0.82582 1.0947,-1.6774 1.6319,-2.5508 -0.90525,-3.433 -2.4604,-6.1277 -3.8635,-7.998"
     fill="#008d9f"
     id="path56-3" />
  <path
     d="m 162.65114,248.09844 c -0.76063,-4.7538 -2.0448,-14.513 -2.7131,-20.956 -0.72733,0.76671 -1.4913,1.5681 -2.2336,2.3423 0.80613,12.196 3.6027,26.313 2.7606,28.145 -0.4584,0.99695 -3.8771,2.6683 -7.6279,4.07 0.31919,1.0296 0.57249,2.2248 0.71239,3.4411 4.9426,-1.7474 9.397,-3.7073 10.355,-5.0044 0.49508,-0.6703 -0.39049,-6.6397 -1.2536,-12.037"
     fill="#b9c3c8"
     id="path57-2" />
  <path
     d="m 159.51114,221.68844 c -0.0285,-2.0584 -0.32122,-3.9396 -0.77081,-5.6421 -0.53716,0.87334 -1.0846,1.725 -1.6319,2.5508 0.26282,1.5158 0.40272,3.0764 0.39186,4.6648 -0.0123,1.9593 0.0686,4.0591 0.21189,6.218 0.7416,-0.77421 1.5056,-1.5756 2.2336,-2.343 -0.25398,-2.4435 -0.42036,-4.4143 -0.43464,-5.4486"
     fill="#38393a"
     id="path58-6" />
  <path
     d="m 124.36114,126.11844 c -3.2353,8.1318 -13.377,20.11 -19.381,24.831 -0.94193,0.74092 -1.7419,0.78507 -2.4781,0.26283 -6.003403,-4.2554 -19.498003,-4.8089 -27.629003,2.4482 -1.1959,4.2839 -1.5389,7.9056 -1.7202,9.9967 -0.11616,1.3413 0.44345,2.0326 2.0985,0.81697 15.531,-11.402 27.893003,-7.1824 27.223003,6.1196 -0.0592,1.1661 0.46113,1.6265 1.981,0.64177 4.3864,-2.8421 14.888,-10.799 18.42,-15.214 1.0445,-1.3053 -10.257,-1.5104 -13.057,-0.46588 5.3908,-7.4323 17.078,-28.476 14.543,-29.437"
     fill="#c2996c"
     id="path59-9" />
  <path
     d="m 110.10114,106.41844 c -3.962,10.045 -6.0245,16.922 -10.375003,26.231 -1.4778,3.1606 2.813603,5.3881 3.788803,2.3321 1.5151,-4.7511 7.8105,-28.388 6.5861,-28.563"
     fill="#c2996c"
     id="path60-4" />
  <path
     d="m 145.95114,142.84844 c 1.7542,1.8981 2.8319,2.0367 4.546,-0.46656 5.8296,-8.5101 16.555,-18.42 22.207,-21.658 -1.5776,3.0574 -13.696,21.192 -18.651,29.76 4.4876,2.0401 9.9668,5.5966 12.24,7.4031 1.5579,1.2373 0.90936,1.9559 -0.23293,2.419 -3.7617,1.526 -8.1915,2.9549 -12.183,4.0516 2.0985,0.46656 5.7128,2.8557 5.7128,3.5552 0,1.1076 -6.4123,2.5066 -9.268,2.5066 1.1362,-27.776 -17.771,-35.398 -29.904,-33.284 l 1.0499,-2.273 c 9.6768,-1.5735 18.77,1.8071 24.482,7.9858"
     fill="#b9c3c8"
     id="path61-1" />
  <path
     d="m 166.06114,98.578444 c -3.7881,2.651996 -9.9118,14.903996 -12.797,29.243996 3.5851,-10.143 13.322,-28.106996 12.797,-29.243996"
     fill="#b9c3c8"
     id="path62-3" />
  <path
     d="m 24.285137,69.436444 c -0.36468,0 -0.66622,0.50254 -0.67708,1.1042 -0.01,0.49169 0.27301,1.0377 0.74296,1.0377 0.46995,0 0.68795,-0.59015 0.67776,-1.1586 -0.008,-0.44346 -0.28116,-0.98336 -0.74364,-0.98336"
     fill="#ffffff"
     id="path63-7" />
  <path
     d="m 48.394137,52.971444 c 2.9019,0.33819 5.5559,1.1022 7.7589,2.3307 l -1.6978,1.1749 c -1.8893,-0.98134 -4.1073,-1.6245 -6.5202,-1.9504 z"
     id="path64-8"
     style="fill:#0f141b" />
  <path
     d="m 32.981137,55.977444 c -6.0231,1.8255 -11.741,5.0703 -15.616,9.4941 -4.5107,5.1498 -9.6659003,8.4197 -15.8450003,9.3698 -0.3871,0.0591 -0.49644,0.20985 -0.3287,0.76538 1.8255,6.0224 5.581,9.4235 12.3840003,11.859 6.5033,2.328 12.854,5.2571 15.433,8.2296 2.3715,2.7335 3.6285,6.558296 4.0217,10.492996 l -1.0377,0.43668 c -0.73209,-4.616 -1.9002,-7.835696 -3.8988,-10.100996 -2.4516,-2.7776 -8.3654,-5.4954 -14.91,-7.7861 -6.9868003,-2.4448 -11.1480003,-6.7314 -13.0290003,-12.935 -0.36469,-1.2054 -0.11682,-1.8465 1.0927,-2.0333 5.9905,-0.92088 10.9260003,-4.1589 15.2920003,-9.1803 4.345,-4.9983 11.059,-8.6072 18.023,-10.444 z"
     id="path65-8"
     style="fill:#0f141b" />
  <path
     d="m 28.484137,107.97844 c 0.0353,-4.3457 -1.3528,-11.795996 -5.1545,-15.315996 l 3.2319,1.9633 c 2.3158,3.7338 3.2747,9.263196 3.2448,12.903996 z"
     id="path66-3"
     style="fill:#0f141b" />
  <path
     d="m 2.7121367,80.076444 c 1.1654,-1.3304 2.0041,-3.4275 1.6278,-4 -0.20713,-0.31647 -2.3633,-0.63701 -3.5844,-0.53582 l 0.0876,-0.86248 c 1.9199,-0.16027 4.2791,0.2506 4.4815,0.82989 0.49915,1.4323 -0.8978,3.8683 -2.1542,5.1029 z"
     id="path67-8"
     style="fill:#0f141b" />
  <path
     d="m 45.710137,64.455444 c -7.6279,0.71511 -22.015,3.725 -30.331,7.9817 -2.7443,1.4044 -5.8839003,2.7688 -10.4370003,3.7161 l -0.26282,-0.86385 c 4.525,-1.1036 7.4106003,-2.4034 10.2280003,-3.8452 8.3464,-4.271 24.113,-7.8384 32.212,-8.3735 z"
     id="path68-1"
     style="fill:#0f141b" />
  <path
     d="m 32.913137,66.130444 c -0.0848,1.7807 -0.41154,3.6306 -0.99695,4.8842 -2.0475,4.3844 -8.235,5.8099 -13.27,3.0893 -1.1321,-0.61189 -2.1562,-1.4628 -3.1796,-2.4326 l 1.7705,-0.57182 c 0.60917,0.94737 1.5905,2.0774 2.2825,2.4727 3.456,1.9756 9.5749,1.4873 11.096,-2.8537 0.33549,-0.95756 0.50527,-2.7633 0.42174,-4.1453 z"
     id="path69-5"
     style="fill:#0f141b" />
  <path
     d="m 28.484137,73.857444 c 0.88557,-2.927 -1.0798,-6 -4.1318,-4.9623 -2.2784,0.77555 -2.5311,4.8577 -0.32734,6.0992 l -1.2944,-0.10801 c -1.8099,-1.4662 -1.875,-5.9036 1.3596,-6.9528 3.4689,-1.1246 6.0102,1.7786 5.3813,5.1138 z"
     id="path70-3"
     style="fill:#0f141b" />
  <path
     d="m 23.543137,92.733444 c 5.6136,-3.7426 11.796,-12.287 13.072,-15.707 1.0615,-2.8448 0.31782,-7.0384 -1.7263,-11.311 l 1.1022,-0.27368 c 2.2295,4.9406 2.9413,9.2245 1.8587,12.012 -1.5015,3.8683 -7.6292,11.804 -13.431,15.766 z"
     id="path71-5"
     style="fill:#0f141b" />
  <path
     d="m 33.490137,83.464444 c -2.6893,-2.3715 -9.4499,-5.9851 -11.4,-5.8819 -0.99559,0.053 -2.8299,1.3684 -4.3606,2.6581 -0.83668,0.7056 -1.2306,0.26214 -0.48761,-0.5433 1.3189,-1.4316 3.7379,-3.0357 4.7871,-3.1219 2.1277,-0.17454 9.4676,3.6713 12.183,5.96 z"
     id="path72-4"
     style="fill:#0f141b" />
  <path
     d="m 7.5861367,85.071444 c 2.2588,-1.2387 8.5250003,-0.38235 12.5710003,1.8785 1.0492,0.58607 0.75382,1.0173 -0.32938,0.52291 -4.0713,-1.856 -9.399,-2.3579 -11.2240003,-1.5273 z"
     id="path73-3"
     style="fill:#0f141b" />
  <path
     d="m 13.619137,72.568444 c 0.52428,-5.9022 12.734,-12.719 17.491,-14.383 0.29746,-0.10387 0.44415,-0.30832 0.55756,-0.86317 0.50662,-2.4822 4.343,-5.3678 7.9532,-6.019 1.2591,-0.22614 1.4567,0.42309 0.22684,0.7613 -3.0642,0.84211 -6.6031,3.6082 -6.9929,5.5606 -0.19281,0.95891 -0.46724,1.3657 -1.2136,1.6231 -4.7464,1.6435 -15.4,7.7678 -16.558,12.801 z"
     id="path74-6"
     style="fill:#0f141b" />
  <path
     d="m 36.939137,52.744444 c 1.1742,-0.0285 2.6486,0.17454 3.7562,0.56638 1.0642,0.37692 0.74025,0.99084 -0.23088,0.75925 -1.2849,-0.30628 -3.4676,-0.48149 -5.0112,-0.2798 z"
     id="path75-5"
     style="fill:#0f141b" />
  <path
     d="m 31.130137,66.270444 c 8.3885,-4.197 18.033,-9.7909 17.115,-17.157 -0.30628,-2.4557 0.60645,-3.761 4.3036,-4.8394 8.0021,-2.3335 14.192,-4.4496 16.496,-14.575 1.2774,-5.6143 5.0241,-9.672 9.5674,-14.238 5.9742,-6 15.049,-14.03 14.687,-14.287 -1.0893,-0.7674 -25.307,15.646 -30.19,20.374 -2.2778,2.2058 -2.6452,4.1881 -2.6452,6.4489 0,4.1847 -2.1691,6.4 -6.2513,7.2679 -8.8965,1.8907 -16.285,7.399 -14.799,13.4 0.18748,0.75586 0.35992,2.0509 0.29405,3.0805 l -1.38,0.44551 c 0.13511,-1.056 0.0144,-2.5548 -0.19282,-3.2964 -1.8255,-6.5358 5.5783,-12.773 15.749,-15.017 3.6652,-0.80883 5.2184,-2.5182 5.2184,-5.9301 0,-2.4041 0.17105,-4.7647 3.054,-7.454 5.7535,-5.3691 24.29,-17.898 30.433,-20.182 2.3586,-0.8781 2.5087,0.25059 1.4866,1.5294 -2.1685,2.7124 -11.891,11.373 -14.682,14.571 -4.9535,5.6781 -7.8472,8.7219 -8.8272,13.597 -2.0394,10.143 -8.4354,12.992 -17.623,15.454 -2.9684,0.79661 -3.7256,1.8608 -3.5199,3.5742 0.87539,7.2679 -6.6214,12.812 -14.594,16.833 z"
     id="path76-9"
     style="fill:#0f141b" />
  <path
     d="m 42.834137,59.824444 c -0.0671,-1.3623 -0.54668,-3.0934 -1.0791,-3.9572 -0.47674,-0.77555 0.0795,-1.1851 0.64177,-0.46724 0.70222,0.89848 1.27,2.2112 1.4207,3.6265 z"
     id="path77-5"
     style="fill:#0f141b" />
  <path
     d="m 37.358137,63.747444 c 0.17516,-2.8523 -1.2387,-4.9739 -3.4649,-5.2462 -0.80001,-0.0972 -0.84686,-0.77081 -0.0415,-0.79186 2.8509,-0.0714 4.5433,2.3362 4.5888,5.306 z"
     id="path78-4"
     style="fill:#0f141b" />
  <path
     d="m 48.736137,48.435444 c -1.4662,-4.6228 -5.4112,-6.5033 -8.9617,-5.1151 l 0.68795,-1.1912 c 3.5382,-1.0295 7.3881,0.66622 8.9182,4.8632 z"
     id="path79-9"
     style="fill:#0f141b" />
  <path
     d="m 71.852137,24.937444 c -1.3514,-3.1769 -4.9005,-5.4296 -8.0224,-4.8095 l 1.0825,-1.071 c 3.0058,-0.2764 6.2119,1.6761 7.4866,4.8313 z"
     id="path80-1"
     style="fill:#0f141b" />
  <path
     d="m 77.681137,17.192444 c -0.55415,-1.7487 -3.1192,-3.4465 -5.5341,-3.1953 l 1.2353,-0.9399 c 2.1419,0.0652 4.3063,1.4866 4.9942,3.3005 z"
     id="path81-7"
     style="fill:#0f141b" />
  <path
     d="m 8.3301367,72.240444 c -1.3997,-3.6503 -0.99084,-7.5403 2.8550003,-11.028 3.1769,-2.8802 4.8394,-5.3304 6.1793,-8.0089 0.61257,-1.2258 1.2747,-0.91207 0.71579,0.33956 -1.2401,2.7769 -3.3569,5.7997 -6.0673,8.4014 -3.1586003,3.0316 -3.6829003,6.8788 -2.5358003,9.6727 z"
     id="path82-5"
     style="fill:#0f141b" />
  <path
     d="m 19.855137,62.112444 c 2.7049,-2.4414 4.288,-4.3498 4.3457,-6.6099 0.1039,-4.0523 0.7579,-5.9491 2.9983,-7.4432 2.6757,-1.7834 7.9566,-6.2622 8.5637,-7.8425 0.62072,-1.6116 0.273,-3.6686 -0.39321,-5.1375 -0.57251,-1.2543 -0.7742,-2.1127 0.22953,-4.1528 2.1134,-4.2934 20.966,-24.562 20.653,-25.466 -1.4357,-0.23362 -21.242,16.39 -25.123,20.055 -3.8689,3.655 -5.8364,6.8163 -4.4924,11.706 l -1.1803,0.79729 c -1.6537,-4.8795 -0.26757,-8.5983 4.7437,-13.332 5.2204,-4.9291 20.681,-17.813 25.515,-20.012 1.6211,-0.73752 2.199,-0.22207 1.5226,1.0363 -2.7138,5.0472 -18.558,21.754 -20.546,25.794 -0.78235,1.5898 -0.7484,2.1372 -0.20782,3.1477 1.1416,2.1345 1.2944,4.7559 0.6669,6.1861 -0.87132,1.9871 -6.9936,6.7464 -9.1477,8.1834 -1.9307,1.2869 -2.5902,2.7199 -2.6425,6.4605 -0.0251,1.7834 -0.63634,3.27 -1.9885,4.5487 z"
     id="path83-5"
     style="fill:#0f141b" />
  <path
     d="m 15.608137,56.928444 c -3.6068,-6.0007 1.7562,-13.986 12.579,-21.472 1.2598,-0.86995 1.7005,-0.26554 0.46723,0.64109 -10.182,7.4866 -14.438,14.369 -12.171,19.542 z"
     id="path84-4"
     style="fill:#0f141b" />
  <path
     d="m 14.483137,58.193444 c 3.0037,-0.71646 5.7861,0.64856 6.3321,3.5674 l -0.93922,0.73413 c -0.54534,-2.7993 -2.9868,-4.0285 -6.0924,-3.1572 z"
     id="path85-1"
     style="fill:#0f141b" />
  <path
     d="m 24.143137,57.762444 c -0.26214,-2.8638 -2.7124,-4.1569 -4.616,-3.998 -0.91817,0.0774 -1.0302,-0.61324 -0.12632,-0.78302 1.9817,-0.37148 4.6071,0.63769 5.3684,3.0316 z"
     id="path86-8"
     style="fill:#0f141b" />
  <path
     d="m 21.105137,41.904444 c 1.9749,-0.75179 4.4279,-0.79118 5.8554,-0.31511 1.0723,0.35722 0.89576,0.99016 -0.20985,0.76401 -2.0048,-0.40883 -4.8679,-0.10322 -6.8027,1.0445 z"
     id="path87-8"
     style="fill:#0f141b" />
  <path
     d="m 28.986137,47.539444 c 0.76605,-1.2516 0.50255,-3.1695 -0.28862,-3.9158 -0.70357,-0.66282 -0.38506,-1.1769 0.43056,-0.66554 1.1042,0.69067 1.5206,2.4231 1.2129,3.6414 z"
     id="path88-3"
     style="fill:#0f141b" />
  <path
     d="m 36.079137,31.268444 c 0.22004,-3.5593 -3.0547,-5.7257 -7.4106,-4.2024 l 1.1246,-1.3236 c 3.9708,-0.95892 6.925,0.99287 7.1905,4.1474 z"
     id="path89-5"
     style="fill:#0f141b" />
  <path
     d="m 40.889137,24.521444 c 0.0427,-0.64109 -0.14271,-1.5321 -0.4944,-2.127 -0.39933,-0.67776 0.15544,-1.0981 0.63635,-0.47402 0.3606,0.46791 0.60304,0.96028 0.68863,1.5083 z"
     id="path90-2"
     style="fill:#0f141b" />
  <path
     d="m 36.888137,19.658444 c 0.98337,0.0108 2.0767,0.41494 2.891,1.0839 0.69541,0.57182 0.19076,1.0472 -0.4652,0.64312 -1.0268,-0.6343 -2.3273,-0.9073 -3.399,-0.76537 z"
     id="path91-2"
     style="fill:#0f141b" />
  <path
     d="m 82.021137,135.97844 c -16.755,-8.3029 -20.888,-41.299996 -19.661,-61.836996 0.60239,-10.078 6.6465,-20.415 10.762,-25.432 0.41493,-0.50391 0.27707,-0.745 -0.2669,-0.71104 -9.7671,0.60781 -16.659,2.7606 -21.741,6.2791 l -1.7216,-0.49779 c 5.1959,-4.0937 13.962,-6.6472 23.534,-6.6038 2.0632,0.01 2.3341,0.6635 1.3589,2.0482 -4.525,6.4265 -9.5932,14.471 -10.488,25.064 -1.7542,20.766 3.634,52.943996 19.062,60.112996 z"
     id="path92-6"
     style="fill:#0f141b" />
  <path
     d="m 73.754137,48.489444 c -15.367,2.7321 -29.032,16.961 -30.555,20.636 -1.1328,2.7314 0.0862,10.79 0.23567,14.285 0.39456,9.1369 0.5005,13.054 -1.162,20.978996 -2.0292,9.668 -4.6764,26.455 3.2978,36.002 3.2577,3.9009 7.8764,5.6231 14.008,5.5471 0.64925,-0.009 0.81834,0.1766 0.50255,0.88557 -2.9474,6.6126 -13.468,6.6798 -19.117,-1.0241 -0.7769,-1.0588 -0.27097,-1.4886 0.60442,-0.51138 6.0204,6.7158 13.906,6.328 17.129,1.7514 -6.0659,0.0306 -10.805,-1.89 -14.103,-5.8377 -6.2717,-7.5097 -7.6245,-19.215 -3.6408,-37.091 1.9036,-8.538596 1.7678,-11.971996 1.2245,-20.688996 -0.18275,-2.9263 -1.3874,-11.807 -0.29678,-14.675 1.4228,-3.742 15.237,-18.638 31.719,-21.129 z"
     id="path93-6"
     style="fill:#0f141b" />
  <path
     d="m 42.733137,98.088444 c -6.1922,11.043996 -23.068,14.620996 -31.806,9.951096 0.7545,2.2941 3.9599,5.7128 7.3915,6.9046 l -1.293,0.82241 c -4.2662,-1.8533 -6.8808,-5.4561 -7.2849003,-8.5162 -0.11273,-0.85365 0.0632,-0.99491 0.6213903,-0.66689 8.8007,5.1796 26.144,1.0051 32.294,-10.921996 z"
     id="path94-7"
     style="fill:#0f141b" />
  <path
     d="m 47.501137,181.80844 c 1.0492,-6.1535 -4.6683,-11.469 -18.296,-15.871 -24.0810003,-7.7773 -31.6310003,-42.264 -9.3365,-52.249 1.0846,-0.4856 1.399,0.16098 0.34703,0.71306 -20.2570003,10.649 -13.4420003,42.907 9.3929,50.324 14.084,4.5746 19.667,9.7515 19.193,16.072 5.0533,-3.5545 4.3538,-16.728 -1.6408,-21.31 -1.0438,-0.79797 -0.6377,-1.3732 0.45772,-0.6472 7.2856,4.8211 8.1596,20.56 0.73481,23.57 -0.76469,0.30968 -0.97996,0.14395 -0.8523,-0.60168"
     id="path95-8"
     style="fill:#0f141b" />
  <path
     d="m 51.970137,151.02844 c 6.489,3.3046 9.0547,12.922 6.0775,17.629 -0.37963,0.60034 -0.72122,0.51545 -0.84143,-0.0659 -0.90254,-4.3498 -3.6428,-6.3898 -6.7437,-5.8038 l -0.59017,-0.99425 c 3.1437,-1.2618 7.0357,0.67437 7.8466,4.8876 1.5871,-4.7912 -1.6055,-12.888 -7.7821,-15.665 z"
     id="path96-4"
     style="fill:#0f141b" />
  <path
     d="m 22.894137,142.52844 c -0.0387,-1.2781 -0.91342,-1.0723 -0.94805,0 -0.0822,2.5963 0.33005,5.4404 1.6075,7.7067 0.43803,0.77826 0.71579,0.60441 0.41222,-0.28795 -0.65942,-1.9369 -0.9888,-4.7403 -1.0716,-7.4187"
     id="path97-1"
     style="fill:#0f141b" />
  <path
     d="m 27.927137,143.00844 c -0.12359,-0.99355 -1.0601,-0.88489 -0.94873,0.13985 0.24516,2.288 1.255,4.3491 2.2873,5.2095 0.63294,0.527 0.82988,0.18008 0.3871,-0.42241 -0.9854,-1.3379 -1.5131,-3.2394 -1.7256,-4.927"
     id="path98-7"
     style="fill:#0f141b" />
  <path
     d="m 33.734137,142.37844 c -0.41224,-0.68795 -1.2666,-0.31579 -0.87947,0.59968 0.38711,0.91477 1.6605,2.108 2.5698,2.252 0.66894,0.10532 0.67232,-0.29473 0.17516,-0.63295 -0.87945,-0.5983 -1.3372,-1.3379 -1.8655,-2.2187"
     id="path99-1"
     style="fill:#0f141b" />
  <path
     d="m 57.141137,93.542444 c -1.0832,-0.34705 -6.3756,6.459096 -6.5386,9.320896 -0.13655,2.3919 1.5701,3.8024 2.4435,3.71 1.4452,-0.15421 4.747,-12.821996 4.0951,-13.030996 m -7.729,9.269296 c 0.18809,-3.487296 6.3083,-11.137996 8.309,-10.383996 1.5579,0.58812 -2.0924,15.132996 -4.3627,15.490996 -2.0536,0.32394 -4.0903,-2.4292 -3.9464,-5.107"
     id="path100-8"
     style="fill:#0f141b" />
  <path
     d="m 56.491137,107.35844 c -1.2951,0.582 -4.747,11.051 -4.1433,11.323 0.48013,0.21595 5.8798,-7.1844 5.7291,-9.598 -0.0632,-1.0146 -0.97999,-1.9973 -1.5858,-1.725 m -4.7538,12.42 c -1.3725,-0.90868 2.6133,-13.055 4.3172,-13.629 1.0431,-0.35179 2.9888,0.7416 3.1925,2.9535 0.22343,2.4347 -6.0299,11.656 -7.5097,10.676"
     id="path101-7"
     style="fill:#0f141b" />
  <path
     d="m 24.093137,162.76844 c 0.35246,7.7664 6.3294,17.273 12.872,22.679 1.1287,0.93244 0.5236,1.4588 -0.62479,0.77284 -6.4421,-3.8479 -14.253,-14.865 -14.518,-24.489 z"
     id="path102-8"
     style="fill:#0f141b" />
  <path
     d="m 67.845137,196.48844 c -4.9487,0.95417 -15.971,0.94128 -23.718,-4.9481 -1.1633,-0.8842 -0.65058,-1.6502 0.59968,-0.89236 7.2489,4.3858 16.543,5.0941 22.535,4.1453 z"
     id="path103-7"
     style="fill:#0f141b" />
  <path
     d="m 20.538137,260.31844 c -0.16368,-1.3582 0.2635,-3.325 1.2571,-5.6836 7.001,-16.628 11.015,-39.756 8.8245,-52.755 -1.5674,-9.3026 -3.1294,-18.372 -2.9664,-26.266 l 1.7548,2.2078 c -0.15212,6.6527 1.5443,15.663 2.8367,23.88 2.1413,13.609 -2.0217,36.704 -9.073,53.447 -0.90187,2.1426 -1.2958,3.5959 -1.1912,4.7871 z"
     id="path104-7"
     style="fill:#0f141b" />
  <path
     d="m 23.095137,275.83844 c -2.9576,0 -10.901,-2.5399 -12.35,-3.4323 -1.5205003,-0.93651 -2.0475003,-3.069 -2.3389003,-5.4323 -0.31851,-2.5684 1.1205,-3.7616 3.2774003,-4.0007 1.2611,-0.13921 3.5715,-0.72665 6.8245,-2.5141 2.783,-1.5294 5.1749,-2.0109 7.418,-1.7379 7.7162,0.9399 13.093,5.0289 14.493,13.007 l -1.2903,0.4265 c -1.071,-7.399 -5.7922,-11.028 -13.377,-11.946 -2.6526,-0.32054 -4.5413,0.23226 -6.5141,1.3338 -3.363,1.8751 -6.1012,2.4333 -7.4207,2.5793 -1.6394,0.18274 -2.2696003,0.81427 -2.0340003,2.7328 0.2655403,2.148 0.4163103,3.6652 1.6360003,4.4163 1.327,0.81699 9.0017,3.0703 11.71,3.0703 7.1253,0 26.562,-5.85 30.296,-7.7162 1.856,-0.92904 2.1026,-2.0007 1.5688,-4.2839 -1.4608,-6.2296 -6.5318,-31.467 -5.8791,-37.454 1.0818,-9.9226 4.3627,-23.214 9.2455,-29.136 l 2.112,0.42784 c -5.1246,5.7012 -8.9365,18.88 -10.022,28.822 -0.59218,5.4357 4.2927,29.005 6.1834,37.07 0.70832,3.0214 0.17042,4.7321 -2.4652,6.051 -3.7759,1.8866 -23.86,7.7162 -31.073,7.7162"
     id="path105-4"
     style="fill:#0f141b" />
  <path
     d="m 101.66114,193.90844 c -1.5185,10.733 2.2452,33.36 5.5178,41.541 4.0802,10.2 12.336,37.324 9.8683,41.071 -1.1525,1.7514 -14.097,4.7647 -19.299003,5.4628 -3.8621,0.51817 -9.2638,0.39729 -15.151,-0.29608 -6.2954,-0.74296 -7.363,-2.5277 -7.6802,-6.8129 -0.19959,-2.6982 1.274,-4.7335 3.8363,-5.2462 1.9756,-0.39388 5.9742,-2.324 8.2248,-3.5498 2.5209,-1.3732 6.055,-2.0523 10.75,-0.18131 4.872003,1.9409 10.109003,6.5073 10.699003,13.163 l -1.3005,0.273 c -0.60102,-5.7922 -5.4051,-10.213 -9.825503,-11.924 -4.311,-1.6679 -7.5715,-1.3195 -9.8275,-0.10058 -2.6323,1.4234 -6.398,3.0323 -8.4686,3.4445 -1.4784,0.29607 -2.9073,1.3745 -2.711,4.034 0.26011,3.5124 0.95824,4.927 6.508,5.5878 5.9423,0.70696 10.755,0.68183 14.79,0.16365 5.902903,-0.75585 16.972003,-3.7895 17.829003,-5.0907 2.0822,-3.162 -5.1729,-27.913 -9.727,-39.409 -3.8024,-9.598 -7.125303,-31.398 -5.3983,-42.252 0.8387,-6.051 1.8302,-12.172 1.7107,-17.776 -0.0285,-1.3569 0.66077,-1.4003 0.79116,-0.0494 0.49304,5.1294 -0.34636,12.371 -1.1355,17.946"
     id="path106-4"
     style="fill:#0f141b" />
  <path
     d="m 33.787137,243.16844 c -1.5436,-0.0978 -4.1229,-5.4316 -5.1077,-8.4476 l 0.6343,-1.9131 c 1.1368,3.9233 3.8275,8.7661 4.6051,8.8306 1.9966,0.16427 13.842,-6.5066 16.321,-9.8588 l 0.22343,1.4866 c -2.4693,2.9623 -14.567,10.035 -16.676,9.9022"
     id="path107-9"
     style="fill:#0f141b" />
  <path
     d="m 32.025137,252.47844 c -1.4567,-0.0427 -4.343,-7.0635 -5.2136,-10.099 l 0.71036,-2.2839 c 0.94737,3.8914 3.9613,10.708 4.8095,10.864 1.7053,0.31373 15.811,-7.7895 18.996,-12.045 l 0.13101,1.6618 c -3.6346,3.943 -16.839,11.978 -19.433,11.902"
     id="path108-1"
     style="fill:#0f141b" />
  <path
     d="m 65.894137,183.81844 c 0.40612,-4.7117 2.2853,-10.046 4.9012,-13.76 0.73278,-1.0404 1.2788,-0.75858 0.6995,0.37487 -2.3097,4.5189 -3.8839,9.0663 -4.8129,13.481 -0.2669,1.272 -0.89984,1.2149 -0.78778,-0.0957"
     id="path109-5"
     style="fill:#0f141b" />
  <path
     d="m 78.161137,270.20844 c 0.15893,-3.2781 1.1626,-6.6364 2.1188,-9.6612 6.4408,-20.365 1.7677,-41.423 -6.2466,-52.137 -3.0166,-4.034 -8.7878,-12.515 -8.4632,-20.116 0.0571,-1.3324 0.71443,-1.2856 0.79389,0.0144 0.36877,6.0998 3.4289,11.624 8.9488,19.117 8.3824,11.378 12.929,32.625 6.305,53.534 -0.91751,2.8958 -1.8024,5.9083 -1.9817,9.0805 z"
     id="path110-5"
     style="fill:#0f141b" />
  <path
     d="m 105.04114,231.29844 c -2.2839,3.888 -12.251003,15.543 -13.876003,15.555 -1.3263,0.01 -5.4296,-4.8469 -7.0907,-7.7915 l 0.0298,-2.3022 c 1.526,3.126 6.1304,8.5929 7.0608,8.6377 1.215,0.0577 10.951003,-11.319 13.515003,-15.651 z"
     id="path111-5"
     style="fill:#0f141b" />
  <path
     d="m 107.66114,239.05844 c -2.7165,4.8326 -14.604003,17.098 -16.816003,17.159 -1.3222,0.0368 -5.7827,-5.7915 -7.1749,-8.3056 l 0.30629,-1.7813 c 2.057,3.6482 5.9423,8.5766 6.9399,8.5583 1.255,-0.0239 14.439003,-13.277 16.242003,-16.952 z"
     id="path112-8"
     style="fill:#0f141b" />
  <path
     d="m 80.641137,261.50844 c -5.2448,0.44212 -11.411,-0.55687 -12.361,-4.6119 -0.62276,-2.6554 -0.076,-6.0523 2.5575,-6.5032 2.2642,-0.38846 4.3396,-0.93787 7.1837,-2.4693 1.7426,-0.93785 4.1746,-1.3772 5.7121,-1.0845 l -0.10241,1.2306 c -1.3182,-0.24856 -3.4676,0.004 -5.0391,0.85026 -2.9386,1.5823 -5.1172,2.1644 -7.4588,2.5657 -1.5029,0.25808 -2.2153,2.4842 -1.5518,5.0601 0.83125,3.238 6.4639,3.9355 11.629,3.454 z"
     id="path113-2"
     style="fill:#0f141b" />
  <path
     d="m 82.831137,227.24844 c -0.89237,5.1518 -3.6346,17.93 -6.9705,22.509 l -2.0985,0.41563 c 3.6136,-3.9056 7.5457,-20.234 8.3912,-26.074 z"
     id="path114-9"
     style="fill:#0f141b" />
  <path
     d="m 84.141137,240.99844 c -1.4343,-1.2482 -3.1518,-3.6333 -3.9144,-5.1627 l 0.5236,-1.8214 c 0.85161,1.7114 2.4251,3.9851 3.5083,5.1111 z"
     id="path115-8"
     style="fill:#0f141b" />
  <path
     d="m 110.21114,188.40844 c -4.7857,7.926 -6.8177,21.836 -5.3446,26.737 1.2496,4.1528 1.3046,10.307 0.0245,14.869 l -0.78235,-3.0723 c 0.61934,-3.6312 0.10387,-8.5155 -0.82446,-11.599 -1.564,-5.1912 0.79117,-19.078 5.5545,-27.335 0.2832,-0.49031 1.6184,-0.006 1.3725,0.40069"
     id="path116-2"
     style="fill:#0f141b" />
  <path
     d="m 104.06114,131.45844 c 6.0761,-2.9073 14.443,-5.2143 19.176,-5.9348 2.0224,-0.30764 2.6078,0.61666 2.0278,2.4401 -1.5477,4.8693 -9.8574,21.297 -16.04,28.864 -1.0262,1.2557 -1.6061,0.94941 -0.64719,-0.45975 4.4401,-6.5243 13.974,-24.257 15.482,-28.784 0.27711,-0.82988 0.10533,-0.98677 -0.69882,-0.85231 -4.3823,0.73007 -14.17,4.1304 -19.641,6.7538 z"
     id="path117-0"
     style="fill:#0f141b" />
  <path
     d="m 110.04114,154.61844 c 3.4628,-0.49576 8.9793,-0.50527 11.455,-0.23159 2.2961,0.25466 2.2886,1.4526 0.96569,2.9616 -4.5087,5.1403 -12.486,11.097 -18.179,14.704 -1.4852,0.93991 -2.4842,0.76334 -2.4163,-1.2245 0.56163,-16.503 -15.463003,-13.961 -26.482003,-5.8146 -1.7413,1.2876 -2.946,0.84142 -2.8523,-1.202 1.0438,-22.828 20.626,-50.816 35.635003,-57.45 2.2662,-1.001 2.9467,-0.57655 2.6472,1.9525 -0.89644,7.5763 -4.1216,19.433 -6.7436,26.29 -0.50731,1.3283 -1.4615,1.1097 -1.0499,-0.2506 1.8058,-5.9634 5.183,-18.774 6.5073,-26.184 0.16901,-0.94738 -0.0353,-1.0839 -0.88558,-0.70019 -13.760003,6.2004 -33.049003,33.545 -34.918003,56.369 -0.0577,0.70288 0.18069,0.86382 0.98541,0.22138 11.047,-8.817 29.278003,-11.586 28.349003,6.7355 -0.0185,0.36808 0.12895,0.6112 0.65601,0.2411 5.1695,-3.6401 15.023,-10.696 18.143,-14.372 0.53922,-0.63565 0.55687,-1.0051 -0.33819,-1.1042 -2.3959,-0.26486 -9.1274,0.16715 -12.242,0.51409 z"
     id="path118-7"
     style="fill:#0f141b" />
  <path
     d="m 120.53114,168.82844 c 1.2231,-5.0866 3.5871,-9.9342 5.7304,-12.947 0.745,-1.0492 1.3114,-0.75722 0.69814,0.3735 -2.0883,3.8459 -3.8431,7.6666 -5.6734,12.814 -0.41699,1.1742 -1.0554,1.0112 -0.75519,-0.24041"
     id="path119-4"
     style="fill:#0f141b" />
  <path
     d="m 129.64114,256.93844 c 3.1436,-2.9209 4.6445,-17.209 5.617,-25.811 1.0397,-9.1966 -0.091,-19.307 -10.744,-28.363 -8.7865,-7.4696 -10.663,-16.449 -5.9206,-28.66 0.46859,-1.2041 1.02,-0.98473 0.65264,0.25263 -3.5185,11.838 -1.9192,20.126 6.2954,27.151 10.892,9.3134 11.99,19.119 11.072,29.695 -0.97319,11.216 -2.5324,21.738 -4.7172,24.918 z"
     id="path120-8"
     style="fill:#0f141b" />
  <path
     d="m 120.41114,136.40844 c 9.5729,-2.3246 27.82,4.0482 30.281,24.046 0.86384,7.018 0.48898,21.95 -0.10192,27.587 -0.88691,8.4611 0.19015,13.474 4.5162,19.159 2.743,3.6075 4.7538,7.5851 5.1043,14.121 0.27163,5.0784 3.1491,26.645 3.7813,30.56 0.62888,3.8968 1.4316,7.6802 0.89575,8.7871 -1.1396,2.3531 -19.954,8.3864 -24.393,8.9392 -3.3603,0.41902 -9.4975,-0.22953 -11.849,-1.1348 -1.9776,-0.76129 -3.6924,-4.8442 -3.9199,-7.2 -0.22141,-2.2839 0.66281,-3.7454 2.8482,-4.309 2.6676,-0.68931 5.1769,-1.888 7.7603,-3.5634 3.3039,-2.144 7.0792,-2.2655 10.109,-0.73276 4.3905,2.2228 8.3539,6.2744 8.724,12.308 l -1.3202,0.33889 c -0.30291,-5.5858 -3.9152,-9.5539 -8.0041,-11.52 -3.0533,-1.4683 -6.4496,-1.0153 -8.908,0.5786 -2.6554,1.7222 -5.3447,3.0384 -8.0442,3.7053 -1.5572,0.38505 -1.9532,1.1932 -1.7664,3.1226 0.2085,2.1514 1.4051,5.4044 3.0024,6.0184 1.7535,0.67573 7.7555,1.3474 11.207,0.91885 5.2163,-0.64924 21.82,-6.4883 22.688,-8.2819 0.42446,-0.87809 -0.0144,-4.125 -0.66961,-7.7888 -0.6119,-3.42 -3.3433,-25.267 -3.6,-30.655 -0.29135,-6.1019 -2.2588,-9.9056 -4.9141,-13.337 -3.4289,-4.4306 -5.7997,-10.878 -4.8183,-20.154 0.59352,-5.6007 0.91068,-20.346 0.053,-27.314 -2.4027,-19.525 -20.39,-24.937 -29.399,-22.388 z"
     id="path121-5"
     style="fill:#0f141b" />
  <path
     d="m 133.72114,164.74844 c -0.67777,0.0613 0.21121,5.4798 1.365,8.8326 0.96231,2.7939 4.1678,7.4954 4.544,7.2292 1.1667,-0.82511 -4.2105,-16.215 -5.909,-16.062 m 0.25263,9.1824 c -0.93311,-2.7165 -2.1949,-9.632 -0.74702,-10.329 3.0241,-1.454 9.2313,17.388 6.9759,18.353 -1.3827,0.59153 -5.1457,-4.8632 -6.2289,-8.0245"
     id="path122-8"
     style="fill:#0f141b" />
  <path
     d="m 140.78114,168.24844 c -0.48625,0.21188 1.5382,6.5264 2.3728,6.4455 0.39051,-0.038 0.9691,-1.8988 0.7321,-2.6886 -0.38711,-1.2897 -2.7525,-3.911 -3.105,-3.7569 m 2.3837,7.8228 c -1.9348,0.0218 -4.4048,-8.4156 -2.9508,-8.9406 0.96165,-0.34704 4.2078,2.6886 4.7871,4.656 0.41427,1.4078 -0.76401,4.2724 -1.8363,4.2846"
     id="path123-3"
     style="fill:#0f141b" />
  <path
     d="m 158.83114,216.87844 c -2.2078,4.7219 -13.867,18.507 -17.271,18.574 -1.0832,0.0209 -4.0557,-3.0682 -5.4486,-5.3603 l 0.13922,-2.1093 c 1.2672,2.5358 4.3851,5.9185 5.3752,5.9321 2.6995,0.0353 14.705,-13.539 16.681,-18.621 z"
     id="path124-0"
     style="fill:#0f141b" />
  <path
     d="m 160.10114,227.74844 c -3.1253,4.4666 -16.639,16.295 -18.689,16.297 -1.8662,0.002 -5.0133,-4.4265 -6.1542,-6.745 l 0.29542,-2.2295 c 1.4282,3.1491 4.6886,7.342 5.833,7.3712 1.7745,0.0455 15.472,-11.626 18.518,-16.672 z"
     id="path125-6"
     style="fill:#0f141b" />
  <path
     d="m 124.55114,126.06844 c 10.06,-11.441 28.395,-25.756 39.947,-28.081996 2.11,-0.42443 2.8625,0.54941 1.8784,2.346996 -4.1617,7.6034 -8.5114,17.287 -12.232,26.67 -0.50866,1.2835 -1.1443,1.0255 -0.73819,-0.29271 2.6397,-8.5515 7.8757,-19.824 11.766,-26.911996 0.29202,-0.53174 0.19015,-0.77284 -0.39932,-0.63974 -10.656,2.417696 -29.898,17.345996 -39.927,28.799996 z"
     id="path126-2"
     style="fill:#0f141b" />
  <path
     d="m 150.24114,169.82844 c 2.5114,-0.19692 5.9966,-0.71919 8.1447,-1.5355 0.56843,-0.21665 0.60442,-0.37488 0.20369,-0.68389 -1.3331,-1.0241 -3.1626,-1.9423 -5.0818,-2.7837 -0.87948,-0.38573 -0.93787,-0.81222 0.0999,-1.126 4.4999,-1.365 9.1348,-2.8822 12.378,-4.1304 0.68796,-0.26486 0.71444,-0.44957 0.20919,-0.87471 -3.1701,-2.6662 -7.7481,-5.2007 -12.866,-7.5498 -0.2438,-0.11215 -0.29337,-0.30017 -0.15689,-0.546 3.5389,-6.3871 14.393,-23.084 18.425,-28.928 0.34702,-0.50322 0.26826,-0.67641 -0.11884,-0.64518 -4.5107,0.34637 -13.135,2.6554 -17.007,4.2907 l 0.40407,-1.6801 c 4.472,-1.799 11.874,-3.433 16.518,-3.6333 1.8112,-0.0774 2.127,0.8713 1.0975,2.4116 -3.8425,5.742 -13.957,21.589 -17.609,27.955 4.6846,2.3355 8.8191,4.8944 11.963,7.5389 1.5742,1.3257 1.4818,1.8907 -0.0801,2.5324 -3.7596,1.5436 -6.8951,2.5943 -11.386,3.9321 1.4784,0.74906 2.6941,1.5524 3.9022,2.4801 1.4784,1.1396 1.1735,1.9015 -0.38234,2.4985 -2.2309,0.85638 -5.8866,1.7175 -8.5848,1.93 z"
     id="path127-2"
     style="fill:#0f141b" />
  <path
     d="m 81.931137,228.91844 c 0.5399,0.72463 1.1307,1.3161 1.5864,1.8221 l 0.0835,2.0408 c -0.69203,-0.57319 -1.7277,-1.7209 -2.1426,-2.311 z"
     id="path128-5"
     style="fill:#0f141b" />
  <path
     d="m 117.43114,192.63844 c -3.4438,-3.1457 -9.3467,-4.7708 -15.569,-3.4098 -0.37283,0.0822 -0.6703,-1.2734 -0.2961,-1.3562 6.6683,-1.4574 12.659,-0.31374 16.442,3.1389 0.28318,0.25807 -0.44415,1.7488 -0.57725,1.6272"
     id="path129-2"
     style="fill:#0f141b" />
</svg>
