<?xml version="1.0" encoding="UTF-8"?>
<!DOCTYPE svg PUBLIC "-//W3C//DTD SVG 1.1//EN" "http://www.w3.org/Graphics/SVG/1.1/DTD/svg11.dtd">
<svg xmlns="http://www.w3.org/2000/svg" version="1.1" width="300px" height="300px" style="shape-rendering:geometricPrecision; text-rendering:geometricPrecision; image-rendering:optimizeQuality; fill-rule:evenodd; clip-rule:evenodd" xmlns:xlink="http://www.w3.org/1999/xlink">
<g><path style="opacity:0.878" fill="#161b20" d="M 194.5,1.5 C 196.484,1.38321 198.15,2.04988 199.5,3.5C 200.555,7.27811 202.388,10.6114 205,13.5C 206.325,18.4012 206.825,23.4012 206.5,28.5C 215.618,29.2464 219.285,34.0797 217.5,43C 229.57,57.7473 240.07,73.5806 249,90.5C 252.372,98.8241 252.205,106.991 248.5,115C 238.719,119.26 228.719,122.927 218.5,126C 217.743,127.512 216.743,128.846 215.5,130C 216.775,140.194 215.775,150.194 212.5,160C 218.105,162.388 223.605,164.888 229,167.5C 229.333,169.167 229.667,170.833 230,172.5C 234.841,174.843 236.341,178.51 234.5,183.5C 241.547,184.392 243.881,188.225 241.5,195C 242.005,198.863 242.672,202.696 243.5,206.5C 242.115,209.13 240.281,211.463 238,213.5C 236.576,217.793 234.409,221.626 231.5,225C 229.527,225.495 227.527,225.662 225.5,225.5C 226.638,231.975 225.971,238.309 223.5,244.5C 222.167,245.167 220.833,245.833 219.5,246.5C 220.246,247.736 220.579,249.07 220.5,250.5C 223.167,250.5 225.833,250.5 228.5,250.5C 227.993,256.199 226.66,261.699 224.5,267C 224.645,268.226 224.978,269.393 225.5,270.5C 227.743,271.474 230.076,271.808 232.5,271.5C 233.092,274.127 233.425,276.794 233.5,279.5C 232.167,279.5 230.833,279.5 229.5,279.5C 229.105,283.185 228.938,286.852 229,290.5C 230.333,289.167 231.667,289.167 233,290.5C 233.662,292.813 234.162,295.146 234.5,297.5C 230.818,297.665 227.152,297.499 223.5,297C 220.763,293.933 218.429,290.599 216.5,287C 217.625,285.037 218.959,283.204 220.5,281.5C 219.627,279.587 218.627,277.753 217.5,276C 216.833,275.333 216.167,275.333 215.5,276C 213.317,278.35 210.984,280.517 208.5,282.5C 205.849,280.35 203.349,278.017 201,275.5C 200.963,271.544 202.13,267.877 204.5,264.5C 204.023,263.522 203.357,262.689 202.5,262C 199.833,261.667 197.167,261.333 194.5,261C 191.8,257.26 188.466,256.593 184.5,259C 177.874,260.731 172.207,259.231 167.5,254.5C 165.712,256.791 163.712,258.957 161.5,261C 155.473,260.653 149.473,260.653 143.5,261C 138.816,258.483 135.816,254.65 134.5,249.5C 130.635,246.505 127.468,247.172 125,251.5C 123.723,254.765 121.557,257.099 118.5,258.5C 110.904,257.551 105.237,253.885 101.5,247.5C 100.252,246.96 99.0852,246.293 98,245.5C 97.9288,241.313 97.2622,237.313 96,233.5C 93.8012,236.552 90.9678,238.552 87.5,239.5C 84.132,237.49 80.4654,235.99 76.5,235C 75.6948,233.028 74.3615,231.528 72.5,230.5C 71.2941,228.516 71.2941,226.516 72.5,224.5C 68.9449,221.405 66.7782,217.405 66,212.5C 64.729,208.834 65.8956,206.334 69.5,205C 67.2256,203.235 65.5589,201.068 64.5,198.5C 65.5968,195.71 66.5968,192.877 67.5,190C 48.2667,158.776 43.7667,125.61 54,90.5C 56.577,84.3395 59.9104,78.6729 64,73.5C 67.4062,59.0219 73.7395,46.0219 83,34.5C 83.7589,31.2154 85.0922,28.2154 87,25.5C 89.872,22.9634 92.372,20.1301 94.5,17C 97.1277,15.3745 99.461,13.3745 101.5,11C 104.03,9.57834 106.697,9.24501 109.5,10C 111.305,12.4029 113.638,14.0695 116.5,15C 123.707,19.5245 124.707,24.8578 119.5,31C 121.282,33.2431 121.782,35.7431 121,38.5C 116.441,40.8058 111.941,43.3058 107.5,46C 115.204,44.8522 122.704,45.6855 130,48.5C 129.651,45.9381 128.817,43.4381 127.5,41C 133.06,41.1052 138.06,42.9386 142.5,46.5C 144.053,45.561 145.387,44.3943 146.5,43C 142.118,32.738 144.118,23.738 152.5,16C 164.628,10.6019 174.128,13.4352 181,24.5C 190.357,19.6517 194.857,11.985 194.5,1.5 Z M 103.5,46.5 C 103.511,43.9991 104.178,43.8324 105.5,46C 104.906,46.4643 104.239,46.631 103.5,46.5 Z M 110.5,77.5 C 116.577,77.1959 122.577,77.6959 128.5,79C 127.594,80.6995 127.261,82.5328 127.5,84.5C 122.33,84.6671 117.497,86.0004 113,88.5C 109.142,85.9882 104.975,84.1548 100.5,83C 103.767,80.8703 107.1,79.037 110.5,77.5 Z M 206.5,71.5 C 208.144,71.2865 209.644,71.6198 211,72.5C 213.051,77.1505 213.884,81.8171 213.5,86.5C 210.489,83.9931 207.156,81.9931 203.5,80.5C 205.874,77.9717 206.874,74.9717 206.5,71.5 Z M 84.5,111.5 C 82.9719,111.483 82.4719,110.816 83,109.5C 83.7172,110.044 84.2172,110.711 84.5,111.5 Z M 90.5,117.5 C 100.585,125.206 111.918,130.206 124.5,132.5C 126.932,138.628 129.265,144.794 131.5,151C 131.122,152.635 130.456,154.135 129.5,155.5C 126.579,154.593 123.579,154.26 120.5,154.5C 120.509,156.308 120.009,157.975 119,159.5C 114.382,153.947 108.549,152.114 101.5,154C 98.2716,155.563 96.1049,158.063 95,161.5C 91.9947,157.494 89.4947,153.16 87.5,148.5C 92.8536,138.59 93.8536,128.257 90.5,117.5 Z M 196.5,128.5 C 199.298,130.734 201.131,133.734 202,137.5C 203.478,145.111 203.812,152.778 203,160.5C 201.71,162.792 200.043,164.792 198,166.5C 197,165.833 196,165.167 195,164.5C 194.818,161.774 194.318,159.107 193.5,156.5C 191.167,155.333 188.833,154.167 186.5,153C 181.208,153.98 180.041,151.814 183,146.5C 188.511,141.17 193.011,135.17 196.5,128.5 Z"/></g>
<g><path style="opacity:1" fill="#027035" d="M 137.5,56.5 C 139.044,59.1721 138.711,61.5055 136.5,63.5C 135.699,61.9582 135.366,60.2915 135.5,58.5C 136.167,57.8333 136.833,57.1667 137.5,56.5 Z"/></g>
<g><path style="opacity:1" fill="#deb945" d="M 114.5,58.5 C 112.596,58.7376 111.262,59.7376 110.5,61.5C 107.925,62.7284 105.592,64.3951 103.5,66.5C 102.824,65.3984 102.158,64.3984 101.5,63.5C 100.259,60.995 101.259,59.495 104.5,59C 107.926,57.4245 111.26,57.2578 114.5,58.5 Z"/></g>
<g><path style="opacity:1" fill="#5f567e" d="M 110.5,56.5 C 111.622,55.8442 112.955,55.5108 114.5,55.5C 120.155,56.1273 125.821,56.6273 131.5,57C 132.056,57.3826 132.389,57.8826 132.5,58.5C 131.5,58.5 130.5,58.5 129.5,58.5C 129.674,60.861 130.007,63.1944 130.5,65.5C 130.762,66.9778 130.429,68.3112 129.5,69.5C 122.847,71.5122 122.847,73.5122 129.5,75.5C 122.909,75.5677 116.242,75.7344 109.5,76C 104.971,77.5139 100.805,79.6806 97,82.5C 96.6174,81.944 96.1174,81.6107 95.5,81.5C 98.5714,77.9135 101.071,73.9135 103,69.5C 105.705,66.9638 108.205,64.2971 110.5,61.5C 111.262,59.7376 112.596,58.7376 114.5,58.5C 115.289,58.2172 115.956,57.7172 116.5,57C 114.527,56.5045 112.527,56.3379 110.5,56.5 Z"/></g>
<g><path style="opacity:1" fill="#f0f1f1" d="M 183.5,61.5 C 180.458,61.7329 177.792,62.7329 175.5,64.5C 175.06,66.8439 174.06,68.8439 172.5,70.5C 171.121,67.9265 169.121,66.4265 166.5,66C 163.837,69.4934 161.837,73.3267 160.5,77.5C 159.517,73.7016 159.183,69.7016 159.5,65.5C 157.473,65.3379 155.473,65.5045 153.5,66C 152.274,67.6349 150.941,69.1349 149.5,70.5C 147.344,68.0617 145.011,67.895 142.5,70C 141.865,73.6027 141.198,77.1027 140.5,80.5C 139.066,74.4222 137.066,74.0889 134.5,79.5C 133.539,77.7354 133.205,75.7354 133.5,73.5C 131.25,73.8186 129.25,73.3186 127.5,72C 129.909,70.2932 132.575,69.4598 135.5,69.5C 135.737,68.209 135.404,67.209 134.5,66.5C 134.5,65.8333 134.5,65.1667 134.5,64.5C 134.842,63.6618 135.508,63.3284 136.5,63.5C 138.513,67.7836 141.346,68.4503 145,65.5C 145.956,62.6229 147.289,59.9562 149,57.5C 150.789,59.8655 152.956,61.5321 155.5,62.5C 158.33,62.0372 160.997,61.3705 163.5,60.5C 163.5,59.8333 163.833,59.5 164.5,59.5C 167.797,56.7044 170.964,53.7044 174,50.5C 174.175,53.1572 174.008,55.8239 173.5,58.5C 177.637,58.1463 181.637,58.6463 185.5,60C 184.584,60.2784 183.918,60.7784 183.5,61.5 Z"/></g>
<g><path style="opacity:1" fill="#f1c94b" d="M 164.5,59.5 C 163.833,59.5 163.5,59.8333 163.5,60.5C 161.328,59.1989 158.995,58.1989 156.5,57.5C 156.768,59.099 156.434,60.4324 155.5,61.5C 154.503,61.5299 153.836,61.0299 153.5,60C 154.32,58.1997 154.986,56.3664 155.5,54.5C 156.837,53.6851 157.837,52.5185 158.5,51C 165.54,50.52 167.54,53.3534 164.5,59.5 Z"/></g>
<g><path style="opacity:1" fill="#776d9c" d="M 134.5,52.5 C 135.15,54.4352 135.483,56.4352 135.5,58.5C 134.5,58.5 133.5,58.5 132.5,58.5C 132.389,57.8826 132.056,57.3826 131.5,57C 125.821,56.6273 120.155,56.1273 114.5,55.5C 112.955,55.5108 111.622,55.8442 110.5,56.5C 106.103,57.3008 101.769,58.3008 97.5,59.5C 96.9935,55.9929 97.6602,52.8263 99.5,50C 111.65,45.9153 123.316,46.7487 134.5,52.5 Z"/></g>
<g><path style="opacity:1" fill="#025f2c" d="M 95.5,45.5 C 101.51,45.2245 101.843,46.0579 96.5,48C 96.9574,48.414 97.2907,48.914 97.5,49.5C 95.9395,56.3887 95.1061,63.3887 95,70.5C 94.0272,73.7789 92.5272,76.7789 90.5,79.5C 90.6236,80.1067 90.9569,80.44 91.5,80.5C 91.44,81.0431 91.1067,81.3764 90.5,81.5C 89.2757,79.1022 89.4424,76.7689 91,74.5C 91.182,65.9217 91.682,57.4217 92.5,49C 90.8333,48.6667 89.1667,48.3333 87.5,48C 90.2916,47.4577 92.9583,46.6244 95.5,45.5 Z"/></g>
<g><path style="opacity:1" fill="#047236" d="M 155.5,54.5 C 154.115,55.5736 152.949,56.9069 152,58.5C 151.667,56.5 151.333,54.5 151,52.5C 150.51,53.7932 150.343,55.1266 150.5,56.5C 149.178,56.33 148.011,56.6634 147,57.5C 146.026,55.1224 145.359,55.4557 145,58.5C 144.329,57.7476 143.496,57.4142 142.5,57.5C 141.393,55.1534 139.726,54.82 137.5,56.5C 140.319,50.8492 144.652,46.6825 150.5,44C 153.715,43.4107 156.715,43.9107 159.5,45.5C 160.726,45.4805 161.726,45.1471 162.5,44.5C 163.167,44.5 163.833,44.5 164.5,44.5C 167.104,43.4696 169.771,43.4696 172.5,44.5C 174.674,44.7497 176.341,45.7497 177.5,47.5C 176.782,49.1368 176.616,50.8034 177,52.5C 179.382,46.2873 183.549,41.954 189.5,39.5C 189.691,44.8993 189.191,50.2326 188,55.5C 186.715,58.8036 184.548,59.4703 181.5,57.5C 181.851,55.1305 182.018,52.7972 182,50.5C 180.798,52.6775 180.298,55.0108 180.5,57.5C 178.801,57.6602 177.134,57.4935 175.5,57C 176.308,54.1562 175.974,51.3228 174.5,48.5C 172.183,50.316 170.016,52.316 168,54.5C 166.571,50.7363 163.904,48.403 160,47.5C 157.481,49.2115 155.981,51.5448 155.5,54.5 Z"/></g>
<g><path style="opacity:1" fill="#6d638f" d="M 134.5,52.5 C 132.929,48.7138 131.429,45.0471 130,41.5C 134.083,43.4567 137.917,45.79 141.5,48.5C 139.944,51.816 137.611,53.1493 134.5,52.5 Z"/></g>
<g><path style="opacity:1" fill="#027537" d="M 214.5,41.5 C 217.498,44.667 220.331,48.0003 223,51.5C 229.667,62.1667 236.333,72.8333 243,83.5C 245.11,87.3857 246.943,91.3857 248.5,95.5C 248.058,96.7387 247.391,97.7387 246.5,98.5C 245.504,98.4142 244.671,98.7476 244,99.5C 243.808,97.4233 243.308,95.4233 242.5,93.5C 241.893,93.6236 241.56,93.9569 241.5,94.5C 240.094,94.9731 239.427,95.9731 239.5,97.5C 238.463,98.9303 237.796,100.597 237.5,102.5C 236.802,105.897 236.135,109.397 235.5,113C 227.785,115.143 219.952,116.643 212,117.5C 199.722,117.112 189.889,112.112 182.5,102.5C 181.828,103.949 181.161,105.282 180.5,106.5C 179.833,105.167 178.833,104.167 177.5,103.5C 176.611,101.264 175.278,99.264 173.5,97.5C 171.364,96.2072 169.364,96.2072 167.5,97.5C 161.995,99.7487 156.995,102.749 152.5,106.5C 150.78,104.342 149.947,101.675 150,98.5C 149.667,101.5 149.333,104.5 149,107.5C 147.08,104.661 145.413,101.661 144,98.5C 143.79,101.269 144.623,103.769 146.5,106C 145.906,106.464 145.239,106.631 144.5,106.5C 144.027,105.094 143.027,104.427 141.5,104.5C 140.942,103.21 139.942,102.377 138.5,102C 139.167,101.667 139.833,101.333 140.5,101C 131.04,94.6144 128.04,86.1144 131.5,75.5C 132.308,77.4233 132.808,79.4233 133,81.5C 133.717,80.9558 134.217,80.2891 134.5,79.5C 135.482,78.8592 136.482,78.1925 137.5,77.5C 138.288,78.7701 139.288,79.7701 140.5,80.5C 140.461,81.7562 140.961,82.7562 142,83.5C 141.37,76.1807 143.037,75.1807 147,80.5C 147.494,78.8659 147.66,77.1992 147.5,75.5C 148.93,75.5792 150.264,75.2458 151.5,74.5C 152.99,76.1256 154.49,77.7923 156,79.5C 156.915,78.6721 157.581,77.6721 158,76.5C 158.306,81.0376 159.14,81.3709 160.5,77.5C 161.837,73.3267 163.837,69.4934 166.5,66C 169.121,66.4265 171.121,67.9265 172.5,70.5C 172.811,71.4778 173.478,72.1445 174.5,72.5C 175.48,69.9135 175.813,67.2469 175.5,64.5C 177.792,62.7329 180.458,61.7329 183.5,61.5C 185.167,61.5 186.833,61.5 188.5,61.5C 189.884,64.3082 190.551,67.3082 190.5,70.5C 190.11,74.9968 189.11,79.3302 187.5,83.5C 185.095,84.3981 183.095,85.8981 181.5,88C 183.804,87.4267 185.971,86.26 188,84.5C 188.483,85.448 188.649,86.448 188.5,87.5C 186.875,92.7443 189.042,95.411 195,95.5C 197.221,95.6068 199.054,94.9402 200.5,93.5C 200.962,92.1201 201.962,91.4534 203.5,91.5C 205.618,92.9762 207.118,94.9762 208,97.5C 208.464,96.9056 208.631,96.2389 208.5,95.5C 209.166,92.6417 209.833,89.6417 210.5,86.5C 211.5,87.1667 212.5,87.8333 213.5,88.5C 214.291,94.9838 216.624,100.817 220.5,106C 221.167,106.667 221.833,106.667 222.5,106C 217.182,100.205 215.182,93.3715 216.5,85.5C 218.179,85.7148 219.179,85.0481 219.5,83.5C 219.5,82.8333 219.5,82.1667 219.5,81.5C 221.035,78.6702 220.035,77.3369 216.5,77.5C 216.663,79.8568 216.497,82.1902 216,84.5C 215.313,79.5556 213.813,74.8889 211.5,70.5C 213.406,68.1077 214.239,65.441 214,62.5C 212.421,64.0412 210.587,65.2078 208.5,66C 209.624,66.2492 210.624,66.7492 211.5,67.5C 209.955,68.4519 208.288,68.7852 206.5,68.5C 203.429,66.9481 202.763,64.6148 204.5,61.5C 200.085,63.5418 197.918,62.2085 198,57.5C 201.349,54.4302 204.516,51.2635 207.5,48C 209.557,47.6948 211.557,47.6948 213.5,48C 211.386,46.482 209.053,46.1487 206.5,47C 203.442,50.3796 200.109,53.5463 196.5,56.5C 194.744,54.8087 194.244,52.8087 195,50.5C 197.167,49 199.333,47.5 201.5,46C 198.649,46.1724 196.149,47.3391 194,49.5C 191.895,46.9894 192.062,44.6561 194.5,42.5C 197.238,42.1125 199.572,41.1125 201.5,39.5C 203.488,39.1729 205.488,38.8396 207.5,38.5C 210.046,39.0567 212.379,40.0567 214.5,41.5 Z M 206.5,71.5 C 206.874,74.9717 205.874,77.9717 203.5,80.5C 207.156,81.9931 210.489,83.9931 213.5,86.5C 213.884,81.8171 213.051,77.1505 211,72.5C 209.644,71.6198 208.144,71.2865 206.5,71.5 Z"/></g>
<g><path style="opacity:1" fill="#0b3a25" d="M 204.5,61.5 C 206.255,58.7577 207.922,55.9244 209.5,53C 211.635,52.3653 213.635,52.6986 215.5,54C 213.527,54.4955 211.527,54.6621 209.5,54.5C 209.031,57.6433 207.364,59.9767 204.5,61.5 Z"/></g>
<g><path style="opacity:1" fill="#1c2b28" d="M 190.5,40.5 C 190.335,44.1817 190.501,47.8484 191,51.5C 191.692,50.9747 192.192,50.3081 192.5,49.5C 191.178,47.1354 191.178,44.8021 192.5,42.5C 195.146,40.7475 198.146,39.7475 201.5,39.5C 199.572,41.1125 197.238,42.1125 194.5,42.5C 192.062,44.6561 191.895,46.9894 194,49.5C 196.149,47.3391 198.649,46.1724 201.5,46C 199.333,47.5 197.167,49 195,50.5C 194.244,52.8087 194.744,54.8087 196.5,56.5C 200.109,53.5463 203.442,50.3796 206.5,47C 209.053,46.1487 211.386,46.482 213.5,48C 211.557,47.6948 209.557,47.6948 207.5,48C 204.516,51.2635 201.349,54.4302 198,57.5C 197.918,62.2085 200.085,63.5418 204.5,61.5C 202.763,64.6148 203.429,66.9481 206.5,68.5C 205.448,68.6495 204.448,68.4828 203.5,68C 202.95,66.1554 201.95,64.6554 200.5,63.5C 199.158,65.0049 197.492,65.6715 195.5,65.5C 197.431,70.2746 199.098,74.9413 200.5,79.5C 199.791,80.404 198.791,80.7373 197.5,80.5C 197.974,72.45 194.974,66.1167 188.5,61.5C 186.833,61.5 185.167,61.5 183.5,61.5C 183.918,60.7784 184.584,60.2784 185.5,60C 181.637,58.6463 177.637,58.1463 173.5,58.5C 174.008,55.8239 174.175,53.1572 174,50.5C 170.964,53.7044 167.797,56.7044 164.5,59.5C 167.54,53.3534 165.54,50.52 158.5,51C 157.837,52.5185 156.837,53.6851 155.5,54.5C 155.981,51.5448 157.481,49.2115 160,47.5C 163.904,48.403 166.571,50.7363 168,54.5C 170.016,52.316 172.183,50.316 174.5,48.5C 175.974,51.3228 176.308,54.1562 175.5,57C 177.134,57.4935 178.801,57.6602 180.5,57.5C 180.298,55.0108 180.798,52.6775 182,50.5C 182.018,52.7972 181.851,55.1305 181.5,57.5C 184.548,59.4703 186.715,58.8036 188,55.5C 189.191,50.2326 189.691,44.8993 189.5,39.5C 183.549,41.954 179.382,46.2873 177,52.5C 176.616,50.8034 176.782,49.1368 177.5,47.5C 179.821,44.371 182.488,41.5377 185.5,39C 186.333,38.8333 187.167,38.6667 188,38.5C 189.376,38.6842 190.209,39.3509 190.5,40.5 Z"/></g>
<g><path style="opacity:1" fill="#01642d" d="M 195.5,63.5 C 194.627,61.1137 193.127,59.1137 191,57.5C 190.226,55.597 190.56,53.9304 192,52.5C 194.078,56.2502 196.244,59.9169 198.5,63.5C 197.575,64.5624 196.575,64.5624 195.5,63.5 Z"/></g>
<g><path style="opacity:1" fill="#919397" d="M 190.5,40.5 C 191.167,41.1667 191.833,41.8333 192.5,42.5C 191.178,44.8021 191.178,47.1354 192.5,49.5C 192.192,50.3081 191.692,50.9747 191,51.5C 190.501,47.8484 190.335,44.1817 190.5,40.5 Z"/></g>
<g><path style="opacity:1" fill="#01612d" d="M 117.5,33.5 C 119.745,34.8278 120.078,36.6612 118.5,39C 114.121,40.023 110.121,41.8563 106.5,44.5C 106.167,44.1667 105.833,43.8333 105.5,43.5C 109.789,40.5474 113.789,37.214 117.5,33.5 Z"/></g>
<g><path style="opacity:1" fill="#323940" d="M 159.5,27.5 C 162.582,31.3246 164.915,35.6579 166.5,40.5C 168.565,41.8567 170.565,43.19 172.5,44.5C 169.771,43.4696 167.104,43.4696 164.5,44.5C 164.539,43.4168 164.873,42.4168 165.5,41.5C 163.488,36.8119 161.488,32.1452 159.5,27.5 Z"/></g>
<g><path style="opacity:1" fill="#726896" d="M 159.5,27.5 C 161.488,32.1452 163.488,36.8119 165.5,41.5C 164.873,42.4168 164.539,43.4168 164.5,44.5C 163.833,44.5 163.167,44.5 162.5,44.5C 160.533,44.7394 158.699,44.4061 157,43.5C 156.211,37.7633 156.544,32.0966 158,26.5C 158.383,27.056 158.883,27.3893 159.5,27.5 Z"/></g>
<g><path style="opacity:1" fill="#c3c4c5" d="M 201.5,12.5 C 203.136,13.7489 204.303,15.4156 205,17.5C 205.326,22.0721 205.492,26.4055 205.5,30.5C 204.524,34.4734 203.524,34.4734 202.5,30.5C 203.053,27.8653 203.386,25.1986 203.5,22.5C 203.713,19.4733 203.047,16.8066 201.5,14.5C 201.5,13.8333 201.5,13.1667 201.5,12.5 Z"/></g>
<g><path style="opacity:1" fill="#5c5f64" d="M 199.5,8.5 C 200.167,9.83333 200.833,11.1667 201.5,12.5C 201.5,13.1667 201.5,13.8333 201.5,14.5C 201.628,16.6547 201.128,18.6547 200,20.5C 199.501,16.5138 199.334,12.5138 199.5,8.5 Z"/></g>
<g><path style="opacity:1" fill="#f5f5f6" d="M 199.5,8.5 C 199.334,12.5138 199.501,16.5138 200,20.5C 201.128,18.6547 201.628,16.6547 201.5,14.5C 203.047,16.8066 203.713,19.4733 203.5,22.5C 203.386,25.1986 203.053,27.8653 202.5,30.5C 203.524,34.4734 204.524,34.4734 205.5,30.5C 211.646,30.1483 215.313,32.9816 216.5,39C 216.316,40.3756 215.649,41.2089 214.5,41.5C 210.949,35.6561 206.616,34.9895 201.5,39.5C 198.146,39.7475 195.146,40.7475 192.5,42.5C 191.833,41.8333 191.167,41.1667 190.5,40.5C 190.209,39.3509 189.376,38.6842 188,38.5C 187.167,38.6667 186.333,38.8333 185.5,39C 182.488,41.5377 179.821,44.371 177.5,47.5C 176.341,45.7497 174.674,44.7497 172.5,44.5C 170.565,43.19 168.565,41.8567 166.5,40.5C 164.915,35.6579 162.582,31.3246 159.5,27.5C 159.217,24.6846 158.217,24.1846 156.5,26C 155.905,31.2109 155.072,36.3775 154,41.5C 150.311,43.4394 147.977,42.4394 147,38.5C 144.548,28.5762 147.715,21.0762 156.5,16C 171.364,12.7383 179.031,18.5716 179.5,33.5C 177.608,37.1684 174.608,38.3351 170.5,37C 168.396,34.9576 167.229,32.4576 167,29.5C 166.229,37.3857 169.729,40.2191 177.5,38C 178.883,36.7292 179.883,35.2292 180.5,33.5C 180.5,30.8333 180.5,28.1667 180.5,25.5C 190.611,21.8584 196.111,14.525 197,3.5C 198.372,4.91008 199.205,6.57675 199.5,8.5 Z"/></g>
<g><path style="opacity:1" fill="#1a2a28" d="M 214.5,41.5 C 212.379,40.0567 210.046,39.0567 207.5,38.5C 205.488,38.8396 203.488,39.1729 201.5,39.5C 206.616,34.9895 210.949,35.6561 214.5,41.5 Z"/></g>
<g><path style="opacity:1" fill="#3c4046" d="M 179.5,33.5 C 179.833,33.5 180.167,33.5 180.5,33.5C 179.883,35.2292 178.883,36.7292 177.5,38C 169.729,40.2191 166.229,37.3857 167,29.5C 167.229,32.4576 168.396,34.9576 170.5,37C 174.608,38.3351 177.608,37.1684 179.5,33.5 Z"/></g>
<g><path style="opacity:1" fill="#6e6b63" d="M 163.5,60.5 C 160.997,61.3705 158.33,62.0372 155.5,62.5C 155.5,62.1667 155.5,61.8333 155.5,61.5C 156.434,60.4324 156.768,59.099 156.5,57.5C 158.995,58.1989 161.328,59.1989 163.5,60.5 Z"/></g>
<g><path style="opacity:1" fill="#c0c1c3" d="M 195.5,63.5 C 195.5,64.1667 195.5,64.8333 195.5,65.5C 193.329,63.4998 190.996,61.6665 188.5,60C 189,59.5 189.5,59 190,58.5C 191.704,60.3734 193.537,62.0401 195.5,63.5 Z"/></g>
<g><path style="opacity:1" fill="#706894" d="M 76.5,66.5 C 75.2029,68.1612 73.8696,69.8278 72.5,71.5C 70.2459,67.6296 70.5792,64.1296 73.5,61C 74.448,60.5172 75.448,60.3505 76.5,60.5C 76.5,62.5 76.5,64.5 76.5,66.5 Z"/></g>
<g><path style="opacity:1" fill="#1b2528" d="M 132.5,58.5 C 133.5,58.5 134.5,58.5 135.5,58.5C 135.366,60.2915 135.699,61.9582 136.5,63.5C 135.508,63.3284 134.842,63.6618 134.5,64.5C 130.805,62.8684 130.805,61.5351 134.5,60.5C 133.757,59.8182 133.091,59.1515 132.5,58.5 Z"/></g>
<g><path style="opacity:1" fill="#045d2c" d="M 132.5,58.5 C 133.091,59.1515 133.757,59.8182 134.5,60.5C 130.805,61.5351 130.805,62.8684 134.5,64.5C 134.5,65.1667 134.5,65.8333 134.5,66.5C 134.631,67.3764 134.298,68.0431 133.5,68.5C 132.265,67.6602 131.265,66.6602 130.5,65.5C 130.007,63.1944 129.674,60.861 129.5,58.5C 130.5,58.5 131.5,58.5 132.5,58.5 Z"/></g>
<g><path style="opacity:1" fill="#353f38" d="M 155.5,54.5 C 154.986,56.3664 154.32,58.1997 153.5,60C 153.836,61.0299 154.503,61.5299 155.5,61.5C 155.5,61.8333 155.5,62.1667 155.5,62.5C 152.956,61.5321 150.789,59.8655 149,57.5C 147.289,59.9562 145.956,62.6229 145,65.5C 141.346,68.4503 138.513,67.7836 136.5,63.5C 138.711,61.5055 139.044,59.1721 137.5,56.5C 139.726,54.82 141.393,55.1534 142.5,57.5C 143.496,57.4142 144.329,57.7476 145,58.5C 145.359,55.4557 146.026,55.1224 147,57.5C 148.011,56.6634 149.178,56.33 150.5,56.5C 150.343,55.1266 150.51,53.7932 151,52.5C 151.333,54.5 151.667,56.5 152,58.5C 152.949,56.9069 154.115,55.5736 155.5,54.5 Z"/></g>
<g><path style="opacity:1" fill="#e1bd4e" d="M 142.5,57.5 C 143.476,58.8149 144.476,60.1482 145.5,61.5C 144.817,64.4614 143.984,64.7947 143,62.5C 142.517,63.448 142.351,64.448 142.5,65.5C 141.5,65.5 140.5,65.5 139.5,65.5C 139.338,63.4727 139.505,61.4727 140,59.5C 140.417,58.244 141.25,57.5774 142.5,57.5 Z"/></g>
<g><path style="opacity:1" fill="#01602c" d="M 188.5,61.5 C 194.974,66.1167 197.974,72.45 197.5,80.5C 194.034,81.0769 190.701,82.0769 187.5,83.5C 189.11,79.3302 190.11,74.9968 190.5,70.5C 190.551,67.3082 189.884,64.3082 188.5,61.5 Z"/></g>
<g><path style="opacity:1" fill="#cdcece" d="M 206.5,68.5 C 209.258,69.9665 208.925,70.6332 205.5,70.5C 205.51,74.5034 203.843,77.5034 200.5,79.5C 199.098,74.9413 197.431,70.2746 195.5,65.5C 197.492,65.6715 199.158,65.0049 200.5,63.5C 201.95,64.6554 202.95,66.1554 203.5,68C 204.448,68.4828 205.448,68.6495 206.5,68.5 Z"/></g>
<g><path style="opacity:1" fill="#3c4144" d="M 160.5,77.5 C 159.14,81.3709 158.306,81.0376 158,76.5C 157.581,77.6721 156.915,78.6721 156,79.5C 154.49,77.7923 152.99,76.1256 151.5,74.5C 150.264,75.2458 148.93,75.5792 147.5,75.5C 147.66,77.1992 147.494,78.8659 147,80.5C 143.037,75.1807 141.37,76.1807 142,83.5C 140.961,82.7562 140.461,81.7562 140.5,80.5C 141.198,77.1027 141.865,73.6027 142.5,70C 145.011,67.895 147.344,68.0617 149.5,70.5C 150.941,69.1349 152.274,67.6349 153.5,66C 155.473,65.5045 157.473,65.3379 159.5,65.5C 159.183,69.7016 159.517,73.7016 160.5,77.5 Z"/></g>
<g><path style="opacity:1" fill="#d3b142" d="M 101.5,63.5 C 102.076,69.6823 99.9091,74.6823 95,78.5C 96.1228,72.98 96.6228,67.3133 96.5,61.5C 98.5138,61.3915 100.18,62.0582 101.5,63.5 Z"/></g>
<g><path style="opacity:1" fill="#0f3325" d="M 175.5,64.5 C 175.813,67.2469 175.48,69.9135 174.5,72.5C 173.478,72.1445 172.811,71.4778 172.5,70.5C 174.06,68.8439 175.06,66.8439 175.5,64.5 Z"/></g>
<g><path style="opacity:0.847" fill="#161d23" d="M 130.5,65.5 C 131.265,66.6602 132.265,67.6602 133.5,68.5C 134.298,68.0431 134.631,67.3764 134.5,66.5C 135.404,67.209 135.737,68.209 135.5,69.5C 132.575,69.4598 129.909,70.2932 127.5,72C 129.25,73.3186 131.25,73.8186 133.5,73.5C 133.205,75.7354 133.539,77.7354 134.5,79.5C 134.217,80.2891 133.717,80.9558 133,81.5C 132.808,79.4233 132.308,77.4233 131.5,75.5C 128.04,86.1144 131.04,94.6144 140.5,101C 139.833,101.333 139.167,101.667 138.5,102C 139.942,102.377 140.942,103.21 141.5,104.5C 137.947,102.805 134.947,103.472 132.5,106.5C 133.254,103.909 134.921,102.076 137.5,101C 136.5,100 135.5,99 134.5,98C 132.122,98.5747 129.622,99.0747 127,99.5C 125.615,99.4857 124.449,99.1524 123.5,98.5C 126.893,98.9383 129.893,98.1049 132.5,96C 130.646,93.4571 129.479,90.6237 129,87.5C 124.993,85.8799 121.493,86.5466 118.5,89.5C 118.631,88.7611 118.464,88.0944 118,87.5C 116.144,89.4062 113.977,90.2395 111.5,90C 106.875,87.4387 102.041,85.272 97,83.5C 95.9701,83.1639 95.4701,82.4972 95.5,81.5C 96.1174,81.6107 96.6174,81.944 97,82.5C 100.805,79.6806 104.971,77.5139 109.5,76C 116.242,75.7344 122.909,75.5677 129.5,75.5C 122.847,73.5122 122.847,71.5122 129.5,69.5C 130.429,68.3112 130.762,66.9778 130.5,65.5 Z M 110.5,77.5 C 107.1,79.037 103.767,80.8703 100.5,83C 104.975,84.1548 109.142,85.9882 113,88.5C 117.497,86.0004 122.33,84.6671 127.5,84.5C 127.261,82.5328 127.594,80.6995 128.5,79C 122.577,77.6959 116.577,77.1959 110.5,77.5 Z"/></g>
<g><path style="opacity:1" fill="#2e3f3b" d="M 140.5,80.5 C 139.288,79.7701 138.288,78.7701 137.5,77.5C 136.482,78.1925 135.482,78.8592 134.5,79.5C 137.066,74.0889 139.066,74.4222 140.5,80.5 Z"/></g>
<g><path style="opacity:1" fill="#7a6f9f" d="M 68.5,140.5 C 70.1767,150.696 75.6767,153.696 85,149.5C 87.6669,154.838 90.8336,159.838 94.5,164.5C 91.2266,163.458 88.2266,161.292 85.5,158C 84.552,157.517 83.552,157.351 82.5,157.5C 83.3217,173.31 89.655,186.477 101.5,197C 113.264,203.316 122.264,200.816 128.5,189.5C 131.493,191.663 134.827,193.33 138.5,194.5C 140.472,211.984 150.139,220.15 167.5,219C 173.864,214.66 175.031,209.16 171,202.5C 166.641,196.478 161.641,195.145 156,198.5C 162.877,196.579 167.877,198.912 171,205.5C 171.495,207.473 171.662,209.473 171.5,211.5C 164.324,214.409 157.324,213.909 150.5,210C 147.589,207.584 144.923,205.084 142.5,202.5C 139.265,191.137 143.265,183.637 154.5,180C 178.286,178.622 190.953,189.789 192.5,213.5C 182.925,226.443 169.925,232.109 153.5,230.5C 130.151,229.109 109.817,220.609 92.5,205C 72.7919,185.745 59.1252,162.912 51.5,136.5C 47.6837,115.078 51.8504,95.4114 64,77.5C 63.8724,80.4856 63.8724,83.4856 64,86.5C 68.2244,89.4426 71.3911,93.2759 73.5,98C 66.3136,111.634 64.647,125.8 68.5,140.5 Z"/></g>
<g><path style="opacity:0.878" fill="#131e21" d="M 219.5,81.5 C 218.422,77.7302 217.755,77.7302 217.5,81.5C 217.233,83.9761 217.899,84.6428 219.5,83.5C 219.179,85.0481 218.179,85.7148 216.5,85.5C 215.182,93.3715 217.182,100.205 222.5,106C 221.833,106.667 221.167,106.667 220.5,106C 216.624,100.817 214.291,94.9838 213.5,88.5C 212.5,87.8333 211.5,87.1667 210.5,86.5C 209.833,89.6417 209.166,92.6417 208.5,95.5C 208.665,92.1501 208.498,88.8168 208,85.5C 203.219,82.6374 198.052,81.804 192.5,83C 190.93,84.3968 189.596,85.8968 188.5,87.5C 188.649,86.448 188.483,85.448 188,84.5C 185.971,86.26 183.804,87.4267 181.5,88C 183.095,85.8981 185.095,84.3981 187.5,83.5C 190.701,82.0769 194.034,81.0769 197.5,80.5C 198.791,80.7373 199.791,80.404 200.5,79.5C 203.843,77.5034 205.51,74.5034 205.5,70.5C 208.925,70.6332 209.258,69.9665 206.5,68.5C 208.288,68.7852 209.955,68.4519 211.5,67.5C 210.624,66.7492 209.624,66.2492 208.5,66C 210.587,65.2078 212.421,64.0412 214,62.5C 214.239,65.441 213.406,68.1077 211.5,70.5C 213.813,74.8889 215.313,79.5556 216,84.5C 216.497,82.1902 216.663,79.8568 216.5,77.5C 220.035,77.3369 221.035,78.6702 219.5,81.5 Z M 206.5,71.5 C 206.874,74.9717 205.874,77.9717 203.5,80.5C 207.156,81.9931 210.489,83.9931 213.5,86.5C 213.884,81.8171 213.051,77.1505 211,72.5C 209.644,71.6198 208.144,71.2865 206.5,71.5 Z"/></g>
<g><path style="opacity:1" fill="#675f88" d="M 219.5,81.5 C 219.5,82.1667 219.5,82.8333 219.5,83.5C 217.899,84.6428 217.233,83.9761 217.5,81.5C 217.755,77.7302 218.422,77.7302 219.5,81.5 Z"/></g>
<g><path style="opacity:1" fill="#2f3c44" d="M 222.5,77.5 C 223.822,77.33 224.989,77.6634 226,78.5C 227.184,82.4489 227.518,86.4489 227,90.5C 225.062,91.8602 223.396,91.5268 222,89.5C 221.238,85.4126 221.404,81.4126 222.5,77.5 Z"/></g>
<g><path style="opacity:1" fill="#7b70a0" d="M 223.5,78.5 C 224.222,78.9175 224.722,79.5842 225,80.5C 225.667,83.8333 225.667,87.1667 225,90.5C 223.576,86.7032 223.076,82.7032 223.5,78.5 Z"/></g>
<g><path style="opacity:1" fill="#766c9b" d="M 208.5,95.5 C 208.631,96.2389 208.464,96.9056 208,97.5C 207.118,94.9762 205.618,92.9762 203.5,91.5C 201.962,91.4534 200.962,92.1201 200.5,93.5C 197.15,93.665 193.817,93.4983 190.5,93C 188.845,91.5557 188.178,89.7224 188.5,87.5C 189.596,85.8968 190.93,84.3968 192.5,83C 198.052,81.804 203.219,82.6374 208,85.5C 208.498,88.8168 208.665,92.1501 208.5,95.5 Z"/></g>
<g><path style="opacity:1" fill="#00642c" d="M 66.5,78.5 C 67.3091,80.2922 67.8091,82.2922 68,84.5C 74.9291,89.4252 81.2625,95.0919 87,101.5C 87.4643,100.906 87.631,100.239 87.5,99.5C 87.8333,99.5 88.1667,99.5 88.5,99.5C 88.5,100.5 88.5,101.5 88.5,102.5C 89.8333,102.5 91.1667,102.5 92.5,102.5C 92.0825,103.222 91.4158,103.722 90.5,104C 92.1667,105.167 93.8333,106.333 95.5,107.5C 96.2975,107.043 96.6309,106.376 96.5,105.5C 96.8333,105.5 97.1667,105.5 97.5,105.5C 97.5,105.833 97.5,106.167 97.5,106.5C 98.9187,107.451 100.585,107.784 102.5,107.5C 101.391,108.29 100.058,108.79 98.5,109C 107.26,111.951 116.26,113.118 125.5,112.5C 125.5,115.833 125.5,119.167 125.5,122.5C 124.532,124.607 124.198,126.941 124.5,129.5C 112.076,127.956 101.076,123.122 91.5,115C 82.6455,105.447 74.1455,95.6133 66,85.5C 65.2967,83.0709 65.4634,80.7375 66.5,78.5 Z"/></g>
<g><path style="opacity:1" fill="#716894" d="M 123.5,98.5 C 122.417,98.4606 121.417,98.1272 120.5,97.5C 119.482,98.1925 118.482,98.8592 117.5,99.5C 116.742,97.0185 116.742,94.3519 117.5,91.5C 117.328,90.5084 117.662,89.8417 118.5,89.5C 121.493,86.5466 124.993,85.8799 129,87.5C 129.479,90.6237 130.646,93.4571 132.5,96C 129.893,98.1049 126.893,98.9383 123.5,98.5 Z"/></g>
<g><path style="opacity:1" fill="#232e36" d="M 188.5,87.5 C 188.178,89.7224 188.845,91.5557 190.5,93C 193.817,93.4983 197.15,93.665 200.5,93.5C 199.054,94.9402 197.221,95.6068 195,95.5C 189.042,95.411 186.875,92.7443 188.5,87.5 Z"/></g>
<g><path style="opacity:1" fill="#29373d" d="M 117.5,91.5 C 116.742,94.3519 116.742,97.0185 117.5,99.5C 116.149,103.23 115.149,103.23 114.5,99.5C 114.737,96.4452 115.737,93.7785 117.5,91.5 Z"/></g>
<g><path style="opacity:1" fill="#766b9a" d="M 241.5,94.5 C 242.461,96.2646 242.795,98.2646 242.5,100.5C 243.833,100.5 245.167,100.5 246.5,100.5C 246.95,105.933 244.616,109.6 239.5,111.5C 238.431,106.844 238.431,102.178 239.5,97.5C 239.427,95.9731 240.094,94.9731 241.5,94.5 Z"/></g>
<g><path style="opacity:1" fill="#786d9d" d="M 167.5,97.5 C 168.873,97.3433 170.207,97.51 171.5,98C 173.37,100.04 175.37,101.873 177.5,103.5C 178.723,106.274 180.223,108.941 182,111.5C 182.667,112.5 182.667,113.5 182,114.5C 177.614,121.721 171.78,127.387 164.5,131.5C 159.03,129.345 153.53,127.345 148,125.5C 145.148,125.343 142.982,126.51 141.5,129C 140.167,129.667 138.833,129.667 137.5,129C 134.296,126.131 131.463,122.965 129,119.5C 128.333,117.833 128.333,116.167 129,114.5C 130.454,111.929 131.62,109.262 132.5,106.5C 134.947,103.472 137.947,102.805 141.5,104.5C 143.027,104.427 144.027,105.094 144.5,106.5C 147.265,110.327 149.932,110.327 152.5,106.5C 156.995,102.749 161.995,99.7487 167.5,97.5 Z"/></g>
<g><path style="opacity:1" fill="#1a2129" d="M 167.5,97.5 C 169.364,96.2072 171.364,96.2072 173.5,97.5C 175.278,99.264 176.611,101.264 177.5,103.5C 175.37,101.873 173.37,100.04 171.5,98C 170.207,97.51 168.873,97.3433 167.5,97.5 Z"/></g>
<g><path style="opacity:1" fill="#f0c84a" d="M 77.5,112.5 C 70.1184,118.893 68.6184,126.559 73,135.5C 74.7328,137.602 76.7328,137.935 79,136.5C 81.7525,132.667 82.0858,128.667 80,124.5C 79.6667,127.5 79.3333,130.5 79,133.5C 77.6883,135.658 76.0217,135.991 74,134.5C 71.1398,126.714 72.3064,119.714 77.5,113.5C 81.9093,112.618 85.4093,113.952 88,117.5C 90.6538,124.346 91.1538,131.346 89.5,138.5C 82.0114,146.819 75.0114,146.485 68.5,137.5C 66.0202,123.746 68.1868,110.746 75,98.5C 77.2937,102.813 78.127,107.48 77.5,112.5 Z"/></g>
<g><path style="opacity:1" fill="#4f4a69" d="M 241.5,94.5 C 241.56,93.9569 241.893,93.6236 242.5,93.5C 243.308,95.4233 243.808,97.4233 244,99.5C 244.671,98.7476 245.504,98.4142 246.5,98.5C 247.5,98.5 248.5,98.5 249.5,98.5C 249.879,103.297 249.379,107.964 248,112.5C 245.431,114.899 242.598,115.566 239.5,114.5C 238.778,114.082 238.278,113.416 238,112.5C 237.502,109.183 237.335,105.85 237.5,102.5C 237.796,100.597 238.463,98.9303 239.5,97.5C 238.431,102.178 238.431,106.844 239.5,111.5C 244.616,109.6 246.95,105.933 246.5,100.5C 245.167,100.5 243.833,100.5 242.5,100.5C 242.795,98.2646 242.461,96.2646 241.5,94.5 Z"/></g>
<g><path style="opacity:1" fill="#103025" d="M 198.5,101.5 C 202.683,100.189 207.016,100.189 211.5,101.5C 211.058,102.739 210.391,103.739 209.5,104.5C 209.5,103.5 209.5,102.5 209.5,101.5C 205.833,101.5 202.167,101.5 198.5,101.5 Z"/></g>
<g><path style="opacity:1" fill="#282f3b" d="M 92.5,102.5 C 91.1667,102.5 89.8333,102.5 88.5,102.5C 88.5,101.5 88.5,100.5 88.5,99.5C 88.1667,99.5 87.8333,99.5 87.5,99.5C 87.5,97.8333 87.5,96.1667 87.5,94.5C 89.1667,94.5 90.8333,94.5 92.5,94.5C 92.5,97.1667 92.5,99.8333 92.5,102.5 Z"/></g>
<g><path style="opacity:1" fill="#00642c" d="M 237.5,102.5 C 237.335,105.85 237.502,109.183 238,112.5C 238.278,113.416 238.778,114.082 239.5,114.5C 239.631,115.376 239.298,116.043 238.5,116.5C 222.92,124.475 206.587,126.642 189.5,123C 191.833,124 194.167,125 196.5,126C 191.279,132.954 185.945,139.787 180.5,146.5C 179.681,149.305 179.181,152.305 179,155.5C 177.644,154.62 176.144,154.286 174.5,154.5C 175.26,150.919 175.76,147.252 176,143.5C 180.027,138.783 183.027,133.449 185,127.5C 185.667,124.833 185.667,122.167 185,119.5C 184.583,118.244 183.75,117.577 182.5,117.5C 183.289,116.085 183.956,114.585 184.5,113C 183.287,110.738 181.954,108.571 180.5,106.5C 181.161,105.282 181.828,103.949 182.5,102.5C 189.889,112.112 199.722,117.112 212,117.5C 219.952,116.643 227.785,115.143 235.5,113C 236.135,109.397 236.802,105.897 237.5,102.5 Z"/></g>
<g><path style="opacity:1" fill="#756b99" d="M 198.5,101.5 C 202.167,101.5 205.833,101.5 209.5,101.5C 209.5,102.5 209.5,103.5 209.5,104.5C 205.936,105.423 202.269,105.756 198.5,105.5C 198.5,104.167 198.5,102.833 198.5,101.5 Z"/></g>
<g><path style="opacity:1" fill="#262b38" d="M 198.5,101.5 C 198.5,102.833 198.5,104.167 198.5,105.5C 202.269,105.756 205.936,105.423 209.5,104.5C 205.971,106.423 201.971,107.089 197.5,106.5C 197.216,104.585 197.549,102.919 198.5,101.5 Z"/></g>
<g><path style="opacity:1" fill="#122021" d="M 152.5,106.5 C 149.932,110.327 147.265,110.327 144.5,106.5C 145.239,106.631 145.906,106.464 146.5,106C 144.623,103.769 143.79,101.269 144,98.5C 145.413,101.661 147.08,104.661 149,107.5C 149.333,104.5 149.667,101.5 150,98.5C 149.947,101.675 150.78,104.342 152.5,106.5 Z"/></g>
<g><path style="opacity:1" fill="#313646" d="M 209.5,107.5 C 211.167,107.5 212.833,107.5 214.5,107.5C 213.91,111.316 211.577,112.983 207.5,112.5C 207.392,110.486 208.058,108.82 209.5,107.5 Z"/></g>
<g><path style="opacity:1" fill="#007738" d="M 103.5,36.5 C 105.723,42.6056 103.723,44.9389 97.5,43.5C 99.6582,41.9737 99.3249,40.4737 96.5,39C 95.8333,38.3333 95.1667,38.3333 94.5,39C 95.4231,41.0408 95.7564,43.2075 95.5,45.5C 92.9583,46.6244 90.2916,47.4577 87.5,48C 89.1667,48.3333 90.8333,48.6667 92.5,49C 91.682,57.4217 91.182,65.9217 91,74.5C 89.4424,76.7689 89.2757,79.1022 90.5,81.5C 91.1067,81.3764 91.44,81.0431 91.5,80.5C 91.7828,79.7109 92.2828,79.0442 93,78.5C 93.8518,79.5707 94.6851,80.5707 95.5,81.5C 95.4701,82.4972 95.9701,83.1639 97,83.5C 102.041,85.272 106.875,87.4387 111.5,90C 113.977,90.2395 116.144,89.4062 118,87.5C 118.464,88.0944 118.631,88.7611 118.5,89.5C 117.662,89.8417 117.328,90.5084 117.5,91.5C 115.737,93.7785 114.737,96.4452 114.5,99.5C 115.149,103.23 116.149,103.23 117.5,99.5C 118.482,98.8592 119.482,98.1925 120.5,97.5C 121.417,98.1272 122.417,98.4606 123.5,98.5C 124.449,99.1524 125.615,99.4857 127,99.5C 129.622,99.0747 132.122,98.5747 134.5,98C 135.5,99 136.5,100 137.5,101C 134.921,102.076 133.254,103.909 132.5,106.5C 129.615,109.767 127.615,113.6 126.5,118C 129.62,123.454 133.787,127.954 139,131.5C 142.028,129.787 145.028,128.12 148,126.5C 152.545,128.188 157.045,130.021 161.5,132C 163.5,132.667 165.5,132.667 167.5,132C 173.03,127.636 178.03,122.802 182.5,117.5C 183.75,117.577 184.583,118.244 185,119.5C 185.667,122.167 185.667,124.833 185,127.5C 183.027,133.449 180.027,138.783 176,143.5C 175.76,147.252 175.26,150.919 174.5,154.5C 172.932,155.473 171.265,155.64 169.5,155C 168.397,151.961 166.897,149.127 165,146.5C 166.633,150.586 167.799,154.92 168.5,159.5C 167.455,168.027 162.788,171.027 154.5,168.5C 154.125,164.152 151.791,162.485 147.5,163.5C 145.36,163.556 143.694,164.223 142.5,165.5C 142.672,166.492 142.338,167.158 141.5,167.5C 137.993,168.006 134.826,167.34 132,165.5C 132.378,158.856 132.378,152.189 132,145.5C 128.307,138.255 126.14,130.588 125.5,122.5C 125.5,119.167 125.5,115.833 125.5,112.5C 116.26,113.118 107.26,111.951 98.5,109C 100.058,108.79 101.391,108.29 102.5,107.5C 103.486,103.03 103.819,98.3633 103.5,93.5C 100.833,93.1667 98.1667,92.8333 95.5,92.5C 95.7395,96.8422 96.0728,101.176 96.5,105.5C 96.6309,106.376 96.2975,107.043 95.5,107.5C 93.8333,106.333 92.1667,105.167 90.5,104C 91.4158,103.722 92.0825,103.222 92.5,102.5C 92.5,99.8333 92.5,97.1667 92.5,94.5C 90.8333,94.5 89.1667,94.5 87.5,94.5C 87.5,96.1667 87.5,97.8333 87.5,99.5C 87.631,100.239 87.4643,100.906 87,101.5C 81.2625,95.0919 74.9291,89.4252 68,84.5C 67.8091,82.2922 67.3091,80.2922 66.5,78.5C 66.0227,73.258 66.8561,68.258 69,63.5C 69.1978,66.7021 70.0311,69.7021 71.5,72.5C 72.1067,72.3764 72.44,72.0431 72.5,71.5C 73.8696,69.8278 75.2029,68.1612 76.5,66.5C 77.4682,64.3926 77.8016,62.0593 77.5,59.5C 74.3484,58.9586 71.8484,59.9586 70,62.5C 69.8782,60.8314 70.2115,59.1647 71,57.5C 76.2664,47.2433 81.9331,37.2433 88,27.5C 92.5,21.6667 97.6667,16.5 103.5,12C 111.368,12.9505 117.368,16.9505 121.5,24C 120.964,26.24 119.797,28.0734 118,29.5C 114.45,25.6174 111.283,21.4507 108.5,17C 106.5,16.3333 104.5,16.3333 102.5,17C 104.433,17.2511 106.266,17.7511 108,18.5C 111.066,22.7224 113.899,27.0557 116.5,31.5C 116.16,34.0182 114.826,35.1849 112.5,35C 109.526,31.5505 107.192,27.7172 105.5,23.5C 105.167,23.6667 104.833,23.8333 104.5,24C 106.374,28.2481 108.374,32.4148 110.5,36.5C 110.566,38.2664 109.732,39.2664 108,39.5C 106.357,38.6854 104.857,37.6854 103.5,36.5 Z"/></g>
<g><path style="opacity:1" fill="#786e9d" d="M 88.5,99.5 C 88.5,98.1667 88.5,96.8333 88.5,95.5C 89.5,95.5 90.5,95.5 91.5,95.5C 91.7989,97.604 91.4656,99.604 90.5,101.5C 89.8182,100.757 89.1515,100.091 88.5,99.5 Z"/></g>
<g><path style="opacity:1" fill="#796f9f" d="M 97.5,106.5 C 97.5,106.167 97.5,105.833 97.5,105.5C 97.5,101.833 97.5,98.1667 97.5,94.5C 99.1667,94.5 100.833,94.5 102.5,94.5C 102.5,98.5 102.5,102.5 102.5,106.5C 100.833,106.5 99.1667,106.5 97.5,106.5 Z"/></g>
<g><path style="opacity:1" fill="#2f3644" d="M 102.5,107.5 C 100.585,107.784 98.9187,107.451 97.5,106.5C 99.1667,106.5 100.833,106.5 102.5,106.5C 102.5,102.5 102.5,98.5 102.5,94.5C 100.833,94.5 99.1667,94.5 97.5,94.5C 97.5,98.1667 97.5,101.833 97.5,105.5C 97.1667,105.5 96.8333,105.5 96.5,105.5C 96.0728,101.176 95.7395,96.8422 95.5,92.5C 98.1667,92.8333 100.833,93.1667 103.5,93.5C 103.819,98.3633 103.486,103.03 102.5,107.5 Z"/></g>
<g><path style="opacity:1" fill="#494a63" d="M 79.5,51.5 C 81.9484,51.0101 83.615,51.8434 84.5,54C 83.8883,56.0577 82.8883,57.891 81.5,59.5C 78.4263,57.4711 77.7596,54.8045 79.5,51.5 Z"/></g>
<g><path style="opacity:1" fill="#0f1f1e" d="M 103.5,36.5 C 102.229,34.8914 101.229,33.0581 100.5,31C 99.1667,30.6667 97.8333,30.3333 96.5,30C 101.705,28.8466 104.038,31.0132 103.5,36.5 Z"/></g>
<g><path style="opacity:1" fill="#162325" d="M 177.5,103.5 C 178.833,104.167 179.833,105.167 180.5,106.5C 181.954,108.571 183.287,110.738 184.5,113C 183.956,114.585 183.289,116.085 182.5,117.5C 178.03,122.802 173.03,127.636 167.5,132C 165.5,132.667 163.5,132.667 161.5,132C 157.045,130.021 152.545,128.188 148,126.5C 145.028,128.12 142.028,129.787 139,131.5C 133.787,127.954 129.62,123.454 126.5,118C 127.615,113.6 129.615,109.767 132.5,106.5C 131.62,109.262 130.454,111.929 129,114.5C 128.333,116.167 128.333,117.833 129,119.5C 131.463,122.965 134.296,126.131 137.5,129C 138.833,129.667 140.167,129.667 141.5,129C 142.982,126.51 145.148,125.343 148,125.5C 153.53,127.345 159.03,129.345 164.5,131.5C 171.78,127.387 177.614,121.721 182,114.5C 182.667,113.5 182.667,112.5 182,111.5C 180.223,108.941 178.723,106.274 177.5,103.5 Z"/></g>
<g><path style="opacity:1" fill="#615880" d="M 198.5,126.5 C 200.81,125.836 203.31,125.503 206,125.5C 208.95,125.568 211.617,126.234 214,127.5C 214.554,135.86 214.221,144.194 213,152.5C 212.567,157.719 210.067,161.386 205.5,163.5C 205.908,154.866 205.408,146.199 204,137.5C 203.19,133.213 201.357,129.546 198.5,126.5 Z"/></g>
<g><path style="opacity:1" fill="#4e4628" d="M 77.5,112.5 C 77.5,112.833 77.5,113.167 77.5,113.5C 72.3064,119.714 71.1398,126.714 74,134.5C 76.0217,135.991 77.6883,135.658 79,133.5C 79.3333,130.5 79.6667,127.5 80,124.5C 82.0858,128.667 81.7525,132.667 79,136.5C 76.7328,137.935 74.7328,137.602 73,135.5C 68.6184,126.559 70.1184,118.893 77.5,112.5 Z"/></g>
<g><path style="opacity:1" fill="#c9a93f" d="M 68.5,137.5 C 75.0114,146.485 82.0114,146.819 89.5,138.5C 88.5271,144.816 85.0271,148.816 79,150.5C 77.3732,150.375 75.8732,149.875 74.5,149C 72.109,146.363 70.109,143.53 68.5,140.5C 68.5,139.5 68.5,138.5 68.5,137.5 Z"/></g>
<g><path style="opacity:1" fill="#645b84" d="M 51.5,136.5 C 59.1252,162.912 72.7919,185.745 92.5,205C 109.817,220.609 130.151,229.109 153.5,230.5C 169.925,232.109 182.925,226.443 192.5,213.5C 190.088,228.412 181.421,237.246 166.5,240C 151.903,242.035 137.903,240.035 124.5,234C 102.429,224.416 84.4287,209.916 70.5,190.5C 60.2362,173.954 53.9029,155.954 51.5,136.5 Z"/></g>
<g><path style="opacity:1" fill="#fcfcfc" d="M 239.5,187.5 C 240.7,195.264 239.033,202.097 234.5,208C 231.294,207.199 227.961,206.865 224.5,207C 222.676,208.989 220.676,210.823 218.5,212.5C 216.677,211.253 214.677,210.586 212.5,210.5C 212.274,215.209 209.774,217.209 205,216.5C 200.95,217.283 198.783,215.616 198.5,211.5C 197.675,210.614 196.675,210.281 195.5,210.5C 195.737,209.209 195.404,208.209 194.5,207.5C 192.033,193.43 184.033,183.93 170.5,179C 160.852,176.025 152.018,177.525 144,183.5C 141.95,186.148 140.784,189.148 140.5,192.5C 136.763,191.8 133.096,190.8 129.5,189.5C 127.964,183.316 126.464,176.982 125,170.5C 123.291,167.582 121.458,164.748 119.5,162C 120.861,160.416 121.528,158.582 121.5,156.5C 124.249,156.274 126.916,156.607 129.5,157.5C 130.321,160.447 130.821,163.447 131,166.5C 133.37,168.117 136.036,169.117 139,169.5C 140.301,169.361 141.134,168.695 141.5,167.5C 142.338,167.158 142.672,166.492 142.5,165.5C 145.833,165.5 149.167,165.5 152.5,165.5C 152.178,167.722 152.845,169.556 154.5,171C 164.535,172.112 169.868,167.612 170.5,157.5C 173.703,155.423 177.036,155.09 180.5,156.5C 181.594,155.418 182.927,154.752 184.5,154.5C 187.107,155.137 189.44,156.304 191.5,158C 191.953,161.227 192.953,164.227 194.5,167C 196.5,167.667 198.5,167.667 200.5,167C 203.803,164.872 207.47,163.372 211.5,162.5C 216.608,164.22 221.608,166.22 226.5,168.5C 227.112,172.073 228.945,174.74 232,176.5C 232.497,179.146 232.664,181.813 232.5,184.5C 235.491,184.166 237.824,185.166 239.5,187.5 Z"/></g>
<g><path style="opacity:1" fill="#f3ca4b" d="M 125.5,183.5 C 119.237,194.916 110.237,197.583 98.5,191.5C 89.3598,182.486 84.5264,171.486 84,158.5C 87.0155,161.683 90.1822,164.683 93.5,167.5C 94.4742,169.743 94.8076,172.076 94.5,174.5C 95.1787,182.667 99.3454,188 107,190.5C 108.107,190.415 109.107,190.081 110,189.5C 113.795,183.275 113.128,177.608 108,172.5C 108.044,174.279 108.711,175.945 110,177.5C 110.667,180.5 110.667,183.5 110,186.5C 106.122,189.407 102.789,188.74 100,184.5C 97.5837,180.699 96.0837,176.699 95.5,172.5C 94.2502,159.236 99.9169,154.07 112.5,157C 120.951,163.737 125.285,172.57 125.5,183.5 Z"/></g>
<g><path style="opacity:1" fill="#202c32" d="M 145.5,143.5 C 146.26,140.04 147.76,139.707 150,142.5C 151.696,147.661 151.863,152.827 150.5,158C 143.475,158.867 140.975,155.7 143,148.5C 143.757,146.685 144.59,145.019 145.5,143.5 Z"/></g>
<g><path style="opacity:1" fill="#786d9d" d="M 145.5,143.5 C 148.3,142.097 149.8,143.097 150,146.5C 150.667,149.833 150.667,153.167 150,156.5C 146.024,158.382 143.858,157.048 143.5,152.5C 144.586,149.58 145.252,146.58 145.5,143.5 Z"/></g>
<g><path style="opacity:1" fill="#0c2f22" d="M 136.5,150.5 C 137.043,150.56 137.376,150.893 137.5,151.5C 136.568,153.795 135.735,156.129 135,158.5C 134.554,155.667 135.054,153.001 136.5,150.5 Z"/></g>
<g><path style="opacity:1" fill="#233430" d="M 174.5,154.5 C 176.144,154.286 177.644,154.62 179,155.5C 179.181,152.305 179.681,149.305 180.5,146.5C 180.5,149.833 180.5,153.167 180.5,156.5C 177.036,155.09 173.703,155.423 170.5,157.5C 169.868,167.612 164.535,172.112 154.5,171C 152.845,169.556 152.178,167.722 152.5,165.5C 149.167,165.5 145.833,165.5 142.5,165.5C 143.694,164.223 145.36,163.556 147.5,163.5C 151.791,162.485 154.125,164.152 154.5,168.5C 162.788,171.027 167.455,168.027 168.5,159.5C 167.799,154.92 166.633,150.586 165,146.5C 166.897,149.127 168.397,151.961 169.5,155C 171.265,155.64 172.932,155.473 174.5,154.5 Z"/></g>
<g><path style="opacity:1" fill="#cbaa3f" d="M 125.5,183.5 C 125.014,196.071 118.681,200.904 106.5,198C 103.213,196.533 100.546,194.366 98.5,191.5C 110.237,197.583 119.237,194.916 125.5,183.5 Z"/></g>
<g><path style="opacity:1" fill="#3a3524" d="M 95.5,172.5 C 96.0837,176.699 97.5837,180.699 100,184.5C 102.789,188.74 106.122,189.407 110,186.5C 110.667,183.5 110.667,180.5 110,177.5C 108.711,175.945 108.044,174.279 108,172.5C 113.128,177.608 113.795,183.275 110,189.5C 109.107,190.081 108.107,190.415 107,190.5C 99.3454,188 95.1787,182.667 94.5,174.5C 95.3382,174.158 95.6716,173.492 95.5,172.5 Z"/></g>
<g><path style="opacity:1" fill="#d7d8d8" d="M 239.5,187.5 C 240.224,193.523 240.89,199.689 241.5,206C 236.84,210.148 233.84,215.314 232.5,221.5C 228.647,222.99 224.647,224.156 220.5,225C 219.426,227.456 218.426,229.956 217.5,232.5C 215.556,233.189 213.556,233.689 211.5,234C 213.833,234.667 216.167,234.667 218.5,234C 219.547,231.021 220.881,228.188 222.5,225.5C 223.473,227.392 224.14,229.392 224.5,231.5C 223.603,235.486 222.769,239.486 222,243.5C 217.2,244.432 216.366,246.765 219.5,250.5C 221.743,251.474 224.076,251.808 226.5,251.5C 225.869,256.886 224.535,262.052 222.5,267C 222.741,268.984 223.408,270.817 224.5,272.5C 226.661,272.734 228.828,273.067 231,273.5C 231.494,275.134 231.66,276.801 231.5,278.5C 230.178,278.33 229.011,278.663 228,279.5C 227.797,283.421 227.297,287.255 226.5,291C 230.898,290.408 232.898,292.241 232.5,296.5C 224.811,296.637 220.311,292.971 219,285.5C 222.14,281.726 221.974,277.893 218.5,274C 217.5,273.333 216.5,273.333 215.5,274C 213.317,276.35 210.984,278.517 208.5,280.5C 206.327,278.158 204.327,275.658 202.5,273C 203.697,270.106 205.03,267.273 206.5,264.5C 204.127,260.216 200.46,258.383 195.5,259C 194.161,256.984 192.328,255.817 190,255.5C 182.007,259.182 174.84,258.182 168.5,252.5C 173.084,249.349 178.084,246.849 183.5,245C 174.07,245.717 166.737,250.051 161.5,258C 156.47,258.271 151.47,258.771 146.5,259.5C 143.853,258.45 141.353,257.117 139,255.5C 138.644,247.151 134.477,244.317 126.5,247C 123.93,249.067 121.93,251.567 120.5,254.5C 112.405,256.452 106.738,253.619 103.5,246C 102.207,245.51 100.873,245.343 99.5,245.5C 98.8728,241.293 98.5395,237.126 98.5,233C 96.8333,232.333 95.1667,232.333 93.5,233C 91.8983,235.111 89.8983,236.611 87.5,237.5C 82.9454,235.203 78.6121,232.536 74.5,229.5C 71.8637,222.903 69.5304,216.069 67.5,209C 68.9525,207.435 70.6191,206.102 72.5,205C 70.4782,202.978 68.4782,200.978 66.5,199C 67.4788,196.567 68.1455,194.067 68.5,191.5C 83.8002,211.614 103.134,226.781 126.5,237C 139.388,242.102 152.722,243.769 166.5,242C 185.645,238.363 194.978,226.863 194.5,207.5C 195.404,208.209 195.737,209.209 195.5,210.5C 196.675,210.281 197.675,210.614 198.5,211.5C 198.783,215.616 200.95,217.283 205,216.5C 209.774,217.209 212.274,215.209 212.5,210.5C 214.677,210.586 216.677,211.253 218.5,212.5C 220.676,210.823 222.676,208.989 224.5,207C 227.961,206.865 231.294,207.199 234.5,208C 239.033,202.097 240.7,195.264 239.5,187.5 Z"/></g>
<g><path style="opacity:1" fill="#1e212a" d="M 194.5,207.5 C 194.978,226.863 185.645,238.363 166.5,242C 152.722,243.769 139.388,242.102 126.5,237C 103.134,226.781 83.8002,211.614 68.5,191.5C 68.8417,190.662 69.5084,190.328 70.5,190.5C 84.4287,209.916 102.429,224.416 124.5,234C 137.903,240.035 151.903,242.035 166.5,240C 181.421,237.246 190.088,228.412 192.5,213.5C 190.953,189.789 178.286,178.622 154.5,180C 143.265,183.637 139.265,191.137 142.5,202.5C 146.882,214.027 155.215,218.861 167.5,217C 169.464,215.549 170.797,213.716 171.5,211.5C 171.662,209.473 171.495,207.473 171,205.5C 167.877,198.912 162.877,196.579 156,198.5C 161.641,195.145 166.641,196.478 171,202.5C 175.031,209.16 173.864,214.66 167.5,219C 150.139,220.15 140.472,211.984 138.5,194.5C 134.827,193.33 131.493,191.663 128.5,189.5C 128.833,189.5 129.167,189.5 129.5,189.5C 133.096,190.8 136.763,191.8 140.5,192.5C 140.784,189.148 141.95,186.148 144,183.5C 152.018,177.525 160.852,176.025 170.5,179C 184.033,183.93 192.033,193.43 194.5,207.5 Z"/></g>
<g><path style="opacity:1" fill="#635a83" d="M 142.5,202.5 C 144.923,205.084 147.589,207.584 150.5,210C 157.324,213.909 164.324,214.409 171.5,211.5C 170.797,213.716 169.464,215.549 167.5,217C 155.215,218.861 146.882,214.027 142.5,202.5 Z"/></g>
<g><path style="opacity:1" fill="#484c51" d="M 208.5,235.5 C 209.239,235.369 209.906,235.536 210.5,236C 208.905,239.858 206.572,243.191 203.5,246C 198.146,246.332 192.813,245.999 187.5,245C 192.201,244.607 196.868,244.607 201.5,245C 205.414,243.007 207.748,239.84 208.5,235.5 Z"/></g>
</svg>
