<?xml version="1.0" encoding="UTF-8"?>
<!DOCTYPE svg PUBLIC "-//W3C//DTD SVG 1.1//EN" "http://www.w3.org/Graphics/SVG/1.1/DTD/svg11.dtd">
<svg xmlns="http://www.w3.org/2000/svg" version="1.1" width="300px" height="300px" style="shape-rendering:geometricPrecision; text-rendering:geometricPrecision; image-rendering:optimizeQuality; fill-rule:evenodd; clip-rule:evenodd" xmlns:xlink="http://www.w3.org/1999/xlink">
<g><path style="opacity:0.865" fill="#181d23" d="M 134.5,1.5 C 137.547,0.85544 139.713,1.85544 141,4.5C 142.595,11.1426 143.928,17.8093 145,24.5C 147.163,20.4922 150.33,17.8256 154.5,16.5C 154.343,17.8734 154.51,19.2068 155,20.5C 156.156,19.0072 156.99,19.1739 157.5,21C 158.361,24.1368 159.027,27.3035 159.5,30.5C 163.993,32.3102 167.659,35.3102 170.5,39.5C 173.777,38.7463 177.11,38.2463 180.5,38C 187.196,27.7097 196.53,24.2097 208.5,27.5C 214.378,25.2581 220.378,23.7581 226.5,23C 223.96,27.9137 221.294,32.747 218.5,37.5C 221.139,43.9866 221.139,50.4866 218.5,57C 220.287,60.072 221.953,63.2386 223.5,66.5C 236.199,66.0468 245.199,71.5468 250.5,83C 255.625,84.8164 260.625,86.8164 265.5,89C 260.871,91.8979 256.037,94.3979 251,96.5C 249.005,106.664 243.172,113.664 233.5,117.5C 231.036,124.458 226.869,130.124 221,134.5C 220.333,135.5 220.333,136.5 221,137.5C 222.861,139.888 224.194,142.554 225,145.5C 225.333,150.833 225.667,156.167 226,161.5C 229.025,165.024 231.858,168.691 234.5,172.5C 230.142,173.37 225.809,173.037 221.5,171.5C 218.866,172.487 216.532,173.987 214.5,176C 219.151,182.046 218.485,187.379 212.5,192C 214.174,195.016 215.84,198.016 217.5,201C 216.666,204.5 215.166,207.667 213,210.5C 212.289,212.899 212.456,215.232 213.5,217.5C 212.872,219.258 211.872,220.758 210.5,222C 206.921,223.706 203.421,225.539 200,227.5C 198.932,230.871 197.765,234.204 196.5,237.5C 192.656,238.982 188.656,239.815 184.5,240C 182.833,242.333 181.167,244.667 179.5,247C 175.179,246.675 171.012,245.508 167,243.5C 164.553,246.032 161.886,248.366 159,250.5C 156.114,248.366 153.447,246.032 151,243.5C 146.495,243.673 144.495,246.006 145,250.5C 144.5,251.667 143.667,252.5 142.5,253C 135.5,253.667 128.5,253.667 121.5,253C 119.067,251.368 116.567,249.868 114,248.5C 111.639,249.551 109.306,250.551 107,251.5C 105.774,251.355 104.607,251.022 103.5,250.5C 102.46,252.375 100.96,253.708 99,254.5C 94.8779,253.091 90.7113,252.258 86.5,252C 85.4258,252.739 84.7591,253.739 84.5,255C 85.6254,256.963 86.9587,258.796 88.5,260.5C 87.2213,263.112 85.5547,265.445 83.5,267.5C 78.5,268.167 73.5,268.833 68.5,269.5C 67.6171,270.548 66.9504,271.715 66.5,273C 67.8333,275 69.1667,277 70.5,279C 68.7879,285.709 64.4546,289.043 57.5,289C 54.6511,292.016 51.6511,294.85 48.5,297.5C 47.4076,288.788 47.741,280.122 49.5,271.5C 52.6808,271.998 55.3475,271.165 57.5,269C 55.9684,266.966 54.6351,264.799 53.5,262.5C 54.4735,259.865 56.1402,257.865 58.5,256.5C 57,253.5 55.5,250.5 54,247.5C 53.2025,245.741 53.3691,244.074 54.5,242.5C 58.7128,240.762 63.0462,239.429 67.5,238.5C 68.6446,237.109 68.6446,235.776 67.5,234.5C 66.1667,235.833 64.8333,235.833 63.5,234.5C 60.3008,232.135 57.6342,229.302 55.5,226C 55.4934,224.188 56.16,222.688 57.5,221.5C 54.9728,220.786 52.4728,220.12 50,219.5C 48.8423,215.203 47.8423,210.869 47,206.5C 43.6336,205.626 40.3002,204.626 37,203.5C 34.9535,195.941 34.2868,188.274 35,180.5C 37.2568,178.954 39.4235,177.288 41.5,175.5C 42.3615,172.401 43.6949,169.567 45.5,167C 46.7932,166.51 48.1266,166.343 49.5,166.5C 50.4289,162.716 51.7622,159.049 53.5,155.5C 56.4465,154.679 59.4465,154.179 62.5,154C 63.5159,152.323 64.5159,150.657 65.5,149C 62.2362,147.009 58.9029,145.009 55.5,143C 52.6667,140.167 49.8333,137.333 47,134.5C 46.3333,132.5 46.3333,130.5 47,128.5C 52.6036,114.238 61.2703,102.238 73,92.5C 76.9542,81.559 84.7875,75.3923 96.5,74C 95.2663,70.2192 95.2663,66.3859 96.5,62.5C 96.1012,60.8034 95.6012,59.1368 95,57.5C 91.1977,63.1438 86.3643,67.4771 80.5,70.5C 79.0055,70.2908 77.8388,69.6241 77,68.5C 75.5702,63.2552 74.5702,57.9219 74,52.5C 72.2741,56.4489 69.4408,57.7822 65.5,56.5C 64.2521,53.9296 63.2521,51.2629 62.5,48.5C 60.6841,49.8149 59.0175,51.3149 57.5,53C 56.365,53.7494 55.365,53.5827 54.5,52.5C 56.9084,43.6861 60.4084,35.3528 65,27.5C 69.5607,23.0657 72.5607,24.0657 74,30.5C 77.1667,26.6667 80.3333,22.8333 83.5,19C 85.579,17.3602 87.9124,16.1936 90.5,15.5C 91.4776,15.9767 92.3109,16.6433 93,17.5C 93.9449,21.1141 94.6116,24.7808 95,28.5C 99.4086,20.7561 105.242,14.2561 112.5,9C 114.441,8.25711 116.274,8.42378 118,9.5C 118.882,12.7895 119.548,16.1228 120,19.5C 124.122,12.9207 128.955,6.92074 134.5,1.5 Z M 166.5,132.5 C 169.789,134.145 173.122,135.811 176.5,137.5C 174.309,141.24 172.809,145.24 172,149.5C 170.943,147.781 170.11,145.947 169.5,144C 166.568,143.689 163.902,143.522 161.5,143.5C 163.453,139.931 165.119,136.264 166.5,132.5 Z M 93.5,122.5 C 95.0744,122.937 96.2411,123.937 97,125.5C 97.6877,126.332 97.521,126.998 96.5,127.5C 94.6675,126.752 93.0009,125.752 91.5,124.5C 92.2427,123.818 92.9094,123.151 93.5,122.5 Z M 206.5,106.5 C 204.513,107.343 202.346,108.01 200,108.5C 198.022,107.094 195.855,106.094 193.5,105.5C 190.512,103.86 187.179,103.026 183.5,103C 182.178,98.6894 179.845,95.0227 176.5,92C 172.028,89.6096 167.361,87.7763 162.5,86.5C 163.958,80.9286 164.958,75.2619 165.5,69.5C 165.471,67.9707 164.804,66.804 163.5,66C 170.052,61.6637 172.718,55.6637 171.5,48C 173.81,47.5034 176.143,47.3367 178.5,47.5C 179.161,60.8277 186.161,67.8277 199.5,68.5C 203.7,68.8207 207.534,67.8207 211,65.5C 211.833,67.1667 212.667,68.8333 213.5,70.5C 201.668,80.6448 199.334,92.6448 206.5,106.5 Z"/></g>
<g><path style="opacity:1" fill="#fbfbfc" d="M 188.5,177.5 C 191.68,179.867 195.347,180.867 199.5,180.5C 204.297,180.101 208.964,179.101 213.5,177.5C 215.202,182.225 214.535,186.558 211.5,190.5C 210.566,191.568 210.232,192.901 210.5,194.5C 207.167,194.5 203.833,194.5 200.5,194.5C 199.399,198.735 198.066,202.902 196.5,207C 194.645,207.422 192.811,207.922 191,208.5C 182.528,200.617 174.195,200.951 166,209.5C 165.601,209.272 165.435,208.938 165.5,208.5C 165.5,207.833 165.5,207.167 165.5,206.5C 165.334,202.154 165.501,197.821 166,193.5C 172.459,188.71 178.626,183.543 184.5,178C 185.793,177.51 187.127,177.343 188.5,177.5 Z"/></g>
<g><path style="opacity:1" fill="#515456" d="M 163.5,193.5 C 162.4,200.938 158.066,205.605 150.5,207.5C 148.373,201.875 144.373,200.042 138.5,202C 135.154,203.851 133.154,206.684 132.5,210.5C 123.714,210.729 116.048,208.063 109.5,202.5C 108.388,187.085 115.388,177.251 130.5,173C 147.686,170.245 158.686,177.078 163.5,193.5 Z"/></g>
<g><path style="opacity:1" fill="#3e425c" d="M 183.5,165.5 C 188,165.164 189.833,167.164 189,171.5C 181.607,178.729 173.774,185.396 165.5,191.5C 164.298,188.93 162.965,186.43 161.5,184C 169.46,178.528 176.793,172.362 183.5,165.5 Z"/></g>
<g><path style="opacity:1" fill="#4d4f51" d="M 209.5,154.5 C 212.893,154.062 215.893,154.895 218.5,157C 223.201,161.366 227.534,166.033 231.5,171C 223.984,170.946 216.65,169.613 209.5,167C 205.558,162.791 205.558,158.624 209.5,154.5 Z"/></g>
<g><path style="opacity:1" fill="#363739" d="M 174.5,151.5 C 181.67,161.904 191.67,165.904 204.5,163.5C 205.028,164.721 205.695,165.887 206.5,167C 210.09,168.53 213.757,169.864 217.5,171C 215.792,173.043 213.792,174.71 211.5,176C 212.416,176.278 213.082,176.778 213.5,177.5C 208.964,179.101 204.297,180.101 199.5,180.5C 195.347,180.867 191.68,179.867 188.5,177.5C 189.274,174.391 190.107,171.058 191,167.5C 187,163.5 183,163.5 179,167.5C 175.99,162.651 174.49,157.318 174.5,151.5 Z"/></g>
<g><path style="opacity:1" fill="#6a6d71" d="M 169.5,149.5 C 170.708,150.234 172.041,150.567 173.5,150.5C 173.5,153.167 173.5,155.833 173.5,158.5C 172.532,156.393 172.198,154.059 172.5,151.5C 170.821,151.715 169.821,151.048 169.5,149.5 Z"/></g>
<g><path style="opacity:1" fill="#1d2a35" d="M 133.5,147.5 C 131.853,149.326 129.853,150.66 127.5,151.5C 128.802,149.178 130.802,147.845 133.5,147.5 Z"/></g>
<g><path style="opacity:1" fill="#283844" d="M 131.5,126.5 C 135.168,127.667 137.168,130.167 137.5,134C 136.616,138.862 135.283,143.362 133.5,147.5C 134.511,145.598 134.678,143.598 134,141.5C 130.505,144.162 127.338,147.162 124.5,150.5C 125.325,151.386 126.325,151.719 127.5,151.5C 126.213,153.637 125.379,155.97 125,158.5C 124.667,156.5 124.333,154.5 124,152.5C 123.326,151.422 122.326,150.755 121,150.5C 116.668,152.149 112.168,152.815 107.5,152.5C 107.338,154.527 107.505,156.527 108,158.5C 112.754,160.418 115.92,163.751 117.5,168.5C 114.727,164.237 110.894,161.237 106,159.5C 104.374,160.289 102.874,161.289 101.5,162.5C 100.081,161.995 99.4148,160.995 99.5,159.5C 101.368,160.757 103.035,160.424 104.5,158.5C 106.034,155.538 106.367,152.538 105.5,149.5C 100.858,150.298 96.1916,150.964 91.5,151.5C 91.5,150.833 91.1667,150.5 90.5,150.5C 92.4872,149.657 94.6539,148.99 97,148.5C 101.988,149.894 106.155,148.56 109.5,144.5C 109.032,146.181 109.032,148.014 109.5,150C 110.833,150.167 112.167,150.333 113.5,150.5C 115.333,150.415 116.666,149.748 117.5,148.5C 117.665,145.15 117.498,141.817 117,138.5C 115.745,137.789 114.579,136.956 113.5,136C 115.163,135.735 116.663,136.235 118,137.5C 118.853,141.469 119.519,145.469 120,149.5C 121.399,148.773 122.899,148.273 124.5,148C 125.264,145.931 125.764,143.764 126,141.5C 126.368,142.91 127.201,143.91 128.5,144.5C 130.683,143.308 132.016,141.475 132.5,139C 129.827,134.65 127.16,130.317 124.5,126C 125.449,125.383 126.282,125.549 127,126.5C 128.523,130.852 131.023,134.519 134.5,137.5C 136.446,135.956 136.946,133.956 136,131.5C 134.293,129.963 132.793,128.296 131.5,126.5 Z"/></g>
<g><path style="opacity:1" fill="#fbfbfb" d="M 169.5,149.5 C 169.821,151.048 170.821,151.715 172.5,151.5C 172.198,154.059 172.532,156.393 173.5,158.5C 174.728,162.254 175.895,165.921 177,169.5C 171.957,174.212 166.623,178.545 161,182.5C 149.599,169.46 136.099,166.96 120.5,175C 113.561,179.771 109.228,186.271 107.5,194.5C 107.094,198.602 105.761,199.102 103.5,196C 102.167,195.333 100.833,195.333 99.5,196C 98.4752,198.071 97.6419,200.238 97,202.5C 94.7175,206.041 92.0509,206.374 89,203.5C 88.904,200.549 88.0707,197.882 86.5,195.5C 80.5175,192.337 74.1842,191.17 67.5,192C 65.5448,192.953 63.8782,194.287 62.5,196C 59.7431,196.782 57.2431,196.282 55,194.5C 54.7707,191.542 53.604,189.042 51.5,187C 47.0608,185.032 43.0608,182.532 39.5,179.5C 43.0633,177.739 44.8966,174.739 45,170.5C 46.5998,169.134 48.4332,168.134 50.5,167.5C 52.2035,164.285 53.7035,160.951 55,157.5C 60.8471,157.679 65.0138,155.179 67.5,150C 75.3814,151.219 83.3814,151.719 91.5,151.5C 96.1916,150.964 100.858,150.298 105.5,149.5C 106.367,152.538 106.034,155.538 104.5,158.5C 103.035,160.424 101.368,160.757 99.5,159.5C 99.4148,160.995 100.081,161.995 101.5,162.5C 102.874,161.289 104.374,160.289 106,159.5C 110.894,161.237 114.727,164.237 117.5,168.5C 123.178,168.419 129.011,168.753 135,169.5C 137.717,167.613 140.55,165.946 143.5,164.5C 145.626,165.398 147.626,166.565 149.5,168C 152.648,168.06 154.981,166.56 156.5,163.5C 161.737,163.745 164.57,161.412 165,156.5C 164,157.833 163,159.167 162,160.5C 161.002,155.857 160.668,151.19 161,146.5C 163.401,145.398 165.901,145.231 168.5,146C 169.337,147.011 169.67,148.178 169.5,149.5 Z"/></g>
<g><path style="opacity:1" fill="#35393f" d="M 99.5,159.5 C 96.7482,159.578 94.0816,159.745 91.5,160C 94.2263,157.121 96.893,156.955 99.5,159.5 Z"/></g>
<g><path style="opacity:1" fill="#69a6c3" d="M 133.5,147.5 C 130.802,147.845 128.802,149.178 127.5,151.5C 126.325,151.719 125.325,151.386 124.5,150.5C 127.338,147.162 130.505,144.162 134,141.5C 134.678,143.598 134.511,145.598 133.5,147.5 Z"/></g>
<g><path style="opacity:1" fill="#6dacca" d="M 65.5,139.5 C 65.5774,140.75 66.244,141.583 67.5,142C 81.6118,146.425 95.7784,146.592 110,142.5C 110.772,142.645 111.439,142.978 112,143.5C 112.122,147.095 113.956,148.761 117.5,148.5C 116.666,149.748 115.333,150.415 113.5,150.5C 112.167,150.333 110.833,150.167 109.5,150C 109.032,148.014 109.032,146.181 109.5,144.5C 106.155,148.56 101.988,149.894 97,148.5C 94.6539,148.99 92.4872,149.657 90.5,150.5C 79.4444,150.986 69.1111,148.486 59.5,143C 61.6917,142.074 63.6917,140.907 65.5,139.5 Z"/></g>
<g><path style="opacity:1" fill="#505355" d="M 204.5,163.5 C 191.67,165.904 181.67,161.904 174.5,151.5C 174.246,146.837 175.58,142.671 178.5,139C 186.193,139.726 193.859,140.893 201.5,142.5C 207.424,142.586 212.757,140.919 217.5,137.5C 220.62,140.068 222.453,143.401 223,147.5C 223.825,151.211 223.659,154.878 222.5,158.5C 220.007,156.42 217.341,154.586 214.5,153C 207.076,152.26 203.743,155.76 204.5,163.5 Z"/></g>
<g><path style="opacity:1" fill="#454a66" d="M 58.5,131.5 C 58.4894,133.017 57.8228,134.184 56.5,135C 57.4158,135.278 58.0825,135.778 58.5,136.5C 59.0819,138.043 60.7486,138.876 63.5,139C 61.0892,141.698 58.4226,142.032 55.5,140C 52.1676,137.511 49.8343,134.344 48.5,130.5C 52.7076,118.585 56.0409,118.919 58.5,131.5 Z"/></g>
<g><path style="opacity:1" fill="#6eaecc" d="M 172.5,115.5 C 172.292,117.92 172.626,120.253 173.5,122.5C 174.808,123.626 176.142,123.626 177.5,122.5C 179,124.179 180.833,125.512 183,126.5C 183.278,125.584 183.778,124.918 184.5,124.5C 184.427,126.027 185.094,127.027 186.5,127.5C 192.654,130.731 199.321,132.064 206.5,131.5C 207.204,133.344 208.537,133.844 210.5,133C 214.236,131.988 216.903,129.821 218.5,126.5C 218.56,127.043 218.893,127.376 219.5,127.5C 222.393,125.555 225.393,123.889 228.5,122.5C 221.205,135.982 209.872,141.815 194.5,140C 185.346,138.393 176.68,135.393 168.5,131C 167.858,126.399 167.191,121.899 166.5,117.5C 166.34,115.801 166.506,114.134 167,112.5C 168.574,113.984 169.907,115.651 171,117.5C 171.278,116.584 171.778,115.918 172.5,115.5 Z"/></g>
<g><path style="opacity:1" fill="#333b4f" d="M 218.5,126.5 C 216.903,129.821 214.236,131.988 210.5,133C 208.537,133.844 207.204,133.344 206.5,131.5C 206.673,126.403 209.339,124.07 214.5,124.5C 216.333,124.585 217.666,125.252 218.5,126.5 Z"/></g>
<g><path style="opacity:1" fill="#3a3e41" d="M 230.5,73.5 C 233.492,73.2919 236.492,72.9586 239.5,72.5C 250.675,82.17 252.508,93.5034 245,106.5C 243.316,108.351 241.483,110.018 239.5,111.5C 240.048,109.621 240.048,107.621 239.5,105.5C 241.89,100.802 241.89,96.1349 239.5,91.5C 239.737,88.9365 240.237,88.9365 241,91.5C 241.929,87.7559 241.429,84.2559 239.5,81C 240.554,79.6124 240.72,78.1124 240,76.5C 237.165,74.7245 233.999,73.7245 230.5,73.5 Z"/></g>
<g><path style="opacity:1" fill="#434648" d="M 250.5,85.5 C 254.57,86.3559 258.57,87.5226 262.5,89C 258.797,91.354 254.797,92.854 250.5,93.5C 250.5,90.8333 250.5,88.1667 250.5,85.5 Z"/></g>
<g><path style="opacity:1" fill="#484d69" d="M 86.5,89.5 C 86.7734,92.1834 85.7734,93.6834 83.5,94C 81.7511,91.3368 80.4178,88.5035 79.5,85.5C 85.6348,77.6476 93.6348,75.3143 103.5,78.5C 105.412,82.8893 104.412,86.3893 100.5,89C 97.5,89.6667 94.5,89.6667 91.5,89C 89.7834,87.4412 87.7834,86.6079 85.5,86.5C 85.2627,87.791 85.596,88.791 86.5,89.5 Z"/></g>
<g><path style="opacity:1" fill="#4d5053" d="M 239.5,72.5 C 236.492,72.9586 233.492,73.2919 230.5,73.5C 226.898,71.8821 223.565,72.2154 220.5,74.5C 220.19,73.2617 219.69,73.2617 219,74.5C 217.064,77.9454 214.897,81.2787 212.5,84.5C 215.097,89.5341 217.264,94.5341 219,99.5C 212.828,99.6574 207.995,96.9907 204.5,91.5C 206.71,73.8678 216.71,66.7011 234.5,70C 236.193,70.8466 237.86,71.6799 239.5,72.5 Z"/></g>
<g><path style="opacity:1" fill="#3d4e5a" d="M 160.5,68.5 C 159.022,68.238 157.689,68.5713 156.5,69.5C 156.058,70.7387 155.391,71.7387 154.5,72.5C 154.492,67.105 156.492,65.7717 160.5,68.5 Z"/></g>
<g><path style="opacity:1" fill="#40464c" d="M 109.5,54.5 C 114.173,55.2234 118.84,56.0568 123.5,57C 125.122,62.0975 126.622,67.2642 128,72.5C 129.5,68.8333 131,65.1667 132.5,61.5C 138.49,59.8916 144.157,60.5583 149.5,63.5C 150.26,68.0193 151.26,72.3526 152.5,76.5C 152.631,77.3764 152.298,78.0431 151.5,78.5C 150.604,75.8564 149.771,73.1897 149,70.5C 147.907,72.3492 146.574,74.0158 145,75.5C 143.629,65.8647 140.462,65.198 135.5,73.5C 133.683,71.5839 132.516,69.2506 132,66.5C 130.861,69.5833 129.528,72.5833 128,75.5C 126.02,69.9268 124.187,64.2601 122.5,58.5C 118.023,57.5946 113.689,56.5946 109.5,55.5C 109.5,55.1667 109.5,54.8333 109.5,54.5 Z"/></g>
<g><path style="opacity:1" fill="#443f2e" d="M 148.5,53.5 C 148.389,54.1174 148.056,54.6174 147.5,55C 148.416,55.2784 149.082,55.7784 149.5,56.5C 148.25,56.5774 147.417,57.244 147,58.5C 145.354,56.3907 144.188,54.0573 143.5,51.5C 144.683,51.8442 145.516,51.1775 146,49.5C 146.195,51.2072 146.195,52.8739 146,54.5C 146.671,53.7476 147.504,53.4142 148.5,53.5 Z"/></g>
<g><path style="opacity:1" fill="#7ec7ea" d="M 105.5,55.5 C 106.833,55.5 108.167,55.5 109.5,55.5C 113.689,56.5946 118.023,57.5946 122.5,58.5C 124.187,64.2601 126.02,69.9268 128,75.5C 129.528,72.5833 130.861,69.5833 132,66.5C 132.516,69.2506 133.683,71.5839 135.5,73.5C 140.462,65.198 143.629,65.8647 145,75.5C 146.574,74.0158 147.907,72.3492 149,70.5C 149.771,73.1897 150.604,75.8564 151.5,78.5C 152.298,78.0431 152.631,77.3764 152.5,76.5C 152.66,74.847 153.326,73.5137 154.5,72.5C 155.391,71.7387 156.058,70.7387 156.5,69.5C 157.689,68.5713 159.022,68.238 160.5,68.5C 164.159,77.6729 162.493,85.8396 155.5,93C 156.996,93.5074 158.163,93.0074 159,91.5C 159.566,94.2287 161.066,96.2287 163.5,97.5C 166.344,99.7182 169.511,100.052 173,98.5C 174.836,100.415 176.002,102.748 176.5,105.5C 178.262,104.312 179.262,102.645 179.5,100.5C 180.947,101.622 181.947,103.122 182.5,105C 185.146,105.497 187.813,105.664 190.5,105.5C 193.072,106.724 195.405,108.391 197.5,110.5C 194.534,114.409 193.367,118.742 194,123.5C 194.544,117.913 197.044,113.413 201.5,110C 211.217,110.57 217.717,106.403 221,97.5C 222.556,102.28 224.889,106.613 228,110.5C 228.637,107.672 230.304,105.672 233,104.5C 233.483,103.552 233.649,102.552 233.5,101.5C 231.712,101.215 230.045,101.548 228.5,102.5C 229.716,103.096 231.049,103.263 232.5,103C 227.738,108.134 224.738,107.134 223.5,100C 227.17,96.6665 231.503,94.6665 236.5,94C 231.615,93.5166 227.115,94.6832 223,97.5C 221.482,95.3863 221.149,93.053 222,90.5C 225.149,89.0036 228.316,87.5036 231.5,86C 233.235,85.3486 234.902,85.5153 236.5,86.5C 237.696,86.1543 237.696,85.6543 236.5,85C 234.5,84.3333 232.5,84.3333 230.5,85C 227.072,86.9398 223.406,88.1065 219.5,88.5C 219.567,86.5992 219.233,84.7659 218.5,83C 218.82,81.3468 219.82,80.3468 221.5,80C 227.59,79.2302 233.59,78.8969 239.5,79C 238.471,77.3016 236.971,76.4683 235,76.5C 230.333,78.1843 225.5,78.851 220.5,78.5C 220.5,77.1667 220.5,75.8333 220.5,74.5C 223.565,72.2154 226.898,71.8821 230.5,73.5C 233.999,73.7245 237.165,74.7245 240,76.5C 240.72,78.1124 240.554,79.6124 239.5,81C 241.429,84.2559 241.929,87.7559 241,91.5C 240.237,88.9365 239.737,88.9365 239.5,91.5C 241.89,96.1349 241.89,100.802 239.5,105.5C 238.955,107.593 238.122,109.593 237,111.5C 233.187,114.561 230.353,118.227 228.5,122.5C 225.393,123.889 222.393,125.555 219.5,127.5C 218.893,127.376 218.56,127.043 218.5,126.5C 217.666,125.252 216.333,124.585 214.5,124.5C 209.339,124.07 206.673,126.403 206.5,131.5C 199.321,132.064 192.654,130.731 186.5,127.5C 190.109,127.225 192.109,125.225 192.5,121.5C 188.556,119.58 185.89,120.58 184.5,124.5C 183.778,124.918 183.278,125.584 183,126.5C 180.833,125.512 179,124.179 177.5,122.5C 180.503,121.582 183.337,120.249 186,118.5C 186.667,116.5 186.667,114.5 186,112.5C 181.267,111.899 176.767,112.899 172.5,115.5C 171.778,115.918 171.278,116.584 171,117.5C 169.907,115.651 168.574,113.984 167,112.5C 166.506,114.134 166.34,115.801 166.5,117.5C 166.933,127.304 164.433,136.304 159,144.5C 158.978,149.818 159.145,155.151 159.5,160.5C 158.448,160.351 157.448,160.517 156.5,161C 155.321,163.513 153.487,165.346 151,166.5C 148.558,165.03 146.058,163.696 143.5,162.5C 141.253,163.406 139.253,164.739 137.5,166.5C 130.828,167.284 124.162,167.951 117.5,168.5C 115.92,163.751 112.754,160.418 108,158.5C 107.505,156.527 107.338,154.527 107.5,152.5C 112.168,152.815 116.668,152.149 121,150.5C 122.326,150.755 123.326,151.422 124,152.5C 124.333,154.5 124.667,156.5 125,158.5C 125.379,155.97 126.213,153.637 127.5,151.5C 129.853,150.66 131.853,149.326 133.5,147.5C 135.283,143.362 136.616,138.862 137.5,134C 137.168,130.167 135.168,127.667 131.5,126.5C 132.793,128.296 134.293,129.963 136,131.5C 136.946,133.956 136.446,135.956 134.5,137.5C 131.023,134.519 128.523,130.852 127,126.5C 126.282,125.549 125.449,125.383 124.5,126C 127.16,130.317 129.827,134.65 132.5,139C 132.016,141.475 130.683,143.308 128.5,144.5C 127.201,143.91 126.368,142.91 126,141.5C 125.764,143.764 125.264,145.931 124.5,148C 122.899,148.273 121.399,148.773 120,149.5C 119.519,145.469 118.853,141.469 118,137.5C 116.663,136.235 115.163,135.735 113.5,136C 114.579,136.956 115.745,137.789 117,138.5C 117.498,141.817 117.665,145.15 117.5,148.5C 113.956,148.761 112.122,147.095 112,143.5C 111.439,142.978 110.772,142.645 110,142.5C 95.7784,146.592 81.6118,146.425 67.5,142C 66.244,141.583 65.5774,140.75 65.5,139.5C 63.7185,137.643 61.3852,136.643 58.5,136.5C 58.0825,135.778 57.4158,135.278 56.5,135C 57.8228,134.184 58.4894,133.017 58.5,131.5C 59.533,126.309 57.8663,122.309 53.5,119.5C 59.0284,109.472 66.195,100.806 75,93.5C 75.4872,90.1993 76.9872,87.5326 79.5,85.5C 80.4178,88.5035 81.7511,91.3368 83.5,94C 85.7734,93.6834 86.7734,92.1834 86.5,89.5C 86.369,88.7611 86.5357,88.0944 87,87.5C 87.9025,88.7014 89.0692,89.5348 90.5,90C 94.1667,90.6667 97.8333,90.6667 101.5,90C 105.582,87.0226 107.249,83.1893 106.5,78.5C 108.497,79.7474 110.497,80.5808 112.5,81C 111.269,79.5952 109.936,78.4286 108.5,77.5C 106.206,70.3597 105.206,63.0263 105.5,55.5 Z M 93.5,122.5 C 92.9094,123.151 92.2427,123.818 91.5,124.5C 93.0009,125.752 94.6675,126.752 96.5,127.5C 97.521,126.998 97.6877,126.332 97,125.5C 96.2411,123.937 95.0744,122.937 93.5,122.5 Z"/></g>
<g><path style="opacity:1" fill="#334e5d" d="M 153.5,144.5 C 154.966,145.347 155.8,146.68 156,148.5C 156.995,151.126 157.328,153.793 157,156.5C 155.77,152.514 154.603,148.514 153.5,144.5 Z"/></g>
<g><path style="opacity:1" fill="#3e435c" d="M 140.5,136.5 C 145.148,141.768 146.314,147.768 144,154.5C 139.689,156.604 136.855,155.437 135.5,151C 136.36,145.834 138.026,141.001 140.5,136.5 Z"/></g>
<g><path style="opacity:1" fill="#2c4250" d="M 122.5,132.5 C 124.088,134.527 124.588,136.861 124,139.5C 122.798,137.323 122.298,134.989 122.5,132.5 Z"/></g>
<g><path style="opacity:1" fill="#3a4158" d="M 86.5,129.5 C 88.5,129.5 90.5,129.5 92.5,129.5C 92.6641,132.187 92.4974,134.854 92,137.5C 90.3005,138.406 88.4672,138.739 86.5,138.5C 86.5,135.5 86.5,132.5 86.5,129.5 Z"/></g>
<g><path style="opacity:1" fill="#3e455d" d="M 74.5,123.5 C 76.8333,123.5 79.1667,123.5 81.5,123.5C 81.5874,128.537 81.254,133.537 80.5,138.5C 78.0637,138.683 75.897,138.016 74,136.5C 73.4657,132.141 73.6324,127.808 74.5,123.5 Z"/></g>
<g><path style="opacity:1" fill="#1d2732" d="M 134.5,96.5 C 131.556,94.6889 128.556,92.8556 125.5,91C 124.167,90.3333 122.833,90.3333 121.5,91C 117.667,95.5 113.833,100 110,104.5C 109.365,106.635 109.699,108.635 111,110.5C 113.5,113.667 116,116.833 118.5,120C 122.563,120.038 126.397,120.872 130,122.5C 133.088,120.706 136.254,119.039 139.5,117.5C 143.21,120.354 147.21,122.687 151.5,124.5C 156.471,121.529 160.471,117.529 163.5,112.5C 161.347,107.356 159.014,102.356 156.5,97.5C 159.997,101.148 162.497,105.481 164,110.5C 164.635,112.635 164.301,114.635 163,116.5C 159.833,119.667 156.667,122.833 153.5,126C 152.167,126.667 150.833,126.667 149.5,126C 146.298,123.57 142.965,121.403 139.5,119.5C 136.721,120.389 134.055,121.556 131.5,123C 130.829,123.986 130.829,125.153 131.5,126.5C 130.188,125.855 129.188,124.855 128.5,123.5C 127,123.167 125.5,122.833 124,122.5C 118.685,123.329 113.518,124.662 108.5,126.5C 108.833,125.833 109.167,125.167 109.5,124.5C 112.475,124.287 115.142,123.287 117.5,121.5C 113.347,117.02 110.013,112.02 107.5,106.5C 109.379,102.447 111.879,98.7801 115,95.5C 117.382,92.7807 120.049,90.4474 123,88.5C 127.555,90.236 131.388,92.9026 134.5,96.5 Z"/></g>
<g><path style="opacity:1" fill="#353b50" d="M 186.5,127.5 C 185.094,127.027 184.427,126.027 184.5,124.5C 185.89,120.58 188.556,119.58 192.5,121.5C 192.109,125.225 190.109,127.225 186.5,127.5 Z"/></g>
<g><path style="opacity:0.799" fill="#161f28" d="M 108.5,126.5 C 104.68,129.323 100.347,130.156 95.5,129C 89.9839,126.411 84.9839,123.078 80.5,119C 75.9174,117.855 71.2508,117.189 66.5,117C 72.3453,116.052 78.012,116.552 83.5,118.5C 85.0869,122.056 87.7536,123.222 91.5,122C 95.5134,119.994 99.1801,117.494 102.5,114.5C 102.833,114.667 103.167,114.833 103.5,115C 101.291,117.378 98.9576,119.545 96.5,121.5C 98.2733,124.06 100.273,126.393 102.5,128.5C 104.323,127.253 106.323,126.586 108.5,126.5 Z M 93.5,122.5 C 92.9094,123.151 92.2427,123.818 91.5,124.5C 93.0009,125.752 94.6675,126.752 96.5,127.5C 97.521,126.998 97.6877,126.332 97,125.5C 96.2411,123.937 95.0744,122.937 93.5,122.5 Z"/></g>
<g><path style="opacity:1" fill="#364155" d="M 215.5,113.5 C 217.288,113.215 218.955,113.548 220.5,114.5C 219.5,116.5 218.5,118.5 217.5,120.5C 215.955,121.452 214.288,121.785 212.5,121.5C 212.957,118.594 213.957,115.928 215.5,113.5 Z"/></g>
<g><path style="opacity:1" fill="#3c435b" d="M 177.5,122.5 C 176.142,123.626 174.808,123.626 173.5,122.5C 172.626,120.253 172.292,117.92 172.5,115.5C 176.767,112.899 181.267,111.899 186,112.5C 186.667,114.5 186.667,116.5 186,118.5C 183.337,120.249 180.503,121.582 177.5,122.5 Z"/></g>
<g><path style="opacity:1" fill="#6daecc" d="M 109.5,124.5 C 109.167,125.167 108.833,125.833 108.5,126.5C 106.323,126.586 104.323,127.253 102.5,128.5C 100.273,126.393 98.2733,124.06 96.5,121.5C 98.9576,119.545 101.291,117.378 103.5,115C 103.167,114.833 102.833,114.667 102.5,114.5C 99.1801,117.494 95.5134,119.994 91.5,122C 87.7536,123.222 85.0869,122.056 83.5,118.5C 91.6835,116.737 99.0168,113.403 105.5,108.5C 105.645,114.125 106.978,119.458 109.5,124.5 Z"/></g>
<g><path style="opacity:1" fill="#354053" d="M 78.5,107.5 C 81.6492,107.211 84.6492,107.711 87.5,109C 88.3802,110.356 88.7135,111.856 88.5,113.5C 85.1501,113.665 81.8168,113.498 78.5,113C 77.4639,111.224 77.4639,109.391 78.5,107.5 Z"/></g>
<g><path style="opacity:1" fill="#1f2935" d="M 156.5,97.5 C 151.437,98.8586 146.437,100.525 141.5,102.5C 138.514,101.175 136.181,99.175 134.5,96.5C 136.371,96.8588 137.871,97.8588 139,99.5C 139.333,97.1667 139.667,94.8333 140,92.5C 140.182,95.2263 140.682,97.8929 141.5,100.5C 144.375,97.3859 146.209,93.7193 147,89.5C 147.407,92.9542 146.573,96.1208 144.5,99C 147.694,98.6077 150.861,97.7744 154,96.5C 155.07,96.528 155.903,96.8614 156.5,97.5 Z"/></g>
<g><path style="opacity:1" fill="#3d435b" d="M 85.5,98.5 C 89.5138,98.3345 93.5138,98.5012 97.5,99C 99.0163,103.135 97.683,105.969 93.5,107.5C 90.8029,106.768 88.1362,105.934 85.5,105C 84.232,102.837 84.232,100.67 85.5,98.5 Z"/></g>
<g><path style="opacity:1" fill="#4c506e" d="M 134.5,96.5 C 136.181,99.175 138.514,101.175 141.5,102.5C 146.437,100.525 151.437,98.8586 156.5,97.5C 159.014,102.356 161.347,107.356 163.5,112.5C 160.471,117.529 156.471,121.529 151.5,124.5C 147.21,122.687 143.21,120.354 139.5,117.5C 136.254,119.039 133.088,120.706 130,122.5C 126.397,120.872 122.563,120.038 118.5,120C 116,116.833 113.5,113.667 111,110.5C 109.699,108.635 109.365,106.635 110,104.5C 113.833,100 117.667,95.5 121.5,91C 122.833,90.3333 124.167,90.3333 125.5,91C 128.556,92.8556 131.556,94.6889 134.5,96.5 Z"/></g>
<g><path style="opacity:1" fill="#424862" d="M 179.5,100.5 C 179.262,102.645 178.262,104.312 176.5,105.5C 176.002,102.748 174.836,100.415 173,98.5C 169.511,100.052 166.344,99.7182 163.5,97.5C 163.938,97.5654 164.272,97.3988 164.5,97C 161.603,95.2845 160.269,92.7845 160.5,89.5C 169.512,88.9156 175.846,92.5822 179.5,100.5 Z"/></g>
<g><path style="opacity:1" fill="#252f37" d="M 220.5,74.5 C 220.5,75.8333 220.5,77.1667 220.5,78.5C 225.5,78.851 230.333,78.1843 235,76.5C 236.971,76.4683 238.471,77.3016 239.5,79C 233.59,78.8969 227.59,79.2302 221.5,80C 219.82,80.3468 218.82,81.3468 218.5,83C 219.233,84.7659 219.567,86.5992 219.5,88.5C 223.406,88.1065 227.072,86.9398 230.5,85C 232.5,84.3333 234.5,84.3333 236.5,85C 237.696,85.6543 237.696,86.1543 236.5,86.5C 234.902,85.5153 233.235,85.3486 231.5,86C 228.316,87.5036 225.149,89.0036 222,90.5C 221.149,93.053 221.482,95.3863 223,97.5C 227.115,94.6832 231.615,93.5166 236.5,94C 231.503,94.6665 227.17,96.6665 223.5,100C 224.738,107.134 227.738,108.134 232.5,103C 231.049,103.263 229.716,103.096 228.5,102.5C 230.045,101.548 231.712,101.215 233.5,101.5C 233.649,102.552 233.483,103.552 233,104.5C 230.304,105.672 228.637,107.672 228,110.5C 224.889,106.613 222.556,102.28 221,97.5C 217.717,106.403 211.217,110.57 201.5,110C 197.044,113.413 194.544,117.913 194,123.5C 193.367,118.742 194.534,114.409 197.5,110.5C 195.405,108.391 193.072,106.724 190.5,105.5C 191.5,105.5 192.5,105.5 193.5,105.5C 195.855,106.094 198.022,107.094 200,108.5C 202.346,108.01 204.513,107.343 206.5,106.5C 207.239,106.631 207.906,106.464 208.5,106C 205.112,101.747 203.779,96.914 204.5,91.5C 207.995,96.9907 212.828,99.6574 219,99.5C 217.264,94.5341 215.097,89.5341 212.5,84.5C 214.897,81.2787 217.064,77.9454 219,74.5C 219.69,73.2617 220.19,73.2617 220.5,74.5 Z"/></g>
<g><path style="opacity:1" fill="#6ba9c7" d="M 216.5,80.5 C 217.9,85.3413 218.733,90.3413 219,95.5C 217.694,91.5544 215.861,87.8878 213.5,84.5C 214.524,83.1482 215.524,81.8149 216.5,80.5 Z"/></g>
<g><path style="opacity:1" fill="#6dadcb" d="M 105.5,55.5 C 105.206,63.0263 106.206,70.3597 108.5,77.5C 105.003,76.4352 101.503,75.4352 98,74.5C 97.2093,70.0745 97.5427,65.7411 99,61.5C 100.406,58.5914 102.572,56.5914 105.5,55.5 Z"/></g>
<g><path style="opacity:1" fill="#373839" d="M 180.5,49.5 C 186.909,55.6342 194.576,57.9675 203.5,56.5C 207.059,58.3149 208.725,60.9815 208.5,64.5C 199.144,68.3967 190.977,66.73 184,59.5C 182.132,56.3949 180.965,53.0615 180.5,49.5 Z"/></g>
<g><path style="opacity:1" fill="#f0c84a" d="M 153.5,52.5 C 153.662,54.5273 153.495,56.5273 153,58.5C 152.329,59.2524 151.496,59.5858 150.5,59.5C 150.737,58.209 150.404,57.209 149.5,56.5C 149.082,55.7784 148.416,55.2784 147.5,55C 148.056,54.6174 148.389,54.1174 148.5,53.5C 148.5,53.1667 148.5,52.8333 148.5,52.5C 149.458,52.0472 150.292,51.3805 151,50.5C 151.708,51.3805 152.542,52.0472 153.5,52.5 Z"/></g>
<g><path style="opacity:1" fill="#d4d5d5" d="M 94.5,50.5 C 94.6602,52.1992 94.4935,53.8659 94,55.5C 90.8689,59.6328 87.3689,63.4662 83.5,67C 81.9751,68.0086 80.3084,68.5086 78.5,68.5C 77.2239,61.8406 76.0572,55.1739 75,48.5C 73.1631,52.1813 70.3298,54.5147 66.5,55.5C 65.6745,51.8641 65.0078,48.1974 64.5,44.5C 65.8566,45.6854 67.3566,46.6854 69,47.5C 71.5533,46.7771 73.72,45.4438 75.5,43.5C 77.355,59.1851 83.6884,61.5184 94.5,50.5 Z"/></g>
<g><path style="opacity:1" fill="#333537" d="M 124.5,49.5 C 125.488,50.795 126.488,52.1283 127.5,53.5C 125.088,53.3059 124.088,51.9726 124.5,49.5 Z"/></g>
<g><path style="opacity:1" fill="#444864" d="M 203.5,54.5 C 203.083,49.9315 205.083,48.4315 209.5,50C 215.367,55.0185 219.367,61.1851 221.5,68.5C 219.488,69.0138 217.488,69.1805 215.5,69C 212.555,63.2662 208.555,58.4329 203.5,54.5 Z"/></g>
<g><path style="opacity:1" fill="#51798d" d="M 154.5,48.5 C 156.585,50.6845 157.585,53.3511 157.5,56.5C 156,55.3748 154.667,54.0414 153.5,52.5C 152.542,52.0472 151.708,51.3805 151,50.5C 150.292,51.3805 149.458,52.0472 148.5,52.5C 149.347,48.9311 151.347,47.5978 154.5,48.5 Z"/></g>
<g><path style="opacity:1" fill="#2f3333" d="M 133.5,44.5 C 135.558,46.9266 137.391,49.5932 139,52.5C 139.924,50.5049 141.09,50.1716 142.5,51.5C 138.383,56.0752 133.716,56.7418 128.5,53.5C 129.778,53.2178 130.778,52.5511 131.5,51.5C 132.167,54.1667 132.833,54.1667 133.5,51.5C 134.404,52.209 134.737,53.209 134.5,54.5C 135.675,54.719 136.675,54.3857 137.5,53.5C 135.88,50.5963 134.547,47.5963 133.5,44.5 Z"/></g>
<g><path style="opacity:1" fill="#ebc449" d="M 133.5,44.5 C 134.547,47.5963 135.88,50.5963 137.5,53.5C 136.675,54.3857 135.675,54.719 134.5,54.5C 134.737,53.209 134.404,52.209 133.5,51.5C 132.833,51.5 132.167,51.5 131.5,51.5C 130.778,52.5511 129.778,53.2178 128.5,53.5C 128.167,53.5 127.833,53.5 127.5,53.5C 126.488,52.1283 125.488,50.795 124.5,49.5C 126.073,45.5413 129.073,43.8747 133.5,44.5 Z"/></g>
<g><path style="opacity:1" fill="#3f435e" d="M 167.5,40.5 C 171.5,40.5 175.5,40.5 179.5,40.5C 179.579,41.9305 179.246,43.2638 178.5,44.5C 173.607,45.5985 168.773,46.9318 164,48.5C 162.558,47.7875 161.725,46.6209 161.5,45C 163.122,42.8628 165.122,41.3628 167.5,40.5 Z"/></g>
<g><path style="opacity:1" fill="#273036" d="M 119.5,40.5 C 121.223,42.2528 122.723,44.2528 124,46.5C 126.14,44.5131 128.64,43.1798 131.5,42.5C 130.078,41.4528 128.578,41.4528 127,42.5C 125.278,42.3893 125.112,41.8893 126.5,41C 130.193,39.8244 132.526,40.9911 133.5,44.5C 129.073,43.8747 126.073,45.5413 124.5,49.5C 122.076,46.9922 120.41,43.9922 119.5,40.5 Z"/></g>
<g><path style="opacity:1" fill="#2a3037" d="M 141.5,30.5 C 140.069,33.7009 138.403,36.7009 136.5,39.5C 136.5,38.1667 136.5,36.8333 136.5,35.5C 132.818,35.3347 129.152,35.5014 125.5,36C 122.823,36.8136 120.823,38.3136 119.5,40.5C 117.442,38.0734 115.609,35.4068 114,32.5C 113.79,34.0581 113.29,35.3915 112.5,36.5C 112.337,34.1432 112.503,31.8098 113,29.5C 115.007,32.3362 117.174,35.0029 119.5,37.5C 121.002,36.9169 122.335,36.0836 123.5,35C 128.533,34.829 133.533,34.329 138.5,33.5C 139.188,32.1451 140.188,31.1451 141.5,30.5 Z"/></g>
<g><path style="opacity:1" fill="#7cc2e5" d="M 108.5,52.5 C 108.5,53.1667 108.167,53.5 107.5,53.5C 103.835,48.5557 101.835,42.889 101.5,36.5C 105.182,36.5907 108.349,37.924 111,40.5C 111.667,42.1667 111.667,43.8333 111,45.5C 104.42,38.9916 104.087,39.3249 110,46.5C 110.743,48.8739 110.243,50.8739 108.5,52.5 Z"/></g>
<g><path style="opacity:1" fill="#7abfe1" d="M 136.5,39.5 C 136.916,41.7525 138.249,43.2525 140.5,44C 143.167,44.6667 145.833,44.6667 148.5,44C 149.056,43.6174 149.389,43.1174 149.5,42.5C 151.914,43.9108 153.581,45.9108 154.5,48.5C 151.347,47.5978 149.347,48.9311 148.5,52.5C 148.5,52.8333 148.5,53.1667 148.5,53.5C 147.504,53.4142 146.671,53.7476 146,54.5C 146.195,52.8739 146.195,51.2072 146,49.5C 145.516,51.1775 144.683,51.8442 143.5,51.5C 143.167,51.5 142.833,51.5 142.5,51.5C 141.09,50.1716 139.924,50.5049 139,52.5C 137.391,49.5932 135.558,46.9266 133.5,44.5C 132.526,40.9911 130.193,39.8244 126.5,41C 125.112,41.8893 125.278,42.3893 127,42.5C 128.578,41.4528 130.078,41.4528 131.5,42.5C 128.64,43.1798 126.14,44.5131 124,46.5C 122.723,44.2528 121.223,42.2528 119.5,40.5C 120.823,38.3136 122.823,36.8136 125.5,36C 129.152,35.5014 132.818,35.3347 136.5,35.5C 136.5,36.8333 136.5,38.1667 136.5,39.5 Z"/></g>
<g><path style="opacity:1" fill="#f0f0f0" d="M 119.5,40.5 C 120.41,43.9922 122.076,46.9922 124.5,49.5C 124.088,51.9726 125.088,53.3059 127.5,53.5C 127.833,53.5 128.167,53.5 128.5,53.5C 133.716,56.7418 138.383,56.0752 142.5,51.5C 142.833,51.5 143.167,51.5 143.5,51.5C 144.188,54.0573 145.354,56.3907 147,58.5C 147.417,57.244 148.25,56.5774 149.5,56.5C 149.586,57.4959 149.252,58.3292 148.5,59C 149.094,59.4643 149.761,59.631 150.5,59.5C 153.457,60.5351 155.791,59.5351 157.5,56.5C 159.905,55.6019 161.905,54.1019 163.5,52C 164.332,51.3123 164.998,51.479 165.5,52.5C 161.981,57.6365 161.314,62.9698 163.5,68.5C 162.767,69.087 161.767,69.087 160.5,68.5C 156.492,65.7717 154.492,67.105 154.5,72.5C 153.326,73.5137 152.66,74.847 152.5,76.5C 151.26,72.3526 150.26,68.0193 149.5,63.5C 144.157,60.5583 138.49,59.8916 132.5,61.5C 131,65.1667 129.5,68.8333 128,72.5C 126.622,67.2642 125.122,62.0975 123.5,57C 118.84,56.0568 114.173,55.2234 109.5,54.5C 107.901,54.7678 106.568,54.4345 105.5,53.5C 106.167,53.5 106.833,53.5 107.5,53.5C 108.167,53.5 108.5,53.1667 108.5,52.5C 109.833,52.5 111.167,52.5 112.5,52.5C 112.5,47.1667 112.5,41.8333 112.5,36.5C 113.29,35.3915 113.79,34.0581 114,32.5C 115.609,35.4068 117.442,38.0734 119.5,40.5 Z"/></g>
<g><path style="opacity:1" fill="#4c4b44" d="M 153.5,52.5 C 154.667,54.0414 156,55.3748 157.5,56.5C 155.791,59.5351 153.457,60.5351 150.5,59.5C 151.496,59.5858 152.329,59.2524 153,58.5C 153.495,56.5273 153.662,54.5273 153.5,52.5 Z"/></g>
<g><path style="opacity:1" fill="#60542f" d="M 149.5,56.5 C 150.404,57.209 150.737,58.209 150.5,59.5C 149.761,59.631 149.094,59.4643 148.5,59C 149.252,58.3292 149.586,57.4959 149.5,56.5 Z"/></g>
<g><path style="opacity:1" fill="#dededf" d="M 131.5,51.5 C 132.167,51.5 132.833,51.5 133.5,51.5C 132.833,54.1667 132.167,54.1667 131.5,51.5 Z"/></g>
<g><path style="opacity:1" fill="#313d47" d="M 112.5,36.5 C 112.5,41.8333 112.5,47.1667 112.5,52.5C 111.167,52.5 109.833,52.5 108.5,52.5C 110.243,50.8739 110.743,48.8739 110,46.5C 104.087,39.3249 104.42,38.9916 111,45.5C 111.667,43.8333 111.667,42.1667 111,40.5C 108.349,37.924 105.182,36.5907 101.5,36.5C 101.835,42.889 103.835,48.5557 107.5,53.5C 106.833,53.5 106.167,53.5 105.5,53.5C 105.167,53.5 104.833,53.5 104.5,53.5C 101.741,47.4657 100.075,41.1323 99.5,34.5C 103.932,34.0953 107.765,35.4286 111,38.5C 111.278,37.5842 111.778,36.9175 112.5,36.5 Z"/></g>
<g><path style="opacity:1" fill="#4f5254" d="M 151.5,32.5 C 151.5,32.1667 151.5,31.8333 151.5,31.5C 158.552,29.998 163.886,32.498 167.5,39C 165.453,40.0726 163.453,41.2393 161.5,42.5C 160.294,44.4841 160.294,46.4841 161.5,48.5C 160.672,49.4147 159.672,50.0814 158.5,50.5C 156.487,47.1706 153.987,44.1706 151,41.5C 151.152,38.553 151.319,35.553 151.5,32.5 Z"/></g>
<g><path style="opacity:1" fill="#515456" d="M 203.5,54.5 C 203.5,55.1667 203.5,55.8333 203.5,56.5C 194.576,57.9675 186.909,55.6342 180.5,49.5C 181.859,33.6578 190.526,26.8244 206.5,29C 213.368,32.0246 217.368,37.1912 218.5,44.5C 217.284,52.358 214.284,53.5247 209.5,48C 203.624,47.0469 201.624,49.2136 203.5,54.5 Z"/></g>
<g><path style="opacity:1" fill="#484b4d" d="M 221.5,24.5 C 222.239,24.369 222.906,24.5357 223.5,25C 221.709,28.7514 219.543,32.2514 217,35.5C 214.982,33.6499 213.149,31.6499 211.5,29.5C 214.657,27.2546 217.991,25.5879 221.5,24.5 Z"/></g>
<g><path style="opacity:1" fill="#434762" d="M 151.5,31.5 C 151.5,31.8333 151.5,32.1667 151.5,32.5C 150.133,35.268 149.133,38.268 148.5,41.5C 148.624,42.1067 148.957,42.44 149.5,42.5C 149.389,43.1174 149.056,43.6174 148.5,44C 145.833,44.6667 143.167,44.6667 140.5,44C 138.249,43.2525 136.916,41.7525 136.5,39.5C 138.403,36.7009 140.069,33.7009 141.5,30.5C 145.135,26.6932 148.635,22.6932 152,18.5C 152.415,22.848 152.249,27.1813 151.5,31.5 Z"/></g>
<g><path style="opacity:1" fill="#f7f7f8" d="M 141.5,30.5 C 140.188,31.1451 139.188,32.1451 138.5,33.5C 133.533,34.329 128.533,34.829 123.5,35C 122.335,36.0836 121.002,36.9169 119.5,37.5C 117.174,35.0029 115.007,32.3362 113,29.5C 112.503,31.8098 112.337,34.1432 112.5,36.5C 111.778,36.9175 111.278,37.5842 111,38.5C 107.765,35.4286 103.932,34.0953 99.5,34.5C 100.075,41.1323 101.741,47.4657 104.5,53.5C 102.25,55.244 100.083,57.244 98,59.5C 97.1053,55.7897 96.1053,52.123 95,48.5C 94.5357,49.0944 94.369,49.7611 94.5,50.5C 83.6884,61.5184 77.355,59.1851 75.5,43.5C 73.72,45.4438 71.5533,46.7771 69,47.5C 67.3566,46.6854 65.8566,45.6854 64.5,44.5C 62.2175,46.253 59.7175,48.5863 57,51.5C 58.8998,42.4872 62.7331,34.3205 68.5,27C 69.4491,26.3828 70.2825,26.5494 71,27.5C 71.2362,29.764 71.7362,31.9307 72.5,34C 70.9123,35.987 70.0789,38.1537 70,40.5C 74.3793,32.1236 80.2126,24.9569 87.5,19C 91.502,18.4366 93.1687,20.2699 92.5,24.5C 92.979,28.9113 92.3124,33.078 90.5,37C 92.5739,36.4755 93.9072,34.9755 94.5,32.5C 99.383,23.6137 106.05,16.2803 114.5,10.5C 115.799,11.09 116.632,12.09 117,13.5C 117.333,17.8333 117.667,22.1667 118,26.5C 122.897,17.6069 129.23,9.94026 137,3.5C 139.378,5.59016 140.712,8.25683 141,11.5C 142.504,17.8401 142.67,24.1734 141.5,30.5 Z"/></g>
<g><path style="opacity:1" fill="#707277" d="M 92.5,24.5 C 93.1667,27.1667 93.8333,29.8333 94.5,32.5C 93.9072,34.9755 92.5739,36.4755 90.5,37C 92.3124,33.078 92.979,28.9113 92.5,24.5 Z"/></g>
<g><path style="opacity:1" fill="#d9dada" d="M 39.5,179.5 C 43.0608,182.532 47.0608,185.032 51.5,187C 53.604,189.042 54.7707,191.542 55,194.5C 57.2431,196.282 59.7431,196.782 62.5,196C 63.8782,194.287 65.5448,192.953 67.5,192C 74.1842,191.17 80.5175,192.337 86.5,195.5C 88.0707,197.882 88.904,200.549 89,203.5C 92.0509,206.374 94.7175,206.041 97,202.5C 97.6419,200.238 98.4752,198.071 99.5,196C 100.833,195.333 102.167,195.333 103.5,196C 105.761,199.102 107.094,198.602 107.5,194.5C 105.5,211.693 112.5,223.193 128.5,229C 134.694,229.727 140.86,229.561 147,228.5C 150.261,229.632 153.261,231.299 156,233.5C 156.494,231.866 156.66,230.199 156.5,228.5C 156.768,226.901 156.434,225.568 155.5,224.5C 156.899,221.868 158.732,219.535 161,217.5C 162.741,214.691 163.908,211.691 164.5,208.5C 164.833,208.5 165.167,208.5 165.5,208.5C 165.435,208.938 165.601,209.272 166,209.5C 174.195,200.951 182.528,200.617 191,208.5C 192.811,207.922 194.645,207.422 196.5,207C 198.066,202.902 199.399,198.735 200.5,194.5C 203.833,194.5 207.167,194.5 210.5,194.5C 210.232,192.901 210.566,191.568 211.5,190.5C 211.612,194.396 212.612,198.063 214.5,201.5C 214.007,204.485 212.84,207.152 211,209.5C 210.667,212.5 210.333,215.5 210,218.5C 206.516,221.911 202.516,224.578 198,226.5C 197.025,229.76 195.858,232.927 194.5,236C 187.8,235.732 182.8,238.398 179.5,244C 175.058,244.58 170.724,244.08 166.5,242.5C 163.615,243.871 161.115,245.871 159,248.5C 157.285,246.241 155.452,244.074 153.5,242C 150.773,241.182 148.106,241.348 145.5,242.5C 144.387,245.492 143.054,248.325 141.5,251C 131.218,253.155 121.885,251.322 113.5,245.5C 110.807,249.338 107.307,250.338 103,248.5C 101.742,250.358 100.075,251.692 98,252.5C 93.6219,250.807 89.1219,250.307 84.5,251C 81.7382,254.626 82.0716,257.96 85.5,261C 84.4208,263.155 83.0874,265.155 81.5,267C 76.8333,267.333 72.1667,267.667 67.5,268C 63.2117,271.996 63.545,275.496 68.5,278.5C 67.6667,280.167 66.8333,281.833 66,283.5C 62.2136,285.407 58.3802,287.24 54.5,289C 52.6487,290.684 50.982,292.517 49.5,294.5C 48.9968,287.844 49.4968,281.177 51,274.5C 52.864,273.036 55.0306,272.036 57.5,271.5C 58.1667,270.5 58.8333,269.5 59.5,268.5C 55.2624,264.118 55.5957,260.118 60.5,256.5C 58.6396,252.917 56.9729,249.251 55.5,245.5C 55.9767,244.522 56.6433,243.689 57.5,243C 61.0569,241.592 64.7235,240.592 68.5,240C 69.435,237.619 69.7683,235.119 69.5,232.5C 67.7741,232.815 66.1075,232.981 64.5,233C 62.3333,230.833 60.1667,228.667 58,226.5C 57.5706,224.331 58.0706,222.331 59.5,220.5C 59.2907,219.914 58.9574,219.414 58.5,219C 56.1902,218.503 53.8568,218.337 51.5,218.5C 50.3433,213.538 49.3433,208.538 48.5,203.5C 45.8127,203.664 43.146,203.497 40.5,203C 39.4844,202.481 38.8178,201.647 38.5,200.5C 37.336,194.198 36.836,187.865 37,181.5C 37.7083,180.619 38.5416,179.953 39.5,179.5 Z"/></g>
<g><path style="opacity:1" fill="#373839" d="M 163.5,193.5 C 164.167,197.833 164.833,202.167 165.5,206.5C 165.5,207.167 165.5,207.833 165.5,208.5C 165.167,208.5 164.833,208.5 164.5,208.5C 162.427,212.875 159.26,217.208 155,221.5C 153.791,216.707 152.291,212.04 150.5,207.5C 158.066,205.605 162.4,200.938 163.5,193.5 Z"/></g>
<g><path style="opacity:1" fill="#373839" d="M 109.5,202.5 C 116.048,208.063 123.714,210.729 132.5,210.5C 135.263,216.948 139.596,222.281 145.5,226.5C 130.002,230.29 118.502,225.29 111,211.5C 110.047,208.568 109.547,205.568 109.5,202.5 Z"/></g>
<g><path style="opacity:1" fill="#4e5153" d="M 155.5,224.5 C 156.434,225.568 156.768,226.901 156.5,228.5C 155.732,229.263 155.232,230.263 155,231.5C 148.708,226.877 142.708,221.877 137,216.5C 132.487,206.67 135.653,202.503 146.5,204C 150.304,211.072 153.137,218.572 155,226.5C 155.464,225.906 155.631,225.239 155.5,224.5 Z"/></g>
<g><path style="opacity:1" fill="#53565b" d="M 74.5,235.5 C 74.56,234.957 74.8933,234.624 75.5,234.5C 77.2255,236.228 78.5589,238.228 79.5,240.5C 83.7956,241.328 88.1289,241.828 92.5,242C 88.2388,243.363 83.9054,243.696 79.5,243C 77.6859,240.521 76.0192,238.021 74.5,235.5 Z"/></g>
<g><path style="opacity:1" fill="#282c32" d="M 97.5,241.5 C 97.56,240.957 97.8933,240.624 98.5,240.5C 102.039,243.97 106.372,245.47 111.5,245C 106.01,246.504 101.343,245.337 97.5,241.5 Z"/></g>
</svg>
