<?xml version="1.0" encoding="UTF-8"?>
<!-- Created with Inkscape (http://www.inkscape.org/) -->
<svg version="1.1" viewBox="0 0 155.39 157.23" xmlns="http://www.w3.org/2000/svg">
 <g transform="translate(-18.88 -51.192)">
  <g transform="matrix(.33073 0 0 -.33073 144.73 146.69)">
   <path d="m0 0c-5.646-41.954-44.059-73.18-85.124-64.612l-18.15 7.65-48.375 98.699c8.424 29.205 37.926 44.188 67.049 46.576 20.588 1.687 36.881-2.531 49.397-9.91 19.08 2.934 75.489 0.136 85.529-2.015 2.1-0.45 2.793-1.063 1.65-3.375-4.726-9.563-42.253-64.086-51.976-73.013" fill="#595857"/>
  </g>
  <g transform="matrix(.33073 0 0 -.33073 150.01 140.18)">
   <path d="m0 0c3.15-1.95 7.785-5.426 9.375-6.75 0.899-0.75 2.264-1.24 2.924 1.05 1.125 3.9 3.375 19.125 2.926 26.775-4.8-6.6-10.725-14.926-15.225-21.075" fill="#595857"/>
  </g>
  <g transform="matrix(.33073 0 0 -.33073 143.39 120.33)">
   <path d="m0 0c-3.6 2.101-13.274 6.601-14.625 7.05-1.35 0.45-2.625 0.599-2.475-1.125 0.151-1.725 0.227-4.349 0.6-6.225 4.351 0.151 11.025 0.3 16.5 0.3" fill="#595857"/>
  </g>
  <g transform="matrix(.33073 0 0 -.33073 108.09 160.17)">
   <path d="m0 0-29.4 48.45 1.5 18.75c8.406 22.522 31.011 33.3 47.548 33.3 19.949 0 40.131-11.735 46.501-30.6 15.6-46.2-16.2-80.1-51.6-73.799z" fill="#30363a"/>
  </g>
  <g transform="matrix(.33073 0 0 -.33073 133.08 120.76)">
   <path d="m0 0c5.054 0.459 14.953 0.797 20.578 1.021 24.413-8.886 37.233-37.767 31.276-59.287-3.6-4.387-12.713-15.863-16.651-20.137 4.575 37.537-12.974 64.537-35.203 78.403" fill="#30363a"/>
  </g>
  <g transform="matrix(.33073 0 0 -.33073 150.79 120.42)">
   <path d="m0 0c13.275-6.074 18.563-20.588 17.888-30.938 4.837 7.201 14.737 22.388 15.75 24.526 1.012 2.137 0.665 2.937-1.65 3.375-4.763 0.9-24.675 2.925-31.988 3.037" fill="#30363a"/>
  </g>
  <g transform="matrix(.33073 0 0 -.33073 136.24 135.94)">
   <path d="m0 0c-0.018-9.307-7.707-19.238-14.625-21.6 0.519-31.637-19.575-61.65-56.024-55.576 2.699-3.824 9.298-14.324 9.562-16.986l2.063-2.664c59.328-10.203 90.975 47.252 85.08 87.422-5.288-4.275-15.356-11.057-21.72-14.917-0.566 9.533-2.396 17.606-4.336 24.321" fill="#3e3a39"/>
  </g>
  <g transform="matrix(.33073 0 0 -.33073 150.51 134.82)">
   <path d="m0 0c6.511 6.02 12.775 12.776 18.304 19.163 0.369-2.579 0.613-5.281 0.613-6.264-1.965-2.703-3.93-6.511-5.035-8.231-0.123-7.124-1.508-20.815-2.826-25.429-0.738-2.58-1.721-3.562-3.317-2.211-1.597 1.351-6.51 4.914-8.845 6.879 1.597 5.405 2.088 10.565 1.106 16.093" fill="#3e3a39"/>
  </g>
  <g transform="matrix(.33073 0 0 -.33073 138.03 117.87)">
   <path d="m0 0c0.53-1.92 1.87-5.709 2.931-7.754h-3.209c-0.278 2.223-0.91 7.906 0.278 7.754" fill="#b4b5b5"/>
  </g>
  <g transform="matrix(.33073 0 0 -.33073 104.95 138.62)">
   <path d="m0 0c-3.084 3.645-8.832 11.193-11.363 14.736l0.724 1.071c2.595-3.602 7.713-10.071 11.145-14.008z" fill="#232528"/>
  </g>
  <g transform="matrix(.33073 0 0 -.33073 105.4 137.24)">
   <path d="m0 0c-2.699 4.668-7.313 12.225-8.925 15.037l0.825 0.854c1.969-3.348 6.863-10.828 9.075-14.428z" fill="#232528"/>
  </g>
  <g transform="matrix(.33073 0 0 -.33073 108.9 130.12)">
   <path d="m0 0c-5.557-1.691-11.3-5.378-16.207-10.541l-0.938 1.275c5.176 5.512 11.776 9.076 17.472 10.397z" fill="#232528"/>
  </g>
  <g transform="matrix(.33073 0 0 -.33073 100.05 139.13)">
   <path d="m0 0c0.902 4.585 2.91 9.416 6.077 13.734l0.9-1.162c-3.193-4.355-5.026-8.662-6.059-13.245z" fill="#232528"/>
  </g>
  <g transform="matrix(.33073 0 0 -.33073 107.78 132.59)">
   <path d="m0 0c-3.568-1.163-7.081-3.789-10.281-7.275l-0.864 1.275c2.926 3.299 7.725 6.374 11.588 7.152z" fill="#232528"/>
  </g>
  <g transform="matrix(.33073 0 0 -.33073 101.37 140.33)">
   <path d="m0 0c0.355 4.426 2.086 9.116 4.969 13.389l0.937-1.2c-2.93-4.343-4.5-8.587-4.927-12.886z" fill="#232528"/>
  </g>
  <g transform="matrix(.33073 0 0 -.33073 106.55 135.06)">
   <path d="m0 0c-1.45-0.623-3.062-2.047-4.337-3.697l-0.75 1.386c1.313 1.688 3.749 3.217 5.774 3.79z" fill="#232528"/>
  </g>
  <g transform="matrix(.33073 0 0 -.33073 102.6 141.4)">
   <path d="m0 0c0.222 4.284 1.656 9.104 4.085 13.098l1.012-1.163c-2.337-3.935-3.787-8.25-4.103-12.54z" fill="#232528"/>
  </g>
  <g transform="matrix(.33073 0 0 -.33073 142.91 121.96)">
   <path d="m0 0c-4.148-0.219-19.514-0.934-23.373-1.145l-1.389 1.262c4.612 0.187 19.408 0.646 23.073 0.822z" fill="#232528"/>
  </g>
  <g transform="matrix(.33073 0 0 -.33073 144.24 122.83)">
   <path d="m0 0c-5.475-0.076-19.199-0.75-24.3-0.938l-1.266 1.168c5.353 0.256 17.853 0.836 23.92 0.914z" fill="#232528"/>
  </g>
  <g transform="matrix(.33073 0 0 -.33073 149.74 130.86)">
   <path d="m0 0c-4.959-3.682-13.258-8.693-18.158-11.369l-0.563 1.424c4.899 2.679 12.937 7.164 18.271 10.914z" fill="#232528"/>
  </g>
  <g transform="matrix(.33073 0 0 -.33073 144.02 135.56)">
   <path d="m0 0c5.475 3.225 14.171 8.952 17.802 12.263l0.394-1.096c-3.84-3.427-12.196-9.33-17.784-12.668z" fill="#232528"/>
  </g>
  <g transform="matrix(.33073 0 0 -.33073 155.74 125.75)">
   <path d="m0 0c3.228 2.225 14.85 10.162 18.104 12.696l1.091-0.473c-3.37-2.698-14.659-11.023-18.483-13.573z" fill="#232528"/>
  </g>
  <g transform="matrix(.33073 0 0 -.33073 156.15 126.68)">
   <path d="m0 0c3.825 2.513 12.867 9.039 17.871 13.248l-1.205-2.25c-5.416-4.66-11.716-9.385-16.216-12.461z" fill="#232528"/>
  </g>
  <g transform="matrix(.33073 0 0 -.33073 145.56 134.93)">
   <path d="m0 0c2.184-8.842 2.83-18.394 1.701-27.086-0.203-1.551-1.178-1.463-1.015 0.112 0.908 8.806 0.175 17.544-1.922 26.187z" fill="#232528"/>
  </g>
  <g transform="matrix(.33073 0 0 -.33073 138.15 122.79)">
   <path d="m0 0c4.483-3.668 8.362-7.912 11.718-13.079 0.965-1.484 0.123-1.931-0.842-0.577-3.525 4.956-8.242 9.828-12.825 13.506z" fill="#232528"/>
  </g>
  <g transform="matrix(.33073 0 0 -.33073 136.44 122.05)">
   <path d="m0 0c-2.061 1.386-4.696 2.988-6.877 4.038l2.144 0.188c2.325-1.125 4.611-2.549 6.75-4.125z" fill="#232528"/>
  </g>
  <g transform="matrix(.33073 0 0 -.33073 146.67 134.19)">
   <path d="m0 0c1.979-8.107 2.719-16.65 1.729-25.068-0.19-1.604-1.133-1.537-1.016 0.089 0.6 8.329-0.051 16.241-1.949 24.155z" fill="#232528"/>
  </g>
  <g transform="matrix(.33073 0 0 -.33073 145.9 133.12)">
   <path d="m0 0c-1.666 5.481-3.863 10.837-6.686 15.685-0.802 1.38 0.026 1.875 0.875 0.525 2.961-4.697 5.358-9.9 7.047-15.46z" fill="#232528"/>
  </g>
  <g transform="matrix(.33073 0 0 -.33073 139.85 122.72)">
   <path d="m0 0c3.889-3.377 7.162-7.087 10.176-11.662 0.941-1.43 0.105-1.878-0.839-0.58-3.262 4.48-7.301 8.73-11.286 12.13z" fill="#232528"/>
  </g>
  <g transform="matrix(.33073 0 0 -.33073 136.73 120.57)">
   <path d="m0 0c2.035-1.2 4.215-2.721 6.037-4.088l-2.137-0.15c-1.824 1.339-3.92 2.918-5.888 4.041z" fill="#232528"/>
  </g>
  <g transform="matrix(.33073 0 0 -.33073 147.89 133.33)">
   <path d="m0 0c2.041-7.572 2.586-15.075 1.934-22.688-0.157-1.824-1.141-1.742-1.017 0.1 0.487 7.176-0.088 14.402-2.042 21.764z" fill="#232528"/>
  </g>
  <g transform="matrix(.33073 0 0 -.33073 147.14 132.38)">
   <path d="m0 0c-1.723 5.202-3.976 10.274-6.838 15.071-0.771 1.291 0.037 1.793 0.866 0.539 3.009-4.548 5.425-9.582 7.171-14.86z" fill="#232528"/>
  </g>
  <g transform="matrix(.33073 0 0 -.33073 141.44 122.67)">
   <path d="m0 0c3.341-2.983 6.299-6.412 8.99-10.316 0.946-1.372 0.092-1.845-0.832-0.59-2.759 3.744-6.628 7.779-10.071 10.794z" fill="#232528"/>
  </g>
  <g transform="matrix(.33073 0 0 -.33073 139.53 121.9)">
   <path d="m0 0c-1.926 1.407-3.563 2.625-5.625 4.014l1.721 0.191c1.982-1.112 4.274-2.669 6.154-4.101z" fill="#232528"/>
  </g>
  <g transform="matrix(.33073 0 0 -.33073 149.1 132.45)">
   <path d="m0 0c1.577-6.356 2.175-13.35 1.65-20.791-0.146-2.071-1.093-2.025-1.019 0.059 0.25 7.101-0.264 13.665-1.756 19.833z" fill="#232528"/>
  </g>
  <g transform="matrix(.33073 0 0 -.33073 148.4 131.6)">
   <path d="m0 0c-1.578 5.025-3.75 9.75-6.635 14.339-0.836 1.329-0.068 1.849 0.846 0.573 3.052-4.262 5.418-9.041 7.026-14.162z" fill="#232528"/>
  </g>
  <g transform="matrix(.33073 0 0 -.33073 142.84 122.63)">
   <path d="m0 0c2.963-2.551 5.889-5.4 8.445-8.722 0.978-1.269 0.149-1.779-0.796-0.637-2.811 3.396-6.299 6.621-9.749 9.246z" fill="#232528"/>
  </g>
  <g transform="matrix(.33073 0 0 -.33073 140.88 121.84)">
   <path d="m0 0c-1.931 1.318-3.487 2.4-5.916 3.854l1.846 0.139c1.982-1.13 4.324-2.647 6.113-3.908z" fill="#232528"/>
  </g>
  <g transform="matrix(.33073 0 0 -.33073 157.48 129.4)">
   <path d="m0 0c0 3.208-0.445 6.346-1.312 9.021l1.201 0.75c0.824-3.226 1.236-5.925 1.109-8.513z" fill="#232528"/>
  </g>
  <g transform="matrix(.33073 0 0 -.33073 156.67 125.41)">
   <path d="m0 0c-1.411 3.541-3.375 6.975-5.695 9.854l1.2 0.192c2.245-2.472 4.38-5.772 5.769-9.259z" fill="#232528"/>
  </g>
  <g transform="matrix(.33073 0 0 -.33073 158.38 127.95)">
   <path d="m0 0c0.198 2.613-0.177 5.088-0.664 7.225l1.274 0.751c0.563-2.298 0.826-4.576 0.516-6.687z" fill="#232528"/>
  </g>
  <g transform="matrix(.33073 0 0 -.33073 157.85 124.58)">
   <path d="m0 0c-0.938 2.775-2.25 5.438-3.941 7.853l1.138 0.182c1.604-1.923 3.061-4.519 4.041-7.211z" fill="#232528"/>
  </g>
  <g transform="matrix(.33073 0 0 -.33073 159.44 126.39)">
   <path d="m0 0c0.294 1.907 0.2 3.573-0.043 5.357l1.35 0.863c0.226-1.518 0.149-3.113-0.087-4.705z" fill="#232528"/>
  </g>
  <g transform="matrix(.33073 0 0 -.33073 159.19 123.56)">
   <path d="m0 0c-0.602 1.85-1.463 3.601-2.5 5.218l1.187 0.114c0.954-1.295 1.876-2.744 2.55-4.506z" fill="#232528"/>
  </g>
  <g transform="matrix(.33073 0 0 -.33073 118.29 161.46)">
   <path d="m0 0c-1.229 4.282-2.917 9.345-4.717 13.583l1.651 0.112c1.724-4.275 3.476-10.019 4.311-13.463z" fill="#232528"/>
  </g>
  <g transform="matrix(.33073 0 0 -.33073 120.63 157.66)">
   <path d="m0 0c-2.138-0.825-6.488-2.081-9.338-2.306l-0.449 1.387c2.736 0.264 5.512 0.751 7.911 1.389z" fill="#232528"/>
  </g>
  <g transform="matrix(.33073 0 0 -.33073 121.34 159.2)">
   <path d="m0 0c-3.291-1.168-7.559-2.145-9.884-2.369l-0.524 1.499c3.337 0.15 7.37 1.057 10.05 1.95z" fill="#232528"/>
  </g>
  <g transform="matrix(.33073 0 0 -.33073 144.73 133.79)">
   <path d="m0 0c-1.688 5.709-3.825 11.062-6.8 16.164-0.743 1.275 0.093 1.774 0.876 0.524 3.073-4.914 5.475-10.213 7.237-15.939z" fill="#232528"/>
  </g>
  <g transform="matrix(.33073 0 0 -.33073 162.09 121.77)">
   <path d="m0 0c-5.889-0.119-18.489-1.218-25.613-2.137l-1.238 1.199c6.863 0.938 18.374 1.725 24.804 1.827z" fill="#232528"/>
  </g>
  <g transform="matrix(.33073 0 0 -.33073 140.78 128.56)">
   <path d="M 0,0 18.625,8.875 C 21.375,5.5 26,-2 27.5,-8.625 29,-15.25 31.125,-22.25 28.5,-34.25 L 12,-54.625 c 0.625,6.5 0.305,23.889 -1.625,31.25 C 7,-10.5 0,0 0,0" fill="#30363a"/>
  </g>
  <g transform="matrix(.33073 0 0 -.33073 154.67 123.76)">
   <path d="m0 0 22.292 6.458s1.021-0.395-0.104-2.645-15.813-24.626-15.813-24.626c-0.125 3.188-0.125 8-1.75 12.063-1.625 4.062-4.625 8.75-4.625 8.75" fill="#30363a"/>
  </g>
  <g transform="matrix(.33073 0 0 -.33073 100.73 134.28)">
   <path d="m0 0 12.5-15.333c0.167 2.667 0.5 4.667 1.333 6.167 0.834 1.5 2 3.208 3.125 5.083s5.375 11.375 6.875 14.625 3.75 8.875 3.75 8.875c-5.25-1.875-12-4.5-17.75-9.125s-9.833-10.292-9.833-10.292" fill="#30363a"/>
  </g>
  <g transform="matrix(.33073 0 0 -.33073 116.05 156.75)">
   <path d="m0 0 14.438-2.688 2.875-8.687s-2.688-1.375-6.25-2.125c-3.563-0.75-7.625-1.438-7.625-1.438 0 1.813 0.062 5-0.5 7.313-0.563 2.312-2.938 7.625-2.938 7.625" fill="#30363a"/>
  </g>
  <g transform="matrix(.33073 0 0 -.33073 116.59 167.63)">
   <path d="m0 0c55.116-10.861 98.138 47.293 80.581 100.36-10.482 31.685-38.662 51.458-72.705 50.71-37.035-0.798-66.344-19.365-73.432-46.466l-1.69 0.795c6.958 28.229 36.884 46.679 75.161 47.709 33.707 0.908 63.27-17.176 74.939-52.03 18.409-54.974-25.845-113.62-81.484-103.58z" fill="#0f141b"/>
  </g>
  <g transform="matrix(.33073 0 0 -.33073 144.02 135.84)">
   <path d="m0 0c-5.549-4.711-15.487-10.783-20.293-13.416l-0.322 2.152c5.578 2.956 15.179 8.844 20.08 13.106z" fill="#0f141b"/>
  </g>
  <g transform="matrix(.33073 0 0 -.33073 144.74 146.2)">
   <path d="m0 0c16.097 17.91 45.146 60.943 51.58 72.239 0.569 0.999 0.664 1.444-0.519 1.659-19.922 3.626-58.665 3.863-85.177 1.998l-2.868 1.968c25.736 1.871 68.137 1.137 88.283-2.531 2.636-0.479 2.749-2.02 1.787-3.656-9.389-15.967-35.789-55.716-53.565-75.586z" fill="#0f141b"/>
  </g>
  <g transform="matrix(.33073 0 0 -.33073 149.72 140.31)">
   <path d="m0 0c3.674 11.101 1.245 26.08-5.716 38.184-6.521 11.339-16.428 19.203-27.209 21.526l3.674 0.456c10.184-2.871 19.461-10.238 25.695-21.078 6.763-11.758 9.063-25.945 6.33-36.313z" fill="#0f141b"/>
  </g>
  <g transform="matrix(.33073 0 0 -.33073 156.35 130.97)">
   <path d="m0 0c1.933 11.231-6.692 28.181-19.377 31.374l3.178 0.309c11.416-4.106 18.867-18.606 18-29.461z" fill="#0f141b"/>
  </g>
  <g transform="matrix(.33073 0 0 -.33073 152.94 121.94)">
   <path d="m0 0c-6.603 0.213-23.005 0.17-30.852 7e-3l-1.893 1.474c7.152 0.039 24.435-0.096 31.67-0.426z" fill="#0f141b"/>
  </g>
  <g transform="matrix(.33073 0 0 -.33073 156.22 127.02)">
   <path d="m0 0c-4.598-3.896-13.667-10.777-18.941-14.12l-0.366 1.617c5.409 3.466 14.18 9.747 18.826 13.667z" fill="#0f141b"/>
  </g>
  <g transform="matrix(.33073 0 0 -.33073 143.07 120.41)">
   <path d="m0 0c-4.465 2.57-11.961 5.975-14.47 6.834-0.757 0.258-0.944-0.053-0.914-0.506 0.106-1.571 0.352-3.853 0.689-6.428l-1.462-0.181c-0.323 2.812-0.507 4.963-0.534 6.834-0.024 1.595 0.501 2.176 2.49 1.494 3.035-1.038 12.697-5.361 16.902-8.02z" fill="#0f141b"/>
  </g>
  <g transform="matrix(.33073 0 0 -.33073 150.13 139.92)">
   <path d="m0 0c2.875-1.711 7.466-5.353 9.703-7.229 0.574-0.484 1.166-0.404 1.547 0.801 1.127 3.565 2.664 18.409 2.91 26.593l1.617 1.884c-0.056-9-1.744-23.85-3.261-28.842-0.728-2.389-2.134-2.701-3.545-1.519-2.21 1.855-7.028 5.363-9.858 7.046z" fill="#0f141b"/>
  </g>
  <g transform="matrix(.33073 0 0 -.33073 116.01 166.73)">
   <path d="m0 0c50.068-4.004 73.676 46.431 60.982 88.528-9.322 30.918-30.087 47.022-61.516 47.022-28.486 0-50.627-12.57-61.423-35.061l-1.258 0.887c10.974 22.861 33.694 35.852 62.59 36.055 33.688 0.235 54.659-17.358 63.992-48.311 14.166-46.982-15.609-95.127-62.998-90.943z" fill="#0f141b"/>
  </g>
  <g transform="matrix(.33073 0 0 -.33073 112.73 161.24)">
   <path d="m0 0c42.977-6.63 62.174 36.956 52.96 66.895-6.708 21.798-23.415 35.145-44.679 35.628-25.119 0.54-43.76-15.982-49.49-32.713l-1.343 1.791c6.074 16.892 25.515 33.573 50.816 33.012 21.718-0.493 40.447-13.806 46.988-37.24 9.324-33.398-11.602-75.473-54.619-69.144z" fill="#0f141b"/>
  </g>
  <g transform="matrix(.33073 0 0 -.33073 134.95 122.3)">
   <path d="m0 0c-8.479 0.099-28.266-0.412-36.699-0.763l-4.271 1.522c7.685 0.577 29.904 0.858 39.437 0.732z" fill="#0f141b"/>
  </g>
  <g transform="matrix(.33073 0 0 -.33073 102.45 122.5)">
   <path d="m0 0c-4.433-4.139-13.01-16.629-14.37-19.97-0.302-0.74-0.144-1.524 0.73-2.981 1.717-2.862 5.705-8.158 9-11.925l-1.095-1.378c-3.328 3.803-7.821 9.471-9.563 12.375-0.754 1.256-1.308 2.97-0.732 4.387 1.174 2.881 7.453 11.842 12.543 17.496z" fill="#0f141b"/>
  </g>
  <g transform="matrix(.33073 0 0 -.33073 142.68 153.55)">
   <path d="m0 0c-11.03-16.938-27.905-28.863-41.35-32.717-1.414-0.405-2.979-0.401-4.429 0.887-1.452 1.291-3.825 4.865-4.837 7.678l1.856 0.941c0.968-2.474 3.026-5.748 4.36-6.932 1.07-0.953 1.537-1.046 2.784-0.689 12.738 3.655 32.809 18.367 43.296 36.183z" fill="#0f141b"/>
  </g>
  <g transform="matrix(.33073 0 0 -.33073 91.492 79.276)">
   <path d="m0 0c-2.621 1.638-9.061 9.878-11.354 13.808-2.292 3.929-5.347 6.167-8.951 7.313-3.601 1.147-14.68 4.476-17.465 5.403-2.783 0.928-7.203 1.038-10.642-0.927-2.729 7.757-9.178 22.084-13.528 24.334-4.351 2.25-17.099 6.374-20.4 7.199-2.625-1.05-3.825-3.975-3.451-7.049 5.477-3.826 11.025-7.65 12.601-8.775 1.575-1.125 2.25-1.801 2.25-4.276 0-2.474 0.149-11.625 0.6-13.426 0.449-1.798 4.275-8.324 5.174-9.824 0.9-1.5 2.4-1.801 3.601-1.801 1.2 0 2.925 0.226 4.349 0.226 2.026 0 2.747-0.601 2.851-2.624 0.15-2.926 1.275-8.1 2.699-10.726-2.924 0-15.299-0.15-15.524-2.4-27.675 1.425-69.75 0.976-97.201-4.351-1.66-0.322-1.842-1.278-1.125-2.474 1.801-3 7.801-10.673 9.526-12 0.974-0.75 2.775-1.41 4.801-1.425 10.949-0.075 62.4-1.875 75.149-3.825-16.95-3.151-52.496-11.846-62.851-17.025-1.65-0.825-2.168-2.169-0.824-3.6 2.324-2.475 8.1-6.975 10.949-8.175 2.85-1.2 6.293-0.484 9.675 0.149 8.402 1.577 39.001 6.077 47.026 7.051-7.651-4.5-32.156-19.251-35.475-22.425-1.726-1.65-2.059-2.447-0.301-3.9 1.726-1.425 5.776-4.726 7.351-5.851 1.574-1.125 3.043-1.357 5.325-0.148 3.825 2.024 15.075 6.674 19.725 8.398-0.826-1.648-1.275-3.074-1.875-4.5-2.326-2.024-7.576-6.298-8.25-7.649-0.675-1.351-2.476-7.274-2.55-11.1-14.551-2.85-25.725-24.075-23.325-27.376-2.101-2.25-5.406-2.861-7.5-2.999-10.238-0.674-60.414-26.325-65.025-30.487-6.656-6.008-33.904-51.61-34.764-62.775-0.224-2.925-0.07-4.276 2.213-5.963 1.725-1.276 6.42-4.484 8.1-5.324 1.351-0.676 3.103-0.953 3.825 0.598 4.651 9.976 19.876 33.75 27.527 38.626-3.827-10.951-9.827-36.075-9.676-40.951 0.074-2.399 0.375-3.074 1.949-3.449 1.575-0.375 8.097-1.276 10.5-1.276 1.426 0 2.031 1.124 2.626 2.625 3.975 10.05 14.774 31.426 19.125 36.75-0.376-6.15-2.621-25.912-3.001-30.075-0.148-1.649 0.525-2.925 2.25-2.925 1.726 0 6.36 0.052 8.25 0.6 2.325 0.676 3.027 2.016 3.601 3.75 3.751 11.326 11.475 37.201 12.6 40.801 1.125 3.599 3.295 6.756 5.1 8.625 4.275 4.425 12.3 13.424 15.449 19.875 5.101 3.524 17.639 13.368 16.801 15.599-0.45 1.201-9.45-1.875-11.7-2.849 1.275 3.45 4.725 8.774 10.575 9 5.849 0.224 23.325 7.873 25.724 16.425 1.951-4.5 7.952-12.749 11.25-15.599 3.751-5.475 5.315-15.713 2.401-22.201-2.324-5.174-4.949-9.975-5.776-15.225-5.849-2.775-14.425-18.316-17.25-24.899-0.899-2.101-2.499-4.451-4.799-5.625-7.201-3.676-48.288-27.28-54.525-32.476-1.801-1.5-2.85-2.85-2.176-4.724-4.875-4.201-9.4-12.912-8.474-20.85 1.199-10.275 12.449-22.502 24.599-22.426 1.875-1.349 6.676-3.75 9.225-4.574 0.451-2.7 0.9-8.551 0.451-11.926-2.551-3.974-7.72-8.374-9.376-8.925-2.25-0.75-3.599-1.95-3.599-3.149-2.55-0.6-7.641-4.256-8.55-6.601-1.426-3.674-2.301-10.727-2.175-13.5 0.075-1.649 0.824-2.7 2.624-2.7 1.801 0 4.126 0 6.301 0.226-0.151-5.101 0.892-6.37 3.75-6.15 2.925 0.225 8.025 1.125 10.649 1.874-0.224-3.075 0.152-5.174 3.676-4.424s12.524 3.9 13.425 5.549c8.625 1.65 23.596 6.27 26.25 9.374 3.525 4.126 9.965 8.312 15.676 9.977 1.798 0.524 2.084 1.71 1.798 3.75-0.824 5.925-3.824 19.35-9.824 25.5 1.5 4.125 3.451 11.965 1.799 12.975-1.35 0.824-10.273-3.674-13.799-5.326-3.301 1.8-10.125 7.275-11.625 14.701 10.35 6.673 26.475 11.548 38.999 11.699 11.7-8.026 30.825-8.774 46.8-0.749 3.676-5.476 5.33-8.203 6.976-12.226 4.05-9.899 13.126-20.55 21.825-21.074 1.05-1.575 4.801-2.476 8.849-3.15 4.202-3.45 10.351-9.151 11.25-10.951 0.901-1.799 1.951-15.598 1.875-23.099-5.4-5.7-12.673-16.652-13.874-22.95-7.424-8.325-10.594-21.761-11.024-29.475-0.15-2.7 1.724-6.002 7.574-5.476s17.775 3.826 19.725 6c2.775-1.274 6.9-1.649 9.375-1.349 2.474-6.45 11.175-9.449 17.25-9.75 6.074-0.3 13.424 2.4 15.674 7.649 1.65 0.151 5.851 0.976 7.726 2.101 0.299-3.751 12.484-8.755 20.775-8.101 5.7 0.45 8.618 2.481 8.7 7.651 0.149 9.375-1.126 21.074-5.25 28.199 0 5.025-1.576 13.426-4.801 17.926-4.125 13.574-14.579 34.713-17.962 39.787-1.351 2.025-4.477 4.536-6.75 5.963-5.737 3.599-17.325 13.612-22.95 20.812 2.588 1.35 2.926 4.162 2.363 7.313-0.562 3.15-0.82 8.102-0.562 11.25 0.449 5.511-0.819 12.638-8.101 21.824-9.899 12.488-28.913 34.277-39.712 42.639-3.488 2.699-8.408 8.272-10.35 11.923-2.813 5.288-9.563 11.139-14.513 12.151-1.688 4.5-3.487 15.525-1.463 18.676 2.025 3.149 3.957 5.039 6.639 7.199 4.048 3.262 7.406 9.623 9 16.312 0.562 2.364 3.028 5.308 7.423 1.239 6.077-5.625 18.338-12.827 37.125-6.864l27.901 22.388c-5.063 5.513-14.776 6.263-19.574 5.062-2.702-0.674-4.163-0.225-5.288 1.8-1.125 2.026-5.289 5.176-8.212 6.188 11.587 3.825 17.916 15.989 18.673 25.088 0.114 1.349 0.565 1.874 2.026 1.799 3.318-0.168 6.863-0.45 9.731 1.462 2.868 1.913 10.576 7.426 12.375 8.608 1.8 1.18 3.372 1.412 6.413 1.293 11.532-0.449 63.618-2.25 73.293-2.25 2.475 0 4.401-0.037 6.077 2.137 3.525 4.576 12.456 16.317 14.474 19.576 0.976 1.574 0.824 2.851-1.574 3.375-10.65 2.324-59.026 9.824-67.726 10.5 14.475 3.524 71.751 13.179 82.726 14.399 2.024 0.226 4.273 0.525 5.549 3.45 1.275 2.926 8.775 17.176 9.826 19.575 1.05 2.4-0.376 3.699-2.476 3.675-13.65-0.15-80.326-2.474-89.475-3.224 14.251 7.574 86 30.132 97.35 32.625 3.076 0.674 4.2 1.875 5.025 4.724 0.826 2.85 7.2 19.575 8.325 22.725s-0.6 3.526-3.524 2.849c-16.875-3.898-115.48-29.49-124.2-33.561-5.062-2.362-11.699-6.75-17.886-13.837-2.476 1.462-19.913-6.076-28.688-13.613s-20.064-17.606-22.951-23.138c-1.35-2.587 0.256-3.065 2.701-2.287 2.475 0.788 10.65 3.561 12.6 4.462 0.599-1.199 1.801-3.3 2.775-4.651 0.975-1.349 1.965-3.8 1.049-6.449-3.449-9.974-7.649-31.724-7.649-42.525l-1.125-1.574c-9.28 4.547-23.081-3.534-29.025-12.077-1.65 1.202-4.135 3.054-5.4 3.602-2.776 1.199-17.7 1.425-20.324-0.451-2.626-1.875-6.901-5.699-8.176-7.275-3.825 0.675-4.425 7.876-4.35 10.65 0.074 2.775 0.225 7.051 1.799 8.326 4.575-2.025 7.786-1.641 9.301-0.15 4.425 4.349 13.349 13.048 14.25 15.449 0.9 2.4 1.425 10.725 0.9 13.575-0.525 2.851-3.787 12.274-5.1 14.175-2.175 3.15-10.626 11.967-13.35 13.576-1.65 0.975-2.558 0.817-2.7-0.826-0.151-1.725-0.172-3.186-0.01-5.38" fill="#595857"/>
  </g>
  <g transform="matrix(.33073 0 0 -.33073 84.59 83.004)">
   <path d="m0 0c0.249-2.58 1.027-7.879 1.831-8.934 0.804-1.053 7.49-3.938 8.655-3.689 1.166 0.25 3.579 2.525 4.3 3.552-2.663 1.692-11.485 7.212-14.786 9.071" fill="#e50021"/>
  </g>
  <g transform="matrix(.33073 0 0 -.33073 86.904 84.382)">
   <path d="m0 0c-1.262-1.818-1.01-4.446 0.708-5.406 1.718-0.959 3.941 0.152 5.203 1.718z" fill="#fff"/>
  </g>
  <g transform="matrix(.33073 0 0 -.33073 64.26 60.382)">
   <path d="m0 0c-4.436 1.58-14.844 4.625-16.443 4.912-2.243 0.403-2.816-0.746-1.092-1.953 1.723-1.206 11.319-8.044 14.019-9.652-0.459 2.183 0.883 5.687 3.516 6.693" fill="#00b8ee"/>
  </g>
  <g transform="matrix(.33073 0 0 -.33073 82.669 71.7)">
   <path d="m0 0c-0.672-2.494-1.056-3.646 0-6.906 1.055-3.262 5.355-14.718 6.287-18.048 0.526-1.874 1.051-2.476 2.776-3.601 1.724-1.125 6.524-5.849 7.574-7.273 1.051-1.426 2.1-3.602 1.426-5.551 4.049-2.55 12.75-7.65 14.7-8.324 1.949-0.676 3.45-1.951 4.575-3.526 1.125-1.576 4.648-6.525 6.299-8.775 1.726 1.65 2.926 3.075 3.301 4.2s1.65 11.25 0.974 14.325c-0.675 3.075-3.3 11.1-5.625 14.026-2.324 2.924-12.075 12.375-13.125 13.049-1.918 1.234-2.266 0.653-2.325-0.9-0.075-1.95-0.171-3.486-0.159-5.605-3.365 2.155-9.516 10.33-11.465 14.229-1.951 3.901-7.102 7.008-15.213 8.68" fill="#30363a"/>
  </g>
  <g transform="matrix(.33073 0 0 -.33073 84.699 83.066)">
   <path d="m0 0c-2.301 1.593-5.803 3.855-6.97 4.635-1.167 0.777-2.581 1.273-4.032 0.388-1.45-0.884-9.976-4.88-11.391-4.033 0.497-1.484 1.31-5.234 1.345-6.472 0.601-0.106 1.38-0.814 1.874-1.522 0.495-0.707 3.078-3.572 4.492-4.634 1-0.75 2.069-0.673 3.61 0.142 1.272 0.672 3.113 1.875 3.819 2.335 0.708 0.46 2.337 0.884 3.608 0.884 1.274 0 3.502-0.071 5.059-0.176-0.672 1.379-1.592 5.836-1.414 8.453" fill="#30363a"/>
  </g>
  <g transform="matrix(.33073 0 0 -.33073 95.166 94.339)">
   <path d="m0 0c-1.463 1.462-6.693 6.693-7.875 7.649s-2.307 1.462-3.938 1.632c-1.63 0.168-20.32 2.562-22.331 2.981-1.35 0.281-2.362-0.113-3.206-0.787-0.843-0.676-3.994-3.881-4.894-4.782 2.644-3.488 8.943-12.289 9.957-13.556 0.675-0.844 2.08-1.331 3.487-0.225 0.788 0.619 2.7 1.856 3.544 2.307 0.281 1.068 0.506 2.587 0.449 3.318 2.926-0.9 12.264-3.937 14.007-4.557 1.743-0.619 4.05-0.281 5.513 1.013s3.937 3.263 5.287 5.007" fill="#30363a"/>
  </g>
  <g transform="matrix(.33073 0 0 -.33073 66.343 88.411)">
   <path d="m0 0c-6.411 0.816-41.192 3.031-51.383 3.143-0.829-4.266-2.712-13.459-3.322-17.059 11.132 3.988 43.007 12.492 54.705 13.916" fill="#30363a"/>
  </g>
  <g transform="matrix(.33073 0 0 -.33073 67.776 95.541)">
   <path d="m0 0c-6.479-0.664-39.654-5.04-46.521-6.867 4.375-2.381 15.894-7.92 19.605-9.36 5.76 3.49 20.437 12.739 26.916 16.227" fill="#30363a"/>
  </g>
  <g transform="matrix(.33073 0 0 -.33073 74.801 99.896)">
   <path d="m0 0c-3.825 0.6-7.884 0.707-9.524 0.225-2.55-0.75-10.801-4.35-12.151-6.15-1.349-1.8-3.974-6.001-5.175-9.376-2.85-2.25-7.499-6.149-8.25-7.649-0.75-1.5-3.45-9.749-2.549-11.1 0.9-1.35 11.774-2.1 14.024-1.876 2.25 0.226 8.7 5.701 10.05 7.201s6.001 10.275 6.001 11.7-1.499 5.849-2.776 6.75c2.326 2.4 6.975 5.1 9.751 5.701-0.376 1.125-0.225 3.074 0.599 4.574" fill="#30363a"/>
  </g>
  <g transform="matrix(.33073 0 0 -.33073 78.448 107.56)">
   <path d="m0 0c1.8 6.676 8.042 18.365 10.35 18 1.425-0.225 3.6-15 3.751-19.799-2.926-1.875-7.875-5.25-9.301-8.025-1.651 4.125-3.225 6.9-4.8 9.824" fill="#30363a"/>
  </g>
  <g transform="matrix(.33073 0 0 -.33073 91.123 102.35)">
   <path d="m0 0c2.625 2.925 7.181 6.868 8.551 7.649 3.149 1.801 16.875 1.876 19.874 0.676 3-1.2 9.75-7.2 9.75-8.176 0-0.974-4.05-3.75-5.925-4.949 2.774-3 8.25-10.65 8.1-12.225-0.151-1.576-11.1-12.749-13.05-13.576-1.95-0.824-17.331 0.987-18.825 1.952-2.325 1.499-8.143 13.64-7.95 16.724 0.075 1.199 6.45 6.3 9.225 8.25-2.7 0.3-7.201 2.026-9.75 3.675" fill="#30363a"/>
  </g>
  <g transform="matrix(.33073 0 0 -.33073 85.936 123.92)">
   <path d="m0 0c-3.202 0.458-16.744 11.528-21.136 11.255-3.481-0.218-12.534-8.327-13.634-11.255 4.118-9.425 3.214-20.867 1.19-25.254-4.627-10.026 7.245-21.775 10.064-21.775 2.379 0 20.862 16.835 25.254 22.874-0.458 6.588-1.372 17.568-1.738 24.155" fill="#30363a"/>
  </g>
  <g transform="matrix(.33073 0 0 -.33073 39.147 138.44)">
   <path d="m0 0c0.491-0.771 1.544-2.314 2.597-2.807 3.015 0.282 7.925 1.194 9.33 2.036 1.402 0.841 2.033 0.631 2.033 0.07 11.131 3.535 15.535 27.578 9.683 32.48-6.173 5.17-27.42-2.633-33.183-8.066-7.367-6.945-8.629-11.156-7.438-16.067 1.195 3.228 3.93 6.595 7.016 5.824 3.087-0.773 3.859-3.509 3.298-7.086 1.964-2.175 4.911-3.564 7.155-3.648 1.895-0.07 1.824-1.193-0.491-2.736" fill="#30363a"/>
  </g>
  <g transform="matrix(.33073 0 0 -.33073 41.954 131.99)">
   <path d="m0 0c0 6.84 5.175 8.704 8.7 6.806 4.207-2.267 3.268-12.1-7.086-18.31-1.754-1.053-2.805-1.122-2.245 1.402 0.561 2.526 0.631 7.436 0.631 10.102" fill="#595857"/>
  </g>
  <g transform="matrix(.33073 0 0 -.33073 32.939 142.69)">
   <path d="m0 0c-4.898-4.668-17.525-19.439-21.352-27.628 2.678-2.066 9.107-5.969 12.399-7.576 1.989 9.337 6.504 28.852 8.953 35.204" fill="#30363a"/>
  </g>
  <g transform="matrix(.33073 0 0 -.33073 41.114 144.79)">
   <path d="m0 0c-3.902-5.51-12.934-21.889-16.453-30.307 3.98 1.532 9.336 3.368 13.775 3.98 0.766 6.505 2.143 21.505 2.678 26.327" fill="#30363a"/>
  </g>
  <g transform="matrix(.33073 0 0 -.33073 53.016 163.1)">
   <path d="m0 0c-1.35 6.107-5.85 18.322-8.1 19.157-4.787 1.779-22.324-9.13-21.728-26.036 0.522-14.857 18.91-25.023 23.978-23.399 1.606 0.514 6.171 7.071 7.265 9.836-2.122 1.157-4.518 3.063-4.95 4.693-0.837 3.149 1.413 11.441 3.535 15.749" fill="#30363a"/>
  </g>
  <g transform="matrix(.33073 0 0 -.33073 50.17 182.52)">
   <path d="m0 0c0.3 1.799 1.446 2.439 2.851 2.773 5.024 1.201 13.927 14.392 16.199 18 1.275 2.026 3.782 2.135 5.4 0.452 3.675-3.827 12.53-14.211 13.2-16.577 1.425-5.025 1.351-23.7 0.675-28.2-1.8-0.599-6.45-1.798-8.625-2.174 1.276 8.775-1.348 18.749-4.65 18.749-1.651 0-4.949-2.175-6.225-4.875-0.9 3.975-3.525 8.804-5.474 8.85-3.151 0.075-6.301-2.25-8.551-4.649-0.526 3.375-2.625 7.876-4.8 7.651" fill="#30363a"/>
  </g>
  <g transform="matrix(.33073 0 0 -.33073 72.122 176.1)">
   <path d="m0 0c1.05-5.476-1.757-10.187-6.45-14.325-8.25-7.275-9.599-17.249-8.775-24.15 1.874 0.525 4.05 1.95 5.475 3.674 2.719 3.291 11.343 8.359 15.001 9.002 1.273 0.224 2.158 1.123 2.024 3.524-0.225 4.05-3.825 18.524-7.275 22.275" fill="#30363a"/>
  </g>
  <g transform="matrix(.33073 0 0 -.33073 100.08 155.23)">
   <path d="m0 0c-3.305-1.072-13.188-25.895-12.949-29.352 0.48-6.905 13.621-29.925 18.609-31.939 4.987-2.016 25.322-3.836 28.199-2.59s14.676 24.074 14.1 28.583c-0.575 4.509-17.169 29.544-21.389 31.749-4.22 2.207-23.021 4.699-26.57 3.549" fill="#30363a"/>
  </g>
  <g transform="matrix(.33073 0 0 -.33073 110.98 186.98)">
   <path d="m0 0c-3.037-1.014-9.787-4.163-11.925-6.301-3.263-4.275-8.511-13.013-9.262-17.474 4.2 4.424 9.675 8.457 11.849 8.25 4.726-0.451 8.438-31.388 4.051-37.35 2.362-0.9 7.576-1.5 9.75-1.2 0.037 17.287 10.5 38.421 18.937 38.325 9.901-0.113 17.512-30.787 13.987-40.426 1.876 0.151 5.363 0.901 7.726 2.101 0.563 17.624 7.182 38.012 13.275 38.325 4.387 0.225 9.073-6.75 10.95-10.576-0.037 5.4-1.25 14.713-7.688 20.588-9 8.213-32.914 20.758-42.187 23.738-3.15 1.012-5.4 1.574-8.1-1.576-2.701-3.15-9.338-12.262-11.363-16.424" fill="#30363a"/>
  </g>
  <g transform="matrix(.33073 0 0 -.33073 161.32 80.21)">
   <path d="m0 0c-11.936-1.939-70.336-11.637-79.212-13.948 14.097-1.94 44.604-6.564 53.479-8.056 6.19 5.371 19.542 16.708 25.733 22.004" fill="#30363a"/>
  </g>
  <g transform="matrix(.33073 0 0 -.33073 161.87 63.781)">
   <path d="m0 0c-12.979-3.953-66.084-20.363-73.842-25.584 14.246 0.672 75.856 2.76 85.105 2.909-1.865 3.878-9.249 19.691-11.263 22.675" fill="#30363a"/>
  </g>
  <g transform="matrix(.33073 0 0 -.33073 157.15 118)">
   <path d="m0 0c0.814 1.271 0.037 2.254-1.725 1.351-5.849-3-21.875-17.015-25.799-22.576-0.9-1.275-0.226-2.175 1.649-1.724 1.875 0.449 12.992 2.56 15.301 2.849 1.199 0.151 1.703 0.834 2.175 2.026 1.724 4.349 5.999 14.324 8.399 18.074" fill="#595857"/>
  </g>
  <g transform="matrix(.33073 0 0 -.33073 98.59 157.2)">
   <path d="m0 0c2.873-12.851 14.207-35.685 22.04-35.018s23.667 10.334 26.5 14.167c1.583-2.667 4.208-7.417 3.958-9.542s-11.004-26.918-14.252-27.709-25.873 0.709-28.998 3.334-9.875 12.125-13 18.875-4.875 11.625-4.75 13.375 3.125 9.625 4.5 13.125 4.002 9.393 4.002 9.393" fill="#232528"/>
  </g>
  <g transform="matrix(.33073 0 0 -.33073 43.537 167.35)">
   <path d="m0 0c5.5-3.167 12.086-4.618 25.126-2.893 0.374-0.941 1.874-3.108 4.624-4.691-0.75-2.416-4.46-9.51-6.938-9.838-2.479-0.328-9.479 1.505-15.229 6.755s-7.583 10.667-7.583 10.667" fill="#232528"/>
  </g>
  <g transform="matrix(.33073 0 0 -.33073 88.252 143.79)">
   <path d="m0 0c15.759-15.959 22.031-25.967 31.26-40.541-3.379-6.877-8.778-20.227-8.628-23.527 0.149-3.3 8.251-20.85 15.75-30-5.101 0-14.459 7.109-18.151 15.599-4.5 10.351-10.868 20.493-17.549 27.75-8.701 9.449-14.25 27.149-2.682 50.719" fill="#3e3a39"/>
  </g>
  <g transform="matrix(.33073 0 0 -.33073 106.16 167.75)">
   <path d="m0 0c-4.358 6.424-13.59 25.736-17.556 34.001 1.493-5.331 10.239-29.004 14.381-36.423 2.018-3.612 7.492-8.092 7.841-7.858 0.731 0.488-4.204 9.599-4.666 10.28" fill="#9ca4a9"/>
  </g>
  <g transform="matrix(.33073 0 0 -.33073 78.869 121.84)">
   <path d="M 0,0 C 2.139,-3.262 2.701,-11.699 0.676,-18.787 1.014,-13.274 0.563,-3.6 0,0" fill="#9ca4a9"/>
  </g>
  <g transform="matrix(.33073 0 0 -.33073 63.931 60.425)">
   <path d="m0 0c7.199-3.206 17.846-7.453 20.756-9.956 2.812-2.419 9.603-14.448 11.099-21.938 0.208-1.032 0.938-1.406 1.764-0.6 0.343 0.336 0.74 0.689 1.237 0.937-1.668 6.582-9.038 21.713-13.369 24.413-4.331 2.701-16.875 6.357-21.487 7.144" fill="#b4b5b5"/>
  </g>
  <g transform="matrix(.33073 0 0 -.33073 67.856 64.822)">
   <path d="m0 0c-1.525 1.22-7.777 5.19-14.266 9.175-0.166-0.801-0.26-1.719-0.265-2.658 6.08-4.217 11.916-8.222 12.656-8.767 1.426-1.05 2.399-2.7 2.549-4.351 0.15-1.649 0.376-7.423 0.376-10.423s0.749-4.426 1.8-5.926c-0.526 4.2 0.149 13.125 0.45 16.801 0.195 2.396-0.301 3.75-3.3 6.149" fill="#3e3a39"/>
  </g>
  <g transform="matrix(.33073 0 0 -.33073 69.047 72.759)">
   <path d="m0 0c1.125-1.351 2.598-1.543 3.713-1.688 2.587-0.337 5.625-0.451 7.424-0.451 1.801 0 3.15-2.699 3.038-7.199-0.675 0.938-1.722 1.837-2.999 1.837-1.951 0-3.973-0.149-5.102-0.149-1.274 0-2.25 0.524-3.074 1.649s-2.25 3.376-3 6.001" fill="#3e3a39"/>
  </g>
  <g transform="matrix(.33073 0 0 -.33073 73.735 77.112)">
   <path d="m0 0c0.563-1.688 1.8-4.237 3.225-4.237 3.159 0 5.073-0.639 5.925-1.801 0.825-1.125 1.874-6.9 1.874-11.699-1.049 3.375-3.523 7.874-5.699 8.024s-4.949 2.851-5.325 9.713" fill="#3e3a39"/>
  </g>
  <g transform="matrix(.33073 0 0 -.33073 82.574 71.821)">
   <path d="m0 0c5.589-2.266 9.967-4.379 11.749-7.486 3.314-5.782 10.5-14.25 15.149-16.5l0.034 1.283c-3.222 2.517-9.528 10.492-11.025 13.793-1.963 4.329-8.306 7.954-15.907 8.91" fill="#9ca4a9"/>
  </g>
  <g transform="matrix(.33073 0 0 -.33073 91.941 77.025)">
   <path d="m0 0c1.275-3.075 4.65-6.451 6.525-8.551 1.875-2.099 4.875-5.774 5.925-7.799s3.601-8.925 3.825-10.876c0.225-1.95 0.151-15.449-1.424-19.649 1.649 1.949 3.526 3.857 4.049 4.949 0.827 1.726 1.35 11.175 0.901 14.25-0.45 3.076-3.807 11.44-5.101 13.5-2.024 3.226-10.95 12.075-14.7 14.176" fill="#9ca4a9"/>
  </g>
  <g transform="matrix(.33073 0 0 -.33073 87.469 82.877)">
   <path d="m0 0c0.818-1.412 1.922-5.33 1.358-6.375l2.004-1.326c0.847 1.638-0.878 6.515-3.362 7.701" fill="#b4b5b5"/>
  </g>
  <g transform="matrix(.33073 0 0 -.33073 81.489 86.678)">
   <path d="m0 0c3.217 1.275 7.119 1.021 8.672 0.686 0.672-0.147 1.182-0.422 1.576-0.704 0.393-0.281 1.068-0.759 1.462-0.927 0.366-0.159 0.572-0.512 0.226-1.239-0.62-1.293-2.702-5.849-4.332-8.718l1.8-0.282c1.799 2.87 4.612 8.551 5.793 10.969-1.631 0.732-3.937 1.801-4.218 2.7-1.745 0.226-6.075 0.507-7.313-0.112-1.237-0.619-2.493-1.428-3.666-2.373" fill="#b4b5b5"/>
  </g>
  <g transform="matrix(.33073 0 0 -.33073 77.456 83.209)">
   <path d="m0 0c1.174-0.304 2.696 0 3.828 0.436 1.131 0.435 6.349 2.304 7.349 2.74 1.001 0.434 1.913 0.174 2.653-0.349 0.738-0.521 6.74-4.522 8.176-5.479l-0.262 3.304c-2.348 1.61-6.435 4.088-7.262 4.611-0.826 0.522-1.914 1-3.61 0.217s-9.22-4.61-11.393-4.001z" fill="#9ca4a9"/>
  </g>
  <g transform="matrix(.33073 0 0 -.33073 73.78 90.725)">
   <path d="m0 0c1.457-1.342 6.198-4.626 8.096-5.343l-0.672-3.216c-1.919 1.574-8.026 7.008-7.424 8.559" fill="#3e3a39"/>
  </g>
  <g transform="matrix(.33073 0 0 -.33073 86.962 94.789)">
   <path d="m0 0c0.08-0.711-0.049-2.423-0.307-3.246 1.098 0.484 3.733 1.356 5.332 1.566-1.664 0.517-3.57 1.276-5.025 1.68" fill="#3e3a39"/>
  </g>
  <g transform="matrix(.33073 0 0 -.33073 79.465 114.41)">
   <path d="m 0,0 c 0.825,4.725 2.115,8.325 3.301,9.825 2.549,3.226 12.26,9.933 17.549,12.15 2.325,0.974 5.026,2.7 3.6,7.05 C 24.3,27.15 23.521,25.17 21.6,24.375 15.975,22.05 3.381,14.13 1.649,11.1 0.15,8.475 -0.074,3.6 0,0" fill="#b4b5b5"/>
  </g>
  <g transform="matrix(.33073 0 0 -.33073 88.966 103.87)">
   <path d="m0 0c1.758 0.539 3.821 1.494 5.452 2.525 0.461 0.293 0.816 0.262 1.275 0 1.781-1.011 4.893-2.211 7.382-2.921l1.987 1.204c-2.109 0.481-8.128 2.95-8.73 3.432-0.603 0.481-1.685 0.662-2.287 0.06-0.602-0.603-3.754-3.277-5.079-4.3" fill="#b4b5b5"/>
  </g>
  <g transform="matrix(.33073 0 0 -.33073 81.906 101.56)">
   <path d="m0 0c-2.206-4.6-5.632-16.24-5.726-27.365-0.892 1.783-3.99 8.261-4.6 9.201 0.985 4.412 6.524 16.381 10.326 18.164" fill="#9ca4a9"/>
  </g>
  <g transform="matrix(.33073 0 0 -.33073 68.749 95.195)">
   <path d="m0 0c-8.213-5.738-34.194-22.045-36.844-24.693-0.582-0.584-0.496-0.981 0-1.407 0.395-0.338 6.307-5.107 7.369-5.681 1.35-0.732 3.151-0.732 4.557-0.338-2.569-1.781-4.52-2.682-6.845-1.106-2.325 1.575-5.848 4.537-7.462 5.962-1.613 1.425-1.541 2.693-0.262 3.562 6.975 4.744 30.656 20.045 39.487 23.701" fill="#595857"/>
  </g>
  <g transform="matrix(.33073 0 0 -.33073 65.988 104.77)">
   <path d="m0 0c2.637 3.381 4.867 6.287 6.489 7.571 1.147 0.908 9.532 5.273 11.289 5.408 1.758 0.136 5.342 0.136 8.182-0.27 0.134 0.608 0.473 1.556 0.743 2.028-2.231 0.474-7.088 0.607-9.329 0.271-2.705-0.406-10.275-4.057-12.169-5.815-1.893-1.756-4.326-6.489-5.205-9.193" fill="#9ca4a9"/>
  </g>
  <g transform="matrix(.33073 0 0 -.33073 74.948 99.848)">
   <path d="m0 0c-1.702-2.156-1.873-6.128 1.134-7.604 0.17 2.724 0.114 5.504 0.285 7.321z" fill="#3e3a39"/>
  </g>
  <g transform="matrix(.33073 0 0 -.33073 62.41 111.27)">
   <path d="m0 0c1.168 3.496 3.764 8.993 4.618 10.097 1.349 1.741 9.601 8.849 11.55 9.749 2.372 1.095 8.101 2.626 9.557 2.115 0.838-0.294 2.752-2.023 3.762-4.662-0.224 2.696-1.43 5.962-2.527 6.628-1.573 0.955-8.819-0.618-11.626-1.854-2.81-1.235-12.189-8.987-13.144-10.672-0.954-1.684-2.528-9.829-2.19-11.401" fill="#9ca4a9"/>
  </g>
  <g transform="matrix(.33073 0 0 -.33073 91.403 102.47)">
   <path d="m0 0c3.279 2.974 7.68 6.129 9.279 6.574 2.7 0.749 16.2 0.899 18.075 0.074s7.65-5.25 9.826-7.049c1.564 0.782-7.62 8.421-9.225 8.924-3.826 1.201-16.576 1.125-19.651-0.224-3.075-1.351-9.525-7.575-8.304-8.299" fill="#9ca4a9"/>
  </g>
  <g transform="matrix(.33073 0 0 -.33073 92.189 106.39)">
   <path d="m0 0c7.05 1.5 25.426 0.15 34.2-3.712 0.999-0.44 0.999-1.173-0.524-0.862-8.1 1.65-25.426 3.599-33.451 3.75-1.125 0.02-1.204 0.616-0.225 0.824" fill="#9ca4a9"/>
  </g>
  <g transform="matrix(.33073 0 0 -.33073 73.468 111.31)">
   <path d="m0 0c0.309 3.606 1.031 9.997 1.649 10.718 0.619 0.721 5.771 3.607 6.802 3.504s3.608-2.061 4.432-3.195c0.824-1.133 4.74-7.524 5.978-10.924l0.825 1.031c-1.547 3.607-3.533 8.887-4.78 10.502-1.275 1.65-5.115 5.369-6.351 5.369-1.238 0-7.318-2.988-8.657-4.328-0.414-2.989-0.31-8.451 0.102-12.677" fill="#b4b5b5"/>
  </g>
  <g transform="matrix(.33073 0 0 -.33073 91.396 121.72)">
   <path d="m0 0c-2.026-3.92-9.977-9.17-12.301-9.845-0.974-0.283-1.426-0.719-1.426-1.501 0-0.779 0.448-4.381 0.526-5.474 0.078-1.092 0.874-1.639 1.65-1.725 2.108-0.234 8.586-1.437 14.128-2.062-5.429-0.188-15.253-0.188-18.253-0.413-0.224 4.2-0.75 11.025-1.125 14.55 3.375-1.501 10.354-0.26 16.801 6.47" fill="#b4b5b5"/>
  </g>
  <g transform="matrix(.33073 0 0 -.33073 91.421 107.09)">
   <path d="m0 0c-2.035 0.291-3.055 0.207-3.614-1.044-1.712-3.831-3.812-10.356-4.796-14.024-0.199-0.743 0.045-1.479 0.971-1.883 2.368-1.032 8.136-4.979 9.896-9.472-2.246 3.036-7.39 5.829-12.081 7.589-0.972 0.365-2.06 1.386-1.883 2.672 0.425 3.098 4.474 14.185 6.376 17.607 0.608 1.094 1.82 1.641 4.613 0.912 0.061-0.546 0.245-1.739 0.518-2.357" fill="#b4b5b5"/>
  </g>
  <g transform="matrix(.33073 0 0 -.33073 109.42 79.981)">
   <path d="m0 0c-0.778 0.486-0.472 1.551 0.681 2.919 8.286 9.841 33.036 31.066 48.71 35.267-0.899 2.549-18.223-4.624-29.774-13.952-10.125-8.173-19.004-17.806-21.974-22.048-1.051-1.5-0.761-3.62 2.357-2.186" fill="#b4b5b5"/>
  </g>
  <g transform="matrix(.33073 0 0 -.33073 113.89 78.96)">
   <path d="m0 0c18.451 5.101 33.883 20.05 37.875 32.025 0.338 1.013 0.557 1.693 1.35 2.587 4.388 4.951 10.64 10.102 15.826 11.739 19.5 6.15 102.75 29.324 120.07 32.924 1.302 0.271 2.025-0.225 1.575-1.799-1.772-6.205-5.314-16.512-6.899-20.475-0.6-1.5-2.699-4.352-5.699-5.251 4.498 0.601 7.705 1.923 8.998 5.399 2.4 6.452 6.75 19.314 7.988 22.577 1.237 3.261 0.632 4.076-3.375 3.261-13.838-2.812-111.74-28.029-124.31-33.337-4.799-2.025-13.649-8.775-17.699-14.174-4.428-14.575-24.644-30.492-36.3-34.276z" fill="#b4b5b5"/>
  </g>
  <g transform="matrix(.33073 0 0 -.33073 136.99 72.387)">
   <path d="m0 0c11.476-0.451 69.501 0.111 85.726 0.111 1.349 0 2.066-0.695 1.574-1.912-2.137-5.287-5.512-12.375-8.213-17.437-0.836-1.571-2.699-3.488-4.837-4.05 4.274-0.112 7.153 0.811 8.212 2.812 3.038 5.738 9.226 17.438 10.125 19.8 0.9 2.364 1.689 4.162-3.262 4.162-8.325 0-65.588-1.687-89.325-3.486" fill="#b4b5b5"/>
  </g>
  <g transform="matrix(.33073 0 0 -.33073 150.16 96.571)">
   <path d="m0 0c-15.899 1.799-64.463 6.188-72.9 7.313-5.816 0.775-9.055-0.042-11.026-2.813-3.599-5.063-9.562-8.438-14.924-8.551-3.453-0.072-6.15-1.949-6.9-3.75-2.25-0.3-5.101 0.901-5.4 3.449l-3.038-2.961c0.338-1.35 3.375-4.275 4.725-4.613s3.15-0.787 4.838-0.449c-0.975-8.025-24.075-19.125-39.375-13.051 2.101-2.325 4.65-6.525 5.701-8.625 6.899 1.2 14.85 0.6 19.199-1.949 11.16 3.416 18.637 16.758 18.637 24.75 0 1.462 1.125 2.125 2.7 2.024 5.288-0.337 8.734 0.837 9.788 1.688 3.487 2.812 9.45 7.087 11.475 8.212s4.365 1.701 6.637 1.576c12.263-0.676 48.6-1.687 69.863-2.25" fill="#3e3a39"/>
  </g>
  <g transform="matrix(.33073 0 0 -.33073 91.669 133.07)">
   <path d="m0 0c-1.879-4.848-2.719-9.117-2.926-14.287-0.338-8.438-1.125-12.412-5.175-19.35-2.782-4.765-7.799-15.601-8.212-29.138-0.9 9.9 1.799 23.062 5.174 29.812s5.625 13.5 5.851 18.676c0.225 5.175 3.263 13.162 5.288 14.287" fill="#b4b5b5"/>
  </g>
  <g transform="matrix(.33073 0 0 -.33073 111.24 176.42)">
   <path d="m0 0c3.867-6.635 6.662-11.854 9-16.425-3.549-5.215-7.742-11.365-10.445-15.652-2.983-1.212-8.854-4.288-11.463-6.431 1.117 1.211 3.355 4.008 4.66 5.219 0 5.312-0.746 21.809-2.145 23.672-1.398 1.864-8.295 8.947-11.65 11.183 5.033-1.118 18.457-2.107 22.043-1.566" fill="#3e3a39"/>
  </g>
  <g transform="matrix(.33073 0 0 -.33073 70.795 144.94)">
   <path d="m0 0c-4.387-30.45 27.713-46.65 48.694-35.631 0.919-3.182 2.831-6.782 5.194-9.595 2.362-2.812 7.649-9.112 9.45-12.149-10.575-6.188-33.975-10.125-49.95 2.25-15.976 12.375-20.925 28.012-13.388 55.125" fill="#3e3a39"/>
  </g>
  <g transform="matrix(.33073 0 0 -.33073 72.222 160.27)">
   <path d="m0 0c-9.807-2.004-28.926-11.719-38.273-22.718-1.968-2.315-5.073-3.929-7.754-4.282-4.397-0.579-10.878 0.578-15.854 3.471 0.347-4.05 11.57-8.935 16.317-9.142 2.662-0.115 5.576-0.027 8.1 2.547 11.571 11.803 33.56 19.904 49.645 19.788-5.207 2.546-9.317 6.554-12.181 10.336" fill="#3e3a39"/>
  </g>
  <g transform="matrix(.33073 0 0 -.33073 60.911 178.4)">
   <path d="m0 0c10.574 2.176 19.35 9.225 22.874 15.824-6.825 2.475-14.774 11.926-15.075 17.1-2.475-1.424-8.475-5.475-10.35-7.499-1.875-2.025-5.554-3.841-8.814-3.271-3.26 0.571-8.811 2.221-10.91 3.571-1.651-2.926-4.651-7.801-6.901-9.676 1.801-1.424 6.75-3.75 9.225-4.425 0.225-2.774 0.525-7.875 0.525-11.7 2.176 3.001 4.351 6 5.625 8.1 1.276 2.101 3.901 3.3 5.776 1.125 1.875-2.174 5.25-5.624 8.025-9.149" fill="#3e3a39"/>
  </g>
  <g transform="matrix(.33073 0 0 -.33073 52.824 163.28)">
   <path d="m0 0c-2.699 7.875-6.524 15.188-9.111 15.637-5.741 0.999-14.075-9.67-14.176-19.125-0.112-10.5 6.412-21.938 17.551-25.875-15.301 1.8-24.077 14.85-23.625 25.65 0.55 13.223 15.179 24.435 21.486 23.287 2.476-0.449 7.875-12.375 7.875-19.574" fill="#9ca4a9"/>
  </g>
  <g transform="matrix(.33073 0 0 -.33073 46.685 188.53)">
   <path d="m0 0c0.539-1.889 6.469-1.743 9.467-0.447-0.267-1.269-0.601-2.536-0.668-3.739-1.935-0.334-5.613-0.538-6.873-0.4-1.813 0.199-2.326 1.05-1.926 4.586" fill="#3e3a39"/>
  </g>
  <g transform="matrix(.33073 0 0 -.33073 49.532 190.43)">
   <path d="m0 0c1.122-2.363 11.138-0.584 15.409 1.352-0.468-1.203-0.867-3.071-0.934-4.139-3.871-1.335-10.079-1.953-11.613-2.002-2.135-0.066-2.997 1.985-2.862 4.789" fill="#3e3a39"/>
  </g>
  <g transform="matrix(.33073 0 0 -.33073 54.518 190.8)">
   <path d="m0 0c-0.226-2.481 1.597-3.174 3.604-2.801 3.604 0.668 10.411 3.404 13.215 6.205 0.267-1.869 0.127-4.129-1.336-5.006-3.67-2.201-10.1-3.988-12.947-4.403-2.736-0.399-4.338 1.198-2.536 6.005" fill="#3e3a39"/>
  </g>
  <g transform="matrix(.33073 0 0 -.33073 63.013 188.63)">
   <path d="m0 0c2.474 0.239 9.494 2.233 12.127 3.83-0.078-1.037 0.08-3.031 0.32-4.309-2.793-1.436-9.973-4.069-13.086-4.547z" fill="#3e3a39"/>
  </g>
  <g transform="matrix(.33073 0 0 -.33073 71.794 170.59)">
   <path d="m0 0c-0.514-3.847-2.104-8.207-4.412-11.182l2.412-1.95c1.281 3.232 3.795 12.107 2 13.132" fill="#3e3a39"/>
  </g>
  <g transform="matrix(.33073 0 0 -.33073 100.49 203.1)">
   <path d="m0 0c0.192-4.247 2.945-6.134 7.36-5.688 3.137 0.318 12.098 2.385 15.715 4.507 3.012 1.768 4.533 4.414 5.426 7.315-0.079-4.326-0.393-8.572-2.201-10.459-1.809-1.887-15.567-5.683-19.502-5.74-5.426-0.079-8.642 1.652-6.798 10.065" fill="#3e3a39"/>
  </g>
  <g transform="matrix(.33073 0 0 -.33073 112.67 202.74)">
   <path d="m0 0c0.786-4.796 6.839-10.347 15.962-10.615 8.021-0.236 15.726 3.932 17.142 8.807 0.596-7.371-3.818-14.778-16.905-14.233-9.436 0.394-19.581 5.188-16.199 16.041" fill="#3e3a39"/>
  </g>
  <g transform="matrix(.33073 0 0 -.33073 126.05 202.88)">
   <path d="m0 0c1.801-4.574 12.451-7.949 18.15-8.1 5.7-0.15 9.601 1.95 10.801 6.45 0.516-6.198 0.731-10.883-7.801-12.151-8.325-1.236-18.074 2.177-20.025 5.176-1.95 3-1.35 5.625-1.125 8.625" fill="#3e3a39"/>
  </g>
  <g transform="matrix(.33073 0 0 -.33073 66.433 117.28)">
   <path d="m0 0c-1.348-5.252-11.148-16.304-18.723-16.702-2.558-0.134-7.084-1.931-8.89-3.637-0.795-0.753-2.309-1.548-3.343-1.548s-3.501 1.432-3.899 2.387c-0.956-1.034-1.991-1.909-3.026-2.625 1.99-0.24 4.379-1.752 5.412-3.582-2.854-7.543-15.013-19.703-25.629-25.843-1.077-3.962-4.07-9.761-10.338-13.128-1.511-3.072-4.577-7.97-7.662-9.072-6.299-2.25-12.824 0.676-13.125 6.826-1.875-0.451-4.575-0.676-6.674-0.076-4.876-3.9-12.483-32.275-15.001-50.549-0.299-2.176-0.114-3.644 1.875-4.126 2.475-0.599 7.951-1.125 9.45-1.125 1.501 0 3.196 0.089 3.751 2.175 2.175 8.175 15.149 32.1 19.125 37.2-0.676-9.225-2.323-24.317-3.076-29.774-0.299-2.176 0.3-3.451 2.101-3.451 1.799 0 6.449 1e-3 8.174 0.525 1.726 0.525 3.109 1.78 3.825 3.9 4.125 12.225 11.294 37.331 12.526 41.026 0.899 2.699 2.7 5.7 5.099 8.099 5.55 5.55 17.847 21.2 19.5 30.3 0.675 3.714 4.275 10.801 11.587 11.589 7.313 0.787 21.713 7.087 25.875 15.861-0.487 1.726-1.387 6.451-1.462 8.475-1.5-1.874-4.405-3.325-7.452-3.125" fill="#3e3a39"/>
  </g>
  <g transform="matrix(.33073 0 0 -.33073 61.209 126.31)">
   <path d="m0 0c-3.901-3.3-10.275-8.175-13.801-9.6-0.599-1.724-1.724-4.199-2.551-5.4 3.977 1.875 14.551 10.199 16.352 15" fill="#3e3a39"/>
  </g>
  <g transform="matrix(.33073 0 0 -.33073 53.052 121.28)">
   <path d="m0 0c-9.537-1.607-55.531-25.911-65.25-32.465-7.438-5.014-31.887-48.812-34.607-61.07-0.311-1.396-0.42-2.528 1.178-3.751 1.822-1.394 6.429-4.179 7.501-4.821 1.071-0.644 2.57-0.643 3.535 0.321-0.644-2.464-2.036-3.858-4.393-2.571-2.357 1.285-7.714 4.5-8.893 5.785-1.178 1.286-2.546 2.637-1.714 5.678 5.356 19.609 30 57.643 34.821 62.679 4.822 5.036 49.849 25.746 57.107 28.606 3.535 1.392 7.393 2.04 10.715 1.609" fill="#b4b5b5"/>
  </g>
  <g transform="matrix(.33073 0 0 -.33073 61.28 126.33)">
   <path d="m0 0c-2.932-0.831-10.135-3.624-13.229-6.165 0.462 1.178 0.879 2.956 1.086 3.486 3.163 1.225 10.62 3.742 12.143 2.679" fill="#595857"/>
  </g>
  <g transform="matrix(.33073 0 0 -.33073 42.031 131.19)">
   <path d="m0 0c0.943-4.028 1.511-6.921 1.697-9.227 0.106-1.292 0.908-1.046 1.463-0.657 2.138 1.501 5.401 4.144 7.088 7.351-0.787-4.875-6.116-9.928-9.525-11.7-0.938-0.488-2.025-0.564-1.763 1.087 0.263 1.65 1.152 10.052 1.04 13.146" fill="#3e3a39"/>
  </g>
  <g transform="matrix(.33073 0 0 -.33073 33.46 136.02)">
   <path d="m0 0c0.183-6.667 9.133-8.768 18.904-5.662-2.923-4.11-13.629-6.697-18.174-3.289-1.46 1.097-2.375 4.293-0.73 8.951" fill="#3e3a39"/>
  </g>
  <g transform="matrix(.33073 0 0 -.33073 37.749 139.19)">
   <path d="m0 0c1.096-3.652 10.868-7.764 18.265 1.278-2.008-5.479-8.036-9.772-13.059-9.499-5.023 0.276-7.361 3.707-7.699 7.563z" fill="#3e3a39"/>
  </g>
  <g transform="matrix(.33073 0 0 -.33073 92.127 128.91)">
   <path d="m0 0c-6.452-0.646-12.619-1.004-13.694-1.506-1.076-0.502-1.411-1.08-1.29-1.864 2.498-16.302-1.839-31.052-7.891-37.901-1.986-2.25-3.075-4.238-3.375-6.637-0.299-2.401-1.986-15.413-1.838-23.963-0.861 7.425-0.187 22.5 0.264 25.312 0.449 2.813 1.844 5.143 3.149 6.975 5.288 7.426 9.071 20.841 7.763 28.688-0.563 3.375-0.824 9.749-0.975 11.625 3.337 0.075 11.848 0.041 17.887-0.729" fill="#b4b5b5"/>
  </g>
  <g transform="matrix(.33073 0 0 -.33073 86.436 132.62)">
   <path d="m0 0c-1.653-4.401-16.727-18.792-21.453-21.877-1.111-0.726-1.701-1.583-1.969-2.62-2.945-11.432-5.642-28.699-5.605-47.179-3.151 8.099 0.599 38.402 3.824 51.001 1.875 0.373 18.676 14.024 25.2 22.799z" fill="#b4b5b5"/>
  </g>
  <g transform="matrix(.33073 0 0 -.33073 78.051 139.64)">
   <path d="m0 0c-3.666 0.916-8.943 5.793-10.625 8.985-0.486 0.925-1.079 0.701-0.916-0.083 0.416-2 0.756-6.835 0.5-9.834-0.25-2.917-1.417-7.917-2.5-10.833-1.084-2.917-6.033-20.317-6.033-27.217-0.788 10.238 3.428 27.582 4.949 32.4 0.676 2.138 1.463 7.65 0.562 12.6-0.9 4.951 0.676 11.138 3.263 13.837-1.575-5.4 3.025-13.906 10.8-19.855" fill="#b4b5b5"/>
  </g>
  <g transform="matrix(.33073 0 0 -.33073 68.931 115.81)">
   <path d="m0 0c0.996-8.342 7.883-17.525 12.628-21.43 1.007-0.828 2.13-0.91 3.061 0 3.368 3.291 9.26 7.424 13.47 8.418-4.593-3.06-10.791-8.341-12.016-10.254-1.223-1.914-2.449-2.985-4.897-0.996-2.449 1.991-9.883 11.752-10.639 14.082-0.918 2.832-2.065 7.424-1.607 10.18" fill="#3e3a39"/>
  </g>
  <g transform="matrix(.33073 0 0 -.33073 157.24 117.5)">
   <path d="m0 0c-6.486-4.381-21.047-18.684-24.828-24.053-3.565-1.332-4.099 0.048-2.619 1.932 3.607 4.596 23.753 24.012 27.447 22.121" fill="#b4b5b5"/>
  </g>
  <g transform="matrix(.33073 0 0 -.33073 69.711 152.98)">
   <path d="m0 0c-6.188-6.074-28.888-18.729-35.775-22.387-3.6-1.913-9.659-6.285-11.137-8.1-2.475-3.038-6.638-10.8-7.2-14.4 0.45 5.4 2.7 13.725 4.612 15.975s8.381 7.088 12.488 9.224c8.212 4.276 31.949 17.663 36.9 23.85 0.112-1.799 0.112-2.812 0.112-4.162" fill="#b4b5b5"/>
  </g>
  <g transform="matrix(.33073 0 0 -.33073 97.319 116.78)">
   <path d="m0 0c4.695 0.919 8.609 0.323 10.658-1.444 11.648-10.051 28.287-7.444 37.227-0.752 0.063 0.596 0.093 1.142 0.055 1.576-0.299 3.525 1.275 9.525 5.625 10.764-4.836-0.114-8.549-5.232-9.225-9.114-0.196-1.13-0.752-1.793-1.649-2.175-7.05-2.999-24.314-3.61-30.375 2.175-3.3 3.151-7.276 3.375-10.726 2.026-3.449-1.35-8.268-3.488-9.844-4.05-1.574-0.563-3.262-0.563-4.892 0.788 1.011-1.295 2.305-3.094 2.868-4.219 0.827 1.125 7.786 3.938 10.278 4.425" fill="#3e3a39"/>
  </g>
  <g transform="matrix(.33073 0 0 -.33073 96.183 119.44)">
   <path d="m0 0c-0.9-3.75-2.319-6.427-4.275-8.176-4.951-4.426-8.25-10.125-8.176-14.775 2.025 3.15 6.45 9.301 9.375 10.876 2.926 1.575 7.101 11.868 7.801 15.45 0.745 3.819 5.513 3.023 7.65 1.124 10.799-9.601 23.324-11.175 37.275-6.3 0.647 2.415 1.438 5.464 1.668 7.649-8.939-6.692-25.579-9.299-37.226 0.752-2.049 1.767-5.963 2.363-10.658 1.444-2.493-0.487-9.452-3.3-10.279-4.425 3.32 2.381 7.609-0.433 6.845-3.619" fill="#3e3a39"/>
  </g>
  <g transform="matrix(.33073 0 0 -.33073 109.96 202.1)">
   <path d="m0 0c1-0.917 3.999-2.583 7.833-2.583v-5.75c-2.416-0.084-7 0-9.75 1.083 0.75 1.75 1.917 7.25 1.917 7.25" fill="#232528"/>
  </g>
  <g transform="matrix(.33073 0 0 -.33073 123.74 203.73)">
   <path d="m0 0c1-0.5 4.668-0.166 6.834 1.084l-0.167-4.75c-2.75-1-5.501-1.667-7.667-1.667z" fill="#232528"/>
  </g>
  <g transform="matrix(.33073 0 0 -.33073 62.912 188.67)">
   <path d="m0 0c-2.063-0.25-6.125-1.625-8.063-2.063l-0.687-4.875c3 0.313 8.418 2.024 8.418 2.024z" fill="#232528"/>
  </g>
  <g transform="matrix(.33073 0 0 -.33073 67.129 187.39)">
   <path d="m0 0c1.5 0.625 3.958 5.208 7.833 7.333s14.584 6.917 14.584 6.917 0.333-4.625-0.542-5.125-5.937-2.437-7.625-3.25c-1.687-0.812-5.375-3.062-6.812-4.5-1.438-1.438-2.625-3.063-3.75-3.813s-3.684-1.803-3.684-1.803z" fill="#232528"/>
  </g>
  <g transform="matrix(.33073 0 0 -.33073 91.62 96.622)">
   <path d="m0 0c-4.392 1.613-13.916 4.819-17.674 6.078-1.543 0.517-1.259 1.381 0.315 0.97 4.23-1.104 12.105-3.522 17.777-5.477 1.168-0.402 2.846-0.535 4.786 1.032 3.513 2.832 13.181 13.447 13.784 14.925 0.942 2.302 1.218 11.739 0.873 14.264-0.326 2.396-3.41 10.416-4.949 12.908-2.242 3.631-10.488 11.487-13.342 13.426-0.822 0.559-1.148 0.67-1.237-0.563-0.177-2.496-0.412-9.318-0.276-12.562 0.07-1.688-0.937-1.688-1.021 0-0.184 3.693-0.145 10.469 0.035 13.002 0.195 2.719 1.093 2.682 3.118 1.304 2.892-1.966 11.716-9.929 14.1-13.79 1.621-2.625 4.774-11.103 5.119-13.641 0.332-2.434 0.199-12.395-0.893-15.065-0.714-1.748-11.023-12.74-14.427-15.486-2.148-1.731-4.489-1.912-6.088-1.325" fill="#0f141b"/>
  </g>
  <g transform="matrix(.33073 0 0 -.33073 96.478 92.869)">
   <path d="m0 0c1.462 3.037 2.175 10.141 1.94 19.293-0.066 2.613-2.337 8.123-3.191 10.463-1.285 3.517-5.129 8.039-7.299 10.125-2.936 2.824-4.812 5.438-5.836 7.664l1.196 0.184c0.999-2.04 2.732-4.339 5.453-6.956 2.234-2.147 6.31-6.792 7.702-10.469 0.944-2.497 3.263-8.362 3.325-10.856 0.225-8.71-0.311-14.555-1.561-17.844z" fill="#0f141b"/>
  </g>
  <g transform="matrix(.33073 0 0 -.33073 95.245 86.399)">
   <path d="m0 0c-1.151 1.355-0.443 1.934 0.787 0.648 1.984-2.072 3.953-4.631 5.527-7.05 1.125 2.756 2.166 4.754 3.385 6.768l0.098-1.923c-0.902-1.765-1.822-3.888-2.85-6.434-0.258-0.641-0.799-0.657-1.138-0.015-1.266 2.391-3.741 5.569-5.809 8.006" fill="#0f141b"/>
  </g>
  <g transform="matrix(.33073 0 0 -.33073 96.904 92.38)">
   <path d="m0 0c-1.463 2.161-6.242 8.991-7.464 10.214-0.772 0.772-1.619 1.326-2.599 1.723-7.029 2.84-28.986 16.562-34.664 20.345-1.168 0.778-1.615 0.816-2.658 0.295-2.703-1.351-7.924-3.553-9.877-4.139-1.904-0.572-2.94 0.385-3.299 1.187-0.546 1.22-1.668 3.983-2.168 4.653-0.623 0.832-1.072 1.361-2.615 1.651-2.383 0.446-3.964 2.565-4.597 5.1-0.815 3.257-1.265 5.677-1.489 8.59-0.07 0.905-0.51 1.393-1.248 1.381-1.017-0.017-5.081-0.081-5.707-0.081-1.4 0-2.414 0.164-3.201 1.342-0.865 1.294-4.781 7.504-5.301 8.541-0.4 0.801-0.984 2.373-0.984 3.712 0 1.129-0.375 10.27-0.496 12.59-0.071 1.324-0.343 1.983-1.387 2.727-2.252 1.603-23.796 17.063-27.23 19.394-2.665 1.809-1.595 3.899 2.054 3.056 7.575-1.749 34.313-10.041 37.319-12.294 5.143-3.859 11.682-17.312 13.534-24.447l-1.421-0.815c-1.58 5.869-8.222 20.254-13.115 23.926-2.543 1.907-27.155 9.643-36.722 12.336-1.282 0.362-1.45-0.081-0.713-0.582 3.445-2.338 25.292-17.616 27.544-19.218 1.608-1.145 2.055-2.183 2.148-3.946 0.122-2.327 0.286-11.465 0.286-12.601 0-1.14 0.646-2.319 0.998-3.024 0.498-0.994 3.822-6.903 4.682-8.158 0.527-0.77 0.757-0.906 2.038-0.906 0.624 0 5.254 0.032 5.74 0.032 1.476 0 2.546-1.021 2.683-2.813 0.219-2.84 0.709-4.905 1.534-8.208 0.643-2.564 1.779-3.921 3.497-4.244 1.785-0.335 2.428-1.054 3.207-2.095 0.531-0.71 2.038-3.903 2.39-4.858 0.264-0.707 0.795-0.773 1.707-0.5 1.908 0.572 7.062 2.797 9.731 4.132 1.347 0.673 2.484 0.653 3.994-0.352 5.657-3.77 27.328-17.504 34.291-20.319 1.457-0.59 2.286-1.14 3.322-2.176 1.285-1.286 5.668-7.785 7.253-10.124z" fill="#0f141b"/>
  </g>
  <g transform="matrix(.33073 0 0 -.33073 62.86 62.534)">
   <path d="m0 0c-0.696 3.025 1.23 5.945 3.472 6.703l2.201-0.795c-2.932-0.065-5.166-3.865-3.996-6.756z" fill="#0f141b"/>
  </g>
  <g transform="matrix(.33073 0 0 -.33073 91.487 79.601)">
   <path d="m0 0c-4.132 2.463-10.389 11.521-12.629 15.511-1.377 2.455-4.142 4.418-7.973 5.723-1.213 0.413-14.645 4.455-17.55 5.583-3.525 1.369-7.35 0.694-10.505-1.073-1.482-0.83-1.916-0.228-0.589 0.833 3.182 2.547 7.906 3.184 11.713 1.604 2.835-1.176 16.203-5.035 17.437-5.455 2.389-0.815 6.836-2.813 8.888-6.469 2.573-4.584 7.599-12.107 11.18-14.695z" fill="#0f141b"/>
  </g>
  <g transform="matrix(.33073 0 0 -.33073 82.933 71.754)">
   <path d="m0 0c-1.122-2.032-1.08-4.696 0.161-8.058 0.311-0.838 5.421-14.119 6.056-16.66 0.361-1.447 0.808-2.109 1.575-2.562 3.124-1.843 6.69-5.736 8.589-7.897 2.18-2.48 1.89-4.875 1.502-6.525l-1.326 0.619c0.232 0.988 0.668 2.529-1.457 4.949-1.86 2.115-5.352 5.905-8.354 7.676-1.129 0.666-1.501 1.6-1.958 3.432-0.62 2.48-5.612 15.73-5.923 16.572-1.305 3.532-1.339 6.504-0.191 8.777z" fill="#0f141b"/>
  </g>
  <g transform="matrix(.33073 0 0 -.33073 89.678 86.102)">
   <path d="m0 0c-2.043-2.316-3.599-3.624-4.612-3.854-1.8-0.408-9.34 2.543-9.985 4.571-0.414 1.301-1.26 6.197-1.336 8.916l1.266-0.676c0.161-2.721 1.058-6.697 1.392-7.748 0.418-1.313 6.785-4.179 8.367-3.769 0.446 0.117 1.775 0.798 3.896 3.208z" fill="#0f141b"/>
  </g>
  <g transform="matrix(.33073 0 0 -.33073 70.056 81.326)">
   <path d="m0 0c-4.291 1.322-4.611 4.057 0.451 4.881 2.314 0.377 8.51 0.881 12.473 0.857l0.676-1.269c-3e-3 0 0.031-0.321 0.027-0.321-3.85 0.076-10.647-0.23-13.035-0.618-2.642-0.429-3.011-1.227-0.071-2.137 4.98-1.543 16.485-4.942 18.619-5.696 0.76-0.269 1.617-0.042 2.081 0.76l0.816-1.477c-0.781-0.822-2.215-1.182-3.334-0.787-2.115 0.746-13.726 4.275-18.703 5.807" fill="#0f141b"/>
  </g>
  <g transform="matrix(.33073 0 0 -.33073 75.167 99.958)">
   <path d="m0 0c-1.828-1.996-0.787-5.597-0.07-6.194-0.082 5.247 0.504 18.065 1.793 22.616 1 3.523 1.343 5.125 1.711 7.549 0.454 2.997 2.382 16.123 2.894 20.58 0.232 2.022 1.772 2.418 3.305 0.533 1.055-1.299 2.517-2.953 4.402-4.584 0.965-0.836 1.656-0.961 2.475-0.633 1.533 0.613 3.482 1.826 4.711 2.615 1.037 0.668 2.289 0.862 3.698 0.929 1.181 0.056 2.995 0.028 5.048-0.253l0.619-1.476c-2.334 0.408-4.592 0.492-5.652 0.492-1.231 0-2.236-0.326-3.123-0.887-1.215-0.767-3.243-2.12-4.866-2.769-1.322-0.53-2.493-0.237-3.824 1.011-2.403 2.252-3.835 3.972-4.416 4.811-0.368 0.531-0.803 0.478-0.872-0.113-0.513-4.471-2.405-17.532-2.858-20.534-0.377-2.484-0.715-4.057-1.727-7.626-1.357-4.788-1.954-15.336-2.062-23.208-8e-3 -0.558-0.278-0.793-0.866-0.695-2.476 0.411-4.213 5.307-1.839 8.174z" fill="#0f141b"/>
  </g>
  <g transform="matrix(.33073 0 0 -.33073 77.481 96.539)">
   <path d="m0 0c-1.715-0.593-4.746-3.163-5.961-4.87l-0.016 1.971c1.201 1.65 4.182 3.765 5.977 4.309z" fill="#0f141b"/>
  </g>
  <g transform="matrix(.33073 0 0 -.33073 77.468 85.025)">
   <path d="m0 0c-0.225 2.587-0.787 4.875-1.575 6.824l1.763-0.111c0.669-1.683 1.175-4.193 1.311-6.564z" fill="#0f141b"/>
  </g>
  <g transform="matrix(.33073 0 0 -.33073 65.428 105.36)">
   <path d="m0 0c1.21 3.121 3.741 8.353 5.851 10.758 2.487 2.835 10.54 6.567 13.092 6.887 3.571 0.445 8.528 0.12 11.085-0.43l-0.06-1.672c-3.558 0.797-8.001 0.966-10.852 0.639-1.981-0.229-10.328-4.063-12.196-6.297-1.691-2.02-3.834-6.014-4.613-8.016z" fill="#0f141b"/>
  </g>
  <g transform="matrix(.33073 0 0 -.33073 62.59 111.03)">
   <path d="m0 0c0.292-0.902 11.816-1.852 13.026-1.412 1.179 0.428 9.13 5.828 9.929 7.115 0.711 1.146 5.482 9.961 5.587 10.781 0 0.912-1.747 5.705-2.367 6.151-1.838 0.659-5.552 0.092-10.758-1.801-2.376-0.863-12.038-8.81-13.106-11.053-1.01-2.123-2.604-8.878-2.311-9.781m-1.121-1.244c-0.4 0.134-0.59 0.348-0.59 0.816 0 2.729 1.46 8.686 2.588 11.053 1.19 2.5 11.312 10.674 13.977 11.644 4.998 1.815 10.093 2.612 12.117 1.835 1.197-0.46 3.276-6.932 3.166-7.713-0.189-1.313-4.764-10.013-5.861-11.588-1.09-1.567-9.028-7.313-10.687-7.819-0.966-0.295-10.09 0.232-14.71 1.772" fill="#0f141b"/>
  </g>
  <g transform="matrix(.33073 0 0 -.33073 71.07 103.15)">
   <path d="m0 0c2.518 2.896 7.299 5.484 10.8 6.159l0.296-1.632c-3.185-0.636-7.647-3.166-9.662-5.554z" fill="#0f141b"/>
  </g>
  <g transform="matrix(.33073 0 0 -.33073 76.004 105.7)">
   <path d="m0 0c-1.762 1.453-1.774 3.61-0.07 4.937 1.062 0.825 2.039 3.264 2.455 6.379 0.547 4.114 1.549 14.991 1.511 19.678-0.023 2.696 1.139 5.176 3.384 6.151 1.24 0.537 1.681-0.202 0.515-0.882-2.448-1.429-2.659-3.934-2.649-5.296 0.04-4.733-1.001-15.626-1.552-19.763-0.174-1.301-0.92-5.738-2.848-7.237-1.318-1.024-0.908-2.508 0.731-3.699z" fill="#0f141b"/>
  </g>
  <g transform="matrix(.33073 0 0 -.33073 76.255 105.89)">
   <path d="m0 0c-1.095 2e-3 -6.583-3.148-8.716-4.977l0.084 1.745c2.194 1.828 7.551 4.74 8.725 4.664 1.773-0.094 6.333-5.036 7.193-6.291 1.002-1.465 3.095-6.164 4.401-9.364l-0.965-1.649c-1.241 3.499-3.673 8.836-4.622 10.223-1.123 1.641-5.01 5.647-6.1 5.649" fill="#0f141b"/>
  </g>
  <g transform="matrix(.33073 0 0 -.33073 94.964 94.579)">
   <path d="m0 0c-1.4 1.475-5.857 5.902-7.325 7.249-0.881 0.809-1.883 1.587-3.191 1.761-2.863 0.379-21.133 3.019-23.143 3.287-1.227 0.164-1.991-0.068-2.561-0.604-0.357-0.339-3.998-3.705-5.09-4.851l-0.886 1.166c1.114 1.17 4.679 4.431 5.035 4.767 1.018 0.963 2.013 1.053 3.683 0.83 2.011-0.268 20.405-2.66 23.268-3.039 1.627-0.214 2.889-1.279 3.805-2.118 1.509-1.385 5.922-5.889 7.368-7.411z" fill="#0f141b"/>
  </g>
  <g transform="matrix(.33073 0 0 -.33073 86.716 86.851)">
   <path d="m0 0c-1.748-3.502-4.188-8.279-5.879-10.814l-1.35 0.238c1.655 2.482 4.213 7.621 5.949 11.096z" fill="#0f141b"/>
  </g>
  <g transform="matrix(.33073 0 0 -.33073 89.014 85.666)">
   <path d="m0 0c-1.272-2-4.26-2.748-5.879-1.9-1.874 0.982-2.649 4.306-0.905 5.994l0.945-0.655c-1.418-1.468-0.835-3.908 0.382-4.515 1.456-0.727 3.624 0.304 4.377 1.66z" fill="#0f141b"/>
  </g>
  <g transform="matrix(.33073 0 0 -.33073 87.841 84.826)">
   <path d="m0 0c-0.507 0.196-1.196-0.237-1.433-0.968-0.211-0.652-0.122-1.539 0.44-1.74 0.587-0.209 1.16 0.352 1.399 1.035 0.235 0.667 0.104 1.475-0.406 1.673" fill="#0f141b"/>
  </g>
  <g transform="matrix(.33073 0 0 -.33073 76.395 92.925)">
   <path d="m0 0c3.375 2.981 6.355 5.147 8.831 6.722 1.198 0.762 1.948 0.81 2.898-0.225 2.339-2.553 11.498-14.147 13.386-17.41 0.405-0.701 1.518-0.807 2.377-0.07 2.725 2.336 5.428 3.693 8.873 4.05l2.434-1.125c-4.489-0.171-7.526-1.328-10.604-3.965-1.367-1.172-3.396-1.185-4.247 0.281-1.864 3.221-10.687 14.611-13.008 17.141-0.389 0.426-0.79 0.629-1.546 0.17-3.14-1.912-7.542-5.107-9.713-7.632z" fill="#0f141b"/>
  </g>
  <g transform="matrix(.33073 0 0 -.33073 86.422 96.079)">
   <path d="m0 0c1.051 1.088 1.068 3.6 0.731 4.162l1.445-0.387c0.262-0.719 0.265-1.857-0.254-2.892z" fill="#0f141b"/>
  </g>
  <g transform="matrix(.33073 0 0 -.33073 76.144 93.837)">
   <path d="m0 0c-2.345 1.877-6.174 6.133-7.425 7.819-0.889 1.201-0.498 2.027 0.618 2.56 1.773 0.844 6.526 2.615 9.114 3.347l-0.029-1.603c-2.25-0.562-6.44-1.885-8.382-2.701-0.467-0.196-0.523-0.458-0.196-0.9 1.17-1.576 4.489-4.952 6.779-6.862z" fill="#0f141b"/>
  </g>
  <g transform="matrix(.33073 0 0 -.33073 84.911 96.978)">
   <path d="m0 0c-1.293-1.444-3.305-4.435-4.214-6.376-0.761-1.625-1.626-1.373-0.956 0.359 0.816 2.108 2.774 5.356 4.133 6.873z" fill="#0f141b"/>
  </g>
  <g transform="matrix(.33073 0 0 -.33073 95.157 103.38)">
   <path d="m0 0c-1.828-0.584-10.585-8.02-10.998-9.07-0.628-1.601 5.586-14.485 7.777-15.737 1.871-1.069 16.633-2.215 17.894-1.68 1.267 0.534 12.269 10.848 12.397 12.573 0.106 1.418-5.951 10.408-7.748 11.551-2.951 1.879-17.022 3.101-19.322 2.363m-4.093-26.227c-2.518 1.44-8.919 14.607-8.508 17.48 0.201 1.393 10.097 9.534 12.15 10.303 1.971 0.737 17.06-0.177 20.691-2.532 2.401-1.555 8.78-11.229 8.637-13.157-0.179-2.399-12.158-13.447-13.522-14.02-1.317-0.554-17.56 0.847-19.448 1.926" fill="#0f141b"/>
  </g>
  <g transform="matrix(.33073 0 0 -.33073 101.43 103.76)">
   <path d="m0 0c3.348 1.604 6.095 3.625 6.063 4.385-0.034 0.761-6.567 6.414-8.593 7.355-2.406 1.116-14.788 1.578-19.392-0.394-1.892-0.811-7.928-6.162-8.006-7.022-0.039-0.412 4.725-2.363 9.225-3.187l-1.389-1.088c-4.443 0.75-9.641 3.113-9.674 4.125-0.039 1.181 7.26 7.668 9.252 8.521 4.743 2.034 17.588 1.631 20.561 0.311 2.024-0.901 9.698-7.088 9.759-8.608 0.069-1.71-4.376-4.39-6.429-5.477z" fill="#0f141b"/>
  </g>
  <g transform="matrix(.33073 0 0 -.33073 90.617 96.065)">
   <path d="m0 0c-2.144-2.116-1.57-7.222-1.097-12.403 0.188-2.059 0.75-4.641 3.347-5.682v-1.701c-3.769 0.676-4.954 4.594-5.203 7.215-0.425 4.482-0.855 10.779 1.364 13.162z" fill="#0f141b"/>
  </g>
  <g transform="matrix(.33073 0 0 -.33073 91.24 102.36)">
   <path d="m0 0c-1.575-1.074-4.316-2.897-5.399-3.812-1.705-1.439-2.656-0.833-2.447 1.196 0.4 3.871 0.869 11.512 0.192 13-0.227 0.497-0.946 1.397-1.306 1.598-0.246 0.137-0.471 0.115-0.554-0.138-0.838-2.565-1.948-7.353-2.172-9.764-0.248-2.685-0.38-5.449 0.211-7.621 0.815-2.992 0.794-5.486-2.38-7.002-5.022-2.395-14.53-7.592-18.446-11.898-1.128-1.241-1.618-2.066-1.927-3.305-0.59-2.372-0.965-4.66-1.1-7.832-0.074-1.748-1.079-1.734-1.02 0.018 0.106 3.154 0.292 5.442 0.686 7.997 0.258 1.668 1.372 3.057 2.377 4.163 3.761 4.135 12.535 8.978 18.857 11.995 2.411 1.149 2.311 3.384 1.716 5.569-0.634 2.328-0.653 5.265-0.253 8.029 0.534 3.689 1.524 7.502 2.375 10.112 0.421 1.284 1.141 1.441 2.214 0.845 0.581-0.323 1.663-1.512 1.967-2.181 0.93-2.045 0.096-11.264-0.13-13.459-0.043-0.416 0.166-0.453 0.408-0.211 0.815 0.816 3.078 2.441 4.697 3.545z" fill="#0f141b"/>
  </g>
  <g transform="matrix(.33073 0 0 -.33073 78.302 107.45)">
   <path d="m0 0c0.897 6.364 6.271 14.498 9.211 17.465 1.514 1.529 2.354 1.397 2.995-0.731 1.097-3.642 2.616-12.699 3.009-18.548l-1.42-0.816c-0.314 5.168-1.968 15.998-2.826 18.943-0.143 0.488-0.439 0.597-0.901 0.126-1.991-2.039-8.244-11.652-8.718-18.183z" fill="#0f141b"/>
  </g>
  <g transform="matrix(.33073 0 0 -.33073 82.103 101.78)">
   <path d="m0 0c-1.491-2.551-2.577-5.488-3.403-9.389-0.295-1.4-1.234-1.264-1.004 0.178 0.63 3.948 1.669 7.262 3.221 9.916z" fill="#0f141b"/>
  </g>
  <g transform="matrix(.33073 0 0 -.33073 93.799 118.48)">
   <path d="m0 0c-1.678 2.602-6 8.176-7.646 9.771-1.751 1.694-6.538 3.869-10.105 5.438-1.297 0.57-2.134 1.039-1.708 3.166 0.816 4.08 4.49 14.009 6.549 17.889 0.678 1.277 1.597 1.654 2.657 1.576 0.758-0.057 2.23-0.268 2.784-0.381l-0.281-1.363c-0.892 0.162-1.967 0.275-2.615 0.295-0.592 0.017-1.086-0.229-1.449-0.914-2.026-3.822-5.342-13.295-6.145-17.31-0.148-0.741-8e-3 -1.228 0.896-1.625 4.713-2.075 8.718-3.919 10.459-5.604 1.797-1.741 6.022-7.241 7.69-9.784z" fill="#0f141b"/>
  </g>
  <g transform="matrix(.33073 0 0 -.33073 88.853 108.5)">
   <path d="m0 0c-2.26 2.33-6.956 4.664-9.437 5.447l1.44 0.939c2.393-0.93 6.244-3.016 8.514-5.117z" fill="#0f141b"/>
  </g>
  <g transform="matrix(.33073 0 0 -.33073 72.279 105.31)">
   <path d="m0 0c1.053 0.279 1.755 0.367 2.686 0.422 1.589 0.096 2.087-1.053 1.673-2.293-0.653-1.957-0.518-12.883-0.45-15.58 0.035-1.392-0.276-2.467-1.505-2.983-6.408-2.687-11.52-8.697-11.906-11.01-0.306-1.839 0.578-7.942 1.965-10.646 2.248-4.383 7.363-11.062 10.251-13.5 1.221-1.029 2.847-0.656 3.544 0.563 1.904 3.334 8.994 8.603 11.588 10.084 1.504 0.857 2.511 1.054 4.822 0.168 3.5-1.34 9.422-5.014 13.346-7.862 4.536-3.292 8.252-4.053 12.234-2.461 3.123 1.25 6.516 3.633 9.036 5.974 0.964 0.895 1.619 0.267 0.736-0.706-2.131-2.348-6.093-5.539-9.35-6.842-4.338-1.738-8.779-0.859-13.627 2.658-3.871 2.809-9.439 6.512-12.853 7.819-1.987 0.759-2.97 0.388-3.754-0.057-2.45-1.397-9.264-6.629-11.053-9.76-1.256-2.2-3.756-2.312-5.485-0.787-3.197 2.821-7.772 8.522-10.8 14.063-1.465 2.68-2.41 9.353-2.041 11.56 0.467 2.811 6.07 9.317 12.588 12.051 0.586 0.245 0.789 0.557 0.732 1.687-0.137 2.698-5e-3 13.674 0.703 15.792 0.136 0.41-0.01 0.656-0.381 0.633-0.947-0.055-1.549-0.09-2.713-0.422z" fill="#0f141b"/>
  </g>
  <g transform="matrix(.33073 0 0 -.33073 113.09 117.84)">
   <path d="m0 0c-10.32-6.949-26.115-9.149-37.871 1.406-1.784 1.603-4.25 2.006-8.549 1.239-2.131-0.381-6.787-2.211-9.197-3.362-1.324-0.633-1.794-1.185-2.377-2.419-0.797-1.689-1.688-2.995-3.014-4.323-0.844-0.846-1.588-0.385-0.778 0.659 1.204 1.555 1.753 2.554 2.526 4.297 0.651 1.465 1.585 2.388 3.122 3.122 2.462 1.176 7.302 3.119 9.521 3.516 3.276 0.584 7.103 0.788 9.675-1.52 11.346-10.189 26.926-7.664 36.956-0.603z" fill="#0f141b"/>
  </g>
  <g transform="matrix(.33073 0 0 -.33073 69.363 80.786)">
   <path d="m0 0c-25.412 2.264-81.36 0.068-96.998-3.93-1.375-0.351-1.433-1.006-0.782-1.922 2.311-3.255 6.477-8.711 8.904-11.136 0.939-0.941 1.601-1.381 3.375-1.393 15.806-0.098 61.594-1.898 77.513-4.062 1.355-0.184 1.349-1.068 0-1.286-22.444-3.638-52.369-12.3-63.479-17.166-1.353-0.593-1.429-1.574-0.492-2.474 2.516-2.42 6.906-6.393 10.379-7.609 2.054-0.719 3.5-0.832 6.439-0.295 13.927 2.543 37.421 6.131 51.371 7.467l-2.109-1.602c-11.917-1.49-35.657-5.354-49.092-7.805-2.571-0.471-4.283-0.492-7.215 0.533-3.655 1.28-8.63 5.61-11.207 8.086-1.734 1.668-1.523 4.037 1.153 5.288 11.095 5.189 38.658 12.952 59.562 16.075-16.853 1.377-61.76 3.111-72.922 3.317-2.099 0.039-3.298 0.67-4.386 1.758-2.471 2.471-6.792 8.285-9.123 11.569-1.22 1.72-1.02 3.274 1.826 4.081 15.101 4.277 71.814 6.611 97.325 4.348z" fill="#0f141b"/>
  </g>
  <g transform="matrix(.33073 0 0 -.33073 66.419 103.81)">
   <path d="m0 0c-4.992-1.743-15.567-6.132-19.927-8.396-1.587-0.824-3.546-0.808-4.739 0.084-1.926 1.446-7.455 5.733-8.635 6.793-1.705 1.534-1.173 3.097 0.69 4.487 6.806 5.076 29.419 19.251 38.884 23.654 1.545 0.718 1.996-0.252 0.477-1.028-8.367-4.275-31.43-18.563-38.32-23.892-1.098-0.849-1.27-1.502-0.563-2.139 1.1-0.99 6.385-4.865 8.465-6.425 0.87-0.653 2.07-0.571 3.207 0.013 4.894 2.518 15.807 7.243 21.432 9.141z" fill="#0f141b"/>
  </g>
  <g transform="matrix(.33073 0 0 -.33073 52.62 97.814)">
   <path d="m0 0c3.431-1.561 15.554-7.157 19.856-8.93l-1.419-1.011c-3.616 1.462-17.706 7.959-20.94 9.463z" fill="#0f141b"/>
  </g>
  <g transform="matrix(.33073 0 0 -.33073 47.987 93.056)">
   <path d="m0 0c0.9 5.287 2.488 12.766 3.334 17.086l1.574-0.154c-1.363-6.132-2.601-11.983-3.332-16.412z" fill="#0f141b"/>
  </g>
  <g transform="matrix(.33073 0 0 -.33073 68.643 116.02)">
   <path d="m0 0c-0.105 1.846-0.185 5.803-0.078 7.51 0.115 1.806 0.92 1.806 1.021 0 0.086-1.542 0.251-3.888 0.415-5.967z" fill="#0f141b"/>
  </g>
  <g transform="matrix(.33073 0 0 -.33073 33.816 158.16)">
   <path d="m0 0c-2.58 0-9.012 0.537-11.56 1.463-1.768 0.643-1.829 2.612-1.659 4.486 0.76 8.432 5.474 27.742 9.287 38.61-9.818-9.461-20.214-25.726-25.68-37.163-0.748-1.563-2.449-1.976-4.096-1.292-2.256 0.94-7.689 4.78-10.251 6.876-0.919 0.751-1.36 2.118-1.154 4.402 1.336 14.784 28.736 58.912 35.025 64.702 6.062 5.581 44.011 22.832 53.653 26.845 4.373 1.82 8.025 3.266 13.134 3.501 1.959 0.09 4.424 1.146 5.78 2.728l0.97-0.97c-1.485-1.734-4.261-3.15-6.707-3.262-4.933-0.227-8.31-1.628-12.599-3.389-7.398-3.037-47.567-22.629-52.862-27.07-6.326-5.307-33.424-49.473-34.988-63.226-0.212-1.866-0.068-2.632 0.633-3.206 2.458-2.01 7.799-5.721 9.94-6.612 1.191-0.495 1.89-0.253 2.379 0.776 6.134 12.871 16.853 29.292 27.774 39.121 0.745 0.67 1.483 0.377 1.083-0.716-3.239-8.852-9.165-33.036-9.76-40.768-0.115-1.489-0.186-2.67 0.746-3.009 2.403-0.874 8.404-1.391 10.855-1.391 0.934 0 1.534 0.447 1.857 1.419 3.226 9.702 13.794 29.467 19.645 37.956 0.615 0.89 1.344 0.847 1.252-0.452-0.337-4.768-2.314-23.469-3.249-30.599-0.153-1.174 0.146-1.805 0.886-1.899 2.736-0.34 7.438-0.025 8.859 0.38 1.435 0.409 2.04 1.105 2.659 2.687 3.06 7.84 10.322 33.388 12.796 42.102 0.771 2.713 1.918 5.108 4.331 7.453 4.93 4.792 18.203 20.21 19.949 28.746 1.007 4.919 4.226 13.367 12.986 14.004 7.855 0.572 22.686 8.517 25.199 16.542l0.783-2.127c-3.423-8.064-17.862-15.39-25.912-15.976-8.089-0.588-10.671-8.182-11.62-12.818-1.815-8.874-14.786-24.772-19.95-29.791-2.248-2.185-3.128-4.019-3.867-6.595-2.123-7.403-9.774-33.353-13.332-42.089-0.877-2.155-1.802-2.956-3.705-3.499-1.697-0.486-6.669-0.833-9.373-0.495-1.339 0.167-2.389 1.164-2.067 3.418 0.439 3.067 2.834 26.051 3.038 28.019-5.726-9.082-15.499-27.681-17.987-35.459-0.623-1.947-1.762-2.363-3.121-2.363" fill="#0f141b"/>
  </g>
  <g transform="matrix(.33073 0 0 -.33073 68.856 116.6)">
   <path d="m0 0c-2.18-1.884-4.305-2.971-6.863-2.883-3.539 0.121-12.119 0.382-14.893 0.886-1.131 0.201-1.64-0.186-2.066-0.816-4.241-6.299-14.19-9.037-17.283-9.295-2.423-0.192-3.323 0.76-2.911 2.841 2.08 10.512 11.725 23.395 24.032 26.381l0.845-1.431c-11.963-2.625-21.524-15.168-23.5-25.147-0.158-0.801 0.202-1.267 1.506-1.153 3.748 0.311 12.412 3.266 16.102 8.747 0.837 1.244 2.062 1.664 3.459 1.406 2.699-0.491 11.234-0.728 14.752-0.844 2.361-0.078 4.555 0.942 6.777 3.136z" fill="#0f141b"/>
  </g>
  <g transform="matrix(.33073 0 0 -.33073 56.126 124.78)">
   <path d="m0 0c-1.236 0-3.881 1.811-4.408 2.999-0.416 0.936-0.419 3.151-0.237 4.221 0.205 1.182 1.066 1.198 1.022 0-0.033-0.871 0.164-2.965 0.488-3.697 0.362-0.811 2.318-2.114 3.149-2.114 0.865 0 2.021 0.41 3.127 1.074 1.104 0.664 1.548-0.108 0.525-0.876-1.144-0.856-2.498-1.607-3.666-1.607" fill="#0f141b"/>
  </g>
  <g transform="matrix(.33073 0 0 -.33073 55.001 123.87)">
   <path d="m0 0c-1.716-1.786-4.219-3.867-6.26-5.389-1.181-0.882-1.922-0.226-0.642 0.793 2.148 1.713 4.511 3.935 6.115 5.748z" fill="#0f141b"/>
  </g>
  <g transform="matrix(.33073 0 0 -.33073 56.378 124.55)">
   <path d="m0 0c-0.582-2.566-1.94-5.962-3.787-8.374-0.883-1.15-1.666-0.764-0.861 0.549 1.554 2.537 2.719 5.514 3.27 7.937z" fill="#0f141b"/>
  </g>
  <g transform="matrix(.33073 0 0 -.33073 55.803 131.12)">
   <path d="m0 0c5.11 3.547 12.2 9.458 15.351 13.439 0.574 0.725 0.276 0.888-0.381 0.776-2.489-0.426-7.944-2.332-10.78-3.416l0.491 1.698c2.73 1.015 7.295 2.305 10.045 2.851 2.468 0.49 2.935-0.698 1.58-2.627-3.712-5.287-10.688-11.026-17.42-15.326z" fill="#0f141b"/>
  </g>
  <g transform="matrix(.33073 0 0 -.33073 43.648 138.49)">
   <path d="m0 0c10.213 4.346 15.371 26.098 8.973 31.629-3.652 3.156-16.668 0.662-26.503-5.048-6.043-3.508-13.566-10.017-12.717-17.958l-1.167-2.827c-2.341 9.653 4.308 17.069 13.137 22.194 10.334 5.998 23.974 8.683 28.361 4.989 6.889-5.8 3.15-28.745-9.549-34.327z" fill="#0f141b"/>
  </g>
  <g transform="matrix(.33073 0 0 -.33073 42.183 131.62)">
   <path d="m0 0c0.111-4.74-0.226-8.002-0.963-12.04-0.125-0.689 0.17-0.949 1.014-0.377 3.922 2.656 7.483 5.726 8.611 9.618 1.245 4.302 0.212 7.533-1.969 7.987-3.824 0.789-6.773-1.802-6.693-5.188m-2.082-11.827c0.562 3.937 0.717 7.524 0.506 11.812-0.239 4.898 3.857 7.826 8.635 6.863 3.347-0.675 4.713-4.6 3.177-10.069-1.181-4.215-5.849-7.988-9.59-10.153-2.23-1.291-3.039-0.62-2.728 1.547" fill="#0f141b"/>
  </g>
  <g transform="matrix(.33073 0 0 -.33073 37.049 136.22)">
   <path d="m0 0c1.425-1.932 4.2-3.244 6.769-3.318 2.62-0.078 2.478-1.049 1.369-2.382-3.227-3.873-13.445-7.265-18.685-3.61-2.728 1.904-2.492 6.148-1.083 10.04 1.768 4.887 5.162 7.457 8.409 6.877 3.446-0.614 4.758-5.564 2.785-9.525-0.673-1.352-1.293-1.022-0.928 0.424 1.064 4.213 0.412 6.99-2.165 7.555-2.684 0.584-5.045-1.639-6.624-6.004-1.226-3.39-0.929-7.08 0.59-8.129 3.686-2.546 14.139-0.218 16.895 3.093 0.289 0.346 0.043 0.583-0.553 0.588-2.88 0.022-6.142 1.633-7.285 3.434z" fill="#0f141b"/>
  </g>
  <g transform="matrix(.33073 0 0 -.33073 39.324 138.29)">
   <path d="m0 0c0.944-1.706 2.15-2.893 3.611-3.665 1.323-0.699 0.807-1.4-0.392-0.941-1.774 0.675-3.362 1.987-4.444 3.772z" fill="#0f141b"/>
  </g>
  <g transform="matrix(.33073 0 0 -.33073 39.746 139.15)">
   <path d="m0 0c2.503-0.225 7.856 0.702 10.434 2.193 1.855 1.074 3.22 0.2 1.941-2.357-1.781-3.559-5.516-7.342-7.734-8.119-2.858-1-6.397-1.207-8.776-0.127-3.349 1.523-5.16 4.133-5.26 7.764l1.632 0.294c0.109-4.041 2.646-5.828 4.275-6.567 2.041-0.927 5.481-0.745 7.734 0.042 1.986 0.695 5.481 4.106 7.149 7.244 0.466 0.881 0.244 1.154-0.432 0.78-2.845-1.57-7.044-2.17-9.697-2.149z" fill="#0f141b"/>
  </g>
  <g transform="matrix(.33073 0 0 -.33073 29.916 154.57)">
   <path d="m0 0c-3.317 1.582-9.325 5.143-12.663 7.549l0.851 1.371c2.659-1.997 9.268-5.986 12.269-7.338z" fill="#0f141b"/>
  </g>
  <g transform="matrix(.33073 0 0 -.33073 40.155 153.73)">
   <path d="m0 0c-4.254-0.908-9.506-2.566-13.973-4.17l0.67 1.826c4.141 1.553 9.432 3.121 13.516 3.957z" fill="#0f141b"/>
  </g>
  <g transform="matrix(.33073 0 0 -.33073 92.857 132.35)">
   <path d="m0 0c-2.95 2.865-2.852 13.161-2.483 16.353 0.176 1.532 0.767 2.813 1.602 3.952 1.252 1.706 4.668 5.812 6.624 7.242 1.88 1.373 2.948 2.828 3.882 4.696 2.421 4.845 3.982 8.304 4.508 11.238 0.221 1.242 1.512 2.449 3.873 2.449 2.533 0 4.871-1.666 6.625-3.117 9.863-8.161 21.981-9.553 34.974-4.576l-0.214-1.964c-12.661-4.954-25.561-3.453-35.769 5.277-1.6 1.368-3.352 2.739-5.561 2.739-1.073 0-2.035-0.439-2.204-1.389-0.543-3.033-1.769-6.679-4.236-11.613-0.999-2-2.453-3.933-4.5-5.428-1.91-1.396-5.183-5.201-6.258-6.666-0.726-0.99-1.067-1.757-1.222-3.107-0.495-4.289-0.259-13.606 3.041-16.399z" fill="#0f141b"/>
  </g>
  <g transform="matrix(.33073 0 0 -.33073 100.23 155.59)">
   <path d="m0 0c-3.372-1.038-11.694-22.712-12.55-27.845-0.645-3.871 11.941-28.961 18.015-31.332 5.58-2.178 24.047-3.582 27.169-2.777 2.684 0.693 14.522 23.851 13.991 27.303-0.555 3.613-16.721 29.166-21.549 31.576-4.216 2.105-22.066 4.001-25.076 3.075m4.775-60.878c-6.668 2.602-20.004 28.607-19.252 33.131 0.729 4.365 9.462 28.359 13.725 29.672 3.612 1.11 22.389-0.998 26.706-3.311 5.976-3.2 21.95-28.625 22.527-33.111 0.521-4.049-11.039-28.363-15.313-29.282-5.121-1.101-23.721 1.077-28.393 2.901" fill="#0f141b"/>
  </g>
  <g transform="matrix(.33073 0 0 -.33073 101.51 175.28)">
   <path d="m0 0c-9.951-0.046-18.318 10.393-23.779 22.753-3.26 7.376-11.587 17.993-16.046 23.077-10.931 12.463-9.017 36.947-1.392 50.766 3.653 6.62 4.68 12.117 5.666 18.814 1.422 9.648 4.861 14.726 8.817 15.22 5.037 0.631 14.585-7.491 17.045-13.335 1.23-2.924 4.495-6.699 9.419-10.748 16.639-13.678 35.323-35.568 42.036-45.529 5.815-8.628 6.861-14.473 6.623-20.166-0.189-4.53 0.068-9.842 0.295-12.052 0.427-4.152-0.865-5.7-2.854-6.695l-1.055 1.407c1.891 0.947 2.442 2.261 2.137 5.162-0.223 2.12-0.781 7.627-0.59 12.22 0.229 5.493-0.64 10.614-6.301 19.012-6.679 9.912-26.455 33.067-41.332 45.356-5.039 4.162-8.619 8.258-9.912 11.33-2.434 5.784-11.175 12.875-15.332 12.359-3.168-0.394-5.961-6.084-7.097-13.793-1-6.797-1.729-12.892-5.47-19.674-7.464-13.529-9.234-36.742 0.929-48.431 5.556-6.393 13.218-16.258 16.312-23.26 4.391-9.938 11.619-21.094 19.983-21.627z" fill="#0f141b"/>
  </g>
  <g transform="matrix(.33073 0 0 -.33073 131.84 189.43)">
   <path d="m0 0c-2.971 9.797-10.995 27.572-17.746 38.138-1.879 2.94-3.686 4.218-7.074 6.089-5.151 2.84-19.174 16.188-23.346 21.727l0.335 3.389c3.226-5.1 19.069-20.207 24.221-23.049 3.557-1.962 6.366-3.905 8.264-7.098 6.232-10.486 15.825-30.525 18.075-40.884z" fill="#0f141b"/>
  </g>
  <g transform="matrix(.33073 0 0 -.33073 108.23 187.78)">
   <path d="m0 0c0.158 6.953-1.189 22.435-1.832 24.104-0.68 1.769-7.876 8.493-12.854 11.81l3.484-0.16c4.771-3.412 10.672-8.855 11.398-10.86 0.929-2.562 1.562-15.691 1.575-23.037z" fill="#0f141b"/>
  </g>
  <g transform="matrix(.33073 0 0 -.33073 103.48 195.49)">
   <path d="m0 0c1.743 9.676 11.531 23.176 18.837 28.709 1.199 0.908 1.81 0.248 0.687-0.754-6.305-5.623-14.237-16.592-16.544-24.637z" fill="#0f141b"/>
  </g>
  <g transform="matrix(.33073 0 0 -.33073 107.67 188.37)">
   <path d="m0 0c3.436 2.541 8.386 4.715 11.957 5.365 1.481 0.269 1.695-0.607 0.208-0.998-4.229-1.114-11.842-5.052-15.479-9.101z" fill="#0f141b"/>
  </g>
  <g transform="matrix(.33073 0 0 -.33073 133.53 195.15)">
   <path d="m0 0c-0.205 4.362-0.924 7.374-2.279 11.165-0.932 2.609-1.99 4.472-4.149 6.343-11.293 9.79-23.898 17.056-42.991 24.446-3.364 1.304-5.106 0.506-6.946-1.334-1.676-1.678-9.455-13.039-11.1-15.555l-3.196-1.359c1.95 3 11.343 16.503 13.088 18.248 2.603 2.604 4.651 3.43 8.834 1.813 19.208-7.435 32.301-14.757 43.69-24.627 2.278-1.975 4.051-4.47 4.992-7.243 1.895-5.579 2.494-10.154 2.137-15.413z" fill="#0f141b"/>
  </g>
  <g transform="matrix(.33073 0 0 -.33073 102.51 206.11)">
   <path d="m0 0c4.677 0 18.293 3.988 19.674 5.598 3.267 3.81 1.369 25.245-2.18 33.888-0.816 1.987-2.033 2.53-4.617 0.577-11.607-8.775-17.531-20.25-18.432-34.972-0.214-3.499 1.149-5.091 5.555-5.091m-0.014-1.885c-5.838-0.232-7.802 2.543-7.538 7.018 0.982 16.622 8.913 29.49 19.541 36.705 3.116 2.115 5.866 1.857 7.368-1.553 3.963-8.997 5.988-31.197 1.948-36.15-1.93-2.366-15.329-5.78-21.319-6.02" fill="#0f141b"/>
  </g>
  <g transform="matrix(.33073 0 0 -.33073 116.63 193.63)">
   <path d="m0 0c-7.188-8.051-10.788-22.149-11.396-32.179-0.641-10.62 27.528-15.801 31.126-1.923 2.035 7.848-3.359 27.856-8.326 34.327-3.224 4.204-6.82 4.908-11.404-0.225m-13.565-32.107c0.616 10.2 4.467 24.977 12.286 33.47 5.192 5.641 10.089 5.497 14.357-0.027 5.498-7.115 10.935-27.91 8.846-35.973-4.27-16.467-36.297-10.717-35.489 2.53" fill="#0f141b"/>
  </g>
  <g transform="matrix(.33073 0 0 -.33073 128.99 193.58)">
   <path d="m0 0c-5.359-8.727-8.452-28.898-8.184-34.029 0.297-5.707 26.844-12.194 27.215-1.549 0.538 15.433-2.786 27.65-10.369 36.422-2.652 3.066-6.082 3.361-8.662-0.844m-10.443-34.309c-0.709 5.862 3.116 26.899 8.811 35.618 3.506 5.366 8.217 5.185 11.771 0.998 7.959-9.379 11.713-22.28 11.022-37.971-0.589-13.371-30.597-6.969-31.604 1.355" fill="#0f141b"/>
  </g>
  <g transform="matrix(.33073 0 0 -.33073 112.54 205.15)">
   <path d="m0 0c-2.403-0.31-8.143-0.154-10.43 1.086l1.086 1.629c2.327-0.952 7.108-1.213 9.229-0.932z" fill="#0f141b"/>
  </g>
  <g transform="matrix(.33073 0 0 -.33073 126.01 205.17)">
   <path d="m0 0c-2.204-1.361-6.132-2.194-8.282-2.054l0.477 1.885c1.795-0.062 5.161 0.717 7.341 1.997z" fill="#0f141b"/>
  </g>
  <g transform="matrix(.33073 0 0 -.33073 108.71 156.46)">
   <path d="m0 0c-7.867 17.433-12.966 27.783-24.376 38.602-4.304 4.081-12.936 13.005-16.061 17.381-2.928 4.101-8.079 10.29-11.727 14.091l1.153 0.985c3.675-3.828 9.08-10.063 12.037-14.204 3.09-4.325 11.501-12.774 15.782-16.802 11.126-10.471 17.125-22.021 26.023-41.373z" fill="#0f141b"/>
  </g>
  <g transform="matrix(.33073 0 0 -.33073 95.673 165.85)">
   <path d="m0 0c-4.082 9.887-17.617 32.299-28.404 42.824l0.24 2.475c11.031-9.763 24.531-31.887 28.771-41.799z" fill="#0f141b"/>
  </g>
  <g transform="matrix(.33073 0 0 -.33073 91.938 164.17)">
   <path d="m0 0c-23.387-11.94-52.412-6.943-64.785 18.787-4.868 10.126-4.19 25.233 1.87 45.834 1.005 3.416 1.379 8.089 1.172 12.861-0.282 6.478 1.786 13.664 6.291 21.713 2.817 5.035 1.355 17.526-2.725 22.623l2.238-0.535c3.623-5.41 5.197-17.07 2.019-22.748-4.378-7.825-6.416-14.188-6.118-21 0.212-4.88-0.267-9.845-1.302-13.363-5.985-20.35-6.555-34.837-1.801-44.724 10.877-22.622 39.537-29.667 62.227-18.085z" fill="#0f141b"/>
  </g>
  <g transform="matrix(.33073 0 0 -.33073 86.436 132.31)">
   <path d="m0 0c-4.696-6.637-17.495-17.553-23.303-21.67-1.291-0.914-2.197-0.828-3.248-0.127-7.354 4.902-13.58 15.399-9.224 22.205 2.005 3.133 2.818 15.603-1.28 24.68l1.223 0.814c4.303-9.527 3.877-21.646 1.252-26.183-3.289-5.686 1.875-15.563 8.69-20.264 0.583-0.402 1.163-0.373 1.843 0.111 5.823 4.129 19.723 16.416 23.779 22.726z" fill="#0f141b"/>
  </g>
  <g transform="matrix(.33073 0 0 -.33073 77.19 164.42)">
   <path d="m0 0c-4.748 2.937-8.687 7.053-11.707 12.463-7.664 13.724-8.004 32.73-1.733 53.881 1.735 5.853 1.733 9.219 1.251 13.973-0.694 6.843 0.431 11.643 3.899 15.994l-0.075-2.475c-2.249-3.842-2.797-8.1-2.207-13.406 0.542-4.885 0.599-8.483-1.185-14.504-6.192-20.887-5.739-39.523 1.456-52.606 4.347-7.905 11.025-13.295 18.972-15.554z" fill="#0f141b"/>
  </g>
  <g transform="matrix(.33073 0 0 -.33073 84.253 165.83)">
   <path d="m0 0c-13.121 2.184-21.045 17.504-23.495 28.074-2.773 11.966 0.243 32.164 4.001 52.003l1.697-0.353c-3.426-18.8-6.711-39.603-3.98-51.388 2.569-11.088 12.25-27.16 27.168-27.549z" fill="#0f141b"/>
  </g>
  <g transform="matrix(.33073 0 0 -.33073 86.12 123.98)">
   <path d="m0 0c0.873-8.732 2.077-24.517 2.152-30.502 0.094-7.496-4.64-21.148-8.818-25.818-1.305-1.459-1.938-2.713-2.066-3.966-3.733-36.083 4.058-55.678 23.357-61.594l-2.166-0.956c-19.42 5.92-26.845 26.957-22.837 62.69 0.22 1.959 0.992 3.337 2.335 4.837 3.968 4.437 8.747 17.594 8.592 24.737-0.122 5.605-1.478 22.508-2.349 30.966z" fill="#0f141b"/>
  </g>
  <g transform="matrix(.33073 0 0 -.33073 92.371 129.01)">
   <path d="m0 0c-4.405 0.188-13.907 0.22-18.689 0.095l-0.032 1.919c4.751 0.126 13.908-0.126 18.784-0.347z" fill="#0f141b"/>
  </g>
  <g transform="matrix(.33073 0 0 -.33073 75.42 129.18)">
   <path d="m0 0c-0.791-0.044-2.22-0.044-3.026 0.053l0.092 1.664c0.735-0.051 1.844-0.13 2.881-0.053z" fill="#0f141b"/>
  </g>
  <g transform="matrix(.33073 0 0 -.33073 45.539 159.14)">
   <path d="m0 0c-0.51 2.309 0.09 4.221 2.003 5.946 5.507 4.968 46.765 29.014 55.472 33.597 2.589 1.361 3.261 2.728 4.168 4.658 4.259 9.07 10.785 21.895 18.808 26.147l-0.506-2.325c-7.179-5.077-12.466-15.99-16.574-24.553-0.937-1.956-2.096-4.341-4.992-5.865-8.684-4.57-49.742-27.941-55.209-32.863-1.3-1.17-1.67-2.306-1.67-3.607z" fill="#0f141b"/>
  </g>
  <g transform="matrix(.33073 0 0 -.33073 53.764 169.91)">
   <path d="m0 0c-1.338-2.673-3.111-6.039-5.584-9.099-1.327-1.644-2.527-1.881-4.119-1.589-8.809 1.608-22.69 10.065-23.457 25.2-0.766 15.095 15.551 27.304 22.669 26.129 3.149-0.521 7.594-13.177 8.747-18.943l-1.309-2.405c-0.914 6.539-5.885 19.351-7.818 19.702-5.897 1.064-20.947-9.868-20.207-24.44 0.736-14.543 13.182-21.64 21.67-23.19 1.113-0.203 1.846 0.076 2.545 0.943 2.411 2.985 4.031 5.798 5.343 8.422z" fill="#0f141b"/>
  </g>
  <g transform="matrix(.33073 0 0 -.33073 76.121 163.98)">
   <path d="m0 0c-18.434-1.215-36.241-8.418-49.598-20.461-2.582-2.329-7.443-2.3-11.39-1.49-2.821 0.578-12.494 4.576-13.557 8.803-0.844 3.355 2.289 14.375 4.557 17.83 1.869 2.849 9.353 7.765 13.4 9.789 8.184 4.091 32.074 18.217 37.102 24.775l-0.135-3.357c-6.652-7.004-28.432-19.246-36.234-23.149-4.385-2.191-10.749-6.611-12.362-9.07-2.308-3.518-5.171-13.805-4.5-16.34 0.887-3.348 9.031-6.621 12.291-7.312 3.724-0.791 7.516-0.759 9.615 1.136 13.221 11.918 28.972 19.03 48.491 20.674z" fill="#0f141b"/>
  </g>
  <g transform="matrix(.33073 0 0 -.33073 51.448 172.92)">
   <path d="m0 0c2.504-1.997 7.791-4.331 11.457-5.143 1.443-0.319 1.264-1.158-0.201-1-4 0.433-9.877 2.937-13.252 5.328z" fill="#0f141b"/>
  </g>
  <g transform="matrix(.33073 0 0 -.33073 54.196 178.84)">
   <path d="m0 0c0.225 3.018-0.059 10.425-0.492 13.021l1.843-0.392c0.376-2.578 0.574-7.463 0.436-10.59z" fill="#0f141b"/>
  </g>
  <g transform="matrix(.33073 0 0 -.33073 62.5 190.4)">
   <path d="m0 0c0.788 5.033 0.896 23.082-0.482 27.855-0.845 2.924-8.14 11.45-12.953 16.651-1.648 1.783-2.933 1.451-4.246-0.591-3.279-5.101-10.281-15.895-17.216-18.276-1.045-0.36-1.518-0.868-1.426-1.876l-1.8-0.037c-0.105 1.15 0.648 2.733 2.681 3.43 6.596 2.266 13.087 12.973 16.298 17.969 1.989 3.092 4.815 3.037 6.948 0.829 4.429-4.585 12.564-14.257 13.527-17.593 1.52-5.256 1.365-20.516 0.393-27.869z" fill="#0f141b"/>
  </g>
  <g transform="matrix(.33073 0 0 -.33073 63.691 167.39)">
   <path d="m0 0c0.719-7.193 9.734-14.914 15.939-17.277 8.781-3.346 15.458-14.832 17.751-31.191 0.261-1.861 0.289-3.904-2.379-4.571-3.875-0.969-11.493-4.508-15.442-9.703-2.409-3.171-17.413-7.426-28.363-10.041l1.448 2.054c7.514 1.686 22.669 5.946 25.172 9.239 3.805 5.005 13.173 9.426 16.312 10.209 1.148 0.287 1.402 0.576 1.125 2.545-2.24 15.98-7.898 26.597-16.319 29.806-6.201 2.36-15.703 10.08-16.788 17.813z" fill="#0f141b"/>
  </g>
  <g transform="matrix(.33073 0 0 -.33073 72.387 176.71)">
   <path d="m0 0c0.475-3.387-1.427-7.479-4.264-10.375-7.26-7.411-12.211-13.262-10.871-26.129l-1.617-0.59c-1.598 14.883 5.303 21.933 11.335 28.097 3.724 3.805 4.842 8.761 3.294 11.868z" fill="#0f141b"/>
  </g>
  <g transform="matrix(.33073 0 0 -.33073 66.905 172.25)">
   <path d="m0 0c4.227 2.119 9.664 4.295 13.043 5.411 2.61 0.862 3.076 0.476 3.066-1.983-0.013-3.389-1.082-8.019-2.568-12.364l-1.551 1.551c1.383 4.125 2.473 7.53 2.685 10.813 0.043 0.662-0.305 0.855-1.167 0.577-3.281-1.06-7.932-3.011-11.862-5.316z" fill="#0f141b"/>
  </g>
  <g transform="matrix(.33073 0 0 -.33073 57.246 185.87)">
   <path d="m0 0c-4.319-4.51-8.277-13.618-8.053-18.801 0.043-1.006 0.553-1.465 1.899-1.391 3.066 0.169 12.472 3.319 13.355 4.856 1.312 2.287 0.749 12.019-1.876 16.218-1.147 1.836-2.804 1.75-5.325-0.882m-6.112-21.824c-3.085-0.196-3.556 1.31-3.628 2.968-0.239 5.501 3.892 15.431 8.447 20.188 3.366 3.515 6.039 3.898 8.231 0.524 2.812-4.33 3.537-15.522 2.193-18.055-1.117-2.11-10.799-5.344-15.243-5.625" fill="#0f141b"/>
  </g>
  <g transform="matrix(.33073 0 0 -.33073 50.548 192.28)">
   <path d="m0 0c-3.29 0-3.593 2.394-3.747 4.317-0.891 11.12 8.982 23.533 15.393 23.506 3.001-0.011 6.01-5.326 6.404-9.78l-1.607-2.067c-0.112 5.062-2.928 9.599-4.94 9.599-5.17 0-14.346-10.629-13.506-21.125 0.17-2.117 0.496-2.85 2.043-2.85 3.273 0 8.835 1.1 11.551 2.006l-0.112-1.669c-2.848-0.95-8.06-1.937-11.479-1.937" fill="#0f141b"/>
  </g>
  <g transform="matrix(.33073 0 0 -.33073 49.56 190.22)">
   <path d="m0 0c-1.871-0.24-5.133-0.352-6.934-0.141-2.19 0.256-2.826 0.951-2.826 3.135 0 3.345 0.649 10.117 2.11 13.5 1.182 2.738 6.602 8.027 9.849 7.822 2.367-0.14 4.576-4.839 5.058-8.095l-1.622-1.718c-0.31 3.516-1.973 7.54-3.579 7.634-2.32 0.154-6.949-3.813-8.103-6.487-1.404-3.252-2.053-9.298-2.053-12.556 0-1.102 0.44-1.772 1.35-1.828 2.889-0.18 5.162-0.037 6.877 0.238z" fill="#0f141b"/>
  </g>
  <g transform="matrix(.33073 0 0 -.33073 111.86 97.046)">
   <path d="m0 0c-8.186 3.275-18.693-1.389-27.984-12.209l-1.393 1.188c9.999 11.724 21.361 16.168 30.334 12.316z" fill="#0f141b"/>
  </g>
  <g transform="matrix(.33073 0 0 -.33073 111.39 97.187)">
   <path d="M 0,0 C 1.643,1.299 3.217,3.285 3.967,5.086 4.489,6.34 5.518,5.877 5.055,4.598 4.268,2.424 2.58,0.322 0.668,-0.914 -0.607,-1.738 -1.309,-1.034 0,0" fill="#0f141b"/>
  </g>
  <g transform="matrix(.33073 0 0 -.33073 112.21 96.552)">
   <path d="m0 0c-0.159 16.141 4.267 34.74 7.444 43.984 0.642 1.866 0.387 3.422-0.703 4.866-1.041 1.379-2.588 3.629-2.967 5.273l1.462 0.703c0.408-1.644 1.843-3.782 2.883-5.203 1.321-1.803 1.78-3.527 0.959-6.06-2.362-7.292-7.587-29.372-7.741-42.116z" fill="#0f141b"/>
  </g>
  <g transform="matrix(.33073 0 0 -.33073 125.25 67.358)">
   <path d="m0 0c-17.99-3.582-42.891-26.231-49.921-36.993-0.585-0.897-0.169-1.307 1.261-0.911 22.72 6.272 39.67 19.173 48.945 36.788 0.498 0.947 0.365 1.246-0.285 1.116m-51.045-36.314c6.654 11.507 31.704 34.382 50.88 37.687 2.544 0.439 2.819-0.705 1.729-3.065-8.379-18.164-26.562-31.804-49.929-37.59-2.971-0.736-4.031 0.629-2.68 2.968" fill="#0f141b"/>
  </g>
  <g transform="matrix(.33073 0 0 -.33073 125.52 67.048)">
   <path d="m0 0c4.754 5.981 12.548 12.563 20.977 15.401 25.476 8.581 102.43 28.681 122.2 32.366 3.641 0.678 4.899-0.658 3.933-3.292-0.599-1.631-6.688-17.657-8.255-22.987-0.934-3.174-2.03-4.742-5.372-5.512-9.976-2.302-78.184-23.482-94.646-30.973 28.018 1.629 70.318 3.278 85.993 3.192 3.247-0.017 4.613-2.129 3.843-4.056-0.789-1.979-9.947-19.672-11.301-22.113-0.773-1.391-2.223-1.979-3.769-2.179-10.725-1.39-64.924-10.395-80.977-13.57 24.891-2.92 53.916-7.308 64.885-9.713 2.879-0.63 3.157-2.49 1.997-4.345-3.359-5.375-10.753-15.338-14.64-19.954-1.32-1.57-2.329-2.476-5.16-2.476-10.372 0-62.221 1.324-76.768 2.18-1.799 0.105-3.062-0.387-4.949-1.645-2.97-1.98-7.277-5.064-9.689-6.919-1.633-1.257-3.705-2.376-6.216-2.616-1.73-0.164-5.091-0.098-6.258-0.056-0.671 0.025-0.954-0.246-0.956-0.674-0.043-11.453-8.293-23.002-18.566-25.823l-2.117 1.047c10.238 2.663 18.97 14.042 19.08 24.832 0.013 1.255 0.681 2.151 2.559 2.151 0.54 0 4.515-0.146 6.188 0.014 2.253 0.215 3.79 1.439 5.301 2.602 2.427 1.866 6.69 4.998 9.675 6.989 2.38 1.586 4.226 2.076 6.005 1.969 14.534-0.856 66.332-2.404 76.697-2.404 2.075 0 2.836 0.646 3.868 1.883 2.521 3.028 11.16 14.332 14.498 19.673 0.533 0.854 0.5 1.606-0.872 1.899-7.525 1.613-31.234 5.394-68.433 10.622-1.32 0.185-1.287 0.984-0.057 1.275 18.807 4.444 66.807 12.544 84.658 14.977 1.247 0.17 2.156 0.577 2.573 1.327 1.458 2.625 10.217 19.75 10.93 21.539 0.226 0.564-6e-3 1.771-2.067 1.771-9.523 0-62.475-1.938-89.324-3.051-1.488-0.056-1.666 0.696-0.408 1.364 16.045 8.516 84.295 29.217 98.113 32.779 2.369 0.61 3.295 1.725 4.107 4.486 1.577 5.37 7.677 21.159 8.276 22.787 0.363 0.989-0.319 1.879-2.168 1.526-15.846-3.016-98.699-25.068-121.89-32.678-8.358-2.742-16.1-9.685-20.527-15.189z" fill="#0f141b"/>
  </g>
  <g transform="matrix(.33073 0 0 -.33073 113.74 100.71)">
   <path d="m0 0c-1.244 0.549-3.797 2.539-4.416 3.881-0.543 1.177-0.365 3.121-0.057 4.64 0.301 1.473 1.135 1.385 1.016-0.113-0.143-1.771 0.053-3.275 0.363-3.951 0.449-0.973 2.726-2.728 3.713-3.191 1.088-0.513 2.699-0.76 4.34-0.621 1.429 0.12 1.564-0.756 0.152-1.01-1.736-0.311-3.683-0.266-5.111 0.365" fill="#0f141b"/>
  </g>
  <g transform="matrix(.33073 0 0 -.33073 112.41 98.767)">
   <path d="m0 0c2.059 2.089 3.632 3.972 4.33 5.232 0.833 1.497 0.74 2.666 0.24 3.642-0.858 1.673-1.252 4.204-0.658 6.143 0.41 1.335 1.251 1.109 0.988-0.257-0.344-1.793 0.078-3.988 0.851-5.281 0.763-1.277 0.759-3.083-0.239-4.879-0.783-1.412-2.971-4.026-5.245-6.301z" fill="#0f141b"/>
  </g>
  <g transform="matrix(.33073 0 0 -.33073 113.6 100.44)">
   <path d="m0 0c2.572 1.741 3.467 2.972 4.345 4.458 1.344 2.273 4.247 3.656 6.731 3.763 1.623 0.069 1.655-0.808 0.039-1.02-2.045-0.268-4.465-1.393-5.645-3.446-0.955-1.66-2.025-3.02-3.966-4.346z" fill="#0f141b"/>
  </g>
  <g transform="matrix(.33073 0 0 -.33073 99.388 115.36)">
   <path d="M 0,0 C -0.158,2.291 -0.05,3.813 0.231,5.59 0.457,7.021 1.379,6.877 1.24,5.434 1.074,3.704 1.001,1.676 1.021,0 1.042,-1.719 0.118,-1.713 0,0" fill="#0f141b"/>
  </g>
  <g transform="matrix(.33073 0 0 -.33073 122.02 113.63)">
   <path d="m0 0c-6.485 7.994-14.55 7.873-21.126 6.332-2.336-0.549-3.469-0.155-4.527 1.435-4.371 6.557-15.03 11.47-27.562 8.402l-0.333 1.661c12.986 3.176 24.393-1.795 29.273-9.064 0.585-0.871 1.421-1.078 2.84-0.746 6.039 1.416 14.442 1.884 21.016-5.115z" fill="#0f141b"/>
  </g>
  <g transform="matrix(.33073 0 0 -.33073 162.09 63.666)">
   <path d="m0 0c2.464-4.619 7.938-15.644 10.925-22.78l-1.495-0.135c-2.951 6.878-8.316 17.771-10.925 22.347z" fill="#0f141b"/>
  </g>
  <g transform="matrix(.33073 0 0 -.33073 161.71 80.237)">
   <path d="m0 0c-6.202-5.439-19.101-16.39-26.007-21.966l-1.982 0.364c7.838 6.337 19.838 16.387 25.332 21.329z" fill="#0f141b"/>
  </g>
  <g transform="matrix(.33073 0 0 -.33073 148.4 125.41)">
   <path d="m0 0c4.401 1.236 11.657 2.756 15.961 3.094 0.642 0.049 0.995 0.308 1.237 0.998 1.392 3.939 5.541 13.627 8.818 18.73 0.326 0.508 0.104 0.944-0.919 0.454-6.688-3.196-22.976-19.155-25.547-22.489-0.535-0.695-0.113-0.945 0.45-0.787m0.296-1.52c-2.471-0.605-3.754 0.695-1.942 3.305 2.786 4.008 18.073 18.969 26.186 22.477 2.514 1.086 3.783 0.363 2.55-1.838-2.888-5.156-7.134-15.227-8.513-19.134-0.484-1.376-1.087-1.862-2.56-1.969-4.246-0.309-10.786-1.632-15.721-2.841" fill="#0f141b"/>
  </g>
  <g transform="matrix(.33073 0 0 -.33073 87.738 98.292)">
   <path d="m0 0c0.811 2.486 2.186 6.236 2.561 6.236s-0.375-2.625-1.25-5.5" fill="#0f141b"/>
  </g>
  <g transform="matrix(.33073 0 0 -.33073 114.89 113.59)">
   <path d="m0 0c-3.115-1.572-5.1-4.35-5.25-11.1s-15.088-48.687-23.1-60c-2.549-3.599-2.075-5.857-1.8-10.5 1.05-17.699 4.279-59.757 6.001-69.599 0.524-3 2.436-3.787 5.7-3.676 3.261 0.113 13.361 0.889 15.299 1.351 2.363 0.562 3.498 0.798 3.038 4.836-2.025 17.776-0.9 52.764 1.913 63.789 5.736-15.525 16.907-50.763 19.574-59.063 1.013-3.149 3.037-4.612 6.638-3.263 3.6 1.35 14.399 6.975 15.862 7.875 1.463 0.901 2.352 3.15 2.025 5.739-1.238 9.787-6.863 49.162-9 54.337 7.651-7.313 28.725-28.661 33.3-32.625 1.688-1.462 3.179-1.304 4.837 0.562 2.701 3.038 7.538 11.587 8.101 16.2 0.562 4.613-0.46 6.178-2.813 8.662-5.962 6.301-18.45 19.912-21.038 22.388-2.587 2.476-4.837 5.513-6.299 9.45-1.463 3.938-10.463 26.438-14.513 31.5-0.9 25.313-10.362 46.905-12.6 46.575-1.536-0.226-4.926-17.049-4.809-21.548-1.226 1.401-5.982 4.76-8.353 5.141-6.192 0.992-11.815-2.552-12.713-7.031" fill="#595857"/>
  </g>
  <g transform="matrix(.33073 0 0 -.33073 115.48 141.67)">
   <path d="m0 0c-2.025-9.226-3.713-32.962-3.15-44.212 4.162-1.014 13.949-3.264 19.125-4.051-3.489 11.475-13.838 43.426-15.975 48.263" fill="#30363a"/>
  </g>
  <g transform="matrix(.33073 0 0 -.33073 127.09 139.81)">
   <path d="M 0,0 C 2.362,-7.875 6.862,-35.663 7.762,-44.212 11.925,-39.938 21.6,-29.7 25.537,-25.087 19.688,-19.351 8.55,-8.101 0,0" fill="#30363a"/>
  </g>
  <g transform="matrix(.33073 0 0 -.33073 132.35 131.84)">
   <path d="m0 0c1.649-5.85 2.968-8.32 5.486-11.199 3.561-4.069 16.375-18.815 20.164-23.001 1.139-1.259 1.649-3.3 1.35-4.95-0.3-1.651-4.784-12.639-6.75-14.85-1.5-1.688-2.851-1.801-4.65-0.751 2.812-3.637 5.203-3.62 6.636-1.612 3.938 5.513 7.979 13.965 8.327 17.55 0.336 3.488-0.676 5.288-3.264 7.988-2.587 2.7-16.199 17.1-20.475 21.712-2.758 2.976-5.211 5.4-6.824 9.113" fill="#3e3a39"/>
  </g>
  <g transform="matrix(.33073 0 0 -.33073 126.94 139.69)">
   <path d="m0 0c1.913-10.799 6.3-48.373 6.3-54 0-2.024-0.702-2.871-2.25-3.712-3.938-2.138-10.574-5.175-14.287-6.976-1.541-0.748-3.489-0.673-4.838 0.676 0.787-2.926 2.137-5.849 6.525-4.162 4.387 1.688 13.129 6.158 15.637 7.875 2.139 1.462 2.613 3.613 2.25 6.412-1.236 9.563-5.85 45.225-9.337 53.887" fill="#3e3a39"/>
  </g>
  <g transform="matrix(.33073 0 0 -.33073 115.44 141.44)">
   <path d="m0 0c-5.175-13.725-5.063-43.762-4.387-64.237 0.045-1.349-0.77-1.769-2.138-2.025-3.6-0.676-11.362-1.238-15.975-1.238-1.125 0-3.15 1.125-3.375 2.926 0.225-3.375 1.125-6.188 5.176-6.188 4.049 0 13.5 0.563 15.974 1.462 2.475 0.9 3.151 2.238 2.925 5.063-1.35 16.875-1.237 54.45 1.8 64.237" fill="#3e3a39"/>
  </g>
  <g transform="matrix(.33073 0 0 -.33073 114.54 155.34)">
   <path d="m0 0c2.485-0.813 15.044-3.342 18-3.942l1.071-2.956c-5.013 0.942-15.985 2.957-19.199 3.814z" fill="#232528"/>
  </g>
  <g transform="matrix(.33073 0 0 -.33073 134.7 147.35)">
   <path d="m0 0c-3.161-3.822-11.894-13.308-15.81-17.225l0.378-4.389c3.823 3.634 15.103 16.093 17.839 19.348z" fill="#232528"/>
  </g>
  <g transform="matrix(.33073 0 0 -.33073 108.49 165.12)">
   <path d="m0 0c-3.067 0-4.96 1.292-5.473 4.27-1.72 9.995-5.988 55.351-6.474 73.026-0.121 4.397 1.741 7.743 4.086 11.634 5.665 9.401 21.212 46.31 21.037 57.445-0.072 4.51 2.146 8.619 5.946 9.961 1.157 0.408 1.466-0.346 0.398-0.94-2.962-1.65-4.687-4.837-4.629-9.039 0.156-11.281-15.41-48.887-21.115-58.355-2.253-3.74-3.807-6.539-3.694-10.658 0.486-17.647 4.387-62.811 6.103-72.78 0.324-1.884 1.62-2.769 3.815-2.769 2.465 0 12.131 0.451 16.937 1.544 1.157 0.263 1.732 1.135 1.567 2.724-2.079 19.937-0.911 52.849 1.981 65.268 0.288 1.239 0.833 1.175 1.281 0.085 2.533-6.106 18.386-55.699 19.855-59.569 1.033-2.726 2.637-3.611 4.838-2.841 2.297 0.805 13.879 6.638 16.58 8.437 0.962 0.642 1.426 1.95 1.307 3.84-0.557 8.912-6.045 46.006-8.711 55.113-0.355 1.21 7e-3 1.518 0.996 0.622 4.035-3.65 30.211-29.754 33.338-32.434 1.478-1.268 2.554-1.297 3.586 0.084 4.583 6.15 7.915 13.216 8.161 17.402 0.158 2.682-0.292 3.879-1.999 5.682-1.744 1.844-19.56 21.32-22.651 24.256-2.546 2.42-4.512 5.844-5.353 8.271-1.921 5.549-9.725 24.06-14.215 31.465l0.141 3.36c4.975-7.739 13.594-28.325 15.588-34.079 1.005-2.907 3.144-6.008 5.132-7.898 3.114-2.957 20.985-22.129 22.729-23.971 1.951-2.062 2.662-4.037 2.478-7.152-0.262-4.434-3.952-12.152-8.718-18.545-1.778-2.385-3.678-2.277-5.991-0.295-3.158 2.706-27.309 27.435-31.359 31.217 2.816-11.36 7.852-44.563 8.381-53.027 0.154-2.473-0.281-4.155-1.941-5.26-2.735-1.824-14.741-7.748-17.071-8.565-2.941-1.029-5.25 0.139-6.638 3.797-1.477 3.897-16.2 50.425-18.866 57.356-1.744-9.979-3.707-40.053-1.361-62.551 0.219-2.094-0.566-3.957-2.634-4.427-5.163-1.173-15.263-1.704-17.368-1.704" fill="#0f141b"/>
  </g>
  <g transform="matrix(.33073 0 0 -.33073 114.3 136.04)">
   <path d="m0 0c-1.398 1.313-2.043 2.576-1.082 4.877 0.907 2.172 1.883 4.797 2.474 7.465 0.325 1.469 1.297 1.236 0.993-0.237-0.572-2.769-1.246-5.394-2.099-7.716-0.552-1.506-0.301-2.366 0.612-3.246 1.143-1.102 2.429-2.122 4.391-3.212 1.28-0.712 0.67-1.421-0.502-0.89-2.154 0.98-3.746 1.98-4.787 2.959" fill="#0f141b"/>
  </g>
  <g transform="matrix(.33073 0 0 -.33073 124.77 135.68)">
   <path d="m0 0c0.193 1.936 0.221 3.146-0.173 5.311-0.311 1.716-0.731 2.671-1.431 3.87-0.718 1.229-0.087 1.667 0.836 0.585 0.876-1.024 1.669-2.392 2.03-4.258 0.41-2.121 0.281-3.713-0.257-5.686-0.341-1.25-1.136-1.131-1.005 0.178" fill="#0f141b"/>
  </g>
  <g transform="matrix(.33073 0 0 -.33073 122.13 112.18)">
   <path d="m0 0c-0.095-1.52 0.013-2.197 0.682-3.014 4.359-5.338 11.354-23.823 12.426-29.822 0.48-2.68 2.338-2.639 2.493-0.016 1.048 17.594-5.176 41.722-11.269 50.854-0.259 0.387-0.577 0.416-0.737-0.076-1.16-3.557-3.379-14.471-3.595-17.926m-1.903 0.08c0.284 3.79 3.195 15.051 4.255 18.303 0.754 2.322 1.99 1.697 3.045 0.33 6.67-8.631 13.309-35.52 11.396-51.645-0.548-4.619-4.155-4.281-4.892-0.158-1.056 5.912-8.568 23.958-12.853 29.203-1.041 1.274-1.061 2.529-0.951 3.967" fill="#0f141b"/>
  </g>
  <g transform="matrix(.33073 0 0 -.33073 122.02 113.63)">
   <path d="m0 0c-6.485 7.994-14.55 7.873-21.126 6.332-2.336-0.549-3.469-0.155-4.527 1.435-4.371 6.557-15.03 11.47-27.562 8.402l-0.333 1.661c12.986 3.176 24.393-1.795 29.273-9.064 0.585-0.871 1.421-1.078 2.84-0.746 6.039 1.416 14.442 1.884 21.016-5.115z" fill="#0f141b"/>
  </g>
  <g transform="matrix(.33073 0 0 -.33073 120.87 157.89)">
   <path d="m0 0c-6.937 1.243-14.218 2.547-19.224 3.768v1.589c4.898-1.208 11.926-2.586 18.83-3.825z" fill="#0f141b"/>
  </g>
  <g transform="matrix(.33073 0 0 -.33073 135.68 148.36)">
   <path d="m0 0c-2.564-2.908-16.398-17.767-18.141-19.702l-0.266 2.109c1.747 1.932 14.557 15.961 17.114 18.859z" fill="#0f141b"/>
  </g>
 </g>
</svg>
