<?xml version="1.0" encoding="UTF-8"?>
<!-- Created with Inkscape (http://www.inkscape.org/) -->
<svg version="1.1" viewBox="0 0 194.3 138.71" xmlns="http://www.w3.org/2000/svg">
 <path d="m193.76 9.2635q0.21767 0.93574-4.7953 4.0524-4.2142 2.607-6.3649 3.5067l-0.72294-4.935-0.75503-3.2748q1.8171-0.43772 7.0396-0.26272 5.4406 0.17096 5.5986 0.9134" fill="#e4e5e8" stroke-width=".27214"/>
 <path d="m177.11 34.111 1.7467-4.1046 1.3274-3.551q2.5679 0.45334 5.8342 1.4413 4.3005 1.3194 4.1677 2.1717-0.1192 0.85284-5.7722 2.4159-4.9359 1.3631-7.3038 1.6268" fill="#e4e5e8" stroke-width=".27214"/>
 <path d="m129.07 34.78c3.1826-1.0603 7.262-2.3375 7.7383-2.6862 0.47639-0.3486 12.879-20.195 14.517-21.785 1.6402-1.5878 16.866-10.057 17.322-9.9438 0.45363 0.11135 1.8105 4.9685 1.9789 5.3461 2.8108-0.98599 8.9728-2.6521 9.3381-2.5443 0.36383 0.10655 3.0372 12.866 2.7466 15.253-0.29052 2.386-6.3966 19.648-7.6271 20.333-1.2998 0.72468-12.348-0.35551-15.9 0.68956-3.5513 1.0436-14.296 8.3228-15.813 9.2714-1.5187 0.94756-14.772 4.4289-15.621 4.8534-0.84828 0.42289-3.0973 7.522-3.5997 8.4216-0.50089 0.90077 2.8069 5.4762 2.7629 8.6099l-10.265-2.1342-6.5897-11.821c1.0769-4.5927 3.8746-14.521 5.4188-17.818 2.9559-6.3136 16.124-18.854 16.736-18.576 0.61698 0.27802-3.1426 14.533-3.1426 14.533" fill="#dbe5ee"/>
 <path d="m29.432 72.452c-1.3743-0.37922-2.5086-1.6101-2.5086-1.6101 0.99148 2.1646 2.9863 4.3473 4.5864 4.6471 1.499 0.28113 4.5802-0.26351 5.7469-1.9095-2.0553-0.17333-5.5932-0.42505-7.8246-1.1275" fill="#fff"/>
 <path d="m138.9 79.746c-3.778-1.9602-8.9879-6.846-15.92-12.393-1.1419-0.91407-2.548-2.0011-3.4725-2.6366-0.76515-1.4133-4.053-5.145-5.1237-5.8819-1.0707-0.73683-7.9622-4.0727-8.9224-4.2537-0.95747-0.18122-2.0725 0.047-4.9814 0.33427l-18.45 3.5136c-10.474 2.6623-20.549 7.2773-24.621 10.207-0.74037 0.26217-1.5051 0.53949-2.2322 0.80971-3.867-2.4718-3.4844-4.0677-3.8654-6.1664-0.38222-2.0973-1.6774-4.8973-3.041-6.1869l-7.6786-5.4663-9.8604 2.1346s-2.1533 9.9916-1.1025 14.25c0.55117 2.229 1.8064 4.6572 3.283 5.0288 1.4539 0.36597 3.2249 0.34807 4.1755 0.57814 1.7038 0.41418 3.7109 0.74137 6.2804 0.38181 2.5707-0.36105 2.5952-0.92559 5.7472 0.53506-1.4071 3.1281-2.7945 7.3732-2.9618 8.4994-0.34793 2.3528-0.53009 4.6301-0.18234 6.0323 0.11135 0.45555 0.26302 1.0589 0.56715 1.9854-1.4672-0.0637-3.0147-0.13181-3.2751 0.18371-0.25771 0.31526-0.94491 3.0146-1.0471 3.5001-0.13972 0.11079-0.25772 0.23147-0.34736 0.35986-0.43525 0.63504-1.6376 7.6043-0.71061 10.667 0.92542 3.0608 2.6455 7.3241 3.4104 8.1607 0.2841 0.30937 0.44113 0.48086 0.65168 0.95111-0.11978 2.7729-0.3229 6.1596-0.60592 7.0437-0.28395 0.88822-1.3798 5.4116-1.7246 5.8056-0.34362 0.39241 0.58495 1.5782 0.58495 1.5782l6.4795 3.0605c1.3027 0.13747 2.2828 0.0978 2.2828 0.0978l11.675-3.6531c-0.26788-1.3166-2.0078-2.6193-2.5717-2.8059-0.56272-0.1881-2.9688-1.1919-5.449-2.3629-2.4814-1.1696-2.434-2.2284-3.0647-4.6239-0.29094-1.1107-0.52862-3.6475-0.63236-6.0706 0.78008-1.029 1.6625-4.2534 1.787-5.3101 0.85545 0.80001 1.6314 1.3742 2.2149 1.5641 2.3349 0.7551 3.7534 0.0827 4.1754-0.22527 0.20377-0.15113 1.6423-1.7734 3.2216-4.203 0.74684 1.2657 4.5636 4.2693 5.3526 4.5508 0.78906 0.28162 3.9835 0.5439 4.6651 0.45186 0.63132-0.0876 4.4162-1.0344 9.2457-3.3619l1.0944 3.2639c0.23856 0.63046 1.5957 4.2336 2.8319 6.0529 0.03378 1.0001 0.6659 2.9533 0.99534 4.1955 0.32971 1.2449 0.37905 3.6249-0.01059 5.5305-0.38995 1.903-0.78142 3.8048-0.41411 4.2048 0.36459 0.40038 2.1625 1.4781 2.381 1.7181l10.699-3.004 3.2108-2.4548c-0.34458-0.86002-5.4771-1.1608-6.9135-1.6853-0.72662-0.26405-2.5647-6.3335-2.7659-7.0329-0.19994-0.70084-0.80898-4.2594-0.74676-5.7155 0.30526 0.0748 1.6393 0.39001 2.3766 0.42349 0.73996 0.0332 4.727-2.3226 6.2821-4.0421 1.5563-1.721 2.5786-5.2457 2.6334-5.833 0.59683 0.12656 1.5919 0.3721 2.4038 0.20575 0.81034-0.1672 1.7611-1.2282 2.1849-1.7121 0.42223-0.48521 0.55349-1.1843 0.57191-1.586 0.64944 1.0749 1.3016 2.3419 1.5654 2.5932 0.34867 0.33353 2.0169 1.4907 2.5026 1.7851-0.71135 1.2806-2.2376 3.9569-2.3688 4.4883 0.66764 0.20491 1.3296 3.399 1.4551 3.6784 0 0 2.2527-2.4739 3.583-2.0952 0.37617 0.1065 0.33543 0.42158 0.3019 0.81135 1.0527-1.2264 2.5492-4.1382 2.8664-5.1676 0.31688-1.0321-0.0552-2.9094-0.13682-3.1418 0.0601-0.31453 0.0596-1.3597-0.10198-1.7737-0.16304-0.41529-2.082-5.359-2.82-6.1642 0.38473-0.52484 0.9045-1.2849 1.1727-1.8555 0.25027-0.53552-0.43975-2.1675-0.45294-2.8925 5.0012 0.72371 11.616 2.1054 14.563 3.6472 4.3149 2.2583 15.317 9.3633 19.245 11.053l11.418 1.771 0.42678-9.7411z" fill="#8f9294"/>
 <path d="m63.732 28.597c-1.5167-0.39859-17.764-2.7759-18.482-1.1854-0.64215 1.4169 14.962 9.1486 16.349 9.5127 1.2256 0.32762 2.4742-2.1478 2.9055-3.7616 0.43139-1.6138 0.4414-4.2423-0.77271-4.5658" fill="#e4e5e8"/>
 <path d="m61.076 45.44c-1.5568-0.17421-18.296 1.6184-18.63 3.0577-0.37117 1.6001 16.271 5.2008 17.699 5.3611 1.2596 0.14514 2.2124-2.3456 2.4037-4.0047 0.19104-1.6618-0.22229-4.2691-1.4723-4.414" fill="#e4e5e8"/>
 <path d="m77.094 26.481c-0.55015-0.3777-6.1829-3.372-9.7773-4.7476-0.62769-0.2397-4.1441 0.88088-4.5074 1.0778-0.36332 0.19689-5.6446 14.056-5.5636 17.036 0.08347 2.9762 0.0011 8.0726 0.09323 9.2103 0.09063 1.1364 1.3799 7.2826 1.5051 7.6432 0.12638 0.35906 1.2171 2.9573 1.5618 3.1841 0.34348 0.22839 1.5454 0.27855 1.8315 0.22236 0.28425-0.06 12.711-7.3044 13.142-7.428 0.4311-0.12091 5.0385 1.7783 5.8201 1.7436 0.55676 2.1939 0.95607 4.3442 0.91354 4.5715-0.09193 0.49125-3.3644 8.9164-3.8053 9.3227-0.44394 0.40392-2.9518 1.0737-3.1716 1.276-0.22256 0.20272-2.0735 3.6633-3.5254 6.0782-1.4518 2.4149-2.4329 3.7869-2.45 4.212-0.01865 0.42379 1.5092 7.9545 2.9511 9.7351 0.77646-1.2757 1.4597-2.3939 1.4963-2.5422-0.19817-1.7023 2.6735-8.3908 3.2053-9.0698 0.53302-0.68059 4.3973-2.2641 6.7238-2.5628 0.18067 0.1262 0.35089 0.28109 0.50406 0.46676 0.92551 1.0996 5.3542 9.4207 5.6513 10.67 0.29988 1.2483 2.412 7.432 2.4664 8.2292 0.05173 0.7975 0.27724 3.719 0.25416 4.2476-0.02154 0.52987 1.1786 0.25338 1.407 0.14888 0.22714-0.10298 1.9421-2.0331 2.9151-4.1087 0.97575-2.0759 1.2751-10.977 1.0262-13.372-0.24741-2.3943-6.2308-12.893-6.7061-14.151-0.47379-1.2558 2.2629-9.3476 3.0961-12.221 2.5919 2.3957 6.2315 5.7218 6.4314 5.5847 0.34119-0.23419-0.55711-18.013-1.1924-19.67-0.63648-1.656-20.264-22.415-20.622-22.288-0.4015 0.13948-1.4011 6.0994-1.6753 7.503" fill="#dbe5ee"/>
 <path d="m64.506 33.162c0.43139-1.6138 0.43086-4.0708-0.78326-4.3942-0.35987-0.096-1.5717-0.20822-3.2052-0.32015-0.77638 2.1259-1.6027 4.5349-2.2299 6.6314 1.6969 0.82014 2.9868 1.4082 3.3493 1.504 1.2253 0.32491 2.4377-1.8071 2.8691-3.4209" fill="#edf2f8"/>
 <path d="m62.548 49.855c0.19254-1.6606-0.16349-4.0918-1.4104-4.2344-0.41755-0.0482-1.902 0.0371-3.8491 0.19605 0.0034 1.5008 0.01062 2.7483 0.051 3.2436 0.04363 0.55946 0.37674 2.3244 0.72136 4.0222 1.0912 0.32932 1.8737 0.54164 2.1462 0.57078 1.2584 0.14675 2.1496-2.1393 2.341-3.7984" fill="#edf2f8"/>
 <path d="m58.492 53.619-0.90661-0.13518q-0.70231-3.5449-0.79763-4.4752l-0.04516-3.3117 0.86359-0.1255 0.04038 3.4204q0.09054 1.0391 0.84543 4.6272" fill="#89959d" stroke-width=".27214"/>
 <g>
  <path d="m63.722 28.767c-1.2142-0.32346-2.4562 1.8738-2.9036 3.5512-0.44743 1.6774-0.47802 4.1984 0.74907 4.5272 1.2253 0.32493 2.4564-1.8834 2.9021-3.5524 0.44565-1.669 0.46806-4.2014-0.74757-4.526" fill="#dbe1e7"/>
  <path d="m64.506 33.162c-0.2304 0.86422-0.90461 2.0019-1.6074 1.8134-0.70707-0.18939-0.72482-1.5044-0.49082-2.3732 0.23098-0.87116 0.90882-2.001 1.6074-1.8134 0.69711 0.18641 0.71971 1.5078 0.49082 2.3732" fill="#fff7ab"/>
  <path d="m60.208 53.646c-1.2623-0.14488-1.6063-2.5666-1.4119-4.2355 0.19312-1.6675 1.0937-3.9436 2.3421-3.7999 1.2472 0.14527 1.6044 2.5749 1.4107 4.2371-0.19015 1.6575-1.0814 3.9435-2.341 3.7984" fill="#dbe1e7"/>
  <path d="m62.548 49.855c-0.10405 0.88817-0.60225 2.1113-1.3276 2.0258-0.72506-0.083-0.93473-1.3828-0.82861-2.2768 0.10342-0.8936 0.60798-2.1093 1.3276-2.0258 0.71542 0.0827 0.93111 1.3874 0.82861 2.2768" fill="#fff7ab"/>
 </g>
 <path d="m170.69 84.126s0.055-2.9427 0.34368-3.0239c0.11559-0.0339 1.3213 2.3575 2.8858 5.529 0.0284-0.66248-0.0312-16.59 0.35545-16.764 0.38541-0.17197 2.5373 4.8507 2.5373 4.8507s0.94269-8.5848 1.0508-8.8637c0.10805-0.27885 0.61257-1.0166 0.70475-3.0969 0.0907-2.0815 0.0577-3.5046 0.65184-4.0481 1.3558-1.242 1.8803-3.9941 2.1691-4.0753 0.28719-0.0824 2.1934 6.1619 2.6005 9.8756 0.40589 3.7152 1.7324 10.221 1.6372 12.395-0.0948 2.1767-0.55253 19.124-0.43429 20.742 0.11982 1.6178-0.14985 6.8416-0.26294 8.1415-0.091 1.0541 1.1256 6.7776 0.79183 7.9022-0.33404 1.122-5.4148 2.7325-5.9072 2.8687-1.7316 0.48035-3.7945 1.6044-4.7977 1.7072-3.3188 0.34117-6.7508 1.371-8.3264 1.4159-1.328 0.0371-11.521-6.1966-16.387-7.6405-2.6743 0.30837-4.9979 0.59707-5.1011 0.39196-0.1357-0.27283 1.0029-1.744 2.2016-3.0738-0.50363-0.0206-7.4208-0.55261-7.4531-0.73891-0.0726-0.41742 4.2378-2.4326 9.9666-4.248 5.7273-1.8167 7.76-1.0378 8.519-1.5562 0.75632-0.51807 1.2159-1.5996 1.7824-4.0103 0.21782-0.92596 0.25039-2.0779 0.31397-2.9711-2.5616-1.354-18.348-10.25-19.766-12.52-1.4195-2.268-3.5235-7.6147-2.8172-8.1257 0.48691-0.35256 9.4117 7.6831 10.322 8.6762-0.92534-2.2944-2.88-7.1777-2.4982-7.5127 0.7597-0.66816 8.5857 9.3478 9.5658 10.242 0 0-0.83574-4.8868-0.60619-4.9337 0.31561-0.0624 2.6792 2.1865 2.7138 2.1894 0.59346 0.0253 1.1882 0.22893 1.1882 0.22893 0.0308-0.72458-0.76885-4.4962-0.94687-5.9508-0.17798-1.4546-0.61073-5.3315-0.24252-5.4383 0.36577-0.10379 9.8746 7.336 13.246 11.435" fill="#dbe5ee"/>
 <path d="m170.69 84.126c0.56029 0.68143 3.2901 11.54 3.666 12.003 0.72105 0.88546 5.3258 6.1113 5.3258 6.1113s-0.0405-3.4151-0.28949-4.1845c-0.2502-0.76784-8.0714-17.036-8.3587-16.954-0.28872 0.0812-0.34368 3.0239-0.34368 3.0239" fill="#fff03e"/>
 <path d="m117.22 89.307c-0.50416 1.1594-2.4441 2.9353-3.6991 3.5601-1.252 0.62717-4.9604 1.2822-5.1425 1.2757-0.17927-8e-3 -0.57503-0.34326-0.3346-0.60571 0.23771-0.26215 2.684-4.2553 3.0166-4.8511 0.24976-0.0135 0.5074-0.0185 0.7738-0.0188 1.1102 4e-3 3.0209 0.29463 5.3858 0.63974" fill="#dbe5ee"/>
 <path d="m26.248 69.785c-19.973-11.375-25.897-17.792-25.942-18.46-0.063154-0.95688 18.949 7.2228 24.507 9.5594 0.10773-0.95177 0.31308-1.5797 0.53877-2.4131-3.0843-1.8873-7.78-5.2019-7.4842-6.0586 0.18246-0.54009 6.3387 1.2363 9.1662 2.2864 0.77348-1.3496 1.5344-2.4011 2.4369-3.2614-6.3502-4.3745-20.809-14.562-20.576-15.336 0.12353-0.41932 9.564 1.5527 27.242 10.851-1.3915-3.0169-2.68-6.1171-2.5839-6.3684 0.1191-0.31445 6.434 3.251 9.4794 6.3542 3.0469 3.1043 4.2045 5.699 4.5735 6.9874 0.36783 1.29 0.57889 5.9518 0.11575 6.0448-0.42942 0.0877-4.6192-4.9688-6.9106-5.9185-2.2926-0.94816-5.1772 2.0021-6.9744 4.2561-1.0046 1.2621-3.3344 5.8998-1.7154 7.6682 2.1273 2.3199 8.9565 3.7856 9.0484 4.1074 0.09219 0.32452-3.4392 3.4561-4.604 3.4058-2.4447-0.10802-5.8125-0.46847-8.099-1.5204-1.0255-0.47422-1.7176-1.2751-2.2175-2.1846" fill="#dbe5ee"/>
 <g fill="#e4e5e8">
  <path d="m95.433 131.01c0.39642 2.4362 0.27972 5.3914 0.02738 5.5261-0.39429 0.21419-2.3895-2.4024-5.7262-5.1603-1.0897-0.90221-0.11774-2.7841 0.92297-3.4928 0.94721-0.64985 2.5446-1.0914 3.5367-0.15333 0.27849 0.26057 0.60549 0.68036 0.79418 1.1874 0.90704-1.4185 2.6429-2.4967 3.4792-2.3057 0.51483 0.1181 1.193 0.4742 1.9841 1.4079 0.40492-0.44476 1.97-2.2327 3.1922-2.1024 1.2222 0.13024 2.5003 3.0571 2.7526 3.8069 0.3388 1.0131 0.80358 4.1763 0.41047 4.3889-0.39429 0.21419-3.6965-2.9968-4.7467-3.5794 1.4845 2.906 1.7323 4.9088 1.4878 5.2075-0.24211 0.2956-5.5578-3.4671-8.1147-4.7309"/>
  <path d="m58.122 130.95c0.63966-1.5224 2.5108-3.8261 3.0877-3.8017 3.5047 0.15388 4.8004 7.8871 4.3742 8.278-0.42651 0.38819-4.3016-2.4768-7.3752-3.1829 0.25914 2.7239-0.0419 6.0354-0.57654 6.1874-0.74447 0.21456-3.113-3.9798-5.774-6.6298-0.54291-0.54197 1.1001-3.601 1.5575-3.8513 0.42047-0.22544 2.9004-0.93449 4.1858 1.4092 0.23087 0.41985 0.40134 0.97161 0.52051 1.5911"/>
  <path d="m43.82 128.91c-0.45004 0.96087 1.1291 9.2369 1.6934 9.4263 0.56272 0.1881 3.843-5.2618 4.4781-6.7878 0.64085-1.5239-0.93896-4.6139-2.1546-4.8301-1.2155-0.21617-3.5644 1.2278-4.0169 2.1916"/>
  <path d="m111.42 108.08c-0.80826-0.0899-3.0007 7.0714-2.7558 7.2191 0.63877 0.384 3.8627-2.7576 4.0549-3.0214-0.0265 1.5042 0.72627 4.4722 1.035 4.6606 0.57565 0.34869 3.8389-6.9726 2.688-7.5464-1.316-0.6606-3.6068 2.2708-3.6068 2.2708-0.12547-0.27951-0.607-3.4929-1.4153-3.5828"/>
  <path d="m83.659 103.54c-0.0053 0.54035-0.30409 1.8134-0.52231 2.5444-0.18315-0.9733-0.30032-1.2044-0.82838-1.4733-0.36894-0.18701-1.7699-0.59476-2.6917-0.51364-0.73838 0.0642-1.0157 0.63986-1.1042 0.8011-0.21856 0.39316 0.15327 0.71305 1.0449 2.9167 0.94058 2.3188 1.5088 5.4385 1.819 5.3891 0.51945-0.18874 1.5918-3.8044 1.7531-5.5808 0 0 4.4951 4.1631 4.8156 3.8681 0.58867-0.54278-1.0386-4.5846-3.4022-7.3238-0.1504-0.17365-0.65371-0.51416-0.88375-0.62783"/>
 </g>
 <path d="m168.22 99.771c-0.0859 1.0304-0.15098 4.3792-0.0753 4.5478 0.0756 0.16849 0.93058 2.3035 1.6345 3.4587 2.052 1.2697 5.0845 3.1478 5.904 3.8627 0.14966 0.13115 2.0334 0.18547 3.1205 0.31196-0.2023-0.853-1.5692-2.9265-1.7945-3.2975-0.22558-0.37376-0.41851-1.4681-1.0564-3.4235-0.63666-1.9568-1.4451-2.8378-2.746-3.3778-0.69055-0.28468-2.8782-1.1446-4.989-2.0766" fill="#fff"/>
 <path d="m176.33 106.43c-0.10557-0.35733-0.22514-0.75287-0.36959-1.1978-0.63819-1.958-1.4451-2.8378-2.746-3.3778-0.69053-0.28468-2.8767-1.1434-4.989-2.0766 2.9e-4 3e-3 -8.6e-4 4e-3 -5.8e-4 7e-3 0.15833 0.44603 2.0201 4.9156 2.38 5.1791 0.33147 0.2435 4.7115 1.2033 5.725 1.466" fill="#0f141b"/>
 <path d="m171.64 103.97c0.24725 0.11995 3.1822 1.3885 4.5148 1.8824-0.0582-0.19656-0.12473-0.40456-0.19545-0.6258-0.63666-1.9568-1.4451-2.8378-2.7471-3.3763-0.51912-0.21508-1.8913-0.75524-3.4372-1.4086 0.40791 0.95713 1.6021 3.4034 1.865 3.5284" fill="#fff03e"/>
 <g fill="#fff">
  <path d="m171.25 108.69c7e-3 -0.16426-0.26204-2.8568-0.4691-2.866-0.20708-9e-3 -1.5838 1.1226-1.965 1.3545z"/>
  <path d="m174.13 110.52c-0.065-0.37435-0.0397-2.8576-0.24519-2.8656-0.20709-9e-3 -1.7314 1.1162-1.9928 1.436z"/>
  <path d="m177.12 111.78c0.0111-0.24718-0.48483-2.7996-0.64488-2.8898-0.16274-0.0899-2.0263 1.8134-2.0263 1.8134l1.21 0.92136z"/>
  <path d="m79.727 93.263c-0.08393 0.28568-1.3174 2.4379-1.5891 2.8701 0.71798 0.70315 3.2604 2.5717 4.0215 2.7053 0.7611 0.13377 4.2918 0.0471 5.392-0.0353-0.55788-0.26556-2.7831-1.3574-3.7303-2.2746-0.94752-0.9199-2.3206-3.1904-2.6344-3.8067-0.52545 0.19629-1.4596 0.54114-1.4596 0.54114"/>
 </g>
 <path d="m99.787 99.872c0.88172-0.0957 1.8509-0.25506 2.5174-0.45517 0.66496-0.20132 1.8069-0.59061 2.7773-0.99041 0.96769-0.3995 1.1145-0.62787 1.3143-0.80187 0.32742 0.0407 1.9928 0.14328 2.5051 0.16842 0.32971 0.67082 0.66899 1.2334 0.75842 1.3784-0.24849 1.1135-0.48719 1.2714-0.62344 1.4244-0.13746 0.1545-1.1227 1.2867-1.9759 1.6071-0.85198 0.31893-2.3279 0.0118-3.4424-0.5085-1.1121-0.52337-3.8309-1.8222-3.8309-1.8222" fill="#dbe5ee"/>
 <path d="m49.616 132.24c-5.0271 0.18707-5.8998-3.1078-5.8998-3.1078s2.6568-2.7813 4.1197-2.4204c1.4641 0.35931 2.3478 3.451 2.3285 3.857-0.01661 0.40568-0.5484 1.6712-0.5484 1.6712" fill="#c6c8cb"/>
 <path d="m43.538 129.52q-0.049-0.12474 0.12189-0.29429 0.1443-0.18434 0.1945-0.0868 0.58635 1.2244 2.3443 2.1324 1.7981 0.92346 3.478 0.82021 0.12294-8e-3 0.11279 0.22288-0.03734 0.2299-0.16029 0.23812-2.2183 0.27027-4.0891-0.86069-1.5665-0.9269-2.0021-2.1719" fill="#89959d" stroke-width=".27214"/>
 <path d="m53.416 127.95c-0.29857 0.10294-1.8499 2.9317-1.6633 3.5159 0.10579 0.33531 0.83835 0.98599 0.83835 0.98599s1.8046 0.62235 3.0365 0.4054c1.2275-0.21783 2.6158-0.90181 2.6158-0.90181s-0.24055-2.2508-1.1479-3.2399c-0.90586-0.98787-2.2833-1.239-3.6794-0.7656" fill="#c6c8cb"/>
 <path d="m52.535 132.15q1.673 0.6728 3.2772 0.43003 1.1249-0.18211 2.3262-0.86482 0.11174-0.0632 0.19973 0.10412 0.10099 0.1815 0.01644 0.24589-2.6648 2.0621-6.0154 0.51202-0.10756-0.032-0.0022-0.25888 0.07753-0.21451 0.19808-0.16836" fill="#89959d" stroke-width=".27214"/>
 <path d="m61.21 127.14c-0.67909-0.0418-2.1633 1.9239-2.91 3.5189l-0.05678 1.2879s5.2069 0.36233 5.428-3.1557c0 0-1.5385-1.5937-2.4612-1.6512" fill="#c6c8cb"/>
 <path d="m58.253 131.58q2.298 0.0874 3.8015-0.96343 1.2789-0.89722 1.384-2.0503 0.03256-0.12115 0.17328-0.22392 0.12772-0.11697 0.13594 6e-3 0.19184 1.8335-1.3803 2.8949-1.5727 1.075-4.013 0.81794l-0.11219-0.23648q-0.098-0.24947 0.01075-0.24469" fill="#89959d" stroke-width=".27214"/>
 <path d="m91.048 127.55c-1.2553 0.37073-2.2806 2.3384-1.5553 3.4761 0 0 1.5205 0.69481 3.1668 0.21331 1.6449-0.48274 2.5695-1.3649 2.5695-1.3649s-0.13967-3.5136-4.1811-2.3245" fill="#c6c8cb"/>
 <path d="m89.496 131.31q-0.12175-0.019-0.13938-0.23767-0.0052-0.19091 0.11652-0.17194 1.7369 0.45768 3.4204-0.0404 1.1456-0.34464 2.0887-1.0387 0.08455-0.0644 0.18733 0.0763 0.10158 0.1679 0.0022 0.25888-0.67237 0.73319-1.9587 1.1806-1.8674 0.65343-3.7171-0.0271" fill="#89959d" stroke-width=".27214"/>
 <path d="m97.844 126.62c-0.33599 0.088-1.8146 0.8827-2.8543 2.2944l0.32539 1.4706s3.4687 0.92851 5.3667-1.9428c0 0-1.2298-2.2306-2.8378-1.8222" fill="#c6c8cb"/>
 <path d="m95.392 130.1q1.1837 0.33804 2.5888-0.0224 1.6398-0.43189 2.469-1.6349 0.0857-0.0916 0.2175 0.01 0.13176 0.10113 0.072 0.22108-0.65668 1.3059-2.1765 1.7976-1.5328 0.47746-3.2963 5e-3 -0.12115-0.0326-0.05841-0.22049 0.06214-0.17433 0.18389-0.15536" fill="#89959d" stroke-width=".27214"/>
 <path d="m100.42 127.7s2.309-2.1507 3.3633-1.7718c1.0555 0.37736 1.4858 1.505 1.4858 1.505s-0.67937 2.0379-3.8782 1.7129z" fill="#c6c8cb"/>
 <path d="m101.42 129.39q-0.0816-4e-3 -0.16896-0.18449-0.0738-0.18031 0.035-0.17553 1.1667 0.10575 2.2207-0.32464 1.1096-0.45519 1.6928-1.3285 0.0592-0.10636 0.17553 0.035 0.11637 0.14131 0.0442 0.23348-0.63232 1.0618-1.7284 1.5176-1.0824 0.45638-2.2709 0.2271" fill="#89959d" stroke-width=".27214"/>
 <path d="m116.88 110.03c-1.7194 1.6161-4.229 1.9715-4.229 1.9715-1.3497-1.0742-1.845-2.2781-1.9533-2.7066l0.68469-1.154s0.73562 0.58165 1.2686 3.8606c0 0 2.0832-2.1921 3.0703-2.5293 1.2459-0.45206 1.1586 0.55781 1.1586 0.55781" fill="#c6c8cb"/>
 <path d="m112.45 112.11q-0.90288-0.53-1.4946-1.632l-0.45519-1.1096q-8e-3 -0.13653 0.12952-0.15775 0.15192-0.0478 0.16014 0.0751 0.10442 0.4132 0.55094 1.1002 0.52271 0.81294 1.1513 1.3854l-0.0421 0.33865" fill="#89959d" stroke-width=".27214"/>
 <path d="m112.76 112.16 8e-3 -0.17672 0.18568-0.19614q0.75723-0.18465 1.6883-0.60683 1.2361-0.54497 2.0852-1.2704 0.0987-0.0774 0.17433 0.0621 0.0898 0.12653-0.01 0.21751-1.0094 0.96354-2.2733 1.5209-1.1108 0.48237-1.8585 0.44952" fill="#89959d" stroke-width=".27214"/>
 <path d="m43.718 47.589s-1.4046 0.42219-1.4604 0.90517c-0.0558 0.48298 2.4683 1.3908 3.896 2.007z" fill="#edf2f8"/>
 <path d="m44.202 47.462q1.3894 1.5456 2.3899 3.2649-0.87345-0.26992-1.2853-0.50594-1.0012-1.3924-2.0941-2.5573l0.98952-0.20168" fill="#89959d" stroke-width=".27214"/>
 <path d="m78.432 104.82c-0.0407 0.15987-0.1377 0.75058 0.26077 1.1828 0.39756 0.43643 3.2385 1.0291 4.2596 0.31761 0 0 0.02607-1.1965-0.45682-1.4789-0.48138-0.28122-2.0235-0.81834-2.7529-0.77168-0.73213 0.047-1.2785 0.62333-1.3106 0.75063" fill="#c6c8cb"/>
 <path d="m78.867 106.4 0.68895 1.4193 3.2327-1.3654s-1.3484 0.37317-2.2055 0.21748c-0.85822-0.1541-1.7163-0.2713-1.7163-0.2713" fill="#c6c8cb"/>
 <path d="m78.361 106.07q-0.07858-0.0716 0.01075-0.24469 0.10292-0.17254 0.1815-0.10099 0.70958 0.58961 2.0536 0.68953 1.4114 0.1165 2.1729-0.47657 0.09814-0.0638 0.22572 0.1325 0.11339 0.20929 0.02884 0.27367-0.6522 0.58426-1.8284 0.69601-1.5173 0.12401-2.8449-0.96946" fill="#89959d" stroke-width=".27214"/>
 <path d="m83.775 103.7-0.6232 2.5629-0.0231 1.3541s4.5544 4.5354 4.9608 4.2003c0.40802-0.33388-0.41974-2.9623-1.5513-4.935-1.1288-1.9731-2.7632-3.1822-2.7632-3.1822" fill="#c6c8cb"/>
 <path d="m79.403 107.47 1.7351-0.74097 1.256-0.0674 0.29682-0.24574 0.26904-0.23335 0.17567-0.2783q0.1195-0.23991 0.16088-0.25172l1.8256-0.94129q0.11114-0.0496 0.32551 0.34119 0.18718 0.38959 0.07664 0.42559l-2.4535 1.2814-3.31 1.5571q-0.05497 0.0112-0.35779-0.84655" fill="#89959d" stroke-width=".27214"/>
 <g fill="#b7c0c9">
  <path d="m151.43 112.25c1.0758 0.55358 12.58 6.1302 14.887 7.4995 0 0 8.0977-1.5903 9.2834-1.622 0 0 6.6128-2.4169 7.3883-2.7201 0 0-5.3074-0.4001-6.7511-0.21105-1.4464 0.18939-6.4509 0.56203-6.4509 0.56203s-1.2764 0.19873-3.178-0.72975c-1.9058-0.92936-8.4637-3.6677-9.0556-3.608-0.59495 0.0573-6.3598 0.48154-6.3598 0.48154z"/>
  <path d="m157.62 74.784c0.63062 1.0428 5.0967 7.154 5.7165 8.4494 0.61859 1.2969 3.6747 10.642 3.6747 10.642s0.59692 1.802 1.9919 2.7914c1.3926 0.99241 4.5969 3.0761 5.0901 3.4356 0.49041 0.35985 3.4208 2.9405 3.8788 4.0581 0.45791 1.1175 2.1232 5.5863 2.5214 6.1119 0.3994 0.52412 3.5782 3.1985 4.9026 3.8486 0 0-0.27424 0.49431-0.95992 0.71861l-4.8603-2.9181-0.59075-0.0257-2.3305-4.6644s-0.85026-3.7575-2.244-4.7484c-1.3937-0.99091-9.5611-3.6323-10.452-4.5148-0.89133-0.88515-6.2345-10.342-7.3244-12.239-0.92838-1.6143-0.7627-1.8943 0.58338-1.7494l1.3472 0.14336z"/>
  <path d="m165.34 98.595c-0.0366 0.85298-0.0538 4.3406 0.29766 4.9376 0.34873 0.59721 1.6247 2.7388 1.6247 2.7388l1.5282 0.98921 0.32368-0.32694s-1.1661-2.2737-1.1782-2.786c-0.0125-0.51497 0.25648-4.298 0.25648-4.298z"/>
  <path d="m174.44 70.219c-0.21285 0.0602-0.3281 2.4177-0.5005 4.3136-0.16943 1.8956-0.14961 11.546-0.14961 11.546l4.1008 8.4082s0.19685-5.523 0.0445-6.0604c-0.15385-0.53856-0.59088-3.6994-0.39846-5.0619 0.19247-1.3625 0.20631-1.6718 0.58207-4.1774 0.3757-2.5056 1.5652-10.508 1.6406-12.232 0.0757-1.7213 0.58274-10.285 0.58274-10.285s-0.64313 1.564-1.2861 2.113c-0.64322 0.54629-0.46214 4.4918-0.5237 4.889-0.0618 0.39441-0.30862 1.9775-0.63389 2.3622-0.32677 0.38361-0.62801 4.2198-0.6559 4.8383-0.0279 0.61848-0.39314 3.9209-0.39314 3.9209s-2.2752-4.613-2.4095-4.5743"/>
  <path d="m153.29 84.484c0.60662 1.2406 3.9327 8.4523 5.8257 10.633l1.4134 0.50384 0.4322-2.3006s-5.463-8.8493-4.8982-9.1572c0.56512-0.30521 1.5561-0.26242 1.5561-0.26242s-2.758-2.5496-2.8812-2.2238c-0.12744 0.32504 0.6719 4.7765 0.6719 4.7765z"/>
  <path d="m79.886 93.026-1.717 2.9165s3.1466 2.8484 3.9372 2.976c0.78791 0.12788 5.1923-0.10029 5.1923-0.10029l-3.3609-2.203s-2.2984-3.0446-2.6254-4.1347z"/>
  <path d="m82.886 69.909c0.41488-0.0229 1.8709 0.26591 2.1315 0.59856 0.26068 0.33264 4.499 10.429 4.4741 10.979-0.02331 0.55066-0.93614 2.5288-0.93614 2.5288s-4.1464-8.0281-5.0381-8.6179c-0.89024-0.58862-6.7135 2.4133-6.7135 2.4133s-2.694 5.9869-3.151 9.0883l-0.99639 1.7886s-1.4933-6.3083-1.1601-9.1358c0.14559-1.2322 0.87673-2.2088 1.2139-2.5621 0.33594-0.35168 5.8406-3.4613 6.5874-3.7036 0.74376-0.2447 3.127-3.3516 3.5883-3.3772"/>
  <path d="m111.09 88.993c0.25294 0.27722 1.8642 1.9903 4.2452 2.405 0 0-2.0662 1.5969-2.5657 1.841-0.50056 0.24561-4.8531 1.296-4.8372 0.94396 0.0156-0.35476 3.1576-5.19 3.1576-5.19"/>
  <path d="m91.521 53.026c-0.02286 0.50667-1.3426 14.037-0.92508 14.492l3.6544-12.121z"/>
  <path d="m78.754 44.253c-0.15838 0.28324 0.3527 3.5028 0.3527 3.5028l2.0369 6.6291-5.5936-1.6967s-12.89 7.281-13.182 7.342c-0.29391 0.0599-1.8856-0.0829-1.8856-0.0829s1.612-1.965 2.2638-3.6082c0.6549-1.6409 1.4838-4.0035 1.4838-4.0035s7.8464-3.2877 8.0644-3.2798c0.2182 0.011 2.3649-2.5843 2.3649-2.5843z"/>
  <path d="m78.774 18.898 2.2076 9.3246-0.61587 0.7725-2.095-1.9074-1.2804-0.63722z"/>
  <path d="m178.78 30.888c-1.0989 0.63293-6.802 2.0376-6.802 2.0376l-6.3322-2.0295s-8.6502-0.18395-9.0434-0.10446c-0.39297 0.0822-5.5349 4.2338-5.5349 4.2338l-4.3807 2.2402-9.1625 7.0893-11.003 2.4373-11.153 12.548 3.4974 4.529 7.8932 6.3783s-0.36143-2.8372-1.075-4.3277c-0.7121-1.4894-1.5939-3.5719-1.5939-3.5719s3.1813-8.2266 3.5865-8.5972c0.40487-0.37334 14.787-4.4127 15.681-4.8602 0.89642-0.44625 15.118-9.7477 16.482-9.7852 1.3623-0.0369 15.272-0.0132 15.382-0.3004 0.11129-0.28609 3.5588-7.9169 3.5588-7.9169"/>
  <path d="m149.47 107.17c-1.6012 0.30056-9.3599 1.5414-9.3599 1.5414l7.1992 0.69247z"/>
  <path d="m17.804 52.355c-0.14724 0.20094 0.36632 1.1212 1.3695 1.8562 1.0047 0.73618 6.095 4.4135 6.095 4.4135s0.88518-2.8649 1.9024-3.9938c1.0169-1.1317 0.14724-0.20093 0.14724-0.20093"/>
  <path d="m27.595 71.779s2.2726 3.347 3.7129 3.6184c1.4388 0.27019 4.5803-0.49012 5.7337-1.5455l-0.26383-0.28834s-3.4419-0.28881-4.8807-0.55901c-1.4403-0.2714-4.3021-1.2256-4.3021-1.2256"/>
  <path d="m0.36258 51.385c-0.012251 0.27609 19.631 11.284 24.717 13.513 0 0 0.42877 4.0338 1.4212 5.0462 0 0-9.6382-5.5366-15.614-9.5298-5.9754-3.9932-10.822-8.5583-10.524-9.0292"/>
  <path d="m9.1091 36.288c1.1412 0.74108 23.495 13.019 23.495 13.019l-3.014 2.1822s-5.1041-3.4024-11.404-7.8925c-8.7759-6.3278-9.0766-7.3082-9.0766-7.3082"/>
  <path d="m24.945 61.169c0.08327-0.21969 3.1371 1.4019 6.7541 2.0072 0 0-1.0637 2.1836 1.7666 3.7951 2.8302 1.6115 7.6143 2.7887 7.6006 3.1597-0.01915 0.37163-1.2369 2.2899-4.29 3.4385 0 0-6.924-0.50845-8.9395-2.0103-2.0167-1.5003-3.5486-5.5847-2.8917-10.39"/>
 </g>
 <g fill="#636465">
  <path d="m168.23 100.34s-0.41233 3.8613-0.2442 4.2018c0.16699 0.34204 1.1135 2.3896 1.1135 2.3896s1.5249-1.0609 1.6416-0.96575c0.11818 0.0963 0.5183 2.7202 0.5183 2.7202l0.58798 0.42006s2.0079-1.5792 2.1218-1.4247c0.1157 0.15839 0.0596 2.7922 0.0596 2.7922l0.23486 0.19141s1.9254-1.795 2.1326-1.6649c0.206 0.13154 0.63776 2.756 0.63776 2.756l1.6984-0.0164-1.4164-2.9702-0.98962-2.3159s-5.7294-1.3117-5.9036-1.5018c-0.17423-0.19012-2.1926-4.6115-2.1926-4.6115"/>
  <path d="m100.84 78.673c5.0417 0.82482 13.121 2.1593 17.003 3.6459 3.883 1.4866 15.782 5.529 17.588 6.8131 1.8095 1.2866 16.661 11.488 21.388 13.991 0 0-3.7234 0.0594-5.8402 0.84489 0 0-17.661-9.9871-20.12-11.41-2.4613-1.4246-16.178-3.7807-19.357-3.8097-3.18-0.0291-6.1775 0.8259-7.1577 0.67341-0.98295-0.15223-3.9022-6.0922-3.8838-6.531-0.35201-1.9894 0.37966-4.2174 0.37966-4.2174"/>
  <path d="m159.11 95.121c-0.251 0.50539-0.41887 6.113-1.6021 8.1647 0 0 1.2569-0.17725 1.6905-1.1733 0.43396-0.99333 1.3496-4.6102 1.3249-6.4876z"/>
  <path d="m100.84 78.673c-0.88648-0.13729-3.321 0.22607-3.8662 0.20214 0 0 1.3323 3.411 1.214 4.342-0.11839 0.93101-0.58843 9.8763-1.1849 11.022-0.59523 1.1437-2.1267 4.0375-2.1267 4.0375l0.63998-0.35913s1.1524 2.1544 1.4644 2.168c0.31193 0.0139 7.2044-0.69795 9.0647-2.175 1.8572-1.4796 4.397-4.2528 4.397-4.2528s-2.3724 0.77228-2.5192 0.52269c-0.14556-0.25111 3.2036-5.4837 3.2036-5.4837s-6.1401 0.99609-6.7824 0.72503c-0.64497-0.27069-3.9182-5.7896-3.8838-6.531 0.0356-0.74297 0.37967-4.2174 0.37967-4.2174"/>
 </g>
 <path d="m96.971 78.877c-0.48505 0.36882-1.0409 1.7236-2.1935 2.0084-1.341 0.32975-4.1326-0.0241-5.4531-0.16094 0 0 0.13008 0.63057 0.0293 1.0926-0.09625 0.46564-0.80473 2.202-0.80473 2.202s1.072 2.4108 1.3485 3.2046c0.27892 0.79064 2.1128 6.9554 2.1779 7.2707 0.06472 0.31257 0.48658 4.9324 0.48658 4.9324s0.6932 0.18822 1.3429-0.40962c0.64996-0.59513 2.8106-3.6202 3.0953-4.7763 0.28326-1.1574 1.2553-10.862 1.0802-12.196-0.17512-1.3341-1.1094-3.1674-1.1094-3.1674" fill="#b7c0c9"/>
 <g fill="#636465">
  <path d="m116.34 94.229c0.0191-0.46778-0.68249-2.2125-1.0172-2.8306 0 0-1.6853 1.3622-2.1262 1.601-0.4394 0.23998-2.7577 0.65858-2.7577 0.65858l-3.9899 3.9822s5.2814 0.36461 5.9108 0.23612c0.62786-0.12976 3.9802-3.6474 3.9802-3.6474"/>
  <path d="m87.349 81.42c-0.35498 0.99943-2.5826 3.7863-3.3954 4.5306-0.81275 0.74429-3.4556 2.3442-3.8531 2.4818 0 0 0.56828 2.378-0.21498 4.5994 0 0 6.0422-2.3156 6.8501-2.9825 0.81062-0.66713 2.3487-3.7183 2.5425-4.5673 0.19098-0.84871-1.929-4.0622-1.929-4.0622"/>
  <path d="m81.312 92.488c0.57193 1.5604 2.3452 3.8234 3.1734 4.481 0.82842 0.66027 4.0232 2.517 4.567 2.5397 0.54675 0.0252 2.9753-0.25915 3.3729-0.39681l-0.34438-4.6149s-2.5966-8.3818-2.8023-9.0132c0 0-1.9733 4.046-2.5412 4.5658-0.56765 0.52251-5.4251 2.4384-5.4251 2.4384"/>
  <path d="m70.735 86.847 1.3633 2.7112s-2.2756 3.8774-2.2892 4.1894c-0.01398 0.30924-0.30184 3.3404-0.30184 3.3404s-0.81276 0.7443-1.0052 1.5918c-0.19338 0.85172-0.04583 2.807 0.87157 3.2373 0.91587 0.42911 7.7561 2.756 8.4971 3.6474 0.74066 0.8887 1.691 2.3356 1.691 2.3356s-3.8189 1.7034-6.2386 1.7531c-2.4182 0.051-3.5895 0.077-4.7298-0.59693-1.1403-0.67388-4.8219-3.8757-4.9575-4.3503 0 0 4.064-7.3088 5.256-11.388 1.1933-4.0814 1.8433-6.4702 1.8433-6.4702"/>
  <path d="m78.08 96.231-1.3457 1.6048s3.6328 1.8793 6.9603 5.7411c0 0 1.3896 1.1699 1.5944 1.5666 0 0 7.6608-4.3789 11.692-5.0629l-1.4644-2.168-1.0104 0.58982s-0.81076 0.79763-1.2044 0.94588c-0.39483 0.14971-0.85621 0.23425-0.8788-0.34547 0 0-2.801 0.60449-3.3714 0.39802-0.56912-0.20797-1.7555-0.6843-1.7555-0.6843s-4.7951 0.2703-5.5073 0.0719c-0.71191-0.19571-3.7097-2.6574-3.7097-2.6574"/>
  <path d="m95.214 111.79c2.2773-1.4934 3.6655-2.8476 5.1493-4.3748 1.0094-1.0416 2.1404-4.4209 2.7392-5.9879l-2.7562-1.4938s-2.9177 0.2457-3.3683 0.1491c-0.45028-0.0939-1.5298 0.3006-2.2486 0.53556-0.71758 0.23345-8.0473 3.8946-8.0473 3.8946s5.5564 6.5286 6.0814 6.6399c0.52779 0.111 2.4506 0.63747 2.4506 0.63747"/>
 </g>
 <path d="m109.18 98.071c-0.28802 0.51787-1.9056 3.1043-3.1848 4.0202l-1.0687 0.12957s-4.4989-1.9708-4.5799-2.2815c0 0 4.3705-1.0016 4.7397-1.3393 0.36763-0.33885 1.3638-0.95727 1.3638-0.95727z" fill="#b7c0c9"/>
 <g fill="#636465">
  <path d="m70.426 87.783c-0.56374 0.77202-6.9364 2.7932-8.7152 2.9824-1.7776 0.18759-9.6158-0.68697-11.336-1.8244-1.7198-1.1389-4.5576-3.0325-4.5576-3.0325s-0.63849 4.4874 2.5782 9.8479c0 0-2.3585 1.3131-0.61212 3.8677 1.7464 2.5546 6.5148 8.8713 8.1639 9.5624 1.6533 0.69192 4.1497 0.26937 4.7997-0.40955 0.64845-0.68011 5.2249-8.1782 6.3902-10.517 1.1641-2.338 3.2897-10.477 3.2897-10.477"/>
  <path d="m88.012 124.66c0.54657-1.1011 2.9612-4.9271 7.046-4.1229 0 0-1.5096-3.9977-1.6304-5.5646-0.1166-1.5661-0.09532-3.4981-0.09532-3.4981l-0.5656-0.321-6.0811-6.6372-1.3984 0.63162s3.6409 5.695 2.8507 6.6592c-0.45224 0.35544-4.8152-4.0796-4.8152-4.0796s1.9894 5.8914 3.1696 7.4397c0 0 1.4067 4.9311 1.4238 5.9303 0.02143 1.0001 0.09585 3.5626 0.09585 3.5626"/>
  <path d="m41.411 96.574c1.2338-0.97664 2.6936-1.7073 4.1677-0.9262 0 0 1.8547-0.71282 2.5568-0.44597l0.50982 1.0553 0.1135 4.6854s2.275 4.1447 5.4101 6.8213c0 0-1.025 3.525-1.9478 4.6748 0 0 0.32079 5.3304 0.66174 6.6139 0 0-4.2434-2.7238-8.191 2.2602 0 0 0.58304-4.9823 0.49258-6.572 0 0-2.8835-4.0858-4.075-9.4522-0.87237-5.4333 0.30154-8.7145 0.30154-8.7145"/>
  <path d="m79.836 87.701s-1.0049 0.53013-1.6976 1.3993c-0.69115 0.87042-3.2141 5.5124-3.394 6.4807-0.10641 0.56845 1.1404 2.0144 1.1404 2.0144l0.848 0.24461s2.9037-3.6817 3.2112-5.1426c0.31202-1.4573 0.37905-4.893-0.10802-4.9964"/>
  <path d="m68.501 98.687c0.66479 0.90978 3.4792 2.0974 4.7705 2.482 1.2939 0.38433 4.8164 2.176 5.7609 3.0345 0 0-0.768 0.70345-0.64779 1.6909 0 0-1.8316-1.1439-4.2434-2.1498-2.4118-1.0059-4.9182-1.6878-5.2977-2.3611-0.60729-1.0908-0.34252-2.6965-0.34252-2.6965"/>
  <path d="m115.17 95.633c0.83242 1.5086 2.3418 4.4392 2.7034 5.5197l-1.2098-0.38163s-1.8558 1.2293-2.1976 1.5419c-0.3406 0.31103-0.77404 0.86621-0.77404 0.86621s-2.4814-1.2534-2.5453-1.6663c-0.0623-0.41172-1.8985-2.9587-1.9668-3.4466l3.1792-0.1933z"/>
  <path d="m31.699 63.174c1.3777 0.87463 8.8238 4.6385 14.843 5.4734l4.5604 2.4114-1.8746 3.5182s-2.4-1.2504-2.8961-1.1096c-0.49852 0.14375-3.144 0.76337-4.2055 0.71631-1.0628-0.0455-4.4376-0.21708-5.1251-0.71361 0 0 4.1088-2.2763 4.0636-3.3397-0.03013-0.65715-7.5176-1.8865-9.1306-4.3328-1.1492-1.7675-0.23528-2.6237-0.23528-2.6237"/>
 </g>
 <g fill="#0f141b">
  <path d="m119.2 64.887c-0.76335-1.4094-4.0263-5.0794-5.0136-5.76-1.1435-0.78479-7.96-4.0414-8.7868-4.1978-0.64987-0.12175-4.1065 0.26269-4.8808 0.33782-0.19703 0.0185-0.30258-0.99668-0.10708-1.0164 0.76998-0.076 4.53-0.38959 5.2867-0.24709 1.0247 0.19275 7.9314 3.553 9.0646 4.3321 1.1499 0.79229 4.2832 4.8769 5.0423 6.273 0.0925 0.17204-0.54282 0.39194-0.60531 0.27826"/>
  <path d="m150.91 104.23c-2.3202-0.99717-7.0578-3.6478-11.541-6.3454-3.1117-1.8745-6.0506-3.644-7.8347-4.5776-4.2768-2.238-16.442-4.1045-19.719-4.1142-1.7244-7e-3 -3.3042 0.22962-4.6278 0.44751-1.4245 0.23632-2.413 0.25228-2.9414 0.0149-1.3571-0.61192-3.7615-5.4532-4.0927-6.6155-0.39776-1.3951 0.73762-8.2055 2.8589-13.273 1.8197-4.3428 4.7046-7.3274 7.934-8.1239 2.552-0.6322 5.2492-0.52571 12.372 5.1746 2.1504 1.7198 4.1319 3.3794 5.918 4.8691 4.0938 3.4181 7.2553 6.409 9.8281 7.7424 0.17511 0.0898 0.11391 0.99226-0.0573 0.90335-2.6433-1.3721-6.1708-4.3677-10.3-7.8134-1.7834-1.4901-3.8023-3.1769-5.9466-4.8919-6.8719-5.4985-9.392-5.4619-11.757-4.8758-3.0009 0.74142-5.3986 3.2086-7.1278 7.335-2.1266 5.0799-3.2347 11.577-2.8999 12.747 0.37455 1.3125 2.5709 5.7299 3.5601 6.1754 0.33475 0.15247 1.3792-0.021 2.4873-0.20313 1.349-0.2249 3.0298-0.50164 4.816-0.4952 3.418 9e-3 15.679 1.9014 20.125 4.227 1.8017 0.94271 4.7523 2.719 7.8728 4.598 4.2536 2.562 9.421 5.6179 11.697 6.5968 0.18049 0.0768-0.58637 0.51504-0.6241 0.49741"/>
  <path d="m160.57 96.102c-1.7443-0.92182-18.648-10.019-20.173-12.461-0.94215-1.507-3.7928-7.9149-2.6531-8.7419 0.28284-0.20414 0.61806-0.50221 5.51 3.7445 2.4405 2.1178 4.1434 3.9947 4.6145 4.5092 0.13041 0.14296 0.27792 1.0929 0.14601 0.94873-1.0973-1.1966-9.6543-8.6882-9.8605-8.4873-0.20932 0.19846 1.4706 5.2011 2.914 7.5104 1.2786 2.0452 16.121 10.539 19.632 12.395 0.17391 0.0913-0.0828 0.60694-0.1296 0.58209"/>
  <path d="m155.16 87.037c-0.23238-0.2535-0.88261-0.89302-1.636-1.8091-1.7553-2.1305-7.2313-8.5927-7.4308-8.4407-0.20075 0.15352 1.5377 4.769 2.4569 7.6796 0.27284 0.85727-0.054 0.98954-0.433 0.17607-0.46139-0.99219-1.1058-2.5979-1.7536-4.46-0.603-1.7354-0.86778-2.7021-0.95781-3.259-0.30537-1.9303 1.0657-0.70605 1.166-0.63379 1.2947 0.94184 3.8599 3.9174 7.6042 8.4675 0.26485 0.32119 0.50913 0.61865 0.72284 0.87702l-0.57135-4.0436c-0.0997-0.7247 0.39989-0.41674 0.50132-0.3707 0.40782 0.19078 1.7903 1.2269 2.9833 2.5265 0.13311 0.14266-0.48984 0.45865-0.63047 0.32234-0.63296-0.60853-1.4545-1.3053-2.1242-1.9947l0.71377 4.6741c0.14849 1.0542-0.49633 0.41406-0.611 0.28852"/>
  <path d="m166.74 120.03c-0.55702-0.0308-1.8197-0.7772-4.4511-2.1644-3.7365-1.969-8.9513-4.6857-11.975-5.5858-0.18763-0.0554 0.15376-0.56289 0.34171-0.5048 3.088 0.9145 8.2393 3.5437 12.002 5.5262 1.8505 0.97416 3.7642 1.9836 4.0826 2.0295 0.38353 0.0507 1.3241-0.16574 2.4136-0.41441 1.5122-0.34664 3.5852-0.81952 5.8399-1.0028 0.48867-0.0383 1.3366-0.39242 2.2369-0.76907 0.78654-0.32652 1.6805-0.69834 2.4936-0.92492 1.5438-0.42992 5.5481-1.8826 5.7698-2.6305 0.17325-0.58435-0.24133-2.9636-0.50263-4.7011-0.24768-1.643-0.39759-2.6737-0.35916-3.1286 0.11253-1.2929 0.48341-6.5324 0.36454-8.1298-0.12207-1.6615 0.39934-18.845 0.48208-20.78 0.0589-1.2813-0.41046-4.2214-0.86597-7.0642-0.29703-1.8694-0.5572-3.8008-0.71691-5.2753-0.33699-3.079-2.3765-9.5744-2.484-9.5786-0.10918-5e-3 -0.84581 3.0046-2.045 4.1146-0.40487 0.37335-0.45161 1.7728-0.53733 3.8015-0.0789 1.8493-0.34046 2.334-0.57096 3.0059-0.23049 0.67197-0.72257 5.5614-1.0886 8.9051-0.14064 1.2632-0.59198 0.29869-0.67798 0.0998-0.68904-1.6116-1.5688-3.5322-2.054-4.3733-0.17958 2.3926-0.15295 16.015-0.15807 16.161-0.0101 0.19625-0.72707-0.30382-0.71632-0.49734 4e-3 -0.13234-0.17708-16.413 0.65754-16.535 0.49305-0.0717 1.371 1.7021 2.4385 4.0971 0.22008-3.5975 0.71285-7.3924 0.87858-7.9827 0.16723-0.58917 0.57395-1.2814 0.68043-2.9856 0.1183-1.8525 0.14286-3.7205 0.76668-4.292 0.82027-0.75066 1.3272-2.1369 1.6625-3.0557 0.27455-0.74294 0.37448-1.0208 0.64963-1.1005 0.0996-0.0293 0.23293-5e-3 0.31933 0.054 0.62202 0.41752 2.5866 6.9669 2.9351 10.146 0.15869 1.4541 0.46615 3.3786 0.76376 5.2411 0.4814 3.0087 0.93562 5.8531 0.87546 7.2074-0.1057 2.4293-0.65301 19.04-0.53641 20.606 0.11866 1.6317-0.25429 6.9607-0.36646 8.2688-0.0335 0.39515 0.16231 1.7008 0.35255 2.9632 0.37677 2.5044 0.48334 4.2941 0.28151 4.9765-0.42721 1.4348-5.4843 2.8202-5.9672 2.9814-0.76092 0.25079-1.6855 0.72639-2.4932 1.0609-0.99357 0.41346-1.6904 0.72007-2.2921 0.76716-2.2044 0.17889-4.4007 0.65491-5.8915 0.9964-1.1966 0.27196-1.9823 0.49814-2.5393 0.46731"/>
  <path d="m147.39 109.71c-0.27875-0.0125-2.17-0.15624-3.9193-0.30819-3.2993-0.29192-3.8078-0.3896-3.8682-0.72333-0.0449-0.2599 0.42637-0.76036 3.1422-1.9745 2.0158-0.90026 4.48-1.8781 7.0973-2.7074 3.7223-1.1813 5.8634-1.1936 7.1629-1.2508 0.62701-0.0294 1.1432-0.0433 1.3305-0.1706 0.65863-0.4478 0.98872-1.4965 1.5409-3.8521 0.44243-1.8884 0.47486-4.4892 0.48543-5.7251 3e-3 -0.31764 0.58561 0.26788 0.58252 0.57588-0.01 1.266 0.13878 3.4341-0.32232 5.3987-0.60685 2.5857-1.0288 3.6354-1.8642 4.2065-0.35412 0.24117-0.82144 0.26186-1.5976 0.29603-1.264 0.0558-3.4999 0.079-7.1349 1.2311-4.7454 1.5048-9.6206 3.6604-9.6282 3.8343-8e-3 0.17385 6.4295 0.43617 7.0217 0.46289 0.19597 7e-3 0.16594 0.71571-0.0288 0.70646"/>
  <path d="m167.57 115.69c-1.0234-0.42088-7.8547-3.5316-9.9188-3.7932-1.493-0.19262-5.076 0.2394-7.9573 0.56328-3.978 0.44845-4.5906 0.47208-4.7972 0.12085-0.49062-0.82815 3.5296-4.6779 4.1931-5.2869 0.61122-0.56185 0.89785-0.21843 0.30237 0.36082-0.88706 0.86269-4.0474 4.4859-3.9673 4.6334 0.0789 0.1489 2.6636-0.35384 4.187-0.53147 2.9195-0.3379 6.5505-0.75892 8.1294-0.55971 2.1753 0.27354 8.6333 3.3983 9.9628 4.0944 0.60054 0.31425 0.35177 0.59963-0.13416 0.39859"/>
  <path d="m160.14 98.393c-11.317-5.1914-19.348-9.5186-21.819-12.054-1.1594-1.1867-7.102-7.4429-12.491-10.352-4.9471-2.6692-14.235-6.3094-21.003-8.4701-0.18794-0.0582-0.01-0.46856 0.17868-0.41741 6.8922 1.8951 16.166 5.6538 21.15 8.3422 5.4774 2.9572 11.466 9.3825 12.638 10.584 2.4114 2.4741 10.346 6.7175 21.587 11.873 0.17689 0.0814-0.19641 0.51422-0.23837 0.49568"/>
  <path d="m118.3 85.226c-3.4179-1.6347-14.718-4.1843-17.688-4.5493-0.19091-0.0227 5e-3 -0.53071 0.19793-0.51302 3.3566 0.29993 14.81 3.0352 18.309 4.9065 0.17271 0.0928-0.77625 0.17701-0.81852 0.15576"/>
  <path d="m153.32 103.42c-3.4167-1.5648-10.378-6.5627-14.998-9.8738-1.9992-1.4323-3.5795-2.5639-4.3495-3.0496-1.2806-0.80748-9.9148-3.563-14.351-4.9297-3.3649-0.81405-15.658 0.67964-17.274 0.91459-0.19338 0.0263-0.34835-0.56979-0.15377-0.59762 1.7156-0.24915 13.901-1.7057 17.448-0.84802 0.54818 0.16917 12.835 3.8293 14.512 4.8879 0.78894 0.49586 2.374 1.6338 4.3851 3.0729 4.5971 3.293 12.087 8.6959 15.441 10.231 0.1784 0.0825-0.61851 0.21109-0.66047 0.19257"/>
  <path d="m166.61 93.657c-0.23252-0.62566-3.239-9.084-3.4167-9.6638-0.38215-1.2471-3.2524-5.421-4.5182-7.3674-0.34064-0.52673-0.11776-0.64297 0.27848-0.15833 1.3452 1.6448 4.3717 6.019 4.7809 7.3592 0.17537 0.57042 2.9645 8.6197 3.219 9.7112 0.14171 0.60039-0.0102 1.0119-0.34342 0.11907"/>
  <path d="m176.77 102.84c-0.0841-0.0864-1.842-2.012-4.44-3.5157-2.9333-1.6959-4.0284-2.7898-4.8653-3.7622-0.47241-0.55006-0.2086-0.68061 0.31937-0.185 0.86545 0.81533 1.9742 1.7648 4.8346 3.4594 2.4686 1.465 4.0405 3.2896 4.4163 3.7877 0.32887 0.43607 0.0632 0.55035-0.265 0.21584"/>
  <path d="m185.16 114.26c-1.1462-0.53315-2.5817-1.5646-3.6764-2.4387-1.2494-1.002-1.7258-1.8854-2.1656-2.8209-0.44007-0.93832-1.4321-4.1605-1.8733-5.1439-0.29927-0.66882-0.0456-0.76798 0.31897-0.12863 0.57839 1.0186 1.831 4.561 2.0834 5.0717 0.25499 0.51047 0.9059 1.7418 1.9818 2.5715 1.088 0.83924 2.4725 1.8696 3.5484 2.5688 0.13081 0.0866-0.18109 0.33669-0.21731 0.32024"/>
  <path d="m182.58 109.62c-0.46491-0.38886-1.7106-1.5135-1.7901-1.8354-0.17159-0.69309-0.64639-3.465-0.75909-4.1237-0.11269-0.65864 0.17894-0.84595 0.37021-0.0411 0.19248 0.80332 0.71636 3.0697 0.95892 4.0458 0.0274 0.10808 1.1339 1.2034 1.5419 1.6358 0.41144 0.43758 0.14301 0.70737-0.3219 0.3185"/>
  <path d="m169.79 115.92c-0.49995-2.6e-4 -0.59826-0.27054-0.0258-0.35551 1.4056-0.20945 5.3265-0.7255 7.0349-0.73894 0.83986-6e-3 6.1664 0.16558 6.9405 0.0781 0.15573-0.0192 0.0605 0.47923-0.0956 0.49578-0.81905 0.0913-6.008 0.0168-6.8691-7e-3 -1.2484-0.0353-6.485 0.52753-6.985 0.52717"/>
  <path d="m166.56 118.67c-0.20504-0.52994-0.54191-1.921-0.61411-2.6338-0.0532-0.52266 0.12517-0.54861 0.29395-0.0475 0.18523 0.5487 0.53965 1.961 0.63882 2.5499 0.0826 0.49182-0.15317 0.55596-0.31865 0.13136"/>
  <path d="m165.2 102.29c-0.11403-0.69421-0.14797-3.3108-0.12711-3.787 9e-3 -0.15609 0.52804-0.0661 0.52138 0.0912-0.0279 0.63084-0.0108 3.0763-0.058 3.6942-0.0495 0.63602-0.2364 0.62044-0.3363 1e-3"/>
  <path d="m183.12 114.24c-1.1275-0.53803-3.337-1.7676-3.8212-2.0019-0.26294-0.12501-3.1956-0.0932-3.701-0.40326-0.89855-0.55333-8.033-5.0013-8.4058-5.3884-0.52758-0.55196-1.2622-1.7834-1.6261-2.6315-0.29421-0.68451-0.11284-0.7795 0.27607-0.1553 0.17824 0.28443 1.5485 2.3259 1.6558 2.4359 0.18823 0.13221 7.0232 4.4827 8.312 5.2892 0.16622 0.0482 3.1084 0.14721 3.7089 0.43673 0.50747 0.24525 2.6878 1.437 3.7509 2.1431 0.61899 0.41512 0.51024 0.59242-0.14967 0.27539"/>
  <path d="m168.92 106.99c-0.13468-0.23998-0.98681-1.8603-1.1978-2.5378-0.22656-0.72936 0.13995-3.7695 0.28169-4.6648 0.0247-0.1553 0.47913-0.169 0.46555-0.0123-0.0879 1.0538-0.32167 4.0761-0.27321 4.4276 0.10972 0.41729 0.92125 2.3183 1.049 2.5453 0.0773 0.13533-0.27513 0.331-0.32518 0.24197"/>
  <path d="m176 106.02c-0.88448-0.25142-4.2483-1.619-4.6134-1.8669-0.43319-0.29225-1.7031-3.4467-1.7868-3.661-0.0578-0.14444 0.35272-0.37286 0.41051-0.22842 0.33914 0.86064 1.4586 3.159 1.7414 3.445 0.39303 0.18148 3.481 1.5987 4.3001 1.8301 0.15053 0.0431-0.0309 0.48829-0.052 0.48114"/>
  <path d="m176.15 106.68c-0.0277-2e-3 -5.2999-1.2319-5.7831-1.5171-0.5258-0.30907-2.2457-4.9666-2.2592-5.0118-0.0526-0.14777 0.3487-0.32433 0.39865-0.17625 0.19216 0.54929 1.9008 4.4266 2.2314 4.7581 0.25036 0.14705 5.3897 1.4633 5.5341 1.514 0.14875 0.0516 9e-4 0.43938-0.122 0.4329"/>
  <path d="m171 108.61c-3.2e-4 -0.25405-0.25367-2.377-0.3738-2.4306-0.0954-0.0411-1.3757 1.0438-1.5274 1.1353-0.13502 0.0801-0.67994-0.1925-0.54796-0.27495 0.1284-0.0779 2.0098-1.4791 2.2908-1.3521 0.30698 0.13779 0.72449 3.0688 0.71864 3.1972-7e-3 0.15733-0.56579-0.11903-0.56033-0.2749"/>
  <path d="m173.85 110.57c-0.0258-0.14124 0.0851-2.6083-0.0263-2.6696-0.11294-0.0625-1.4445 1.0558-1.6419 1.2982-0.0987 0.12121-0.53818-0.23761-0.43949-0.35882 0.20973-0.2548 1.8652-1.5422 2.2314-1.3796 0.49622 0.21909 0.41559 2.9023 0.43346 3.0102 0.0301 0.15448-0.53225 0.23277-0.55714 0.0997"/>
  <path d="m176.78 111.78c-6e-3 -0.24377-0.37833-2.5179-0.49086-2.5531-0.11373-0.0336-1.0907 1.0385-1.6596 1.6464-0.10772 0.11401-0.48309-0.24806-0.38286-0.36807 1.0317-1.2062 1.9764-1.9368 2.2649-1.8408 0.28573 0.0963 0.82559 3.1959 0.82575 3.2206-6e-3 0.1558-0.56275 0.0509-0.55729-0.10495"/>
  <path d="m109.71 56.56c0.82734-3.5243 3.2946-14.405 5.1399-17.926 2.5849-4.9402 7.5357-10.254 10.123-12.879 1.6247-1.6519 3.3072-3.051 4.7065-4.2361 2.1631-1.8305 2.4776-1.6867 2.6777-1.5942 0.36343 0.16292 0.54725 0.24482-1.0753 7.765-0.80578 3.7361-1.67 7.1425-1.6783 7.1778-0.0511 0.18854-1.0402 0.19907-0.99053 9e-3 1.235-4.6864 3.833-14.202 3.495-14.431-0.33926-0.22749-12.253 10.768-16.32 18.539-1.6762 3.2002-4.3546 13.332-5.3899 17.736-0.0397 0.168-0.73158 0.0276-0.68738-0.16144"/>
  <path d="m127.97 35.016c5.9167-2.1886 8.2784-2.994 8.6077-3.2007 0.30012-0.34072 2.3819-3.5737 4.5853-6.991 3.9567-6.1374 8.7053-13.967 9.7321-14.966 1.0877-1.0532 7.5788-4.6263 9.4578-5.6894 5.2788-2.9834 7.8062-4.3447 8.3722-4.1515 0.56454 0.19201 2.1819 5.4629 2.2171 5.5426 0.0796 0.17902-0.56574 0.46736-0.64536 0.28834-0.0498-0.11103-1.5165-4.9912-1.8546-5.1488-0.33689-0.15909-15.465 8.4886-16.878 9.8581-0.96875 0.94074-5.9465 8.9629-9.6758 14.749-3.6025 5.5858-4.5328 6.9809-4.7432 7.1341-0.40185 0.29197-3.1007 1.32-8.994 2.9457-0.72012 0.19941-1.0245-0.0596-0.18126-0.37062"/>
  <path d="m159.72 12.03c0.82844-0.65545 6.3502-4.2861 7.1883-4.7985 0.84192-0.51417 1.0792-0.242 0.23139 0.40056-0.84809 0.63986-6.4803 4.4562-7.2062 4.8334-0.72851 0.37753-1.0404 0.22107-0.21344-0.43559"/>
 </g>
 <path d="m191.22 9.656-9.0782 1.7122-0.51809-1.8479 9.5834-0.1918q0.69448 3e-3 0.63533 0.10964-0.0592 0.10636-0.62248 0.21781" fill="#fff" stroke-width=".27214"/>
 <path d="m180.13 27.447q4.7982 1.1506 6.95 1.7764 0.45741 0.12906 0.38407 0.24842-0.0857 0.0916-0.48117 0.10144l-7.3944-0.6518 0.5415-1.4744" fill="#fff" stroke-width=".27214"/>
 <g fill="#0f141b">
  <path d="m126.55 70.588c0.0243-1.6783-0.9835-3.8411-1.7914-5.579-0.83132-1.7861-1.3443-2.5582-1.0507-3.0862 0.15239-0.27569 2.9047-8.0273 3.8751-8.6784 0.30603-0.20543 14.697-4.2472 15.593-4.8363 1.1072-0.72729 12.886-8.6539 15.924-9.5478 1.9995-0.58799 6.1681-0.41696 9.8612-0.35749 2.6789 0.0427 5.4388 0.21614 5.9437-0.0629 1.126-0.79125 7.1596-17.693 7.446-20.068 0.2718-2.2382-1.9582-13.372-2.5004-14.902-1.237 0.20791-7.6429 2.0695-10.614 2.9531-0.79411 0.23674-0.88275-0.0209-0.13157-0.38044 2.2258-1.0686 10.373-3.391 10.951-3.2199 0.18765 0.05536 0.7344 0.24805 2.0674 7.1337 0.40053 2.0773 1.0965 6.9787 0.93057 8.5003-0.29424 2.6886-5.6428 19.288-7.8051 20.6-0.62394 0.37928-2.708 0.33834-6.3057 0.28306-3.6421-0.0585-7.7697-0.12297-9.6668 0.43538-2.939 0.86207-14.451 8.6579-15.727 9.2317-4.0237 1.8093-14.821 4.6418-15.564 5.0541-0.49744 0.27274-3.3547 7.7685-3.5331 8.0925-0.11529 0.27556 0.67208 1.667 1.1204 2.6292 0.84163 1.8042 1.5962 3.8669 1.546 5.8943-6e-3 0.19441-0.57189 0.10273-0.56928-0.0898"/>
  <path d="m182.64 16.354c6.8121-3.5645 11.115-6.6088 10.964-7.0681-0.13745-0.41959-5.1076-0.62087-12.262-0.379l-0.13115-0.9271c7.6251-0.20377 10.682 0.23769 12.093 0.56198 1.33 0.30464 1.1121 0.85843 0.56443 1.483-2.2817 2.6036-10.94 7.1658-11.047 7.2095-0.0485 0.0207-0.35305-0.79037-0.1807-0.8802"/>
  <path d="m177.58 33.644c3.8196-0.68023 12.462-3.1654 12.484-3.6458 0.0202-0.48165-5.7392-2.3543-9.8132-3.1281-0.19088-0.0357-0.0715-0.93393 0.12357-0.89729 0.0814 0.0151 7.3477 1.8428 9.5542 3.2253 0.8273 0.51893 1.1815 0.97269 0.13048 1.5672-2.3828 1.3406-12.381 3.829-12.56 3.8715-0.0333 8e-3 -0.10986-0.957 0.0806-0.99269"/>
  <path d="m117.78 56.23c1.1237-1.5051 7.6352-9.3394 8.4418-9.7782 0.80814-0.4375 10.744-2.2017 11.511-2.3172 0.93611-0.13632 1.0368 0.11858 0.13098 0.38736-0.86335 0.25569-10.893 2.2876-11.318 2.5588-0.42482 0.27126-7.0998 7.9608-8.4256 9.4292-0.68854 0.76161-1.0037 0.61238-0.33975-0.27963"/>
  <path d="m140.23 41.928c0.91498-0.81096 4.3461-3.655 5.915-4.7278 1.2746-0.87285 4.0564-2.1701 5.0248-2.7441 0.97099-0.57429 13.519-11.056 20.442-16.789 2.2687-1.8797 3.8904-3.1619 5.0463-4.0033 0.71894-0.52065 0.93802-0.35902 0.28445 0.24065-1.014 0.92947-2.612 2.43-4.8795 4.3082-10.045 8.3182-19.454 16.365-20.418 16.939-0.96285 0.57338-3.8668 1.7885-5.0993 2.6332-1.5487 1.0568-5.5181 4.0574-6.1863 4.5297-0.93872 0.66399-1.0445 0.4248-0.12949-0.38617"/>
  <path d="m171.68 33.239c-0.55155-0.0191-5.6004-1.8031-6.2051-1.9384-0.5652-0.12601-6.5742-0.4525-9.2225-0.1924-0.19431 0.0182-0.16584-0.52345 0.0296-0.54046 2.5612-0.25284 8.6298-0.10078 9.3244 0.0392 0.75874 0.14913 5.501 1.8942 6.0853 1.9246 0.54199 0.0307 4.0706-1.0057 4.7944-1.1259 0.70713-0.12101 0.8312 0.0982 0.16406 0.36434-0.52269 0.20833-4.3971 1.4882-4.9706 1.4688"/>
  <path d="m99.856 60.89c-0.89598-0.67448-7.9369-7.1424-8.4144-7.6645-0.54189-0.59291-0.28818-0.84726 0.33718-0.34085 0.79188 0.64111 7.2081 6.4528 8.5269 7.473 0.0926-2.8659-0.69742-17.547-1.2409-18.967-0.54703-1.4274-17.768-19.914-20.233-22.164-0.30474 1.2215-1.3373 7.0617-1.3873 7.3201-0.03697 0.1924-0.81337-0.17035-0.7749-0.36152 0.0491-0.25421 1.3112-6.2003 1.5593-6.9224 0.29311-0.85631 0.55649-0.77531 1.0965-0.30717 0.46223 0.40154 7.4822 7.4885 9.9605 10.136 3.0139 3.2234 10.281 10.775 10.7 11.867 0.43626 1.1324 0.60162 8.483 0.7244 10.652 0.2909 5.2377 0.29134 7.5862 0.2817 8.6627-0.0122 1.4613-0.48569 1.1051-1.1366 0.61529"/>
  <path d="m79.74 29.352c0.74463-0.75159 0.81731-1.1472 0.81878-1.1584-0.01767-0.46493-1.5879-7.9455-1.9791-9.057-0.06397-0.18629 0.35385-0.3153 0.4175-0.1317 0.31853 0.90833 2.2929 8.668 2.2697 9.2186-0.01847 0.38943-0.23703 0.69881-1.2012 1.4042-0.54882 0.39949-0.8645 0.26955-0.32556-0.27575"/>
  <path d="m58.522 35.641c-0.56417 1.8927-0.94391 3.4539-0.92223 4.1931 0.03931 1.4431 0.04163 3.4012 0.04068 5.1278 0.0026 0.21395 0.0021 0.42551 0.0029 0.63555l-0.8566 0.12306c-8.56e-4 -0.23476 5.9e-5 -0.47795 3.64e-4 -0.72657-0.0027-1.722-0.0292-3.7955-0.06758-5.2304-0.02431-0.88167 0.41423-2.6007 0.98516-4.4585z"/>
  <path d="m58.539 53.651c0.30464 1.4813 0.58599 2.7715 0.64022 2.9329 0.17816 0.51105 1.1664 2.7667 1.4367 3.0159 0.20782 0.13545 1.2417 0.20492 1.5254 0.16413 0.37274-0.17465 3.3866-1.9037 6.0537-3.4349 5.1193-2.9376 6.8615-3.9246 7.0887-3.9905 0.27515-0.0797 0.85528 0.0927 3.0047 0.81145 1.1939 0.39856 2.4692 0.78779 2.8585 0.93674 0.18378 0.0695 0.33087 0.65696 0.13701 0.63114-0.36-0.0493-1.6282-0.40088-3.2193-0.89805-0.98413-0.3059-2.3021-0.7685-2.6084-0.7924-0.41488 0.19046-3.8598 2.484-6.7575 4.1474-5.4527 3.131-6.2355 3.2511-6.3903 3.2785-0.51501 0.0839-1.8118-0.0859-2.0984-0.27416-0.52019-0.34405-1.889-3.4144-1.9006-3.4433-0.05756-0.16644-0.36478-1.6103-0.68285-3.2206z"/>
  <path d="m61.067 28.094c1.0234-2.8217 1.8883-5.0374 1.9441-5.1138 0.14003-0.19189 3.7-1.0634 4.1773-0.91361 3.535 1.3507 10.002 4.8054 10.532 5.1702 0.37734 0.2602 1.3429 1.1107 1.918 1.6216 0.24729 0.21608 0.43837 0.38505 0.51726 0.45014 0.15023 0.12422 0.59846-0.42166 0.44974-0.54468-0.07737-0.064-0.2609-0.22686-0.49641-0.43605-0.62793-0.55282-1.5742-1.3904-1.9872-1.674-0.55619-0.38251-7.0133-3.8466-10.68-5.248-0.83441-0.3176-4.5548 0.96378-4.8032 1.0967-0.3582 0.19357-1.57 3.2525-2.397 5.4515z"/>
  <path d="m76.947 40.511c-0.19825-0.56642-1.1375-3.2809-1.8749-4.0094-0.431-0.42845-1.4798-2.6854-1.6684-2.9288-0.19014-0.24461-5.7499-2.6759-7.0844-3.0899-0.18795-0.0581-0.11802-0.46576 0.075-0.42337 1.581 0.34863 7.3491 2.7999 7.574 3.0845 0.22494 0.28457 1.2106 2.4814 1.5976 2.8505 0.94473 0.8955 1.6801 4.0468 1.7394 4.3847 0.1083 0.60834-0.17237 0.6639-0.35843 0.13179"/>
  <path d="m65.501 51.689c1.4759-0.62678 5.6177-2.5196 6.1325-2.749 0.64776-0.29136 1.5656-1.376 2.1742-2.0927 0.26465-0.31468 0.47379-0.56256 0.61796-0.69447 0.28594-0.2608 3.4589-1.8365 3.959-2.038 0.69181-0.27857 0.85532-0.0625 0.22908 0.34451-0.20835 0.13518-3.4706 1.997-3.7106 2.2155-0.10933 0.10045-0.31606 0.3453-0.55552 0.62824-0.68804 0.81375-1.6287 1.9271-2.4257 2.2823-0.86228 0.38465-4.782 1.9636-6.258 2.4448-0.66069 0.21457-0.94088-0.0128-0.16277-0.34113"/>
  <path d="m86.156 46.796c-0.77523-0.86688-2.6947-3.3865-2.9918-3.6174-0.33454-0.25825-4.4048-1.2825-5.1197-1.4806-0.71342-0.1969-0.70113-0.54439 0.09037-0.42101 0.79031 0.12488 5.1289 1.106 5.4142 1.3547 0.40934 0.35953 2.5968 3.3359 2.9703 3.933 0.37344 0.59712 0.36422 1.0432-0.3635 0.23125"/>
  <path d="m66.419 36.521c-0.02199-0.5743-0.64913-8.3458-0.70488-8.6882-0.05397-0.25476-1.0012-3.0741-1.1978-3.5184-0.11285-0.0379-0.62098-0.13329-0.90689-0.19529-0.5504-0.11669-0.54264-0.38406 0.01923-0.43071 0.38533-0.0291 1.2726-0.11313 1.4792 0.22846 0.17646 0.29286 1.3802 3.5401 1.4335 3.8018 0.05433 0.26982 0.38007 7.701 0.2585 8.8192-0.07491 0.69943-0.35401 0.68477-0.38097-0.0167"/>
  <path d="m61.44 58.351c0.34787-0.79805 1.1141-2.0795 1.3235-2.8864 0.26364-1.0054 1.9165-5.6779 2.3261-6.619 0.35445-0.81255 1.2305-6.5084 1.3098-8.9882 0.02352-0.74021 0.2752-0.72515 0.30499 0.0134 0.105 2.5178-0.54715 8.2976-0.96707 9.2579-0.39569 0.90793-2.1432 5.5446-2.3919 6.5003-0.2336 0.89617-1.2455 2.4654-1.5797 2.9762-0.33415 0.51081-0.61655 0.41962-0.32578-0.25376"/>
  <path d="m71.809 89.701c-1.5221-2.2163-2.9953-9.1985-3.0021-9.8322-0.0068-0.63373 5.616-10.238 5.9335-10.56 0.31767-0.31939 3.123-1.0658 3.3266-1.254 0.38584-0.4673 3.5527-8.4491 3.6999-9.128 0.01076-0.60004-2.1305-8.4971-2.7333-10.841-0.29223-1.1338-0.05761-1.2556 0.40137-0.17655 0.78239 1.8385 3.3023 10.497 3.1995 11.169-0.11 0.74053-3.4524 8.9155-4.0885 9.4994-0.29074 0.26686-2.9707 1.0882-3.1737 1.2818-0.20422 0.19512-5.6853 9.6955-5.7413 10.116-0.05299 0.42359 1.6745 7.4919 2.6508 9.3809 0.08983 0.17235-0.40672 0.44086-0.47278 0.34406"/>
 </g>
 <g fill="#89959d">
  <path d="m64 30.909c-0.50219-0.19917-1.1045 0.99063-1.3198 1.7708-0.31052 1.1234-0.11113 2.0824 0.24001 2.1863 0.448 0.13395 1.0603-0.95675 1.2435-1.7895 0.23056-1.0661 0.15135-2.0432-0.1637-2.1676m-1.1766 4.346c-0.73058-0.27459-1.0294-1.4777-0.69008-2.7211 0.21885-0.80933 0.88963-2.1444 1.7636-2.0442 0.51796 0.0614 0.90188 0.55844 0.99041 1.1979 0.0662 0.46896 0.02432 1.0492-0.11153 1.5524-0.22324 0.84279-1.2004 2.2967-1.9524 2.015"/>
  <path d="m61.566 36.971c-1.4579-0.38887-1.464-3.0622-0.98751-4.8569 0.24648-0.9155 0.69559-1.8845 1.2035-2.5924 0.67195-0.93002 1.4063-1.1256 2.0765-0.94566 0.15142 0.0389-0.02149 0.38703-0.17171 0.34658-0.56289-0.15374-1.1451 0.51738-1.4437 0.93072-0.46294 0.64509-0.89143 1.5664-1.1162 2.408-0.42182 1.5893-0.41825 4.0611 0.55367 4.3203 0.15142 0.0389-0.09468 0.39543-0.1146 0.38948"/>
  <path d="m60.672 49.631c-0.09031 0.93604 0.08405 2.0601 0.57218 2.1249 0.48844 0.0675 0.92211-1.0837 1.0218-1.9384 0.05113-0.43987 0.06742-2.0088-0.57684-2.0818-0.22548-0.0267-0.869 0.36208-1.0171 1.8954m0.61985 2.552c-1.0871-0.11414-1.312-1.6183-1.1821-2.6166 0.11929-0.92288 0.65762-2.3828 1.6422-2.2761 0.43986 0.0511 0.78024 0.41996 0.9612 1.0392 0.13335 0.45577 0.17525 1.036 0.11505 1.5525-0.1037 0.90324-0.69254 2.3895-1.5364 2.301"/>
  <path d="m60.121 53.919c-1.5478-0.17933-1.8088-2.8234-1.6098-4.5355 0.21333-1.8264 1.1966-4.16 2.676-3.9907 0.15588 0.0176 0.06754 0.42076-0.08682 0.40414-0.96928-0.11671-1.8398 2.0502-2.0254 3.6522-0.18411 1.5786 0.10894 3.9277 1.1153 4.0444 0.15588 0.0176-0.06082 0.42723-0.06927 0.42546"/>
 </g>
 <g fill="#0f141b">
  <path d="m92.854 99.718c-0.19748-8e-3 -0.38622-0.0504-0.53063-0.14784-0.17733-0.1211-0.14579-0.39664-0.13665-0.61608 0.01876-0.39906-0.37244-3.9621-0.38299-4.1256-0.02687-0.42542-2.1039-6.9606-2.4569-8.1698-0.33539-1.1508-4.6308-9.4969-5.5522-10.596-0.77483-0.92324-1.9895-1.1436-3.0772-1.0833-0.69755 0.0252-0.77965-0.25933-0.08557-0.32665 0.99411-0.0976 2.5713-0.29655 3.6791 1.0266 0.98462 1.1711 5.5037 9.5024 5.8453 10.745 0.37042 1.3364 2.3209 7.8819 2.3548 8.3574 9e-3 0.1624 0.23735 3.9336 0.23038 4.4234 0.20328 0.0481 0.51638 0.0481 0.68098-0.026 0.20198-0.14268 2.0513-2.2297 2.9911-4.2356 0.95123-2.0265 1.5942-10.914 1.1178-13.209-0.65886-3.167-6.7137-12.745-7.101-14.156-0.28743-1.0561 2.8197-10.933 3.3791-12.33 0.07105-0.18258 0.73293 8e-3 0.67907 0.19672-0.17379 0.60364-3.4372 11.118-3.1039 11.999 0.13602 0.35934 6.3593 10.938 6.9454 14.225 0.43224 2.4253-0.20002 11.094-1.2137 13.258-0.95451 2.0337-2.8945 4.2039-3.2493 4.4396-0.32168 0.21271-0.53264 0.3729-1.0131 0.35115"/>
  <path d="m73.345 87.105c-0.21213-1.8119 2.536-8.6428 3.0991-9.3611 0.62031-0.79362 4.4173-2.2211 6.7858-2.526 0.19639-0.0239 0.62099 0.46846 0.42762 0.49478-2.351 0.30149-6.139 1.9628-6.564 2.5074-0.56902 0.72593-3.3707 7.2704-3.1933 8.8034 0.02361 0.19369-0.53518 0.25508-0.5551 0.0816"/>
  <path d="m72.02 86.688c-0.29079-0.9898-0.80163-4.4828-0.69542-6.9066 0.02951-0.66399 0.24418-0.72022 0.30777-0.0588 0.22798 2.4405 0.60277 6.1358 0.75268 6.9866 0.11905 0.66615-0.18073 0.60306-0.36505-0.0208"/>
  <path d="m88.416 83.662c0.23808-0.1633 0.73006-1.357 0.75869-2.0167-0.08035-0.79559-4.0138-10.652-4.3155-11.104-0.11738-0.12524-0.9989-0.39896-1.9182-0.43901-0.21898 0.0307-0.93702 0.88217-1.3943 1.3618-0.76191 0.80438-1.5846 1.797-2.2885 2.0536-1.1716 0.42979-4.7862 2.5367-6.3359 3.5017-0.6257 0.38771-0.88824 0.20635-0.32312-0.26643 1.3607-1.1395 4.7702-2.9758 6.3345-3.6333 0.5383-0.22799 1.4559-1.1601 2.1295-1.872 0.8955-0.94473 1.3642-1.5877 1.8459-1.5675 0.43342 0.0189 1.8857 0.12009 2.3332 0.60837 0.29196 0.31808 4.4747 10.314 4.4269 11.346-0.02468 0.58652-0.42297 2.0221-0.99864 2.4151-0.06494 0.0445-0.41627-0.27634-0.25455-0.38692"/>
  <path d="m94.782 93.382c0.47727-2.1712 0.22324-9.3606-0.13576-12.297-0.08795-0.73017 0.15662-0.83654 0.31057-0.11806 0.56407 2.6285 0.79847 10.221 0.16268 12.458-0.17317 0.60907-0.47434 0.58184-0.33738-0.0437"/>
  <path d="m92.623 99.377c0.7195-1.1141 1.2652-2.3784 1.6901-3.6893 0.18864-0.582 0.39814-0.56348 0.31114 0.0426-0.15495 1.0671-0.57321 2.472-1.3529 3.6835-0.07253 0.10995-0.75292 0.12901-0.64834-0.0369"/>
  <path d="m83.3 68.058c0.28111-1.0088 1.0117-4.2748 1.456-7.236 0.148-0.98386 0.5395-0.97108 0.42919 0.0181-0.35161 3.2417-0.97974 6.2763-1.5008 7.4321-0.34409 0.75916-0.61699 0.63117-0.38441-0.21407"/>
  <path d="m104.74 67.379c-0.50695-0.51588-6.2054-3.0301-7.1876-3.295-1.8184-0.49031-3.9497-0.62056-5.701-0.4194-0.19098 0.0233-0.16305-0.6666 0.03215-0.68901 1.8381-0.21102 3.9496-0.0867 5.8515 0.4254 0.85307 0.22892 6.5963 2.8946 7.2839 3.5957 0.13703 0.14084-0.21202 0.4501-0.27887 0.38224"/>
  <path d="m100.42 82.812-2.5146-0.0107c-0.19473-9e-3 -0.19853-0.80811-3e-3 -0.80039l2.5354 0.26381c0.19596 7e-3 0.17771 0.55504-0.0182 0.54731"/>
  <path d="m94.741 97.996c1.492-0.90472 8.2153-7.6962 9.2612-8.849 0.13178-0.14422 0.56254 0.22246 0.461 0.39069-0.67607 1.1214-7.7845 8.1933-10.061 9.2906-0.06645 0.031 0.17001-0.73232 0.33841-0.83268"/>
  <path d="m96.927 100.44c-0.40129-0.1339-1.6228-2.1485-1.7885-2.6225-0.06518-0.1848 0.47416-0.29614 0.53932-0.11135 0.15255 0.43159 1.2403 1.9631 1.5037 2.0688 0.26076 0.10607 2.743-0.23661 3.5767-0.35568 0.83339-0.12177 4.2662-1.1091 5.2182-1.8955 1.054-0.86812 2.8587-2.5668 4.1112-3.775 0.13813-0.13672 0.78767-0.0176 0.65743 0.12773-1.257 1.4092-3.263 3.4112-4.3461 4.3005-1.1366 0.93804-4.7906 1.8409-5.5834 1.9457-0.7943 0.10355-3.4889 0.44999-3.8887 0.31734"/>
  <path d="m104.59 102.42c-0.79022-0.26774-3.9566-1.8407-4.8531-2.3998-0.16702-0.10311 0.30176-0.38623 0.48136-0.30522 0.71142 0.31112 4.0525 1.8626 4.5217 2.0135 0.46796 0.15228 1.4322 0.30939 2.1032 0.17189 0.71941-0.14577 1.6073-1.1089 1.9904-1.6005 0.30895-0.3953 0.57826-1.0044 0.59815-1.4174 9e-3 -0.19475 0.43466-0.054 0.42694 0.14188-0.0119 0.25678 0.0548 1.0759-0.49361 1.7418-0.57965 0.70517-1.5359 1.7668-2.3807 1.8252-0.84447 0.0612-1.604 0.0962-2.3942-0.17168"/>
  <path d="m108.43 94.433c-1.1358 0.0837-1.0536-0.36109-0.65516-0.99328 0.28585-0.45308 2.604-4.2227 2.9947-4.9227 0.0931-0.17 0.82888 0.12603 0.73459 0.29747-0.26766 0.47983-3.1369 4.7852-3.283 5.0437-0.0965 0.17724 4.0243-0.73946 5.1466-1.2995 1.1599-0.57952 3.0538-2.2912 3.5322-3.3872 0.0772-0.17779 0.72604 0.1034 0.64774 0.28272-0.55647 1.278-2.5692 3.0898-3.8642 3.737-1.3107 0.65449-4.9851 1.2233-5.2536 1.2418"/>
  <path d="m106.51 97.828c-0.19089-0.0357-0.0459-0.53172 0.14877-0.52249 4.7903 0.32216 5.4733 0.16962 5.5599 0.13495 0.38368-0.15118 3.781-2.5711 5.1476-5.4899 0.11123-0.23937-0.22979-2.193-0.23598-2.4862-3e-3 -0.19469 0.45092-0.13968 0.50945 0.0475 0.14175 0.44519 0.66765 2.2747 0.45981 2.7132-1.3926 2.9794-4.9667 5.5941-5.6173 5.8734-0.77327 0.3346-4.5827-0.01-5.9723-0.27026"/>
  <path d="m113.51 103.41c-0.45757-0.27708-2.1369-1.2435-2.5244-1.6151-0.40916-0.39389-1.9356-3.2099-2.355-3.9446-0.0992-0.16991 0.47233-0.30007 0.56878-0.12985 0.59263 1.0348 1.9901 3.2902 2.2756 3.5637 0.30845 0.29421 1.7955 1.332 2.3165 1.6472 0.16822 0.10161-0.22988 0.50984-0.28152 0.47868"/>
  <path d="m115.73 101.01c-0.23033-0.69046-1.7059-3.7815-1.9513-4.0651-0.12649-0.1448 0.20456-0.43139 0.33346-0.28963 0.37214 0.40638 1.6368 2.7484 1.993 4.0933 0.0519 0.18905-0.32733 0.4029-0.37515 0.26144"/>
  <path d="m119.09 101.83c0.0547-0.2892 0.052-1.1143-0.10359-1.6321-0.15709-0.51897-2.3184-5.5516-2.7298-6.0015-0.13343-0.14537 0.23517-0.63129 0.36859-0.48592 0.66077 0.71934 2.8744 5.6457 3.0182 6.228 0.14557 0.5862 0.13272 1.5271 0.0264 2.0488-0.035 0.17431-0.61404 0.0348-0.57978-0.15731"/>
  <path d="m177.82 80.783c-4e-3 -1.0035 0.24606-3.3478 0.59455-5.6236 0.18106-1.1868 0.35173-2.3079 0.46306-3.1804 0.32227-2.5284 1.1107-12.349 1.2221-14.944 9e-3 -0.1561 0.50363-0.31464 0.49697-0.15731-0.11344 2.6005-0.79468 12.637-1.1187 15.174-0.11037 0.88066-0.28349 2.0047-0.4657 3.193-0.32847 2.1514-0.71436 4.5085-0.82483 5.6158-0.0739 0.75427-0.36459 0.67636-0.36733-0.0773"/>
  <path d="m177.61 94.637c0.12265-1.1444 0.0883-5.4516-0.016-5.9656-0.11567-0.56492-0.45203-3.4708-0.25678-5.1318 0.0889-0.74497 0.36961-0.7044 0.3392 0.0476-0.0554 1.252 0.36364 4.4355 0.47316 4.971 0.12919 0.63479 0.10629 5.2685-0.0164 6.4129-0.0161 0.15009-0.53947-0.17704-0.52316-0.33411"/>
  <path d="m88.855 99.761c-1.2065-0.29274-3.844-1.7932-5.2132-2.9174-0.46699-0.38313-2.0621-2.6969-2.6603-4.1032-0.0769-0.17934 0.4201-0.40806 0.49852-0.22754 0.56597 1.329 2.2578 3.4929 2.6112 3.7833 1.3118 1.0786 3.8791 2.3976 5.0003 2.7977 0.64183 0.23121 2.3337-0.0221 3.2151-0.26335 0.18785-0.0504 0.37513 0.39642 0.19611 0.47603-0.64113 0.28923-2.6702 0.69109-3.6477 0.45447"/>
  <path d="m82.578 99.223c-0.20433-0.01-0.36354-0.0197-0.46352-0.0314-0.85172-0.10966-3.4324-1.9765-4.3116-2.9948-0.12832-0.1487 0.28215-0.55702 0.41046-0.40833 0.91882 1.0647 3.4694 2.6342 3.9892 2.6994 0.67324 0.0862 4.4377 0.0742 5.3196 3e-3 0.19341-0.0139 0.31189 0.57536 0.11759 0.59355-0.80981 0.0641-3.8027 0.19346-5.0617 0.13747"/>
  <path d="m69.237 97.145c-0.01065-0.69098 0.141-3.2341 0.21615-3.5366 0.06954-0.26756 0.4551-1.0604 2.3681-4.1956 0.64616-1.0589 1.0157-1.7881 1.4509-2.4477 0.43396-0.65822 2.6582-1.3462 3.9765-1.0608 0.59868 0.13034 1.0365 1.025 1.0144 1.5151-0.0078 0.1959-0.28848 0.22677-0.36657 0.0489-0.10148-0.22594-0.50013-0.9589-0.71186-1.0088-1.1506-0.24834-3.0153 0.4368-3.251 0.75223-0.23691 0.31699-0.43223 0.80499-1.5083 2.5697-0.85766 1.406-2.1472 3.5235-2.2662 3.8873-0.0094 0.17-0.37147 2.5903-0.36344 3.2225 0.0031 0.19467-0.55499 0.4414-0.55869 0.25367"/>
  <path d="m76.647 97.732c1.8337-2.6538 2.9354-4.6494 3.1049-5.6138 0.31911-1.8262 0.35091-3.3557-0.35443-4.475-0.08183-0.12658-0.24863-0.16785-0.34329-0.17896-0.24237-0.0302-0.77337 0.0586-0.91629 0.20133-1.4977 1.5014-3.2998 4.5746-3.542 5.7422-0.22506 1.0903 0.08243 2.6082 1.2946 3.8713 0.13432 0.14114-0.20834 0.21894-0.34986 0.0869-1.3523-1.2758-1.6023-2.795-1.3147-4.178 0.29265-1.3988 2.1019-4.3849 3.5858-5.875 0.29576-0.2949 0.78277-0.45518 1.244-0.3969 0.38289 0.0453 0.68973 0.22983 0.86254 0.51489 0.70671 1.1673 0.88562 2.7852 0.52862 4.808-0.23882 1.3651-2.0317 3.8-3.3669 5.7359z"/>
  <path d="m79.798 108.32c-3.1844 1.4162-5.014 1.8927-5.8993 2.0054-1.9143 0.24173-3.9957-0.10025-4.986-0.43571-1.8408-0.62644-4.6787-3.4169-5.5691-4.9765-0.09765-0.16871 0.35477-0.5585 0.47527-0.40615 0.9234 1.1767 3.5851 3.9283 5.2398 4.4883 1.9154 0.65359 3.789 0.51266 4.7338 0.36852 0.69124-0.10408 2.4136-0.48585 5.6513-1.8917z"/>
  <path d="m85.572 105.5c4.3901-2.2428 9.6224-4.9378 11.475-5.1917 0.19488-0.0251-0.0472-0.61399-0.24083-0.59039-1.5711 0.21608-5.1959 1.768-11.651 4.9977z"/>
  <path d="m92.579 111.5c-0.04834-0.0385-5.5978-5.8123-6.2066-6.8329-0.09765-0.16872 0.5404-0.64025 0.63837-0.46883 0.34967 0.60535 5.7233 6.3555 6.0715 6.6493 0.52348 0.4206 1.5539 0.71156 2.5149 0.70836 0.57257-1e-3 4.4464-2.1832 6.0209-3.9242 1.495-1.6563 2.4923-5.0998 2.5428-5.629 0.0174-0.19565 0.51803-0.0815 0.50187 0.11265-0.0602 0.64425-0.91313 4.2127-2.5207 5.9889-1.51 1.669-5.6038 4.2924-6.5636 4.2941-0.49844 9.7e-4 -2.3145-0.34957-2.9996-0.89855"/>
  <path d="m79.794 92.827c1.7922-0.49141 6.2356-2.5562 6.8066-3.3373 0.65071-0.88775 2.0845-3.1372 2.4165-4.0021 0.06987-0.18107 0.58978 0.0888 0.53138 0.2741-0.36598 1.1187-1.6453 3.4095-2.3005 4.306-0.75865 1.0361-6.1149 3.0464-7.7234 3.4865-0.03614 8e-3 0.0789-0.67653 0.26947-0.72725"/>
  <path d="m55.814 68.942c3.4541-2.7396 15.338-8.4739 26.124-11.216 0.19088-0.048 0.3704 1.0013 0.18071 1.0478-10.705 2.7232-21.601 7.825-24.438 9.8007-0.06765 0.0449-2.0188 0.49135-1.8668 0.36814"/>
  <path d="m65.364 67.276c4.3258-1.6187 14.451-3.9814 15.084-4.1419 0.18969-0.0466 0.36305 0.63815 0.17216 0.68616-0.63256 0.16051-10.518 2.5384-14.629 3.7641-0.04125 0.0117-0.81182-0.24054-0.62734-0.30842"/>
  <path d="m89.438 131.5c-0.74645-0.49663-2.2165-1.314-2.4349-1.554-0.44264-0.48205-0.14817-1.7931 0.41974-4.5626 0.39412-1.9144 0.15425-4.1475-0.14642-5.2831-0.07761-0.29324-0.16274-0.6639-0.25676-1.0761-0.29886-1.2993-0.61603-3.5715-1.2122-4.6608-0.09525-0.17173 0.62721 0.27133 0.71944 0.44067 0.64436 1.1745 1.0391 2.6385 1.3453 3.9781 0.09308 0.40408 0.17577 0.7654 0.25124 1.052 0.37188 1.409 0.36996 3.8566-0.0073 5.6908-0.28926 1.4162-0.72867 3.5583-0.49568 3.9011 0.17427 0.19012 0.86727 0.65168 1.376 0.99156 0.57698 0.38424 0.79556 1.3192 0.44151 1.0824"/>
  <path d="m103.32 126.06c-0.24272-0.36767-2.6058-0.73365-3.8783-0.93092-1.159-0.17874-2.2539-0.34829-2.8314-0.55803-1.0037-0.36823-3.0325-6.9268-3.1115-7.2089-0.21582-0.75531-0.82473-4.4321-0.75875-5.9394 9e-3 -0.19473 0.84096-0.11576 0.83327 0.0797-0.06221 1.3846 0.53836 4.9167 0.73398 5.6043 0.60472 2.1212 2.0601 6.4478 2.57 6.8109 0.48552 0.17362 1.7195 0.31076 2.8451 0.48506 2.809 0.43426 3.7433 0.85578 4.0033 1.5057 0.073 0.18114-0.35246 0.27944-0.40568 0.15095"/>
  <path d="m90.961 127.62c-0.20392-0.30484-0.45078-0.56491-0.68976-0.81627-0.48735-0.51264-0.99164-1.0412-1.0049-1.8747-0.01739-1.2162 0.52184-4.1636 0.99014-6.3173 1.0506-4.8451 1.4001-4.888 1.6534-4.9184 0.58888-0.0745 1.7097 1.2664 1.7097 1.2664 0.13193 0.14418-0.17033 0.47827-0.30224 0.33409 0 0-1.1164-1.2068-1.3076-1.1615-0.3008 0.0716-2.2763 8.6322-2.2445 10.765 0.0074 0.55536 0.26231 1.0288 0.70913 1.4993 0.24837 0.26128 0.50442 0.56562 0.74287 0.92004 0.10939 0.16325-0.1914 0.40241-0.25625 0.3041"/>
  <path d="m94.858 124.5c-0.309-0.35868-0.8912-1.1832-1.3584-2.6087-0.27337-0.83797-0.11737-0.95065 0.29261-0.16681 0.44154 0.84339 1.2659 2.4737 1.3585 2.6457 0.29064 0.53385 0.06193 0.5395-0.29275 0.12974"/>
  <path d="m98.303 126.76c-0.43229-0.53543-1.4137-0.92543-2.2861-1.1672-0.68658-0.19037-0.59695-0.40254 0.10923-0.30506 0.43631 0.068 1.8569 0.32382 2.5596 1.1922 0.12321 0.15204-0.3154 0.36309-0.3826 0.28015"/>
  <path d="m87.476 116.87c-1.6496-1.2458-3.806-6.8215-4.1939-8.6448-0.03836-0.19061 0.47674-0.24975 0.53679-0.0616 1.5622 4.7662 3.7016 8.6876 4.3308 8.5933 0.6295-0.0915 0.87726-5.207 0.64283-9.4981-0.01276-0.19492 0.46568-0.0589 0.49502 0.13686 0.15791 1.0765 0.28797 3.1903 0.1582 5.29-0.13301 2.1194-0.38425 3.2208-0.6283 3.8105-0.37942 0.90605-0.84831 0.74563-1.3415 0.37375"/>
  <path d="m48.132 95.856c-0.65747-1.0493-2.148-5.2635-2.5021-6.6979-0.31014-1.254-0.39325-3.2222 0.03616-6.1212 0.25876-1.7657 3.7489-11.309 5.493-12.326 1.1316-0.65867 8.5612-3.7008 10.608-3.8343 0.75381-0.0495 4.4055 0.17681 5.2213 0.58308 0.81997 0.40715 4.2712 3.4925 4.7313 8.2781 0.01819 0.19431-0.73977 0.84167-0.75947 0.64616-0.43288-4.5004-3.6396-7.9682-4.2878-8.2906-0.6017-0.30038-4.052-0.56625-4.8588-0.51203-0.65105 0.0473-9.0935 3.0368-10.299 3.7424-1.4227 0.8267-4.7475 10.003-5.0091 11.77-0.41559 2.8041-0.47729 4.7312-0.18976 5.8958 0.33709 1.369 1.7573 5.8083 2.1707 6.8141 0.23078 0.5627-0.06442 0.51556-0.3551 0.0531"/>
  <path d="m57.983 109.9c-0.54643-0.0225-1.1794-0.12822-1.8953-0.35924-2.4291-0.78552-7.6314-7.4-8.8953-10.73-0.2486-0.65816-0.01622-0.81119 0.32474-0.19797 1.5674 2.8141 6.6035 9.5479 8.7872 10.254 2.4375 0.78728 3.7217-0.0729 3.8585-0.17379 0.30496-0.25064 5.4444-6.5059 7.8327-13.768 2.2506-6.8466 2.3745-8.9854 2.3692-9.0439-0.01637-0.1904 0.45784 0.43498 0.48656 0.62534 0.01769 0.14218 0.21692 1.8059-2.0981 8.8452-2.3648 7.192-7.4168 13.371-8.1718 13.912-0.2059 0.14448-1.0702 0.70243-2.5984 0.63476"/>
  <path d="m41.564 95.112c0.04471-0.13698 0.75143-3.3481 1.4288-4.0988 0.35176-0.39334 1.3402-0.4093 3.5543-0.3119 0.19474 9e-3 0.17136 0.7151-0.02335 0.70587l-0.0096-2.7e-4c-0.0042-8.9e-4 -0.0081 1e-3 -0.01082 1e-3 -1.0187-0.0451-2.7069-0.11915-2.9844 0.0721-0.14905 0.19702-0.7715 1.8932-1.3107 3.6087-0.04795 0.15658-0.70109 0.20959-0.64421 0.0231"/>
  <path d="m43.47 129.59c-0.43922-0.45224-1.3424-1.13-1.0466-1.9029 0.29463-0.77134 1.5246-4.7004 1.8549-5.8672 0.24991-0.88569 0.81963-5.7209 0.48204-7.4772-0.03836-0.19061 0.60589-0.2014 0.64306-9e-3 0.36488 1.8864-0.20114 6.7417-0.45079 7.7016-0.37597 1.4386-1.763 5.6987-1.794 5.9303-0.03261 0.23035 0.25354 0.68917 0.59356 1.1267 0.122 0.15353-0.20584 0.57573-0.28206 0.49795"/>
  <path d="m49.698 132.56c-0.04165-0.0158 0.10011-0.56359 0.29423-0.54744 1.2569 0.13317 2.2226 0.0992 2.2334 0.0979 0.19284-7e-3 0.48082 0.53949 0.28838 0.57393-0.40448 0.0657-2.3993 0.0365-2.816-0.12445"/>
  <path d="m63.567 128.88c-0.23503-1.15-1.8549-2.3279-2.3385-2.5442-0.68609-0.30578-3.0683-1.234-5.4891-2.3776-2.329-1.0978-2.5987-2.204-3.0481-4.0367-0.0621-0.25382-0.12758-0.5251-0.20488-0.81563-0.64602-2.457-0.62791-11.056-0.52696-13.346 0.0078-0.19591 0.56708 0.22605 0.55904 0.41925-0.09536 2.196 0.03276 10.394 0.65153 12.746 0.07641 0.29476 0.14372 0.56996 0.20914 0.82887 0.43928 1.7927 0.63754 2.6104 2.6631 3.5659 2.5397 1.1986 4.8349 2.2302 5.4662 2.5368 0.79427 0.38676 2.2098 1.4713 2.5157 2.9758 0.03988 0.19182-0.42505 0.20949-0.45727 0.0483"/>
  <path d="m44.161 94.204c-0.62475-0.0106-1.7533 0.57897-2.1076 1.0934-0.33081 0.51593-1.3478 7.317-0.55137 10.379 1.0749 4.1232 3.365 8.5435 3.6662 8.4869 0.29964-0.0578 0.89054-5.3665 1.0921-8.0251 0.15732-2.063-0.52051-8.5418-0.64802-9.365-0.07989-0.50447-1.1022-2.3635-1.4513-2.5692m1.0234 20.52c-0.25527-0.0107-0.4489-0.21352-0.65682-0.45747-1.2723-1.4882-2.9014-5.1866-3.7117-8.4171-0.77215-3.0894 0.22875-10.175 0.76409-10.954 0.5156-0.74865 1.8049-1.2304 2.6385-1.1942 0.70678 0.0316 2.0102 2.3526 2.0988 3.0168 0.11804 0.88465 0.81032 7.3453 0.6481 9.4734-0.19147 2.5188-0.73612 6.7235-1.0332 7.5692-0.20637 0.59502-0.34057 0.98121-0.74777 0.96344"/>
  <path d="m52.112 112.44c0.77367-1.1326 1.4458-3.8316 1.5666-4.837 0.02311-0.19354 0.65739 0.28299 0.63277 0.47534-0.12985 1.082-1.0708 3.6168-1.9121 4.7228-0.07257 0.0976-0.39641-0.19894-0.2873-0.36117"/>
  <path d="m46.347 126.9c-0.21348-0.53171-0.85323-1.8578-0.86573-2.9592-0.0091-0.84497 0.90642-4.0677 1.6989-6.8189 1.0196-3.5368 1.51-4.8278 1.8659-5.7353 0.33978-0.86853 0.66979-0.69767 1.0948-0.0817 0.88733 1.2812 2.2578 4.5573 2.3765 4.9694 0.05312 0.18755-0.24472 0.8233-0.29935 0.63454-0.20176-0.70473-2.3456-5.4303-2.6491-5.4889-0.10489-0.0172-3.5968 11.055-3.5788 12.503 0.0096 0.96851 0.60978 2.1892 0.80235 2.6698 0.09276 0.23381-0.37464 0.48111-0.44549 0.30659"/>
  <path d="m51.124 123.64c-0.25259-1.2551-0.30994-2.6041-0.30587-2.9754 0.0033-0.41377 0.17749-0.41591 0.27177-0.0133 0.1843 0.7919 0.34454 2.092 0.34667 2.924 0.0019 0.61506-0.1941 0.65405-0.31256 0.0647"/>
  <path d="m56.085 128.15c0.08859-0.66391-3.2915-2.7466-3.7412-3.0397-0.33258-0.21728-0.84194-0.73013 0.26136-0.30744 1.1021 0.42421 4.2073 2.5893 4.1722 3.2044-0.0104 0.19623-0.66007 0.30377-0.69229 0.14266"/>
  <path d="m49.988 79.867c0.21331-1.2523 2.4599-7.2126 2.8446-8.0726 0.38472-0.86002 0.68392-0.53861 0.40005 0.20678-0.28418 0.74266-2.2393 6.4909-2.8446 8.0725-0.26299 0.68806-0.58 0.85768-0.40005-0.20677"/>
  <path d="m48.746 97.586c-0.52418-0.11561-0.52113-0.3522 0.01449-0.32854 0.09941 6e-3 0.96189 0.0636 1.1622-0.0455 0.16933-0.0922 0.56972-1.1147 0.6801-1.4213 0.0838-0.23898 0.37858-1.7987-0.282-4.6097-0.62385-2.6587-0.86123-5.6955-0.7798-7.5823 0.03237-0.71101 0.27152-0.66156 0.34462 0.0469 0.1783 1.7087 0.49694 4.9627 1.0782 7.4299 0.61776 2.6415 0.41002 4.3492 0.18983 4.9554-0.13309 0.36-0.58703 1.4902-0.96689 1.6987-0.25115 0.13322-1.1153-0.0728-1.4407-0.14368"/>
  <path d="m52.992 104.99c-0.55129-0.28005-0.3662-0.42628 0.11864-0.35422 0.48333 0.0709 1.8793 0.50666 2.8591 0.35573 1.224-0.18858 3.6588-6.1004 4.9237-10.132 0.3551-1.1299 0.70646-16.098 0.22604-20.259-0.42101-3.6434-2.0772-4.4434-2.9134-4.8364-0.75045-0.35196-0.40175-0.42496 0.16736-0.30077 0.66502 0.14616 2.9811 1.012 3.4482 5.0565 0.46427 4.0202 0.33988 19.171-0.09146 20.546-0.3259 1.0372-3.4361 9.9781-5.5472 10.48-0.80904 0.19038-2.6397-0.27512-3.191-0.55523"/>
  <path d="m29.224 51.896c-1.3106-0.91255-12.496-8.8357-13.512-9.6351-0.90455-0.71334-5.1555-3.8744-6.6282-5.5169-0.53709-0.59893-0.59915-1.008 0.59124-0.91526 1.4837 0.1109 4.9615 0.91642 8.5195 2.3716 5.5523 2.2701 11.554 5.005 18.015 8.334 0.17241 0.09 0.37142 1.1179 0.19902 1.0278-6.4434-3.3201-12.948-6.4449-18.48-8.7063-3.7596-1.5364-8.3527-2.7616-8.475-2.5457-0.11794 0.21681 3.5888 3.1946 6.6771 5.3684 5.4175 3.8114 12.229 8.5546 13.54 9.4656 0.15983 0.11212-0.3913 0.79067-0.44658 0.7517"/>
  <path d="m26.356 70.396c-16.903-9.6249-24.58-16.339-26.077-18.403-0.41496-0.57589-0.47081-1.182 0.55768-1.0281 2.0847 0.31003 7.8471 2.5917 8.5808 2.8934 6.2205 2.5642 12.405 5.0679 15.574 6.5074 0.17809 0.0799-0.02112 0.98853-0.19769 0.90991-3.1616-1.4362-9.5878-4.1883-15.805-6.7499-3.8752-1.5987-8.1673-3.2278-8.3338-3.0151-0.16767 0.21427 7.4523 7.4672 25.233 17.594 0.1688 0.0946 0.51832 1.3208 0.46819 1.2908"/>
  <path d="m24.495 62.726c-0.05913-9.0329 6.6089-13.194 8.6745-13.984 0.86971-0.33195 1.0406 0.0206 0.22228 0.46479-0.46558 0.25122-8.1325 4.433-8.4116 13.51-0.02552 0.85444-0.47933 0.86121-0.48515 9e-3"/>
  <path d="m43.473 46.675c-2.49-2.5365-7.7629-5.686-9.4675-6.3349-0.55014-0.21014-1.0367-0.26141-0.72992 0.65239 0.17028 0.50234 3.057 6.7935 3.869 8.3154 0.38807 0.72454 0.62416 0.67547 0.36968-0.10563-0.61497-1.8755-3.5321-7.7497-3.841-8.5026 1.5884 0.74881 6.5905 3.9322 9.1053 6.4932 0.16788 0.17026 0.3273 0.33874 0.48251 0.50633 0.32893-0.042 0.65924-0.11963 0.98745-0.19165-0.24418-0.27274-0.49713-0.54996-0.77541-0.83253"/>
  <path d="m47.944 53.83c-0.15904-0.55994-0.48999-1.6481-1.3121-3.0796-0.43991-0.14727-0.87711-0.29485-1.2858-0.49376 1.2403 1.7832 1.7357 3.1326 1.9171 3.7669 0.2335 0.81372 0.74147 5.4057 0.38221 5.5665-0.18412 0.0829-1.3968-1.2446-1.7087-1.5687-1.5978-1.6556-3.5822-3.7117-4.9911-4.2958-2.4311-1.0064-5.4991 1.6628-7.4527 4.2658-1.2557 1.6714-3.5197 6.1641-1.6323 8.2245 1.3643 1.4873 4.43 2.5912 7.4546 3.5514 0.40457 0.12665 1.3284 0.42157 1.3987 0.60302 0.06726 0.17907-0.15838 0.45081-0.86621 0.96054-1.29 0.92957-2.8147 1.8256-3.2689 1.805-2.388-0.10487-5.7072-0.44905-7.9663-1.4889-1.9999-0.9227-3.1874-4.3888-3.3494-4.9854-0.16194-0.59664-0.58-0.96072-0.40141 0.1642 0.18129 1.1246 1.1579 4.4034 3.4535 5.4624 2.365 1.0895 5.6943 1.5451 8.1456 1.651 0.87258 0.0399 2.7989-1.2566 3.7663-2.0778 0.75316-0.64132 1.2016-1.1378 1.1-1.6398-0.11021-0.55319-0.78461-0.79302-1.8761-1.1374-1.8316-0.58217-5.6443-1.7912-7.0699-3.347-1.4069-1.536 0.73469-5.9584 1.7297-7.2084 1.5365-1.9288 4.4312-5.0313 6.5638-4.1486 1.2718 0.52694 3.2426 2.4885 4.7109 4.0092 0.31219 0.32674 1.2167 1.2667 1.7252 1.6532 0.36836 0.2777 1.0725 0.4894 1.2504-0.71214 0.14568-0.95614-0.17302-4.6414-0.41724-5.5006"/>
  <path d="m31.069 75.676c-1.3762-0.38314-3.4646-2.6993-4.3789-4.8494-0.0769-0.17932 0.48078-0.29828 0.55648-0.11744 0.89758 2.1122 2.9933 3.9537 4.0418 4.2934 0.94196 0.30937 4.457 0.0748 5.6133-1.5055 0.11514-0.15742 0.59017 0.11635 0.50161 0.28988-0.84023 1.6416-4.5976 2.3737-6.3342 1.8891"/>
  <path d="m25.156 58.949c-0.07098-0.044-6.2458-4.028-7.5309-6.0587-0.2149-0.34065-0.33231-0.96855 0.57102-0.92392 1.861 0.0953 7.3611 1.6957 8.9734 2.2935 0.18227 0.0683-0.20729 0.75445-0.39228 0.68641-2.8692-1.066-8.5954-2.6857-8.7668-2.4325s4.0161 3.6152 7.4347 5.7113c0.16551 0.10188-0.23592 0.75637-0.28907 0.724"/>
  <path d="m48.968 74.859c-2.3805-1.1042-2.8987-0.83323-4.2481-0.56432-0.38004 0.0752-0.81127 0.15905-1.364 0.23761-2.3114 0.32303-5.116-0.32464-6.3129-0.53332-0.1568-0.0259 0.34134-0.68743 0.50387-0.65939 1.1603 0.20189 3.5721 0.62133 5.7739 0.31225 0.53404-0.0737 0.95292-0.15747 1.3221-0.23143 1.4379-0.28732 2.033-0.40368 4.6224 0.79741 0.17839 0.0826-0.25374 0.6609-0.29721 0.64117"/>
  <path d="m54.733 69.6c-3.2326-2.1381-3.4185-3.6138-3.6324-5.321-0.03877-0.30182-0.07727-0.61327-0.136-0.9334-0.39023-2.143-1.7055-4.8308-2.935-5.9944-0.14183-0.13479 0.10304-0.66969 0.25117-0.53973 1.7422 1.514 3.1176 4.3185 3.4857 6.3404 0.06242 0.34029 0.10185 0.65989 0.14036 0.97136 0.20141 1.5989 0.25506 2.9276 3.2157 4.8868 0.16192 0.10638-0.33464 0.62623-0.38961 0.58997"/>
  <path d="m46.87 68.934c-7.8316-0.9138-15.235-5.5726-15.322-5.619-0.1712-0.0916-0.0062-0.54452 0.165-0.45294 2.2335 1.1994 9.6758 4.7949 15.098 5.5622 0.19234 0.0248 0.06967 0.51115 0.05851 0.50968"/>
  <path d="m50.887 71.523c-1.1004-0.61256-4.3362-2.6473-4.3303-2.7756 0.01611-0.37405-1.0224-2.3616-2.5449-4.2112-1.0419-1.2634-7.0146-6.4421-8.9496-7.5179-0.1688-0.0946 0.09975-0.49491 0.27607-0.40664 3.1084 1.559 8.2157 6.2575 9.218 7.4746 1.1938 1.4506 2.3216 3.6174 2.5094 4.5477 0.62397 0.37471 3.216 1.7431 4.1651 2.27 0.17031 0.0959-0.29388 0.64628-0.3437 0.61903"/>
  <path d="m170.92 84.105c0.32824 0.5982 0.92756 2.6486 2.1275 6.94 0.6098 2.1892 1.3027 4.6711 1.4727 4.9565 0.5355 0.6568 4.9579 5.8858 5.0436 5.8897 0.0867 3e-3 -0.27677-3.4278-0.41058-3.8395-0.22736-0.70043-7.9952-16.611-8.0817-16.585-0.0864 0.0251-0.13549 1.9151-0.15161 2.6392m7.6864 27.892c-0.19035-0.7967-1.3564-2.9028-1.645-3.4548-0.26221-0.5014-0.75469-1.3458-1.3673-3.2244-0.57845-1.7726-1.2687-2.6286-2.5447-3.1565-0.15724-0.0657-8.1925-3.0039-9.4609-4.1589-0.77736-0.70597-2.8651-4.081-4.5588-7.0028-3.5563-6.1305-3.3288-6.7925-3.2294-6.9673 0.27513-0.49854 1.4172-0.49095 2.467-0.367-0.0737-0.63016-0.58349-2.7498-0.9-5.6745-0.5517-5.1048-0.34839-5.547-7e-3 -5.6453 0.18906-0.0519 0.3128-0.0867 2.0591 1.2235 1.0806 0.81123 2.4164 1.872 3.7597 2.9854 1.8732 1.5539 5.1377 4.353 7.1971 6.6436 0.0977-2.3076 0.35957-2.383 0.57663-2.4422 0.376-0.11046 1.0278 0.97385 4.6068 8.3419 1.8579 3.8259 4.0374 8.3949 4.1834 8.8409 0.25786 0.79855 0.30215 3.9358 0.30585 4.291 0.0131 0.93927-0.40811 0.47672-0.61691 0.23701-0.18912-0.21177-4.7815-5.1864-5.4055-6.1351-0.57545-0.87334-3.0666-11.482-3.5468-12.113-1.7292-2.2626-12.768-11.475-12.942-11.414-0.12822 0.0435 0.21764 2.8289 0.55695 5.306 0.12782 0.92199 0.89566 5.5528 0.90599 5.9774 7e-3 0.32605-0.11548 0.30993-0.40007 0.28353-0.87998-0.0798-2.2108-0.25978-2.3091-0.12351-0.0525 0.0692 0.14483 0.71126 3.3345 6.4471 1.7069 3.0727 3.6744 6.0936 4.306 6.6666 1.1762 1.0694 9.2279 4.0799 9.3866 4.1468 1.4764 0.61058 2.2758 1.7233 2.9185 3.6972 0.5879 1.8072 0.95292 2.6662 1.2136 3.1293 0.4383 0.77922 1.4126 2.6148 1.6333 3.544 0.0466 0.18969-0.44078 0.27583-0.47812 0.11806"/>
  <path d="m92.832 127.46c-0.74387-0.0313-1.5252 0.25749-1.9989 0.58106-0.58317 0.39933-1.2485 1.411-1.2854 2.2022-0.0162 0.36168 0.17057 0.66024 0.41781 0.86397 1.5494 1.282 2.8193 2.4973 3.7449 3.3827 0.58335 0.5593 1.173 1.1852 1.6172 1.6808 0.18789-1.2823-0.06539-6.946-1.3699-8.1764-0.2897-0.27438-0.68113-0.51375-1.1257-0.53412m2.0396 9.0212c-0.48604-0.40566-0.81736-0.68351-1.6505-1.4806-0.91661-0.87812-2.1768-2.0807-3.7066-3.3472-0.42198-0.34984-0.6311-0.8436-0.60402-1.4331 0.04711-1.0492 0.83299-2.1351 1.55-2.6253 0.7374-0.50355 1.5708-0.72145 2.3505-0.68873 0.61848 0.0279 1.1386 0.20439 1.5572 0.59584 1.5818 1.4926 1.8281 6.377 1.5638 8.3698-0.18247 1.3778-0.78528 0.84003-1.0604 0.60929"/>
  <path d="m102.84 135.84c-0.63024-0.35751-1.6384-0.96831-3.1484-1.9184-1.522-0.9597-3.2647-2.0232-4.418-2.594-0.17751-0.0868 0.13722-0.71892 0.31171-0.63458 1.1852 0.58634 2.9344 1.6696 4.4781 2.6268 1.1589 0.71572 2.6569 1.7894 3.3086 2.1664 0.0136-0.55093-0.4226-2.425-1.631-4.7913-1.4235-2.7812-2.6109-3.5664-3.3572-3.7375-0.59445-0.12957-2.1921 0.72823-3.1028 2.1512-0.10601 0.16464-0.49329-0.15761-0.3872-0.32223 0.95556-1.4982 2.6198-2.7564 3.6484-2.5188 1.2975 0.29602 2.6826 1.6299 3.828 4.1065 0.93885 2.0292 1.4718 3.7754 1.4979 4.7448 0.0354 1.3611-0.50377 1.0193-1.0283 0.72098"/>
  <path d="m106.26 134.11c-0.5813-0.40984-1.1404-0.77002-2.3584-1.7496-0.78854-0.636-1.607-1.2933-2.0146-1.5184-0.17031-0.0958 0.1737-0.71213 0.3437-0.61902 0.45931 0.25628 1.2642 0.90278 2.1159 1.5864 0.71268 0.57329 1.8983 1.7487 2.3606 2.0075 0.0774-0.67773-0.33933-3.0636-0.64795-3.9813-0.32631-0.97611-1.5354-3.4687-2.453-3.5666-0.45276-0.0445-1.4832 0.0961-2.9182 1.6769l-0.49686-0.39206c0.48895-0.5382 2.1243-2.1323 3.4894-1.9896 1.656 0.17653 3.0381 4.009 3.0506 4.046 0.0713 0.2143 0.65913 2.667 0.50124 3.9116-0.1542 1.2057-0.57939 0.86308-0.97214 0.58817"/>
  <path d="m55.026 127.9c-0.65013-0.0283-1.276 0.15472-1.4272 0.24899-0.47087 0.28891-1.7068 3.065-1.491 3.4852 1.2307 1.2211 2.4086 2.6887 3.3461 3.9284 0.72493 0.95507 1.7304 2.4039 2.0916 2.5946 0.51489-0.77877 0.88804-6.5487-0.25481-8.6314-0.52119-0.95099-1.2362-1.5804-2.2645-1.6257m1.949 10.445c-0.55913-0.52774-1.1132-1.0712-2.0847-2.355-0.92447-1.222-2.074-2.7408-3.2801-3.9401-0.18903-0.18706-0.25246-0.47642-0.19337-0.88287 0.15258-1.0517 1.2798-3.2316 1.8305-3.531 0.27159-0.14654 0.95824-0.35035 1.7395-0.31642 0.88884 0.038 2.1176 0.39278 2.924 1.8658 1.1725 2.1383 0.87287 7.3037 0.23019 8.8361-0.41972 1.0095-0.74049 0.72776-1.1659 0.32339"/>
  <path d="m65.205 135.7c-0.46271-0.20233-1.0354-0.4772-2.0435-0.97949-1.5626-0.77512-3.375-1.7633-5.0311-2.1445-0.19031-0.0427-0.03341-0.73368 0.15872-0.68706 1.749 0.40074 3.7044 1.5469 5.1644 2.3366 0.68965 0.37269 1.668 0.91547 2.0261 1.0323 0.01509-1.2322-0.68268-4.2355-2.0578-6.2366-0.67288-0.98025-1.6419-1.6092-2.2263-1.5312-0.58825 0.0799-2.1159 1.8951-2.7668 3.4503-0.0783 0.1793-0.46002-0.45396-0.38593-0.63414 0.63098-1.5021 2.1442-3.4792 3.1763-3.4726 2.036 0.0176 3.2692 2.2658 3.9419 4.1181 0.47303 1.2971 0.92822 3.2404 0.83682 4.2027-0.0789 0.83173-0.39547 0.71837-0.79298 0.54563"/>
  <path d="m47.795 126.94c-0.88716-0.15491-3.2755 1.3168-3.6556 2.1213-0.31094 0.67706 0.82324 7.6734 1.4435 8.9371 0.81946-0.72172 4.1003-5.772 4.192-7.1504 0.11052-1.5852-1.3464-3.7967-1.98-3.908m-2.8048 10.992c-0.62975-1.4659-1.9752-8.1372-1.4896-9.1708 0.50834-1.087 3.0349-2.6337 4.3966-2.3904 0.88897 0.15888 1.5931 1.2921 1.8544 1.773 0.53697 0.98076 1.0051 2.4982 0.56741 3.5427-0.2856 0.6824-2.7759 5.1901-4.1658 6.469-0.64606 0.59331-0.8121 0.59452-1.1629-0.22359"/>
  <path d="m111.69 107.87c0.57432 0.56446 0.96413 1.9385 1.206 3.2909 0.91604-0.84954 3.2418-2.7825 4.0654-1.8772 0.92291-1.2802 1.9972-3.4307 2.2801-4.3518 0.26627-0.86283 0.0484-2.3541-0.0467-2.7153-0.36108-0.26206-2.2686-1.0868-2.5807-1.1376-0.35067 0.032-1.9422 1.3505-2.1939 1.7296-0.25326 0.37793-2.4311 4.365-2.7302 5.0612m1.2474 3.999c0.0332 0.82709 0.87373 4.8357 0.87373 4.8357s1.0715-1.6132 1.7695-3.4046c0.77417-1.9896 1.1815-3.5732 0.91199-3.7799-0.26654-0.20426-2.3524 1.1628-3.5552 2.3487m0.29835 4.5488c-0.3233-1.4764-0.79722-4.0973-0.82847-4.6445-0.0326-0.10475-0.0612-0.27038-0.12154-0.60407-0.12149-0.6755-0.56106-2.7936-1.0661-3.0419-0.14854-0.0736-0.0661-0.19292-0.0258-0.3555 0.11283-0.4648 1.8468-4.1907 2.5782-5.2484 0.2674-0.38641 2.1871-2.0874 2.8746-2.0564 0.15734 7e-3 2.988 1.0249 3.1668 1.5413 0.10019 0.28652 0.44582 2.0172 0.10393 3.1304-0.34697 1.1289-1.8872 3.8754-2.8075 4.9383-0.17177 1.7337-1.591 5.1626-2.6905 6.6156-0.77977 1.0317-0.9368 0.86018-1.1838-0.27473"/>
  <path d="m108.45 114.85c0.19126-1.5039 1.5882-5.3669 2.8671-7.2662 0.10788-0.16071 0.45601 0.26354 0.34691 0.42577-1.3791 2.0439-2.7891 7.1088-2.7891 7.1088s2.4048-1.6632 3.6379-3.1727c0.12421-0.15022 0.49793 0.43727 0.38278 0.59469-0.0213 0.03-2.0377 1.9892-3.5561 2.8557-0.92023 0.52592-0.97768 0.14521-0.88948-0.54612"/>
  <path d="m78.787 106.73c-1.2964-1.458-4.3609-2.6348-6.7219-3.4968-1.7062-0.62542-2.8083-1.062-3.2679-1.56-0.70465-0.7665-0.78259-2.7133-0.69605-3.1201 0.1022-0.48556 0.48332-1.0897 0.9693-1.5342 0.3454-0.31708 0.8853-0.43537 1.5916-0.27612 0.63458 0.14411 0.5872 0.29379 0.01589 0.38961-0.56981 0.097-1.0214 0.15981-1.2153 0.33591-0.36522 0.33584-0.60035 0.89571-0.67025 1.232-0.08798 0.41799-0.0044 2.0908 0.43034 2.5641 0.34339 0.37122 1.691 0.86475 3.1201 1.386 2.4358 0.89188 5.1575 1.8458 6.5737 3.4383 0.12921 0.14447-0.06339 0.71594-0.12966 0.64115"/>
  <path d="m87.446 111.76c-1.2634-0.86028-3.1424-2.4534-4.4791-3.9878-0.128-0.14599 0.17228-0.60485 0.3042-0.46067 2.4009 2.6208 4.6786 4.2546 4.6786 4.2546s-1.0119-5.0931-4.2538-7.6723c-0.97835-1.213-2.8389-3.2669-7.6766-5.9033-0.29863-0.16074-1.9738-0.70732-3.8191-0.82235-0.69419-0.0409-0.79263-0.43226-0.10896-0.45856 1.9814-0.075 3.855 0.42955 4.2777 0.66668 2.4109 1.3452 5.409 3.4031 7.5996 6.0591 2.2353 1.5136 4.0377 5.3226 4.366 7.5126 0.2178 1.4665-0.42532 1.1283-0.88875 0.81208"/>
  <path d="m79.777 104.32c-0.61416-2e-3 -1.0824 0.59672-1.1114 0.90632-0.05602 0.5764 0.9531 1.4713 1.6777 3.8356 0.70637 2.3128 1.0717 3.9752 1.0717 3.9752s1.4248-4.4692 1.3722-5.9203c-0.05487-1.5786-0.20071-1.9876-0.65689-2.2168-0.32245-0.16488-1.6291-0.57659-2.3533-0.57997m1.092 8.6507c-0.53999-1.9761-1.1477-4.0874-2.2129-6.3081-0.33221-0.6925-0.61071-1.1206-0.57624-1.5023 0.06343-0.69125 0.70366-1.4075 1.6731-1.4089 1.0532-1e-3 1.9913 0.32213 2.4542 0.54916 0.97819 0.48102 1.1952 1.0796 1.2505 2.6142 0.04397 1.2324-0.77497 4.6624-1.6402 6.3013-0.37801 0.71499-0.71227 0.61466-0.94835-0.24546"/>
  <path d="m82.813 106.29c0.2221-0.74515 0.67254-2.4202 0.67834-2.8961 0.0011-0.19377 0.4718 0.0417 0.46796 0.23606-0.0056 0.62143-0.41688 1.9556-0.72426 2.867-0.05187 0.1584-0.47741-0.0194-0.42205-0.20699"/>
 </g>
 <path d="m59.435 29.989 0.75869-2.0778 0.83805 0.14579q-1.5641 4.2897-2.5521 7.556l-0.81609-0.33551q0.71447-2.3113 1.7715-5.2885" fill="#89959d" stroke-width=".27214"/>
 <path d="m45.471 27.486c-0.07483 0.22147 1.2685 1.3349 3.0847 2.4174 4.4299 2.6379 11.956 6.3033 13.141 6.6151 0.04108 0.01 0.0787 0.0159 0.1161 0.0182 0.80898 0.0362 1.9073-1.797 2.3513-3.4576 0.22298-0.83315 0.31245-1.8364 0.23397-2.6157-0.0494-0.49012-0.20886-1.3288-0.7289-1.4682-1.3528-0.40642-8.9795-1.4976-13.977-1.7177-3.3085-0.14345-4.1464-0.0129-4.2212 0.20854m16.015 9.7968c-1.1592-0.29955-13.902-6.4288-16.28-9.1869-0.29446-0.33976-0.79809-1.0181 0.38602-1.2432 0.84922-0.16343 2.1342-0.23953 4.168-0.1942 5.3712 0.11814 12.77 1.1586 14.138 1.5701 0.476 0.12666 1.1246 0.74025 1.2729 2.223 0.08817 0.87571-0.03218 1.921-0.27924 2.8434-0.41948 1.574-2.0977 4.3266-3.4056 3.9878" fill="#0f141b"/>
 <path d="m62.853 31.555q-2.3379-0.72925-6.9866-1.8733l-6.9016-1.638q-0.76769-0.19718-0.82909-0.3497-0.062-0.13892 0.88898-0.0835 7.9719 0.52736 13.563 1.6039 1.2837 0.23347 1.2416 1.8116-0.03584 0.81564-0.97666 0.52913" fill="#fff" stroke-width=".27214"/>
 <path d="m42.513 48.488c-0.0459 1.0477 15.117 4.8168 17.65 4.9285l0.07898 6e-3c0.8599 0.0372 1.7581-1.9131 1.9537-3.618 0.14145-1.2084-0.17986-3.8757-1.2005-3.9494-2.6324-0.18815-18.436 1.5863-18.483 2.6328m17.708 5.7667c-1.5124-0.13398-5.5058-1.016-9.7973-2.1494-4.7021-1.2401-6.7505-2.1792-7.7171-2.7275-1.153-0.65185-1.1236-1.3652 0.21374-1.7989 1.3018-0.42001 3.3218-0.92523 7.9738-1.5924 4.3559-0.62639 8.701-0.92881 10.02-0.92372 1.6958 9e-3 2.1477 3.4423 1.9863 4.8247-0.20801 1.801-1.1673 4.4986-2.6794 4.3674" fill="#0f141b"/>
 <g fill="#fff" stroke-width=".27214">
  <path d="m61.414 47.564q0.16941 0.48415-0.02045 0.77545-0.20525 0.33149-0.84357 0.28982-2.8807-0.15382-14.451-0.32171l-0.79906-0.10321q-0.10338-0.12713 0.70584-0.25501 8.0111-1.296 13.891-1.5144 1.1319-0.032 1.5167 1.129"/>
  <path d="m49.294 130.89q-0.14892 1.2193-2.6567 4.9772-0.23303 0.34388-0.29742 0.25933-0.06379-0.0981 0.0043-0.40841l0.82633-3.9272 0.69907-3.5105q0.1552-0.7423 0.53674-0.12624 1.0206 1.5703 0.88768 2.7358"/>
  <path d="m57.109 130.35c0.47068 1.2737 0.64503 2.9885 0.52307 5.1442-0.02499 0.36211-0.06821 0.51911-0.12966 0.47101-0.04372-0.0383-0.08739-0.18093-0.13102-0.42798-0.20856-1.4529-0.57378-2.8537-1.0956-4.2023-0.39987-1.0255-0.82129-1.8703-1.2643-2.5344-0.12877-0.1691-0.15984-0.28851-0.09322-0.35822 0 0 0.09015-0.0806 0.36823-0.0111 0.84273 0.24587 1.4502 0.88548 1.8225 1.9188"/>
  <path d="m64.621 133.27c-0.7329-1.712-1.683-3.3383-2.8502-4.8787-0.15516-0.18842-0.18663-0.29876-0.09441-0.33103 0 0 0.12318-0.0235 0.28308 0.0669 0.59406 0.32575 1.1645 0.98188 1.7114 1.9684 0.58032 1.0516 0.98019 2.077 1.1996 3.0764 0.06802 0.31171 0.06185 0.45218-0.01852 0.42141-0.0717-0.0213-0.14869-0.12914-0.23095-0.32341"/>
  <path d="m94.774 133.95q-1.0245-3.3411-2.5566-5.6694-0.19196-0.28084-0.07724-0.412 0.10053-0.11816 0.37182-0.0926 1.0845 0.11575 1.4765 1.1136 0.83359 2.1069 0.99363 4.9742 0.01226 0.34104-0.05512 0.32446-0.06737-0.0166-0.15297-0.23827"/>
  <path d="m102.14 133.14-1.7819-2.8432q-1.111-1.6832-1.8932-2.4803-0.22214-0.21407-0.16358-0.30683 0.0721-0.0922 0.35344 0.0155 0.58798 0.25738 1.34 1.1212 1.0881 1.2736 2.2977 4.4322 0.12161 0.33223 0.0542 0.31565l-0.20675-0.25425"/>
  <path d="m106 131.61q-1.0108-2.4143-2.5648-4.5529-0.20496-0.29503-0.10681-0.35882 0.0722-0.0922 0.35105 0.0699 0.49163 0.28039 0.95174 0.968 0.90604 1.3882 1.509 3.7846 0.0784 0.38481 0.0259 0.34164-0.081-0.0172-0.16597-0.25245"/>
  <path d="m81.536 110.37q0.03687-1.769-0.20577-4.9259-0.01703-0.23229 0.08111-0.29608 0.09934-0.091 0.27188 0.0119 0.76934 0.46965 0.75292 1.4632-0.01611 1.6065-0.61466 3.7594-0.12727 0.41664-0.20704 0.37227-0.09277-0.0586-0.07843-0.38481"/>
  <path d="m86.855 109.58q-1.548-2.5878-2.6751-3.904-0.24694-0.26964-0.15223-0.56512 0.03316-0.13475 0.18269-0.12817 0.12294-8e-3 0.30549 0.17686 1.5384 1.5658 2.536 4.2792 0.13699 0.29204 0.05244 0.35643-0.07155 0.0786-0.24932-0.21526"/>
  <path d="m116.2 110.39c-0.20146 1.0717-0.74509 2.4915-1.6309 4.2596-0.13922 0.27536-0.23049 0.38939-0.27381 0.34209-0.0437-0.0383-0.0467-0.1746-9e-3 -0.40901 0.2124-0.90776 0.41311-2.0657 0.60211-3.4739 0.0482-0.27029 0.16217-0.48774 0.34193-0.65236 0.23104-0.21138 0.5203-0.37213 0.5203-0.37213 0.21362-0.10865 0.34308-0.16198 0.3884-0.15999 0.0812 0.0127 0.1016 0.16793 0.0613 0.46578"/>
  <path d="m111.13 109.3c0.1203-0.25803 0.21804-0.31276 0.29324-0.16417 0 0 0.0698 0.1247 0.11159 0.25006 0.0704 0.25734 0.0474 0.46972-0.0689 0.63713l-1.502 2.876c-0.12857 0.23951-0.21018 0.34035-0.24484 0.30251-0.0347-0.0379-0.0106-0.17301 0.0723-0.40543l1.3386-3.4961"/>
 </g>
</svg>
