<?xml version="1.0" encoding="UTF-8"?>
<!-- Created with Inkscape (http://www.inkscape.org/) -->
<svg version="1.1" viewBox="0 0 306.52 321.26" xmlns="http://www.w3.org/2000/svg">
 <g transform="translate(32.857 8.342)">
  <path d="m21.763 63.488c-23.42 0-39.459 17.615-39.459 31.709 0 4.5422 7.1397 13.896 11.597 17.615-2.1164 0.94955-5.5356 2.7239-7.5228 5.8764 1.1628-0.0804 6.0892 0.88115 8.9563 2.1164 2.8688 1.2352 5.536 2.6676 6.1604 3.082 0.61158 0.4104 2.1164 1.5048 3.4079 1.4324 1.3076-0.0804 4.7268-1.0944 5.4792-1.7019 0.7363-0.62364 3.2067-4.5136 4.7123-6.0892 1.5048-1.5772 5.6635-6.6287 7.3099-6.6287 1.6336 0 6.3588 0.48282 9.4247 3.762l3.2953 4.5707 3.9591 3.8304c10.106-1.3479 14.251-4.9111 18.311-11.001 1.364-2.056 4.7123-9.2971 4.3148-15.102-5.8196-1.1628-13.058-2.06-15.926-2.4704-2.8808-0.4104-7.8632-1.2191-8.346-2.386-0.46673-1.1628 1.4324-6.5575 4.7835-11.412 3.3516-4.8544 6.8416-9.3684 6.8416-9.3684-10.958-6.813-13.995-7.835-27.296-7.835" fill="#A4725D"/>
  <g fill="#d7a400">
   <path d="m10.828 12.914c-1.2191 0.86505 17.771 25.422 21.05 29.793 3.2792 4.372 19.318 25.336 19.318 25.336-2.3698 3.4642-15.557 21.291-13.825 23.789 1.9715 2.8688 25.563 4.5989 32.661 7.5083 7.1824 2.9372 8.9564 5.7488 11.213 9.8508-2.5268 0.61156-7.5795 1.702-10.39 4.3007 8.5447-1.3076 17.97 0.20117 21.533 1.9152 3.5488 1.702 7.4516 4.1591 8.4735 7.6507 1.9715-0.16093 8.3319-1.7744 8.8147-3.0096 0.48283-1.2191 8.0478-23.151 9.0416-24.939 1.7301-3.1102 8.119-9.1125 12.306-12.306 4.1873-3.1947 10.745-7.6503 12.122-8.4739 1.364-0.82481 3.0096-3.9189-0.28165-5.7343-3.2792-1.8307-15.67-7.8491-15.855-10.035-0.16094-2.1848 20.965-60.495 21.603-62.511 1.364-4.3007 0.28165-4.4001-3.3798-1.9031-1.7301 1.1789-42.27 38.906-42.27 38.906-12.831-3.7741-28.062-1.9595-36.28 3.9189-9.9216-4.372-53.299-25.876-55.854-24.059"/>
   <path d="m115.07 104.2c9.9642-3.8183 24.741-1.0944 32.533 6.288 0 0-2.06 3.2792-2.398 5.6068-3.7459-3.42-7.9911-6.9124-15.642-8.1331-7.6507-1.2352-14.691 0.75239-15.997 1.2915z"/>
   <path d="m154.17 130.03c0.94955 1.7744 4.3719 8.7435 5.266 10.872 0.88115 2.1164 4.1591 7.7787 8.6727 12.221 10.078 9.9357 21.986 15.315 37.458 15.315 8.1758 0 14.805-1.3197 18.41-3.2068-1.4203-0.82482-2.9251-2.9653-2.8808-3.2349 0.0403-0.28165 2.4704-0.28165 3.5206-0.0403 1.0381 0.24141 3.8183 0.62365 3.8183 0.62365-0.28164-1.1789-1.4605-4.0034-4.0034-6.1459 3.4642-1.364 9.1129-4.3716 9.652-6.7849-2.8245 0.32188-5.4221 0.0804-6.4722-0.49489 0.86505-0.86506 8.5729-3.42 8.5729-3.9189 0-0.51099-2.2854-2.5992-5.4647-4.2014 1.549-1.3197 4.7836-3.2349 7.7928-3.7741-3.6493-2.7803-9.1692-4.4569-13.995-3.9592 0.8369-1.7301 1.9997-6.3447 0.79666-8.2184-7.3099 7.7501-22.625 13.087-35.059 13.087-8.1903 0-13.768-1.3358-17.714-4.5562-3.2349 0.49489-8.758-0.32187-11.355-0.78056-2.5992-0.45466-7.0122-2.7963-7.0122-2.7963"/>
   <path d="m31.765 189.08c-12.576 9.4247-31.184 11.213-42.809 9.4959 0.97771-0.75239 2.6555-3.0378 2.6555-3.9873-1.6054-0.0804-5.0531 0.78056-6.9269 2.0439-0.12074-1.4042 1.0944-5.1952 2.0721-6.4867-2.7963-0.32189-8.8147-1.545-11.001-4.1732 1.6054-0.51099 5.6353-1.9152 6.0469-2.8688-1.5048-0.67998-7.2105-1.1628-9.5671-1.2634 0.511-1.5048 2.9814-4.102 4.145-5.1666-1.7462-0.99382-4.2726-2.1566-8.5451-2.1566 1.887-4.1446 7.9348-6.8842 13.115-7.4379-1.0662-1.549-2.4986-5.9898-2.386-7.0118 1.5048 0.9938 12.221 5.777 18.651 6.1178 1.4324 0.92138 3.6896 1.9876 4.6842 2.0158 0.9938 0.0282 3.6212-0.78057 3.6212-0.78057 2.4543 0.24142 8.2607 0.32188 14.152-0.96564 3.4482-0.75239 12.292-3.2792 14.591-6.3165 0.67998 0.0804 2.8406 0.32187 3.6212-0.16095 2.0439-1.2473 4.5707-6.5294 5.4366-10.731 1.3358-0.5834 3.6896-1.1628 4.8117-0.89321 1.1346 0.28165 3.8626 1.6738 4.7123 2.3578-2.1284 15.557-7.3667 28.09-21.078 38.381"/>
   <path d="m15.659 227.06c-4.5844 0.94955-9.3539 9.8934-9.0272 14.123 0.08045 1.191 1.191 4.2866 5.1099 8.5729 3.9189 4.2726 10.929 11.838 11.568 13.201 0.63974 1.376 4.2867 8.7576 5.0105 10.944 0.7363 2.1848 2.4704 8.0197 3.1947 9.1978 0.72423 1.191 10.205 10.206 12.306 12.491 2.0882 2.2693 5.1948 5.1952 6.4722 6.2884 1.2634 1.0944 10.66 2.7239 11.753 2.5429 1.0944-0.16093 3.3637-1.1789 3.7338-2.0882 0.36212-0.90931-0.24141-4.5136 0.16095-6.288 0.41039-1.7744 2.5992-7.4516 2.5992-9.6375 1.4324-1.5048 5.3372-9.1551 4.7836-15.316-0.53915-6.1459-4.1732-20.908-4.0312-22.143 0.16094-1.2191 3.762-26.032 3.1504-27.537-0.62364-1.5048-4.3152-7.9344-15.458-13.257-3.7459 5.1952-9.3539 7.1116-11 7.2391-1.6336 0.12074-4.514-1.4324-7.3811-4.6415-3.6051 2.5268-4.897 6.1178-4.3007 10.319 0.20119 1.4324 1.8468 7.8636 2.386 10.731-0.67998 1.1628-0.75239 4.372 0.48282 6.0184-0.48282 2.1164-2.2572 9.0843-3.0096 11-0.82482-1.2352-1.7019-3.4924-1.7744-4.7832-0.08045-1.3076 0.4104-4.4428-0.28165-5.9476-0.67998-1.5048-3.0096-5.124-6.4296-7.2532-3.42-2.1164-7.6081-4.2722-10.021-3.774"/>
   <path d="m69.626 186.89c-2.8808-2.1284-7.9344-5.266-11.27-6.6284-0.75239 1.2352-3.6896 4.9252-7.9344 6.4867 3.2067 0.20118 6.6284 0.82483 9.8363 3.078 3.2228 2.2572 8.9563 6.8983 10.802 10.12 2.909 0.12074 7.8354-1.702 8.3464-4.5848-1.7865-1.702-6.9124-6.3592-9.78-8.4739"/>
   <path d="m122.11 176.44c-3.7902-1.6054-10.177-5.1948-11.483-6.2167-1.2916-1.022-3.8908-2.1164-5.6068-1.022-3.2228 7.452-4.5422 13.797-2.9372 21.589 2.9372-0.67998 10.873-2.1848 16.607-1.0944 5.7488 1.0944 12.647 3.2792 15.855 6.6996 0.20117-2.9372-0.28165-9.5667 0.20117-10.731 0.46673-1.1628 3.6212-6.8271 3.6212-6.8271-4.7836 0.32188-8.3319 0.94955-16.267-2.398"/>
   <path d="m141.23 217.12c0.82482 1.022 7.1965 9.1125 7.5654 11.667 0.36212 2.5388 0.82482 12.292 2.1848 15.855 1.364 3.5487 4.372 8.2039 6.288 11.114 1.9152 2.909 6.288 9.9361 6.288 9.9361 0.36213 2.2693 2.7239 5.9186 5.3798 8.204 2.6394 2.2693 7.1961 3.9189 7.1961 3.9189s8.4739-6.288 10.206-7.7501c1.7301-1.4605 10.929-8.2039 12.022-9.0272 1.0944-0.80872 5.9335-5.3654 7.4805-8.5592 1.545-3.1947 6.9265-16.408 9.0131-17.771 2.1003-1.364 5.2945-1.6456 7.5654-1.9997 2.2854-0.36212 8.4739-1.7301 10.575-5.4647 2.0882-3.7459 3.2792-12.306 3.3636-13.584 0.0804-1.2754-1.8146-6.288-4.3715-7.8354-2.555-1.545-11.199-1.0944-13.484 0.20118-2.2692 1.2754-6.43 9.3824-11.072 10.617 0.0804-1.5048 0.16095-5.9331-0.94955-7.1965-1.9313-2.2572-8.7862-5.3368-11.483-4.9678-1.376 0.16093-11.483 7.1965-11.483 7.1965-1.8307-1.875-11.582-10.305-14.634-15.954-0.0403 1.376-0.53915 4.4283-1.6738 4.5136-1.1507 0.0805-3.1947-1.6335-5.6494-2.6394-5.1666-2.1003-11.199-2.4141-14.989 0.78056-7.6789 6.43-7.0685 16.607-5.3372 18.764"/>
   <path d="m43.086 177.58c0 1.364 0.90931 6.3732 3.3798 9.0276 2.1848-0.28165 8.2893-0.28165 10.56 0.90932 4.1873 2.1727 12.917 9.7796 14.038 12.434 0.63974 1.5048 1.545 3.774 1.545 3.774 2.909 1.9152 9.4533 5.408 12.661 5.5923 7.5228 0.4104 17.274-3.9591 18.523-7.7215 0.28164-0.82482 1.2352-8.8143 2.2572-11.412 1.022-2.5992 3.3476-19.687 3.6212-20.922 0.28164-1.2191 1.1628-3.6896-0.12074-6.2172-1.3076-2.5268-6.9124-9.4959-12.377-11.625-0.82483 1.5048-1.4766 5.9049-2.1848 6.6996-1.9876 2.2572-8.616 5.2664-14.208 6.572-5.6068 1.2915-14.762 2.5268-19.9-0.4104-5.124-2.9372-9.2259-7.9344-9.2259-7.9344-0.88115 4.3716-2.2411 9.4388-3.4079 12.164-1.1628 2.74-5.1525 9.0698-5.1525 9.0698"/>
   <path d="m32.88 93.877c-1.6899-1.3479-6.3302-4.2867-9.6661-4.5989-1.4042 0.72423-3.0498 2.7803-3.2792 3.8746-0.24141 1.0944-0.58341 3.9591-1.0944 4.8258-0.49489 0.86506-1.7301 3.0498-3.6896 4.4142 2.1003 0 7.0689 0.86507 9.7088 2.74 2.6394 1.8589 5.919 5.1948 7.1116 8.7008l0.86506-2.9653c1.6335-0.0403 6.1459-2.4544 7.0118-4.5989-0.41039-3.0941-2.1003-8.4739-6.9695-12.392"/>
   <path d="m140.22 78.249c-4.6697 0-11.114 6.7422-12.775 10.773 0.88115 2.4544 5.1244 8.8143 10.248 8.8143 3.6212 0 6.2171-0.67998 9.9783-0.67998 3.762 0 11.412 0.67998 17.019 2.74 0.80873-0.20117 4.0312-0.20117 4.0312-0.20117-0.7524-2.3135-1.7744-7.452 0.20117-11.27-2.3135 0.32187-7.5087 0.48282-12.505-1.4324-4.9819-1.9152-5.6776-2.8808-6.9691-4.4428-1.2916-1.5772-3.0096-4.2867-9.2263-4.2867"/>
   <path d="m191.48 104.06c1.9434-1.6174 3.9189-7.7783 4.0312-10.461 0.0805-1.5048-0.4265-4.3716 0.32188-5.5496 0.78056-1.191 4.3293-4.0155 5.4221-5.0105 1.0944-1.0099 4.9678-4.2867 6.3873-4.0155 1.4042 0.28163 12.207 5.6917 13.896 6.018 3.7741 0.70814 8.6582 0.59549 10.433-0.96564 0.72425-0.62364 6.1886-7.8776 8.5592-8.1472 3.6614-0.42649 8.2752 1.2352 10.021 4.3715 1.207 2.1566 9.6234 31.043 8.8429 33.058-1.1065 2.8969-7.7501 12.094-10.617 12.548-1.1346 0.20119-9.4814-1.5048-10.163-2.8688-0.67997-1.364-2.3135-7.7075-2.3135-7.7075-1.0944 0.69607-6.0184 1.6456-8.8855 0.0804-0.32189 2.6676-1.9876 10.66-3.9752 11.355-1.9715 0.67998-7.3808 1.0944-9.0843-0.4104-1.7019-1.5048-1.9152-3.4924-1.9152-3.4924-2.3296 0.89323-9.7655 1.5772-14.208-2.4544-1.5048 1.9152-3.5608 7.9915-6.572 10.106-9.0698 6.4014-12.988 6.5294-19.063 3.42 5.1244-1.4324 11.001-3.6212 15.245-6.7704 4.2295-3.1383 8.4027-7.9915 9.3539-9.2263 0.96564-1.2191 3.42-3.1383 5.6064-3.7459 2.1848-0.62364 6.5012-1.0944 6.5012-1.0944-0.20119-1.0944-1.4324-4.9964-1.4324-4.9964-3.4924 0.55524-6.2884 1.364-8.6868 0.41039-2.386-0.94955-4.514-2.5268-5.3231-3.1504-0.82482-0.61158-2.398-1.2916-2.398-1.2916"/>
   <path d="m22.401 110.49c2.4986-0.4265 8.2611 1.8307 9.4251 4.1732 0.69607 1.364 6.5008 8.1331 8.8288 10.447 2.3135 2.3296 5.4647 5.6776 6.4155 6.288 0.96565 0.62363 28.984 16.267 31.028 16.678-0.28165 5.0105-4.8966 8.1331-11.483 8.1331-1.0944 0-7.3099-1.5048-11.199-3.8908-3.9028-2.398-6.6287-4.244-8.0768-4.0312-1.4324 0.20117-4.1587 1.2915-4.1587 1.2915-0.67998 1.9152-2.6676 10.192-5.2945 10.39-2.6394 0.20119-9.9071-0.32187-13.3-2.9372-1.5048-1.1628-1.5048-2.74-1.5048-2.74-2.2572-0.80873-5.0531-1.1507-6.5579-0.80873-1.5048 0.32188-5.6776 2.8688-6.8983 4.2295 0.20117 1.9876-0.16094 6.0184-0.69607 6.9695-0.53915 0.96565-4.9111 3.6896-7.0263 3.5206-2.1284-0.16094-14.563-8.0338-15.514-10.007-0.96564-1.9876-3.762-11.554-4.7268-14.634-0.94955-3.0659-3.6212-13.797-3.3516-15.301 0.28165-1.5048 5.4076-9.4392 8.0764-9.5667 2.6555-0.16095 10.716 2.5268 12.775 3.8907 2.0439 1.376 4.3007 2.9372 7.0399 2.398 2.7239-0.55523 4.3011-1.376 5.6635-3.42 1.376-2.044 7.736-10.589 10.532-11.072"/>
  </g>
  <g fill="#A4725D">
   <path d="m41.673 187.64c-7.4375 3.4079-12.164 15.798-12.164 28.701 0 0.82481 1.4324 3.9028 4.7835 5.124-0.12074-5.8196 1.2473-8.6441 4.3007-10.731 1.4324 1.6456 5.124 4.6556 7.3811 4.6556 2.2572 0 9.0984-4.3715 11.284-7.3099 2.7239 1.364 9.9787 5.7343 12.775 9.2263 0.96565-0.55525 3.2792-1.9876 3.2792-4.7836 0-2.8124 0.08045-7.9344-1.2191-10.603-1.3076-2.6555-8.8855-11.54-14.762-14.01-4.1305-1.718-13.314-1.3358-15.656-0.28165"/>
   <path d="m142.96 171.17c-1.0381 0.52306-8.204 12.917-8.2752 14.762-0.0403 1.8468 0.16095 10.873-0.32187 11.753-0.46673 0.89322-2.7964 3.1504-2.7239 4.5136 0.0804 1.364 2.3698 5.5782 8.9708 7.1824 0.52707-5.408 3.9471-10.561 6.9269-11.71 4.6697-1.8186 8.5021-2.2411 12.164-0.92138 3.1504 1.1507 6.2453 3.9752 7.5228 3.4642 1.2795-0.49489 1.9594-4.2722 1.6738-8.5588-0.51098-8.1617-1.5209-13.13-4.7836-15.897-4.0593-3.4642-16.948-6.6714-21.135-4.5848"/>
   <path d="m-20.792 134.06c0.55525 2.3296 6.1037 21.461 7.0689 23.605-1.4203-0.78056-5.6776-4.9252-7.0689-10.078-2.3296-8.6019 0-13.527 0-13.527"/>
   <path d="m15.566 153.56c1.0944-0.32188 4.7836-0.49489 7.4664 0.55525 0.20117 0.67996 0.51098 2.1284 1.5611 2.7239-4.6842 4.8829-8.7576 5.6068-14.946 4.6983 0.04029-0.96564-0.02855-3.8344-0.02855-3.8344 0.97771-1.2352 4.1732-3.6493 5.9472-4.1446"/>
  </g>
  <path d="m15.566 153.56c1.0944-0.32188 4.7836-0.49489 7.4664 0.55525 0.20117 0.67996 0.51098 2.1284 1.5611 2.7239-4.6842 4.8829-8.7576 5.6068-14.946 4.6983 0.04029-0.96564-0.02855-3.8344-0.02855-3.8344 0.97771-1.2352 4.1732-3.6493 5.9472-4.1446" fill="#815848"/>
  <g fill="#A4725D">
   <path d="m128.33 52.94c13.584-4.1732 34.35 1.1226 38.338 15.103 1.6054 5.6209 0.0282 13.938-5.536 20.155-3.082-0.80873-9.6375-3.1383-11.142-4.8403-1.5048-1.718-2.7239-4.0312-5.5356-4.8544-2.7964-0.82482-7.5087-0.08045-7.5087-0.08045 2.8688-1.9152 4.8684-3.1504 6.1886-4.102 2.3417-1.6899 2.7239-4.5281 0.36211-5.4647-1.364-0.55525-9.368-4.9964-12.036-6.43-2.6555-1.4324-4.5707-3.2792-4.4995-4.8544 0.0804-1.5611 1.364-4.6415 1.364-4.6415"/>
   <path d="m122.8 107.55c0.41041 0.82482 2.7964 2.8688 5.6068 2.9372 2.7964 0.0804 5.8056-1.5048 5.8056-1.5048-4.7124-1.6335-11.412-1.4324-11.412-1.4324"/>
   <path d="m118.76 94.425c-0.45465 1.207-3.0096 7.5799-3.6896 9.78 4.1732-1.1628 11.412-2.2009 17.09-1.1628 5.6631 1.022 7.3381 2.2693 9.3394 3.1786 5.4225-2.571 15.6-8.6586 11.838-8.9282-3.7459-0.28165-14.691 0.62365-16.124 0.4104-4.1164-0.58341-8.4031-4.0034-9.6379-8.2044 0.48282-1.6336 3.762-6.8271 3.762-6.8271-3.6212 2.5268-11.824 9.7655-12.576 11.753"/>
   <path d="m179.73 79.593c1.5048 0 7.211 2.3135 9.7088 2.1164 7.2391-0.53915 13.328-6.2171 18.864-6.4159 10.134-0.40236 17.019 5.0672 18.651 10.248-2.7239 0.08045-4.5707-0.08045-6.0751-0.67998-1.5048-0.62365-12.108-5.9472-13.541-5.8192-1.4324 0.16094-5.4647 3.5648-6.6287 4.244-1.1628 0.67998-4.8544 4.5844-5.1952 6.2167-0.32188 1.6456 0.32189 4.1732-0.28164 6.2171-0.61158 2.06-2.1164 6.7704-3.762 8.346-3.762-1.7744-8.1331-3.42-11.681-3.9028-3.5608-0.46673-11.483-0.75239-11.483-0.75239-0.61158-2.7239-2.056-6.7563 0.32188-10.66 2.398-3.8908 7.6503-9.1555 11.071-9.1555"/>
  </g>
  <path d="m-21.338 145.32c0.45466 0.0805 2.2693 0.0805 3.3798 0.0403 0.9938 3.6051 3.7741 11.341 3.7741 11.341-1.9594-0.72423-4.4142-2.4544-5.6064-5.6917-1.1789-3.2349-1.5491-5.6921-1.5491-5.6921" fill="#815848"/>
  <path d="m71.609 166c9.3824-0.40235 21.816-5.0813 23.577-8.3601 0.48282-0.89323 1.9152-7.1824 3.8304-10.532 1.9152-3.3355 6.3588-9.6234 7.9911-11.611-3.4763 1.2352-7.5228 2.3859-9.4247 2.5992-6.0043 5.6635-11.866 9.0276-19.489 9.9787 0 5.3509-5.2233 7.9911-11.199 7.8632-3.1504-0.0805-8.6868-1.6456-14.009-5.4788-0.41039 2.2572-0.96564 6.1604-0.96564 6.1604 4.4854 6.4441 11.937 9.7088 19.687 9.382" fill="#A4725D"/>
  <path d="m71.609 166c9.3824-0.40235 21.816-5.0813 23.577-8.3601 0.48282-0.89323 1.9152-7.1824 3.8304-10.532 1.9152-3.3355 6.3588-9.6234 7.9911-11.611-3.4763 1.2352-7.5228 2.3859-9.4247 2.5992-6.0043 5.6635-11.866 9.0276-19.489 9.9787 0 5.3509-5.2233 7.9911-11.199 7.8632-3.1504-0.0805-8.6868-1.6456-14.009-5.4788-0.41039 2.2572-0.96564 6.1604-0.96564 6.1604 4.4854 6.4441 11.937 9.7088 19.687 9.382" fill="#815848"/>
  <path d="m38.803 122.92c1.4324 1.5048 7.7219 8.2044 7.7219 8.2044 1.2352-1.2352 2.9372-3.762 4.4424-5.8764 1.5048-2.1284 7.3103-6.9128 10.248-8.4172 2.9372-1.4887 10.12-3.4763 10.12-3.4763 0.88115-0.89322 5.1952-3.6896 9.9075-4.1732-0.82481-1.6336-3.8304-6.7563-7.1824-8.2607-3.3355-1.5048-12.363-3.9752-12.363-3.9752-0.20117 6.4722-2.5268 15.116-8.5447 20.241-6.0184 5.124-14.35 5.7343-14.35 5.7343" fill="#A4725D"/>
  <path d="m101.47 130.3c-0.36211 1.3479-1.8468 5.8055-3.8907 7.7928 3.3355-0.48282 13.868-3.5488 16.948-7.7215 3.0659-4.1732 7.6507-12.846 8.2611-22.824-2.044 0-6.8983 0.67998-9.2263 1.702-1.0944 2.5268-3.2067 10.589-4.2299 11.27-1.022 0.69607-4.1728 2.056-8.1331 2.6676 0.32187 2.1848 0.7524 5.3368 0.28165 7.1112" fill="#A4725D"/>
  <path d="m-13.73 157.67c2.1003 0.59547 9.6094-3.0941 9.6094-6.7849 0-3.6896-1.0944-17.501 1.6456-18.183 2.7239-0.67998 6.6996 1.364 11.753 0.28165 5.0531-1.0944 7.3807-5.8764 9.5667-6.6996 2.1848-0.80874 10.12 13.541 11.213 15.855 2.4141 5.1521 14.492 1.3921 14.35-1.0944 0.32187 6.9265-4.5422 18.637-6.5294 18.935-1.9876 0.28165-12.817-0.32187-14.79-5.6776-2.1284-0.80873-4.5848-1.022-6.572-0.80873-1.9715 0.20117-6.2167 3.4079-6.8983 4.2299 0.08045 1.9152-0.16094 5.5356-0.48282 6.43-0.32188 0.88115-4.6415 4.1728-7.2391 4.0593-2.5992-0.0804-9.2971-5.0246-11.611-6.6569-2.3296-1.6456-4.0155-3.8746-4.0155-3.8746" fill="#b08600"/>
  <g fill="#c6dcdb">
   <path d="m-17.238 147.46c-1.0944 0.32188-4.6411 1.2352-6.3588 0.94955-1.7019-0.28165-4.9823-1.1507-5.8763-0.28165-0.88115 0.89322-0.88115 3.2067 0.20117 5.9472 1.0944 2.74 3.0659 4.3007 4.3007 3.8304 1.2352-0.48282 2.74-2.5268 3.8907-3.3516 1.1628-0.82482 4.0312-2.2572 5.408-2.5268z"/>
   <path d="m-0.2202 143.7 0.82482 5.1952 25.833-5.6068-2.3296-5.3227z"/>
   <path d="m67.918 114.11c12.292-2.9653 30.063-0.20118 33.016 8.616 3.762 11.313-6.1037 21.788-20.851 25.01-5.8192 1.2754-14.62 0.53914-21.39-2.06-4.6415-1.7744-8.3319-5.0527-9.7087-5.5923-1.364-0.55523-5.0531-0.55523-5.0531-0.55523l-2.4544-5.6068c1.9715-0.61158 5.1952-2.5268 6.0039-3.8183 0.82482-1.3076 4.7268-6.6996 8.4172-9.5667 3.6896-2.8808 8.3319-5.5356 12.022-6.43"/>
  </g>
  <path d="m259.14 112.42c-0.94955 2.7802-8.5588 3.0941-10.929-0.72423-2.3698-3.8344-8.5733-23.519-12.037-22.597-3.4642 0.90931-6.9269 4.7264-16.763 3.0941 0.90932 3.0096 6.7422 17.132 7.1538 18.58 0.41039 1.4605 0.86505 4.6274 0.86505 4.6274 2.3698 0.85299 6.6569 1.3921 8.8855-0.0804 0.86506 3.1947 1.8589 7.4801 2.6837 8.0197 0.82482 0.55525 8.1191 3.4642 10.575 2.4704 2.4543-1.0059 6.1037-5.9331 7.2958-7.9344 1.1789-1.9997 2.2693-5.4647 2.2693-5.4647" fill="#b08600"/>
  <g fill="#c6dcdb">
   <path d="m145.62 119.78c1.7905 9.2831 17.544 16.48 30.688 13.186 5.7629-1.4324 12.448-6.1033 15.585-9.2404 1.364-1.376 6.1886-7.3381 7.5654-8.1613 1.364-0.82482 6.6428-2.3698 9.6094-2.4141l-1.191-5.0531c-3.3194 0.63974-6.8275 0.94955-9.1978 0.0804-2.3698-0.86506-4.5989-2.909-7.6081-4.4146-3.0096-1.5048-7.7074-3.7459-14.038-4.102-6.3306-0.36212-13.569-0.36212-18.764 2.1445-5.1952 2.4986-8.9282 5.649-10.66 8.3746-1.7301 2.74-2.74 5.7058-1.9876 9.5953"/>
   <path d="m224.79 106.27 1.7744 4.5136 16.082-1.9152-1.4042-4.6983z"/>
   <path d="m257.71 102.39 1.191 4.2014s5.2374-0.82482 5.8478-0.51098c0.61157 0.32187 5.124 2.9653 6.2171 2.6958 1.0944-0.28165 2.1848-3.4763 1.6738-5.6635-0.51099-2.2009-1.1628-4.8544-2.6676-4.8544-1.5048 0-5.5356 2.8688-7.04 3.2067-1.5048 0.32188-5.2237 0.92139-5.2237 0.92139"/>
  </g>
  <path d="m78.01 90.005c0.53915 0.63974 1.7623 1.702 2.3014 1.875 4.8121 1.4042 9.2831 1.5611 13.243 0.32187-0.28165-0.89321-1.2352-3.6493-1.875-4.0597-0.63974-0.40236-4.1305-1.3358-8.5447-3.4643-4.4146-2.1164-8.63-4.5277-8.63-4.5277 0.28165 3.3073 1.8589 7.9058 3.5045 9.8649" fill="#fff"/>
  <path d="m107.01 85.95c-0.24141 0.6679-0.0805 5.0246-0.0805 5.0246 3.4361-0.90931 8.4313-3.4482 9.2686-5.266 1.3479-2.9653 1.2795-7.7497 0.92139-10.39-1.4766 1.8146-3.9752 4.6842-5.4788 5.9898-1.5048 1.2916-4.4001 3.9592-4.6415 4.6415" fill="#fff"/>
  <path d="m22.264 239.45c1.3921-0.12073 5.8764 0.94956 6.43 2.3296 0.53915 1.364 5.8623 13.442 11.753 11.483 3.6896-1.2352 2.7239-4.244 2.3135-5.1948-0.40235-0.96564-1.9715-4.2018-2.1284-4.9682-0.92139-4.3715 2.1848-8.119 3.3637-8.6582 1.191-0.55525 12.675-2.4141 13.669-1.7623 1.0059 0.66791 5.5641 10.773 5.5641 15.514 0 4.7405-3.2792 15.315-2.1848 19.687 0.69607 2.8245 4.4146 12.022 7.1538 14.961 2.6273 2.8406-0.96565 8.7858-2.1445 12.462-0.7363 2.2854 0.45466 5.5641-0.20117 6.6573-0.63974 1.0944-2.1848 2.6394-4.4713 3.0096-2.2693 0.36211-9.0131-0.90932-11.937-3.7338-2.909-2.8245-7.0971-7.1112-9.7514-9.4818-2.6394-2.3698-7.1965-7.0118-8.3746-9.382-1.191-2.3698-3.9189-11.753-5.3794-14.492-1.4605-2.74-3.9189-6.6569-8.2044-11.298-4.2867-4.6415-6.4726-7.835-6.4726-8.7435 0-0.92139 8.758-8.2044 10.986-8.3886" fill="#b08600"/>
  <path d="m13.106 235.76c-2.9935 1.0783-4.6697 7.2818-3.1383 10.319 1.4203 2.8366 8.6582 8.3037 10.376 7.7215 1.6175-0.53915 2.3578-13.286 1.7864-14.62-1.0381-2.398-5.55-4.6697-9.0276-3.42" fill="#eeeeef"/>
  <path d="m49.602 227.56c-3.4924 0.40236-5.8337 4.2722-5.6064 7.452 0.20117 2.6394 6.4867 12.178 8.0052 12.022 1.9595-0.20117 5.8908-11.284 5.6635-14.35-0.20117-2.9372-3.5608-5.6209-8.0623-5.124" fill="#eeeeef"/>
  <path d="m223.81 216.83c-1.9876 0.28165-6.8983 3.1383-9.6375 3.9591-2.7239 0.82482-6.6996 1.4324-8.3319 1.022-1.6456-0.40235-11.171-6.6287-14.407-6.1459-1.3922 0.20117-4.7409 3.774-5.1952 4.7409-1.6336 3.5488-3.3637 12.391-5.3654 16.124-1.2191 2.2693-5.5923 10.447-8.857 17.402-2.5992 5.5356-7.466 5.1525-7.466 2.2009 0 0-1.7301 6.3732-0.72423 10.66 1.0059 4.2726 4.102 6.9269 8.5729 9.3824l-0.0805-0.61158c0.83688 0.96564 1.6456 1.6054 2.2854 1.7905 2.1848 0.63974 10.66-5.7343 12.661-7.835 1.9997-2.0882 13.115-9.652 15.216-12.392 2.1003-2.7239 4.6697-7.1538 5.8337-9.8222 1.1628-2.6555 4.6415-12.164 6.8416-12.973 2.1848-0.82482 10.248-2.3296 11.88-3.0096 1.6456-0.67997 5.0672-3.1504 5.7488-4.102 0.67998-0.96565-6.9695-10.66-8.9568-10.39" fill="#b08600"/>
  <g fill="#eeeeef">
   <path d="m54.751 292.76c-3.9873 0.40236-5.7058 3.6332-5.1521 7.4234 0.32188 2.06 7.2532 11.966 8.4735 11.895 2.4986-0.16094 4.8544-11.284 4.145-14.989-0.52707-2.8245-4.1305-4.6697-7.4664-4.3289"/>
   <path d="m195.51 211.43c-1.9152 0.61158-4.5844 4.3007-3.9591 7.3099 0.61157 3.0096 10.802 13.257 12.164 13.129 1.364-0.12074 2.5268-10.319 2.044-12.306-1.6175-6.6996-6.1318-9.4392-10.248-8.1331"/>
   <path d="m223.88 217.65c0 2.571 11.199 12.448 13.257 11.412 0.93747-0.46672 1.887-10.731-1.364-15.372-1.5048-2.1566-5.4788-3.6051-8.0623-2.1284-0.96564 0.55525-3.8344 2.9533-3.8344 6.0892"/>
   <path d="m180.82 265.97c-1.7744 0-6.4867 1.5772-6.4867 6.4867 0 6.1463 10.192 12.789 11.824 12.108 0.80872-0.32188 0.28165-5.6064 0.12074-7.9344-0.12074-2.3296-0.0804-9.2263-0.82481-9.9075-0.75241-0.67997-2.6555-0.7524-4.6415-0.7524"/>
  </g>
  <g fill="#c8c9ca">
   <path d="m53.202 227.88c1.7301 4.7409 0.28165 15.131-1.4605 18.864 0.79666-0.0403 3.3637-3.8304 4.897-7.7075 3.5769-8.9708-3.4361-11.157-3.4361-11.157"/>
   <path d="m16.933 235.62c3.0096 5.28 3.0096 16.536 3.082 18.452 1.5611-1.1628 3.0659-12.434 2.2572-14.62-0.82482-2.1848-5.3372-3.8304-5.3372-3.8304"/>
   <path d="m58.487 293.49c0.55525 1.7301 0.90931 13.115-0.41039 18.594 3.6614-3.5326 5.039-11.526 4.1446-14.989-0.32188-1.2634-3.7338-3.6051-3.7338-3.6051"/>
   <path d="m194.9 212.2c-0.55525 6.2031 6.7422 16.494 8.8429 19.233-1.6456-0.28165-10.844-7.7501-12.036-12.306-1.1789-4.5562 3.1947-6.9269 3.1947-6.9269"/>
   <path d="m237.27 228.51c-4.5989-3.7741-10.021-11.341-10.021-16.408-2.1003 1.7301-3.5608 3.1947-3.1947 6.2031 0.36211 3.0096 4.4709 5.649 7.6507 7.835 3.1947 2.1848 5.5637 2.3699 5.5637 2.3699"/>
   <path d="m177.31 267.06c-0.6518 3.8746 4.6275 12.817 9.1129 17.132-3.5487-0.82481-7.8776-2.2129-10.844-7.6507-3.3798-6.2026 1.7301-9.4814 1.7301-9.4814"/>
  </g>
  <g fill="#b08600">
   <path d="m144.19 200.77c0 3.2792 9.1555 17.771 10.518 22.143 1.376 4.372 0.92139 22.924 9.2122 35.4 0 0-0.55525 5.0105-0.45466 6.8416-2.74-3.6493-11.398-17.686-12.491-20.511-1.0944-2.8245-1.0944-12.931-2.555-16.309-1.4485-3.3798-4.4568-7.835-5.0958-8.6582-0.63974-0.82482-2.6394-2.6394-2.8245-4.6415-0.20118-2.0158-0.28165-7.1965 0.72424-9.4814 1.0099-2.2693 2.9653-4.7836 2.9653-4.7836"/>
   <path d="m66.414 214.3c0 2.4543-0.28165 15.855-1.2352 23.917 1.376 4.7832 2.4704 9.2972 2.3296 10.39-0.16094 1.0944-1.364 8.0623-1.364 8.0623 0.94955 3.2792 4.5136 14.904 2.0439 24.329 0 0 0.28165 3.8304 0.32188 5.408 1.8468-3.2228 5.4503-10.603 4.897-16.153-0.53915-5.5641-4.1873-19.545-4.1446-21.305 0.04029-1.7462 4.1446-25.535 3.1504-27.537-1.0099-1.9997-6.0184-7.1112-6.0184-7.1112"/>
   <path d="m83.773 201.59c2.7964 1.3076 16.778-3.5487 18.722-7.2391l-0.46671-3.2952s3.2792-1.0944 4.1587-1.1507c-0.75239 1.9715-1.9715 11.128-2.4543 12.093-2.4262 4.8403-13.101 8.0764-17.913 7.5228-2.3135-0.28165-10.56-3.6493-13.2-5.7911 0 0-0.28165-1.549-0.96564-2.229 1.4324 0 7.5654-2.6555 8.247-5.791 1.5772 1.364 3.8746 5.8764 3.8746 5.8764"/>
   <path d="m49.192 181.49c0.08045 0.94955 0.82482 3.8304 1.364 4.8544 1.5048-0.55525 6.7708-2.6676 8.0623-5.9476-1.8468-0.94955-7.0263-2.6676-8.3319-1.7744-1.2916 0.88115-1.1628 2.2572-1.0944 2.8688"/>
   <path d="m105.37 168.83c0.36213-0.67998 1.7301-2.6837 2.0037-2.8245 0.28165-0.16094 0.90932 1.3197 0.90932 2.4141z"/>
   <path d="m101.47 183.68c7.7075-1.0381 25.067 1.6456 33.214 5.6068l-0.12074 6.9265c-3.8746-2.5992-8.8002-5.9331-14.62-6.3873-5.8337-0.45466-11.483-0.72423-17.87 0.96564-0.28165-2.4141-0.61158-7.1112-0.61158-7.1112"/>
   <path d="m61.676 182.04c10.845 8.3886 8.7013 12.845 6.2457 14.208 1.2916 0.96564 3.762 4.3148 4.0312 5.4076 1.7744-0.61158 7.0118-2.9372 7.9485-5.9472-1.3921-1.9876-18.225-13.669-18.225-13.669"/>
  </g>
  <g fill="#815848">
   <path d="m167.84 182.95c0 3.0217-1.0501 6.4585-3.6896 7.8354-3.1665 1.6617-24.513 1.0501-29.453-4.8544-0.0805 2.398 0.0804 11-0.32188 11.753-0.41041 0.75241-2.8124 3.1504-2.74 4.5136 0.0805 1.364 3.1947 5.5356 8.9704 7.1824 1.034-7.5799 5.5215-13.4 13.385-13.4 1.022 0 6.0043 0.72424 7.5795 1.5893 1.5772 0.86506 4.8688 2.8527 5.6494 2.6555 0.78056-0.20117 1.875-2.4704 1.8025-6.2312-0.0805-3.7459-1.1628-11.043-1.1628-11.043"/>
   <path d="m68.465 196.94c-0.28165 2.044-16.536 9.9783-22.412 10.518-5.8764 0.55525-13.13-4.372-13.811-7.6507-1.4324 4.4428-3.3516 13.669-2.5268 16.948 0.82481 3.2792 4.5848 4.7264 4.5848 4.7264-0.28165-3.2228 0.67998-8.9564 4.3007-10.731 1.8468 1.7744 5.266 4.7127 7.3807 4.6415 4.1024-0.16094 11.27-7.3099 11.27-7.3099 3.2792 1.2191 10.944 7.1112 12.789 9.2263 0.88115-0.4104 3.0659-1.9876 3.2067-4.244 0.16095-2.2572 0.28165-8.6019-0.75239-10.518-1.022-1.9152-4.0312-5.6068-4.0312-5.6068"/>
   <path d="m50.831 119.3c0.67996 1.0944 2.0439 3.0096 2.74 3.5487-3.762 2.06-5.8764 8.0764-7.0404 8.2752-2.5992-2.398-7.452-8.0623-7.452-8.0623 6.5579-0.62365 11.753-3.762 11.753-3.762"/>
   <path d="m100.04 134.06c8.1476-1.533 17.672-7.2246 19.403-12.718-2.1848 5.6068-4.3716 9.7087-9.4247 12.448-5.0531 2.7239-12.846 4.7124-12.846 4.7124 1.0944-1.1628 2.8688-4.4428 2.8688-4.4428"/>
   <path d="m22.675 89.23c-5.7058-0.94955-11.781 0.63974-13.669 2.7963-3.762 4.3007-2.3578 9.6943 0.61158 10.944 1.718-0.20117 5.8196-0.55525 6.16-0.89322 0.32188-0.36211 2.6555-2.3859 3.0659-4.1024 0.4104-1.702 0.82482-5.0527 1.5772-5.9472 0.75241-0.88115 2.2572-2.7964 2.2572-2.7964"/>
   <path d="m32.835 110.87s-0.79665 3.5769-0.72423 4.7409l1.5048 1.7744c2.6555-0.94955 6.8271-5.1952 6.2167-10.518-2.6676 3.2068-6.9977 4.0034-6.9977 4.0034"/>
   <path d="m39.35 103.31c1.7301 1.0783 12.207 0.72423 16.678-7.466 0 0 3.2792 0.72424 5.919 1.2634-0.36212 15.585-11.867 25.365-23.151 25.819-2.0882-2.0279-5.1811-5.5356-5.1811-5.5356 2.6394-1.2352 5.6494-3.6051 6.0043-6.5153 0.36212-2.9251-0.28165-7.5654-0.28165-7.5654"/>
   <path d="m126.28 95.199c0.16095 2.6555 1.3479 4.7409 3.082 5.5074 2.6837 1.2191 8.0052 0.24142 10.39-2.9935-2.5429 0-6.288-0.28165-7.8636-2.398-1.5772-2.1164-4.4428-6.288-4.4428-6.288-0.67996 2.06-1.2352 4.8966-1.1628 6.1741"/>
   <path d="m138.72 78.022c1.9313-1.2352 8.9282-2.6273 13.939-2.1164 1.376 0.12074 3.42 3.0096-1.7744 8.0623-1.364-1.0944-3.2068-3.762-4.1728-4.372-0.94955-0.62364-2.9935-1.5048-4.3007-1.6456-1.2915-0.12074-3.6896 0.08045-3.6896 0.08045"/>
   <path d="m-17.238 90.733c1.0501 4.4854 15.387 11.654 25.01 7.9348l2.1285 4.0879c-2.6676 1.0944-7.8636 4.1732-8.9568 7.4519-2.06 0.48282-6.0184 1.9152-7.0403 2.5992-4.1728-3.762-10.39-11.824-11.412-16.337-1.022-4.4995 0.28163-5.7343 0.28163-5.7343"/>
   <path d="m168.11 71.734c-0.55525 7.0122-13.13 9.9787-15.997 9.9787l-1.5048 1.5048c2.1848 2.0439 8.2039 4.7832 10.532 4.9819 4.9252-6.3447 6.9691-16.465 6.9691-16.465"/>
   <path d="m122.8 107.55c0.66791 0.82482 3.1223 2.8245 5.1244 2.8688 1.9997 0.0403 6.1033-1.364 6.1033-1.364-3.8746-0.94955-11.228-1.5048-11.228-1.5048"/>
   <path d="m118.04 96.474c0.36211 1.6456 1.7301 5.5641 2.3698 6.43 4.1873-0.32189 8.3886-0.73631 11.753 0.12074 3.3798 0.86504 9.6094 3.2349 9.6094 3.2349 1.6054-0.72423 10.901-5.5496 12.761-8.7009-4.0597-0.36211-11.668-0.20117-13.527-0.08045-1.875 0.08045-3.3798 0.5834-5.3794-0.20119-1.9997-0.78056-5.2805-4.0155-6.7-5.6917-1.4042-1.6899-1.0944-2.8808-1.0944-2.8808l2.8245-5.3231c-8.8855 5.6921-12.619 13.073-12.619 13.073"/>
   <path d="m60.126 105.68c1.9997-0.45466 10.759-0.20119 16.039 5.0105 1.3197-0.53916 5.0817-1.5048 5.0817-1.5048-0.96564-1.7019-3.5648-6.3592-6.9128-8.3319-3.3355-1.9876-12.633-3.9028-12.633-3.9028-0.16094 2.398-1.5772 8.729-1.5772 8.729"/>
   <path d="m118.01 97.021-2.6676 6.8271 5.0672-0.94955z"/>
   <path d="m117.54 107.89c-0.67996 0.48282-4.5136 3.762-4.9819 4.9256l0.94955-4.102z"/>
   <path d="m198.23 120.12c0.32188-0.67997 3.6493-3.6493 6.7-3.0498 3.0498 0.59547 6.6428 2.8688 6.6428 2.8688l0.89322 2.9251c-3.9471 0.86506-6.3588 0.76447-8.8996-0.0804-2.5549-0.86507-5.3372-2.6394-5.3372-2.6394"/>
   <path d="m168.02 95.108c2.2854 0.63974 20.411 4.1873 26.16 4.1024-0.92139 2.1848-2.6958 4.8544-2.6958 4.8544-3.593-1.6617-7.5232-3.3918-11.98-3.9471-4.4709-0.53916-10.773-0.4265-10.773-0.4265-0.79666-1.1226-0.70814-4.5848-0.70814-4.5848"/>
  </g>
  <g fill="#b08600">
   <path d="m227.29 112.06c0.16094 3.3516-9.3394 5.7347-13.399 2.5992-1.8307-1.4324-6.1459-22.129-13.669-21.731-2.5992 0.12074-0.46674 8.0623-5.1952 13.115 2.2974 1.3197 2.6555 2.1003 4.1732 2.4704 1.533 0.36212 8.3601-0.63974 8.3601-0.63974 1.0944 3.7338 5.5074 17.813 6.8134 18.466 1.2916 0.66791 7.9485 0.89323 9.0839 0.41041 1.1507-0.48282 4.145-9.4959 4.145-10.858 0-1.376-0.32189-3.8304-0.32189-3.8304"/>
   <path d="m209.32 113.08c-1.3921 0.24141-7.7642 0.79666-11.142 3.7177-3.3636 2.909-4.5136 6.6855-10.319 10.362-5.8051 3.6614-12.192 5.9476-14.648 6.4018 0.90931 1.5491 6.8416 4.0034 12.576 0.82483 5.7484-3.1947 8.1046-6.2031 9.382-8.8433 1.2755-2.6394 3.4643-7.4801 6.8416-8.3886 3.3636-0.90933 5.7347 0.82481 6.4726 1.2754 0.72423 0.45465 3.0941 1.5048 3.0941 1.5048-1.191-3.8746-2.2572-6.8557-2.2572-6.8557"/>
   <path d="m133.8 81.302c-0.55525 1.7744 3.42 9.5667 7.7928 10.12 4.3715 0.53915 16.266 0.94955 25.691 3.6896 0.4104 1.7744 1.4324 4.5707 1.4324 4.5707l-4.7123 0.32187c-2.7239-1.364-9.3824-2.6394-14.209-2.8245-4.8399-0.20117-10.986 0.82482-12.107 0.63974-1.1065-0.20117-5.3939-0.90931-7.4946-4.1024-2.0882-3.1786-2.7521-4.7123-2.7521-4.7123 1.207-2.6676 6.3588-7.7215 6.3588-7.7215"/>
   <path d="m20.214 92.17c6.288-0.55525 9.9787 5.3935 9.4251 9.2259-0.53916 3.8344-3.5487 4.6415-3.5487 4.6415 1.6899 1.2754 5.9757 7.2106 5.9757 7.2106l0.76447-2.3699c1.7744-0.20117 5.9757-1.6456 7.0122-4.613-0.7685-4.4995-3.3234-9.9783-7.2391-12.704-3.9189-2.74-9.3824-4.2863-9.3824-4.2863z"/>
  </g>
  <path d="m26.229 106.5c-0.72424 0.55524-3.7338 3.6493-4.2863 4.2867 4.0155 0.0804 9.4814 2.909 9.4814 2.909-0.28165-4.1873-5.1952-7.1965-5.1952-7.1965" fill="#815848"/>
  <g fill="#b08600">
   <path d="m39.806 129.01c0.63974 0.90932 4.1024 3.8304 4.1024 3.8304l-2.4423 1.0944z"/>
   <path d="m43.929 139.53s3.0096-0.28165 4.4428 0.4104c1.4324 0.67998 7.8636 5.5356 12.306 6.6287 4.4428 1.0944 11.753 2.2572 17.416 1.5048-0.32188 4.996-3.4079 8.0623-12.022 8.0623-1.702 0-5.6068-1.2352-9.9075-3.4924-4.3007-2.2411-7.5228-4.6411-8.6868-4.6411-1.1507 0-4.4428 1.3076-4.4428 1.3076 1.2352-3.082 1.5048-5.7488 1.5048-6.8416 0-1.0944-0.61158-2.9372-0.61158-2.9372"/>
   <path d="m10.828 12.914c7.7501 7.1112 43.831 51.752 44.2 54.676 0.36212 2.909-10.489 10.703-12.803 13.101 3.5045-5.0813 9.1551-12.192 8.9704-12.647-0.20117-0.45466-11.298-14.762-15.94-20.78-4.6556-6.0039-15.4-19.957-18.055-23.505-2.6394-3.5487-5.5496-8.2039-6.0039-8.9278-0.45466-0.7363-0.36211-1.9152-0.36211-1.9152"/>
   <path d="m148.7-7.27c-5.0527 9.2971-25.152 60.822-25.01 64.101 0.12073 3.2792 4.6415 4.102 4.6415 4.102s-1.6336-1.5048-1.364-3.3516c0.28164-1.8468 4.5136-12.704 6.0184-17.075 1.4887-4.386 7.9911-22.143 9.1551-25.705 1.1628-3.5487 5.8055-15.855 6.3592-17.899 0.53915-2.0601 0.20117-4.1728 0.20117-4.1728"/>
   <path d="m65.047 73.146c1.364 3.0096 6.9977 8.616 9.9075 9.794l-0.45466-2.7963c-3.3516-2.0721-9.4532-6.9977-9.4532-6.9977"/>
   <path d="m121.57 68.044c-0.0805 1.022-0.89323 7.3811-4.244 10.05l-0.32189-2.3296c1.9152-2.5268 4.5844-7.7215 4.5844-7.7215"/>
  </g>
  <path d="m74.957 82.943c3.762 2.5549 11.696 5.6494 17.431 6.6288-0.16094-0.53916-0.4104-1.0944-1.1628-1.5048-0.75239-0.41039-4.1024-1.1628-7.6507-3.0096-3.5608-1.8468-9.0698-4.9111-9.0698-4.9111z" fill="#dcdddd"/>
  <path d="m117.33 78.09c-0.82483 1.0944-7.0399 6.8983-10.177 9.2972 0 0-0.28164-1.5772-0.0804-1.7744 0.20117-0.20117 3.4763-3.1504 5.2519-5.0676 1.7864-1.9031 4.6556-4.7832 4.6556-4.7832z" fill="#dcdddd"/>
  <g fill="#b08600">
   <path d="m50.103 149.6c-6.6569 26.643-27.834 37.586-74.349 36.365 1.3076 1.1789 5.3654 3.3194 11.015 3.774-1.2191 2.044-2.4986 5.0531-2.2693 6.7849 1.5893-0.82482 6.9691-2.3135 7.1538-2.1445 0.20117 0.20119-0.08045 2.3296-2.7843 3.9189 6.8557 1.7744 19.815 0.3621 26.018-1.5893 11.341-3.5608 20.61-8.7862 27.835-18.311 6.941-9.1551 8.7721-18.977 10.12-27.693z"/>
   <path d="m161.82 133.11c13.47 19.645 42.142 27.054 72.262 16.763-0.72423 1.2795-5.1952 4.883-9.6665 6.5579 1.376 1.2795 4.0597 4.3289 4.0155 6.16-1.9152-0.4949-7.2391-1.0059-7.3385-0.59548-0.0804 0.41039 2.3698 3.0941 2.3698 3.3194 0 0.24141-6.5579 2.9653-17.359 2.9653-14.833 0-27.054-5.8904-33.626-11.213-3.8183-3.0941-8.4739-8.1476-11.156-12.519-2.6958-4.372-5.6494-12.349-7.1112-14.223 2.5107 1.364 7.6077 2.7802 7.6077 2.7802"/>
   <path d="m111.7 109.1c-0.48282 0.0804-0.90931-0.12073 0-0.82481 2.2693-1.702 10.915-3.3798 18.68-2.0439 6.4726 1.1064 12.349 4.0195 15.542 7.3385l-0.86506 2.6837c-3.2792-3.5488-8.346-6.8842-14.904-8.105-6.5579-1.2352-13.073 0.0403-18.453 0.94955"/>
   <path d="m83.408 112.65c3.6493-0.49489 11.384-0.94955 10.021 0.55524-1.364 1.4887-5.7347 0.67998-5.7347 0.67998z"/>
   <path d="m100.21 120.97c2.1566 0 9.3965-1.1628 10.461-4.1306 0 0-0.40234 3.4079-1.8186 3.9873-1.4324 0.58342-7.4093 2.4704-7.4093 2.4704z"/>
  </g>
  <g fill="#a7bab9">
   <path d="m-16.873 149.6c-7.466 2.4543-9.0698 0.28165-10.475 0.55524-1.4042 0.28165-2.2854 1.8186-1.6456 3.4482 0 0 1.9876 4.7976 4.0312 4.3152 2.056-0.48283 3.3516-3.078 4.5848-3.762 1.2352-0.67998 4.7123-2.1164 4.7123-2.1164z"/>
   <path d="m0.43966 145.68c2.5147-0.55524 21.277-4.7409 24.599-5.3794l1.0501 2.5992c-7.7356 1.7301-25.493 5.9898-25.493 5.9898z"/>
   <path d="m42.721 136.11c4.386-0.88115 7.9348-2.3698 10.206-4.6415 2.3417-2.3578 6.4726-10.489 19.233-12.86 15.94-2.9533 29.112 3.5608 29.24 8.6156-0.12074 9.8367-5.0672 16.451-20.95 20.553-2.8245 0.72423-15.031 1.1789-21.319-1.7301-6.2884-2.9251-9.2972-6.0184-11.029-6.5579-1.7301-0.55525-4.1732 0.0403-4.1732 0.0403z"/>
   <path d="m166.88 105.22c25.833-2.4543 20.738 8.7435 41.149 4.8262l1.2916 3.0378s-6.0325 0.24141-8.857 2.1566c-2.8245 1.9152-5.3798 6.1033-8.5733 8.4735-3.1786 2.3699-9.1978 9.3824-19.673 9.9361-10.489 0.55525-16.408-2.74-19.687-4.7409-3.2792-1.9997-5.4647-4.4568-5.919-6.1033-1.5611-2.74 5.4362-16.181 20.269-17.587"/>
   <path d="m225.88 108.14 15.77-1.9997 0.90931 2.3698-15.585 1.9997z"/>
   <path d="m258.14 104.04s5.3798-0.63974 6.3733-1.0059c1.0099-0.36211 4.8403-2.3698 5.4788-2.3698 0.63974 0 2.7239 1.9152 2.7239 2.74 0 0.82482 0.0403 5.1103-1.7462 5.3798-1.8025 0.28163-5.1811-2.74-6.5438-2.74-1.364 0-5.5215 0.55524-5.5215 0.55524z"/>
  </g>
  <path d="m87.459 126.92c-0.0804-2.2129-4.0308-3.8907-8.857-3.7459-4.8403 0.16093-8.7008 2.06-8.63 4.2722 0.08045 2.2129 4.0312 3.8907 8.8574 3.7459 4.8399-0.16094 8.7008-2.06 8.6296-4.2722" fill="#c6dcdb"/>
  <path d="m172.92 112.05c-0.78057-2.0721-5.0813-2.3578-9.5949-0.65181-4.5281 1.718-7.5513 4.7836-6.7708 6.8557 0.79665 2.0721 5.0958 2.3578 9.6094 0.6518 4.514-1.718 7.5372-4.7832 6.7563-6.8557" fill="#c6dcdb"/>
  <g fill="#0f141b">
   <path d="m114.54 108.64c-1.5611 4.5989-2.9372 8.7862-3.1786 9.5667-0.85299 2.8527-1.1226 3.1383-3.3516 4.0452-1.8589 0.78056-3.5367 1.2915-6.5153 1.6617-0.0281 0.0145-0.6679-1.6617-0.20117-1.6899 1.8468-0.0804 3.8465-0.48282 5.6209-1.2071 1.887-0.78055 2.3698-1.6738 2.8527-3.2952 0.12073-0.40236 1.364-4.1869 2.8527-8.6156"/>
   <path d="m114.47 103.66c1.5772-4.5418 3.0378-8.6015 3.4924-9.3394 4.4283-7.0971 19.318-17.345 24.669-20.695 2.1445-1.3358 2.2129-2.909-0.0805-4.1591 0 0-11.313-6.1033-13.498-7.3807-3.3798-1.9715-3.3194-4.0312-2.4543-6.572 0.76447-2.2693 20.099-54.931 21.547-60.765 0.32188-1.3358 0.16095-1.4887-1.3921-0.56731-4.9819 2.9814-16.55 14.208-24.655 22.058-7.466 7.2387-13.541 14.393-17.544 17.302-0.28165 0.20119-3.1102-0.88115-2.7118-1.1346 3.6614-2.398 11.157-9.6661 19.091-17.359 11.44-11.1 19.716-18.963 24.556-21.93 4.0879-2.5107 5.124-1.7301 4.244 2.0158-1.1346 4.7695-21.022 59.317-21.689 61.205-0.63973 1.8589-0.24141 3.251 1.6899 4.3293 2.06 1.1628 13.626 7.324 13.626 7.324 3.1222 1.718 3.5487 4.9397 0.16094 7.0544-4.9111 3.078-19.9 13.371-24.13 20.17-0.36212 0.5834-1.6899 4.2299-3.1504 8.4598"/>
   <path d="m63.162 39.47c7.2391-9.5241 29.808-13.328 45.52-4.4568 1.9313 1.0944 1.5048 2.3014-0.4104 1.207-12.86-7.2673-35.627-4.996-44.072 4.1446-1.7744 1.9152-2.74 1.3479-1.0381-0.89322"/>
   <path d="m123.21 58.3c-0.24141-2.8245-1.4324-6.4867-2.6958-8.6015-0.97771-1.6456-0.28164-2.0439 0.78056-0.45466 1.2191 1.8307 2.909 6.018 3.1504 8.871 0.16093 1.718-1.0944 1.875-1.2352 0.20119"/>
   <path d="m98.501 109.7c-1.1346-4.7409-5.138-15.841-6.9977-20.482-0.24141-0.61158-0.43856-0.59547-1.2071-0.8369-6.2453-1.875-20.184-8.8855-24.755-14.237-1.8307-2.1445-1.1789-2.74 0.78056-0.70814 4.5136 4.6556 18.14 11.781 23.888 13.3 1.533 0.40235 2.386 0.70814 2.8245 1.8307 1.8589 4.6983 5.3513 16.068 6.4867 20.879 0.56733 2.386-0.46671 2.571-1.022 0.24141"/>
   <path d="m80.237 109.37c-2.3296-4.7268-4.2863-7.0118-8.2607-8.5307-8.2325-3.1786-17.359-4.3719-24.031-5.2378-7.1112-0.93748-10.574-1.4605-11.511-3.1786-1.4485-2.6676 3.4763-10.291 11.909-21.731 0.74032-0.97772 1.4324-1.9313 1.8025-2.4544-0.45467-0.63974-37.16-48.501-39.573-52.66-2.0158-3.4482-0.48282-3.9471 2.0882-3.5206 4.5989 0.76447 14.648 5.3227 33.725 14.605 6.288 3.0538 14.691 7.2109 20.936 9.2122 0.43857 0.16094-1.1789 2.1164-1.6175 1.9715-3.593-1.1507-10.717-5.1384-20.056-9.6806-10.716-5.2093-27.792-13.498-33.186-14.52-0.93748-0.20117-1.0944 0.08045-0.5834 0.93748 3.7459 6.3447 37.089 48.885 38.693 51.013 1.9313 2.5268 1.9313 2.2854-0.86505 6.0896-8.6441 11.724-12.462 18.282-11.653 19.772 0.5834 1.0662 5.3513 1.8589 10.106 2.4704 6.7563 0.89322 16.011 2.1003 24.428 5.3368 4.0312 1.5611 7.3807 5.3794 9.368 9.5953 0.20117 0.41041-1.5893 0.76447-1.718 0.511"/>
   <path d="m33.999 116.26c3.1222-1.702 4.8544-4.3148 4.9964-7.5373 0.59549-12.746-16.607-24.243-29.041-16.465-1.6174 1.0059-2.1727-0.28165-0.53915-1.3197 12.59-7.8636 32.207 1.3197 31.44 17.87-0.16095 3.9189-2.2411 7.0544-5.9616 9.0843-0.16094 0.0804-1.3479-1.3922-0.89322-1.6336"/>
   <path d="m-6.8361 113.15c-4.6983-4.1591-11.383-12.817-11.625-17.459-0.56731-10.561 9.9924-25.862 26.032-30.943 13.57-4.3011 32.732-1.7462 41.844 5.5782 0.40235 0.32187-0.76447 1.7744-1.1628 1.4485-7.7497-6.2171-25.72-9.8222-40.127-5.2519-15.23 4.8258-25.251 19.191-24.74 29.07 0.28165 4.9111 6.2598 12.292 11.015 16.522 0.40236 0.32188-1.0662 1.191-1.2352 1.034"/>
   <path d="m39.261 123.72c-0.51098 0-1.2634-1.9152-0.75241-1.9152 12.022 0 21.972-10.589 22.143-24.698 0.01401-0.51098 1.875-0.49489 1.8589 0.01414-0.20119 15.173-10.191 26.599-23.25 26.599"/>
   <path d="m13.15 102.24c2.8688-1.0662 4.9397-3.2228 5.2093-5.8192 0.41039-4.0155 1.8468-6.572 4.2867-7.594 0.46673-0.20117 2.0882 1.2755 1.6175 1.4766-2.8406 1.191-3.6614 2.4423-4.0597 6.3161-0.36212 3.4079-3.078 5.6921-5.5215 6.7-0.12074 0.0403-2.0158-0.90931-1.533-1.0783"/>
   <path d="m33.344 111.63c-0.51098 0-0.51098-1.5491 0-1.5491 1.6335 0 4.6415-2.567 5.7915-4.8685 0.24141-0.46672 1.6617 0.82482 1.4324 1.2755-1.3479 2.74-4.7268 5.138-7.225 5.138"/>
   <path d="m147.22 111.36c-8.0764-7.8636-19.772-9.4959-32.206-6.6147-3.0096 0.69607-2.4262-0.67998 0.40235-1.545 11.398-3.4763 25.45-0.63974 33.115 6.8275 0.36212 0.36212-1.1065 1.5048-1.2916 1.3358"/>
   <path d="m148.1 82.415c-2.6555-3.7459-6.4441-4.0034-11.582-2.4704-1.1226 0.32187 2.3698-1.9715 3.4763-2.3015 3.7901-1.1346 7.3099 0.42649 9.6234 3.6896 2.5549 3.6051 13.002 7.6648 19.318 5.8623 0.49489-0.16095 0.45465 1.9434-0.0403 2.0882-5.7343 1.6335-17.757-2.5831-20.794-6.8701"/>
   <path d="m164.14 100.62c-6.813-2.2693-17.047-3.3918-24.698-2.3417-5.5356 0.75239-10.546-2.8366-12.462-8.2325-0.16094-0.48282 1.4324-1.8589 1.6054-1.376 1.7301 4.8544 5.8337 8.9563 10.745 8.2892 7.8776-1.0783 19.744-0.61158 26.727 2.056 0.46672 0.20117-1.8186 1.6335-1.9152 1.6054"/>
   <path d="m156.1 97.583c-3.6614 4.0034-9.4955 7.3667-14.18 9.51-0.12074 0.0403-1.2513-1.4766-0.78057-1.6899 4.4568-2.0439 8.9137-4.7691 12.334-8.105z"/>
   <path d="m160.53 87.473c3.082-5.2374 7.0403-11.852 5.3798-17.87-3.5487-12.747-20.581-20.056-37.529-15.528-0.4949 0.16095 0.0804-2.1164 0.40234-2.2009 15.372-4.1873 35.4 2.0158 39.516 16.806 1.887 6.813-1.0944 12.845-5.6776 19.403z"/>
   <path d="m122.64 108.91c-0.40236-0.32189 0.67996-1.5048 1.0501-1.1507 2.2693 2.0721 6.0892 2.4543 9.8934 0.96564 0.46673-0.20118 2.0721 0.96564 1.5893 1.1507-5.1384 1.8589-9.6661 1.5048-12.534-0.96564"/>
   <path d="m2.0635 169.18c-3.5769 0-14.449-8.1476-15.925-9.8367-1.875-2.1445-9.1129-27.238-8.8147-30.517 0.46673-4.897 6.6002-10.972 10.106-11.1 3.2349-0.16095 11.866 3.4361 15.031 5.8337 2.0439 1.549 6.7563 0.32188 8.2892-1.9715 0.32188-0.45466 7.5513-11.256 11.639-11.809 3.3194-0.43857 9.2404 1.6335 10.617 5.4221 0.24141 0.67998 1.5772 3.1665 3.0941 6.0465 5.2374 9.9361 9.5667 18.367 9.4247 20.993-0.32188 6.061-3.5487 18.183-8.2466 18.764-4.8403 0.61158-14.592-1.7864-15.202-6.6569-0.43857-3.4642 1.4203-7.1252 3.3918-8.8143 0.40236-0.36212 1.5893 1.0783 1.2071 1.4042-1.5893 1.364-3.0941 4.4995-2.7521 7.182 0.4104 3.2631 8.7153 5.5927 13.13 5.039 2.7521-0.32187 6.2453-10.276 6.6147-17.019 0.12074-2.3296-5.9476-13.839-9.2122-20.014-1.6738-3.1947-2.8969-5.4929-3.1947-6.288-0.93748-2.5831-5.7488-4.5989-8.63-4.2154-2.2411 0.28164-7.4946 6.7418-10.333 11-1.6175 2.4423-7.7927 4.8258-10.958 2.4262-3.0096-2.2854-11.284-5.536-13.853-5.4647-2.4543 0.0804-7.9203 5.2946-8.3033 9.4106-0.28163 3.0659 7.0544 27.494 8.3601 29.126 1.4766 1.702 11.909 9.1978 14.492 9.1978h0.04029c2.8124-0.0805 6.0606-2.6676 6.3447-3.7902 0.7363-2.9251 0.80873-5.9472-0.48282-7.8495-0.82481-1.207-2.2572-2.4423-3.7177-2.6394-0.51098-0.0804-0.90931-1.3479-0.40235-1.376 2.1566-0.12074 4.1161 1.3479 5.2374 2.9935 1.6054 2.3578 2.0439 5.8482 1.1628 9.3116-0.76447 3.1222-5.5074 5.2092-8.1617 5.2092"/>
   <path d="m26.166 151.29c-0.82482-2.5107-0.72423-4.8544-0.52707-8.0197-0.43857-1.1065-5.6068-12.008-6.3733-13.797-0.86506-2.0158 0.51098-2.6555 1.376-0.62365 1.0059 2.3578 6.8275 13.286 6.7281 14.066-0.40234 3.0941-0.6518 5.7202-0.16094 8.0905 0.41039 1.9595-0.43857 2.1284-1.0381 0.28165"/>
   <path d="m5.1806 155.31c-0.70814-1.5169-3.2067-4.102-5.1521-5.0672-0.32188-0.16095-0.53916-0.52709-0.511-0.89323 0.08045-1.5772-1.2473-10.319-1.9594-12.647-0.67998-2.229 0.79665-2.571 1.4605-0.32188 0.67998 2.2411 2.2572 9.7655 2.3578 12.505 1.8468 1.207 3.7338 3.2228 4.9111 5.5641 1.0381 2.06-0.16095 2.9653-1.1065 0.88115"/>
   <path d="m167.79 99.964c-3.3355-7.3811-0.28165-14.592 8.6445-20.312 2.3135-1.4887 5.1807-1.5048 8.0478-0.04029 3.2228 1.6335 8.63 0.89322 13.797-1.8589 8.2752-4.4283 14.875-4.4142 22.767 0.01414 2.4986 1.4042 6.3161 4.7409 6.9406 7.736 0.0805 0.49489-1.718 0.88115-1.8307 0.40236-0.43857-2.1164-3.4642-5.0672-6.0325-6.5008-7.2532-4.0738-13.328-4.0738-20.965 0-4.7124 2.5268-10.858 4.244-15.514 1.887-1.6054-0.80873-3.9752-1.4766-6.2171-0.04029-4.6415 2.9814-11.866 9.2971-7.9489 17.969 0.20117 0.46673-1.533 1.1065-1.6899 0.76448"/>
   <path d="m97.803 137.58c14.62-3.762 18.239-8.346 21.277-17.885 0 0 2.4986-7.7215 2.7682-12.051 0.0285-0.51098 1.875-0.4104 1.8468 0.12074-0.28165 4.5566-2.8366 12.491-2.8366 12.491-3.1947 10.035-7.6226 15.358-24.102 19.133-0.0804 0.0145 0.55525-1.6738 1.0501-1.8025"/>
   <path d="m52.778 155.27c5.8763 12.392 26.358 11.71 39.758 3.6614 1.3197-0.78055 2.0037-1.5611 2.1445-2.4423 0.92138-5.6776 5.8908-16.536 11.895-21.291 0.40235-0.32188 3.1665-0.67998 2.7521-0.36212-5.5641 4.4287-11.966 16.706-12.817 21.958-0.32189 1.9152-1.8589 3.0538-3.0096 3.7459-14.407 8.6441-34.534 9.8367-41.844-2.5429-0.28165-0.49488 0.89322-3.1947 1.1226-2.7239"/>
   <path d="m-15.063 118.63c6.9555-9.5526 26.004-13.981 36.266-7.9203 0.43857 0.24141-0.49488 1.8589-0.93748 1.6054-8.0338-4.7409-27.238-1.6456-33.824 7.4093-0.20117 0.24141-1.8025-0.67998-1.5048-1.0944"/>
   <path d="m31.212 115.61c-1.4042-13.215-23.463-17.132-29.949-4.7836-0.24141 0.45466-1.887-0.41039-1.6456-0.86505 7.9489-15.131 31.993-8.1758 33.441 5.4507 0.04029 0.51098-1.7864 0.67997-1.8468 0.20117"/>
   <path d="m247.87 126.93c-0.511 0-8.5874-1.4203-10.049-3.3918-0.76848-1.022-2.3417-8.4313-3.0659-9.9642-0.7363-1.533-0.63974-3.0378 0.24141-4.2295 0.92139-1.2191 1.8186 0.0804 1.3358 0.70814-0.48282 0.63974-0.32189 1.8186 0.0804 2.7239 0.82481 1.718 2.3578 8.9564 2.8808 9.652 1.022 1.376 7.3099 2.5268 7.3099 2.5268 2.2572 0.41039 3.9591-0.24141 5.5356-2.056 0.62364-0.72423 5.4792-7.0122 6.1604-10.291 0.16094-4.102-5.9049-26.614-7.736-30.276-2.2129-4.4287-6.0039-5.6921-9.4814-5.7202-2.398 0.04016-5.6635 5.2233-8.1191 7.6503-2.5268 2.4986-7.6648 2.3699-11 1.8589-1.5048-0.24141-12.69-5.7343-13.853-6.0606-0.7363-0.20119-1.533 0.04029-2.3859 0.5834-0.85299 0.52306-4.4854 3.6896-5.4507 4.3856-3.2228 2.3296-4.1446 3.931-3.931 6.8842 0.28165 3.7057-1.1628 9.5812-3.762 12.462-0.32189 0.40235-1.7301-0.85299-1.3922-1.2352 2.1848-2.4262 3.5488-7.8491 3.3073-11.086-0.32188-4.116 1.4042-6.1745 4.6983-8.5447 0.88115-0.63973 4.6556-3.9189 5.7062-4.5421 1.191-0.70814 2.4141-1.0662 3.7177-0.69607 1.3197 0.36211 12.391 5.8337 13.626 6.0184 3.593 0.53915 7.736 0.67996 9.4106-1.3479 2.2974-2.8245 7.5232-8.1476 9.3965-8.1899 4.4572 0 9.1129 2.6273 11.185 6.7422 1.5048 3.0378 8.5306 27.153 7.977 31.383-0.46673 3.7057-5.6208 9.9924-6.671 11.242-1.6175 1.887-3.4924 2.8124-5.6921 2.8124"/>
   <path d="m240.04 115.7c1.6738-2.3014 2.1566-4.2299 1.5209-7.2532-0.76447-3.6332-3.8907-13.172-4.8825-15.883-0.88115-2.386 0.40235-2.8527 1.2754-0.46673 1.0501 2.8688 4.5844 12.278 5.3794 16.053 0.61157 2.8969-0.8369 6.1604-2.4141 8.3178-0.80872 1.1065-1.8025 0.511-0.88115-0.76447"/>
   <path d="m108.79 168.89c3.3194-6.9265-8.5307-14.705-12.235-16.919-0.43857-0.28163 0.51098-1.8589 0.94955-1.6054 5.1948 3.1102 16.848 11.213 12.959 19.332-0.16095 0.32187-1.9031-0.32189-1.6738-0.80874"/>
   <path d="m136.73 180.05c-9.2259 0-18.509-3.0378-26.5-8.9704-2.1727-1.6174-3.6493-1.7623-5.1952-0.61156-0.4104 0.32187 0.93748-2.3015 1.207-2.4262 1.875-0.85299 3.4482 0.32189 5.0954 1.545 5.6494 4.1873 17.714 10.361 26.742 8.2752 0.4949-0.12074-0.28165 2.1848-1.3479 2.1848"/>
   <path d="m144.81 117.37c-7.0259-9.1124-19.077-10.575-31.312-7.977-2.9653 0.62364-3.5206-0.43856-0.16093-1.3036 12.093-3.078 25.791-0.88115 32.462 7.7783 0.32189 0.41039-0.82481 1.7462-1.0099 1.5048"/>
   <path d="m158.53 141.13c-1.8146-3.9591-3.4482-7.2106-5.124-10.205-0.24141-0.43857 1.364-1.3479 1.6174-0.90932 1.702 3.0378 3.3637 6.3306 5.1948 10.333 9.6946 21.149 37.558 32.121 62.213 24.712-0.7685-0.51099-1.364-1.022-1.887-1.6738-1.4485-1.8186-0.97772-2.7682 1.7864-2.7521 1.4887 0.0141 4.0452 0.58341 5.3794 1.3358-0.52708-1.4324-2.4825-3.2067-3.4924-4.0738-1.545-1.2916-1.6054-2.0882 0.6679-2.8124 2.5831-0.83688 6.6714-3.3194 8.2752-4.9538-1.0381 0.36213-3.4763 0.40236-4.5421 0.16095-3.6614-0.78057-3.7178-2.3135 0.20117-3.2912 2.2129-0.56733 5.3509-1.1789 6.7563-1.9152-0.72423-0.9938-2.6113-2.0882-4.0155-2.5268-2.6958-0.83688-2.5388-1.7019-0.16093-3.1947 1.5169-0.93747 4.0034-2.0721 6.1174-2.3578-3.8626-2.0882-8.3033-3.4079-12.477-2.8124-2.0721 0.28165-2.1164 0.28165-1.022-1.8589 0.8369-1.6456 0.93748-3.6212 0.82483-5.6776-12.505 12.831-40.879 16.593-53.881 7.5795-0.41041-0.28165 2.2129-1.4324 2.6394-1.1507 11.71 8.1331 38.622 2.7963 49.367-6.5861 3.082-2.6837 3.6212-3.1504 3.7338 0.36212 0.0804 2.0278-0.24141 3.8746-1.0059 5.5641 3.9028-0.28165 9.2971 1.0381 12.079 3.1786 2.1445 1.6617 1.7744 2.4262-0.82483 3.0538-1.6899 0.40236-3.5326 1.2634-4.8544 2.1848 1.1628 0.55523 2.2854 1.2915 3.1947 2.1727 2.044 1.9594 2.0278 2.8124-0.69608 4.0312-1.4887 0.6679-3.3636 1.2473-5.2519 1.718 0.86506 0.16095 1.7583 0.20119 2.6837 0.12074 3.0941-0.20118 3.9591 0.0403 1.6456 2.7118-1.7583 2.0158-4.9823 4.1165-7.9488 5.1384 1.2352 1.1226 2.2974 2.5992 3.0217 4.1728 0.97771 2.1284 0.40234 2.7118-2.5992 1.9876-1.1065-0.28165-2.4704-0.4265-3.9189-0.4265 0.41039 0.45466 0.93748 0.85299 1.6899 1.2915 2.1566 1.3036 1.545 2.2854-0.59547 2.9372-28.615 8.8996-55.328-4.9111-64.796-25.592"/>
   <path d="m179.12 136.84c-1.1065 0-3.6896-2.4141-3.1947-2.2572 6.5294 2.1003 15.77-3.8183 18.14-8.9704 3.593-7.8068 6.6428-9.4392 9.2118-9.4392 2.8245 0 4.6274 0.97772 6.0751 1.7744 0.8369 0.46673 1.5611 0.86506 2.3698 1.022 0.49489 0.0804 0.12073 1.9313-0.36211 1.8307-1.0783-0.20119-1.9595-0.69608-2.8969-1.2191-1.3921-0.76848-2.8245-1.549-5.1811-1.549-2.4262 0-4.3716 1.5209-7.5228 8.3605-2.9814 6.4722-9.9642 10.447-16.636 10.447"/>
   <path d="m197.58 120.89c-0.40235-0.32188 0.82482-1.7462 1.2071-1.4042 2.3578 2.0158 8.9137 4.0452 13.47 2.4825 0.48283-0.16094 1.0783 1.6054 0.59549 1.7583-5.7202 1.9594-11.213 0.65182-15.273-2.8406"/>
   <path d="m227.18 116.25c-0.46672-0.20117 0-2.4262 0.42649-2.1284 2.7802 1.8589 6.4867 1.4485 8.346 0.0804 0.42649-0.28165 1.4203 1.6335 1.0099 1.9434-2.4423 1.7864-7.1112 1.2473-9.78 0.0804"/>
   <path d="m31.211 114.09c0.40235-4.6983 2.5429-8.7862 2.6273-8.9564 0.90933-1.718 1.887-1.2352 1.191 0.5834-1.022 2.6676-1.6617 5.1666-2.0158 9.4674-0.04029 0.49489-1.8468-0.58341-1.8025-1.0944"/>
   <path d="m4.3248 119.96c2.7963-1.1346 5.8908-1.1065 8.5592-0.36212 0.49489 0.16095-0.02855 2.0158-0.49489 1.7864-2.3417-1.1507-5.4362-1.1507-7.9062-0.0804-1.5169 0.65181-2.1003-0.55524-0.16095-1.3479"/>
   <path d="m46.086 131.65c-3.3798-2.5831-12.079-12.775-13.314-13.896-0.40236-0.32187-0.16095-2.909 0.24141-2.571 1.3197 1.191 12.462 14.052 13.938 14.819 0.45466 0.24141-0.7363 1.7462-0.86506 1.6456"/>
   <path d="m-21.455 148.34c-1.7301-5.6635-1.6899-12.178-0.40235-15.599 0.20117-0.48282 1.2352 3.1384 1.1226 3.6493-0.75239 2.9533-0.28165 7.5368 0.9938 11.54z"/>
   <path d="m-17.778 152.42c0.7685 1.3076 1.6335 2.3578 2.5992 3.0096 0.41039 0.28165 1.1065 2.6958 0.90931 2.5992-2.0721-0.93747-3.7338-2.6273-5.0105-4.7127z"/>
   <path d="m144.61 119.8c-2.8245-11.98 12.051-20.482 22.455-21.149 15.727-1.0099 23.264 3.1665 30.205 7.9203 2.2693 1.549 4.1732 1.3921 8.6441 0.83688l1.7864-0.20117c0.51098-0.0804 0.72423 1.7864 0.20117 1.8468l-1.7744 0.20117c-4.3579 0.53916-6.9836 0.85299-9.922-1.1507-6.9124-4.7264-13.867-8.5733-29.041-7.594-10.149 0.6518-22.81 10.177-20.752 18.864 2.4704 10.489 18.793 14.478 26.884 13.2 8.2611-1.3197 16.933-6.9691 23.193-15.131 2.1727-2.8124 5.3794-4.4287 9.8081-4.9256 0.48282-0.0403 1.4887-0.20119 2.8969-0.36212 0.51099-0.0403 0.73631 1.7905 0.24141 1.8468-1.4042 0.20119-2.4141 0.32188-2.909 0.36212-3.9028 0.43857-6.6996 1.8307-8.5447 4.2158-6.5434 8.5307-15.656 14.45-24.371 15.827-12.775 2.0319-26.401-3.589-28.999-14.606"/>
   <path d="m226.66 109.87 15.628-2.056c0.4949-0.0403 0.7524 1.7864 0.24141 1.8468l-15.628 2.056c-0.0403 0-0.75241-1.7744-0.24141-1.8468"/>
   <path d="m269.23 109.57c-1.022-0.32189-1.9715-0.94955-2.8527-1.533-0.88115-0.56731-1.8186-1.1789-2.3417-1.1346-0.20117 0.0145-1.2795 0.16095-5.1244 0.62365-0.51099 0.0804-0.73631-1.7744-0.24141-1.8468 4.2158-0.53916 5.0105-0.62365 5.2233-0.63974 1.1789-0.0804 2.3014 0.6679 3.4924 1.4485 0.7363 0.48282 1.5048 0.99382 2.229 1.2473 1.3076 0.46673 1.364 0.55525 1.9031-1.3197 0.61157-2.1445 0.0804-4.9819-0.83689-6.5149-0.61157-1.022-0.99382-0.96564-1.8468-0.56731-0.85298 0.40235-1.8025 0.9938-2.6394 1.5169-1.1065 0.70814-2.0721 1.3197-2.8808 1.5611-0.16094 0.0403-0.51099 0.16093-5.5215 0.79664-0.51098 0.0403-0.75239-1.7864-0.24141-1.8468 4.2867-0.53914 5.0817-0.69606 5.2378-0.72423 0.55524-0.20117 1.5048-0.78055 2.4141-1.3479 1.1789-0.75239 2.386-1.5048 3.5045-1.9152 1.364-0.49892 1.8186-0.6679 2.7521 0.32188 2.1446 2.2693 3.082 8.4739 1.1628 11.142-0.97771 1.3479-1.8468 1.2352-3.4079 0.73631"/>
   <path d="m224.74 105.24c5.2093-0.59548 10.915-1.2634 16.267-1.887 0.52306-0.0403 0.73631 1.7864 0.24141 1.8468-5.3654 0.62365-11.057 1.2916-16.28 1.887-0.0403 0-0.72423-1.7864-0.20118-1.8468"/>
   <path d="m217.59 128.14c-2.3417 0-4.2863-0.32187-5.3654-3.4079-1.718-4.8829-4.7264-14.024-5.9186-18.509-0.89323-3.4079-1.875-6.4155-3.5487-8.1758-2.2129-2.3417-1.2191-3.3516 1.0501-0.90931 1.8589 1.9997 3.3355 4.9397 4.3008 8.6019 1.1789 4.4428 4.1587 13.527 5.8623 18.367 0.46671 1.3479 1.9434 2.0882 3.5769 2.1164 2.8527 0.0403 3.8183 0 5.1948-0.24141 1.4605-0.28164 2.6394-4.8399 3.4482-7.7356 0.79666-2.8527 0.16093-6.5434-0.96564-8.8288-0.96566-1.9313-4.1591-10.276-6.1604-16.025-1.0783-3.0538 0.28163-3.5326 1.3358-0.6518 2.0721 5.649 5.5641 14.009 6.4867 15.855 1.3479 2.7118 1.9997 6.8698 1.0662 10.262-1.022 3.6896-2.2411 8.3886-4.8258 8.9423-0.24141 0.0403-3.9471 0.36212-5.536 0.36212"/>
   <path d="m-1.925 137.05c1.1628-0.41039 2.0601-1.0944 2.2009-2.2009 0.24141-1.8025 1.1507-1.6174 1.0662 0.16094-0.08045 1.4766-0.89322 2.6837-1.887 3.2792-0.24141 0.16094-1.8589-1.0783-1.376-1.2513"/>
   <path d="m82.641 206.6c-1.1226 0-1.2473-0.79665-0.0804-1.1507 0.93748-0.28165 1.1065-1.1065 0.72423-2.3698-2.5992-8.5874-21.944-21.561-29.609-23.534-2.9935-0.76447-3.931-0.16095-3.9471 1.4485-0.01454 1.4324-1.2352 1.2473-1.2513-0.16094-0.01401-2.6394 1.6054-4.1165 5.6494-3.078 8.6723 2.2411 27.863 14.648 30.929 24.797 0.78057 2.571-0.20117 4.0597-2.4262 4.0597"/>
   <path d="m50.215 185.75c1.8186-0.59549 3.9591-1.8025 4.9256-2.7239 1.022-0.97772 1.1226-2.3578 2.1445-3.3073 0.40236-0.36212 2.1003 0.6679 1.7462 1.0501-0.94955 0.99382-0.9938 2.4704-2.386 3.3918-1.6738 1.0944-2.9251 1.9313-4.2722 2.2411-0.45466 0.12074-2.6394-0.49489-2.1566-0.65181"/>
   <path d="m72.793 202.41c-0.61158 0-1.5611-1.4485-1.0944-1.6456 1.9152-0.76447 5.3368-2.5429 7.2532-4.7264 0.32187-0.40235 1.9876 0.28164 1.718 0.72423-1.8589 2.8688-3.9591 4.4142-7.878 5.649"/>
   <path d="m66.596 157.04c-5.9186 0-10.617-3.3637-15.925-6.7422-2.74-1.7301-4.4001-1.1789-6.9128 0.0805-0.45466 0.24141-0.99382-1.8307-0.52306-2.06 3.0217-1.5209 5.2092-1.875 8.4739 0.45466 4.1305 2.9372 10.929 6.4586 15.159 6.2598 6.2312-0.28165 10.475-2.1284 10.433-6.7849 0-0.511 1.7019-0.52306 1.7019-0.0141 0.0403 6.018-5.4221 8.8143-12.406 8.8143"/>
   <path d="m106.06 108.67 0.0145-21.092c-0.0285-1.7462 0.0403-2.4262 1.3479-3.4924 3.8062-3.1223 11.214-10.475 13.442-15.67 0.72423-1.6738 1.4887-1.364 0.90931 0.36211-2.1003 6.3161-10.773 13.967-13.286 16.607-0.78057 0.83688-0.76447 0.80872-0.7363 2.2009l-0.63974 21.092c0 2.044-1.0502 2.0319-1.0502 0"/>
   <path d="m116.4 83.83c0.45467-2.5107 0.24142-5.8478 0.0804-8.0623-0.0282-0.40236 1.2191-1.5491 1.2634-1.1789 0.28165 2.6394 0.20118 6.5861-0.52708 9.4251-0.32189 1.2352-1.0662 1.1346-0.82483-0.20117"/>
   <path d="m106.75 90.24c2.4704-0.36212 5.6494-1.9152 7.8495-3.4079 1.191-0.82482 1.549-0.16094 0.45466 0.80872-2.3578 2.0279-5.0246 3.3637-8.0056 3.9189-0.0403 0.01454-0.6679-1.2634-0.28165-1.3197"/>
   <path d="m80.941 92.5c-1.6054-0.48282-1.2915-1.3358 0.32189-0.8369 3.3798 1.022 8.3742 0.89322 11.469 0.16095 0.36213-0.08045 0.67998 1.2191 0.32189 1.3197-3.7057 0.88115-8.8996 0.32187-12.108-0.63974"/>
   <path d="m77.427 89.806c-1.5169-1.9715-2.9814-5.6068-3.6896-9.4959-0.04029-0.36211 1.5048 0.16095 1.5209 0.52306 0.20117 3.0217 1.4324 6.5008 2.6958 8.346 0.92138 1.364 0.40235 1.8025-0.52709 0.62365"/>
   <path d="m-1.1428 167.74c-7.6503-1.2473-14.705-3.6614-19.304-6.5008 0.40236 1.2915 1.0381 2.8124 1.8589 3.9873 1.6456 2.386 1.4887 2.7682-1.6335 3.0538-4.0879 0.40235-8.8715 2.8245-10.986 5.8055 1.545 0 4.3719 0 6.5153 0.7685 2.8527 1.034 2.571 1.9434 0.28165 3.9752-0.70814 0.63974-1.7019 1.7905-2.2129 2.5107 1.9313 0.0805 4.6556-0.0804 6.9551 0.16094 3.4642 0.40236 3.8465 1.364 1.3358 3.078-1.2191 0.8369-2.7521 1.3479-4.7123 1.5893 2.1003 1.191 5.408 2.2693 8.2184 2.4544 2.9533 0.20117 3.6896 0.6518 2.1003 2.6274-0.93748 1.1507-1.702 3.0659-1.9595 4.3293 2.4544-1.5048 6.7704-2.7239 7.3526-1.9594 0.28165 0.40235-0.511 3.5045-2.2854 4.5421 28.019 1.7744 57.642-10.816 61.46-47.692 0.04016-0.511 1.6738-0.28165 1.6175 0.24141-4.3007 41.645-37.841 51.723-63.902 48.799-2.6273-0.28163-2.0439-1.4203-0.08045-2.8366 0.67996-0.49489 1.022-0.90931 1.2071-1.376-1.6335 0.12074-3.2912 0.85299-4.627 1.5893-1.9876 1.1226-2.8406 0.79666-2.386-1.875 0.24141-1.4766 0.82482-3.078 1.8468-4.4854-3.2792-0.12074-6.2594-1.3076-8.6441-2.6394-2.6837-1.5048-2.74-2.6394 0.88115-3.6051 0.88115-0.24141 1.6738-0.51098 2.398-0.90931-2.1727-0.24141-4.4001-0.4949-6.2167-0.56731-2.7239-0.0805-3.4079-0.8369-1.1789-3.6332 0.69607-0.86506 1.533-1.6899 2.4141-2.3698-1.9031-0.7363-3.6493-1.0783-5.0672-1.1226-3.2349-0.12074-3.8465-0.79666-1.7019-3.2067 2.4423-2.7521 6.8416-5.7625 11.568-6.0606-0.79666-1.1065-1.4485-2.4544-1.9031-3.7338-1.4324-3.9873-0.55524-4.7268 3.2631-2.5268 3.5487 2.0278 8.389 3.8183 13.768 5.0246z"/>
   <path d="m6.275 166.7c8.4172 0.45466 21.646-1.4324 27.735-7.2391 0.40236-0.3621 1.6617 0.99382 1.2916 1.3479-5.9898 5.7062-22.157 8.3886-31.397 7.5654z"/>
   <path d="m69.365 112.93c3.931-2.6394 13.002-5.2519 19.077-4.8544 2.3698 0.16095 2.4825 1.5611 0.24141 1.376-5.7058-0.43855-13.697 1.6617-17.799 4.7264-0.12074 0.0804-1.9434-0.96566-1.5169-1.2473"/>
   <path d="m-16.326 151.1c-0.49489 0.20117-1.9997 0.67996-2.8366 1.0662-1.6175 0.73629-2.4704 1.1789-3.8746 3.0216-0.96564 1.2795-1.7583 1.8468-2.5107 1.7462-2.4262-0.32188-4.755-6.8842-3.5206-8.119 0.59547-0.59549 2.0882-0.24141 4.1732 0.32188 0.80873 0.20118 2.2572 0.32188 4.3856 0.0285 0.7685-0.0804 2.4986-0.51098 3.4643-0.88115l-0.4104-1.6899c-0.86506 0.24141-2.1445 0.55525-3.5608 0.7685-1.7583 0.28164-2.8808 0.12074-3.4079-0.0145-2.9653-0.79666-5.025-0.85299-6.0325 0.16094-2.1164 2.056 0.96564 11.384 4.8825 11.37 1.1789-0.014 2.6113-0.67997 3.8746-2.3578 1.1346-1.5209 2.2411-2.1445 3.2953-2.5831 0.49489-0.20117 2.1727-0.89321 2.7239-1.0783z"/>
   <path d="m-0.41615 142.59c0.85297-0.20117 22.483-5.0954 24.059-5.5496 0.49489-0.16094 0.99382 1.6456 0.511 1.7864-1.6336 0.46673-23.293 5.3509-24.116 5.5641-0.42649 0.12073-1.2915-1.5893-0.45466-1.8025"/>
   <path d="m52.221 143.41c-3.9752-2.9814-4.8258-3.2912-8.218-3.0378-0.51098 0.0403-0.6518-1.8186-0.16094-1.8589 4.0879-0.28165 5.3654 0.32188 9.4673 3.4079 5.8764 4.386 16.337 6.4014 26.032 5.0105 10.929-1.5772 23.718-11.114 21.064-22.71-2.2009-9.5104-21.022-12.051-32.476-9.141-7.9344 1.9997-15.869 9.3965-18.324 13.74-1.7301 3.078-5.0105 5.5215-7.9774 5.9612-0.51098 0.0805-0.78056-1.7744-0.28165-1.8468 2.0439-0.28165 4.9964-2.1284 6.6288-5.0246 2.6837-4.755 10.944-12.477 19.488-14.634 14.62-3.7056 32.334 0.12074 34.733 10.532 3.2067 13.91-10.944 23.278-22.597 24.953-10.319 1.4887-21.305-0.78057-27.409-5.3513"/>
   <path d="m9.2785 156.77c1.376-1.6054 5.025-3.8022 6.7989-4.2158 1.9313-0.45466 5.167 0.0805 7.225 0.79666 0.48282 0.16093-0.12074 1.9152-0.61158 1.7462-1.8025-0.62364-4.6842-1.0904-6.1886-0.73631-2.2572 0.52306-5.0817 2.6837-6.4585 4.4146-0.16095 0.12074-1.1065-1.6174-0.76447-1.9997"/>
   <path d="m9.4841 162.5c-0.49488-0.12074-0.12074-1.9313 0.40236-1.8186 5.5782 1.191 10.617-0.48282 13.811-4.613 0.32187-0.40235 2.1445 1.2473 1.8307 1.6617-4.102 5.2801-10.66 5.919-16.025 4.7691"/>
   <path d="m90.206 114.36c-0.58341 0-6.3302-0.8369-7.324-0.89323-1.3197-0.0804-4.3293-1.4042-4.0155-1.4485 2.9653-0.4104 8.2752 0.70814 8.9849 0.7524 1.9313 0.0804 2.6113 0.0403 3.8908-0.0281 2.3698-0.20118 2.571 1.2473 0.20117 1.545-0.0403 0-0.58341 0.0804-1.7462 0.0804"/>
   <path d="m0.17973 147.99c2.4986-0.73631 24.953-5.5641 25.904-5.7629 0.49891-0.12074 0.89321 1.7019 0.40235 1.8186-0.24141 0.0403-23.321 5.0105-25.762 5.7343-0.08045 0.0145-1.022-1.6456-0.52709-1.7864"/>
   <path d="m133.83 196.86c-6.813-6.2171-19.403-8.4172-31.227-5.1384-0.4949 0.12074-0.99381-1.6617-0.4949-1.8025 10.361-2.8688 25.677-1.0944 32.973 5.5641 0.40236 0.36212-1.0662 1.533-1.2513 1.376"/>
   <path d="m83.682 210.11c-3.1786-0.6679-9.4388-3.9873-11.142-5.138-0.42649-0.28163-0.16095-3.0378 0.24141-2.7118 3.2067 2.7118 8.7153 5.5496 10.929 6.0039 6.3306 1.3197 14.819-1.7301 18.907-6.5861 0.67997-0.79666 0.86506-3.0659 1.0381-5.0531 0.20118-2.4423 0.42649-5.124 1.5732-6.6002 0.32188-0.40235 2.3417 0.0804 2.0278 0.48282-0.85297 1.0783-1.5893 4.3152-1.7462 6.2739-0.20117 2.4986-0.4104 4.8544-1.4605 6.1037-5.0105 5.9186-14.79 8.3886-20.383 7.2246"/>
   <path d="m103.47 199.56c-4.6983-12.264-3.3355-24.768 3.0378-33.47 0.79664-1.0944 1.6617-0.48282 0.89321 0.62365-6.1174 8.8429-6.2735 21.561-2.2009 32.178 0.20118 0.48282-1.5893 1.0381-1.7301 0.66791"/>
   <path d="m34.281 223.08c-4.996-3.1504-6.1741-4.5136-5.7911-10.731 0.56732-9.4392 4.6842-21.802 13.541-25.635 3.3918-1.4766 12.888-1.9031 17.501 1.3358 4.4428 3.1102 13.882 9.5953 14.535 17.53 0.59549 7.3526 0.46673 10.418-3.6332 12.619-0.45466 0.24141-1.3197-1.4042-0.88115-1.6456 2.909-1.5611 3.0498-3.3073 2.4423-10.816-0.56731-7.0689-9.3253-13.215-13.527-16.167-3.9752-2.7802-12.789-2.4141-15.699-1.1507-6.6573 2.8808-11.412 12.32-12.122 24.045-0.32188 5.2519 0.62365 6.1745 3.8626 7.9062 0.45466 0.24141-0.08045 2.8124-0.24141 2.7118"/>
   <path d="m45.479 187.02c-2.1727-2.5268-2.9653-6.302-3.1223-8.8002-0.02815-0.52305 2.0439-1.4324 2.0882-0.92138 0.20119 3.1102 1.191 6.6428 2.8688 8.5874 0.32188 0.40235-1.6456 1.3479-1.8307 1.1346"/>
   <path d="m183.2 212.35c-5.124-1.8307-12.831-12.874-15.088-16.778-0.24141-0.43856 1.3479-1.376 1.6054-0.93748 1.8186 3.1383 11.44 14.578 14.605 15.713 0.48282 0.16095-1.022 2.044-1.1226 1.9997"/>
   <path d="m176.26 226.45c0.16094-0.85299 1.1628-6.1886 1.2352-8.1186 0.0805-2.6394 1.5893-5.0817 4.1587-6.7 1.9434-1.2352 7.4801-4.8117 9.6379-6.2876 2.3296-1.5893 3.7057-2.3698 6.9265-1.364 0.0804 0.0282 8.5733 2.7118 9.652 6.1033 0.90931 2.8245 0.45466 10.745-1.5772 12.732-1.0501 1.034-1.022-0.78057-0.32188-2.1164 1.1065-2.1727 0.93748-7.5936 0.16095-10.049-0.46673-1.4766-4.6556-4.0312-8.2752-5.167-2.4141-0.75239-3.5045-0.43856-5.6917 1.0502-2.1727 1.4766-7.5372 5.4225-9.4818 6.6573-1.191 0.75241-3.2067 2.4423-3.2912 5.1948-0.0805 2.0721-1.0381 6.9695-1.6899 8.4739-1.0783 2.4544-1.875 2.2854-1.4042-0.41039"/>
   <path d="m207.56 215.25c1.9715-0.90932 4.5848-3.6332 6.5294-5.9898 2.8808-3.5045 4.6556-5.2378 9.9361-5.2378 4.2867 0 7.4801 0.28164 9.0417 1.6456 2.1445 1.875 4.4428 5.4507 4.0155 8.6019-0.0804 0.51098-1.1628-0.36212-1.2755-0.86506-0.76848-3.3194-3.2228-5.6921-3.9591-6.3306-1.364-1.191-5.8908-1.191-7.8209-1.191-4.9111 0-5.8623 1.0381-8.5025 4.5562-2.4704 3.3073-5.6349 6.6569-7.9629 7.7215-0.12074 0.0403-0.46673-2.6958 0-2.909"/>
   <path d="m192.36 218.47c0.32188 2.9372 10.291 12.633 10.972 12.448 0.72423-0.20117 1.7744-6.6147 1.5772-9.9928-0.20117-3.4763-2.9935-9.1269-6.8416-9.1269-4.116 0-6.0465 3.6051-5.7062 6.6714m8.7294 12.775c-3.6212-3.078-10.049-9.5241-10.39-12.59-0.52306-4.656 2.0721-8.1335 7.2958-8.1335 4.8684 0 8.3319 6.1037 8.5874 10.305 0.0804 1.7583-0.24141 6.6714-1.2916 9.6947-0.9938 2.909-1.5732 2.9533-4.2014 0.72423"/>
   <path d="m224.85 218.31c0.6679 2.571 10.66 10.248 11.867 9.7087 1.0381-0.46673 0.90933-10.035-1.6335-13.811-1.5048-2.2572-4.9682-2.9935-6.941-1.8307-2.4544 1.4485-3.9028 3.5769-3.2953 5.9331m-1.6174 0.4265c-0.67998-2.6113 0.67997-5.7062 3.9189-7.7219 2.4825-1.545 7.1683-0.96565 9.3257 2.2572 3.6051 5.3794 2.7963 16.181 0.92139 16.607-2.6676 0.59548-13.456-8.4027-14.166-11.142"/>
   <path d="m186.18 268.76c1.3076-1.0783 12.051-8.8996 13.513-10.276 4.755-4.4568 5.2942-6.0892 7.8777-11.639 3.2067-6.8983 4.4428-12.874 9.8222-14.308 1.2513-0.32189 9.141-1.7864 10.319-2.4825 1.5893-0.92137 3.5206-2.2129 4.4001-3.8907 0.16093-0.32188 2.1284 0.66791 1.9715 0.97772-1.1065 2.0882-3.593 3.5488-5.4221 4.514-1.887 0.9938-9.0843 1.9595-10.859 2.4262-4.4142 1.1789-5.4502 6.6855-8.4739 13.371-2.4262 5.3513-4.5417 8.8006-8.3601 12.392-1.533 1.4324-13.442 10.546-14.379 11.426-0.16094 0.20117-0.85299-2.1566-0.41039-2.5107"/>
   <path d="m172.3 222.5c-0.55525-0.79263 4.4713-4.8262 5.6208-5.8904 0.36212-0.32188 1.6336 1.022 1.2473 1.364-1.191 1.1065-6.3306 5.3086-6.8702 4.5277"/>
   <path d="m176.36 278.95c-4.7691-0.85298-12.164-6.7422-13.484-12.377-1.5893-6.8983 1.5893-10.901 1.718-16.664 0.0403-2.8969 0.78056-2.7682 1.1065 0.12074 0.49489 4.4995-2.1848 10.106-1.0099 16.11 0.78056 4.0034 6.2453 8.8714 10.177 10.447 0.46673 0.20117 1.6054 2.398 1.4887 2.3698"/>
   <path d="m167.73 197.73c-0.28165 1.2755-1.191 1.8186-2.2129 1.0662-9.1551-6.7422-23.193-3.9471-25.847 9.2259-3.5327-1.0944-7.3948-4.0452-7.182-6.2453 0.0403-0.48282 0.67998-1.3479 1.2634-1.9715 0.93747-0.97771 1.6335-2.0721 1.6174-3.3516-0.0281-1.6456-0.0804-8.7149 0.46673-10.603 0.45466-1.6456 5.55-12.945 7.9062-13.953 4.4287-1.9031 17.047 1.4324 20.724 5.4788 3.9752 4.372 3.7338 18.339 3.2631 20.354m-1.887-21.618c-4.5703-5.0246-19.389-7.3948-22.838-5.919-2.571 1.0944-7.8921 12.278-8.5025 13.74-1.1628 2.7802-0.32188 12.477-0.97771 13.655-0.70814 1.2634-2.7521 2.6676-2.8808 4.0034-0.28163 2.9372 2.9935 5.8051 6.4014 7.3948 1.0662 0.4949 1.8468 0.8369 2.4262 0.99381-0.24141 2.6394 0.0403 6.9977 1.718 8.758 1.9031 1.9876 4.0034 4.9678 6.1459 9.6375 1.6054 3.5326 0.24141 12.704 3.6212 18.864 1.7583 3.2067 10.319 16.948 12.392 19.943 0.20117 0.28164 0.45466-2.6676-0.0403-3.4924-0.92139-1.533-8.9423-14.364-10.574-17.544-2.4423-4.7832-1.2191-14.478-3.6775-19.332-2.4423-4.8403-4.4995-7.2532-6.5012-9.368-2.0158-2.1164-2.2411-11.582 2.8688-16.962 4.7127-4.9538 12.349-5.0958 19.006-0.20119 2.4986 1.8307 4.4146 0.96566 5.1384-2.1566 0.40236-1.718 1.1507-16.678-3.7057-22.029"/>
   <path d="m182.39 266.59c-4.9678 0-7.5936 2.5831-7.182 6.3588 0.67998 6.288 10.035 10.773 10.561 10.461 0.32188-0.20117-0.72423-10.759-0.56731-13.144 0.20117-3.0659-0.51098-3.6775-2.8124-3.6775m1.0381 17.785c-5.6494-2.2411-9.3539-6.3732-9.8934-11.242-0.51098-4.7695 3.2792-8.7154 9.368-8.2044 4.2867 0.36211 4.0597 3.9189 3.9591 5.4506-0.16093 2.2693 0.16095 6.6996 0.40236 10.276 0.36211 5.2519-0.32188 5.1099-3.8304 3.7177"/>
   <path d="m37.542 210.46c-1.6054-1.9152-0.49489-2.7682 1.0944-0.85299 3.1504 3.7741 5.6635 5.0246 7.466 4.8544 1.2352-0.12074 5.1952-0.7685 10.944-7.2106 2.06-2.3014 2.9935-1.4042 0.93748 0.89322-4.4142 4.9538-8.5729 7.8636-11.71 8.1613-2.0278 0.20117-5.266-1.702-8.7294-5.8478"/>
   <path d="m68.109 286c3.4482-6.0466 4.6134-11.114 4.2018-17.274-0.40235-5.8196-4.1305-18.168-4.1732-19.701-0.02855-1.0381 3.5769-23.889 3.2631-27.125-0.43857-4.7268-12.789-12.334-15.131-12.803-0.4949-0.0804 1.2352-1.9031 1.5893-1.7744 3.9752 1.5772 15.102 9.0416 15.613 14.407 0.32188 3.4482-3.3476 26.33-3.3194 27.253 0.02855 1.3479 3.5487 13.569 4.0155 19.574 0.43857 5.791-0.59549 13.342-5.4362 19.446-0.24141 0.28164-0.88115-1.5611-0.62365-1.9997"/>
   <path d="m62.547 303.21c1.5893-0.16094 2.6113-0.96564 2.4544-2.5107-0.28165-2.9533 0-5.7629 0.9938-8.4598 2.1566-5.8051 2.3699-10.206-0.16094-16.195-1.2071-2.8406-0.20117-3.4079 1.022-0.52708 2.6676 6.3873 3.1786 11.157 0.88115 17.374-1.0944 2.9653-1.1789 4.5562-0.88115 7.6222 0.28165 3.1786-2.9814 4.8121-5.1952 4.9397-0.67998 0.0285-0.20119-2.1284 0.88115-2.2411"/>
   <path d="m37.824 238.67c-0.52707 3.4361-1.7864 8.1613-2.7239 10.489-0.16094 0.36212-1.9152-0.20118-1.718-0.69607 0.94955-2.398 2.4141-8.0482 2.7521-11.199z"/>
   <path d="m35.766 232.47c-0.46672-2.9372-1.191-6.6002-1.6738-8.105-1.6335-5.0246-0.88115-11.398 3.5608-14.364 0.24141-0.16094 1.6175 1.6174 1.4887 1.702-4.3579 2.6958-4.7268 7.6221-3.2792 12.093 0.42649 1.3358 1.022 4.1587 1.4766 6.813z"/>
   <path d="m50.311 299.8c0.24142 2.2854 6.7989 11.653 7.7787 11.412 1.2634-0.32189 3.7901-8.7576 3.5206-13.073-0.24141-3.5608-3.6212-4.6838-6.9836-4.3434-2.9935 0.28164-4.7409 2.2009-4.3152 6.0043m7.736 13.115c-2.1848-0.0145-9.1551-10.759-9.3965-12.931-0.42649-3.8022 1.3036-7.6793 5.8337-8.119 5.0105-0.51099 8.5874 2.7802 8.8002 6.16 0.41039 6.6573-3.1947 14.89-5.2374 14.89"/>
   <path d="m44.816 235.18c0.28165 2.571 6.189 11.1 7.1256 11 0.83688-0.0804 4.7409-8.5021 4.9538-12.633 0.20117-3.7056-3.6051-5.4933-7.1824-5.2092-3.0378 0.24142-5.2519 3.8344-4.897 6.8416m7.0689 12.689c-2.1285 0-8.3746-9.4247-8.7294-12.491-0.45466-3.8465 2.5549-8.4172 6.43-8.7153 5.0813-0.40236 9.1978 2.9533 8.9849 6.9695-0.16094 3.2792-3.5487 14.236-6.6855 14.236"/>
   <path d="m13.835 236.21c-2.2411 0.63974-4.5844 5.5356-3.0096 9.5812 1.0059 2.6113 8.729 7.3807 9.2118 7.1252 0.62365-0.32189 1.9313-10.589 1.4324-13.002-0.55524-2.6837-5.4221-4.3434-7.6366-3.7057m6.6428 18.722c-1.4203 0-9.8789-5.124-11.213-8.5307-1.7462-4.4709 0.48282-10.773 4.1165-11.795 3.8626-1.1065 9.0698 1.8025 9.7228 4.9678 0.6679 3.2631-0.51098 15.358-2.6273 15.358"/>
   <path d="m50.349 303.7c-2.6958-3.6212-11.653-11.639-11.653-11.639-3.1062-2.8688-7.977-7.0544-8.9563-10.83-1.0059-3.8907-5.3227-15.017-7.6507-18.282-1.2634-1.7864-10.674-11.653-13.853-15.841-2.2693-2.9814-3.7902-7.0826-0.79666-12.363 2.8527-5.0672 5.4362-8.4735 8.7717-8.7149 3.3798-0.24141 12.037 4.4709 14.663 8.0905 2.5549 3.5206 2.4262 5.039 2.4825 8.0905 0.08045 4.2018 0.92139 6.714 4.4854 9.6238 2.229 1.8186 4.485 0.0281 4.1161-2.909-0.28165-2.3698-4.3007-8.6727-5.8051-10.802-1.4766-2.1003-1.4042-6.1459 1.376-9.6661 1.9715-2.4986 5.4362-8.8143 8.8143-9.1266 5.0105-0.43856 13.825 3.4924 16.422 8.5874 1.6054 3.1504 6.0896 17.714 5.6353 21.405-0.20117 1.4605-2.5268 12.349-2.8245 14.208-0.4104 2.4262-1.4887 2.2693-1.3036-0.20117 0.12074-1.6336 2.1003-12.832 2.2854-14.251 0.32188-2.8527-3.8465-16.863-5.6068-20.298-2.2009-4.3148-10.12-8.0052-14.436-7.6077-2.7802 0.24142-5.6917 6.0892-7.5369 8.4313-2.1848 2.7682-2.2411 5.8619-1.1789 7.3667 0.90931 1.2915 5.6209 8.5307 6.0039 11.71 0.49488 4.0738-3.6775 7.3952-7.1393 4.5848-3.5487-2.8969-5.2237-6.9269-5.1666-11.029 0.04029-2.8527-0.08045-3.8626-2.3014-6.9124-2.3698-3.2631-10.334-7.594-12.86-7.452-2.6676 0.20118-5.1811 4.0312-7.2818 7.7642-2.4704 4.3716-1.0381 7.4942 0.88115 10.205 0.40235 0.55525 12.349 14.152 13.669 16.011 2.4986 3.5045 7.083 14.705 8.1191 18.736 0.8369 3.251 5.4647 7.5372 8.2325 10.092 0 0 7.466 6.9977 10.149 10.291 0.32188 0.40236 0.4104 2.9372 0.24141 2.7118"/>
   <path d="m84.503 85.63c0.0804 1.0501 0.36211 4.0155 0.96564 4.0034 0.59548 0 0.82483-1.533 0.82483-3.0539"/>
   <path d="m109.86 83.737c0.0403 0.96564 0.16094 2.8688 0.63974 2.8245 0.65181-0.08045 0.7524-2.74 0.62364-3.931"/>
   <path d="m100.48 118.1c-0.41039-0.6679-0.94955-2.1727-0.66791-2.3859 0.28165-0.20118 1.4485 1.2473 1.7583 1.9715 0.40234 0.94956-0.53916 1.3036-1.0944 0.41041"/>
   <path d="m106.03 116.52c0.12074-0.61158 0.40234-2.1566 0.79666-2.1727 0.40234-0.0281 0.63972 2.1284 0.20117 2.909-0.42649 0.78055-1.191 0.28164-1.0059-0.73631"/>
   <path d="m130.47 101.5c-6.8698-1.034-6.1174-11.568-0.72424-17.53 6.6147-7.324 12.69-9.141 22.399-8.5592 2.1164 0.12074 2.044 1.034-0.0805 1.0662-9.2971 0.12074-14.691 1.8186-20.95 8.7435-4.6697 5.167-5.6917 13.456-0.55525 15.216 1.3358 0.45466 1.4324 1.2916-0.0805 1.0662"/>
   <path d="m119.48 102.94c-0.67997-1.0783-1.6335-3.2631-2.0439-5.5074-0.16094-0.72423 1.4042-2.7239 1.4042-2.3014 0 2.6837 1.364 6.3024 2.1164 7.225 0.28165 0.32189-1.376 0.73631-1.4766 0.58342"/>
  </g>
 </g>
</svg>
