<?xml version="1.0" encoding="UTF-8"?>
<!DOCTYPE svg PUBLIC "-//W3C//DTD SVG 1.1//EN" "http://www.w3.org/Graphics/SVG/1.1/DTD/svg11.dtd">
<svg xmlns="http://www.w3.org/2000/svg" version="1.1" width="300px" height="300px" style="shape-rendering:geometricPrecision; text-rendering:geometricPrecision; image-rendering:optimizeQuality; fill-rule:evenodd; clip-rule:evenodd" xmlns:xlink="http://www.w3.org/1999/xlink">
<g><path style="opacity:0.816" fill="#0e0e0d" d="M 224.5,1.5 C 227.079,1.08332 229.246,1.74999 231,3.5C 232.6,20.8233 232.933,38.1566 232,55.5C 241.347,42.5815 253.847,34.9148 269.5,32.5C 263.855,48.7658 256.855,64.4325 248.5,79.5C 250.045,80.4519 251.712,80.7852 253.5,80.5C 251.864,98.2424 246.697,114.909 238,130.5C 232.399,139.945 224.566,146.612 214.5,150.5C 208.298,170.378 205.131,190.711 205,211.5C 205.333,213.167 205.667,214.833 206,216.5C 214.819,223.985 222.985,232.152 230.5,241C 224.759,255.574 218.259,269.74 211,283.5C 200.24,290.378 188.573,295.045 176,297.5C 164.201,296.113 152.368,295.113 140.5,294.5C 127.641,297.288 114.641,298.121 101.5,297C 98.5,295.5 95.5,294 92.5,292.5C 88.223,293.606 83.8897,293.772 79.5,293C 77,290.5 74.5,288 72,285.5C 68.1087,277.719 64.7754,269.719 62,261.5C 57.1341,255.104 53.3007,248.104 50.5,240.5C 51.4056,238.253 52.7389,236.253 54.5,234.5C 53.5721,233.232 53.4054,231.899 54,230.5C 58.5,226.667 63,222.833 67.5,219C 70.4319,216.577 72.7653,213.743 74.5,210.5C 73.915,205.902 72.915,201.402 71.5,197C 48.9671,179.934 37.3004,157.268 36.5,129C 37.7839,128.316 38.9505,128.483 40,129.5C 40.1667,128 40.3333,126.5 40.5,125C 38.5454,116.132 36.3787,107.299 34,98.5C 32.1233,90.2684 31.2899,81.9351 31.5,73.5C 35.6039,73.8839 39.2706,75.3839 42.5,78C 47.4347,82.9325 51.6014,88.4325 55,94.5C 53.7083,78.4664 55.7083,62.7998 61,47.5C 61.7822,44.9242 63.2822,42.9242 65.5,41.5C 76.9682,48.083 85.4682,57.4163 91,69.5C 93.393,74.6783 95.393,80.0116 97,85.5C 98.8411,74.6466 103.674,65.4799 111.5,58C 113.367,57.2888 114.867,57.7888 116,59.5C 118.959,75.9645 120.125,92.4645 119.5,109C 121.049,110.214 122.215,111.714 123,113.5C 124.211,109.538 126.211,108.871 129,111.5C 133.405,135.668 130.071,158.668 119,180.5C 115.682,184.301 113.515,188.635 112.5,193.5C 121.441,192.021 130.274,190.021 139,187.5C 148.267,190.273 157.434,193.273 166.5,196.5C 173.341,184.633 176.341,171.8 175.5,158C 175.333,154.167 175.167,150.333 175,146.5C 167.543,140.943 162.543,133.609 160,124.5C 154.819,106.402 154.319,88.235 158.5,70C 160.367,69.2888 161.867,69.7888 163,71.5C 163.692,70.9747 164.192,70.3081 164.5,69.5C 157.204,50.7841 158.037,32.4507 167,14.5C 168.396,12.4732 170.062,12.1398 172,13.5C 177.434,26.244 182.101,39.244 186,52.5C 190.04,28.6549 202.873,11.6549 224.5,1.5 Z"/></g>
<g><path style="opacity:1" fill="#d3e5c0" d="M 224.5,4.5 C 225.239,4.36899 225.906,4.53566 226.5,5C 219.355,15.4656 214.521,26.9656 212,39.5C 209.349,51.7255 207.349,64.0588 206,76.5C 204.534,78.3249 202.701,78.8249 200.5,78C 195.093,75.5842 190.593,72.0842 187,67.5C 188.265,39.6128 200.765,18.6128 224.5,4.5 Z"/></g>
<g><path style="opacity:1" fill="#d1e4bf" d="M 227.5,5.5 C 229.038,28.0523 228.538,50.719 226,73.5C 225.5,75.3333 224.333,76.5 222.5,77C 218.572,78.3248 214.572,78.6582 210.5,78C 209.408,52.5192 215.075,28.3525 227.5,5.5 Z"/></g>
<g><path style="opacity:1" fill="#d0e2bd" d="M 169.5,15.5 C 178.722,33.6801 183.556,53.0134 184,73.5C 177.262,77.0406 171.762,75.5406 167.5,69C 163.895,57.0973 162.729,44.9306 164,32.5C 164.739,26.449 166.573,20.7823 169.5,15.5 Z"/></g>
<g><path style="opacity:1" fill="#d1e3be" d="M 262.5,35.5 C 263.873,35.3433 265.207,35.51 266.5,36C 259.616,48.9353 253.116,62.102 247,75.5C 241.336,85.6003 235.336,85.9336 229,76.5C 228.575,72.1305 228.908,67.7972 230,63.5C 238.295,51.0249 249.129,41.6916 262.5,35.5 Z"/></g>
<g><path style="opacity:1" fill="#d3e5c0" d="M 79.5,117.5 C 77.4262,97.4844 74.0929,77.8177 69.5,58.5C 69.0056,54.1942 68.0056,50.0275 66.5,46C 72.4868,49.6431 77.6535,54.4765 82,60.5C 89.219,72.2743 94.219,84.941 97,98.5C 99.1193,110.404 94.1193,117.404 82,119.5C 80.6244,119.316 79.7911,118.649 79.5,117.5 Z"/></g>
<g><path style="opacity:1" fill="#cfe2bd" d="M 69.5,64.5 C 71.8644,81.0171 74.5311,97.3504 77.5,113.5C 77.5,115.833 77.5,118.167 77.5,120.5C 70.742,121.749 65.242,119.749 61,114.5C 58.3853,96.8591 58.0519,79.1924 60,61.5C 60.9047,56.2013 62.5714,51.2013 65,46.5C 66.531,52.6239 68.031,58.6239 69.5,64.5 Z"/></g>
<g><path style="opacity:1" fill="#cfe1bc" d="M 111.5,60.5 C 112.496,60.4142 113.329,60.7476 114,61.5C 115.043,75.0098 116.21,88.5098 117.5,102C 117.01,107.139 115.51,111.972 113,116.5C 110,120.5 107,120.5 104,116.5C 97.3498,96.6485 99.8498,77.9818 111.5,60.5 Z"/></g>
<g><path style="opacity:1" fill="#706242" d="M 227.5,138.5 C 226.508,138.672 225.842,138.338 225.5,137.5C 228.125,133.179 228.958,128.513 228,123.5C 225.79,120.71 222.956,119.877 219.5,121C 214.629,124.248 211.963,128.748 211.5,134.5C 209.273,133.599 208.273,131.933 208.5,129.5C 211.952,121.095 218.285,116.595 227.5,116C 226.552,115.517 225.552,115.351 224.5,115.5C 224.708,113.08 224.374,110.747 223.5,108.5C 225.576,106.712 227.743,105.046 230,103.5C 230.667,102.833 230.667,102.167 230,101.5C 224.711,106.536 218.544,108.869 211.5,108.5C 212.735,104.961 214.068,101.461 215.5,98C 215.167,97.5 214.833,97 214.5,96.5C 212.778,100.944 210.778,105.278 208.5,109.5C 205.572,110.484 202.572,110.817 199.5,110.5C 199.888,105.372 199.388,100.372 198,95.5C 197.501,99.8206 197.334,104.154 197.5,108.5C 194.484,108.159 191.818,106.993 189.5,105C 185.299,100.616 181.299,96.7823 177.5,93.5C 179.252,96.672 181.252,99.672 183.5,102.5C 182.167,104.5 180.833,106.5 179.5,108.5C 178.549,107.674 177.549,107.508 176.5,108C 185.515,112.838 190.182,120.338 190.5,130.5C 189.5,130.5 188.5,130.5 187.5,130.5C 187.795,128.265 187.461,126.265 186.5,124.5C 185.177,117.654 181.177,114.487 174.5,115C 173,115.833 171.833,117 171,118.5C 170.19,122.69 170.69,126.69 172.5,130.5C 172.44,131.043 172.107,131.376 171.5,131.5C 169.677,130.253 167.677,129.586 165.5,129.5C 159.801,111.971 157.968,93.9706 160,75.5C 160.14,78.0432 160.806,80.3766 162,82.5C 164.36,79.6397 166.527,76.6397 168.5,73.5C 169.871,77.4774 171.704,81.1441 174,84.5C 177.679,81.3232 181.512,78.3232 185.5,75.5C 188.664,79.8259 191.831,84.1593 195,88.5C 199.011,84.9905 203.178,81.6572 207.5,78.5C 210.486,82.817 213.82,86.817 217.5,90.5C 222.008,87.7467 226.341,84.7467 230.5,81.5C 232.597,85.3723 234.931,89.039 237.5,92.5C 241.578,89.3775 245.745,86.3775 250,83.5C 247.279,103.84 239.779,122.174 227.5,138.5 Z"/></g>
<g><path style="opacity:1" fill="#d1e3be" d="M 33.5,77.5 C 34.7211,76.5354 36.0544,76.702 37.5,78C 46.6063,85.7114 53.1063,95.2114 57,106.5C 58.2778,115.329 55.9445,122.995 50,129.5C 48.395,128.899 47.0616,127.899 46,126.5C 40.6656,110.354 36.4989,94.0211 33.5,77.5 Z"/></g>
<g><path style="opacity:1" fill="#cf8545" d="M 172.5,76.5 C 179.179,76.6041 179.846,78.2707 174.5,81.5C 173.438,79.9783 172.771,78.3117 172.5,76.5 Z"/></g>
<g><path style="opacity:1" fill="#de8c48" d="M 186.5,71.5 C 190.552,75.3756 195.219,78.5423 200.5,81C 198.983,82.6851 197.316,84.1851 195.5,85.5C 191.98,81.1164 188.98,76.4497 186.5,71.5 Z"/></g>
<g><path style="opacity:1" fill="#e38f4a" d="M 225.5,77.5 C 227.686,77.5106 228.519,78.5106 228,80.5C 224.758,83.2055 221.258,85.5388 217.5,87.5C 215.712,85.4235 214.046,83.2568 212.5,81C 216.558,80.6596 220.558,79.9929 224.5,79C 225.056,78.6174 225.389,78.1174 225.5,77.5 Z"/></g>
<g><path style="opacity:1" fill="#da8b48" d="M 241.5,84.5 C 242.239,84.369 242.906,84.5357 243.5,85C 241.983,86.6851 240.316,88.1851 238.5,89.5C 237.155,88.6533 236.155,87.4866 235.5,86C 237.708,85.8091 239.708,85.3091 241.5,84.5 Z"/></g>
<g><path style="opacity:1" fill="#22241f" d="M 69.5,58.5 C 74.0929,77.8177 77.4262,97.4844 79.5,117.5C 78.6862,115.369 78.1862,113.036 78,110.5C 77.5172,111.448 77.3505,112.448 77.5,113.5C 74.5311,97.3504 71.8644,81.0171 69.5,64.5C 69.5,62.5 69.5,60.5 69.5,58.5 Z"/></g>
<g><path style="opacity:1" fill="#1b150e" d="M 186.5,124.5 C 186.664,127.187 186.497,129.854 186,132.5C 183.215,137.194 179.715,137.694 175.5,134C 174.837,132.482 173.837,131.315 172.5,130.5C 170.69,126.69 170.19,122.69 171,118.5C 171.833,117 173,115.833 174.5,115C 181.177,114.487 185.177,117.654 186.5,124.5 Z"/></g>
<g><path style="opacity:1" fill="#e8924b" d="M 102.5,118.5 C 101.448,118.351 100.448,118.517 99.5,119C 95.9336,122.566 92.4336,126.066 89,129.5C 85.7635,127.463 82.5968,125.296 79.5,123C 87.0147,121.577 93.348,118.077 98.5,112.5C 99.8435,114.529 101.177,116.529 102.5,118.5 Z"/></g>
<g><path style="opacity:1" fill="#ec954d" d="M 175.5,115.5 C 179.562,115.724 182.395,117.724 184,121.5C 185.368,124.738 185.701,128.072 185,131.5C 183.519,134.08 181.352,134.913 178.5,134C 172.113,128.444 171.113,122.277 175.5,115.5 Z"/></g>
<g><path style="opacity:1" fill="#15120e" d="M 208.5,129.5 C 207.834,132.028 207.168,134.694 206.5,137.5C 205.792,134.634 205.125,131.8 204.5,129C 201.167,128.333 197.833,128.333 194.5,129C 193.036,130.864 192.036,133.031 191.5,135.5C 190.548,133.955 190.215,132.288 190.5,130.5C 190.182,120.338 185.515,112.838 176.5,108C 177.549,107.508 178.549,107.674 179.5,108.5C 180.833,106.5 182.167,104.5 183.5,102.5C 181.252,99.672 179.252,96.672 177.5,93.5C 181.299,96.7823 185.299,100.616 189.5,105C 191.818,106.993 194.484,108.159 197.5,108.5C 197.334,104.154 197.501,99.8206 198,95.5C 199.388,100.372 199.888,105.372 199.5,110.5C 202.572,110.817 205.572,110.484 208.5,109.5C 210.778,105.278 212.778,100.944 214.5,96.5C 214.833,97 215.167,97.5 215.5,98C 214.068,101.461 212.735,104.961 211.5,108.5C 218.544,108.869 224.711,106.536 230,101.5C 230.667,102.167 230.667,102.833 230,103.5C 227.743,105.046 225.576,106.712 223.5,108.5C 224.374,110.747 224.708,113.08 224.5,115.5C 225.552,115.351 226.552,115.517 227.5,116C 218.285,116.595 211.952,121.095 208.5,129.5 Z"/></g>
<g><path style="opacity:1" fill="#e8924b" d="M 199.5,112.5 C 201.604,112.201 203.604,112.534 205.5,113.5C 203.983,117.094 204.816,120.094 208,122.5C 208.712,124.695 208.045,126.362 206,127.5C 201.503,126.277 197.003,126.277 192.5,127.5C 192.682,125.409 192.348,123.409 191.5,121.5C 196.302,120.367 198.968,117.367 199.5,112.5 Z"/></g>
<g><path style="opacity:1" fill="#dedfdf" d="M 219.5,109.5 C 223.35,109.701 224.35,111.534 222.5,115C 217.866,116.309 213.699,118.476 210,121.5C 208.941,121.37 208.108,120.87 207.5,120C 212.787,117.988 212.787,115.821 207.5,113.5C 211.797,112.734 215.797,111.401 219.5,109.5 Z"/></g>
<g><path style="opacity:1" fill="#dedede" d="M 184.5,104.5 C 188.445,106.81 192.445,109.143 196.5,111.5C 197.903,115.689 196.403,118.355 192,119.5C 190.338,118.003 188.838,116.337 187.5,114.5C 188.309,112.929 188.643,111.262 188.5,109.5C 186.61,109.297 185.11,109.963 184,111.5C 182.03,109.037 182.196,106.703 184.5,104.5 Z"/></g>
<g><path style="opacity:1" fill="#ee964d" d="M 59.5,117.5 C 64.0111,121.586 69.3444,123.752 75.5,124C 73.5,126.667 71.5,129.333 69.5,132C 65.2458,130.462 61.4125,127.962 58,124.5C 57.7607,122.041 58.2607,119.707 59.5,117.5 Z"/></g>
<g><path style="opacity:1" fill="#633d1f" d="M 102.5,118.5 C 104.882,120.046 107.549,120.713 110.5,120.5C 109.5,121.167 108.5,121.833 107.5,122.5C 105.246,121.876 103.579,120.543 102.5,118.5 Z"/></g>
<g><path style="opacity:1" fill="#706242" d="M 119.5,170.5 C 118.193,171.153 116.86,171.82 115.5,172.5C 114.893,172.376 114.56,172.043 114.5,171.5C 115.315,161.424 111.315,158.59 102.5,163C 100.779,164.944 99.446,167.11 98.5,169.5C 97.71,170.609 97.21,171.942 97,173.5C 96.5045,171.527 96.3379,169.527 96.5,167.5C 97.4348,165.139 98.7682,162.972 100.5,161C 103.682,158.909 107.015,157.075 110.5,155.5C 109.349,154.269 108.183,154.269 107,155.5C 106.788,152.748 105.955,150.248 104.5,148C 106.652,145.867 107.819,143.367 108,140.5C 103.484,146.504 97.6508,150.837 90.5,153.5C 89.6717,148.868 89.1717,144.202 89,139.5C 88.5892,144.519 88.0892,149.519 87.5,154.5C 84.8589,155.263 82.1922,155.43 79.5,155C 77.6626,150.816 75.8293,146.65 74,142.5C 74.4001,146.382 75.2334,150.215 76.5,154C 69.4316,153.888 63.2649,151.388 58,146.5C 57.3333,147.167 57.3333,147.833 58,148.5C 60.5,150.333 63,152.167 65.5,154C 64.8875,156.147 64.2208,158.314 63.5,160.5C 62.2322,159.572 60.8989,159.405 59.5,160C 67.6221,161.71 73.9554,165.877 78.5,172.5C 78.7148,174.179 78.0481,175.179 76.5,175.5C 74.1417,167.589 69.1417,164.756 61.5,167C 59.2427,170.643 58.9093,174.476 60.5,178.5C 59.2921,177.766 57.9587,177.433 56.5,177.5C 46.7769,163.994 41.4435,148.994 40.5,132.5C 43.319,135.075 46.319,137.408 49.5,139.5C 51.7342,135.372 54.2342,131.372 57,127.5C 61,130.167 65,132.833 69,135.5C 72.2131,132.114 75.2131,128.448 78,124.5C 81.7427,127.621 85.576,130.621 89.5,133.5C 93.5,129.167 97.5,124.833 101.5,120.5C 104.833,123.167 108.167,125.833 111.5,128.5C 114.163,124.993 116.663,121.327 119,117.5C 120.67,120.505 122.836,122.671 125.5,124C 124.624,122.414 123.624,120.914 122.5,119.5C 124.691,118.119 126.024,116.119 126.5,113.5C 128.294,128.659 127.46,143.659 124,158.5C 123.095,162.837 121.595,166.837 119.5,170.5 Z"/></g>
<g><path style="opacity:1" fill="#e4914b" d="M 107.5,122.5 C 108.5,121.833 109.5,121.167 110.5,120.5C 113.305,119.259 115.471,117.259 117,114.5C 115.845,118.466 113.845,122.132 111,125.5C 109.855,124.364 108.688,123.364 107.5,122.5 Z"/></g>
<g><path style="opacity:1" fill="#15100a" d="M 225.5,137.5 C 222.59,140.951 218.923,142.118 214.5,141C 212.829,139.157 211.829,136.991 211.5,134.5C 211.963,128.748 214.629,124.248 219.5,121C 222.956,119.877 225.79,120.71 228,123.5C 228.958,128.513 228.125,133.179 225.5,137.5 Z"/></g>
<g><path style="opacity:1" fill="#e9934c" d="M 221.5,121.5 C 226.037,122.226 227.87,124.893 227,129.5C 225.886,136.293 222.052,139.793 215.5,140C 212.119,132.229 214.119,126.063 221.5,121.5 Z"/></g>
<g><path style="opacity:1" fill="#584d33" d="M 186.5,124.5 C 187.461,126.265 187.795,128.265 187.5,130.5C 188.5,130.5 189.5,130.5 190.5,130.5C 190.215,132.288 190.548,133.955 191.5,135.5C 192.036,133.031 193.036,130.864 194.5,129C 197.833,128.333 201.167,128.333 204.5,129C 205.125,131.8 205.792,134.634 206.5,137.5C 207.168,134.694 207.834,132.028 208.5,129.5C 208.273,131.933 209.273,133.599 211.5,134.5C 211.829,136.991 212.829,139.157 214.5,141C 218.923,142.118 222.59,140.951 225.5,137.5C 225.842,138.338 226.508,138.672 227.5,138.5C 223.644,144.205 218.311,147.038 211.5,147C 209.983,145.315 208.316,143.815 206.5,142.5C 202.773,146.565 198.44,147.399 193.5,145C 192.275,143.437 190.775,142.27 189,141.5C 181.411,145.354 175.078,144.02 170,137.5C 168.235,134.968 166.735,132.301 165.5,129.5C 167.677,129.586 169.677,130.253 171.5,131.5C 172.107,131.376 172.44,131.043 172.5,130.5C 173.837,131.315 174.837,132.482 175.5,134C 179.715,137.694 183.215,137.194 186,132.5C 186.497,129.854 186.664,127.187 186.5,124.5 Z"/></g>
<g><path style="opacity:1" fill="#e4914b" d="M 43.5,127.5 C 45.6408,129.968 48.3075,131.634 51.5,132.5C 49.5353,136.215 47.202,136.382 44.5,133C 43.5939,131.301 43.2606,129.467 43.5,127.5 Z"/></g>
<g><path style="opacity:1" fill="#181511" d="M 96.5,167.5 C 95.8337,171.021 95.1671,174.687 94.5,178.5C 93.6922,176.577 93.1922,174.577 93,172.5C 89.2145,171.134 85.5478,171.468 82,173.5C 81.8142,175.9 81.3142,178.234 80.5,180.5C 79.8324,177.694 79.1657,175.028 78.5,172.5C 73.9554,165.877 67.6221,161.71 59.5,160C 60.8989,159.405 62.2322,159.572 63.5,160.5C 64.2208,158.314 64.8875,156.147 65.5,154C 63,152.167 60.5,150.333 58,148.5C 57.3333,147.833 57.3333,147.167 58,146.5C 63.2649,151.388 69.4316,153.888 76.5,154C 75.2334,150.215 74.4001,146.382 74,142.5C 75.8293,146.65 77.6626,150.816 79.5,155C 82.1922,155.43 84.8589,155.263 87.5,154.5C 88.0892,149.519 88.5892,144.519 89,139.5C 89.1717,144.202 89.6717,148.868 90.5,153.5C 97.6508,150.837 103.484,146.504 108,140.5C 107.819,143.367 106.652,145.867 104.5,148C 105.955,150.248 106.788,152.748 107,155.5C 108.183,154.269 109.349,154.269 110.5,155.5C 107.015,157.075 103.682,158.909 100.5,161C 98.7682,162.972 97.4348,165.139 96.5,167.5 Z"/></g>
<g><path style="opacity:1" fill="#cb8042" d="M 207.5,162.5 C 207.5,161.5 207.5,160.5 207.5,159.5C 203.531,158.34 199.531,157.173 195.5,156C 190.833,155.333 186.167,155.333 181.5,156C 180.342,157.009 179.675,158.342 179.5,160C 179.514,161.385 179.848,162.551 180.5,163.5C 180.44,164.043 180.107,164.376 179.5,164.5C 178.504,158.202 178.17,151.868 178.5,145.5C 182.007,145.693 185.34,145.027 188.5,143.5C 191.039,146.548 194.206,148.548 198,149.5C 201.348,148.391 204.515,147.224 207.5,146C 209.167,147.167 210.833,148.333 212.5,149.5C 210.606,153.865 208.939,158.199 207.5,162.5 Z"/></g>
<g><path style="opacity:1" fill="#e4e4e4" d="M 66.5,154.5 C 69.3084,155.929 72.3084,156.595 75.5,156.5C 75.178,158.722 75.8446,160.556 77.5,162C 78.9961,162.507 80.1627,162.007 81,160.5C 81.4172,163.284 80.2505,165.284 77.5,166.5C 73.8714,164.102 70.0381,162.102 66,160.5C 65.3224,158.402 65.4891,156.402 66.5,154.5 Z"/></g>
<g><path style="opacity:1" fill="#e3e3e3" d="M 96.5,152.5 C 98.9285,154.704 101.595,155.704 104.5,155.5C 101.178,157.323 98.5109,159.823 96.5,163C 92.0594,162.721 89.726,160.221 89.5,155.5C 92.2406,155.293 94.5739,154.293 96.5,152.5 Z"/></g>
<g><path style="opacity:1" fill="#ee964d" d="M 207.5,162.5 C 207.087,164.89 206.421,167.223 205.5,169.5C 197.891,164.71 189.558,162.71 180.5,163.5C 179.848,162.551 179.514,161.385 179.5,160C 179.675,158.342 180.342,157.009 181.5,156C 186.167,155.333 190.833,155.333 195.5,156C 199.531,157.173 203.531,158.34 207.5,159.5C 207.5,160.5 207.5,161.5 207.5,162.5 Z"/></g>
<g><path style="opacity:1" fill="#ea944c" d="M 83.5,157.5 C 84.9778,157.238 86.3112,157.571 87.5,158.5C 88.7805,161.447 90.7805,163.781 93.5,165.5C 94.4519,167.045 94.7852,168.712 94.5,170.5C 89.9999,168.858 85.6665,169.191 81.5,171.5C 80.5224,171.023 79.6891,170.357 79,169.5C 80.4923,167.548 81.8257,165.215 83,162.5C 83.4935,160.866 83.6602,159.199 83.5,157.5 Z"/></g>
<g><path style="opacity:1" fill="#f8f8f8" d="M 178.5,165.5 C 188.607,164.283 197.607,166.783 205.5,173C 203.448,180.686 201.948,188.519 201,196.5C 192.981,191.216 184.148,188.216 174.5,187.5C 176.792,180.334 178.125,173 178.5,165.5 Z"/></g>
<g><path style="opacity:1" fill="#17110a" d="M 114.5,171.5 C 112.532,175.632 109.365,178.632 105,180.5C 99.3035,178.961 97.1369,175.295 98.5,169.5C 99.446,167.11 100.779,164.944 102.5,163C 111.315,158.59 115.315,161.424 114.5,171.5 Z"/></g>
<g><path style="opacity:1" fill="#e5904a" d="M 105.5,162.5 C 113.822,163.047 115.655,167.047 111,174.5C 106.076,180.299 102.242,179.799 99.5,173C 100.034,168.639 102.034,165.139 105.5,162.5 Z"/></g>
<g><path style="opacity:1" fill="#594e33" d="M 96.5,167.5 C 96.3379,169.527 96.5045,171.527 97,173.5C 97.21,171.942 97.71,170.609 98.5,169.5C 97.1369,175.295 99.3035,178.961 105,180.5C 109.365,178.632 112.532,175.632 114.5,171.5C 114.56,172.043 114.893,172.376 115.5,172.5C 116.86,171.82 118.193,171.153 119.5,170.5C 117.741,175.941 115.074,180.941 111.5,185.5C 106.219,186.912 101.386,185.912 97,182.5C 93.03,187.745 88.1967,188.745 82.5,185.5C 79.7604,188.248 76.7604,190.582 73.5,192.5C 66.2802,189.281 60.6135,184.281 56.5,177.5C 57.9587,177.433 59.2921,177.766 60.5,178.5C 63.3668,183.596 67.7001,185.429 73.5,184C 75.5848,181.581 76.5848,178.747 76.5,175.5C 78.0481,175.179 78.7148,174.179 78.5,172.5C 79.1657,175.028 79.8324,177.694 80.5,180.5C 81.3142,178.234 81.8142,175.9 82,173.5C 85.5478,171.468 89.2145,171.134 93,172.5C 93.1922,174.577 93.6922,176.577 94.5,178.5C 95.1671,174.687 95.8337,171.021 96.5,167.5 Z"/></g>
<g><path style="opacity:1" fill="#1b150e" d="M 76.5,175.5 C 76.5848,178.747 75.5848,181.581 73.5,184C 67.7001,185.429 63.3668,183.596 60.5,178.5C 58.9093,174.476 59.2427,170.643 61.5,167C 69.1417,164.756 74.1417,167.589 76.5,175.5 Z"/></g>
<g><path style="opacity:1" fill="#e8924c" d="M 62.5,167.5 C 67.814,166.74 71.6473,168.74 74,173.5C 74.7772,176.429 74.6105,179.263 73.5,182C 69.1491,183.929 65.6491,182.762 63,178.5C 61.253,174.875 61.0863,171.208 62.5,167.5 Z"/></g>
<g><path style="opacity:1" fill="#cf8244" d="M 96.5,185.5 C 100.537,187.506 104.87,188.506 109.5,188.5C 110.288,193.304 108.288,196.137 103.5,197C 94.394,199.908 85.0607,201.074 75.5,200.5C 75.4809,198.94 75.1476,197.44 74.5,196C 76.8116,193.688 79.1449,191.355 81.5,189C 85.1206,189.405 88.7872,189.405 92.5,189C 94.3237,188.34 95.657,187.173 96.5,185.5 Z"/></g>
<g><path style="opacity:1" fill="#f0974e" d="M 173.5,190.5 C 183.674,190.663 192.84,193.663 201,199.5C 201.414,208.88 202.247,218.213 203.5,227.5C 187.325,225.744 174.991,217.911 166.5,204C 169.492,199.85 171.825,195.35 173.5,190.5 Z"/></g>
<g><path style="opacity:1" fill="#c2d3e3" d="M 120.5,222.5 C 119.5,222.833 118.833,223.5 118.5,224.5C 109.814,231.017 100.98,237.35 92,243.5C 90.5,243.333 89.6667,242.5 89.5,241C 90.6922,238.945 90.6922,236.945 89.5,235C 85.1667,234.333 80.8333,234.333 76.5,235C 69.4529,238.006 62.1196,239.339 54.5,239C 57.3991,236.723 60.0658,234.223 62.5,231.5C 61.2713,230.719 59.938,230.219 58.5,230C 63.3732,225.622 68.3732,221.455 73.5,217.5C 74.1667,219.833 74.8333,222.167 75.5,224.5C 75.6107,225.117 75.944,225.617 76.5,226C 90.9811,223.504 103.148,216.671 113,205.5C 112.562,202.801 112.728,200.135 113.5,197.5C 121.66,194.735 129.993,192.735 138.5,191.5C 139.492,199.475 140.492,199.475 141.5,191.5C 149.689,194.117 157.689,197.117 165.5,200.5C 163.081,203.499 163.247,206.499 166,209.5C 175.864,223.432 189.197,230.099 206,229.5C 206.051,226.723 206.218,224.057 206.5,221.5C 212.986,227.485 219.319,233.652 225.5,240C 224.167,240.667 222.833,241.333 221.5,242C 213.167,242.667 204.833,242.667 196.5,242C 195.167,241.333 193.833,240.667 192.5,240C 188.106,239.697 183.773,239.03 179.5,238C 178.023,234.045 176.023,230.378 173.5,227C 163.245,220.419 153.245,213.419 143.5,206C 142.134,204.4 141.134,202.567 140.5,200.5C 139.692,202.423 139.192,204.423 139,206.5C 132.668,211.733 126.502,217.066 120.5,222.5 Z"/></g>
<g><path style="opacity:1" fill="#dbdcdc" d="M 107.5,196.5 C 112.103,201.563 111.103,205.063 104.5,207C 95.7548,210.027 86.7548,211.193 77.5,210.5C 77.7076,208.08 77.3742,205.747 76.5,203.5C 86.031,203.155 95.3643,201.655 104.5,199C 105.942,198.623 106.942,197.79 107.5,196.5 Z"/></g>
<g><path style="opacity:1" fill="#15181b" d="M 150.5,197.5 C 153.99,197.245 156.657,198.578 158.5,201.5C 155.087,202.823 151.753,202.656 148.5,201C 146.845,199.556 146.178,197.722 146.5,195.5C 148.38,195.229 149.713,195.896 150.5,197.5 Z"/></g>
<g><path style="opacity:1" fill="#4d83ab" d="M 150.5,197.5 C 152.273,198.892 154.273,200.059 156.5,201C 153.07,201.459 150.07,200.459 147.5,198C 148.448,197.517 149.448,197.351 150.5,197.5 Z"/></g>
<g><path style="opacity:1" fill="#a4b3c1" d="M 118.5,224.5 C 118.833,223.5 119.5,222.833 120.5,222.5C 120.435,222.938 120.601,223.272 121,223.5C 127.69,217.976 134.523,212.642 141.5,207.5C 151.56,214.891 161.893,221.891 172.5,228.5C 174.979,231.911 175.979,235.578 175.5,239.5C 171.109,240.262 166.776,239.762 162.5,238C 161.833,237 161.167,236 160.5,235C 156.464,234.15 152.631,234.65 149,236.5C 148.893,239.131 148.727,241.631 148.5,244C 141.088,250.032 133.921,249.866 127,243.5C 126.73,240.776 126.23,238.109 125.5,235.5C 120.198,234.671 114.864,234.171 109.5,234C 112.833,231 116.167,228 119.5,225C 119.272,224.601 118.938,224.435 118.5,224.5 Z"/></g>
<g><path style="opacity:1" fill="#ec954d" d="M 77.5,219.5 C 78.4614,217.735 78.7947,215.735 78.5,213.5C 82.7016,213.817 86.7016,213.483 90.5,212.5C 94.9655,212.124 99.2989,211.124 103.5,209.5C 104.293,210.355 103.96,211.189 102.5,212C 94.897,217.469 86.5636,221.302 77.5,223.5C 77.5,222.167 77.5,220.833 77.5,219.5 Z"/></g>
<g><path style="opacity:1" fill="#6d4423" d="M 90.5,212.5 C 86.7016,213.483 82.7016,213.817 78.5,213.5C 78.7947,215.735 78.4614,217.735 77.5,219.5C 77.5,217.167 77.5,214.833 77.5,212.5C 81.8333,212.5 86.1667,212.5 90.5,212.5 Z"/></g>
<g><path style="opacity:1" fill="#535a61" d="M 73.5,217.5 C 73.56,216.957 73.8933,216.624 74.5,216.5C 75.48,219.086 75.8134,221.753 75.5,224.5C 74.8333,222.167 74.1667,219.833 73.5,217.5 Z"/></g>
<g><path style="opacity:1" fill="#1a1e22" d="M 97.5,220.5 C 108.438,219.966 109.105,222.799 99.5,229C 96.8333,229.667 94.1667,229.667 91.5,229C 90.5494,228.282 90.3828,227.449 91,226.5C 93.0627,224.266 95.2294,222.266 97.5,220.5 Z"/></g>
<g><path style="opacity:1" fill="#538db8" d="M 102.5,221.5 C 103.376,221.369 104.043,221.702 104.5,222.5C 101.808,227.517 97.8082,229.184 92.5,227.5C 94.994,223.926 98.3273,221.926 102.5,221.5 Z"/></g>
<g><path style="opacity:1" fill="#5693c0" d="M 119.5,237.5 C 120.816,248.141 121.983,258.808 123,269.5C 124.864,272.592 126.031,275.926 126.5,279.5C 125.752,284.241 124.752,288.907 123.5,293.5C 116.401,294.81 109.401,294.81 102.5,293.5C 101.143,286.738 99.4761,280.071 97.5,273.5C 96.9604,270.135 96.2937,266.802 95.5,263.5C 93.6079,261.186 92.2746,258.519 91.5,255.5C 90.8333,252.167 90.1667,248.833 89.5,245.5C 95.6505,244.927 100.984,242.427 105.5,238C 110.155,237.501 114.821,237.334 119.5,237.5 Z"/></g>
<g><path style="opacity:1" fill="#44779d" d="M 119.5,237.5 C 120.833,237.5 122.167,237.5 123.5,237.5C 124.166,245.332 125.666,252.998 128,260.5C 128.399,260.272 128.565,259.938 128.5,259.5C 129.774,260.189 129.774,261.023 128.5,262C 129.416,262.278 130.082,262.778 130.5,263.5C 129.624,263.369 128.957,263.702 128.5,264.5C 130.391,270.258 132.724,275.591 135.5,280.5C 135.5,283.833 135.5,287.167 135.5,290.5C 139.702,290.183 143.702,290.517 147.5,291.5C 139.418,291.315 131.418,291.982 123.5,293.5C 124.752,288.907 125.752,284.241 126.5,279.5C 126.031,275.926 124.864,272.592 123,269.5C 121.983,258.808 120.816,248.141 119.5,237.5 Z"/></g>
<g><path style="opacity:1" fill="#5693bf" d="M 77.5,238.5 C 78.8221,238.33 79.9887,238.663 81,239.5C 85.6337,250.066 88.6337,261.066 90,272.5C 93.5567,277.273 95.0567,282.606 94.5,288.5C 92.5853,288.216 90.9187,288.549 89.5,289.5C 84.2667,291.711 80.2667,290.378 77.5,285.5C 78.1667,284.833 78.8333,284.167 79.5,283.5C 78.0136,279.304 76.8469,274.971 76,270.5C 71.6126,265.623 66.9459,260.956 62,256.5C 59.8333,252.167 57.6667,247.833 55.5,243.5C 62.9096,242.085 70.2429,240.419 77.5,238.5 Z"/></g>
<g><path style="opacity:1" fill="#5693c0" d="M 187.5,242.5 C 188.725,243.152 189.392,244.319 189.5,246C 187.695,252.115 187.362,258.282 188.5,264.5C 187.164,273.193 185.831,281.86 184.5,290.5C 181.599,292.6 178.265,293.6 174.5,293.5C 167.517,292.585 160.517,291.919 153.5,291.5C 151.89,281.575 151.223,271.575 151.5,261.5C 152.4,253.6 152.733,245.767 152.5,238C 153.667,237.833 154.833,237.667 156,237.5C 161.388,240.427 167.221,242.427 173.5,243.5C 175.687,242.242 178.02,241.242 180.5,240.5C 182.762,241.467 185.095,242.134 187.5,242.5 Z"/></g>
<g><path style="opacity:1" fill="#44789e" d="M 187.5,242.5 C 191.196,241.649 194.529,242.649 197.5,245.5C 196.935,256.827 194.768,267.827 191,278.5C 190.502,281.817 190.335,285.15 190.5,288.5C 189.01,290.28 187.01,290.946 184.5,290.5C 185.831,281.86 187.164,273.193 188.5,264.5C 187.362,258.282 187.695,252.115 189.5,246C 189.392,244.319 188.725,243.152 187.5,242.5 Z"/></g>
<g><path style="opacity:1" fill="#5490bc" d="M 190.5,288.5 C 190.335,285.15 190.502,281.817 191,278.5C 194.768,267.827 196.935,256.827 197.5,245.5C 204.391,245.182 211.225,245.182 218,245.5C 220.261,245.135 222.427,244.469 224.5,243.5C 224.833,243.833 225.167,244.167 225.5,244.5C 219.667,256.833 213.833,269.167 208,281.5C 202.687,285.071 196.854,287.404 190.5,288.5 Z"/></g>
<g><path style="opacity:1" fill="#5693bf" d="M 148.5,270.5 C 148.963,277.614 149.963,284.614 151.5,291.5C 150.167,291.5 148.833,291.5 147.5,291.5C 143.702,290.517 139.702,290.183 135.5,290.5C 135.5,287.167 135.5,283.833 135.5,280.5C 135.196,277.478 134.696,274.478 134,271.5C 132.007,269.182 130.841,266.516 130.5,263.5C 130.082,262.778 129.416,262.278 128.5,262C 129.774,261.023 129.774,260.189 128.5,259.5C 127.669,255.524 127.503,251.524 128,247.5C 135.272,251.493 142.439,251.159 149.5,246.5C 150.647,253.8 149.98,260.966 147.5,268C 147.528,269.07 147.861,269.903 148.5,270.5 Z"/></g>
<g><path style="opacity:1" fill="#44779c" d="M 91.5,255.5 C 92.2746,258.519 93.6079,261.186 95.5,263.5C 94.6236,263.369 93.9569,263.702 93.5,264.5C 94.4685,267.769 95.8019,270.769 97.5,273.5C 99.4761,280.071 101.143,286.738 102.5,293.5C 100.22,292.36 97.8864,291.193 95.5,290C 93.5273,289.505 91.5273,289.338 89.5,289.5C 90.9187,288.549 92.5853,288.216 94.5,288.5C 95.0567,282.606 93.5567,277.273 90,272.5C 88.6337,261.066 85.6337,250.066 81,239.5C 79.9887,238.663 78.8221,238.33 77.5,238.5C 80.9654,236.761 84.6321,236.427 88.5,237.5C 87.4079,239.183 86.7413,241.016 86.5,243C 87.4991,246.664 88.4991,250.331 89.5,254C 89.8361,255.03 90.5028,255.53 91.5,255.5 Z"/></g>
<g><path style="opacity:1" fill="#121a20" d="M 130.5,263.5 C 130.841,266.516 132.007,269.182 134,271.5C 134.696,274.478 135.196,277.478 135.5,280.5C 132.724,275.591 130.391,270.258 128.5,264.5C 128.957,263.702 129.624,263.369 130.5,263.5 Z"/></g>
<g><path style="opacity:1" fill="#0d1318" d="M 95.5,263.5 C 96.2937,266.802 96.9604,270.135 97.5,273.5C 95.8019,270.769 94.4685,267.769 93.5,264.5C 93.9569,263.702 94.6236,263.369 95.5,263.5 Z"/></g>
<g><path style="opacity:1" fill="#43779c" d="M 151.5,261.5 C 151.223,271.575 151.89,281.575 153.5,291.5C 152.833,291.5 152.167,291.5 151.5,291.5C 149.963,284.614 148.963,277.614 148.5,270.5C 149.054,267.254 150.054,264.254 151.5,261.5 Z"/></g>
<g><path style="opacity:1" fill="#407195" d="M 79.5,283.5 C 78.8333,284.167 78.1667,284.833 77.5,285.5C 75.1397,283.287 73.3063,280.621 72,277.5C 70.0331,273.599 68.6997,269.599 68,265.5C 73.3635,269.893 76.3635,275.559 77,282.5C 77.6708,283.252 78.5041,283.586 79.5,283.5 Z"/></g>
</svg>
