<?xml version="1.0" encoding="UTF-8"?>
<!DOCTYPE svg PUBLIC "-//W3C//DTD SVG 1.1//EN" "http://www.w3.org/Graphics/SVG/1.1/DTD/svg11.dtd">
<svg xmlns="http://www.w3.org/2000/svg" version="1.1" width="300px" height="300px" style="shape-rendering:geometricPrecision; text-rendering:geometricPrecision; image-rendering:optimizeQuality; fill-rule:evenodd; clip-rule:evenodd" xmlns:xlink="http://www.w3.org/1999/xlink">
<g><path style="opacity:0.83" fill="#0d0b06" d="M 123.5,12.5 C 134.137,11.1404 144.137,12.9737 153.5,18C 166.778,25.6014 178.611,35.1014 189,46.5C 191.588,50.674 193.921,55.0074 196,59.5C 201.956,63.1219 206.956,67.7886 211,73.5C 233.364,106.231 249.197,141.898 258.5,180.5C 275.022,180.593 288.022,187.259 297.5,200.5C 297.288,202.888 295.955,203.888 293.5,203.5C 275.061,197.419 259.228,201.419 246,215.5C 241.77,222.12 236.937,228.287 231.5,234C 236.534,237.231 238.368,241.731 237,247.5C 234.347,255.641 230.513,263.141 225.5,270C 229.898,271.524 233.565,274.024 236.5,277.5C 234.547,278.761 232.547,279.927 230.5,281C 232.155,282.444 232.822,284.278 232.5,286.5C 227.354,286.819 222.354,286.153 217.5,284.5C 216.571,285.689 216.238,287.022 216.5,288.5C 208.864,287.699 204.197,283.532 202.5,276C 204.351,271.324 204.851,266.491 204,261.5C 201.478,260.369 198.811,259.703 196,259.5C 182.502,262.151 169.002,262.151 155.5,259.5C 149.439,260.348 143.439,261.515 137.5,263C 137.363,267.659 135.696,271.659 132.5,275C 125.514,276.996 118.514,278.83 111.5,280.5C 111.5,279.167 111.5,277.833 111.5,276.5C 108.395,276.401 105.728,275.401 103.5,273.5C 104.09,272.201 105.09,271.368 106.5,271C 105.978,270.439 105.645,269.772 105.5,269C 106.982,266.39 108.316,263.723 109.5,261C 100.188,253.34 99.0211,244.507 106,234.5C 108.5,232 111,229.5 113.5,227C 112.002,224.518 110.502,222.018 109,219.5C 104.853,226.796 101.52,234.463 99,242.5C 97.3863,250.251 98.8863,257.251 103.5,263.5C 102.088,264.806 100.421,265.64 98.5,266C 100.26,266.965 100.594,268.132 99.5,269.5C 95.0514,270.866 91.5514,269.532 89,265.5C 82.1154,251.387 81.7821,237.053 88,222.5C 92.347,207.791 97.6804,193.458 104,179.5C 105.261,164.73 108.761,150.563 114.5,137C 90.197,133.013 72.3637,120.18 61,98.5C 54.9895,122.884 50.6561,147.551 48,172.5C 40.9968,186.003 30.8302,196.336 17.5,203.5C 16.5581,203.392 15.7247,203.059 15,202.5C 8.17035,187.517 3.67035,171.85 1.5,155.5C 9.69303,122.115 24.5264,92.1148 46,65.5C 57.5024,54.3308 68.6691,42.8308 79.5,31C 92.944,21.7737 107.611,15.6071 123.5,12.5 Z M 193.5,102.5 C 195.117,103.038 196.784,103.371 198.5,103.5C 203.643,131.594 206.81,159.927 208,188.5C 209.123,191.249 210.623,193.749 212.5,196C 190.133,206.2 171.3,201.7 156,182.5C 146.965,169.228 141.798,154.562 140.5,138.5C 159.577,135.712 175.411,127.045 188,112.5C 190.619,109.594 192.453,106.261 193.5,102.5 Z"/></g>
<g><path style="opacity:1" fill="#575555" d="M 126.5,15.5 C 138.183,15.1155 148.85,18.2821 158.5,25C 172.167,33.3333 183.167,44.3333 191.5,58C 190.167,58.6667 188.833,58.6667 187.5,58C 169.75,47.0836 150.416,40.7503 129.5,39C 110.517,36.427 91.85,37.427 73.5,42C 82.3355,33.078 92.6689,26.4113 104.5,22C 111.9,19.6311 119.233,17.4644 126.5,15.5 Z"/></g>
<g><path style="opacity:1" fill="#f6f6f6" d="M 83.5,41.5 C 88.6912,40.467 92.6912,42.1337 95.5,46.5C 86.1188,49.2025 80.9521,55.5359 80,65.5C 78.3337,72.9668 79.8337,79.6334 84.5,85.5C 76.8013,90.2529 71.3013,88.2529 68,79.5C 64.9208,63.1921 70.0875,50.5255 83.5,41.5 Z"/></g>
<g><path style="opacity:1" fill="#575454" d="M 94.5,40.5 C 103.506,40.3336 112.506,40.5002 121.5,41C 113.333,47.8333 105.833,55.3333 99,63.5C 99.5524,58.5767 99.5524,53.5767 99,48.5C 97.6443,45.6711 96.1443,43.0045 94.5,40.5 Z"/></g>
<g><path style="opacity:1" fill="#575454" d="M 125.5,41.5 C 135.352,42.3704 145.018,44.2037 154.5,47C 145.187,52.1159 139.687,59.9492 138,70.5C 134.372,60.5792 130.205,50.9125 125.5,41.5 Z"/></g>
<g><path style="opacity:1" fill="#f6db00" d="M 121.5,43.5 C 122.496,43.4142 123.329,43.7476 124,44.5C 129.293,54.413 133.459,64.7463 136.5,75.5C 124.581,73.2168 112.581,71.3835 100.5,70C 99.6919,69.6924 99.0253,69.1924 98.5,68.5C 105.82,59.8464 113.487,51.513 121.5,43.5 Z"/></g>
<g><path style="opacity:1" fill="#f3f3f3" d="M 155.5,48.5 C 169.283,48.118 175.95,54.9513 175.5,69C 175.361,79.0698 172.528,88.2365 167,96.5C 161.242,101.562 154.742,102.729 147.5,100C 141.919,94.3261 139.586,87.4928 140.5,79.5C 139.937,66.2957 144.937,55.9624 155.5,48.5 Z"/></g>
<g><path style="opacity:1" fill="#535050" d="M 71.5,45.5 C 72.2389,45.369 72.9056,45.5357 73.5,46C 67.4379,53.0176 64.4379,61.1843 64.5,70.5C 63.5,70.5 62.5,70.5 61.5,70.5C 62.8851,61.336 66.2185,53.0026 71.5,45.5 Z"/></g>
<g><path style="opacity:1" fill="#04668f" d="M 96.5,58.5 C 92.4592,57.3173 89.9592,58.9839 89,63.5C 88.3333,66.5 88.3333,69.5 89,72.5C 89.7096,73.9733 90.8762,74.6399 92.5,74.5C 91.3466,76.8068 90.1799,79.1401 89,81.5C 88.1627,83.0074 86.9961,83.5074 85.5,83C 83.5125,81.6811 82.3459,79.8477 82,77.5C 80.1297,66.7991 82.963,57.6325 90.5,50C 92.4406,49.2571 94.2739,49.4238 96,50.5C 96.4974,53.146 96.6641,55.8127 96.5,58.5 Z"/></g>
<g><path style="opacity:1" fill="#585555" d="M 58.5,71.5 C 53.746,87.7019 48.9126,104.035 44,120.5C 40.6551,136.084 37.8217,151.75 35.5,167.5C 23.8068,164.825 13.8068,159.325 5.5,151C 16.7153,113.882 35.382,81.2157 61.5,53C 62.1667,52.3333 62.8333,52.3333 63.5,53C 60.3808,58.7575 58.7141,64.9242 58.5,71.5 Z"/></g>
<g><path style="opacity:1" fill="#f1f4f5" d="M 96.5,58.5 C 96.0169,64.0823 94.6836,69.4156 92.5,74.5C 90.8762,74.6399 89.7096,73.9733 89,72.5C 88.3333,69.5 88.3333,66.5 89,63.5C 89.9592,58.9839 92.4592,57.3173 96.5,58.5 Z"/></g>
<g><path style="opacity:1" fill="#585555" d="M 216.5,185.5 C 215.49,154.924 210.99,124.924 203,95.5C 200.962,88.5406 198.462,81.8739 195.5,75.5C 194.815,71.4287 193.815,67.4287 192.5,63.5C 192.167,64 191.833,64.5 191.5,65C 192.087,67.6252 192.42,70.2919 192.5,73C 191.878,80.2283 190.878,87.395 189.5,94.5C 189.5,95.1667 189.5,95.8333 189.5,96.5C 184.975,94.32 180.475,91.9867 176,89.5C 176.876,83.0654 177.709,76.5654 178.5,70C 178.205,64.183 177.038,58.683 175,53.5C 178.914,55.5401 182.748,57.7067 186.5,60C 190.467,60.4825 194.134,61.8159 197.5,64C 211.414,78.9323 222.581,95.7657 231,114.5C 239.977,133.598 247.477,153.264 253.5,173.5C 253.392,174.442 253.059,175.275 252.5,176C 241.397,182.521 229.397,185.688 216.5,185.5 Z"/></g>
<g><path style="opacity:1" fill="#15191b" d="M 159.5,58.5 C 169.021,57.8562 173.355,62.3562 172.5,72C 172.766,80.2013 170.432,87.5346 165.5,94C 154.303,98.5184 148.637,94.5184 148.5,82C 148.586,72.3356 152.252,64.5022 159.5,58.5 Z"/></g>
<g><path style="opacity:1" fill="#036892" d="M 160.5,60.5 C 163.365,60.0548 165.865,60.7215 168,62.5C 171.496,71.7258 170.829,80.7258 166,89.5C 162.795,94.7263 158.628,95.7263 153.5,92.5C 149.076,80.2402 151.41,69.5736 160.5,60.5 Z"/></g>
<g><path style="opacity:1" fill="#f0f6f8" d="M 161.5,68.5 C 162.822,68.33 163.989,68.6634 165,69.5C 165.791,73.9255 165.457,78.2589 164,82.5C 159.525,86.6795 157.359,85.5128 157.5,79C 157.589,74.9952 158.922,71.4952 161.5,68.5 Z"/></g>
<g><path style="opacity:1" fill="#fbdf00" d="M 188.5,99.5 C 182.14,108.341 173.807,114.841 163.5,119C 131.856,131.025 102.523,127.025 75.5,107C 71.9084,104.079 69.0751,100.579 67,96.5C 66.3292,95.7476 65.4959,95.4142 64.5,95.5C 62.0732,88.4053 61.0732,81.0719 61.5,73.5C 62.5,73.5 63.5,73.5 64.5,73.5C 64.7453,85.5877 70.7453,91.0877 82.5,90C 89.3776,86.0867 93.711,80.2533 95.5,72.5C 109.612,73.6589 123.612,75.6589 137.5,78.5C 137.585,85.1721 139.085,91.5054 142,97.5C 147.886,104.914 155.053,106.414 163.5,102C 167.339,98.991 171.006,95.8244 174.5,92.5C 179.501,94.334 184.168,96.6673 188.5,99.5 Z"/></g>
<g><path style="opacity:1" fill="#363433" d="M 58.5,71.5 C 58.2731,77.7019 58.6064,83.8685 59.5,90C 52.1988,116.038 47.5321,142.538 45.5,169.5C 41.8776,169.678 38.5443,169.011 35.5,167.5C 37.8217,151.75 40.6551,136.084 44,120.5C 48.9126,104.035 53.746,87.7019 58.5,71.5 Z"/></g>
<g><path style="opacity:1" fill="#333131" d="M 189.5,96.5 C 189.5,95.8333 189.5,95.1667 189.5,94.5C 190.586,94.38 191.253,93.7133 191.5,92.5C 192.27,88.8189 193.103,85.1522 194,81.5C 195.197,87.588 196.697,93.588 198.5,99.5C 195.037,100.211 192.037,99.2109 189.5,96.5 Z"/></g>
<g><path style="opacity:1" fill="#423a02" d="M 103.5,91.5 C 105.465,91.9483 105.798,92.9483 104.5,94.5C 103.614,93.675 103.281,92.675 103.5,91.5 Z"/></g>
<g><path style="opacity:1" fill="#221e00" d="M 115.5,93.5 C 116.713,94.4971 116.546,95.4971 115,96.5C 114.53,95.4232 114.697,94.4232 115.5,93.5 Z"/></g>
<g><path style="opacity:1" fill="#211d05" d="M 84.5,95.5 C 88.4806,98.8963 92.1473,102.73 95.5,107C 98.328,109.248 101.328,111.248 104.5,113C 116.784,113.369 128.618,111.202 140,106.5C 140.5,106.833 141,107.167 141.5,107.5C 129.848,113.33 117.514,116.163 104.5,116C 95.5962,111.264 88.9295,104.431 84.5,95.5 Z"/></g>
<g><path style="opacity:1" fill="#dabf00" d="M 64.5,95.5 C 65.4959,95.4142 66.3292,95.7476 67,96.5C 69.0751,100.579 71.9084,104.079 75.5,107C 102.523,127.025 131.856,131.025 163.5,119C 173.807,114.841 182.14,108.341 188.5,99.5C 189.478,99.811 190.145,100.478 190.5,101.5C 178.541,121.651 160.875,132.984 137.5,135.5C 138.114,142.565 139.114,149.565 140.5,156.5C 135.702,156.526 130.702,156.359 125.5,156C 120.935,154.227 116.935,151.727 113.5,148.5C 115.242,143.607 116.576,138.607 117.5,133.5C 92.5294,130.842 74.8627,118.176 64.5,95.5 Z"/></g>
<g><path style="opacity:1" fill="#363433" d="M 195.5,75.5 C 198.462,81.8739 200.962,88.5406 203,95.5C 210.99,124.924 215.49,154.924 216.5,185.5C 214.833,185.5 213.167,185.5 211.5,185.5C 210.361,148.191 205.027,111.524 195.5,75.5 Z"/></g>
<g><path style="opacity:1" fill="#fade00" d="M 113.5,148.5 C 116.935,151.727 120.935,154.227 125.5,156C 130.702,156.359 135.702,156.526 140.5,156.5C 144.381,172.764 152.714,186.264 165.5,197C 181.41,207.42 197.91,208.253 215,199.5C 219.72,204.581 224.22,209.914 228.5,215.5C 225.71,219.628 222.043,222.628 217.5,224.5C 211.188,221.679 204.855,218.845 198.5,216C 195.081,215.479 191.748,214.645 188.5,213.5C 188.167,213.833 187.833,214.167 187.5,214.5C 204.895,219.442 220.062,228.109 233,240.5C 232.944,252.331 228.777,262.498 220.5,271C 218.866,271.494 217.199,271.66 215.5,271.5C 219.387,263.613 220.887,255.28 220,246.5C 207.537,237.506 193.704,231.506 178.5,228.5C 176.583,229.903 175.583,229.57 175.5,227.5C 176.477,224.011 178.477,221.177 181.5,219C 177.96,219.181 175.46,221.014 174,224.5C 172.991,226.025 172.491,227.692 172.5,229.5C 171.566,230.568 171.232,231.901 171.5,233.5C 163.571,232.768 155.904,230.934 148.5,228C 147.244,227.583 146.577,226.75 146.5,225.5C 148.868,215.998 149.868,206.331 149.5,196.5C 149.44,195.957 149.107,195.624 148.5,195.5C 147.516,198.428 147.183,201.428 147.5,204.5C 145.047,211.624 142.88,218.958 141,226.5C 137.484,234.917 133.317,242.917 128.5,250.5C 126.565,249.85 124.565,249.517 122.5,249.5C 129.15,227.014 131.983,204.014 131,180.5C 130.091,191.875 128.924,203.209 127.5,214.5C 126.448,214.649 125.448,214.483 124.5,214C 116.713,206.583 111.379,197.749 108.5,187.5C 108.549,180.151 108.882,172.817 109.5,165.5C 110.052,159.627 111.385,153.961 113.5,148.5 Z"/></g>
<g><path style="opacity:1" fill="#f9de00" d="M 34.5,170.5 C 32.4584,179.917 28.2917,188.25 22,195.5C 21.5172,196.448 21.3505,197.448 21.5,198.5C 18.0284,201.283 15.8618,200.283 15,195.5C 10.1265,182.556 7.12653,169.223 6,155.5C 14.5136,162.505 24.0136,167.505 34.5,170.5 Z"/></g>
<g><path style="opacity:1" fill="#d9be00" d="M 34.5,170.5 C 37.7411,170.878 40.7411,171.878 43.5,173.5C 37.777,183.3 30.4437,191.634 21.5,198.5C 21.3505,197.448 21.5172,196.448 22,195.5C 28.2917,188.25 32.4584,179.917 34.5,170.5 Z"/></g>
<g><path style="opacity:1" fill="#f9dd00" d="M 230.5,212.5 C 226.142,204.772 222.142,196.772 218.5,188.5C 230.928,187.81 242.595,184.476 253.5,178.5C 253.833,179 254.167,179.5 254.5,180C 249.584,193.08 244.084,205.913 238,218.5C 237.282,219.451 236.449,219.617 235.5,219C 233.461,217.074 231.794,214.907 230.5,212.5 Z"/></g>
<g><path style="opacity:1" fill="#575454" d="M 291.5,199.5 C 288.32,197.153 284.653,195.653 280.5,195C 272.362,194.016 264.362,194.516 256.5,196.5C 256.134,194.095 255.467,191.762 254.5,189.5C 254.393,184.605 256.726,182.605 261.5,183.5C 274.661,184.747 285.661,190.247 294.5,200C 293.251,200.74 292.251,200.573 291.5,199.5 Z"/></g>
<g><path style="opacity:1" fill="#635700" d="M 105.5,194.5 C 104.833,192.167 104.167,189.833 103.5,187.5C 103.369,186.624 103.702,185.957 104.5,185.5C 105.484,188.428 105.817,191.428 105.5,194.5 Z"/></g>
<g><path style="opacity:1" fill="#9e8b00" d="M 109.5,165.5 C 108.882,172.817 108.549,180.151 108.5,187.5C 108.5,191.5 108.5,195.5 108.5,199.5C 107.834,195.18 107.501,190.68 107.5,186C 107.339,178.936 108.006,172.103 109.5,165.5 Z"/></g>
<g><path style="opacity:1" fill="#f4da00" d="M 103.5,187.5 C 104.167,189.833 104.833,192.167 105.5,194.5C 105.5,196.5 105.5,198.5 105.5,200.5C 100.114,212.661 96.1142,225.327 93.5,238.5C 91.5853,238.216 89.9187,238.549 88.5,239.5C 87.8529,238.726 87.5195,237.726 87.5,236.5C 91.6411,219.744 96.9745,203.411 103.5,187.5 Z"/></g>
<g><path style="opacity:1" fill="#d8be00" d="M 218.5,188.5 C 222.142,196.772 226.142,204.772 230.5,212.5C 223.791,205.45 217.791,197.783 212.5,189.5C 214.396,188.534 216.396,188.201 218.5,188.5 Z"/></g>
<g><path style="opacity:1" fill="#353332" d="M 291.5,199.5 C 279.715,195.96 268.382,196.96 257.5,202.5C 256.534,200.604 256.201,198.604 256.5,196.5C 264.362,194.516 272.362,194.016 280.5,195C 284.653,195.653 288.32,197.153 291.5,199.5 Z"/></g>
<g><path style="opacity:1" fill="#d9bf00" d="M 108.5,187.5 C 111.379,197.749 116.713,206.583 124.5,214C 125.448,214.483 126.448,214.649 127.5,214.5C 126.599,221.908 125.265,229.241 123.5,236.5C 114.937,225.694 109.937,213.361 108.5,199.5C 108.5,195.5 108.5,191.5 108.5,187.5 Z"/></g>
<g><path style="opacity:1" fill="#ceb600" d="M 252.5,193.5 C 253.117,193.611 253.617,193.944 254,194.5C 254.667,197.167 254.667,199.833 254,202.5C 251.064,206.44 247.731,210.107 244,213.5C 246.508,206.803 249.342,200.137 252.5,193.5 Z"/></g>
<g><path style="opacity:1" fill="#766800" d="M 149.5,196.5 C 148.833,200.167 148.167,203.833 147.5,207.5C 147.5,206.5 147.5,205.5 147.5,204.5C 147.183,201.428 147.516,198.428 148.5,195.5C 149.107,195.624 149.44,195.957 149.5,196.5 Z"/></g>
<g><path style="opacity:1" fill="#d8be00" d="M 105.5,200.5 C 106.97,205.321 107.804,210.321 108,215.5C 103.365,223.104 99.5315,231.104 96.5,239.5C 94.0134,239.782 91.3467,239.782 88.5,239.5C 89.9187,238.549 91.5853,238.216 93.5,238.5C 96.1142,225.327 100.114,212.661 105.5,200.5 Z"/></g>
<g><path style="opacity:1" fill="#d8be00" d="M 228.5,215.5 C 231.297,217.795 233.964,220.295 236.5,223C 234.167,226 231.833,229 229.5,232C 228.833,232.667 228.167,232.667 227.5,232C 224.266,229.252 220.932,226.752 217.5,224.5C 222.043,222.628 225.71,219.628 228.5,215.5 Z"/></g>
<g><path style="opacity:1" fill="#1c1703" d="M 175.5,227.5 C 174.113,229.877 173.279,232.543 173,235.5C 172.505,233.527 172.338,231.527 172.5,229.5C 172.491,227.692 172.991,226.025 174,224.5C 175.46,221.014 177.96,219.181 181.5,219C 178.477,221.177 176.477,224.011 175.5,227.5 Z"/></g>
<g><path style="opacity:1" fill="#d9be00" d="M 146.5,225.5 C 146.577,226.75 147.244,227.583 148.5,228C 155.904,230.934 163.571,232.768 171.5,233.5C 171.232,231.901 171.566,230.568 172.5,229.5C 172.338,231.527 172.505,233.527 173,235.5C 173.279,232.543 174.113,229.877 175.5,227.5C 175.583,229.57 176.583,229.903 178.5,228.5C 193.704,231.506 207.537,237.506 220,246.5C 220.887,255.28 219.387,263.613 215.5,271.5C 212.518,271.896 209.851,271.229 207.5,269.5C 206.574,265.906 206.241,262.24 206.5,258.5C 196.553,256.929 186.887,254.263 177.5,250.5C 176.707,251.355 177.04,252.189 178.5,253C 181.876,254.07 185.21,255.236 188.5,256.5C 187.624,257.251 186.624,257.751 185.5,258C 171.766,259.66 158.433,258.16 145.5,253.5C 144.167,254.167 144.167,254.833 145.5,255.5C 147.225,256.015 148.892,256.682 150.5,257.5C 145.56,258.88 140.56,260.046 135.5,261C 134.594,262.699 134.261,264.533 134.5,266.5C 133.325,266.719 132.325,266.386 131.5,265.5C 132.523,261.2 133.856,257.033 135.5,253C 137.5,253 139.5,253 141.5,253C 139.673,252.101 138.34,250.767 137.5,249C 140.626,241.107 143.626,233.273 146.5,225.5 Z"/></g>
<g><path style="opacity:1" fill="#f4da00" d="M 118.5,235.5 C 113.377,240.28 109.044,245.613 105.5,251.5C 104.181,242.464 107.515,235.464 115.5,230.5C 116.763,232.029 117.763,233.695 118.5,235.5 Z"/></g>
<g><path style="opacity:1" fill="#dabf00" d="M 118.5,235.5 C 119.985,237.162 121.318,238.995 122.5,241C 121.391,248.264 117.724,253.764 111.5,257.5C 108.607,256.369 106.607,254.369 105.5,251.5C 109.044,245.613 113.377,240.28 118.5,235.5 Z"/></g>
<g><path style="opacity:1" fill="#d9bf00" d="M 147.5,204.5 C 147.5,205.5 147.5,206.5 147.5,207.5C 145.202,223.564 140.035,238.564 132,252.5C 130.541,252.192 129.374,251.525 128.5,250.5C 133.317,242.917 137.484,234.917 141,226.5C 142.88,218.958 145.047,211.624 147.5,204.5 Z"/></g>
<g><path style="opacity:1" fill="#4d4a4a" d="M 87.5,241.5 C 90.1194,241.232 92.6194,241.565 95,242.5C 95.1782,247.627 96.0115,252.627 97.5,257.5C 96.635,258.583 95.635,258.749 94.5,258C 92.4372,255.489 90.9372,252.656 90,249.5C 89.8333,250.167 89.6667,250.833 89.5,251.5C 91.2315,256.348 92.8981,261.181 94.5,266C 92.8866,266.089 91.7199,265.255 91,263.5C 89.6667,259.5 88.3333,255.5 87,251.5C 86.2534,248.076 86.42,244.743 87.5,241.5 Z"/></g>
<g><path style="opacity:1" fill="#514e4e" d="M 127.5,252.5 C 124.889,256.951 122.056,261.284 119,265.5C 117.589,267.65 116.755,269.984 116.5,272.5C 115.105,274.054 114.439,273.721 114.5,271.5C 116.141,266.421 117.641,261.421 119,256.5C 117.341,257.817 116.174,259.483 115.5,261.5C 113.578,262.711 111.745,264.044 110,265.5C 111.648,259.77 115.148,255.27 120.5,252C 122.885,251.444 125.218,251.61 127.5,252.5 Z"/></g>
<g><path style="opacity:1" fill="#353332" d="M 127.5,252.5 C 129.833,253.341 131.166,255.008 131.5,257.5C 131.028,262.031 129.861,266.364 128,270.5C 127.518,267.093 127.518,263.76 128,260.5C 123.935,264.395 120.102,268.395 116.5,272.5C 116.755,269.984 117.589,267.65 119,265.5C 122.056,261.284 124.889,256.951 127.5,252.5 Z"/></g>
<g><path style="opacity:1" fill="#4b4848" d="M 206.5,272.5 C 212.169,273.713 217.836,273.713 223.5,272.5C 226.774,273.47 229.774,274.97 232.5,277C 228.82,278.027 225.653,277.194 223,274.5C 224.237,277.776 226.403,280.609 229.5,283C 225.406,283.767 221.406,283.434 217.5,282C 216.91,280.491 216.244,278.991 215.5,277.5C 214.434,287.18 211.267,287.513 206,278.5C 205.322,276.402 205.489,274.402 206.5,272.5 Z"/></g>
</svg>
