<?xml version="1.0" encoding="UTF-8"?>
<!DOCTYPE svg PUBLIC "-//W3C//DTD SVG 1.1//EN" "http://www.w3.org/Graphics/SVG/1.1/DTD/svg11.dtd">
<svg xmlns="http://www.w3.org/2000/svg" version="1.1" width="300px" height="300px" style="shape-rendering:geometricPrecision; text-rendering:geometricPrecision; image-rendering:optimizeQuality; fill-rule:evenodd; clip-rule:evenodd" xmlns:xlink="http://www.w3.org/1999/xlink">
<g><path style="opacity:0.677" fill="#0f0b05" d="M 86.5,1.5 C 90.8859,2.36603 94.3859,4.69936 97,8.5C 98.8333,11.5 100.667,14.5 102.5,17.5C 107.456,18.4941 112.456,18.8275 117.5,18.5C 117.507,13.8175 119.174,9.81746 122.5,6.5C 123.451,5.67443 124.451,5.50776 125.5,6C 131.124,11.7451 134.79,18.5784 136.5,26.5C 145.475,32.1149 149.309,40.1149 148,50.5C 140.914,69.9152 127.247,81.9152 107,86.5C 105.739,103.817 111.572,118.317 124.5,130C 131.93,134.433 138.43,139.933 144,146.5C 144.781,147.944 144.614,149.277 143.5,150.5C 138.833,148.167 134.167,145.833 129.5,143.5C 129.11,146.767 129.61,150.101 131,153.5C 134.131,157.633 137.631,161.466 141.5,165C 148.668,169.083 155.668,173.416 162.5,178C 167.087,182.552 168.421,187.719 166.5,193.5C 163.339,192.087 160.339,190.42 157.5,188.5C 156.355,189.776 156.355,191.109 157.5,192.5C 157.167,193.5 156.5,194.167 155.5,194.5C 150.315,190.149 145.649,185.316 141.5,180C 135.432,176.601 129.932,172.435 125,167.5C 126.417,175.071 127.751,182.738 129,190.5C 136.572,197.401 143.405,204.901 149.5,213C 151.5,213.667 153.5,213.667 155.5,213C 162.276,210.446 168.609,207.113 174.5,203C 184.131,195.038 193.464,186.704 202.5,178C 214.228,168.222 227.728,162.722 243,161.5C 274.669,165.517 289.002,183.517 286,215.5C 284.59,224.066 281.424,231.899 276.5,239C 273.178,241.332 269.511,242.498 265.5,242.5C 264.903,238.168 264.737,233.835 265,229.5C 271.804,216.941 272.138,204.274 266,191.5C 257.222,180.179 246.056,177.012 232.5,182C 225.674,185.169 219.841,189.669 215,195.5C 203.056,213.788 189.223,230.621 173.5,246C 167.709,249.292 163.209,253.792 160,259.5C 155.308,264.76 149.808,268.926 143.5,272C 150.058,276.446 157.058,280.113 164.5,283C 166.037,284.11 166.703,285.61 166.5,287.5C 164.143,287.337 161.81,287.503 159.5,288C 161.019,289.351 162.352,290.851 163.5,292.5C 163.167,293.5 162.5,294.167 161.5,294.5C 157.159,292.992 152.826,291.825 148.5,291C 154.168,297.126 152.835,298.792 144.5,296C 132.738,290.413 124.738,281.58 120.5,269.5C 107.393,268.633 95.726,264.133 85.5,256C 80.2907,250.959 75.2907,245.792 70.5,240.5C 65.8678,244.443 62.2012,249.11 59.5,254.5C 60.8724,258.91 63.0391,262.91 66,266.5C 66.074,271.705 64.4074,276.372 61,280.5C 55.2841,287.606 48.1174,292.606 39.5,295.5C 37.9568,293.618 37.1235,291.618 37,289.5C 33.7794,291.11 30.446,292.443 27,293.5C 24.7558,293.133 24.2558,292.133 25.5,290.5C 23.9547,289.548 22.288,289.215 20.5,289.5C 20.7438,286.737 22.0771,284.571 24.5,283C 31.3324,278.416 38.3324,274.083 45.5,270C 39.0213,266.002 33.1879,261.168 28,255.5C 23.0569,248.184 22.3902,240.517 26,232.5C 32.3429,218.823 41.0096,206.823 52,196.5C 53.6161,187.472 54.4495,178.472 54.5,169.5C 43.6428,178.191 32.6428,186.691 21.5,195C 20.552,195.483 19.552,195.649 18.5,195.5C 18.472,193.418 19.1387,191.584 20.5,190C 17.9792,190.73 15.3126,191.23 12.5,191.5C 13.8917,187.804 15.225,184.137 16.5,180.5C 20.8019,179.021 25.1352,177.521 29.5,176C 36.904,169.178 42.5707,161.178 46.5,152C 46.3333,151.5 46.1667,151 46,150.5C 42.8878,153.497 39.3878,154.831 35.5,154.5C 39.4437,144.722 46.277,137.722 56,133.5C 67.7746,119.278 74.608,102.945 76.5,84.5C 76.1084,81.1506 75.6084,77.8173 75,74.5C 67.1099,63.4043 65.4432,51.4043 70,38.5C 71.4213,35.9906 73.0879,33.6572 75,31.5C 76.0056,20.3019 79.8389,10.3019 86.5,1.5 Z"/></g>
<g><path style="opacity:1" fill="#a25813" d="M 53.5,145.5 C 54.525,145.897 54.6917,146.563 54,147.5C 51.9565,149.208 50.2899,151.208 49,153.5C 48.8782,151.831 49.2115,150.165 50,148.5C 51.5185,147.837 52.6851,146.837 53.5,145.5 Z"/></g>
<g><path style="opacity:1" fill="#ecd200" d="M 63.5,148.5 C 63.1667,148.5 62.8333,148.5 62.5,148.5C 60.744,149.552 60.0773,151.219 60.5,153.5C 59.2005,157.001 58.0338,160.667 57,164.5C 50.9259,169.786 44.7592,174.952 38.5,180C 34.5126,180.339 33.0126,178.506 34,174.5C 42.1667,164.333 50.3333,154.167 58.5,144C 60.0249,142.991 61.6916,142.491 63.5,142.5C 63.5,144.5 63.5,146.5 63.5,148.5 Z"/></g>
<g><path style="opacity:1" fill="#ecd200" d="M 120.5,144.5 C 127.358,153.344 135.024,161.51 143.5,169C 141.513,171.14 140.18,173.64 139.5,176.5C 132.931,172.436 127.097,167.436 122,161.5C 121.555,155.82 121.055,150.154 120.5,144.5 Z"/></g>
<g><path style="opacity:1" fill="#fcdf00" d="M 62.5,148.5 C 62.8333,148.5 63.1667,148.5 63.5,148.5C 63.5713,155.68 65.4046,162.347 69,168.5C 75.3638,163.302 81.1971,157.635 86.5,151.5C 90.9275,151.201 95.2609,150.535 99.5,149.5C 106.25,155.916 113.583,161.582 121.5,166.5C 124.85,174.24 125.85,182.24 124.5,190.5C 123.692,190.808 123.025,191.308 122.5,192C 124.5,192.333 126.5,192.667 128.5,193C 134.387,198.384 139.72,204.217 144.5,210.5C 143.311,211.429 141.978,211.762 140.5,211.5C 133.704,213.059 128.038,216.392 123.5,221.5C 121.147,223.101 118.98,225.101 117,227.5C 115.753,230.329 114.253,232.995 112.5,235.5C 109.42,234.211 106.586,232.545 104,230.5C 103.833,230.833 103.667,231.167 103.5,231.5C 109.47,235.474 115.137,239.807 120.5,244.5C 104.881,246.757 90.8812,242.757 78.5,232.5C 77.8933,232.624 77.56,232.957 77.5,233.5C 75.0488,234.411 72.7154,235.244 70.5,236C 65.1022,224.43 56.4356,216.597 44.5,212.5C 43.9094,211.849 43.2427,211.182 42.5,210.5C 46.1103,205.387 50.277,200.72 55,196.5C 55.4966,194.19 55.6633,191.857 55.5,189.5C 56.889,184.731 57.5557,179.731 57.5,174.5C 58.6071,167.523 59.6071,160.523 60.5,153.5C 61.3092,151.972 61.9759,150.306 62.5,148.5 Z"/></g>
<g><path style="opacity:1" fill="#292404" d="M 62.5,148.5 C 61.9759,150.306 61.3092,151.972 60.5,153.5C 60.0773,151.219 60.744,149.552 62.5,148.5 Z"/></g>
<g><path style="opacity:1" fill="#c36a16" d="M 121.5,138.5 C 122.622,139.947 124.122,140.947 126,141.5C 126.995,144.126 127.328,146.793 127,149.5C 124.667,146.5 122.333,143.5 120,140.5C 119.472,139.184 119.972,138.517 121.5,138.5 Z"/></g>
<g><path style="opacity:1" fill="#d7bc00" d="M 99.5,149.5 C 95.2609,150.535 90.9275,151.201 86.5,151.5C 88.3641,148.45 90.6974,145.783 93.5,143.5C 95.8545,145.188 97.8545,147.188 99.5,149.5 Z"/></g>
<g><path style="opacity:1" fill="#ef821c" d="M 76.5,142.5 C 80.8333,143.167 85.1667,143.833 89.5,144.5C 83.2391,152.265 76.4057,159.598 69,166.5C 66.1342,158.437 64.9675,150.104 65.5,141.5C 69.1545,141.942 72.8212,142.276 76.5,142.5 Z"/></g>
<g><path style="opacity:1" fill="#6a390c" d="M 76.5,142.5 C 81.2137,142.173 85.8804,142.507 90.5,143.5C 90.3764,144.107 90.0431,144.44 89.5,144.5C 85.1667,143.833 80.8333,143.167 76.5,142.5 Z"/></g>
<g><path style="opacity:1" fill="#ea801c" d="M 112.5,137.5 C 115.86,136.79 117.693,138.124 118,141.5C 119.905,149.069 120.572,156.736 120,164.5C 111.537,157.706 103.37,150.539 95.5,143C 101.412,141.612 107.079,139.779 112.5,137.5 Z"/></g>
<g><path style="opacity:1" fill="#e87f1c" d="M 54.5,136.5 C 57.2234,137.352 59.89,138.519 62.5,140C 54.3545,144.073 46.3545,148.073 38.5,152C 42.407,145.258 47.7403,140.091 54.5,136.5 Z"/></g>
<g><path style="opacity:1" fill="#e57d1b" d="M 121.5,138.5 C 117.617,136.426 117.951,134.592 122.5,133C 123.5,132.333 124.5,132.333 125.5,133C 131.786,136.963 136.953,141.796 141,147.5C 134.782,143.807 128.282,140.807 121.5,138.5 Z"/></g>
<g><path style="opacity:1" fill="#585555" d="M 105.5,102.5 C 108.063,113.561 113.397,123.061 121.5,131C 115.214,135.544 108.214,138.544 100.5,140C 87.638,142.499 74.9713,141.832 62.5,138C 60.7774,137.477 59.444,136.477 58.5,135C 66.5147,123.821 72.5147,111.654 76.5,98.5C 77.1174,98.3893 77.6174,98.056 78,97.5C 81.7848,100.642 85.9515,103.142 90.5,105C 94.1667,105.667 97.8333,105.667 101.5,105C 102.471,103.519 103.804,102.685 105.5,102.5 Z"/></g>
<g><path style="opacity:1" fill="#353332" d="M 105.5,102.5 C 103.804,102.685 102.471,103.519 101.5,105C 97.8333,105.667 94.1667,105.667 90.5,105C 85.9515,103.142 81.7848,100.642 78,97.5C 77.6174,98.056 77.1174,98.3893 76.5,98.5C 78.0165,91.2727 78.8498,83.9394 79,76.5C 86.2526,83.0433 94.7526,86.0433 104.5,85.5C 104.214,91.2586 104.548,96.9252 105.5,102.5 Z"/></g>
<g><path style="opacity:1" fill="#353231" d="M 70.5,56.5 C 73.2256,60.5505 76.8922,63.5505 81.5,65.5C 82.1698,63.7086 82.8365,62.0419 83.5,60.5C 83.1632,64.3076 83.6632,67.9743 85,71.5C 85.4828,70.552 85.6495,69.552 85.5,68.5C 86.3092,70.0276 86.9759,71.6943 87.5,73.5C 86.7611,73.369 86.0944,73.5357 85.5,74C 87.26,76.0292 88.4267,78.1959 89,80.5C 78.7329,75.6204 72.5662,67.6204 70.5,56.5 Z"/></g>
<g><path style="opacity:1" fill="#dbc000" d="M 144.5,51.5 C 135.769,73.062 119.769,83.562 96.5,83C 92.6198,80.6211 89.6198,77.4544 87.5,73.5C 86.9759,71.6943 86.3092,70.0276 85.5,68.5C 85.5,68.1667 85.5,67.8333 85.5,67.5C 101.179,71.4578 116.179,69.6244 130.5,62C 135.345,58.6436 140.012,55.1436 144.5,51.5 Z"/></g>
<g><path style="opacity:1" fill="#fade00" d="M 144.5,51.5 C 140.012,55.1436 135.345,58.6436 130.5,62C 116.179,69.6244 101.179,71.4578 85.5,67.5C 85.3354,64.4816 85.502,61.4816 86,58.5C 90.4098,56.9976 94.9098,55.4976 99.5,54C 101.155,51.347 103.155,49.0136 105.5,47C 118.656,43.2117 131.823,42.7117 145,45.5C 145.49,47.5454 145.323,49.5454 144.5,51.5 Z"/></g>
<g><path style="opacity:1" fill="#575454" d="M 83.5,60.5 C 82.8365,62.0419 82.1698,63.7086 81.5,65.5C 76.8922,63.5505 73.2256,60.5505 70.5,56.5C 69.4487,48.8755 70.9487,41.8755 75,35.5C 76.3333,40.1667 77.6667,44.8333 79,49.5C 80.6437,52.3106 82.8103,54.644 85.5,56.5C 84.3698,57.6223 83.7031,58.9557 83.5,60.5 Z"/></g>
<g><path style="opacity:1" fill="#0f6a93" d="M 88.5,31.5 C 91.2062,31.5751 93.8728,31.9084 96.5,32.5C 96.6655,36.5138 96.4988,40.5138 96,44.5C 93.9002,50.6546 91.2335,50.988 88,45.5C 87.2266,40.7481 87.3932,36.0815 88.5,31.5 Z"/></g>
<g><path style="opacity:1" fill="#eff6f8" d="M 91.5,33.5 C 93.7142,34.3915 94.7142,36.0582 94.5,38.5C 94.5468,41.0732 93.5468,43.0732 91.5,44.5C 90.914,44.2907 90.414,43.9574 90,43.5C 89.037,39.8513 89.537,36.518 91.5,33.5 Z"/></g>
<g><path style="opacity:1" fill="#7f7f7f" d="M 86.5,30.5 C 83.8333,30.5 81.1667,30.5 78.5,30.5C 78.5,33.1667 78.5,35.8333 78.5,38.5C 77.5233,35.7131 77.19,32.7131 77.5,29.5C 80.7131,29.19 83.7131,29.5233 86.5,30.5 Z"/></g>
<g><path style="opacity:1" fill="#f3f3f3" d="M 86.5,30.5 C 86.9382,30.4346 87.2716,30.6012 87.5,31C 85.5044,35.2712 85.0044,39.7712 86,44.5C 87.6531,50.5469 90.9864,51.8802 96,48.5C 97.7796,44.0052 98.9463,39.3385 99.5,34.5C 103.331,36.2711 104.498,39.2711 103,43.5C 100.628,53.094 94.7942,56.594 85.5,54C 81.1462,49.7817 78.8128,44.615 78.5,38.5C 78.5,35.8333 78.5,33.1667 78.5,30.5C 81.1667,30.5 83.8333,30.5 86.5,30.5 Z"/></g>
<g><path style="opacity:1" fill="#575454" d="M 103.5,22.5 C 120.898,19.3202 134.398,24.6536 144,38.5C 145.187,40.0444 145.52,41.7111 145,43.5C 132.082,41.763 119.248,42.4297 106.5,45.5C 105.833,45.1667 105.167,44.8333 104.5,44.5C 105.128,41.2203 105.461,37.887 105.5,34.5C 105.722,30.2032 105.055,26.2032 103.5,22.5 Z"/></g>
<g><path style="opacity:1" fill="#565353" d="M 123.5,8.5 C 127.961,11.1602 130.794,15.1602 132,20.5C 132.667,21.8333 132.667,23.1667 132,24.5C 128.114,22.3196 123.947,20.9862 119.5,20.5C 119.709,16.0915 121.042,12.0915 123.5,8.5 Z"/></g>
<g><path style="opacity:1" fill="#575454" d="M 87.5,3.5 C 97.9702,11.1069 103.137,21.4402 103,34.5C 95.4666,29.9337 87.3,27.9337 78.5,28.5C 79.3271,19.3496 82.3271,11.0163 87.5,3.5 Z"/></g>
<g><path style="opacity:1" fill="#79420e" d="M 248.5,164.5 C 245.615,164.194 242.948,164.527 240.5,165.5C 239.957,165.44 239.624,165.107 239.5,164.5C 242.645,163.197 245.645,163.197 248.5,164.5 Z"/></g>
<g><path style="opacity:1" fill="#fade00" d="M 240.5,172.5 C 230.319,173.591 221.319,177.424 213.5,184C 202.424,195.072 192.09,206.739 182.5,219C 176.167,224.83 169.167,229.664 161.5,233.5C 159.019,227.87 156.019,222.537 152.5,217.5C 153.243,216.818 153.909,216.151 154.5,215.5C 161.571,214.297 167.905,211.464 173.5,207C 181.766,200.738 189.432,193.738 196.5,186C 205.085,178.094 214.752,171.76 225.5,167C 228.783,165.977 232.116,165.143 235.5,164.5C 239.591,165.601 241.258,168.267 240.5,172.5 Z"/></g>
<g><path style="opacity:1" fill="#ed811c" d="M 248.5,164.5 C 261.409,166.196 271.242,172.529 278,183.5C 278.374,189.968 275.54,192.635 269.5,191.5C 270.686,189.806 270.519,188.139 269,186.5C 262.908,177.536 254.408,172.869 243.5,172.5C 243.737,171.209 243.404,170.209 242.5,169.5C 241.833,168.167 241.167,166.833 240.5,165.5C 242.948,164.527 245.615,164.194 248.5,164.5 Z"/></g>
<g><path style="opacity:1" fill="#4e4b4b" d="M 143.5,170.5 C 150.956,172.478 157.456,176.144 163,181.5C 163.667,182.167 163.667,182.833 163,183.5C 161.26,181.046 159.093,179.546 156.5,179C 160.257,182.086 163.257,185.752 165.5,190C 161.694,188.591 158.027,186.591 154.5,184C 152.943,181.704 151.276,179.538 149.5,177.5C 149.167,177.667 148.833,177.833 148.5,178C 151.608,181.706 153.442,185.873 154,190.5C 149.632,186.467 145.632,182.134 142,177.5C 141.4,174.905 141.9,172.571 143.5,170.5 Z"/></g>
<g><path style="opacity:1" fill="#c96d17" d="M 242.5,169.5 C 243.404,170.209 243.737,171.209 243.5,172.5C 254.408,172.869 262.908,177.536 269,186.5C 270.519,188.139 270.686,189.806 269.5,191.5C 262.529,182.344 253.196,177.344 241.5,176.5C 242.374,174.253 242.708,171.92 242.5,169.5 Z"/></g>
<g><path style="opacity:1" fill="#dabf00" d="M 240.5,172.5 C 240.607,174.903 239.607,176.736 237.5,178C 227.745,181.079 219.578,186.579 213,194.5C 199.905,215.933 183.571,234.6 164,250.5C 163.502,247.183 163.335,243.85 163.5,240.5C 163.122,238.079 162.455,235.746 161.5,233.5C 169.167,229.664 176.167,224.83 182.5,219C 192.09,206.739 202.424,195.072 213.5,184C 221.319,177.424 230.319,173.591 240.5,172.5 Z"/></g>
<g><path style="opacity:1" fill="#4b4948" d="M 29.5,177.5 C 35.7201,179.444 36.3868,182.277 31.5,186C 18.473,195.327 17.473,194.327 28.5,183C 26.08,183.372 24.08,184.705 22.5,187C 13.7424,189.342 13.4091,188.009 21.5,183C 23.3921,182.027 25.3921,181.36 27.5,181C 26.9515,179.404 27.6182,178.237 29.5,177.5 Z"/></g>
<g><path style="opacity:1" fill="#a99501" d="M 57.5,174.5 C 57.5557,179.731 56.889,184.731 55.5,189.5C 55.4443,184.269 56.111,179.269 57.5,174.5 Z"/></g>
<g><path style="opacity:1" fill="#585555" d="M 279.5,188.5 C 281.511,190.667 282.678,193.334 283,196.5C 285.391,210.382 283.057,223.382 276,235.5C 268.229,242.73 265.562,240.73 268,229.5C 273.547,218.766 274.713,207.599 271.5,196C 271.645,195.228 271.978,194.561 272.5,194C 276.039,193.578 278.373,191.745 279.5,188.5 Z"/></g>
<g><path style="opacity:1" fill="#e97f1c" d="M 44.5,212.5 C 48.154,214.331 51.4873,216.664 54.5,219.5C 48.1757,222.661 42.1757,226.328 36.5,230.5C 34.4113,223.832 35.7446,217.999 40.5,213C 41.7932,212.51 43.1266,212.343 44.5,212.5 Z"/></g>
<g><path style="opacity:1" fill="#ec811c" d="M 140.5,212.5 C 142.167,212.5 143.833,212.5 145.5,212.5C 146.113,218.271 145.446,223.604 143.5,228.5C 142.313,226.025 140.313,225.025 137.5,225.5C 134.23,223.526 130.897,221.526 127.5,219.5C 131.597,216.59 135.93,214.257 140.5,212.5 Z"/></g>
<g><path style="opacity:1" fill="#6e3c0d" d="M 147.5,214.5 C 147.182,219.032 147.515,223.366 148.5,227.5C 148.44,228.043 148.107,228.376 147.5,228.5C 147.167,226 146.833,223.5 146.5,221C 146.435,218.048 146.768,215.881 147.5,214.5 Z"/></g>
<g><path style="opacity:1" fill="#f1851d" d="M 147.5,214.5 C 148.833,215.833 150.167,217.167 151.5,218.5C 152.557,220.941 153.89,223.275 155.5,225.5C 153.709,226.17 152.042,226.837 150.5,227.5C 149.833,227.5 149.167,227.5 148.5,227.5C 147.515,223.366 147.182,219.032 147.5,214.5 Z"/></g>
<g><path style="opacity:1" fill="#231e04" d="M 108.5,207.5 C 109.239,207.369 109.906,207.536 110.5,208C 107.681,211.805 105.514,215.971 104,220.5C 103.333,219.167 103.333,217.833 104,216.5C 105.527,213.447 107.027,210.447 108.5,207.5 Z"/></g>
<g><path style="opacity:1" fill="#ec811c" d="M 53.5,221.5 C 54.7943,223.048 55.4609,225.048 55.5,227.5C 55.5175,232.415 54.5175,237.081 52.5,241.5C 47.8049,237.821 42.8049,234.654 37.5,232C 42.4682,227.851 47.8015,224.351 53.5,221.5 Z"/></g>
<g><path style="opacity:1" fill="#292006" d="M 154.5,215.5 C 153.909,216.151 153.243,216.818 152.5,217.5C 156.019,222.537 159.019,227.87 161.5,233.5C 162.455,235.746 163.122,238.079 163.5,240.5C 162.833,243.167 162.167,245.833 161.5,248.5C 162.308,241.694 160.975,235.361 157.5,229.5C 156.311,228.571 154.978,228.238 153.5,228.5C 152.791,227.596 151.791,227.263 150.5,227.5C 152.042,226.837 153.709,226.17 155.5,225.5C 153.89,223.275 152.557,220.941 151.5,218.5C 151.5,217.5 151.5,216.5 151.5,215.5C 152.5,215.5 153.5,215.5 154.5,215.5 Z"/></g>
<g><path style="opacity:1" fill="#e97f1c" d="M 56.5,242.5 C 55.6236,242.631 54.9569,242.298 54.5,241.5C 55.8629,234.879 57.0296,228.212 58,221.5C 62.8024,226.136 66.6357,231.469 69.5,237.5C 64.8434,238.603 60.5101,240.27 56.5,242.5 Z"/></g>
<g><path style="opacity:1" fill="#fbdf00" d="M 153.5,228.5 C 154.978,228.238 156.311,228.571 157.5,229.5C 160.975,235.361 162.308,241.694 161.5,248.5C 161.768,250.099 161.434,251.432 160.5,252.5C 159.85,252.196 159.183,251.863 158.5,251.5C 149.927,256.722 140.927,257.722 131.5,254.5C 130.246,251.907 128.58,249.573 126.5,247.5C 130.604,239.727 136.604,234.06 144.5,230.5C 147.402,229.422 150.402,228.756 153.5,228.5 Z"/></g>
<g><path style="opacity:1" fill="#cd7119" d="M 33.5,222.5 C 34.8032,225.355 34.8032,228.355 33.5,231.5C 32.0981,231.135 31.0981,230.301 30.5,229C 31.9056,227.022 32.9056,224.855 33.5,222.5 Z"/></g>
<g><path style="opacity:1" fill="#fade00" d="M 57.5,252.5 C 56.71,253.609 56.21,254.942 56,256.5C 55.5172,255.552 55.3505,254.552 55.5,253.5C 49.4908,253.666 43.4908,253.499 37.5,253C 33.106,251.418 29.4393,248.918 26.5,245.5C 26.2217,240.661 26.8884,235.994 28.5,231.5C 40.2517,234.295 50.085,240.295 58,249.5C 58.4696,250.577 58.3029,251.577 57.5,252.5 Z"/></g>
<g><path style="opacity:1" fill="#dabf00" d="M 120.5,244.5 C 124.613,247.278 127.613,250.944 129.5,255.5C 128.51,259.487 126.51,262.82 123.5,265.5C 111.92,266.931 101.254,264.098 91.5,257C 83.8333,252 77.5,245.667 72.5,238C 74.2395,236.483 75.9062,234.983 77.5,233.5C 77.56,232.957 77.8933,232.624 78.5,232.5C 90.8812,242.757 104.881,246.757 120.5,244.5 Z"/></g>
<g><path style="opacity:1" fill="#201704" d="M 140.5,211.5 C 140.5,211.833 140.5,212.167 140.5,212.5C 135.93,214.257 131.597,216.59 127.5,219.5C 130.897,221.526 134.23,223.526 137.5,225.5C 140.313,225.025 142.313,226.025 143.5,228.5C 143.328,229.492 143.662,230.158 144.5,230.5C 136.604,234.06 130.604,239.727 126.5,247.5C 128.58,249.573 130.246,251.907 131.5,254.5C 130.695,259.45 128.362,263.45 124.5,266.5C 124.5,265.833 124.167,265.5 123.5,265.5C 126.51,262.82 128.51,259.487 129.5,255.5C 127.613,250.944 124.613,247.278 120.5,244.5C 115.137,239.807 109.47,235.474 103.5,231.5C 103.667,231.167 103.833,230.833 104,230.5C 106.586,232.545 109.42,234.211 112.5,235.5C 114.253,232.995 115.753,230.329 117,227.5C 118.98,225.101 121.147,223.101 123.5,221.5C 128.038,216.392 133.704,213.059 140.5,211.5 Z"/></g>
<g><path style="opacity:1" fill="#ea801c" d="M 123.5,221.5 C 124.765,222.514 125.431,224.014 125.5,226C 126.234,230.833 126.9,235.666 127.5,240.5C 123.378,240.303 119.378,239.47 115.5,238C 114.978,237.439 114.645,236.772 114.5,236C 116.889,230.707 119.889,225.874 123.5,221.5 Z"/></g>
<g><path style="opacity:1" fill="#e97f1c" d="M 137.5,225.5 C 139.319,226.584 140.985,227.918 142.5,229.5C 137.986,232.591 133.653,235.925 129.5,239.5C 127.508,233.572 126.841,227.572 127.5,221.5C 130.64,223.406 133.973,224.74 137.5,225.5 Z"/></g>
<g><path style="opacity:1" fill="#da791b" d="M 118.5,241.5 C 121.312,240.641 123.979,241.308 126.5,243.5C 126,244.5 125.5,245.5 125,246.5C 123.242,244.235 121.075,242.568 118.5,241.5 Z"/></g>
<g><path style="opacity:1" fill="#e27c1b" d="M 56.5,242.5 C 59.8728,241.865 63.2062,241.365 66.5,241C 63.9552,243.376 61.6218,245.876 59.5,248.5C 56.4787,247.227 55.4787,245.227 56.5,242.5 Z"/></g>
<g><path style="opacity:1" fill="#dac000" d="M 26.5,245.5 C 29.4393,248.918 33.106,251.418 37.5,253C 43.4908,253.499 49.4908,253.666 55.5,253.5C 55.3505,254.552 55.5172,255.552 56,256.5C 56.21,254.942 56.71,253.609 57.5,252.5C 57.7808,258.892 60.1141,264.392 64.5,269C 63.3048,272.56 61.4715,275.726 59,278.5C 55.1886,275.059 50.6886,273.059 45.5,272.5C 46.7366,271.719 47.7366,270.719 48.5,269.5C 42.2338,265.403 36.4005,260.737 31,255.5C 28.676,252.52 27.176,249.187 26.5,245.5 Z"/></g>
<g><path style="opacity:1" fill="#dbc100" d="M 160.5,252.5 C 158.963,257.06 156.296,260.893 152.5,264C 148.916,266.041 145.416,268.208 142,270.5C 141.508,271.549 141.674,272.549 142.5,273.5C 137.045,274.392 132.711,277.059 129.5,281.5C 124.623,277.444 122.956,272.444 124.5,266.5C 128.362,263.45 130.695,259.45 131.5,254.5C 140.927,257.722 149.927,256.722 158.5,251.5C 159.183,251.863 159.85,252.196 160.5,252.5 Z"/></g>
<g><path style="opacity:1" fill="#4e4b4b" d="M 40.5,274.5 C 46.0236,273.898 51.1902,274.898 56,277.5C 56.6667,279.167 56.6667,280.833 56,282.5C 51.7174,287.739 46.5507,290.739 40.5,291.5C 42.8833,286.612 46.2166,282.445 50.5,279C 47.7348,279.72 45.4015,281.387 43.5,284C 38.7269,286.898 33.7269,288.898 28.5,290C 31.535,286.63 34.8683,283.63 38.5,281C 35.5415,280.985 33.2082,282.319 31.5,285C 29.1214,285.614 26.788,285.947 24.5,286C 29.7355,281.916 35.0688,278.083 40.5,274.5 Z"/></g>
<g><path style="opacity:1" fill="#4c4a49" d="M 140.5,275.5 C 142.199,275.34 143.866,275.506 145.5,276C 151.412,279.192 157.412,282.192 163.5,285C 157.384,285.572 152.051,283.738 147.5,279.5C 147.167,279.833 146.833,280.167 146.5,280.5C 150.858,283.013 154.858,286.013 158.5,289.5C 159.833,290.167 159.833,290.833 158.5,291.5C 151.742,289.286 145.408,286.286 139.5,282.5C 141.434,285.989 144.267,289.322 148,292.5C 148.374,293.416 148.874,294.25 149.5,295C 141.951,293.154 135.618,289.154 130.5,283C 132.966,279.275 136.299,276.775 140.5,275.5 Z"/></g>
</svg>
