<?xml version="1.0" encoding="UTF-8"?>
<!-- Created with Inkscape (http://www.inkscape.org/) -->
<svg version="1.1" viewBox="0 0 85.325 89.245" xmlns="http://www.w3.org/2000/svg">
 <g transform="translate(-1.3348 -1.8586)">
  <g fill="#7fccec">
   <path d="m31.736 55.834c3.3927 0 8.1524 2.3977 8.1524 8.1524 0 6.5242-2.0852 10.7-6.4539 10.7-5.2764 0-9.4545-2.7614-9.4545-7.8693 0-6.8308 1.6758-10.983 7.7561-10.983"/>
   <path d="m40.756 16.846c-3.078 10.26 4.7986 20.296 13.286 22.419 9.4844 2.3719 21.616-2.2202 24.231-12.681 2.7569-11.027-3.2388-21.84-15.474-23.929-9.2919-1.5861-18.629 2.8121-22.042 14.191"/>
   <path d="m67.856 38.284s1.4153 3.963 1.2455 7.8127c-0.16984 3.8497-0.73598 7.9825-0.73598 7.9825s3.3402 1.3587 8.0391 1.1889c4.6989-0.16984 9.3412-1.019 9.3412-1.3587 0-0.33968-2.2645-2.4344-2.2645-2.4344s2.6608-1.472 2.6608-2.0381c0-0.56614-1.019-1.0757-1.019-1.0757s0.90582-1.2455 0.8492-1.5852c-0.05662-0.33968-4.0196-1.3021-4.0196-1.3021s-3.963-3.1137-6.9635-5.2651c-3.0005-2.1513-4.4725-3.0571-4.4725-3.0571z"/>
   <path d="m26.358 57.306s-0.50952-0.22645-0.90582 0.11322c-0.3963 0.33968-1.019 1.2455-1.1889 2.0947s-0.45291 2.0381-0.45291 2.0381-1.1323-0.96243-1.9249-1.472c-0.79259-0.50952-1.472-1.0757-1.6418-0.96243-0.16984 0.11322 0.22645 4.4159 0.62275 6.001 0.39629 1.5852 1.5852 6.3407 1.9249 7.1899 1.2093 3.0236 5.0219 4.1133 6.9069 3.7365 4.0929-0.81886 5.977-4.8543 5.7746-8.0958-0.05662-0.90581-1.2926-5.8158-1.6418-6.9635-0.39629-1.3021-1.8682-4.4725-2.1513-4.4725s-3.0571 2.8873-3.0571 2.8873-1.8682-1.8682-2.2645-2.0947"/>
   <path d="m43.342 73.271s0.16984 1.472-0.22645 2.1513c-0.3963 0.67937-1.472 1.8682-1.8682 2.9439-0.3963 1.0757-0.62275 2.2645-0.05662 3.3968 1.6445 3.2886 4.5359 8.7751 5.8878 8.7751 0.3963 0 2.0947-3.3402 2.0947-3.3402s2.6042 2.2645 2.9439 2.1513c0.33968-0.11323 0.96243-3.0571 0.96243-3.0571s2.7175 0.3963 3.0005 0.16985c0.28307-0.22646-0.50952-2.7175-1.472-4.5291 0 0 3.8497-2.2646 5.6047-7.0201 1.755-4.7555 1.8116-8.0957 1.8116-8.0957s-6.0577 4.5857-10.19 5.7746c-4.1328 1.1889-8.492 0.67937-8.492 0.67937"/>
   <path d="m23.357 30.641c-3.9534-5.535-11.499-6.5196-16.531-2.7175-6.0966 4.6061-6.1048 12.185-2.491 16.927 0.90582 1.1889 3.5667 4.7555 5.0386 6.5106 1.472 1.755 6.2275 6.001 7.5296 6.9635 1.3021 0.96243 3.227 2.2079 3.227 2.2079s-0.11322-1.5852 0.11322-1.4153c0.22646 0.16984 3.5667 2.2645 3.5667 2.2645l0.3963-1.4153s-2.2645-3.0005-2.2645-7.473c0-7.4164 4.1328-14.436 4.1328-14.436s0.11322-3.4534-2.7175-7.4164"/>
  </g>
  <path d="m28.283 34.66s-3.1704 3.51-5.0386 10.134c-1.8682 6.6238-1.3587 12.512 0.96243 15.172 0 0 0.67936-2.5476 1.2455-2.5476 0.56614 0 1.1323-0.11322 1.1323-0.11322s1.472-0.50952 1.8116-0.8492c0.33968-0.33968 3.6233-3.1137 4.5291-5.8878 0.90582-2.7741 0.96243-5.8878 0.96243-5.8878s-2.3212-3.4534-3.0571-4.8688c-0.73598-1.4153-2.5476-5.1518-2.5476-5.1518" fill="#cf7100"/>
  <path d="m47.324 35.83-0.56614 0.15127s0.60418 1.0566 0.49095 2.5286c-0.11322 1.472-0.59286 3.785-2.1894 5.3593-2.7175 2.6799-7.0953 2.6423-7.0953 2.6423s0.15127 3.6228-0.90582 5.6233c-1.0571 2.0005-3.1323 3.7365-3.1323 3.7365s5.8878 1.6608 5.8878 8.4545c0 5.3217-1.2084 7.0577-1.2084 7.0577s2.2274 2.0381 6.4168 2.0381c15.377 0 24.136-12.059 24.136-25.684 0-1.6418-0.28307-6.1709-1.3021-9.4545 0 0-4.1894 1.5852-8.6619 1.5852-7.4164 0-11.87-4.0386-11.87-4.0386" fill="#eee4b7"/>
  <path d="m36.68 24.507s0.2645-1.0566 1.0951-1.6228c0.82973-0.56614 1.962-0.90582 1.962-0.90582s0.33968 2.0757 0.79259 3.3212 1.1703 3.5857 1.1703 3.5857l-0.33968 0.11322s-1.8492-1.8492-2.453-2.4534c-0.60418-0.60373-2.2274-2.0381-2.2274-2.0381" fill="#eeeeef"/>
  <path d="m33.85 44.473s1.019 1.2455 1.8497 1.5095c0.83063 0.26405 2.3026 0.64177 2.3026 0.64177s-0.07609 2.491-0.37773 3.7365c-0.30164 1.2455-1.019 2.9815-1.7736 3.7741-0.75545 0.79259-1.7365 1.9625-1.7365 1.9625s-1.3207-0.49005-2.9059-0.30164c-1.5852 0.18841-2.7935 0.52809-2.7935 0.52809s2.0381-1.5476 3.1704-3.51c1.1323-1.9625 2.0381-4.5286 2.0761-5.6233 0.03804-1.0947 0.18841-2.7175 0.18841-2.7175" fill="#eeeeef"/>
  <path d="m45.55 19.903s-1.1703-0.86823-1.2455-1.3587c-0.07518-0.4905-0.15082-2.755 0.37773-4.1518 0.52809-1.3963 1.472-2.1889 1.472-2.1889s-0.56614 1.6984-0.67936 3.51c-0.11322 1.8116 0.07518 4.1894 0.07518 4.1894" fill="#fff"/>
  <path d="m68.837 25.715s1.3968-0.83018 2.4158-3.7741c1.019-2.9439 1.5471-5.737 1.5471-5.737l0.33968-0.11322s0.60418 2.6418 0.07609 4.9064c-0.529 2.2645-1.51 4.2655-1.7745 4.4159-0.26359 0.15127-0.79214 0.30254-1.1694 0.33968-0.37773 0.03804-1.4348-0.03759-1.4348-0.03759" fill="#fff"/>
  <path d="m45.814 19.677c-0.40354-0.96651-0.66804-3.5558-0.2645-5.0196 0.94386-3.4226 2.3547-6.0232 4.0381-5.8126 1.2029 0.15082 1.5209 4.4589 0.94386 7.1714-0.37773 1.7736-1.8116 4.9444-2.3778 4.982-0.56614 0.03759-2.1513-0.86823-2.3397-1.3211" fill="#c6000d"/>
  <path d="m70.385 12.355c-2.0204-0.36052-4.607 2.3175-5.3978 6.1143-0.37682 1.8116-0.60328 5.2841-0.52809 5.5481 0.07518 0.26404 1.5852 1.019 2.4158 1.2455 0.82973 0.22646 1.962 0.34014 2.3397 0.15082 0.37772-0.18841 2.0381-2.9439 2.7926-5.4349 0.75545-2.491 0.79259-5.5857 0.56614-5.9254-0.22645-0.33968-1.1318-1.5095-2.1885-1.6984" fill="#c6000d"/>
  <path d="m45.663 28.716s1.2455-1.472 2.0381-1.755c0.79259-0.28307 3.0571-0.45291 3.0571-0.45291s2.2645 2.0381 3.3402 2.2079c1.0757 0.16984 4.9254-0.62275 6.2275-0.73598 1.3021-0.11322 5.2084 0.50952 5.8312 0.79259 0.62275 0.28307 1.472 1.2455 1.5852 1.6984 0.11322 0.45291 0.11322 1.6418 0.11322 1.6418s-0.73598 1.1323-2.8873 2.1513c-3.9969 1.8936-7.0962 2.3728-10.813 1.472-1.8682-0.45291-4.5857-1.8116-6.3973-3.8497-1.8116-2.0381-2.0947-3.1704-2.0947-3.1704" fill="#ed8599"/>
  <path d="m45.663 28.716s-0.90582-1.5286-1.1323-2.3212c-0.22646-0.79259-0.3963-2.6608-0.3963-2.6608s2.0947 0.56614 2.9439 0.8492c0.8492 0.28307 2.4344 0.8492 2.6608 1.019 0.22645 0.16984 0.8492 0.73598 0.8492 0.73598s-2.0947 0.11322-2.8873 0.62275c-0.79259 0.50952-2.0381 1.755-2.0381 1.755" fill="#923000"/>
  <path d="m66.271 28.603s0.03352 0.03035 0.09013 0.08378c0.28941 0.26948 1.1834 1.1228 1.3252 1.5014 0.16984 0.45291 0.16984 1.9249 0.16984 1.9249s0.8492-0.90582 1.2455-1.4153c0.3963-0.50952 0.79259-1.4153 0.79259-1.4153z" fill="#923000"/>
  <path d="m48.686 12.091c-0.5761-0.11413-1.553 1.0621-1.8384 2.7455-0.42302 2.4978-0.03895 3.5644 0.66487 3.6328 0.62003 0.06024 1.462-0.88453 1.8755-3.0499 0.28986-1.5258 0.02989-3.1839-0.70201-3.3284" fill="#0f141b"/>
  <path d="m69.242 15.582c-0.66306-0.21468-1.7641 0.82112-2.2292 2.779-0.46876 1.9765-0.23415 3.7677 0.6454 4.0146 0.87955 0.24684 1.8769-1.1735 2.2876-3.0263 0.54077-2.4412 0.05979-3.52-0.70382-3.7673" fill="#0f141b"/>
  <path d="m71.932 14.883c0 1.1255-0.91261 2.0381-2.0381 2.0381-1.1255 0-2.0381-0.91261-2.0381-2.0381 0-1.1255 0.91261-2.0381 2.0381-2.0381 1.1255 0 2.0381 0.91261 2.0381 2.0381" fill="#fff"/>
  <path d="m50.479 10.009c0.30436 0.05434 0.66668 3.8244 0.22917 3.9566-0.1866 0.05662-0.38588 0.08742-0.59105 0.08742-1.1259 0-2.0381-0.91261-2.0381-2.0381 0-1.1259 0.91216-2.0381 2.0381-2.0381 0.1232 0 0.24412 0.01091 0.36187 0.03216" fill="#fff"/>
  <g fill="#6db2cd">
   <path d="m69.271 50.739c3.1137 1.5852 10.304 3.0005 16.191 3.0005 0 0-2.1513 1.472-9.3412 1.472-7.1899 0-7.473-1.1323-7.473-1.1323z"/>
   <path d="m48.985 73.308c-5.6614 4.982 1.9303 10.735 4.0762 9.6624 0.90582-0.45291 0.64132-0.35871 0.64132-0.35871s2.0381 3.6423 1.7736 3.6799c-0.26359 0.0376-2.3397-0.22645-2.3397-0.22645s-0.71696 2.6042-1.019 3.2836c0 0-2.0381-1.51-2.3778-1.9249-0.33968-0.41487-0.33968-0.60372-0.79259-0.0376-0.45291 0.56613-1.5471 2.9434-1.9629 3.1323 0 0-2.5662-2.2645-3.6985-4.4534-1.1323-2.1889-2.4158-5.0576-2.3778-6.3031 0.03804-1.2455 0.75455-2.453 1.2455-2.9815 0.49095-0.52854 0.90582-1.0942 1.019-1.6228 0.11322-0.52854 0.33968-1.774 0.33968-1.774s1.3968 0.18841 2.2645 0.15082c0.86777-0.0376 3.2084-0.22646 3.2084-0.22646"/>
   <path d="m20.753 63.722c-0.19883-0.89631-0.30164-1.9625-0.07518-2.0381 0.22646-0.07563 3.0947 1.962 3.6233 1.8868 0.52809-0.07518 1.1323-3.3968 1.5852-3.5476 0.45291-0.15082 2.4149 1.8121 3.0191 1.6608 0.60418-0.15127 2.0381-2.7175 2.3397-2.7175 0.30254 0 4.8978 11.239 1.51 15.474-0.90582 1.1323-4.6043 2.5671-6.7936 1.0571-2.1894-1.51-3.2455-2.6418-3.6985-4.3026-0.45291-1.6608-1.3587-6.7936-1.51-7.473"/>
   <path d="m35.548 66.892c0.98191 0 3.5481-1.3587 4.2274-2.3402 0 0 0.60373 3.9254-0.60418 6.1143-1.2075 2.1889-2.4149 3.246-3.6985 3.6233-1.2835 0.37727-2.8687 0.37727-2.8687 0.37727s2.0381-1.8873 2.4158-3.3968c0.37773-1.5096 0.52809-4.3778 0.52809-4.3778"/>
  </g>
  <path d="m40.002 65.005c7.8711 3.4154 21.385 1.4796 25.665-2.6418 0 0-7.3969 11.171-19.89 11.171-3.51 0-7.1714-2.1513-7.1714-2.1513s0.86823-1.019 1.2455-3.0571c0.37772-2.0381 0.15127-3.3212 0.15127-3.3212" fill="#c8c09a"/>
  <path d="m33.661 48.474c0.11322 1.6984 3.0191 3.6233 2.6042 4.6423 0 0 0.90582-1.5471 1.3587-2.755s0.33968-3.8497 0.33968-3.8497-1.6984-0.18886-2.2645-0.52854c-0.56614-0.33968-2.1513-1.6984-2.1513-1.6984s0.33968 1.8492 0.22646 2.3778c-0.11322 0.52854-0.11322 1.8116-0.11322 1.8116" fill="#c8c9ca"/>
  <path d="m22.225 50.059c-0.28307 2.4344 7.8503 5.3969 9.3598 2.755 0 0-1.8302 2.6232-3.3588 3.4158-1.5286 0.79259-1.8682 1.0757-1.8682 1.0757s-0.62275-0.22645-0.90582 0.11322c-0.28307 0.33968-1.2455 2.5476-1.2455 2.5476s-1.4153-1.5286-2.0381-4.4159c-0.62275-2.8873 0.05662-5.4915 0.05662-5.4915" fill="#a95b00"/>
  <path d="m22.716 57.23c-6.0391-3.3212-9.5872-9.1334-10.115-9.5863l3.5481-1.6608c-6.1143 2.491-14.493-4.6043-14.04-9.0582 0 0-0.529 3.246 1.2075 6.3407 1.7365 3.0947 2.4158 3.3212 2.4158 3.3212s2.717 4.3778 6.2646 7.6994c3.5481 3.3216 8.0772 5.9634 8.0772 5.9634s-0.01903-0.67936 0.07518-0.90582c0.09466-0.22646 1.51 0.60418 2.0381 0.98145 0.529 0.37727 1.6232 1.2265 1.6232 1.2265l0.33968-1.3777s-0.45291-0.60328-0.75454-1.2075c-0.30254-0.60418-0.67936-1.7365-0.67936-1.7365" fill="#6db2cd"/>
  <path d="m47.097 35.868c0.529 0.981 3.7745 4.9068 7.6243 5.8878 3.8497 0.981 9.7375-0.37727 11.248-2.5666 0 0-4.001 0.755-7.2465 0.755-6.3407 0-11.625-4.0762-11.625-4.0762" fill="#c8c09a"/>
  <g fill="#0f141b">
   <path d="m55.169 39.037c-4.6432-0.85962-8.6922-3.5372-11.402-7.5391-2.6749-3.9503-3.7718-8.8068-2.9348-12.992 2.222-11.111 11.147-16.95 21.89-15.248 12.854 2.0376 16.999 12.802 15.096 22.952-1.4837 7.911-10.565 15.064-22.65 12.827m-15.337-20.682c-2.0277 10.137 5.9494 19.727 15.196 21.439 12.552 2.3243 22.485-4.6731 24.037-12.947 2.3769-12.676-4.7324-22.833-16.078-24.684-11.184-1.8239-20.844 4.636-23.155 16.191"/>
   <path d="m50.683 7.7689c0.56568 0.44023 0.94296 1.3587 0.99957 2.3021 0.0317 0.53262 0.66895 0.5145 0.66895-0.01856 0-1.1105-0.4991-2.1137-1.3483-2.6423-0.55934-0.34783-0.83788-0.04483-0.32021 0.3587"/>
   <path d="m65.693 12.422c-0.37456 0.8261 0.32519 1.1445 0.70156 0.31885 0.29484-0.64992 1.8855-1.7731 2.8479-1.7731 1.0766 0 1.0861-0.34104 0.01675-0.4674-1.3904-0.1635-3.0802 0.85237-3.5662 1.9217"/>
   <path d="m71.146 25.068c-0.10824 0.13406-0.54485 0.2097-1.1481 0.22374 1.2056-1.4162 2.5376-5.1029 2.982-7.656 0.10598 2.2781-0.42483 5.0164-1.8338 7.4322m-6.4155-1.1078c0-4.5622 1.298-8.7407 3.2301-10.398 0.75726-0.64947 1.5974-0.90853 2.4969-0.7704 0.73598 0.11368 1.346 0.69657 1.784 1.5865 0.7002 3.1871-2.5911 10.839-3.4806 10.839-0.02491 0-0.03487 0.01091-0.03623 0.02763-0.93661-0.08424-1.9892-0.27356-2.861-0.58153-0.92484-0.327-1.1332-0.62411-1.1332-0.70246m5.8421-12.087c-3.3506-0.51541-6.4159 4.0612-6.4159 12.068 0 1.5743 6.7814 3.0127 7.6546 1.515 3.8389-6.5812 1.7618-13.122-1.2387-13.583"/>
   <path d="m52.174 24.13c-0.35735 0.25997 0.90582 1.6418 1.1323 1.472 0.22646-0.16984-0.28307-1.0566-0.39629-1.2079-0.11324-0.15082-0.52809-0.41486-0.73598-0.26404"/>
   <path d="m56.08 26.225c-0.12048-0.21015 0.59422-0.76406 0.82067-0.87728 0.22691-0.11368 0.73643-0.11368 0.84966 0.14131 0.11322 0.25499-1.5571 0.9339-1.6703 0.73598"/>
   <path d="m50.764 25.907c-0.43887-0.36459-0.84468-0.63498-1.274-0.79893-1.4751-0.56206-5.0296-1.6355-5.8185-2.1513-0.23461-0.15308-0.52537-0.52492-0.6309-0.95881-0.19294-0.79531-0.6925-0.75138-0.56614 0.13225 0.09376 0.66034 0.33561 1.1119 0.72737 1.4375 0.69703 0.57836 4.4245 1.6907 5.8778 2.1871 0.31522 0.10689 0.76632 0.36233 1.0707 0.64404 1.4008 1.298 2.9842 2.5449 3.9485 2.7134 1.7836 0.3116 5.0386-0.74866 6.7751-0.74866 0.75455 0 9.7629 1.5947 10.407 1.3714 0.7473-0.25861 1.4797-1.0104 1.8963-1.5 0.53443-0.62818 0.04257-0.96696-0.50952-0.33968-0.34557 0.39267-0.87276 0.73643-1.428 0.92801-0.52718 0.17709-8.2244-1.2269-10.442-1.2269-2.2546 0-5.7374 0.79621-6.5332 0.64675-0.59105-0.11096-1.7677-0.89585-3.5005-2.3361"/>
   <path d="m44.045 23.237c-0.21196 0.01767-0.36867 0.20426-0.351 0.41622 0.53896 6.3303 5.8806 11.618 10.337 12.405 7.1895 1.2686 12.748-0.95836 16.522-6.6197 0.11866-0.17663 0.07065-0.41577-0.10643-0.53398-0.17709-0.11775-0.41622-0.0702-0.53398 0.10689-3.5893 5.3833-8.8874 7.4988-15.747 6.2886-4.1817-0.73779-9.195-5.7297-9.704-11.713-0.01812-0.21151-0.20426-0.36912-0.41668-0.35055"/>
   <path d="m50.56 26.168c-1.6187-0.07473-3.7931 0.25454-4.982 2.3212-0.04257 0.07428 0.226 0.61958 0.34602 0.4434 1.2337-1.8026 3.4398-2.2528 4.9471-2.0852 0.21151 0.02354-0.18116-0.67348-0.31115-0.67936"/>
   <path d="m65.928 29.083c0.9271 0.29258 1.9 1.6921 1.6644 2.7777-0.04529 0.20788 0.61867-0.09104 0.64086-0.29575 0.11322-1.0571-0.49095-2.1894-1.51-2.7555-0.31251-0.17301-0.99821 0.20879-0.79531 0.27356"/>
   <path d="m39.921 21.535c-1.7192 0.23144-2.8275 1.0666-3.5263 2.6776-0.0317 0.07292 0.59014 0.65083 0.65355 0.44748 0.28578-0.91488 1.7582-2.0426 2.7247-2.3116 0.13859-0.0385 0.22872-0.82429 0.1481-0.81342"/>
   <path d="m27.987 34.287c-6.2153 8.0165-8.7461 19.135-4.064 26.189 0.11775 0.17709 0.59059-0.32609 0.47782-0.5059-3.4978-5.5966-1.6676-16.778 4.0698-25.032 0.048-0.06884-0.38271-0.78172-0.48371-0.65174"/>
   <path d="m67.406 38.5c1.7949 4.5911 1.5326 13.569-0.59422 19.736-4.3774 12.694-20.591 17.657-27.735 13.087-0.17935-0.11505-0.59422 0.53352-0.41577 0.64811 7.7189 4.9394 24.713 0.11911 29.338-13.292 2.2002-6.3815 2.1531-15.732 0.30888-20.566-0.0317-0.08378-0.92122 0.33787-0.90219 0.38678"/>
   <path d="m45.864 42.802c6.1066 5.9961 13.601 7.7511 18.199 7.257 2.169-0.2328 3.7931-0.96243 4.8217-2.1332 0.12998-0.14765-0.18071-1.0471-0.29575-0.86823-0.67891 1.0566-2.3569 1.8008-4.6034 2.0422-4.472 0.48054-11.804-1.068-17.748-7.0124-0.15036-0.15036-0.43072 0.65853-0.37365 0.71469"/>
   <path d="m60.981 49.492c-0.59965 5.9005-5.1423 16.957-9.3924 20.971-0.15444 0.14584 0.3732 0.70473 0.529 0.5598 4.6989-4.3751 9.2846-15.188 9.6297-21.452 0.0122-0.21241-0.74458-0.28986-0.76632-0.0779"/>
   <path d="m42.64 45.282c0.0095 0.06613 0.02039 0.13406 0.0308 0.20426 0.43796 2.7677 2.1663 8.8055 3.0734 11.048-0.76451 0.78444-3.9625 3.775-6.3081 5.6962-0.05481 0.04484-0.24593 1.4593 0.27944 1.0358 2.7052-2.1789 6.713-6.3317 6.7538-6.3733 0.10689-0.11141 0.13768-0.27673 0.07654-0.41894-0.8714-2.0331-2.602-8.8276-2.977-11.454-0.03035-0.2106-0.93163 0.24321-0.92892 0.26178"/>
   <path d="m45.937 56.915c5.2705 4.65 14.811 5.9032 19.809 4.467 0.18116-0.05164 0.43525-0.9647 0.23687-0.88861-3.8986 1.4887-14.643 0.16169-19.536-4.1559-0.15942-0.14085-0.66895 0.4366-0.50952 0.57746"/>
   <path d="m39.637 68.345c3.2967 2.198 10.213 2.6799 11.845 2.7646-0.15807 0.57565-0.28669 1.2011-0.32791 1.4815l0.95971-0.27355c0.11141-0.75455 0.19022-1.356 0.11232-1.669-0.04167-0.16622-0.18841-0.28534-0.36006-0.29168-0.08288-3e-3 -8.4309-0.59059-11.921-2.9176-0.17709-0.11775-0.41939 0.83155-0.30798 0.90582"/>
   <path d="m69.85 37.408c2.8262 1.649 9.7624 6.449 11.789 8.2583 0.05253 0.04665 0.11639 0.0779 0.18479 0.09149 1.5571 0.29348 3.3461 0.79893 3.6677 1.111-0.12908 0.48778-1.5064 2.5023-2.7704 4.1649-0.20653 0.27356-0.09647 0.41713 0.08244 0.54576 1.1468 0.82339 2.5032 1.9185 2.4394 2.135-0.12003 0.29303-10.108 2.1658-16.8-0.31749-0.19973-0.07428-0.40898 1.0421-0.20924 1.1155 7.1659 2.6599 17.241 0.51315 17.771-0.41305 0.19384-0.33787-0.42528-1.4271-2.4362-2.9104 0.96696-1.2867 2.7129-3.7021 2.7129-4.376 0-0.24457-0.01313-0.98508-4.2098-1.7908-2.1821-1.9181-8.2167-6.4893-11.007-8.1732-0.12273-0.07337-1.3361 0.48778-1.2138 0.55889"/>
   <path d="m85.003 48.854c0.27673 0.04619 0.79984 0.24276 0.83426 0.50454 0.0222 0.24774-1.361 1.1046-2.4158 1.4226-0.15218 0.04574 0.03669 0.90038 0.17346 0.86324 1.38-0.37772 3.0648-1.6558 3.0648-2.2645 0-0.59512-0.88091-1.2899-1.4045-1.3777-0.2097-0.03487-0.44023 0.82067-0.25227 0.85192"/>
   <path d="m43.013 73.271c0 0.8021-0.05843 1.9783-0.71514 2.7129-0.96605 1.0802-2.1635 3.3678-1.7586 4.8448 1.1454 4.1785 5.2112 10.276 6.5106 10.276 0.22646 0 0.79259-0.16984 2.2387-3.3982 0.37274 0.29619 1.4289 1.1364 2.0712 1.6468 0.63407 0.50364 0.88272 0.62637 1.3293-0.2962 0.4751-0.98101 0.73009-2.5775 0.73009-3.4158 0-0.76541-0.55527-0.7935-0.55527-0.0281 0 0.67257-0.54892 3.1138-0.91578 3.2229-0.36912 0.0607-2.5354-2.015-2.5354-2.015-0.34149-0.2713-0.40716-0.19657-0.57791 0.11735-0.66306 1.2152-1.5299 3.0059-1.8325 3.0444-0.92348 0.14584-5.6229-8.1601-5.6595-9.8589-0.02354-1.0874 0.86324-2.7333 1.5707-3.6776 0.68299-0.9099 0.85373-2.1264 0.86868-3.0336 9.05e-4 -0.048-0.76904-0.35417-0.76904-0.1413"/>
   <path d="m54.193 82.329c0.70337 1.0159 1.6889 3.6518 1.5268 3.7686-0.20607 0.16622-1.9588-0.15626-2.4706-0.25907-0.20834-0.0416-0.35961 0.71334-0.15127 0.75547 0.77085 0.15443 2.9756 0.30253 3.0694 0.30887 0.32111 0.0208 0.44249-0.2183 0.40626-0.44521-0.01766-0.10963-0.56885-3.1681-1.6259-4.6948-0.12139-0.17482-0.8012 0.4991-0.75455 0.56613"/>
   <path d="m61.549 66.99c-0.67574 7.5446-4.001 12.731-8.4051 15.519-0.81297 0.51405-0.5299 1.0204 0.29394 0.5367 5.8507-3.4344 8.892-8.877 9.2661-16.739 0.0095-0.21242-1.14 0.51314-1.1549 0.68253"/>
   <path d="m25.566 57.083m3.3402 2.7256c0.97919-1.2464 2.1998-2.6373 2.6604-2.9584 0.75047 0.92076 3.294 6.8262 3.294 10.948 0 4.2193-1.8864 7.0971-5.0459 7.699-3.044 0.57972-6.2628-1.4008-7.0282-4.3244-0.79667-3.0422-2.1173-9.743-2.2233-11.411 0.76587 0.37908 2.5363 1.6246 2.8791 2.1966 0.23551 0.39222 0.61369 0.43253 0.71016-0.13361 0.30073-1.7686 0.97738-3.7505 1.5639-3.9711 0.3578 0.11639 1.6214 1.106 2.6309 2.005 0.26948 0.24004 0.42845 0.1173 0.55889-0.04936m-0.35146-0.79124c-1.2627-1.4969-2.5241-2.2568-3.0463-2.1269-1.1033 0.27627-1.6884 2.7709-1.9679 4.0576-0.9724-0.91035-3.0087-2.5644-3.6183-2.3212-0.34738 0.13904-0.75953 1.4498 1.9629 12.795 0.79621 3.318 4.6876 5.6351 8.1143 4.982 3.5522-0.67619 5.8507-3.7605 5.8507-8.3788 0-4.3448-3.1758-12.267-4.2274-12.267-0.17075 0-0.981 0.2645-3.068 3.2591"/>
   <path d="m25.922 57.198c-0.18479 0.10553 0.19747 0.77447 0.38226 0.66895 3.2695-1.8687 6.6415-2.2587 9.0201-1.043 2.1853 1.1169 3.5399 3.5685 3.9168 7.0903 0.81071 7.5649-2.4702 10.285-6.146 10.436-0.20698 9e-3 -0.86053 0.77448-0.64766 0.7781 5.2252 0.0806 8.6986-3.256 7.8376-11.296-0.40671-3.7927-2.1821-6.453-4.6106-7.694-2.6101-1.3343-6.2565-0.93752-9.7525 1.0603"/>
   <path d="m37.579 46.454c0.15218 3.1916-1.5358 7.8439-3.8004 9.0795-0.1866 0.10145 0.53806 0.58063 0.62048 0.52945 2.573-1.5838 4.1509-5.4095 3.9494-9.6451-0.01001-0.21287-0.779-0.17618-0.76949 0.03623"/>
   <path d="m33.279 44.14c0.51858 4.4901-1.9289 9.6492-5.424 12.095-0.17392 0.12184 0.94567 0.26631 1.1857 0.07518 3.602-2.8665 5.42-7.059 5.0581-11.695-0.01449-0.1875-0.84422-0.68752-0.81976-0.47601"/>
   <path d="m23.178 44.85c-0.09557 3.3325 1.0286 10.313 2.9353 12.696 0.1327 0.16622 0.88634-0.41396 0.75409-0.58018-2.0571-2.5712-3.3434-11.152-2.7981-13.224 0.05389-0.20607-0.87592 0.56387-0.89132 1.1083"/>
   <path d="m1.3348 37.491c0 5.9816 3.9299 10.955 9.3693 10.955 4.8955 0 9.1999-3.7206 9.1999-9.1053 0-3.9974-3.3393-6.5989-6.2846-6.5536-0.9896 0.01539-1.8261 0.41215-2.2641 1.2509-0.4914 0.9416-0.16984 1.1409 0.48642 0.33832 0.42981-0.52537 1.0748-0.80074 1.8347-0.80935 2.207-0.02582 5.2569 2.6867 5.2569 5.7737 0 4.3665-3.7551 7.9182-8.3707 7.9182-4.4702 0-8.1066-4.3814-8.1066-9.7674 0-6.4358 6.2651-11.428 11.655-11.428 6.0006 0 11.465 5.7886 11.465 12.145 0 0.21332 0.76315-0.48054 0.74866-0.71922-0.39358-6.4703-5.9286-12.306-12.105-12.306-6.4109 0-12.885 4.7315-12.885 12.308"/>
   <path d="m3.3729 44.171c3.5368 5.8104 9.9155 13.16 16.598 16.646 0.18841 0.09828 0.46151-0.86596 0.27265-0.96424-5.6211-2.933-10.518-8.3195-14.097-13.531-0.58652-0.85464-2.8606-2.2931-2.7741-2.1513"/>
  </g>
  <path d="m45.135 33.377c-1.1223-1.443-4.4539-5.2085-5.7374-6.3407-1.2826-1.1323-3.9249-3.2464-4.6043-3.8497-0.67936-0.60373-1.7365-1.2079-1.7365-1.2079s-2.5662-3.6233-3.1704-3.5476c-0.60327 0.07563-1.2075 1.8116-1.3587 2.5666-0.15036 0.75455-0.30164 2.4154-0.30164 2.4154s-1.5852 0.45291-2.491 0.75455c-0.90582 0.30209-1.51 0.75545-1.5852 1.1323-0.07518 0.37773 0.45291 2.0381 0.75455 2.5666 0.30254 0.52854 1.51 1.9625 1.51 1.9625s2.2645 5.6614 3.1704 7.6243c0.90582 1.9625 3.2455 6.2655 4.5291 7.473 2.8873 2.7161 7.1129 1.6495 9.5863 0 2.0385-1.3592 3.6233-4.9892 3.5481-6.2655-0.07518-1.2831 0-2.5662-2.1133-5.2836" fill="#7fccec"/>
  <path d="m24.037 26.168c0-0.67936 2.3212-0.56614 5.5481 2.5476 0 0-0.28307-3.9063-0.05662-4.1328 0.22646-0.22646 1.755 2.5476 2.0947 3.963 0.33968 1.4153 5.7746 7.0767 11.209 16.758 0 0-1.472 1.2079-4.8688 1.2079-2.1613 0-4.0454-1.5141-4.6989-2.4534-0.90581-1.3021-3.0571-5.5481-4.3592-8.5487-1.3021-3.0005-2.2079-5.4915-2.2079-5.4915z" fill="#6db2cd"/>
  <g fill="#0f141b">
   <path d="m45.668 34.83c-4.52e-4 -4.53e-4 -4.52e-4 -4.53e-4 0 0m-10.762 10.042c-3.6654-3.4453-8.012-14.986-8.0554-15.102-0.01947-0.05164-0.04936-0.09828-0.08832-0.13768-1.1119-1.1114-2.3261-3.5952-2.0956-4.2854 0.12454-0.37501 1.8664-1.1037 3.7265-1.5594 0.1789-0.04393 0.30164-0.20879 0.29303-0.39267-0.08333-1.7446 0.75862-4.2655 1.1943-4.3583 0.36006 0.01313 1.7047 1.423 2.8651 3.0182 0.02672 0.03669 0.06024 0.06839 0.09828 0.09376 5.7642 3.8429 9.1569 8.0989 11.635 11.206l1.1893 1.4756c4.53e-4 4.53e-4 4.53e-4 4.53e-4 0 0 0.8012 0.97013 1.1943 2.1545 1.1943 3.4186 0 1.731-0.73688 3.611-2.1717 5.2954-1.1336 1.3316-3.5205 2.3497-5.8036 2.4761-1.6807 0.0933-3.0943-0.31432-3.9811-1.1481m-6.9893-21.459v0.01857zm18.346 10.927c-3.4299-4.8122-8.0341-9.4169-12.932-12.79-0.96243-1.318-2.6758-3.7007-3.5943-3.5336-1.1517 0.20924-1.7894 3.5626-1.818 5.0979-1.5417 0.26133-4.0766 1.0381-4.391 1.9788-0.36006 1.0825 0.99278 3.3148 2.6273 5.0142 0.33244 0.88317 4.2945 11.925 8.016 15.423 2.0277 1.9049 8.3498 2.0453 11.153-1.2455 2.7333-3.2089 2.8927-7.2031 0.93888-9.945"/>
   <path d="m29.545 23.607c-0.58018 0.33153-0.83788 1.9384-0.27174 4.8257 0.16984 0.86642 0.71242 0.80255 0.61958-0.0779-0.2337-2.2179-0.22328-3.6998 0.14493-3.9417 0.3963-0.18252 2.1812 0.5675 2.6889 1.0757 0.69068 0.69159 1.0154 0.25363 0.33968-0.45291-0.62275-0.65083-2.7197-1.8868-3.5214-1.4289"/>
   <path d="m48.162 20.715c-0.26359 0.02537-1.1232-0.36686-1.9235-0.85736-1.9733-2.7528 0.97013-11.375 3.3792-10.573 0.36821 0.12274 0.78127 0.92303 0.83698 2.8021 0.10643 3.5608-1.1151 8.1564-2.2926 8.6279m-3.4897-2.2854c-0.22646-1.4049 0-3.3579 0.82067-4.7166-0.45291 1.755-0.65083 4.2089-0.3107 5.3923-0.29031-0.25272-0.48054-0.49186-0.50998-0.67574m5.1885-9.8757c-2.3388-0.77855-6.579 4.9566-5.953 9.9712 0.17709 1.4194 3.525 3.0929 4.5105 2.6984 3.2433-1.298 3.4571-11.999 1.4425-12.67"/>
  </g>
 </g>
</svg>
