<?xml version="1.0" encoding="UTF-8"?>
<!DOCTYPE svg PUBLIC "-//W3C//DTD SVG 1.1//EN" "http://www.w3.org/Graphics/SVG/1.1/DTD/svg11.dtd">
<svg xmlns="http://www.w3.org/2000/svg" version="1.1" width="300px" height="300px" style="shape-rendering:geometricPrecision; text-rendering:geometricPrecision; image-rendering:optimizeQuality; fill-rule:evenodd; clip-rule:evenodd" xmlns:xlink="http://www.w3.org/1999/xlink">
<g><path style="opacity:0.844" fill="#0c0c0e" d="M 139.5,12.5 C 144.102,12.384 147.935,14.0507 151,17.5C 154.777,25.9421 157.944,34.6088 160.5,43.5C 181.891,36.7358 203.557,31.0691 225.5,26.5C 246.856,31.0069 267.856,36.8403 288.5,44C 291.754,45.0269 294.754,46.5269 297.5,48.5C 295.393,51.0609 292.726,52.8942 289.5,54C 268.797,61.8442 247.464,66.5109 225.5,68C 215.196,65.5036 204.862,63.5036 194.5,62C 197.87,65.035 200.87,68.3683 203.5,72C 208.451,71.2536 213.451,70.4202 218.5,69.5C 224.195,69.4752 229.028,71.4752 233,75.5C 234.805,78.1221 234.805,80.7887 233,83.5C 229.869,87.6328 226.369,91.4662 222.5,95C 234.936,97.7742 243.269,105.108 247.5,117C 246.67,118.465 246.504,119.965 247,121.5C 258.587,128.922 261.92,139.255 257,152.5C 253.452,161.928 249.119,170.928 244,179.5C 245.563,194.567 239.396,204.734 225.5,210C 222.602,213.905 220.102,218.071 218,222.5C 216.5,224 215,225.5 213.5,227C 203.276,230.779 193.609,235.612 184.5,241.5C 180.806,247.554 177.639,253.888 175,260.5C 163.605,269.566 151.938,278.233 140,286.5C 129.262,281.755 119.595,275.422 111,267.5C 108.02,261.558 104.854,255.725 101.5,250C 96.8333,248 92.1667,246 87.5,244C 83.4691,239.436 79.8025,234.603 76.5,229.5C 73.6277,228.042 70.6277,226.875 67.5,226C 64.9627,223.094 62.796,219.927 61,216.5C 52.7816,211.288 45.4483,204.955 39,197.5C 38.2387,190.469 38.4054,183.469 39.5,176.5C 34.4188,168.437 30.5855,159.77 28,150.5C 28.5851,140.49 29.5851,130.49 31,120.5C 33.8922,117.943 37.0589,115.776 40.5,114C 45.8333,104.667 53.1667,97.3333 62.5,92C 56.5292,86.2702 55.3625,79.7702 59,72.5C 66.4129,68.6365 73.9129,68.6365 81.5,72.5C 84.9846,69.516 88.318,66.3493 91.5,63C 80.2356,65.0522 68.9023,66.7189 57.5,68C 38.6126,63.7045 20.6126,57.0378 3.5,48C 2.64332,47.3109 1.97665,46.4776 1.5,45.5C 2.77863,43.8539 4.4453,42.6872 6.5,42C 24.5202,34.6045 42.8535,28.1045 61.5,22.5C 81.5683,28.9672 101.568,35.6339 121.5,42.5C 124.303,35.4277 127.303,28.4277 130.5,21.5C 133.854,18.8123 136.854,15.8123 139.5,12.5 Z"/></g>
<g><path style="opacity:1" fill="#cddfef" d="M 149.5,33.5 C 149.167,34.1667 148.833,34.8333 148.5,35.5C 145.882,39.2907 143.049,42.9574 140,46.5C 133.974,39.5239 131.974,31.5239 134,22.5C 136.167,20.3333 138.333,18.1667 140.5,16C 144.65,15.6467 147.317,17.48 148.5,21.5C 149.274,25.4649 149.607,29.4649 149.5,33.5 Z"/></g>
<g><path style="opacity:1" fill="#4a5f6f" d="M 152.5,28.5 C 151.833,30.1667 151.167,31.8333 150.5,33.5C 150.337,31.1432 150.503,28.8098 151,26.5C 151.717,27.0442 152.217,27.7109 152.5,28.5 Z"/></g>
<g><path style="opacity:1" fill="#81789e" d="M 287.5,47.5 C 263.003,48.3321 238.337,48.8321 213.5,49C 198.782,50.5142 184.116,52.3475 169.5,54.5C 169.957,55.2975 170.624,55.6309 171.5,55.5C 175.833,56.6095 180.166,57.6095 184.5,58.5C 188.139,64.7455 190.806,71.4122 192.5,78.5C 186.541,81.9579 180.707,85.6246 175,89.5C 166.772,84.1371 157.939,79.9704 148.5,77C 139.023,75.4165 130.023,76.7498 121.5,81C 117.026,83.9734 112.693,87.1401 108.5,90.5C 101.357,84.4273 93.6903,79.0939 85.5,74.5C 92.9557,64.5162 102.622,58.0162 114.5,55C 112.866,54.5065 111.199,54.3398 109.5,54.5C 76.2747,48.7339 42.9413,45.4005 9.5,44.5C 24.9719,38.509 40.6385,33.009 56.5,28C 59.5,27.3333 62.5,27.3333 65.5,28C 85.3055,34.9003 105.305,41.2336 125.5,47C 129.887,54.8734 133.554,63.04 136.5,71.5C 139.939,71.4113 142.772,70.0779 145,67.5C 147.861,63.1122 150.194,58.4455 152,53.5C 153.5,50.6667 155.667,48.5 158.5,47C 178.409,41.3559 198.409,36.0226 218.5,31C 226.678,30.3749 234.678,31.3749 242.5,34C 257.706,37.9378 272.706,42.4378 287.5,47.5 Z"/></g>
<g><path style="opacity:1" fill="#8fb5d3" d="M 148.5,35.5 C 148.833,34.8333 149.167,34.1667 149.5,33.5C 149.833,33.5 150.167,33.5 150.5,33.5C 151.167,31.8333 151.833,30.1667 152.5,28.5C 154.762,33.9764 155.928,39.6431 156,45.5C 150.75,50.9889 146.75,57.3223 144,64.5C 142.972,66.3615 141.472,67.6948 139.5,68.5C 134.447,60.228 129.78,51.728 125.5,43C 126.91,38.0113 128.744,33.178 131,28.5C 131.329,36.1524 133.662,43.1524 138,49.5C 139.122,67.8371 140.122,67.5038 141,48.5C 145.207,44.7108 147.707,40.3774 148.5,35.5 Z"/></g>
<g><path style="opacity:1" fill="#665e7f" d="M 9.5,44.5 C 42.9413,45.4005 76.2747,48.7339 109.5,54.5C 95.7197,57.8325 81.7197,60.6659 67.5,63C 46.273,62.0403 26.273,56.3736 7.5,46C 8.0442,45.2828 8.71087,44.7828 9.5,44.5 Z"/></g>
<g><path style="opacity:1" fill="#655d7e" d="M 287.5,47.5 C 292.764,48.3929 292.764,49.5596 287.5,51C 268.852,57.6916 249.685,62.1916 230,64.5C 211.52,61.1143 193.02,57.7809 174.5,54.5C 173.274,54.5195 172.274,54.8529 171.5,55.5C 170.624,55.6309 169.957,55.2975 169.5,54.5C 184.116,52.3475 198.782,50.5142 213.5,49C 238.337,48.8321 263.003,48.3321 287.5,47.5 Z"/></g>
<g><path style="opacity:1" fill="#645c7c" d="M 184.5,58.5 C 190.104,62.2693 194.938,66.9359 199,72.5C 199.749,73.635 199.583,74.635 198.5,75.5C 196.473,76.5133 194.473,77.5133 192.5,78.5C 190.806,71.4122 188.139,64.7455 184.5,58.5 Z"/></g>
<g><path style="opacity:1" fill="#13151b" d="M 113.5,57.5 C 124.73,58.7165 127.563,64.3831 122,74.5C 118.562,79.0809 114.062,80.5809 108.5,79C 103.845,76.1034 102.345,71.9367 104,66.5C 106.294,62.4612 109.461,59.4612 113.5,57.5 Z"/></g>
<g><path style="opacity:1" fill="#158ad1" d="M 116.5,60.5 C 113.924,62.8875 112.924,65.8875 113.5,69.5C 117.112,70.0762 120.112,69.0762 122.5,66.5C 121.14,75.1887 116.14,78.3553 107.5,76C 104.308,70.4994 105.308,65.8327 110.5,62C 112.345,60.872 114.345,60.372 116.5,60.5 Z"/></g>
<g><path style="opacity:1" fill="#f7f9fa" d="M 116.5,60.5 C 120.167,60.8333 122.167,62.8333 122.5,66.5C 120.112,69.0762 117.112,70.0762 113.5,69.5C 112.924,65.8875 113.924,62.8875 116.5,60.5 Z"/></g>
<g><path style="opacity:1" fill="#090d12" d="M 160.5,57.5 C 171.669,57.1668 176.835,62.5001 176,73.5C 173.103,78.1549 168.937,79.6549 163.5,78C 157.24,74.2351 155.073,68.7351 157,61.5C 158.376,60.2949 159.542,58.9616 160.5,57.5 Z"/></g>
<g><path style="opacity:1" fill="#0d89d0" d="M 163.5,59.5 C 172.649,60.802 175.816,65.802 173,74.5C 164.69,78.2601 159.856,75.5934 158.5,66.5C 164.041,71.1404 166.541,69.807 166,62.5C 164.955,61.6266 164.122,60.6266 163.5,59.5 Z"/></g>
<g><path style="opacity:1" fill="#f2f6f7" d="M 163.5,59.5 C 164.122,60.6266 164.955,61.6266 166,62.5C 166.541,69.807 164.041,71.1404 158.5,66.5C 158.241,62.7632 159.907,60.4298 163.5,59.5 Z"/></g>
<g><path style="opacity:1" fill="#fdfdfd" d="M 236.5,106.5 C 237.063,111.874 235.063,116.041 230.5,119C 216.079,125.698 201.079,127.198 185.5,123.5C 154.286,136.365 123.619,135.365 93.5,120.5C 83.2814,123.505 72.9481,124.005 62.5,122C 54.4575,119.414 50.7908,113.914 51.5,105.5C 55.2873,101.015 59.7873,97.3479 65,94.5C 67.1847,95.9284 69.1847,97.5951 71,99.5C 71.6667,98.8333 71.6667,98.1667 71,97.5C 64.1236,92.0844 60.7903,85.0844 61,76.5C 65.4941,72.142 70.6608,71.3086 76.5,74C 88.0687,79.0789 98.7354,85.5789 108.5,93.5C 114.502,88.344 121.168,84.1774 128.5,81C 136.485,79.0931 144.485,79.0931 152.5,81C 160.375,84.1871 167.875,88.0205 175,92.5C 183.439,86.6958 192.272,81.5292 201.5,77C 208.894,73.9668 216.561,72.9668 224.5,74C 228.77,74.9117 230.604,77.4117 230,81.5C 225.365,88.3015 219.865,94.3015 213.5,99.5C 214.852,100.034 216.185,99.5339 217.5,98C 224.808,98.6538 231.141,101.487 236.5,106.5 Z"/></g>
<g><path style="opacity:1" fill="#d8d9d9" d="M 51.5,105.5 C 50.7908,113.914 54.4575,119.414 62.5,122C 72.9481,124.005 83.2814,123.505 93.5,120.5C 123.619,135.365 154.286,136.365 185.5,123.5C 201.079,127.198 216.079,125.698 230.5,119C 235.063,116.041 237.063,111.874 236.5,106.5C 243.618,111.947 244.285,118.114 238.5,125C 230.281,129.429 221.448,131.596 212,131.5C 203.516,131.07 195.182,129.736 187,127.5C 160.947,143.569 133.78,145.736 105.5,134C 101.293,131.11 97.1268,128.276 93,125.5C 84.0916,127.485 75.0916,128.818 66,129.5C 58.2722,130.072 51.6056,127.738 46,122.5C 43.2319,115.365 45.0652,109.698 51.5,105.5 Z"/></g>
<g><path style="opacity:1" fill="#81789e" d="M 140.5,144.5 C 140.5,145.167 140.5,145.833 140.5,146.5C 138.262,145.463 135.929,145.297 133.5,146C 130.5,148.167 127.5,150.333 124.5,152.5C 115.355,149.063 106.188,145.73 97,142.5C 96.3333,143.167 96.3333,143.833 97,144.5C 98.4194,145.46 99.9194,146.293 101.5,147C 108.748,148.805 115.748,151.305 122.5,154.5C 121.389,155.611 120.722,156.945 120.5,158.5C 121.402,161.974 123.068,164.974 125.5,167.5C 124.957,167.56 124.624,167.893 124.5,168.5C 127.743,172.894 129.41,177.894 129.5,183.5C 129.253,184.713 128.586,185.38 127.5,185.5C 127.666,181.486 127.499,177.486 127,173.5C 126.215,178.345 124.882,183.012 123,187.5C 119.333,190.001 116.166,193.001 113.5,196.5C 112.839,197.718 112.172,199.051 111.5,200.5C 104.676,197.255 98.0089,193.755 91.5,190C 86.8452,189.501 82.1785,189.334 77.5,189.5C 77.8016,186.941 77.4682,184.607 76.5,182.5C 70.1511,172.311 62.1511,163.477 52.5,156C 51.1667,155.333 49.8333,155.333 48.5,156C 45.7866,159.924 43.4532,164.091 41.5,168.5C 40.8333,169.833 40.1667,169.833 39.5,168.5C 33.9927,159.523 31.4927,149.857 32,139.5C 33.1268,136.623 33.7935,133.623 34,130.5C 36.9122,133.544 40.4122,134.711 44.5,134C 40.5598,132.114 37.0598,129.614 34,126.5C 34.1377,122.362 36.3044,120.196 40.5,120C 43.68,125.509 48.3467,129.175 54.5,131C 67.1383,132.119 79.6383,131.286 92,128.5C 96.1965,130.354 100.03,132.854 103.5,136C 114.982,142.453 127.315,145.287 140.5,144.5 Z"/></g>
<g><path style="opacity:1" fill="#81799e" d="M 218.5,187.5 C 216.847,187.66 215.514,188.326 214.5,189.5C 211.447,189.911 208.447,190.577 205.5,191.5C 204.702,191.043 204.369,190.376 204.5,189.5C 205.447,187.266 206.114,184.932 206.5,182.5C 206.167,181.5 205.833,180.5 205.5,179.5C 202.193,181.64 199.026,183.974 196,186.5C 195.503,188.81 195.337,191.143 195.5,193.5C 193.516,193.617 191.85,192.95 190.5,191.5C 187.5,193 184.5,194.5 181.5,196C 170.321,198.641 158.988,199.974 147.5,200C 146.449,201.385 145.116,202.385 143.5,203C 138.976,204.089 134.476,205.256 130,206.5C 125.502,205.085 121.002,203.751 116.5,202.5C 116.338,200.473 116.505,198.473 117,196.5C 121.407,193.596 124.907,189.929 127.5,185.5C 128.586,185.38 129.253,184.713 129.5,183.5C 129.41,177.894 127.743,172.894 124.5,168.5C 124.624,167.893 124.957,167.56 125.5,167.5C 128.296,170.797 131.296,173.964 134.5,177C 136.167,177.667 137.833,177.667 139.5,177C 146.031,171.096 150.364,163.929 152.5,155.5C 156.514,155.666 160.514,155.499 164.5,155C 171.798,152.513 179.131,150.346 186.5,148.5C 178.498,147.867 170.831,149.367 163.5,153C 158.833,153.667 154.167,153.667 149.5,153C 146.824,150.334 143.824,148.167 140.5,146.5C 140.5,145.833 140.5,145.167 140.5,144.5C 157.653,144.608 173.32,139.942 187.5,130.5C 203.925,134.596 220.258,134.429 236.5,130C 239.52,127.999 242.52,126.332 245.5,125C 248.35,127.682 251.016,130.516 253.5,133.5C 249.334,136.417 245.001,139.084 240.5,141.5C 244.732,141.071 248.732,139.404 252.5,136.5C 254.218,144.454 253.385,152.12 250,159.5C 247.255,165.325 244.255,170.992 241,176.5C 239.619,174.365 238.619,172.032 238,169.5C 236.951,168.483 235.784,168.316 234.5,169C 228.957,175.039 223.624,181.205 218.5,187.5 Z"/></g>
<g><path style="opacity:1" fill="#151318" d="M 55.5,136.5 C 65.9132,134.946 76.2465,135.946 86.5,139.5C 85.8333,139.833 85.1667,140.167 84.5,140.5C 74.8587,138.599 65.192,137.265 55.5,136.5 Z"/></g>
<g><path style="opacity:1" fill="#141318" d="M 224.5,140.5 C 225.978,140.238 227.311,140.571 228.5,141.5C 220.732,143.478 212.898,145.145 205,146.5C 204.167,146.167 203.333,145.833 202.5,145.5C 209.943,143.784 217.277,142.118 224.5,140.5 Z"/></g>
<g><path style="opacity:1" fill="#131316" d="M 140.5,146.5 C 143.824,148.167 146.824,150.334 149.5,153C 154.167,153.667 158.833,153.667 163.5,153C 170.831,149.367 178.498,147.867 186.5,148.5C 179.131,150.346 171.798,152.513 164.5,155C 160.514,155.499 156.514,155.666 152.5,155.5C 150.364,163.929 146.031,171.096 139.5,177C 137.833,177.667 136.167,177.667 134.5,177C 131.296,173.964 128.296,170.797 125.5,167.5C 123.068,164.974 121.402,161.974 120.5,158.5C 120.722,156.945 121.389,155.611 122.5,154.5C 115.748,151.305 108.748,148.805 101.5,147C 99.9194,146.293 98.4194,145.46 97,144.5C 96.3333,143.833 96.3333,143.167 97,142.5C 106.188,145.73 115.355,149.063 124.5,152.5C 127.5,150.333 130.5,148.167 133.5,146C 135.929,145.297 138.262,145.463 140.5,146.5 Z"/></g>
<g><path style="opacity:1" fill="#cee0f0" d="M 147.5,161.5 C 143.89,162.703 140.223,163.703 136.5,164.5C 136.5,163.833 136.167,163.5 135.5,163.5C 135.5,162.5 135.5,161.5 135.5,160.5C 136.378,156.664 137.044,152.664 137.5,148.5C 141.929,149.743 145.762,152.077 149,155.5C 149.738,157.881 149.238,159.881 147.5,161.5 Z"/></g>
<g><path style="opacity:1" fill="#99c2e3" d="M 135.5,160.5 C 135.5,161.5 135.5,162.5 135.5,163.5C 135.82,166.898 135.487,170.232 134.5,173.5C 129.891,169.389 126.224,164.556 123.5,159C 126.654,154.512 130.488,150.679 135,147.5C 135.499,151.821 135.666,156.154 135.5,160.5 Z"/></g>
<g><path style="opacity:1" fill="#141318" d="M 219.5,157.5 C 220.787,158.871 221.453,160.705 221.5,163C 221.401,167.714 220.568,172.214 219,176.5C 219.189,170.195 219.355,163.862 219.5,157.5 Z"/></g>
<g><path style="opacity:1" fill="#cbddec" d="M 72.5,182.5 C 71.7095,183.401 70.7095,184.068 69.5,184.5C 64.718,185.727 60.3847,187.727 56.5,190.5C 55.5514,191.152 54.3847,191.486 53,191.5C 51.3189,191.392 50.1522,190.725 49.5,189.5C 49.1681,179.145 49.5014,168.812 50.5,158.5C 54.7767,161.273 58.61,164.607 62,168.5C 66.1259,172.78 69.6259,177.446 72.5,182.5 Z"/></g>
<g><path style="opacity:1" fill="#9ac3e4" d="M 147.5,161.5 C 145.26,166.298 142.26,170.631 138.5,174.5C 136.974,171.346 136.307,168.013 136.5,164.5C 140.223,163.703 143.89,162.703 147.5,161.5 Z"/></g>
<g><path style="opacity:1" fill="#384753" d="M 48.5,189.5 C 47.8333,180.833 47.1667,172.167 46.5,163.5C 46.7828,162.711 47.2828,162.044 48,161.5C 48.4998,170.827 48.6665,180.161 48.5,189.5 Z"/></g>
<g><path style="opacity:1" fill="#111014" d="M 127.5,185.5 C 124.907,189.929 121.407,193.596 117,196.5C 116.505,198.473 116.338,200.473 116.5,202.5C 117.335,208.172 117.835,213.839 118,219.5C 114.884,212.214 113.384,204.547 113.5,196.5C 116.166,193.001 119.333,190.001 123,187.5C 124.882,183.012 126.215,178.345 127,173.5C 127.499,177.486 127.666,181.486 127.5,185.5 Z"/></g>
<g><path style="opacity:1" fill="#1b1d1f" d="M 235.5,175.5 C 236.65,180.316 236.816,185.316 236,190.5C 235.617,191.056 235.117,191.389 234.5,191.5C 234.179,185.974 234.512,180.64 235.5,175.5 Z"/></g>
<g><path style="opacity:1" fill="#9dc7e8" d="M 234.5,173.5 C 234.833,174.167 235.167,174.833 235.5,175.5C 234.512,180.64 234.179,185.974 234.5,191.5C 234.694,193.912 236.027,194.912 238.5,194.5C 238.019,197.455 236.519,199.789 234,201.5C 234.263,200.049 234.096,198.716 233.5,197.5C 230.4,200.889 227.067,204.055 223.5,207C 222.207,207.49 220.873,207.657 219.5,207.5C 219.139,201.407 219.639,195.407 221,189.5C 224.989,183.683 229.489,178.349 234.5,173.5 Z"/></g>
<g><path style="opacity:1" fill="#141317" d="M 204.5,189.5 C 203.691,191.292 203.191,193.292 203,195.5C 197.095,198.447 196.428,197.78 201,193.5C 200.963,189.841 202.129,186.674 204.5,184C 202.583,184.027 200.916,184.861 199.5,186.5C 198.889,189.427 197.556,191.76 195.5,193.5C 195.337,191.143 195.503,188.81 196,186.5C 199.026,183.974 202.193,181.64 205.5,179.5C 205.833,180.5 206.167,181.5 206.5,182.5C 206.114,184.932 205.447,187.266 204.5,189.5 Z"/></g>
<g><path style="opacity:1" fill="#cbddec" d="M 238.5,194.5 C 236.027,194.912 234.694,193.912 234.5,191.5C 235.117,191.389 235.617,191.056 236,190.5C 236.816,185.316 236.65,180.316 235.5,175.5C 235.167,174.833 234.833,174.167 234.5,173.5C 234.639,171.663 235.306,171.33 236.5,172.5C 240.629,179.643 241.296,186.977 238.5,194.5 Z"/></g>
<g><path style="opacity:1" fill="#9ec8ea" d="M 46.5,163.5 C 47.1667,172.167 47.8333,180.833 48.5,189.5C 48.8333,189.5 49.1667,189.5 49.5,189.5C 50.1522,190.725 51.3189,191.392 53,191.5C 54.3847,191.486 55.5514,191.152 56.5,190.5C 61.5061,189.829 65.8394,187.829 69.5,184.5C 70.7095,184.068 71.7095,183.401 72.5,182.5C 73.8232,192.674 73.8232,203.007 72.5,213.5C 65.5,206.833 58.5,200.167 51.5,193.5C 50.479,194.002 50.3123,194.668 51,195.5C 56.1667,202 62,207.833 68.5,213C 64.3017,213.05 60.3017,212.05 56.5,210C 51.6329,205.468 47.1329,200.634 43,195.5C 42.3333,187.5 42.3333,179.5 43,171.5C 44.0764,168.763 45.243,166.096 46.5,163.5 Z"/></g>
<g><path style="opacity:1" fill="#171a1c" d="M 69.5,184.5 C 65.8394,187.829 61.5061,189.829 56.5,190.5C 60.3847,187.727 64.718,185.727 69.5,184.5 Z"/></g>
<g><path style="opacity:1" fill="#665e7f" d="M 76.5,182.5 C 77.4682,184.607 77.8016,186.941 77.5,189.5C 82.1785,189.334 86.8452,189.501 91.5,190C 98.0089,193.755 104.676,197.255 111.5,200.5C 112.172,199.051 112.839,197.718 113.5,196.5C 113.384,204.547 114.884,212.214 118,219.5C 117.835,213.839 117.335,208.172 116.5,202.5C 121.002,203.751 125.502,205.085 130,206.5C 134.476,205.256 138.976,204.089 143.5,203C 145.116,202.385 146.449,201.385 147.5,200C 158.988,199.974 170.321,198.641 181.5,196C 184.5,194.5 187.5,193 190.5,191.5C 191.85,192.95 193.516,193.617 195.5,193.5C 197.556,191.76 198.889,189.427 199.5,186.5C 200.916,184.861 202.583,184.027 204.5,184C 202.129,186.674 200.963,189.841 201,193.5C 196.428,197.78 197.095,198.447 203,195.5C 203.191,193.292 203.691,191.292 204.5,189.5C 204.369,190.376 204.702,191.043 205.5,191.5C 208.447,190.577 211.447,189.911 214.5,189.5C 215.514,188.326 216.847,187.66 218.5,187.5C 216.538,194.676 216.038,202.009 217,209.5C 218.067,210.191 219.234,210.691 220.5,211C 217.993,215.682 214.993,220.015 211.5,224C 204.221,226.973 197.221,230.473 190.5,234.5C 190.167,234.167 189.833,233.833 189.5,233.5C 195.108,228.684 194.774,224.518 188.5,221C 181.628,219.203 176.295,221.203 172.5,227C 164.397,228.692 156.397,230.692 148.5,233C 145.08,238.507 141.414,243.841 137.5,249C 133.274,251.864 128.774,254.03 124,255.5C 118.118,254.268 112.284,252.768 106.5,251C 104.19,245.63 102.19,240.13 100.5,234.5C 91.0296,230.43 81.363,226.93 71.5,224C 62.0466,215.877 62.7133,214.044 73.5,218.5C 74.086,218.291 74.586,217.957 75,217.5C 76.1049,205.858 76.6049,194.192 76.5,182.5 Z"/></g>
<g><path style="opacity:1" fill="#141318" d="M 214.5,189.5 C 215.239,189.369 215.906,189.536 216.5,190C 215.024,192.643 213.024,194.81 210.5,196.5C 209.479,195.998 209.312,195.332 210,194.5C 211.707,192.963 213.207,191.296 214.5,189.5 Z"/></g>
<g><path style="opacity:1" fill="#8aafcb" d="M 178.5,244.5 C 178.631,243.761 178.464,243.094 178,242.5C 174.885,243.975 171.718,245.308 168.5,246.5C 168.364,241.016 169.197,235.682 171,230.5C 174.037,228.973 176.537,226.807 178.5,224C 180.81,223.503 183.143,223.337 185.5,223.5C 183.695,233.151 184.695,233.651 188.5,225C 189.965,224.399 190.965,224.899 191.5,226.5C 186.655,232.214 182.322,238.214 178.5,244.5 Z"/></g>
<g><path style="opacity:1" fill="#645c7c" d="M 81.5,229.5 C 87.2184,231.63 92.8851,233.964 98.5,236.5C 100.297,239.279 100.797,242.279 100,245.5C 90.8559,243.517 84.6892,238.184 81.5,229.5 Z"/></g>
<g><path style="opacity:1" fill="#9ec9eb" d="M 166.5,247.5 C 166.324,250.727 165.657,253.727 164.5,256.5C 164.103,255.475 163.437,255.308 162.5,256C 154.273,263.323 147.107,271.49 141,280.5C 140.275,281.059 139.442,281.392 138.5,281.5C 128.9,277.112 120.4,271.112 113,263.5C 107.962,255.046 110.128,253.213 119.5,258C 128.466,258.189 136.133,255.023 142.5,248.5C 144.579,244.007 146.912,239.674 149.5,235.5C 155.352,233.939 161.186,232.272 167,230.5C 167.5,230.833 168,231.167 168.5,231.5C 166.912,236.705 166.246,242.039 166.5,247.5 Z"/></g>
<g><path style="opacity:1" fill="#0c0b0f" d="M 118.5,238.5 C 119.117,238.611 119.617,238.944 120,239.5C 120.995,242.126 121.328,244.793 121,247.5C 119.097,244.829 118.264,241.829 118.5,238.5 Z"/></g>
<g><path style="opacity:1" fill="#cedfef" d="M 178.5,244.5 C 176.1,249.632 173.434,254.632 170.5,259.5C 163.755,264.622 156.922,269.622 150,274.5C 149.333,273.833 149.333,273.167 150,272.5C 154.671,266.997 159.504,261.664 164.5,256.5C 165.657,253.727 166.324,250.727 166.5,247.5C 167.167,247.167 167.833,246.833 168.5,246.5C 171.718,245.308 174.885,243.975 178,242.5C 178.464,243.094 178.631,243.761 178.5,244.5 Z"/></g>
</svg>
