<?xml version="1.0" encoding="UTF-8"?>
<!DOCTYPE svg PUBLIC "-//W3C//DTD SVG 1.1//EN" "http://www.w3.org/Graphics/SVG/1.1/DTD/svg11.dtd">
<svg xmlns="http://www.w3.org/2000/svg" version="1.1" width="300px" height="300px" style="shape-rendering:geometricPrecision; text-rendering:geometricPrecision; image-rendering:optimizeQuality; fill-rule:evenodd; clip-rule:evenodd" xmlns:xlink="http://www.w3.org/1999/xlink">
<g><path style="opacity:0.645" fill="#0c0c08" d="M 234.5,104.5 C 234.737,105.791 234.404,106.791 233.5,107.5C 232.331,103.656 229.998,100.656 226.5,98.5C 224.076,100.542 223.076,103.209 223.5,106.5C 223.731,109.973 224.231,113.306 225,116.5C 223.577,114.655 222.41,112.655 221.5,110.5C 220.264,109.754 218.93,109.421 217.5,109.5C 217.5,111.5 217.5,113.5 217.5,115.5C 218.601,116.848 219.601,118.348 220.5,120C 222.779,120.473 224.779,121.473 226.5,123C 222.404,121.315 218.071,120.649 213.5,121C 212.72,122.073 212.887,123.24 214,124.5C 215.812,126.3 217.645,127.967 219.5,129.5C 218.391,129.443 217.391,129.11 216.5,128.5C 214.37,126.185 211.87,124.518 209,123.5C 207.027,123.309 205.527,123.976 204.5,125.5C 205.605,127.611 207.271,128.945 209.5,129.5C 210.5,130.167 211.5,130.833 212.5,131.5C 208.63,132.263 205.63,134.263 203.5,137.5C 202.209,138.542 202.209,139.708 203.5,141C 205.818,142.993 208.484,144.159 211.5,144.5C 213.167,145.167 214.833,145.833 216.5,146.5C 214.405,147.412 212.405,148.579 210.5,150C 208.393,151.264 207.393,153.097 207.5,155.5C 211.363,155.59 215.03,155.09 218.5,154C 214.61,155.936 211.61,158.769 209.5,162.5C 212.535,163.665 215.535,163.498 218.5,162C 220.692,153.778 225.025,146.945 231.5,141.5C 236.299,139.267 240.965,136.767 245.5,134C 261.568,129.912 275.068,134.078 286,146.5C 286.464,145.906 286.631,145.239 286.5,144.5C 286.5,144.167 286.5,143.833 286.5,143.5C 288.582,144.585 288.916,146.085 287.5,148C 298.373,160.658 300.207,174.491 293,189.5C 288.26,195.917 281.927,199.25 274,199.5C 268.276,198.176 262.442,197.343 256.5,197C 253.274,195.894 250.607,194.061 248.5,191.5C 253.803,189.363 257.637,185.697 260,180.5C 260.667,178.167 260.667,175.833 260,173.5C 259.938,177.389 258.771,180.889 256.5,184C 255.167,184.667 253.833,184.667 252.5,184C 251.333,182.167 250.167,180.333 249,178.5C 247.359,182.323 244.526,184.323 240.5,184.5C 240.657,183.127 240.49,181.793 240,180.5C 237.833,182.464 235.499,182.798 233,181.5C 232.922,179.343 232.755,177.343 232.5,175.5C 230.588,177.657 228.921,179.991 227.5,182.5C 226.635,183.583 225.635,183.749 224.5,183C 219.998,177.659 217.998,171.493 218.5,164.5C 214.788,165.418 211.122,165.418 207.5,164.5C 207.081,161.675 208.081,159.509 210.5,158C 204.851,156.559 199.184,155.226 193.5,154C 191.043,152.846 191.043,151.512 193.5,150C 192.167,149.333 190.833,149.333 189.5,150C 190.138,151.707 190.138,153.54 189.5,155.5C 181.728,152.105 173.728,149.605 165.5,148C 168.834,152.779 170.167,157.946 169.5,163.5C 168.522,163.023 167.689,162.357 167,161.5C 166.557,165.071 167.89,167.738 171,169.5C 172.586,171.67 173.92,174.004 175,176.5C 177.799,185.231 180.799,193.897 184,202.5C 185.599,205.378 187.433,208.044 189.5,210.5C 196.299,207.958 203.299,207.124 210.5,208C 212.759,209.715 214.926,211.548 217,213.5C 223.633,226.147 230.3,238.814 237,251.5C 237.667,253.167 237.667,254.833 237,256.5C 231.634,265.036 226.468,273.703 221.5,282.5C 222.273,285.431 223.273,288.264 224.5,291C 221.862,295.195 219.028,295.028 216,290.5C 214.299,288.1 213.466,285.433 213.5,282.5C 215.758,274.288 216.925,265.954 217,257.5C 212.909,251.653 208.576,245.987 204,240.5C 204.722,245.355 205.889,250.188 207.5,255C 204.443,261.608 200.277,267.442 195,272.5C 193.913,276.436 193.08,280.436 192.5,284.5C 191.349,285.731 190.183,285.731 189,284.5C 186.215,280.762 184.382,276.596 183.5,272C 186.243,265.184 189.243,258.518 192.5,252C 192.52,246.528 189.854,243.362 184.5,242.5C 180.381,244.059 176.381,245.893 172.5,248C 173.592,251.55 174.259,255.217 174.5,259C 173.247,265.847 171.913,272.681 170.5,279.5C 171.102,283.677 171.769,287.843 172.5,292C 172.033,296.719 169.7,297.719 165.5,295C 156.883,286.054 154.05,275.554 157,263.5C 156.612,264.428 155.945,265.095 155,265.5C 152.317,264.33 151.817,265.163 153.5,268C 152.95,271.915 152.117,275.748 151,279.5C 149.103,281.016 146.936,281.683 144.5,281.5C 144.665,278.482 144.498,275.482 144,272.5C 142.921,274.394 141.587,274.727 140,273.5C 137.928,260.607 130.762,252.273 118.5,248.5C 116.39,249.054 114.39,249.888 112.5,251C 104.254,258.172 100.42,267.339 101,278.5C 98.3966,281.278 95.23,282.944 91.5,283.5C 91.8984,280.517 92.2317,277.517 92.5,274.5C 91.6447,267.412 90.3114,260.412 88.5,253.5C 88.6667,252.5 88.8333,251.5 89,250.5C 92.1667,246.667 95.3333,242.833 98.5,239C 95.4093,237.372 92.2426,235.872 89,234.5C 82.6667,240.167 76.3333,245.833 70,251.5C 69.3333,252.833 69.3333,254.167 70,255.5C 73.5875,261.763 76.0875,268.43 77.5,275.5C 76.5243,282.823 72.6909,287.823 66,290.5C 64.7202,290.387 63.8869,289.72 63.5,288.5C 65.4829,285.397 66.3163,282.064 66,278.5C 61.3798,271.611 56.0465,265.277 50,259.5C 48.2086,256.009 47.542,252.342 48,248.5C 56.4414,235.061 65.2748,221.894 74.5,209C 78.3065,207.231 82.3065,206.398 86.5,206.5C 94.1874,207.948 101.854,209.615 109.5,211.5C 110.442,211.392 111.275,211.059 112,210.5C 118.281,198.492 122.447,185.825 124.5,172.5C 126.284,173.34 127.284,172.507 127.5,170C 127.333,169.5 127.167,169 127,168.5C 125.989,169.337 124.822,169.67 123.5,169.5C 124.819,163.581 125.486,157.581 125.5,151.5C 114.136,154.206 102.636,156.206 91,157.5C 85.5769,157.5 84.7436,156 88.5,153C 84.1998,151.675 79.8665,150.508 75.5,149.5C 74.3192,151.135 74.3192,152.802 75.5,154.5C 75,154.833 74.5,155.167 74,155.5C 68.5081,152.334 62.6748,150.167 56.5,149C 54.714,148.215 53.214,147.049 52,145.5C 51.338,147.813 50.838,150.146 50.5,152.5C 46.8184,153.275 44.3184,151.941 43,148.5C 42.0508,151.2 40.2175,152.033 37.5,151C 36.2125,149.59 35.0458,148.09 34,146.5C 32.5177,148.781 30.851,148.781 29,146.5C 28,144.167 27,141.833 26,139.5C 22.6667,146.167 19.3333,146.167 16,139.5C 15.5014,135.848 15.3347,132.182 15.5,128.5C 13.2271,129.735 11.3938,129.402 10,127.5C 9.98221,125.203 10.1489,122.869 10.5,120.5C 7.8127,120.664 5.14603,120.497 2.5,120C 1.94149,119.275 1.60816,118.442 1.5,117.5C 3.24847,111.341 6.91513,106.675 12.5,103.5C 1.74016,98.3597 2.40682,94.3597 14.5,91.5C 10.3501,84.4054 10.6834,77.572 15.5,71C 20.3988,67.8538 25.3988,67.6872 30.5,70.5C 31.9471,66.5335 34.6138,65.5335 38.5,67.5C 40.6927,54.5719 48.026,50.0719 60.5,54C 64.9279,57.0925 67.7612,61.2591 69,66.5C 73.152,64.5081 74.9854,65.8415 74.5,70.5C 79.4288,70.2535 84.0954,71.2535 88.5,73.5C 90.4263,68.2828 89.4263,63.7828 85.5,60C 82.4258,61.338 79.0924,61.6714 75.5,61C 73.712,57.5944 74.5453,55.0944 78,53.5C 78.2104,50.7658 79.0437,48.2658 80.5,46C 76.9904,44.0934 75.8238,41.2601 77,37.5C 78.7216,37.0385 80.555,36.8718 82.5,37C 80.3688,35.1119 80.3688,33.6119 82.5,32.5C 87.1667,33.3464 90.5001,35.8464 92.5,40C 91.3849,41.3932 90.8849,42.8932 91,44.5C 93.3469,41.144 96.3469,40.144 100,41.5C 100.597,46.0168 98.7641,49.1835 94.5,51C 97.451,53.0443 99.7844,52.3777 101.5,49C 102.635,48.2506 103.635,48.4173 104.5,49.5C 104.718,56.7756 105.385,64.109 106.5,71.5C 109.338,73.1015 112.338,73.6015 115.5,73C 114.789,71.7453 113.956,70.5786 113,69.5C 111.816,65.144 110.649,60.8107 109.5,56.5C 111.78,56.7463 113.78,56.7463 115.5,56.5C 114.167,54.8333 114.167,53.1667 115.5,51.5C 113.108,50.1076 111.441,48.1076 110.5,45.5C 111.399,42.3027 112.399,39.136 113.5,36C 112.129,33.6813 111.462,31.1813 111.5,28.5C 119.139,29.9931 122.306,34.6598 121,42.5C 122.378,44.854 123.878,44.854 125.5,42.5C 126.442,42.6082 127.275,42.9415 128,43.5C 128.911,40.4245 130.744,38.0911 133.5,36.5C 134.814,37.3128 135.981,38.3128 137,39.5C 138.739,37.2589 140.906,35.5922 143.5,34.5C 144.935,35.8237 145.935,37.4904 146.5,39.5C 152.081,36.0053 154.081,37.3386 152.5,43.5C 155.386,43.7104 158.386,43.8771 161.5,44C 164.017,46.1936 163.684,48.1936 160.5,50C 166.77,50.7148 167.77,53.2148 163.5,57.5C 166.434,58.2704 168.101,56.937 168.5,53.5C 167.23,48.8562 166.063,44.1895 165,39.5C 153.544,35.5004 153.711,32.3337 165.5,30C 166.257,28.4878 167.257,27.1545 168.5,26C 164.787,24.3088 163.621,21.4755 165,17.5C 166.333,16.1667 167.667,16.1667 169,17.5C 169.031,13.2318 170.031,9.23184 172,5.5C 173.264,3.39297 175.097,2.39297 177.5,2.5C 176.865,5.49292 176.699,8.49292 177,11.5C 177.711,7.75166 179.711,6.08499 183,6.5C 184.098,10.5052 183.265,14.0052 180.5,17C 182.749,18.7455 184.416,20.9121 185.5,23.5C 194.68,20.8199 196.347,22.9865 190.5,30C 187.614,30.6061 185.448,32.1061 184,34.5C 183.387,43.0584 184.554,51.3917 187.5,59.5C 187.232,63.1432 185.899,66.3099 183.5,69C 176.068,73.7991 168.902,78.9658 162,84.5C 161.333,87.8333 161.333,91.1667 162,94.5C 168.722,102.072 167.222,104.239 157.5,101C 158.293,104.411 158.793,107.911 159,111.5C 159.333,112.167 159.667,112.833 160,113.5C 161.571,111.077 163.737,109.744 166.5,109.5C 164.297,116.303 162.964,123.303 162.5,130.5C 163.5,130.5 164.5,130.5 165.5,130.5C 165.5,129.5 165.5,128.5 165.5,127.5C 170.174,128.669 174.674,130.336 179,132.5C 178.206,127.722 179.706,123.722 183.5,120.5C 185.046,121.212 186.046,122.378 186.5,124C 187.795,127.514 187.795,131.014 186.5,134.5C 189.29,135.597 192.123,136.597 195,137.5C 199.561,135.47 204.061,133.303 208.5,131C 200.241,126.715 200.574,123.382 209.5,121C 202.923,115.707 201.923,109.541 206.5,102.5C 200.003,101.518 197.17,97.851 198,91.5C 202.61,89.1512 206.61,90.1512 210,94.5C 210.237,88.5362 211.07,82.7028 212.5,77C 213.5,76.3333 214.5,76.3333 215.5,77C 216.211,78.2547 217.044,79.4214 218,80.5C 220.274,76.8482 223.441,75.0149 227.5,75C 228.031,81.5243 225.365,86.5243 219.5,90C 220.797,95.8397 220.131,101.506 217.5,107C 218.766,107.309 219.933,107.809 221,108.5C 222.16,94.1639 226.66,92.8306 234.5,104.5 Z M 97.5,91.5 C 104.428,92.0185 111.261,93.0185 118,94.5C 118.436,96.8474 118.936,99.1807 119.5,101.5C 118.398,104.973 117.398,108.473 116.5,112C 116.833,112.833 117.167,113.667 117.5,114.5C 120.094,113.408 122.261,111.741 124,109.5C 125.631,112.682 126.297,116.015 126,119.5C 124.429,117.077 122.263,115.744 119.5,115.5C 120.092,118.691 121.259,121.691 123,124.5C 124.05,128.803 124.884,133.137 125.5,137.5C 123.488,138.014 121.488,138.18 119.5,138C 122.179,136.211 122.013,135.045 119,134.5C 114.252,135.949 109.419,136.949 104.5,137.5C 103.784,133.104 101.45,129.771 97.5,127.5C 96.2154,124.429 94.5487,121.596 92.5,119C 97.3461,117.094 97.6794,114.427 93.5,111C 96.78,108.892 99.1133,106.059 100.5,102.5C 99.7814,100.272 98.448,98.439 96.5,97C 97.4061,95.3005 97.7394,93.4672 97.5,91.5 Z M 88.5,129.5 C 90.5,129.5 92.5,129.5 94.5,129.5C 94.5029,132.675 95.5029,135.508 97.5,138C 93.8484,138.499 90.1817,138.665 86.5,138.5C 86.7394,136.533 86.4061,134.699 85.5,133C 87.4257,132.578 88.4257,131.411 88.5,129.5 Z M 122.5,148.5 C 123.568,147.566 124.901,147.232 126.5,147.5C 126.649,148.552 126.483,149.552 126,150.5C 125.29,149.027 124.124,148.36 122.5,148.5 Z"/></g>
<g><path style="opacity:1" fill="#008f5b" d="M 188.5,23.5 C 189.978,23.238 191.311,23.5713 192.5,24.5C 190.342,28.9132 187.009,30.5799 182.5,29.5C 184.103,27.0457 186.103,25.0457 188.5,23.5 Z"/></g>
<g><path style="opacity:1" fill="#008d5a" d="M 165.5,18.5 C 169.995,18.7945 171.162,20.7945 169,24.5C 166.545,23.2574 165.378,21.2574 165.5,18.5 Z"/></g>
<g><path style="opacity:1" fill="#008e5b" d="M 180.5,8.5 C 181.898,11.3557 181.398,14.0223 179,16.5C 178.308,15.9747 177.808,15.3081 177.5,14.5C 178.129,12.2592 179.129,10.2592 180.5,8.5 Z"/></g>
<g><path style="opacity:1" fill="#008e5b" d="M 77.5,38.5 C 81.5433,38.8526 83.21,40.8526 82.5,44.5C 79.4182,43.6653 77.7515,41.6653 77.5,38.5 Z"/></g>
<g><path style="opacity:1" fill="#87674d" d="M 179.5,44.5 C 178.957,44.56 178.624,44.8933 178.5,45.5C 179.733,49.2656 180.733,53.0989 181.5,57C 180.699,59.5976 179.366,61.9309 177.5,64C 166.894,70.5396 155.56,73.7063 143.5,73.5C 139.092,82.8712 131.758,86.7046 121.5,85C 120,83.5 118.5,82 117,80.5C 116.655,82.2009 117.322,83.5342 119,84.5C 119.667,86.5 119.667,88.5 119,90.5C 118.478,87.7187 117.311,85.3854 115.5,83.5C 110.768,83.6224 106.102,83.1224 101.5,82C 99.1523,81.6541 97.3189,80.4875 96,78.5C 95.6411,73.1406 95.6411,67.8073 96,62.5C 92.3518,58.5214 88.3518,54.8547 84,51.5C 83.5899,50.0993 83.0899,48.766 82.5,47.5C 83.8249,44.8502 85.1582,42.1835 86.5,39.5C 85.5,38.1667 84.5,36.8333 83.5,35.5C 84.0016,34.479 84.6683,34.3123 85.5,35C 87.2077,36.5095 88.8744,38.0095 90.5,39.5C 89.9169,41.0016 89.0836,42.3349 88,43.5C 87.3333,44.8333 87.3333,46.1667 88,47.5C 90.722,50.4436 93.8887,52.7769 97.5,54.5C 98.4519,56.0453 98.7852,57.712 98.5,59.5C 100.201,59.0338 101.701,59.0338 103,59.5C 103.333,63.8333 103.667,68.1667 104,72.5C 104.833,73.3333 105.667,74.1667 106.5,75C 111.469,75.9683 116.469,76.4683 121.5,76.5C 122.406,77.9649 123.739,78.9649 125.5,79.5C 127.304,79.0143 128.971,78.681 130.5,78.5C 133.915,77.6362 135.248,75.6362 134.5,72.5C 133.702,72.9569 133.369,73.6236 133.5,74.5C 127.405,73.0588 122.739,69.7255 119.5,64.5C 121.443,60.9472 123.11,57.2806 124.5,53.5C 124.124,51.6171 123.124,50.1171 121.5,49C 117.078,47.7559 114.744,44.9226 114.5,40.5C 114.821,39.1825 115.154,37.8492 115.5,36.5C 112.381,29.7073 113.214,29.0406 118,34.5C 118.333,37.5 118.667,40.5 119,43.5C 122.828,46.4148 126.828,49.0814 131,51.5C 130.702,55.2409 129.869,58.9076 128.5,62.5C 127.402,63.6009 127.235,64.9343 128,66.5C 128.671,67.2524 129.504,67.5858 130.5,67.5C 130.866,68.6946 131.699,69.3613 133,69.5C 137.012,67.8942 141.179,67.2275 145.5,67.5C 146.833,67.5 148.167,67.5 149.5,67.5C 154.575,66.4743 159.242,64.4743 163.5,61.5C 163.5,62.5 163.5,63.5 163.5,64.5C 167.887,61.7306 170.22,57.7306 170.5,52.5C 169.344,48.2075 168.344,43.8741 167.5,39.5C 167.437,37.5191 168.104,35.8524 169.5,34.5C 168.833,33.5 168.167,32.5 167.5,31.5C 169,28.5 170.5,25.5 172,22.5C 171.907,18.1739 171.907,13.8405 172,9.5C 172.748,7.66754 173.748,6.00087 175,4.5C 174.68,7.46014 174.68,10.4601 175,13.5C 176.961,16.4628 179.294,19.1294 182,21.5C 182.895,24.4663 182.395,27.1329 180.5,29.5C 181.167,30.5 181.833,31.5 182.5,32.5C 181.712,36.5744 180.712,40.5744 179.5,44.5 Z"/></g>
<g><path style="opacity:1" fill="#008f5b" d="M 124.5,44.5 C 126.686,44.5106 127.519,45.5106 127,47.5C 125.583,46.9221 124.75,45.9221 124.5,44.5 Z"/></g>
<g><path style="opacity:1" fill="#009760" d="M 134.5,40.5 C 134.868,44.0443 133.868,47.0443 131.5,49.5C 130.13,49.1435 129.13,48.3102 128.5,47C 129.545,43.7353 131.211,40.9019 133.5,38.5C 134.298,38.9569 134.631,39.6236 134.5,40.5 Z"/></g>
<g><path style="opacity:1" fill="#009760" d="M 157.5,50.5 C 156.085,51.2894 154.585,51.9561 153,52.5C 151.535,51.6705 150.035,51.5038 148.5,52C 146.294,54.0367 144.294,56.2034 142.5,58.5C 139.275,57.193 135.941,56.193 132.5,55.5C 132.5,53.8333 132.5,52.1667 132.5,50.5C 134.195,48.4649 135.528,46.1316 136.5,43.5C 137.757,40.5726 139.757,38.2393 142.5,36.5C 143.641,38.4213 143.808,40.4213 143,42.5C 141.398,44.3687 140.398,46.3687 140,48.5C 142.19,46.6116 144.023,44.4449 145.5,42C 147.217,40.4412 149.217,39.6079 151.5,39.5C 150.391,43.3217 149.224,46.9883 148,50.5C 151.636,46.0917 156.136,44.7584 161.5,46.5C 160.479,48.188 159.145,49.5213 157.5,50.5 Z"/></g>
<g><path style="opacity:1" fill="#00925d" d="M 159.5,32.5 C 161.857,32.3367 164.19,32.5034 166.5,33C 167.815,34.3946 167.481,35.3946 165.5,36C 163.5,36.6667 161.5,36.6667 159.5,36C 158.316,34.8545 158.316,33.6879 159.5,32.5 Z"/></g>
<g><path style="opacity:1" fill="#00945e" d="M 95.5,42.5 C 96.5,42.5 97.5,42.5 98.5,42.5C 97.8333,46.5 95.5,48.8333 91.5,49.5C 91.5713,46.3477 92.9046,44.0144 95.5,42.5 Z"/></g>
<g><path style="opacity:1" fill="#05301f" d="M 134.5,40.5 C 135.167,41.5 135.833,42.5 136.5,43.5C 135.528,46.1316 134.195,48.4649 132.5,50.5C 131.833,50.5 131.5,50.1667 131.5,49.5C 133.868,47.0443 134.868,44.0443 134.5,40.5 Z"/></g>
<g><path style="opacity:1" fill="#70543e" d="M 114.5,40.5 C 114.744,44.9226 117.078,47.7559 121.5,49C 123.124,50.1171 124.124,51.6171 124.5,53.5C 123.11,57.2806 121.443,60.9472 119.5,64.5C 122.739,69.7255 127.405,73.0588 133.5,74.5C 132.657,76.1733 131.324,77.34 129.5,78C 129.728,78.3988 130.062,78.5654 130.5,78.5C 128.971,78.681 127.304,79.0143 125.5,79.5C 123.739,78.9649 122.406,77.9649 121.5,76.5C 118.379,73.7131 116.045,70.3798 114.5,66.5C 116.185,63.156 117.852,59.8227 119.5,56.5C 119.5,55.1667 119.5,53.8333 119.5,52.5C 117.83,49.9984 115.664,47.9984 113,46.5C 112.595,44.2251 113.095,42.2251 114.5,40.5 Z"/></g>
<g><path style="opacity:1" fill="#00784c" d="M 119.5,52.5 C 119.5,53.8333 119.5,55.1667 119.5,56.5C 118.603,57.5981 117.77,57.5981 117,56.5C 116.51,55.2068 116.343,53.8734 116.5,52.5C 117.5,52.5 118.5,52.5 119.5,52.5 Z"/></g>
<g><path style="opacity:1" fill="#062f1e" d="M 157.5,50.5 C 159.167,51.1667 160.833,51.8333 162.5,52.5C 159.351,52.2114 156.351,52.7114 153.5,54C 152.655,58.1938 150.655,61.6938 147.5,64.5C 147.167,64.3333 146.833,64.1667 146.5,64C 150.207,61.2399 151.207,57.7399 149.5,53.5C 146.088,55.745 143.588,58.745 142,62.5C 141.421,61.0715 141.588,59.7382 142.5,58.5C 144.294,56.2034 146.294,54.0367 148.5,52C 150.035,51.5038 151.535,51.6705 153,52.5C 154.585,51.9561 156.085,51.2894 157.5,50.5 Z"/></g>
<g><path style="opacity:1" fill="#00905c" d="M 101.5,50.5 C 104.216,53.4498 103.716,56.1164 100,58.5C 99.2879,55.5624 99.7879,52.8957 101.5,50.5 Z"/></g>
<g><path style="opacity:1" fill="#89684e" d="M 64.5,90.5 C 59.4643,82.2834 53.7977,74.4501 47.5,67C 45.9751,65.9914 44.3084,65.4914 42.5,65.5C 42.5,64.5 42.5,63.5 42.5,62.5C 45.8602,54.8332 51.5269,52.6666 59.5,56C 66.3829,62.106 69.3829,69.7727 68.5,79C 68.4675,83.5561 67.9675,88.0561 67,92.5C 66.0053,91.9341 65.172,91.2674 64.5,90.5 Z"/></g>
<g><path style="opacity:1" fill="#009a62" d="M 77.5,55.5 C 79.5,55.5 81.5,55.5 83.5,55.5C 83.719,56.675 83.3857,57.675 82.5,58.5C 80.5914,59.3482 78.5914,59.6816 76.5,59.5C 76.4326,58.0413 76.7659,56.7079 77.5,55.5 Z"/></g>
<g><path style="opacity:1" fill="#008958" d="M 162.5,52.5 C 163.776,53.3864 163.776,54.3864 162.5,55.5C 160.333,56.9479 158,58.1146 155.5,59C 157.035,59.4962 158.535,59.3295 160,58.5C 161.059,58.6301 161.892,59.1301 162.5,60C 158.104,62.5269 153.771,65.0269 149.5,67.5C 148.167,67.5 146.833,67.5 145.5,67.5C 140.659,66.4682 135.659,66.4682 130.5,67.5C 129.058,66.1805 128.392,64.5138 128.5,62.5C 130.1,60.2974 131.433,57.964 132.5,55.5C 135.941,56.193 139.275,57.193 142.5,58.5C 141.588,59.7382 141.421,61.0715 142,62.5C 143.588,58.745 146.088,55.745 149.5,53.5C 151.207,57.7399 150.207,61.2399 146.5,64C 146.833,64.1667 147.167,64.3333 147.5,64.5C 150.655,61.6938 152.655,58.1938 153.5,54C 156.351,52.7114 159.351,52.2114 162.5,52.5 Z"/></g>
<g><path style="opacity:1" fill="#008252" d="M 111.5,58.5 C 115.491,58.6478 116.324,60.3145 114,63.5C 112.117,62.3474 111.284,60.6807 111.5,58.5 Z"/></g>
<g><path style="opacity:1" fill="#1b120e" d="M 128.5,62.5 C 128.392,64.5138 129.058,66.1805 130.5,67.5C 129.504,67.5858 128.671,67.2524 128,66.5C 127.235,64.9343 127.402,63.6009 128.5,62.5 Z"/></g>
<g><path style="opacity:1" fill="#08130c" d="M 145.5,67.5 C 141.179,67.2275 137.012,67.8942 133,69.5C 131.699,69.3613 130.866,68.6946 130.5,67.5C 135.659,66.4682 140.659,66.4682 145.5,67.5 Z"/></g>
<g><path style="opacity:1" fill="#241c16" d="M 158.5,65.5 C 160.379,65.3932 160.712,65.8932 159.5,67C 155.526,68.7692 151.526,70.1025 147.5,71C 151.192,69.0578 154.858,67.2245 158.5,65.5 Z"/></g>
<g><path style="opacity:1" fill="#00925d" d="M 69.5,67.5 C 70.5,67.5 71.5,67.5 72.5,67.5C 72.5,68.5 72.5,69.5 72.5,70.5C 71.5,70.5 70.5,70.5 69.5,70.5C 69.5,69.5 69.5,68.5 69.5,67.5 Z"/></g>
<g><path style="opacity:1" fill="#00955f" d="M 33.5,68.5 C 36.6167,67.9273 38.6167,69.094 39.5,72C 38.517,75.5416 36.8504,76.0416 34.5,73.5C 33.5481,71.9547 33.2148,70.288 33.5,68.5 Z"/></g>
<g><path style="opacity:1" fill="#88674e" d="M 40.5,81.5 C 41.463,82.3635 41.463,83.0302 40.5,83.5C 39.3777,82.3698 38.0443,81.7031 36.5,81.5C 35.9569,81.56 35.6236,81.8933 35.5,82.5C 38.3945,90.6537 39.3945,98.987 38.5,107.5C 36.9745,107.006 35.6412,106.339 34.5,105.5C 25.4329,97.7188 19.0995,88.0522 15.5,76.5C 15.8588,74.629 16.8588,73.129 18.5,72C 27.9145,70.5446 35.2479,73.7112 40.5,81.5 Z"/></g>
<g><path style="opacity:1" fill="#89684e" d="M 84.5,106.5 C 84.0618,106.565 83.7284,106.399 83.5,106C 89.8549,101.484 91.6882,95.651 89,88.5C 87.2691,86.3834 85.1024,84.8834 82.5,84C 78.5138,83.5012 74.5138,83.3345 70.5,83.5C 70.5,79.8333 70.5,76.1667 70.5,72.5C 81.4842,71.0883 89.6508,75.0883 95,84.5C 96.6916,91.8067 95.1916,98.3067 90.5,104C 88.7834,105.559 86.7834,106.392 84.5,106.5 Z"/></g>
<g><path style="opacity:1" fill="#735640" d="M 179.5,68.5 C 172.9,73.2535 166.4,78.2535 160,83.5C 159.238,87.5874 159.404,91.5874 160.5,95.5C 155.646,95.0547 150.98,94.0547 146.5,92.5C 147.262,90.0436 147.929,87.5436 148.5,85C 148.167,84.1667 147.833,83.3333 147.5,82.5C 146.702,84.0777 146.202,85.7444 146,87.5C 145.814,84.9644 145.314,82.631 144.5,80.5C 143.79,77.8911 143.457,75.5578 143.5,73.5C 155.56,73.7063 166.894,70.5396 177.5,64C 179.366,61.9309 180.699,59.5976 181.5,57C 180.733,53.0989 179.733,49.2656 178.5,45.5C 178.624,44.8933 178.957,44.56 179.5,44.5C 179.435,44.9382 179.601,45.2716 180,45.5C 180.333,44.8333 180.667,44.1667 181,43.5C 184.035,50.2201 185.035,57.2201 184,64.5C 182.629,66.0414 181.129,67.3747 179.5,68.5 Z"/></g>
<g><path style="opacity:1" fill="#1f1712" d="M 166.5,71.5 C 169.598,71.4125 169.932,71.9125 167.5,73C 161.787,75.2355 156.12,77.2355 150.5,79C 155.773,76.1948 161.106,73.6948 166.5,71.5 Z"/></g>
<g><path style="opacity:1" fill="#271e17" d="M 179.5,68.5 C 171.662,71.1481 171.496,70.4815 179,66.5C 179.464,67.0944 179.631,67.7611 179.5,68.5 Z"/></g>
<g><path style="opacity:1" fill="#1b1510" d="M 130.5,78.5 C 130.062,78.5654 129.728,78.3988 129.5,78C 131.324,77.34 132.657,76.1733 133.5,74.5C 133.369,73.6236 133.702,72.9569 134.5,72.5C 135.248,75.6362 133.915,77.6362 130.5,78.5 Z"/></g>
<g><path style="opacity:1" fill="#745741" d="M 15.5,76.5 C 19.0995,88.0522 25.4329,97.7188 34.5,105.5C 25.2164,102.05 18.7164,95.7167 15,86.5C 14.1925,82.9733 14.3592,79.6399 15.5,76.5 Z"/></g>
<g><path style="opacity:1" fill="#70543f" d="M 82.5,47.5 C 83.0899,48.766 83.5899,50.0993 84,51.5C 88.3518,54.8547 92.3518,58.5214 96,62.5C 95.6411,67.8073 95.6411,73.1406 96,78.5C 97.3189,80.4875 99.1523,81.6541 101.5,82C 106.102,83.1224 110.768,83.6224 115.5,83.5C 116.371,86.1123 117.037,88.779 117.5,91.5C 111.523,90.8587 105.523,90.3587 99.5,90C 98.6919,89.6924 98.0253,89.1924 97.5,88.5C 101.995,88.5202 106.662,88.3535 111.5,88C 106.505,87.8535 101.671,87.0202 97,85.5C 96.1083,82.0482 94.4416,79.0482 92,76.5C 91.6667,72.1667 91.3333,67.8333 91,63.5C 87.4933,59.7885 84.16,56.1218 81,52.5C 80.1231,50.3258 80.6231,48.6591 82.5,47.5 Z"/></g>
<g><path style="opacity:1" fill="#2a353b" d="M 143.5,89.5 C 142.391,89.4431 141.391,89.1098 140.5,88.5C 139.89,87.609 139.557,86.609 139.5,85.5C 139.047,84.5416 138.381,83.7083 137.5,83C 139,81.5 140.5,80 142,78.5C 143.415,81.9582 143.915,85.6249 143.5,89.5 Z"/></g>
<g><path style="opacity:1" fill="#00955f" d="M 224.5,76.5 C 226.225,76.8425 226.725,77.8425 226,79.5C 224.412,83.255 221.912,86.255 218.5,88.5C 218.147,83.4692 220.147,79.4692 224.5,76.5 Z"/></g>
<g><path style="opacity:1" fill="#725640" d="M 42.5,62.5 C 42.5,63.5 42.5,64.5 42.5,65.5C 44.3084,65.4914 45.9751,65.9914 47.5,67C 53.7977,74.4501 59.4643,82.2834 64.5,90.5C 57.8545,85.8545 52.1878,80.1878 47.5,73.5C 47.1667,73.6667 46.8333,73.8333 46.5,74C 48.9554,77.0777 51.2887,80.2444 53.5,83.5C 51.9223,84.2978 50.2556,84.7978 48.5,85C 51.1667,85.3333 53.8333,85.6667 56.5,86C 61.1246,90.6331 66.2913,94.4664 72,97.5C 70.825,94.9248 69.9917,92.0914 69.5,89C 69.6962,87.1216 70.0295,85.2883 70.5,83.5C 74.5138,83.3345 78.5138,83.5012 82.5,84C 85.1024,84.8834 87.2691,86.3834 89,88.5C 91.6882,95.651 89.8549,101.484 83.5,106C 83.7284,106.399 84.0618,106.565 84.5,106.5C 83.2918,107.782 81.9584,107.782 80.5,106.5C 82.1029,103.656 82.6029,100.656 82,97.5C 79.7265,96.1888 77.5598,96.1888 75.5,97.5C 71.7383,101.083 67.7383,104.583 63.5,108C 56.7837,111.638 49.6171,113.804 42,114.5C 32.7629,113.588 25.9295,109.088 21.5,101C 23.5676,101.017 25.2343,102.017 26.5,104C 30.8632,106.684 35.5299,108.518 40.5,109.5C 40.0186,102.127 40.6852,94.9602 42.5,88C 42.3333,86.8333 42.1667,85.6667 42,84.5C 41.7105,86.9519 41.0438,89.2852 40,91.5C 38.8296,88.1427 37.6629,84.8094 36.5,81.5C 38.0443,81.7031 39.3777,82.3698 40.5,83.5C 41.463,83.0302 41.463,82.3635 40.5,81.5C 40.1231,79.742 39.4565,78.0754 38.5,76.5C 38.8333,76.1667 39.1667,75.8333 39.5,75.5C 41.1461,76.7786 42.3128,78.4453 43,80.5C 43.6543,81.6956 44.1543,81.6956 44.5,80.5C 41.5134,74.622 40.8467,68.622 42.5,62.5 Z"/></g>
<g><path style="opacity:1" fill="#d26274" d="M 139.5,85.5 C 139.557,86.609 139.89,87.609 140.5,88.5C 141.473,93.0057 139.806,95.1724 135.5,95C 139.866,93.2376 140.533,90.571 137.5,87C 135.866,86.5065 134.199,86.3398 132.5,86.5C 134.495,84.2893 136.828,83.9559 139.5,85.5 Z"/></g>
<g><path style="opacity:1" fill="#2e1c1d" d="M 132.5,86.5 C 134.199,86.3398 135.866,86.5065 137.5,87C 140.533,90.571 139.866,93.2376 135.5,95C 139.806,95.1724 141.473,93.0057 140.5,88.5C 141.391,89.1098 142.391,89.4431 143.5,89.5C 143.567,90.9587 143.234,92.2921 142.5,93.5C 139.743,97.6938 136.409,98.3605 132.5,95.5C 131.5,94.8333 130.5,94.1667 129.5,93.5C 130.131,91.0656 131.131,88.7323 132.5,86.5 Z"/></g>
<g><path style="opacity:1" fill="#4b382a" d="M 144.5,80.5 C 145.314,82.631 145.814,84.9644 146,87.5C 146.202,85.7444 146.702,84.0777 147.5,82.5C 147.833,83.3333 148.167,84.1667 148.5,85C 147.929,87.5436 147.262,90.0436 146.5,92.5C 145.292,93.2341 143.959,93.5674 142.5,93.5C 143.234,92.2921 143.567,90.9587 143.5,89.5C 144.477,86.7131 144.81,83.7131 144.5,80.5 Z"/></g>
<g><path style="opacity:1" fill="#394950" d="M 120.5,86.5 C 122.764,87.2186 125.097,87.552 127.5,87.5C 127.508,90.5448 127.841,93.5448 128.5,96.5C 126.533,96.7394 124.699,96.4061 123,95.5C 121.698,92.6249 120.865,89.6249 120.5,86.5 Z"/></g>
<g><path style="opacity:1" fill="#c15969" d="M 132.5,86.5 C 131.131,88.7323 130.131,91.0656 129.5,93.5C 127.647,89.8955 128.647,87.5621 132.5,86.5 Z"/></g>
<g><path style="opacity:1" fill="#f1b3c1" d="M 133.5,87.5 C 137.35,87.7007 138.35,89.5341 136.5,93C 131.289,93.5464 130.289,91.713 133.5,87.5 Z"/></g>
<g><path style="opacity:1" fill="#009861" d="M 199.5,92.5 C 203.287,91.8144 206.454,92.8144 209,95.5C 209.667,96.5 209.667,97.5 209,98.5C 203.166,100.843 199.999,98.8432 199.5,92.5 Z"/></g>
<g><path style="opacity:0.558" fill="#04140d" d="M 286.5,143.5 C 286.5,143.833 286.5,144.167 286.5,144.5C 284.37,142.873 282.37,141.04 280.5,139C 283.503,137.834 286.17,136.167 288.5,134C 286.562,132.128 284.229,131.295 281.5,131.5C 278.814,132.012 276.147,132.179 273.5,132C 278.895,130.554 283.395,127.721 287,123.5C 287.483,122.552 287.649,121.552 287.5,120.5C 282.569,120.203 277.902,120.703 273.5,122C 276.4,119.603 278.733,116.77 280.5,113.5C 279.5,113.167 278.5,112.833 277.5,112.5C 270.897,115.793 270.064,114.793 275,109.5C 276.009,107.975 276.509,106.308 276.5,104.5C 271.901,104.138 267.901,105.471 264.5,108.5C 264.826,104.116 264.492,99.7828 263.5,95.5C 262.893,95.6236 262.56,95.9569 262.5,96.5C 258.16,98.674 254.994,102.007 253,106.5C 252.64,98.1458 250.306,97.4792 246,104.5C 245.333,106.5 245.333,108.5 246,110.5C 250.505,114.172 252.171,118.839 251,124.5C 251.037,119.577 249.203,115.577 245.5,112.5C 244.063,114.021 243.396,115.855 243.5,118C 244.01,120.756 244.843,123.256 246,125.5C 243.933,122.93 241.433,120.93 238.5,119.5C 237.013,124.657 236.347,124.324 236.5,118.5C 238.262,118.357 239.929,118.691 241.5,119.5C 242.105,116.696 242.938,114.029 244,111.5C 245.546,105.784 244.046,101.118 239.5,97.5C 236.504,100.496 234.838,104.163 234.5,108.5C 233.893,108.376 233.56,108.043 233.5,107.5C 234.404,106.791 234.737,105.791 234.5,104.5C 234.365,100.939 235.698,98.1052 238.5,96C 239.5,95.3333 240.5,95.3333 241.5,96C 242.956,97.7448 244.289,99.5781 245.5,101.5C 247.5,99.8333 249.5,98.1667 251.5,96.5C 253.069,97.714 253.902,99.3807 254,101.5C 256.756,98.0733 260.09,95.4066 264,93.5C 265.891,96.8709 267.058,100.538 267.5,104.5C 270.991,102.906 274.658,102.239 278.5,102.5C 278.78,105.272 278.113,107.772 276.5,110C 278.473,110.495 280.473,110.662 282.5,110.5C 283.041,113.652 282.041,116.152 279.5,118C 282.167,118.333 284.833,118.667 287.5,119C 289.975,123.438 288.642,126.772 283.5,129C 292.709,132.431 292.709,136.098 283.5,140C 285.426,140.422 286.426,141.589 286.5,143.5 Z"/></g>
<g><path style="opacity:1" fill="#85654c" d="M 146.5,92.5 C 150.98,94.0547 155.646,95.0547 160.5,95.5C 161.141,96.4822 161.807,97.4822 162.5,98.5C 159.578,98.8988 156.578,99.0655 153.5,99C 152.88,101.212 151.713,103.046 150,104.5C 146.822,102.577 143.488,100.911 140,99.5C 137.512,101.769 135.012,104.103 132.5,106.5C 131.086,105.376 129.586,104.376 128,103.5C 116.892,114.511 115.392,113.011 123.5,99C 123.167,98.6667 122.833,98.3333 122.5,98C 123.672,97.6466 124.838,97.8132 126,98.5C 128.279,97.6086 130.446,96.6086 132.5,95.5C 136.409,98.3605 139.743,97.6938 142.5,93.5C 143.959,93.5674 145.292,93.2341 146.5,92.5 Z"/></g>
<g><path style="opacity:1" fill="#009861" d="M 262.5,96.5 C 263.782,101.524 263.782,106.691 262.5,112C 262.667,112.5 262.833,113 263,113.5C 264.009,111.975 264.509,110.308 264.5,108.5C 267.901,105.471 271.901,104.138 276.5,104.5C 276.509,106.308 276.009,107.975 275,109.5C 270.064,114.793 270.897,115.793 277.5,112.5C 278.5,112.833 279.5,113.167 280.5,113.5C 278.733,116.77 276.4,119.603 273.5,122C 277.902,120.703 282.569,120.203 287.5,120.5C 287.649,121.552 287.483,122.552 287,123.5C 283.395,127.721 278.895,130.554 273.5,132C 276.147,132.179 278.814,132.012 281.5,131.5C 284.229,131.295 286.562,132.128 288.5,134C 286.17,136.167 283.503,137.834 280.5,139C 282.37,141.04 284.37,142.873 286.5,144.5C 286.631,145.239 286.464,145.906 286,146.5C 275.068,134.078 261.568,129.912 245.5,134C 240.965,136.767 236.299,139.267 231.5,141.5C 224.37,141.575 217.037,141.408 209.5,141C 206.848,140.647 204.848,139.48 203.5,137.5C 205.63,134.263 208.63,132.263 212.5,131.5C 215.622,130.202 218.788,130.202 222,131.5C 222.5,131.167 223,130.833 223.5,130.5C 222.311,129.571 220.978,129.238 219.5,129.5C 217.645,127.967 215.812,126.3 214,124.5C 212.887,123.24 212.72,122.073 213.5,121C 218.071,120.649 222.404,121.315 226.5,123C 224.779,121.473 222.779,120.473 220.5,120C 219.601,118.348 218.601,116.848 217.5,115.5C 217.5,113.5 217.5,111.5 217.5,109.5C 218.93,109.421 220.264,109.754 221.5,110.5C 222.41,112.655 223.577,114.655 225,116.5C 224.231,113.306 223.731,109.973 223.5,106.5C 223.076,103.209 224.076,100.542 226.5,98.5C 229.998,100.656 232.331,103.656 233.5,107.5C 233.56,108.043 233.893,108.376 234.5,108.5C 234.838,104.163 236.504,100.496 239.5,97.5C 244.046,101.118 245.546,105.784 244,111.5C 242.938,114.029 242.105,116.696 241.5,119.5C 239.929,118.691 238.262,118.357 236.5,118.5C 236.347,124.324 237.013,124.657 238.5,119.5C 241.433,120.93 243.933,122.93 246,125.5C 244.843,123.256 244.01,120.756 243.5,118C 243.396,115.855 244.063,114.021 245.5,112.5C 249.203,115.577 251.037,119.577 251,124.5C 252.171,118.839 250.505,114.172 246,110.5C 245.333,108.5 245.333,106.5 246,104.5C 250.306,97.4792 252.64,98.1458 253,106.5C 254.994,102.007 258.16,98.674 262.5,96.5 Z"/></g>
<g><path style="opacity:1" fill="#008655" d="M 75.5,97.5 C 77.1667,97.5 78.8333,97.5 80.5,97.5C 80.8819,101.54 79.8819,105.207 77.5,108.5C 85.5796,109.63 91.7463,106.63 96,99.5C 98.9266,102.609 98.4266,105.442 94.5,108C 92.2533,109.655 89.9199,109.988 87.5,109C 90.3106,110.644 92.644,112.81 94.5,115.5C 92.2338,116.314 89.9005,116.814 87.5,117C 91.2664,119.59 93.5998,123.09 94.5,127.5C 91.7628,127.599 89.0961,127.265 86.5,126.5C 86.5,127.833 86.5,129.167 86.5,130.5C 85.1667,130.5 83.8333,130.5 82.5,130.5C 80.8968,129.404 79.3968,128.07 78,126.5C 79.0456,128.902 79.5456,131.568 79.5,134.5C 75.3782,135.106 72.3782,133.606 70.5,130C 69.8333,129.333 69.1667,129.333 68.5,130C 72.2987,134.097 73.9653,138.931 73.5,144.5C 69.9682,144.69 66.6348,144.023 63.5,142.5C 62.1639,140.99 60.9973,139.323 60,137.5C 60.2012,140.777 60.3679,144.111 60.5,147.5C 56.4975,147.029 53.3308,145.029 51,141.5C 50.8807,145.01 49.714,148.01 47.5,150.5C 44.0904,147.681 42.2571,144.014 42,139.5C 41.9741,143.108 41.1407,146.442 39.5,149.5C 37.3998,147.636 36.0665,145.303 35.5,142.5C 35.6641,139.813 35.4974,137.146 35,134.5C 33.6485,136.594 33.1485,138.927 33.5,141.5C 32.3653,146.794 30.8653,146.794 29,141.5C 28.6667,137.5 28.3333,133.5 28,129.5C 27.1951,134.45 24.8618,138.45 21,141.5C 20.228,141.355 19.5613,141.022 19,140.5C 17.9429,137.793 17.4429,134.96 17.5,132C 17.4928,128.577 17.9928,125.41 19,122.5C 17.2845,125.397 14.7845,126.731 11.5,126.5C 11.5907,122.818 12.924,119.651 15.5,117C 11.698,118.142 7.69798,118.642 3.5,118.5C 3.40206,116.447 4.06873,114.78 5.5,113.5C 5.43456,113.938 5.60123,114.272 6,114.5C 10.5,110.008 15.6666,106.675 21.5,104.5C 28.9792,114.607 38.9792,118.107 51.5,115C 61.8809,112.321 69.8809,106.487 75.5,97.5 Z"/></g>
<g><path style="opacity:1" fill="#025537" d="M 262.5,96.5 C 262.56,95.9569 262.893,95.6236 263.5,95.5C 264.492,99.7828 264.826,104.116 264.5,108.5C 264.509,110.308 264.009,111.975 263,113.5C 262.833,113 262.667,112.5 262.5,112C 263.782,106.691 263.782,101.524 262.5,96.5 Z"/></g>
<g><path style="opacity:1" fill="#283339" d="M 148.5,109.5 C 145.553,108.356 142.887,106.689 140.5,104.5C 139.07,107.433 137.07,109.933 134.5,112C 131.72,112.269 129.554,111.102 128,108.5C 127.517,109.448 127.351,110.448 127.5,111.5C 125.798,105.211 127.465,104.211 132.5,108.5C 135.522,106.312 138.022,103.645 140,100.5C 143.256,102.879 146.756,104.879 150.5,106.5C 152.485,104.543 153.985,102.21 155,99.5C 156.388,105.446 157.055,111.446 157,117.5C 154.932,113.93 152.099,111.263 148.5,109.5 Z"/></g>
<g><path style="opacity:1" fill="#7f6048" d="M 217.5,115.5 C 217.33,116.822 217.663,117.989 218.5,119C 217.167,119.667 215.833,119.667 214.5,119C 212.291,117.127 210.458,114.96 209,112.5C 208.935,115.198 210.102,117.364 212.5,119C 212.167,119.167 211.833,119.333 211.5,119.5C 208.714,117.043 206.714,114.043 205.5,110.5C 207.763,104.878 209.93,99.2113 212,93.5C 212.054,88.3211 212.721,83.3211 214,78.5C 215.866,83.5705 217.366,88.7371 218.5,94C 216.448,101.234 216.115,108.401 217.5,115.5 Z"/></g>
<g><path style="opacity:1" fill="#221a14" d="M 215.5,93.5 C 216.622,95.2884 216.789,97.2884 216,99.5C 214.138,103.419 212.471,107.419 211,111.5C 212.177,105.461 213.677,99.4608 215.5,93.5 Z"/></g>
<g><path style="opacity:1" fill="#009861" d="M 21.5,104.5 C 15.6666,106.675 10.5,110.008 6,114.5C 5.60123,114.272 5.43456,113.938 5.5,113.5C 8.24112,109.112 11.9078,105.612 16.5,103C 13.5875,101.627 10.7542,100.127 8,98.5C 7.49256,97.0039 7.99256,95.8373 9.5,95C 16.8172,93.6967 20.8172,96.8634 21.5,104.5 Z"/></g>
<g><path style="opacity:1" fill="#3c4c54" d="M 148.5,109.5 C 146.217,112.956 143.717,116.29 141,119.5C 139,117.5 137,115.5 135,113.5C 132.833,115.83 131.166,118.497 130,121.5C 128.648,118.28 127.814,114.947 127.5,111.5C 127.351,110.448 127.517,109.448 128,108.5C 129.554,111.102 131.72,112.269 134.5,112C 137.07,109.933 139.07,107.433 140.5,104.5C 142.887,106.689 145.553,108.356 148.5,109.5 Z"/></g>
<g><path style="opacity:1" fill="#86664d" d="M 148.5,111.5 C 149.239,111.369 149.906,111.536 150.5,112C 153.118,114.739 155.618,117.573 158,120.5C 159.513,117.476 161.513,114.809 164,112.5C 163.956,114.279 163.289,115.945 162,117.5C 161.667,119.833 161.333,122.167 161,124.5C 158.667,120.5 156.333,120.5 154,124.5C 151.053,132.54 152.553,139.54 158.5,145.5C 159.035,147.661 159.868,149.661 161,151.5C 161.167,151 161.333,150.5 161.5,150C 160.453,148.422 160.453,146.922 161.5,145.5C 162.086,145.709 162.586,146.043 163,146.5C 165.259,150.649 166.592,154.983 167,159.5C 164.984,157.316 162.817,155.316 160.5,153.5C 159.65,155.904 158.65,158.237 157.5,160.5C 153.664,158.416 149.997,156.083 146.5,153.5C 145.45,157.385 143.95,161.052 142,164.5C 141,163.5 140,162.5 139,161.5C 138.756,152.743 137.756,144.077 136,135.5C 136.353,142.815 136.353,150.148 136,157.5C 135.667,157.167 135.333,156.833 135,156.5C 132.814,160.198 130.147,163.532 127,166.5C 128.311,156.914 128.644,147.248 128,137.5C 127.055,133.886 126.388,130.219 126,126.5C 125.361,123.888 124.194,121.554 122.5,119.5C 122.667,119.167 122.833,118.833 123,118.5C 125.016,120.684 127.183,122.684 129.5,124.5C 131.512,121.795 133.512,119.128 135.5,116.5C 137.5,117.833 139.167,119.5 140.5,121.5C 143.645,118.54 146.312,115.207 148.5,111.5 Z"/></g>
<g><path style="opacity:1" fill="#062015" d="M 86.5,126.5 C 84.9669,124.645 83.3003,122.812 81.5,121C 84.5961,121.27 86.2628,123.103 86.5,126.5 Z"/></g>
<g><path style="opacity:1" fill="#072217" d="M 267.5,119.5 C 262.815,121.518 260.649,125.184 261,130.5C 259.703,125.883 260.87,122.05 264.5,119C 265.749,118.26 266.749,118.427 267.5,119.5 Z"/></g>
<g><path style="opacity:1" fill="#051b13" d="M 267.5,119.5 C 268.158,120.793 268.492,122.293 268.5,124C 268.66,126.47 267.993,128.636 266.5,130.5C 266.167,130.333 265.833,130.167 265.5,130C 267.263,126.757 267.929,123.257 267.5,119.5 Z"/></g>
<g><path style="opacity:1" fill="#35434b" d="M 156.5,123.5 C 157.496,123.414 158.329,123.748 159,124.5C 160.398,126.814 160.565,129.147 159.5,131.5C 160.5,133.167 161.833,134.5 163.5,135.5C 160.985,136.2 160.318,137.533 161.5,139.5C 160.5,140.833 159.5,142.167 158.5,143.5C 154.245,137.203 153.578,130.536 156.5,123.5 Z"/></g>
<g><path style="opacity:1" fill="#009760" d="M 182.5,123.5 C 183.496,123.414 184.329,123.748 185,124.5C 185.667,127.5 185.667,130.5 185,133.5C 184.586,133.957 184.086,134.291 183.5,134.5C 179.91,131.193 179.577,127.526 182.5,123.5 Z"/></g>
<g><path style="opacity:1" fill="#008656" d="M 216.5,128.5 C 214.393,129.468 212.059,129.802 209.5,129.5C 207.271,128.945 205.605,127.611 204.5,125.5C 205.527,123.976 207.027,123.309 209,123.5C 211.87,124.518 214.37,126.185 216.5,128.5 Z"/></g>
<g><path style="opacity:1" fill="#081f15" d="M 237.5,124.5 C 238.931,126.437 240.598,128.27 242.5,130C 239.365,129.692 237.698,127.859 237.5,124.5 Z"/></g>
<g><path style="opacity:1" fill="#033321" d="M 216.5,128.5 C 217.391,129.11 218.391,129.443 219.5,129.5C 220.978,129.238 222.311,129.571 223.5,130.5C 223,130.833 222.5,131.167 222,131.5C 218.788,130.202 215.622,130.202 212.5,131.5C 211.5,130.833 210.5,130.167 209.5,129.5C 212.059,129.802 214.393,129.468 216.5,128.5 Z"/></g>
<g><path style="opacity:1" fill="#009760" d="M 96.5,129.5 C 99.7291,131.23 102.062,133.897 103.5,137.5C 101.157,138.725 99.3234,138.059 98,135.5C 96.872,133.655 96.372,131.655 96.5,129.5 Z"/></g>
<g><path style="opacity:1" fill="#211a14" d="M 129.5,127.5 C 130.222,127.918 130.722,128.584 131,129.5C 131.667,132.833 131.667,136.167 131,139.5C 130.358,135.509 129.858,131.509 129.5,127.5 Z"/></g>
<g><path style="opacity:1" fill="#88674d" d="M 185.5,143.5 C 182.321,142.207 178.988,141.54 175.5,141.5C 173.421,141.029 171.421,140.363 169.5,139.5C 167.162,138.49 165.496,136.823 164.5,134.5C 164.47,133.503 164.97,132.836 166,132.5C 169.113,134.155 172.28,135.321 175.5,136C 172.833,134.333 170.167,132.667 167.5,131C 175.812,133.436 184.145,136.103 192.5,139C 190.744,139.202 189.078,139.702 187.5,140.5C 188.872,142.62 188.205,143.62 185.5,143.5 Z"/></g>
<g><path style="opacity:1" fill="#86664c" d="M 283.5,160.5 C 283.924,174.907 277.091,183.574 263,186.5C 261.93,186.472 261.097,186.139 260.5,185.5C 263.325,179.088 263.158,172.755 260,166.5C 257.671,159.163 260.171,154.33 267.5,152C 259.579,153.295 256.079,158.128 257,166.5C 254.602,165.144 252.102,163.977 249.5,163C 252.87,160.303 254.204,156.803 253.5,152.5C 253.167,151.833 252.833,151.167 252.5,150.5C 252.106,144.271 249.106,139.771 243.5,137C 248.44,133.896 253.774,132.896 259.5,134C 262.205,137.242 264.539,140.742 266.5,144.5C 266.833,144.167 267.167,143.833 267.5,143.5C 265.707,140.749 264.041,137.916 262.5,135C 282.072,139.749 293.072,152.249 295.5,172.5C 294.646,189.192 285.98,197.358 269.5,197C 276.427,192.075 281.927,185.908 286,178.5C 288.838,170.031 287.671,162.197 282.5,155C 284.557,154.695 286.557,154.695 288.5,155C 284.681,154.119 281.014,152.785 277.5,151C 275.167,150.333 272.833,150.333 270.5,151C 277.089,151.276 281.422,154.443 283.5,160.5 Z"/></g>
<g><path style="opacity:1" fill="#755842" d="M 82.5,130.5 C 84.4697,133.69 85.1364,137.023 84.5,140.5C 83.2638,139.754 81.9305,139.421 80.5,139.5C 81.4177,144.495 79.4177,146.828 74.5,146.5C 74.7892,142.894 74.4558,139.394 73.5,136C 75.7687,136.374 78.102,136.374 80.5,136C 81.8333,134.333 81.8333,132.667 80.5,131C 81.0944,130.536 81.7611,130.369 82.5,130.5 Z"/></g>
<g><path style="opacity:1" fill="#70543e" d="M 164.5,134.5 C 165.496,136.823 167.162,138.49 169.5,139.5C 168.262,139.81 168.262,140.31 169.5,141C 173.015,142.843 176.682,143.843 180.5,144C 178.685,143.243 177.019,142.41 175.5,141.5C 178.988,141.54 182.321,142.207 185.5,143.5C 184.34,144.265 183.34,145.265 182.5,146.5C 183.711,148.422 185.044,150.255 186.5,152C 178.499,149.498 170.499,146.664 162.5,143.5C 165.044,141.608 165.044,139.775 162.5,138C 163.973,137.29 164.64,136.124 164.5,134.5 Z"/></g>
<g><path style="opacity:1" fill="#003b26" d="M 35.5,142.5 C 34.8333,142.167 34.1667,141.833 33.5,141.5C 33.1485,138.927 33.6485,136.594 35,134.5C 35.4974,137.146 35.6641,139.813 35.5,142.5 Z"/></g>
<g><path style="opacity:1" fill="#88674d" d="M 118.5,143.5 C 108.934,145.978 99.2677,147.644 89.5,148.5C 88.7611,148.631 88.0944,148.464 87.5,148C 88.7051,146.624 90.0384,145.458 91.5,144.5C 95.7551,144.616 99.7551,143.783 103.5,142C 99.2538,142.367 94.9204,142.533 90.5,142.5C 89.7109,142.217 89.0442,141.717 88.5,141C 98.7373,140.735 108.737,139.402 118.5,137C 117.833,137.667 117.167,138.333 116.5,139C 118.002,139.583 119.335,140.416 120.5,141.5C 120.145,142.522 119.478,143.189 118.5,143.5 Z"/></g>
<g><path style="opacity:1" fill="#89684e" d="M 250.5,148.5 C 240.018,151.177 232.518,157.51 228,167.5C 227.145,171.715 225.978,175.715 224.5,179.5C 217.156,165.215 219.823,153.049 232.5,143C 236.75,139.345 241.416,138.679 246.5,141C 248.54,143.185 249.874,145.685 250.5,148.5 Z"/></g>
<g><path style="opacity:1" fill="#211a14" d="M 169.5,139.5 C 171.421,140.363 173.421,141.029 175.5,141.5C 177.019,142.41 178.685,143.243 180.5,144C 176.682,143.843 173.015,142.843 169.5,141C 168.262,140.31 168.262,139.81 169.5,139.5 Z"/></g>
<g><path style="opacity:1" fill="#008555" d="M 203.5,137.5 C 204.848,139.48 206.848,140.647 209.5,141C 217.037,141.408 224.37,141.575 231.5,141.5C 225.025,146.945 220.692,153.778 218.5,162C 215.535,163.498 212.535,163.665 209.5,162.5C 211.61,158.769 214.61,155.936 218.5,154C 215.03,155.09 211.363,155.59 207.5,155.5C 207.393,153.097 208.393,151.264 210.5,150C 212.405,148.579 214.405,147.412 216.5,146.5C 217.473,146.013 218.473,145.513 219.5,145C 216.854,144.503 214.187,144.336 211.5,144.5C 208.484,144.159 205.818,142.993 203.5,141C 202.209,139.708 202.209,138.542 203.5,137.5 Z"/></g>
<g><path style="opacity:1" fill="#1d1712" d="M 268.5,139.5 C 268.897,138.475 269.563,138.308 270.5,139C 273.379,140.836 274.879,143.336 275,146.5C 273.334,143.669 271.168,141.336 268.5,139.5 Z"/></g>
<g><path style="opacity:1" fill="#463529" d="M 91.5,144.5 C 91.1667,143.833 90.8333,143.167 90.5,142.5C 94.9204,142.533 99.2538,142.367 103.5,142C 99.7551,143.783 95.7551,144.616 91.5,144.5 Z"/></g>
<g><path style="opacity:1" fill="#6f533e" d="M 118.5,143.5 C 121.464,146.427 120.797,148.261 116.5,149C 117.833,149.333 119.167,149.667 120.5,150C 110.333,153.252 99.9996,154.752 89.5,154.5C 93.4395,152.409 93.4395,150.409 89.5,148.5C 99.2677,147.644 108.934,145.978 118.5,143.5 Z"/></g>
<g><path style="opacity:1" fill="#2b363c" d="M 189.5,141.5 C 192.44,140.17 195.44,140.337 198.5,142C 194.833,143.833 191.167,145.667 187.5,147.5C 186.5,147.167 185.5,146.833 184.5,146.5C 186.113,145.573 187.779,144.739 189.5,144C 190.774,143.023 190.774,142.189 189.5,141.5 Z"/></g>
<g><path style="opacity:1" fill="#2c373e" d="M 81.5,142.5 C 84.1267,143.105 86.7934,143.605 89.5,144C 87.6449,145.855 85.8116,147.688 84,149.5C 81.8649,148.873 79.6982,148.373 77.5,148C 81.8898,148.132 83.2232,146.299 81.5,142.5 Z"/></g>
<g><path style="opacity:1" fill="#71553f" d="M 200.5,136.5 C 202.27,142.081 206.27,145.581 212.5,147C 209.5,148.667 207.167,151 205.5,154C 201.658,154.458 197.991,153.791 194.5,152C 196.84,148.51 200.173,146.843 204.5,147C 201.167,146.667 197.833,146.333 194.5,146C 196.547,144.927 198.547,143.761 200.5,142.5C 199.737,141.281 198.737,140.281 197.5,139.5C 198.34,138.265 199.34,137.265 200.5,136.5 Z"/></g>
<g><path style="opacity:1" fill="#003b26" d="M 211.5,144.5 C 214.187,144.336 216.854,144.503 219.5,145C 218.473,145.513 217.473,146.013 216.5,146.5C 214.833,145.833 213.167,145.167 211.5,144.5 Z"/></g>
<g><path style="opacity:1" fill="#735640" d="M 63.5,142.5 C 65.8355,145.165 68.8355,146.498 72.5,146.5C 72.6621,148.527 72.4955,150.527 72,152.5C 68.9123,150.706 65.7456,149.039 62.5,147.5C 62.1667,146.667 61.8333,145.833 61.5,145C 61.6842,143.624 62.3509,142.791 63.5,142.5 Z"/></g>
<g><path style="opacity:1" fill="#725640" d="M 250.5,148.5 C 251.167,149.167 251.833,149.833 252.5,150.5C 252.833,151.167 253.167,151.833 253.5,152.5C 252.281,155.291 250.948,158.124 249.5,161C 239.426,164.406 231.759,170.739 226.5,180C 225.563,180.692 224.897,180.525 224.5,179.5C 225.978,175.715 227.145,171.715 228,167.5C 232.518,157.51 240.018,151.177 250.5,148.5 Z"/></g>
<g><path style="opacity:1" fill="#252e34" d="M 164.5,162.5 C 163.624,162.369 162.957,162.702 162.5,163.5C 161.877,165.711 160.877,167.711 159.5,169.5C 155.833,166.833 152.167,164.167 148.5,161.5C 147.364,164.907 146.031,168.241 144.5,171.5C 143.833,171.833 143.167,172.167 142.5,172.5C 139.586,170.739 137.086,168.406 135,165.5C 133.296,167.373 131.463,169.04 129.5,170.5C 130.238,166.357 132.071,162.69 135,159.5C 137.19,161.388 139.023,163.555 140.5,166C 141.5,166.667 142.5,166.667 143.5,166C 145.202,162.554 146.702,159.054 148,155.5C 150.826,158.578 154.159,160.911 158,162.5C 159.748,160.9 160.915,158.9 161.5,156.5C 163.415,158.071 164.415,160.071 164.5,162.5 Z"/></g>
<g><path style="opacity:1" fill="#3b4c54" d="M 164.5,162.5 C 165.645,165.073 166.145,167.739 166,170.5C 165.282,169.549 164.449,169.383 163.5,170C 162.91,171.509 162.244,173.009 161.5,174.5C 159.807,172.973 157.973,171.64 156,170.5C 152.297,173.867 148.964,177.534 146,181.5C 142.484,179.074 139.151,176.407 136,173.5C 133.174,176.484 130.841,179.817 129,183.5C 127.173,179.112 127.34,174.779 129.5,170.5C 131.463,169.04 133.296,167.373 135,165.5C 137.086,168.406 139.586,170.739 142.5,172.5C 143.167,172.167 143.833,171.833 144.5,171.5C 146.031,168.241 147.364,164.907 148.5,161.5C 152.167,164.167 155.833,166.833 159.5,169.5C 160.877,167.711 161.877,165.711 162.5,163.5C 162.957,162.702 163.624,162.369 164.5,162.5 Z"/></g>
<g><path style="opacity:1" fill="#008253" d="M 242.5,182.5 C 242.578,179.748 242.745,177.082 243,174.5C 241.961,175.244 241.461,176.244 241.5,177.5C 239.355,178.989 237.022,179.989 234.5,180.5C 234.629,177.234 235.629,174.234 237.5,171.5C 237.291,170.914 236.957,170.414 236.5,170C 244.163,162.816 251.83,162.983 259.5,170.5C 258.512,173.45 257.679,176.45 257,179.5C 255.857,182.915 254.19,183.249 252,180.5C 250.873,177.623 250.206,174.623 250,171.5C 249.192,176.45 246.692,180.117 242.5,182.5 Z"/></g>
<g><path style="opacity:1" fill="#735640" d="M 283.5,160.5 C 287.909,174.222 283.909,185.055 271.5,193C 264.539,196.639 257.872,196.305 251.5,192C 254.938,190.389 257.938,188.223 260.5,185.5C 261.097,186.139 261.93,186.472 263,186.5C 277.091,183.574 283.924,174.907 283.5,160.5 Z"/></g>
<g><path style="opacity:1" fill="#88674e" d="M 165.5,173.5 C 167.5,179.511 169.167,185.511 170.5,191.5C 172.172,199.181 174.838,206.514 178.5,213.5C 176.971,215.188 175.137,216.521 173,217.5C 171.813,219.044 171.48,220.711 172,222.5C 173.892,218.942 176.725,216.442 180.5,215C 189.845,211.263 199.511,209.597 209.5,210C 211.043,211.878 212.876,213.378 215,214.5C 220.897,226.73 227.23,238.73 234,250.5C 235.02,254.71 234.02,258.377 231,261.5C 230.481,255.649 228.148,250.649 224,246.5C 222.84,240.998 220.34,236.164 216.5,232C 214.308,231.074 212.308,229.907 210.5,228.5C 209.97,226.076 209.136,223.743 208,221.5C 208,223.5 208,225.5 208,227.5C 207.052,225.43 205.552,223.93 203.5,223C 194.159,221.917 185.159,223.25 176.5,227C 173.921,228.076 172.254,229.909 171.5,232.5C 170.883,232.611 170.383,232.944 170,233.5C 167.977,225.409 165.644,217.409 163,209.5C 159.148,203.884 157.148,197.551 157,190.5C 156.466,194.859 156.632,199.192 157.5,203.5C 152.812,201.402 148.978,202.402 146,206.5C 146.32,203.54 146.32,200.54 146,197.5C 144.874,201.465 143.874,205.465 143,209.5C 138.518,215.779 136.351,222.779 136.5,230.5C 136.152,234.345 133.985,236.345 130,236.5C 128.93,236.472 128.097,236.139 127.5,235.5C 127.5,235.167 127.5,234.833 127.5,234.5C 127.822,232.278 127.155,230.444 125.5,229C 113.823,229.458 102.49,227.792 91.5,224C 88.8333,223.333 86.1667,223.333 83.5,224C 77.6343,231.378 71.301,238.378 64.5,245C 62.3611,246.404 60.0278,247.237 57.5,247.5C 55.9704,247.36 54.9704,246.693 54.5,245.5C 58.6319,235.902 63.7986,226.902 70,218.5C 74.4845,210.342 81.3178,207.175 90.5,209C 93.7302,210.308 97.0636,211.308 100.5,212C 101.5,214.333 103.167,216 105.5,217C 110.926,218.372 116.259,219.706 121.5,221C 117.22,218.35 112.553,216.684 107.5,216C 105.998,215.417 104.665,214.584 103.5,213.5C 111.56,213.252 118.56,216.086 124.5,222C 125.167,222.667 125.833,222.667 126.5,222C 125.643,221.311 124.977,220.478 124.5,219.5C 128.093,212.565 129.926,205.232 130,197.5C 128.439,204.74 126.105,211.74 123,218.5C 120.944,217.417 119.611,215.75 119,213.5C 116.956,214.772 115.122,214.439 113.5,212.5C 119.624,201.586 123.457,189.919 125,177.5C 125.855,180.601 127.355,183.268 129.5,185.5C 131.418,181.996 133.584,178.663 136,175.5C 138.826,178.578 142.159,180.911 146,182.5C 149.267,179.233 152.6,175.9 156,172.5C 158,173.833 160,175.167 162,176.5C 163,175.167 164,173.833 165,172.5C 165.399,172.728 165.565,173.062 165.5,173.5 Z"/></g>
<g><path style="opacity:1" fill="#72553f" d="M 170.5,191.5 C 169.167,185.511 167.5,179.511 165.5,173.5C 166.794,174.29 167.961,175.29 169,176.5C 169.333,175.167 169.667,173.833 170,172.5C 174.504,180.674 177.838,189.341 180,198.5C 182.039,202.745 184.206,206.912 186.5,211C 184.295,212.427 182.128,212.927 180,212.5C 176.592,204.901 173.426,197.901 170.5,191.5 Z"/></g>
<g><path style="opacity:1" fill="#033e28" d="M 242.5,182.5 C 241.549,181.081 241.216,179.415 241.5,177.5C 241.461,176.244 241.961,175.244 243,174.5C 242.745,177.082 242.578,179.748 242.5,182.5 Z"/></g>
<g><path style="opacity:1" fill="#35281f" d="M 124.5,192.5 C 125.573,197.663 124.739,202.663 122,207.5C 122.627,202.524 123.46,197.524 124.5,192.5 Z"/></g>
<g><path style="opacity:1" fill="#88684e" d="M 171.5,261.5 C 166.944,260.887 163.278,258.72 160.5,255C 161.056,254.617 161.389,254.117 161.5,253.5C 158.106,243.648 155.106,233.648 152.5,223.5C 153.228,221.845 153.395,220.179 153,218.5C 151.443,221.294 151.11,224.294 152,227.5C 154.412,236.231 156.912,244.898 159.5,253.5C 150.222,239.328 146.556,223.661 148.5,206.5C 149.134,205.053 150.301,204.387 152,204.5C 154.822,205.275 157.656,205.942 160.5,206.5C 166.854,224.271 170.521,242.604 171.5,261.5 Z"/></g>
<g><path style="opacity:1" fill="#735640" d="M 210.5,228.5 C 210.511,230.017 211.177,231.184 212.5,232C 214.329,232.273 215.829,233.107 217,234.5C 220.52,241.609 224.187,248.609 228,255.5C 228.667,259.5 228.667,263.5 228,267.5C 224.782,272.103 221.948,276.936 219.5,282C 220.929,285.158 221.262,288.324 220.5,291.5C 217.397,289.129 215.73,285.962 215.5,282C 218.071,273.673 219.237,265.173 219,256.5C 213.648,247.652 206.814,240.319 198.5,234.5C 191.385,237.038 184.385,239.872 177.5,243C 173.466,243.976 171.466,242.309 171.5,238C 172.008,236.107 173.008,234.607 174.5,233.5C 173.504,233.414 172.671,233.748 172,234.5C 171.536,233.906 171.369,233.239 171.5,232.5C 172.254,229.909 173.921,228.076 176.5,227C 185.159,223.25 194.159,221.917 203.5,223C 205.552,223.93 207.052,225.43 208,227.5C 208,225.5 208,223.5 208,221.5C 209.136,223.743 209.97,226.076 210.5,228.5 Z"/></g>
<g><path style="opacity:1" fill="#725640" d="M 127.5,234.5 C 125.713,236.391 123.713,238.057 121.5,239.5C 118.817,238.49 116.151,237.49 113.5,236.5C 115.59,238.39 117.923,240.057 120.5,241.5C 117.554,242.655 114.554,242.821 111.5,242C 103.874,238.736 96.2071,235.569 88.5,232.5C 81.5184,238.314 74.6851,244.314 68,250.5C 67.3333,252.167 67.3333,253.833 68,255.5C 71.2013,261.735 73.7013,268.235 75.5,275C 74.7996,280.913 71.9662,285.413 67,288.5C 67.7448,284.907 68.0782,281.24 68,277.5C 62.7159,269.881 57.0492,262.548 51,255.5C 50.3333,252.833 50.3333,250.167 51,247.5C 52.5961,248.048 53.7627,247.382 54.5,245.5C 54.9704,246.693 55.9704,247.36 57.5,247.5C 60.0278,247.237 62.3611,246.404 64.5,245C 71.301,238.378 77.6343,231.378 83.5,224C 86.1667,223.333 88.8333,223.333 91.5,224C 102.49,227.792 113.823,229.458 125.5,229C 127.155,230.444 127.822,232.278 127.5,234.5 Z"/></g>
<g><path style="opacity:1" fill="#1d1712" d="M 161.5,253.5 C 160.833,253.5 160.167,253.5 159.5,253.5C 156.912,244.898 154.412,236.231 152,227.5C 151.11,224.294 151.443,221.294 153,218.5C 153.395,220.179 153.228,221.845 152.5,223.5C 155.106,233.648 158.106,243.648 161.5,253.5 Z"/></g>
<g><path style="opacity:1" fill="#1b1510" d="M 174.5,233.5 C 177.991,231.861 181.657,230.361 185.5,229C 186.833,228.333 188.167,228.333 189.5,229C 184.623,231.24 179.623,232.74 174.5,233.5 Z"/></g>
<g><path style="opacity:1" fill="#19130e" d="M 113.5,236.5 C 110.689,236.174 108.022,235.341 105.5,234C 108.539,233.736 111.206,234.569 113.5,236.5 Z"/></g>
<g><path style="opacity:1" fill="#735640" d="M 148.5,206.5 C 146.556,223.661 150.222,239.328 159.5,253.5C 160.167,253.5 160.833,253.5 161.5,253.5C 161.389,254.117 161.056,254.617 160.5,255C 163.278,258.72 166.944,260.887 171.5,261.5C 168.213,271.413 167.879,281.413 170.5,291.5C 170.363,294.951 169.03,295.451 166.5,293C 163.943,290.108 161.776,286.941 160,283.5C 159.667,275.5 159.333,267.5 159,259.5C 152.311,249.434 147.978,238.434 146,226.5C 145.333,229.167 145.333,231.833 146,234.5C 147.15,237.768 147.984,241.101 148.5,244.5C 146.774,244.185 145.107,244.019 143.5,244C 145.597,245.61 147.93,246.777 150.5,247.5C 152.246,251.327 154.246,254.993 156.5,258.5C 155.846,260.115 155.346,261.782 155,263.5C 153.289,261.044 151.956,258.377 151,255.5C 149.053,257.063 147.886,259.063 147.5,261.5C 145.956,264.936 144.123,268.269 142,271.5C 140.31,263.146 136.143,256.313 129.5,251C 125.301,249.664 121.635,247.497 118.5,244.5C 122.542,242.458 125.542,239.458 127.5,235.5C 128.097,236.139 128.93,236.472 130,236.5C 133.985,236.345 136.152,234.345 136.5,230.5C 137.827,221.18 141.827,213.18 148.5,206.5 Z"/></g>
<g><path style="opacity:1" fill="#1f1914" d="M 77.5,222.5 C 78.525,222.897 78.6917,223.563 78,224.5C 73.2096,230.959 68.0429,237.126 62.5,243C 61.8333,243.667 61.1667,243.667 60.5,243C 66.5325,236.413 72.1992,229.579 77.5,222.5 Z"/></g>
<g><path style="opacity:1" fill="#72553f" d="M 196.5,236.5 C 197.822,236.33 198.989,236.663 200,237.5C 201.707,242.953 203.207,248.453 204.5,254C 204.458,255.967 203.958,257.801 203,259.5C 199.333,264.167 195.667,268.833 192,273.5C 191.821,276.553 191.321,279.553 190.5,282.5C 188.167,279.334 186.501,275.834 185.5,272C 187.943,266.281 190.776,260.781 194,255.5C 194.252,252.333 194.418,249.333 194.5,246.5C 192.569,244.196 190.236,242.362 187.5,241C 190.648,239.576 193.648,238.076 196.5,236.5 Z"/></g>
<g><path style="opacity:1" fill="#17110d" d="M 137.5,234.5 C 138.601,235.848 139.601,237.348 140.5,239C 141.996,239.507 143.163,239.007 144,237.5C 143.067,242.272 141.067,242.606 138,238.5C 137.51,237.207 137.343,235.873 137.5,234.5 Z"/></g>
<g><path style="opacity:1" fill="#735640" d="M 101.5,239.5 C 106.734,241.952 112.068,244.118 117.5,246C 115.5,247 113.5,248 111.5,249C 108.325,252.876 104.825,256.376 101,259.5C 100.667,264.833 100.333,270.167 100,275.5C 98.6667,278.167 96.6667,280.167 94,281.5C 94.9201,271.998 93.7535,262.665 90.5,253.5C 93.3952,248.266 97.0619,243.6 101.5,239.5 Z"/></g>
<g><path style="opacity:1" fill="#71553f" d="M 147.5,261.5 C 148.931,261.881 149.764,262.881 150,264.5C 150.667,268.833 150.667,273.167 150,277.5C 149.311,278.357 148.478,279.023 147.5,279.5C 146.752,276.503 146.085,273.503 145.5,270.5C 146.423,267.553 147.089,264.553 147.5,261.5 Z"/></g>
</svg>
