<?xml version="1.0" encoding="UTF-8"?>
<!-- Created with Inkscape (http://www.inkscape.org/) -->
<svg version="1.1" viewBox="0 0 160.67 74.909" xmlns="http://www.w3.org/2000/svg">
 <g transform="translate(-21.842 -82.575)">
  <g transform="matrix(1.0888 0 0 -1.0888 71.706 138.32)">
   <path d="m0 0c0.405 2.468 1.942 5.605 1.343 6.9-1.088-0.757-2.184-1.407-3.291-1.968-5.896 1.261-10.255-1.006-11.95-5.035-0.811-0.285-1.713-0.544-2.552-0.706-0.342 0.236-0.674 0.515-0.998 0.811-0.145 2.901-0.236 6.237-0.236 8.698 0 1.174-0.196 2.358-0.89 3.4-1.199 1.797-2.766 3.932-4.126 5.509-0.292 1.229-0.561 2.545-0.779 3.819 3.148 0.568 3.759 0.987 5.269 3.338 1.173 1.826 2.321 2.945 4.292 4.306l-1.308 7.048c0.339 0.327 0.582 0.725 0.779 1.272 0.332 0.92 1.315 3.925 1.336 5.058 0.02 1.133-2.347 6.111-3.319 6.677-0.587 0.343-2.286 0.587-3.609 0.663-0.857 0.05-1.429-0.155-1.928-0.569-0.147 0.231-0.292 0.453-0.432 0.655-0.546 0.789-1.517 0.91-2.286 0.748-1.746-0.367-4.044-1.6-5.116-2.523-0.792 0.78-1.573 0.88-2.735 0.52-1.491-0.461-3.152-1.623-3.948-2.502-0.615 0.324-1.222 0.295-1.859-7e-3 -1.153-0.546-2.487-1.378-3.48-2.084-0.769-0.546-1.162-1.042-1.416-1.72-0.729-1.942-2.408-3.358-1.841-7.142 1.068-7.136 3.425-12.282 5.962-15.381 1.597-7.449 3.824-15.052 7.564-20.756 2.226-3.397 6.834-5.908 9.742-7.133 0.577-0.242 0.911-0.333 1.336-0.303s0.824-0.128 1.411-0.546c1.214-0.865 2.549-1.533 4.386-2.004 0.841-0.215 1.493-0.114 2.245 0.456 3.553 2.686 8.807 5.438 13.514 6.549-1.061 1.302-1.379 2.13-1.08 3.952" fill="#b4b3a9"/>
  </g>
  <g transform="matrix(1.0888 0 0 -1.0888 132.64 138.34)">
   <path d="m0 0c-0.405 2.469-1.942 5.605-1.343 6.9 1.088-0.757 2.184-1.407 3.291-1.968 5.896 1.261 10.255-1.006 11.95-5.035 0.811-0.285 1.713-0.544 2.552-0.706 0.342 0.236 0.674 0.515 0.998 0.811 0.146 2.901 0.236 6.237 0.236 8.698 0 1.174 0.196 2.358 0.89 3.4 1.199 1.798 2.766 3.932 4.126 5.509 0.292 1.229 0.561 2.545 0.779 3.819-3.148 0.568-3.759 0.987-5.269 3.338-1.173 1.826-2.321 2.945-4.292 4.306l1.308 7.048c-0.339 0.327-0.582 0.725-0.779 1.272-0.332 0.92-1.315 3.925-1.336 5.058-0.02 1.133 2.347 6.111 3.319 6.677 0.587 0.343 2.286 0.587 3.609 0.663 0.857 0.05 1.429-0.155 1.928-0.569 0.147 0.231 0.292 0.453 0.432 0.655 0.546 0.789 1.517 0.91 2.286 0.749 1.746-0.368 4.044-1.601 5.116-2.523 0.792 0.779 1.573 0.879 2.735 0.519 1.491-0.461 3.152-1.623 3.948-2.502 0.615 0.324 1.222 0.295 1.859-7e-3 1.153-0.546 2.487-1.378 3.48-2.084 0.769-0.546 1.162-1.042 1.416-1.72 0.729-1.942 2.408-3.358 1.842-7.142-1.069-7.136-3.426-12.282-5.963-15.38-1.597-7.45-3.824-15.053-7.564-20.757-2.226-3.397-6.834-5.908-9.742-7.133-0.577-0.242-0.911-0.333-1.336-0.303-0.424 0.03-0.824-0.128-1.411-0.546-1.214-0.865-2.549-1.533-4.385-2.004-0.842-0.215-1.494-0.114-2.246 0.456-3.553 2.686-8.807 5.438-13.514 6.549 1.061 1.302 1.379 2.13 1.08 3.952" fill="#b4b3a9"/>
  </g>
  <g transform="matrix(1.0888 0 0 -1.0888 133.84 126.67)">
   <path d="m0 0c0.822 1.312 0.767 3.282 0.303 4.598-1.569 4.459-3.413 7.388-4.785 8.524-0.951 2.045-1.829 3.629-2.696 4.709-0.665 0.828-1.32 1.093-2.716 0.986-0.243-0.018-0.507-0.036-0.781-0.053-0.47 0.371-0.814 0.843-1.222 1.51-1.199 1.958-3.432 3.672-4.978 3.672-2.402 0-3.588 0.226-4.719 1.214-1.806 1.579-2.36 1.89-4.052 2.064-2.792 0.289-8.65-0.045-9.242-0.242-0.592-0.198-1.921-1.235-2.974-2.216-0.44-0.41-0.747-0.597-1.336-0.683-0.728-0.106-1.502-0.167-2.382-0.182-1.342-0.023-3.608-1.92-5.613-5.137-0.388 0.023-0.77 0.049-1.135 0.079-1.254 0.102-1.942-0.304-2.549-1.053-0.924-1.139-1.977-3.155-2.77-4.764-1.257-1.164-2.749-3.858-4.393-7.598-0.809-1.842-0.749-3.804-0.344-4.755s1.436-2.509 2.266-3.663c0.469-0.652 0.506-1.193 0.465-1.901-0.096-1.689-1.072-3.845-1.416-5.807-0.206-1.177-0.182-2.004 0.223-2.732 1.258-2.265 5.383-5.631 6.743-6.356 0.376-1.036 1.137-2.347 1.836-2.992 1.501-1.386 10.307-4.469 12.443-4.714 2.1-0.241 11.255-0.43 13.577 0.02 2.764 0.535 11.483 3.48 12.484 4.633 0.803 0.925 1.349 1.792 1.679 2.974 0.438 0.205 0.83 0.407 1.094 0.573 0.793 0.498 4.463 3.841 5.396 5.225 0.962 1.427 0.886 2.733 0.435 4.291-0.415 1.437-0.762 2.721-1.12 4.447-0.218 1.054-0.165 1.791 0.218 2.302 0.685 0.913 1.272 1.767 2.061 3.027" fill="#b4b3a9"/>
  </g>
  <g transform="matrix(1.0888 0 0 -1.0888 94.635 137.39)">
   <path d="m0 0c0.843 0.011 1.63 4.177 0.956 4.674-3.417 2.516-8.77 5.034-12.703 5.987-0.629-1.335-0.855-2.542-0.808-4.304 0.053-1.973 0.265-3.947 0.728-5.615 0.333-1.2 1.032-1.677 2.636-1.444 2.463 0.358 6.109 0.663 9.191 0.702" fill="#fff"/>
  </g>
  <g transform="matrix(1.0888 0 0 -1.0888 108.7 132.43)">
   <path d="m0 0c-1.047-0.756-1e-3 -4.52 1.022-4.553 2.51-0.08 7.04-0.261 9.095-0.688 1.073-0.222 2.527-0.013 2.995 1.71 0.384 1.417 0.527 3.754 0.516 5.615-0.011 1.7-0.344 3.055-0.86 4.027-3.966-1.053-9.854-4.007-12.768-6.111" fill="#fff"/>
  </g>
  <g transform="matrix(1.0888 0 0 -1.0888 57.393 91.973)">
   <path d="m0 0c-1.256-0.866-3.937-1.12-5.38-0.543-1.578-1.137-5.601-1.222-7.434 0.017-1.035-1.714-3.959-2.814-6.505-1.762-0.789-2.398-3.399-3.46-4.866-3.16-1.05 0.215-2.63 1.855-3.852 4.107 0.696-2.987 3.14-9.029 4.09-9.368 0.95-0.34 4.124 0.186 4.379 1.273 1.951-0.645 6.025 0.085 6.347 1.816 0.747-0.526 3.174-0.102 5.024 0.611 0.203 0.848 0.729 1.29 1.527 1.222s3.239-0.362 4.59-0.656c0.773 1.046 1.758 3.948 2.08 6.443" fill="#888780"/>
  </g>
  <g transform="matrix(1.0888 0 0 -1.0888 26.719 93.564)">
   <path d="m0 0c-0.124-0.688-0.537-1.28-1.183-1.486 0.701-0.633 1.417-1.252 2.242-1.61-0.385 1.018-0.743 2.023-1.059 3.096" fill="#888780"/>
  </g>
  <g transform="matrix(1.0888 0 0 -1.0888 52.26 126.81)">
   <path d="m0 0c-0.55-0.772-2.252-1.038-3.162-0.917-0.8 0.107-1.008-0.222-0.941-0.971 0.299-3.334 2.04-6.92 4.522-8.619-0.152 2.731-0.146 7.654-0.419 10.507" fill="#888780"/>
  </g>
  <g transform="matrix(1.0888 0 0 -1.0888 35.423 113)">
   <path d="m0 0c0.607 3.44-0.688 6.475-3.44 8.539 1.7 0.182 3.764 0.586 4.05 1.339 1.076-0.198 2.061-0.247 3.052-0.105 1.524 0.217 3.102 0.862 3.296 1.921 1.09-0.567 2.592-0.262 5 0.487-0.991-3.076-0.227-4.573 1.012-5.261 0.819-0.455 1.76-0.85 3.232-1.26-1.123-1.123-2.033-2.701-2.443-3.824s-2.625-3.475-3.9-3.687l0.096-0.698c-2.175-0.85-3.708-2.891-3.966-5.16-0.303-2.671 0.99-7.645 2.762-11.594 1.209-2.694 3.49-5.736 6.379-7.951 0.631-0.484 1.178-0.499 1.96-0.172 1.711 0.715 3.003 1.493 4.293 2.393 0.445 0.31 0.653 0.368 1.514 0.222 2.187-0.371 5.165 0.371 6.733 2.278 0.289 0.352 0.636 0.535 1.372 0.6 0.99 0.087 2.014 0.334 2.97 0.91-1.254-2.691-0.971-4.775 0.364-6.232-4.593-0.991-10.137-4.107-13.01-6.13-0.951-0.67-1.639-1.032-2.772-0.81-1.133 0.223-2.994 1.133-4.37 2.044-0.65 0.43-0.989 0.549-1.487 0.495-0.84-0.091-7.224 2.823-10.259 6.465s-6.859 14.295-8.255 21.731c-4.704 5.969-6.809 16.126-5.635 18.554 0.607-4.573 3.276-12.02 7.082-15.944 1.732-1.787 4.148-1.949 4.37 0.85" fill="#888780"/>
  </g>
  <g transform="matrix(1.0888 0 0 -1.0888 168.93 113.02)">
   <path d="m0 0c-0.607 3.44 0.688 6.475 3.44 8.539-1.7 0.182-3.764 0.586-4.05 1.339-1.076-0.198-2.061-0.247-3.052-0.105-1.524 0.217-3.102 0.862-3.296 1.921-1.09-0.567-2.592-0.262-5 0.487 0.991-3.076 0.227-4.573-1.012-5.261-0.819-0.455-1.76-0.85-3.232-1.26 1.123-1.123 2.033-2.701 2.443-3.824s2.625-3.475 3.9-3.687l-0.096-0.698c2.175-0.85 3.708-2.891 3.966-5.16 0.303-2.671-0.99-7.645-2.762-11.594-1.209-2.694-3.49-5.736-6.379-7.951-0.631-0.484-1.178-0.499-1.96-0.172-1.711 0.715-3.003 1.493-4.293 2.393-0.445 0.31-0.653 0.368-1.514 0.222-2.187-0.371-5.165 0.371-6.733 2.278-0.289 0.352-0.636 0.535-1.372 0.6-0.99 0.087-2.014 0.334-2.97 0.91 1.254-2.691 0.971-4.775-0.364-6.232 4.593-0.991 10.137-4.107 13.01-6.13 0.951-0.67 1.639-1.032 2.772-0.81 1.133 0.223 2.994 1.133 4.37 2.044 0.65 0.43 0.989 0.55 1.487 0.495 0.84-0.091 7.224 2.823 10.259 6.465s6.859 14.295 8.255 21.731c4.704 5.969 6.809 16.126 5.635 18.554-0.607-4.573-3.276-12.02-7.082-15.944-1.139-1.175-4.236-0.842-4.37 0.85" fill="#888780"/>
  </g>
  <g transform="matrix(1.0888 0 0 -1.0888 146.96 91.995)">
   <path d="m0 0c1.256-0.866 3.937-1.12 5.38-0.543 1.578-1.137 5.601-1.222 7.434 0.017 1.035-1.714 3.959-2.814 6.505-1.762 0.789-2.398 3.399-3.46 4.866-3.16 1.05 0.215 2.63 1.855 3.852 4.107-0.696-2.987-3.139-9.029-4.09-9.368-0.95-0.34-4.124 0.186-4.379 1.273-1.951-0.645-6.025 0.085-6.347 1.816-0.747-0.526-3.174-0.102-5.024 0.611-0.203 0.848-0.729 1.29-1.527 1.222s-3.239-0.362-4.589-0.656c-0.774 1.046-1.759 3.948-2.081 6.443" fill="#888780"/>
  </g>
  <g transform="matrix(1.0888 0 0 -1.0888 177.63 93.586)">
   <path d="m0 0c0.124-0.688 0.537-1.28 1.183-1.486-0.701-0.633-1.417-1.252-2.242-1.61 0.385 1.018 0.743 2.023 1.059 3.096" fill="#888780"/>
  </g>
  <g transform="matrix(1.0888 0 0 -1.0888 152.09 126.83)">
   <path d="m0 0c0.55-0.772 2.252-1.038 3.162-0.917 0.8 0.107 1.008-0.222 0.941-0.971-0.299-3.334-2.04-6.92-4.522-8.62 0.152 2.732 0.146 7.655 0.419 10.508" fill="#888780"/>
  </g>
  <g transform="matrix(1.0888 0 0 -1.0888 113.97 149.95)">
   <path d="m0 0c-2.831 1.089-7.725 1.868-11.064 1.808-3.013-0.055-6.838-0.784-9.648-1.786-2.055-0.733-2.751-1.342-2.831-2.022-0.081-0.688 0.991-2.327 3.521-3.359-3.238 0.85-8.499 2.833-9.874 3.844-0.965 0.71-1.606 2.016-1.923 3.157 0.709-0.243 1.842-0.587 2.246-0.83 0.721-0.432 1.319-0.475 2.428-0.222 6.03 1.376 11.432 3.905 16.025 3.905 4.756 0 11.351-2.55 16.268-3.824 1.427-0.37 2.788-0.436 5.038 0.931-0.566-1.498-1.234-2.509-2.023-3.278s-7.183-3.116-10.339-3.885c3.014 1.355 4.876 2.711 4.876 3.682 0 0.608-1.145 1.281-2.7 1.879" fill="#888780"/>
  </g>
  <g transform="matrix(1.0888 0 0 -1.0888 99.018 131.04)">
   <path d="m0 0c-2.347 2.529-12.883 10.374-17.658 10.051-0.365-0.486-0.729-1.174-0.85-1.538-1.922-0.931-5.483-0.911-7.648 0.566-0.486-1.052-0.688-2.873-0.445-3.925 0.242-1.052 1.537-2.833 2.306-3.683 0.769-0.849 0.87-1.841 0.445-3.52 2.509 1.356 3.541 2.974 4.775 5.139 0.234 0.41 0.486 0.89 0.971 1.497 0.256 0.32 0.776 0.622 1.174 0.547 3.723-0.708 11.108-4.209 15.721-7.568 0.547 0.688 0.834 1.308 1.209 2.434" fill="#888780"/>
  </g>
  <g transform="matrix(1.0888 0 0 -1.0888 105.39 131.21)">
   <path d="m0 0c2.494 2.737 13.947 11.409 17.701 10.326 0.364-0.485 0.728-1.173 0.85-1.537 1.922-0.931 5.586-0.91 7.751 0.567 0.485-1.052 0.688-2.873 0.445-3.926-0.243-1.052-1.538-2.832-2.307-3.682-0.768-0.85-0.87-1.841-0.445-3.521-2.314 1.118-3.468 2.531-4.858 5.018-0.288 0.516-0.622 1.199-0.93 1.618-0.298 0.406-0.639 0.524-1.134 0.43-3.723-0.708-11.26-4.244-15.873-7.602-0.546 0.688-0.847 1.249-1.2 2.309" fill="#888780"/>
  </g>
  <g transform="matrix(1.0888 0 0 -1.0888 72.081 137.61)">
   <path d="m0 0c-0.506-2.246 3.642-5.928 6.677-7.669 1.791-1.026 2.862-1.463 4.047-1.375 3.278 0.242 12.161 3.775 17.239 3.621 5.342-0.162 14.933-3.61 16.996-3.662 0.799-0.02 3.623 0.936 4.37 1.457 3.602 2.509 6.091 5.068 6.212 7.041 0.486-1.73 0.304-2.671-0.88-3.915s-3.349-3.935-4.674-4.583c-1.325-0.647-3.733-1.851-5.008-1.851-2.519 0-12.441 4.194-16.966 4.097-5.675-0.121-15.634-4.283-17.876-4.158-0.546 0.03-1.668 0.686-2.408 0.9-2.509 0.729-5.706 3.663-7.466 5.99-0.851 1.124-0.916 2.33-0.263 4.107" fill="#888780"/>
  </g>
  <g transform="matrix(1.0888 0 0 -1.0888 113.24 106.91)">
   <path d="m0 0c-1.897-2.094-3.903-4.709-4.717-5.915-0.464-0.686-1.113-1.465-1.373-1.836-0.259-0.371-0.575-0.511-1.168-0.482-1.502 0.074-4.227 0.111-5.117 0.056-0.89-0.056-1.571 0.204-1.891 0.574-0.692 0.799-1.017 1.541-1.446 2.133-1.132 1.557-2.954 3.74-4.926 5.713 2.837-1.275 6.212-5.591 7.503-5.899 1.317-0.314 4.657-0.262 6.007 0.037 1.562 0.347 4.503 3.919 7.128 5.619" fill="#888780"/>
  </g>
  <g transform="matrix(1.0888 0 0 -1.0888 75.438 112.46)">
   <path d="m0 0c0.497 0.44 1.196 0.898 1.932 0.497 2.181-1.186 4.19-2.678 6.256-4.629 0.848 0.379 2.71-0.734 6.332-3.263-2.631 4.188-7.487 10.905-10.847 13.023-0.98-0.622-2.316-2.817-3.673-5.628" fill="#888780"/>
  </g>
  <g transform="matrix(1.0888 0 0 -1.0888 129.08 112.45)">
   <path d="m0 0c-0.744 0.658-1.415 0.715-2.267 0.312-2.616-1.236-3.467-2.011-5.508-4.383-1.561 0.15-2.088-0.192-6.296-3.097 2.772 4.128 6.92 10.481 10.398 12.796 0.98-0.622 2.316-2.817 3.673-5.628" fill="#888780"/>
  </g>
  <g transform="matrix(1.0888 0 0 -1.0888 88.031 100.89)">
   <path d="m0 0c0.15-1.45 0.777-3.701 2.388-5.625-1.383 0.456-5.059 0.655-7.51 0.684 1.112 1.781 3.076 4.254 5.122 4.941" fill="#888780"/>
  </g>
  <g transform="matrix(1.0888 0 0 -1.0888 116.5 100.77)">
   <path d="m0 0c0.099-1.887-0.695-3.708-2.549-5.43 1.456 0.464 4.502 0.099 7.625 0.449-0.904 1.041-2.328 4.219-5.076 4.981" fill="#888780"/>
  </g>
  <g transform="matrix(1.0888 0 0 -1.0888 91.589 100.54)">
   <path d="M 0,0 C 1.247,-0.57 2.588,-0.973 4.211,-1.23 5.152,-1.379 5.394,-1.092 5.014,-0.332 4.467,0.76 4.111,1.879 3.986,2.88 2.501,2.546 0.97,0.364 0,0" fill="#888780"/>
  </g>
  <g transform="matrix(1.0888 0 0 -1.0888 112.51 100.42)">
   <path d="m0 0c-1.598-0.627-3.258-1.032-4.707-1.222-0.945-0.124-1.298 0.207-0.803 0.897 0.553 0.77 0.998 1.923 1.18 3.016 1.485-0.333 2.448-2.408 4.33-2.691" fill="#888780"/>
  </g>
  <g transform="matrix(1.0888 0 0 -1.0888 82.38 125.94)">
   <path d="m0 0c-0.687-0.995-0.979-2.31-0.95-3.572 0.026-1.073-0.43-1.1-0.549-0.041-0.14 1.25 0.089 2.863 0.733 3.837z" fill="#0f141b"/>
  </g>
  <g transform="matrix(1.0888 0 0 -1.0888 78.167 127.12)">
   <path d="M 0,0 C 0.16,0.341 0.372,0.654 0.592,0.931 1.134,1.614 1.675,1.157 1.127,0.478 0.912,0.212 0.716,-0.1 0.559,-0.341 -0.01,-1.216 -0.462,-0.986 0,0" fill="#0f141b"/>
  </g>
  <g transform="matrix(1.0888 0 0 -1.0888 78.426 124.14)">
   <path d="M 0,0 C -0.226,0.794 -0.231,1.713 0.054,2.341 0.663,3.681 1.777,5.253 2.724,6.178 3.523,6.959 3.917,6.547 3.155,5.729 2.308,4.821 1.345,3.332 0.76,2.045 0.48,1.429 0.488,0.954 0.627,0.151 0.8,-0.843 0.27,-0.948 0,0" fill="#0f141b"/>
  </g>
  <g transform="matrix(1.0888 0 0 -1.0888 97.47 125.89)">
   <path d="m0 0c-3.187 2.322-7.61 5.27-10.571 7.146-0.892 0.565-1.355 0.716-1.839 0.743-1.059 0.058-1.058 0.635 0 0.704 0.651 0.043 1.253-0.121 2.239-0.746 2.97-1.881 7.5-5.009 10.535-7.316 1.296-0.985 0.879-1.437-0.364-0.531" fill="#0f141b"/>
  </g>
  <g transform="matrix(1.0888 0 0 -1.0888 97.691 133.15)">
   <path d="m0 0c0.852 1.283 1.33 2.983 1.6 4.483 0.197 1.1 0.882 0.966 0.723-0.141-0.219-1.526-0.796-3.393-1.816-4.738-0.733-0.965-1.209-0.662-0.507 0.396" fill="#0f141b"/>
  </g>
  <g transform="matrix(1.0888 0 0 -1.0888 81.815 137.32)">
   <path d="m0 0c-0.505 0.918-0.086 1.207 0.527 0.364 0.505-0.694 0.922-0.88 2.165-0.728 1.614 0.197 5.536 0.637 8.105 0.598 1.466-0.022 1.464-0.617 0-0.647-2.559-0.053-6.42-0.52-8.023-0.715-1.429-0.174-2.159 9e-3 -2.774 1.128" fill="#0f141b"/>
  </g>
  <g transform="matrix(1.0888 0 0 -1.0888 106.16 133.53)">
   <path d="m0 0c-0.791 0.977-1.576 2.775-1.947 4.79-0.213 1.156 0.403 1.287 0.686 0.148 0.458-1.842 0.989-3.461 1.749-4.561 0.634-0.918 0.175-1.195-0.488-0.377" fill="#0f141b"/>
  </g>
  <g transform="matrix(1.0888 0 0 -1.0888 122.99 125.65)">
   <path d="m0 0c0.511-0.956 0.765-2.281 0.681-3.6-0.065-1.006-0.505-0.993-0.55 0.022-0.061 1.35-0.401 2.516-0.859 3.347z" fill="#0f141b"/>
  </g>
  <g transform="matrix(1.0888 0 0 -1.0888 125.78 127.53)">
   <path d="m0 0c-0.209 0.312-0.373 0.552-0.56 0.823-0.577 0.836-0.082 1.226 0.524 0.409 0.207-0.28 0.39-0.588 0.569-0.943 0.441-0.872-0.014-1.063-0.533-0.289" fill="#0f141b"/>
  </g>
  <g transform="matrix(1.0888 0 0 -1.0888 119.67 138.54)">
   <path d="m0 0c-2.279 0.308-5.337 0.612-8.134 0.729-1.542 0.065-1.518 0.658 0.022 0.631 2.813-0.05 6.03-0.307 8.23-0.606 1.123-0.153 1.619 0.046 2.167 0.876 0.634 0.96 1.14 0.607 0.579-0.396-0.685-1.226-1.451-1.425-2.864-1.234" fill="#0f141b"/>
  </g>
  <g transform="matrix(1.0888 0 0 -1.0888 120.47 116.53)">
   <path d="m0 0c1.208 0.027 1.254-0.574 0.05-0.706-0.607-0.066-0.992-0.223-1.625-0.631-3.121-2.009-7.396-4.715-10.951-7.49-1.372-1.071-1.842-0.588-0.414 0.552 3.494 2.79 7.784 5.618 10.99 7.65 0.787 0.499 1.227 0.609 1.95 0.625" fill="#0f141b"/>
  </g>
  <g transform="matrix(1.0888 0 0 -1.0888 125.42 123.97)">
   <path d="m0 0c0.151 0.846 0.134 1.168-0.225 2.026-0.365 0.87-1.252 2.305-2.358 3.603-0.84 0.987-0.428 1.374 0.461 0.43 1.214-1.288 2.253-2.897 2.599-3.731 0.399-0.962 0.416-1.652 0.195-2.474-0.262-0.975-0.853-0.87-0.672 0.146" fill="#0f141b"/>
  </g>
  <g transform="matrix(1.0888 0 0 -1.0888 127.76 111.36)">
   <path d="m0 0c1.819-0.01 4.575-4.177 6.381-9.307 0.509-1.443 0.597-3.409-0.399-4.998-0.761-1.214-1.342-2.048-2.054-2.999-0.359-0.478-0.404-0.951-0.18-2.029 0.348-1.679 0.695-2.917 1.125-4.405 0.558-1.928 0.43-3.323-0.478-4.669-0.919-1.364-4.701-4.801-5.56-5.34-0.903-0.566-2.738-1.284-3.645-1.531-1.183-0.322-1.741-0.301-3.343 0.128-5.107 1.368-10.842 3.673-15.158 3.679-4.698 6e-3 -10.162-2.31-15.572-3.69-1.95-0.498-2.304-0.442-2.962-0.153-0.976 0.429-1.543 0.601-2.572 0.923-1.103 0.346-5.888 4.137-7.292 6.664-0.458 0.825-0.531 1.529-0.251 3.041 0.368 1.982 1.316 4.048 1.43 5.763 0.06 0.888-0.01 1.092-0.4 1.634-0.69 0.96-2.022 2.914-2.354 3.693-0.502 1.181-0.474 3.301 0.347 5.169 2.45 5.574 4.514 8.261 5.999 8.417 0.519 0.052 1.375-0.367 2.432-1.067 1.181-0.783 0.852-1.297-0.349-0.546-0.86 0.537-1.66 0.87-2.015 0.825-0.848-0.09-2.264-1.492-5.126-8.002-0.774-1.762-0.726-3.572-0.363-4.427 0.301-0.706 1.515-2.599 2.214-3.571 0.482-0.671 0.558-1.13 0.514-2.19-0.072-1.726-1.122-4-1.421-5.864-0.195-1.22-0.111-1.763 0.271-2.448 1.263-2.275 5.766-5.935 6.711-6.237 1.016-0.326 1.562-0.518 2.535-0.944 0.564-0.246 1.05-0.156 2.472 0.224 5.489 1.466 11.02 3.794 15.765 3.816 4.39 0.02 10.504-2.491 15.398-3.845 1.281-0.355 1.984-0.389 2.895-0.141 0.82 0.224 2.513 0.937 3.388 1.486 0.719 0.451 4.263 3.733 5.178 5.09 0.871 1.292 0.846 2.402 0.404 3.931-0.434 1.5-0.757 2.771-1.108 4.467-0.277 1.337-0.16 2.046 0.286 2.641 0.703 0.937 1.242 1.799 1.993 2.998 0.76 1.213 0.762 2.789 0.257 4.222-2.293 6.512-4.54 8.78-5.406 8.787-0.484 4e-3 -1.178-0.28-2.129-0.8-1.033-0.565-1.272-0.103-0.303 0.565 0.994 0.686 1.904 1.043 2.445 1.04" fill="#0f141b"/>
  </g>
  <g transform="matrix(1.0888 0 0 -1.0888 74.731 112.95)">
   <path d="m0 0c0.801 1.641 1.968 4.242 2.992 5.505 0.672 0.83 1.622 1.355 3.041 1.231 2.036-0.179 4.25-0.263 6.627-0.351 1.378-0.052 2.183-0.338 3.576-1.713 1.149-1.133 1.918-2.044 3.014-3.524 0.999-1.349 0.512-1.709-0.56-0.417-1.103 1.331-1.993 2.221-3.1 3.227-1.218 1.107-1.763 1.409-3.004 1.453-2.273 0.08-4.544 0.187-6.61 0.348-1.064 0.083-1.54-0.083-2.185-0.878-0.812-1.002-1.733-2.544-2.477-4.024z" fill="#0f141b"/>
  </g>
  <g transform="matrix(1.0888 0 0 -1.0888 105.19 116.32)">
   <path d="m0 0c-1.92 0.101-3.686 0.087-5.552-7e-3 -1.129-0.057-1.36 0.566-1.801 1.179-0.801 1.113-0.285 1.457 0.451 0.491 0.347-0.455 0.54-0.9 1.316-0.851 1.793 0.115 3.793 0.128 5.613-0.013 0.804-0.062 0.787 0.295 1.475 0.847 0.918 0.735 1.244 0.378 0.434-0.474-0.526-0.554-0.635-1.24-1.936-1.172" fill="#0f141b"/>
  </g>
  <g transform="matrix(1.0888 0 0 -1.0888 128.24 111.95)">
   <path d="m0 0c-0.768 1.551-1.461 2.759-2.332 3.93-0.652 0.877-0.973 0.993-2.394 0.884-1.417-0.107-3.562-0.236-6.382-0.329-1.24-0.042-2.002-0.435-2.694-1.047-0.978-0.865-1.97-1.86-3.832-4.149-0.959-1.179-1.446-0.73-0.526 0.48 1.723 2.266 2.827 3.593 3.753 4.411 0.87 0.77 1.885 1.24 3.302 1.287 2.812 0.094 4.913 0.226 6.323 0.333 1.427 0.107 2.362-0.173 3.139-1.193 0.874-1.147 1.877-3 3.008-5.556z" fill="#0f141b"/>
  </g>
  <g transform="matrix(1.0888 0 0 -1.0888 81.862 106.22)">
   <path d="m0 0c2.065 3.365 4.434 5.616 6.138 5.63 0.994 8e-3 1.531 0.028 2.332 0.139 0.486 0.068 0.721 0.194 1.138 0.582 1.245 1.159 2.38 2.083 3.099 2.323 0.63 0.21 6.583 0.557 9.418 0.264 1.798-0.185 2.506-0.631 4.329-2.224 0.941-0.822 1.982-1.041 4.413-1.041 1.765 0 3.95-1.602 5.362-3.908 0.512-0.836 0.953-1.407 1.514-1.766l-1.28-0.12c-0.422 0.395-0.719 0.795-1.079 1.383-1.189 1.941-3.165 3.379-4.528 3.379-2.644 0-3.907 0.423-5.035 1.409-1.617 1.413-2.091 1.749-3.787 1.925-2.757 0.285-8.483-0.079-9.041-0.265-0.704-0.235-1.733-1.044-2.826-2.061-0.646-0.602-0.813-0.717-1.566-0.839-0.943-0.154-1.487-0.17-2.43-0.174-0.984-4e-3 -3.076-1.521-5.094-4.719z" fill="#0f141b"/>
  </g>
  <g transform="matrix(1.0888 0 0 -1.0888 125.56 148.12)">
   <path d="m0 0c-0.417-1.558-0.992-2.526-1.846-3.459-1.204-1.315-9.853-4.24-12.713-4.856-2.257-0.486-11.541-0.253-13.717-0.021-2.224 0.238-11.184 3.505-12.708 4.912-0.84 0.775-1.741 2.536-2.071 3.592l1.106-0.443c0.377-0.931 0.968-1.894 1.601-2.478 1.429-1.319 10.089-4.285 12.206-4.528 1.995-0.229 11.099-0.411 13.417 0.038 2.923 0.565 11.306 3.415 12.223 4.425 0.65 0.716 1.184 1.527 1.465 2.425z" fill="#0f141b"/>
  </g>
  <g transform="matrix(1.0888 0 0 -1.0888 73.269 131.35)">
   <path d="m0 0c-1.34-0.921-2.783-1.673-4.451-2.353-1.591-0.648-1.92-0.182-0.28 0.629 1.583 0.782 3.033 1.581 4.5 2.661z" fill="#0f141b"/>
  </g>
  <g transform="matrix(1.0888 0 0 -1.0888 55.984 138.6)">
   <path d="m0 0c1.87 4.993 7.075 7.011 13.145 5.537l-1.279-0.683c-5.019 0.958-9.055-0.908-10.774-4.494z" fill="#0f141b"/>
  </g>
  <g transform="matrix(1.0888 0 0 -1.0888 53.31 139.46)">
   <path d="m0 0c-1.738 1.265-3.261 3.417-3.893 5.383-0.469 1.459 0.135 1.648 0.69 0.226 0.746-1.912 2.102-3.69 3.748-4.877 1.126 0.211 2.112 0.476 3.22 0.884 1.273 0.468 1.444-0.111 0.212-0.678-0.956-0.441-2.016-0.809-3.062-1.062-0.505-0.122-0.594-0.109-0.915 0.124" fill="#0f141b"/>
  </g>
  <g transform="matrix(1.0888 0 0 -1.0888 48.185 145.65)">
   <path d="m0 0c-2.045 2.044-4.245 5.687-5.389 9.008-0.454 1.32 0.086 1.519 0.583 0.214 1.213-3.186 3.353-6.586 5.339-8.735 0.999-1.082 0.453-1.473-0.533-0.487" fill="#0f141b"/>
  </g>
  <g transform="matrix(1.0888 0 0 -1.0888 46.892 118.32)">
   <path d="m0 0c1.537-1.722 3.428-4.245 4.598-6.001 0.729-1.092 0.956-2.109 0.956-3.65 0-2.552 0.099-6.194 0.251-9.12l-0.994 0.888c-0.137 2.816-0.19 5.812-0.19 8.217 0 1.514-0.184 2.212-0.819 3.164-0.996 1.494-2.21 3.315-3.551 4.92z" fill="#0f141b"/>
  </g>
  <g transform="matrix(1.0888 0 0 -1.0888 46.633 114.88)">
   <path d="m0 0c0.428-2.672 0.924-5.08 1.492-6.925 0.472-1.532-0.032-1.671-0.6-0.206-0.768 1.98-1.354 4.287-1.856 6.958z" fill="#0f141b"/>
  </g>
  <g transform="matrix(1.0888 0 0 -1.0888 39.228 114.17)">
   <path d="m0 0c0.864 1.099 1.086 2.141 0.95 3.152-0.145 1.077 0.473 1.195 0.705 0.132 0.251-1.158-0.038-2.592-1.164-3.724-0.82-0.825-1.251-0.526-0.491 0.44" fill="#0f141b"/>
  </g>
  <g transform="matrix(1.0888 0 0 -1.0888 39.308 120.49)">
   <path d="m0 0c-0.402 0.957-0.75 1.9-1.017 2.959-0.29 1.156 0.316 1.318 0.653 0.175 0.299-1.017 0.562-1.834 0.956-2.906 0.491-1.337-0.054-1.509-0.592-0.228" fill="#0f141b"/>
  </g>
  <g transform="matrix(1.0888 0 0 -1.0888 57.159 106.87)">
   <path d="m0 0c-2.047-1.38-3.354-2.612-4.495-4.388-1.616-2.516-2.469-2.981-6.151-3.473-1.358-0.182-1.582 0.324-0.107 0.625 3.223 0.656 3.965 0.969 5.509 3.374 1.111 1.73 1.973 2.746 3.706 3.98z" fill="#0f141b"/>
  </g>
  <g transform="matrix(1.0888 0 0 -1.0888 36.183 101.83)">
   <path d="m0 0c1.088-1.039 2.378-2.8 3.017-4.156 0.606-1.283 0.136-1.487-0.56-0.302-0.778 1.324-1.832 2.614-2.811 3.547z" fill="#0f141b"/>
  </g>
  <g transform="matrix(1.0888 0 0 -1.0888 47.513 84.29)">
   <path d="m0 0c0.59 0.472 1.25 0.719 2.201 0.663 1.044-0.06 3.113-0.295 3.841-0.719 1.236-0.722 3.641-6.019 3.621-7.135-0.022-1.226-1.009-4.227-1.357-5.172-0.207-0.562-0.464-0.998-0.815-1.349l-1.196 0.277c0.435 0.338 0.74 0.81 0.963 1.428 0.405 1.123 1.246 3.848 1.265 4.885 0.019 1.063-2.171 5.723-2.996 6.204-0.525 0.307-2.073 0.55-3.371 0.625-0.868 0.047-1.251-0.103-1.68-0.476z" fill="#0f141b"/>
  </g>
  <g transform="matrix(1.0888 0 0 -1.0888 38.902 85.576)">
   <path d="m0 0c1.109 0.96 3.507 2.273 5.306 2.652 1.332 0.282 2.178-3e-3 2.826-0.938 1.52-2.196 3.88-6.81 3.952-8.438 0.06-1.377-1.028-5.064-1.863-5.967-0.509-0.55-2.006-1.068-4.362-1.514-0.912-0.173-1.615-0.045-2.183 0.397l0.132 1.163c0.311-0.563 0.961-0.758 1.916-0.576 2.173 0.411 3.321 0.844 3.734 1.289 0.682 0.738 1.544 3.849 1.485 5.182-0.065 1.473-2.026 5.588-3.627 7.901-0.447 0.646-0.88 0.759-1.802 0.564-1.663-0.35-3.85-1.466-4.903-2.366z" fill="#0f141b"/>
  </g>
  <g transform="matrix(1.0888 0 0 -1.0888 36.148 101.6)">
   <path d="m0 0c0.963-0.335 2.032-0.383 3.099-0.186 0.857 0.158 2.273 0.741 2.555 1.149 0.316 0.455 0.63 6.383 0.521 7.107-0.212 1.398-1.863 3.852-3.457 5.69-0.8 0.923-1.338 1.033-2.463 0.685-1.375-0.426-2.92-1.438-3.707-2.291l-0.834 0.423c0.838 0.99 2.722 2.302 4.256 2.777 1.425 0.441 2.462 0.26 3.485-0.92 1.699-1.959 3.618-4.71 3.847-6.224 0.096-0.628-0.323-7.376-0.784-7.939-0.48-0.586-2.365-1.307-3.246-1.469-1.151-0.212-2.452-0.088-3.494 0.242z" fill="#0f141b"/>
  </g>
  <g transform="matrix(1.0888 0 0 -1.0888 29.243 117.47)">
   <path d="m0 0c-2.641 2.873-5.485 8.059-6.667 15.951-0.587 3.919 0.931 4.847 1.9 7.431 0.302 0.805 0.714 1.26 1.628 1.91 1.164 0.826 2.564 1.626 3.606 2.12 0.938 0.444 1.861 0.444 2.842-0.364 1.174-0.966 3.424-4.071 3.922-5.72 0.405-1.338-0.317-7.298-0.749-8.161-0.391-0.783-3.591-1.201-4.613-1.01-1.18 0.221-3.24 5.319-4.233 9.142-0.393 1.513 0.193 1.686 0.635 0.186 1.117-3.796 3.133-8.189 3.865-8.326 1.07-0.2 3.299 0.326 3.489 0.706 0.349 0.698 0.865 6.006 0.509 7.183-0.461 1.528-2.441 4.385-3.444 5.21-0.705 0.58-1.09 0.637-1.891 0.257-1.015-0.481-2.207-1.203-3.346-2.012-0.761-0.541-1.001-0.895-1.252-1.564-1.012-2.698-2.279-3.288-1.743-6.872 1.148-7.663 3.61-12.688 6.027-15.637 1.23-1.5 0.781-1.807-0.485-0.43" fill="#0f141b"/>
  </g>
  <g transform="matrix(1.0888 0 0 -1.0888 28.171 97.774)">
   <path d="m0 0c-0.957 0.574-1.767 1.199-2.336 1.843-0.806 0.914-0.501 1.222 0.389 0.39 0.45-0.421 0.962-0.77 1.581-1.13z" fill="#0f141b"/>
  </g>
  <g transform="matrix(1.0888 0 0 -1.0888 73.262 143.02)">
   <path d="m0 0c-4.301-0.983-9.626-3.535-13.614-6.551-0.916-0.693-1.714-0.763-2.63-0.528-1.734 0.444-3.119 1.109-4.481 2.08-0.638 0.454-0.834 0.515-1.173 0.488-0.446-0.033-0.738 0.034-1.512 0.359-3.024 1.273-7.629 3.674-9.969 7.243-3.817 5.823-6.19 13.839-7.799 21.711l1.23-1.305c1.35-6.122 3.431-13.892 7.367-19.895 2.17-3.312 6.422-5.697 9.474-6.982 0.643-0.271 0.828-0.313 1.188-0.286 0.499 0.038 0.869-0.048 1.658-0.61 1.304-0.929 2.494-1.476 4.257-1.913 0.726-0.179 1.181-0.135 1.91 0.417 3.964 2.997 9.135 5.515 13.458 6.557z" fill="#0f141b"/>
  </g>
  <g transform="matrix(1.0888 0 0 -1.0888 131.08 131.37)">
   <path d="m0 0c1.34-0.921 2.783-1.673 4.451-2.353 1.591-0.648 1.92-0.182 0.28 0.629-1.583 0.782-3.033 1.581-4.5 2.661z" fill="#0f141b"/>
  </g>
  <g transform="matrix(1.0888 0 0 -1.0888 148.36 138.62)">
   <path d="m0 0c-1.87 4.993-7.075 7.011-13.145 5.537l1.279-0.683c5.019 0.958 9.055-0.908 10.774-4.494z" fill="#0f141b"/>
  </g>
  <g transform="matrix(1.0888 0 0 -1.0888 151.04 139.48)">
   <path d="m0 0c1.738 1.265 3.261 3.417 3.893 5.383 0.469 1.459-0.135 1.648-0.69 0.226-0.746-1.912-2.102-3.69-3.748-4.877-1.126 0.211-2.112 0.476-3.22 0.884-1.273 0.468-1.444-0.111-0.212-0.678 0.956-0.44 2.016-0.809 3.062-1.062 0.505-0.122 0.594-0.109 0.915 0.124" fill="#0f141b"/>
  </g>
  <g transform="matrix(1.0888 0 0 -1.0888 156.16 145.67)">
   <path d="m0 0c2.045 2.044 4.245 5.687 5.389 9.008 0.455 1.32-0.086 1.519-0.583 0.214-1.213-3.186-3.353-6.586-5.339-8.736-0.999-1.081-0.453-1.472 0.533-0.486" fill="#0f141b"/>
  </g>
  <g transform="matrix(1.0888 0 0 -1.0888 157.46 118.35)">
   <path d="m0 0c-1.537-1.722-3.427-4.245-4.598-6.001-0.729-1.092-0.957-2.109-0.957-3.65 0-2.552-0.098-6.194-0.25-9.12l0.994 0.888c0.137 2.816 0.19 5.812 0.19 8.217 0 1.514 0.184 2.212 0.819 3.164 0.996 1.494 2.21 3.316 3.551 4.92z" fill="#0f141b"/>
  </g>
  <g transform="matrix(1.0888 0 0 -1.0888 157.72 114.91)">
   <path d="m0 0c-0.428-2.672-0.924-5.08-1.492-6.925-0.472-1.532 0.032-1.671 0.6-0.206 0.768 1.98 1.354 4.287 1.856 6.958z" fill="#0f141b"/>
  </g>
  <g transform="matrix(1.0888 0 0 -1.0888 165.12 114.19)">
   <path d="m0 0c-0.864 1.099-1.086 2.141-0.95 3.152 0.145 1.077-0.473 1.195-0.705 0.132-0.251-1.158 0.038-2.592 1.164-3.724 0.82-0.825 1.251-0.526 0.491 0.44" fill="#0f141b"/>
  </g>
  <g transform="matrix(1.0888 0 0 -1.0888 165.04 120.51)">
   <path d="M 0,0 C 0.402,0.957 0.75,1.9 1.017,2.959 1.307,4.115 0.701,4.277 0.364,3.134 0.065,2.117 -0.198,1.3 -0.592,0.228 -1.083,-1.11 -0.538,-1.281 0,0" fill="#0f141b"/>
  </g>
  <g transform="matrix(1.0888 0 0 -1.0888 147.19 106.9)">
   <path d="m0 0c2.047-1.38 3.354-2.612 4.495-4.388 1.616-2.516 2.469-2.981 6.151-3.473 1.358-0.182 1.582 0.324 0.107 0.625-3.223 0.656-3.965 0.969-5.509 3.374-1.111 1.73-1.973 2.745-3.706 3.98z" fill="#0f141b"/>
  </g>
  <g transform="matrix(1.0888 0 0 -1.0888 168.17 101.86)">
   <path d="m0 0c-1.088-1.039-2.377-2.8-3.017-4.155-0.606-1.284-0.136-1.488 0.56-0.303 0.778 1.324 1.832 2.614 2.811 3.547z" fill="#0f141b"/>
  </g>
  <g transform="matrix(1.0888 0 0 -1.0888 156.84 84.312)">
   <path d="m0 0c-0.59 0.472-1.25 0.718-2.201 0.663-1.044-0.061-3.113-0.295-3.841-0.72-1.236-0.721-3.641-6.018-3.621-7.134 0.022-1.226 1.009-4.227 1.357-5.172 0.207-0.562 0.464-0.998 0.815-1.349l1.196 0.277c-0.435 0.338-0.74 0.81-0.963 1.428-0.405 1.123-1.246 3.848-1.265 4.885-0.019 1.063 2.171 5.723 2.996 6.204 0.525 0.307 2.073 0.55 3.371 0.625 0.868 0.047 1.25-0.103 1.68-0.476z" fill="#0f141b"/>
  </g>
  <g transform="matrix(1.0888 0 0 -1.0888 165.45 85.598)">
   <path d="m0 0c-1.109 0.959-3.507 2.273-5.306 2.652-1.332 0.282-2.178-3e-3 -2.826-0.938-1.52-2.196-3.88-6.81-3.952-8.438-0.06-1.377 1.028-5.064 1.863-5.967 0.509-0.55 2.006-1.068 4.362-1.514 0.912-0.173 1.615-0.045 2.183 0.397l-0.132 1.163c-0.311-0.563-0.96-0.758-1.916-0.576-2.173 0.411-3.321 0.844-3.734 1.289-0.682 0.738-1.544 3.849-1.485 5.182 0.065 1.473 2.026 5.588 3.627 7.901 0.447 0.646 0.88 0.759 1.802 0.564 1.663-0.35 3.85-1.466 4.903-2.366z" fill="#0f141b"/>
  </g>
  <g transform="matrix(1.0888 0 0 -1.0888 168.2 101.62)">
   <path d="m0 0c-0.963-0.335-2.032-0.383-3.099-0.186-0.857 0.158-2.273 0.741-2.555 1.149-0.316 0.455-0.63 6.383-0.521 7.107 0.212 1.398 1.863 3.852 3.457 5.69 0.8 0.923 1.338 1.034 2.463 0.685 1.375-0.426 2.92-1.438 3.707-2.291l0.834 0.423c-0.838 0.99-2.722 2.302-4.256 2.777-1.425 0.441-2.462 0.26-3.485-0.92-1.699-1.959-3.618-4.71-3.847-6.224-0.096-0.628 0.323-7.376 0.784-7.939 0.48-0.586 2.365-1.307 3.246-1.469 1.151-0.212 2.452-0.088 3.494 0.242z" fill="#0f141b"/>
  </g>
  <g transform="matrix(1.0888 0 0 -1.0888 175.11 117.5)">
   <path d="m0 0c2.641 2.873 5.485 8.059 6.667 15.951 0.587 3.919-0.931 4.847-1.9 7.431-0.301 0.805-0.714 1.26-1.628 1.91-1.164 0.826-2.564 1.626-3.606 2.12-0.938 0.444-1.86 0.444-2.842-0.364-1.174-0.966-3.424-4.071-3.922-5.72-0.405-1.338 0.317-7.298 0.749-8.161 0.391-0.783 3.591-1.201 4.613-1.01 1.18 0.221 3.24 5.319 4.233 9.142 0.393 1.513-0.193 1.686-0.634 0.186-1.118-3.796-3.134-8.188-3.866-8.326-1.07-0.2-3.299 0.326-3.489 0.706-0.349 0.698-0.865 6.006-0.509 7.183 0.461 1.528 2.441 4.385 3.444 5.21 0.705 0.58 1.09 0.637 1.892 0.257 1.014-0.481 2.206-1.203 3.345-2.012 0.761-0.541 1.001-0.895 1.252-1.563 1.012-2.699 2.279-3.289 1.743-6.873-1.148-7.663-3.61-12.688-6.027-15.637-1.23-1.5-0.781-1.807 0.485-0.43" fill="#0f141b"/>
  </g>
  <g transform="matrix(1.0888 0 0 -1.0888 176.18 97.796)">
   <path d="m0 0c0.957 0.574 1.767 1.199 2.336 1.843 0.806 0.914 0.5 1.222-0.389 0.39-0.45-0.421-0.962-0.77-1.581-1.13z" fill="#0f141b"/>
  </g>
  <g transform="matrix(1.0888 0 0 -1.0888 131.09 143.05)">
   <path d="m0 0c4.301-0.983 9.626-3.535 13.614-6.551 0.916-0.693 1.714-0.763 2.63-0.528 1.734 0.444 3.119 1.109 4.481 2.08 0.638 0.454 0.834 0.515 1.173 0.488 0.446-0.033 0.738 0.034 1.512 0.359 3.024 1.273 7.629 3.674 9.969 7.243 3.817 5.823 6.19 13.839 7.798 21.711l-1.229-1.305c-1.35-6.122-3.431-13.892-7.367-19.895-2.17-3.312-6.422-5.697-9.474-6.982-0.643-0.27-0.828-0.313-1.187-0.286-0.5 0.038-0.87-0.048-1.659-0.61-1.304-0.929-2.494-1.476-4.257-1.912-0.726-0.18-1.181-0.136-1.91 0.416-3.964 2.997-9.135 5.515-13.458 6.557z" fill="#0f141b"/>
  </g>
  <g transform="matrix(1.0888 0 0 -1.0888 92.957 137.41)">
   <path d="m0 0c0.361 0.617 0.669 1.686 0.76 3.324 0.053 0.967 0.022 1.806-0.078 2.489-0.65 0.405-1.49 0.864-2.16 1.135-0.346-0.736-0.562-1.927-0.568-3.489-7e-3 -1.579 0.189-2.787 0.505-3.478 0.483 0.028 0.977 0.03 1.541 0.019" fill="#0f141b"/>
  </g>
  <g transform="matrix(1.0888 0 0 -1.0888 93.281 130.94)">
   <path d="m0 0c0.124-1.268-0.395-2.09-0.959-2.049-0.467 0.034-0.794 0.782-0.729 1.67 0.036 0.489 0.183 0.919 0.386 1.2 0.385-0.189 0.838-0.466 1.302-0.821" fill="#fff"/>
  </g>
  <g transform="matrix(1.0888 0 0 -1.0888 113.2 129.73)">
   <path d="m0 0c0.314-0.656 0.506-1.774 0.586-3.489 0.086-1.864-0.247-3.08-0.691-3.639-0.376 0.031-0.92 0.06-1.219 0.061-0.469 0.611-0.889 1.853-0.98 3.444-0.056 0.964-0.022 1.748 0.071 2.373 0.449 0.313 1.619 0.933 2.233 1.25" fill="#0f141b"/>
  </g>
  <g transform="matrix(1.0888 0 0 -1.0888 111.22 130.87)">
   <path d="m 0,0 c -0.133,-0.992 0.262,-2.109 0.873,-2.084 0.499,0.021 0.983,0.601 0.949,1.676 C 1.806,0.087 1.65,0.516 1.437,0.8 1.039,0.608 0.463,0.305 0,0" fill="#fff"/>
  </g>
  <g transform="matrix(1.0888 0 0 -1.0888 95.873 132.81)">
   <path d="m0 0c-3.207 2.12-10.203 5.55-13.813 6.24-1.142 0.219-1.04 0.916 0.109 0.742 3.653-0.552 10.846-4.179 14.038-6.449 1.204-0.857 0.888-1.341-0.334-0.533" fill="#0f141b"/>
  </g>
  <g transform="matrix(1.0888 0 0 -1.0888 108.05 132.39)">
   <path d="m0 0c3.001 2.21 9.819 5.812 13.961 6.594 1.606 0.303 1.72-0.366 0.137-0.738-3.975-0.935-10.531-4.293-13.741-6.361-1.258-0.81-1.561-0.382-0.357 0.505" fill="#0f141b"/>
  </g>
  <g transform="matrix(1.0888 0 0 -1.0888 59.149 102.45)">
   <path d="m0 0c0.224 1.121-0.219 2.177-1.497 2.549-2.084 0.607-4.698 1.053-6.576 1.235-0.938 0.09-1.28-0.157-1.477-0.668-0.334-0.865-0.628-1.841-0.708-2.671-0.152-1.557 0.386-2.666 1.76-3.379 1.052-0.546 2.881-1.137 4.249-1.173 1.763-0.047 2.661 0.198 3.156 1.153 0.547 1.052 0.911 2.043 1.093 2.954" fill="#b4b3a9"/>
  </g>
  <g transform="matrix(1.0888 0 0 -1.0888 145.2 102.47)">
   <path d="m0 0c-0.224 1.121 0.219 2.177 1.497 2.549 2.084 0.607 4.698 1.053 6.576 1.235 0.938 0.09 1.28-0.157 1.477-0.668 0.334-0.865 0.628-1.841 0.708-2.671 0.152-1.557-0.386-2.666-1.76-3.379-1.052-0.546-2.881-1.137-4.249-1.173-1.763-0.047-2.661 0.198-3.156 1.153-0.547 1.052-0.911 2.043-1.093 2.954" fill="#b4b3a9"/>
  </g>
  <g transform="matrix(1.0888 0 0 -1.0888 48.953 99.28)">
   <path d="m0 0c-0.258-1.566 0.143-2.528 1.186-3.154 1.941-1.165 5.217-1.799 7.59-1.615-0.594-1.674-1.586-2.36-3.545-2.227-1.826 0.125-3.804 0.761-4.841 1.398-1.364 0.836-1.739 2.868-0.39 5.598" fill="#888780"/>
  </g>
  <g transform="matrix(1.0888 0 0 -1.0888 155.4 99.302)">
   <path d="m0 0c0.258-1.566-0.143-2.528-1.186-3.154-1.941-1.165-5.217-1.799-7.59-1.615 0.594-1.674 1.586-2.36 3.545-2.227 1.826 0.125 3.804 0.761 4.841 1.398 1.364 0.836 1.739 2.868 0.39 5.598" fill="#888780"/>
  </g>
  <g transform="matrix(1.0888 0 0 -1.0888 58.607 102.35)">
   <path d="m0 0c0.194 0.969-0.064 1.672-1.123 1.98-2.25 0.656-4.921 1.089-6.525 1.245-0.756 0.073-0.939-0.137-1.047-0.418-0.267-0.691-0.505-1.655-0.592-2.549-0.132-1.351 0.292-2.22 1.51-2.853 1.017-0.528 2.721-1.092 4.041-1.127 1.901-0.05 2.329 0.238 2.685 0.923 0.53 1.02 0.873 1.907 1.051 2.799m-3.811-4.684c-1.417 0.037-3.369 0.669-4.467 1.239-1.48 0.769-2.146 1.858-1.958 3.786 0.094 0.956 0.434 2.153 0.714 2.876 0.257 0.666 0.759 1.084 1.988 0.964 1.627-0.158 4.375-0.564 6.661-1.229 1.685-0.491 2.15-1.672 1.852-3.164-0.189-0.943-0.604-1.998-1.158-3.064-0.592-1.14-1.732-1.456-3.632-1.408" fill="#0f141b"/>
  </g>
  <g transform="matrix(1.0888 0 0 -1.0888 146.89 105.42)">
   <path d="m0 0c0.356-0.685 0.785-0.973 2.686-0.923 1.319 0.035 3.024 0.599 4.041 1.127 1.218 0.633 1.641 1.502 1.51 2.853-0.088 0.894-0.325 1.858-0.592 2.55-0.109 0.28-0.291 0.49-1.047 0.417-1.604-0.155-4.276-0.589-6.526-1.245-1.059-0.308-1.316-1.011-1.123-1.98 0.179-0.892 0.521-1.779 1.051-2.799m-0.872-0.477c-0.553 1.066-0.969 2.121-1.157 3.064-0.299 1.492 0.167 2.673 1.851 3.164 2.287 0.666 5.034 1.071 6.662 1.229 1.228 0.12 1.731-0.297 1.988-0.964 0.279-0.723 0.62-1.919 0.713-2.875 0.188-1.929-0.478-3.018-1.958-3.787-1.098-0.57-3.049-1.202-4.466-1.239-1.9-0.048-3.041 0.268-3.633 1.408" fill="#0f141b"/>
  </g>
 </g>
</svg>
